Start,Duration,Pitch,Velocity,Instrument
7.666666666666667,0.12195121951219512,69,1,Electric Guitar
8.0,1.951219512195122,67,93,Electric Guitar
8.0,1.951219512195122,64,93,Electric Guitar
8.0,1.951219512195122,45,93,Electric Guitar
8.0,1.951219512195122,60,93,Electric Guitar
8.0,1.951219512195122,71,93,Electric Guitar
8.0,1.951219512195122,69,127,Electric Guitar
8.0,1.951219512195122,33,127,Electric Guitar
9.0,0.975609756097561,66,127,Electric Guitar
9.0,0.975609756097561,64,127,Electric Guitar
9.0,0.975609756097561,72,127,Electric Guitar
12.0,1.951219512195122,66,93,Electric Guitar
12.0,1.951219512195122,38,93,Electric Guitar
12.0,1.951219512195122,62,93,Electric Guitar
12.0,1.951219512195122,71,93,Electric Guitar
12.0,1.951219512195122,69,93,Electric Guitar
12.0,1.951219512195122,38,127,Electric Guitar
13.25,0.12195121951219512,67,127,Electric Guitar
13.5,0.12195121951219512,69,127,Electric Guitar
14.0,0.12195121951219512,63,127,Electric Guitar
14.25,0.6097560975609756,62,127,Electric Guitar
15.5,0.16260162601626016,60,127,Electric Guitar
16.0,0.0,57,88,Electric Guitar
16.0,0.0,57,88,Electric Guitar
16.0,1.951219512195122,41,93,Electric Guitar
16.0,1.951219512195122,60,93,Electric Guitar
16.0,1.951219512195122,57,93,Electric Guitar
16.0,1.951219512195122,64,93,Electric Guitar
16.0,1.951219512195122,67,93,Electric Guitar
16.0,1.951219512195122,29,127,Electric Guitar
16.25,0.0,57,66,Electric Guitar
16.333333333333332,0.0,57,66,Electric Guitar
16.5,0.0,57,60,Electric Guitar
16.666666666666668,0.0,57,60,Electric Guitar
16.75,0.0,57,56,Electric Guitar
16.75,0.0,57,56,Electric Guitar
17.0,0.0,57,67,Electric Guitar
17.0,0.0,57,67,Electric Guitar
17.0,0.12195121951219512,57,127,Electric Guitar
17.0,0.975609756097561,76,127,Electric Guitar
17.0,0.975609756097561,69,127,Electric Guitar
17.0,0.975609756097561,72,127,Electric Guitar
17.0,0.975609756097561,79,127,Electric Guitar
17.25,0.0,57,59,Electric Guitar
17.25,0.12195121951219512,60,127,Electric Guitar
17.333333333333332,0.0,57,59,Electric Guitar
17.5,0.0,57,63,Electric Guitar
17.5,0.24390243902439024,62,127,Electric Guitar
17.666666666666668,0.0,57,63,Electric Guitar
17.75,0.0,57,66,Electric Guitar
17.75,0.0,57,66,Electric Guitar
18.0,0.0,57,66,Electric Guitar
18.0,0.0,57,66,Electric Guitar
18.0,0.12195121951219512,64,127,Electric Guitar
18.25,0.0,57,64,Electric Guitar
18.25,0.12195121951219512,67,127,Electric Guitar
18.333333333333332,0.0,57,64,Electric Guitar
18.5,0.0,57,62,Electric Guitar
18.5,0.24390243902439024,69,127,Electric Guitar
18.666666666666668,0.0,57,62,Electric Guitar
18.75,0.0,57,62,Electric Guitar
18.75,0.0,57,62,Electric Guitar
19.0,0.0,57,66,Electric Guitar
19.0,0.0,57,66,Electric Guitar
19.0,0.12195121951219512,72,127,Electric Guitar
19.25,0.0,57,62,Electric Guitar
19.25,0.12195121951219512,74,127,Electric Guitar
19.333333333333332,0.0,57,62,Electric Guitar
19.5,0.0,57,54,Electric Guitar
19.5,0.12195121951219512,76,127,Electric Guitar
19.666666666666668,0.0,57,54,Electric Guitar
19.75,0.0,57,54,Electric Guitar
19.75,0.0,57,54,Electric Guitar
19.75,0.12195121951219512,79,127,Electric Guitar
20.0,0.0,57,88,Electric Guitar
20.0,0.0,57,88,Electric Guitar
20.0,3.902439024390244,59,93,Electric Guitar
20.0,3.902439024390244,62,93,Electric Guitar
20.0,3.902439024390244,67,93,Electric Guitar
20.0,3.902439024390244,56,93,Electric Guitar
20.0,3.902439024390244,40,93,Electric Guitar
20.0,0.12195121951219512,81,127,Electric Guitar
20.0,3.902439024390244,28,127,Electric Guitar
20.25,0.0,57,66,Electric Guitar
20.25,0.12195121951219512,84,127,Electric Guitar
20.333333333333332,0.0,57,66,Electric Guitar
20.5,0.0,57,60,Electric Guitar
20.5,0.12195121951219512,86,127,Electric Guitar
20.666666666666668,0.0,57,60,Electric Guitar
20.75,0.0,57,56,Electric Guitar
20.75,0.0,57,56,Electric Guitar
20.75,0.12195121951219512,88,127,Electric Guitar
21.0,0.0,57,67,Electric Guitar
21.0,0.0,57,67,Electric Guitar
21.0,0.12195121951219512,91,127,Electric Guitar
21.25,0.0,57,59,Electric Guitar
21.25,0.12195121951219512,93,127,Electric Guitar
21.333333333333332,0.0,57,59,Electric Guitar
21.5,0.0,57,63,Electric Guitar
21.5,0.12195121951219512,96,127,Electric Guitar
21.666666666666668,0.0,57,63,Electric Guitar
21.75,0.0,57,66,Electric Guitar
21.75,0.0,57,66,Electric Guitar
21.75,0.12195121951219512,98,127,Electric Guitar
22.0,0.0,69,66,Electric Guitar
22.0,0.0,69,66,Electric Guitar
22.0,2.926829268292683,100,127,Electric Guitar
22.0,2.926829268292683,68,127,Electric Guitar
22.0,2.926829268292683,64,127,Electric Guitar
22.0,2.926829268292683,52,127,Electric Guitar
22.0,2.926829268292683,71,127,Electric Guitar
22.0,2.926829268292683,79,127,Electric Guitar
22.0,2.926829268292683,74,127,Electric Guitar
22.25,0.0,69,64,Electric Guitar
22.333333333333332,0.0,69,64,Electric Guitar
22.5,0.0,69,62,Electric Guitar
22.666666666666668,0.0,69,62,Electric Guitar
22.75,0.0,69,62,Electric Guitar
22.75,0.0,69,62,Electric Guitar
23.0,0.0,69,66,Electric Guitar
23.0,0.0,69,66,Electric Guitar
23.25,0.0,69,62,Electric Guitar
23.333333333333332,0.0,69,62,Electric Guitar
23.5,0.0,69,54,Electric Guitar
23.666666666666668,0.0,69,54,Electric Guitar
23.75,0.0,69,54,Electric Guitar
23.75,0.0,69,54,Electric Guitar
24.0,0.0,69,88,Electric Guitar
24.0,0.0,69,88,Electric Guitar
24.25,0.0,69,66,Electric Guitar
24.333333333333332,0.0,69,66,Electric Guitar
24.5,0.0,69,60,Electric Guitar
24.666666666666668,0.0,69,60,Electric Guitar
24.75,0.0,69,56,Electric Guitar
24.75,0.0,69,56,Electric Guitar
25.0,0.0,69,67,Electric Guitar
25.0,0.0,69,67,Electric Guitar
25.25,0.0,69,59,Electric Guitar
25.333333333333332,0.0,69,59,Electric Guitar
25.5,0.0,69,63,Electric Guitar
25.666666666666668,0.0,69,63,Electric Guitar
25.75,0.0,69,66,Electric Guitar
25.75,0.0,69,66,Electric Guitar
28.0,0.12195121951219512,98,127,Electric Guitar
28.0,0.12195121951219512,96,127,Electric Guitar
28.25,0.12195121951219512,95,127,Electric Guitar
28.333333333333332,0.0,93,127,Electric Guitar
28.5,0.0,91,127,Electric Guitar
28.666666666666668,0.0,89,127,Electric Guitar
28.75,0.0,88,127,Electric Guitar
29.0,0.0,86,127,Electric Guitar
29.0,0.0,84,127,Electric Guitar
29.25,0.0,83,127,Electric Guitar
29.25,0.0,81,127,Electric Guitar
29.333333333333332,0.0,79,127,Electric Guitar
29.5,0.0,77,127,Electric Guitar
29.666666666666668,0.12195121951219512,76,127,Electric Guitar
29.75,0.12195121951219512,74,127,Electric Guitar
30.0,0.0,72,127,Electric Guitar
30.25,0.12195121951219512,71,127,Electric Guitar
30.333333333333332,0.12195121951219512,69,127,Electric Guitar
30.5,0.12195121951219512,67,127,Electric Guitar
30.666666666666668,0.0,65,127,Electric Guitar
30.75,0.12195121951219512,64,127,Electric Guitar
31.0,0.12195121951219512,62,127,Electric Guitar
31.0,0.0,60,127,Electric Guitar
31.25,0.0,59,127,Electric Guitar
31.333333333333332,0.0,57,127,Electric Guitar
31.5,0.0,55,127,Electric Guitar
31.666666666666668,0.0,53,127,Electric Guitar
31.75,0.0,52,127,Electric Guitar
32.0,1.951219512195122,71,93,Electric Guitar
32.0,1.951219512195122,72,93,Electric Guitar
32.0,1.951219512195122,45,93,Electric Guitar
32.0,1.951219512195122,76,93,Electric Guitar
32.0,1.951219512195122,67,93,Electric Guitar
32.0,0.0,59,127,Electric Guitar
32.0,0.0,55,127,Electric Guitar
32.0,0.0,60,127,Electric Guitar
32.0,0.0,64,127,Electric Guitar
32.0,0.12195121951219512,45,127,Electric Guitar
32.0,0.0,42,127,Electric Guitar
32.0,0.16260162601626016,57,127,Electric Guitar
32.25,0.0,42,127,Electric Guitar
32.5,0.0,46,127,Electric Guitar
33.0,0.3252032520325203,64,127,Electric Guitar
33.0,0.3252032520325203,45,127,Electric Guitar
33.0,0.3252032520325203,55,127,Electric Guitar
33.0,0.3252032520325203,60,127,Electric Guitar
33.0,0.3252032520325203,59,127,Electric Guitar
33.0,0.0,42,127,Electric Guitar
33.25,0.0,42,127,Electric Guitar
33.5,0.0,46,127,Electric Guitar
33.75,0.0,60,127,Electric Guitar
33.75,0.0,55,127,Electric Guitar
33.75,0.0,45,127,Electric Guitar
33.75,0.0,59,127,Electric Guitar
33.75,0.0,64,127,Electric Guitar
34.0,0.0,42,127,Electric Guitar
34.25,0.0,42,127,Electric Guitar
34.5,0.36585365853658536,55,127,Electric Guitar
34.5,0.36585365853658536,64,127,Electric Guitar
34.5,0.36585365853658536,59,127,Electric Guitar
34.5,0.36585365853658536,60,127,Electric Guitar
34.5,0.36585365853658536,45,127,Electric Guitar
34.5,0.0,46,127,Electric Guitar
35.0,0.0,42,127,Electric Guitar
35.25,0.0,42,127,Electric Guitar
35.5,0.0,55,127,Electric Guitar
35.5,0.0,59,127,Electric Guitar
35.5,0.0,60,127,Electric Guitar
35.5,0.0,64,127,Electric Guitar
35.5,0.0,45,127,Electric Guitar
35.5,0.0,46,127,Electric Guitar
36.0,1.951219512195122,41,93,Electric Guitar
36.0,1.951219512195122,69,93,Electric Guitar
36.0,1.951219512195122,72,93,Electric Guitar
36.0,1.951219512195122,67,93,Electric Guitar
36.0,1.951219512195122,75,93,Electric Guitar
36.0,0.0,63,127,Electric Guitar
36.0,0.0,60,127,Electric Guitar
36.0,0.0,57,127,Electric Guitar
36.0,0.0,67,127,Electric Guitar
36.0,0.12195121951219512,41,127,Electric Guitar
36.0,0.0,42,127,Electric Guitar
36.25,0.0,42,127,Electric Guitar
36.5,0.0,46,127,Electric Guitar
37.0,0.3252032520325203,63,127,Electric Guitar
37.0,0.3252032520325203,60,127,Electric Guitar
37.0,0.3252032520325203,57,127,Electric Guitar
37.0,0.3252032520325203,67,127,Electric Guitar
37.0,0.3252032520325203,41,127,Electric Guitar
37.0,0.0,42,127,Electric Guitar
37.25,0.0,42,127,Electric Guitar
37.5,0.0,46,127,Electric Guitar
37.75,0.0,57,127,Electric Guitar
37.75,0.0,41,127,Electric Guitar
37.75,0.0,67,127,Electric Guitar
37.75,0.0,63,127,Electric Guitar
37.75,0.0,60,127,Electric Guitar
38.0,0.0,42,127,Electric Guitar
38.0,0.0,93,127,Electric Guitar
38.25,0.0,42,127,Electric Guitar
38.25,0.12195121951219512,96,127,Electric Guitar
38.5,0.36585365853658536,63,127,Electric Guitar
38.5,0.36585365853658536,57,127,Electric Guitar
38.5,0.36585365853658536,41,127,Electric Guitar
38.5,0.36585365853658536,67,127,Electric Guitar
38.5,0.36585365853658536,60,127,Electric Guitar
38.5,0.0,46,127,Electric Guitar
38.5,0.0,99,127,Electric Guitar
38.75,0.24390243902439024,98,127,Electric Guitar
39.0,0.0,42,127,Electric Guitar
39.25,0.0,42,127,Electric Guitar
39.5,0.0,57,127,Electric Guitar
39.5,0.0,63,127,Electric Guitar
39.5,0.0,60,127,Electric Guitar
39.5,0.0,67,127,Electric Guitar
39.5,0.0,41,127,Electric Guitar
39.5,0.0,46,127,Electric Guitar
39.5,0.12195121951219512,96,127,Electric Guitar
40.0,0.0,69,88,Electric Guitar
40.0,0.0,69,88,Electric Guitar
40.0,1.951219512195122,47,93,Electric Guitar
40.0,1.951219512195122,74,93,Electric Guitar
40.0,1.951219512195122,66,93,Electric Guitar
40.0,1.951219512195122,71,93,Electric Guitar
40.0,1.951219512195122,69,93,Electric Guitar
40.0,0.0,66,127,Electric Guitar
40.0,0.0,57,127,Electric Guitar
40.0,0.0,62,127,Electric Guitar
40.0,0.0,59,127,Electric Guitar
40.0,0.12195121951219512,47,127,Electric Guitar
40.0,0.0,42,127,Electric Guitar
40.25,0.0,69,66,Electric Guitar
40.25,0.0,42,127,Electric Guitar
40.333333333333336,0.0,69,66,Electric Guitar
40.5,0.0,69,60,Electric Guitar
40.5,0.0,46,127,Electric Guitar
40.666666666666664,0.0,69,60,Electric Guitar
40.75,0.0,69,56,Electric Guitar
40.75,0.0,69,56,Electric Guitar
41.0,0.0,69,67,Electric Guitar
41.0,0.0,69,67,Electric Guitar
41.0,0.3252032520325203,47,127,Electric Guitar
41.0,0.3252032520325203,66,127,Electric Guitar
41.0,0.3252032520325203,57,127,Electric Guitar
41.0,0.3252032520325203,62,127,Electric Guitar
41.0,0.3252032520325203,59,127,Electric Guitar
41.0,0.0,42,127,Electric Guitar
41.25,0.0,69,59,Electric Guitar
41.25,0.0,42,127,Electric Guitar
41.333333333333336,0.0,69,59,Electric Guitar
41.5,0.0,69,63,Electric Guitar
41.5,0.0,46,127,Electric Guitar
41.666666666666664,0.0,69,63,Electric Guitar
41.75,0.0,69,66,Electric Guitar
41.75,0.0,69,66,Electric Guitar
41.75,0.0,57,127,Electric Guitar
41.75,0.0,59,127,Electric Guitar
41.75,0.0,62,127,Electric Guitar
41.75,0.0,66,127,Electric Guitar
41.75,0.12195121951219512,47,127,Electric Guitar
42.0,0.0,69,66,Electric Guitar
42.0,0.0,69,66,Electric Guitar
42.0,0.0,42,127,Electric Guitar
42.25,0.0,69,64,Electric Guitar
42.25,0.0,42,127,Electric Guitar
42.333333333333336,0.0,69,64,Electric Guitar
42.5,0.0,69,62,Electric Guitar
42.5,0.36585365853658536,59,127,Electric Guitar
42.5,0.36585365853658536,66,127,Electric Guitar
42.5,0.36585365853658536,57,127,Electric Guitar
42.5,0.36585365853658536,62,127,Electric Guitar
42.5,0.36585365853658536,47,127,Electric Guitar
42.5,0.0,46,127,Electric Guitar
42.666666666666664,0.0,69,62,Electric Guitar
42.75,0.0,69,62,Electric Guitar
42.75,0.0,69,62,Electric Guitar
43.0,0.0,69,66,Electric Guitar
43.0,0.0,69,66,Electric Guitar
43.0,0.0,42,127,Electric Guitar
43.25,0.0,69,62,Electric Guitar
43.25,0.0,42,127,Electric Guitar
43.333333333333336,0.0,69,62,Electric Guitar
43.5,0.0,69,54,Electric Guitar
43.5,0.0,47,127,Electric Guitar
43.5,0.0,57,127,Electric Guitar
43.5,0.0,59,127,Electric Guitar
43.5,0.0,62,127,Electric Guitar
43.5,0.0,66,127,Electric Guitar
43.5,0.0,46,127,Electric Guitar
43.666666666666664,0.0,69,54,Electric Guitar
43.75,0.0,69,54,Electric Guitar
43.75,0.0,69,54,Electric Guitar
44.0,0.0,57,88,Electric Guitar
44.0,0.0,57,88,Electric Guitar
44.0,1.951219512195122,40,93,Electric Guitar
44.0,1.951219512195122,64,93,Electric Guitar
44.0,0.975609756097561,68,93,Electric Guitar
44.0,0.975609756097561,72,93,Electric Guitar
44.0,0.0,59,127,Electric Guitar
44.0,0.0,62,127,Electric Guitar
44.0,0.0,56,127,Electric Guitar
44.0,0.0,65,127,Electric Guitar
44.0,0.12195121951219512,40,127,Electric Guitar
44.0,0.0,42,127,Electric Guitar
44.25,0.0,57,66,Electric Guitar
44.25,0.0,42,127,Electric Guitar
44.333333333333336,0.0,57,66,Electric Guitar
44.5,0.0,57,60,Electric Guitar
44.5,0.0,46,127,Electric Guitar
44.666666666666664,0.0,57,60,Electric Guitar
44.75,0.0,57,56,Electric Guitar
44.75,0.0,57,56,Electric Guitar
45.0,0.0,57,67,Electric Guitar
45.0,0.0,57,67,Electric Guitar
45.0,0.3252032520325203,56,127,Electric Guitar
45.0,0.3252032520325203,62,127,Electric Guitar
45.0,0.3252032520325203,59,127,Electric Guitar
45.0,0.24390243902439024,40,127,Electric Guitar
45.0,0.24390243902439024,65,127,Electric Guitar
45.0,0.0,42,127,Electric Guitar
45.25,0.0,57,59,Electric Guitar
45.25,0.0,42,127,Electric Guitar
45.333333333333336,0.0,57,59,Electric Guitar
45.5,0.0,57,63,Electric Guitar
45.5,0.0,46,127,Electric Guitar
45.666666666666664,0.0,57,63,Electric Guitar
45.75,0.0,57,66,Electric Guitar
45.75,0.0,57,66,Electric Guitar
45.75,0.0,56,127,Electric Guitar
45.75,0.0,65,127,Electric Guitar
45.75,0.0,62,127,Electric Guitar
45.75,0.0,59,127,Electric Guitar
45.75,0.0,40,127,Electric Guitar
46.0,0.0,57,66,Electric Guitar
46.0,0.0,57,66,Electric Guitar
46.0,0.975609756097561,68,93,Electric Guitar
46.0,0.0,42,127,Electric Guitar
46.0,0.12195121951219512,105,127,Electric Guitar
46.25,0.0,57,64,Electric Guitar
46.25,0.0,42,127,Electric Guitar
46.25,0.12195121951219512,100,127,Electric Guitar
46.333333333333336,0.0,57,64,Electric Guitar
46.5,0.0,57,62,Electric Guitar
46.5,0.36585365853658536,56,127,Electric Guitar
46.5,0.36585365853658536,40,127,Electric Guitar
46.5,0.36585365853658536,65,127,Electric Guitar
46.5,0.36585365853658536,62,127,Electric Guitar
46.5,0.36585365853658536,59,127,Electric Guitar
46.5,0.0,46,127,Electric Guitar
46.5,0.12195121951219512,99,127,Electric Guitar
46.666666666666664,0.0,57,62,Electric Guitar
46.75,0.0,57,62,Electric Guitar
46.75,0.0,57,62,Electric Guitar
46.75,0.3252032520325203,98,127,Electric Guitar
47.0,0.0,57,66,Electric Guitar
47.0,0.0,57,66,Electric Guitar
47.0,0.0,42,127,Electric Guitar
47.25,0.0,57,62,Electric Guitar
47.25,0.0,42,127,Electric Guitar
47.333333333333336,0.0,57,62,Electric Guitar
47.5,0.0,57,54,Electric Guitar
47.5,0.0,56,127,Electric Guitar
47.5,0.0,65,127,Electric Guitar
47.5,0.0,59,127,Electric Guitar
47.5,0.0,40,127,Electric Guitar
47.5,0.0,62,127,Electric Guitar
47.5,0.0,46,127,Electric Guitar
47.5,0.24390243902439024,96,127,Electric Guitar
47.666666666666664,0.0,57,54,Electric Guitar
47.75,0.0,57,54,Electric Guitar
47.75,0.0,57,54,Electric Guitar
48.0,1.951219512195122,67,101,Electric Guitar
48.0,1.951219512195122,64,101,Electric Guitar
48.0,1.951219512195122,45,101,Electric Guitar
48.0,1.951219512195122,71,101,Electric Guitar
48.0,0.0,59,127,Electric Guitar
48.0,0.0,55,127,Electric Guitar
48.0,0.0,60,127,Electric Guitar
48.0,0.0,64,127,Electric Guitar
48.0,0.12195121951219512,45,127,Electric Guitar
48.0,0.12195121951219512,36,127,Electric Guitar
48.0,0.12195121951219512,49,127,Electric Guitar
48.0,0.0,42,127,Electric Guitar
48.0,0.16260162601626016,55,127,Electric Guitar
48.25,0.0,42,127,Electric Guitar
48.25,0.24390243902439024,57,112,Electric Guitar
48.5,0.0,46,127,Electric Guitar
48.75,0.12195121951219512,60,110,Electric Guitar
49.0,0.3252032520325203,64,127,Electric Guitar
49.0,0.3252032520325203,45,127,Electric Guitar
49.0,0.3252032520325203,55,127,Electric Guitar
49.0,0.3252032520325203,60,127,Electric Guitar
49.0,0.3252032520325203,59,127,Electric Guitar
49.0,0.12195121951219512,36,127,Electric Guitar
49.0,0.0,42,127,Electric Guitar
49.25,0.0,42,127,Electric Guitar
49.25,0.0,55,84,Electric Guitar
49.5,0.0,46,127,Electric Guitar
49.5,0.0,55,102,Electric Guitar
49.75,0.0,60,127,Electric Guitar
49.75,0.0,55,127,Electric Guitar
49.75,0.0,45,127,Electric Guitar
49.75,0.0,59,127,Electric Guitar
49.75,0.0,64,127,Electric Guitar
49.75,0.0,55,110,Electric Guitar
50.0,0.12195121951219512,36,127,Electric Guitar
50.0,0.0,42,127,Electric Guitar
50.0,0.12195121951219512,55,112,Electric Guitar
50.25,0.0,42,127,Electric Guitar
50.25,0.12195121951219512,57,108,Electric Guitar
50.5,0.36585365853658536,55,127,Electric Guitar
50.5,0.36585365853658536,64,127,Electric Guitar
50.5,0.36585365853658536,59,127,Electric Guitar
50.5,0.36585365853658536,60,127,Electric Guitar
50.5,0.36585365853658536,45,127,Electric Guitar
50.5,0.0,46,127,Electric Guitar
50.5,0.0,55,84,Electric Guitar
50.75,0.0,55,102,Electric Guitar
51.0,0.12195121951219512,36,127,Electric Guitar
51.0,0.0,42,127,Electric Guitar
51.0,0.12195121951219512,55,110,Electric Guitar
51.25,0.0,42,127,Electric Guitar
51.25,0.12195121951219512,57,110,Electric Guitar
51.5,0.0,55,127,Electric Guitar
51.5,0.0,59,127,Electric Guitar
51.5,0.0,60,127,Electric Guitar
51.5,0.0,64,127,Electric Guitar
51.5,0.0,45,127,Electric Guitar
51.5,0.0,46,127,Electric Guitar
51.5,0.0,55,84,Electric Guitar
51.75,0.0,55,102,Electric Guitar
52.0,1.951219512195122,41,99,Electric Guitar
52.0,1.951219512195122,63,99,Electric Guitar
52.0,1.951219512195122,69,99,Electric Guitar
52.0,1.951219512195122,72,99,Electric Guitar
52.0,0.0,63,127,Electric Guitar
52.0,0.0,60,127,Electric Guitar
52.0,0.0,57,127,Electric Guitar
52.0,0.0,67,127,Electric Guitar
52.0,0.12195121951219512,41,127,Electric Guitar
52.0,0.12195121951219512,36,127,Electric Guitar
52.0,0.0,42,127,Electric Guitar
52.0,0.16260162601626016,55,127,Electric Guitar
52.25,0.0,42,127,Electric Guitar
52.25,0.24390243902439024,57,112,Electric Guitar
52.5,0.0,46,127,Electric Guitar
52.75,0.12195121951219512,60,110,Electric Guitar
53.0,0.3252032520325203,63,127,Electric Guitar
53.0,0.3252032520325203,60,127,Electric Guitar
53.0,0.3252032520325203,57,127,Electric Guitar
53.0,0.3252032520325203,67,127,Electric Guitar
53.0,0.3252032520325203,41,127,Electric Guitar
53.0,0.12195121951219512,36,127,Electric Guitar
53.0,0.0,42,127,Electric Guitar
53.25,0.0,42,127,Electric Guitar
53.25,0.0,55,84,Electric Guitar
53.5,0.0,46,127,Electric Guitar
53.5,0.0,55,102,Electric Guitar
53.75,0.0,57,127,Electric Guitar
53.75,0.0,41,127,Electric Guitar
53.75,0.0,67,127,Electric Guitar
53.75,0.0,63,127,Electric Guitar
53.75,0.0,60,127,Electric Guitar
53.75,0.0,55,110,Electric Guitar
54.0,0.12195121951219512,36,127,Electric Guitar
54.0,0.0,42,127,Electric Guitar
54.0,0.12195121951219512,55,112,Electric Guitar
54.0,0.0,93,127,Electric Guitar
54.25,0.0,42,127,Electric Guitar
54.25,0.12195121951219512,57,108,Electric Guitar
54.25,0.12195121951219512,96,127,Electric Guitar
54.5,0.36585365853658536,63,127,Electric Guitar
54.5,0.36585365853658536,57,127,Electric Guitar
54.5,0.36585365853658536,41,127,Electric Guitar
54.5,0.36585365853658536,67,127,Electric Guitar
54.5,0.36585365853658536,60,127,Electric Guitar
54.5,0.0,46,127,Electric Guitar
54.5,0.0,55,84,Electric Guitar
54.5,0.0,99,127,Electric Guitar
54.75,0.0,55,102,Electric Guitar
54.75,0.24390243902439024,98,127,Electric Guitar
55.0,0.12195121951219512,36,127,Electric Guitar
55.0,0.0,42,127,Electric Guitar
55.0,0.12195121951219512,55,110,Electric Guitar
55.25,0.0,42,127,Electric Guitar
55.25,0.12195121951219512,57,110,Electric Guitar
55.5,0.0,57,127,Electric Guitar
55.5,0.0,63,127,Electric Guitar
55.5,0.0,60,127,Electric Guitar
55.5,0.0,67,127,Electric Guitar
55.5,0.0,41,127,Electric Guitar
55.5,0.0,46,127,Electric Guitar
55.5,0.0,55,84,Electric Guitar
55.5,0.12195121951219512,96,127,Electric Guitar
55.75,0.0,55,102,Electric Guitar
56.0,1.951219512195122,66,99,Electric Guitar
56.0,1.951219512195122,62,99,Electric Guitar
56.0,1.951219512195122,69,99,Electric Guitar
56.0,1.951219512195122,47,99,Electric Guitar
56.0,0.0,66,127,Electric Guitar
56.0,0.0,57,127,Electric Guitar
56.0,0.0,62,127,Electric Guitar
56.0,0.0,59,127,Electric Guitar
56.0,0.12195121951219512,47,127,Electric Guitar
56.0,0.12195121951219512,36,127,Electric Guitar
56.0,0.0,42,127,Electric Guitar
56.0,0.16260162601626016,55,127,Electric Guitar
56.25,0.0,42,127,Electric Guitar
56.25,0.24390243902439024,57,112,Electric Guitar
56.5,0.0,46,127,Electric Guitar
56.75,0.12195121951219512,60,110,Electric Guitar
57.0,0.3252032520325203,47,127,Electric Guitar
57.0,0.3252032520325203,66,127,Electric Guitar
57.0,0.3252032520325203,57,127,Electric Guitar
57.0,0.3252032520325203,62,127,Electric Guitar
57.0,0.3252032520325203,59,127,Electric Guitar
57.0,0.12195121951219512,36,127,Electric Guitar
57.0,0.0,42,127,Electric Guitar
57.25,0.0,42,127,Electric Guitar
57.25,0.0,55,84,Electric Guitar
57.5,0.0,46,127,Electric Guitar
57.5,0.0,55,102,Electric Guitar
57.75,0.0,57,127,Electric Guitar
57.75,0.0,59,127,Electric Guitar
57.75,0.0,62,127,Electric Guitar
57.75,0.0,66,127,Electric Guitar
57.75,0.12195121951219512,47,127,Electric Guitar
57.75,0.0,55,110,Electric Guitar
58.0,0.12195121951219512,36,127,Electric Guitar
58.0,0.0,42,127,Electric Guitar
58.0,0.12195121951219512,55,112,Electric Guitar
58.25,0.0,42,127,Electric Guitar
58.25,0.12195121951219512,57,108,Electric Guitar
58.5,0.36585365853658536,59,127,Electric Guitar
58.5,0.36585365853658536,66,127,Electric Guitar
58.5,0.36585365853658536,57,127,Electric Guitar
58.5,0.36585365853658536,62,127,Electric Guitar
58.5,0.36585365853658536,47,127,Electric Guitar
58.5,0.0,46,127,Electric Guitar
58.5,0.0,55,84,Electric Guitar
58.75,0.0,55,102,Electric Guitar
59.0,0.12195121951219512,36,127,Electric Guitar
59.0,0.0,42,127,Electric Guitar
59.0,0.12195121951219512,55,110,Electric Guitar
59.25,0.0,42,127,Electric Guitar
59.25,0.12195121951219512,57,110,Electric Guitar
59.5,0.0,47,127,Electric Guitar
59.5,0.0,57,127,Electric Guitar
59.5,0.0,59,127,Electric Guitar
59.5,0.0,62,127,Electric Guitar
59.5,0.0,66,127,Electric Guitar
59.5,0.0,46,127,Electric Guitar
59.5,0.0,55,84,Electric Guitar
59.75,0.0,55,102,Electric Guitar
60.0,0.975609756097561,64,98,Electric Guitar
60.0,0.975609756097561,68,98,Electric Guitar
60.0,0.975609756097561,72,98,Electric Guitar
60.0,1.951219512195122,40,100,Electric Guitar
60.0,0.0,59,127,Electric Guitar
60.0,0.0,62,127,Electric Guitar
60.0,0.0,56,127,Electric Guitar
60.0,0.0,65,127,Electric Guitar
60.0,0.12195121951219512,40,127,Electric Guitar
60.0,0.12195121951219512,36,127,Electric Guitar
60.0,0.0,42,127,Electric Guitar
60.0,0.16260162601626016,55,127,Electric Guitar
60.25,0.36585365853658536,64,125,Electric Guitar
60.25,0.0,42,127,Electric Guitar
60.25,0.24390243902439024,57,112,Electric Guitar
60.5,0.0,46,127,Electric Guitar
60.75,0.12195121951219512,60,110,Electric Guitar
61.0,0.4878048780487805,40,115,Electric Guitar
61.0,0.3252032520325203,56,127,Electric Guitar
61.0,0.3252032520325203,62,127,Electric Guitar
61.0,0.3252032520325203,59,127,Electric Guitar
61.0,0.24390243902439024,40,127,Electric Guitar
61.0,0.24390243902439024,65,127,Electric Guitar
61.0,0.12195121951219512,36,127,Electric Guitar
61.0,0.0,42,127,Electric Guitar
61.25,0.0,42,127,Electric Guitar
61.25,0.0,55,84,Electric Guitar
61.5,0.0,46,127,Electric Guitar
61.5,0.0,55,102,Electric Guitar
61.75,0.0,56,127,Electric Guitar
61.75,0.0,65,127,Electric Guitar
61.75,0.0,62,127,Electric Guitar
61.75,0.0,59,127,Electric Guitar
61.75,0.0,40,127,Electric Guitar
61.75,0.0,55,110,Electric Guitar
62.0,0.4878048780487805,40,118,Electric Guitar
62.0,0.975609756097561,71,90,Electric Guitar
62.0,0.975609756097561,68,90,Electric Guitar
62.0,0.975609756097561,64,90,Electric Guitar
62.0,0.975609756097561,74,90,Electric Guitar
62.0,0.12195121951219512,36,127,Electric Guitar
62.0,0.0,42,127,Electric Guitar
62.0,0.12195121951219512,55,112,Electric Guitar
62.0,0.12195121951219512,105,127,Electric Guitar
62.25,0.0,42,127,Electric Guitar
62.25,0.12195121951219512,57,108,Electric Guitar
62.25,0.12195121951219512,100,127,Electric Guitar
62.5,0.36585365853658536,56,127,Electric Guitar
62.5,0.36585365853658536,40,127,Electric Guitar
62.5,0.36585365853658536,65,127,Electric Guitar
62.5,0.36585365853658536,62,127,Electric Guitar
62.5,0.36585365853658536,59,127,Electric Guitar
62.5,0.0,46,127,Electric Guitar
62.5,0.0,55,84,Electric Guitar
62.5,0.12195121951219512,99,127,Electric Guitar
62.75,0.0,55,102,Electric Guitar
62.75,0.3252032520325203,98,127,Electric Guitar
63.0,0.4878048780487805,40,125,Electric Guitar
63.0,0.12195121951219512,36,127,Electric Guitar
63.0,0.0,42,127,Electric Guitar
63.0,0.12195121951219512,55,110,Electric Guitar
63.25,0.0,42,127,Electric Guitar
63.25,0.12195121951219512,57,110,Electric Guitar
63.5,0.0,56,127,Electric Guitar
63.5,0.0,65,127,Electric Guitar
63.5,0.0,59,127,Electric Guitar
63.5,0.0,40,127,Electric Guitar
63.5,0.0,62,127,Electric Guitar
63.5,0.0,46,127,Electric Guitar
63.5,0.0,55,84,Electric Guitar
63.5,0.24390243902439024,96,127,Electric Guitar
63.75,0.0,55,102,Electric Guitar
64.0,0.16260162601626016,33,127,Electric Guitar
64.0,1.951219512195122,71,93,Electric Guitar
64.0,1.951219512195122,72,93,Electric Guitar
64.0,1.951219512195122,45,93,Electric Guitar
64.0,1.951219512195122,76,93,Electric Guitar
64.0,1.951219512195122,67,93,Electric Guitar
64.0,0.0,59,127,Electric Guitar
64.0,0.0,55,127,Electric Guitar
64.0,0.0,60,127,Electric Guitar
64.0,0.0,64,127,Electric Guitar
64.0,0.12195121951219512,45,127,Electric Guitar
64.0,0.12195121951219512,36,127,Electric Guitar
64.0,0.12195121951219512,57,127,Electric Guitar
64.0,0.0,42,127,Electric Guitar
64.0,0.0,36,110,Electric Guitar
64.0,0.0,42,110,Electric Guitar
64.0,0.16260162601626016,55,127,Electric Guitar
64.25,0.0,42,127,Electric Guitar
64.25,0.0,42,63,Electric Guitar
64.25,0.24390243902439024,57,112,Electric Guitar
64.5,0.0,46,127,Electric Guitar
64.5,0.0,42,93,Electric Guitar
64.75,0.0,36,85,Electric Guitar
64.75,0.0,42,85,Electric Guitar
64.75,0.12195121951219512,60,110,Electric Guitar
65.0,0.12195121951219512,31,127,Electric Guitar
65.0,0.975609756097561,79,127,Electric Guitar
65.0,0.975609756097561,72,127,Electric Guitar
65.0,0.975609756097561,69,127,Electric Guitar
65.0,0.975609756097561,76,127,Electric Guitar
65.0,0.3252032520325203,64,127,Electric Guitar
65.0,0.3252032520325203,45,127,Electric Guitar
65.0,0.3252032520325203,55,127,Electric Guitar
65.0,0.3252032520325203,60,127,Electric Guitar
65.0,0.3252032520325203,59,127,Electric Guitar
65.0,0.12195121951219512,36,127,Electric Guitar
65.0,0.12195121951219512,38,127,Electric Guitar
65.0,0.0,42,127,Electric Guitar
65.0,0.0,42,106,Electric Guitar
65.0,0.0,40,106,Electric Guitar
65.25,0.12195121951219512,32,127,Electric Guitar
65.25,0.0,42,127,Electric Guitar
65.25,0.0,42,53,Electric Guitar
65.25,0.0,55,84,Electric Guitar
65.5,0.12195121951219512,33,127,Electric Guitar
65.5,0.0,46,127,Electric Guitar
65.5,0.0,36,102,Electric Guitar
65.5,0.0,42,102,Electric Guitar
65.5,0.0,55,102,Electric Guitar
65.75,0.3252032520325203,36,127,Electric Guitar
65.75,0.0,60,127,Electric Guitar
65.75,0.0,55,127,Electric Guitar
65.75,0.0,45,127,Electric Guitar
65.75,0.0,59,127,Electric Guitar
65.75,0.0,64,127,Electric Guitar
65.75,0.0,36,84,Electric Guitar
65.75,0.0,42,84,Electric Guitar
65.75,0.0,55,110,Electric Guitar
66.0,0.12195121951219512,36,127,Electric Guitar
66.0,0.0,42,127,Electric Guitar
66.0,0.0,44,117,Electric Guitar
66.0,0.12195121951219512,55,112,Electric Guitar
66.25,0.0,42,127,Electric Guitar
66.25,0.0,42,63,Electric Guitar
66.25,0.12195121951219512,57,108,Electric Guitar
66.5,0.24390243902439024,38,127,Electric Guitar
66.5,0.36585365853658536,55,127,Electric Guitar
66.5,0.36585365853658536,64,127,Electric Guitar
66.5,0.36585365853658536,59,127,Electric Guitar
66.5,0.36585365853658536,60,127,Electric Guitar
66.5,0.36585365853658536,45,127,Electric Guitar
66.5,0.0,46,127,Electric Guitar
66.5,0.0,36,100,Electric Guitar
66.5,0.0,42,100,Electric Guitar
66.5,0.0,55,84,Electric Guitar
66.75,0.0,42,71,Electric Guitar
66.75,0.0,55,102,Electric Guitar
67.0,0.12195121951219512,40,127,Electric Guitar
67.0,0.12195121951219512,36,127,Electric Guitar
67.0,0.12195121951219512,38,127,Electric Guitar
67.0,0.0,42,127,Electric Guitar
67.0,0.0,44,124,Electric Guitar
67.0,0.0,40,124,Electric Guitar
67.0,0.12195121951219512,55,110,Electric Guitar
67.25,0.36585365853658536,36,127,Electric Guitar
67.25,0.0,42,127,Electric Guitar
67.25,0.0,36,86,Electric Guitar
67.25,0.0,42,86,Electric Guitar
67.25,0.12195121951219512,57,110,Electric Guitar
67.5,0.0,55,127,Electric Guitar
67.5,0.0,59,127,Electric Guitar
67.5,0.0,60,127,Electric Guitar
67.5,0.0,64,127,Electric Guitar
67.5,0.0,45,127,Electric Guitar
67.5,0.0,46,127,Electric Guitar
67.5,0.0,42,89,Electric Guitar
67.5,0.0,55,84,Electric Guitar
67.75,0.0,36,84,Electric Guitar
67.75,0.0,42,84,Electric Guitar
67.75,0.0,55,102,Electric Guitar
68.0,0.16260162601626016,29,127,Electric Guitar
68.0,1.951219512195122,41,93,Electric Guitar
68.0,1.951219512195122,69,93,Electric Guitar
68.0,1.951219512195122,72,93,Electric Guitar
68.0,1.951219512195122,67,93,Electric Guitar
68.0,1.951219512195122,75,93,Electric Guitar
68.0,0.0,63,127,Electric Guitar
68.0,0.0,60,127,Electric Guitar
68.0,0.0,57,127,Electric Guitar
68.0,0.0,67,127,Electric Guitar
68.0,0.12195121951219512,41,127,Electric Guitar
68.0,0.12195121951219512,36,127,Electric Guitar
68.0,0.0,42,127,Electric Guitar
68.0,0.0,36,110,Electric Guitar
68.0,0.0,42,110,Electric Guitar
68.0,0.16260162601626016,55,127,Electric Guitar
68.25,0.0,42,127,Electric Guitar
68.25,0.0,42,63,Electric Guitar
68.25,0.24390243902439024,57,112,Electric Guitar
68.5,0.0,46,127,Electric Guitar
68.5,0.0,42,93,Electric Guitar
68.75,0.0,36,85,Electric Guitar
68.75,0.0,42,85,Electric Guitar
68.75,0.12195121951219512,60,110,Electric Guitar
69.0,0.12195121951219512,29,127,Electric Guitar
69.0,0.3252032520325203,63,127,Electric Guitar
69.0,0.3252032520325203,60,127,Electric Guitar
69.0,0.3252032520325203,57,127,Electric Guitar
69.0,0.3252032520325203,67,127,Electric Guitar
69.0,0.3252032520325203,41,127,Electric Guitar
69.0,0.12195121951219512,36,127,Electric Guitar
69.0,0.12195121951219512,38,127,Electric Guitar
69.0,0.0,42,127,Electric Guitar
69.0,0.0,42,106,Electric Guitar
69.0,0.0,40,106,Electric Guitar
69.25,0.12195121951219512,33,127,Electric Guitar
69.25,0.0,42,127,Electric Guitar
69.25,0.0,42,53,Electric Guitar
69.25,0.0,55,84,Electric Guitar
69.5,0.12195121951219512,36,127,Electric Guitar
69.5,0.0,46,127,Electric Guitar
69.5,0.0,36,102,Electric Guitar
69.5,0.0,42,102,Electric Guitar
69.5,0.0,55,102,Electric Guitar
69.75,0.24390243902439024,39,127,Electric Guitar
69.75,0.0,57,127,Electric Guitar
69.75,0.0,41,127,Electric Guitar
69.75,0.0,67,127,Electric Guitar
69.75,0.0,63,127,Electric Guitar
69.75,0.0,60,127,Electric Guitar
69.75,0.0,36,84,Electric Guitar
69.75,0.0,42,84,Electric Guitar
69.75,0.0,55,110,Electric Guitar
70.0,0.12195121951219512,36,127,Electric Guitar
70.0,0.0,42,127,Electric Guitar
70.0,0.0,44,117,Electric Guitar
70.0,0.12195121951219512,55,112,Electric Guitar
70.25,0.0,36,127,Electric Guitar
70.25,0.0,42,127,Electric Guitar
70.25,0.12195121951219512,38,77,Electric Guitar
70.25,0.0,42,63,Electric Guitar
70.25,0.12195121951219512,57,108,Electric Guitar
70.5,0.24390243902439024,38,127,Electric Guitar
70.5,0.36585365853658536,63,127,Electric Guitar
70.5,0.36585365853658536,57,127,Electric Guitar
70.5,0.36585365853658536,41,127,Electric Guitar
70.5,0.36585365853658536,67,127,Electric Guitar
70.5,0.36585365853658536,60,127,Electric Guitar
70.5,0.0,46,127,Electric Guitar
70.5,0.0,36,100,Electric Guitar
70.5,0.0,42,100,Electric Guitar
70.5,0.0,55,84,Electric Guitar
70.75,0.0,42,71,Electric Guitar
70.75,0.0,55,102,Electric Guitar
71.0,0.12195121951219512,36,127,Electric Guitar
71.0,0.12195121951219512,36,127,Electric Guitar
71.0,0.12195121951219512,38,127,Electric Guitar
71.0,0.0,42,127,Electric Guitar
71.0,0.0,44,124,Electric Guitar
71.0,0.0,40,124,Electric Guitar
71.0,0.12195121951219512,55,110,Electric Guitar
71.25,0.36585365853658536,33,127,Electric Guitar
71.25,0.0,42,127,Electric Guitar
71.25,0.0,36,86,Electric Guitar
71.25,0.0,42,86,Electric Guitar
71.25,0.12195121951219512,57,110,Electric Guitar
71.5,0.0,57,127,Electric Guitar
71.5,0.0,63,127,Electric Guitar
71.5,0.0,60,127,Electric Guitar
71.5,0.0,67,127,Electric Guitar
71.5,0.0,41,127,Electric Guitar
71.5,0.0,46,127,Electric Guitar
71.5,0.0,42,89,Electric Guitar
71.5,0.0,55,84,Electric Guitar
71.75,0.0,36,84,Electric Guitar
71.75,0.0,42,84,Electric Guitar
71.75,0.0,55,102,Electric Guitar
72.0,0.16260162601626016,23,127,Electric Guitar
72.0,1.951219512195122,47,93,Electric Guitar
72.0,1.951219512195122,74,93,Electric Guitar
72.0,1.951219512195122,66,93,Electric Guitar
72.0,1.951219512195122,71,93,Electric Guitar
72.0,1.951219512195122,69,93,Electric Guitar
72.0,0.0,66,127,Electric Guitar
72.0,0.0,57,127,Electric Guitar
72.0,0.0,62,127,Electric Guitar
72.0,0.0,59,127,Electric Guitar
72.0,0.12195121951219512,47,127,Electric Guitar
72.0,0.12195121951219512,36,127,Electric Guitar
72.0,0.0,42,127,Electric Guitar
72.0,0.0,36,110,Electric Guitar
72.0,0.0,42,110,Electric Guitar
72.0,0.16260162601626016,55,127,Electric Guitar
72.25,0.0,42,127,Electric Guitar
72.25,0.0,42,63,Electric Guitar
72.25,0.24390243902439024,57,112,Electric Guitar
72.5,0.0,46,127,Electric Guitar
72.5,0.0,42,93,Electric Guitar
72.75,0.0,36,85,Electric Guitar
72.75,0.0,42,85,Electric Guitar
72.75,0.12195121951219512,60,110,Electric Guitar
73.0,0.12195121951219512,30,127,Electric Guitar
73.0,0.975609756097561,74,127,Electric Guitar
73.0,0.975609756097561,69,127,Electric Guitar
73.0,0.975609756097561,71,127,Electric Guitar
73.0,0.975609756097561,78,127,Electric Guitar
73.0,0.3252032520325203,47,127,Electric Guitar
73.0,0.3252032520325203,66,127,Electric Guitar
73.0,0.3252032520325203,57,127,Electric Guitar
73.0,0.3252032520325203,62,127,Electric Guitar
73.0,0.3252032520325203,59,127,Electric Guitar
73.0,0.12195121951219512,36,127,Electric Guitar
73.0,0.12195121951219512,38,127,Electric Guitar
73.0,0.0,42,127,Electric Guitar
73.0,0.0,42,106,Electric Guitar
73.0,0.0,40,106,Electric Guitar
73.25,0.12195121951219512,33,127,Electric Guitar
73.25,0.0,42,127,Electric Guitar
73.25,0.0,42,53,Electric Guitar
73.25,0.0,55,84,Electric Guitar
73.5,0.12195121951219512,30,127,Electric Guitar
73.5,0.0,46,127,Electric Guitar
73.5,0.0,36,102,Electric Guitar
73.5,0.0,42,102,Electric Guitar
73.5,0.0,55,102,Electric Guitar
73.75,0.36585365853658536,35,127,Electric Guitar
73.75,0.0,57,127,Electric Guitar
73.75,0.0,59,127,Electric Guitar
73.75,0.0,62,127,Electric Guitar
73.75,0.0,66,127,Electric Guitar
73.75,0.12195121951219512,47,127,Electric Guitar
73.75,0.0,36,84,Electric Guitar
73.75,0.0,42,84,Electric Guitar
73.75,0.0,55,110,Electric Guitar
74.0,0.12195121951219512,36,127,Electric Guitar
74.0,0.0,42,127,Electric Guitar
74.0,0.0,44,117,Electric Guitar
74.0,0.12195121951219512,55,112,Electric Guitar
74.25,0.0,42,127,Electric Guitar
74.25,0.0,42,63,Electric Guitar
74.25,0.12195121951219512,57,108,Electric Guitar
74.5,0.16260162601626016,38,127,Electric Guitar
74.5,0.36585365853658536,59,127,Electric Guitar
74.5,0.36585365853658536,66,127,Electric Guitar
74.5,0.36585365853658536,57,127,Electric Guitar
74.5,0.36585365853658536,62,127,Electric Guitar
74.5,0.36585365853658536,47,127,Electric Guitar
74.5,0.0,46,127,Electric Guitar
74.5,0.0,36,100,Electric Guitar
74.5,0.0,42,100,Electric Guitar
74.5,0.0,55,84,Electric Guitar
74.75,0.0,42,71,Electric Guitar
74.75,0.0,55,102,Electric Guitar
75.0,0.0,42,127,Electric Guitar
75.0,0.12195121951219512,36,127,Electric Guitar
75.0,0.12195121951219512,38,127,Electric Guitar
75.0,0.0,42,127,Electric Guitar
75.0,0.0,44,124,Electric Guitar
75.0,0.0,40,124,Electric Guitar
75.0,0.12195121951219512,55,110,Electric Guitar
75.25,0.36585365853658536,38,127,Electric Guitar
75.25,0.0,42,127,Electric Guitar
75.25,0.0,36,86,Electric Guitar
75.25,0.0,42,86,Electric Guitar
75.25,0.12195121951219512,57,110,Electric Guitar
75.5,0.0,47,127,Electric Guitar
75.5,0.0,57,127,Electric Guitar
75.5,0.0,59,127,Electric Guitar
75.5,0.0,62,127,Electric Guitar
75.5,0.0,66,127,Electric Guitar
75.5,0.0,46,127,Electric Guitar
75.5,0.0,42,89,Electric Guitar
75.5,0.0,55,84,Electric Guitar
75.75,0.0,36,84,Electric Guitar
75.75,0.0,42,84,Electric Guitar
75.75,0.0,55,102,Electric Guitar
76.0,0.12195121951219512,28,127,Electric Guitar
76.0,1.951219512195122,40,93,Electric Guitar
76.0,1.951219512195122,64,93,Electric Guitar
76.0,0.975609756097561,68,93,Electric Guitar
76.0,0.975609756097561,72,93,Electric Guitar
76.0,0.0,59,127,Electric Guitar
76.0,0.0,62,127,Electric Guitar
76.0,0.0,56,127,Electric Guitar
76.0,0.0,65,127,Electric Guitar
76.0,0.12195121951219512,40,127,Electric Guitar
76.0,0.12195121951219512,36,127,Electric Guitar
76.0,0.0,42,127,Electric Guitar
76.0,0.0,36,110,Electric Guitar
76.0,0.0,42,110,Electric Guitar
76.0,0.16260162601626016,55,127,Electric Guitar
76.25,0.0,42,127,Electric Guitar
76.25,0.0,42,63,Electric Guitar
76.25,0.24390243902439024,57,112,Electric Guitar
76.5,0.0,46,127,Electric Guitar
76.5,0.0,42,93,Electric Guitar
76.75,0.0,36,85,Electric Guitar
76.75,0.0,42,85,Electric Guitar
76.75,0.12195121951219512,60,110,Electric Guitar
77.0,0.0,28,127,Electric Guitar
77.0,0.3252032520325203,56,127,Electric Guitar
77.0,0.3252032520325203,62,127,Electric Guitar
77.0,0.3252032520325203,59,127,Electric Guitar
77.0,0.24390243902439024,40,127,Electric Guitar
77.0,0.24390243902439024,65,127,Electric Guitar
77.0,0.12195121951219512,36,127,Electric Guitar
77.0,0.12195121951219512,38,127,Electric Guitar
77.0,0.0,42,127,Electric Guitar
77.0,0.0,42,106,Electric Guitar
77.0,0.0,40,106,Electric Guitar
77.25,0.0,28,127,Electric Guitar
77.25,0.0,42,127,Electric Guitar
77.25,0.0,42,53,Electric Guitar
77.25,0.0,55,84,Electric Guitar
77.5,0.0,46,127,Electric Guitar
77.5,0.0,36,102,Electric Guitar
77.5,0.0,42,102,Electric Guitar
77.5,0.0,55,102,Electric Guitar
77.75,0.36585365853658536,32,127,Electric Guitar
77.75,0.0,56,127,Electric Guitar
77.75,0.0,65,127,Electric Guitar
77.75,0.0,62,127,Electric Guitar
77.75,0.0,59,127,Electric Guitar
77.75,0.0,40,127,Electric Guitar
77.75,0.0,36,84,Electric Guitar
77.75,0.0,42,84,Electric Guitar
77.75,0.0,55,110,Electric Guitar
78.0,0.975609756097561,68,93,Electric Guitar
78.0,0.12195121951219512,36,127,Electric Guitar
78.0,0.0,42,127,Electric Guitar
78.0,0.0,44,117,Electric Guitar
78.0,0.12195121951219512,55,112,Electric Guitar
78.25,0.0,42,127,Electric Guitar
78.25,0.12195121951219512,38,77,Electric Guitar
78.25,0.0,42,63,Electric Guitar
78.25,0.12195121951219512,57,108,Electric Guitar
78.5,0.12195121951219512,28,127,Electric Guitar
78.5,0.36585365853658536,56,127,Electric Guitar
78.5,0.36585365853658536,40,127,Electric Guitar
78.5,0.36585365853658536,65,127,Electric Guitar
78.5,0.36585365853658536,62,127,Electric Guitar
78.5,0.36585365853658536,59,127,Electric Guitar
78.5,0.0,46,127,Electric Guitar
78.5,0.0,36,100,Electric Guitar
78.5,0.0,42,100,Electric Guitar
78.5,0.0,55,84,Electric Guitar
78.75,0.0,42,71,Electric Guitar
78.75,0.0,55,102,Electric Guitar
79.0,0.0,38,127,Electric Guitar
79.0,0.12195121951219512,36,127,Electric Guitar
79.0,0.12195121951219512,38,127,Electric Guitar
79.0,0.0,42,127,Electric Guitar
79.0,0.0,44,124,Electric Guitar
79.0,0.0,40,124,Electric Guitar
79.0,0.12195121951219512,55,110,Electric Guitar
79.25,0.36585365853658536,40,127,Electric Guitar
79.25,0.0,42,127,Electric Guitar
79.25,0.0,36,86,Electric Guitar
79.25,0.0,42,86,Electric Guitar
79.25,0.12195121951219512,57,110,Electric Guitar
79.5,0.0,56,127,Electric Guitar
79.5,0.0,65,127,Electric Guitar
79.5,0.0,59,127,Electric Guitar
79.5,0.0,40,127,Electric Guitar
79.5,0.0,62,127,Electric Guitar
79.5,0.0,46,127,Electric Guitar
79.5,0.0,42,89,Electric Guitar
79.5,0.0,55,84,Electric Guitar
79.75,0.12195121951219512,38,77,Electric Guitar
79.75,0.0,36,84,Electric Guitar
79.75,0.0,42,84,Electric Guitar
79.75,0.0,55,102,Electric Guitar
80.0,0.16260162601626016,33,127,Electric Guitar
80.0,1.951219512195122,67,101,Electric Guitar
80.0,1.951219512195122,64,101,Electric Guitar
80.0,1.951219512195122,45,101,Electric Guitar
80.0,1.951219512195122,71,101,Electric Guitar
80.0,0.0,59,127,Electric Guitar
80.0,0.0,55,127,Electric Guitar
80.0,0.0,60,127,Electric Guitar
80.0,0.0,64,127,Electric Guitar
80.0,0.12195121951219512,45,127,Electric Guitar
80.0,0.12195121951219512,36,127,Electric Guitar
80.0,0.12195121951219512,49,127,Electric Guitar
80.0,0.0,42,127,Electric Guitar
80.0,0.0,36,110,Electric Guitar
80.0,0.0,42,110,Electric Guitar
80.0,0.16260162601626016,55,127,Electric Guitar
80.25,0.0,42,127,Electric Guitar
80.25,0.0,42,63,Electric Guitar
80.25,0.24390243902439024,57,112,Electric Guitar
80.5,0.0,46,127,Electric Guitar
80.5,0.0,42,93,Electric Guitar
80.75,0.0,36,85,Electric Guitar
80.75,0.0,42,85,Electric Guitar
80.75,0.12195121951219512,60,110,Electric Guitar
81.0,0.12195121951219512,31,127,Electric Guitar
81.0,0.975609756097561,79,127,Electric Guitar
81.0,0.975609756097561,72,127,Electric Guitar
81.0,0.975609756097561,69,127,Electric Guitar
81.0,0.975609756097561,76,127,Electric Guitar
81.0,0.3252032520325203,64,127,Electric Guitar
81.0,0.3252032520325203,45,127,Electric Guitar
81.0,0.3252032520325203,55,127,Electric Guitar
81.0,0.3252032520325203,60,127,Electric Guitar
81.0,0.3252032520325203,59,127,Electric Guitar
81.0,0.12195121951219512,36,127,Electric Guitar
81.0,0.12195121951219512,38,127,Electric Guitar
81.0,0.0,42,127,Electric Guitar
81.0,0.0,42,106,Electric Guitar
81.0,0.0,40,106,Electric Guitar
81.25,0.12195121951219512,32,127,Electric Guitar
81.25,0.0,42,127,Electric Guitar
81.25,0.0,42,53,Electric Guitar
81.25,0.0,55,84,Electric Guitar
81.5,0.12195121951219512,33,127,Electric Guitar
81.5,0.0,46,127,Electric Guitar
81.5,0.0,36,102,Electric Guitar
81.5,0.0,42,102,Electric Guitar
81.5,0.0,55,102,Electric Guitar
81.75,0.3252032520325203,36,127,Electric Guitar
81.75,0.0,60,127,Electric Guitar
81.75,0.0,55,127,Electric Guitar
81.75,0.0,45,127,Electric Guitar
81.75,0.0,59,127,Electric Guitar
81.75,0.0,64,127,Electric Guitar
81.75,0.0,36,84,Electric Guitar
81.75,0.0,42,84,Electric Guitar
81.75,0.0,55,110,Electric Guitar
82.0,0.12195121951219512,36,127,Electric Guitar
82.0,0.0,42,127,Electric Guitar
82.0,0.0,44,117,Electric Guitar
82.0,0.12195121951219512,55,112,Electric Guitar
82.25,0.0,42,127,Electric Guitar
82.25,0.0,42,63,Electric Guitar
82.25,0.12195121951219512,57,108,Electric Guitar
82.5,0.24390243902439024,38,127,Electric Guitar
82.5,0.36585365853658536,55,127,Electric Guitar
82.5,0.36585365853658536,64,127,Electric Guitar
82.5,0.36585365853658536,59,127,Electric Guitar
82.5,0.36585365853658536,60,127,Electric Guitar
82.5,0.36585365853658536,45,127,Electric Guitar
82.5,0.0,46,127,Electric Guitar
82.5,0.0,36,100,Electric Guitar
82.5,0.0,42,100,Electric Guitar
82.5,0.0,55,84,Electric Guitar
82.75,0.0,42,71,Electric Guitar
82.75,0.0,55,102,Electric Guitar
83.0,0.12195121951219512,40,127,Electric Guitar
83.0,0.12195121951219512,36,127,Electric Guitar
83.0,0.12195121951219512,38,127,Electric Guitar
83.0,0.0,42,127,Electric Guitar
83.0,0.0,44,124,Electric Guitar
83.0,0.0,40,124,Electric Guitar
83.0,0.12195121951219512,55,110,Electric Guitar
83.25,0.36585365853658536,36,127,Electric Guitar
83.25,0.0,42,127,Electric Guitar
83.25,0.0,36,86,Electric Guitar
83.25,0.0,42,86,Electric Guitar
83.25,0.12195121951219512,57,110,Electric Guitar
83.5,0.0,55,127,Electric Guitar
83.5,0.0,59,127,Electric Guitar
83.5,0.0,60,127,Electric Guitar
83.5,0.0,64,127,Electric Guitar
83.5,0.0,45,127,Electric Guitar
83.5,0.0,46,127,Electric Guitar
83.5,0.0,42,89,Electric Guitar
83.5,0.0,55,84,Electric Guitar
83.75,0.0,36,84,Electric Guitar
83.75,0.0,42,84,Electric Guitar
83.75,0.0,55,102,Electric Guitar
84.0,0.16260162601626016,29,127,Electric Guitar
84.0,1.951219512195122,41,99,Electric Guitar
84.0,1.951219512195122,63,99,Electric Guitar
84.0,1.951219512195122,69,99,Electric Guitar
84.0,1.951219512195122,72,99,Electric Guitar
84.0,0.0,63,127,Electric Guitar
84.0,0.0,60,127,Electric Guitar
84.0,0.0,57,127,Electric Guitar
84.0,0.0,67,127,Electric Guitar
84.0,0.12195121951219512,41,127,Electric Guitar
84.0,0.12195121951219512,36,127,Electric Guitar
84.0,0.0,42,127,Electric Guitar
84.0,0.0,36,110,Electric Guitar
84.0,0.0,42,110,Electric Guitar
84.0,0.16260162601626016,55,127,Electric Guitar
84.25,0.0,42,127,Electric Guitar
84.25,0.0,42,63,Electric Guitar
84.25,0.24390243902439024,57,112,Electric Guitar
84.5,0.0,46,127,Electric Guitar
84.5,0.0,42,93,Electric Guitar
84.75,0.0,36,85,Electric Guitar
84.75,0.0,42,85,Electric Guitar
84.75,0.12195121951219512,60,110,Electric Guitar
85.0,0.12195121951219512,29,127,Electric Guitar
85.0,0.3252032520325203,63,127,Electric Guitar
85.0,0.3252032520325203,60,127,Electric Guitar
85.0,0.3252032520325203,57,127,Electric Guitar
85.0,0.3252032520325203,67,127,Electric Guitar
85.0,0.3252032520325203,41,127,Electric Guitar
85.0,0.12195121951219512,36,127,Electric Guitar
85.0,0.12195121951219512,38,127,Electric Guitar
85.0,0.0,42,127,Electric Guitar
85.0,0.0,42,106,Electric Guitar
85.0,0.0,40,106,Electric Guitar
85.25,0.12195121951219512,33,127,Electric Guitar
85.25,0.0,42,127,Electric Guitar
85.25,0.0,42,53,Electric Guitar
85.25,0.0,55,84,Electric Guitar
85.5,0.12195121951219512,36,127,Electric Guitar
85.5,0.0,46,127,Electric Guitar
85.5,0.0,36,102,Electric Guitar
85.5,0.0,42,102,Electric Guitar
85.5,0.0,55,102,Electric Guitar
85.75,0.24390243902439024,39,127,Electric Guitar
85.75,0.0,57,127,Electric Guitar
85.75,0.0,41,127,Electric Guitar
85.75,0.0,67,127,Electric Guitar
85.75,0.0,63,127,Electric Guitar
85.75,0.0,60,127,Electric Guitar
85.75,0.0,36,84,Electric Guitar
85.75,0.0,42,84,Electric Guitar
85.75,0.0,55,110,Electric Guitar
86.0,0.12195121951219512,36,127,Electric Guitar
86.0,0.0,42,127,Electric Guitar
86.0,0.0,44,117,Electric Guitar
86.0,0.12195121951219512,55,112,Electric Guitar
86.25,0.0,36,127,Electric Guitar
86.25,0.0,42,127,Electric Guitar
86.25,0.12195121951219512,38,77,Electric Guitar
86.25,0.0,42,63,Electric Guitar
86.25,0.12195121951219512,57,108,Electric Guitar
86.5,0.24390243902439024,38,127,Electric Guitar
86.5,0.36585365853658536,63,127,Electric Guitar
86.5,0.36585365853658536,57,127,Electric Guitar
86.5,0.36585365853658536,41,127,Electric Guitar
86.5,0.36585365853658536,67,127,Electric Guitar
86.5,0.36585365853658536,60,127,Electric Guitar
86.5,0.0,46,127,Electric Guitar
86.5,0.0,36,100,Electric Guitar
86.5,0.0,42,100,Electric Guitar
86.5,0.0,55,84,Electric Guitar
86.75,0.0,42,71,Electric Guitar
86.75,0.0,55,102,Electric Guitar
87.0,0.12195121951219512,36,127,Electric Guitar
87.0,0.12195121951219512,36,127,Electric Guitar
87.0,0.12195121951219512,38,127,Electric Guitar
87.0,0.0,42,127,Electric Guitar
87.0,0.0,44,124,Electric Guitar
87.0,0.0,40,124,Electric Guitar
87.0,0.12195121951219512,55,110,Electric Guitar
87.25,0.36585365853658536,33,127,Electric Guitar
87.25,0.0,42,127,Electric Guitar
87.25,0.0,36,86,Electric Guitar
87.25,0.0,42,86,Electric Guitar
87.25,0.12195121951219512,57,110,Electric Guitar
87.5,0.0,57,127,Electric Guitar
87.5,0.0,63,127,Electric Guitar
87.5,0.0,60,127,Electric Guitar
87.5,0.0,67,127,Electric Guitar
87.5,0.0,41,127,Electric Guitar
87.5,0.0,46,127,Electric Guitar
87.5,0.0,42,89,Electric Guitar
87.5,0.0,55,84,Electric Guitar
87.75,0.0,36,84,Electric Guitar
87.75,0.0,42,84,Electric Guitar
87.75,0.0,55,102,Electric Guitar
88.0,0.16260162601626016,23,127,Electric Guitar
88.0,1.951219512195122,66,99,Electric Guitar
88.0,1.951219512195122,62,99,Electric Guitar
88.0,1.951219512195122,69,99,Electric Guitar
88.0,1.951219512195122,47,99,Electric Guitar
88.0,0.0,66,127,Electric Guitar
88.0,0.0,57,127,Electric Guitar
88.0,0.0,62,127,Electric Guitar
88.0,0.0,59,127,Electric Guitar
88.0,0.12195121951219512,47,127,Electric Guitar
88.0,0.12195121951219512,36,127,Electric Guitar
88.0,0.0,42,127,Electric Guitar
88.0,0.0,36,110,Electric Guitar
88.0,0.0,42,110,Electric Guitar
88.0,0.16260162601626016,55,127,Electric Guitar
88.25,0.0,42,127,Electric Guitar
88.25,0.0,42,63,Electric Guitar
88.25,0.24390243902439024,57,112,Electric Guitar
88.5,0.0,46,127,Electric Guitar
88.5,0.0,42,93,Electric Guitar
88.75,0.0,36,85,Electric Guitar
88.75,0.0,42,85,Electric Guitar
88.75,0.12195121951219512,60,110,Electric Guitar
89.0,0.12195121951219512,30,127,Electric Guitar
89.0,0.975609756097561,74,127,Electric Guitar
89.0,0.975609756097561,69,127,Electric Guitar
89.0,0.975609756097561,71,127,Electric Guitar
89.0,0.975609756097561,78,127,Electric Guitar
89.0,0.3252032520325203,47,127,Electric Guitar
89.0,0.3252032520325203,66,127,Electric Guitar
89.0,0.3252032520325203,57,127,Electric Guitar
89.0,0.3252032520325203,62,127,Electric Guitar
89.0,0.3252032520325203,59,127,Electric Guitar
89.0,0.12195121951219512,36,127,Electric Guitar
89.0,0.12195121951219512,38,127,Electric Guitar
89.0,0.0,42,127,Electric Guitar
89.0,0.0,42,106,Electric Guitar
89.0,0.0,40,106,Electric Guitar
89.25,0.12195121951219512,33,127,Electric Guitar
89.25,0.0,42,127,Electric Guitar
89.25,0.0,42,53,Electric Guitar
89.25,0.0,55,84,Electric Guitar
89.5,0.12195121951219512,30,127,Electric Guitar
89.5,0.0,46,127,Electric Guitar
89.5,0.0,36,102,Electric Guitar
89.5,0.0,42,102,Electric Guitar
89.5,0.0,55,102,Electric Guitar
89.75,0.36585365853658536,35,127,Electric Guitar
89.75,0.0,57,127,Electric Guitar
89.75,0.0,59,127,Electric Guitar
89.75,0.0,62,127,Electric Guitar
89.75,0.0,66,127,Electric Guitar
89.75,0.12195121951219512,47,127,Electric Guitar
89.75,0.0,36,84,Electric Guitar
89.75,0.0,42,84,Electric Guitar
89.75,0.0,55,110,Electric Guitar
90.0,0.12195121951219512,36,127,Electric Guitar
90.0,0.0,42,127,Electric Guitar
90.0,0.0,44,117,Electric Guitar
90.0,0.12195121951219512,55,112,Electric Guitar
90.25,0.0,42,127,Electric Guitar
90.25,0.0,42,63,Electric Guitar
90.25,0.12195121951219512,57,108,Electric Guitar
90.5,0.16260162601626016,38,127,Electric Guitar
90.5,0.36585365853658536,59,127,Electric Guitar
90.5,0.36585365853658536,66,127,Electric Guitar
90.5,0.36585365853658536,57,127,Electric Guitar
90.5,0.36585365853658536,62,127,Electric Guitar
90.5,0.36585365853658536,47,127,Electric Guitar
90.5,0.0,46,127,Electric Guitar
90.5,0.0,36,100,Electric Guitar
90.5,0.0,42,100,Electric Guitar
90.5,0.0,55,84,Electric Guitar
90.75,0.0,42,71,Electric Guitar
90.75,0.0,55,102,Electric Guitar
91.0,0.0,42,127,Electric Guitar
91.0,0.12195121951219512,36,127,Electric Guitar
91.0,0.12195121951219512,38,127,Electric Guitar
91.0,0.0,42,127,Electric Guitar
91.0,0.0,44,124,Electric Guitar
91.0,0.0,40,124,Electric Guitar
91.0,0.12195121951219512,55,110,Electric Guitar
91.25,0.36585365853658536,38,127,Electric Guitar
91.25,0.0,42,127,Electric Guitar
91.25,0.0,36,86,Electric Guitar
91.25,0.0,42,86,Electric Guitar
91.25,0.12195121951219512,57,110,Electric Guitar
91.5,0.0,47,127,Electric Guitar
91.5,0.0,57,127,Electric Guitar
91.5,0.0,59,127,Electric Guitar
91.5,0.0,62,127,Electric Guitar
91.5,0.0,66,127,Electric Guitar
91.5,0.0,46,127,Electric Guitar
91.5,0.0,42,89,Electric Guitar
91.5,0.0,55,84,Electric Guitar
91.75,0.0,36,84,Electric Guitar
91.75,0.0,42,84,Electric Guitar
91.75,0.0,55,102,Electric Guitar
92.0,0.975609756097561,64,98,Electric Guitar
92.0,0.975609756097561,68,98,Electric Guitar
92.0,0.975609756097561,72,98,Electric Guitar
92.0,1.951219512195122,40,100,Electric Guitar
92.0,0.0,42,1,Electric Guitar
92.0,0.0,36,110,Electric Guitar
92.0,0.0,42,110,Electric Guitar
92.25,0.0,42,63,Electric Guitar
92.5,0.0,42,93,Electric Guitar
92.75,0.0,36,85,Electric Guitar
92.75,0.0,42,85,Electric Guitar
93.0,0.0,42,106,Electric Guitar
93.0,0.0,40,106,Electric Guitar
93.25,0.0,42,53,Electric Guitar
93.5,0.0,36,102,Electric Guitar
93.5,0.0,42,102,Electric Guitar
93.75,0.0,36,84,Electric Guitar
93.75,0.0,42,84,Electric Guitar
94.0,0.975609756097561,71,90,Electric Guitar
94.0,0.975609756097561,68,90,Electric Guitar
94.0,0.975609756097561,64,90,Electric Guitar
94.0,0.975609756097561,74,90,Electric Guitar
94.0,2.926829268292683,68,127,Electric Guitar
94.0,2.926829268292683,79,127,Electric Guitar
94.0,2.926829268292683,64,127,Electric Guitar
94.0,2.926829268292683,52,127,Electric Guitar
94.0,2.926829268292683,71,127,Electric Guitar
94.0,2.926829268292683,76,127,Electric Guitar
94.0,2.926829268292683,74,127,Electric Guitar
94.0,0.0,44,117,Electric Guitar
94.25,0.0,42,63,Electric Guitar
94.5,0.0,36,100,Electric Guitar
94.5,0.0,42,100,Electric Guitar
94.75,0.0,42,71,Electric Guitar
95.0,0.0,44,124,Electric Guitar
95.0,0.0,40,124,Electric Guitar
95.25,0.0,36,86,Electric Guitar
95.25,0.0,42,86,Electric Guitar
95.5,0.0,42,89,Electric Guitar
95.75,0.0,36,84,Electric Guitar
95.75,0.0,42,84,Electric Guitar
96.0,0.0,36,110,Electric Guitar
96.0,0.0,42,110,Electric Guitar
96.25,0.0,42,63,Electric Guitar
96.5,0.0,42,93,Electric Guitar
96.75,0.0,36,85,Electric Guitar
96.75,0.0,42,85,Electric Guitar
97.0,0.0,42,106,Electric Guitar
97.0,0.0,40,106,Electric Guitar
97.25,0.0,42,53,Electric Guitar
97.5,0.0,36,102,Electric Guitar
97.5,0.0,42,102,Electric Guitar
97.75,0.0,36,84,Electric Guitar
97.75,0.0,42,84,Electric Guitar
98.0,0.0,44,117,Electric Guitar
98.25,0.0,42,63,Electric Guitar
98.5,0.0,36,100,Electric Guitar
98.5,0.0,42,100,Electric Guitar
98.75,0.0,42,71,Electric Guitar
99.0,0.0,44,124,Electric Guitar
99.0,0.0,40,124,Electric Guitar
99.25,0.0,36,86,Electric Guitar
99.25,0.0,42,86,Electric Guitar
99.5,0.0,42,89,Electric Guitar
99.75,0.0,36,84,Electric Guitar
99.75,0.0,42,84,Electric Guitar
100.0,0.12195121951219512,33,127,Electric Guitar
100.0,0.0,59,127,Electric Guitar
100.0,0.0,55,127,Electric Guitar
100.0,0.0,60,127,Electric Guitar
100.0,0.0,64,127,Electric Guitar
100.0,0.12195121951219512,45,127,Electric Guitar
100.0,0.12195121951219512,36,127,Electric Guitar
100.0,0.12195121951219512,57,127,Electric Guitar
100.0,0.0,42,127,Electric Guitar
100.0,0.0,36,110,Electric Guitar
100.0,0.0,42,110,Electric Guitar
100.0,0.16260162601626016,55,127,Electric Guitar
100.25,0.0,42,127,Electric Guitar
100.25,0.0,42,63,Electric Guitar
100.25,0.24390243902439024,57,112,Electric Guitar
100.5,0.24390243902439024,76,117,Electric Guitar
100.5,0.0,46,127,Electric Guitar
100.5,0.0,42,93,Electric Guitar
100.75,0.0,36,85,Electric Guitar
100.75,0.0,42,85,Electric Guitar
100.75,0.12195121951219512,60,110,Electric Guitar
101.0,0.24390243902439024,28,127,Electric Guitar
101.0,0.16260162601626016,75,110,Electric Guitar
101.0,0.3252032520325203,64,127,Electric Guitar
101.0,0.3252032520325203,45,127,Electric Guitar
101.0,0.3252032520325203,55,127,Electric Guitar
101.0,0.3252032520325203,60,127,Electric Guitar
101.0,0.3252032520325203,59,127,Electric Guitar
101.0,0.12195121951219512,36,127,Electric Guitar
101.0,0.12195121951219512,38,127,Electric Guitar
101.0,0.0,42,127,Electric Guitar
101.0,0.0,42,106,Electric Guitar
101.0,0.0,40,106,Electric Guitar
101.25,0.0,42,127,Electric Guitar
101.25,0.0,42,53,Electric Guitar
101.25,0.0,55,84,Electric Guitar
101.5,0.12195121951219512,31,127,Electric Guitar
101.5,0.0,76,110,Electric Guitar
101.5,0.0,46,127,Electric Guitar
101.5,0.0,36,102,Electric Guitar
101.5,0.0,42,102,Electric Guitar
101.5,0.0,55,102,Electric Guitar
101.75,0.36585365853658536,33,127,Electric Guitar
101.75,0.36585365853658536,79,110,Electric Guitar
101.75,0.0,60,127,Electric Guitar
101.75,0.0,55,127,Electric Guitar
101.75,0.0,45,127,Electric Guitar
101.75,0.0,59,127,Electric Guitar
101.75,0.0,64,127,Electric Guitar
101.75,0.0,36,84,Electric Guitar
101.75,0.0,42,84,Electric Guitar
101.75,0.0,55,110,Electric Guitar
102.0,0.12195121951219512,36,127,Electric Guitar
102.0,0.0,42,127,Electric Guitar
102.0,0.0,44,117,Electric Guitar
102.0,0.12195121951219512,55,112,Electric Guitar
102.25,0.0,42,127,Electric Guitar
102.25,0.0,42,63,Electric Guitar
102.25,0.12195121951219512,57,108,Electric Guitar
102.5,0.24390243902439024,36,127,Electric Guitar
102.5,0.24390243902439024,77,108,Electric Guitar
102.5,0.36585365853658536,55,127,Electric Guitar
102.5,0.36585365853658536,64,127,Electric Guitar
102.5,0.36585365853658536,59,127,Electric Guitar
102.5,0.36585365853658536,60,127,Electric Guitar
102.5,0.36585365853658536,45,127,Electric Guitar
102.5,0.0,46,127,Electric Guitar
102.5,0.0,36,100,Electric Guitar
102.5,0.0,42,100,Electric Guitar
102.5,0.0,55,84,Electric Guitar
102.75,0.0,42,71,Electric Guitar
102.75,0.0,55,102,Electric Guitar
103.0,0.12195121951219512,38,127,Electric Guitar
103.0,0.24390243902439024,76,108,Electric Guitar
103.0,0.12195121951219512,36,127,Electric Guitar
103.0,0.12195121951219512,38,127,Electric Guitar
103.0,0.0,42,127,Electric Guitar
103.0,0.0,44,124,Electric Guitar
103.0,0.0,40,124,Electric Guitar
103.0,0.12195121951219512,55,110,Electric Guitar
103.25,0.12195121951219512,39,127,Electric Guitar
103.25,0.0,42,127,Electric Guitar
103.25,0.0,36,86,Electric Guitar
103.25,0.0,42,86,Electric Guitar
103.25,0.12195121951219512,57,110,Electric Guitar
103.5,0.24390243902439024,40,127,Electric Guitar
103.5,0.24390243902439024,77,117,Electric Guitar
103.5,0.0,55,127,Electric Guitar
103.5,0.0,59,127,Electric Guitar
103.5,0.0,60,127,Electric Guitar
103.5,0.0,64,127,Electric Guitar
103.5,0.0,45,127,Electric Guitar
103.5,0.0,46,127,Electric Guitar
103.5,0.0,42,89,Electric Guitar
103.5,0.0,55,84,Electric Guitar
103.75,0.0,36,84,Electric Guitar
103.75,0.0,42,84,Electric Guitar
103.75,0.0,55,102,Electric Guitar
104.0,0.12195121951219512,29,127,Electric Guitar
104.0,0.24390243902439024,76,108,Electric Guitar
104.0,0.0,64,127,Electric Guitar
104.0,0.0,60,127,Electric Guitar
104.0,0.0,57,127,Electric Guitar
104.0,0.0,67,127,Electric Guitar
104.0,0.12195121951219512,41,127,Electric Guitar
104.0,0.12195121951219512,36,127,Electric Guitar
104.0,0.0,42,127,Electric Guitar
104.0,0.0,36,110,Electric Guitar
104.0,0.0,42,110,Electric Guitar
104.0,0.16260162601626016,55,127,Electric Guitar
104.25,0.0,42,127,Electric Guitar
104.25,0.0,42,63,Electric Guitar
104.25,0.24390243902439024,57,112,Electric Guitar
104.5,0.24390243902439024,77,113,Electric Guitar
104.5,0.0,46,127,Electric Guitar
104.5,0.0,42,93,Electric Guitar
104.75,0.0,36,85,Electric Guitar
104.75,0.0,42,85,Electric Guitar
104.75,0.12195121951219512,60,110,Electric Guitar
105.0,0.12195121951219512,29,127,Electric Guitar
105.0,0.24390243902439024,76,104,Electric Guitar
105.0,0.3252032520325203,64,127,Electric Guitar
105.0,0.3252032520325203,60,127,Electric Guitar
105.0,0.3252032520325203,57,127,Electric Guitar
105.0,0.3252032520325203,67,127,Electric Guitar
105.0,0.3252032520325203,41,127,Electric Guitar
105.0,0.12195121951219512,36,127,Electric Guitar
105.0,0.12195121951219512,38,127,Electric Guitar
105.0,0.0,42,127,Electric Guitar
105.0,0.0,42,106,Electric Guitar
105.0,0.0,40,106,Electric Guitar
105.25,0.0,33,127,Electric Guitar
105.25,0.0,42,127,Electric Guitar
105.25,0.0,42,53,Electric Guitar
105.25,0.0,55,84,Electric Guitar
105.5,0.0,36,127,Electric Guitar
105.5,0.12195121951219512,74,115,Electric Guitar
105.5,0.0,46,127,Electric Guitar
105.5,0.0,36,102,Electric Guitar
105.5,0.0,42,102,Electric Guitar
105.5,0.0,55,102,Electric Guitar
105.75,0.24390243902439024,40,127,Electric Guitar
105.75,0.36585365853658536,72,113,Electric Guitar
105.75,0.0,57,127,Electric Guitar
105.75,0.0,41,127,Electric Guitar
105.75,0.0,67,127,Electric Guitar
105.75,0.0,64,127,Electric Guitar
105.75,0.0,60,127,Electric Guitar
105.75,0.0,36,84,Electric Guitar
105.75,0.0,42,84,Electric Guitar
105.75,0.0,55,110,Electric Guitar
106.0,0.12195121951219512,36,127,Electric Guitar
106.0,0.0,42,127,Electric Guitar
106.0,0.0,44,117,Electric Guitar
106.0,0.12195121951219512,55,112,Electric Guitar
106.25,0.0,36,127,Electric Guitar
106.25,0.0,42,127,Electric Guitar
106.25,0.12195121951219512,38,77,Electric Guitar
106.25,0.0,42,63,Electric Guitar
106.25,0.12195121951219512,57,108,Electric Guitar
106.5,0.24390243902439024,38,127,Electric Guitar
106.5,0.36585365853658536,64,127,Electric Guitar
106.5,0.36585365853658536,57,127,Electric Guitar
106.5,0.36585365853658536,41,127,Electric Guitar
106.5,0.36585365853658536,67,127,Electric Guitar
106.5,0.36585365853658536,60,127,Electric Guitar
106.5,0.0,46,127,Electric Guitar
106.5,0.0,36,100,Electric Guitar
106.5,0.0,42,100,Electric Guitar
106.5,0.0,55,84,Electric Guitar
106.75,0.0,42,71,Electric Guitar
106.75,0.0,55,102,Electric Guitar
107.0,0.16260162601626016,36,127,Electric Guitar
107.0,0.12195121951219512,69,112,Electric Guitar
107.0,0.12195121951219512,36,127,Electric Guitar
107.0,0.12195121951219512,38,127,Electric Guitar
107.0,0.0,42,127,Electric Guitar
107.0,0.0,44,124,Electric Guitar
107.0,0.0,40,124,Electric Guitar
107.0,0.12195121951219512,55,110,Electric Guitar
107.25,0.36585365853658536,33,127,Electric Guitar
107.25,0.24390243902439024,72,117,Electric Guitar
107.25,0.0,42,127,Electric Guitar
107.25,0.0,36,86,Electric Guitar
107.25,0.0,42,86,Electric Guitar
107.25,0.12195121951219512,57,110,Electric Guitar
107.5,0.0,57,127,Electric Guitar
107.5,0.0,64,127,Electric Guitar
107.5,0.0,60,127,Electric Guitar
107.5,0.0,67,127,Electric Guitar
107.5,0.0,41,127,Electric Guitar
107.5,0.0,46,127,Electric Guitar
107.5,0.0,42,89,Electric Guitar
107.5,0.0,55,84,Electric Guitar
107.75,0.36585365853658536,76,124,Electric Guitar
107.75,0.0,36,84,Electric Guitar
107.75,0.0,42,84,Electric Guitar
107.75,0.0,55,102,Electric Guitar
108.0,0.16260162601626016,26,127,Electric Guitar
108.0,0.0,64,127,Electric Guitar
108.0,0.0,53,127,Electric Guitar
108.0,0.0,60,127,Electric Guitar
108.0,0.0,57,127,Electric Guitar
108.0,0.12195121951219512,38,127,Electric Guitar
108.0,0.12195121951219512,36,127,Electric Guitar
108.0,0.0,42,127,Electric Guitar
108.0,0.0,36,110,Electric Guitar
108.0,0.0,42,110,Electric Guitar
108.0,0.16260162601626016,55,127,Electric Guitar
108.25,0.0,42,127,Electric Guitar
108.25,0.0,42,63,Electric Guitar
108.25,0.24390243902439024,57,112,Electric Guitar
108.5,0.12195121951219512,74,122,Electric Guitar
108.5,0.0,46,127,Electric Guitar
108.5,0.0,42,93,Electric Guitar
108.75,0.0,36,85,Electric Guitar
108.75,0.0,42,85,Electric Guitar
108.75,0.12195121951219512,60,110,Electric Guitar
109.0,0.12195121951219512,38,127,Electric Guitar
109.0,0.12195121951219512,74,113,Electric Guitar
109.0,0.3252032520325203,38,127,Electric Guitar
109.0,0.3252032520325203,64,127,Electric Guitar
109.0,0.3252032520325203,53,127,Electric Guitar
109.0,0.3252032520325203,60,127,Electric Guitar
109.0,0.3252032520325203,57,127,Electric Guitar
109.0,0.12195121951219512,36,127,Electric Guitar
109.0,0.12195121951219512,38,127,Electric Guitar
109.0,0.0,42,127,Electric Guitar
109.0,0.0,42,106,Electric Guitar
109.0,0.0,40,106,Electric Guitar
109.25,0.12195121951219512,33,127,Electric Guitar
109.25,0.24390243902439024,72,117,Electric Guitar
109.25,0.0,42,127,Electric Guitar
109.25,0.0,42,53,Electric Guitar
109.25,0.0,55,84,Electric Guitar
109.5,0.12195121951219512,32,127,Electric Guitar
109.5,0.0,46,127,Electric Guitar
109.5,0.0,36,102,Electric Guitar
109.5,0.0,42,102,Electric Guitar
109.5,0.0,55,102,Electric Guitar
109.75,0.36585365853658536,31,127,Electric Guitar
109.75,0.3252032520325203,76,122,Electric Guitar
109.75,0.0,53,127,Electric Guitar
109.75,0.0,57,127,Electric Guitar
109.75,0.0,59,127,Electric Guitar
109.75,0.0,64,127,Electric Guitar
109.75,0.12195121951219512,43,127,Electric Guitar
109.75,0.0,36,84,Electric Guitar
109.75,0.0,42,84,Electric Guitar
109.75,0.0,55,110,Electric Guitar
110.0,0.12195121951219512,36,127,Electric Guitar
110.0,0.0,42,127,Electric Guitar
110.0,0.0,44,117,Electric Guitar
110.0,0.12195121951219512,55,112,Electric Guitar
110.25,0.0,42,127,Electric Guitar
110.25,0.0,42,63,Electric Guitar
110.25,0.12195121951219512,57,108,Electric Guitar
110.5,0.24390243902439024,35,127,Electric Guitar
110.5,0.12195121951219512,74,113,Electric Guitar
110.5,0.36585365853658536,57,127,Electric Guitar
110.5,0.36585365853658536,64,127,Electric Guitar
110.5,0.36585365853658536,53,127,Electric Guitar
110.5,0.36585365853658536,59,127,Electric Guitar
110.5,0.36585365853658536,43,127,Electric Guitar
110.5,0.0,46,127,Electric Guitar
110.5,0.0,36,100,Electric Guitar
110.5,0.0,42,100,Electric Guitar
110.5,0.0,55,84,Electric Guitar
110.75,0.0,42,71,Electric Guitar
110.75,0.0,55,102,Electric Guitar
111.0,0.24390243902439024,38,127,Electric Guitar
111.0,0.16260162601626016,74,110,Electric Guitar
111.0,0.12195121951219512,36,127,Electric Guitar
111.0,0.12195121951219512,38,127,Electric Guitar
111.0,0.0,42,127,Electric Guitar
111.0,0.0,44,124,Electric Guitar
111.0,0.0,40,124,Electric Guitar
111.0,0.12195121951219512,55,110,Electric Guitar
111.25,0.0,42,127,Electric Guitar
111.25,0.0,36,86,Electric Guitar
111.25,0.0,42,86,Electric Guitar
111.25,0.12195121951219512,57,110,Electric Guitar
111.5,0.12195121951219512,72,112,Electric Guitar
111.5,0.0,43,127,Electric Guitar
111.5,0.0,53,127,Electric Guitar
111.5,0.0,57,127,Electric Guitar
111.5,0.0,59,127,Electric Guitar
111.5,0.0,64,127,Electric Guitar
111.5,0.0,46,127,Electric Guitar
111.5,0.0,42,89,Electric Guitar
111.5,0.0,55,84,Electric Guitar
111.75,0.0,36,84,Electric Guitar
111.75,0.0,42,84,Electric Guitar
111.75,0.0,55,102,Electric Guitar
112.0,0.16260162601626016,36,127,Electric Guitar
112.0,0.3252032520325203,74,112,Electric Guitar
112.0,0.0,59,127,Electric Guitar
112.0,0.0,60,127,Electric Guitar
112.0,0.0,55,127,Electric Guitar
112.0,0.0,64,127,Electric Guitar
112.0,0.12195121951219512,48,127,Electric Guitar
112.0,0.12195121951219512,36,127,Electric Guitar
112.0,0.0,42,127,Electric Guitar
112.0,0.0,36,110,Electric Guitar
112.0,0.0,42,110,Electric Guitar
112.0,0.16260162601626016,55,127,Electric Guitar
112.25,0.0,42,127,Electric Guitar
112.25,0.0,42,63,Electric Guitar
112.25,0.24390243902439024,57,112,Electric Guitar
112.5,0.16260162601626016,76,113,Electric Guitar
112.5,0.0,46,127,Electric Guitar
112.5,0.0,42,93,Electric Guitar
112.75,0.0,36,85,Electric Guitar
112.75,0.0,42,85,Electric Guitar
112.75,0.12195121951219512,60,110,Electric Guitar
113.0,0.12195121951219512,40,127,Electric Guitar
113.0,1.4634146341463414,76,120,Electric Guitar
113.0,0.3252032520325203,55,127,Electric Guitar
113.0,0.3252032520325203,60,127,Electric Guitar
113.0,0.3252032520325203,59,127,Electric Guitar
113.0,0.24390243902439024,48,127,Electric Guitar
113.0,0.24390243902439024,64,127,Electric Guitar
113.0,0.12195121951219512,36,127,Electric Guitar
113.0,0.12195121951219512,38,127,Electric Guitar
113.0,0.0,42,127,Electric Guitar
113.0,0.0,42,106,Electric Guitar
113.0,0.0,40,106,Electric Guitar
113.25,0.12195121951219512,43,127,Electric Guitar
113.25,0.0,42,127,Electric Guitar
113.25,0.0,42,53,Electric Guitar
113.25,0.0,55,84,Electric Guitar
113.5,0.12195121951219512,48,127,Electric Guitar
113.5,0.0,46,127,Electric Guitar
113.5,0.0,36,102,Electric Guitar
113.5,0.0,42,102,Electric Guitar
113.5,0.0,55,102,Electric Guitar
113.75,0.3252032520325203,47,127,Electric Guitar
113.75,0.0,57,127,Electric Guitar
113.75,0.0,66,127,Electric Guitar
113.75,0.0,62,127,Electric Guitar
113.75,0.0,59,127,Electric Guitar
113.75,0.0,47,127,Electric Guitar
113.75,0.0,36,84,Electric Guitar
113.75,0.0,42,84,Electric Guitar
113.75,0.0,55,110,Electric Guitar
114.0,0.12195121951219512,36,127,Electric Guitar
114.0,0.0,42,127,Electric Guitar
114.0,0.0,44,117,Electric Guitar
114.0,0.12195121951219512,62,114,Electric Guitar
114.25,0.0,42,127,Electric Guitar
114.25,0.12195121951219512,38,77,Electric Guitar
114.25,0.0,42,63,Electric Guitar
114.25,0.12195121951219512,63,103,Electric Guitar
114.5,0.12195121951219512,38,127,Electric Guitar
114.5,0.24390243902439024,57,127,Electric Guitar
114.5,0.24390243902439024,47,127,Electric Guitar
114.5,0.24390243902439024,66,127,Electric Guitar
114.5,0.24390243902439024,62,127,Electric Guitar
114.5,0.24390243902439024,59,127,Electric Guitar
114.5,0.0,46,127,Electric Guitar
114.5,0.0,36,100,Electric Guitar
114.5,0.0,42,100,Electric Guitar
114.5,0.12195121951219512,62,96,Electric Guitar
114.75,0.12195121951219512,39,127,Electric Guitar
114.75,0.0,42,71,Electric Guitar
114.75,0.12195121951219512,60,80,Electric Guitar
115.0,0.4878048780487805,40,127,Electric Guitar
115.0,0.12195121951219512,36,127,Electric Guitar
115.0,0.12195121951219512,38,127,Electric Guitar
115.0,0.0,42,127,Electric Guitar
115.0,0.0,44,124,Electric Guitar
115.0,0.0,40,124,Electric Guitar
115.0,0.16260162601626016,62,102,Electric Guitar
115.25,0.36585365853658536,56,127,Electric Guitar
115.25,0.36585365853658536,65,127,Electric Guitar
115.25,0.36585365853658536,59,127,Electric Guitar
115.25,0.36585365853658536,40,127,Electric Guitar
115.25,0.36585365853658536,62,127,Electric Guitar
115.25,0.0,42,127,Electric Guitar
115.25,0.0,36,86,Electric Guitar
115.25,0.0,42,86,Electric Guitar
115.25,0.36585365853658536,60,103,Electric Guitar
115.5,0.0,46,127,Electric Guitar
115.5,0.0,42,89,Electric Guitar
115.75,0.12195121951219512,38,77,Electric Guitar
115.75,0.0,36,84,Electric Guitar
115.75,0.0,42,84,Electric Guitar
116.0,0.12195121951219512,33,127,Electric Guitar
116.0,0.0,59,127,Electric Guitar
116.0,0.0,55,127,Electric Guitar
116.0,0.0,60,127,Electric Guitar
116.0,0.0,64,127,Electric Guitar
116.0,0.12195121951219512,45,127,Electric Guitar
116.0,0.12195121951219512,36,127,Electric Guitar
116.0,0.12195121951219512,49,127,Electric Guitar
116.0,0.0,42,127,Electric Guitar
116.0,0.0,36,110,Electric Guitar
116.0,0.0,42,110,Electric Guitar
116.0,0.16260162601626016,55,127,Electric Guitar
116.25,0.0,42,127,Electric Guitar
116.25,0.0,42,63,Electric Guitar
116.25,0.24390243902439024,57,112,Electric Guitar
116.5,0.24390243902439024,76,117,Electric Guitar
116.5,0.0,46,127,Electric Guitar
116.5,0.0,42,93,Electric Guitar
116.75,0.0,36,85,Electric Guitar
116.75,0.0,42,85,Electric Guitar
116.75,0.12195121951219512,60,110,Electric Guitar
117.0,0.24390243902439024,28,127,Electric Guitar
117.0,0.16260162601626016,75,110,Electric Guitar
117.0,0.3252032520325203,64,127,Electric Guitar
117.0,0.3252032520325203,45,127,Electric Guitar
117.0,0.3252032520325203,55,127,Electric Guitar
117.0,0.3252032520325203,60,127,Electric Guitar
117.0,0.3252032520325203,59,127,Electric Guitar
117.0,0.12195121951219512,36,127,Electric Guitar
117.0,0.12195121951219512,38,127,Electric Guitar
117.0,0.0,42,127,Electric Guitar
117.0,0.0,42,106,Electric Guitar
117.0,0.0,40,106,Electric Guitar
117.25,0.0,42,127,Electric Guitar
117.25,0.0,42,53,Electric Guitar
117.25,0.0,55,84,Electric Guitar
117.5,0.12195121951219512,31,127,Electric Guitar
117.5,0.0,76,110,Electric Guitar
117.5,0.0,46,127,Electric Guitar
117.5,0.0,36,102,Electric Guitar
117.5,0.0,42,102,Electric Guitar
117.5,0.0,55,102,Electric Guitar
117.75,0.36585365853658536,33,127,Electric Guitar
117.75,0.36585365853658536,79,110,Electric Guitar
117.75,0.0,60,127,Electric Guitar
117.75,0.0,55,127,Electric Guitar
117.75,0.0,45,127,Electric Guitar
117.75,0.0,59,127,Electric Guitar
117.75,0.0,64,127,Electric Guitar
117.75,0.0,36,84,Electric Guitar
117.75,0.0,42,84,Electric Guitar
117.75,0.0,55,110,Electric Guitar
118.0,0.12195121951219512,36,127,Electric Guitar
118.0,0.0,42,127,Electric Guitar
118.0,0.0,44,117,Electric Guitar
118.0,0.12195121951219512,55,112,Electric Guitar
118.25,0.0,42,127,Electric Guitar
118.25,0.0,42,63,Electric Guitar
118.25,0.12195121951219512,57,108,Electric Guitar
118.5,0.24390243902439024,36,127,Electric Guitar
118.5,0.24390243902439024,77,108,Electric Guitar
118.5,0.36585365853658536,55,127,Electric Guitar
118.5,0.36585365853658536,64,127,Electric Guitar
118.5,0.36585365853658536,59,127,Electric Guitar
118.5,0.36585365853658536,60,127,Electric Guitar
118.5,0.36585365853658536,45,127,Electric Guitar
118.5,0.0,46,127,Electric Guitar
118.5,0.0,36,100,Electric Guitar
118.5,0.0,42,100,Electric Guitar
118.5,0.0,55,84,Electric Guitar
118.75,0.0,42,71,Electric Guitar
118.75,0.0,55,102,Electric Guitar
119.0,0.12195121951219512,38,127,Electric Guitar
119.0,0.24390243902439024,76,108,Electric Guitar
119.0,0.12195121951219512,36,127,Electric Guitar
119.0,0.12195121951219512,38,127,Electric Guitar
119.0,0.0,42,127,Electric Guitar
119.0,0.0,44,124,Electric Guitar
119.0,0.0,40,124,Electric Guitar
119.0,0.12195121951219512,55,110,Electric Guitar
119.25,0.12195121951219512,39,127,Electric Guitar
119.25,0.0,42,127,Electric Guitar
119.25,0.0,36,86,Electric Guitar
119.25,0.0,42,86,Electric Guitar
119.25,0.12195121951219512,57,110,Electric Guitar
119.5,0.24390243902439024,40,127,Electric Guitar
119.5,0.24390243902439024,77,117,Electric Guitar
119.5,0.0,55,127,Electric Guitar
119.5,0.0,59,127,Electric Guitar
119.5,0.0,60,127,Electric Guitar
119.5,0.0,64,127,Electric Guitar
119.5,0.0,45,127,Electric Guitar
119.5,0.0,46,127,Electric Guitar
119.5,0.0,42,89,Electric Guitar
119.5,0.0,55,84,Electric Guitar
119.75,0.0,36,84,Electric Guitar
119.75,0.0,42,84,Electric Guitar
119.75,0.0,55,102,Electric Guitar
120.0,0.12195121951219512,29,127,Electric Guitar
120.0,0.24390243902439024,76,108,Electric Guitar
120.0,0.0,64,127,Electric Guitar
120.0,0.0,60,127,Electric Guitar
120.0,0.0,57,127,Electric Guitar
120.0,0.0,67,127,Electric Guitar
120.0,0.12195121951219512,41,127,Electric Guitar
120.0,0.12195121951219512,36,127,Electric Guitar
120.0,0.0,42,127,Electric Guitar
120.0,0.0,36,110,Electric Guitar
120.0,0.0,42,110,Electric Guitar
120.0,0.16260162601626016,55,127,Electric Guitar
120.25,0.0,42,127,Electric Guitar
120.25,0.0,42,63,Electric Guitar
120.25,0.24390243902439024,57,112,Electric Guitar
120.5,0.24390243902439024,77,113,Electric Guitar
120.5,0.0,46,127,Electric Guitar
120.5,0.0,42,93,Electric Guitar
120.75,0.0,36,85,Electric Guitar
120.75,0.0,42,85,Electric Guitar
120.75,0.12195121951219512,60,110,Electric Guitar
121.0,0.12195121951219512,29,127,Electric Guitar
121.0,0.24390243902439024,76,104,Electric Guitar
121.0,0.3252032520325203,64,127,Electric Guitar
121.0,0.3252032520325203,60,127,Electric Guitar
121.0,0.3252032520325203,57,127,Electric Guitar
121.0,0.3252032520325203,67,127,Electric Guitar
121.0,0.3252032520325203,41,127,Electric Guitar
121.0,0.12195121951219512,36,127,Electric Guitar
121.0,0.12195121951219512,38,127,Electric Guitar
121.0,0.0,42,127,Electric Guitar
121.0,0.0,42,106,Electric Guitar
121.0,0.0,40,106,Electric Guitar
121.25,0.0,33,127,Electric Guitar
121.25,0.0,42,127,Electric Guitar
121.25,0.0,42,53,Electric Guitar
121.25,0.0,55,84,Electric Guitar
121.5,0.0,36,127,Electric Guitar
121.5,0.12195121951219512,74,115,Electric Guitar
121.5,0.0,46,127,Electric Guitar
121.5,0.0,36,102,Electric Guitar
121.5,0.0,42,102,Electric Guitar
121.5,0.0,55,102,Electric Guitar
121.75,0.24390243902439024,40,127,Electric Guitar
121.75,0.36585365853658536,72,113,Electric Guitar
121.75,0.0,57,127,Electric Guitar
121.75,0.0,41,127,Electric Guitar
121.75,0.0,67,127,Electric Guitar
121.75,0.0,64,127,Electric Guitar
121.75,0.0,60,127,Electric Guitar
121.75,0.0,36,84,Electric Guitar
121.75,0.0,42,84,Electric Guitar
121.75,0.0,55,110,Electric Guitar
122.0,0.12195121951219512,36,127,Electric Guitar
122.0,0.0,42,127,Electric Guitar
122.0,0.0,44,117,Electric Guitar
122.0,0.12195121951219512,55,112,Electric Guitar
122.25,0.0,36,127,Electric Guitar
122.25,0.0,42,127,Electric Guitar
122.25,0.12195121951219512,38,77,Electric Guitar
122.25,0.0,42,63,Electric Guitar
122.25,0.12195121951219512,57,108,Electric Guitar
122.5,0.24390243902439024,38,127,Electric Guitar
122.5,0.36585365853658536,64,127,Electric Guitar
122.5,0.36585365853658536,57,127,Electric Guitar
122.5,0.36585365853658536,41,127,Electric Guitar
122.5,0.36585365853658536,67,127,Electric Guitar
122.5,0.36585365853658536,60,127,Electric Guitar
122.5,0.0,46,127,Electric Guitar
122.5,0.0,36,100,Electric Guitar
122.5,0.0,42,100,Electric Guitar
122.5,0.0,55,84,Electric Guitar
122.75,0.0,42,71,Electric Guitar
122.75,0.0,55,102,Electric Guitar
123.0,0.16260162601626016,36,127,Electric Guitar
123.0,0.12195121951219512,69,112,Electric Guitar
123.0,0.12195121951219512,36,127,Electric Guitar
123.0,0.12195121951219512,38,127,Electric Guitar
123.0,0.0,42,127,Electric Guitar
123.0,0.0,44,124,Electric Guitar
123.0,0.0,40,124,Electric Guitar
123.0,0.12195121951219512,55,110,Electric Guitar
123.25,0.36585365853658536,33,127,Electric Guitar
123.25,0.24390243902439024,72,117,Electric Guitar
123.25,0.0,42,127,Electric Guitar
123.25,0.0,36,86,Electric Guitar
123.25,0.0,42,86,Electric Guitar
123.25,0.12195121951219512,57,110,Electric Guitar
123.5,0.0,57,127,Electric Guitar
123.5,0.0,64,127,Electric Guitar
123.5,0.0,60,127,Electric Guitar
123.5,0.0,67,127,Electric Guitar
123.5,0.0,41,127,Electric Guitar
123.5,0.0,46,127,Electric Guitar
123.5,0.0,42,89,Electric Guitar
123.5,0.0,55,84,Electric Guitar
123.75,0.36585365853658536,76,124,Electric Guitar
123.75,0.0,36,84,Electric Guitar
123.75,0.0,42,84,Electric Guitar
123.75,0.0,55,102,Electric Guitar
124.0,0.12195121951219512,26,127,Electric Guitar
124.0,0.0,64,127,Electric Guitar
124.0,0.0,53,127,Electric Guitar
124.0,0.0,60,127,Electric Guitar
124.0,0.0,57,127,Electric Guitar
124.0,0.12195121951219512,38,127,Electric Guitar
124.0,0.12195121951219512,36,127,Electric Guitar
124.0,0.0,42,127,Electric Guitar
124.0,0.0,36,110,Electric Guitar
124.0,0.0,42,110,Electric Guitar
124.0,0.16260162601626016,55,127,Electric Guitar
124.25,0.0,42,127,Electric Guitar
124.25,0.0,42,63,Electric Guitar
124.25,0.24390243902439024,57,112,Electric Guitar
124.5,0.12195121951219512,74,122,Electric Guitar
124.5,0.0,46,127,Electric Guitar
124.5,0.0,42,93,Electric Guitar
124.75,0.0,36,85,Electric Guitar
124.75,0.0,42,85,Electric Guitar
124.75,0.12195121951219512,60,110,Electric Guitar
125.0,0.12195121951219512,26,127,Electric Guitar
125.0,0.12195121951219512,74,113,Electric Guitar
125.0,0.3252032520325203,38,127,Electric Guitar
125.0,0.3252032520325203,64,127,Electric Guitar
125.0,0.3252032520325203,53,127,Electric Guitar
125.0,0.3252032520325203,60,127,Electric Guitar
125.0,0.3252032520325203,57,127,Electric Guitar
125.0,0.12195121951219512,36,127,Electric Guitar
125.0,0.12195121951219512,38,127,Electric Guitar
125.0,0.0,42,127,Electric Guitar
125.0,0.0,42,106,Electric Guitar
125.0,0.0,40,106,Electric Guitar
125.25,0.12195121951219512,29,127,Electric Guitar
125.25,0.24390243902439024,72,117,Electric Guitar
125.25,0.0,42,127,Electric Guitar
125.25,0.0,42,53,Electric Guitar
125.25,0.0,55,84,Electric Guitar
125.5,0.12195121951219512,33,127,Electric Guitar
125.5,0.0,46,127,Electric Guitar
125.5,0.0,36,102,Electric Guitar
125.5,0.0,42,102,Electric Guitar
125.5,0.0,55,102,Electric Guitar
125.75,0.36585365853658536,40,127,Electric Guitar
125.75,0.3252032520325203,76,122,Electric Guitar
125.75,0.0,56,127,Electric Guitar
125.75,0.0,59,127,Electric Guitar
125.75,0.0,62,127,Electric Guitar
125.75,0.0,65,127,Electric Guitar
125.75,0.12195121951219512,40,127,Electric Guitar
125.75,0.0,36,84,Electric Guitar
125.75,0.0,42,84,Electric Guitar
125.75,0.0,55,110,Electric Guitar
126.0,0.12195121951219512,36,127,Electric Guitar
126.0,0.0,42,127,Electric Guitar
126.0,0.0,44,117,Electric Guitar
126.0,0.12195121951219512,55,112,Electric Guitar
126.25,0.0,42,127,Electric Guitar
126.25,0.0,42,63,Electric Guitar
126.25,0.12195121951219512,57,108,Electric Guitar
126.5,0.12195121951219512,35,127,Electric Guitar
126.5,0.16260162601626016,74,113,Electric Guitar
126.5,0.36585365853658536,59,127,Electric Guitar
126.5,0.36585365853658536,65,127,Electric Guitar
126.5,0.36585365853658536,56,127,Electric Guitar
126.5,0.36585365853658536,62,127,Electric Guitar
126.5,0.36585365853658536,40,127,Electric Guitar
126.5,0.0,46,127,Electric Guitar
126.5,0.0,36,100,Electric Guitar
126.5,0.0,42,100,Electric Guitar
126.5,0.0,55,84,Electric Guitar
126.75,0.0,42,71,Electric Guitar
126.75,0.0,55,102,Electric Guitar
127.0,0.4878048780487805,28,127,Electric Guitar
127.0,0.24390243902439024,74,127,Electric Guitar
127.0,0.12195121951219512,36,127,Electric Guitar
127.0,0.12195121951219512,38,127,Electric Guitar
127.0,0.0,42,127,Electric Guitar
127.0,0.0,44,124,Electric Guitar
127.0,0.0,40,124,Electric Guitar
127.0,0.12195121951219512,55,110,Electric Guitar
127.25,0.0,42,127,Electric Guitar
127.25,0.0,36,86,Electric Guitar
127.25,0.0,42,86,Electric Guitar
127.25,0.12195121951219512,57,110,Electric Guitar
127.5,0.12195121951219512,72,122,Electric Guitar
127.5,0.0,40,127,Electric Guitar
127.5,0.0,56,127,Electric Guitar
127.5,0.0,59,127,Electric Guitar
127.5,0.0,62,127,Electric Guitar
127.5,0.0,65,127,Electric Guitar
127.5,0.0,46,127,Electric Guitar
127.5,0.0,42,89,Electric Guitar
127.5,0.0,55,84,Electric Guitar
127.75,0.0,36,84,Electric Guitar
127.75,0.0,42,84,Electric Guitar
127.75,0.0,55,102,Electric Guitar
128.0,0.12195121951219512,33,127,Electric Guitar
128.0,0.16260162601626016,71,117,Electric Guitar
128.0,0.0,59,127,Electric Guitar
128.0,0.0,55,127,Electric Guitar
128.0,0.0,60,127,Electric Guitar
128.0,0.0,64,127,Electric Guitar
128.0,0.12195121951219512,45,127,Electric Guitar
128.0,0.12195121951219512,36,127,Electric Guitar
128.0,0.0,42,127,Electric Guitar
128.0,0.0,36,110,Electric Guitar
128.0,0.0,42,110,Electric Guitar
128.0,0.16260162601626016,55,127,Electric Guitar
128.25,0.0,42,127,Electric Guitar
128.25,0.0,42,63,Electric Guitar
128.25,0.24390243902439024,57,112,Electric Guitar
128.5,0.24390243902439024,72,112,Electric Guitar
128.5,0.0,46,127,Electric Guitar
128.5,0.0,42,93,Electric Guitar
128.75,0.0,36,85,Electric Guitar
128.75,0.0,42,85,Electric Guitar
128.75,0.12195121951219512,60,110,Electric Guitar
129.0,0.12195121951219512,33,127,Electric Guitar
129.0,1.4634146341463414,69,110,Electric Guitar
129.0,0.3252032520325203,64,127,Electric Guitar
129.0,0.3252032520325203,45,127,Electric Guitar
129.0,0.3252032520325203,55,127,Electric Guitar
129.0,0.3252032520325203,60,127,Electric Guitar
129.0,0.3252032520325203,59,127,Electric Guitar
129.0,0.12195121951219512,36,127,Electric Guitar
129.0,0.12195121951219512,38,127,Electric Guitar
129.0,0.0,42,127,Electric Guitar
129.0,0.0,42,106,Electric Guitar
129.0,0.0,40,106,Electric Guitar
129.25,0.12195121951219512,40,127,Electric Guitar
129.25,0.0,42,127,Electric Guitar
129.25,0.0,42,53,Electric Guitar
129.25,0.0,55,84,Electric Guitar
129.5,0.12195121951219512,43,127,Electric Guitar
129.5,0.0,46,127,Electric Guitar
129.5,0.0,36,102,Electric Guitar
129.5,0.0,42,102,Electric Guitar
129.5,0.0,55,102,Electric Guitar
129.75,0.24390243902439024,45,127,Electric Guitar
129.75,0.0,60,127,Electric Guitar
129.75,0.0,55,127,Electric Guitar
129.75,0.0,45,127,Electric Guitar
129.75,0.0,59,127,Electric Guitar
129.75,0.0,64,127,Electric Guitar
129.75,0.0,36,84,Electric Guitar
129.75,0.0,42,84,Electric Guitar
129.75,0.0,55,110,Electric Guitar
130.0,0.4878048780487805,69,1,Electric Guitar
130.0,0.12195121951219512,36,127,Electric Guitar
130.0,0.0,42,127,Electric Guitar
130.0,0.0,44,117,Electric Guitar
130.0,0.12195121951219512,55,112,Electric Guitar
130.25,0.36585365853658536,43,127,Electric Guitar
130.25,0.0,42,127,Electric Guitar
130.25,0.12195121951219512,38,77,Electric Guitar
130.25,0.0,42,63,Electric Guitar
130.25,0.12195121951219512,57,108,Electric Guitar
130.5,0.36585365853658536,55,127,Electric Guitar
130.5,0.36585365853658536,64,127,Electric Guitar
130.5,0.36585365853658536,59,127,Electric Guitar
130.5,0.36585365853658536,60,127,Electric Guitar
130.5,0.36585365853658536,45,127,Electric Guitar
130.5,0.0,46,127,Electric Guitar
130.5,0.0,36,100,Electric Guitar
130.5,0.0,42,100,Electric Guitar
130.5,0.0,55,84,Electric Guitar
130.75,0.0,42,71,Electric Guitar
130.75,0.0,55,102,Electric Guitar
131.0,0.12195121951219512,40,127,Electric Guitar
131.0,0.12195121951219512,36,127,Electric Guitar
131.0,0.12195121951219512,38,127,Electric Guitar
131.0,0.0,42,127,Electric Guitar
131.0,0.0,44,124,Electric Guitar
131.0,0.0,40,124,Electric Guitar
131.0,0.12195121951219512,55,110,Electric Guitar
131.25,0.12195121951219512,36,127,Electric Guitar
131.25,0.36585365853658536,55,127,Electric Guitar
131.25,0.36585365853658536,59,127,Electric Guitar
131.25,0.36585365853658536,60,127,Electric Guitar
131.25,0.36585365853658536,64,127,Electric Guitar
131.25,0.36585365853658536,45,127,Electric Guitar
131.25,0.0,42,127,Electric Guitar
131.25,0.0,36,86,Electric Guitar
131.25,0.0,42,86,Electric Guitar
131.25,0.12195121951219512,57,110,Electric Guitar
131.5,0.24390243902439024,33,127,Electric Guitar
131.5,0.0,46,127,Electric Guitar
131.5,0.0,42,89,Electric Guitar
131.5,0.0,55,84,Electric Guitar
131.75,0.12195121951219512,38,77,Electric Guitar
131.75,0.0,36,84,Electric Guitar
131.75,0.0,42,84,Electric Guitar
131.75,0.0,55,102,Electric Guitar
132.0,1.7073170731707317,34,127,Electric Guitar
132.0,0.4878048780487805,74,99,Electric Guitar
132.0,0.4878048780487805,70,99,Electric Guitar
132.0,0.4878048780487805,58,99,Electric Guitar
132.0,0.6097560975609756,69,105,Electric Guitar
132.0,0.6097560975609756,77,105,Electric Guitar
132.0,2.317073170731707,69,127,Electric Guitar
132.0,1.5853658536585367,46,100,Electric Guitar
132.0,0.6097560975609756,69,103,Electric Guitar
132.0,0.4878048780487805,58,94,Electric Guitar
132.0,0.7317073170731707,62,100,Electric Guitar
132.0,0.7317073170731707,65,100,Electric Guitar
132.0,1.7073170731707317,57,127,Electric Guitar
132.0,1.7073170731707317,58,127,Electric Guitar
132.0,1.7073170731707317,46,127,Electric Guitar
132.0,1.7886178861788617,62,127,Electric Guitar
132.0,1.7886178861788617,65,127,Electric Guitar
132.0,0.12195121951219512,36,127,Electric Guitar
132.0,0.12195121951219512,57,127,Electric Guitar
132.0,0.0,42,106,Electric Guitar
132.0,0.0,70,106,Electric Guitar
132.0,0.0,36,110,Electric Guitar
132.0,0.0,42,110,Electric Guitar
132.0,0.6504065040650406,69,127,Electric Guitar
132.0,0.6097560975609756,57,127,Electric Guitar
132.0,1.7073170731707317,62,97,Electric Guitar
132.0,1.7073170731707317,65,97,Electric Guitar
132.0,1.7073170731707317,58,97,Electric Guitar
132.25,0.0,42,93,Electric Guitar
132.25,0.0,70,93,Electric Guitar
132.25,0.0,42,63,Electric Guitar
132.5,0.0,46,124,Electric Guitar
132.5,0.0,70,124,Electric Guitar
132.5,0.0,42,93,Electric Guitar
132.75,0.0,70,60,Electric Guitar
132.75,0.0,36,85,Electric Guitar
132.75,0.0,42,85,Electric Guitar
133.0,0.6097560975609756,77,122,Electric Guitar
133.0,0.12195121951219512,36,127,Electric Guitar
133.0,0.12195121951219512,38,127,Electric Guitar
133.0,0.0,42,102,Electric Guitar
133.0,0.0,70,102,Electric Guitar
133.0,0.0,42,106,Electric Guitar
133.0,0.0,40,106,Electric Guitar
133.25,0.0,42,99,Electric Guitar
133.25,0.0,70,99,Electric Guitar
133.25,0.0,42,53,Electric Guitar
133.5,0.36585365853658536,58,79,Electric Guitar
133.5,0.0,46,127,Electric Guitar
133.5,0.0,70,127,Electric Guitar
133.5,0.0,36,102,Electric Guitar
133.5,0.0,42,102,Electric Guitar
133.75,0.0,70,82,Electric Guitar
133.75,0.0,36,84,Electric Guitar
133.75,0.0,42,84,Electric Guitar
134.0,0.4878048780487805,62,91,Electric Guitar
134.0,0.12195121951219512,36,127,Electric Guitar
134.0,0.0,42,106,Electric Guitar
134.0,0.0,70,106,Electric Guitar
134.0,0.0,44,117,Electric Guitar
134.25,0.0,42,93,Electric Guitar
134.25,0.0,70,93,Electric Guitar
134.25,0.0,42,63,Electric Guitar
134.5,0.16260162601626016,77,102,Electric Guitar
134.5,0.3252032520325203,65,84,Electric Guitar
134.5,0.0,46,124,Electric Guitar
134.5,0.0,70,124,Electric Guitar
134.5,0.0,36,100,Electric Guitar
134.5,0.0,42,100,Electric Guitar
134.75,0.0,70,60,Electric Guitar
134.75,0.0,42,71,Electric Guitar
135.0,0.12195121951219512,79,110,Electric Guitar
135.0,0.0,69,87,Electric Guitar
135.0,0.12195121951219512,36,127,Electric Guitar
135.0,0.12195121951219512,38,127,Electric Guitar
135.0,0.0,42,102,Electric Guitar
135.0,0.0,70,102,Electric Guitar
135.0,0.0,44,124,Electric Guitar
135.0,0.0,40,124,Electric Guitar
135.25,0.0,42,99,Electric Guitar
135.25,0.0,70,99,Electric Guitar
135.25,0.0,36,86,Electric Guitar
135.25,0.0,42,86,Electric Guitar
135.5,1.3414634146341462,33,127,Electric Guitar
135.5,0.4878048780487805,76,102,Electric Guitar
135.5,0.4878048780487805,72,102,Electric Guitar
135.5,0.4878048780487805,71,102,Electric Guitar
135.5,0.6097560975609756,57,110,Electric Guitar
135.5,0.4878048780487805,67,110,Electric Guitar
135.5,0.16260162601626016,76,120,Electric Guitar
135.5,0.4878048780487805,64,107,Electric Guitar
135.5,0.36585365853658536,60,105,Electric Guitar
135.5,0.36585365853658536,57,105,Electric Guitar
135.5,1.8292682926829267,45,105,Electric Guitar
135.5,2.1951219512195124,45,127,Electric Guitar
135.5,2.1951219512195124,60,127,Electric Guitar
135.5,2.1951219512195124,64,127,Electric Guitar
135.5,2.1951219512195124,55,127,Electric Guitar
135.5,0.0,46,127,Electric Guitar
135.5,0.0,70,127,Electric Guitar
135.5,0.0,42,89,Electric Guitar
135.5,0.6097560975609756,57,127,Electric Guitar
135.5,0.6097560975609756,69,127,Electric Guitar
135.5,2.1951219512195124,64,88,Electric Guitar
135.5,2.1951219512195124,57,88,Electric Guitar
135.5,2.1951219512195124,60,88,Electric Guitar
135.75,0.0,70,82,Electric Guitar
135.75,0.0,36,84,Electric Guitar
135.75,0.0,42,84,Electric Guitar
136.0,0.24390243902439024,75,112,Electric Guitar
136.0,0.12195121951219512,36,127,Electric Guitar
136.0,0.0,42,106,Electric Guitar
136.0,0.0,70,106,Electric Guitar
136.0,0.0,36,110,Electric Guitar
136.0,0.0,42,110,Electric Guitar
136.25,0.0,42,93,Electric Guitar
136.25,0.0,70,93,Electric Guitar
136.25,0.0,42,63,Electric Guitar
136.5,1.7886178861788617,76,117,Electric Guitar
136.5,0.4878048780487805,76,127,Electric Guitar
136.5,0.0,46,124,Electric Guitar
136.5,0.0,70,124,Electric Guitar
136.5,0.0,42,93,Electric Guitar
136.75,0.0,70,60,Electric Guitar
136.75,0.0,36,85,Electric Guitar
136.75,0.0,42,85,Electric Guitar
137.0,0.12195121951219512,36,127,Electric Guitar
137.0,0.12195121951219512,38,127,Electric Guitar
137.0,0.0,42,102,Electric Guitar
137.0,0.0,70,102,Electric Guitar
137.0,0.0,42,106,Electric Guitar
137.0,0.0,40,106,Electric Guitar
137.25,0.0,42,99,Electric Guitar
137.25,0.0,70,99,Electric Guitar
137.25,0.0,42,53,Electric Guitar
137.5,0.4878048780487805,81,127,Electric Guitar
137.5,0.36585365853658536,67,107,Electric Guitar
137.5,0.4878048780487805,76,107,Electric Guitar
137.5,0.0,46,127,Electric Guitar
137.5,0.0,70,127,Electric Guitar
137.5,0.0,36,102,Electric Guitar
137.5,0.0,42,102,Electric Guitar
137.75,0.0,70,82,Electric Guitar
137.75,0.0,36,84,Electric Guitar
137.75,0.0,42,84,Electric Guitar
138.0,0.12195121951219512,36,127,Electric Guitar
138.0,0.0,42,106,Electric Guitar
138.0,0.0,70,106,Electric Guitar
138.0,0.0,44,117,Electric Guitar
138.25,0.12195121951219512,38,127,Electric Guitar
138.25,0.0,42,93,Electric Guitar
138.25,0.0,70,93,Electric Guitar
138.25,0.12195121951219512,38,77,Electric Guitar
138.25,0.0,42,63,Electric Guitar
138.5,0.12195121951219512,39,127,Electric Guitar
138.5,0.4878048780487805,75,127,Electric Guitar
138.5,0.24390243902439024,72,94,Electric Guitar
138.5,0.0,46,124,Electric Guitar
138.5,0.0,70,124,Electric Guitar
138.5,0.0,36,100,Electric Guitar
138.5,0.0,42,100,Electric Guitar
138.75,0.12195121951219512,40,127,Electric Guitar
138.75,0.0,70,60,Electric Guitar
138.75,0.0,42,71,Electric Guitar
139.0,0.4878048780487805,43,127,Electric Guitar
139.0,0.0,67,87,Electric Guitar
139.0,0.12195121951219512,36,127,Electric Guitar
139.0,0.12195121951219512,38,127,Electric Guitar
139.0,0.0,42,102,Electric Guitar
139.0,0.0,70,102,Electric Guitar
139.0,0.0,44,124,Electric Guitar
139.0,0.0,40,124,Electric Guitar
139.25,0.0,42,99,Electric Guitar
139.25,0.0,70,99,Electric Guitar
139.25,0.0,36,86,Electric Guitar
139.25,0.0,42,86,Electric Guitar
139.5,0.975609756097561,74,127,Electric Guitar
139.5,0.0,46,127,Electric Guitar
139.5,0.0,70,127,Electric Guitar
139.5,0.0,42,89,Electric Guitar
139.75,0.0,70,82,Electric Guitar
139.75,0.0,36,84,Electric Guitar
139.75,0.0,42,84,Electric Guitar
140.0,0.975609756097561,35,127,Electric Guitar
140.0,0.4878048780487805,59,105,Electric Guitar
140.0,0.36585365853658536,69,102,Electric Guitar
140.0,0.36585365853658536,78,102,Electric Guitar
140.0,0.36585365853658536,74,102,Electric Guitar
140.0,0.36585365853658536,71,98,Electric Guitar
140.0,0.4878048780487805,47,104,Electric Guitar
140.0,0.4878048780487805,57,104,Electric Guitar
140.0,0.4878048780487805,66,104,Electric Guitar
140.0,0.4878048780487805,59,102,Electric Guitar
140.0,0.4878048780487805,62,102,Electric Guitar
140.0,0.975609756097561,59,127,Electric Guitar
140.0,0.975609756097561,47,127,Electric Guitar
140.0,0.975609756097561,57,127,Electric Guitar
140.0,0.975609756097561,62,127,Electric Guitar
140.0,0.975609756097561,66,127,Electric Guitar
140.0,0.12195121951219512,36,127,Electric Guitar
140.0,0.0,42,106,Electric Guitar
140.0,0.0,70,106,Electric Guitar
140.0,0.0,36,110,Electric Guitar
140.0,0.0,42,110,Electric Guitar
140.0,0.36585365853658536,54,127,Electric Guitar
140.0,0.36585365853658536,66,127,Electric Guitar
140.0,0.975609756097561,62,94,Electric Guitar
140.0,0.975609756097561,59,94,Electric Guitar
140.0,0.975609756097561,66,94,Electric Guitar
140.25,0.0,42,93,Electric Guitar
140.25,0.0,70,93,Electric Guitar
140.25,0.0,42,63,Electric Guitar
140.5,0.0,46,124,Electric Guitar
140.5,0.0,70,124,Electric Guitar
140.5,0.0,42,93,Electric Guitar
140.75,0.0,70,60,Electric Guitar
140.75,0.0,36,85,Electric Guitar
140.75,0.0,42,85,Electric Guitar
141.0,0.6504065040650406,74,127,Electric Guitar
141.0,0.12195121951219512,36,127,Electric Guitar
141.0,0.12195121951219512,38,127,Electric Guitar
141.0,0.0,42,102,Electric Guitar
141.0,0.0,70,102,Electric Guitar
141.0,0.0,42,106,Electric Guitar
141.0,0.0,40,106,Electric Guitar
141.25,0.0,42,99,Electric Guitar
141.25,0.0,70,99,Electric Guitar
141.25,0.0,42,53,Electric Guitar
141.5,0.24390243902439024,72,127,Electric Guitar
141.5,0.0,46,127,Electric Guitar
141.5,0.0,70,127,Electric Guitar
141.5,0.0,36,102,Electric Guitar
141.5,0.0,42,102,Electric Guitar
141.75,0.0,70,82,Electric Guitar
141.75,0.0,36,84,Electric Guitar
141.75,0.0,42,84,Electric Guitar
142.0,0.975609756097561,28,127,Electric Guitar
142.0,0.36585365853658536,68,95,Electric Guitar
142.0,0.36585365853658536,77,95,Electric Guitar
142.0,0.36585365853658536,71,95,Electric Guitar
142.0,0.36585365853658536,74,100,Electric Guitar
142.0,0.4878048780487805,52,102,Electric Guitar
142.0,0.24390243902439024,74,127,Electric Guitar
142.0,0.36585365853658536,56,101,Electric Guitar
142.0,0.36585365853658536,65,101,Electric Guitar
142.0,0.36585365853658536,40,101,Electric Guitar
142.0,0.3252032520325203,62,102,Electric Guitar
142.0,0.36585365853658536,59,98,Electric Guitar
142.0,0.975609756097561,62,127,Electric Guitar
142.0,0.975609756097561,59,127,Electric Guitar
142.0,0.975609756097561,65,127,Electric Guitar
142.0,0.975609756097561,43,127,Electric Guitar
142.0,0.975609756097561,56,127,Electric Guitar
142.0,0.12195121951219512,36,127,Electric Guitar
142.0,0.0,42,106,Electric Guitar
142.0,0.0,70,106,Electric Guitar
142.0,0.0,44,117,Electric Guitar
142.0,0.36585365853658536,56,127,Electric Guitar
142.0,0.4878048780487805,68,127,Electric Guitar
142.0,0.975609756097561,62,105,Electric Guitar
142.0,0.975609756097561,65,105,Electric Guitar
142.0,0.975609756097561,56,105,Electric Guitar
142.25,0.0,42,93,Electric Guitar
142.25,0.0,70,93,Electric Guitar
142.25,0.0,42,63,Electric Guitar
142.5,0.24390243902439024,74,113,Electric Guitar
142.5,0.24390243902439024,72,127,Electric Guitar
142.5,0.0,46,124,Electric Guitar
142.5,0.0,70,124,Electric Guitar
142.5,0.0,36,100,Electric Guitar
142.5,0.0,42,100,Electric Guitar
142.75,0.0,70,60,Electric Guitar
142.75,0.0,42,71,Electric Guitar
143.0,0.16260162601626016,76,115,Electric Guitar
143.0,0.24390243902439024,74,127,Electric Guitar
143.0,0.12195121951219512,36,127,Electric Guitar
143.0,0.12195121951219512,38,127,Electric Guitar
143.0,0.0,42,102,Electric Guitar
143.0,0.0,70,102,Electric Guitar
143.0,0.0,44,124,Electric Guitar
143.0,0.0,40,124,Electric Guitar
143.25,0.0,42,99,Electric Guitar
143.25,0.0,70,99,Electric Guitar
143.25,0.0,36,86,Electric Guitar
143.25,0.0,42,86,Electric Guitar
143.5,0.24390243902439024,72,122,Electric Guitar
143.5,1.4634146341463414,72,127,Electric Guitar
143.5,0.0,46,127,Electric Guitar
143.5,0.0,70,127,Electric Guitar
143.5,0.0,42,89,Electric Guitar
143.75,0.0,70,82,Electric Guitar
143.75,0.0,36,84,Electric Guitar
143.75,0.0,42,84,Electric Guitar
144.0,1.0975609756097562,33,127,Electric Guitar
144.0,0.24390243902439024,72,104,Electric Guitar
144.0,0.24390243902439024,71,104,Electric Guitar
144.0,0.24390243902439024,67,104,Electric Guitar
144.0,0.36585365853658536,57,105,Electric Guitar
144.0,0.36585365853658536,76,102,Electric Guitar
144.0,0.24390243902439024,71,113,Electric Guitar
144.0,0.36585365853658536,64,98,Electric Guitar
144.0,0.36585365853658536,45,98,Electric Guitar
144.0,0.36585365853658536,59,103,Electric Guitar
144.0,0.36585365853658536,60,103,Electric Guitar
144.0,0.36585365853658536,55,103,Electric Guitar
144.0,1.951219512195122,45,127,Electric Guitar
144.0,1.951219512195122,55,127,Electric Guitar
144.0,1.951219512195122,60,127,Electric Guitar
144.0,1.951219512195122,64,127,Electric Guitar
144.0,0.12195121951219512,36,127,Electric Guitar
144.0,0.0,42,106,Electric Guitar
144.0,0.0,70,106,Electric Guitar
144.0,0.0,36,110,Electric Guitar
144.0,0.0,42,110,Electric Guitar
144.0,0.3252032520325203,57,127,Electric Guitar
144.0,0.36585365853658536,69,127,Electric Guitar
144.0,1.951219512195122,64,98,Electric Guitar
144.0,1.951219512195122,57,98,Electric Guitar
144.0,1.951219512195122,60,98,Electric Guitar
144.25,0.0,42,93,Electric Guitar
144.25,0.0,70,93,Electric Guitar
144.25,0.0,42,63,Electric Guitar
144.5,0.8536585365853658,72,117,Electric Guitar
144.5,0.0,46,124,Electric Guitar
144.5,0.0,70,124,Electric Guitar
144.5,0.0,42,93,Electric Guitar
144.75,0.0,70,60,Electric Guitar
144.75,0.0,36,85,Electric Guitar
144.75,0.0,42,85,Electric Guitar
145.0,0.12195121951219512,36,127,Electric Guitar
145.0,0.12195121951219512,38,127,Electric Guitar
145.0,0.0,42,102,Electric Guitar
145.0,0.0,70,102,Electric Guitar
145.0,0.0,42,106,Electric Guitar
145.0,0.0,40,106,Electric Guitar
145.25,0.0,42,99,Electric Guitar
145.25,0.0,70,99,Electric Guitar
145.25,0.0,42,53,Electric Guitar
145.5,0.24390243902439024,83,119,Electric Guitar
145.5,0.24390243902439024,55,94,Electric Guitar
145.5,0.0,46,127,Electric Guitar
145.5,0.0,70,127,Electric Guitar
145.5,0.0,36,102,Electric Guitar
145.5,0.0,42,102,Electric Guitar
145.75,0.0,70,82,Electric Guitar
145.75,0.0,36,84,Electric Guitar
145.75,0.0,42,84,Electric Guitar
146.0,0.16260162601626016,79,92,Electric Guitar
146.0,0.12195121951219512,57,96,Electric Guitar
146.0,0.12195121951219512,36,127,Electric Guitar
146.0,0.0,42,106,Electric Guitar
146.0,0.0,70,106,Electric Guitar
146.0,0.0,44,117,Electric Guitar
146.25,0.12195121951219512,38,127,Electric Guitar
146.25,0.0,42,93,Electric Guitar
146.25,0.0,70,93,Electric Guitar
146.25,0.12195121951219512,38,77,Electric Guitar
146.25,0.0,42,63,Electric Guitar
146.5,0.24390243902439024,40,127,Electric Guitar
146.5,0.24390243902439024,81,105,Electric Guitar
146.5,0.24390243902439024,76,127,Electric Guitar
146.5,0.16260162601626016,60,111,Electric Guitar
146.5,0.16260162601626016,57,111,Electric Guitar
146.5,0.16260162601626016,64,111,Electric Guitar
146.5,0.0,46,124,Electric Guitar
146.5,0.0,70,124,Electric Guitar
146.5,0.0,36,100,Electric Guitar
146.5,0.0,42,100,Electric Guitar
146.75,0.0,70,60,Electric Guitar
146.75,0.0,42,71,Electric Guitar
147.0,0.24390243902439024,43,127,Electric Guitar
147.0,0.0,76,98,Electric Guitar
147.0,0.24390243902439024,79,127,Electric Guitar
147.0,0.12195121951219512,36,127,Electric Guitar
147.0,0.12195121951219512,38,127,Electric Guitar
147.0,0.0,42,102,Electric Guitar
147.0,0.0,70,102,Electric Guitar
147.0,0.0,44,124,Electric Guitar
147.0,0.0,40,124,Electric Guitar
147.25,0.0,42,99,Electric Guitar
147.25,0.0,70,99,Electric Guitar
147.25,0.0,36,86,Electric Guitar
147.25,0.0,42,86,Electric Guitar
147.5,0.24390243902439024,45,127,Electric Guitar
147.5,0.975609756097561,81,127,Electric Guitar
147.5,0.0,46,127,Electric Guitar
147.5,0.0,70,127,Electric Guitar
147.5,0.0,42,89,Electric Guitar
147.75,0.12195121951219512,38,77,Electric Guitar
147.75,0.0,70,82,Electric Guitar
147.75,0.0,36,84,Electric Guitar
147.75,0.0,42,84,Electric Guitar
148.0,0.975609756097561,46,127,Electric Guitar
148.0,0.8130081300813008,74,100,Electric Guitar
148.0,0.6504065040650406,70,95,Electric Guitar
148.0,0.6504065040650406,77,95,Electric Guitar
148.0,1.5853658536585367,58,98,Electric Guitar
148.0,0.4878048780487805,69,105,Electric Guitar
148.0,1.2195121951219512,46,91,Electric Guitar
148.0,0.16260162601626016,58,98,Electric Guitar
148.0,0.24390243902439024,69,96,Electric Guitar
148.0,0.24390243902439024,62,96,Electric Guitar
148.0,0.3252032520325203,65,103,Electric Guitar
148.0,1.7073170731707317,58,127,Electric Guitar
148.0,1.7073170731707317,69,127,Electric Guitar
148.0,1.7073170731707317,46,127,Electric Guitar
148.0,1.7073170731707317,62,127,Electric Guitar
148.0,1.7073170731707317,65,127,Electric Guitar
148.0,0.12195121951219512,36,127,Electric Guitar
148.0,0.12195121951219512,49,127,Electric Guitar
148.0,0.0,42,106,Electric Guitar
148.0,0.0,70,106,Electric Guitar
148.0,0.0,36,110,Electric Guitar
148.0,0.0,42,110,Electric Guitar
148.0,0.36585365853658536,69,127,Electric Guitar
148.0,0.24390243902439024,57,127,Electric Guitar
148.0,1.7073170731707317,62,97,Electric Guitar
148.0,1.7073170731707317,65,97,Electric Guitar
148.0,1.7073170731707317,58,97,Electric Guitar
148.25,0.0,42,93,Electric Guitar
148.25,0.0,70,93,Electric Guitar
148.25,0.0,42,63,Electric Guitar
148.5,0.3252032520325203,58,73,Electric Guitar
148.5,0.0,46,124,Electric Guitar
148.5,0.0,70,124,Electric Guitar
148.5,0.0,42,93,Electric Guitar
148.75,0.0,70,60,Electric Guitar
148.75,0.0,36,85,Electric Guitar
148.75,0.0,42,85,Electric Guitar
149.0,0.6097560975609756,77,122,Electric Guitar
149.0,0.16260162601626016,62,86,Electric Guitar
149.0,0.12195121951219512,36,127,Electric Guitar
149.0,0.12195121951219512,38,127,Electric Guitar
149.0,0.0,42,102,Electric Guitar
149.0,0.0,70,102,Electric Guitar
149.0,0.0,42,106,Electric Guitar
149.0,0.0,40,106,Electric Guitar
149.25,0.0,42,99,Electric Guitar
149.25,0.0,70,99,Electric Guitar
149.25,0.0,42,53,Electric Guitar
149.5,0.8130081300813008,69,102,Electric Guitar
149.5,0.24390243902439024,81,127,Electric Guitar
149.5,0.12195121951219512,58,88,Electric Guitar
149.5,0.12195121951219512,69,88,Electric Guitar
149.5,0.16260162601626016,62,98,Electric Guitar
149.5,0.16260162601626016,65,98,Electric Guitar
149.5,0.0,46,127,Electric Guitar
149.5,0.0,70,127,Electric Guitar
149.5,0.0,36,102,Electric Guitar
149.5,0.0,42,102,Electric Guitar
149.75,0.0,70,82,Electric Guitar
149.75,0.0,36,84,Electric Guitar
149.75,0.0,42,84,Electric Guitar
150.0,0.3252032520325203,70,102,Electric Guitar
150.0,0.24390243902439024,86,127,Electric Guitar
150.0,0.12195121951219512,36,127,Electric Guitar
150.0,0.0,42,106,Electric Guitar
150.0,0.0,70,106,Electric Guitar
150.0,0.0,44,117,Electric Guitar
150.25,0.12195121951219512,46,127,Electric Guitar
150.25,0.0,42,93,Electric Guitar
150.25,0.0,70,93,Electric Guitar
150.25,0.0,42,63,Electric Guitar
150.5,0.12195121951219512,41,127,Electric Guitar
150.5,0.24390243902439024,74,96,Electric Guitar
150.5,0.16260162601626016,77,102,Electric Guitar
150.5,0.24390243902439024,84,127,Electric Guitar
150.5,0.0,46,124,Electric Guitar
150.5,0.0,70,124,Electric Guitar
150.5,0.0,36,100,Electric Guitar
150.5,0.0,42,100,Electric Guitar
150.75,0.6097560975609756,34,127,Electric Guitar
150.75,0.0,70,60,Electric Guitar
150.75,0.0,42,71,Electric Guitar
151.0,0.0,77,91,Electric Guitar
151.0,0.12195121951219512,79,110,Electric Guitar
151.0,0.24390243902439024,88,127,Electric Guitar
151.0,0.12195121951219512,36,127,Electric Guitar
151.0,0.12195121951219512,38,127,Electric Guitar
151.0,0.0,42,102,Electric Guitar
151.0,0.0,70,102,Electric Guitar
151.0,0.0,44,124,Electric Guitar
151.0,0.0,40,124,Electric Guitar
151.25,0.0,42,99,Electric Guitar
151.25,0.0,70,99,Electric Guitar
151.25,0.0,36,86,Electric Guitar
151.25,0.0,42,86,Electric Guitar
151.5,0.6097560975609756,67,102,Electric Guitar
151.5,0.6097560975609756,71,102,Electric Guitar
151.5,0.6097560975609756,72,102,Electric Guitar
151.5,0.6504065040650406,76,102,Electric Guitar
151.5,1.6260162601626016,57,96,Electric Guitar
151.5,0.16260162601626016,76,120,Electric Guitar
151.5,0.24390243902439024,86,127,Electric Guitar
151.5,0.36585365853658536,64,92,Electric Guitar
151.5,0.36585365853658536,60,92,Electric Guitar
151.5,0.36585365853658536,57,92,Electric Guitar
151.5,0.36585365853658536,67,92,Electric Guitar
151.5,1.1382113821138211,45,103,Electric Guitar
151.5,2.1951219512195124,45,127,Electric Guitar
151.5,2.1951219512195124,64,127,Electric Guitar
151.5,2.1951219512195124,60,127,Electric Guitar
151.5,2.1951219512195124,69,127,Electric Guitar
151.5,0.0,46,127,Electric Guitar
151.5,0.0,70,127,Electric Guitar
151.5,0.0,42,89,Electric Guitar
151.5,0.4878048780487805,69,127,Electric Guitar
151.5,0.4878048780487805,57,127,Electric Guitar
151.5,2.1951219512195124,64,88,Electric Guitar
151.5,2.1951219512195124,57,88,Electric Guitar
151.5,2.1951219512195124,60,88,Electric Guitar
151.75,0.0,70,82,Electric Guitar
151.75,0.0,36,84,Electric Guitar
151.75,0.0,42,84,Electric Guitar
152.0,0.7317073170731707,33,127,Electric Guitar
152.0,0.24390243902439024,75,112,Electric Guitar
152.0,0.24390243902439024,91,127,Electric Guitar
152.0,0.12195121951219512,36,127,Electric Guitar
152.0,0.0,42,106,Electric Guitar
152.0,0.0,70,106,Electric Guitar
152.0,0.0,36,110,Electric Guitar
152.0,0.0,42,110,Electric Guitar
152.25,0.0,42,93,Electric Guitar
152.25,0.0,70,93,Electric Guitar
152.25,0.0,42,63,Electric Guitar
152.5,0.7317073170731707,76,117,Electric Guitar
152.5,0.24390243902439024,90,127,Electric Guitar
152.5,0.36585365853658536,57,88,Electric Guitar
152.5,0.0,46,124,Electric Guitar
152.5,0.0,70,124,Electric Guitar
152.5,0.0,42,93,Electric Guitar
152.75,0.0,70,60,Electric Guitar
152.75,0.0,36,85,Electric Guitar
152.75,0.0,42,85,Electric Guitar
153.0,0.24390243902439024,93,127,Electric Guitar
153.0,0.16260162601626016,60,96,Electric Guitar
153.0,0.12195121951219512,36,127,Electric Guitar
153.0,0.12195121951219512,38,127,Electric Guitar
153.0,0.0,42,102,Electric Guitar
153.0,0.0,70,102,Electric Guitar
153.0,0.0,42,106,Electric Guitar
153.0,0.0,40,106,Electric Guitar
153.25,0.0,42,99,Electric Guitar
153.25,0.0,70,99,Electric Guitar
153.25,0.0,42,53,Electric Guitar
153.5,0.24390243902439024,83,100,Electric Guitar
153.5,0.7317073170731707,91,127,Electric Guitar
153.5,0.16260162601626016,64,102,Electric Guitar
153.5,0.12195121951219512,60,64,Electric Guitar
153.5,0.12195121951219512,57,64,Electric Guitar
153.5,0.0,46,127,Electric Guitar
153.5,0.0,70,127,Electric Guitar
153.5,0.0,36,102,Electric Guitar
153.5,0.0,42,102,Electric Guitar
153.75,0.0,70,82,Electric Guitar
153.75,0.0,36,84,Electric Guitar
153.75,0.0,42,84,Electric Guitar
154.0,0.12195121951219512,28,127,Electric Guitar
154.0,0.24390243902439024,79,100,Electric Guitar
154.0,0.12195121951219512,36,127,Electric Guitar
154.0,0.0,42,106,Electric Guitar
154.0,0.0,70,106,Electric Guitar
154.0,0.0,44,117,Electric Guitar
154.25,0.12195121951219512,32,127,Electric Guitar
154.25,0.0,42,93,Electric Guitar
154.25,0.0,70,93,Electric Guitar
154.25,0.12195121951219512,38,77,Electric Guitar
154.25,0.0,42,63,Electric Guitar
154.5,0.12195121951219512,33,127,Electric Guitar
154.5,0.0,81,110,Electric Guitar
154.5,0.12195121951219512,76,124,Electric Guitar
154.5,0.7317073170731707,64,106,Electric Guitar
154.5,0.7317073170731707,57,106,Electric Guitar
154.5,0.7317073170731707,45,106,Electric Guitar
154.5,0.7317073170731707,60,106,Electric Guitar
154.5,0.7317073170731707,67,106,Electric Guitar
154.5,0.0,46,124,Electric Guitar
154.5,0.0,70,124,Electric Guitar
154.5,0.0,36,100,Electric Guitar
154.5,0.0,42,100,Electric Guitar
154.75,0.24390243902439024,36,127,Electric Guitar
154.75,0.0,70,60,Electric Guitar
154.75,0.0,42,71,Electric Guitar
155.0,0.12195121951219512,76,124,Electric Guitar
155.0,0.24390243902439024,87,127,Electric Guitar
155.0,0.12195121951219512,36,127,Electric Guitar
155.0,0.12195121951219512,38,127,Electric Guitar
155.0,0.0,42,102,Electric Guitar
155.0,0.0,70,102,Electric Guitar
155.0,0.0,44,124,Electric Guitar
155.0,0.0,40,124,Electric Guitar
155.25,0.12195121951219512,33,127,Electric Guitar
155.25,0.0,42,99,Electric Guitar
155.25,0.0,70,99,Electric Guitar
155.25,0.0,36,86,Electric Guitar
155.25,0.0,42,86,Electric Guitar
155.5,0.24390243902439024,36,127,Electric Guitar
155.5,0.12195121951219512,76,112,Electric Guitar
155.5,0.975609756097561,86,127,Electric Guitar
155.5,0.0,46,127,Electric Guitar
155.5,0.0,70,127,Electric Guitar
155.5,0.0,42,89,Electric Guitar
155.75,0.0,70,82,Electric Guitar
155.75,0.0,36,84,Electric Guitar
155.75,0.0,42,84,Electric Guitar
156.0,0.12195121951219512,35,127,Electric Guitar
156.0,0.7317073170731707,69,104,Electric Guitar
156.0,0.7317073170731707,78,104,Electric Guitar
156.0,0.6504065040650406,59,103,Electric Guitar
156.0,0.6504065040650406,74,103,Electric Guitar
156.0,0.6504065040650406,71,103,Electric Guitar
156.0,0.16260162601626016,78,117,Electric Guitar
156.0,0.0,59,105,Electric Guitar
156.0,0.0,62,105,Electric Guitar
156.0,0.0,55,105,Electric Guitar
156.0,0.0,66,105,Electric Guitar
156.0,0.0,57,105,Electric Guitar
156.0,0.12195121951219512,47,114,Electric Guitar
156.0,1.951219512195122,59,127,Electric Guitar
156.0,1.951219512195122,62,127,Electric Guitar
156.0,1.951219512195122,47,127,Electric Guitar
156.0,1.951219512195122,69,127,Electric Guitar
156.0,1.951219512195122,66,127,Electric Guitar
156.0,0.12195121951219512,36,127,Electric Guitar
156.0,0.12195121951219512,57,127,Electric Guitar
156.0,0.0,42,106,Electric Guitar
156.0,0.0,70,106,Electric Guitar
156.0,0.0,36,110,Electric Guitar
156.0,0.0,42,110,Electric Guitar
156.0,0.24390243902439024,69,127,Electric Guitar
156.0,0.24390243902439024,57,127,Electric Guitar
156.0,0.0,59,114,Electric Guitar
156.0,0.0,66,114,Electric Guitar
156.0,0.0,63,114,Electric Guitar
156.25,0.0,42,93,Electric Guitar
156.25,0.0,70,93,Electric Guitar
156.25,0.0,42,63,Electric Guitar
156.25,0.0,63,82,Electric Guitar
156.25,0.0,66,82,Electric Guitar
156.25,0.0,59,82,Electric Guitar
156.5,0.16260162601626016,78,113,Electric Guitar
156.5,0.0,46,124,Electric Guitar
156.5,0.0,70,124,Electric Guitar
156.5,0.0,42,93,Electric Guitar
156.5,0.0,63,72,Electric Guitar
156.5,0.0,66,72,Electric Guitar
156.5,0.0,59,72,Electric Guitar
156.75,0.0,70,60,Electric Guitar
156.75,0.0,36,85,Electric Guitar
156.75,0.0,42,85,Electric Guitar
156.75,0.0,63,75,Electric Guitar
156.75,0.0,66,75,Electric Guitar
156.75,0.0,59,75,Electric Guitar
157.0,0.16260162601626016,35,127,Electric Guitar
157.0,0.12195121951219512,78,113,Electric Guitar
157.0,0.3252032520325203,66,103,Electric Guitar
157.0,0.3252032520325203,59,103,Electric Guitar
157.0,0.3252032520325203,62,103,Electric Guitar
157.0,0.3252032520325203,57,103,Electric Guitar
157.0,0.3252032520325203,47,103,Electric Guitar
157.0,0.12195121951219512,36,127,Electric Guitar
157.0,0.12195121951219512,38,127,Electric Guitar
157.0,0.0,42,102,Electric Guitar
157.0,0.0,70,102,Electric Guitar
157.0,0.0,42,106,Electric Guitar
157.0,0.0,40,106,Electric Guitar
157.0,0.0,63,118,Electric Guitar
157.0,0.0,66,118,Electric Guitar
157.0,0.0,59,118,Electric Guitar
157.25,0.12195121951219512,30,127,Electric Guitar
157.25,0.0,42,99,Electric Guitar
157.25,0.0,70,99,Electric Guitar
157.25,0.0,42,53,Electric Guitar
157.25,0.0,66,82,Electric Guitar
157.25,0.0,63,82,Electric Guitar
157.25,0.0,59,82,Electric Guitar
157.5,0.12195121951219512,33,127,Electric Guitar
157.5,0.16260162601626016,78,108,Electric Guitar
157.5,0.7317073170731707,84,127,Electric Guitar
157.5,0.0,46,127,Electric Guitar
157.5,0.0,70,127,Electric Guitar
157.5,0.0,36,102,Electric Guitar
157.5,0.0,42,102,Electric Guitar
157.5,0.0,66,89,Electric Guitar
157.5,0.0,63,89,Electric Guitar
157.5,0.0,59,89,Electric Guitar
157.75,0.36585365853658536,35,127,Electric Guitar
157.75,0.0,57,102,Electric Guitar
157.75,0.0,59,102,Electric Guitar
157.75,0.0,62,102,Electric Guitar
157.75,0.0,66,102,Electric Guitar
157.75,0.12195121951219512,47,110,Electric Guitar
157.75,0.0,70,82,Electric Guitar
157.75,0.0,36,84,Electric Guitar
157.75,0.0,42,84,Electric Guitar
157.75,0.0,63,64,Electric Guitar
157.75,0.0,66,64,Electric Guitar
158.0,0.16260162601626016,80,110,Electric Guitar
158.0,0.12195121951219512,36,127,Electric Guitar
158.0,0.0,42,106,Electric Guitar
158.0,0.0,70,106,Electric Guitar
158.0,0.0,44,117,Electric Guitar
158.0,0.0,66,113,Electric Guitar
158.0,0.0,63,113,Electric Guitar
158.0,0.0,59,113,Electric Guitar
158.25,0.0,42,93,Electric Guitar
158.25,0.0,70,93,Electric Guitar
158.25,0.0,42,63,Electric Guitar
158.25,0.0,66,80,Electric Guitar
158.25,0.0,63,80,Electric Guitar
158.25,0.0,59,80,Electric Guitar
158.5,0.16260162601626016,38,127,Electric Guitar
158.5,0.36585365853658536,81,110,Electric Guitar
158.5,0.36585365853658536,62,102,Electric Guitar
158.5,0.36585365853658536,66,102,Electric Guitar
158.5,0.3252032520325203,57,112,Electric Guitar
158.5,0.3252032520325203,59,112,Electric Guitar
158.5,0.24390243902439024,47,110,Electric Guitar
158.5,0.0,46,124,Electric Guitar
158.5,0.0,70,124,Electric Guitar
158.5,0.0,36,100,Electric Guitar
158.5,0.0,42,100,Electric Guitar
158.5,0.0,66,70,Electric Guitar
158.5,0.0,63,70,Electric Guitar
158.5,0.0,59,70,Electric Guitar
158.75,0.0,70,60,Electric Guitar
158.75,0.0,42,71,Electric Guitar
158.75,0.0,63,79,Electric Guitar
158.75,0.0,66,79,Electric Guitar
158.75,0.0,59,79,Electric Guitar
159.0,0.12195121951219512,42,127,Electric Guitar
159.0,0.24390243902439024,81,127,Electric Guitar
159.0,0.12195121951219512,36,127,Electric Guitar
159.0,0.12195121951219512,38,127,Electric Guitar
159.0,0.0,42,102,Electric Guitar
159.0,0.0,70,102,Electric Guitar
159.0,0.0,44,124,Electric Guitar
159.0,0.0,40,124,Electric Guitar
159.0,0.0,66,114,Electric Guitar
159.0,0.0,63,114,Electric Guitar
159.0,0.0,59,114,Electric Guitar
159.25,0.12195121951219512,38,127,Electric Guitar
159.25,0.0,42,99,Electric Guitar
159.25,0.0,70,99,Electric Guitar
159.25,0.0,36,86,Electric Guitar
159.25,0.0,42,86,Electric Guitar
159.25,0.0,66,88,Electric Guitar
159.25,0.0,63,88,Electric Guitar
159.25,0.0,59,88,Electric Guitar
159.5,0.24390243902439024,39,127,Electric Guitar
159.5,0.16260162601626016,81,108,Electric Guitar
159.5,1.6260162601626016,88,127,Electric Guitar
159.5,0.0,66,87,Electric Guitar
159.5,0.0,57,87,Electric Guitar
159.5,0.0,59,87,Electric Guitar
159.5,0.0,62,87,Electric Guitar
159.5,0.12195121951219512,47,103,Electric Guitar
159.5,0.0,46,127,Electric Guitar
159.5,0.0,70,127,Electric Guitar
159.5,0.0,42,89,Electric Guitar
159.5,0.0,63,87,Electric Guitar
159.5,0.0,66,87,Electric Guitar
159.5,0.0,59,87,Electric Guitar
159.75,0.0,70,82,Electric Guitar
159.75,0.0,36,84,Electric Guitar
159.75,0.0,42,84,Electric Guitar
159.75,0.0,66,85,Electric Guitar
159.75,0.0,63,85,Electric Guitar
159.75,0.0,59,85,Electric Guitar
160.0,0.0,69,88,Electric Guitar
160.0,0.0,69,88,Electric Guitar
160.0,0.12195121951219512,40,127,Electric Guitar
160.0,0.4878048780487805,68,98,Electric Guitar
160.0,0.4878048780487805,74,102,Electric Guitar
160.0,0.4878048780487805,76,102,Electric Guitar
160.0,0.36585365853658536,52,103,Electric Guitar
160.0,1.3414634146341462,80,117,Electric Guitar
160.0,0.12195121951219512,62,106,Electric Guitar
160.0,0.12195121951219512,64,106,Electric Guitar
160.0,0.12195121951219512,59,106,Electric Guitar
160.0,0.12195121951219512,40,106,Electric Guitar
160.0,0.16260162601626016,68,87,Electric Guitar
160.0,1.951219512195122,62,127,Electric Guitar
160.0,1.951219512195122,64,127,Electric Guitar
160.0,1.951219512195122,68,127,Electric Guitar
160.0,1.951219512195122,40,127,Electric Guitar
160.0,1.951219512195122,71,127,Electric Guitar
160.0,0.12195121951219512,36,127,Electric Guitar
160.0,0.0,42,106,Electric Guitar
160.0,0.0,70,106,Electric Guitar
160.0,0.0,36,110,Electric Guitar
160.0,0.0,42,110,Electric Guitar
160.0,0.24390243902439024,71,127,Electric Guitar
160.0,0.24390243902439024,59,127,Electric Guitar
160.0,0.0,56,116,Electric Guitar
160.0,0.0,59,116,Electric Guitar
160.0,0.0,64,116,Electric Guitar
160.25,0.0,69,66,Electric Guitar
160.25,0.0,42,93,Electric Guitar
160.25,0.0,70,93,Electric Guitar
160.25,0.0,42,63,Electric Guitar
160.25,0.0,56,64,Electric Guitar
160.25,0.0,59,64,Electric Guitar
160.25,0.0,64,64,Electric Guitar
160.33333333333334,0.0,69,66,Electric Guitar
160.5,0.0,69,60,Electric Guitar
160.5,0.0,46,124,Electric Guitar
160.5,0.0,70,124,Electric Guitar
160.5,0.0,42,93,Electric Guitar
160.5,0.0,56,76,Electric Guitar
160.5,0.0,59,76,Electric Guitar
160.5,0.0,64,76,Electric Guitar
160.66666666666666,0.0,69,60,Electric Guitar
160.75,0.0,69,56,Electric Guitar
160.75,0.0,69,56,Electric Guitar
160.75,0.0,70,60,Electric Guitar
160.75,0.0,36,85,Electric Guitar
160.75,0.0,42,85,Electric Guitar
160.75,0.0,59,65,Electric Guitar
160.75,0.0,56,65,Electric Guitar
160.75,0.0,64,65,Electric Guitar
161.0,0.0,69,67,Electric Guitar
161.0,0.0,69,67,Electric Guitar
161.0,0.12195121951219512,40,127,Electric Guitar
161.0,0.3252032520325203,64,105,Electric Guitar
161.0,0.3252032520325203,62,105,Electric Guitar
161.0,0.3252032520325203,40,105,Electric Guitar
161.0,0.24390243902439024,68,102,Electric Guitar
161.0,0.24390243902439024,59,102,Electric Guitar
161.0,0.12195121951219512,36,127,Electric Guitar
161.0,0.12195121951219512,38,127,Electric Guitar
161.0,0.0,42,102,Electric Guitar
161.0,0.0,70,102,Electric Guitar
161.0,0.0,42,106,Electric Guitar
161.0,0.0,40,106,Electric Guitar
161.0,0.0,56,104,Electric Guitar
161.0,0.0,59,104,Electric Guitar
161.0,0.0,64,104,Electric Guitar
161.25,0.0,69,59,Electric Guitar
161.25,0.12195121951219512,35,127,Electric Guitar
161.25,0.0,42,99,Electric Guitar
161.25,0.0,70,99,Electric Guitar
161.25,0.0,42,53,Electric Guitar
161.25,0.0,64,72,Electric Guitar
161.25,0.0,56,72,Electric Guitar
161.25,0.0,59,72,Electric Guitar
161.33333333333334,0.0,69,59,Electric Guitar
161.5,0.0,69,63,Electric Guitar
161.5,0.12195121951219512,38,127,Electric Guitar
161.5,0.0,46,127,Electric Guitar
161.5,0.0,70,127,Electric Guitar
161.5,0.0,36,102,Electric Guitar
161.5,0.0,42,102,Electric Guitar
161.5,0.0,59,71,Electric Guitar
161.5,0.0,64,71,Electric Guitar
161.5,0.0,56,71,Electric Guitar
161.66666666666666,0.0,69,63,Electric Guitar
161.75,0.0,69,66,Electric Guitar
161.75,0.0,69,66,Electric Guitar
161.75,0.36585365853658536,40,127,Electric Guitar
161.75,0.0,59,104,Electric Guitar
161.75,0.0,64,104,Electric Guitar
161.75,0.0,68,104,Electric Guitar
161.75,0.0,62,104,Electric Guitar
161.75,0.12195121951219512,40,98,Electric Guitar
161.75,0.0,70,82,Electric Guitar
161.75,0.0,36,84,Electric Guitar
161.75,0.0,42,84,Electric Guitar
161.75,0.0,64,62,Electric Guitar
161.75,0.0,59,62,Electric Guitar
161.75,0.0,56,62,Electric Guitar
162.0,0.0,69,66,Electric Guitar
162.0,0.0,69,66,Electric Guitar
162.0,0.12195121951219512,36,127,Electric Guitar
162.0,0.0,42,106,Electric Guitar
162.0,0.0,70,106,Electric Guitar
162.0,0.0,44,117,Electric Guitar
162.0,0.0,56,115,Electric Guitar
162.0,0.0,64,115,Electric Guitar
162.0,0.0,59,115,Electric Guitar
162.25,0.0,69,64,Electric Guitar
162.25,0.0,42,93,Electric Guitar
162.25,0.0,70,93,Electric Guitar
162.25,0.12195121951219512,38,77,Electric Guitar
162.25,0.0,42,63,Electric Guitar
162.25,0.0,64,86,Electric Guitar
162.25,0.0,56,86,Electric Guitar
162.25,0.0,59,86,Electric Guitar
162.33333333333334,0.0,69,64,Electric Guitar
162.5,0.0,69,62,Electric Guitar
162.5,0.24390243902439024,35,127,Electric Guitar
162.5,0.36585365853658536,64,104,Electric Guitar
162.5,0.36585365853658536,68,104,Electric Guitar
162.5,0.36585365853658536,62,104,Electric Guitar
162.5,0.3252032520325203,59,110,Electric Guitar
162.5,0.3252032520325203,40,110,Electric Guitar
162.5,0.0,46,124,Electric Guitar
162.5,0.0,70,124,Electric Guitar
162.5,0.0,36,100,Electric Guitar
162.5,0.0,42,100,Electric Guitar
162.5,0.12195121951219512,64,127,Electric Guitar
162.5,0.16260162601626016,76,127,Electric Guitar
162.5,0.0,64,67,Electric Guitar
162.5,0.0,59,67,Electric Guitar
162.5,0.0,56,67,Electric Guitar
162.66666666666666,0.0,69,62,Electric Guitar
162.75,0.0,69,62,Electric Guitar
162.75,0.0,69,62,Electric Guitar
162.75,0.0,70,60,Electric Guitar
162.75,0.0,42,71,Electric Guitar
162.75,0.0,56,74,Electric Guitar
162.75,0.0,64,74,Electric Guitar
162.75,0.0,59,74,Electric Guitar
163.0,0.0,69,66,Electric Guitar
163.0,0.0,69,66,Electric Guitar
163.0,0.24390243902439024,38,127,Electric Guitar
163.0,0.12195121951219512,86,127,Electric Guitar
163.0,0.12195121951219512,36,127,Electric Guitar
163.0,0.12195121951219512,38,127,Electric Guitar
163.0,0.0,42,102,Electric Guitar
163.0,0.0,70,102,Electric Guitar
163.0,0.0,44,124,Electric Guitar
163.0,0.0,40,124,Electric Guitar
163.0,0.16260162601626016,62,127,Electric Guitar
163.0,0.16260162601626016,74,127,Electric Guitar
163.0,0.0,56,109,Electric Guitar
163.0,0.0,64,109,Electric Guitar
163.0,0.0,59,109,Electric Guitar
163.25,0.0,69,62,Electric Guitar
163.25,0.0,84,127,Electric Guitar
163.25,0.0,83,127,Electric Guitar
163.25,0.0,42,99,Electric Guitar
163.25,0.0,70,99,Electric Guitar
163.25,0.0,36,86,Electric Guitar
163.25,0.0,42,86,Electric Guitar
163.25,0.16260162601626016,75,127,Electric Guitar
163.25,0.16260162601626016,63,127,Electric Guitar
163.25,0.0,64,84,Electric Guitar
163.25,0.0,56,84,Electric Guitar
163.25,0.0,59,84,Electric Guitar
163.33333333333334,0.0,69,62,Electric Guitar
163.33333333333334,0.12195121951219512,81,127,Electric Guitar
163.33333333333334,0.12195121951219512,79,127,Electric Guitar
163.5,0.0,69,54,Electric Guitar
163.5,0.24390243902439024,40,127,Electric Guitar
163.5,0.0,77,127,Electric Guitar
163.5,0.12195121951219512,76,127,Electric Guitar
163.5,0.0,62,86,Electric Guitar
163.5,0.0,59,86,Electric Guitar
163.5,0.0,64,86,Electric Guitar
163.5,0.0,68,86,Electric Guitar
163.5,0.0,40,86,Electric Guitar
163.5,0.0,46,127,Electric Guitar
163.5,0.0,70,127,Electric Guitar
163.5,0.0,42,89,Electric Guitar
163.5,0.0,56,77,Electric Guitar
163.5,0.0,64,77,Electric Guitar
163.5,0.0,59,77,Electric Guitar
163.66666666666666,0.0,69,54,Electric Guitar
163.66666666666666,0.12195121951219512,74,127,Electric Guitar
163.75,0.0,69,54,Electric Guitar
163.75,0.0,69,54,Electric Guitar
163.75,0.0,72,127,Electric Guitar
163.75,0.0,71,127,Electric Guitar
163.75,0.12195121951219512,38,77,Electric Guitar
163.75,0.0,70,82,Electric Guitar
163.75,0.0,36,84,Electric Guitar
163.75,0.0,42,84,Electric Guitar
163.75,0.0,64,89,Electric Guitar
163.75,0.0,56,89,Electric Guitar
163.75,0.0,59,89,Electric Guitar
164.0,0.0,57,88,Electric Guitar
164.0,0.0,57,88,Electric Guitar
164.0,0.16260162601626016,28,127,Electric Guitar
164.0,0.12195121951219512,69,127,Electric Guitar
164.0,0.12195121951219512,67,127,Electric Guitar
164.0,0.12195121951219512,65,127,Electric Guitar
164.0,0.12195121951219512,64,127,Electric Guitar
164.0,0.12195121951219512,59,112,Electric Guitar
164.0,0.12195121951219512,64,112,Electric Guitar
164.0,0.12195121951219512,62,112,Electric Guitar
164.0,0.12195121951219512,40,112,Electric Guitar
164.0,0.16260162601626016,68,107,Electric Guitar
164.0,0.12195121951219512,36,127,Electric Guitar
164.0,0.12195121951219512,49,127,Electric Guitar
164.0,0.0,42,106,Electric Guitar
164.0,0.0,70,106,Electric Guitar
164.0,0.0,36,110,Electric Guitar
164.0,0.0,42,110,Electric Guitar
164.0,0.16260162601626016,64,127,Electric Guitar
164.0,0.16260162601626016,76,127,Electric Guitar
164.0,0.0,64,121,Electric Guitar
164.0,0.0,56,121,Electric Guitar
164.0,0.0,59,121,Electric Guitar
164.25,0.0,57,66,Electric Guitar
164.25,0.0,62,127,Electric Guitar
164.25,0.0,42,93,Electric Guitar
164.25,0.0,70,93,Electric Guitar
164.25,0.0,42,63,Electric Guitar
164.33333333333334,0.0,57,66,Electric Guitar
164.33333333333334,0.0,60,127,Electric Guitar
164.33333333333334,0.0,59,127,Electric Guitar
164.5,0.0,57,60,Electric Guitar
164.5,0.12195121951219512,57,127,Electric Guitar
164.5,0.16260162601626016,55,127,Electric Guitar
164.5,0.0,46,124,Electric Guitar
164.5,0.0,70,124,Electric Guitar
164.5,0.0,42,93,Electric Guitar
164.66666666666666,0.0,57,60,Electric Guitar
164.75,0.0,57,56,Electric Guitar
164.75,0.0,57,56,Electric Guitar
164.75,0.0,70,60,Electric Guitar
164.75,0.0,36,85,Electric Guitar
164.75,0.0,42,85,Electric Guitar
165.0,0.0,57,67,Electric Guitar
165.0,0.0,57,67,Electric Guitar
165.0,0.0,57,127,Electric Guitar
165.0,0.0,59,127,Electric Guitar
165.0,0.0,60,127,Electric Guitar
165.0,0.12195121951219512,36,127,Electric Guitar
165.0,0.12195121951219512,38,127,Electric Guitar
165.0,0.0,42,102,Electric Guitar
165.0,0.0,70,102,Electric Guitar
165.0,0.0,42,106,Electric Guitar
165.0,0.0,40,106,Electric Guitar
165.25,0.0,57,59,Electric Guitar
165.25,0.0,62,127,Electric Guitar
165.25,0.0,64,127,Electric Guitar
165.25,0.0,42,99,Electric Guitar
165.25,0.0,70,99,Electric Guitar
165.25,0.0,42,53,Electric Guitar
165.33333333333334,0.0,57,59,Electric Guitar
165.33333333333334,0.0,65,127,Electric Guitar
165.33333333333334,0.0,67,127,Electric Guitar
165.5,0.0,57,63,Electric Guitar
165.5,0.0,69,127,Electric Guitar
165.5,0.0,71,127,Electric Guitar
165.5,0.0,46,127,Electric Guitar
165.5,0.0,70,127,Electric Guitar
165.5,0.0,36,102,Electric Guitar
165.5,0.0,42,102,Electric Guitar
165.66666666666666,0.0,57,63,Electric Guitar
165.66666666666666,0.0,72,127,Electric Guitar
165.75,0.0,57,66,Electric Guitar
165.75,0.0,57,66,Electric Guitar
165.75,0.12195121951219512,74,127,Electric Guitar
165.75,0.0,70,82,Electric Guitar
165.75,0.0,36,84,Electric Guitar
165.75,0.0,42,84,Electric Guitar
166.0,0.0,57,66,Electric Guitar
166.0,0.0,57,66,Electric Guitar
166.0,0.36585365853658536,76,122,Electric Guitar
166.0,0.0,76,127,Electric Guitar
166.0,0.0,77,127,Electric Guitar
166.0,0.12195121951219512,36,127,Electric Guitar
166.0,0.0,42,106,Electric Guitar
166.0,0.0,70,106,Electric Guitar
166.0,0.0,44,117,Electric Guitar
166.25,0.0,57,64,Electric Guitar
166.25,0.0,79,127,Electric Guitar
166.25,0.0,81,127,Electric Guitar
166.25,0.0,42,93,Electric Guitar
166.25,0.0,70,93,Electric Guitar
166.25,0.0,42,63,Electric Guitar
166.33333333333334,0.0,57,64,Electric Guitar
166.33333333333334,0.0,83,127,Electric Guitar
166.5,0.0,57,62,Electric Guitar
166.5,0.0,84,127,Electric Guitar
166.5,0.0,46,124,Electric Guitar
166.5,0.0,70,124,Electric Guitar
166.5,0.0,36,100,Electric Guitar
166.5,0.0,42,100,Electric Guitar
166.66666666666666,0.0,57,62,Electric Guitar
166.66666666666666,0.0,86,127,Electric Guitar
166.75,0.0,57,62,Electric Guitar
166.75,0.0,57,62,Electric Guitar
166.75,0.0,88,127,Electric Guitar
166.75,0.0,70,60,Electric Guitar
166.75,0.0,42,71,Electric Guitar
167.0,0.0,57,66,Electric Guitar
167.0,0.0,57,66,Electric Guitar
167.0,0.36585365853658536,80,122,Electric Guitar
167.0,0.0,89,127,Electric Guitar
167.0,0.0,91,127,Electric Guitar
167.0,0.12195121951219512,36,127,Electric Guitar
167.0,0.12195121951219512,38,127,Electric Guitar
167.0,0.0,42,102,Electric Guitar
167.0,0.0,70,102,Electric Guitar
167.0,0.0,44,124,Electric Guitar
167.0,0.0,40,124,Electric Guitar
167.0,0.12195121951219512,76,127,Electric Guitar
167.0,0.12195121951219512,77,127,Electric Guitar
167.0,0.12195121951219512,64,127,Electric Guitar
167.0,0.12195121951219512,65,127,Electric Guitar
167.25,0.0,57,62,Electric Guitar
167.25,0.0,93,127,Electric Guitar
167.25,0.0,42,99,Electric Guitar
167.25,0.0,70,99,Electric Guitar
167.25,0.0,36,86,Electric Guitar
167.25,0.0,42,86,Electric Guitar
167.25,0.12195121951219512,79,127,Electric Guitar
167.25,0.12195121951219512,67,127,Electric Guitar
167.33333333333334,0.0,57,62,Electric Guitar
167.33333333333334,0.0,95,127,Electric Guitar
167.33333333333334,0.12195121951219512,81,127,Electric Guitar
167.33333333333334,0.12195121951219512,69,127,Electric Guitar
167.5,0.0,57,54,Electric Guitar
167.5,0.0,96,127,Electric Guitar
167.5,0.0,46,127,Electric Guitar
167.5,0.0,70,127,Electric Guitar
167.5,0.0,42,89,Electric Guitar
167.5,0.12195121951219512,83,127,Electric Guitar
167.5,0.12195121951219512,71,127,Electric Guitar
167.66666666666666,0.0,57,54,Electric Guitar
167.66666666666666,0.0,98,127,Electric Guitar
167.66666666666666,0.12195121951219512,84,127,Electric Guitar
167.66666666666666,0.12195121951219512,72,127,Electric Guitar
167.75,0.0,57,54,Electric Guitar
167.75,0.0,57,54,Electric Guitar
167.75,0.0,70,82,Electric Guitar
167.75,0.0,36,84,Electric Guitar
167.75,0.0,42,84,Electric Guitar
167.75,0.12195121951219512,86,127,Electric Guitar
167.75,0.12195121951219512,74,127,Electric Guitar
168.0,0.16260162601626016,29,127,Electric Guitar
168.0,0.4878048780487805,53,110,Electric Guitar
168.0,0.4878048780487805,76,110,Electric Guitar
168.0,0.4878048780487805,72,110,Electric Guitar
168.0,0.4878048780487805,69,110,Electric Guitar
168.0,0.4878048780487805,65,110,Electric Guitar
168.0,0.16260162601626016,81,122,Electric Guitar
168.0,0.0,57,127,Electric Guitar
168.0,0.0,60,127,Electric Guitar
168.0,0.0,53,127,Electric Guitar
168.0,0.0,64,127,Electric Guitar
168.0,0.12195121951219512,41,127,Electric Guitar
168.0,0.12195121951219512,36,127,Electric Guitar
168.0,0.12195121951219512,57,127,Electric Guitar
168.0,0.0,42,99,Electric Guitar
168.0,0.0,54,99,Electric Guitar
168.0,0.0,70,99,Electric Guitar
168.0,0.0,36,110,Electric Guitar
168.0,0.0,42,110,Electric Guitar
168.0,1.5853658536585367,88,127,Electric Guitar
168.0,0.975609756097561,57,127,Electric Guitar
168.0,1.4634146341463414,76,127,Electric Guitar
168.0,0.975609756097561,45,127,Electric Guitar
168.0,0.16260162601626016,81,107,Electric Guitar
168.0,0.16260162601626016,69,107,Electric Guitar
168.0,0.0,57,115,Electric Guitar
168.0,0.0,65,115,Electric Guitar
168.0,0.0,60,115,Electric Guitar
168.25,0.0,42,82,Electric Guitar
168.25,0.0,54,82,Electric Guitar
168.25,0.0,70,82,Electric Guitar
168.25,0.0,42,63,Electric Guitar
168.25,0.0,60,88,Electric Guitar
168.25,0.0,57,88,Electric Guitar
168.25,0.0,65,88,Electric Guitar
168.5,0.24390243902439024,41,127,Electric Guitar
168.5,0.12195121951219512,81,120,Electric Guitar
168.5,0.0,46,124,Electric Guitar
168.5,0.0,54,124,Electric Guitar
168.5,0.0,70,124,Electric Guitar
168.5,0.0,42,93,Electric Guitar
168.5,0.0,60,88,Electric Guitar
168.5,0.0,57,88,Electric Guitar
168.5,0.0,65,88,Electric Guitar
168.75,0.0,54,60,Electric Guitar
168.75,0.0,70,60,Electric Guitar
168.75,0.0,36,85,Electric Guitar
168.75,0.0,42,85,Electric Guitar
168.75,0.0,60,80,Electric Guitar
168.75,0.0,57,80,Electric Guitar
168.75,0.0,65,80,Electric Guitar
169.0,0.12195121951219512,36,127,Electric Guitar
169.0,0.0,81,96,Electric Guitar
169.0,0.3252032520325203,41,127,Electric Guitar
169.0,0.3252032520325203,64,127,Electric Guitar
169.0,0.24390243902439024,60,127,Electric Guitar
169.0,0.24390243902439024,57,127,Electric Guitar
169.0,0.24390243902439024,53,127,Electric Guitar
169.0,0.12195121951219512,36,127,Electric Guitar
169.0,0.12195121951219512,38,127,Electric Guitar
169.0,0.0,42,94,Electric Guitar
169.0,0.0,54,94,Electric Guitar
169.0,0.0,70,94,Electric Guitar
169.0,0.0,42,106,Electric Guitar
169.0,0.0,40,106,Electric Guitar
169.0,0.0,65,116,Electric Guitar
169.0,0.0,57,116,Electric Guitar
169.0,0.0,60,116,Electric Guitar
169.25,0.12195121951219512,38,127,Electric Guitar
169.25,0.16260162601626016,81,106,Electric Guitar
169.25,0.0,42,90,Electric Guitar
169.25,0.0,54,90,Electric Guitar
169.25,0.0,70,90,Electric Guitar
169.25,0.0,42,53,Electric Guitar
169.25,0.0,60,89,Electric Guitar
169.25,0.0,57,89,Electric Guitar
169.25,0.0,65,89,Electric Guitar
169.5,0.12195121951219512,39,127,Electric Guitar
169.5,0.0,46,127,Electric Guitar
169.5,0.0,54,127,Electric Guitar
169.5,0.0,70,127,Electric Guitar
169.5,0.0,36,102,Electric Guitar
169.5,0.0,42,102,Electric Guitar
169.5,0.0,65,90,Electric Guitar
169.5,0.0,60,90,Electric Guitar
169.5,0.0,57,90,Electric Guitar
169.75,0.36585365853658536,40,127,Electric Guitar
169.75,0.6097560975609756,64,105,Electric Guitar
169.75,0.6097560975609756,71,105,Electric Guitar
169.75,0.8536585365853658,52,107,Electric Guitar
169.75,0.6504065040650406,68,84,Electric Guitar
169.75,0.7317073170731707,74,102,Electric Guitar
169.75,0.8536585365853658,80,108,Electric Guitar
169.75,0.0,40,127,Electric Guitar
169.75,0.0,64,127,Electric Guitar
169.75,0.0,56,127,Electric Guitar
169.75,0.0,52,127,Electric Guitar
169.75,0.0,59,127,Electric Guitar
169.75,0.0,54,82,Electric Guitar
169.75,0.0,70,82,Electric Guitar
169.75,0.0,36,84,Electric Guitar
169.75,0.0,42,84,Electric Guitar
169.75,0.0,65,87,Electric Guitar
169.75,0.0,60,87,Electric Guitar
169.75,0.0,57,87,Electric Guitar
170.0,0.12195121951219512,36,127,Electric Guitar
170.0,0.0,42,99,Electric Guitar
170.0,0.0,54,99,Electric Guitar
170.0,0.0,70,99,Electric Guitar
170.0,0.0,44,117,Electric Guitar
170.0,0.12195121951219512,62,127,Electric Guitar
170.0,0.12195121951219512,50,127,Electric Guitar
170.0,0.0,59,117,Electric Guitar
170.0,0.0,56,117,Electric Guitar
170.0,0.0,64,117,Electric Guitar
170.25,0.0,42,82,Electric Guitar
170.25,0.0,54,82,Electric Guitar
170.25,0.0,70,82,Electric Guitar
170.25,0.12195121951219512,38,77,Electric Guitar
170.25,0.0,42,63,Electric Guitar
170.25,0.12195121951219512,63,127,Electric Guitar
170.25,0.12195121951219512,51,127,Electric Guitar
170.25,0.0,64,99,Electric Guitar
170.25,0.0,56,99,Electric Guitar
170.25,0.0,59,99,Electric Guitar
170.5,0.24390243902439024,28,127,Electric Guitar
170.5,0.36585365853658536,56,127,Electric Guitar
170.5,0.36585365853658536,52,127,Electric Guitar
170.5,0.36585365853658536,64,127,Electric Guitar
170.5,0.36585365853658536,40,127,Electric Guitar
170.5,0.36585365853658536,59,127,Electric Guitar
170.5,0.0,46,124,Electric Guitar
170.5,0.0,54,124,Electric Guitar
170.5,0.0,70,124,Electric Guitar
170.5,0.0,36,100,Electric Guitar
170.5,0.0,42,100,Electric Guitar
170.5,0.12195121951219512,64,127,Electric Guitar
170.5,0.12195121951219512,52,127,Electric Guitar
170.5,0.16260162601626016,81,107,Electric Guitar
170.5,0.16260162601626016,69,107,Electric Guitar
170.5,0.0,59,78,Electric Guitar
170.5,0.0,64,78,Electric Guitar
170.5,0.0,56,78,Electric Guitar
170.75,0.0,54,60,Electric Guitar
170.75,0.0,70,60,Electric Guitar
170.75,0.0,42,71,Electric Guitar
170.75,0.24390243902439024,67,127,Electric Guitar
170.75,0.24390243902439024,55,127,Electric Guitar
170.75,0.0,56,80,Electric Guitar
170.75,0.0,59,80,Electric Guitar
170.75,0.0,64,80,Electric Guitar
171.0,0.12195121951219512,35,127,Electric Guitar
171.0,0.12195121951219512,36,127,Electric Guitar
171.0,0.12195121951219512,38,127,Electric Guitar
171.0,0.0,42,94,Electric Guitar
171.0,0.0,54,94,Electric Guitar
171.0,0.0,70,94,Electric Guitar
171.0,0.0,44,124,Electric Guitar
171.0,0.0,40,124,Electric Guitar
171.0,0.4878048780487805,92,127,Electric Guitar
171.0,0.4878048780487805,80,127,Electric Guitar
171.0,0.0,56,115,Electric Guitar
171.0,0.0,64,115,Electric Guitar
171.0,0.0,59,115,Electric Guitar
171.25,0.12195121951219512,38,127,Electric Guitar
171.25,0.0,42,90,Electric Guitar
171.25,0.0,54,90,Electric Guitar
171.25,0.0,70,90,Electric Guitar
171.25,0.0,36,86,Electric Guitar
171.25,0.0,42,86,Electric Guitar
171.25,0.12195121951219512,64,127,Electric Guitar
171.25,0.12195121951219512,52,127,Electric Guitar
171.25,0.16260162601626016,80,107,Electric Guitar
171.25,0.16260162601626016,68,107,Electric Guitar
171.25,0.0,56,90,Electric Guitar
171.25,0.0,59,90,Electric Guitar
171.25,0.0,64,90,Electric Guitar
171.5,0.24390243902439024,40,127,Electric Guitar
171.5,0.16260162601626016,76,108,Electric Guitar
171.5,0.0,52,127,Electric Guitar
171.5,0.0,56,127,Electric Guitar
171.5,0.0,64,127,Electric Guitar
171.5,0.0,40,127,Electric Guitar
171.5,0.0,59,127,Electric Guitar
171.5,0.0,46,127,Electric Guitar
171.5,0.0,54,127,Electric Guitar
171.5,0.0,70,127,Electric Guitar
171.5,0.0,42,89,Electric Guitar
171.5,0.24390243902439024,67,127,Electric Guitar
171.5,0.24390243902439024,55,127,Electric Guitar
171.5,0.0,64,87,Electric Guitar
171.5,0.0,59,87,Electric Guitar
171.5,0.0,56,87,Electric Guitar
171.75,0.12195121951219512,38,77,Electric Guitar
171.75,0.0,54,82,Electric Guitar
171.75,0.0,70,82,Electric Guitar
171.75,0.0,36,84,Electric Guitar
171.75,0.0,42,84,Electric Guitar
171.75,0.0,64,92,Electric Guitar
171.75,0.0,59,92,Electric Guitar
171.75,0.0,56,92,Electric Guitar
172.0,0.24390243902439024,33,127,Electric Guitar
172.0,0.4878048780487805,67,108,Electric Guitar
172.0,0.4878048780487805,57,108,Electric Guitar
172.0,0.4878048780487805,76,102,Electric Guitar
172.0,0.4878048780487805,72,102,Electric Guitar
172.0,0.16260162601626016,79,117,Electric Guitar
172.0,0.0,55,127,Electric Guitar
172.0,0.0,60,127,Electric Guitar
172.0,0.0,59,127,Electric Guitar
172.0,0.12195121951219512,64,127,Electric Guitar
172.0,0.12195121951219512,45,127,Electric Guitar
172.0,0.12195121951219512,36,127,Electric Guitar
172.0,0.0,42,99,Electric Guitar
172.0,0.0,54,99,Electric Guitar
172.0,0.0,70,99,Electric Guitar
172.0,0.0,36,110,Electric Guitar
172.0,0.0,42,110,Electric Guitar
172.0,0.4878048780487805,93,127,Electric Guitar
172.0,0.7317073170731707,69,127,Electric Guitar
172.0,0.4878048780487805,81,127,Electric Guitar
172.0,0.7317073170731707,57,127,Electric Guitar
172.0,0.16260162601626016,69,107,Electric Guitar
172.0,0.24390243902439024,81,107,Electric Guitar
172.0,0.0,64,116,Electric Guitar
172.0,0.0,60,116,Electric Guitar
172.0,0.0,57,116,Electric Guitar
172.25,0.0,42,82,Electric Guitar
172.25,0.0,54,82,Electric Guitar
172.25,0.0,70,82,Electric Guitar
172.25,0.0,42,63,Electric Guitar
172.25,0.0,64,94,Electric Guitar
172.25,0.0,60,94,Electric Guitar
172.25,0.0,57,94,Electric Guitar
172.5,0.24390243902439024,45,127,Electric Guitar
172.5,0.12195121951219512,79,106,Electric Guitar
172.5,0.0,46,124,Electric Guitar
172.5,0.0,54,124,Electric Guitar
172.5,0.0,70,124,Electric Guitar
172.5,0.0,42,93,Electric Guitar
172.5,0.0,64,66,Electric Guitar
172.5,0.0,60,66,Electric Guitar
172.5,0.0,57,66,Electric Guitar
172.75,0.0,54,60,Electric Guitar
172.75,0.0,70,60,Electric Guitar
172.75,0.0,36,85,Electric Guitar
172.75,0.0,42,85,Electric Guitar
172.75,0.0,64,88,Electric Guitar
172.75,0.0,60,88,Electric Guitar
172.75,0.0,57,88,Electric Guitar
173.0,0.12195121951219512,35,127,Electric Guitar
173.0,0.0,79,97,Electric Guitar
173.0,0.24390243902439024,55,127,Electric Guitar
173.0,0.24390243902439024,64,127,Electric Guitar
173.0,0.24390243902439024,60,127,Electric Guitar
173.0,0.24390243902439024,59,127,Electric Guitar
173.0,0.3252032520325203,45,127,Electric Guitar
173.0,0.12195121951219512,36,127,Electric Guitar
173.0,0.12195121951219512,38,127,Electric Guitar
173.0,0.0,42,94,Electric Guitar
173.0,0.0,54,94,Electric Guitar
173.0,0.0,70,94,Electric Guitar
173.0,0.0,42,106,Electric Guitar
173.0,0.0,40,106,Electric Guitar
173.0,0.4878048780487805,95,127,Electric Guitar
173.0,0.4878048780487805,83,127,Electric Guitar
173.0,0.0,64,114,Electric Guitar
173.0,0.0,60,114,Electric Guitar
173.0,0.0,57,114,Electric Guitar
173.25,0.12195121951219512,36,127,Electric Guitar
173.25,0.16260162601626016,79,122,Electric Guitar
173.25,0.0,42,90,Electric Guitar
173.25,0.0,54,90,Electric Guitar
173.25,0.0,70,90,Electric Guitar
173.25,0.0,42,53,Electric Guitar
173.25,0.0,64,85,Electric Guitar
173.25,0.0,60,85,Electric Guitar
173.25,0.0,57,85,Electric Guitar
173.5,0.12195121951219512,37,127,Electric Guitar
173.5,0.0,46,127,Electric Guitar
173.5,0.0,54,127,Electric Guitar
173.5,0.0,70,127,Electric Guitar
173.5,0.0,36,102,Electric Guitar
173.5,0.0,42,102,Electric Guitar
173.5,0.0,64,96,Electric Guitar
173.5,0.0,60,96,Electric Guitar
173.5,0.0,57,96,Electric Guitar
173.75,0.12195121951219512,38,127,Electric Guitar
173.75,0.6097560975609756,76,108,Electric Guitar
173.75,0.6097560975609756,50,108,Electric Guitar
173.75,0.4878048780487805,72,101,Electric Guitar
173.75,0.4878048780487805,66,101,Electric Guitar
173.75,0.4878048780487805,69,100,Electric Guitar
173.75,0.6504065040650406,78,117,Electric Guitar
173.75,0.0,60,127,Electric Guitar
173.75,0.0,64,127,Electric Guitar
173.75,0.0,54,127,Electric Guitar
173.75,0.0,57,127,Electric Guitar
173.75,0.12195121951219512,38,127,Electric Guitar
173.75,0.0,54,82,Electric Guitar
173.75,0.0,70,82,Electric Guitar
173.75,0.0,36,84,Electric Guitar
173.75,0.0,42,84,Electric Guitar
173.75,0.0,64,85,Electric Guitar
173.75,0.0,57,85,Electric Guitar
173.75,0.0,60,85,Electric Guitar
174.0,0.24390243902439024,38,127,Electric Guitar
174.0,0.12195121951219512,36,127,Electric Guitar
174.0,0.0,42,99,Electric Guitar
174.0,0.0,54,99,Electric Guitar
174.0,0.0,70,99,Electric Guitar
174.0,0.0,44,117,Electric Guitar
174.0,0.4878048780487805,96,127,Electric Guitar
174.0,0.12195121951219512,72,127,Electric Guitar
174.0,0.4878048780487805,84,127,Electric Guitar
174.0,0.12195121951219512,60,127,Electric Guitar
174.0,0.0,62,115,Electric Guitar
174.0,0.0,66,115,Electric Guitar
174.0,0.0,57,115,Electric Guitar
174.25,0.0,42,82,Electric Guitar
174.25,0.0,54,82,Electric Guitar
174.25,0.0,70,82,Electric Guitar
174.25,0.12195121951219512,38,77,Electric Guitar
174.25,0.0,42,63,Electric Guitar
174.25,0.12195121951219512,69,127,Electric Guitar
174.25,0.12195121951219512,57,127,Electric Guitar
174.25,0.0,66,78,Electric Guitar
174.25,0.0,62,78,Electric Guitar
174.25,0.0,57,78,Electric Guitar
174.5,0.24390243902439024,45,127,Electric Guitar
174.5,0.36585365853658536,38,127,Electric Guitar
174.5,0.36585365853658536,54,127,Electric Guitar
174.5,0.36585365853658536,57,127,Electric Guitar
174.5,0.36585365853658536,64,127,Electric Guitar
174.5,0.36585365853658536,60,127,Electric Guitar
174.5,0.0,46,124,Electric Guitar
174.5,0.0,54,124,Electric Guitar
174.5,0.0,70,124,Electric Guitar
174.5,0.0,36,100,Electric Guitar
174.5,0.0,42,100,Electric Guitar
174.5,0.12195121951219512,67,127,Electric Guitar
174.5,0.12195121951219512,55,127,Electric Guitar
174.5,0.12195121951219512,69,107,Electric Guitar
174.5,0.12195121951219512,81,107,Electric Guitar
174.5,0.0,66,78,Electric Guitar
174.5,0.0,57,78,Electric Guitar
174.5,0.0,62,78,Electric Guitar
174.75,0.0,54,60,Electric Guitar
174.75,0.0,70,60,Electric Guitar
174.75,0.0,42,71,Electric Guitar
174.75,0.12195121951219512,63,127,Electric Guitar
174.75,0.12195121951219512,51,127,Electric Guitar
174.75,0.0,62,84,Electric Guitar
174.75,0.0,66,84,Electric Guitar
174.75,0.0,57,84,Electric Guitar
175.0,0.12195121951219512,48,127,Electric Guitar
175.0,0.12195121951219512,36,127,Electric Guitar
175.0,0.12195121951219512,38,127,Electric Guitar
175.0,0.0,42,94,Electric Guitar
175.0,0.0,54,94,Electric Guitar
175.0,0.0,70,94,Electric Guitar
175.0,0.0,44,124,Electric Guitar
175.0,0.0,40,124,Electric Guitar
175.0,0.4878048780487805,98,127,Electric Guitar
175.0,0.12195121951219512,62,127,Electric Guitar
175.0,0.4878048780487805,86,127,Electric Guitar
175.0,0.12195121951219512,50,127,Electric Guitar
175.0,0.12195121951219512,69,107,Electric Guitar
175.0,0.12195121951219512,81,107,Electric Guitar
175.0,0.0,66,112,Electric Guitar
175.0,0.0,57,112,Electric Guitar
175.0,0.0,62,112,Electric Guitar
175.25,0.12195121951219512,50,127,Electric Guitar
175.25,0.0,42,90,Electric Guitar
175.25,0.0,54,90,Electric Guitar
175.25,0.0,70,90,Electric Guitar
175.25,0.0,36,86,Electric Guitar
175.25,0.0,42,86,Electric Guitar
175.25,0.12195121951219512,60,127,Electric Guitar
175.25,0.12195121951219512,48,127,Electric Guitar
175.25,0.24390243902439024,84,107,Electric Guitar
175.25,0.16260162601626016,72,107,Electric Guitar
175.25,0.0,66,92,Electric Guitar
175.25,0.0,62,92,Electric Guitar
175.25,0.0,57,92,Electric Guitar
175.5,0.12195121951219512,48,127,Electric Guitar
175.5,0.16260162601626016,76,124,Electric Guitar
175.5,0.0,54,127,Electric Guitar
175.5,0.0,60,127,Electric Guitar
175.5,0.0,64,127,Electric Guitar
175.5,0.0,57,127,Electric Guitar
175.5,0.12195121951219512,38,127,Electric Guitar
175.5,0.0,46,127,Electric Guitar
175.5,0.0,54,127,Electric Guitar
175.5,0.0,70,127,Electric Guitar
175.5,0.0,42,89,Electric Guitar
175.5,0.12195121951219512,57,127,Electric Guitar
175.5,0.12195121951219512,45,127,Electric Guitar
175.5,0.0,66,83,Electric Guitar
175.5,0.0,57,83,Electric Guitar
175.5,0.0,62,83,Electric Guitar
175.75,0.12195121951219512,33,127,Electric Guitar
175.75,0.12195121951219512,38,77,Electric Guitar
175.75,0.0,54,82,Electric Guitar
175.75,0.0,70,82,Electric Guitar
175.75,0.0,36,84,Electric Guitar
175.75,0.0,42,84,Electric Guitar
175.75,0.12195121951219512,55,127,Electric Guitar
175.75,0.12195121951219512,43,127,Electric Guitar
175.75,0.0,66,85,Electric Guitar
175.75,0.0,62,85,Electric Guitar
175.75,0.0,57,85,Electric Guitar
176.0,0.16260162601626016,50,127,Electric Guitar
176.0,0.4878048780487805,72,104,Electric Guitar
176.0,0.4878048780487805,76,104,Electric Guitar
176.0,0.4878048780487805,69,104,Electric Guitar
176.0,0.4878048780487805,50,114,Electric Guitar
176.0,0.4878048780487805,65,114,Electric Guitar
176.0,0.16260162601626016,38,127,Electric Guitar
176.0,0.0,57,127,Electric Guitar
176.0,0.0,60,127,Electric Guitar
176.0,0.0,53,127,Electric Guitar
176.0,0.0,64,127,Electric Guitar
176.0,0.12195121951219512,36,127,Electric Guitar
176.0,0.0,42,99,Electric Guitar
176.0,0.0,54,99,Electric Guitar
176.0,0.0,70,99,Electric Guitar
176.0,0.0,36,110,Electric Guitar
176.0,0.0,42,110,Electric Guitar
176.0,0.975609756097561,98,127,Electric Guitar
176.0,0.975609756097561,57,127,Electric Guitar
176.0,0.975609756097561,86,127,Electric Guitar
176.0,0.975609756097561,45,127,Electric Guitar
176.0,0.16260162601626016,81,107,Electric Guitar
176.0,0.16260162601626016,69,107,Electric Guitar
176.0,0.0,62,116,Electric Guitar
176.0,0.0,57,116,Electric Guitar
176.0,0.0,65,116,Electric Guitar
176.25,0.0,42,82,Electric Guitar
176.25,0.0,54,82,Electric Guitar
176.25,0.0,70,82,Electric Guitar
176.25,0.0,42,63,Electric Guitar
176.25,0.0,62,78,Electric Guitar
176.25,0.0,65,78,Electric Guitar
176.25,0.0,57,78,Electric Guitar
176.5,0.24390243902439024,45,127,Electric Guitar
176.5,0.16260162601626016,74,127,Electric Guitar
176.5,0.0,46,124,Electric Guitar
176.5,0.0,54,124,Electric Guitar
176.5,0.0,70,124,Electric Guitar
176.5,0.0,42,93,Electric Guitar
176.5,0.0,62,90,Electric Guitar
176.5,0.0,57,90,Electric Guitar
176.5,0.0,65,90,Electric Guitar
176.75,0.0,54,60,Electric Guitar
176.75,0.0,70,60,Electric Guitar
176.75,0.0,36,85,Electric Guitar
176.75,0.0,42,85,Electric Guitar
176.75,0.0,65,68,Electric Guitar
176.75,0.0,62,68,Electric Guitar
176.75,0.0,57,68,Electric Guitar
177.0,0.12195121951219512,38,127,Electric Guitar
177.0,0.24390243902439024,74,120,Electric Guitar
177.0,0.24390243902439024,60,127,Electric Guitar
177.0,0.24390243902439024,64,127,Electric Guitar
177.0,0.24390243902439024,57,127,Electric Guitar
177.0,0.24390243902439024,53,127,Electric Guitar
177.0,0.3252032520325203,38,127,Electric Guitar
177.0,0.12195121951219512,36,127,Electric Guitar
177.0,0.12195121951219512,38,127,Electric Guitar
177.0,0.0,42,94,Electric Guitar
177.0,0.0,54,94,Electric Guitar
177.0,0.0,70,94,Electric Guitar
177.0,0.0,42,106,Electric Guitar
177.0,0.0,40,106,Electric Guitar
177.0,0.0,62,117,Electric Guitar
177.0,0.0,65,117,Electric Guitar
177.0,0.0,57,117,Electric Guitar
177.25,0.12195121951219512,33,127,Electric Guitar
177.25,0.0,42,90,Electric Guitar
177.25,0.0,54,90,Electric Guitar
177.25,0.0,70,90,Electric Guitar
177.25,0.0,42,53,Electric Guitar
177.25,0.0,62,88,Electric Guitar
177.25,0.0,57,88,Electric Guitar
177.25,0.0,65,88,Electric Guitar
177.5,0.12195121951219512,26,127,Electric Guitar
177.5,0.16260162601626016,72,115,Electric Guitar
177.5,0.0,46,127,Electric Guitar
177.5,0.0,54,127,Electric Guitar
177.5,0.0,70,127,Electric Guitar
177.5,0.0,36,102,Electric Guitar
177.5,0.0,42,102,Electric Guitar
177.5,0.0,62,89,Electric Guitar
177.5,0.0,57,89,Electric Guitar
177.5,0.0,65,89,Electric Guitar
177.75,0.36585365853658536,28,127,Electric Guitar
177.75,0.0,56,127,Electric Guitar
177.75,0.0,62,127,Electric Guitar
177.75,0.0,52,127,Electric Guitar
177.75,0.0,59,127,Electric Guitar
177.75,0.12195121951219512,40,127,Electric Guitar
177.75,0.0,54,82,Electric Guitar
177.75,0.0,70,82,Electric Guitar
177.75,0.0,36,84,Electric Guitar
177.75,0.0,42,84,Electric Guitar
177.75,0.0,62,87,Electric Guitar
177.75,0.0,65,87,Electric Guitar
177.75,0.0,57,87,Electric Guitar
178.0,0.36585365853658536,64,110,Electric Guitar
178.0,0.4878048780487805,71,98,Electric Guitar
178.0,0.4878048780487805,68,98,Electric Guitar
178.0,0.4878048780487805,74,98,Electric Guitar
178.0,0.8536585365853658,52,105,Electric Guitar
178.0,0.16260162601626016,76,124,Electric Guitar
178.0,0.12195121951219512,36,127,Electric Guitar
178.0,0.0,42,99,Electric Guitar
178.0,0.0,54,99,Electric Guitar
178.0,0.0,70,99,Electric Guitar
178.0,0.0,44,117,Electric Guitar
178.0,0.975609756097561,100,127,Electric Guitar
178.0,0.975609756097561,56,127,Electric Guitar
178.0,0.975609756097561,88,127,Electric Guitar
178.0,0.975609756097561,52,127,Electric Guitar
178.0,0.24390243902439024,68,107,Electric Guitar
178.0,0.3252032520325203,80,107,Electric Guitar
178.0,0.0,64,118,Electric Guitar
178.0,0.0,56,118,Electric Guitar
178.0,0.0,59,118,Electric Guitar
178.25,0.0,42,82,Electric Guitar
178.25,0.0,54,82,Electric Guitar
178.25,0.0,70,82,Electric Guitar
178.25,0.12195121951219512,38,77,Electric Guitar
178.25,0.0,42,63,Electric Guitar
178.25,0.0,56,82,Electric Guitar
178.25,0.0,59,82,Electric Guitar
178.25,0.0,64,82,Electric Guitar
178.5,0.24390243902439024,28,127,Electric Guitar
178.5,0.16260162601626016,74,101,Electric Guitar
178.5,0.36585365853658536,62,127,Electric Guitar
178.5,0.36585365853658536,56,127,Electric Guitar
178.5,0.36585365853658536,40,127,Electric Guitar
178.5,0.36585365853658536,52,127,Electric Guitar
178.5,0.36585365853658536,59,127,Electric Guitar
178.5,0.0,46,124,Electric Guitar
178.5,0.0,54,124,Electric Guitar
178.5,0.0,70,124,Electric Guitar
178.5,0.0,36,100,Electric Guitar
178.5,0.0,42,100,Electric Guitar
178.5,0.0,56,82,Electric Guitar
178.5,0.0,59,82,Electric Guitar
178.5,0.0,64,82,Electric Guitar
178.75,0.0,54,60,Electric Guitar
178.75,0.0,70,60,Electric Guitar
178.75,0.0,42,71,Electric Guitar
178.75,0.0,59,76,Electric Guitar
178.75,0.0,56,76,Electric Guitar
178.75,0.0,64,76,Electric Guitar
179.0,0.12195121951219512,31,127,Electric Guitar
179.0,0.24390243902439024,74,117,Electric Guitar
179.0,0.12195121951219512,36,127,Electric Guitar
179.0,0.12195121951219512,38,127,Electric Guitar
179.0,0.0,42,94,Electric Guitar
179.0,0.0,54,94,Electric Guitar
179.0,0.0,70,94,Electric Guitar
179.0,0.0,44,124,Electric Guitar
179.0,0.0,40,124,Electric Guitar
179.0,0.0,56,111,Electric Guitar
179.0,0.0,59,111,Electric Guitar
179.0,0.0,64,111,Electric Guitar
179.25,0.12195121951219512,31,127,Electric Guitar
179.25,0.0,42,90,Electric Guitar
179.25,0.0,54,90,Electric Guitar
179.25,0.0,70,90,Electric Guitar
179.25,0.0,36,86,Electric Guitar
179.25,0.0,42,86,Electric Guitar
179.25,0.0,64,74,Electric Guitar
179.25,0.0,59,74,Electric Guitar
179.25,0.0,56,74,Electric Guitar
179.5,0.24390243902439024,32,127,Electric Guitar
179.5,0.24390243902439024,72,113,Electric Guitar
179.5,0.0,52,127,Electric Guitar
179.5,0.0,59,127,Electric Guitar
179.5,0.12195121951219512,56,127,Electric Guitar
179.5,0.12195121951219512,62,127,Electric Guitar
179.5,0.12195121951219512,40,127,Electric Guitar
179.5,0.0,46,127,Electric Guitar
179.5,0.0,54,127,Electric Guitar
179.5,0.0,70,127,Electric Guitar
179.5,0.0,42,89,Electric Guitar
179.5,0.0,56,86,Electric Guitar
179.5,0.0,59,86,Electric Guitar
179.5,0.0,64,86,Electric Guitar
179.75,0.12195121951219512,38,77,Electric Guitar
179.75,0.0,54,82,Electric Guitar
179.75,0.0,70,82,Electric Guitar
179.75,0.0,36,84,Electric Guitar
179.75,0.0,42,84,Electric Guitar
179.75,0.0,56,68,Electric Guitar
179.75,0.0,59,68,Electric Guitar
179.75,0.0,64,68,Electric Guitar
180.0,0.16260162601626016,33,127,Electric Guitar
180.0,0.6097560975609756,67,107,Electric Guitar
180.0,0.4878048780487805,72,104,Electric Guitar
180.0,0.4878048780487805,76,104,Electric Guitar
180.0,1.4634146341463414,57,103,Electric Guitar
180.0,0.24390243902439024,72,127,Electric Guitar
180.0,0.0,55,127,Electric Guitar
180.0,0.0,64,127,Electric Guitar
180.0,0.0,60,127,Electric Guitar
180.0,0.0,59,127,Electric Guitar
180.0,0.12195121951219512,45,127,Electric Guitar
180.0,0.12195121951219512,36,127,Electric Guitar
180.0,0.0,42,99,Electric Guitar
180.0,0.0,54,99,Electric Guitar
180.0,0.0,70,99,Electric Guitar
180.0,0.0,36,110,Electric Guitar
180.0,0.0,42,110,Electric Guitar
180.0,0.4878048780487805,95,127,Electric Guitar
180.0,0.4878048780487805,60,127,Electric Guitar
180.0,0.4878048780487805,83,127,Electric Guitar
180.0,1.951219512195122,45,127,Electric Guitar
180.0,0.24390243902439024,81,107,Electric Guitar
180.0,0.24390243902439024,69,107,Electric Guitar
180.0,0.0,60,107,Electric Guitar
180.0,0.0,57,107,Electric Guitar
180.0,0.0,64,107,Electric Guitar
180.25,0.0,42,82,Electric Guitar
180.25,0.0,54,82,Electric Guitar
180.25,0.0,70,82,Electric Guitar
180.25,0.0,42,63,Electric Guitar
180.25,0.0,64,77,Electric Guitar
180.25,0.0,60,77,Electric Guitar
180.25,0.0,57,77,Electric Guitar
180.5,0.24390243902439024,40,127,Electric Guitar
180.5,0.16260162601626016,71,120,Electric Guitar
180.5,0.0,46,124,Electric Guitar
180.5,0.0,54,124,Electric Guitar
180.5,0.0,70,124,Electric Guitar
180.5,0.0,42,93,Electric Guitar
180.5,0.0,60,75,Electric Guitar
180.5,0.0,64,75,Electric Guitar
180.5,0.0,57,75,Electric Guitar
180.75,0.0,54,60,Electric Guitar
180.75,0.0,70,60,Electric Guitar
180.75,0.0,36,85,Electric Guitar
180.75,0.0,42,85,Electric Guitar
180.75,0.0,60,74,Electric Guitar
180.75,0.0,64,74,Electric Guitar
180.75,0.0,57,74,Electric Guitar
181.0,0.12195121951219512,43,127,Electric Guitar
181.0,0.12195121951219512,72,120,Electric Guitar
181.0,0.3252032520325203,45,127,Electric Guitar
181.0,0.24390243902439024,55,127,Electric Guitar
181.0,0.24390243902439024,64,127,Electric Guitar
181.0,0.24390243902439024,59,127,Electric Guitar
181.0,0.24390243902439024,60,127,Electric Guitar
181.0,0.12195121951219512,36,127,Electric Guitar
181.0,0.12195121951219512,38,127,Electric Guitar
181.0,0.0,42,94,Electric Guitar
181.0,0.0,54,94,Electric Guitar
181.0,0.0,70,94,Electric Guitar
181.0,0.0,42,106,Electric Guitar
181.0,0.0,40,106,Electric Guitar
181.0,0.4878048780487805,96,127,Electric Guitar
181.0,0.4878048780487805,57,127,Electric Guitar
181.0,0.4878048780487805,84,127,Electric Guitar
181.0,0.0,60,112,Electric Guitar
181.0,0.0,57,112,Electric Guitar
181.0,0.0,64,112,Electric Guitar
181.25,0.12195121951219512,40,127,Electric Guitar
181.25,0.24390243902439024,74,113,Electric Guitar
181.25,0.0,42,90,Electric Guitar
181.25,0.0,54,90,Electric Guitar
181.25,0.0,70,90,Electric Guitar
181.25,0.0,42,53,Electric Guitar
181.25,0.0,60,31,Electric Guitar
181.5,0.12195121951219512,43,127,Electric Guitar
181.5,0.0,46,127,Electric Guitar
181.5,0.0,54,127,Electric Guitar
181.5,0.0,70,127,Electric Guitar
181.5,0.0,36,102,Electric Guitar
181.5,0.0,42,102,Electric Guitar
181.5,0.0,60,85,Electric Guitar
181.5,0.0,64,85,Electric Guitar
181.5,0.0,57,85,Electric Guitar
181.75,0.36585365853658536,45,127,Electric Guitar
181.75,0.6097560975609756,76,120,Electric Guitar
181.75,0.0,55,127,Electric Guitar
181.75,0.0,61,127,Electric Guitar
181.75,0.0,64,127,Electric Guitar
181.75,0.0,58,127,Electric Guitar
181.75,0.12195121951219512,45,127,Electric Guitar
181.75,0.0,54,82,Electric Guitar
181.75,0.0,70,82,Electric Guitar
181.75,0.0,36,84,Electric Guitar
181.75,0.0,42,84,Electric Guitar
181.75,0.0,60,85,Electric Guitar
181.75,0.0,64,85,Electric Guitar
181.75,0.0,57,85,Electric Guitar
182.0,0.36585365853658536,73,99,Electric Guitar
182.0,0.36585365853658536,67,99,Electric Guitar
182.0,0.36585365853658536,70,99,Electric Guitar
182.0,0.4878048780487805,76,100,Electric Guitar
182.0,0.12195121951219512,36,127,Electric Guitar
182.0,0.0,42,99,Electric Guitar
182.0,0.0,54,99,Electric Guitar
182.0,0.0,70,99,Electric Guitar
182.0,0.0,44,117,Electric Guitar
182.0,0.4878048780487805,100,127,Electric Guitar
182.0,0.4878048780487805,61,127,Electric Guitar
182.0,0.4878048780487805,88,127,Electric Guitar
182.0,0.24390243902439024,76,107,Electric Guitar
182.0,0.24390243902439024,64,107,Electric Guitar
182.0,0.0,60,81,Electric Guitar
182.0,0.0,64,81,Electric Guitar
182.0,0.0,57,81,Electric Guitar
182.25,0.0,42,82,Electric Guitar
182.25,0.0,54,82,Electric Guitar
182.25,0.0,70,82,Electric Guitar
182.25,0.12195121951219512,38,77,Electric Guitar
182.25,0.0,42,63,Electric Guitar
182.25,0.0,61,112,Electric Guitar
182.25,0.0,64,112,Electric Guitar
182.25,0.0,57,112,Electric Guitar
182.5,0.24390243902439024,40,127,Electric Guitar
182.5,0.36585365853658536,45,127,Electric Guitar
182.5,0.36585365853658536,55,127,Electric Guitar
182.5,0.36585365853658536,64,127,Electric Guitar
182.5,0.36585365853658536,58,127,Electric Guitar
182.5,0.36585365853658536,61,127,Electric Guitar
182.5,0.0,46,124,Electric Guitar
182.5,0.0,54,124,Electric Guitar
182.5,0.0,70,124,Electric Guitar
182.5,0.0,36,100,Electric Guitar
182.5,0.0,42,100,Electric Guitar
182.5,0.0,61,81,Electric Guitar
182.5,0.0,57,81,Electric Guitar
182.5,0.0,64,81,Electric Guitar
182.75,0.0,54,60,Electric Guitar
182.75,0.0,70,60,Electric Guitar
182.75,0.0,42,71,Electric Guitar
182.75,0.0,61,81,Electric Guitar
182.75,0.0,57,81,Electric Guitar
182.75,0.0,64,81,Electric Guitar
183.0,0.12195121951219512,38,127,Electric Guitar
183.0,0.12195121951219512,36,127,Electric Guitar
183.0,0.12195121951219512,38,127,Electric Guitar
183.0,0.0,42,94,Electric Guitar
183.0,0.0,54,94,Electric Guitar
183.0,0.0,70,94,Electric Guitar
183.0,0.0,44,124,Electric Guitar
183.0,0.0,40,124,Electric Guitar
183.0,0.36585365853658536,103,127,Electric Guitar
183.0,0.4878048780487805,64,127,Electric Guitar
183.0,0.36585365853658536,91,127,Electric Guitar
183.0,0.0,64,80,Electric Guitar
183.0,0.0,61,80,Electric Guitar
183.0,0.0,57,80,Electric Guitar
183.25,0.12195121951219512,38,127,Electric Guitar
183.25,0.0,42,90,Electric Guitar
183.25,0.0,54,90,Electric Guitar
183.25,0.0,70,90,Electric Guitar
183.25,0.0,36,86,Electric Guitar
183.25,0.0,42,86,Electric Guitar
183.25,0.0,64,114,Electric Guitar
183.25,0.0,61,114,Electric Guitar
183.25,0.0,57,114,Electric Guitar
183.5,0.24390243902439024,40,127,Electric Guitar
183.5,0.12195121951219512,45,127,Electric Guitar
183.5,0.0,55,127,Electric Guitar
183.5,0.0,58,127,Electric Guitar
183.5,0.0,61,127,Electric Guitar
183.5,0.0,64,127,Electric Guitar
183.5,0.0,46,127,Electric Guitar
183.5,0.0,54,127,Electric Guitar
183.5,0.0,70,127,Electric Guitar
183.5,0.0,42,89,Electric Guitar
183.5,0.0,64,93,Electric Guitar
183.5,0.0,61,93,Electric Guitar
183.5,0.0,57,93,Electric Guitar
183.75,0.12195121951219512,38,77,Electric Guitar
183.75,0.0,54,82,Electric Guitar
183.75,0.0,70,82,Electric Guitar
183.75,0.0,36,84,Electric Guitar
183.75,0.0,42,84,Electric Guitar
183.75,0.12195121951219512,102,127,Electric Guitar
183.75,0.12195121951219512,90,127,Electric Guitar
183.75,0.0,64,94,Electric Guitar
183.75,0.0,61,94,Electric Guitar
183.75,0.0,57,94,Electric Guitar
184.0,0.16260162601626016,29,127,Electric Guitar
184.0,0.4878048780487805,65,117,Electric Guitar
184.0,0.4878048780487805,69,102,Electric Guitar
184.0,0.4878048780487805,76,102,Electric Guitar
184.0,0.4878048780487805,72,102,Electric Guitar
184.0,0.4878048780487805,53,102,Electric Guitar
184.0,0.16260162601626016,81,122,Electric Guitar
184.0,0.0,57,127,Electric Guitar
184.0,0.0,60,127,Electric Guitar
184.0,0.0,53,127,Electric Guitar
184.0,0.0,64,127,Electric Guitar
184.0,0.12195121951219512,41,127,Electric Guitar
184.0,0.12195121951219512,36,127,Electric Guitar
184.0,0.12195121951219512,49,127,Electric Guitar
184.0,0.0,42,99,Electric Guitar
184.0,0.0,54,99,Electric Guitar
184.0,0.0,70,99,Electric Guitar
184.0,0.0,36,110,Electric Guitar
184.0,0.0,42,110,Electric Guitar
184.0,0.12195121951219512,101,127,Electric Guitar
184.0,1.4634146341463414,100,127,Electric Guitar
184.0,0.8536585365853658,69,127,Electric Guitar
184.0,0.12195121951219512,89,127,Electric Guitar
184.0,1.4634146341463414,88,127,Electric Guitar
184.0,0.8536585365853658,41,127,Electric Guitar
184.0,0.16260162601626016,81,107,Electric Guitar
184.0,0.16260162601626016,69,107,Electric Guitar
184.0,0.0,57,115,Electric Guitar
184.0,0.0,65,115,Electric Guitar
184.0,0.0,60,115,Electric Guitar
184.25,0.0,42,82,Electric Guitar
184.25,0.0,54,82,Electric Guitar
184.25,0.0,70,82,Electric Guitar
184.25,0.0,42,63,Electric Guitar
184.25,0.0,60,88,Electric Guitar
184.25,0.0,57,88,Electric Guitar
184.25,0.0,65,88,Electric Guitar
184.5,0.24390243902439024,41,127,Electric Guitar
184.5,0.12195121951219512,81,120,Electric Guitar
184.5,0.0,46,124,Electric Guitar
184.5,0.0,54,124,Electric Guitar
184.5,0.0,70,124,Electric Guitar
184.5,0.0,42,93,Electric Guitar
184.5,0.0,60,88,Electric Guitar
184.5,0.0,57,88,Electric Guitar
184.5,0.0,65,88,Electric Guitar
184.75,0.0,54,60,Electric Guitar
184.75,0.0,70,60,Electric Guitar
184.75,0.0,36,85,Electric Guitar
184.75,0.0,42,85,Electric Guitar
184.75,0.0,60,80,Electric Guitar
184.75,0.0,57,80,Electric Guitar
184.75,0.0,65,80,Electric Guitar
185.0,0.12195121951219512,36,127,Electric Guitar
185.0,0.0,81,96,Electric Guitar
185.0,0.3252032520325203,41,127,Electric Guitar
185.0,0.3252032520325203,64,127,Electric Guitar
185.0,0.24390243902439024,60,127,Electric Guitar
185.0,0.24390243902439024,57,127,Electric Guitar
185.0,0.24390243902439024,53,127,Electric Guitar
185.0,0.12195121951219512,36,127,Electric Guitar
185.0,0.12195121951219512,38,127,Electric Guitar
185.0,0.0,42,94,Electric Guitar
185.0,0.0,54,94,Electric Guitar
185.0,0.0,70,94,Electric Guitar
185.0,0.0,42,106,Electric Guitar
185.0,0.0,40,106,Electric Guitar
185.0,0.0,65,116,Electric Guitar
185.0,0.0,57,116,Electric Guitar
185.0,0.0,60,116,Electric Guitar
185.25,0.12195121951219512,38,127,Electric Guitar
185.25,0.16260162601626016,81,106,Electric Guitar
185.25,0.0,42,90,Electric Guitar
185.25,0.0,54,90,Electric Guitar
185.25,0.0,70,90,Electric Guitar
185.25,0.0,42,53,Electric Guitar
185.25,0.0,60,89,Electric Guitar
185.25,0.0,57,89,Electric Guitar
185.25,0.0,65,89,Electric Guitar
185.5,0.12195121951219512,39,127,Electric Guitar
185.5,0.0,46,127,Electric Guitar
185.5,0.0,54,127,Electric Guitar
185.5,0.0,70,127,Electric Guitar
185.5,0.0,36,102,Electric Guitar
185.5,0.0,42,102,Electric Guitar
185.5,0.0,65,90,Electric Guitar
185.5,0.0,60,90,Electric Guitar
185.5,0.0,57,90,Electric Guitar
185.75,0.36585365853658536,40,127,Electric Guitar
185.75,0.6097560975609756,68,97,Electric Guitar
185.75,0.6097560975609756,74,97,Electric Guitar
185.75,0.4878048780487805,71,100,Electric Guitar
185.75,0.4878048780487805,52,113,Electric Guitar
185.75,0.4878048780487805,64,113,Electric Guitar
185.75,0.8536585365853658,80,108,Electric Guitar
185.75,0.0,40,127,Electric Guitar
185.75,0.0,64,127,Electric Guitar
185.75,0.0,56,127,Electric Guitar
185.75,0.0,52,127,Electric Guitar
185.75,0.0,59,127,Electric Guitar
185.75,0.0,54,82,Electric Guitar
185.75,0.0,70,82,Electric Guitar
185.75,0.0,36,84,Electric Guitar
185.75,0.0,42,84,Electric Guitar
185.75,1.0975609756097562,68,127,Electric Guitar
185.75,1.0975609756097562,52,127,Electric Guitar
185.75,0.0,65,87,Electric Guitar
185.75,0.0,60,87,Electric Guitar
185.75,0.0,57,87,Electric Guitar
186.0,0.12195121951219512,36,127,Electric Guitar
186.0,0.0,42,99,Electric Guitar
186.0,0.0,54,99,Electric Guitar
186.0,0.0,70,99,Electric Guitar
186.0,0.0,44,117,Electric Guitar
186.0,0.0,59,117,Electric Guitar
186.0,0.0,56,117,Electric Guitar
186.0,0.0,64,117,Electric Guitar
186.25,0.0,42,82,Electric Guitar
186.25,0.0,54,82,Electric Guitar
186.25,0.0,70,82,Electric Guitar
186.25,0.12195121951219512,38,77,Electric Guitar
186.25,0.0,42,63,Electric Guitar
186.25,0.0,64,99,Electric Guitar
186.25,0.0,56,99,Electric Guitar
186.25,0.0,59,99,Electric Guitar
186.5,0.24390243902439024,28,127,Electric Guitar
186.5,0.36585365853658536,56,127,Electric Guitar
186.5,0.36585365853658536,52,127,Electric Guitar
186.5,0.36585365853658536,64,127,Electric Guitar
186.5,0.36585365853658536,40,127,Electric Guitar
186.5,0.36585365853658536,59,127,Electric Guitar
186.5,0.0,46,124,Electric Guitar
186.5,0.0,54,124,Electric Guitar
186.5,0.0,70,124,Electric Guitar
186.5,0.0,36,100,Electric Guitar
186.5,0.0,42,100,Electric Guitar
186.5,0.16260162601626016,81,107,Electric Guitar
186.5,0.16260162601626016,69,107,Electric Guitar
186.5,0.0,59,78,Electric Guitar
186.5,0.0,64,78,Electric Guitar
186.5,0.0,56,78,Electric Guitar
186.75,0.0,54,60,Electric Guitar
186.75,0.0,70,60,Electric Guitar
186.75,0.0,42,71,Electric Guitar
186.75,0.0,56,80,Electric Guitar
186.75,0.0,59,80,Electric Guitar
186.75,0.0,64,80,Electric Guitar
187.0,0.12195121951219512,35,127,Electric Guitar
187.0,0.12195121951219512,36,127,Electric Guitar
187.0,0.12195121951219512,38,127,Electric Guitar
187.0,0.0,42,94,Electric Guitar
187.0,0.0,54,94,Electric Guitar
187.0,0.0,70,94,Electric Guitar
187.0,0.0,44,124,Electric Guitar
187.0,0.0,40,124,Electric Guitar
187.0,0.4878048780487805,104,127,Electric Guitar
187.0,0.4878048780487805,92,127,Electric Guitar
187.0,0.0,56,115,Electric Guitar
187.0,0.0,64,115,Electric Guitar
187.0,0.0,59,115,Electric Guitar
187.25,0.12195121951219512,38,127,Electric Guitar
187.25,0.0,42,90,Electric Guitar
187.25,0.0,54,90,Electric Guitar
187.25,0.0,70,90,Electric Guitar
187.25,0.0,36,86,Electric Guitar
187.25,0.0,42,86,Electric Guitar
187.25,0.16260162601626016,80,107,Electric Guitar
187.25,0.16260162601626016,68,107,Electric Guitar
187.25,0.0,56,90,Electric Guitar
187.25,0.0,59,90,Electric Guitar
187.25,0.0,64,90,Electric Guitar
187.5,0.24390243902439024,40,127,Electric Guitar
187.5,0.16260162601626016,76,108,Electric Guitar
187.5,0.0,52,127,Electric Guitar
187.5,0.0,56,127,Electric Guitar
187.5,0.0,64,127,Electric Guitar
187.5,0.0,40,127,Electric Guitar
187.5,0.0,59,127,Electric Guitar
187.5,0.0,46,127,Electric Guitar
187.5,0.0,54,127,Electric Guitar
187.5,0.0,70,127,Electric Guitar
187.5,0.0,42,89,Electric Guitar
187.5,0.0,64,87,Electric Guitar
187.5,0.0,59,87,Electric Guitar
187.5,0.0,56,87,Electric Guitar
187.75,0.12195121951219512,38,77,Electric Guitar
187.75,0.0,54,82,Electric Guitar
187.75,0.0,70,82,Electric Guitar
187.75,0.0,36,84,Electric Guitar
187.75,0.0,42,84,Electric Guitar
187.75,0.0,64,92,Electric Guitar
187.75,0.0,59,92,Electric Guitar
187.75,0.0,56,92,Electric Guitar
188.0,0.24390243902439024,33,127,Electric Guitar
188.0,0.4878048780487805,72,102,Electric Guitar
188.0,0.4878048780487805,67,102,Electric Guitar
188.0,0.36585365853658536,76,104,Electric Guitar
188.0,0.36585365853658536,57,104,Electric Guitar
188.0,0.16260162601626016,79,117,Electric Guitar
188.0,0.0,55,127,Electric Guitar
188.0,0.0,60,127,Electric Guitar
188.0,0.0,59,127,Electric Guitar
188.0,0.12195121951219512,64,127,Electric Guitar
188.0,0.12195121951219512,45,127,Electric Guitar
188.0,0.12195121951219512,36,127,Electric Guitar
188.0,0.0,42,99,Electric Guitar
188.0,0.0,54,99,Electric Guitar
188.0,0.0,70,99,Electric Guitar
188.0,0.0,36,110,Electric Guitar
188.0,0.0,42,110,Electric Guitar
188.0,0.36585365853658536,105,127,Electric Guitar
188.0,0.8536585365853658,67,127,Electric Guitar
188.0,0.36585365853658536,93,127,Electric Guitar
188.0,0.8536585365853658,45,127,Electric Guitar
188.0,0.16260162601626016,69,107,Electric Guitar
188.0,0.24390243902439024,81,107,Electric Guitar
188.0,0.0,64,116,Electric Guitar
188.0,0.0,60,116,Electric Guitar
188.0,0.0,57,116,Electric Guitar
188.25,0.0,42,82,Electric Guitar
188.25,0.0,54,82,Electric Guitar
188.25,0.0,70,82,Electric Guitar
188.25,0.0,42,63,Electric Guitar
188.25,0.0,64,94,Electric Guitar
188.25,0.0,60,94,Electric Guitar
188.25,0.0,57,94,Electric Guitar
188.5,0.24390243902439024,45,127,Electric Guitar
188.5,0.12195121951219512,79,106,Electric Guitar
188.5,0.0,46,124,Electric Guitar
188.5,0.0,54,124,Electric Guitar
188.5,0.0,70,124,Electric Guitar
188.5,0.0,42,93,Electric Guitar
188.5,0.0,64,66,Electric Guitar
188.5,0.0,60,66,Electric Guitar
188.5,0.0,57,66,Electric Guitar
188.75,0.0,54,60,Electric Guitar
188.75,0.0,70,60,Electric Guitar
188.75,0.0,36,85,Electric Guitar
188.75,0.0,42,85,Electric Guitar
188.75,0.0,101,127,Electric Guitar
188.75,0.0,89,127,Electric Guitar
188.75,0.0,64,88,Electric Guitar
188.75,0.0,60,88,Electric Guitar
188.75,0.0,57,88,Electric Guitar
189.0,0.12195121951219512,35,127,Electric Guitar
189.0,0.0,79,97,Electric Guitar
189.0,0.24390243902439024,55,127,Electric Guitar
189.0,0.24390243902439024,64,127,Electric Guitar
189.0,0.24390243902439024,60,127,Electric Guitar
189.0,0.24390243902439024,59,127,Electric Guitar
189.0,0.3252032520325203,45,127,Electric Guitar
189.0,0.12195121951219512,36,127,Electric Guitar
189.0,0.12195121951219512,38,127,Electric Guitar
189.0,0.0,42,94,Electric Guitar
189.0,0.0,54,94,Electric Guitar
189.0,0.0,70,94,Electric Guitar
189.0,0.0,42,106,Electric Guitar
189.0,0.0,40,106,Electric Guitar
189.0,0.12195121951219512,100,127,Electric Guitar
189.0,0.24390243902439024,99,127,Electric Guitar
189.0,0.12195121951219512,88,127,Electric Guitar
189.0,0.24390243902439024,87,127,Electric Guitar
189.0,0.0,64,114,Electric Guitar
189.0,0.0,60,114,Electric Guitar
189.0,0.0,57,114,Electric Guitar
189.25,0.12195121951219512,36,127,Electric Guitar
189.25,0.16260162601626016,79,122,Electric Guitar
189.25,0.0,42,90,Electric Guitar
189.25,0.0,54,90,Electric Guitar
189.25,0.0,70,90,Electric Guitar
189.25,0.0,42,53,Electric Guitar
189.25,0.0,64,85,Electric Guitar
189.25,0.0,60,85,Electric Guitar
189.25,0.0,57,85,Electric Guitar
189.5,0.12195121951219512,37,127,Electric Guitar
189.5,0.0,46,127,Electric Guitar
189.5,0.0,54,127,Electric Guitar
189.5,0.0,70,127,Electric Guitar
189.5,0.0,36,102,Electric Guitar
189.5,0.0,42,102,Electric Guitar
189.5,0.6504065040650406,98,127,Electric Guitar
189.5,0.6504065040650406,86,127,Electric Guitar
189.5,0.0,64,96,Electric Guitar
189.5,0.0,60,96,Electric Guitar
189.5,0.0,57,96,Electric Guitar
189.75,0.12195121951219512,38,127,Electric Guitar
189.75,0.6097560975609756,72,101,Electric Guitar
189.75,0.6097560975609756,66,101,Electric Guitar
189.75,0.6097560975609756,50,101,Electric Guitar
189.75,0.6504065040650406,76,105,Electric Guitar
189.75,0.4878048780487805,69,96,Electric Guitar
189.75,0.6504065040650406,78,117,Electric Guitar
189.75,0.0,60,127,Electric Guitar
189.75,0.0,64,127,Electric Guitar
189.75,0.0,54,127,Electric Guitar
189.75,0.0,57,127,Electric Guitar
189.75,0.12195121951219512,38,127,Electric Guitar
189.75,0.0,54,82,Electric Guitar
189.75,0.0,70,82,Electric Guitar
189.75,0.0,36,84,Electric Guitar
189.75,0.0,42,84,Electric Guitar
189.75,1.0975609756097562,66,127,Electric Guitar
189.75,1.0975609756097562,50,127,Electric Guitar
189.75,0.0,64,85,Electric Guitar
189.75,0.0,57,85,Electric Guitar
189.75,0.0,60,85,Electric Guitar
190.0,0.24390243902439024,38,127,Electric Guitar
190.0,0.12195121951219512,36,127,Electric Guitar
190.0,0.0,42,99,Electric Guitar
190.0,0.0,54,99,Electric Guitar
190.0,0.0,70,99,Electric Guitar
190.0,0.0,44,117,Electric Guitar
190.0,0.0,62,115,Electric Guitar
190.0,0.0,66,115,Electric Guitar
190.0,0.0,57,115,Electric Guitar
190.25,0.0,42,82,Electric Guitar
190.25,0.0,54,82,Electric Guitar
190.25,0.0,70,82,Electric Guitar
190.25,0.12195121951219512,38,77,Electric Guitar
190.25,0.0,42,63,Electric Guitar
190.25,0.0,66,78,Electric Guitar
190.25,0.0,62,78,Electric Guitar
190.25,0.0,57,78,Electric Guitar
190.5,0.24390243902439024,36,127,Electric Guitar
190.5,0.36585365853658536,38,127,Electric Guitar
190.5,0.36585365853658536,54,127,Electric Guitar
190.5,0.36585365853658536,57,127,Electric Guitar
190.5,0.36585365853658536,64,127,Electric Guitar
190.5,0.36585365853658536,60,127,Electric Guitar
190.5,0.0,46,124,Electric Guitar
190.5,0.0,54,124,Electric Guitar
190.5,0.0,70,124,Electric Guitar
190.5,0.0,36,100,Electric Guitar
190.5,0.0,42,100,Electric Guitar
190.5,0.12195121951219512,69,107,Electric Guitar
190.5,0.12195121951219512,81,107,Electric Guitar
190.5,0.0,66,78,Electric Guitar
190.5,0.0,57,78,Electric Guitar
190.5,0.0,62,78,Electric Guitar
190.75,0.0,54,60,Electric Guitar
190.75,0.0,70,60,Electric Guitar
190.75,0.0,42,71,Electric Guitar
190.75,0.0,62,84,Electric Guitar
190.75,0.0,66,84,Electric Guitar
190.75,0.0,57,84,Electric Guitar
191.0,0.12195121951219512,36,127,Electric Guitar
191.0,0.12195121951219512,36,127,Electric Guitar
191.0,0.12195121951219512,38,127,Electric Guitar
191.0,0.0,42,94,Electric Guitar
191.0,0.0,54,94,Electric Guitar
191.0,0.0,70,94,Electric Guitar
191.0,0.0,44,124,Electric Guitar
191.0,0.0,40,124,Electric Guitar
191.0,0.36585365853658536,96,127,Electric Guitar
191.0,0.36585365853658536,84,127,Electric Guitar
191.0,0.12195121951219512,69,107,Electric Guitar
191.0,0.12195121951219512,81,107,Electric Guitar
191.0,0.0,66,112,Electric Guitar
191.0,0.0,57,112,Electric Guitar
191.0,0.0,62,112,Electric Guitar
191.25,0.12195121951219512,38,127,Electric Guitar
191.25,0.0,42,90,Electric Guitar
191.25,0.0,54,90,Electric Guitar
191.25,0.0,70,90,Electric Guitar
191.25,0.0,36,86,Electric Guitar
191.25,0.0,42,86,Electric Guitar
191.25,0.24390243902439024,84,107,Electric Guitar
191.25,0.16260162601626016,72,107,Electric Guitar
191.25,0.0,66,92,Electric Guitar
191.25,0.0,62,92,Electric Guitar
191.25,0.0,57,92,Electric Guitar
191.5,0.12195121951219512,36,127,Electric Guitar
191.5,0.16260162601626016,76,124,Electric Guitar
191.5,0.0,54,127,Electric Guitar
191.5,0.0,60,127,Electric Guitar
191.5,0.0,64,127,Electric Guitar
191.5,0.0,57,127,Electric Guitar
191.5,0.12195121951219512,38,127,Electric Guitar
191.5,0.0,46,127,Electric Guitar
191.5,0.0,54,127,Electric Guitar
191.5,0.0,70,127,Electric Guitar
191.5,0.0,42,89,Electric Guitar
191.5,0.0,66,83,Electric Guitar
191.5,0.0,57,83,Electric Guitar
191.5,0.0,62,83,Electric Guitar
191.75,0.12195121951219512,33,127,Electric Guitar
191.75,0.12195121951219512,38,77,Electric Guitar
191.75,0.0,54,82,Electric Guitar
191.75,0.0,70,82,Electric Guitar
191.75,0.0,36,84,Electric Guitar
191.75,0.0,42,84,Electric Guitar
191.75,0.12195121951219512,95,127,Electric Guitar
191.75,0.12195121951219512,94,127,Electric Guitar
191.75,0.12195121951219512,83,127,Electric Guitar
191.75,0.12195121951219512,82,127,Electric Guitar
191.75,0.0,66,85,Electric Guitar
191.75,0.0,62,85,Electric Guitar
191.75,0.0,57,85,Electric Guitar
192.0,0.16260162601626016,38,127,Electric Guitar
192.0,1.4634146341463414,72,101,Electric Guitar
192.0,1.4634146341463414,65,101,Electric Guitar
192.0,1.4634146341463414,50,101,Electric Guitar
192.0,1.4634146341463414,76,101,Electric Guitar
192.0,1.4634146341463414,69,102,Electric Guitar
192.0,0.16260162601626016,38,127,Electric Guitar
192.0,0.0,57,127,Electric Guitar
192.0,0.0,60,127,Electric Guitar
192.0,0.0,53,127,Electric Guitar
192.0,0.0,64,127,Electric Guitar
192.0,0.12195121951219512,36,127,Electric Guitar
192.0,0.0,42,99,Electric Guitar
192.0,0.0,54,99,Electric Guitar
192.0,0.0,70,99,Electric Guitar
192.0,0.0,36,110,Electric Guitar
192.0,0.0,42,110,Electric Guitar
192.0,1.4634146341463414,93,127,Electric Guitar
192.0,1.951219512195122,62,127,Electric Guitar
192.0,1.4634146341463414,81,127,Electric Guitar
192.0,1.951219512195122,50,127,Electric Guitar
192.0,0.16260162601626016,81,107,Electric Guitar
192.0,0.16260162601626016,69,107,Electric Guitar
192.0,0.0,57,110,Electric Guitar
192.0,0.0,65,110,Electric Guitar
192.0,0.0,62,110,Electric Guitar
192.25,0.0,42,82,Electric Guitar
192.25,0.0,54,82,Electric Guitar
192.25,0.0,70,82,Electric Guitar
192.25,0.0,42,63,Electric Guitar
192.25,0.0,65,86,Electric Guitar
192.25,0.0,62,86,Electric Guitar
192.25,0.0,57,86,Electric Guitar
192.5,0.24390243902439024,38,127,Electric Guitar
192.5,0.16260162601626016,74,127,Electric Guitar
192.5,0.0,46,124,Electric Guitar
192.5,0.0,54,124,Electric Guitar
192.5,0.0,70,124,Electric Guitar
192.5,0.0,42,93,Electric Guitar
192.5,0.0,57,83,Electric Guitar
192.5,0.0,65,83,Electric Guitar
192.5,0.0,62,83,Electric Guitar
192.75,0.0,54,60,Electric Guitar
192.75,0.0,70,60,Electric Guitar
192.75,0.0,36,85,Electric Guitar
192.75,0.0,42,85,Electric Guitar
192.75,0.0,65,84,Electric Guitar
192.75,0.0,57,84,Electric Guitar
192.75,0.0,62,84,Electric Guitar
193.0,0.12195121951219512,38,127,Electric Guitar
193.0,0.16260162601626016,74,113,Electric Guitar
193.0,0.24390243902439024,60,127,Electric Guitar
193.0,0.24390243902439024,64,127,Electric Guitar
193.0,0.24390243902439024,57,127,Electric Guitar
193.0,0.24390243902439024,53,127,Electric Guitar
193.0,0.3252032520325203,38,127,Electric Guitar
193.0,0.12195121951219512,36,127,Electric Guitar
193.0,0.12195121951219512,38,127,Electric Guitar
193.0,0.0,42,94,Electric Guitar
193.0,0.0,54,94,Electric Guitar
193.0,0.0,70,94,Electric Guitar
193.0,0.0,42,106,Electric Guitar
193.0,0.0,40,106,Electric Guitar
193.0,0.0,65,110,Electric Guitar
193.0,0.0,57,110,Electric Guitar
193.0,0.0,62,110,Electric Guitar
193.25,0.12195121951219512,33,127,Electric Guitar
193.25,0.0,42,90,Electric Guitar
193.25,0.0,54,90,Electric Guitar
193.25,0.0,70,90,Electric Guitar
193.25,0.0,42,53,Electric Guitar
193.25,0.0,57,83,Electric Guitar
193.25,0.0,62,83,Electric Guitar
193.25,0.0,65,83,Electric Guitar
193.5,0.12195121951219512,26,127,Electric Guitar
193.5,0.16260162601626016,72,117,Electric Guitar
193.5,0.0,46,127,Electric Guitar
193.5,0.0,54,127,Electric Guitar
193.5,0.0,70,127,Electric Guitar
193.5,0.0,36,102,Electric Guitar
193.5,0.0,42,102,Electric Guitar
193.5,0.0,65,79,Electric Guitar
193.5,0.0,57,79,Electric Guitar
193.5,0.0,62,79,Electric Guitar
193.75,0.36585365853658536,26,127,Electric Guitar
193.75,0.0,57,127,Electric Guitar
193.75,0.0,64,127,Electric Guitar
193.75,0.0,53,127,Electric Guitar
193.75,0.0,60,127,Electric Guitar
193.75,0.12195121951219512,38,127,Electric Guitar
193.75,0.0,54,82,Electric Guitar
193.75,0.0,70,82,Electric Guitar
193.75,0.0,36,84,Electric Guitar
193.75,0.0,42,84,Electric Guitar
193.75,0.0,57,87,Electric Guitar
193.75,0.0,65,87,Electric Guitar
193.75,0.0,62,87,Electric Guitar
194.0,0.36585365853658536,72,120,Electric Guitar
194.0,0.12195121951219512,36,127,Electric Guitar
194.0,0.0,42,99,Electric Guitar
194.0,0.0,54,99,Electric Guitar
194.0,0.0,70,99,Electric Guitar
194.0,0.0,44,117,Electric Guitar
194.0,0.0,57,116,Electric Guitar
194.0,0.0,65,116,Electric Guitar
194.0,0.0,62,116,Electric Guitar
194.25,0.0,42,82,Electric Guitar
194.25,0.0,54,82,Electric Guitar
194.25,0.0,70,82,Electric Guitar
194.25,0.12195121951219512,38,77,Electric Guitar
194.25,0.0,42,63,Electric Guitar
194.25,0.0,62,65,Electric Guitar
194.25,0.0,57,65,Electric Guitar
194.25,0.0,65,65,Electric Guitar
194.5,0.24390243902439024,33,127,Electric Guitar
194.5,0.36585365853658536,64,127,Electric Guitar
194.5,0.36585365853658536,57,127,Electric Guitar
194.5,0.36585365853658536,38,127,Electric Guitar
194.5,0.36585365853658536,53,127,Electric Guitar
194.5,0.36585365853658536,60,127,Electric Guitar
194.5,0.0,46,124,Electric Guitar
194.5,0.0,54,124,Electric Guitar
194.5,0.0,70,124,Electric Guitar
194.5,0.0,36,100,Electric Guitar
194.5,0.0,42,100,Electric Guitar
194.5,0.0,62,94,Electric Guitar
194.5,0.0,57,94,Electric Guitar
194.5,0.0,65,94,Electric Guitar
194.75,0.0,54,60,Electric Guitar
194.75,0.0,70,60,Electric Guitar
194.75,0.0,42,71,Electric Guitar
194.75,0.0,62,78,Electric Guitar
194.75,0.0,65,78,Electric Guitar
194.75,0.0,57,78,Electric Guitar
195.0,0.12195121951219512,38,127,Electric Guitar
195.0,0.24390243902439024,76,122,Electric Guitar
195.0,0.12195121951219512,36,127,Electric Guitar
195.0,0.12195121951219512,38,127,Electric Guitar
195.0,0.0,42,94,Electric Guitar
195.0,0.0,54,94,Electric Guitar
195.0,0.0,70,94,Electric Guitar
195.0,0.0,44,124,Electric Guitar
195.0,0.0,40,124,Electric Guitar
195.0,0.24390243902439024,87,127,Electric Guitar
195.0,0.24390243902439024,75,127,Electric Guitar
195.0,0.0,57,107,Electric Guitar
195.0,0.0,62,107,Electric Guitar
195.0,0.0,65,107,Electric Guitar
195.25,0.12195121951219512,33,127,Electric Guitar
195.25,0.0,42,90,Electric Guitar
195.25,0.0,54,90,Electric Guitar
195.25,0.0,70,90,Electric Guitar
195.25,0.0,36,86,Electric Guitar
195.25,0.0,42,86,Electric Guitar
195.25,0.0,65,89,Electric Guitar
195.25,0.0,62,89,Electric Guitar
195.25,0.0,57,89,Electric Guitar
195.5,0.24390243902439024,26,127,Electric Guitar
195.5,0.36585365853658536,74,122,Electric Guitar
195.5,0.0,53,127,Electric Guitar
195.5,0.0,60,127,Electric Guitar
195.5,0.12195121951219512,57,127,Electric Guitar
195.5,0.12195121951219512,64,127,Electric Guitar
195.5,0.12195121951219512,38,127,Electric Guitar
195.5,0.0,46,127,Electric Guitar
195.5,0.0,54,127,Electric Guitar
195.5,0.0,70,127,Electric Guitar
195.5,0.0,42,89,Electric Guitar
195.5,0.975609756097561,86,127,Electric Guitar
195.5,0.975609756097561,74,127,Electric Guitar
195.5,0.0,57,84,Electric Guitar
195.5,0.0,65,84,Electric Guitar
195.5,0.0,62,84,Electric Guitar
195.75,0.12195121951219512,38,77,Electric Guitar
195.75,0.0,54,82,Electric Guitar
195.75,0.0,70,82,Electric Guitar
195.75,0.0,36,84,Electric Guitar
195.75,0.0,42,84,Electric Guitar
195.75,0.0,65,84,Electric Guitar
195.75,0.0,62,84,Electric Guitar
195.75,0.0,57,84,Electric Guitar
196.0,0.24390243902439024,28,127,Electric Guitar
196.0,0.7317073170731707,64,105,Electric Guitar
196.0,0.7317073170731707,71,105,Electric Guitar
196.0,0.8130081300813008,74,102,Electric Guitar
196.0,0.8130081300813008,68,102,Electric Guitar
196.0,0.8130081300813008,52,102,Electric Guitar
196.0,0.0,56,127,Electric Guitar
196.0,0.0,52,127,Electric Guitar
196.0,0.0,64,127,Electric Guitar
196.0,0.0,59,127,Electric Guitar
196.0,0.12195121951219512,40,127,Electric Guitar
196.0,0.12195121951219512,36,127,Electric Guitar
196.0,0.0,42,99,Electric Guitar
196.0,0.0,54,99,Electric Guitar
196.0,0.0,70,99,Electric Guitar
196.0,0.0,36,110,Electric Guitar
196.0,0.0,42,110,Electric Guitar
196.0,1.951219512195122,62,127,Electric Guitar
196.0,1.951219512195122,52,127,Electric Guitar
196.0,0.24390243902439024,76,107,Electric Guitar
196.0,0.24390243902439024,64,107,Electric Guitar
196.0,0.0,64,113,Electric Guitar
196.0,0.0,56,113,Electric Guitar
196.0,0.0,59,113,Electric Guitar
196.25,0.0,42,82,Electric Guitar
196.25,0.0,54,82,Electric Guitar
196.25,0.0,70,82,Electric Guitar
196.25,0.0,42,63,Electric Guitar
196.25,0.0,64,79,Electric Guitar
196.25,0.0,59,79,Electric Guitar
196.25,0.0,56,79,Electric Guitar
196.5,0.24390243902439024,28,127,Electric Guitar
196.5,0.24390243902439024,76,120,Electric Guitar
196.5,0.0,46,124,Electric Guitar
196.5,0.0,54,124,Electric Guitar
196.5,0.0,70,124,Electric Guitar
196.5,0.0,42,93,Electric Guitar
196.5,0.0,64,79,Electric Guitar
196.5,0.0,59,79,Electric Guitar
196.5,0.0,56,79,Electric Guitar
196.75,0.0,54,60,Electric Guitar
196.75,0.0,70,60,Electric Guitar
196.75,0.0,36,85,Electric Guitar
196.75,0.0,42,85,Electric Guitar
196.75,0.0,64,75,Electric Guitar
196.75,0.0,59,75,Electric Guitar
196.75,0.0,56,75,Electric Guitar
197.0,0.12195121951219512,40,127,Electric Guitar
197.0,0.3252032520325203,40,127,Electric Guitar
197.0,0.24390243902439024,56,127,Electric Guitar
197.0,0.24390243902439024,52,127,Electric Guitar
197.0,0.24390243902439024,59,127,Electric Guitar
197.0,0.24390243902439024,64,127,Electric Guitar
197.0,0.12195121951219512,36,127,Electric Guitar
197.0,0.12195121951219512,38,127,Electric Guitar
197.0,0.0,42,94,Electric Guitar
197.0,0.0,54,94,Electric Guitar
197.0,0.0,70,94,Electric Guitar
197.0,0.0,42,106,Electric Guitar
197.0,0.0,40,106,Electric Guitar
197.0,0.0,56,107,Electric Guitar
197.0,0.0,64,107,Electric Guitar
197.0,0.0,59,107,Electric Guitar
197.25,0.12195121951219512,28,127,Electric Guitar
197.25,0.0,42,90,Electric Guitar
197.25,0.0,54,90,Electric Guitar
197.25,0.0,70,90,Electric Guitar
197.25,0.0,42,53,Electric Guitar
197.25,0.0,64,72,Electric Guitar
197.25,0.0,56,72,Electric Guitar
197.25,0.0,59,72,Electric Guitar
197.5,0.12195121951219512,28,127,Electric Guitar
197.5,0.24390243902439024,76,110,Electric Guitar
197.5,0.0,46,127,Electric Guitar
197.5,0.0,54,127,Electric Guitar
197.5,0.0,70,127,Electric Guitar
197.5,0.0,36,102,Electric Guitar
197.5,0.0,42,102,Electric Guitar
197.5,0.0,64,67,Electric Guitar
197.5,0.0,59,67,Electric Guitar
197.5,0.0,56,67,Electric Guitar
197.75,0.36585365853658536,28,127,Electric Guitar
197.75,0.0,56,127,Electric Guitar
197.75,0.0,64,127,Electric Guitar
197.75,0.0,52,127,Electric Guitar
197.75,0.0,59,127,Electric Guitar
197.75,0.12195121951219512,40,127,Electric Guitar
197.75,0.0,54,82,Electric Guitar
197.75,0.0,70,82,Electric Guitar
197.75,0.0,36,84,Electric Guitar
197.75,0.0,42,84,Electric Guitar
197.75,0.0,64,68,Electric Guitar
197.75,0.0,56,68,Electric Guitar
197.75,0.0,59,68,Electric Guitar
198.0,0.24390243902439024,79,117,Electric Guitar
198.0,0.12195121951219512,36,127,Electric Guitar
198.0,0.0,42,99,Electric Guitar
198.0,0.0,54,99,Electric Guitar
198.0,0.0,70,99,Electric Guitar
198.0,0.0,44,117,Electric Guitar
198.0,0.12195121951219512,86,127,Electric Guitar
198.0,0.12195121951219512,74,127,Electric Guitar
198.0,0.0,56,113,Electric Guitar
198.0,0.0,64,113,Electric Guitar
198.0,0.0,59,113,Electric Guitar
198.25,0.0,42,82,Electric Guitar
198.25,0.0,54,82,Electric Guitar
198.25,0.0,70,82,Electric Guitar
198.25,0.12195121951219512,38,77,Electric Guitar
198.25,0.0,42,63,Electric Guitar
198.25,0.12195121951219512,87,127,Electric Guitar
198.25,0.12195121951219512,75,127,Electric Guitar
198.25,0.0,59,70,Electric Guitar
198.25,0.0,64,70,Electric Guitar
198.25,0.0,56,70,Electric Guitar
198.5,0.12195121951219512,28,127,Electric Guitar
198.5,0.16260162601626016,76,108,Electric Guitar
198.5,0.36585365853658536,40,127,Electric Guitar
198.5,0.36585365853658536,56,127,Electric Guitar
198.5,0.36585365853658536,52,127,Electric Guitar
198.5,0.36585365853658536,59,127,Electric Guitar
198.5,0.36585365853658536,64,127,Electric Guitar
198.5,0.0,46,124,Electric Guitar
198.5,0.0,54,124,Electric Guitar
198.5,0.0,70,124,Electric Guitar
198.5,0.0,36,100,Electric Guitar
198.5,0.0,42,100,Electric Guitar
198.5,0.12195121951219512,86,127,Electric Guitar
198.5,0.12195121951219512,74,127,Electric Guitar
198.5,0.0,64,81,Electric Guitar
198.5,0.0,56,81,Electric Guitar
198.5,0.0,59,81,Electric Guitar
198.75,0.12195121951219512,28,127,Electric Guitar
198.75,0.0,54,60,Electric Guitar
198.75,0.0,70,60,Electric Guitar
198.75,0.0,42,71,Electric Guitar
198.75,0.12195121951219512,84,127,Electric Guitar
198.75,0.12195121951219512,72,127,Electric Guitar
198.75,0.0,59,71,Electric Guitar
198.75,0.0,64,71,Electric Guitar
198.75,0.0,56,71,Electric Guitar
199.0,0.12195121951219512,40,127,Electric Guitar
199.0,0.16260162601626016,83,122,Electric Guitar
199.0,0.12195121951219512,36,127,Electric Guitar
199.0,0.12195121951219512,38,127,Electric Guitar
199.0,0.0,42,94,Electric Guitar
199.0,0.0,54,94,Electric Guitar
199.0,0.0,70,94,Electric Guitar
199.0,0.0,44,124,Electric Guitar
199.0,0.0,40,124,Electric Guitar
199.0,0.0,86,127,Electric Guitar
199.0,0.0,74,127,Electric Guitar
199.0,0.0,56,110,Electric Guitar
199.0,0.0,64,110,Electric Guitar
199.0,0.0,59,110,Electric Guitar
199.25,0.12195121951219512,38,127,Electric Guitar
199.25,0.0,42,90,Electric Guitar
199.25,0.0,54,90,Electric Guitar
199.25,0.0,70,90,Electric Guitar
199.25,0.0,36,86,Electric Guitar
199.25,0.0,42,86,Electric Guitar
199.25,0.36585365853658536,84,127,Electric Guitar
199.25,0.36585365853658536,72,127,Electric Guitar
199.25,0.0,56,68,Electric Guitar
199.25,0.0,59,68,Electric Guitar
199.25,0.0,64,68,Electric Guitar
199.5,0.24390243902439024,40,127,Electric Guitar
199.5,0.4878048780487805,83,117,Electric Guitar
199.5,0.12195121951219512,40,127,Electric Guitar
199.5,0.0,56,127,Electric Guitar
199.5,0.0,59,127,Electric Guitar
199.5,0.0,64,127,Electric Guitar
199.5,0.0,52,127,Electric Guitar
199.5,0.0,46,127,Electric Guitar
199.5,0.0,54,127,Electric Guitar
199.5,0.0,70,127,Electric Guitar
199.5,0.0,42,89,Electric Guitar
199.5,0.0,64,77,Electric Guitar
199.5,0.0,56,77,Electric Guitar
199.5,0.0,59,77,Electric Guitar
199.75,0.12195121951219512,38,77,Electric Guitar
199.75,0.0,54,82,Electric Guitar
199.75,0.0,70,82,Electric Guitar
199.75,0.0,36,84,Electric Guitar
199.75,0.0,42,84,Electric Guitar
199.75,0.0,64,72,Electric Guitar
199.75,0.0,56,72,Electric Guitar
199.75,0.0,59,72,Electric Guitar
200.0,1.3414634146341462,76,104,Electric Guitar
200.0,1.3414634146341462,72,104,Electric Guitar
200.0,1.3414634146341462,71,104,Electric Guitar
200.0,1.3414634146341462,67,104,Electric Guitar
200.0,7.804878048780488,57,102,Electric Guitar
200.0,0.12195121951219512,36,127,Electric Guitar
200.0,0.12195121951219512,57,127,Electric Guitar
200.0,0.0,42,99,Electric Guitar
200.0,0.0,54,99,Electric Guitar
200.0,0.0,70,99,Electric Guitar
200.0,0.0,36,110,Electric Guitar
200.0,0.0,42,110,Electric Guitar
200.0,0.0,64,104,Electric Guitar
200.0,0.0,55,104,Electric Guitar
200.0,0.0,60,104,Electric Guitar
200.25,0.0,42,82,Electric Guitar
200.25,0.0,54,82,Electric Guitar
200.25,0.0,70,82,Electric Guitar
200.25,0.0,42,63,Electric Guitar
200.25,0.0,64,72,Electric Guitar
200.25,0.0,60,72,Electric Guitar
200.25,0.0,55,72,Electric Guitar
200.5,0.0,81,117,Electric Guitar
200.5,0.0,46,124,Electric Guitar
200.5,0.0,54,124,Electric Guitar
200.5,0.0,70,124,Electric Guitar
200.5,0.0,42,93,Electric Guitar
200.5,0.0,64,65,Electric Guitar
200.5,0.0,55,65,Electric Guitar
200.5,0.0,60,65,Electric Guitar
200.75,0.12195121951219512,83,108,Electric Guitar
200.75,0.0,54,60,Electric Guitar
200.75,0.0,70,60,Electric Guitar
200.75,0.0,36,85,Electric Guitar
200.75,0.0,42,85,Electric Guitar
200.75,0.0,64,71,Electric Guitar
200.75,0.0,60,71,Electric Guitar
200.75,0.0,55,71,Electric Guitar
201.0,1.4634146341463414,81,113,Electric Guitar
201.0,0.12195121951219512,36,127,Electric Guitar
201.0,0.12195121951219512,38,127,Electric Guitar
201.0,0.0,42,94,Electric Guitar
201.0,0.0,54,94,Electric Guitar
201.0,0.0,70,94,Electric Guitar
201.0,0.0,42,106,Electric Guitar
201.0,0.0,40,106,Electric Guitar
201.0,0.0,64,105,Electric Guitar
201.0,0.0,55,105,Electric Guitar
201.0,0.0,60,105,Electric Guitar
201.25,0.0,42,90,Electric Guitar
201.25,0.0,54,90,Electric Guitar
201.25,0.0,70,90,Electric Guitar
201.25,0.0,42,53,Electric Guitar
201.25,0.0,64,76,Electric Guitar
201.25,0.0,60,76,Electric Guitar
201.25,0.0,55,76,Electric Guitar
201.5,0.0,46,127,Electric Guitar
201.5,0.0,54,127,Electric Guitar
201.5,0.0,70,127,Electric Guitar
201.5,0.0,36,102,Electric Guitar
201.5,0.0,42,102,Electric Guitar
201.5,0.0,64,71,Electric Guitar
201.5,0.0,60,71,Electric Guitar
201.5,0.0,55,71,Electric Guitar
201.75,0.0,54,82,Electric Guitar
201.75,0.0,70,82,Electric Guitar
201.75,0.0,36,84,Electric Guitar
201.75,0.0,42,84,Electric Guitar
201.75,0.0,64,61,Electric Guitar
201.75,0.0,60,61,Electric Guitar
201.75,0.0,55,61,Electric Guitar
202.0,0.12195121951219512,36,127,Electric Guitar
202.0,0.0,42,99,Electric Guitar
202.0,0.0,54,99,Electric Guitar
202.0,0.0,70,99,Electric Guitar
202.0,0.0,44,117,Electric Guitar
202.0,0.0,64,105,Electric Guitar
202.0,0.0,55,105,Electric Guitar
202.0,0.0,60,105,Electric Guitar
202.25,0.0,42,82,Electric Guitar
202.25,0.0,54,82,Electric Guitar
202.25,0.0,70,82,Electric Guitar
202.25,0.0,42,63,Electric Guitar
202.25,0.0,64,65,Electric Guitar
202.25,0.0,60,65,Electric Guitar
202.25,0.0,55,65,Electric Guitar
202.5,0.0,46,124,Electric Guitar
202.5,0.0,54,124,Electric Guitar
202.5,0.0,70,124,Electric Guitar
202.5,0.0,36,100,Electric Guitar
202.5,0.0,42,100,Electric Guitar
202.5,0.0,60,74,Electric Guitar
202.5,0.0,64,74,Electric Guitar
202.5,0.0,55,74,Electric Guitar
202.75,0.0,54,60,Electric Guitar
202.75,0.0,70,60,Electric Guitar
202.75,0.0,42,71,Electric Guitar
202.75,0.0,64,75,Electric Guitar
202.75,0.0,55,75,Electric Guitar
202.75,0.0,60,75,Electric Guitar
203.0,0.12195121951219512,36,127,Electric Guitar
203.0,0.12195121951219512,38,127,Electric Guitar
203.0,0.0,42,94,Electric Guitar
203.0,0.0,54,94,Electric Guitar
203.0,0.0,70,94,Electric Guitar
203.0,0.0,44,124,Electric Guitar
203.0,0.0,40,124,Electric Guitar
203.0,0.0,55,98,Electric Guitar
203.0,0.0,60,98,Electric Guitar
203.0,0.0,64,98,Electric Guitar
203.25,0.0,42,90,Electric Guitar
203.25,0.0,54,90,Electric Guitar
203.25,0.0,70,90,Electric Guitar
203.25,0.0,36,86,Electric Guitar
203.25,0.0,42,86,Electric Guitar
203.25,0.0,64,71,Electric Guitar
203.25,0.0,60,71,Electric Guitar
203.25,0.0,55,71,Electric Guitar
203.5,1.2195121951219512,78,94,Electric Guitar
203.5,1.1382113821138211,74,98,Electric Guitar
203.5,1.1382113821138211,67,98,Electric Guitar
203.5,1.1382113821138211,71,98,Electric Guitar
203.5,0.0,46,127,Electric Guitar
203.5,0.0,54,127,Electric Guitar
203.5,0.0,70,127,Electric Guitar
203.5,0.0,42,89,Electric Guitar
203.5,0.0,64,71,Electric Guitar
203.5,0.0,60,71,Electric Guitar
203.5,0.0,55,71,Electric Guitar
203.75,0.0,54,82,Electric Guitar
203.75,0.0,70,82,Electric Guitar
203.75,0.0,36,84,Electric Guitar
203.75,0.0,42,84,Electric Guitar
203.75,0.0,64,77,Electric Guitar
203.75,0.0,55,77,Electric Guitar
203.75,0.0,60,77,Electric Guitar
204.0,0.12195121951219512,36,127,Electric Guitar
204.0,0.0,42,99,Electric Guitar
204.0,0.0,54,99,Electric Guitar
204.0,0.0,70,99,Electric Guitar
204.0,0.0,36,110,Electric Guitar
204.0,0.0,42,110,Electric Guitar
204.0,0.0,57,102,Electric Guitar
204.0,0.0,66,102,Electric Guitar
204.0,0.0,62,102,Electric Guitar
204.25,0.0,42,82,Electric Guitar
204.25,0.0,54,82,Electric Guitar
204.25,0.0,70,82,Electric Guitar
204.25,0.0,42,63,Electric Guitar
204.25,0.0,62,70,Electric Guitar
204.25,0.0,66,70,Electric Guitar
204.25,0.0,57,70,Electric Guitar
204.5,0.0,46,124,Electric Guitar
204.5,0.0,54,124,Electric Guitar
204.5,0.0,70,124,Electric Guitar
204.5,0.0,42,93,Electric Guitar
204.5,0.0,66,72,Electric Guitar
204.5,0.0,57,72,Electric Guitar
204.5,0.0,62,72,Electric Guitar
204.75,0.0,54,60,Electric Guitar
204.75,0.0,70,60,Electric Guitar
204.75,0.0,36,85,Electric Guitar
204.75,0.0,42,85,Electric Guitar
204.75,0.0,66,67,Electric Guitar
204.75,0.0,62,67,Electric Guitar
204.75,0.0,57,67,Electric Guitar
205.0,0.12195121951219512,36,127,Electric Guitar
205.0,0.12195121951219512,38,127,Electric Guitar
205.0,0.0,42,94,Electric Guitar
205.0,0.0,54,94,Electric Guitar
205.0,0.0,70,94,Electric Guitar
205.0,0.0,42,106,Electric Guitar
205.0,0.0,40,106,Electric Guitar
205.0,0.0,62,99,Electric Guitar
205.0,0.0,57,99,Electric Guitar
205.0,0.0,66,99,Electric Guitar
205.25,0.0,42,90,Electric Guitar
205.25,0.0,54,90,Electric Guitar
205.25,0.0,70,90,Electric Guitar
205.25,0.0,42,53,Electric Guitar
205.25,0.0,62,78,Electric Guitar
205.25,0.0,66,78,Electric Guitar
205.25,0.0,57,78,Electric Guitar
205.5,0.0,46,127,Electric Guitar
205.5,0.0,54,127,Electric Guitar
205.5,0.0,70,127,Electric Guitar
205.5,0.0,36,102,Electric Guitar
205.5,0.0,42,102,Electric Guitar
205.5,0.0,66,72,Electric Guitar
205.5,0.0,62,72,Electric Guitar
205.5,0.0,57,72,Electric Guitar
205.75,0.0,54,82,Electric Guitar
205.75,0.0,70,82,Electric Guitar
205.75,0.0,36,84,Electric Guitar
205.75,0.0,42,84,Electric Guitar
205.75,0.0,66,71,Electric Guitar
205.75,0.0,57,71,Electric Guitar
205.75,0.0,62,71,Electric Guitar
206.0,0.12195121951219512,36,127,Electric Guitar
206.0,0.0,42,99,Electric Guitar
206.0,0.0,54,99,Electric Guitar
206.0,0.0,70,99,Electric Guitar
206.0,0.0,44,117,Electric Guitar
206.0,0.0,66,100,Electric Guitar
206.0,0.0,57,100,Electric Guitar
206.0,0.0,62,100,Electric Guitar
206.25,0.0,42,82,Electric Guitar
206.25,0.0,54,82,Electric Guitar
206.25,0.0,70,82,Electric Guitar
206.25,0.12195121951219512,38,77,Electric Guitar
206.25,0.0,42,63,Electric Guitar
206.25,0.0,66,75,Electric Guitar
206.25,0.0,62,75,Electric Guitar
206.25,0.0,57,75,Electric Guitar
206.5,0.0,46,124,Electric Guitar
206.5,0.0,54,124,Electric Guitar
206.5,0.0,70,124,Electric Guitar
206.5,0.0,36,100,Electric Guitar
206.5,0.0,42,100,Electric Guitar
206.5,0.16260162601626016,81,127,Electric Guitar
206.5,0.16260162601626016,69,127,Electric Guitar
206.5,0.0,66,83,Electric Guitar
206.5,0.0,57,83,Electric Guitar
206.5,0.0,62,83,Electric Guitar
206.75,0.0,54,60,Electric Guitar
206.75,0.0,70,60,Electric Guitar
206.75,0.0,42,71,Electric Guitar
206.75,0.0,66,75,Electric Guitar
206.75,0.0,62,75,Electric Guitar
206.75,0.0,57,75,Electric Guitar
207.0,0.12195121951219512,36,127,Electric Guitar
207.0,0.12195121951219512,38,127,Electric Guitar
207.0,0.0,42,94,Electric Guitar
207.0,0.0,54,94,Electric Guitar
207.0,0.0,70,94,Electric Guitar
207.0,0.0,44,124,Electric Guitar
207.0,0.0,40,124,Electric Guitar
207.0,0.16260162601626016,64,127,Electric Guitar
207.0,0.16260162601626016,76,127,Electric Guitar
207.0,0.0,66,102,Electric Guitar
207.0,0.0,62,102,Electric Guitar
207.0,0.0,57,102,Electric Guitar
207.25,0.0,42,90,Electric Guitar
207.25,0.0,54,90,Electric Guitar
207.25,0.0,70,90,Electric Guitar
207.25,0.0,36,86,Electric Guitar
207.25,0.0,42,86,Electric Guitar
207.25,0.12195121951219512,79,127,Electric Guitar
207.25,0.16260162601626016,67,127,Electric Guitar
207.25,0.0,66,68,Electric Guitar
207.25,0.0,57,68,Electric Guitar
207.25,0.0,62,68,Electric Guitar
207.5,0.0,46,127,Electric Guitar
207.5,0.0,54,127,Electric Guitar
207.5,0.0,70,127,Electric Guitar
207.5,0.0,42,89,Electric Guitar
207.5,0.0,66,78,Electric Guitar
207.5,0.0,62,78,Electric Guitar
207.5,0.0,57,78,Electric Guitar
207.75,0.0,54,82,Electric Guitar
207.75,0.0,70,82,Electric Guitar
207.75,0.0,36,84,Electric Guitar
207.75,0.0,42,84,Electric Guitar
207.75,0.16260162601626016,81,127,Electric Guitar
207.75,0.16260162601626016,69,127,Electric Guitar
207.75,0.0,66,77,Electric Guitar
207.75,0.0,62,77,Electric Guitar
207.75,0.0,57,77,Electric Guitar
208.0,0.6504065040650406,76,100,Electric Guitar
208.0,0.4878048780487805,67,105,Electric Guitar
208.0,0.6097560975609756,71,106,Electric Guitar
208.0,0.6097560975609756,72,106,Electric Guitar
208.0,0.12195121951219512,36,127,Electric Guitar
208.0,0.0,42,99,Electric Guitar
208.0,0.0,54,99,Electric Guitar
208.0,0.0,70,99,Electric Guitar
208.0,0.0,36,110,Electric Guitar
208.0,0.0,42,110,Electric Guitar
208.0,0.0,64,104,Electric Guitar
208.0,0.0,55,104,Electric Guitar
208.0,0.0,60,104,Electric Guitar
208.25,0.0,42,82,Electric Guitar
208.25,0.0,54,82,Electric Guitar
208.25,0.0,70,82,Electric Guitar
208.25,0.0,42,63,Electric Guitar
208.25,0.0,64,72,Electric Guitar
208.25,0.0,60,72,Electric Guitar
208.25,0.0,55,72,Electric Guitar
208.5,0.0,46,124,Electric Guitar
208.5,0.0,54,124,Electric Guitar
208.5,0.0,70,124,Electric Guitar
208.5,0.0,42,93,Electric Guitar
208.5,0.0,64,65,Electric Guitar
208.5,0.0,55,65,Electric Guitar
208.5,0.0,60,65,Electric Guitar
208.75,0.0,54,60,Electric Guitar
208.75,0.0,70,60,Electric Guitar
208.75,0.0,36,85,Electric Guitar
208.75,0.0,42,85,Electric Guitar
208.75,0.0,64,71,Electric Guitar
208.75,0.0,60,71,Electric Guitar
208.75,0.0,55,71,Electric Guitar
209.0,0.12195121951219512,36,127,Electric Guitar
209.0,0.12195121951219512,38,127,Electric Guitar
209.0,0.0,42,94,Electric Guitar
209.0,0.0,54,94,Electric Guitar
209.0,0.0,70,94,Electric Guitar
209.0,0.0,42,106,Electric Guitar
209.0,0.0,40,106,Electric Guitar
209.0,0.0,64,105,Electric Guitar
209.0,0.0,55,105,Electric Guitar
209.0,0.0,60,105,Electric Guitar
209.25,0.0,42,90,Electric Guitar
209.25,0.0,54,90,Electric Guitar
209.25,0.0,70,90,Electric Guitar
209.25,0.0,42,53,Electric Guitar
209.25,0.0,64,76,Electric Guitar
209.25,0.0,60,76,Electric Guitar
209.25,0.0,55,76,Electric Guitar
209.5,0.0,46,127,Electric Guitar
209.5,0.0,54,127,Electric Guitar
209.5,0.0,70,127,Electric Guitar
209.5,0.0,36,102,Electric Guitar
209.5,0.0,42,102,Electric Guitar
209.5,0.0,64,71,Electric Guitar
209.5,0.0,60,71,Electric Guitar
209.5,0.0,55,71,Electric Guitar
209.75,0.0,54,82,Electric Guitar
209.75,0.0,70,82,Electric Guitar
209.75,0.0,36,84,Electric Guitar
209.75,0.0,42,84,Electric Guitar
209.75,0.0,64,61,Electric Guitar
209.75,0.0,60,61,Electric Guitar
209.75,0.0,55,61,Electric Guitar
210.0,0.12195121951219512,36,127,Electric Guitar
210.0,0.0,42,99,Electric Guitar
210.0,0.0,54,99,Electric Guitar
210.0,0.0,70,99,Electric Guitar
210.0,0.0,44,117,Electric Guitar
210.0,0.0,64,105,Electric Guitar
210.0,0.0,55,105,Electric Guitar
210.0,0.0,60,105,Electric Guitar
210.25,0.0,42,82,Electric Guitar
210.25,0.0,54,82,Electric Guitar
210.25,0.0,70,82,Electric Guitar
210.25,0.0,42,63,Electric Guitar
210.25,0.0,64,65,Electric Guitar
210.25,0.0,60,65,Electric Guitar
210.25,0.0,55,65,Electric Guitar
210.5,0.0,46,124,Electric Guitar
210.5,0.0,54,124,Electric Guitar
210.5,0.0,70,124,Electric Guitar
210.5,0.0,36,100,Electric Guitar
210.5,0.0,42,100,Electric Guitar
210.5,0.0,60,74,Electric Guitar
210.5,0.0,64,74,Electric Guitar
210.5,0.0,55,74,Electric Guitar
210.75,0.0,54,60,Electric Guitar
210.75,0.0,70,60,Electric Guitar
210.75,0.0,42,71,Electric Guitar
210.75,0.0,64,75,Electric Guitar
210.75,0.0,55,75,Electric Guitar
210.75,0.0,60,75,Electric Guitar
211.0,0.12195121951219512,36,127,Electric Guitar
211.0,0.12195121951219512,38,127,Electric Guitar
211.0,0.0,42,94,Electric Guitar
211.0,0.0,54,94,Electric Guitar
211.0,0.0,70,94,Electric Guitar
211.0,0.0,44,124,Electric Guitar
211.0,0.0,40,124,Electric Guitar
211.0,0.0,55,98,Electric Guitar
211.0,0.0,60,98,Electric Guitar
211.0,0.0,64,98,Electric Guitar
211.25,0.0,42,90,Electric Guitar
211.25,0.0,54,90,Electric Guitar
211.25,0.0,70,90,Electric Guitar
211.25,0.0,36,86,Electric Guitar
211.25,0.0,42,86,Electric Guitar
211.25,0.0,64,71,Electric Guitar
211.25,0.0,60,71,Electric Guitar
211.25,0.0,55,71,Electric Guitar
211.5,0.975609756097561,71,107,Electric Guitar
211.5,0.7317073170731707,78,102,Electric Guitar
211.5,0.6097560975609756,81,100,Electric Guitar
211.5,0.8130081300813008,74,107,Electric Guitar
211.5,0.0,46,127,Electric Guitar
211.5,0.0,54,127,Electric Guitar
211.5,0.0,70,127,Electric Guitar
211.5,0.0,42,89,Electric Guitar
211.5,0.0,64,71,Electric Guitar
211.5,0.0,60,71,Electric Guitar
211.5,0.0,55,71,Electric Guitar
211.75,0.0,54,82,Electric Guitar
211.75,0.0,70,82,Electric Guitar
211.75,0.0,36,84,Electric Guitar
211.75,0.0,42,84,Electric Guitar
211.75,0.0,64,77,Electric Guitar
211.75,0.0,55,77,Electric Guitar
211.75,0.0,60,77,Electric Guitar
212.0,0.12195121951219512,36,127,Electric Guitar
212.0,0.0,42,99,Electric Guitar
212.0,0.0,54,99,Electric Guitar
212.0,0.0,70,99,Electric Guitar
212.0,0.0,36,110,Electric Guitar
212.0,0.0,42,110,Electric Guitar
212.0,0.0,57,102,Electric Guitar
212.0,0.0,66,102,Electric Guitar
212.0,0.0,62,102,Electric Guitar
212.25,0.0,42,82,Electric Guitar
212.25,0.0,54,82,Electric Guitar
212.25,0.0,70,82,Electric Guitar
212.25,0.0,42,63,Electric Guitar
212.25,0.0,62,70,Electric Guitar
212.25,0.0,66,70,Electric Guitar
212.25,0.0,57,70,Electric Guitar
212.5,0.0,46,124,Electric Guitar
212.5,0.0,54,124,Electric Guitar
212.5,0.0,70,124,Electric Guitar
212.5,0.0,42,93,Electric Guitar
212.5,0.0,66,72,Electric Guitar
212.5,0.0,57,72,Electric Guitar
212.5,0.0,62,72,Electric Guitar
212.75,0.0,54,60,Electric Guitar
212.75,0.0,70,60,Electric Guitar
212.75,0.0,36,85,Electric Guitar
212.75,0.0,42,85,Electric Guitar
212.75,0.0,66,67,Electric Guitar
212.75,0.0,62,67,Electric Guitar
212.75,0.0,57,67,Electric Guitar
213.0,0.12195121951219512,36,127,Electric Guitar
213.0,0.12195121951219512,38,127,Electric Guitar
213.0,0.0,42,94,Electric Guitar
213.0,0.0,54,94,Electric Guitar
213.0,0.0,70,94,Electric Guitar
213.0,0.0,42,106,Electric Guitar
213.0,0.0,40,106,Electric Guitar
213.0,0.0,62,99,Electric Guitar
213.0,0.0,57,99,Electric Guitar
213.0,0.0,66,99,Electric Guitar
213.25,0.0,42,90,Electric Guitar
213.25,0.0,54,90,Electric Guitar
213.25,0.0,70,90,Electric Guitar
213.25,0.0,42,53,Electric Guitar
213.25,0.0,62,78,Electric Guitar
213.25,0.0,66,78,Electric Guitar
213.25,0.0,57,78,Electric Guitar
213.5,0.8536585365853658,81,110,Electric Guitar
213.5,0.0,46,127,Electric Guitar
213.5,0.0,54,127,Electric Guitar
213.5,0.0,70,127,Electric Guitar
213.5,0.0,36,102,Electric Guitar
213.5,0.0,42,102,Electric Guitar
213.5,0.0,66,72,Electric Guitar
213.5,0.0,62,72,Electric Guitar
213.5,0.0,57,72,Electric Guitar
213.75,0.0,54,82,Electric Guitar
213.75,0.0,70,82,Electric Guitar
213.75,0.0,36,84,Electric Guitar
213.75,0.0,42,84,Electric Guitar
213.75,0.0,66,71,Electric Guitar
213.75,0.0,57,71,Electric Guitar
213.75,0.0,62,71,Electric Guitar
214.0,0.6504065040650406,74,94,Electric Guitar
214.0,0.12195121951219512,36,127,Electric Guitar
214.0,0.0,42,99,Electric Guitar
214.0,0.0,54,99,Electric Guitar
214.0,0.0,70,99,Electric Guitar
214.0,0.0,44,117,Electric Guitar
214.0,0.12195121951219512,75,127,Electric Guitar
214.0,0.12195121951219512,63,127,Electric Guitar
214.0,0.0,66,100,Electric Guitar
214.0,0.0,57,100,Electric Guitar
214.0,0.0,62,100,Electric Guitar
214.25,0.0,42,82,Electric Guitar
214.25,0.0,54,82,Electric Guitar
214.25,0.0,70,82,Electric Guitar
214.25,0.12195121951219512,38,77,Electric Guitar
214.25,0.0,42,63,Electric Guitar
214.25,0.12195121951219512,74,127,Electric Guitar
214.25,0.12195121951219512,62,127,Electric Guitar
214.25,0.0,66,75,Electric Guitar
214.25,0.0,62,75,Electric Guitar
214.25,0.0,57,75,Electric Guitar
214.5,0.36585365853658536,71,84,Electric Guitar
214.5,0.0,46,124,Electric Guitar
214.5,0.0,54,124,Electric Guitar
214.5,0.0,70,124,Electric Guitar
214.5,0.0,36,100,Electric Guitar
214.5,0.0,42,100,Electric Guitar
214.5,0.12195121951219512,72,127,Electric Guitar
214.5,0.12195121951219512,60,127,Electric Guitar
214.5,0.0,66,83,Electric Guitar
214.5,0.0,57,83,Electric Guitar
214.5,0.0,62,83,Electric Guitar
214.75,0.0,54,60,Electric Guitar
214.75,0.0,70,60,Electric Guitar
214.75,0.0,42,71,Electric Guitar
214.75,0.12195121951219512,74,127,Electric Guitar
214.75,0.12195121951219512,62,127,Electric Guitar
214.75,0.0,66,75,Electric Guitar
214.75,0.0,62,75,Electric Guitar
214.75,0.0,57,75,Electric Guitar
215.0,0.12195121951219512,36,127,Electric Guitar
215.0,0.12195121951219512,38,127,Electric Guitar
215.0,0.0,42,94,Electric Guitar
215.0,0.0,54,94,Electric Guitar
215.0,0.0,70,94,Electric Guitar
215.0,0.0,44,124,Electric Guitar
215.0,0.0,40,124,Electric Guitar
215.0,0.0,66,102,Electric Guitar
215.0,0.0,62,102,Electric Guitar
215.0,0.0,57,102,Electric Guitar
215.25,0.0,42,90,Electric Guitar
215.25,0.0,54,90,Electric Guitar
215.25,0.0,70,90,Electric Guitar
215.25,0.0,36,86,Electric Guitar
215.25,0.0,42,86,Electric Guitar
215.25,0.12195121951219512,72,127,Electric Guitar
215.25,0.12195121951219512,60,127,Electric Guitar
215.25,0.0,66,68,Electric Guitar
215.25,0.0,57,68,Electric Guitar
215.25,0.0,62,68,Electric Guitar
215.5,0.0,46,127,Electric Guitar
215.5,0.0,54,127,Electric Guitar
215.5,0.0,70,127,Electric Guitar
215.5,0.0,42,89,Electric Guitar
215.5,0.12195121951219512,69,127,Electric Guitar
215.5,0.12195121951219512,57,127,Electric Guitar
215.5,0.0,66,78,Electric Guitar
215.5,0.0,62,78,Electric Guitar
215.5,0.0,57,78,Electric Guitar
215.75,0.12195121951219512,38,77,Electric Guitar
215.75,0.0,54,82,Electric Guitar
215.75,0.0,70,82,Electric Guitar
215.75,0.0,36,84,Electric Guitar
215.75,0.0,42,84,Electric Guitar
215.75,0.0,66,77,Electric Guitar
215.75,0.0,62,77,Electric Guitar
215.75,0.0,57,77,Electric Guitar
216.0,0.12195121951219512,33,127,Electric Guitar
216.0,0.0,59,127,Electric Guitar
216.0,0.0,55,127,Electric Guitar
216.0,0.0,60,127,Electric Guitar
216.0,0.0,64,127,Electric Guitar
216.0,0.12195121951219512,45,127,Electric Guitar
216.0,0.12195121951219512,36,127,Electric Guitar
216.0,0.12195121951219512,49,127,Electric Guitar
216.0,0.0,42,127,Electric Guitar
216.0,0.0,36,110,Electric Guitar
216.0,0.0,42,110,Electric Guitar
216.0,0.12195121951219512,81,127,Electric Guitar
216.0,0.12195121951219512,69,127,Electric Guitar
216.0,0.16260162601626016,55,127,Electric Guitar
216.25,0.0,42,127,Electric Guitar
216.25,0.0,42,63,Electric Guitar
216.25,0.24390243902439024,57,112,Electric Guitar
216.5,0.24390243902439024,76,117,Electric Guitar
216.5,0.0,46,127,Electric Guitar
216.5,0.0,42,93,Electric Guitar
216.75,0.0,36,85,Electric Guitar
216.75,0.0,42,85,Electric Guitar
216.75,0.12195121951219512,60,110,Electric Guitar
217.0,0.24390243902439024,28,127,Electric Guitar
217.0,0.16260162601626016,75,110,Electric Guitar
217.0,0.3252032520325203,64,127,Electric Guitar
217.0,0.3252032520325203,45,127,Electric Guitar
217.0,0.3252032520325203,55,127,Electric Guitar
217.0,0.3252032520325203,60,127,Electric Guitar
217.0,0.3252032520325203,59,127,Electric Guitar
217.0,0.12195121951219512,36,127,Electric Guitar
217.0,0.12195121951219512,38,127,Electric Guitar
217.0,0.0,42,127,Electric Guitar
217.0,0.0,42,106,Electric Guitar
217.0,0.0,40,106,Electric Guitar
217.25,0.0,42,127,Electric Guitar
217.25,0.0,42,53,Electric Guitar
217.25,0.0,55,84,Electric Guitar
217.5,0.12195121951219512,31,127,Electric Guitar
217.5,0.0,76,110,Electric Guitar
217.5,0.0,46,127,Electric Guitar
217.5,0.0,36,102,Electric Guitar
217.5,0.0,42,102,Electric Guitar
217.5,0.0,55,102,Electric Guitar
217.75,0.36585365853658536,33,127,Electric Guitar
217.75,0.36585365853658536,79,110,Electric Guitar
217.75,0.0,60,127,Electric Guitar
217.75,0.0,55,127,Electric Guitar
217.75,0.0,45,127,Electric Guitar
217.75,0.0,59,127,Electric Guitar
217.75,0.0,64,127,Electric Guitar
217.75,0.0,36,84,Electric Guitar
217.75,0.0,42,84,Electric Guitar
217.75,0.0,55,110,Electric Guitar
218.0,0.12195121951219512,36,127,Electric Guitar
218.0,0.0,42,127,Electric Guitar
218.0,0.0,44,117,Electric Guitar
218.0,0.12195121951219512,55,112,Electric Guitar
218.25,0.0,42,127,Electric Guitar
218.25,0.0,42,63,Electric Guitar
218.25,0.12195121951219512,57,108,Electric Guitar
218.5,0.24390243902439024,36,127,Electric Guitar
218.5,0.24390243902439024,77,108,Electric Guitar
218.5,0.36585365853658536,55,127,Electric Guitar
218.5,0.36585365853658536,64,127,Electric Guitar
218.5,0.36585365853658536,59,127,Electric Guitar
218.5,0.36585365853658536,60,127,Electric Guitar
218.5,0.36585365853658536,45,127,Electric Guitar
218.5,0.0,46,127,Electric Guitar
218.5,0.0,36,100,Electric Guitar
218.5,0.0,42,100,Electric Guitar
218.5,0.0,55,84,Electric Guitar
218.75,0.0,42,71,Electric Guitar
218.75,0.0,55,102,Electric Guitar
219.0,0.12195121951219512,38,127,Electric Guitar
219.0,0.24390243902439024,76,108,Electric Guitar
219.0,0.12195121951219512,36,127,Electric Guitar
219.0,0.12195121951219512,38,127,Electric Guitar
219.0,0.0,42,127,Electric Guitar
219.0,0.0,44,124,Electric Guitar
219.0,0.0,40,124,Electric Guitar
219.0,0.12195121951219512,55,110,Electric Guitar
219.25,0.12195121951219512,39,127,Electric Guitar
219.25,0.0,42,127,Electric Guitar
219.25,0.0,36,86,Electric Guitar
219.25,0.0,42,86,Electric Guitar
219.25,0.12195121951219512,57,110,Electric Guitar
219.5,0.24390243902439024,40,127,Electric Guitar
219.5,0.24390243902439024,77,117,Electric Guitar
219.5,0.0,55,127,Electric Guitar
219.5,0.0,59,127,Electric Guitar
219.5,0.0,60,127,Electric Guitar
219.5,0.0,64,127,Electric Guitar
219.5,0.0,45,127,Electric Guitar
219.5,0.0,46,127,Electric Guitar
219.5,0.0,42,89,Electric Guitar
219.5,0.0,55,84,Electric Guitar
219.75,0.0,36,84,Electric Guitar
219.75,0.0,42,84,Electric Guitar
219.75,0.0,55,102,Electric Guitar
220.0,0.12195121951219512,29,127,Electric Guitar
220.0,0.24390243902439024,76,108,Electric Guitar
220.0,0.0,64,127,Electric Guitar
220.0,0.0,60,127,Electric Guitar
220.0,0.0,57,127,Electric Guitar
220.0,0.0,67,127,Electric Guitar
220.0,0.12195121951219512,41,127,Electric Guitar
220.0,0.12195121951219512,36,127,Electric Guitar
220.0,0.0,42,127,Electric Guitar
220.0,0.0,36,110,Electric Guitar
220.0,0.0,42,110,Electric Guitar
220.0,0.16260162601626016,55,127,Electric Guitar
220.25,0.0,42,127,Electric Guitar
220.25,0.0,42,63,Electric Guitar
220.25,0.24390243902439024,57,112,Electric Guitar
220.5,0.24390243902439024,77,113,Electric Guitar
220.5,0.0,46,127,Electric Guitar
220.5,0.0,42,93,Electric Guitar
220.75,0.0,36,85,Electric Guitar
220.75,0.0,42,85,Electric Guitar
220.75,0.12195121951219512,60,110,Electric Guitar
221.0,0.12195121951219512,29,127,Electric Guitar
221.0,0.24390243902439024,76,104,Electric Guitar
221.0,0.3252032520325203,64,127,Electric Guitar
221.0,0.3252032520325203,60,127,Electric Guitar
221.0,0.3252032520325203,57,127,Electric Guitar
221.0,0.3252032520325203,67,127,Electric Guitar
221.0,0.3252032520325203,41,127,Electric Guitar
221.0,0.12195121951219512,36,127,Electric Guitar
221.0,0.12195121951219512,38,127,Electric Guitar
221.0,0.0,42,127,Electric Guitar
221.0,0.0,42,106,Electric Guitar
221.0,0.0,40,106,Electric Guitar
221.25,0.0,33,127,Electric Guitar
221.25,0.0,42,127,Electric Guitar
221.25,0.0,42,53,Electric Guitar
221.25,0.0,55,84,Electric Guitar
221.5,0.0,36,127,Electric Guitar
221.5,0.12195121951219512,74,115,Electric Guitar
221.5,0.0,46,127,Electric Guitar
221.5,0.0,36,102,Electric Guitar
221.5,0.0,42,102,Electric Guitar
221.5,0.0,55,102,Electric Guitar
221.75,0.24390243902439024,40,127,Electric Guitar
221.75,0.36585365853658536,72,113,Electric Guitar
221.75,0.0,57,127,Electric Guitar
221.75,0.0,41,127,Electric Guitar
221.75,0.0,67,127,Electric Guitar
221.75,0.0,64,127,Electric Guitar
221.75,0.0,60,127,Electric Guitar
221.75,0.0,36,84,Electric Guitar
221.75,0.0,42,84,Electric Guitar
221.75,0.0,55,110,Electric Guitar
222.0,0.12195121951219512,36,127,Electric Guitar
222.0,0.0,42,127,Electric Guitar
222.0,0.0,44,117,Electric Guitar
222.0,0.12195121951219512,55,112,Electric Guitar
222.25,0.0,36,127,Electric Guitar
222.25,0.0,42,127,Electric Guitar
222.25,0.12195121951219512,38,77,Electric Guitar
222.25,0.0,42,63,Electric Guitar
222.25,0.12195121951219512,57,108,Electric Guitar
222.5,0.24390243902439024,38,127,Electric Guitar
222.5,0.36585365853658536,64,127,Electric Guitar
222.5,0.36585365853658536,57,127,Electric Guitar
222.5,0.36585365853658536,41,127,Electric Guitar
222.5,0.36585365853658536,67,127,Electric Guitar
222.5,0.36585365853658536,60,127,Electric Guitar
222.5,0.0,46,127,Electric Guitar
222.5,0.0,36,100,Electric Guitar
222.5,0.0,42,100,Electric Guitar
222.5,0.0,55,84,Electric Guitar
222.75,0.0,42,71,Electric Guitar
222.75,0.0,55,102,Electric Guitar
223.0,0.16260162601626016,36,127,Electric Guitar
223.0,0.12195121951219512,69,112,Electric Guitar
223.0,0.12195121951219512,36,127,Electric Guitar
223.0,0.12195121951219512,38,127,Electric Guitar
223.0,0.0,42,127,Electric Guitar
223.0,0.0,44,124,Electric Guitar
223.0,0.0,40,124,Electric Guitar
223.0,0.12195121951219512,55,110,Electric Guitar
223.25,0.36585365853658536,33,127,Electric Guitar
223.25,0.24390243902439024,72,117,Electric Guitar
223.25,0.0,42,127,Electric Guitar
223.25,0.0,36,86,Electric Guitar
223.25,0.0,42,86,Electric Guitar
223.25,0.12195121951219512,57,110,Electric Guitar
223.5,0.0,57,127,Electric Guitar
223.5,0.0,64,127,Electric Guitar
223.5,0.0,60,127,Electric Guitar
223.5,0.0,67,127,Electric Guitar
223.5,0.0,41,127,Electric Guitar
223.5,0.0,46,127,Electric Guitar
223.5,0.0,42,89,Electric Guitar
223.5,0.0,55,84,Electric Guitar
223.75,0.36585365853658536,76,124,Electric Guitar
223.75,0.0,36,84,Electric Guitar
223.75,0.0,42,84,Electric Guitar
223.75,0.0,55,102,Electric Guitar
224.0,0.16260162601626016,26,127,Electric Guitar
224.0,0.0,64,127,Electric Guitar
224.0,0.0,53,127,Electric Guitar
224.0,0.0,60,127,Electric Guitar
224.0,0.0,57,127,Electric Guitar
224.0,0.12195121951219512,38,127,Electric Guitar
224.0,0.12195121951219512,36,127,Electric Guitar
224.0,0.0,42,127,Electric Guitar
224.0,0.0,36,110,Electric Guitar
224.0,0.0,42,110,Electric Guitar
224.0,0.16260162601626016,55,127,Electric Guitar
224.25,0.0,42,127,Electric Guitar
224.25,0.0,42,63,Electric Guitar
224.25,0.24390243902439024,57,112,Electric Guitar
224.5,0.12195121951219512,74,122,Electric Guitar
224.5,0.0,46,127,Electric Guitar
224.5,0.0,42,93,Electric Guitar
224.75,0.0,36,85,Electric Guitar
224.75,0.0,42,85,Electric Guitar
224.75,0.12195121951219512,60,110,Electric Guitar
225.0,0.12195121951219512,38,127,Electric Guitar
225.0,0.12195121951219512,74,113,Electric Guitar
225.0,0.3252032520325203,38,127,Electric Guitar
225.0,0.3252032520325203,64,127,Electric Guitar
225.0,0.3252032520325203,53,127,Electric Guitar
225.0,0.3252032520325203,60,127,Electric Guitar
225.0,0.3252032520325203,57,127,Electric Guitar
225.0,0.12195121951219512,36,127,Electric Guitar
225.0,0.12195121951219512,38,127,Electric Guitar
225.0,0.0,42,127,Electric Guitar
225.0,0.0,42,106,Electric Guitar
225.0,0.0,40,106,Electric Guitar
225.25,0.12195121951219512,33,127,Electric Guitar
225.25,0.24390243902439024,72,117,Electric Guitar
225.25,0.0,42,127,Electric Guitar
225.25,0.0,42,53,Electric Guitar
225.25,0.0,55,84,Electric Guitar
225.5,0.12195121951219512,32,127,Electric Guitar
225.5,0.0,46,127,Electric Guitar
225.5,0.0,36,102,Electric Guitar
225.5,0.0,42,102,Electric Guitar
225.5,0.0,55,102,Electric Guitar
225.75,0.36585365853658536,31,127,Electric Guitar
225.75,0.3252032520325203,76,122,Electric Guitar
225.75,0.0,53,127,Electric Guitar
225.75,0.0,57,127,Electric Guitar
225.75,0.0,59,127,Electric Guitar
225.75,0.0,64,127,Electric Guitar
225.75,0.12195121951219512,43,127,Electric Guitar
225.75,0.0,36,84,Electric Guitar
225.75,0.0,42,84,Electric Guitar
225.75,0.0,55,110,Electric Guitar
226.0,0.12195121951219512,36,127,Electric Guitar
226.0,0.0,42,127,Electric Guitar
226.0,0.0,44,117,Electric Guitar
226.0,0.12195121951219512,55,112,Electric Guitar
226.25,0.0,42,127,Electric Guitar
226.25,0.0,42,63,Electric Guitar
226.25,0.12195121951219512,57,108,Electric Guitar
226.5,0.24390243902439024,35,127,Electric Guitar
226.5,0.12195121951219512,74,113,Electric Guitar
226.5,0.36585365853658536,57,127,Electric Guitar
226.5,0.36585365853658536,64,127,Electric Guitar
226.5,0.36585365853658536,53,127,Electric Guitar
226.5,0.36585365853658536,59,127,Electric Guitar
226.5,0.36585365853658536,43,127,Electric Guitar
226.5,0.0,46,127,Electric Guitar
226.5,0.0,36,100,Electric Guitar
226.5,0.0,42,100,Electric Guitar
226.5,0.0,55,84,Electric Guitar
226.75,0.0,42,71,Electric Guitar
226.75,0.0,55,102,Electric Guitar
227.0,0.24390243902439024,38,127,Electric Guitar
227.0,0.16260162601626016,74,110,Electric Guitar
227.0,0.12195121951219512,36,127,Electric Guitar
227.0,0.12195121951219512,38,127,Electric Guitar
227.0,0.0,42,127,Electric Guitar
227.0,0.0,44,124,Electric Guitar
227.0,0.0,40,124,Electric Guitar
227.0,0.12195121951219512,55,110,Electric Guitar
227.25,0.0,42,127,Electric Guitar
227.25,0.0,36,86,Electric Guitar
227.25,0.0,42,86,Electric Guitar
227.25,0.12195121951219512,57,110,Electric Guitar
227.5,0.12195121951219512,72,112,Electric Guitar
227.5,0.0,43,127,Electric Guitar
227.5,0.0,53,127,Electric Guitar
227.5,0.0,57,127,Electric Guitar
227.5,0.0,59,127,Electric Guitar
227.5,0.0,64,127,Electric Guitar
227.5,0.0,46,127,Electric Guitar
227.5,0.0,42,89,Electric Guitar
227.5,0.0,55,84,Electric Guitar
227.75,0.0,36,84,Electric Guitar
227.75,0.0,42,84,Electric Guitar
227.75,0.0,55,102,Electric Guitar
228.0,0.16260162601626016,36,127,Electric Guitar
228.0,0.3252032520325203,74,112,Electric Guitar
228.0,0.0,59,127,Electric Guitar
228.0,0.0,60,127,Electric Guitar
228.0,0.0,55,127,Electric Guitar
228.0,0.0,64,127,Electric Guitar
228.0,0.12195121951219512,48,127,Electric Guitar
228.0,0.12195121951219512,36,127,Electric Guitar
228.0,0.0,42,127,Electric Guitar
228.0,0.0,36,110,Electric Guitar
228.0,0.0,42,110,Electric Guitar
228.0,0.16260162601626016,55,127,Electric Guitar
228.25,0.0,42,127,Electric Guitar
228.25,0.0,42,63,Electric Guitar
228.25,0.24390243902439024,57,112,Electric Guitar
228.5,0.16260162601626016,76,113,Electric Guitar
228.5,0.0,46,127,Electric Guitar
228.5,0.0,42,93,Electric Guitar
228.75,0.0,36,85,Electric Guitar
228.75,0.0,42,85,Electric Guitar
228.75,0.12195121951219512,60,110,Electric Guitar
229.0,0.12195121951219512,40,127,Electric Guitar
229.0,1.4634146341463414,76,120,Electric Guitar
229.0,0.3252032520325203,55,127,Electric Guitar
229.0,0.3252032520325203,60,127,Electric Guitar
229.0,0.3252032520325203,59,127,Electric Guitar
229.0,0.24390243902439024,48,127,Electric Guitar
229.0,0.24390243902439024,64,127,Electric Guitar
229.0,0.12195121951219512,36,127,Electric Guitar
229.0,0.12195121951219512,38,127,Electric Guitar
229.0,0.0,42,127,Electric Guitar
229.0,0.0,42,106,Electric Guitar
229.0,0.0,40,106,Electric Guitar
229.25,0.12195121951219512,43,127,Electric Guitar
229.25,0.0,42,127,Electric Guitar
229.25,0.0,42,53,Electric Guitar
229.25,0.0,55,84,Electric Guitar
229.5,0.12195121951219512,48,127,Electric Guitar
229.5,0.0,46,127,Electric Guitar
229.5,0.0,36,102,Electric Guitar
229.5,0.0,42,102,Electric Guitar
229.5,0.0,55,102,Electric Guitar
229.75,0.3252032520325203,47,127,Electric Guitar
229.75,0.0,57,127,Electric Guitar
229.75,0.0,66,127,Electric Guitar
229.75,0.0,62,127,Electric Guitar
229.75,0.0,59,127,Electric Guitar
229.75,0.0,47,127,Electric Guitar
229.75,0.0,36,84,Electric Guitar
229.75,0.0,42,84,Electric Guitar
229.75,0.0,55,110,Electric Guitar
230.0,0.12195121951219512,36,127,Electric Guitar
230.0,0.0,42,127,Electric Guitar
230.0,0.0,44,117,Electric Guitar
230.0,0.12195121951219512,62,114,Electric Guitar
230.25,0.0,42,127,Electric Guitar
230.25,0.12195121951219512,38,77,Electric Guitar
230.25,0.0,42,63,Electric Guitar
230.25,0.12195121951219512,63,103,Electric Guitar
230.5,0.12195121951219512,38,127,Electric Guitar
230.5,0.24390243902439024,57,127,Electric Guitar
230.5,0.24390243902439024,47,127,Electric Guitar
230.5,0.24390243902439024,66,127,Electric Guitar
230.5,0.24390243902439024,62,127,Electric Guitar
230.5,0.24390243902439024,59,127,Electric Guitar
230.5,0.0,46,127,Electric Guitar
230.5,0.0,36,100,Electric Guitar
230.5,0.0,42,100,Electric Guitar
230.5,0.12195121951219512,62,96,Electric Guitar
230.75,0.12195121951219512,39,127,Electric Guitar
230.75,0.0,42,71,Electric Guitar
230.75,0.12195121951219512,60,80,Electric Guitar
231.0,0.4878048780487805,40,127,Electric Guitar
231.0,0.12195121951219512,36,127,Electric Guitar
231.0,0.12195121951219512,38,127,Electric Guitar
231.0,0.0,42,127,Electric Guitar
231.0,0.0,44,124,Electric Guitar
231.0,0.0,40,124,Electric Guitar
231.0,0.16260162601626016,62,102,Electric Guitar
231.25,0.36585365853658536,56,127,Electric Guitar
231.25,0.36585365853658536,65,127,Electric Guitar
231.25,0.36585365853658536,59,127,Electric Guitar
231.25,0.36585365853658536,40,127,Electric Guitar
231.25,0.36585365853658536,62,127,Electric Guitar
231.25,0.0,42,127,Electric Guitar
231.25,0.0,36,86,Electric Guitar
231.25,0.0,42,86,Electric Guitar
231.25,0.36585365853658536,60,103,Electric Guitar
231.5,0.0,46,127,Electric Guitar
231.5,0.0,42,89,Electric Guitar
231.75,0.12195121951219512,38,77,Electric Guitar
231.75,0.0,36,84,Electric Guitar
231.75,0.0,42,84,Electric Guitar
232.0,0.12195121951219512,33,127,Electric Guitar
232.0,0.0,59,127,Electric Guitar
232.0,0.0,55,127,Electric Guitar
232.0,0.0,60,127,Electric Guitar
232.0,0.0,64,127,Electric Guitar
232.0,0.12195121951219512,45,127,Electric Guitar
232.0,0.12195121951219512,36,127,Electric Guitar
232.0,0.12195121951219512,57,127,Electric Guitar
232.0,0.0,42,127,Electric Guitar
232.0,0.0,36,110,Electric Guitar
232.0,0.0,42,110,Electric Guitar
232.0,0.16260162601626016,55,127,Electric Guitar
232.25,0.0,42,127,Electric Guitar
232.25,0.0,42,63,Electric Guitar
232.25,0.24390243902439024,57,112,Electric Guitar
232.5,0.24390243902439024,76,117,Electric Guitar
232.5,0.0,46,127,Electric Guitar
232.5,0.0,42,93,Electric Guitar
232.75,0.0,36,85,Electric Guitar
232.75,0.0,42,85,Electric Guitar
232.75,0.12195121951219512,60,110,Electric Guitar
233.0,0.24390243902439024,28,127,Electric Guitar
233.0,0.16260162601626016,75,110,Electric Guitar
233.0,0.3252032520325203,64,127,Electric Guitar
233.0,0.3252032520325203,45,127,Electric Guitar
233.0,0.3252032520325203,55,127,Electric Guitar
233.0,0.3252032520325203,60,127,Electric Guitar
233.0,0.3252032520325203,59,127,Electric Guitar
233.0,0.12195121951219512,36,127,Electric Guitar
233.0,0.12195121951219512,38,127,Electric Guitar
233.0,0.0,42,127,Electric Guitar
233.0,0.0,42,106,Electric Guitar
233.0,0.0,40,106,Electric Guitar
233.25,0.0,42,127,Electric Guitar
233.25,0.0,42,53,Electric Guitar
233.25,0.0,55,84,Electric Guitar
233.5,0.12195121951219512,31,127,Electric Guitar
233.5,0.0,76,110,Electric Guitar
233.5,0.0,46,127,Electric Guitar
233.5,0.0,36,102,Electric Guitar
233.5,0.0,42,102,Electric Guitar
233.5,0.0,55,102,Electric Guitar
233.75,0.36585365853658536,33,127,Electric Guitar
233.75,0.36585365853658536,79,110,Electric Guitar
233.75,0.0,60,127,Electric Guitar
233.75,0.0,55,127,Electric Guitar
233.75,0.0,45,127,Electric Guitar
233.75,0.0,59,127,Electric Guitar
233.75,0.0,64,127,Electric Guitar
233.75,0.0,36,84,Electric Guitar
233.75,0.0,42,84,Electric Guitar
233.75,0.0,55,110,Electric Guitar
234.0,0.12195121951219512,36,127,Electric Guitar
234.0,0.0,42,127,Electric Guitar
234.0,0.0,44,117,Electric Guitar
234.0,0.12195121951219512,55,112,Electric Guitar
234.25,0.0,42,127,Electric Guitar
234.25,0.0,42,63,Electric Guitar
234.25,0.12195121951219512,57,108,Electric Guitar
234.5,0.24390243902439024,36,127,Electric Guitar
234.5,0.24390243902439024,77,108,Electric Guitar
234.5,0.36585365853658536,55,127,Electric Guitar
234.5,0.36585365853658536,64,127,Electric Guitar
234.5,0.36585365853658536,59,127,Electric Guitar
234.5,0.36585365853658536,60,127,Electric Guitar
234.5,0.36585365853658536,45,127,Electric Guitar
234.5,0.0,46,127,Electric Guitar
234.5,0.0,36,100,Electric Guitar
234.5,0.0,42,100,Electric Guitar
234.5,0.0,55,84,Electric Guitar
234.75,0.0,42,71,Electric Guitar
234.75,0.0,55,102,Electric Guitar
235.0,0.12195121951219512,38,127,Electric Guitar
235.0,0.24390243902439024,76,108,Electric Guitar
235.0,0.12195121951219512,36,127,Electric Guitar
235.0,0.12195121951219512,38,127,Electric Guitar
235.0,0.0,42,127,Electric Guitar
235.0,0.0,44,124,Electric Guitar
235.0,0.0,40,124,Electric Guitar
235.0,0.12195121951219512,55,110,Electric Guitar
235.25,0.12195121951219512,39,127,Electric Guitar
235.25,0.0,42,127,Electric Guitar
235.25,0.0,36,86,Electric Guitar
235.25,0.0,42,86,Electric Guitar
235.25,0.12195121951219512,57,110,Electric Guitar
235.5,0.24390243902439024,40,127,Electric Guitar
235.5,0.24390243902439024,77,117,Electric Guitar
235.5,0.0,55,127,Electric Guitar
235.5,0.0,59,127,Electric Guitar
235.5,0.0,60,127,Electric Guitar
235.5,0.0,64,127,Electric Guitar
235.5,0.0,45,127,Electric Guitar
235.5,0.0,46,127,Electric Guitar
235.5,0.0,42,89,Electric Guitar
235.5,0.0,55,84,Electric Guitar
235.75,0.0,36,84,Electric Guitar
235.75,0.0,42,84,Electric Guitar
235.75,0.0,55,102,Electric Guitar
236.0,0.12195121951219512,29,127,Electric Guitar
236.0,0.24390243902439024,76,108,Electric Guitar
236.0,0.0,64,127,Electric Guitar
236.0,0.0,60,127,Electric Guitar
236.0,0.0,57,127,Electric Guitar
236.0,0.0,67,127,Electric Guitar
236.0,0.12195121951219512,41,127,Electric Guitar
236.0,0.12195121951219512,36,127,Electric Guitar
236.0,0.0,42,127,Electric Guitar
236.0,0.0,36,110,Electric Guitar
236.0,0.0,42,110,Electric Guitar
236.0,0.16260162601626016,55,127,Electric Guitar
236.25,0.0,42,127,Electric Guitar
236.25,0.0,42,63,Electric Guitar
236.25,0.24390243902439024,57,112,Electric Guitar
236.5,0.24390243902439024,77,113,Electric Guitar
236.5,0.0,46,127,Electric Guitar
236.5,0.0,42,93,Electric Guitar
236.75,0.0,36,85,Electric Guitar
236.75,0.0,42,85,Electric Guitar
236.75,0.12195121951219512,60,110,Electric Guitar
237.0,0.12195121951219512,29,127,Electric Guitar
237.0,0.24390243902439024,76,104,Electric Guitar
237.0,0.3252032520325203,64,127,Electric Guitar
237.0,0.3252032520325203,60,127,Electric Guitar
237.0,0.3252032520325203,57,127,Electric Guitar
237.0,0.3252032520325203,67,127,Electric Guitar
237.0,0.3252032520325203,41,127,Electric Guitar
237.0,0.12195121951219512,36,127,Electric Guitar
237.0,0.12195121951219512,38,127,Electric Guitar
237.0,0.0,42,127,Electric Guitar
237.0,0.0,42,106,Electric Guitar
237.0,0.0,40,106,Electric Guitar
237.25,0.0,33,127,Electric Guitar
237.25,0.0,42,127,Electric Guitar
237.25,0.0,42,53,Electric Guitar
237.25,0.0,55,84,Electric Guitar
237.5,0.0,36,127,Electric Guitar
237.5,0.12195121951219512,74,115,Electric Guitar
237.5,0.0,46,127,Electric Guitar
237.5,0.0,36,102,Electric Guitar
237.5,0.0,42,102,Electric Guitar
237.5,0.0,55,102,Electric Guitar
237.75,0.24390243902439024,40,127,Electric Guitar
237.75,0.36585365853658536,72,113,Electric Guitar
237.75,0.0,57,127,Electric Guitar
237.75,0.0,41,127,Electric Guitar
237.75,0.0,67,127,Electric Guitar
237.75,0.0,64,127,Electric Guitar
237.75,0.0,60,127,Electric Guitar
237.75,0.0,36,84,Electric Guitar
237.75,0.0,42,84,Electric Guitar
237.75,0.0,55,110,Electric Guitar
238.0,0.12195121951219512,36,127,Electric Guitar
238.0,0.0,42,127,Electric Guitar
238.0,0.0,44,117,Electric Guitar
238.0,0.12195121951219512,55,112,Electric Guitar
238.25,0.0,36,127,Electric Guitar
238.25,0.0,42,127,Electric Guitar
238.25,0.12195121951219512,38,77,Electric Guitar
238.25,0.0,42,63,Electric Guitar
238.25,0.12195121951219512,57,108,Electric Guitar
238.5,0.24390243902439024,38,127,Electric Guitar
238.5,0.36585365853658536,64,127,Electric Guitar
238.5,0.36585365853658536,57,127,Electric Guitar
238.5,0.36585365853658536,41,127,Electric Guitar
238.5,0.36585365853658536,67,127,Electric Guitar
238.5,0.36585365853658536,60,127,Electric Guitar
238.5,0.0,46,127,Electric Guitar
238.5,0.0,36,100,Electric Guitar
238.5,0.0,42,100,Electric Guitar
238.5,0.0,55,84,Electric Guitar
238.75,0.0,42,71,Electric Guitar
238.75,0.0,55,102,Electric Guitar
239.0,0.16260162601626016,36,127,Electric Guitar
239.0,0.12195121951219512,69,112,Electric Guitar
239.0,0.12195121951219512,36,127,Electric Guitar
239.0,0.12195121951219512,38,127,Electric Guitar
239.0,0.0,42,127,Electric Guitar
239.0,0.0,44,124,Electric Guitar
239.0,0.0,40,124,Electric Guitar
239.0,0.12195121951219512,55,110,Electric Guitar
239.25,0.36585365853658536,33,127,Electric Guitar
239.25,0.24390243902439024,72,117,Electric Guitar
239.25,0.0,42,127,Electric Guitar
239.25,0.0,36,86,Electric Guitar
239.25,0.0,42,86,Electric Guitar
239.25,0.12195121951219512,57,110,Electric Guitar
239.5,0.0,57,127,Electric Guitar
239.5,0.0,64,127,Electric Guitar
239.5,0.0,60,127,Electric Guitar
239.5,0.0,67,127,Electric Guitar
239.5,0.0,41,127,Electric Guitar
239.5,0.0,46,127,Electric Guitar
239.5,0.0,42,89,Electric Guitar
239.5,0.0,55,84,Electric Guitar
239.75,0.36585365853658536,76,124,Electric Guitar
239.75,0.0,36,84,Electric Guitar
239.75,0.0,42,84,Electric Guitar
239.75,0.0,55,102,Electric Guitar
240.0,0.12195121951219512,26,127,Electric Guitar
240.0,0.0,64,127,Electric Guitar
240.0,0.0,53,127,Electric Guitar
240.0,0.0,60,127,Electric Guitar
240.0,0.0,57,127,Electric Guitar
240.0,0.12195121951219512,38,127,Electric Guitar
240.0,0.12195121951219512,36,127,Electric Guitar
240.0,0.0,42,127,Electric Guitar
240.0,0.0,36,110,Electric Guitar
240.0,0.0,42,110,Electric Guitar
240.0,0.16260162601626016,55,127,Electric Guitar
240.25,0.0,42,127,Electric Guitar
240.25,0.0,42,63,Electric Guitar
240.25,0.24390243902439024,57,112,Electric Guitar
240.5,0.12195121951219512,74,122,Electric Guitar
240.5,0.0,46,127,Electric Guitar
240.5,0.0,42,93,Electric Guitar
240.75,0.0,36,85,Electric Guitar
240.75,0.0,42,85,Electric Guitar
240.75,0.12195121951219512,60,110,Electric Guitar
241.0,0.12195121951219512,26,127,Electric Guitar
241.0,0.12195121951219512,74,113,Electric Guitar
241.0,0.3252032520325203,38,127,Electric Guitar
241.0,0.3252032520325203,64,127,Electric Guitar
241.0,0.3252032520325203,53,127,Electric Guitar
241.0,0.3252032520325203,60,127,Electric Guitar
241.0,0.3252032520325203,57,127,Electric Guitar
241.0,0.12195121951219512,36,127,Electric Guitar
241.0,0.12195121951219512,38,127,Electric Guitar
241.0,0.0,42,127,Electric Guitar
241.0,0.0,42,106,Electric Guitar
241.0,0.0,40,106,Electric Guitar
241.25,0.12195121951219512,29,127,Electric Guitar
241.25,0.24390243902439024,72,117,Electric Guitar
241.25,0.0,42,127,Electric Guitar
241.25,0.0,42,53,Electric Guitar
241.25,0.0,55,84,Electric Guitar
241.5,0.12195121951219512,33,127,Electric Guitar
241.5,0.0,46,127,Electric Guitar
241.5,0.0,36,102,Electric Guitar
241.5,0.0,42,102,Electric Guitar
241.5,0.0,55,102,Electric Guitar
241.75,0.36585365853658536,40,127,Electric Guitar
241.75,0.3252032520325203,76,122,Electric Guitar
241.75,0.0,56,127,Electric Guitar
241.75,0.0,59,127,Electric Guitar
241.75,0.0,62,127,Electric Guitar
241.75,0.0,65,127,Electric Guitar
241.75,0.12195121951219512,40,127,Electric Guitar
241.75,0.0,36,84,Electric Guitar
241.75,0.0,42,84,Electric Guitar
241.75,0.0,55,110,Electric Guitar
242.0,0.12195121951219512,36,127,Electric Guitar
242.0,0.0,42,127,Electric Guitar
242.0,0.0,44,117,Electric Guitar
242.0,0.12195121951219512,55,112,Electric Guitar
242.25,0.0,42,127,Electric Guitar
242.25,0.0,42,63,Electric Guitar
242.25,0.12195121951219512,57,108,Electric Guitar
242.5,0.12195121951219512,35,127,Electric Guitar
242.5,0.16260162601626016,74,113,Electric Guitar
242.5,0.36585365853658536,59,127,Electric Guitar
242.5,0.36585365853658536,65,127,Electric Guitar
242.5,0.36585365853658536,56,127,Electric Guitar
242.5,0.36585365853658536,62,127,Electric Guitar
242.5,0.36585365853658536,40,127,Electric Guitar
242.5,0.0,46,127,Electric Guitar
242.5,0.0,36,100,Electric Guitar
242.5,0.0,42,100,Electric Guitar
242.5,0.0,55,84,Electric Guitar
242.75,0.0,42,71,Electric Guitar
242.75,0.0,55,102,Electric Guitar
243.0,0.4878048780487805,28,127,Electric Guitar
243.0,0.24390243902439024,74,127,Electric Guitar
243.0,0.12195121951219512,36,127,Electric Guitar
243.0,0.12195121951219512,38,127,Electric Guitar
243.0,0.0,42,127,Electric Guitar
243.0,0.0,44,124,Electric Guitar
243.0,0.0,40,124,Electric Guitar
243.0,0.12195121951219512,55,110,Electric Guitar
243.25,0.0,42,127,Electric Guitar
243.25,0.0,36,86,Electric Guitar
243.25,0.0,42,86,Electric Guitar
243.25,0.12195121951219512,57,110,Electric Guitar
243.5,0.12195121951219512,72,122,Electric Guitar
243.5,0.0,40,127,Electric Guitar
243.5,0.0,56,127,Electric Guitar
243.5,0.0,59,127,Electric Guitar
243.5,0.0,62,127,Electric Guitar
243.5,0.0,65,127,Electric Guitar
243.5,0.0,46,127,Electric Guitar
243.5,0.0,42,89,Electric Guitar
243.5,0.0,55,84,Electric Guitar
243.75,0.0,36,84,Electric Guitar
243.75,0.0,42,84,Electric Guitar
243.75,0.0,55,102,Electric Guitar
244.0,0.12195121951219512,33,127,Electric Guitar
244.0,0.16260162601626016,71,117,Electric Guitar
244.0,0.0,59,127,Electric Guitar
244.0,0.0,55,127,Electric Guitar
244.0,0.0,60,127,Electric Guitar
244.0,0.0,64,127,Electric Guitar
244.0,0.12195121951219512,45,127,Electric Guitar
244.0,0.12195121951219512,36,127,Electric Guitar
244.0,0.0,42,127,Electric Guitar
244.0,0.0,36,110,Electric Guitar
244.0,0.0,42,110,Electric Guitar
244.0,0.16260162601626016,55,127,Electric Guitar
244.25,0.0,42,127,Electric Guitar
244.25,0.0,42,63,Electric Guitar
244.25,0.24390243902439024,57,112,Electric Guitar
244.5,0.24390243902439024,72,112,Electric Guitar
244.5,0.0,46,127,Electric Guitar
244.5,0.0,42,93,Electric Guitar
244.75,0.0,36,85,Electric Guitar
244.75,0.0,42,85,Electric Guitar
244.75,0.12195121951219512,60,110,Electric Guitar
245.0,0.12195121951219512,33,127,Electric Guitar
245.0,1.4634146341463414,69,110,Electric Guitar
245.0,0.3252032520325203,64,127,Electric Guitar
245.0,0.3252032520325203,45,127,Electric Guitar
245.0,0.3252032520325203,55,127,Electric Guitar
245.0,0.3252032520325203,60,127,Electric Guitar
245.0,0.3252032520325203,59,127,Electric Guitar
245.0,0.12195121951219512,36,127,Electric Guitar
245.0,0.12195121951219512,38,127,Electric Guitar
245.0,0.0,42,127,Electric Guitar
245.0,0.0,42,106,Electric Guitar
245.0,0.0,40,106,Electric Guitar
245.25,0.12195121951219512,40,127,Electric Guitar
245.25,0.0,42,127,Electric Guitar
245.25,0.0,42,53,Electric Guitar
245.25,0.0,55,84,Electric Guitar
245.5,0.12195121951219512,43,127,Electric Guitar
245.5,0.0,46,127,Electric Guitar
245.5,0.0,36,102,Electric Guitar
245.5,0.0,42,102,Electric Guitar
245.5,0.0,55,102,Electric Guitar
245.75,0.24390243902439024,45,127,Electric Guitar
245.75,0.0,60,127,Electric Guitar
245.75,0.0,55,127,Electric Guitar
245.75,0.0,45,127,Electric Guitar
245.75,0.0,59,127,Electric Guitar
245.75,0.0,64,127,Electric Guitar
245.75,0.0,36,84,Electric Guitar
245.75,0.0,42,84,Electric Guitar
245.75,0.0,55,110,Electric Guitar
246.0,0.12195121951219512,36,127,Electric Guitar
246.0,0.0,42,127,Electric Guitar
246.0,0.0,44,117,Electric Guitar
246.0,0.12195121951219512,55,112,Electric Guitar
246.25,0.36585365853658536,43,127,Electric Guitar
246.25,0.0,42,127,Electric Guitar
246.25,0.12195121951219512,38,77,Electric Guitar
246.25,0.0,42,63,Electric Guitar
246.25,0.12195121951219512,57,108,Electric Guitar
246.5,0.36585365853658536,55,127,Electric Guitar
246.5,0.36585365853658536,64,127,Electric Guitar
246.5,0.36585365853658536,59,127,Electric Guitar
246.5,0.36585365853658536,60,127,Electric Guitar
246.5,0.36585365853658536,45,127,Electric Guitar
246.5,0.0,46,127,Electric Guitar
246.5,0.0,36,100,Electric Guitar
246.5,0.0,42,100,Electric Guitar
246.5,0.0,55,84,Electric Guitar
246.75,0.0,42,71,Electric Guitar
246.75,0.0,55,102,Electric Guitar
247.0,0.12195121951219512,40,127,Electric Guitar
247.0,0.12195121951219512,36,127,Electric Guitar
247.0,0.12195121951219512,38,127,Electric Guitar
247.0,0.0,42,127,Electric Guitar
247.0,0.0,44,124,Electric Guitar
247.0,0.0,40,124,Electric Guitar
247.0,0.12195121951219512,55,110,Electric Guitar
247.25,0.12195121951219512,36,127,Electric Guitar
247.25,0.36585365853658536,55,127,Electric Guitar
247.25,0.36585365853658536,59,127,Electric Guitar
247.25,0.36585365853658536,60,127,Electric Guitar
247.25,0.36585365853658536,64,127,Electric Guitar
247.25,0.36585365853658536,45,127,Electric Guitar
247.25,0.0,42,127,Electric Guitar
247.25,0.0,36,86,Electric Guitar
247.25,0.0,42,86,Electric Guitar
247.25,0.12195121951219512,57,110,Electric Guitar
247.5,0.24390243902439024,33,127,Electric Guitar
247.5,0.0,46,127,Electric Guitar
247.5,0.0,42,89,Electric Guitar
247.5,0.0,55,84,Electric Guitar
247.75,0.12195121951219512,38,77,Electric Guitar
247.75,0.0,36,84,Electric Guitar
247.75,0.0,42,84,Electric Guitar
247.75,0.0,55,102,Electric Guitar
248.0,1.7073170731707317,34,127,Electric Guitar
248.0,0.4878048780487805,74,99,Electric Guitar
248.0,0.4878048780487805,70,99,Electric Guitar
248.0,0.4878048780487805,58,99,Electric Guitar
248.0,0.6097560975609756,69,105,Electric Guitar
248.0,0.6097560975609756,77,105,Electric Guitar
248.0,1.5853658536585367,46,100,Electric Guitar
248.0,0.6097560975609756,69,103,Electric Guitar
248.0,0.4878048780487805,58,94,Electric Guitar
248.0,0.7317073170731707,62,100,Electric Guitar
248.0,0.7317073170731707,65,100,Electric Guitar
248.0,1.7073170731707317,57,127,Electric Guitar
248.0,1.7073170731707317,58,127,Electric Guitar
248.0,1.7073170731707317,46,127,Electric Guitar
248.0,1.7886178861788617,62,127,Electric Guitar
248.0,1.7886178861788617,65,127,Electric Guitar
248.0,0.12195121951219512,36,127,Electric Guitar
248.0,0.12195121951219512,49,127,Electric Guitar
248.0,0.0,42,106,Electric Guitar
248.0,0.0,70,106,Electric Guitar
248.0,0.0,36,110,Electric Guitar
248.0,0.0,42,110,Electric Guitar
248.0,0.6504065040650406,69,127,Electric Guitar
248.0,0.6097560975609756,57,127,Electric Guitar
248.0,1.7073170731707317,62,97,Electric Guitar
248.0,1.7073170731707317,65,97,Electric Guitar
248.0,1.7073170731707317,58,97,Electric Guitar
248.25,0.0,42,93,Electric Guitar
248.25,0.0,70,93,Electric Guitar
248.25,0.0,42,63,Electric Guitar
248.5,0.0,46,124,Electric Guitar
248.5,0.0,70,124,Electric Guitar
248.5,0.0,42,93,Electric Guitar
248.75,0.0,70,60,Electric Guitar
248.75,0.0,36,85,Electric Guitar
248.75,0.0,42,85,Electric Guitar
249.0,0.6097560975609756,77,122,Electric Guitar
249.0,0.12195121951219512,36,127,Electric Guitar
249.0,0.12195121951219512,38,127,Electric Guitar
249.0,0.0,42,102,Electric Guitar
249.0,0.0,70,102,Electric Guitar
249.0,0.0,42,106,Electric Guitar
249.0,0.0,40,106,Electric Guitar
249.25,0.0,42,99,Electric Guitar
249.25,0.0,70,99,Electric Guitar
249.25,0.0,42,53,Electric Guitar
249.5,0.36585365853658536,58,79,Electric Guitar
249.5,0.0,46,127,Electric Guitar
249.5,0.0,70,127,Electric Guitar
249.5,0.0,36,102,Electric Guitar
249.5,0.0,42,102,Electric Guitar
249.75,0.0,70,82,Electric Guitar
249.75,0.0,36,84,Electric Guitar
249.75,0.0,42,84,Electric Guitar
250.0,0.4878048780487805,62,91,Electric Guitar
250.0,0.12195121951219512,36,127,Electric Guitar
250.0,0.0,42,106,Electric Guitar
250.0,0.0,70,106,Electric Guitar
250.0,0.0,44,117,Electric Guitar
250.25,0.0,42,93,Electric Guitar
250.25,0.0,70,93,Electric Guitar
250.25,0.0,42,63,Electric Guitar
250.5,0.16260162601626016,77,102,Electric Guitar
250.5,0.3252032520325203,65,84,Electric Guitar
250.5,0.0,46,124,Electric Guitar
250.5,0.0,70,124,Electric Guitar
250.5,0.0,36,100,Electric Guitar
250.5,0.0,42,100,Electric Guitar
250.75,0.0,70,60,Electric Guitar
250.75,0.0,42,71,Electric Guitar
251.0,0.12195121951219512,79,110,Electric Guitar
251.0,0.0,69,87,Electric Guitar
251.0,0.12195121951219512,36,127,Electric Guitar
251.0,0.12195121951219512,38,127,Electric Guitar
251.0,0.0,42,102,Electric Guitar
251.0,0.0,70,102,Electric Guitar
251.0,0.0,44,124,Electric Guitar
251.0,0.0,40,124,Electric Guitar
251.25,0.0,42,99,Electric Guitar
251.25,0.0,70,99,Electric Guitar
251.25,0.0,36,86,Electric Guitar
251.25,0.0,42,86,Electric Guitar
251.5,1.3414634146341462,33,127,Electric Guitar
251.5,0.4878048780487805,76,102,Electric Guitar
251.5,0.4878048780487805,72,102,Electric Guitar
251.5,0.4878048780487805,71,102,Electric Guitar
251.5,0.6097560975609756,57,110,Electric Guitar
251.5,0.4878048780487805,67,110,Electric Guitar
251.5,0.16260162601626016,76,120,Electric Guitar
251.5,0.4878048780487805,64,107,Electric Guitar
251.5,0.36585365853658536,60,105,Electric Guitar
251.5,0.36585365853658536,57,105,Electric Guitar
251.5,1.8292682926829267,45,105,Electric Guitar
251.5,2.1951219512195124,45,127,Electric Guitar
251.5,2.1951219512195124,60,127,Electric Guitar
251.5,2.1951219512195124,64,127,Electric Guitar
251.5,2.1951219512195124,55,127,Electric Guitar
251.5,0.0,46,127,Electric Guitar
251.5,0.0,70,127,Electric Guitar
251.5,0.0,42,89,Electric Guitar
251.5,0.6097560975609756,57,127,Electric Guitar
251.5,0.6097560975609756,69,127,Electric Guitar
251.5,2.1951219512195124,64,88,Electric Guitar
251.5,2.1951219512195124,57,88,Electric Guitar
251.5,2.1951219512195124,60,88,Electric Guitar
251.75,0.0,70,82,Electric Guitar
251.75,0.0,36,84,Electric Guitar
251.75,0.0,42,84,Electric Guitar
252.0,0.24390243902439024,75,112,Electric Guitar
252.0,0.12195121951219512,36,127,Electric Guitar
252.0,0.0,42,106,Electric Guitar
252.0,0.0,70,106,Electric Guitar
252.0,0.0,36,110,Electric Guitar
252.0,0.0,42,110,Electric Guitar
252.25,0.0,42,93,Electric Guitar
252.25,0.0,70,93,Electric Guitar
252.25,0.0,42,63,Electric Guitar
252.5,1.7886178861788617,76,117,Electric Guitar
252.5,0.24390243902439024,86,127,Electric Guitar
252.5,0.0,46,124,Electric Guitar
252.5,0.0,70,124,Electric Guitar
252.5,0.0,42,93,Electric Guitar
252.75,0.0,70,60,Electric Guitar
252.75,0.0,36,85,Electric Guitar
252.75,0.0,42,85,Electric Guitar
253.0,0.24390243902439024,88,127,Electric Guitar
253.0,0.12195121951219512,36,127,Electric Guitar
253.0,0.12195121951219512,38,127,Electric Guitar
253.0,0.0,42,102,Electric Guitar
253.0,0.0,70,102,Electric Guitar
253.0,0.0,42,106,Electric Guitar
253.0,0.0,40,106,Electric Guitar
253.25,0.0,42,99,Electric Guitar
253.25,0.0,70,99,Electric Guitar
253.25,0.0,42,53,Electric Guitar
253.5,0.4878048780487805,84,127,Electric Guitar
253.5,0.36585365853658536,67,107,Electric Guitar
253.5,0.4878048780487805,76,107,Electric Guitar
253.5,0.0,46,127,Electric Guitar
253.5,0.0,70,127,Electric Guitar
253.5,0.0,36,102,Electric Guitar
253.5,0.0,42,102,Electric Guitar
253.75,0.0,70,82,Electric Guitar
253.75,0.0,36,84,Electric Guitar
253.75,0.0,42,84,Electric Guitar
254.0,0.12195121951219512,36,127,Electric Guitar
254.0,0.0,42,106,Electric Guitar
254.0,0.0,70,106,Electric Guitar
254.0,0.0,44,117,Electric Guitar
254.25,0.12195121951219512,38,127,Electric Guitar
254.25,0.0,42,93,Electric Guitar
254.25,0.0,70,93,Electric Guitar
254.25,0.12195121951219512,38,77,Electric Guitar
254.25,0.0,42,63,Electric Guitar
254.5,0.12195121951219512,39,127,Electric Guitar
254.5,0.24390243902439024,81,127,Electric Guitar
254.5,0.24390243902439024,72,94,Electric Guitar
254.5,0.0,46,124,Electric Guitar
254.5,0.0,70,124,Electric Guitar
254.5,0.0,36,100,Electric Guitar
254.5,0.0,42,100,Electric Guitar
254.75,0.12195121951219512,40,127,Electric Guitar
254.75,0.0,70,60,Electric Guitar
254.75,0.0,42,71,Electric Guitar
255.0,0.4878048780487805,43,127,Electric Guitar
255.0,0.24390243902439024,75,127,Electric Guitar
255.0,0.0,67,87,Electric Guitar
255.0,0.12195121951219512,36,127,Electric Guitar
255.0,0.12195121951219512,38,127,Electric Guitar
255.0,0.0,42,102,Electric Guitar
255.0,0.0,70,102,Electric Guitar
255.0,0.0,44,124,Electric Guitar
255.0,0.0,40,124,Electric Guitar
255.25,0.0,42,99,Electric Guitar
255.25,0.0,70,99,Electric Guitar
255.25,0.0,36,86,Electric Guitar
255.25,0.0,42,86,Electric Guitar
255.5,0.975609756097561,74,127,Electric Guitar
255.5,0.0,46,127,Electric Guitar
255.5,0.0,70,127,Electric Guitar
255.5,0.0,42,89,Electric Guitar
255.75,0.0,70,82,Electric Guitar
255.75,0.0,36,84,Electric Guitar
255.75,0.0,42,84,Electric Guitar
256.0,0.975609756097561,35,127,Electric Guitar
256.0,0.4878048780487805,59,105,Electric Guitar
256.0,0.36585365853658536,69,102,Electric Guitar
256.0,0.36585365853658536,78,102,Electric Guitar
256.0,0.36585365853658536,74,102,Electric Guitar
256.0,0.36585365853658536,71,98,Electric Guitar
256.0,0.4878048780487805,47,104,Electric Guitar
256.0,0.4878048780487805,57,104,Electric Guitar
256.0,0.4878048780487805,66,104,Electric Guitar
256.0,0.4878048780487805,59,102,Electric Guitar
256.0,0.4878048780487805,62,102,Electric Guitar
256.0,0.975609756097561,59,127,Electric Guitar
256.0,0.975609756097561,47,127,Electric Guitar
256.0,0.975609756097561,57,127,Electric Guitar
256.0,0.975609756097561,62,127,Electric Guitar
256.0,0.975609756097561,66,127,Electric Guitar
256.0,0.12195121951219512,36,127,Electric Guitar
256.0,0.0,42,106,Electric Guitar
256.0,0.0,70,106,Electric Guitar
256.0,0.0,36,110,Electric Guitar
256.0,0.0,42,110,Electric Guitar
256.0,0.36585365853658536,54,127,Electric Guitar
256.0,0.36585365853658536,66,127,Electric Guitar
256.0,0.975609756097561,62,94,Electric Guitar
256.0,0.975609756097561,59,94,Electric Guitar
256.0,0.975609756097561,66,94,Electric Guitar
256.25,0.0,42,93,Electric Guitar
256.25,0.0,70,93,Electric Guitar
256.25,0.0,42,63,Electric Guitar
256.5,0.0,46,124,Electric Guitar
256.5,0.0,70,124,Electric Guitar
256.5,0.0,42,93,Electric Guitar
256.75,0.0,70,60,Electric Guitar
256.75,0.0,36,85,Electric Guitar
256.75,0.0,42,85,Electric Guitar
257.0,0.6504065040650406,74,127,Electric Guitar
257.0,0.12195121951219512,36,127,Electric Guitar
257.0,0.12195121951219512,38,127,Electric Guitar
257.0,0.0,42,102,Electric Guitar
257.0,0.0,70,102,Electric Guitar
257.0,0.0,42,106,Electric Guitar
257.0,0.0,40,106,Electric Guitar
257.25,0.0,42,99,Electric Guitar
257.25,0.0,70,99,Electric Guitar
257.25,0.0,42,53,Electric Guitar
257.5,0.24390243902439024,76,127,Electric Guitar
257.5,0.0,46,127,Electric Guitar
257.5,0.0,70,127,Electric Guitar
257.5,0.0,36,102,Electric Guitar
257.5,0.0,42,102,Electric Guitar
257.75,0.0,70,82,Electric Guitar
257.75,0.0,36,84,Electric Guitar
257.75,0.0,42,84,Electric Guitar
258.0,0.975609756097561,28,127,Electric Guitar
258.0,0.36585365853658536,68,95,Electric Guitar
258.0,0.36585365853658536,77,95,Electric Guitar
258.0,0.36585365853658536,71,95,Electric Guitar
258.0,0.36585365853658536,74,100,Electric Guitar
258.0,0.4878048780487805,52,102,Electric Guitar
258.0,0.24390243902439024,78,127,Electric Guitar
258.0,0.36585365853658536,56,101,Electric Guitar
258.0,0.36585365853658536,65,101,Electric Guitar
258.0,0.36585365853658536,40,101,Electric Guitar
258.0,0.3252032520325203,62,102,Electric Guitar
258.0,0.36585365853658536,59,98,Electric Guitar
258.0,0.975609756097561,62,127,Electric Guitar
258.0,0.975609756097561,59,127,Electric Guitar
258.0,0.975609756097561,65,127,Electric Guitar
258.0,0.975609756097561,43,127,Electric Guitar
258.0,0.975609756097561,56,127,Electric Guitar
258.0,0.12195121951219512,36,127,Electric Guitar
258.0,0.0,42,106,Electric Guitar
258.0,0.0,70,106,Electric Guitar
258.0,0.0,44,117,Electric Guitar
258.0,0.36585365853658536,56,127,Electric Guitar
258.0,0.4878048780487805,68,127,Electric Guitar
258.0,0.975609756097561,62,105,Electric Guitar
258.0,0.975609756097561,65,105,Electric Guitar
258.0,0.975609756097561,56,105,Electric Guitar
258.25,0.0,42,93,Electric Guitar
258.25,0.0,70,93,Electric Guitar
258.25,0.0,42,63,Electric Guitar
258.5,0.24390243902439024,74,113,Electric Guitar
258.5,0.24390243902439024,80,127,Electric Guitar
258.5,0.0,46,124,Electric Guitar
258.5,0.0,70,124,Electric Guitar
258.5,0.0,36,100,Electric Guitar
258.5,0.0,42,100,Electric Guitar
258.75,0.0,70,60,Electric Guitar
258.75,0.0,42,71,Electric Guitar
259.0,0.16260162601626016,76,115,Electric Guitar
259.0,0.24390243902439024,83,127,Electric Guitar
259.0,0.12195121951219512,36,127,Electric Guitar
259.0,0.12195121951219512,38,127,Electric Guitar
259.0,0.0,42,102,Electric Guitar
259.0,0.0,70,102,Electric Guitar
259.0,0.0,44,124,Electric Guitar
259.0,0.0,40,124,Electric Guitar
259.25,0.0,42,99,Electric Guitar
259.25,0.0,70,99,Electric Guitar
259.25,0.0,36,86,Electric Guitar
259.25,0.0,42,86,Electric Guitar
259.5,0.24390243902439024,72,122,Electric Guitar
259.5,0.975609756097561,81,127,Electric Guitar
259.5,0.0,46,127,Electric Guitar
259.5,0.0,70,127,Electric Guitar
259.5,0.0,42,89,Electric Guitar
259.75,0.0,70,82,Electric Guitar
259.75,0.0,36,84,Electric Guitar
259.75,0.0,42,84,Electric Guitar
260.0,1.0975609756097562,33,127,Electric Guitar
260.0,0.24390243902439024,72,104,Electric Guitar
260.0,0.24390243902439024,71,104,Electric Guitar
260.0,0.24390243902439024,67,104,Electric Guitar
260.0,0.36585365853658536,57,105,Electric Guitar
260.0,0.36585365853658536,76,102,Electric Guitar
260.0,0.24390243902439024,71,113,Electric Guitar
260.0,0.36585365853658536,64,98,Electric Guitar
260.0,0.36585365853658536,45,98,Electric Guitar
260.0,0.36585365853658536,59,103,Electric Guitar
260.0,0.36585365853658536,60,103,Electric Guitar
260.0,0.36585365853658536,55,103,Electric Guitar
260.0,1.951219512195122,45,127,Electric Guitar
260.0,1.951219512195122,55,127,Electric Guitar
260.0,1.951219512195122,60,127,Electric Guitar
260.0,1.951219512195122,64,127,Electric Guitar
260.0,0.12195121951219512,36,127,Electric Guitar
260.0,0.0,42,106,Electric Guitar
260.0,0.0,70,106,Electric Guitar
260.0,0.0,36,110,Electric Guitar
260.0,0.0,42,110,Electric Guitar
260.0,0.3252032520325203,57,127,Electric Guitar
260.0,0.36585365853658536,69,127,Electric Guitar
260.0,1.951219512195122,64,98,Electric Guitar
260.0,1.951219512195122,57,98,Electric Guitar
260.0,1.951219512195122,60,98,Electric Guitar
260.25,0.0,42,93,Electric Guitar
260.25,0.0,70,93,Electric Guitar
260.25,0.0,42,63,Electric Guitar
260.5,0.8536585365853658,72,117,Electric Guitar
260.5,0.0,46,124,Electric Guitar
260.5,0.0,70,124,Electric Guitar
260.5,0.0,42,93,Electric Guitar
260.75,0.0,70,60,Electric Guitar
260.75,0.0,36,85,Electric Guitar
260.75,0.0,42,85,Electric Guitar
261.0,0.12195121951219512,36,127,Electric Guitar
261.0,0.12195121951219512,38,127,Electric Guitar
261.0,0.0,42,102,Electric Guitar
261.0,0.0,70,102,Electric Guitar
261.0,0.0,42,106,Electric Guitar
261.0,0.0,40,106,Electric Guitar
261.25,0.0,42,99,Electric Guitar
261.25,0.0,70,99,Electric Guitar
261.25,0.0,42,53,Electric Guitar
261.5,0.24390243902439024,83,119,Electric Guitar
261.5,0.24390243902439024,86,127,Electric Guitar
261.5,0.24390243902439024,55,94,Electric Guitar
261.5,0.0,46,127,Electric Guitar
261.5,0.0,70,127,Electric Guitar
261.5,0.0,36,102,Electric Guitar
261.5,0.0,42,102,Electric Guitar
261.75,0.0,70,82,Electric Guitar
261.75,0.0,36,84,Electric Guitar
261.75,0.0,42,84,Electric Guitar
262.0,0.16260162601626016,79,92,Electric Guitar
262.0,0.24390243902439024,88,127,Electric Guitar
262.0,0.12195121951219512,57,96,Electric Guitar
262.0,0.12195121951219512,36,127,Electric Guitar
262.0,0.0,42,106,Electric Guitar
262.0,0.0,70,106,Electric Guitar
262.0,0.0,44,117,Electric Guitar
262.25,0.12195121951219512,38,127,Electric Guitar
262.25,0.0,42,93,Electric Guitar
262.25,0.0,70,93,Electric Guitar
262.25,0.12195121951219512,38,77,Electric Guitar
262.25,0.0,42,63,Electric Guitar
262.5,0.24390243902439024,40,127,Electric Guitar
262.5,0.24390243902439024,81,105,Electric Guitar
262.5,0.4878048780487805,91,127,Electric Guitar
262.5,0.16260162601626016,60,111,Electric Guitar
262.5,0.16260162601626016,57,111,Electric Guitar
262.5,0.16260162601626016,64,111,Electric Guitar
262.5,0.0,46,124,Electric Guitar
262.5,0.0,70,124,Electric Guitar
262.5,0.0,36,100,Electric Guitar
262.5,0.0,42,100,Electric Guitar
262.75,0.0,70,60,Electric Guitar
262.75,0.0,42,71,Electric Guitar
263.0,0.24390243902439024,43,127,Electric Guitar
263.0,0.0,76,98,Electric Guitar
263.0,0.12195121951219512,36,127,Electric Guitar
263.0,0.12195121951219512,38,127,Electric Guitar
263.0,0.0,42,102,Electric Guitar
263.0,0.0,70,102,Electric Guitar
263.0,0.0,44,124,Electric Guitar
263.0,0.0,40,124,Electric Guitar
263.25,0.0,42,99,Electric Guitar
263.25,0.0,70,99,Electric Guitar
263.25,0.0,36,86,Electric Guitar
263.25,0.0,42,86,Electric Guitar
263.5,0.24390243902439024,45,127,Electric Guitar
263.5,0.975609756097561,93,127,Electric Guitar
263.5,0.0,46,127,Electric Guitar
263.5,0.0,70,127,Electric Guitar
263.5,0.0,42,89,Electric Guitar
263.75,0.12195121951219512,38,77,Electric Guitar
263.75,0.0,70,82,Electric Guitar
263.75,0.0,36,84,Electric Guitar
263.75,0.0,42,84,Electric Guitar
264.0,0.975609756097561,46,127,Electric Guitar
264.0,0.8130081300813008,74,100,Electric Guitar
264.0,0.6504065040650406,70,95,Electric Guitar
264.0,0.6504065040650406,77,95,Electric Guitar
264.0,1.5853658536585367,58,98,Electric Guitar
264.0,0.4878048780487805,69,105,Electric Guitar
264.0,1.2195121951219512,46,91,Electric Guitar
264.0,0.16260162601626016,58,98,Electric Guitar
264.0,0.24390243902439024,69,96,Electric Guitar
264.0,0.24390243902439024,62,96,Electric Guitar
264.0,0.3252032520325203,65,103,Electric Guitar
264.0,1.7073170731707317,58,127,Electric Guitar
264.0,1.7073170731707317,69,127,Electric Guitar
264.0,1.7073170731707317,46,127,Electric Guitar
264.0,1.7073170731707317,62,127,Electric Guitar
264.0,1.7073170731707317,65,127,Electric Guitar
264.0,0.12195121951219512,36,127,Electric Guitar
264.0,0.12195121951219512,57,127,Electric Guitar
264.0,0.0,42,106,Electric Guitar
264.0,0.0,70,106,Electric Guitar
264.0,0.0,36,110,Electric Guitar
264.0,0.0,42,110,Electric Guitar
264.0,0.36585365853658536,69,127,Electric Guitar
264.0,0.24390243902439024,57,127,Electric Guitar
264.0,1.7073170731707317,62,97,Electric Guitar
264.0,1.7073170731707317,65,97,Electric Guitar
264.0,1.7073170731707317,58,97,Electric Guitar
264.25,0.0,42,93,Electric Guitar
264.25,0.0,70,93,Electric Guitar
264.25,0.0,42,63,Electric Guitar
264.5,0.3252032520325203,58,73,Electric Guitar
264.5,0.0,46,124,Electric Guitar
264.5,0.0,70,124,Electric Guitar
264.5,0.0,42,93,Electric Guitar
264.75,0.0,70,60,Electric Guitar
264.75,0.0,36,85,Electric Guitar
264.75,0.0,42,85,Electric Guitar
265.0,0.6097560975609756,77,122,Electric Guitar
265.0,0.16260162601626016,62,86,Electric Guitar
265.0,0.12195121951219512,36,127,Electric Guitar
265.0,0.12195121951219512,38,127,Electric Guitar
265.0,0.0,42,102,Electric Guitar
265.0,0.0,70,102,Electric Guitar
265.0,0.0,42,106,Electric Guitar
265.0,0.0,40,106,Electric Guitar
265.25,0.0,42,99,Electric Guitar
265.25,0.0,70,99,Electric Guitar
265.25,0.0,42,53,Electric Guitar
265.5,0.8130081300813008,69,102,Electric Guitar
265.5,0.24390243902439024,93,127,Electric Guitar
265.5,0.12195121951219512,58,88,Electric Guitar
265.5,0.12195121951219512,69,88,Electric Guitar
265.5,0.16260162601626016,62,98,Electric Guitar
265.5,0.16260162601626016,65,98,Electric Guitar
265.5,0.0,46,127,Electric Guitar
265.5,0.0,70,127,Electric Guitar
265.5,0.0,36,102,Electric Guitar
265.5,0.0,42,102,Electric Guitar
265.75,0.0,70,82,Electric Guitar
265.75,0.0,36,84,Electric Guitar
265.75,0.0,42,84,Electric Guitar
266.0,0.3252032520325203,70,102,Electric Guitar
266.0,0.24390243902439024,98,127,Electric Guitar
266.0,0.12195121951219512,36,127,Electric Guitar
266.0,0.0,42,106,Electric Guitar
266.0,0.0,70,106,Electric Guitar
266.0,0.0,44,117,Electric Guitar
266.25,0.12195121951219512,46,127,Electric Guitar
266.25,0.0,42,93,Electric Guitar
266.25,0.0,70,93,Electric Guitar
266.25,0.0,42,63,Electric Guitar
266.5,0.12195121951219512,41,127,Electric Guitar
266.5,0.24390243902439024,74,96,Electric Guitar
266.5,0.16260162601626016,77,102,Electric Guitar
266.5,0.4878048780487805,96,127,Electric Guitar
266.5,0.0,46,124,Electric Guitar
266.5,0.0,70,124,Electric Guitar
266.5,0.0,36,100,Electric Guitar
266.5,0.0,42,100,Electric Guitar
266.75,0.6097560975609756,34,127,Electric Guitar
266.75,0.0,70,60,Electric Guitar
266.75,0.0,42,71,Electric Guitar
267.0,0.0,77,91,Electric Guitar
267.0,0.12195121951219512,79,110,Electric Guitar
267.0,0.12195121951219512,36,127,Electric Guitar
267.0,0.12195121951219512,38,127,Electric Guitar
267.0,0.0,42,102,Electric Guitar
267.0,0.0,70,102,Electric Guitar
267.0,0.0,44,124,Electric Guitar
267.0,0.0,40,124,Electric Guitar
267.25,0.0,42,99,Electric Guitar
267.25,0.0,70,99,Electric Guitar
267.25,0.0,36,86,Electric Guitar
267.25,0.0,42,86,Electric Guitar
267.5,0.6097560975609756,67,102,Electric Guitar
267.5,0.6097560975609756,71,102,Electric Guitar
267.5,0.6097560975609756,72,102,Electric Guitar
267.5,0.6504065040650406,76,102,Electric Guitar
267.5,1.6260162601626016,57,96,Electric Guitar
267.5,0.16260162601626016,76,120,Electric Guitar
267.5,1.4634146341463414,100,127,Electric Guitar
267.5,0.36585365853658536,64,92,Electric Guitar
267.5,0.36585365853658536,60,92,Electric Guitar
267.5,0.36585365853658536,57,92,Electric Guitar
267.5,0.36585365853658536,67,92,Electric Guitar
267.5,1.1382113821138211,45,103,Electric Guitar
267.5,2.1951219512195124,45,127,Electric Guitar
267.5,2.1951219512195124,64,127,Electric Guitar
267.5,2.1951219512195124,60,127,Electric Guitar
267.5,2.1951219512195124,69,127,Electric Guitar
267.5,0.0,46,127,Electric Guitar
267.5,0.0,70,127,Electric Guitar
267.5,0.0,42,89,Electric Guitar
267.5,0.4878048780487805,69,127,Electric Guitar
267.5,0.4878048780487805,57,127,Electric Guitar
267.5,2.1951219512195124,64,88,Electric Guitar
267.5,2.1951219512195124,57,88,Electric Guitar
267.5,2.1951219512195124,60,88,Electric Guitar
267.75,0.0,70,82,Electric Guitar
267.75,0.0,36,84,Electric Guitar
267.75,0.0,42,84,Electric Guitar
268.0,0.7317073170731707,33,127,Electric Guitar
268.0,0.24390243902439024,75,112,Electric Guitar
268.0,0.12195121951219512,36,127,Electric Guitar
268.0,0.0,42,106,Electric Guitar
268.0,0.0,70,106,Electric Guitar
268.0,0.0,36,110,Electric Guitar
268.0,0.0,42,110,Electric Guitar
268.25,0.0,42,93,Electric Guitar
268.25,0.0,70,93,Electric Guitar
268.25,0.0,42,63,Electric Guitar
268.5,0.7317073170731707,76,117,Electric Guitar
268.5,0.36585365853658536,57,88,Electric Guitar
268.5,0.0,46,124,Electric Guitar
268.5,0.0,70,124,Electric Guitar
268.5,0.0,42,93,Electric Guitar
268.75,0.0,70,60,Electric Guitar
268.75,0.0,36,85,Electric Guitar
268.75,0.0,42,85,Electric Guitar
269.0,0.16260162601626016,60,96,Electric Guitar
269.0,0.12195121951219512,36,127,Electric Guitar
269.0,0.12195121951219512,38,127,Electric Guitar
269.0,0.0,42,102,Electric Guitar
269.0,0.0,70,102,Electric Guitar
269.0,0.0,42,106,Electric Guitar
269.0,0.0,40,106,Electric Guitar
269.25,0.0,42,99,Electric Guitar
269.25,0.0,70,99,Electric Guitar
269.25,0.0,42,53,Electric Guitar
269.5,0.24390243902439024,83,100,Electric Guitar
269.5,0.16260162601626016,64,102,Electric Guitar
269.5,0.12195121951219512,60,64,Electric Guitar
269.5,0.12195121951219512,57,64,Electric Guitar
269.5,0.0,46,127,Electric Guitar
269.5,0.0,70,127,Electric Guitar
269.5,0.0,36,102,Electric Guitar
269.5,0.0,42,102,Electric Guitar
269.75,0.0,70,82,Electric Guitar
269.75,0.0,36,84,Electric Guitar
269.75,0.0,42,84,Electric Guitar
270.0,0.12195121951219512,28,127,Electric Guitar
270.0,0.24390243902439024,79,100,Electric Guitar
270.0,0.12195121951219512,36,127,Electric Guitar
270.0,0.0,42,106,Electric Guitar
270.0,0.0,70,106,Electric Guitar
270.0,0.0,44,117,Electric Guitar
270.25,0.12195121951219512,32,127,Electric Guitar
270.25,0.0,42,93,Electric Guitar
270.25,0.0,70,93,Electric Guitar
270.25,0.12195121951219512,38,77,Electric Guitar
270.25,0.0,42,63,Electric Guitar
270.5,0.12195121951219512,33,127,Electric Guitar
270.5,0.0,81,110,Electric Guitar
270.5,0.12195121951219512,76,124,Electric Guitar
270.5,0.4878048780487805,93,127,Electric Guitar
270.5,0.7317073170731707,64,106,Electric Guitar
270.5,0.7317073170731707,57,106,Electric Guitar
270.5,0.7317073170731707,45,106,Electric Guitar
270.5,0.7317073170731707,60,106,Electric Guitar
270.5,0.7317073170731707,67,106,Electric Guitar
270.5,0.0,46,124,Electric Guitar
270.5,0.0,70,124,Electric Guitar
270.5,0.0,36,100,Electric Guitar
270.5,0.0,42,100,Electric Guitar
270.75,0.24390243902439024,36,127,Electric Guitar
270.75,0.0,70,60,Electric Guitar
270.75,0.0,42,71,Electric Guitar
271.0,0.12195121951219512,76,124,Electric Guitar
271.0,0.12195121951219512,36,127,Electric Guitar
271.0,0.12195121951219512,38,127,Electric Guitar
271.0,0.0,42,102,Electric Guitar
271.0,0.0,70,102,Electric Guitar
271.0,0.0,44,124,Electric Guitar
271.0,0.0,40,124,Electric Guitar
271.25,0.12195121951219512,33,127,Electric Guitar
271.25,0.0,42,99,Electric Guitar
271.25,0.0,70,99,Electric Guitar
271.25,0.0,36,86,Electric Guitar
271.25,0.0,42,86,Electric Guitar
271.5,0.24390243902439024,36,127,Electric Guitar
271.5,0.12195121951219512,76,112,Electric Guitar
271.5,0.24390243902439024,87,127,Electric Guitar
271.5,0.0,46,127,Electric Guitar
271.5,0.0,70,127,Electric Guitar
271.5,0.0,42,89,Electric Guitar
271.75,0.0,70,82,Electric Guitar
271.75,0.0,36,84,Electric Guitar
271.75,0.0,42,84,Electric Guitar
272.0,0.12195121951219512,35,127,Electric Guitar
272.0,0.7317073170731707,69,104,Electric Guitar
272.0,0.7317073170731707,78,104,Electric Guitar
272.0,0.6504065040650406,59,103,Electric Guitar
272.0,0.6504065040650406,74,103,Electric Guitar
272.0,0.6504065040650406,71,103,Electric Guitar
272.0,0.16260162601626016,78,117,Electric Guitar
272.0,1.951219512195122,86,127,Electric Guitar
272.0,0.0,59,105,Electric Guitar
272.0,0.0,62,105,Electric Guitar
272.0,0.0,55,105,Electric Guitar
272.0,0.0,66,105,Electric Guitar
272.0,0.0,57,105,Electric Guitar
272.0,0.12195121951219512,47,114,Electric Guitar
272.0,1.951219512195122,59,127,Electric Guitar
272.0,1.951219512195122,62,127,Electric Guitar
272.0,1.951219512195122,47,127,Electric Guitar
272.0,1.951219512195122,69,127,Electric Guitar
272.0,1.951219512195122,66,127,Electric Guitar
272.0,0.12195121951219512,36,127,Electric Guitar
272.0,0.12195121951219512,49,127,Electric Guitar
272.0,0.0,42,106,Electric Guitar
272.0,0.0,70,106,Electric Guitar
272.0,0.0,36,110,Electric Guitar
272.0,0.0,42,110,Electric Guitar
272.0,0.24390243902439024,69,127,Electric Guitar
272.0,0.24390243902439024,57,127,Electric Guitar
272.0,0.0,59,114,Electric Guitar
272.0,0.0,66,114,Electric Guitar
272.0,0.0,63,114,Electric Guitar
272.25,0.0,42,93,Electric Guitar
272.25,0.0,70,93,Electric Guitar
272.25,0.0,42,63,Electric Guitar
272.25,0.0,63,82,Electric Guitar
272.25,0.0,66,82,Electric Guitar
272.25,0.0,59,82,Electric Guitar
272.5,0.16260162601626016,78,113,Electric Guitar
272.5,0.0,46,124,Electric Guitar
272.5,0.0,70,124,Electric Guitar
272.5,0.0,42,93,Electric Guitar
272.5,0.0,63,72,Electric Guitar
272.5,0.0,66,72,Electric Guitar
272.5,0.0,59,72,Electric Guitar
272.75,0.0,70,60,Electric Guitar
272.75,0.0,36,85,Electric Guitar
272.75,0.0,42,85,Electric Guitar
272.75,0.0,63,75,Electric Guitar
272.75,0.0,66,75,Electric Guitar
272.75,0.0,59,75,Electric Guitar
273.0,0.16260162601626016,35,127,Electric Guitar
273.0,0.12195121951219512,78,113,Electric Guitar
273.0,0.3252032520325203,66,103,Electric Guitar
273.0,0.3252032520325203,59,103,Electric Guitar
273.0,0.3252032520325203,62,103,Electric Guitar
273.0,0.3252032520325203,57,103,Electric Guitar
273.0,0.3252032520325203,47,103,Electric Guitar
273.0,0.12195121951219512,36,127,Electric Guitar
273.0,0.12195121951219512,38,127,Electric Guitar
273.0,0.0,42,102,Electric Guitar
273.0,0.0,70,102,Electric Guitar
273.0,0.0,42,106,Electric Guitar
273.0,0.0,40,106,Electric Guitar
273.0,0.0,63,118,Electric Guitar
273.0,0.0,66,118,Electric Guitar
273.0,0.0,59,118,Electric Guitar
273.25,0.12195121951219512,30,127,Electric Guitar
273.25,0.0,42,99,Electric Guitar
273.25,0.0,70,99,Electric Guitar
273.25,0.0,42,53,Electric Guitar
273.25,0.0,66,82,Electric Guitar
273.25,0.0,63,82,Electric Guitar
273.25,0.0,59,82,Electric Guitar
273.5,0.12195121951219512,33,127,Electric Guitar
273.5,0.16260162601626016,78,108,Electric Guitar
273.5,0.0,46,127,Electric Guitar
273.5,0.0,70,127,Electric Guitar
273.5,0.0,36,102,Electric Guitar
273.5,0.0,42,102,Electric Guitar
273.5,0.0,66,89,Electric Guitar
273.5,0.0,63,89,Electric Guitar
273.5,0.0,59,89,Electric Guitar
273.75,0.36585365853658536,35,127,Electric Guitar
273.75,0.0,57,102,Electric Guitar
273.75,0.0,59,102,Electric Guitar
273.75,0.0,62,102,Electric Guitar
273.75,0.0,66,102,Electric Guitar
273.75,0.12195121951219512,47,110,Electric Guitar
273.75,0.0,70,82,Electric Guitar
273.75,0.0,36,84,Electric Guitar
273.75,0.0,42,84,Electric Guitar
273.75,0.0,63,64,Electric Guitar
273.75,0.0,66,64,Electric Guitar
274.0,0.16260162601626016,80,110,Electric Guitar
274.0,0.12195121951219512,36,127,Electric Guitar
274.0,0.0,42,106,Electric Guitar
274.0,0.0,70,106,Electric Guitar
274.0,0.0,44,117,Electric Guitar
274.0,0.0,66,113,Electric Guitar
274.0,0.0,63,113,Electric Guitar
274.0,0.0,59,113,Electric Guitar
274.25,0.0,42,93,Electric Guitar
274.25,0.0,70,93,Electric Guitar
274.25,0.0,42,63,Electric Guitar
274.25,0.0,66,80,Electric Guitar
274.25,0.0,63,80,Electric Guitar
274.25,0.0,59,80,Electric Guitar
274.5,0.16260162601626016,38,127,Electric Guitar
274.5,0.36585365853658536,81,110,Electric Guitar
274.5,0.36585365853658536,62,102,Electric Guitar
274.5,0.36585365853658536,66,102,Electric Guitar
274.5,0.3252032520325203,57,112,Electric Guitar
274.5,0.3252032520325203,59,112,Electric Guitar
274.5,0.24390243902439024,47,110,Electric Guitar
274.5,0.0,46,124,Electric Guitar
274.5,0.0,70,124,Electric Guitar
274.5,0.0,36,100,Electric Guitar
274.5,0.0,42,100,Electric Guitar
274.5,0.0,66,70,Electric Guitar
274.5,0.0,63,70,Electric Guitar
274.5,0.0,59,70,Electric Guitar
274.75,0.0,70,60,Electric Guitar
274.75,0.0,42,71,Electric Guitar
274.75,0.0,63,79,Electric Guitar
274.75,0.0,66,79,Electric Guitar
274.75,0.0,59,79,Electric Guitar
275.0,0.12195121951219512,42,127,Electric Guitar
275.0,0.12195121951219512,36,127,Electric Guitar
275.0,0.12195121951219512,38,127,Electric Guitar
275.0,0.0,42,102,Electric Guitar
275.0,0.0,70,102,Electric Guitar
275.0,0.0,44,124,Electric Guitar
275.0,0.0,40,124,Electric Guitar
275.0,0.0,66,114,Electric Guitar
275.0,0.0,63,114,Electric Guitar
275.0,0.0,59,114,Electric Guitar
275.25,0.12195121951219512,38,127,Electric Guitar
275.25,0.0,42,99,Electric Guitar
275.25,0.0,70,99,Electric Guitar
275.25,0.0,36,86,Electric Guitar
275.25,0.0,42,86,Electric Guitar
275.25,0.0,66,88,Electric Guitar
275.25,0.0,63,88,Electric Guitar
275.25,0.0,59,88,Electric Guitar
275.5,0.24390243902439024,39,127,Electric Guitar
275.5,0.16260162601626016,81,108,Electric Guitar
275.5,0.0,66,87,Electric Guitar
275.5,0.0,57,87,Electric Guitar
275.5,0.0,59,87,Electric Guitar
275.5,0.0,62,87,Electric Guitar
275.5,0.12195121951219512,47,103,Electric Guitar
275.5,0.0,46,127,Electric Guitar
275.5,0.0,70,127,Electric Guitar
275.5,0.0,42,89,Electric Guitar
275.5,0.0,63,87,Electric Guitar
275.5,0.0,66,87,Electric Guitar
275.5,0.0,59,87,Electric Guitar
275.75,0.0,70,82,Electric Guitar
275.75,0.0,36,84,Electric Guitar
275.75,0.0,42,84,Electric Guitar
275.75,0.0,66,85,Electric Guitar
275.75,0.0,63,85,Electric Guitar
275.75,0.0,59,85,Electric Guitar
276.0,0.0,69,88,Electric Guitar
276.0,0.0,69,88,Electric Guitar
276.0,0.12195121951219512,40,127,Electric Guitar
276.0,0.4878048780487805,68,98,Electric Guitar
276.0,0.4878048780487805,74,102,Electric Guitar
276.0,0.4878048780487805,76,102,Electric Guitar
276.0,0.36585365853658536,52,103,Electric Guitar
276.0,1.3414634146341462,80,117,Electric Guitar
276.0,1.4634146341463414,83,127,Electric Guitar
276.0,0.12195121951219512,62,106,Electric Guitar
276.0,0.12195121951219512,64,106,Electric Guitar
276.0,0.12195121951219512,59,106,Electric Guitar
276.0,0.12195121951219512,40,106,Electric Guitar
276.0,0.16260162601626016,68,87,Electric Guitar
276.0,1.951219512195122,62,127,Electric Guitar
276.0,1.951219512195122,64,127,Electric Guitar
276.0,1.951219512195122,68,127,Electric Guitar
276.0,1.951219512195122,40,127,Electric Guitar
276.0,1.951219512195122,71,127,Electric Guitar
276.0,0.12195121951219512,36,127,Electric Guitar
276.0,0.0,42,106,Electric Guitar
276.0,0.0,70,106,Electric Guitar
276.0,0.0,36,110,Electric Guitar
276.0,0.0,42,110,Electric Guitar
276.0,0.24390243902439024,71,127,Electric Guitar
276.0,0.24390243902439024,59,127,Electric Guitar
276.0,0.0,56,116,Electric Guitar
276.0,0.0,59,116,Electric Guitar
276.0,0.0,64,116,Electric Guitar
276.25,0.0,69,66,Electric Guitar
276.25,0.0,42,93,Electric Guitar
276.25,0.0,70,93,Electric Guitar
276.25,0.0,42,63,Electric Guitar
276.25,0.0,56,64,Electric Guitar
276.25,0.0,59,64,Electric Guitar
276.25,0.0,64,64,Electric Guitar
276.3333333333333,0.0,69,66,Electric Guitar
276.5,0.0,69,60,Electric Guitar
276.5,0.0,46,124,Electric Guitar
276.5,0.0,70,124,Electric Guitar
276.5,0.0,42,93,Electric Guitar
276.5,0.0,56,76,Electric Guitar
276.5,0.0,59,76,Electric Guitar
276.5,0.0,64,76,Electric Guitar
276.6666666666667,0.0,69,60,Electric Guitar
276.75,0.0,69,56,Electric Guitar
276.75,0.0,69,56,Electric Guitar
276.75,0.0,70,60,Electric Guitar
276.75,0.0,36,85,Electric Guitar
276.75,0.0,42,85,Electric Guitar
276.75,0.0,59,65,Electric Guitar
276.75,0.0,56,65,Electric Guitar
276.75,0.0,64,65,Electric Guitar
277.0,0.0,69,67,Electric Guitar
277.0,0.0,69,67,Electric Guitar
277.0,0.12195121951219512,40,127,Electric Guitar
277.0,0.3252032520325203,64,105,Electric Guitar
277.0,0.3252032520325203,62,105,Electric Guitar
277.0,0.3252032520325203,40,105,Electric Guitar
277.0,0.24390243902439024,68,102,Electric Guitar
277.0,0.24390243902439024,59,102,Electric Guitar
277.0,0.12195121951219512,36,127,Electric Guitar
277.0,0.12195121951219512,38,127,Electric Guitar
277.0,0.0,42,102,Electric Guitar
277.0,0.0,70,102,Electric Guitar
277.0,0.0,42,106,Electric Guitar
277.0,0.0,40,106,Electric Guitar
277.0,0.0,56,104,Electric Guitar
277.0,0.0,59,104,Electric Guitar
277.0,0.0,64,104,Electric Guitar
277.25,0.0,69,59,Electric Guitar
277.25,0.12195121951219512,35,127,Electric Guitar
277.25,0.0,42,99,Electric Guitar
277.25,0.0,70,99,Electric Guitar
277.25,0.0,42,53,Electric Guitar
277.25,0.0,64,72,Electric Guitar
277.25,0.0,56,72,Electric Guitar
277.25,0.0,59,72,Electric Guitar
277.3333333333333,0.0,69,59,Electric Guitar
277.5,0.0,69,63,Electric Guitar
277.5,0.12195121951219512,38,127,Electric Guitar
277.5,0.0,46,127,Electric Guitar
277.5,0.0,70,127,Electric Guitar
277.5,0.0,36,102,Electric Guitar
277.5,0.0,42,102,Electric Guitar
277.5,0.0,59,71,Electric Guitar
277.5,0.0,64,71,Electric Guitar
277.5,0.0,56,71,Electric Guitar
277.6666666666667,0.0,69,63,Electric Guitar
277.75,0.0,69,66,Electric Guitar
277.75,0.0,69,66,Electric Guitar
277.75,0.36585365853658536,40,127,Electric Guitar
277.75,0.0,59,104,Electric Guitar
277.75,0.0,64,104,Electric Guitar
277.75,0.0,68,104,Electric Guitar
277.75,0.0,62,104,Electric Guitar
277.75,0.12195121951219512,40,98,Electric Guitar
277.75,0.0,70,82,Electric Guitar
277.75,0.0,36,84,Electric Guitar
277.75,0.0,42,84,Electric Guitar
277.75,0.0,64,62,Electric Guitar
277.75,0.0,59,62,Electric Guitar
277.75,0.0,56,62,Electric Guitar
278.0,0.0,69,66,Electric Guitar
278.0,0.0,69,66,Electric Guitar
278.0,0.12195121951219512,36,127,Electric Guitar
278.0,0.0,42,106,Electric Guitar
278.0,0.0,70,106,Electric Guitar
278.0,0.0,44,117,Electric Guitar
278.0,0.0,56,115,Electric Guitar
278.0,0.0,64,115,Electric Guitar
278.0,0.0,59,115,Electric Guitar
278.25,0.0,69,64,Electric Guitar
278.25,0.0,42,93,Electric Guitar
278.25,0.0,70,93,Electric Guitar
278.25,0.12195121951219512,38,77,Electric Guitar
278.25,0.0,42,63,Electric Guitar
278.25,0.0,64,86,Electric Guitar
278.25,0.0,56,86,Electric Guitar
278.25,0.0,59,86,Electric Guitar
278.3333333333333,0.0,69,64,Electric Guitar
278.5,0.0,69,62,Electric Guitar
278.5,0.24390243902439024,35,127,Electric Guitar
278.5,0.36585365853658536,64,104,Electric Guitar
278.5,0.36585365853658536,68,104,Electric Guitar
278.5,0.36585365853658536,62,104,Electric Guitar
278.5,0.3252032520325203,59,110,Electric Guitar
278.5,0.3252032520325203,40,110,Electric Guitar
278.5,0.0,46,124,Electric Guitar
278.5,0.0,70,124,Electric Guitar
278.5,0.0,36,100,Electric Guitar
278.5,0.0,42,100,Electric Guitar
278.5,0.12195121951219512,64,127,Electric Guitar
278.5,0.16260162601626016,76,127,Electric Guitar
278.5,0.0,64,67,Electric Guitar
278.5,0.0,59,67,Electric Guitar
278.5,0.0,56,67,Electric Guitar
278.6666666666667,0.0,69,62,Electric Guitar
278.75,0.0,69,62,Electric Guitar
278.75,0.0,69,62,Electric Guitar
278.75,0.0,70,60,Electric Guitar
278.75,0.0,42,71,Electric Guitar
278.75,0.0,56,74,Electric Guitar
278.75,0.0,64,74,Electric Guitar
278.75,0.0,59,74,Electric Guitar
279.0,0.0,69,66,Electric Guitar
279.0,0.0,69,66,Electric Guitar
279.0,0.24390243902439024,38,127,Electric Guitar
279.0,0.4878048780487805,88,127,Electric Guitar
279.0,0.12195121951219512,36,127,Electric Guitar
279.0,0.12195121951219512,38,127,Electric Guitar
279.0,0.0,42,102,Electric Guitar
279.0,0.0,70,102,Electric Guitar
279.0,0.0,44,124,Electric Guitar
279.0,0.0,40,124,Electric Guitar
279.0,0.16260162601626016,62,127,Electric Guitar
279.0,0.16260162601626016,74,127,Electric Guitar
279.0,0.0,56,109,Electric Guitar
279.0,0.0,64,109,Electric Guitar
279.0,0.0,59,109,Electric Guitar
279.25,0.0,69,62,Electric Guitar
279.25,0.0,42,99,Electric Guitar
279.25,0.0,70,99,Electric Guitar
279.25,0.0,36,86,Electric Guitar
279.25,0.0,42,86,Electric Guitar
279.25,0.16260162601626016,75,127,Electric Guitar
279.25,0.16260162601626016,63,127,Electric Guitar
279.25,0.0,64,84,Electric Guitar
279.25,0.0,56,84,Electric Guitar
279.25,0.0,59,84,Electric Guitar
279.3333333333333,0.0,69,62,Electric Guitar
279.5,0.0,69,54,Electric Guitar
279.5,0.24390243902439024,40,127,Electric Guitar
279.5,0.0,62,86,Electric Guitar
279.5,0.0,59,86,Electric Guitar
279.5,0.0,64,86,Electric Guitar
279.5,0.0,68,86,Electric Guitar
279.5,0.0,40,86,Electric Guitar
279.5,0.0,46,127,Electric Guitar
279.5,0.0,70,127,Electric Guitar
279.5,0.0,42,89,Electric Guitar
279.5,0.0,56,77,Electric Guitar
279.5,0.0,64,77,Electric Guitar
279.5,0.0,59,77,Electric Guitar
279.6666666666667,0.0,69,54,Electric Guitar
279.75,0.0,69,54,Electric Guitar
279.75,0.0,69,54,Electric Guitar
279.75,0.12195121951219512,38,77,Electric Guitar
279.75,0.0,70,82,Electric Guitar
279.75,0.0,36,84,Electric Guitar
279.75,0.0,42,84,Electric Guitar
279.75,0.0,64,89,Electric Guitar
279.75,0.0,56,89,Electric Guitar
279.75,0.0,59,89,Electric Guitar
280.0,0.0,57,88,Electric Guitar
280.0,0.0,57,88,Electric Guitar
280.0,0.16260162601626016,28,127,Electric Guitar
280.0,1.951219512195122,100,127,Electric Guitar
280.0,0.12195121951219512,59,112,Electric Guitar
280.0,0.12195121951219512,64,112,Electric Guitar
280.0,0.12195121951219512,62,112,Electric Guitar
280.0,0.12195121951219512,40,112,Electric Guitar
280.0,0.16260162601626016,68,107,Electric Guitar
280.0,0.12195121951219512,36,127,Electric Guitar
280.0,0.12195121951219512,57,127,Electric Guitar
280.0,0.0,42,106,Electric Guitar
280.0,0.0,70,106,Electric Guitar
280.0,0.0,36,110,Electric Guitar
280.0,0.0,42,110,Electric Guitar
280.0,0.16260162601626016,64,127,Electric Guitar
280.0,0.16260162601626016,76,127,Electric Guitar
280.0,0.0,64,121,Electric Guitar
280.0,0.0,56,121,Electric Guitar
280.0,0.0,59,121,Electric Guitar
280.25,0.0,57,66,Electric Guitar
280.25,0.0,42,93,Electric Guitar
280.25,0.0,70,93,Electric Guitar
280.25,0.0,42,63,Electric Guitar
280.3333333333333,0.0,57,66,Electric Guitar
280.5,0.0,57,60,Electric Guitar
280.5,0.0,46,124,Electric Guitar
280.5,0.0,70,124,Electric Guitar
280.5,0.0,42,93,Electric Guitar
280.6666666666667,0.0,57,60,Electric Guitar
280.75,0.0,57,56,Electric Guitar
280.75,0.0,57,56,Electric Guitar
280.75,0.0,70,60,Electric Guitar
280.75,0.0,36,85,Electric Guitar
280.75,0.0,42,85,Electric Guitar
281.0,0.0,57,67,Electric Guitar
281.0,0.0,57,67,Electric Guitar
281.0,0.12195121951219512,36,127,Electric Guitar
281.0,0.12195121951219512,38,127,Electric Guitar
281.0,0.0,42,102,Electric Guitar
281.0,0.0,70,102,Electric Guitar
281.0,0.0,42,106,Electric Guitar
281.0,0.0,40,106,Electric Guitar
281.25,0.0,57,59,Electric Guitar
281.25,0.0,42,99,Electric Guitar
281.25,0.0,70,99,Electric Guitar
281.25,0.0,42,53,Electric Guitar
281.3333333333333,0.0,57,59,Electric Guitar
281.5,0.0,57,63,Electric Guitar
281.5,0.0,46,127,Electric Guitar
281.5,0.0,70,127,Electric Guitar
281.5,0.0,36,102,Electric Guitar
281.5,0.0,42,102,Electric Guitar
281.6666666666667,0.0,57,63,Electric Guitar
281.75,0.0,57,66,Electric Guitar
281.75,0.0,57,66,Electric Guitar
281.75,0.0,70,82,Electric Guitar
281.75,0.0,36,84,Electric Guitar
281.75,0.0,42,84,Electric Guitar
282.0,0.0,57,66,Electric Guitar
282.0,0.0,57,66,Electric Guitar
282.0,0.36585365853658536,76,122,Electric Guitar
282.0,0.12195121951219512,36,127,Electric Guitar
282.0,0.0,42,106,Electric Guitar
282.0,0.0,70,106,Electric Guitar
282.0,0.0,44,117,Electric Guitar
282.25,0.0,57,64,Electric Guitar
282.25,0.0,42,93,Electric Guitar
282.25,0.0,70,93,Electric Guitar
282.25,0.12195121951219512,38,77,Electric Guitar
282.25,0.0,42,63,Electric Guitar
282.3333333333333,0.0,57,64,Electric Guitar
282.5,0.0,57,62,Electric Guitar
282.5,0.0,46,124,Electric Guitar
282.5,0.0,70,124,Electric Guitar
282.5,0.0,36,100,Electric Guitar
282.5,0.0,42,100,Electric Guitar
282.6666666666667,0.0,57,62,Electric Guitar
282.75,0.0,57,62,Electric Guitar
282.75,0.0,57,62,Electric Guitar
282.75,0.0,70,60,Electric Guitar
282.75,0.0,42,71,Electric Guitar
283.0,0.0,57,66,Electric Guitar
283.0,0.0,57,66,Electric Guitar
283.0,0.36585365853658536,80,122,Electric Guitar
283.0,0.12195121951219512,36,127,Electric Guitar
283.0,0.12195121951219512,38,127,Electric Guitar
283.0,0.0,42,102,Electric Guitar
283.0,0.0,70,102,Electric Guitar
283.0,0.0,44,124,Electric Guitar
283.0,0.0,40,124,Electric Guitar
283.0,0.12195121951219512,76,127,Electric Guitar
283.0,0.12195121951219512,77,127,Electric Guitar
283.0,0.12195121951219512,64,127,Electric Guitar
283.0,0.12195121951219512,65,127,Electric Guitar
283.25,0.0,57,62,Electric Guitar
283.25,0.0,42,99,Electric Guitar
283.25,0.0,70,99,Electric Guitar
283.25,0.0,36,86,Electric Guitar
283.25,0.0,42,86,Electric Guitar
283.25,0.12195121951219512,79,127,Electric Guitar
283.25,0.12195121951219512,67,127,Electric Guitar
283.3333333333333,0.0,57,62,Electric Guitar
283.3333333333333,0.12195121951219512,81,127,Electric Guitar
283.3333333333333,0.12195121951219512,69,127,Electric Guitar
283.5,0.0,57,54,Electric Guitar
283.5,0.0,46,127,Electric Guitar
283.5,0.0,70,127,Electric Guitar
283.5,0.0,42,89,Electric Guitar
283.5,0.12195121951219512,83,127,Electric Guitar
283.5,0.12195121951219512,71,127,Electric Guitar
283.6666666666667,0.0,57,54,Electric Guitar
283.6666666666667,0.12195121951219512,84,127,Electric Guitar
283.6666666666667,0.12195121951219512,72,127,Electric Guitar
283.75,0.0,57,54,Electric Guitar
283.75,0.0,57,54,Electric Guitar
283.75,0.12195121951219512,38,77,Electric Guitar
283.75,0.0,70,82,Electric Guitar
283.75,0.0,36,84,Electric Guitar
283.75,0.0,42,84,Electric Guitar
283.75,0.12195121951219512,86,127,Electric Guitar
283.75,0.12195121951219512,74,127,Electric Guitar
284.0,0.16260162601626016,29,127,Electric Guitar
284.0,0.4878048780487805,53,110,Electric Guitar
284.0,0.4878048780487805,76,110,Electric Guitar
284.0,0.4878048780487805,72,110,Electric Guitar
284.0,0.4878048780487805,69,110,Electric Guitar
284.0,0.4878048780487805,65,110,Electric Guitar
284.0,0.16260162601626016,81,122,Electric Guitar
284.0,0.0,57,127,Electric Guitar
284.0,0.0,60,127,Electric Guitar
284.0,0.0,53,127,Electric Guitar
284.0,0.0,64,127,Electric Guitar
284.0,0.12195121951219512,41,127,Electric Guitar
284.0,0.12195121951219512,36,127,Electric Guitar
284.0,0.12195121951219512,49,127,Electric Guitar
284.0,0.0,42,99,Electric Guitar
284.0,0.0,54,99,Electric Guitar
284.0,0.0,70,99,Electric Guitar
284.0,0.0,36,110,Electric Guitar
284.0,0.0,42,110,Electric Guitar
284.0,1.5853658536585367,88,127,Electric Guitar
284.0,0.975609756097561,57,127,Electric Guitar
284.0,1.4634146341463414,76,127,Electric Guitar
284.0,0.975609756097561,45,127,Electric Guitar
284.0,0.16260162601626016,81,107,Electric Guitar
284.0,0.16260162601626016,69,107,Electric Guitar
284.0,0.0,57,115,Electric Guitar
284.0,0.0,65,115,Electric Guitar
284.0,0.0,60,115,Electric Guitar
284.25,0.0,42,82,Electric Guitar
284.25,0.0,54,82,Electric Guitar
284.25,0.0,70,82,Electric Guitar
284.25,0.0,42,63,Electric Guitar
284.25,0.0,60,88,Electric Guitar
284.25,0.0,57,88,Electric Guitar
284.25,0.0,65,88,Electric Guitar
284.5,0.24390243902439024,41,127,Electric Guitar
284.5,0.12195121951219512,81,120,Electric Guitar
284.5,0.0,46,124,Electric Guitar
284.5,0.0,54,124,Electric Guitar
284.5,0.0,70,124,Electric Guitar
284.5,0.0,42,93,Electric Guitar
284.5,0.0,60,88,Electric Guitar
284.5,0.0,57,88,Electric Guitar
284.5,0.0,65,88,Electric Guitar
284.75,0.0,54,60,Electric Guitar
284.75,0.0,70,60,Electric Guitar
284.75,0.0,36,85,Electric Guitar
284.75,0.0,42,85,Electric Guitar
284.75,0.0,60,80,Electric Guitar
284.75,0.0,57,80,Electric Guitar
284.75,0.0,65,80,Electric Guitar
285.0,0.12195121951219512,36,127,Electric Guitar
285.0,0.0,81,96,Electric Guitar
285.0,0.3252032520325203,41,127,Electric Guitar
285.0,0.3252032520325203,64,127,Electric Guitar
285.0,0.24390243902439024,60,127,Electric Guitar
285.0,0.24390243902439024,57,127,Electric Guitar
285.0,0.24390243902439024,53,127,Electric Guitar
285.0,0.12195121951219512,36,127,Electric Guitar
285.0,0.12195121951219512,38,127,Electric Guitar
285.0,0.0,42,94,Electric Guitar
285.0,0.0,54,94,Electric Guitar
285.0,0.0,70,94,Electric Guitar
285.0,0.0,42,106,Electric Guitar
285.0,0.0,40,106,Electric Guitar
285.0,0.0,65,116,Electric Guitar
285.0,0.0,57,116,Electric Guitar
285.0,0.0,60,116,Electric Guitar
285.25,0.12195121951219512,38,127,Electric Guitar
285.25,0.16260162601626016,81,106,Electric Guitar
285.25,0.0,42,90,Electric Guitar
285.25,0.0,54,90,Electric Guitar
285.25,0.0,70,90,Electric Guitar
285.25,0.0,42,53,Electric Guitar
285.25,0.0,60,89,Electric Guitar
285.25,0.0,57,89,Electric Guitar
285.25,0.0,65,89,Electric Guitar
285.5,0.12195121951219512,39,127,Electric Guitar
285.5,0.0,46,127,Electric Guitar
285.5,0.0,54,127,Electric Guitar
285.5,0.0,70,127,Electric Guitar
285.5,0.0,36,102,Electric Guitar
285.5,0.0,42,102,Electric Guitar
285.5,0.0,65,90,Electric Guitar
285.5,0.0,60,90,Electric Guitar
285.5,0.0,57,90,Electric Guitar
285.75,0.36585365853658536,40,127,Electric Guitar
285.75,0.6097560975609756,64,105,Electric Guitar
285.75,0.6097560975609756,71,105,Electric Guitar
285.75,0.8536585365853658,52,107,Electric Guitar
285.75,0.6504065040650406,68,84,Electric Guitar
285.75,0.7317073170731707,74,102,Electric Guitar
285.75,0.8536585365853658,80,108,Electric Guitar
285.75,0.0,40,127,Electric Guitar
285.75,0.0,64,127,Electric Guitar
285.75,0.0,56,127,Electric Guitar
285.75,0.0,52,127,Electric Guitar
285.75,0.0,59,127,Electric Guitar
285.75,0.0,54,82,Electric Guitar
285.75,0.0,70,82,Electric Guitar
285.75,0.0,36,84,Electric Guitar
285.75,0.0,42,84,Electric Guitar
285.75,0.0,65,87,Electric Guitar
285.75,0.0,60,87,Electric Guitar
285.75,0.0,57,87,Electric Guitar
286.0,0.12195121951219512,36,127,Electric Guitar
286.0,0.0,42,99,Electric Guitar
286.0,0.0,54,99,Electric Guitar
286.0,0.0,70,99,Electric Guitar
286.0,0.0,44,117,Electric Guitar
286.0,0.12195121951219512,62,127,Electric Guitar
286.0,0.12195121951219512,50,127,Electric Guitar
286.0,0.0,59,117,Electric Guitar
286.0,0.0,56,117,Electric Guitar
286.0,0.0,64,117,Electric Guitar
286.25,0.0,42,82,Electric Guitar
286.25,0.0,54,82,Electric Guitar
286.25,0.0,70,82,Electric Guitar
286.25,0.12195121951219512,38,77,Electric Guitar
286.25,0.0,42,63,Electric Guitar
286.25,0.12195121951219512,63,127,Electric Guitar
286.25,0.12195121951219512,51,127,Electric Guitar
286.25,0.0,64,99,Electric Guitar
286.25,0.0,56,99,Electric Guitar
286.25,0.0,59,99,Electric Guitar
286.5,0.24390243902439024,28,127,Electric Guitar
286.5,0.36585365853658536,56,127,Electric Guitar
286.5,0.36585365853658536,52,127,Electric Guitar
286.5,0.36585365853658536,64,127,Electric Guitar
286.5,0.36585365853658536,40,127,Electric Guitar
286.5,0.36585365853658536,59,127,Electric Guitar
286.5,0.0,46,124,Electric Guitar
286.5,0.0,54,124,Electric Guitar
286.5,0.0,70,124,Electric Guitar
286.5,0.0,36,100,Electric Guitar
286.5,0.0,42,100,Electric Guitar
286.5,0.12195121951219512,64,127,Electric Guitar
286.5,0.12195121951219512,52,127,Electric Guitar
286.5,0.16260162601626016,81,107,Electric Guitar
286.5,0.16260162601626016,69,107,Electric Guitar
286.5,0.0,59,78,Electric Guitar
286.5,0.0,64,78,Electric Guitar
286.5,0.0,56,78,Electric Guitar
286.75,0.0,54,60,Electric Guitar
286.75,0.0,70,60,Electric Guitar
286.75,0.0,42,71,Electric Guitar
286.75,0.24390243902439024,67,127,Electric Guitar
286.75,0.24390243902439024,55,127,Electric Guitar
286.75,0.0,56,80,Electric Guitar
286.75,0.0,59,80,Electric Guitar
286.75,0.0,64,80,Electric Guitar
287.0,0.12195121951219512,35,127,Electric Guitar
287.0,0.12195121951219512,36,127,Electric Guitar
287.0,0.12195121951219512,38,127,Electric Guitar
287.0,0.0,42,94,Electric Guitar
287.0,0.0,54,94,Electric Guitar
287.0,0.0,70,94,Electric Guitar
287.0,0.0,44,124,Electric Guitar
287.0,0.0,40,124,Electric Guitar
287.0,0.4878048780487805,92,127,Electric Guitar
287.0,0.4878048780487805,80,127,Electric Guitar
287.0,0.0,56,115,Electric Guitar
287.0,0.0,64,115,Electric Guitar
287.0,0.0,59,115,Electric Guitar
287.25,0.12195121951219512,38,127,Electric Guitar
287.25,0.0,42,90,Electric Guitar
287.25,0.0,54,90,Electric Guitar
287.25,0.0,70,90,Electric Guitar
287.25,0.0,36,86,Electric Guitar
287.25,0.0,42,86,Electric Guitar
287.25,0.12195121951219512,64,127,Electric Guitar
287.25,0.12195121951219512,52,127,Electric Guitar
287.25,0.16260162601626016,80,107,Electric Guitar
287.25,0.16260162601626016,68,107,Electric Guitar
287.25,0.0,56,90,Electric Guitar
287.25,0.0,59,90,Electric Guitar
287.25,0.0,64,90,Electric Guitar
287.5,0.24390243902439024,40,127,Electric Guitar
287.5,0.16260162601626016,76,108,Electric Guitar
287.5,0.0,52,127,Electric Guitar
287.5,0.0,56,127,Electric Guitar
287.5,0.0,64,127,Electric Guitar
287.5,0.0,40,127,Electric Guitar
287.5,0.0,59,127,Electric Guitar
287.5,0.0,46,127,Electric Guitar
287.5,0.0,54,127,Electric Guitar
287.5,0.0,70,127,Electric Guitar
287.5,0.0,42,89,Electric Guitar
287.5,0.24390243902439024,67,127,Electric Guitar
287.5,0.24390243902439024,55,127,Electric Guitar
287.5,0.0,64,87,Electric Guitar
287.5,0.0,59,87,Electric Guitar
287.5,0.0,56,87,Electric Guitar
287.75,0.12195121951219512,38,77,Electric Guitar
287.75,0.0,54,82,Electric Guitar
287.75,0.0,70,82,Electric Guitar
287.75,0.0,36,84,Electric Guitar
287.75,0.0,42,84,Electric Guitar
287.75,0.0,64,92,Electric Guitar
287.75,0.0,59,92,Electric Guitar
287.75,0.0,56,92,Electric Guitar
288.0,0.24390243902439024,33,127,Electric Guitar
288.0,0.4878048780487805,67,108,Electric Guitar
288.0,0.4878048780487805,57,108,Electric Guitar
288.0,0.4878048780487805,76,102,Electric Guitar
288.0,0.4878048780487805,72,102,Electric Guitar
288.0,0.16260162601626016,79,117,Electric Guitar
288.0,0.0,55,127,Electric Guitar
288.0,0.0,60,127,Electric Guitar
288.0,0.0,59,127,Electric Guitar
288.0,0.12195121951219512,64,127,Electric Guitar
288.0,0.12195121951219512,45,127,Electric Guitar
288.0,0.12195121951219512,36,127,Electric Guitar
288.0,0.0,42,99,Electric Guitar
288.0,0.0,54,99,Electric Guitar
288.0,0.0,70,99,Electric Guitar
288.0,0.0,36,110,Electric Guitar
288.0,0.0,42,110,Electric Guitar
288.0,0.4878048780487805,93,127,Electric Guitar
288.0,0.7317073170731707,69,127,Electric Guitar
288.0,0.4878048780487805,81,127,Electric Guitar
288.0,0.7317073170731707,57,127,Electric Guitar
288.0,0.16260162601626016,69,107,Electric Guitar
288.0,0.24390243902439024,81,107,Electric Guitar
288.0,0.0,64,116,Electric Guitar
288.0,0.0,60,116,Electric Guitar
288.0,0.0,57,116,Electric Guitar
288.25,0.0,42,82,Electric Guitar
288.25,0.0,54,82,Electric Guitar
288.25,0.0,70,82,Electric Guitar
288.25,0.0,42,63,Electric Guitar
288.25,0.0,64,94,Electric Guitar
288.25,0.0,60,94,Electric Guitar
288.25,0.0,57,94,Electric Guitar
288.5,0.24390243902439024,45,127,Electric Guitar
288.5,0.12195121951219512,79,106,Electric Guitar
288.5,0.0,46,124,Electric Guitar
288.5,0.0,54,124,Electric Guitar
288.5,0.0,70,124,Electric Guitar
288.5,0.0,42,93,Electric Guitar
288.5,0.0,64,66,Electric Guitar
288.5,0.0,60,66,Electric Guitar
288.5,0.0,57,66,Electric Guitar
288.75,0.0,54,60,Electric Guitar
288.75,0.0,70,60,Electric Guitar
288.75,0.0,36,85,Electric Guitar
288.75,0.0,42,85,Electric Guitar
288.75,0.0,64,88,Electric Guitar
288.75,0.0,60,88,Electric Guitar
288.75,0.0,57,88,Electric Guitar
289.0,0.12195121951219512,35,127,Electric Guitar
289.0,0.0,79,97,Electric Guitar
289.0,0.24390243902439024,55,127,Electric Guitar
289.0,0.24390243902439024,64,127,Electric Guitar
289.0,0.24390243902439024,60,127,Electric Guitar
289.0,0.24390243902439024,59,127,Electric Guitar
289.0,0.3252032520325203,45,127,Electric Guitar
289.0,0.12195121951219512,36,127,Electric Guitar
289.0,0.12195121951219512,38,127,Electric Guitar
289.0,0.0,42,94,Electric Guitar
289.0,0.0,54,94,Electric Guitar
289.0,0.0,70,94,Electric Guitar
289.0,0.0,42,106,Electric Guitar
289.0,0.0,40,106,Electric Guitar
289.0,0.4878048780487805,95,127,Electric Guitar
289.0,0.4878048780487805,83,127,Electric Guitar
289.0,0.0,64,114,Electric Guitar
289.0,0.0,60,114,Electric Guitar
289.0,0.0,57,114,Electric Guitar
289.25,0.12195121951219512,36,127,Electric Guitar
289.25,0.16260162601626016,79,122,Electric Guitar
289.25,0.0,42,90,Electric Guitar
289.25,0.0,54,90,Electric Guitar
289.25,0.0,70,90,Electric Guitar
289.25,0.0,42,53,Electric Guitar
289.25,0.0,64,85,Electric Guitar
289.25,0.0,60,85,Electric Guitar
289.25,0.0,57,85,Electric Guitar
289.5,0.12195121951219512,37,127,Electric Guitar
289.5,0.0,46,127,Electric Guitar
289.5,0.0,54,127,Electric Guitar
289.5,0.0,70,127,Electric Guitar
289.5,0.0,36,102,Electric Guitar
289.5,0.0,42,102,Electric Guitar
289.5,0.0,64,96,Electric Guitar
289.5,0.0,60,96,Electric Guitar
289.5,0.0,57,96,Electric Guitar
289.75,0.12195121951219512,38,127,Electric Guitar
289.75,0.6097560975609756,76,108,Electric Guitar
289.75,0.6097560975609756,50,108,Electric Guitar
289.75,0.4878048780487805,72,101,Electric Guitar
289.75,0.4878048780487805,66,101,Electric Guitar
289.75,0.4878048780487805,69,100,Electric Guitar
289.75,0.6504065040650406,78,117,Electric Guitar
289.75,0.0,60,127,Electric Guitar
289.75,0.0,64,127,Electric Guitar
289.75,0.0,54,127,Electric Guitar
289.75,0.0,57,127,Electric Guitar
289.75,0.12195121951219512,38,127,Electric Guitar
289.75,0.0,54,82,Electric Guitar
289.75,0.0,70,82,Electric Guitar
289.75,0.0,36,84,Electric Guitar
289.75,0.0,42,84,Electric Guitar
289.75,0.0,64,85,Electric Guitar
289.75,0.0,57,85,Electric Guitar
289.75,0.0,60,85,Electric Guitar
290.0,0.24390243902439024,38,127,Electric Guitar
290.0,0.12195121951219512,36,127,Electric Guitar
290.0,0.0,42,99,Electric Guitar
290.0,0.0,54,99,Electric Guitar
290.0,0.0,70,99,Electric Guitar
290.0,0.0,44,117,Electric Guitar
290.0,0.4878048780487805,96,127,Electric Guitar
290.0,0.12195121951219512,72,127,Electric Guitar
290.0,0.4878048780487805,84,127,Electric Guitar
290.0,0.12195121951219512,60,127,Electric Guitar
290.0,0.0,62,115,Electric Guitar
290.0,0.0,66,115,Electric Guitar
290.0,0.0,57,115,Electric Guitar
290.25,0.0,42,82,Electric Guitar
290.25,0.0,54,82,Electric Guitar
290.25,0.0,70,82,Electric Guitar
290.25,0.12195121951219512,38,77,Electric Guitar
290.25,0.0,42,63,Electric Guitar
290.25,0.12195121951219512,69,127,Electric Guitar
290.25,0.12195121951219512,57,127,Electric Guitar
290.25,0.0,66,78,Electric Guitar
290.25,0.0,62,78,Electric Guitar
290.25,0.0,57,78,Electric Guitar
290.5,0.24390243902439024,45,127,Electric Guitar
290.5,0.36585365853658536,38,127,Electric Guitar
290.5,0.36585365853658536,54,127,Electric Guitar
290.5,0.36585365853658536,57,127,Electric Guitar
290.5,0.36585365853658536,64,127,Electric Guitar
290.5,0.36585365853658536,60,127,Electric Guitar
290.5,0.0,46,124,Electric Guitar
290.5,0.0,54,124,Electric Guitar
290.5,0.0,70,124,Electric Guitar
290.5,0.0,36,100,Electric Guitar
290.5,0.0,42,100,Electric Guitar
290.5,0.12195121951219512,67,127,Electric Guitar
290.5,0.12195121951219512,55,127,Electric Guitar
290.5,0.12195121951219512,69,107,Electric Guitar
290.5,0.12195121951219512,81,107,Electric Guitar
290.5,0.0,66,78,Electric Guitar
290.5,0.0,57,78,Electric Guitar
290.5,0.0,62,78,Electric Guitar
290.75,0.0,54,60,Electric Guitar
290.75,0.0,70,60,Electric Guitar
290.75,0.0,42,71,Electric Guitar
290.75,0.12195121951219512,63,127,Electric Guitar
290.75,0.12195121951219512,51,127,Electric Guitar
290.75,0.0,62,84,Electric Guitar
290.75,0.0,66,84,Electric Guitar
290.75,0.0,57,84,Electric Guitar
291.0,0.12195121951219512,48,127,Electric Guitar
291.0,0.12195121951219512,36,127,Electric Guitar
291.0,0.12195121951219512,38,127,Electric Guitar
291.0,0.0,42,94,Electric Guitar
291.0,0.0,54,94,Electric Guitar
291.0,0.0,70,94,Electric Guitar
291.0,0.0,44,124,Electric Guitar
291.0,0.0,40,124,Electric Guitar
291.0,0.4878048780487805,98,127,Electric Guitar
291.0,0.12195121951219512,62,127,Electric Guitar
291.0,0.4878048780487805,86,127,Electric Guitar
291.0,0.12195121951219512,50,127,Electric Guitar
291.0,0.12195121951219512,69,107,Electric Guitar
291.0,0.12195121951219512,81,107,Electric Guitar
291.0,0.0,66,112,Electric Guitar
291.0,0.0,57,112,Electric Guitar
291.0,0.0,62,112,Electric Guitar
291.25,0.12195121951219512,50,127,Electric Guitar
291.25,0.0,42,90,Electric Guitar
291.25,0.0,54,90,Electric Guitar
291.25,0.0,70,90,Electric Guitar
291.25,0.0,36,86,Electric Guitar
291.25,0.0,42,86,Electric Guitar
291.25,0.12195121951219512,60,127,Electric Guitar
291.25,0.12195121951219512,48,127,Electric Guitar
291.25,0.24390243902439024,84,107,Electric Guitar
291.25,0.16260162601626016,72,107,Electric Guitar
291.25,0.0,66,92,Electric Guitar
291.25,0.0,62,92,Electric Guitar
291.25,0.0,57,92,Electric Guitar
291.5,0.12195121951219512,48,127,Electric Guitar
291.5,0.16260162601626016,76,124,Electric Guitar
291.5,0.0,54,127,Electric Guitar
291.5,0.0,60,127,Electric Guitar
291.5,0.0,64,127,Electric Guitar
291.5,0.0,57,127,Electric Guitar
291.5,0.12195121951219512,38,127,Electric Guitar
291.5,0.0,46,127,Electric Guitar
291.5,0.0,54,127,Electric Guitar
291.5,0.0,70,127,Electric Guitar
291.5,0.0,42,89,Electric Guitar
291.5,0.12195121951219512,57,127,Electric Guitar
291.5,0.12195121951219512,45,127,Electric Guitar
291.5,0.0,66,83,Electric Guitar
291.5,0.0,57,83,Electric Guitar
291.5,0.0,62,83,Electric Guitar
291.75,0.12195121951219512,33,127,Electric Guitar
291.75,0.12195121951219512,38,77,Electric Guitar
291.75,0.0,54,82,Electric Guitar
291.75,0.0,70,82,Electric Guitar
291.75,0.0,36,84,Electric Guitar
291.75,0.0,42,84,Electric Guitar
291.75,0.12195121951219512,55,127,Electric Guitar
291.75,0.12195121951219512,43,127,Electric Guitar
291.75,0.0,66,85,Electric Guitar
291.75,0.0,62,85,Electric Guitar
291.75,0.0,57,85,Electric Guitar
292.0,0.16260162601626016,50,127,Electric Guitar
292.0,0.4878048780487805,72,104,Electric Guitar
292.0,0.4878048780487805,76,104,Electric Guitar
292.0,0.4878048780487805,69,104,Electric Guitar
292.0,0.4878048780487805,50,114,Electric Guitar
292.0,0.4878048780487805,65,114,Electric Guitar
292.0,0.16260162601626016,38,127,Electric Guitar
292.0,0.0,57,127,Electric Guitar
292.0,0.0,60,127,Electric Guitar
292.0,0.0,53,127,Electric Guitar
292.0,0.0,64,127,Electric Guitar
292.0,0.12195121951219512,36,127,Electric Guitar
292.0,0.0,42,99,Electric Guitar
292.0,0.0,54,99,Electric Guitar
292.0,0.0,70,99,Electric Guitar
292.0,0.0,36,110,Electric Guitar
292.0,0.0,42,110,Electric Guitar
292.0,0.975609756097561,98,127,Electric Guitar
292.0,0.975609756097561,57,127,Electric Guitar
292.0,0.975609756097561,86,127,Electric Guitar
292.0,0.975609756097561,45,127,Electric Guitar
292.0,0.16260162601626016,81,107,Electric Guitar
292.0,0.16260162601626016,69,107,Electric Guitar
292.0,0.0,62,116,Electric Guitar
292.0,0.0,57,116,Electric Guitar
292.0,0.0,65,116,Electric Guitar
292.25,0.0,42,82,Electric Guitar
292.25,0.0,54,82,Electric Guitar
292.25,0.0,70,82,Electric Guitar
292.25,0.0,42,63,Electric Guitar
292.25,0.0,62,78,Electric Guitar
292.25,0.0,65,78,Electric Guitar
292.25,0.0,57,78,Electric Guitar
292.5,0.24390243902439024,45,127,Electric Guitar
292.5,0.16260162601626016,74,127,Electric Guitar
292.5,0.0,46,124,Electric Guitar
292.5,0.0,54,124,Electric Guitar
292.5,0.0,70,124,Electric Guitar
292.5,0.0,42,93,Electric Guitar
292.5,0.0,62,90,Electric Guitar
292.5,0.0,57,90,Electric Guitar
292.5,0.0,65,90,Electric Guitar
292.75,0.0,54,60,Electric Guitar
292.75,0.0,70,60,Electric Guitar
292.75,0.0,36,85,Electric Guitar
292.75,0.0,42,85,Electric Guitar
292.75,0.0,65,68,Electric Guitar
292.75,0.0,62,68,Electric Guitar
292.75,0.0,57,68,Electric Guitar
293.0,0.12195121951219512,38,127,Electric Guitar
293.0,0.24390243902439024,74,120,Electric Guitar
293.0,0.24390243902439024,60,127,Electric Guitar
293.0,0.24390243902439024,64,127,Electric Guitar
293.0,0.24390243902439024,57,127,Electric Guitar
293.0,0.24390243902439024,53,127,Electric Guitar
293.0,0.3252032520325203,38,127,Electric Guitar
293.0,0.12195121951219512,36,127,Electric Guitar
293.0,0.12195121951219512,38,127,Electric Guitar
293.0,0.0,42,94,Electric Guitar
293.0,0.0,54,94,Electric Guitar
293.0,0.0,70,94,Electric Guitar
293.0,0.0,42,106,Electric Guitar
293.0,0.0,40,106,Electric Guitar
293.0,0.0,62,117,Electric Guitar
293.0,0.0,65,117,Electric Guitar
293.0,0.0,57,117,Electric Guitar
293.25,0.12195121951219512,33,127,Electric Guitar
293.25,0.0,42,90,Electric Guitar
293.25,0.0,54,90,Electric Guitar
293.25,0.0,70,90,Electric Guitar
293.25,0.0,42,53,Electric Guitar
293.25,0.0,62,88,Electric Guitar
293.25,0.0,57,88,Electric Guitar
293.25,0.0,65,88,Electric Guitar
293.5,0.12195121951219512,26,127,Electric Guitar
293.5,0.16260162601626016,72,115,Electric Guitar
293.5,0.0,46,127,Electric Guitar
293.5,0.0,54,127,Electric Guitar
293.5,0.0,70,127,Electric Guitar
293.5,0.0,36,102,Electric Guitar
293.5,0.0,42,102,Electric Guitar
293.5,0.0,62,89,Electric Guitar
293.5,0.0,57,89,Electric Guitar
293.5,0.0,65,89,Electric Guitar
293.75,0.36585365853658536,28,127,Electric Guitar
293.75,0.0,56,127,Electric Guitar
293.75,0.0,62,127,Electric Guitar
293.75,0.0,52,127,Electric Guitar
293.75,0.0,59,127,Electric Guitar
293.75,0.12195121951219512,40,127,Electric Guitar
293.75,0.0,54,82,Electric Guitar
293.75,0.0,70,82,Electric Guitar
293.75,0.0,36,84,Electric Guitar
293.75,0.0,42,84,Electric Guitar
293.75,0.0,62,87,Electric Guitar
293.75,0.0,65,87,Electric Guitar
293.75,0.0,57,87,Electric Guitar
294.0,0.36585365853658536,64,110,Electric Guitar
294.0,0.4878048780487805,71,98,Electric Guitar
294.0,0.4878048780487805,68,98,Electric Guitar
294.0,0.4878048780487805,74,98,Electric Guitar
294.0,0.8536585365853658,52,105,Electric Guitar
294.0,0.16260162601626016,76,124,Electric Guitar
294.0,0.12195121951219512,36,127,Electric Guitar
294.0,0.0,42,99,Electric Guitar
294.0,0.0,54,99,Electric Guitar
294.0,0.0,70,99,Electric Guitar
294.0,0.0,44,117,Electric Guitar
294.0,0.975609756097561,100,127,Electric Guitar
294.0,0.975609756097561,56,127,Electric Guitar
294.0,0.975609756097561,88,127,Electric Guitar
294.0,0.975609756097561,52,127,Electric Guitar
294.0,0.24390243902439024,68,107,Electric Guitar
294.0,0.3252032520325203,80,107,Electric Guitar
294.0,0.0,64,118,Electric Guitar
294.0,0.0,56,118,Electric Guitar
294.0,0.0,59,118,Electric Guitar
294.25,0.0,42,82,Electric Guitar
294.25,0.0,54,82,Electric Guitar
294.25,0.0,70,82,Electric Guitar
294.25,0.12195121951219512,38,77,Electric Guitar
294.25,0.0,42,63,Electric Guitar
294.25,0.0,56,82,Electric Guitar
294.25,0.0,59,82,Electric Guitar
294.25,0.0,64,82,Electric Guitar
294.5,0.24390243902439024,28,127,Electric Guitar
294.5,0.16260162601626016,74,101,Electric Guitar
294.5,0.36585365853658536,62,127,Electric Guitar
294.5,0.36585365853658536,56,127,Electric Guitar
294.5,0.36585365853658536,40,127,Electric Guitar
294.5,0.36585365853658536,52,127,Electric Guitar
294.5,0.36585365853658536,59,127,Electric Guitar
294.5,0.0,46,124,Electric Guitar
294.5,0.0,54,124,Electric Guitar
294.5,0.0,70,124,Electric Guitar
294.5,0.0,36,100,Electric Guitar
294.5,0.0,42,100,Electric Guitar
294.5,0.0,56,82,Electric Guitar
294.5,0.0,59,82,Electric Guitar
294.5,0.0,64,82,Electric Guitar
294.75,0.0,54,60,Electric Guitar
294.75,0.0,70,60,Electric Guitar
294.75,0.0,42,71,Electric Guitar
294.75,0.0,59,76,Electric Guitar
294.75,0.0,56,76,Electric Guitar
294.75,0.0,64,76,Electric Guitar
295.0,0.12195121951219512,31,127,Electric Guitar
295.0,0.24390243902439024,74,117,Electric Guitar
295.0,0.12195121951219512,36,127,Electric Guitar
295.0,0.12195121951219512,38,127,Electric Guitar
295.0,0.0,42,94,Electric Guitar
295.0,0.0,54,94,Electric Guitar
295.0,0.0,70,94,Electric Guitar
295.0,0.0,44,124,Electric Guitar
295.0,0.0,40,124,Electric Guitar
295.0,0.0,56,111,Electric Guitar
295.0,0.0,59,111,Electric Guitar
295.0,0.0,64,111,Electric Guitar
295.25,0.12195121951219512,31,127,Electric Guitar
295.25,0.0,42,90,Electric Guitar
295.25,0.0,54,90,Electric Guitar
295.25,0.0,70,90,Electric Guitar
295.25,0.0,36,86,Electric Guitar
295.25,0.0,42,86,Electric Guitar
295.25,0.0,64,74,Electric Guitar
295.25,0.0,59,74,Electric Guitar
295.25,0.0,56,74,Electric Guitar
295.5,0.24390243902439024,32,127,Electric Guitar
295.5,0.24390243902439024,72,113,Electric Guitar
295.5,0.0,52,127,Electric Guitar
295.5,0.0,59,127,Electric Guitar
295.5,0.12195121951219512,56,127,Electric Guitar
295.5,0.12195121951219512,62,127,Electric Guitar
295.5,0.12195121951219512,40,127,Electric Guitar
295.5,0.0,46,127,Electric Guitar
295.5,0.0,54,127,Electric Guitar
295.5,0.0,70,127,Electric Guitar
295.5,0.0,42,89,Electric Guitar
295.5,0.0,56,86,Electric Guitar
295.5,0.0,59,86,Electric Guitar
295.5,0.0,64,86,Electric Guitar
295.75,0.12195121951219512,38,77,Electric Guitar
295.75,0.0,54,82,Electric Guitar
295.75,0.0,70,82,Electric Guitar
295.75,0.0,36,84,Electric Guitar
295.75,0.0,42,84,Electric Guitar
295.75,0.0,56,68,Electric Guitar
295.75,0.0,59,68,Electric Guitar
295.75,0.0,64,68,Electric Guitar
296.0,0.16260162601626016,33,127,Electric Guitar
296.0,0.6097560975609756,67,107,Electric Guitar
296.0,0.4878048780487805,72,104,Electric Guitar
296.0,0.4878048780487805,76,104,Electric Guitar
296.0,1.4634146341463414,57,103,Electric Guitar
296.0,0.24390243902439024,72,127,Electric Guitar
296.0,0.0,55,127,Electric Guitar
296.0,0.0,64,127,Electric Guitar
296.0,0.0,60,127,Electric Guitar
296.0,0.0,59,127,Electric Guitar
296.0,0.12195121951219512,45,127,Electric Guitar
296.0,0.12195121951219512,36,127,Electric Guitar
296.0,0.0,42,99,Electric Guitar
296.0,0.0,54,99,Electric Guitar
296.0,0.0,70,99,Electric Guitar
296.0,0.0,36,110,Electric Guitar
296.0,0.0,42,110,Electric Guitar
296.0,0.4878048780487805,95,127,Electric Guitar
296.0,0.4878048780487805,60,127,Electric Guitar
296.0,0.4878048780487805,83,127,Electric Guitar
296.0,1.951219512195122,45,127,Electric Guitar
296.0,0.24390243902439024,81,107,Electric Guitar
296.0,0.24390243902439024,69,107,Electric Guitar
296.0,0.0,60,107,Electric Guitar
296.0,0.0,57,107,Electric Guitar
296.0,0.0,64,107,Electric Guitar
296.25,0.0,42,82,Electric Guitar
296.25,0.0,54,82,Electric Guitar
296.25,0.0,70,82,Electric Guitar
296.25,0.0,42,63,Electric Guitar
296.25,0.0,64,77,Electric Guitar
296.25,0.0,60,77,Electric Guitar
296.25,0.0,57,77,Electric Guitar
296.5,0.24390243902439024,40,127,Electric Guitar
296.5,0.16260162601626016,71,120,Electric Guitar
296.5,0.0,46,124,Electric Guitar
296.5,0.0,54,124,Electric Guitar
296.5,0.0,70,124,Electric Guitar
296.5,0.0,42,93,Electric Guitar
296.5,0.0,60,75,Electric Guitar
296.5,0.0,64,75,Electric Guitar
296.5,0.0,57,75,Electric Guitar
296.75,0.0,54,60,Electric Guitar
296.75,0.0,70,60,Electric Guitar
296.75,0.0,36,85,Electric Guitar
296.75,0.0,42,85,Electric Guitar
296.75,0.0,60,74,Electric Guitar
296.75,0.0,64,74,Electric Guitar
296.75,0.0,57,74,Electric Guitar
297.0,0.12195121951219512,43,127,Electric Guitar
297.0,0.12195121951219512,72,120,Electric Guitar
297.0,0.3252032520325203,45,127,Electric Guitar
297.0,0.24390243902439024,55,127,Electric Guitar
297.0,0.24390243902439024,64,127,Electric Guitar
297.0,0.24390243902439024,59,127,Electric Guitar
297.0,0.24390243902439024,60,127,Electric Guitar
297.0,0.12195121951219512,36,127,Electric Guitar
297.0,0.12195121951219512,38,127,Electric Guitar
297.0,0.0,42,94,Electric Guitar
297.0,0.0,54,94,Electric Guitar
297.0,0.0,70,94,Electric Guitar
297.0,0.0,42,106,Electric Guitar
297.0,0.0,40,106,Electric Guitar
297.0,0.4878048780487805,96,127,Electric Guitar
297.0,0.4878048780487805,57,127,Electric Guitar
297.0,0.4878048780487805,84,127,Electric Guitar
297.0,0.0,60,112,Electric Guitar
297.0,0.0,57,112,Electric Guitar
297.0,0.0,64,112,Electric Guitar
297.25,0.12195121951219512,40,127,Electric Guitar
297.25,0.24390243902439024,74,113,Electric Guitar
297.25,0.0,42,90,Electric Guitar
297.25,0.0,54,90,Electric Guitar
297.25,0.0,70,90,Electric Guitar
297.25,0.0,42,53,Electric Guitar
297.25,0.0,60,31,Electric Guitar
297.5,0.12195121951219512,43,127,Electric Guitar
297.5,0.0,46,127,Electric Guitar
297.5,0.0,54,127,Electric Guitar
297.5,0.0,70,127,Electric Guitar
297.5,0.0,36,102,Electric Guitar
297.5,0.0,42,102,Electric Guitar
297.5,0.0,60,85,Electric Guitar
297.5,0.0,64,85,Electric Guitar
297.5,0.0,57,85,Electric Guitar
297.75,0.36585365853658536,45,127,Electric Guitar
297.75,0.6097560975609756,76,120,Electric Guitar
297.75,0.0,55,127,Electric Guitar
297.75,0.0,61,127,Electric Guitar
297.75,0.0,64,127,Electric Guitar
297.75,0.0,58,127,Electric Guitar
297.75,0.12195121951219512,45,127,Electric Guitar
297.75,0.0,54,82,Electric Guitar
297.75,0.0,70,82,Electric Guitar
297.75,0.0,36,84,Electric Guitar
297.75,0.0,42,84,Electric Guitar
297.75,0.0,60,85,Electric Guitar
297.75,0.0,64,85,Electric Guitar
297.75,0.0,57,85,Electric Guitar
298.0,0.36585365853658536,73,99,Electric Guitar
298.0,0.36585365853658536,67,99,Electric Guitar
298.0,0.36585365853658536,70,99,Electric Guitar
298.0,0.4878048780487805,76,100,Electric Guitar
298.0,0.12195121951219512,36,127,Electric Guitar
298.0,0.0,42,99,Electric Guitar
298.0,0.0,54,99,Electric Guitar
298.0,0.0,70,99,Electric Guitar
298.0,0.0,44,117,Electric Guitar
298.0,0.4878048780487805,100,127,Electric Guitar
298.0,0.4878048780487805,61,127,Electric Guitar
298.0,0.4878048780487805,88,127,Electric Guitar
298.0,0.24390243902439024,76,107,Electric Guitar
298.0,0.24390243902439024,64,107,Electric Guitar
298.0,0.0,60,81,Electric Guitar
298.0,0.0,64,81,Electric Guitar
298.0,0.0,57,81,Electric Guitar
298.25,0.0,42,82,Electric Guitar
298.25,0.0,54,82,Electric Guitar
298.25,0.0,70,82,Electric Guitar
298.25,0.12195121951219512,38,77,Electric Guitar
298.25,0.0,42,63,Electric Guitar
298.25,0.0,61,112,Electric Guitar
298.25,0.0,64,112,Electric Guitar
298.25,0.0,57,112,Electric Guitar
298.5,0.24390243902439024,40,127,Electric Guitar
298.5,0.36585365853658536,45,127,Electric Guitar
298.5,0.36585365853658536,55,127,Electric Guitar
298.5,0.36585365853658536,64,127,Electric Guitar
298.5,0.36585365853658536,58,127,Electric Guitar
298.5,0.36585365853658536,61,127,Electric Guitar
298.5,0.0,46,124,Electric Guitar
298.5,0.0,54,124,Electric Guitar
298.5,0.0,70,124,Electric Guitar
298.5,0.0,36,100,Electric Guitar
298.5,0.0,42,100,Electric Guitar
298.5,0.0,61,81,Electric Guitar
298.5,0.0,57,81,Electric Guitar
298.5,0.0,64,81,Electric Guitar
298.75,0.0,54,60,Electric Guitar
298.75,0.0,70,60,Electric Guitar
298.75,0.0,42,71,Electric Guitar
298.75,0.0,61,81,Electric Guitar
298.75,0.0,57,81,Electric Guitar
298.75,0.0,64,81,Electric Guitar
299.0,0.12195121951219512,38,127,Electric Guitar
299.0,0.12195121951219512,36,127,Electric Guitar
299.0,0.12195121951219512,38,127,Electric Guitar
299.0,0.0,42,94,Electric Guitar
299.0,0.0,54,94,Electric Guitar
299.0,0.0,70,94,Electric Guitar
299.0,0.0,44,124,Electric Guitar
299.0,0.0,40,124,Electric Guitar
299.0,0.36585365853658536,103,127,Electric Guitar
299.0,0.4878048780487805,64,127,Electric Guitar
299.0,0.36585365853658536,91,127,Electric Guitar
299.0,0.0,64,80,Electric Guitar
299.0,0.0,61,80,Electric Guitar
299.0,0.0,57,80,Electric Guitar
299.25,0.12195121951219512,38,127,Electric Guitar
299.25,0.0,42,90,Electric Guitar
299.25,0.0,54,90,Electric Guitar
299.25,0.0,70,90,Electric Guitar
299.25,0.0,36,86,Electric Guitar
299.25,0.0,42,86,Electric Guitar
299.25,0.0,64,114,Electric Guitar
299.25,0.0,61,114,Electric Guitar
299.25,0.0,57,114,Electric Guitar
299.5,0.24390243902439024,40,127,Electric Guitar
299.5,0.12195121951219512,45,127,Electric Guitar
299.5,0.0,55,127,Electric Guitar
299.5,0.0,58,127,Electric Guitar
299.5,0.0,61,127,Electric Guitar
299.5,0.0,64,127,Electric Guitar
299.5,0.0,46,127,Electric Guitar
299.5,0.0,54,127,Electric Guitar
299.5,0.0,70,127,Electric Guitar
299.5,0.0,42,89,Electric Guitar
299.5,0.0,64,93,Electric Guitar
299.5,0.0,61,93,Electric Guitar
299.5,0.0,57,93,Electric Guitar
299.75,0.12195121951219512,38,77,Electric Guitar
299.75,0.0,54,82,Electric Guitar
299.75,0.0,70,82,Electric Guitar
299.75,0.0,36,84,Electric Guitar
299.75,0.0,42,84,Electric Guitar
299.75,0.12195121951219512,102,127,Electric Guitar
299.75,0.12195121951219512,90,127,Electric Guitar
299.75,0.0,64,94,Electric Guitar
299.75,0.0,61,94,Electric Guitar
299.75,0.0,57,94,Electric Guitar
300.0,0.16260162601626016,29,127,Electric Guitar
300.0,0.4878048780487805,65,117,Electric Guitar
300.0,0.4878048780487805,69,102,Electric Guitar
300.0,0.4878048780487805,76,102,Electric Guitar
300.0,0.4878048780487805,72,102,Electric Guitar
300.0,0.4878048780487805,53,102,Electric Guitar
300.0,0.16260162601626016,81,122,Electric Guitar
300.0,0.0,57,127,Electric Guitar
300.0,0.0,60,127,Electric Guitar
300.0,0.0,53,127,Electric Guitar
300.0,0.0,64,127,Electric Guitar
300.0,0.12195121951219512,41,127,Electric Guitar
300.0,0.12195121951219512,36,127,Electric Guitar
300.0,0.12195121951219512,57,127,Electric Guitar
300.0,0.0,42,99,Electric Guitar
300.0,0.0,54,99,Electric Guitar
300.0,0.0,70,99,Electric Guitar
300.0,0.0,36,110,Electric Guitar
300.0,0.0,42,110,Electric Guitar
300.0,0.12195121951219512,101,127,Electric Guitar
300.0,1.4634146341463414,100,127,Electric Guitar
300.0,0.8536585365853658,69,127,Electric Guitar
300.0,0.12195121951219512,89,127,Electric Guitar
300.0,1.4634146341463414,88,127,Electric Guitar
300.0,0.8536585365853658,41,127,Electric Guitar
300.0,0.16260162601626016,81,107,Electric Guitar
300.0,0.16260162601626016,69,107,Electric Guitar
300.0,0.0,57,115,Electric Guitar
300.0,0.0,65,115,Electric Guitar
300.0,0.0,60,115,Electric Guitar
300.25,0.0,42,82,Electric Guitar
300.25,0.0,54,82,Electric Guitar
300.25,0.0,70,82,Electric Guitar
300.25,0.0,42,63,Electric Guitar
300.25,0.0,60,88,Electric Guitar
300.25,0.0,57,88,Electric Guitar
300.25,0.0,65,88,Electric Guitar
300.5,0.24390243902439024,41,127,Electric Guitar
300.5,0.12195121951219512,81,120,Electric Guitar
300.5,0.0,46,124,Electric Guitar
300.5,0.0,54,124,Electric Guitar
300.5,0.0,70,124,Electric Guitar
300.5,0.0,42,93,Electric Guitar
300.5,0.0,60,88,Electric Guitar
300.5,0.0,57,88,Electric Guitar
300.5,0.0,65,88,Electric Guitar
300.75,0.0,54,60,Electric Guitar
300.75,0.0,70,60,Electric Guitar
300.75,0.0,36,85,Electric Guitar
300.75,0.0,42,85,Electric Guitar
300.75,0.0,60,80,Electric Guitar
300.75,0.0,57,80,Electric Guitar
300.75,0.0,65,80,Electric Guitar
301.0,0.12195121951219512,36,127,Electric Guitar
301.0,0.0,81,96,Electric Guitar
301.0,0.3252032520325203,41,127,Electric Guitar
301.0,0.3252032520325203,64,127,Electric Guitar
301.0,0.24390243902439024,60,127,Electric Guitar
301.0,0.24390243902439024,57,127,Electric Guitar
301.0,0.24390243902439024,53,127,Electric Guitar
301.0,0.12195121951219512,36,127,Electric Guitar
301.0,0.12195121951219512,38,127,Electric Guitar
301.0,0.0,42,94,Electric Guitar
301.0,0.0,54,94,Electric Guitar
301.0,0.0,70,94,Electric Guitar
301.0,0.0,42,106,Electric Guitar
301.0,0.0,40,106,Electric Guitar
301.0,0.0,65,116,Electric Guitar
301.0,0.0,57,116,Electric Guitar
301.0,0.0,60,116,Electric Guitar
301.25,0.12195121951219512,38,127,Electric Guitar
301.25,0.16260162601626016,81,106,Electric Guitar
301.25,0.0,42,90,Electric Guitar
301.25,0.0,54,90,Electric Guitar
301.25,0.0,70,90,Electric Guitar
301.25,0.0,42,53,Electric Guitar
301.25,0.0,60,89,Electric Guitar
301.25,0.0,57,89,Electric Guitar
301.25,0.0,65,89,Electric Guitar
301.5,0.12195121951219512,39,127,Electric Guitar
301.5,0.0,46,127,Electric Guitar
301.5,0.0,54,127,Electric Guitar
301.5,0.0,70,127,Electric Guitar
301.5,0.0,36,102,Electric Guitar
301.5,0.0,42,102,Electric Guitar
301.5,0.0,65,90,Electric Guitar
301.5,0.0,60,90,Electric Guitar
301.5,0.0,57,90,Electric Guitar
301.75,0.36585365853658536,40,127,Electric Guitar
301.75,0.6097560975609756,68,97,Electric Guitar
301.75,0.6097560975609756,74,97,Electric Guitar
301.75,0.4878048780487805,71,100,Electric Guitar
301.75,0.4878048780487805,52,113,Electric Guitar
301.75,0.4878048780487805,64,113,Electric Guitar
301.75,0.8536585365853658,80,108,Electric Guitar
301.75,0.0,40,127,Electric Guitar
301.75,0.0,64,127,Electric Guitar
301.75,0.0,56,127,Electric Guitar
301.75,0.0,52,127,Electric Guitar
301.75,0.0,59,127,Electric Guitar
301.75,0.0,54,82,Electric Guitar
301.75,0.0,70,82,Electric Guitar
301.75,0.0,36,84,Electric Guitar
301.75,0.0,42,84,Electric Guitar
301.75,1.0975609756097562,68,127,Electric Guitar
301.75,1.0975609756097562,52,127,Electric Guitar
301.75,0.0,65,87,Electric Guitar
301.75,0.0,60,87,Electric Guitar
301.75,0.0,57,87,Electric Guitar
302.0,0.12195121951219512,36,127,Electric Guitar
302.0,0.0,42,99,Electric Guitar
302.0,0.0,54,99,Electric Guitar
302.0,0.0,70,99,Electric Guitar
302.0,0.0,44,117,Electric Guitar
302.0,0.0,59,117,Electric Guitar
302.0,0.0,56,117,Electric Guitar
302.0,0.0,64,117,Electric Guitar
302.25,0.0,42,82,Electric Guitar
302.25,0.0,54,82,Electric Guitar
302.25,0.0,70,82,Electric Guitar
302.25,0.12195121951219512,38,77,Electric Guitar
302.25,0.0,42,63,Electric Guitar
302.25,0.0,64,99,Electric Guitar
302.25,0.0,56,99,Electric Guitar
302.25,0.0,59,99,Electric Guitar
302.5,0.24390243902439024,28,127,Electric Guitar
302.5,0.36585365853658536,56,127,Electric Guitar
302.5,0.36585365853658536,52,127,Electric Guitar
302.5,0.36585365853658536,64,127,Electric Guitar
302.5,0.36585365853658536,40,127,Electric Guitar
302.5,0.36585365853658536,59,127,Electric Guitar
302.5,0.0,46,124,Electric Guitar
302.5,0.0,54,124,Electric Guitar
302.5,0.0,70,124,Electric Guitar
302.5,0.0,36,100,Electric Guitar
302.5,0.0,42,100,Electric Guitar
302.5,0.16260162601626016,81,107,Electric Guitar
302.5,0.16260162601626016,69,107,Electric Guitar
302.5,0.0,59,78,Electric Guitar
302.5,0.0,64,78,Electric Guitar
302.5,0.0,56,78,Electric Guitar
302.75,0.0,54,60,Electric Guitar
302.75,0.0,70,60,Electric Guitar
302.75,0.0,42,71,Electric Guitar
302.75,0.0,56,80,Electric Guitar
302.75,0.0,59,80,Electric Guitar
302.75,0.0,64,80,Electric Guitar
303.0,0.12195121951219512,35,127,Electric Guitar
303.0,0.12195121951219512,36,127,Electric Guitar
303.0,0.12195121951219512,38,127,Electric Guitar
303.0,0.0,42,94,Electric Guitar
303.0,0.0,54,94,Electric Guitar
303.0,0.0,70,94,Electric Guitar
303.0,0.0,44,124,Electric Guitar
303.0,0.0,40,124,Electric Guitar
303.0,0.4878048780487805,104,127,Electric Guitar
303.0,0.4878048780487805,92,127,Electric Guitar
303.0,0.0,56,115,Electric Guitar
303.0,0.0,64,115,Electric Guitar
303.0,0.0,59,115,Electric Guitar
303.25,0.12195121951219512,38,127,Electric Guitar
303.25,0.0,42,90,Electric Guitar
303.25,0.0,54,90,Electric Guitar
303.25,0.0,70,90,Electric Guitar
303.25,0.0,36,86,Electric Guitar
303.25,0.0,42,86,Electric Guitar
303.25,0.16260162601626016,80,107,Electric Guitar
303.25,0.16260162601626016,68,107,Electric Guitar
303.25,0.0,56,90,Electric Guitar
303.25,0.0,59,90,Electric Guitar
303.25,0.0,64,90,Electric Guitar
303.5,0.24390243902439024,40,127,Electric Guitar
303.5,0.16260162601626016,76,108,Electric Guitar
303.5,0.0,52,127,Electric Guitar
303.5,0.0,56,127,Electric Guitar
303.5,0.0,64,127,Electric Guitar
303.5,0.0,40,127,Electric Guitar
303.5,0.0,59,127,Electric Guitar
303.5,0.0,46,127,Electric Guitar
303.5,0.0,54,127,Electric Guitar
303.5,0.0,70,127,Electric Guitar
303.5,0.0,42,89,Electric Guitar
303.5,0.0,64,87,Electric Guitar
303.5,0.0,59,87,Electric Guitar
303.5,0.0,56,87,Electric Guitar
303.75,0.12195121951219512,38,77,Electric Guitar
303.75,0.0,54,82,Electric Guitar
303.75,0.0,70,82,Electric Guitar
303.75,0.0,36,84,Electric Guitar
303.75,0.0,42,84,Electric Guitar
303.75,0.0,64,92,Electric Guitar
303.75,0.0,59,92,Electric Guitar
303.75,0.0,56,92,Electric Guitar
304.0,0.24390243902439024,33,127,Electric Guitar
304.0,0.4878048780487805,72,102,Electric Guitar
304.0,0.4878048780487805,67,102,Electric Guitar
304.0,0.36585365853658536,76,104,Electric Guitar
304.0,0.36585365853658536,57,104,Electric Guitar
304.0,0.16260162601626016,79,117,Electric Guitar
304.0,0.0,55,127,Electric Guitar
304.0,0.0,60,127,Electric Guitar
304.0,0.0,59,127,Electric Guitar
304.0,0.12195121951219512,64,127,Electric Guitar
304.0,0.12195121951219512,45,127,Electric Guitar
304.0,0.12195121951219512,36,127,Electric Guitar
304.0,0.0,42,99,Electric Guitar
304.0,0.0,54,99,Electric Guitar
304.0,0.0,70,99,Electric Guitar
304.0,0.0,36,110,Electric Guitar
304.0,0.0,42,110,Electric Guitar
304.0,0.36585365853658536,105,127,Electric Guitar
304.0,0.8536585365853658,67,127,Electric Guitar
304.0,0.36585365853658536,93,127,Electric Guitar
304.0,0.8536585365853658,45,127,Electric Guitar
304.0,0.16260162601626016,69,107,Electric Guitar
304.0,0.24390243902439024,81,107,Electric Guitar
304.0,0.0,64,116,Electric Guitar
304.0,0.0,60,116,Electric Guitar
304.0,0.0,57,116,Electric Guitar
304.25,0.0,42,82,Electric Guitar
304.25,0.0,54,82,Electric Guitar
304.25,0.0,70,82,Electric Guitar
304.25,0.0,42,63,Electric Guitar
304.25,0.0,64,94,Electric Guitar
304.25,0.0,60,94,Electric Guitar
304.25,0.0,57,94,Electric Guitar
304.5,0.24390243902439024,45,127,Electric Guitar
304.5,0.12195121951219512,79,106,Electric Guitar
304.5,0.0,46,124,Electric Guitar
304.5,0.0,54,124,Electric Guitar
304.5,0.0,70,124,Electric Guitar
304.5,0.0,42,93,Electric Guitar
304.5,0.0,64,66,Electric Guitar
304.5,0.0,60,66,Electric Guitar
304.5,0.0,57,66,Electric Guitar
304.75,0.0,54,60,Electric Guitar
304.75,0.0,70,60,Electric Guitar
304.75,0.0,36,85,Electric Guitar
304.75,0.0,42,85,Electric Guitar
304.75,0.0,101,127,Electric Guitar
304.75,0.0,89,127,Electric Guitar
304.75,0.0,64,88,Electric Guitar
304.75,0.0,60,88,Electric Guitar
304.75,0.0,57,88,Electric Guitar
305.0,0.12195121951219512,35,127,Electric Guitar
305.0,0.0,79,97,Electric Guitar
305.0,0.24390243902439024,55,127,Electric Guitar
305.0,0.24390243902439024,64,127,Electric Guitar
305.0,0.24390243902439024,60,127,Electric Guitar
305.0,0.24390243902439024,59,127,Electric Guitar
305.0,0.3252032520325203,45,127,Electric Guitar
305.0,0.12195121951219512,36,127,Electric Guitar
305.0,0.12195121951219512,38,127,Electric Guitar
305.0,0.0,42,94,Electric Guitar
305.0,0.0,54,94,Electric Guitar
305.0,0.0,70,94,Electric Guitar
305.0,0.0,42,106,Electric Guitar
305.0,0.0,40,106,Electric Guitar
305.0,0.12195121951219512,100,127,Electric Guitar
305.0,0.24390243902439024,99,127,Electric Guitar
305.0,0.12195121951219512,88,127,Electric Guitar
305.0,0.24390243902439024,87,127,Electric Guitar
305.0,0.0,64,114,Electric Guitar
305.0,0.0,60,114,Electric Guitar
305.0,0.0,57,114,Electric Guitar
305.25,0.12195121951219512,36,127,Electric Guitar
305.25,0.16260162601626016,79,122,Electric Guitar
305.25,0.0,42,90,Electric Guitar
305.25,0.0,54,90,Electric Guitar
305.25,0.0,70,90,Electric Guitar
305.25,0.0,42,53,Electric Guitar
305.25,0.0,64,85,Electric Guitar
305.25,0.0,60,85,Electric Guitar
305.25,0.0,57,85,Electric Guitar
305.5,0.12195121951219512,37,127,Electric Guitar
305.5,0.0,46,127,Electric Guitar
305.5,0.0,54,127,Electric Guitar
305.5,0.0,70,127,Electric Guitar
305.5,0.0,36,102,Electric Guitar
305.5,0.0,42,102,Electric Guitar
305.5,0.6504065040650406,98,127,Electric Guitar
305.5,0.6504065040650406,86,127,Electric Guitar
305.5,0.0,64,96,Electric Guitar
305.5,0.0,60,96,Electric Guitar
305.5,0.0,57,96,Electric Guitar
305.75,0.12195121951219512,38,127,Electric Guitar
305.75,0.6097560975609756,72,101,Electric Guitar
305.75,0.6097560975609756,66,101,Electric Guitar
305.75,0.6097560975609756,50,101,Electric Guitar
305.75,0.6504065040650406,76,105,Electric Guitar
305.75,0.4878048780487805,69,96,Electric Guitar
305.75,0.6504065040650406,78,117,Electric Guitar
305.75,0.0,60,127,Electric Guitar
305.75,0.0,64,127,Electric Guitar
305.75,0.0,54,127,Electric Guitar
305.75,0.0,57,127,Electric Guitar
305.75,0.12195121951219512,38,127,Electric Guitar
305.75,0.0,54,82,Electric Guitar
305.75,0.0,70,82,Electric Guitar
305.75,0.0,36,84,Electric Guitar
305.75,0.0,42,84,Electric Guitar
305.75,1.0975609756097562,66,127,Electric Guitar
305.75,1.0975609756097562,50,127,Electric Guitar
305.75,0.0,64,85,Electric Guitar
305.75,0.0,57,85,Electric Guitar
305.75,0.0,60,85,Electric Guitar
306.0,0.24390243902439024,38,127,Electric Guitar
306.0,0.12195121951219512,36,127,Electric Guitar
306.0,0.0,42,99,Electric Guitar
306.0,0.0,54,99,Electric Guitar
306.0,0.0,70,99,Electric Guitar
306.0,0.0,44,117,Electric Guitar
306.0,0.0,62,115,Electric Guitar
306.0,0.0,66,115,Electric Guitar
306.0,0.0,57,115,Electric Guitar
306.25,0.0,42,82,Electric Guitar
306.25,0.0,54,82,Electric Guitar
306.25,0.0,70,82,Electric Guitar
306.25,0.12195121951219512,38,77,Electric Guitar
306.25,0.0,42,63,Electric Guitar
306.25,0.0,66,78,Electric Guitar
306.25,0.0,62,78,Electric Guitar
306.25,0.0,57,78,Electric Guitar
306.5,0.24390243902439024,36,127,Electric Guitar
306.5,0.36585365853658536,38,127,Electric Guitar
306.5,0.36585365853658536,54,127,Electric Guitar
306.5,0.36585365853658536,57,127,Electric Guitar
306.5,0.36585365853658536,64,127,Electric Guitar
306.5,0.36585365853658536,60,127,Electric Guitar
306.5,0.0,46,124,Electric Guitar
306.5,0.0,54,124,Electric Guitar
306.5,0.0,70,124,Electric Guitar
306.5,0.0,36,100,Electric Guitar
306.5,0.0,42,100,Electric Guitar
306.5,0.12195121951219512,69,107,Electric Guitar
306.5,0.12195121951219512,81,107,Electric Guitar
306.5,0.0,66,78,Electric Guitar
306.5,0.0,57,78,Electric Guitar
306.5,0.0,62,78,Electric Guitar
306.75,0.0,54,60,Electric Guitar
306.75,0.0,70,60,Electric Guitar
306.75,0.0,42,71,Electric Guitar
306.75,0.0,62,84,Electric Guitar
306.75,0.0,66,84,Electric Guitar
306.75,0.0,57,84,Electric Guitar
307.0,0.12195121951219512,36,127,Electric Guitar
307.0,0.12195121951219512,36,127,Electric Guitar
307.0,0.12195121951219512,38,127,Electric Guitar
307.0,0.0,42,94,Electric Guitar
307.0,0.0,54,94,Electric Guitar
307.0,0.0,70,94,Electric Guitar
307.0,0.0,44,124,Electric Guitar
307.0,0.0,40,124,Electric Guitar
307.0,0.36585365853658536,96,127,Electric Guitar
307.0,0.36585365853658536,84,127,Electric Guitar
307.0,0.12195121951219512,69,107,Electric Guitar
307.0,0.12195121951219512,81,107,Electric Guitar
307.0,0.0,66,112,Electric Guitar
307.0,0.0,57,112,Electric Guitar
307.0,0.0,62,112,Electric Guitar
307.25,0.12195121951219512,38,127,Electric Guitar
307.25,0.0,42,90,Electric Guitar
307.25,0.0,54,90,Electric Guitar
307.25,0.0,70,90,Electric Guitar
307.25,0.0,36,86,Electric Guitar
307.25,0.0,42,86,Electric Guitar
307.25,0.24390243902439024,84,107,Electric Guitar
307.25,0.16260162601626016,72,107,Electric Guitar
307.25,0.0,66,92,Electric Guitar
307.25,0.0,62,92,Electric Guitar
307.25,0.0,57,92,Electric Guitar
307.5,0.12195121951219512,36,127,Electric Guitar
307.5,0.16260162601626016,76,124,Electric Guitar
307.5,0.0,54,127,Electric Guitar
307.5,0.0,60,127,Electric Guitar
307.5,0.0,64,127,Electric Guitar
307.5,0.0,57,127,Electric Guitar
307.5,0.12195121951219512,38,127,Electric Guitar
307.5,0.0,46,127,Electric Guitar
307.5,0.0,54,127,Electric Guitar
307.5,0.0,70,127,Electric Guitar
307.5,0.0,42,89,Electric Guitar
307.5,0.0,66,83,Electric Guitar
307.5,0.0,57,83,Electric Guitar
307.5,0.0,62,83,Electric Guitar
307.75,0.12195121951219512,33,127,Electric Guitar
307.75,0.12195121951219512,38,77,Electric Guitar
307.75,0.0,54,82,Electric Guitar
307.75,0.0,70,82,Electric Guitar
307.75,0.0,36,84,Electric Guitar
307.75,0.0,42,84,Electric Guitar
307.75,0.12195121951219512,95,127,Electric Guitar
307.75,0.12195121951219512,94,127,Electric Guitar
307.75,0.12195121951219512,83,127,Electric Guitar
307.75,0.12195121951219512,82,127,Electric Guitar
307.75,0.0,66,85,Electric Guitar
307.75,0.0,62,85,Electric Guitar
307.75,0.0,57,85,Electric Guitar
308.0,0.16260162601626016,38,127,Electric Guitar
308.0,1.4634146341463414,72,101,Electric Guitar
308.0,1.4634146341463414,65,101,Electric Guitar
308.0,1.4634146341463414,50,101,Electric Guitar
308.0,1.4634146341463414,76,101,Electric Guitar
308.0,1.4634146341463414,69,102,Electric Guitar
308.0,0.16260162601626016,38,127,Electric Guitar
308.0,0.0,57,127,Electric Guitar
308.0,0.0,60,127,Electric Guitar
308.0,0.0,53,127,Electric Guitar
308.0,0.0,64,127,Electric Guitar
308.0,0.12195121951219512,36,127,Electric Guitar
308.0,0.0,42,99,Electric Guitar
308.0,0.0,54,99,Electric Guitar
308.0,0.0,70,99,Electric Guitar
308.0,0.0,36,110,Electric Guitar
308.0,0.0,42,110,Electric Guitar
308.0,1.4634146341463414,93,127,Electric Guitar
308.0,1.951219512195122,62,127,Electric Guitar
308.0,1.4634146341463414,81,127,Electric Guitar
308.0,1.951219512195122,50,127,Electric Guitar
308.0,0.16260162601626016,81,107,Electric Guitar
308.0,0.16260162601626016,69,107,Electric Guitar
308.0,0.0,57,110,Electric Guitar
308.0,0.0,65,110,Electric Guitar
308.0,0.0,62,110,Electric Guitar
308.25,0.0,42,82,Electric Guitar
308.25,0.0,54,82,Electric Guitar
308.25,0.0,70,82,Electric Guitar
308.25,0.0,42,63,Electric Guitar
308.25,0.0,65,86,Electric Guitar
308.25,0.0,62,86,Electric Guitar
308.25,0.0,57,86,Electric Guitar
308.5,0.24390243902439024,38,127,Electric Guitar
308.5,0.16260162601626016,74,127,Electric Guitar
308.5,0.0,46,124,Electric Guitar
308.5,0.0,54,124,Electric Guitar
308.5,0.0,70,124,Electric Guitar
308.5,0.0,42,93,Electric Guitar
308.5,0.0,57,83,Electric Guitar
308.5,0.0,65,83,Electric Guitar
308.5,0.0,62,83,Electric Guitar
308.75,0.0,54,60,Electric Guitar
308.75,0.0,70,60,Electric Guitar
308.75,0.0,36,85,Electric Guitar
308.75,0.0,42,85,Electric Guitar
308.75,0.0,65,84,Electric Guitar
308.75,0.0,57,84,Electric Guitar
308.75,0.0,62,84,Electric Guitar
309.0,0.12195121951219512,38,127,Electric Guitar
309.0,0.16260162601626016,74,113,Electric Guitar
309.0,0.24390243902439024,60,127,Electric Guitar
309.0,0.24390243902439024,64,127,Electric Guitar
309.0,0.24390243902439024,57,127,Electric Guitar
309.0,0.24390243902439024,53,127,Electric Guitar
309.0,0.3252032520325203,38,127,Electric Guitar
309.0,0.12195121951219512,36,127,Electric Guitar
309.0,0.12195121951219512,38,127,Electric Guitar
309.0,0.0,42,94,Electric Guitar
309.0,0.0,54,94,Electric Guitar
309.0,0.0,70,94,Electric Guitar
309.0,0.0,42,106,Electric Guitar
309.0,0.0,40,106,Electric Guitar
309.0,0.0,65,110,Electric Guitar
309.0,0.0,57,110,Electric Guitar
309.0,0.0,62,110,Electric Guitar
309.25,0.12195121951219512,33,127,Electric Guitar
309.25,0.0,42,90,Electric Guitar
309.25,0.0,54,90,Electric Guitar
309.25,0.0,70,90,Electric Guitar
309.25,0.0,42,53,Electric Guitar
309.25,0.0,57,83,Electric Guitar
309.25,0.0,62,83,Electric Guitar
309.25,0.0,65,83,Electric Guitar
309.5,0.12195121951219512,26,127,Electric Guitar
309.5,0.16260162601626016,72,117,Electric Guitar
309.5,0.0,46,127,Electric Guitar
309.5,0.0,54,127,Electric Guitar
309.5,0.0,70,127,Electric Guitar
309.5,0.0,36,102,Electric Guitar
309.5,0.0,42,102,Electric Guitar
309.5,0.0,65,79,Electric Guitar
309.5,0.0,57,79,Electric Guitar
309.5,0.0,62,79,Electric Guitar
309.75,0.36585365853658536,26,127,Electric Guitar
309.75,0.0,57,127,Electric Guitar
309.75,0.0,64,127,Electric Guitar
309.75,0.0,53,127,Electric Guitar
309.75,0.0,60,127,Electric Guitar
309.75,0.12195121951219512,38,127,Electric Guitar
309.75,0.0,54,82,Electric Guitar
309.75,0.0,70,82,Electric Guitar
309.75,0.0,36,84,Electric Guitar
309.75,0.0,42,84,Electric Guitar
309.75,0.0,57,87,Electric Guitar
309.75,0.0,65,87,Electric Guitar
309.75,0.0,62,87,Electric Guitar
310.0,0.36585365853658536,72,120,Electric Guitar
310.0,0.12195121951219512,36,127,Electric Guitar
310.0,0.0,42,99,Electric Guitar
310.0,0.0,54,99,Electric Guitar
310.0,0.0,70,99,Electric Guitar
310.0,0.0,44,117,Electric Guitar
310.0,0.0,57,116,Electric Guitar
310.0,0.0,65,116,Electric Guitar
310.0,0.0,62,116,Electric Guitar
310.25,0.0,42,82,Electric Guitar
310.25,0.0,54,82,Electric Guitar
310.25,0.0,70,82,Electric Guitar
310.25,0.12195121951219512,38,77,Electric Guitar
310.25,0.0,42,63,Electric Guitar
310.25,0.0,62,65,Electric Guitar
310.25,0.0,57,65,Electric Guitar
310.25,0.0,65,65,Electric Guitar
310.5,0.24390243902439024,33,127,Electric Guitar
310.5,0.36585365853658536,64,127,Electric Guitar
310.5,0.36585365853658536,57,127,Electric Guitar
310.5,0.36585365853658536,38,127,Electric Guitar
310.5,0.36585365853658536,53,127,Electric Guitar
310.5,0.36585365853658536,60,127,Electric Guitar
310.5,0.0,46,124,Electric Guitar
310.5,0.0,54,124,Electric Guitar
310.5,0.0,70,124,Electric Guitar
310.5,0.0,36,100,Electric Guitar
310.5,0.0,42,100,Electric Guitar
310.5,0.0,62,94,Electric Guitar
310.5,0.0,57,94,Electric Guitar
310.5,0.0,65,94,Electric Guitar
310.75,0.0,54,60,Electric Guitar
310.75,0.0,70,60,Electric Guitar
310.75,0.0,42,71,Electric Guitar
310.75,0.0,62,78,Electric Guitar
310.75,0.0,65,78,Electric Guitar
310.75,0.0,57,78,Electric Guitar
311.0,0.12195121951219512,38,127,Electric Guitar
311.0,0.24390243902439024,76,122,Electric Guitar
311.0,0.12195121951219512,36,127,Electric Guitar
311.0,0.12195121951219512,38,127,Electric Guitar
311.0,0.0,42,94,Electric Guitar
311.0,0.0,54,94,Electric Guitar
311.0,0.0,70,94,Electric Guitar
311.0,0.0,44,124,Electric Guitar
311.0,0.0,40,124,Electric Guitar
311.0,0.24390243902439024,87,127,Electric Guitar
311.0,0.24390243902439024,75,127,Electric Guitar
311.0,0.0,57,107,Electric Guitar
311.0,0.0,62,107,Electric Guitar
311.0,0.0,65,107,Electric Guitar
311.25,0.12195121951219512,33,127,Electric Guitar
311.25,0.0,42,90,Electric Guitar
311.25,0.0,54,90,Electric Guitar
311.25,0.0,70,90,Electric Guitar
311.25,0.0,36,86,Electric Guitar
311.25,0.0,42,86,Electric Guitar
311.25,0.0,65,89,Electric Guitar
311.25,0.0,62,89,Electric Guitar
311.25,0.0,57,89,Electric Guitar
311.5,0.24390243902439024,26,127,Electric Guitar
311.5,0.36585365853658536,74,122,Electric Guitar
311.5,0.0,53,127,Electric Guitar
311.5,0.0,60,127,Electric Guitar
311.5,0.12195121951219512,57,127,Electric Guitar
311.5,0.12195121951219512,64,127,Electric Guitar
311.5,0.12195121951219512,38,127,Electric Guitar
311.5,0.0,46,127,Electric Guitar
311.5,0.0,54,127,Electric Guitar
311.5,0.0,70,127,Electric Guitar
311.5,0.0,42,89,Electric Guitar
311.5,0.975609756097561,86,127,Electric Guitar
311.5,0.975609756097561,74,127,Electric Guitar
311.5,0.0,57,84,Electric Guitar
311.5,0.0,65,84,Electric Guitar
311.5,0.0,62,84,Electric Guitar
311.75,0.12195121951219512,38,77,Electric Guitar
311.75,0.0,54,82,Electric Guitar
311.75,0.0,70,82,Electric Guitar
311.75,0.0,36,84,Electric Guitar
311.75,0.0,42,84,Electric Guitar
311.75,0.0,65,84,Electric Guitar
311.75,0.0,62,84,Electric Guitar
311.75,0.0,57,84,Electric Guitar
312.0,0.24390243902439024,28,127,Electric Guitar
312.0,0.7317073170731707,64,105,Electric Guitar
312.0,0.7317073170731707,71,105,Electric Guitar
312.0,0.8130081300813008,74,102,Electric Guitar
312.0,0.8130081300813008,68,102,Electric Guitar
312.0,0.8130081300813008,52,102,Electric Guitar
312.0,0.0,56,127,Electric Guitar
312.0,0.0,52,127,Electric Guitar
312.0,0.0,64,127,Electric Guitar
312.0,0.0,59,127,Electric Guitar
312.0,0.12195121951219512,40,127,Electric Guitar
312.0,0.12195121951219512,36,127,Electric Guitar
312.0,0.0,42,99,Electric Guitar
312.0,0.0,54,99,Electric Guitar
312.0,0.0,70,99,Electric Guitar
312.0,0.0,36,110,Electric Guitar
312.0,0.0,42,110,Electric Guitar
312.0,1.951219512195122,62,127,Electric Guitar
312.0,1.951219512195122,52,127,Electric Guitar
312.0,0.24390243902439024,76,107,Electric Guitar
312.0,0.24390243902439024,64,107,Electric Guitar
312.0,0.0,64,113,Electric Guitar
312.0,0.0,56,113,Electric Guitar
312.0,0.0,59,113,Electric Guitar
312.25,0.0,42,82,Electric Guitar
312.25,0.0,54,82,Electric Guitar
312.25,0.0,70,82,Electric Guitar
312.25,0.0,42,63,Electric Guitar
312.25,0.0,64,79,Electric Guitar
312.25,0.0,59,79,Electric Guitar
312.25,0.0,56,79,Electric Guitar
312.5,0.24390243902439024,28,127,Electric Guitar
312.5,0.24390243902439024,76,120,Electric Guitar
312.5,0.0,46,124,Electric Guitar
312.5,0.0,54,124,Electric Guitar
312.5,0.0,70,124,Electric Guitar
312.5,0.0,42,93,Electric Guitar
312.5,0.0,64,79,Electric Guitar
312.5,0.0,59,79,Electric Guitar
312.5,0.0,56,79,Electric Guitar
312.75,0.0,54,60,Electric Guitar
312.75,0.0,70,60,Electric Guitar
312.75,0.0,36,85,Electric Guitar
312.75,0.0,42,85,Electric Guitar
312.75,0.0,64,75,Electric Guitar
312.75,0.0,59,75,Electric Guitar
312.75,0.0,56,75,Electric Guitar
313.0,0.12195121951219512,40,127,Electric Guitar
313.0,0.3252032520325203,40,127,Electric Guitar
313.0,0.24390243902439024,56,127,Electric Guitar
313.0,0.24390243902439024,52,127,Electric Guitar
313.0,0.24390243902439024,59,127,Electric Guitar
313.0,0.24390243902439024,64,127,Electric Guitar
313.0,0.12195121951219512,36,127,Electric Guitar
313.0,0.12195121951219512,38,127,Electric Guitar
313.0,0.0,42,94,Electric Guitar
313.0,0.0,54,94,Electric Guitar
313.0,0.0,70,94,Electric Guitar
313.0,0.0,42,106,Electric Guitar
313.0,0.0,40,106,Electric Guitar
313.0,0.0,56,107,Electric Guitar
313.0,0.0,64,107,Electric Guitar
313.0,0.0,59,107,Electric Guitar
313.25,0.12195121951219512,28,127,Electric Guitar
313.25,0.0,42,90,Electric Guitar
313.25,0.0,54,90,Electric Guitar
313.25,0.0,70,90,Electric Guitar
313.25,0.0,42,53,Electric Guitar
313.25,0.0,64,72,Electric Guitar
313.25,0.0,56,72,Electric Guitar
313.25,0.0,59,72,Electric Guitar
313.5,0.12195121951219512,28,127,Electric Guitar
313.5,0.24390243902439024,76,110,Electric Guitar
313.5,0.0,46,127,Electric Guitar
313.5,0.0,54,127,Electric Guitar
313.5,0.0,70,127,Electric Guitar
313.5,0.0,36,102,Electric Guitar
313.5,0.0,42,102,Electric Guitar
313.5,0.0,64,67,Electric Guitar
313.5,0.0,59,67,Electric Guitar
313.5,0.0,56,67,Electric Guitar
313.75,0.36585365853658536,28,127,Electric Guitar
313.75,0.0,56,127,Electric Guitar
313.75,0.0,64,127,Electric Guitar
313.75,0.0,52,127,Electric Guitar
313.75,0.0,59,127,Electric Guitar
313.75,0.12195121951219512,40,127,Electric Guitar
313.75,0.0,54,82,Electric Guitar
313.75,0.0,70,82,Electric Guitar
313.75,0.0,36,84,Electric Guitar
313.75,0.0,42,84,Electric Guitar
313.75,0.0,64,68,Electric Guitar
313.75,0.0,56,68,Electric Guitar
313.75,0.0,59,68,Electric Guitar
314.0,0.24390243902439024,79,117,Electric Guitar
314.0,0.12195121951219512,36,127,Electric Guitar
314.0,0.0,42,99,Electric Guitar
314.0,0.0,54,99,Electric Guitar
314.0,0.0,70,99,Electric Guitar
314.0,0.0,44,117,Electric Guitar
314.0,0.12195121951219512,86,127,Electric Guitar
314.0,0.12195121951219512,74,127,Electric Guitar
314.0,0.0,56,113,Electric Guitar
314.0,0.0,64,113,Electric Guitar
314.0,0.0,59,113,Electric Guitar
314.25,0.0,42,82,Electric Guitar
314.25,0.0,54,82,Electric Guitar
314.25,0.0,70,82,Electric Guitar
314.25,0.12195121951219512,38,77,Electric Guitar
314.25,0.0,42,63,Electric Guitar
314.25,0.12195121951219512,87,127,Electric Guitar
314.25,0.12195121951219512,75,127,Electric Guitar
314.25,0.0,59,70,Electric Guitar
314.25,0.0,64,70,Electric Guitar
314.25,0.0,56,70,Electric Guitar
314.5,0.12195121951219512,28,127,Electric Guitar
314.5,0.16260162601626016,76,108,Electric Guitar
314.5,0.36585365853658536,40,127,Electric Guitar
314.5,0.36585365853658536,56,127,Electric Guitar
314.5,0.36585365853658536,52,127,Electric Guitar
314.5,0.36585365853658536,59,127,Electric Guitar
314.5,0.36585365853658536,64,127,Electric Guitar
314.5,0.0,46,124,Electric Guitar
314.5,0.0,54,124,Electric Guitar
314.5,0.0,70,124,Electric Guitar
314.5,0.0,36,100,Electric Guitar
314.5,0.0,42,100,Electric Guitar
314.5,0.12195121951219512,86,127,Electric Guitar
314.5,0.12195121951219512,74,127,Electric Guitar
314.5,0.0,64,81,Electric Guitar
314.5,0.0,56,81,Electric Guitar
314.5,0.0,59,81,Electric Guitar
314.75,0.12195121951219512,28,127,Electric Guitar
314.75,0.0,54,60,Electric Guitar
314.75,0.0,70,60,Electric Guitar
314.75,0.0,42,71,Electric Guitar
314.75,0.12195121951219512,84,127,Electric Guitar
314.75,0.12195121951219512,72,127,Electric Guitar
314.75,0.0,59,71,Electric Guitar
314.75,0.0,64,71,Electric Guitar
314.75,0.0,56,71,Electric Guitar
315.0,0.12195121951219512,40,127,Electric Guitar
315.0,0.16260162601626016,83,122,Electric Guitar
315.0,0.12195121951219512,36,127,Electric Guitar
315.0,0.12195121951219512,38,127,Electric Guitar
315.0,0.0,42,94,Electric Guitar
315.0,0.0,54,94,Electric Guitar
315.0,0.0,70,94,Electric Guitar
315.0,0.0,44,124,Electric Guitar
315.0,0.0,40,124,Electric Guitar
315.0,0.0,86,127,Electric Guitar
315.0,0.0,74,127,Electric Guitar
315.0,0.0,56,110,Electric Guitar
315.0,0.0,64,110,Electric Guitar
315.0,0.0,59,110,Electric Guitar
315.25,0.12195121951219512,38,127,Electric Guitar
315.25,0.0,42,90,Electric Guitar
315.25,0.0,54,90,Electric Guitar
315.25,0.0,70,90,Electric Guitar
315.25,0.0,36,86,Electric Guitar
315.25,0.0,42,86,Electric Guitar
315.25,0.36585365853658536,84,127,Electric Guitar
315.25,0.36585365853658536,72,127,Electric Guitar
315.25,0.0,56,68,Electric Guitar
315.25,0.0,59,68,Electric Guitar
315.25,0.0,64,68,Electric Guitar
315.5,0.24390243902439024,40,127,Electric Guitar
315.5,0.4878048780487805,83,117,Electric Guitar
315.5,0.12195121951219512,40,127,Electric Guitar
315.5,0.0,56,127,Electric Guitar
315.5,0.0,59,127,Electric Guitar
315.5,0.0,64,127,Electric Guitar
315.5,0.0,52,127,Electric Guitar
315.5,0.0,46,127,Electric Guitar
315.5,0.0,54,127,Electric Guitar
315.5,0.0,70,127,Electric Guitar
315.5,0.0,42,89,Electric Guitar
315.5,0.0,64,77,Electric Guitar
315.5,0.0,56,77,Electric Guitar
315.5,0.0,59,77,Electric Guitar
315.75,0.12195121951219512,38,77,Electric Guitar
315.75,0.0,54,82,Electric Guitar
315.75,0.0,70,82,Electric Guitar
315.75,0.0,36,84,Electric Guitar
315.75,0.0,42,84,Electric Guitar
315.75,0.0,64,72,Electric Guitar
315.75,0.0,56,72,Electric Guitar
315.75,0.0,59,72,Electric Guitar
316.0,0.16260162601626016,33,127,Electric Guitar
316.0,1.951219512195122,71,93,Electric Guitar
316.0,1.951219512195122,72,93,Electric Guitar
316.0,1.951219512195122,45,93,Electric Guitar
316.0,1.951219512195122,76,93,Electric Guitar
316.0,1.951219512195122,67,93,Electric Guitar
316.0,0.0,59,127,Electric Guitar
316.0,0.0,55,127,Electric Guitar
316.0,0.0,60,127,Electric Guitar
316.0,0.0,64,127,Electric Guitar
316.0,0.12195121951219512,45,127,Electric Guitar
316.0,0.12195121951219512,36,127,Electric Guitar
316.0,0.12195121951219512,49,127,Electric Guitar
316.0,0.0,42,99,Electric Guitar
316.0,0.0,54,99,Electric Guitar
316.0,0.0,70,99,Electric Guitar
316.0,0.0,36,110,Electric Guitar
316.0,0.0,42,110,Electric Guitar
316.0,0.0,64,116,Electric Guitar
316.0,0.0,57,116,Electric Guitar
316.0,0.0,60,116,Electric Guitar
316.25,0.0,42,82,Electric Guitar
316.25,0.0,54,82,Electric Guitar
316.25,0.0,70,82,Electric Guitar
316.25,0.0,42,63,Electric Guitar
316.25,0.0,57,75,Electric Guitar
316.25,0.0,64,75,Electric Guitar
316.25,0.0,60,75,Electric Guitar
316.5,0.0,81,117,Electric Guitar
316.5,0.12195121951219512,72,127,Electric Guitar
316.5,0.12195121951219512,76,127,Electric Guitar
316.5,0.12195121951219512,81,127,Electric Guitar
316.5,0.12195121951219512,69,127,Electric Guitar
316.5,0.0,46,124,Electric Guitar
316.5,0.0,54,124,Electric Guitar
316.5,0.0,70,124,Electric Guitar
316.5,0.0,42,93,Electric Guitar
316.5,0.0,64,82,Electric Guitar
316.5,0.0,57,82,Electric Guitar
316.5,0.0,60,82,Electric Guitar
316.75,0.12195121951219512,83,108,Electric Guitar
316.75,0.0,54,60,Electric Guitar
316.75,0.0,70,60,Electric Guitar
316.75,0.0,36,85,Electric Guitar
316.75,0.0,42,85,Electric Guitar
316.75,0.0,64,74,Electric Guitar
316.75,0.0,57,74,Electric Guitar
316.75,0.0,60,74,Electric Guitar
317.0,0.12195121951219512,31,127,Electric Guitar
317.0,1.4634146341463414,81,113,Electric Guitar
317.0,0.975609756097561,79,127,Electric Guitar
317.0,0.975609756097561,72,127,Electric Guitar
317.0,0.975609756097561,69,127,Electric Guitar
317.0,0.975609756097561,76,127,Electric Guitar
317.0,0.3252032520325203,64,127,Electric Guitar
317.0,0.3252032520325203,45,127,Electric Guitar
317.0,0.3252032520325203,55,127,Electric Guitar
317.0,0.3252032520325203,60,127,Electric Guitar
317.0,0.3252032520325203,59,127,Electric Guitar
317.0,0.12195121951219512,36,127,Electric Guitar
317.0,0.12195121951219512,38,127,Electric Guitar
317.0,0.0,42,94,Electric Guitar
317.0,0.0,54,94,Electric Guitar
317.0,0.0,70,94,Electric Guitar
317.0,0.0,42,106,Electric Guitar
317.0,0.0,40,106,Electric Guitar
317.0,0.0,64,109,Electric Guitar
317.0,0.0,57,109,Electric Guitar
317.0,0.0,60,109,Electric Guitar
317.25,0.12195121951219512,32,127,Electric Guitar
317.25,0.12195121951219512,69,127,Electric Guitar
317.25,0.12195121951219512,72,127,Electric Guitar
317.25,0.12195121951219512,81,127,Electric Guitar
317.25,0.12195121951219512,76,127,Electric Guitar
317.25,0.0,42,90,Electric Guitar
317.25,0.0,54,90,Electric Guitar
317.25,0.0,70,90,Electric Guitar
317.25,0.0,42,53,Electric Guitar
317.25,0.0,64,84,Electric Guitar
317.25,0.0,57,84,Electric Guitar
317.25,0.0,60,84,Electric Guitar
317.5,0.12195121951219512,33,127,Electric Guitar
317.5,0.0,46,127,Electric Guitar
317.5,0.0,54,127,Electric Guitar
317.5,0.0,70,127,Electric Guitar
317.5,0.0,36,102,Electric Guitar
317.5,0.0,42,102,Electric Guitar
317.5,0.0,64,81,Electric Guitar
317.5,0.0,57,81,Electric Guitar
317.5,0.0,60,81,Electric Guitar
317.75,0.3252032520325203,36,127,Electric Guitar
317.75,0.0,60,127,Electric Guitar
317.75,0.0,55,127,Electric Guitar
317.75,0.0,45,127,Electric Guitar
317.75,0.0,59,127,Electric Guitar
317.75,0.0,64,127,Electric Guitar
317.75,0.0,54,82,Electric Guitar
317.75,0.0,70,82,Electric Guitar
317.75,0.0,36,84,Electric Guitar
317.75,0.0,42,84,Electric Guitar
317.75,0.0,64,82,Electric Guitar
317.75,0.0,57,82,Electric Guitar
317.75,0.0,60,82,Electric Guitar
318.0,0.12195121951219512,36,127,Electric Guitar
318.0,0.0,42,99,Electric Guitar
318.0,0.0,54,99,Electric Guitar
318.0,0.0,70,99,Electric Guitar
318.0,0.0,44,117,Electric Guitar
318.0,0.0,64,113,Electric Guitar
318.0,0.0,57,113,Electric Guitar
318.0,0.0,60,113,Electric Guitar
318.25,0.0,42,82,Electric Guitar
318.25,0.0,54,82,Electric Guitar
318.25,0.0,70,82,Electric Guitar
318.25,0.12195121951219512,38,77,Electric Guitar
318.25,0.0,42,63,Electric Guitar
318.25,0.0,64,89,Electric Guitar
318.25,0.0,57,89,Electric Guitar
318.25,0.0,60,89,Electric Guitar
318.5,0.24390243902439024,38,127,Electric Guitar
318.5,0.36585365853658536,55,127,Electric Guitar
318.5,0.36585365853658536,64,127,Electric Guitar
318.5,0.36585365853658536,59,127,Electric Guitar
318.5,0.36585365853658536,60,127,Electric Guitar
318.5,0.36585365853658536,45,127,Electric Guitar
318.5,0.0,46,124,Electric Guitar
318.5,0.0,54,124,Electric Guitar
318.5,0.0,70,124,Electric Guitar
318.5,0.0,36,100,Electric Guitar
318.5,0.0,42,100,Electric Guitar
318.5,0.0,57,82,Electric Guitar
318.5,0.0,64,82,Electric Guitar
318.5,0.0,60,82,Electric Guitar
318.75,0.0,54,60,Electric Guitar
318.75,0.0,70,60,Electric Guitar
318.75,0.0,42,71,Electric Guitar
318.75,0.0,64,89,Electric Guitar
318.75,0.0,57,89,Electric Guitar
318.75,0.0,60,89,Electric Guitar
319.0,0.12195121951219512,40,127,Electric Guitar
319.0,0.12195121951219512,36,127,Electric Guitar
319.0,0.12195121951219512,38,127,Electric Guitar
319.0,0.0,42,94,Electric Guitar
319.0,0.0,54,94,Electric Guitar
319.0,0.0,70,94,Electric Guitar
319.0,0.0,44,124,Electric Guitar
319.0,0.0,40,124,Electric Guitar
319.0,0.0,64,113,Electric Guitar
319.0,0.0,57,113,Electric Guitar
319.0,0.0,60,113,Electric Guitar
319.25,0.36585365853658536,36,127,Electric Guitar
319.25,0.0,42,90,Electric Guitar
319.25,0.0,54,90,Electric Guitar
319.25,0.0,70,90,Electric Guitar
319.25,0.0,36,86,Electric Guitar
319.25,0.0,42,86,Electric Guitar
319.25,0.0,64,87,Electric Guitar
319.25,0.0,60,87,Electric Guitar
319.25,0.0,57,87,Electric Guitar
319.5,0.0,55,127,Electric Guitar
319.5,0.0,59,127,Electric Guitar
319.5,0.0,60,127,Electric Guitar
319.5,0.0,64,127,Electric Guitar
319.5,0.0,45,127,Electric Guitar
319.5,0.0,46,127,Electric Guitar
319.5,0.0,54,127,Electric Guitar
319.5,0.0,70,127,Electric Guitar
319.5,0.0,42,89,Electric Guitar
319.5,0.0,60,83,Electric Guitar
319.5,0.0,64,83,Electric Guitar
319.5,0.0,57,83,Electric Guitar
319.75,0.12195121951219512,38,77,Electric Guitar
319.75,0.0,54,82,Electric Guitar
319.75,0.0,70,82,Electric Guitar
319.75,0.0,36,84,Electric Guitar
319.75,0.0,42,84,Electric Guitar
319.75,0.0,64,86,Electric Guitar
319.75,0.0,60,86,Electric Guitar
319.75,0.0,57,86,Electric Guitar
320.0,0.16260162601626016,29,127,Electric Guitar
320.0,1.951219512195122,41,93,Electric Guitar
320.0,1.951219512195122,69,93,Electric Guitar
320.0,1.951219512195122,72,93,Electric Guitar
320.0,1.951219512195122,67,93,Electric Guitar
320.0,1.951219512195122,75,93,Electric Guitar
320.0,0.0,63,127,Electric Guitar
320.0,0.0,60,127,Electric Guitar
320.0,0.0,57,127,Electric Guitar
320.0,0.0,67,127,Electric Guitar
320.0,0.12195121951219512,41,127,Electric Guitar
320.0,0.12195121951219512,36,127,Electric Guitar
320.0,0.0,42,99,Electric Guitar
320.0,0.0,54,99,Electric Guitar
320.0,0.0,70,99,Electric Guitar
320.0,0.0,36,110,Electric Guitar
320.0,0.0,42,110,Electric Guitar
320.0,0.0,63,112,Electric Guitar
320.0,0.0,57,112,Electric Guitar
320.0,0.0,60,112,Electric Guitar
320.25,0.0,42,82,Electric Guitar
320.25,0.0,54,82,Electric Guitar
320.25,0.0,70,82,Electric Guitar
320.25,0.0,42,63,Electric Guitar
320.25,0.0,63,91,Electric Guitar
320.25,0.0,60,91,Electric Guitar
320.25,0.0,57,91,Electric Guitar
320.5,0.12195121951219512,75,127,Electric Guitar
320.5,0.12195121951219512,81,127,Electric Guitar
320.5,0.12195121951219512,72,127,Electric Guitar
320.5,0.12195121951219512,65,127,Electric Guitar
320.5,0.0,46,124,Electric Guitar
320.5,0.0,54,124,Electric Guitar
320.5,0.0,70,124,Electric Guitar
320.5,0.0,42,93,Electric Guitar
320.5,0.0,63,83,Electric Guitar
320.5,0.0,57,83,Electric Guitar
320.5,0.0,60,83,Electric Guitar
320.75,0.0,54,60,Electric Guitar
320.75,0.0,70,60,Electric Guitar
320.75,0.0,36,85,Electric Guitar
320.75,0.0,42,85,Electric Guitar
320.75,0.0,63,85,Electric Guitar
320.75,0.0,60,85,Electric Guitar
320.75,0.0,57,85,Electric Guitar
321.0,0.12195121951219512,29,127,Electric Guitar
321.0,0.3252032520325203,63,127,Electric Guitar
321.0,0.3252032520325203,60,127,Electric Guitar
321.0,0.3252032520325203,57,127,Electric Guitar
321.0,0.3252032520325203,67,127,Electric Guitar
321.0,0.3252032520325203,41,127,Electric Guitar
321.0,0.12195121951219512,36,127,Electric Guitar
321.0,0.12195121951219512,38,127,Electric Guitar
321.0,0.0,42,94,Electric Guitar
321.0,0.0,54,94,Electric Guitar
321.0,0.0,70,94,Electric Guitar
321.0,0.0,42,106,Electric Guitar
321.0,0.0,40,106,Electric Guitar
321.0,0.0,63,112,Electric Guitar
321.0,0.0,57,112,Electric Guitar
321.0,0.0,60,112,Electric Guitar
321.25,0.12195121951219512,33,127,Electric Guitar
321.25,0.12195121951219512,75,127,Electric Guitar
321.25,0.12195121951219512,72,127,Electric Guitar
321.25,0.12195121951219512,65,127,Electric Guitar
321.25,0.12195121951219512,81,127,Electric Guitar
321.25,0.0,42,90,Electric Guitar
321.25,0.0,54,90,Electric Guitar
321.25,0.0,70,90,Electric Guitar
321.25,0.0,42,53,Electric Guitar
321.25,0.0,63,84,Electric Guitar
321.25,0.0,60,84,Electric Guitar
321.25,0.0,57,84,Electric Guitar
321.5,0.12195121951219512,36,127,Electric Guitar
321.5,0.0,46,127,Electric Guitar
321.5,0.0,54,127,Electric Guitar
321.5,0.0,70,127,Electric Guitar
321.5,0.0,36,102,Electric Guitar
321.5,0.0,42,102,Electric Guitar
321.5,0.0,63,78,Electric Guitar
321.5,0.0,57,78,Electric Guitar
321.5,0.0,60,78,Electric Guitar
321.75,0.24390243902439024,39,127,Electric Guitar
321.75,0.0,57,127,Electric Guitar
321.75,0.0,41,127,Electric Guitar
321.75,0.0,67,127,Electric Guitar
321.75,0.0,63,127,Electric Guitar
321.75,0.0,60,127,Electric Guitar
321.75,0.0,54,82,Electric Guitar
321.75,0.0,70,82,Electric Guitar
321.75,0.0,36,84,Electric Guitar
321.75,0.0,42,84,Electric Guitar
321.75,0.0,63,84,Electric Guitar
321.75,0.0,57,84,Electric Guitar
321.75,0.0,60,84,Electric Guitar
322.0,0.12195121951219512,36,127,Electric Guitar
322.0,0.0,42,99,Electric Guitar
322.0,0.0,54,99,Electric Guitar
322.0,0.0,70,99,Electric Guitar
322.0,0.0,44,117,Electric Guitar
322.0,0.0,63,108,Electric Guitar
322.0,0.0,57,108,Electric Guitar
322.0,0.0,60,108,Electric Guitar
322.0,0.0,93,127,Electric Guitar
322.25,0.0,36,127,Electric Guitar
322.25,0.0,42,82,Electric Guitar
322.25,0.0,54,82,Electric Guitar
322.25,0.0,70,82,Electric Guitar
322.25,0.12195121951219512,38,77,Electric Guitar
322.25,0.0,42,63,Electric Guitar
322.25,0.0,63,85,Electric Guitar
322.25,0.0,57,85,Electric Guitar
322.25,0.0,60,85,Electric Guitar
322.25,0.12195121951219512,96,127,Electric Guitar
322.5,0.24390243902439024,38,127,Electric Guitar
322.5,0.36585365853658536,63,127,Electric Guitar
322.5,0.36585365853658536,57,127,Electric Guitar
322.5,0.36585365853658536,41,127,Electric Guitar
322.5,0.36585365853658536,67,127,Electric Guitar
322.5,0.36585365853658536,60,127,Electric Guitar
322.5,0.0,46,124,Electric Guitar
322.5,0.0,54,124,Electric Guitar
322.5,0.0,70,124,Electric Guitar
322.5,0.0,36,100,Electric Guitar
322.5,0.0,42,100,Electric Guitar
322.5,0.0,63,80,Electric Guitar
322.5,0.0,60,80,Electric Guitar
322.5,0.0,57,80,Electric Guitar
322.5,0.0,99,127,Electric Guitar
322.75,0.0,54,60,Electric Guitar
322.75,0.0,70,60,Electric Guitar
322.75,0.0,42,71,Electric Guitar
322.75,0.0,63,84,Electric Guitar
322.75,0.0,57,84,Electric Guitar
322.75,0.0,60,84,Electric Guitar
322.75,0.24390243902439024,98,127,Electric Guitar
323.0,0.12195121951219512,36,127,Electric Guitar
323.0,0.12195121951219512,36,127,Electric Guitar
323.0,0.12195121951219512,38,127,Electric Guitar
323.0,0.0,42,94,Electric Guitar
323.0,0.0,54,94,Electric Guitar
323.0,0.0,70,94,Electric Guitar
323.0,0.0,44,124,Electric Guitar
323.0,0.0,40,124,Electric Guitar
323.0,0.0,63,110,Electric Guitar
323.0,0.0,57,110,Electric Guitar
323.0,0.0,60,110,Electric Guitar
323.25,0.36585365853658536,33,127,Electric Guitar
323.25,0.0,42,90,Electric Guitar
323.25,0.0,54,90,Electric Guitar
323.25,0.0,70,90,Electric Guitar
323.25,0.0,36,86,Electric Guitar
323.25,0.0,42,86,Electric Guitar
323.25,0.0,63,87,Electric Guitar
323.25,0.0,57,87,Electric Guitar
323.25,0.0,60,87,Electric Guitar
323.5,0.0,57,127,Electric Guitar
323.5,0.0,63,127,Electric Guitar
323.5,0.0,60,127,Electric Guitar
323.5,0.0,67,127,Electric Guitar
323.5,0.0,41,127,Electric Guitar
323.5,0.0,46,127,Electric Guitar
323.5,0.0,54,127,Electric Guitar
323.5,0.0,70,127,Electric Guitar
323.5,0.0,42,89,Electric Guitar
323.5,0.0,63,92,Electric Guitar
323.5,0.0,57,92,Electric Guitar
323.5,0.0,60,92,Electric Guitar
323.5,0.12195121951219512,96,127,Electric Guitar
323.75,0.12195121951219512,38,77,Electric Guitar
323.75,0.0,54,82,Electric Guitar
323.75,0.0,70,82,Electric Guitar
323.75,0.0,36,84,Electric Guitar
323.75,0.0,42,84,Electric Guitar
323.75,0.0,63,83,Electric Guitar
323.75,0.0,60,83,Electric Guitar
323.75,0.0,57,83,Electric Guitar
324.0,0.16260162601626016,23,127,Electric Guitar
324.0,1.951219512195122,47,93,Electric Guitar
324.0,1.951219512195122,74,93,Electric Guitar
324.0,1.951219512195122,66,93,Electric Guitar
324.0,1.951219512195122,71,93,Electric Guitar
324.0,1.951219512195122,69,93,Electric Guitar
324.0,0.0,66,127,Electric Guitar
324.0,0.0,57,127,Electric Guitar
324.0,0.0,62,127,Electric Guitar
324.0,0.0,59,127,Electric Guitar
324.0,0.12195121951219512,47,127,Electric Guitar
324.0,0.12195121951219512,36,127,Electric Guitar
324.0,0.0,42,99,Electric Guitar
324.0,0.0,54,99,Electric Guitar
324.0,0.0,70,99,Electric Guitar
324.0,0.0,36,110,Electric Guitar
324.0,0.0,42,110,Electric Guitar
324.0,0.0,66,115,Electric Guitar
324.0,0.0,62,115,Electric Guitar
324.0,0.0,59,115,Electric Guitar
324.25,0.0,42,82,Electric Guitar
324.25,0.0,54,82,Electric Guitar
324.25,0.0,70,82,Electric Guitar
324.25,0.0,42,63,Electric Guitar
324.25,0.0,66,87,Electric Guitar
324.25,0.0,59,87,Electric Guitar
324.25,0.0,62,87,Electric Guitar
324.5,0.12195121951219512,74,127,Electric Guitar
324.5,0.12195121951219512,78,127,Electric Guitar
324.5,0.12195121951219512,71,127,Electric Guitar
324.5,0.12195121951219512,81,127,Electric Guitar
324.5,0.0,46,124,Electric Guitar
324.5,0.0,54,124,Electric Guitar
324.5,0.0,70,124,Electric Guitar
324.5,0.0,42,93,Electric Guitar
324.5,0.0,62,95,Electric Guitar
324.5,0.0,66,95,Electric Guitar
324.5,0.0,59,95,Electric Guitar
324.75,0.0,54,60,Electric Guitar
324.75,0.0,70,60,Electric Guitar
324.75,0.0,36,85,Electric Guitar
324.75,0.0,42,85,Electric Guitar
324.75,0.0,66,80,Electric Guitar
324.75,0.0,62,80,Electric Guitar
324.75,0.0,59,80,Electric Guitar
325.0,0.12195121951219512,30,127,Electric Guitar
325.0,0.975609756097561,74,127,Electric Guitar
325.0,0.975609756097561,69,127,Electric Guitar
325.0,0.975609756097561,71,127,Electric Guitar
325.0,0.975609756097561,78,127,Electric Guitar
325.0,0.3252032520325203,47,127,Electric Guitar
325.0,0.3252032520325203,66,127,Electric Guitar
325.0,0.3252032520325203,57,127,Electric Guitar
325.0,0.3252032520325203,62,127,Electric Guitar
325.0,0.3252032520325203,59,127,Electric Guitar
325.0,0.12195121951219512,36,127,Electric Guitar
325.0,0.12195121951219512,38,127,Electric Guitar
325.0,0.0,42,94,Electric Guitar
325.0,0.0,54,94,Electric Guitar
325.0,0.0,70,94,Electric Guitar
325.0,0.0,42,106,Electric Guitar
325.0,0.0,40,106,Electric Guitar
325.0,0.0,66,111,Electric Guitar
325.0,0.0,62,111,Electric Guitar
325.0,0.0,59,111,Electric Guitar
325.25,0.12195121951219512,33,127,Electric Guitar
325.25,0.12195121951219512,71,127,Electric Guitar
325.25,0.12195121951219512,78,127,Electric Guitar
325.25,0.12195121951219512,74,127,Electric Guitar
325.25,0.12195121951219512,81,127,Electric Guitar
325.25,0.0,42,90,Electric Guitar
325.25,0.0,54,90,Electric Guitar
325.25,0.0,70,90,Electric Guitar
325.25,0.0,42,53,Electric Guitar
325.25,0.0,66,93,Electric Guitar
325.25,0.0,59,93,Electric Guitar
325.25,0.0,62,93,Electric Guitar
325.5,0.12195121951219512,30,127,Electric Guitar
325.5,0.0,46,127,Electric Guitar
325.5,0.0,54,127,Electric Guitar
325.5,0.0,70,127,Electric Guitar
325.5,0.0,36,102,Electric Guitar
325.5,0.0,42,102,Electric Guitar
325.5,0.0,66,88,Electric Guitar
325.5,0.0,62,88,Electric Guitar
325.5,0.0,59,88,Electric Guitar
325.75,0.36585365853658536,35,127,Electric Guitar
325.75,0.0,57,127,Electric Guitar
325.75,0.0,59,127,Electric Guitar
325.75,0.0,62,127,Electric Guitar
325.75,0.0,66,127,Electric Guitar
325.75,0.12195121951219512,47,127,Electric Guitar
325.75,0.0,54,82,Electric Guitar
325.75,0.0,70,82,Electric Guitar
325.75,0.0,36,84,Electric Guitar
325.75,0.0,42,84,Electric Guitar
325.75,0.0,66,87,Electric Guitar
325.75,0.0,59,87,Electric Guitar
325.75,0.0,62,87,Electric Guitar
326.0,0.12195121951219512,36,127,Electric Guitar
326.0,0.0,42,99,Electric Guitar
326.0,0.0,54,99,Electric Guitar
326.0,0.0,70,99,Electric Guitar
326.0,0.0,44,117,Electric Guitar
326.0,0.0,66,116,Electric Guitar
326.0,0.0,59,116,Electric Guitar
326.0,0.0,62,116,Electric Guitar
326.25,0.0,42,82,Electric Guitar
326.25,0.0,54,82,Electric Guitar
326.25,0.0,70,82,Electric Guitar
326.25,0.12195121951219512,38,77,Electric Guitar
326.25,0.0,42,63,Electric Guitar
326.25,0.0,66,86,Electric Guitar
326.25,0.0,62,86,Electric Guitar
326.25,0.0,59,86,Electric Guitar
326.5,0.16260162601626016,38,127,Electric Guitar
326.5,0.36585365853658536,59,127,Electric Guitar
326.5,0.36585365853658536,66,127,Electric Guitar
326.5,0.36585365853658536,57,127,Electric Guitar
326.5,0.36585365853658536,62,127,Electric Guitar
326.5,0.36585365853658536,47,127,Electric Guitar
326.5,0.0,46,124,Electric Guitar
326.5,0.0,54,124,Electric Guitar
326.5,0.0,70,124,Electric Guitar
326.5,0.0,36,100,Electric Guitar
326.5,0.0,42,100,Electric Guitar
326.5,0.0,66,93,Electric Guitar
326.5,0.0,62,93,Electric Guitar
326.5,0.0,59,93,Electric Guitar
326.75,0.0,54,60,Electric Guitar
326.75,0.0,70,60,Electric Guitar
326.75,0.0,42,71,Electric Guitar
326.75,0.0,66,91,Electric Guitar
326.75,0.0,62,91,Electric Guitar
326.75,0.0,59,91,Electric Guitar
327.0,0.0,42,127,Electric Guitar
327.0,0.12195121951219512,36,127,Electric Guitar
327.0,0.12195121951219512,38,127,Electric Guitar
327.0,0.0,42,94,Electric Guitar
327.0,0.0,54,94,Electric Guitar
327.0,0.0,70,94,Electric Guitar
327.0,0.0,44,124,Electric Guitar
327.0,0.0,40,124,Electric Guitar
327.0,0.0,66,117,Electric Guitar
327.0,0.0,62,117,Electric Guitar
327.0,0.0,59,117,Electric Guitar
327.25,0.36585365853658536,38,127,Electric Guitar
327.25,0.0,42,90,Electric Guitar
327.25,0.0,54,90,Electric Guitar
327.25,0.0,70,90,Electric Guitar
327.25,0.0,36,86,Electric Guitar
327.25,0.0,42,86,Electric Guitar
327.25,0.0,66,91,Electric Guitar
327.25,0.0,62,91,Electric Guitar
327.25,0.0,59,91,Electric Guitar
327.5,0.0,47,127,Electric Guitar
327.5,0.0,57,127,Electric Guitar
327.5,0.0,59,127,Electric Guitar
327.5,0.0,62,127,Electric Guitar
327.5,0.0,66,127,Electric Guitar
327.5,0.0,46,127,Electric Guitar
327.5,0.0,54,127,Electric Guitar
327.5,0.0,70,127,Electric Guitar
327.5,0.0,42,89,Electric Guitar
327.5,0.0,66,95,Electric Guitar
327.5,0.0,62,95,Electric Guitar
327.5,0.0,59,95,Electric Guitar
327.75,0.12195121951219512,38,77,Electric Guitar
327.75,0.0,54,82,Electric Guitar
327.75,0.0,70,82,Electric Guitar
327.75,0.0,36,84,Electric Guitar
327.75,0.0,42,84,Electric Guitar
327.75,0.0,66,98,Electric Guitar
327.75,0.0,59,98,Electric Guitar
327.75,0.0,62,98,Electric Guitar
328.0,0.12195121951219512,28,127,Electric Guitar
328.0,1.951219512195122,40,93,Electric Guitar
328.0,1.951219512195122,64,93,Electric Guitar
328.0,0.975609756097561,68,93,Electric Guitar
328.0,0.975609756097561,72,93,Electric Guitar
328.0,0.0,59,127,Electric Guitar
328.0,0.0,62,127,Electric Guitar
328.0,0.0,56,127,Electric Guitar
328.0,0.0,65,127,Electric Guitar
328.0,0.12195121951219512,40,127,Electric Guitar
328.0,0.12195121951219512,36,127,Electric Guitar
328.0,0.0,42,99,Electric Guitar
328.0,0.0,54,99,Electric Guitar
328.0,0.0,70,99,Electric Guitar
328.0,0.0,36,110,Electric Guitar
328.0,0.0,42,110,Electric Guitar
328.0,0.0,56,117,Electric Guitar
328.0,0.0,64,117,Electric Guitar
328.0,0.0,59,117,Electric Guitar
328.25,0.0,42,82,Electric Guitar
328.25,0.0,54,82,Electric Guitar
328.25,0.0,70,82,Electric Guitar
328.25,0.0,42,63,Electric Guitar
328.25,0.0,64,86,Electric Guitar
328.25,0.0,56,86,Electric Guitar
328.25,0.0,59,86,Electric Guitar
328.5,0.12195121951219512,64,127,Electric Guitar
328.5,0.12195121951219512,72,127,Electric Guitar
328.5,0.12195121951219512,74,127,Electric Guitar
328.5,0.12195121951219512,80,127,Electric Guitar
328.5,0.0,46,124,Electric Guitar
328.5,0.0,54,124,Electric Guitar
328.5,0.0,70,124,Electric Guitar
328.5,0.0,42,93,Electric Guitar
328.5,0.0,64,80,Electric Guitar
328.5,0.0,56,80,Electric Guitar
328.5,0.0,59,80,Electric Guitar
328.75,0.0,54,60,Electric Guitar
328.75,0.0,70,60,Electric Guitar
328.75,0.0,36,85,Electric Guitar
328.75,0.0,42,85,Electric Guitar
328.75,0.0,64,83,Electric Guitar
328.75,0.0,56,83,Electric Guitar
328.75,0.0,59,83,Electric Guitar
329.0,0.0,28,127,Electric Guitar
329.0,0.3252032520325203,56,127,Electric Guitar
329.0,0.3252032520325203,62,127,Electric Guitar
329.0,0.3252032520325203,59,127,Electric Guitar
329.0,0.24390243902439024,40,127,Electric Guitar
329.0,0.24390243902439024,65,127,Electric Guitar
329.0,0.12195121951219512,36,127,Electric Guitar
329.0,0.12195121951219512,38,127,Electric Guitar
329.0,0.0,42,94,Electric Guitar
329.0,0.0,54,94,Electric Guitar
329.0,0.0,70,94,Electric Guitar
329.0,0.0,42,106,Electric Guitar
329.0,0.0,40,106,Electric Guitar
329.0,0.0,56,108,Electric Guitar
329.0,0.0,64,108,Electric Guitar
329.0,0.0,59,108,Electric Guitar
329.25,0.0,28,127,Electric Guitar
329.25,0.12195121951219512,64,127,Electric Guitar
329.25,0.12195121951219512,80,127,Electric Guitar
329.25,0.12195121951219512,74,127,Electric Guitar
329.25,0.12195121951219512,72,127,Electric Guitar
329.25,0.0,42,90,Electric Guitar
329.25,0.0,54,90,Electric Guitar
329.25,0.0,70,90,Electric Guitar
329.25,0.0,42,53,Electric Guitar
329.25,0.0,64,85,Electric Guitar
329.25,0.0,56,85,Electric Guitar
329.25,0.0,59,85,Electric Guitar
329.5,0.0,46,127,Electric Guitar
329.5,0.0,54,127,Electric Guitar
329.5,0.0,70,127,Electric Guitar
329.5,0.0,36,102,Electric Guitar
329.5,0.0,42,102,Electric Guitar
329.5,0.0,64,88,Electric Guitar
329.5,0.0,56,88,Electric Guitar
329.5,0.0,59,88,Electric Guitar
329.75,0.36585365853658536,32,127,Electric Guitar
329.75,0.0,56,127,Electric Guitar
329.75,0.0,65,127,Electric Guitar
329.75,0.0,62,127,Electric Guitar
329.75,0.0,59,127,Electric Guitar
329.75,0.0,40,127,Electric Guitar
329.75,0.0,54,82,Electric Guitar
329.75,0.0,70,82,Electric Guitar
329.75,0.0,36,84,Electric Guitar
329.75,0.0,42,84,Electric Guitar
329.75,0.0,64,84,Electric Guitar
329.75,0.0,56,84,Electric Guitar
329.75,0.0,59,84,Electric Guitar
330.0,0.975609756097561,68,93,Electric Guitar
330.0,0.12195121951219512,36,127,Electric Guitar
330.0,0.0,42,99,Electric Guitar
330.0,0.0,54,99,Electric Guitar
330.0,0.0,70,99,Electric Guitar
330.0,0.0,44,117,Electric Guitar
330.0,0.0,64,110,Electric Guitar
330.0,0.0,56,110,Electric Guitar
330.0,0.0,59,110,Electric Guitar
330.0,0.12195121951219512,105,127,Electric Guitar
330.25,0.0,42,82,Electric Guitar
330.25,0.0,54,82,Electric Guitar
330.25,0.0,70,82,Electric Guitar
330.25,0.12195121951219512,38,77,Electric Guitar
330.25,0.0,42,63,Electric Guitar
330.25,0.0,64,77,Electric Guitar
330.25,0.0,59,77,Electric Guitar
330.25,0.0,56,77,Electric Guitar
330.25,0.12195121951219512,100,127,Electric Guitar
330.5,0.12195121951219512,28,127,Electric Guitar
330.5,0.36585365853658536,56,127,Electric Guitar
330.5,0.36585365853658536,40,127,Electric Guitar
330.5,0.36585365853658536,65,127,Electric Guitar
330.5,0.36585365853658536,62,127,Electric Guitar
330.5,0.36585365853658536,59,127,Electric Guitar
330.5,0.0,46,124,Electric Guitar
330.5,0.0,54,124,Electric Guitar
330.5,0.0,70,124,Electric Guitar
330.5,0.0,36,100,Electric Guitar
330.5,0.0,42,100,Electric Guitar
330.5,0.0,56,89,Electric Guitar
330.5,0.0,64,89,Electric Guitar
330.5,0.0,59,89,Electric Guitar
330.5,0.12195121951219512,99,127,Electric Guitar
330.75,0.0,54,60,Electric Guitar
330.75,0.0,70,60,Electric Guitar
330.75,0.0,42,71,Electric Guitar
330.75,0.0,59,76,Electric Guitar
330.75,0.0,56,76,Electric Guitar
330.75,0.0,64,76,Electric Guitar
330.75,0.3252032520325203,98,127,Electric Guitar
331.0,0.0,38,127,Electric Guitar
331.0,0.12195121951219512,36,127,Electric Guitar
331.0,0.12195121951219512,38,127,Electric Guitar
331.0,0.0,42,94,Electric Guitar
331.0,0.0,54,94,Electric Guitar
331.0,0.0,70,94,Electric Guitar
331.0,0.0,44,124,Electric Guitar
331.0,0.0,40,124,Electric Guitar
331.0,0.0,56,113,Electric Guitar
331.0,0.0,64,113,Electric Guitar
331.0,0.0,59,113,Electric Guitar
331.25,0.36585365853658536,40,127,Electric Guitar
331.25,0.0,42,90,Electric Guitar
331.25,0.0,54,90,Electric Guitar
331.25,0.0,70,90,Electric Guitar
331.25,0.0,36,86,Electric Guitar
331.25,0.0,42,86,Electric Guitar
331.25,0.0,59,84,Electric Guitar
331.25,0.0,64,84,Electric Guitar
331.25,0.0,56,84,Electric Guitar
331.5,0.0,56,127,Electric Guitar
331.5,0.0,65,127,Electric Guitar
331.5,0.0,59,127,Electric Guitar
331.5,0.0,40,127,Electric Guitar
331.5,0.0,62,127,Electric Guitar
331.5,0.0,46,127,Electric Guitar
331.5,0.0,54,127,Electric Guitar
331.5,0.0,70,127,Electric Guitar
331.5,0.0,42,89,Electric Guitar
331.5,0.0,56,85,Electric Guitar
331.5,0.0,64,85,Electric Guitar
331.5,0.0,59,85,Electric Guitar
331.5,0.24390243902439024,96,127,Electric Guitar
331.75,0.12195121951219512,38,77,Electric Guitar
331.75,0.0,54,82,Electric Guitar
331.75,0.0,70,82,Electric Guitar
331.75,0.0,36,84,Electric Guitar
331.75,0.0,42,84,Electric Guitar
331.75,0.0,64,90,Electric Guitar
331.75,0.0,56,90,Electric Guitar
331.75,0.0,59,90,Electric Guitar
332.0,0.16260162601626016,33,127,Electric Guitar
332.0,1.951219512195122,67,101,Electric Guitar
332.0,1.951219512195122,64,101,Electric Guitar
332.0,1.951219512195122,45,101,Electric Guitar
332.0,1.951219512195122,71,101,Electric Guitar
332.0,0.0,59,127,Electric Guitar
332.0,0.0,55,127,Electric Guitar
332.0,0.0,60,127,Electric Guitar
332.0,0.0,64,127,Electric Guitar
332.0,0.12195121951219512,45,127,Electric Guitar
332.0,0.12195121951219512,36,127,Electric Guitar
332.0,0.12195121951219512,57,127,Electric Guitar
332.0,0.0,42,99,Electric Guitar
332.0,0.0,54,99,Electric Guitar
332.0,0.0,70,99,Electric Guitar
332.0,0.0,36,110,Electric Guitar
332.0,0.0,42,110,Electric Guitar
332.0,0.0,64,116,Electric Guitar
332.0,0.0,57,116,Electric Guitar
332.0,0.0,60,116,Electric Guitar
332.25,0.0,42,82,Electric Guitar
332.25,0.0,54,82,Electric Guitar
332.25,0.0,70,82,Electric Guitar
332.25,0.0,42,63,Electric Guitar
332.25,0.0,57,75,Electric Guitar
332.25,0.0,64,75,Electric Guitar
332.25,0.0,60,75,Electric Guitar
332.5,0.12195121951219512,72,127,Electric Guitar
332.5,0.12195121951219512,76,127,Electric Guitar
332.5,0.12195121951219512,83,127,Electric Guitar
332.5,0.12195121951219512,69,127,Electric Guitar
332.5,0.0,46,124,Electric Guitar
332.5,0.0,54,124,Electric Guitar
332.5,0.0,70,124,Electric Guitar
332.5,0.0,42,93,Electric Guitar
332.5,0.0,64,82,Electric Guitar
332.5,0.0,57,82,Electric Guitar
332.5,0.0,60,82,Electric Guitar
332.75,0.0,54,60,Electric Guitar
332.75,0.0,70,60,Electric Guitar
332.75,0.0,36,85,Electric Guitar
332.75,0.0,42,85,Electric Guitar
332.75,0.0,64,74,Electric Guitar
332.75,0.0,57,74,Electric Guitar
332.75,0.0,60,74,Electric Guitar
333.0,0.12195121951219512,31,127,Electric Guitar
333.0,0.975609756097561,79,127,Electric Guitar
333.0,0.975609756097561,72,127,Electric Guitar
333.0,0.975609756097561,69,127,Electric Guitar
333.0,0.975609756097561,76,127,Electric Guitar
333.0,0.3252032520325203,64,127,Electric Guitar
333.0,0.3252032520325203,45,127,Electric Guitar
333.0,0.3252032520325203,55,127,Electric Guitar
333.0,0.3252032520325203,60,127,Electric Guitar
333.0,0.3252032520325203,59,127,Electric Guitar
333.0,0.12195121951219512,36,127,Electric Guitar
333.0,0.12195121951219512,38,127,Electric Guitar
333.0,0.0,42,94,Electric Guitar
333.0,0.0,54,94,Electric Guitar
333.0,0.0,70,94,Electric Guitar
333.0,0.0,42,106,Electric Guitar
333.0,0.0,40,106,Electric Guitar
333.0,0.0,64,109,Electric Guitar
333.0,0.0,57,109,Electric Guitar
333.0,0.0,60,109,Electric Guitar
333.25,0.12195121951219512,32,127,Electric Guitar
333.25,0.12195121951219512,69,127,Electric Guitar
333.25,0.12195121951219512,72,127,Electric Guitar
333.25,0.12195121951219512,83,127,Electric Guitar
333.25,0.12195121951219512,76,127,Electric Guitar
333.25,0.0,42,90,Electric Guitar
333.25,0.0,54,90,Electric Guitar
333.25,0.0,70,90,Electric Guitar
333.25,0.0,42,53,Electric Guitar
333.25,0.0,64,84,Electric Guitar
333.25,0.0,57,84,Electric Guitar
333.25,0.0,60,84,Electric Guitar
333.5,0.12195121951219512,33,127,Electric Guitar
333.5,0.0,46,127,Electric Guitar
333.5,0.0,54,127,Electric Guitar
333.5,0.0,70,127,Electric Guitar
333.5,0.0,36,102,Electric Guitar
333.5,0.0,42,102,Electric Guitar
333.5,0.0,64,81,Electric Guitar
333.5,0.0,57,81,Electric Guitar
333.5,0.0,60,81,Electric Guitar
333.75,0.3252032520325203,36,127,Electric Guitar
333.75,0.0,60,127,Electric Guitar
333.75,0.0,55,127,Electric Guitar
333.75,0.0,45,127,Electric Guitar
333.75,0.0,59,127,Electric Guitar
333.75,0.0,64,127,Electric Guitar
333.75,0.0,54,82,Electric Guitar
333.75,0.0,70,82,Electric Guitar
333.75,0.0,36,84,Electric Guitar
333.75,0.0,42,84,Electric Guitar
333.75,0.0,64,82,Electric Guitar
333.75,0.0,57,82,Electric Guitar
333.75,0.0,60,82,Electric Guitar
334.0,0.12195121951219512,36,127,Electric Guitar
334.0,0.0,42,99,Electric Guitar
334.0,0.0,54,99,Electric Guitar
334.0,0.0,70,99,Electric Guitar
334.0,0.0,44,117,Electric Guitar
334.0,0.0,64,113,Electric Guitar
334.0,0.0,57,113,Electric Guitar
334.0,0.0,60,113,Electric Guitar
334.25,0.0,42,82,Electric Guitar
334.25,0.0,54,82,Electric Guitar
334.25,0.0,70,82,Electric Guitar
334.25,0.12195121951219512,38,77,Electric Guitar
334.25,0.0,42,63,Electric Guitar
334.25,0.0,64,89,Electric Guitar
334.25,0.0,57,89,Electric Guitar
334.25,0.0,60,89,Electric Guitar
334.5,0.24390243902439024,38,127,Electric Guitar
334.5,0.36585365853658536,55,127,Electric Guitar
334.5,0.36585365853658536,64,127,Electric Guitar
334.5,0.36585365853658536,59,127,Electric Guitar
334.5,0.36585365853658536,60,127,Electric Guitar
334.5,0.36585365853658536,45,127,Electric Guitar
334.5,0.0,46,124,Electric Guitar
334.5,0.0,54,124,Electric Guitar
334.5,0.0,70,124,Electric Guitar
334.5,0.0,36,100,Electric Guitar
334.5,0.0,42,100,Electric Guitar
334.5,0.0,57,82,Electric Guitar
334.5,0.0,64,82,Electric Guitar
334.5,0.0,60,82,Electric Guitar
334.75,0.0,54,60,Electric Guitar
334.75,0.0,70,60,Electric Guitar
334.75,0.0,42,71,Electric Guitar
334.75,0.0,64,89,Electric Guitar
334.75,0.0,57,89,Electric Guitar
334.75,0.0,60,89,Electric Guitar
335.0,0.12195121951219512,40,127,Electric Guitar
335.0,0.12195121951219512,36,127,Electric Guitar
335.0,0.12195121951219512,38,127,Electric Guitar
335.0,0.0,42,94,Electric Guitar
335.0,0.0,54,94,Electric Guitar
335.0,0.0,70,94,Electric Guitar
335.0,0.0,44,124,Electric Guitar
335.0,0.0,40,124,Electric Guitar
335.0,0.0,64,113,Electric Guitar
335.0,0.0,57,113,Electric Guitar
335.0,0.0,60,113,Electric Guitar
335.25,0.36585365853658536,36,127,Electric Guitar
335.25,0.0,42,90,Electric Guitar
335.25,0.0,54,90,Electric Guitar
335.25,0.0,70,90,Electric Guitar
335.25,0.0,36,86,Electric Guitar
335.25,0.0,42,86,Electric Guitar
335.25,0.0,64,87,Electric Guitar
335.25,0.0,60,87,Electric Guitar
335.25,0.0,57,87,Electric Guitar
335.5,0.0,55,127,Electric Guitar
335.5,0.0,59,127,Electric Guitar
335.5,0.0,60,127,Electric Guitar
335.5,0.0,64,127,Electric Guitar
335.5,0.0,45,127,Electric Guitar
335.5,0.0,46,127,Electric Guitar
335.5,0.0,54,127,Electric Guitar
335.5,0.0,70,127,Electric Guitar
335.5,0.0,42,89,Electric Guitar
335.5,0.0,60,83,Electric Guitar
335.5,0.0,64,83,Electric Guitar
335.5,0.0,57,83,Electric Guitar
335.75,0.12195121951219512,38,77,Electric Guitar
335.75,0.0,54,82,Electric Guitar
335.75,0.0,70,82,Electric Guitar
335.75,0.0,36,84,Electric Guitar
335.75,0.0,42,84,Electric Guitar
335.75,0.0,64,86,Electric Guitar
335.75,0.0,60,86,Electric Guitar
335.75,0.0,57,86,Electric Guitar
336.0,0.16260162601626016,29,127,Electric Guitar
336.0,1.951219512195122,41,99,Electric Guitar
336.0,1.951219512195122,63,99,Electric Guitar
336.0,1.951219512195122,69,99,Electric Guitar
336.0,1.951219512195122,72,99,Electric Guitar
336.0,0.0,63,127,Electric Guitar
336.0,0.0,60,127,Electric Guitar
336.0,0.0,57,127,Electric Guitar
336.0,0.0,67,127,Electric Guitar
336.0,0.12195121951219512,41,127,Electric Guitar
336.0,0.12195121951219512,36,127,Electric Guitar
336.0,0.0,42,99,Electric Guitar
336.0,0.0,54,99,Electric Guitar
336.0,0.0,70,99,Electric Guitar
336.0,0.0,36,110,Electric Guitar
336.0,0.0,42,110,Electric Guitar
336.0,0.0,63,112,Electric Guitar
336.0,0.0,57,112,Electric Guitar
336.0,0.0,60,112,Electric Guitar
336.25,0.0,42,82,Electric Guitar
336.25,0.0,54,82,Electric Guitar
336.25,0.0,70,82,Electric Guitar
336.25,0.0,42,63,Electric Guitar
336.25,0.0,63,91,Electric Guitar
336.25,0.0,60,91,Electric Guitar
336.25,0.0,57,91,Electric Guitar
336.5,0.12195121951219512,75,127,Electric Guitar
336.5,0.12195121951219512,81,127,Electric Guitar
336.5,0.12195121951219512,72,127,Electric Guitar
336.5,0.12195121951219512,84,127,Electric Guitar
336.5,0.0,46,124,Electric Guitar
336.5,0.0,54,124,Electric Guitar
336.5,0.0,70,124,Electric Guitar
336.5,0.0,42,93,Electric Guitar
336.5,0.0,63,83,Electric Guitar
336.5,0.0,57,83,Electric Guitar
336.5,0.0,60,83,Electric Guitar
336.75,0.0,54,60,Electric Guitar
336.75,0.0,70,60,Electric Guitar
336.75,0.0,36,85,Electric Guitar
336.75,0.0,42,85,Electric Guitar
336.75,0.0,63,85,Electric Guitar
336.75,0.0,60,85,Electric Guitar
336.75,0.0,57,85,Electric Guitar
337.0,0.12195121951219512,29,127,Electric Guitar
337.0,0.3252032520325203,63,127,Electric Guitar
337.0,0.3252032520325203,60,127,Electric Guitar
337.0,0.3252032520325203,57,127,Electric Guitar
337.0,0.3252032520325203,67,127,Electric Guitar
337.0,0.3252032520325203,41,127,Electric Guitar
337.0,0.12195121951219512,36,127,Electric Guitar
337.0,0.12195121951219512,38,127,Electric Guitar
337.0,0.0,42,94,Electric Guitar
337.0,0.0,54,94,Electric Guitar
337.0,0.0,70,94,Electric Guitar
337.0,0.0,42,106,Electric Guitar
337.0,0.0,40,106,Electric Guitar
337.0,0.0,63,112,Electric Guitar
337.0,0.0,57,112,Electric Guitar
337.0,0.0,60,112,Electric Guitar
337.25,0.12195121951219512,33,127,Electric Guitar
337.25,0.12195121951219512,75,127,Electric Guitar
337.25,0.12195121951219512,72,127,Electric Guitar
337.25,0.12195121951219512,84,127,Electric Guitar
337.25,0.12195121951219512,81,127,Electric Guitar
337.25,0.0,42,90,Electric Guitar
337.25,0.0,54,90,Electric Guitar
337.25,0.0,70,90,Electric Guitar
337.25,0.0,42,53,Electric Guitar
337.25,0.0,63,84,Electric Guitar
337.25,0.0,60,84,Electric Guitar
337.25,0.0,57,84,Electric Guitar
337.5,0.12195121951219512,36,127,Electric Guitar
337.5,0.0,46,127,Electric Guitar
337.5,0.0,54,127,Electric Guitar
337.5,0.0,70,127,Electric Guitar
337.5,0.0,36,102,Electric Guitar
337.5,0.0,42,102,Electric Guitar
337.5,0.0,63,78,Electric Guitar
337.5,0.0,57,78,Electric Guitar
337.5,0.0,60,78,Electric Guitar
337.75,0.24390243902439024,39,127,Electric Guitar
337.75,0.0,57,127,Electric Guitar
337.75,0.0,41,127,Electric Guitar
337.75,0.0,67,127,Electric Guitar
337.75,0.0,63,127,Electric Guitar
337.75,0.0,60,127,Electric Guitar
337.75,0.0,54,82,Electric Guitar
337.75,0.0,70,82,Electric Guitar
337.75,0.0,36,84,Electric Guitar
337.75,0.0,42,84,Electric Guitar
337.75,0.0,63,84,Electric Guitar
337.75,0.0,57,84,Electric Guitar
337.75,0.0,60,84,Electric Guitar
338.0,0.12195121951219512,36,127,Electric Guitar
338.0,0.0,42,99,Electric Guitar
338.0,0.0,54,99,Electric Guitar
338.0,0.0,70,99,Electric Guitar
338.0,0.0,44,117,Electric Guitar
338.0,0.0,63,108,Electric Guitar
338.0,0.0,57,108,Electric Guitar
338.0,0.0,60,108,Electric Guitar
338.0,0.0,93,127,Electric Guitar
338.25,0.0,36,127,Electric Guitar
338.25,0.0,42,82,Electric Guitar
338.25,0.0,54,82,Electric Guitar
338.25,0.0,70,82,Electric Guitar
338.25,0.12195121951219512,38,77,Electric Guitar
338.25,0.0,42,63,Electric Guitar
338.25,0.0,63,85,Electric Guitar
338.25,0.0,57,85,Electric Guitar
338.25,0.0,60,85,Electric Guitar
338.25,0.12195121951219512,96,127,Electric Guitar
338.5,0.24390243902439024,38,127,Electric Guitar
338.5,0.36585365853658536,63,127,Electric Guitar
338.5,0.36585365853658536,57,127,Electric Guitar
338.5,0.36585365853658536,41,127,Electric Guitar
338.5,0.36585365853658536,67,127,Electric Guitar
338.5,0.36585365853658536,60,127,Electric Guitar
338.5,0.0,46,124,Electric Guitar
338.5,0.0,54,124,Electric Guitar
338.5,0.0,70,124,Electric Guitar
338.5,0.0,36,100,Electric Guitar
338.5,0.0,42,100,Electric Guitar
338.5,0.0,63,80,Electric Guitar
338.5,0.0,60,80,Electric Guitar
338.5,0.0,57,80,Electric Guitar
338.5,0.0,99,127,Electric Guitar
338.75,0.0,54,60,Electric Guitar
338.75,0.0,70,60,Electric Guitar
338.75,0.0,42,71,Electric Guitar
338.75,0.0,63,84,Electric Guitar
338.75,0.0,57,84,Electric Guitar
338.75,0.0,60,84,Electric Guitar
338.75,0.24390243902439024,98,127,Electric Guitar
339.0,0.12195121951219512,36,127,Electric Guitar
339.0,0.12195121951219512,36,127,Electric Guitar
339.0,0.12195121951219512,38,127,Electric Guitar
339.0,0.0,42,94,Electric Guitar
339.0,0.0,54,94,Electric Guitar
339.0,0.0,70,94,Electric Guitar
339.0,0.0,44,124,Electric Guitar
339.0,0.0,40,124,Electric Guitar
339.0,0.0,63,110,Electric Guitar
339.0,0.0,57,110,Electric Guitar
339.0,0.0,60,110,Electric Guitar
339.25,0.36585365853658536,33,127,Electric Guitar
339.25,0.0,42,90,Electric Guitar
339.25,0.0,54,90,Electric Guitar
339.25,0.0,70,90,Electric Guitar
339.25,0.0,36,86,Electric Guitar
339.25,0.0,42,86,Electric Guitar
339.25,0.0,63,87,Electric Guitar
339.25,0.0,57,87,Electric Guitar
339.25,0.0,60,87,Electric Guitar
339.5,0.0,57,127,Electric Guitar
339.5,0.0,63,127,Electric Guitar
339.5,0.0,60,127,Electric Guitar
339.5,0.0,67,127,Electric Guitar
339.5,0.0,41,127,Electric Guitar
339.5,0.0,46,127,Electric Guitar
339.5,0.0,54,127,Electric Guitar
339.5,0.0,70,127,Electric Guitar
339.5,0.0,42,89,Electric Guitar
339.5,0.0,63,92,Electric Guitar
339.5,0.0,57,92,Electric Guitar
339.5,0.0,60,92,Electric Guitar
339.5,0.12195121951219512,96,127,Electric Guitar
339.75,0.12195121951219512,38,77,Electric Guitar
339.75,0.0,54,82,Electric Guitar
339.75,0.0,70,82,Electric Guitar
339.75,0.0,36,84,Electric Guitar
339.75,0.0,42,84,Electric Guitar
339.75,0.0,63,83,Electric Guitar
339.75,0.0,60,83,Electric Guitar
339.75,0.0,57,83,Electric Guitar
340.0,0.16260162601626016,23,127,Electric Guitar
340.0,1.951219512195122,66,99,Electric Guitar
340.0,1.951219512195122,62,99,Electric Guitar
340.0,1.951219512195122,69,99,Electric Guitar
340.0,1.951219512195122,47,99,Electric Guitar
340.0,0.0,66,127,Electric Guitar
340.0,0.0,57,127,Electric Guitar
340.0,0.0,62,127,Electric Guitar
340.0,0.0,59,127,Electric Guitar
340.0,0.12195121951219512,47,127,Electric Guitar
340.0,0.12195121951219512,36,127,Electric Guitar
340.0,0.0,42,99,Electric Guitar
340.0,0.0,54,99,Electric Guitar
340.0,0.0,70,99,Electric Guitar
340.0,0.0,36,110,Electric Guitar
340.0,0.0,42,110,Electric Guitar
340.0,0.0,66,115,Electric Guitar
340.0,0.0,62,115,Electric Guitar
340.0,0.0,59,115,Electric Guitar
340.25,0.0,42,82,Electric Guitar
340.25,0.0,54,82,Electric Guitar
340.25,0.0,70,82,Electric Guitar
340.25,0.0,42,63,Electric Guitar
340.25,0.0,66,87,Electric Guitar
340.25,0.0,59,87,Electric Guitar
340.25,0.0,62,87,Electric Guitar
340.5,0.12195121951219512,74,127,Electric Guitar
340.5,0.12195121951219512,78,127,Electric Guitar
340.5,0.12195121951219512,86,127,Electric Guitar
340.5,0.12195121951219512,81,127,Electric Guitar
340.5,0.0,46,124,Electric Guitar
340.5,0.0,54,124,Electric Guitar
340.5,0.0,70,124,Electric Guitar
340.5,0.0,42,93,Electric Guitar
340.5,0.0,62,95,Electric Guitar
340.5,0.0,66,95,Electric Guitar
340.5,0.0,59,95,Electric Guitar
340.75,0.0,54,60,Electric Guitar
340.75,0.0,70,60,Electric Guitar
340.75,0.0,36,85,Electric Guitar
340.75,0.0,42,85,Electric Guitar
340.75,0.0,66,80,Electric Guitar
340.75,0.0,62,80,Electric Guitar
340.75,0.0,59,80,Electric Guitar
341.0,0.12195121951219512,30,127,Electric Guitar
341.0,0.975609756097561,74,127,Electric Guitar
341.0,0.975609756097561,69,127,Electric Guitar
341.0,0.975609756097561,71,127,Electric Guitar
341.0,0.975609756097561,78,127,Electric Guitar
341.0,0.3252032520325203,47,127,Electric Guitar
341.0,0.3252032520325203,66,127,Electric Guitar
341.0,0.3252032520325203,57,127,Electric Guitar
341.0,0.3252032520325203,62,127,Electric Guitar
341.0,0.3252032520325203,59,127,Electric Guitar
341.0,0.12195121951219512,36,127,Electric Guitar
341.0,0.12195121951219512,38,127,Electric Guitar
341.0,0.0,42,94,Electric Guitar
341.0,0.0,54,94,Electric Guitar
341.0,0.0,70,94,Electric Guitar
341.0,0.0,42,106,Electric Guitar
341.0,0.0,40,106,Electric Guitar
341.0,0.0,66,111,Electric Guitar
341.0,0.0,62,111,Electric Guitar
341.0,0.0,59,111,Electric Guitar
341.25,0.12195121951219512,33,127,Electric Guitar
341.25,0.12195121951219512,86,127,Electric Guitar
341.25,0.12195121951219512,78,127,Electric Guitar
341.25,0.12195121951219512,74,127,Electric Guitar
341.25,0.12195121951219512,81,127,Electric Guitar
341.25,0.0,42,90,Electric Guitar
341.25,0.0,54,90,Electric Guitar
341.25,0.0,70,90,Electric Guitar
341.25,0.0,42,53,Electric Guitar
341.25,0.0,66,93,Electric Guitar
341.25,0.0,59,93,Electric Guitar
341.25,0.0,62,93,Electric Guitar
341.5,0.12195121951219512,30,127,Electric Guitar
341.5,0.0,46,127,Electric Guitar
341.5,0.0,54,127,Electric Guitar
341.5,0.0,70,127,Electric Guitar
341.5,0.0,36,102,Electric Guitar
341.5,0.0,42,102,Electric Guitar
341.5,0.0,66,88,Electric Guitar
341.5,0.0,62,88,Electric Guitar
341.5,0.0,59,88,Electric Guitar
341.75,0.36585365853658536,35,127,Electric Guitar
341.75,0.0,57,127,Electric Guitar
341.75,0.0,59,127,Electric Guitar
341.75,0.0,62,127,Electric Guitar
341.75,0.0,66,127,Electric Guitar
341.75,0.12195121951219512,47,127,Electric Guitar
341.75,0.0,54,82,Electric Guitar
341.75,0.0,70,82,Electric Guitar
341.75,0.0,36,84,Electric Guitar
341.75,0.0,42,84,Electric Guitar
341.75,0.0,66,87,Electric Guitar
341.75,0.0,59,87,Electric Guitar
341.75,0.0,62,87,Electric Guitar
342.0,0.12195121951219512,36,127,Electric Guitar
342.0,0.0,42,99,Electric Guitar
342.0,0.0,54,99,Electric Guitar
342.0,0.0,70,99,Electric Guitar
342.0,0.0,44,117,Electric Guitar
342.0,0.0,66,116,Electric Guitar
342.0,0.0,59,116,Electric Guitar
342.0,0.0,62,116,Electric Guitar
342.25,0.0,42,82,Electric Guitar
342.25,0.0,54,82,Electric Guitar
342.25,0.0,70,82,Electric Guitar
342.25,0.12195121951219512,38,77,Electric Guitar
342.25,0.0,42,63,Electric Guitar
342.25,0.0,66,86,Electric Guitar
342.25,0.0,62,86,Electric Guitar
342.25,0.0,59,86,Electric Guitar
342.5,0.16260162601626016,38,127,Electric Guitar
342.5,0.36585365853658536,59,127,Electric Guitar
342.5,0.36585365853658536,66,127,Electric Guitar
342.5,0.36585365853658536,57,127,Electric Guitar
342.5,0.36585365853658536,62,127,Electric Guitar
342.5,0.36585365853658536,47,127,Electric Guitar
342.5,0.0,46,124,Electric Guitar
342.5,0.0,54,124,Electric Guitar
342.5,0.0,70,124,Electric Guitar
342.5,0.0,36,100,Electric Guitar
342.5,0.0,42,100,Electric Guitar
342.5,0.0,66,93,Electric Guitar
342.5,0.0,62,93,Electric Guitar
342.5,0.0,59,93,Electric Guitar
342.75,0.0,54,60,Electric Guitar
342.75,0.0,70,60,Electric Guitar
342.75,0.0,42,71,Electric Guitar
342.75,0.0,66,91,Electric Guitar
342.75,0.0,62,91,Electric Guitar
342.75,0.0,59,91,Electric Guitar
343.0,0.0,42,127,Electric Guitar
343.0,0.12195121951219512,36,127,Electric Guitar
343.0,0.12195121951219512,38,127,Electric Guitar
343.0,0.0,42,94,Electric Guitar
343.0,0.0,54,94,Electric Guitar
343.0,0.0,70,94,Electric Guitar
343.0,0.0,44,124,Electric Guitar
343.0,0.0,40,124,Electric Guitar
343.0,0.0,66,117,Electric Guitar
343.0,0.0,62,117,Electric Guitar
343.0,0.0,59,117,Electric Guitar
343.25,0.36585365853658536,38,127,Electric Guitar
343.25,0.0,42,90,Electric Guitar
343.25,0.0,54,90,Electric Guitar
343.25,0.0,70,90,Electric Guitar
343.25,0.0,36,86,Electric Guitar
343.25,0.0,42,86,Electric Guitar
343.25,0.0,66,91,Electric Guitar
343.25,0.0,62,91,Electric Guitar
343.25,0.0,59,91,Electric Guitar
343.5,0.0,47,127,Electric Guitar
343.5,0.0,57,127,Electric Guitar
343.5,0.0,59,127,Electric Guitar
343.5,0.0,62,127,Electric Guitar
343.5,0.0,66,127,Electric Guitar
343.5,0.0,46,127,Electric Guitar
343.5,0.0,54,127,Electric Guitar
343.5,0.0,70,127,Electric Guitar
343.5,0.0,42,89,Electric Guitar
343.5,0.0,66,95,Electric Guitar
343.5,0.0,62,95,Electric Guitar
343.5,0.0,59,95,Electric Guitar
343.75,0.12195121951219512,38,77,Electric Guitar
343.75,0.0,54,82,Electric Guitar
343.75,0.0,70,82,Electric Guitar
343.75,0.0,36,84,Electric Guitar
343.75,0.0,42,84,Electric Guitar
343.75,0.0,66,98,Electric Guitar
343.75,0.0,59,98,Electric Guitar
343.75,0.0,62,98,Electric Guitar
344.0,0.975609756097561,64,98,Electric Guitar
344.0,0.975609756097561,68,98,Electric Guitar
344.0,0.975609756097561,72,98,Electric Guitar
344.0,1.951219512195122,40,100,Electric Guitar
344.0,0.0,59,127,Electric Guitar
344.0,0.0,62,127,Electric Guitar
344.0,0.0,56,127,Electric Guitar
344.0,0.0,65,127,Electric Guitar
344.0,0.12195121951219512,40,127,Electric Guitar
344.0,0.0,42,1,Electric Guitar
344.0,0.0,36,110,Electric Guitar
344.0,0.0,42,110,Electric Guitar
344.25,0.0,42,63,Electric Guitar
344.5,0.12195121951219512,64,127,Electric Guitar
344.5,0.12195121951219512,72,127,Electric Guitar
344.5,0.12195121951219512,74,127,Electric Guitar
344.5,0.12195121951219512,80,127,Electric Guitar
344.5,0.0,42,93,Electric Guitar
344.75,0.0,36,85,Electric Guitar
344.75,0.0,42,85,Electric Guitar
345.0,0.0,42,106,Electric Guitar
345.0,0.0,40,106,Electric Guitar
345.25,0.12195121951219512,64,127,Electric Guitar
345.25,0.12195121951219512,80,127,Electric Guitar
345.25,0.12195121951219512,74,127,Electric Guitar
345.25,0.12195121951219512,72,127,Electric Guitar
345.25,0.0,42,53,Electric Guitar
345.5,0.0,36,102,Electric Guitar
345.5,0.0,42,102,Electric Guitar
345.75,0.0,36,84,Electric Guitar
345.75,0.0,42,84,Electric Guitar
346.0,0.975609756097561,71,90,Electric Guitar
346.0,0.975609756097561,68,90,Electric Guitar
346.0,0.975609756097561,64,90,Electric Guitar
346.0,0.975609756097561,74,90,Electric Guitar
346.0,0.0,44,117,Electric Guitar
346.25,0.0,42,63,Electric Guitar
346.5,0.12195121951219512,83,127,Electric Guitar
346.5,0.12195121951219512,72,127,Electric Guitar
346.5,0.12195121951219512,74,127,Electric Guitar
346.5,0.12195121951219512,80,127,Electric Guitar
346.5,0.0,36,100,Electric Guitar
346.5,0.0,42,100,Electric Guitar
346.75,0.0,42,71,Electric Guitar
347.0,0.0,44,124,Electric Guitar
347.0,0.0,40,124,Electric Guitar
347.25,0.12195121951219512,83,127,Electric Guitar
347.25,0.12195121951219512,80,127,Electric Guitar
347.25,0.12195121951219512,74,127,Electric Guitar
347.25,0.12195121951219512,72,127,Electric Guitar
347.25,0.0,36,86,Electric Guitar
347.25,0.0,42,86,Electric Guitar
347.5,0.12195121951219512,52,105,Electric Guitar
347.5,0.0,42,89,Electric Guitar
347.75,0.16260162601626016,60,110,Electric Guitar
347.75,0.0,36,84,Electric Guitar
347.75,0.0,42,84,Electric Guitar
348.0,1.4634146341463414,59,105,Electric Guitar
348.0,0.12195121951219512,33,127,Electric Guitar
348.0,0.0,59,127,Electric Guitar
348.0,0.0,55,127,Electric Guitar
348.0,0.0,60,127,Electric Guitar
348.0,0.0,64,127,Electric Guitar
348.0,0.12195121951219512,45,127,Electric Guitar
348.0,0.12195121951219512,36,127,Electric Guitar
348.0,0.12195121951219512,49,127,Electric Guitar
348.0,0.0,42,99,Electric Guitar
348.0,0.0,54,99,Electric Guitar
348.0,0.0,70,99,Electric Guitar
348.0,0.0,36,110,Electric Guitar
348.0,0.0,42,110,Electric Guitar
348.0,0.0,55,116,Electric Guitar
348.0,0.0,64,116,Electric Guitar
348.0,0.0,60,116,Electric Guitar
348.25,0.0,42,82,Electric Guitar
348.25,0.0,54,82,Electric Guitar
348.25,0.0,70,82,Electric Guitar
348.25,0.0,42,63,Electric Guitar
348.25,0.0,64,86,Electric Guitar
348.25,0.0,60,86,Electric Guitar
348.25,0.0,55,86,Electric Guitar
348.5,0.0,46,124,Electric Guitar
348.5,0.0,54,124,Electric Guitar
348.5,0.0,70,124,Electric Guitar
348.5,0.0,42,93,Electric Guitar
348.5,0.0,60,83,Electric Guitar
348.5,0.0,64,83,Electric Guitar
348.5,0.0,55,83,Electric Guitar
348.75,0.0,54,60,Electric Guitar
348.75,0.0,70,60,Electric Guitar
348.75,0.0,36,85,Electric Guitar
348.75,0.0,42,85,Electric Guitar
348.75,0.0,60,89,Electric Guitar
348.75,0.0,55,89,Electric Guitar
348.75,0.0,64,89,Electric Guitar
349.0,0.24390243902439024,28,127,Electric Guitar
349.0,0.3252032520325203,64,127,Electric Guitar
349.0,0.3252032520325203,45,127,Electric Guitar
349.0,0.3252032520325203,55,127,Electric Guitar
349.0,0.3252032520325203,60,127,Electric Guitar
349.0,0.3252032520325203,59,127,Electric Guitar
349.0,0.12195121951219512,36,127,Electric Guitar
349.0,0.12195121951219512,38,127,Electric Guitar
349.0,0.0,42,94,Electric Guitar
349.0,0.0,54,94,Electric Guitar
349.0,0.0,70,94,Electric Guitar
349.0,0.0,42,106,Electric Guitar
349.0,0.0,40,106,Electric Guitar
349.0,0.0,55,112,Electric Guitar
349.0,0.0,60,112,Electric Guitar
349.0,0.0,64,112,Electric Guitar
349.25,0.0,42,90,Electric Guitar
349.25,0.0,54,90,Electric Guitar
349.25,0.0,70,90,Electric Guitar
349.25,0.0,42,53,Electric Guitar
349.25,0.0,64,90,Electric Guitar
349.25,0.0,55,90,Electric Guitar
349.25,0.0,60,90,Electric Guitar
349.5,0.12195121951219512,31,127,Electric Guitar
349.5,0.0,46,127,Electric Guitar
349.5,0.0,54,127,Electric Guitar
349.5,0.0,70,127,Electric Guitar
349.5,0.0,36,102,Electric Guitar
349.5,0.0,42,102,Electric Guitar
349.5,0.0,60,81,Electric Guitar
349.5,0.0,55,81,Electric Guitar
349.5,0.0,64,81,Electric Guitar
349.75,0.36585365853658536,33,127,Electric Guitar
349.75,0.0,60,127,Electric Guitar
349.75,0.0,55,127,Electric Guitar
349.75,0.0,45,127,Electric Guitar
349.75,0.0,59,127,Electric Guitar
349.75,0.0,64,127,Electric Guitar
349.75,0.0,54,82,Electric Guitar
349.75,0.0,70,82,Electric Guitar
349.75,0.0,36,84,Electric Guitar
349.75,0.0,42,84,Electric Guitar
349.75,0.0,64,86,Electric Guitar
349.75,0.0,60,86,Electric Guitar
349.75,0.0,55,86,Electric Guitar
350.0,0.12195121951219512,36,127,Electric Guitar
350.0,0.0,42,99,Electric Guitar
350.0,0.0,54,99,Electric Guitar
350.0,0.0,70,99,Electric Guitar
350.0,0.0,44,117,Electric Guitar
350.0,0.0,60,114,Electric Guitar
350.0,0.0,55,114,Electric Guitar
350.0,0.0,64,114,Electric Guitar
350.25,0.0,42,82,Electric Guitar
350.25,0.0,54,82,Electric Guitar
350.25,0.0,70,82,Electric Guitar
350.25,0.0,42,63,Electric Guitar
350.25,0.0,64,94,Electric Guitar
350.25,0.0,60,94,Electric Guitar
350.25,0.0,55,94,Electric Guitar
350.5,0.24390243902439024,36,127,Electric Guitar
350.5,0.36585365853658536,55,127,Electric Guitar
350.5,0.36585365853658536,64,127,Electric Guitar
350.5,0.36585365853658536,59,127,Electric Guitar
350.5,0.36585365853658536,60,127,Electric Guitar
350.5,0.36585365853658536,45,127,Electric Guitar
350.5,0.0,46,124,Electric Guitar
350.5,0.0,54,124,Electric Guitar
350.5,0.0,70,124,Electric Guitar
350.5,0.0,36,100,Electric Guitar
350.5,0.0,42,100,Electric Guitar
350.5,0.0,60,94,Electric Guitar
350.5,0.0,55,94,Electric Guitar
350.5,0.0,64,94,Electric Guitar
350.75,0.0,54,60,Electric Guitar
350.75,0.0,70,60,Electric Guitar
350.75,0.0,42,71,Electric Guitar
350.75,0.0,55,91,Electric Guitar
350.75,0.0,60,91,Electric Guitar
350.75,0.0,64,91,Electric Guitar
351.0,0.12195121951219512,38,127,Electric Guitar
351.0,0.12195121951219512,36,127,Electric Guitar
351.0,0.12195121951219512,38,127,Electric Guitar
351.0,0.0,42,94,Electric Guitar
351.0,0.0,54,94,Electric Guitar
351.0,0.0,70,94,Electric Guitar
351.0,0.0,44,124,Electric Guitar
351.0,0.0,40,124,Electric Guitar
351.0,0.0,55,110,Electric Guitar
351.0,0.0,64,110,Electric Guitar
351.0,0.0,60,110,Electric Guitar
351.25,0.12195121951219512,39,127,Electric Guitar
351.25,0.0,42,90,Electric Guitar
351.25,0.0,54,90,Electric Guitar
351.25,0.0,70,90,Electric Guitar
351.25,0.0,36,86,Electric Guitar
351.25,0.0,42,86,Electric Guitar
351.25,0.0,64,92,Electric Guitar
351.25,0.0,55,92,Electric Guitar
351.25,0.0,60,92,Electric Guitar
351.5,0.12195121951219512,62,110,Electric Guitar
351.5,0.24390243902439024,40,127,Electric Guitar
351.5,0.0,55,127,Electric Guitar
351.5,0.0,59,127,Electric Guitar
351.5,0.0,60,127,Electric Guitar
351.5,0.0,64,127,Electric Guitar
351.5,0.0,45,127,Electric Guitar
351.5,0.0,46,127,Electric Guitar
351.5,0.0,54,127,Electric Guitar
351.5,0.0,70,127,Electric Guitar
351.5,0.0,42,89,Electric Guitar
351.5,0.0,60,88,Electric Guitar
351.5,0.0,55,88,Electric Guitar
351.5,0.0,64,88,Electric Guitar
351.75,0.12195121951219512,60,91,Electric Guitar
351.75,0.0,54,82,Electric Guitar
351.75,0.0,70,82,Electric Guitar
351.75,0.0,36,84,Electric Guitar
351.75,0.0,42,84,Electric Guitar
351.75,0.0,55,94,Electric Guitar
351.75,0.0,60,94,Electric Guitar
351.75,0.0,64,94,Electric Guitar
352.0,0.16260162601626016,59,105,Electric Guitar
352.0,0.12195121951219512,29,127,Electric Guitar
352.0,0.0,64,127,Electric Guitar
352.0,0.0,60,127,Electric Guitar
352.0,0.0,57,127,Electric Guitar
352.0,0.0,67,127,Electric Guitar
352.0,0.12195121951219512,41,127,Electric Guitar
352.0,0.12195121951219512,36,127,Electric Guitar
352.0,0.0,42,99,Electric Guitar
352.0,0.0,54,99,Electric Guitar
352.0,0.0,70,99,Electric Guitar
352.0,0.0,36,110,Electric Guitar
352.0,0.0,42,110,Electric Guitar
352.0,0.0,53,116,Electric Guitar
352.0,0.0,57,116,Electric Guitar
352.0,0.0,64,116,Electric Guitar
352.25,0.0,42,82,Electric Guitar
352.25,0.0,54,82,Electric Guitar
352.25,0.0,70,82,Electric Guitar
352.25,0.0,42,63,Electric Guitar
352.25,0.0,57,95,Electric Guitar
352.25,0.0,64,95,Electric Guitar
352.25,0.0,53,95,Electric Guitar
352.5,0.0,46,124,Electric Guitar
352.5,0.0,54,124,Electric Guitar
352.5,0.0,70,124,Electric Guitar
352.5,0.0,42,93,Electric Guitar
352.5,0.0,64,85,Electric Guitar
352.5,0.0,57,85,Electric Guitar
352.5,0.0,53,85,Electric Guitar
352.6666666666667,0.16260162601626016,60,107,Electric Guitar
352.75,0.0,54,60,Electric Guitar
352.75,0.0,70,60,Electric Guitar
352.75,0.0,36,85,Electric Guitar
352.75,0.0,42,85,Electric Guitar
352.75,0.0,64,91,Electric Guitar
352.75,0.0,57,91,Electric Guitar
352.75,0.0,53,91,Electric Guitar
353.0,0.12195121951219512,29,127,Electric Guitar
353.0,0.3252032520325203,64,127,Electric Guitar
353.0,0.3252032520325203,60,127,Electric Guitar
353.0,0.3252032520325203,57,127,Electric Guitar
353.0,0.3252032520325203,67,127,Electric Guitar
353.0,0.3252032520325203,41,127,Electric Guitar
353.0,0.12195121951219512,36,127,Electric Guitar
353.0,0.12195121951219512,38,127,Electric Guitar
353.0,0.0,42,94,Electric Guitar
353.0,0.0,54,94,Electric Guitar
353.0,0.0,70,94,Electric Guitar
353.0,0.0,42,106,Electric Guitar
353.0,0.0,40,106,Electric Guitar
353.0,0.0,64,109,Electric Guitar
353.0,0.0,53,109,Electric Guitar
353.0,0.0,57,109,Electric Guitar
353.25,0.0,33,127,Electric Guitar
353.25,0.0,42,90,Electric Guitar
353.25,0.0,54,90,Electric Guitar
353.25,0.0,70,90,Electric Guitar
353.25,0.0,42,53,Electric Guitar
353.25,0.0,64,91,Electric Guitar
353.25,0.0,53,91,Electric Guitar
353.25,0.0,57,91,Electric Guitar
353.3333333333333,0.16260162601626016,62,100,Electric Guitar
353.5,0.0,36,127,Electric Guitar
353.5,0.0,46,127,Electric Guitar
353.5,0.0,54,127,Electric Guitar
353.5,0.0,70,127,Electric Guitar
353.5,0.0,36,102,Electric Guitar
353.5,0.0,42,102,Electric Guitar
353.5,0.0,64,91,Electric Guitar
353.5,0.0,53,91,Electric Guitar
353.5,0.0,57,91,Electric Guitar
353.75,0.24390243902439024,40,127,Electric Guitar
353.75,0.0,57,127,Electric Guitar
353.75,0.0,41,127,Electric Guitar
353.75,0.0,67,127,Electric Guitar
353.75,0.0,64,127,Electric Guitar
353.75,0.0,60,127,Electric Guitar
353.75,0.0,54,82,Electric Guitar
353.75,0.0,70,82,Electric Guitar
353.75,0.0,36,84,Electric Guitar
353.75,0.0,42,84,Electric Guitar
353.75,0.0,64,89,Electric Guitar
353.75,0.0,57,89,Electric Guitar
353.75,0.0,53,89,Electric Guitar
354.0,0.8130081300813008,57,103,Electric Guitar
354.0,0.12195121951219512,36,127,Electric Guitar
354.0,0.0,42,99,Electric Guitar
354.0,0.0,54,99,Electric Guitar
354.0,0.0,70,99,Electric Guitar
354.0,0.0,44,117,Electric Guitar
354.0,0.0,53,113,Electric Guitar
354.0,0.0,64,113,Electric Guitar
354.0,0.0,57,113,Electric Guitar
354.25,0.0,36,127,Electric Guitar
354.25,0.0,42,82,Electric Guitar
354.25,0.0,54,82,Electric Guitar
354.25,0.0,70,82,Electric Guitar
354.25,0.12195121951219512,38,77,Electric Guitar
354.25,0.0,42,63,Electric Guitar
354.25,0.0,64,95,Electric Guitar
354.25,0.0,57,95,Electric Guitar
354.25,0.0,53,95,Electric Guitar
354.5,0.24390243902439024,38,127,Electric Guitar
354.5,0.36585365853658536,64,127,Electric Guitar
354.5,0.36585365853658536,57,127,Electric Guitar
354.5,0.36585365853658536,41,127,Electric Guitar
354.5,0.36585365853658536,67,127,Electric Guitar
354.5,0.36585365853658536,60,127,Electric Guitar
354.5,0.0,46,124,Electric Guitar
354.5,0.0,54,124,Electric Guitar
354.5,0.0,70,124,Electric Guitar
354.5,0.0,36,100,Electric Guitar
354.5,0.0,42,100,Electric Guitar
354.5,0.0,53,89,Electric Guitar
354.5,0.0,57,89,Electric Guitar
354.5,0.0,64,89,Electric Guitar
354.75,0.0,54,60,Electric Guitar
354.75,0.0,70,60,Electric Guitar
354.75,0.0,42,71,Electric Guitar
354.75,0.0,64,94,Electric Guitar
354.75,0.0,53,94,Electric Guitar
354.75,0.0,57,94,Electric Guitar
355.0,0.16260162601626016,36,127,Electric Guitar
355.0,0.12195121951219512,36,127,Electric Guitar
355.0,0.12195121951219512,38,127,Electric Guitar
355.0,0.0,42,94,Electric Guitar
355.0,0.0,54,94,Electric Guitar
355.0,0.0,70,94,Electric Guitar
355.0,0.0,44,124,Electric Guitar
355.0,0.0,40,124,Electric Guitar
355.0,0.0,53,105,Electric Guitar
355.0,0.0,64,105,Electric Guitar
355.0,0.0,57,105,Electric Guitar
355.25,0.36585365853658536,33,127,Electric Guitar
355.25,0.0,42,90,Electric Guitar
355.25,0.0,54,90,Electric Guitar
355.25,0.0,70,90,Electric Guitar
355.25,0.0,36,86,Electric Guitar
355.25,0.0,42,86,Electric Guitar
355.25,0.0,53,96,Electric Guitar
355.25,0.0,57,96,Electric Guitar
355.25,0.0,64,96,Electric Guitar
355.5,0.0,57,127,Electric Guitar
355.5,0.0,64,127,Electric Guitar
355.5,0.0,60,127,Electric Guitar
355.5,0.0,67,127,Electric Guitar
355.5,0.0,41,127,Electric Guitar
355.5,0.0,46,127,Electric Guitar
355.5,0.0,54,127,Electric Guitar
355.5,0.0,70,127,Electric Guitar
355.5,0.0,42,89,Electric Guitar
355.5,0.0,57,86,Electric Guitar
355.5,0.0,53,86,Electric Guitar
355.5,0.0,64,86,Electric Guitar
355.75,0.0,54,82,Electric Guitar
355.75,0.0,70,82,Electric Guitar
355.75,0.0,36,84,Electric Guitar
355.75,0.0,42,84,Electric Guitar
355.75,0.0,64,91,Electric Guitar
355.75,0.0,53,91,Electric Guitar
355.75,0.0,57,91,Electric Guitar
356.0,0.24390243902439024,57,110,Electric Guitar
356.0,0.16260162601626016,26,127,Electric Guitar
356.0,0.0,64,127,Electric Guitar
356.0,0.0,53,127,Electric Guitar
356.0,0.0,60,127,Electric Guitar
356.0,0.0,57,127,Electric Guitar
356.0,0.12195121951219512,38,127,Electric Guitar
356.0,0.12195121951219512,36,127,Electric Guitar
356.0,0.0,42,99,Electric Guitar
356.0,0.0,54,99,Electric Guitar
356.0,0.0,70,99,Electric Guitar
356.0,0.0,36,110,Electric Guitar
356.0,0.0,42,110,Electric Guitar
356.0,0.0,53,118,Electric Guitar
356.0,0.0,57,118,Electric Guitar
356.0,0.0,62,118,Electric Guitar
356.25,0.0,42,82,Electric Guitar
356.25,0.0,54,82,Electric Guitar
356.25,0.0,70,82,Electric Guitar
356.25,0.0,42,63,Electric Guitar
356.25,0.0,57,96,Electric Guitar
356.25,0.0,62,96,Electric Guitar
356.25,0.0,53,96,Electric Guitar
356.5,0.0,46,124,Electric Guitar
356.5,0.0,54,124,Electric Guitar
356.5,0.0,70,124,Electric Guitar
356.5,0.0,42,93,Electric Guitar
356.5,0.0,53,90,Electric Guitar
356.5,0.0,57,90,Electric Guitar
356.5,0.0,62,90,Electric Guitar
356.6666666666667,0.24390243902439024,59,114,Electric Guitar
356.75,0.0,54,60,Electric Guitar
356.75,0.0,70,60,Electric Guitar
356.75,0.0,36,85,Electric Guitar
356.75,0.0,42,85,Electric Guitar
356.75,0.0,62,87,Electric Guitar
356.75,0.0,53,87,Electric Guitar
356.75,0.0,57,87,Electric Guitar
357.0,0.12195121951219512,38,127,Electric Guitar
357.0,0.3252032520325203,38,127,Electric Guitar
357.0,0.3252032520325203,64,127,Electric Guitar
357.0,0.3252032520325203,53,127,Electric Guitar
357.0,0.3252032520325203,60,127,Electric Guitar
357.0,0.3252032520325203,57,127,Electric Guitar
357.0,0.12195121951219512,36,127,Electric Guitar
357.0,0.12195121951219512,38,127,Electric Guitar
357.0,0.0,42,94,Electric Guitar
357.0,0.0,54,94,Electric Guitar
357.0,0.0,70,94,Electric Guitar
357.0,0.0,42,106,Electric Guitar
357.0,0.0,40,106,Electric Guitar
357.0,0.0,53,115,Electric Guitar
357.0,0.0,62,115,Electric Guitar
357.0,0.0,57,115,Electric Guitar
357.25,0.12195121951219512,33,127,Electric Guitar
357.25,0.0,42,90,Electric Guitar
357.25,0.0,54,90,Electric Guitar
357.25,0.0,70,90,Electric Guitar
357.25,0.0,42,53,Electric Guitar
357.25,0.0,62,89,Electric Guitar
357.25,0.0,53,89,Electric Guitar
357.25,0.0,57,89,Electric Guitar
357.3333333333333,0.16260162601626016,60,107,Electric Guitar
357.5,0.12195121951219512,32,127,Electric Guitar
357.5,0.0,46,127,Electric Guitar
357.5,0.0,54,127,Electric Guitar
357.5,0.0,70,127,Electric Guitar
357.5,0.0,36,102,Electric Guitar
357.5,0.0,42,102,Electric Guitar
357.5,0.0,53,92,Electric Guitar
357.5,0.0,57,92,Electric Guitar
357.5,0.0,62,92,Electric Guitar
357.75,0.36585365853658536,31,127,Electric Guitar
357.75,0.0,53,127,Electric Guitar
357.75,0.0,57,127,Electric Guitar
357.75,0.0,59,127,Electric Guitar
357.75,0.0,64,127,Electric Guitar
357.75,0.12195121951219512,43,127,Electric Guitar
357.75,0.0,54,82,Electric Guitar
357.75,0.0,70,82,Electric Guitar
357.75,0.0,36,84,Electric Guitar
357.75,0.0,42,84,Electric Guitar
357.75,0.0,53,99,Electric Guitar
357.75,0.0,57,99,Electric Guitar
357.75,0.0,62,99,Electric Guitar
358.0,0.24390243902439024,59,112,Electric Guitar
358.0,0.12195121951219512,36,127,Electric Guitar
358.0,0.0,42,99,Electric Guitar
358.0,0.0,54,99,Electric Guitar
358.0,0.0,70,99,Electric Guitar
358.0,0.0,44,117,Electric Guitar
358.0,0.0,59,115,Electric Guitar
358.0,0.0,55,115,Electric Guitar
358.0,0.0,62,115,Electric Guitar
358.25,0.0,42,82,Electric Guitar
358.25,0.0,54,82,Electric Guitar
358.25,0.0,70,82,Electric Guitar
358.25,0.0,42,63,Electric Guitar
358.25,0.0,62,93,Electric Guitar
358.25,0.0,59,93,Electric Guitar
358.25,0.0,55,93,Electric Guitar
358.5,0.24390243902439024,35,127,Electric Guitar
358.5,0.36585365853658536,57,127,Electric Guitar
358.5,0.36585365853658536,64,127,Electric Guitar
358.5,0.36585365853658536,53,127,Electric Guitar
358.5,0.36585365853658536,59,127,Electric Guitar
358.5,0.36585365853658536,43,127,Electric Guitar
358.5,0.0,46,124,Electric Guitar
358.5,0.0,54,124,Electric Guitar
358.5,0.0,70,124,Electric Guitar
358.5,0.0,36,100,Electric Guitar
358.5,0.0,42,100,Electric Guitar
358.5,0.0,62,86,Electric Guitar
358.5,0.0,59,86,Electric Guitar
358.5,0.0,55,86,Electric Guitar
358.6666666666667,0.24390243902439024,60,117,Electric Guitar
358.75,0.0,54,60,Electric Guitar
358.75,0.0,70,60,Electric Guitar
358.75,0.0,42,71,Electric Guitar
358.75,0.0,62,95,Electric Guitar
358.75,0.0,59,95,Electric Guitar
358.75,0.0,55,95,Electric Guitar
359.0,0.24390243902439024,38,127,Electric Guitar
359.0,0.12195121951219512,36,127,Electric Guitar
359.0,0.12195121951219512,38,127,Electric Guitar
359.0,0.0,42,94,Electric Guitar
359.0,0.0,54,94,Electric Guitar
359.0,0.0,70,94,Electric Guitar
359.0,0.0,44,124,Electric Guitar
359.0,0.0,40,124,Electric Guitar
359.0,0.0,59,114,Electric Guitar
359.0,0.0,62,114,Electric Guitar
359.0,0.0,55,114,Electric Guitar
359.25,0.0,42,90,Electric Guitar
359.25,0.0,54,90,Electric Guitar
359.25,0.0,70,90,Electric Guitar
359.25,0.0,36,86,Electric Guitar
359.25,0.0,42,86,Electric Guitar
359.25,0.0,62,93,Electric Guitar
359.25,0.0,55,93,Electric Guitar
359.25,0.0,59,93,Electric Guitar
359.5,0.24390243902439024,67,110,Electric Guitar
359.5,0.0,43,127,Electric Guitar
359.5,0.0,53,127,Electric Guitar
359.5,0.0,57,127,Electric Guitar
359.5,0.0,59,127,Electric Guitar
359.5,0.0,64,127,Electric Guitar
359.5,0.0,46,127,Electric Guitar
359.5,0.0,54,127,Electric Guitar
359.5,0.0,70,127,Electric Guitar
359.5,0.0,42,89,Electric Guitar
359.5,0.0,62,91,Electric Guitar
359.5,0.0,59,91,Electric Guitar
359.5,0.0,55,91,Electric Guitar
359.75,0.12195121951219512,65,107,Electric Guitar
359.75,0.0,54,82,Electric Guitar
359.75,0.0,70,82,Electric Guitar
359.75,0.0,36,84,Electric Guitar
359.75,0.0,42,84,Electric Guitar
359.75,0.0,62,97,Electric Guitar
359.75,0.0,55,97,Electric Guitar
359.75,0.0,59,97,Electric Guitar
360.0,1.4634146341463414,64,114,Electric Guitar
360.0,0.16260162601626016,36,127,Electric Guitar
360.0,0.0,59,127,Electric Guitar
360.0,0.0,60,127,Electric Guitar
360.0,0.0,55,127,Electric Guitar
360.0,0.0,64,127,Electric Guitar
360.0,0.12195121951219512,48,127,Electric Guitar
360.0,0.12195121951219512,36,127,Electric Guitar
360.0,0.0,42,99,Electric Guitar
360.0,0.0,54,99,Electric Guitar
360.0,0.0,70,99,Electric Guitar
360.0,0.0,36,110,Electric Guitar
360.0,0.0,42,110,Electric Guitar
360.0,0.0,55,120,Electric Guitar
360.0,0.0,64,120,Electric Guitar
360.0,0.0,60,120,Electric Guitar
360.25,0.0,42,82,Electric Guitar
360.25,0.0,54,82,Electric Guitar
360.25,0.0,70,82,Electric Guitar
360.25,0.0,42,63,Electric Guitar
360.25,0.0,60,88,Electric Guitar
360.25,0.0,64,88,Electric Guitar
360.25,0.0,55,88,Electric Guitar
360.5,0.0,46,124,Electric Guitar
360.5,0.0,54,124,Electric Guitar
360.5,0.0,70,124,Electric Guitar
360.5,0.0,42,93,Electric Guitar
360.5,0.0,55,85,Electric Guitar
360.5,0.0,64,85,Electric Guitar
360.5,0.0,60,85,Electric Guitar
360.75,0.0,54,60,Electric Guitar
360.75,0.0,70,60,Electric Guitar
360.75,0.0,36,85,Electric Guitar
360.75,0.0,42,85,Electric Guitar
360.75,0.0,60,92,Electric Guitar
360.75,0.0,55,92,Electric Guitar
360.75,0.0,64,92,Electric Guitar
361.0,0.12195121951219512,40,127,Electric Guitar
361.0,0.3252032520325203,55,127,Electric Guitar
361.0,0.3252032520325203,60,127,Electric Guitar
361.0,0.3252032520325203,59,127,Electric Guitar
361.0,0.24390243902439024,48,127,Electric Guitar
361.0,0.24390243902439024,64,127,Electric Guitar
361.0,0.12195121951219512,36,127,Electric Guitar
361.0,0.12195121951219512,38,127,Electric Guitar
361.0,0.0,42,94,Electric Guitar
361.0,0.0,54,94,Electric Guitar
361.0,0.0,70,94,Electric Guitar
361.0,0.0,42,106,Electric Guitar
361.0,0.0,40,106,Electric Guitar
361.0,0.0,64,115,Electric Guitar
361.0,0.0,55,115,Electric Guitar
361.0,0.0,60,115,Electric Guitar
361.25,0.12195121951219512,43,127,Electric Guitar
361.25,0.0,42,90,Electric Guitar
361.25,0.0,54,90,Electric Guitar
361.25,0.0,70,90,Electric Guitar
361.25,0.0,42,53,Electric Guitar
361.25,0.0,64,102,Electric Guitar
361.25,0.0,60,102,Electric Guitar
361.25,0.0,55,102,Electric Guitar
361.5,0.12195121951219512,48,127,Electric Guitar
361.5,0.0,46,127,Electric Guitar
361.5,0.0,54,127,Electric Guitar
361.5,0.0,70,127,Electric Guitar
361.5,0.0,36,102,Electric Guitar
361.5,0.0,42,102,Electric Guitar
361.5,0.0,60,87,Electric Guitar
361.5,0.0,55,87,Electric Guitar
361.5,0.0,64,87,Electric Guitar
361.75,0.3252032520325203,47,127,Electric Guitar
361.75,0.0,57,127,Electric Guitar
361.75,0.0,66,127,Electric Guitar
361.75,0.0,62,127,Electric Guitar
361.75,0.0,59,127,Electric Guitar
361.75,0.0,47,127,Electric Guitar
361.75,0.0,54,82,Electric Guitar
361.75,0.0,70,82,Electric Guitar
361.75,0.0,36,84,Electric Guitar
361.75,0.0,42,84,Electric Guitar
361.75,0.0,64,93,Electric Guitar
361.75,0.0,55,93,Electric Guitar
361.75,0.0,60,93,Electric Guitar
362.0,0.12195121951219512,36,127,Electric Guitar
362.0,0.0,42,99,Electric Guitar
362.0,0.0,54,99,Electric Guitar
362.0,0.0,70,99,Electric Guitar
362.0,0.0,44,117,Electric Guitar
362.0,0.0,59,112,Electric Guitar
362.0,0.0,66,112,Electric Guitar
362.0,0.0,62,112,Electric Guitar
362.25,0.0,42,82,Electric Guitar
362.25,0.0,54,82,Electric Guitar
362.25,0.0,70,82,Electric Guitar
362.25,0.12195121951219512,38,77,Electric Guitar
362.25,0.0,42,63,Electric Guitar
362.25,0.0,66,94,Electric Guitar
362.25,0.0,62,94,Electric Guitar
362.25,0.0,59,94,Electric Guitar
362.5,0.12195121951219512,38,127,Electric Guitar
362.5,0.24390243902439024,57,127,Electric Guitar
362.5,0.24390243902439024,47,127,Electric Guitar
362.5,0.24390243902439024,66,127,Electric Guitar
362.5,0.24390243902439024,62,127,Electric Guitar
362.5,0.24390243902439024,59,127,Electric Guitar
362.5,0.0,46,124,Electric Guitar
362.5,0.0,54,124,Electric Guitar
362.5,0.0,70,124,Electric Guitar
362.5,0.0,36,100,Electric Guitar
362.5,0.0,42,100,Electric Guitar
362.5,0.0,59,93,Electric Guitar
362.5,0.0,66,93,Electric Guitar
362.5,0.0,62,93,Electric Guitar
362.75,0.12195121951219512,39,127,Electric Guitar
362.75,0.0,54,60,Electric Guitar
362.75,0.0,70,60,Electric Guitar
362.75,0.0,42,71,Electric Guitar
362.75,0.0,66,92,Electric Guitar
362.75,0.0,62,92,Electric Guitar
362.75,0.0,59,92,Electric Guitar
363.0,0.4878048780487805,40,127,Electric Guitar
363.0,0.12195121951219512,36,127,Electric Guitar
363.0,0.12195121951219512,38,127,Electric Guitar
363.0,0.0,42,94,Electric Guitar
363.0,0.0,54,94,Electric Guitar
363.0,0.0,70,94,Electric Guitar
363.0,0.0,44,124,Electric Guitar
363.0,0.0,40,124,Electric Guitar
363.0,0.0,59,118,Electric Guitar
363.0,0.0,56,118,Electric Guitar
363.0,0.0,64,118,Electric Guitar
363.25,0.36585365853658536,56,127,Electric Guitar
363.25,0.36585365853658536,65,127,Electric Guitar
363.25,0.36585365853658536,59,127,Electric Guitar
363.25,0.36585365853658536,40,127,Electric Guitar
363.25,0.36585365853658536,62,127,Electric Guitar
363.25,0.0,42,90,Electric Guitar
363.25,0.0,54,90,Electric Guitar
363.25,0.0,70,90,Electric Guitar
363.25,0.0,36,86,Electric Guitar
363.25,0.0,42,86,Electric Guitar
363.25,0.0,64,95,Electric Guitar
363.25,0.0,56,95,Electric Guitar
363.25,0.0,59,95,Electric Guitar
363.5,0.12195121951219512,69,86,Electric Guitar
363.5,0.0,46,127,Electric Guitar
363.5,0.0,54,127,Electric Guitar
363.5,0.0,70,127,Electric Guitar
363.5,0.0,42,89,Electric Guitar
363.5,0.0,59,82,Electric Guitar
363.5,0.0,64,82,Electric Guitar
363.5,0.0,56,82,Electric Guitar
363.75,0.12195121951219512,72,100,Electric Guitar
363.75,0.12195121951219512,38,77,Electric Guitar
363.75,0.0,54,82,Electric Guitar
363.75,0.0,70,82,Electric Guitar
363.75,0.0,36,84,Electric Guitar
363.75,0.0,42,84,Electric Guitar
363.75,0.0,59,89,Electric Guitar
363.75,0.0,64,89,Electric Guitar
363.75,0.0,56,89,Electric Guitar
364.0,0.24390243902439024,79,114,Electric Guitar
364.0,0.12195121951219512,33,127,Electric Guitar
364.0,0.0,59,127,Electric Guitar
364.0,0.0,55,127,Electric Guitar
364.0,0.0,60,127,Electric Guitar
364.0,0.0,64,127,Electric Guitar
364.0,0.12195121951219512,45,127,Electric Guitar
364.0,0.12195121951219512,36,127,Electric Guitar
364.0,0.12195121951219512,57,127,Electric Guitar
364.0,0.0,42,99,Electric Guitar
364.0,0.0,54,99,Electric Guitar
364.0,0.0,70,99,Electric Guitar
364.0,0.0,36,110,Electric Guitar
364.0,0.0,42,110,Electric Guitar
364.0,0.0,55,116,Electric Guitar
364.0,0.0,60,116,Electric Guitar
364.0,0.0,64,116,Electric Guitar
364.25,0.0,42,82,Electric Guitar
364.25,0.0,54,82,Electric Guitar
364.25,0.0,70,82,Electric Guitar
364.25,0.0,42,63,Electric Guitar
364.25,0.0,60,89,Electric Guitar
364.25,0.0,64,89,Electric Guitar
364.25,0.0,55,89,Electric Guitar
364.5,0.0,46,124,Electric Guitar
364.5,0.0,54,124,Electric Guitar
364.5,0.0,70,124,Electric Guitar
364.5,0.0,42,93,Electric Guitar
364.5,0.0,60,89,Electric Guitar
364.5,0.0,55,89,Electric Guitar
364.5,0.0,64,89,Electric Guitar
364.6666666666667,0.3252032520325203,79,96,Electric Guitar
364.75,0.0,54,60,Electric Guitar
364.75,0.0,70,60,Electric Guitar
364.75,0.0,36,85,Electric Guitar
364.75,0.0,42,85,Electric Guitar
364.75,0.0,64,97,Electric Guitar
364.75,0.0,60,97,Electric Guitar
364.75,0.0,55,97,Electric Guitar
365.0,0.24390243902439024,28,127,Electric Guitar
365.0,0.3252032520325203,64,127,Electric Guitar
365.0,0.3252032520325203,45,127,Electric Guitar
365.0,0.3252032520325203,55,127,Electric Guitar
365.0,0.3252032520325203,60,127,Electric Guitar
365.0,0.3252032520325203,59,127,Electric Guitar
365.0,0.12195121951219512,36,127,Electric Guitar
365.0,0.12195121951219512,38,127,Electric Guitar
365.0,0.0,42,94,Electric Guitar
365.0,0.0,54,94,Electric Guitar
365.0,0.0,70,94,Electric Guitar
365.0,0.0,42,106,Electric Guitar
365.0,0.0,40,106,Electric Guitar
365.0,0.0,55,118,Electric Guitar
365.0,0.0,64,118,Electric Guitar
365.0,0.0,60,118,Electric Guitar
365.25,0.0,42,90,Electric Guitar
365.25,0.0,54,90,Electric Guitar
365.25,0.0,70,90,Electric Guitar
365.25,0.0,42,53,Electric Guitar
365.25,0.0,64,77,Electric Guitar
365.25,0.0,60,77,Electric Guitar
365.25,0.0,55,77,Electric Guitar
365.5,0.12195121951219512,76,100,Electric Guitar
365.5,0.12195121951219512,31,127,Electric Guitar
365.5,0.0,46,127,Electric Guitar
365.5,0.0,54,127,Electric Guitar
365.5,0.0,70,127,Electric Guitar
365.5,0.0,36,102,Electric Guitar
365.5,0.0,42,102,Electric Guitar
365.5,0.0,64,93,Electric Guitar
365.5,0.0,55,93,Electric Guitar
365.5,0.0,60,93,Electric Guitar
365.75,0.12195121951219512,72,96,Electric Guitar
365.75,0.36585365853658536,33,127,Electric Guitar
365.75,0.0,60,127,Electric Guitar
365.75,0.0,55,127,Electric Guitar
365.75,0.0,45,127,Electric Guitar
365.75,0.0,59,127,Electric Guitar
365.75,0.0,64,127,Electric Guitar
365.75,0.0,54,82,Electric Guitar
365.75,0.0,70,82,Electric Guitar
365.75,0.0,36,84,Electric Guitar
365.75,0.0,42,84,Electric Guitar
365.75,0.0,60,85,Electric Guitar
365.75,0.0,55,85,Electric Guitar
365.75,0.0,64,85,Electric Guitar
366.0,0.6504065040650406,69,89,Electric Guitar
366.0,0.12195121951219512,36,127,Electric Guitar
366.0,0.0,42,99,Electric Guitar
366.0,0.0,54,99,Electric Guitar
366.0,0.0,70,99,Electric Guitar
366.0,0.0,44,117,Electric Guitar
366.0,0.0,55,116,Electric Guitar
366.0,0.0,64,116,Electric Guitar
366.0,0.0,60,116,Electric Guitar
366.25,0.0,42,82,Electric Guitar
366.25,0.0,54,82,Electric Guitar
366.25,0.0,70,82,Electric Guitar
366.25,0.0,42,63,Electric Guitar
366.25,0.0,64,90,Electric Guitar
366.25,0.0,60,90,Electric Guitar
366.25,0.0,55,90,Electric Guitar
366.5,0.24390243902439024,36,127,Electric Guitar
366.5,0.36585365853658536,55,127,Electric Guitar
366.5,0.36585365853658536,64,127,Electric Guitar
366.5,0.36585365853658536,59,127,Electric Guitar
366.5,0.36585365853658536,60,127,Electric Guitar
366.5,0.36585365853658536,45,127,Electric Guitar
366.5,0.0,46,124,Electric Guitar
366.5,0.0,54,124,Electric Guitar
366.5,0.0,70,124,Electric Guitar
366.5,0.0,36,100,Electric Guitar
366.5,0.0,42,100,Electric Guitar
366.5,0.0,60,93,Electric Guitar
366.5,0.0,55,93,Electric Guitar
366.5,0.0,64,93,Electric Guitar
366.75,0.0,54,60,Electric Guitar
366.75,0.0,70,60,Electric Guitar
366.75,0.0,42,71,Electric Guitar
366.75,0.0,55,95,Electric Guitar
366.75,0.0,64,95,Electric Guitar
366.75,0.0,60,95,Electric Guitar
367.0,0.12195121951219512,38,127,Electric Guitar
367.0,0.12195121951219512,36,127,Electric Guitar
367.0,0.12195121951219512,38,127,Electric Guitar
367.0,0.0,42,94,Electric Guitar
367.0,0.0,54,94,Electric Guitar
367.0,0.0,70,94,Electric Guitar
367.0,0.0,44,124,Electric Guitar
367.0,0.0,40,124,Electric Guitar
367.0,0.0,64,112,Electric Guitar
367.0,0.0,55,112,Electric Guitar
367.0,0.0,60,112,Electric Guitar
367.25,0.12195121951219512,39,127,Electric Guitar
367.25,0.0,42,90,Electric Guitar
367.25,0.0,54,90,Electric Guitar
367.25,0.0,70,90,Electric Guitar
367.25,0.0,36,86,Electric Guitar
367.25,0.0,42,86,Electric Guitar
367.25,0.0,64,93,Electric Guitar
367.25,0.0,55,93,Electric Guitar
367.25,0.0,60,93,Electric Guitar
367.5,0.12195121951219512,69,91,Electric Guitar
367.5,0.24390243902439024,40,127,Electric Guitar
367.5,0.0,55,127,Electric Guitar
367.5,0.0,59,127,Electric Guitar
367.5,0.0,60,127,Electric Guitar
367.5,0.0,64,127,Electric Guitar
367.5,0.0,45,127,Electric Guitar
367.5,0.0,46,127,Electric Guitar
367.5,0.0,54,127,Electric Guitar
367.5,0.0,70,127,Electric Guitar
367.5,0.0,42,89,Electric Guitar
367.5,0.0,55,99,Electric Guitar
367.5,0.0,60,99,Electric Guitar
367.5,0.0,64,99,Electric Guitar
367.75,0.12195121951219512,72,88,Electric Guitar
367.75,0.0,54,82,Electric Guitar
367.75,0.0,70,82,Electric Guitar
367.75,0.0,36,84,Electric Guitar
367.75,0.0,42,84,Electric Guitar
367.75,0.0,55,91,Electric Guitar
367.75,0.0,64,91,Electric Guitar
367.75,0.0,60,91,Electric Guitar
368.0,0.3252032520325203,77,107,Electric Guitar
368.0,0.12195121951219512,29,127,Electric Guitar
368.0,0.0,64,127,Electric Guitar
368.0,0.0,60,127,Electric Guitar
368.0,0.0,57,127,Electric Guitar
368.0,0.0,67,127,Electric Guitar
368.0,0.12195121951219512,41,127,Electric Guitar
368.0,0.12195121951219512,36,127,Electric Guitar
368.0,0.0,42,99,Electric Guitar
368.0,0.0,54,99,Electric Guitar
368.0,0.0,70,99,Electric Guitar
368.0,0.0,36,110,Electric Guitar
368.0,0.0,42,110,Electric Guitar
368.0,0.0,53,121,Electric Guitar
368.0,0.0,57,121,Electric Guitar
368.0,0.0,64,121,Electric Guitar
368.25,0.0,42,82,Electric Guitar
368.25,0.0,54,82,Electric Guitar
368.25,0.0,70,82,Electric Guitar
368.25,0.0,42,63,Electric Guitar
368.25,0.0,64,97,Electric Guitar
368.25,0.0,53,97,Electric Guitar
368.25,0.0,57,97,Electric Guitar
368.5,0.0,46,124,Electric Guitar
368.5,0.0,54,124,Electric Guitar
368.5,0.0,70,124,Electric Guitar
368.5,0.0,42,93,Electric Guitar
368.5,0.0,64,94,Electric Guitar
368.5,0.0,53,94,Electric Guitar
368.5,0.0,57,94,Electric Guitar
368.6666666666667,0.36585365853658536,77,94,Electric Guitar
368.75,0.0,54,60,Electric Guitar
368.75,0.0,70,60,Electric Guitar
368.75,0.0,36,85,Electric Guitar
368.75,0.0,42,85,Electric Guitar
368.75,0.0,64,94,Electric Guitar
368.75,0.0,53,94,Electric Guitar
368.75,0.0,57,94,Electric Guitar
369.0,0.12195121951219512,29,127,Electric Guitar
369.0,0.3252032520325203,64,127,Electric Guitar
369.0,0.3252032520325203,60,127,Electric Guitar
369.0,0.3252032520325203,57,127,Electric Guitar
369.0,0.3252032520325203,67,127,Electric Guitar
369.0,0.3252032520325203,41,127,Electric Guitar
369.0,0.12195121951219512,36,127,Electric Guitar
369.0,0.12195121951219512,38,127,Electric Guitar
369.0,0.0,42,94,Electric Guitar
369.0,0.0,54,94,Electric Guitar
369.0,0.0,70,94,Electric Guitar
369.0,0.0,42,106,Electric Guitar
369.0,0.0,40,106,Electric Guitar
369.0,0.0,53,122,Electric Guitar
369.0,0.0,64,122,Electric Guitar
369.0,0.0,57,122,Electric Guitar
369.25,0.0,33,127,Electric Guitar
369.25,0.0,42,90,Electric Guitar
369.25,0.0,54,90,Electric Guitar
369.25,0.0,70,90,Electric Guitar
369.25,0.0,42,53,Electric Guitar
369.25,0.0,64,99,Electric Guitar
369.25,0.0,53,99,Electric Guitar
369.25,0.0,57,99,Electric Guitar
369.5,0.16260162601626016,76,112,Electric Guitar
369.5,0.0,36,127,Electric Guitar
369.5,0.0,46,127,Electric Guitar
369.5,0.0,54,127,Electric Guitar
369.5,0.0,70,127,Electric Guitar
369.5,0.0,36,102,Electric Guitar
369.5,0.0,42,102,Electric Guitar
369.5,0.0,64,100,Electric Guitar
369.5,0.0,53,100,Electric Guitar
369.5,0.0,57,100,Electric Guitar
369.75,0.16260162601626016,74,91,Electric Guitar
369.75,0.24390243902439024,40,127,Electric Guitar
369.75,0.0,57,127,Electric Guitar
369.75,0.0,41,127,Electric Guitar
369.75,0.0,67,127,Electric Guitar
369.75,0.0,64,127,Electric Guitar
369.75,0.0,60,127,Electric Guitar
369.75,0.0,54,82,Electric Guitar
369.75,0.0,70,82,Electric Guitar
369.75,0.0,36,84,Electric Guitar
369.75,0.0,42,84,Electric Guitar
369.75,0.0,53,95,Electric Guitar
369.75,0.0,64,95,Electric Guitar
369.75,0.0,57,95,Electric Guitar
370.0,0.3252032520325203,72,112,Electric Guitar
370.0,0.12195121951219512,36,127,Electric Guitar
370.0,0.0,42,99,Electric Guitar
370.0,0.0,54,99,Electric Guitar
370.0,0.0,70,99,Electric Guitar
370.0,0.0,44,117,Electric Guitar
370.0,0.0,53,118,Electric Guitar
370.0,0.0,64,118,Electric Guitar
370.0,0.0,57,118,Electric Guitar
370.25,0.0,36,127,Electric Guitar
370.25,0.0,42,82,Electric Guitar
370.25,0.0,54,82,Electric Guitar
370.25,0.0,70,82,Electric Guitar
370.25,0.12195121951219512,38,77,Electric Guitar
370.25,0.0,42,63,Electric Guitar
370.25,0.0,64,100,Electric Guitar
370.25,0.0,53,100,Electric Guitar
370.25,0.0,57,100,Electric Guitar
370.5,0.24390243902439024,38,127,Electric Guitar
370.5,0.36585365853658536,64,127,Electric Guitar
370.5,0.36585365853658536,57,127,Electric Guitar
370.5,0.36585365853658536,41,127,Electric Guitar
370.5,0.36585365853658536,67,127,Electric Guitar
370.5,0.36585365853658536,60,127,Electric Guitar
370.5,0.0,46,124,Electric Guitar
370.5,0.0,54,124,Electric Guitar
370.5,0.0,70,124,Electric Guitar
370.5,0.0,36,100,Electric Guitar
370.5,0.0,42,100,Electric Guitar
370.5,0.0,64,101,Electric Guitar
370.5,0.0,53,101,Electric Guitar
370.5,0.0,57,101,Electric Guitar
370.6666666666667,0.3252032520325203,71,107,Electric Guitar
370.75,0.0,54,60,Electric Guitar
370.75,0.0,70,60,Electric Guitar
370.75,0.0,42,71,Electric Guitar
370.75,0.0,64,96,Electric Guitar
370.75,0.0,53,96,Electric Guitar
370.75,0.0,57,96,Electric Guitar
371.0,0.16260162601626016,36,127,Electric Guitar
371.0,0.12195121951219512,36,127,Electric Guitar
371.0,0.12195121951219512,38,127,Electric Guitar
371.0,0.0,42,94,Electric Guitar
371.0,0.0,54,94,Electric Guitar
371.0,0.0,70,94,Electric Guitar
371.0,0.0,44,124,Electric Guitar
371.0,0.0,40,124,Electric Guitar
371.0,0.0,53,120,Electric Guitar
371.0,0.0,64,120,Electric Guitar
371.0,0.0,57,120,Electric Guitar
371.25,0.36585365853658536,33,127,Electric Guitar
371.25,0.0,42,90,Electric Guitar
371.25,0.0,54,90,Electric Guitar
371.25,0.0,70,90,Electric Guitar
371.25,0.0,36,86,Electric Guitar
371.25,0.0,42,86,Electric Guitar
371.25,0.0,64,100,Electric Guitar
371.25,0.0,57,100,Electric Guitar
371.25,0.0,53,100,Electric Guitar
371.3333333333333,0.24390243902439024,72,107,Electric Guitar
371.5,0.0,57,127,Electric Guitar
371.5,0.0,64,127,Electric Guitar
371.5,0.0,60,127,Electric Guitar
371.5,0.0,67,127,Electric Guitar
371.5,0.0,41,127,Electric Guitar
371.5,0.0,46,127,Electric Guitar
371.5,0.0,54,127,Electric Guitar
371.5,0.0,70,127,Electric Guitar
371.5,0.0,42,89,Electric Guitar
371.5,0.0,64,100,Electric Guitar
371.5,0.0,53,100,Electric Guitar
371.5,0.0,57,100,Electric Guitar
371.75,0.0,54,82,Electric Guitar
371.75,0.0,70,82,Electric Guitar
371.75,0.0,36,84,Electric Guitar
371.75,0.0,42,84,Electric Guitar
371.75,0.0,53,98,Electric Guitar
371.75,0.0,64,98,Electric Guitar
371.75,0.0,57,98,Electric Guitar
372.0,0.16260162601626016,75,110,Electric Guitar
372.0,0.12195121951219512,26,127,Electric Guitar
372.0,0.0,64,127,Electric Guitar
372.0,0.0,53,127,Electric Guitar
372.0,0.0,60,127,Electric Guitar
372.0,0.0,57,127,Electric Guitar
372.0,0.12195121951219512,38,127,Electric Guitar
372.0,0.12195121951219512,36,127,Electric Guitar
372.0,0.0,42,99,Electric Guitar
372.0,0.0,54,99,Electric Guitar
372.0,0.0,70,99,Electric Guitar
372.0,0.0,36,110,Electric Guitar
372.0,0.0,42,110,Electric Guitar
372.0,0.0,53,124,Electric Guitar
372.0,0.0,62,124,Electric Guitar
372.0,0.0,57,124,Electric Guitar
372.25,0.12195121951219512,76,102,Electric Guitar
372.25,0.0,42,82,Electric Guitar
372.25,0.0,54,82,Electric Guitar
372.25,0.0,70,82,Electric Guitar
372.25,0.0,42,63,Electric Guitar
372.25,0.0,62,96,Electric Guitar
372.25,0.0,57,96,Electric Guitar
372.25,0.0,53,96,Electric Guitar
372.5,0.12195121951219512,79,91,Electric Guitar
372.5,0.0,46,124,Electric Guitar
372.5,0.0,54,124,Electric Guitar
372.5,0.0,70,124,Electric Guitar
372.5,0.0,42,93,Electric Guitar
372.5,0.0,57,89,Electric Guitar
372.5,0.0,53,89,Electric Guitar
372.5,0.0,62,89,Electric Guitar
372.75,0.16260162601626016,75,92,Electric Guitar
372.75,0.0,54,60,Electric Guitar
372.75,0.0,70,60,Electric Guitar
372.75,0.0,36,85,Electric Guitar
372.75,0.0,42,85,Electric Guitar
372.75,0.0,62,99,Electric Guitar
372.75,0.0,53,99,Electric Guitar
372.75,0.0,57,99,Electric Guitar
373.0,0.12195121951219512,76,100,Electric Guitar
373.0,0.12195121951219512,26,127,Electric Guitar
373.0,0.3252032520325203,38,127,Electric Guitar
373.0,0.3252032520325203,64,127,Electric Guitar
373.0,0.3252032520325203,53,127,Electric Guitar
373.0,0.3252032520325203,60,127,Electric Guitar
373.0,0.3252032520325203,57,127,Electric Guitar
373.0,0.12195121951219512,36,127,Electric Guitar
373.0,0.12195121951219512,38,127,Electric Guitar
373.0,0.0,42,94,Electric Guitar
373.0,0.0,54,94,Electric Guitar
373.0,0.0,70,94,Electric Guitar
373.0,0.0,42,106,Electric Guitar
373.0,0.0,40,106,Electric Guitar
373.0,0.0,62,117,Electric Guitar
373.0,0.0,57,117,Electric Guitar
373.0,0.0,53,117,Electric Guitar
373.25,0.12195121951219512,79,94,Electric Guitar
373.25,0.12195121951219512,29,127,Electric Guitar
373.25,0.0,42,90,Electric Guitar
373.25,0.0,54,90,Electric Guitar
373.25,0.0,70,90,Electric Guitar
373.25,0.0,42,53,Electric Guitar
373.25,0.0,57,97,Electric Guitar
373.25,0.0,53,97,Electric Guitar
373.25,0.0,62,97,Electric Guitar
373.5,0.16260162601626016,75,98,Electric Guitar
373.5,0.12195121951219512,33,127,Electric Guitar
373.5,0.0,46,127,Electric Guitar
373.5,0.0,54,127,Electric Guitar
373.5,0.0,70,127,Electric Guitar
373.5,0.0,36,102,Electric Guitar
373.5,0.0,42,102,Electric Guitar
373.5,0.0,57,91,Electric Guitar
373.5,0.0,62,91,Electric Guitar
373.5,0.0,53,91,Electric Guitar
373.75,0.12195121951219512,76,107,Electric Guitar
373.75,0.36585365853658536,40,127,Electric Guitar
373.75,0.0,56,127,Electric Guitar
373.75,0.0,59,127,Electric Guitar
373.75,0.0,62,127,Electric Guitar
373.75,0.0,65,127,Electric Guitar
373.75,0.12195121951219512,40,127,Electric Guitar
373.75,0.0,54,82,Electric Guitar
373.75,0.0,70,82,Electric Guitar
373.75,0.0,36,84,Electric Guitar
373.75,0.0,42,84,Electric Guitar
373.75,0.0,53,95,Electric Guitar
373.75,0.0,62,95,Electric Guitar
373.75,0.0,57,95,Electric Guitar
374.0,0.12195121951219512,79,100,Electric Guitar
374.0,0.12195121951219512,36,127,Electric Guitar
374.0,0.0,42,99,Electric Guitar
374.0,0.0,54,99,Electric Guitar
374.0,0.0,70,99,Electric Guitar
374.0,0.0,44,117,Electric Guitar
374.0,0.0,56,119,Electric Guitar
374.0,0.0,59,119,Electric Guitar
374.0,0.0,64,119,Electric Guitar
374.25,0.16260162601626016,75,88,Electric Guitar
374.25,0.0,42,82,Electric Guitar
374.25,0.0,54,82,Electric Guitar
374.25,0.0,70,82,Electric Guitar
374.25,0.0,42,63,Electric Guitar
374.25,0.0,59,88,Electric Guitar
374.25,0.0,64,88,Electric Guitar
374.25,0.0,56,88,Electric Guitar
374.5,0.12195121951219512,76,100,Electric Guitar
374.5,0.12195121951219512,35,127,Electric Guitar
374.5,0.36585365853658536,59,127,Electric Guitar
374.5,0.36585365853658536,65,127,Electric Guitar
374.5,0.36585365853658536,56,127,Electric Guitar
374.5,0.36585365853658536,62,127,Electric Guitar
374.5,0.36585365853658536,40,127,Electric Guitar
374.5,0.0,46,124,Electric Guitar
374.5,0.0,54,124,Electric Guitar
374.5,0.0,70,124,Electric Guitar
374.5,0.0,36,100,Electric Guitar
374.5,0.0,42,100,Electric Guitar
374.5,0.0,59,81,Electric Guitar
374.5,0.0,56,81,Electric Guitar
374.5,0.0,64,81,Electric Guitar
374.75,0.12195121951219512,79,102,Electric Guitar
374.75,0.0,54,60,Electric Guitar
374.75,0.0,70,60,Electric Guitar
374.75,0.0,42,71,Electric Guitar
374.75,0.0,59,88,Electric Guitar
374.75,0.0,56,88,Electric Guitar
374.75,0.0,64,88,Electric Guitar
375.0,0.24390243902439024,76,94,Electric Guitar
375.0,0.4878048780487805,28,127,Electric Guitar
375.0,0.12195121951219512,36,127,Electric Guitar
375.0,0.12195121951219512,38,127,Electric Guitar
375.0,0.0,42,94,Electric Guitar
375.0,0.0,54,94,Electric Guitar
375.0,0.0,70,94,Electric Guitar
375.0,0.0,44,124,Electric Guitar
375.0,0.0,40,124,Electric Guitar
375.0,0.0,56,117,Electric Guitar
375.0,0.0,59,117,Electric Guitar
375.0,0.0,64,117,Electric Guitar
375.25,0.0,42,90,Electric Guitar
375.25,0.0,54,90,Electric Guitar
375.25,0.0,70,90,Electric Guitar
375.25,0.0,36,86,Electric Guitar
375.25,0.0,42,86,Electric Guitar
375.25,0.0,59,87,Electric Guitar
375.25,0.0,56,87,Electric Guitar
375.25,0.0,64,87,Electric Guitar
375.5,0.24390243902439024,79,96,Electric Guitar
375.5,0.0,40,127,Electric Guitar
375.5,0.0,56,127,Electric Guitar
375.5,0.0,59,127,Electric Guitar
375.5,0.0,62,127,Electric Guitar
375.5,0.0,65,127,Electric Guitar
375.5,0.0,46,127,Electric Guitar
375.5,0.0,54,127,Electric Guitar
375.5,0.0,70,127,Electric Guitar
375.5,0.0,42,89,Electric Guitar
375.5,0.0,59,94,Electric Guitar
375.5,0.0,56,94,Electric Guitar
375.5,0.0,64,94,Electric Guitar
375.75,0.0,54,82,Electric Guitar
375.75,0.0,70,82,Electric Guitar
375.75,0.0,36,84,Electric Guitar
375.75,0.0,42,84,Electric Guitar
375.75,0.0,64,94,Electric Guitar
375.75,0.0,59,94,Electric Guitar
375.75,0.0,56,94,Electric Guitar
376.0,0.975609756097561,81,96,Electric Guitar
376.0,0.12195121951219512,33,127,Electric Guitar
376.0,0.0,59,127,Electric Guitar
376.0,0.0,55,127,Electric Guitar
376.0,0.0,60,127,Electric Guitar
376.0,0.0,64,127,Electric Guitar
376.0,0.12195121951219512,45,127,Electric Guitar
376.0,0.12195121951219512,36,127,Electric Guitar
376.0,0.0,42,99,Electric Guitar
376.0,0.0,54,99,Electric Guitar
376.0,0.0,70,99,Electric Guitar
376.0,0.0,36,110,Electric Guitar
376.0,0.0,42,110,Electric Guitar
376.0,0.0,64,118,Electric Guitar
376.0,0.0,60,118,Electric Guitar
376.0,0.0,57,118,Electric Guitar
376.25,0.0,42,82,Electric Guitar
376.25,0.0,54,82,Electric Guitar
376.25,0.0,70,82,Electric Guitar
376.25,0.0,42,63,Electric Guitar
376.25,0.0,64,96,Electric Guitar
376.25,0.0,60,96,Electric Guitar
376.25,0.0,57,96,Electric Guitar
376.5,0.0,46,124,Electric Guitar
376.5,0.0,54,124,Electric Guitar
376.5,0.0,70,124,Electric Guitar
376.5,0.0,42,93,Electric Guitar
376.5,0.0,64,79,Electric Guitar
376.5,0.0,60,79,Electric Guitar
376.5,0.0,57,79,Electric Guitar
376.75,0.0,54,60,Electric Guitar
376.75,0.0,70,60,Electric Guitar
376.75,0.0,36,85,Electric Guitar
376.75,0.0,42,85,Electric Guitar
376.75,0.0,64,87,Electric Guitar
376.75,0.0,60,87,Electric Guitar
376.75,0.0,57,87,Electric Guitar
377.0,0.12195121951219512,33,127,Electric Guitar
377.0,0.3252032520325203,64,127,Electric Guitar
377.0,0.3252032520325203,45,127,Electric Guitar
377.0,0.3252032520325203,55,127,Electric Guitar
377.0,0.3252032520325203,60,127,Electric Guitar
377.0,0.3252032520325203,59,127,Electric Guitar
377.0,0.12195121951219512,36,127,Electric Guitar
377.0,0.12195121951219512,38,127,Electric Guitar
377.0,0.0,42,94,Electric Guitar
377.0,0.0,54,94,Electric Guitar
377.0,0.0,70,94,Electric Guitar
377.0,0.0,42,106,Electric Guitar
377.0,0.0,40,106,Electric Guitar
377.0,0.0,64,122,Electric Guitar
377.0,0.0,60,122,Electric Guitar
377.0,0.0,57,122,Electric Guitar
377.25,0.12195121951219512,40,127,Electric Guitar
377.25,0.0,42,90,Electric Guitar
377.25,0.0,54,90,Electric Guitar
377.25,0.0,70,90,Electric Guitar
377.25,0.0,42,53,Electric Guitar
377.25,0.0,64,96,Electric Guitar
377.25,0.0,57,96,Electric Guitar
377.25,0.0,60,96,Electric Guitar
377.5,0.12195121951219512,43,127,Electric Guitar
377.5,0.0,46,127,Electric Guitar
377.5,0.0,54,127,Electric Guitar
377.5,0.0,70,127,Electric Guitar
377.5,0.0,36,102,Electric Guitar
377.5,0.0,42,102,Electric Guitar
377.5,0.0,64,84,Electric Guitar
377.5,0.0,60,84,Electric Guitar
377.5,0.0,57,84,Electric Guitar
377.75,0.24390243902439024,45,127,Electric Guitar
377.75,0.0,60,127,Electric Guitar
377.75,0.0,55,127,Electric Guitar
377.75,0.0,45,127,Electric Guitar
377.75,0.0,59,127,Electric Guitar
377.75,0.0,64,127,Electric Guitar
377.75,0.0,54,82,Electric Guitar
377.75,0.0,70,82,Electric Guitar
377.75,0.0,36,84,Electric Guitar
377.75,0.0,42,84,Electric Guitar
377.75,0.0,64,90,Electric Guitar
377.75,0.0,60,90,Electric Guitar
377.75,0.0,57,90,Electric Guitar
378.0,0.975609756097561,84,103,Electric Guitar
378.0,0.12195121951219512,36,127,Electric Guitar
378.0,0.0,42,99,Electric Guitar
378.0,0.0,54,99,Electric Guitar
378.0,0.0,70,99,Electric Guitar
378.0,0.0,44,117,Electric Guitar
378.0,0.0,64,121,Electric Guitar
378.0,0.0,60,121,Electric Guitar
378.0,0.0,57,121,Electric Guitar
378.25,0.36585365853658536,43,127,Electric Guitar
378.25,0.0,42,82,Electric Guitar
378.25,0.0,54,82,Electric Guitar
378.25,0.0,70,82,Electric Guitar
378.25,0.12195121951219512,38,77,Electric Guitar
378.25,0.0,42,63,Electric Guitar
378.25,0.0,64,96,Electric Guitar
378.25,0.0,60,96,Electric Guitar
378.25,0.0,57,96,Electric Guitar
378.5,0.36585365853658536,55,127,Electric Guitar
378.5,0.36585365853658536,64,127,Electric Guitar
378.5,0.36585365853658536,59,127,Electric Guitar
378.5,0.36585365853658536,60,127,Electric Guitar
378.5,0.36585365853658536,45,127,Electric Guitar
378.5,0.0,46,124,Electric Guitar
378.5,0.0,54,124,Electric Guitar
378.5,0.0,70,124,Electric Guitar
378.5,0.0,36,100,Electric Guitar
378.5,0.0,42,100,Electric Guitar
378.5,0.0,64,94,Electric Guitar
378.5,0.0,60,94,Electric Guitar
378.5,0.0,57,94,Electric Guitar
378.75,0.0,54,60,Electric Guitar
378.75,0.0,70,60,Electric Guitar
378.75,0.0,42,71,Electric Guitar
378.75,0.0,64,94,Electric Guitar
378.75,0.0,60,94,Electric Guitar
378.75,0.0,57,94,Electric Guitar
379.0,0.12195121951219512,40,127,Electric Guitar
379.0,0.12195121951219512,36,127,Electric Guitar
379.0,0.12195121951219512,38,127,Electric Guitar
379.0,0.0,42,94,Electric Guitar
379.0,0.0,54,94,Electric Guitar
379.0,0.0,70,94,Electric Guitar
379.0,0.0,44,124,Electric Guitar
379.0,0.0,40,124,Electric Guitar
379.0,0.0,64,118,Electric Guitar
379.0,0.0,57,118,Electric Guitar
379.0,0.0,60,118,Electric Guitar
379.25,0.12195121951219512,36,127,Electric Guitar
379.25,0.36585365853658536,55,127,Electric Guitar
379.25,0.36585365853658536,59,127,Electric Guitar
379.25,0.36585365853658536,60,127,Electric Guitar
379.25,0.36585365853658536,64,127,Electric Guitar
379.25,0.36585365853658536,45,127,Electric Guitar
379.25,0.0,42,90,Electric Guitar
379.25,0.0,54,90,Electric Guitar
379.25,0.0,70,90,Electric Guitar
379.25,0.0,36,86,Electric Guitar
379.25,0.0,42,86,Electric Guitar
379.25,0.0,64,95,Electric Guitar
379.25,0.0,60,95,Electric Guitar
379.25,0.0,57,95,Electric Guitar
379.5,0.24390243902439024,33,127,Electric Guitar
379.5,0.0,46,127,Electric Guitar
379.5,0.0,54,127,Electric Guitar
379.5,0.0,70,127,Electric Guitar
379.5,0.0,42,89,Electric Guitar
379.5,0.0,64,91,Electric Guitar
379.5,0.0,60,91,Electric Guitar
379.5,0.0,57,91,Electric Guitar
379.75,0.12195121951219512,38,77,Electric Guitar
379.75,0.0,54,82,Electric Guitar
379.75,0.0,70,82,Electric Guitar
379.75,0.0,36,84,Electric Guitar
379.75,0.0,42,84,Electric Guitar
379.75,0.0,64,99,Electric Guitar
379.75,0.0,60,99,Electric Guitar
379.75,0.0,57,99,Electric Guitar
380.0,1.7073170731707317,34,127,Electric Guitar
380.0,0.4878048780487805,74,99,Electric Guitar
380.0,0.4878048780487805,70,99,Electric Guitar
380.0,0.4878048780487805,58,99,Electric Guitar
380.0,0.6097560975609756,69,105,Electric Guitar
380.0,0.6097560975609756,77,105,Electric Guitar
380.0,1.7073170731707317,74,97,Electric Guitar
380.0,1.7073170731707317,65,97,Electric Guitar
380.0,3.902439024390244,69,85,Electric Guitar
380.0,1.5853658536585367,46,100,Electric Guitar
380.0,0.6097560975609756,69,103,Electric Guitar
380.0,0.4878048780487805,58,94,Electric Guitar
380.0,0.7317073170731707,62,100,Electric Guitar
380.0,0.7317073170731707,65,100,Electric Guitar
380.0,1.7073170731707317,57,127,Electric Guitar
380.0,1.7073170731707317,58,127,Electric Guitar
380.0,1.7073170731707317,46,127,Electric Guitar
380.0,1.7886178861788617,62,127,Electric Guitar
380.0,1.7886178861788617,65,127,Electric Guitar
380.0,0.12195121951219512,36,127,Electric Guitar
380.0,0.12195121951219512,49,127,Electric Guitar
380.0,0.0,42,99,Electric Guitar
380.0,0.0,54,99,Electric Guitar
380.0,0.0,70,99,Electric Guitar
380.0,0.0,36,110,Electric Guitar
380.0,0.0,42,110,Electric Guitar
380.0,0.6504065040650406,69,127,Electric Guitar
380.0,0.6097560975609756,57,127,Electric Guitar
380.0,1.7073170731707317,62,97,Electric Guitar
380.0,1.7073170731707317,65,97,Electric Guitar
380.0,1.7073170731707317,58,97,Electric Guitar
380.25,0.0,42,82,Electric Guitar
380.25,0.0,54,82,Electric Guitar
380.25,0.0,70,82,Electric Guitar
380.25,0.0,42,63,Electric Guitar
380.5,0.0,46,124,Electric Guitar
380.5,0.0,54,124,Electric Guitar
380.5,0.0,70,124,Electric Guitar
380.5,0.0,42,93,Electric Guitar
380.75,0.0,54,60,Electric Guitar
380.75,0.0,70,60,Electric Guitar
380.75,0.0,36,85,Electric Guitar
380.75,0.0,42,85,Electric Guitar
381.0,0.6097560975609756,77,122,Electric Guitar
381.0,0.12195121951219512,36,127,Electric Guitar
381.0,0.12195121951219512,38,127,Electric Guitar
381.0,0.0,42,94,Electric Guitar
381.0,0.0,54,94,Electric Guitar
381.0,0.0,70,94,Electric Guitar
381.0,0.0,42,106,Electric Guitar
381.0,0.0,40,106,Electric Guitar
381.25,0.0,42,90,Electric Guitar
381.25,0.0,54,90,Electric Guitar
381.25,0.0,70,90,Electric Guitar
381.25,0.0,42,53,Electric Guitar
381.5,0.36585365853658536,58,79,Electric Guitar
381.5,0.0,46,127,Electric Guitar
381.5,0.0,54,127,Electric Guitar
381.5,0.0,70,127,Electric Guitar
381.5,0.0,36,102,Electric Guitar
381.5,0.0,42,102,Electric Guitar
381.75,0.0,54,82,Electric Guitar
381.75,0.0,70,82,Electric Guitar
381.75,0.0,36,84,Electric Guitar
381.75,0.0,42,84,Electric Guitar
382.0,0.4878048780487805,62,91,Electric Guitar
382.0,0.12195121951219512,36,127,Electric Guitar
382.0,0.0,42,99,Electric Guitar
382.0,0.0,54,99,Electric Guitar
382.0,0.0,70,99,Electric Guitar
382.0,0.0,44,117,Electric Guitar
382.25,0.0,42,82,Electric Guitar
382.25,0.0,54,82,Electric Guitar
382.25,0.0,70,82,Electric Guitar
382.25,0.0,42,63,Electric Guitar
382.5,0.16260162601626016,77,102,Electric Guitar
382.5,0.3252032520325203,65,84,Electric Guitar
382.5,0.0,46,124,Electric Guitar
382.5,0.0,54,124,Electric Guitar
382.5,0.0,70,124,Electric Guitar
382.5,0.0,36,100,Electric Guitar
382.5,0.0,42,100,Electric Guitar
382.75,0.0,54,60,Electric Guitar
382.75,0.0,70,60,Electric Guitar
382.75,0.0,42,71,Electric Guitar
383.0,0.12195121951219512,79,110,Electric Guitar
383.0,0.0,69,87,Electric Guitar
383.0,0.12195121951219512,36,127,Electric Guitar
383.0,0.12195121951219512,38,127,Electric Guitar
383.0,0.0,42,94,Electric Guitar
383.0,0.0,54,94,Electric Guitar
383.0,0.0,70,94,Electric Guitar
383.0,0.0,44,124,Electric Guitar
383.0,0.0,40,124,Electric Guitar
383.25,0.0,42,90,Electric Guitar
383.25,0.0,54,90,Electric Guitar
383.25,0.0,70,90,Electric Guitar
383.25,0.0,36,86,Electric Guitar
383.25,0.0,42,86,Electric Guitar
383.5,1.3414634146341462,33,127,Electric Guitar
383.5,0.4878048780487805,76,102,Electric Guitar
383.5,0.4878048780487805,72,102,Electric Guitar
383.5,0.4878048780487805,71,102,Electric Guitar
383.5,0.6097560975609756,57,110,Electric Guitar
383.5,0.4878048780487805,67,110,Electric Guitar
383.5,0.16260162601626016,76,120,Electric Guitar
383.5,2.113821138211382,72,92,Electric Guitar
383.5,2.113821138211382,64,92,Electric Guitar
383.5,0.4878048780487805,64,107,Electric Guitar
383.5,0.36585365853658536,60,105,Electric Guitar
383.5,0.36585365853658536,57,105,Electric Guitar
383.5,1.8292682926829267,45,105,Electric Guitar
383.5,2.1951219512195124,45,127,Electric Guitar
383.5,2.1951219512195124,60,127,Electric Guitar
383.5,2.1951219512195124,64,127,Electric Guitar
383.5,2.1951219512195124,55,127,Electric Guitar
383.5,0.0,46,127,Electric Guitar
383.5,0.0,54,127,Electric Guitar
383.5,0.0,70,127,Electric Guitar
383.5,0.0,42,89,Electric Guitar
383.5,0.6097560975609756,57,127,Electric Guitar
383.5,0.6097560975609756,69,127,Electric Guitar
383.5,2.1951219512195124,64,88,Electric Guitar
383.5,2.1951219512195124,57,88,Electric Guitar
383.5,2.1951219512195124,60,88,Electric Guitar
383.75,0.0,54,82,Electric Guitar
383.75,0.0,70,82,Electric Guitar
383.75,0.0,36,84,Electric Guitar
383.75,0.0,42,84,Electric Guitar
384.0,0.24390243902439024,75,112,Electric Guitar
384.0,0.12195121951219512,36,127,Electric Guitar
384.0,0.0,42,99,Electric Guitar
384.0,0.0,54,99,Electric Guitar
384.0,0.0,70,99,Electric Guitar
384.0,0.0,36,110,Electric Guitar
384.0,0.0,42,110,Electric Guitar
384.25,0.0,42,82,Electric Guitar
384.25,0.0,54,82,Electric Guitar
384.25,0.0,70,82,Electric Guitar
384.25,0.0,42,63,Electric Guitar
384.5,1.7886178861788617,76,117,Electric Guitar
384.5,0.0,46,124,Electric Guitar
384.5,0.0,54,124,Electric Guitar
384.5,0.0,70,124,Electric Guitar
384.5,0.0,42,93,Electric Guitar
384.75,0.0,54,60,Electric Guitar
384.75,0.0,70,60,Electric Guitar
384.75,0.0,36,85,Electric Guitar
384.75,0.0,42,85,Electric Guitar
385.0,0.12195121951219512,36,127,Electric Guitar
385.0,0.12195121951219512,38,127,Electric Guitar
385.0,0.0,42,94,Electric Guitar
385.0,0.0,54,94,Electric Guitar
385.0,0.0,70,94,Electric Guitar
385.0,0.0,42,106,Electric Guitar
385.0,0.0,40,106,Electric Guitar
385.25,0.0,42,90,Electric Guitar
385.25,0.0,54,90,Electric Guitar
385.25,0.0,70,90,Electric Guitar
385.25,0.0,42,53,Electric Guitar
385.5,0.36585365853658536,67,107,Electric Guitar
385.5,0.4878048780487805,76,107,Electric Guitar
385.5,0.0,46,127,Electric Guitar
385.5,0.0,54,127,Electric Guitar
385.5,0.0,70,127,Electric Guitar
385.5,0.0,36,102,Electric Guitar
385.5,0.0,42,102,Electric Guitar
385.75,0.0,54,82,Electric Guitar
385.75,0.0,70,82,Electric Guitar
385.75,0.0,36,84,Electric Guitar
385.75,0.0,42,84,Electric Guitar
386.0,0.12195121951219512,36,127,Electric Guitar
386.0,0.0,42,99,Electric Guitar
386.0,0.0,54,99,Electric Guitar
386.0,0.0,70,99,Electric Guitar
386.0,0.0,44,117,Electric Guitar
386.25,0.12195121951219512,38,127,Electric Guitar
386.25,0.0,42,82,Electric Guitar
386.25,0.0,54,82,Electric Guitar
386.25,0.0,70,82,Electric Guitar
386.25,0.12195121951219512,38,77,Electric Guitar
386.25,0.0,42,63,Electric Guitar
386.5,0.12195121951219512,39,127,Electric Guitar
386.5,0.24390243902439024,72,94,Electric Guitar
386.5,0.0,46,124,Electric Guitar
386.5,0.0,54,124,Electric Guitar
386.5,0.0,70,124,Electric Guitar
386.5,0.0,36,100,Electric Guitar
386.5,0.0,42,100,Electric Guitar
386.75,0.12195121951219512,40,127,Electric Guitar
386.75,0.0,54,60,Electric Guitar
386.75,0.0,70,60,Electric Guitar
386.75,0.0,42,71,Electric Guitar
387.0,0.4878048780487805,43,127,Electric Guitar
387.0,0.0,67,87,Electric Guitar
387.0,0.12195121951219512,36,127,Electric Guitar
387.0,0.12195121951219512,38,127,Electric Guitar
387.0,0.0,42,94,Electric Guitar
387.0,0.0,54,94,Electric Guitar
387.0,0.0,70,94,Electric Guitar
387.0,0.0,44,124,Electric Guitar
387.0,0.0,40,124,Electric Guitar
387.25,0.0,42,90,Electric Guitar
387.25,0.0,54,90,Electric Guitar
387.25,0.0,70,90,Electric Guitar
387.25,0.0,36,86,Electric Guitar
387.25,0.0,42,86,Electric Guitar
387.5,0.0,46,127,Electric Guitar
387.5,0.0,54,127,Electric Guitar
387.5,0.0,70,127,Electric Guitar
387.5,0.0,42,89,Electric Guitar
387.75,0.0,54,82,Electric Guitar
387.75,0.0,70,82,Electric Guitar
387.75,0.0,36,84,Electric Guitar
387.75,0.0,42,84,Electric Guitar
388.0,0.975609756097561,35,127,Electric Guitar
388.0,0.4878048780487805,59,105,Electric Guitar
388.0,0.36585365853658536,69,102,Electric Guitar
388.0,0.36585365853658536,78,102,Electric Guitar
388.0,0.36585365853658536,74,102,Electric Guitar
388.0,0.36585365853658536,71,98,Electric Guitar
388.0,0.975609756097561,71,94,Electric Guitar
388.0,0.975609756097561,66,94,Electric Guitar
388.0,0.975609756097561,74,94,Electric Guitar
388.0,0.4878048780487805,47,104,Electric Guitar
388.0,0.4878048780487805,57,104,Electric Guitar
388.0,0.4878048780487805,66,104,Electric Guitar
388.0,0.4878048780487805,59,102,Electric Guitar
388.0,0.4878048780487805,62,102,Electric Guitar
388.0,0.975609756097561,59,127,Electric Guitar
388.0,0.975609756097561,47,127,Electric Guitar
388.0,0.975609756097561,57,127,Electric Guitar
388.0,0.975609756097561,62,127,Electric Guitar
388.0,0.975609756097561,66,127,Electric Guitar
388.0,0.12195121951219512,36,127,Electric Guitar
388.0,0.0,42,99,Electric Guitar
388.0,0.0,54,99,Electric Guitar
388.0,0.0,70,99,Electric Guitar
388.0,0.0,36,110,Electric Guitar
388.0,0.0,42,110,Electric Guitar
388.0,0.36585365853658536,54,127,Electric Guitar
388.0,0.36585365853658536,66,127,Electric Guitar
388.0,0.975609756097561,62,94,Electric Guitar
388.0,0.975609756097561,59,94,Electric Guitar
388.0,0.975609756097561,66,94,Electric Guitar
388.25,0.0,42,82,Electric Guitar
388.25,0.0,54,82,Electric Guitar
388.25,0.0,70,82,Electric Guitar
388.25,0.0,42,63,Electric Guitar
388.5,0.0,46,124,Electric Guitar
388.5,0.0,54,124,Electric Guitar
388.5,0.0,70,124,Electric Guitar
388.5,0.0,42,93,Electric Guitar
388.75,0.0,54,60,Electric Guitar
388.75,0.0,70,60,Electric Guitar
388.75,0.0,36,85,Electric Guitar
388.75,0.0,42,85,Electric Guitar
389.0,0.6504065040650406,74,127,Electric Guitar
389.0,0.12195121951219512,36,127,Electric Guitar
389.0,0.12195121951219512,38,127,Electric Guitar
389.0,0.0,42,94,Electric Guitar
389.0,0.0,54,94,Electric Guitar
389.0,0.0,70,94,Electric Guitar
389.0,0.0,42,106,Electric Guitar
389.0,0.0,40,106,Electric Guitar
389.25,0.0,42,90,Electric Guitar
389.25,0.0,54,90,Electric Guitar
389.25,0.0,70,90,Electric Guitar
389.25,0.0,42,53,Electric Guitar
389.5,0.0,46,127,Electric Guitar
389.5,0.0,54,127,Electric Guitar
389.5,0.0,70,127,Electric Guitar
389.5,0.0,36,102,Electric Guitar
389.5,0.0,42,102,Electric Guitar
389.75,0.0,54,82,Electric Guitar
389.75,0.0,70,82,Electric Guitar
389.75,0.0,36,84,Electric Guitar
389.75,0.0,42,84,Electric Guitar
390.0,0.975609756097561,28,127,Electric Guitar
390.0,0.36585365853658536,68,95,Electric Guitar
390.0,0.36585365853658536,77,95,Electric Guitar
390.0,0.36585365853658536,71,95,Electric Guitar
390.0,0.36585365853658536,74,100,Electric Guitar
390.0,0.4878048780487805,52,102,Electric Guitar
390.0,0.975609756097561,68,83,Electric Guitar
390.0,0.975609756097561,71,83,Electric Guitar
390.0,0.975609756097561,76,83,Electric Guitar
390.0,0.36585365853658536,56,101,Electric Guitar
390.0,0.36585365853658536,65,101,Electric Guitar
390.0,0.36585365853658536,40,101,Electric Guitar
390.0,0.3252032520325203,62,102,Electric Guitar
390.0,0.36585365853658536,59,98,Electric Guitar
390.0,0.975609756097561,62,127,Electric Guitar
390.0,0.975609756097561,59,127,Electric Guitar
390.0,0.975609756097561,65,127,Electric Guitar
390.0,0.975609756097561,43,127,Electric Guitar
390.0,0.975609756097561,56,127,Electric Guitar
390.0,0.12195121951219512,36,127,Electric Guitar
390.0,0.0,42,99,Electric Guitar
390.0,0.0,54,99,Electric Guitar
390.0,0.0,70,99,Electric Guitar
390.0,0.0,44,117,Electric Guitar
390.0,0.36585365853658536,56,127,Electric Guitar
390.0,0.4878048780487805,68,127,Electric Guitar
390.0,0.975609756097561,62,105,Electric Guitar
390.0,0.975609756097561,65,105,Electric Guitar
390.0,0.975609756097561,56,105,Electric Guitar
390.25,0.0,42,82,Electric Guitar
390.25,0.0,54,82,Electric Guitar
390.25,0.0,70,82,Electric Guitar
390.25,0.0,42,63,Electric Guitar
390.5,0.24390243902439024,74,113,Electric Guitar
390.5,0.0,46,124,Electric Guitar
390.5,0.0,54,124,Electric Guitar
390.5,0.0,70,124,Electric Guitar
390.5,0.0,36,100,Electric Guitar
390.5,0.0,42,100,Electric Guitar
390.75,0.0,54,60,Electric Guitar
390.75,0.0,70,60,Electric Guitar
390.75,0.0,42,71,Electric Guitar
391.0,0.16260162601626016,76,115,Electric Guitar
391.0,0.12195121951219512,36,127,Electric Guitar
391.0,0.12195121951219512,38,127,Electric Guitar
391.0,0.0,42,94,Electric Guitar
391.0,0.0,54,94,Electric Guitar
391.0,0.0,70,94,Electric Guitar
391.0,0.0,44,124,Electric Guitar
391.0,0.0,40,124,Electric Guitar
391.25,0.0,42,90,Electric Guitar
391.25,0.0,54,90,Electric Guitar
391.25,0.0,70,90,Electric Guitar
391.25,0.0,36,86,Electric Guitar
391.25,0.0,42,86,Electric Guitar
391.5,0.24390243902439024,72,122,Electric Guitar
391.5,0.0,46,127,Electric Guitar
391.5,0.0,54,127,Electric Guitar
391.5,0.0,70,127,Electric Guitar
391.5,0.0,42,89,Electric Guitar
391.75,0.0,54,82,Electric Guitar
391.75,0.0,70,82,Electric Guitar
391.75,0.0,36,84,Electric Guitar
391.75,0.0,42,84,Electric Guitar
392.0,1.0975609756097562,33,127,Electric Guitar
392.0,0.24390243902439024,72,104,Electric Guitar
392.0,0.24390243902439024,71,104,Electric Guitar
392.0,0.24390243902439024,67,104,Electric Guitar
392.0,0.36585365853658536,57,105,Electric Guitar
392.0,0.36585365853658536,76,102,Electric Guitar
392.0,0.24390243902439024,71,113,Electric Guitar
392.0,1.951219512195122,69,94,Electric Guitar
392.0,1.951219512195122,64,94,Electric Guitar
392.0,1.951219512195122,72,94,Electric Guitar
392.0,0.36585365853658536,64,98,Electric Guitar
392.0,0.36585365853658536,45,98,Electric Guitar
392.0,0.36585365853658536,59,103,Electric Guitar
392.0,0.36585365853658536,60,103,Electric Guitar
392.0,0.36585365853658536,55,103,Electric Guitar
392.0,1.951219512195122,45,127,Electric Guitar
392.0,1.951219512195122,55,127,Electric Guitar
392.0,1.951219512195122,60,127,Electric Guitar
392.0,1.951219512195122,64,127,Electric Guitar
392.0,0.12195121951219512,36,127,Electric Guitar
392.0,0.0,42,99,Electric Guitar
392.0,0.0,54,99,Electric Guitar
392.0,0.0,70,99,Electric Guitar
392.0,0.0,36,110,Electric Guitar
392.0,0.0,42,110,Electric Guitar
392.0,0.3252032520325203,57,127,Electric Guitar
392.0,0.36585365853658536,69,127,Electric Guitar
392.0,1.951219512195122,64,98,Electric Guitar
392.0,1.951219512195122,57,98,Electric Guitar
392.0,1.951219512195122,60,98,Electric Guitar
392.25,0.0,42,82,Electric Guitar
392.25,0.0,54,82,Electric Guitar
392.25,0.0,70,82,Electric Guitar
392.25,0.0,42,63,Electric Guitar
392.5,0.8536585365853658,72,117,Electric Guitar
392.5,0.0,46,124,Electric Guitar
392.5,0.0,54,124,Electric Guitar
392.5,0.0,70,124,Electric Guitar
392.5,0.0,42,93,Electric Guitar
392.75,0.0,54,60,Electric Guitar
392.75,0.0,70,60,Electric Guitar
392.75,0.0,36,85,Electric Guitar
392.75,0.0,42,85,Electric Guitar
393.0,0.12195121951219512,36,127,Electric Guitar
393.0,0.12195121951219512,38,127,Electric Guitar
393.0,0.0,42,94,Electric Guitar
393.0,0.0,54,94,Electric Guitar
393.0,0.0,70,94,Electric Guitar
393.0,0.0,42,106,Electric Guitar
393.0,0.0,40,106,Electric Guitar
393.25,0.0,42,90,Electric Guitar
393.25,0.0,54,90,Electric Guitar
393.25,0.0,70,90,Electric Guitar
393.25,0.0,42,53,Electric Guitar
393.5,0.24390243902439024,83,119,Electric Guitar
393.5,0.24390243902439024,55,94,Electric Guitar
393.5,0.0,46,127,Electric Guitar
393.5,0.0,54,127,Electric Guitar
393.5,0.0,70,127,Electric Guitar
393.5,0.0,36,102,Electric Guitar
393.5,0.0,42,102,Electric Guitar
393.75,0.0,54,82,Electric Guitar
393.75,0.0,70,82,Electric Guitar
393.75,0.0,36,84,Electric Guitar
393.75,0.0,42,84,Electric Guitar
394.0,0.16260162601626016,79,92,Electric Guitar
394.0,0.12195121951219512,57,96,Electric Guitar
394.0,0.12195121951219512,36,127,Electric Guitar
394.0,0.0,42,99,Electric Guitar
394.0,0.0,54,99,Electric Guitar
394.0,0.0,70,99,Electric Guitar
394.0,0.0,44,117,Electric Guitar
394.25,0.12195121951219512,38,127,Electric Guitar
394.25,0.0,42,82,Electric Guitar
394.25,0.0,54,82,Electric Guitar
394.25,0.0,70,82,Electric Guitar
394.25,0.12195121951219512,38,77,Electric Guitar
394.25,0.0,42,63,Electric Guitar
394.5,0.24390243902439024,40,127,Electric Guitar
394.5,0.24390243902439024,81,105,Electric Guitar
394.5,0.16260162601626016,60,111,Electric Guitar
394.5,0.16260162601626016,57,111,Electric Guitar
394.5,0.16260162601626016,64,111,Electric Guitar
394.5,0.0,46,124,Electric Guitar
394.5,0.0,54,124,Electric Guitar
394.5,0.0,70,124,Electric Guitar
394.5,0.0,36,100,Electric Guitar
394.5,0.0,42,100,Electric Guitar
394.75,0.0,54,60,Electric Guitar
394.75,0.0,70,60,Electric Guitar
394.75,0.0,42,71,Electric Guitar
395.0,0.24390243902439024,43,127,Electric Guitar
395.0,0.0,76,98,Electric Guitar
395.0,0.12195121951219512,36,127,Electric Guitar
395.0,0.12195121951219512,38,127,Electric Guitar
395.0,0.0,42,94,Electric Guitar
395.0,0.0,54,94,Electric Guitar
395.0,0.0,70,94,Electric Guitar
395.0,0.0,44,124,Electric Guitar
395.0,0.0,40,124,Electric Guitar
395.25,0.0,42,90,Electric Guitar
395.25,0.0,54,90,Electric Guitar
395.25,0.0,70,90,Electric Guitar
395.25,0.0,36,86,Electric Guitar
395.25,0.0,42,86,Electric Guitar
395.5,0.24390243902439024,45,127,Electric Guitar
395.5,0.0,46,127,Electric Guitar
395.5,0.0,54,127,Electric Guitar
395.5,0.0,70,127,Electric Guitar
395.5,0.0,42,89,Electric Guitar
395.75,0.12195121951219512,38,77,Electric Guitar
395.75,0.0,54,82,Electric Guitar
395.75,0.0,70,82,Electric Guitar
395.75,0.0,36,84,Electric Guitar
395.75,0.0,42,84,Electric Guitar
396.0,0.975609756097561,46,127,Electric Guitar
396.0,0.8130081300813008,74,100,Electric Guitar
396.0,0.6504065040650406,70,95,Electric Guitar
396.0,0.6504065040650406,77,95,Electric Guitar
396.0,1.5853658536585367,58,98,Electric Guitar
396.0,0.4878048780487805,69,105,Electric Guitar
396.0,1.7073170731707317,74,92,Electric Guitar
396.0,1.7073170731707317,70,92,Electric Guitar
396.0,1.7073170731707317,77,92,Electric Guitar
396.0,1.2195121951219512,46,91,Electric Guitar
396.0,0.16260162601626016,58,98,Electric Guitar
396.0,0.24390243902439024,69,96,Electric Guitar
396.0,0.24390243902439024,62,96,Electric Guitar
396.0,0.3252032520325203,65,103,Electric Guitar
396.0,1.7073170731707317,58,127,Electric Guitar
396.0,1.7073170731707317,69,127,Electric Guitar
396.0,1.7073170731707317,46,127,Electric Guitar
396.0,1.7073170731707317,62,127,Electric Guitar
396.0,1.7073170731707317,65,127,Electric Guitar
396.0,0.12195121951219512,36,127,Electric Guitar
396.0,0.12195121951219512,57,127,Electric Guitar
396.0,0.0,42,99,Electric Guitar
396.0,0.0,54,99,Electric Guitar
396.0,0.0,70,99,Electric Guitar
396.0,0.0,36,110,Electric Guitar
396.0,0.0,42,110,Electric Guitar
396.0,0.36585365853658536,69,127,Electric Guitar
396.0,0.24390243902439024,57,127,Electric Guitar
396.0,1.7073170731707317,62,97,Electric Guitar
396.0,1.7073170731707317,65,97,Electric Guitar
396.0,1.7073170731707317,58,97,Electric Guitar
396.25,0.0,42,82,Electric Guitar
396.25,0.0,54,82,Electric Guitar
396.25,0.0,70,82,Electric Guitar
396.25,0.0,42,63,Electric Guitar
396.5,0.3252032520325203,58,73,Electric Guitar
396.5,0.0,46,124,Electric Guitar
396.5,0.0,54,124,Electric Guitar
396.5,0.0,70,124,Electric Guitar
396.5,0.0,42,93,Electric Guitar
396.75,0.0,54,60,Electric Guitar
396.75,0.0,70,60,Electric Guitar
396.75,0.0,36,85,Electric Guitar
396.75,0.0,42,85,Electric Guitar
397.0,0.6097560975609756,77,122,Electric Guitar
397.0,0.16260162601626016,62,86,Electric Guitar
397.0,0.12195121951219512,36,127,Electric Guitar
397.0,0.12195121951219512,38,127,Electric Guitar
397.0,0.0,42,94,Electric Guitar
397.0,0.0,54,94,Electric Guitar
397.0,0.0,70,94,Electric Guitar
397.0,0.0,42,106,Electric Guitar
397.0,0.0,40,106,Electric Guitar
397.25,0.0,42,90,Electric Guitar
397.25,0.0,54,90,Electric Guitar
397.25,0.0,70,90,Electric Guitar
397.25,0.0,42,53,Electric Guitar
397.5,0.8130081300813008,69,102,Electric Guitar
397.5,0.12195121951219512,58,88,Electric Guitar
397.5,0.12195121951219512,69,88,Electric Guitar
397.5,0.16260162601626016,62,98,Electric Guitar
397.5,0.16260162601626016,65,98,Electric Guitar
397.5,0.0,46,127,Electric Guitar
397.5,0.0,54,127,Electric Guitar
397.5,0.0,70,127,Electric Guitar
397.5,0.0,36,102,Electric Guitar
397.5,0.0,42,102,Electric Guitar
397.75,0.0,54,82,Electric Guitar
397.75,0.0,70,82,Electric Guitar
397.75,0.0,36,84,Electric Guitar
397.75,0.0,42,84,Electric Guitar
398.0,0.3252032520325203,70,102,Electric Guitar
398.0,0.12195121951219512,36,127,Electric Guitar
398.0,0.0,42,99,Electric Guitar
398.0,0.0,54,99,Electric Guitar
398.0,0.0,70,99,Electric Guitar
398.0,0.0,44,117,Electric Guitar
398.25,0.12195121951219512,46,127,Electric Guitar
398.25,0.0,42,82,Electric Guitar
398.25,0.0,54,82,Electric Guitar
398.25,0.0,70,82,Electric Guitar
398.25,0.0,42,63,Electric Guitar
398.5,0.12195121951219512,41,127,Electric Guitar
398.5,0.24390243902439024,74,96,Electric Guitar
398.5,0.16260162601626016,77,102,Electric Guitar
398.5,0.0,46,124,Electric Guitar
398.5,0.0,54,124,Electric Guitar
398.5,0.0,70,124,Electric Guitar
398.5,0.0,36,100,Electric Guitar
398.5,0.0,42,100,Electric Guitar
398.75,0.6097560975609756,34,127,Electric Guitar
398.75,0.0,54,60,Electric Guitar
398.75,0.0,70,60,Electric Guitar
398.75,0.0,42,71,Electric Guitar
399.0,0.0,77,91,Electric Guitar
399.0,0.12195121951219512,79,110,Electric Guitar
399.0,0.12195121951219512,36,127,Electric Guitar
399.0,0.12195121951219512,38,127,Electric Guitar
399.0,0.0,42,94,Electric Guitar
399.0,0.0,54,94,Electric Guitar
399.0,0.0,70,94,Electric Guitar
399.0,0.0,44,124,Electric Guitar
399.0,0.0,40,124,Electric Guitar
399.25,0.0,42,90,Electric Guitar
399.25,0.0,54,90,Electric Guitar
399.25,0.0,70,90,Electric Guitar
399.25,0.0,36,86,Electric Guitar
399.25,0.0,42,86,Electric Guitar
399.5,0.6097560975609756,67,102,Electric Guitar
399.5,0.6097560975609756,71,102,Electric Guitar
399.5,0.6097560975609756,72,102,Electric Guitar
399.5,0.6504065040650406,76,102,Electric Guitar
399.5,1.6260162601626016,57,96,Electric Guitar
399.5,0.16260162601626016,76,120,Electric Guitar
399.5,2.1951219512195124,69,91,Electric Guitar
399.5,2.1951219512195124,72,91,Electric Guitar
399.5,2.1951219512195124,76,91,Electric Guitar
399.5,0.36585365853658536,64,92,Electric Guitar
399.5,0.36585365853658536,60,92,Electric Guitar
399.5,0.36585365853658536,57,92,Electric Guitar
399.5,0.36585365853658536,67,92,Electric Guitar
399.5,1.1382113821138211,45,103,Electric Guitar
399.5,2.1951219512195124,45,127,Electric Guitar
399.5,2.1951219512195124,64,127,Electric Guitar
399.5,2.1951219512195124,60,127,Electric Guitar
399.5,2.1951219512195124,69,127,Electric Guitar
399.5,0.0,46,127,Electric Guitar
399.5,0.0,54,127,Electric Guitar
399.5,0.0,70,127,Electric Guitar
399.5,0.0,42,89,Electric Guitar
399.5,0.4878048780487805,69,127,Electric Guitar
399.5,0.4878048780487805,57,127,Electric Guitar
399.5,2.1951219512195124,64,88,Electric Guitar
399.5,2.1951219512195124,57,88,Electric Guitar
399.5,2.1951219512195124,60,88,Electric Guitar
399.75,0.0,54,82,Electric Guitar
399.75,0.0,70,82,Electric Guitar
399.75,0.0,36,84,Electric Guitar
399.75,0.0,42,84,Electric Guitar
400.0,0.7317073170731707,33,127,Electric Guitar
400.0,0.24390243902439024,75,112,Electric Guitar
400.0,0.12195121951219512,36,127,Electric Guitar
400.0,0.0,42,99,Electric Guitar
400.0,0.0,54,99,Electric Guitar
400.0,0.0,70,99,Electric Guitar
400.0,0.0,36,110,Electric Guitar
400.0,0.0,42,110,Electric Guitar
400.25,0.0,42,82,Electric Guitar
400.25,0.0,54,82,Electric Guitar
400.25,0.0,70,82,Electric Guitar
400.25,0.0,42,63,Electric Guitar
400.5,0.7317073170731707,76,117,Electric Guitar
400.5,0.36585365853658536,57,88,Electric Guitar
400.5,0.0,46,124,Electric Guitar
400.5,0.0,54,124,Electric Guitar
400.5,0.0,70,124,Electric Guitar
400.5,0.0,42,93,Electric Guitar
400.75,0.0,54,60,Electric Guitar
400.75,0.0,70,60,Electric Guitar
400.75,0.0,36,85,Electric Guitar
400.75,0.0,42,85,Electric Guitar
401.0,0.16260162601626016,60,96,Electric Guitar
401.0,0.12195121951219512,36,127,Electric Guitar
401.0,0.12195121951219512,38,127,Electric Guitar
401.0,0.0,42,94,Electric Guitar
401.0,0.0,54,94,Electric Guitar
401.0,0.0,70,94,Electric Guitar
401.0,0.0,42,106,Electric Guitar
401.0,0.0,40,106,Electric Guitar
401.25,0.0,42,90,Electric Guitar
401.25,0.0,54,90,Electric Guitar
401.25,0.0,70,90,Electric Guitar
401.25,0.0,42,53,Electric Guitar
401.5,0.24390243902439024,83,100,Electric Guitar
401.5,0.16260162601626016,64,102,Electric Guitar
401.5,0.12195121951219512,60,64,Electric Guitar
401.5,0.12195121951219512,57,64,Electric Guitar
401.5,0.0,46,127,Electric Guitar
401.5,0.0,54,127,Electric Guitar
401.5,0.0,70,127,Electric Guitar
401.5,0.0,36,102,Electric Guitar
401.5,0.0,42,102,Electric Guitar
401.75,0.0,54,82,Electric Guitar
401.75,0.0,70,82,Electric Guitar
401.75,0.0,36,84,Electric Guitar
401.75,0.0,42,84,Electric Guitar
402.0,0.12195121951219512,28,127,Electric Guitar
402.0,0.24390243902439024,79,100,Electric Guitar
402.0,0.12195121951219512,36,127,Electric Guitar
402.0,0.0,42,99,Electric Guitar
402.0,0.0,54,99,Electric Guitar
402.0,0.0,70,99,Electric Guitar
402.0,0.0,44,117,Electric Guitar
402.25,0.12195121951219512,32,127,Electric Guitar
402.25,0.0,42,82,Electric Guitar
402.25,0.0,54,82,Electric Guitar
402.25,0.0,70,82,Electric Guitar
402.25,0.12195121951219512,38,77,Electric Guitar
402.25,0.0,42,63,Electric Guitar
402.5,0.12195121951219512,33,127,Electric Guitar
402.5,0.0,81,110,Electric Guitar
402.5,0.12195121951219512,76,124,Electric Guitar
402.5,0.7317073170731707,64,106,Electric Guitar
402.5,0.7317073170731707,57,106,Electric Guitar
402.5,0.7317073170731707,45,106,Electric Guitar
402.5,0.7317073170731707,60,106,Electric Guitar
402.5,0.7317073170731707,67,106,Electric Guitar
402.5,0.0,46,124,Electric Guitar
402.5,0.0,54,124,Electric Guitar
402.5,0.0,70,124,Electric Guitar
402.5,0.0,36,100,Electric Guitar
402.5,0.0,42,100,Electric Guitar
402.75,0.24390243902439024,36,127,Electric Guitar
402.75,0.0,54,60,Electric Guitar
402.75,0.0,70,60,Electric Guitar
402.75,0.0,42,71,Electric Guitar
403.0,0.12195121951219512,76,124,Electric Guitar
403.0,0.12195121951219512,36,127,Electric Guitar
403.0,0.12195121951219512,38,127,Electric Guitar
403.0,0.0,42,94,Electric Guitar
403.0,0.0,54,94,Electric Guitar
403.0,0.0,70,94,Electric Guitar
403.0,0.0,44,124,Electric Guitar
403.0,0.0,40,124,Electric Guitar
403.25,0.12195121951219512,33,127,Electric Guitar
403.25,0.0,42,90,Electric Guitar
403.25,0.0,54,90,Electric Guitar
403.25,0.0,70,90,Electric Guitar
403.25,0.0,36,86,Electric Guitar
403.25,0.0,42,86,Electric Guitar
403.5,0.24390243902439024,36,127,Electric Guitar
403.5,0.12195121951219512,76,112,Electric Guitar
403.5,0.0,46,127,Electric Guitar
403.5,0.0,54,127,Electric Guitar
403.5,0.0,70,127,Electric Guitar
403.5,0.0,42,89,Electric Guitar
403.75,0.0,54,82,Electric Guitar
403.75,0.0,70,82,Electric Guitar
403.75,0.0,36,84,Electric Guitar
403.75,0.0,42,84,Electric Guitar
404.0,0.12195121951219512,35,127,Electric Guitar
404.0,0.7317073170731707,69,104,Electric Guitar
404.0,0.7317073170731707,78,104,Electric Guitar
404.0,0.6504065040650406,59,103,Electric Guitar
404.0,0.6504065040650406,74,103,Electric Guitar
404.0,0.6504065040650406,71,103,Electric Guitar
404.0,0.16260162601626016,78,117,Electric Guitar
404.0,3.902439024390244,71,97,Electric Guitar
404.0,1.951219512195122,74,88,Electric Guitar
404.0,1.951219512195122,78,88,Electric Guitar
404.0,0.0,59,105,Electric Guitar
404.0,0.0,62,105,Electric Guitar
404.0,0.0,55,105,Electric Guitar
404.0,0.0,66,105,Electric Guitar
404.0,0.0,57,105,Electric Guitar
404.0,0.12195121951219512,47,114,Electric Guitar
404.0,1.951219512195122,59,127,Electric Guitar
404.0,1.951219512195122,62,127,Electric Guitar
404.0,1.951219512195122,47,127,Electric Guitar
404.0,1.951219512195122,69,127,Electric Guitar
404.0,1.951219512195122,66,127,Electric Guitar
404.0,0.12195121951219512,36,127,Electric Guitar
404.0,0.12195121951219512,49,127,Electric Guitar
404.0,0.0,42,99,Electric Guitar
404.0,0.0,54,99,Electric Guitar
404.0,0.0,70,99,Electric Guitar
404.0,0.0,36,110,Electric Guitar
404.0,0.0,42,110,Electric Guitar
404.0,0.24390243902439024,69,127,Electric Guitar
404.0,0.24390243902439024,57,127,Electric Guitar
404.0,0.0,59,114,Electric Guitar
404.0,0.0,66,114,Electric Guitar
404.0,0.0,63,114,Electric Guitar
404.25,0.0,42,82,Electric Guitar
404.25,0.0,54,82,Electric Guitar
404.25,0.0,70,82,Electric Guitar
404.25,0.0,42,63,Electric Guitar
404.25,0.0,63,82,Electric Guitar
404.25,0.0,66,82,Electric Guitar
404.25,0.0,59,82,Electric Guitar
404.5,0.16260162601626016,78,113,Electric Guitar
404.5,0.0,46,124,Electric Guitar
404.5,0.0,54,124,Electric Guitar
404.5,0.0,70,124,Electric Guitar
404.5,0.0,42,93,Electric Guitar
404.5,0.0,63,72,Electric Guitar
404.5,0.0,66,72,Electric Guitar
404.5,0.0,59,72,Electric Guitar
404.75,0.0,54,60,Electric Guitar
404.75,0.0,70,60,Electric Guitar
404.75,0.0,36,85,Electric Guitar
404.75,0.0,42,85,Electric Guitar
404.75,0.0,63,75,Electric Guitar
404.75,0.0,66,75,Electric Guitar
404.75,0.0,59,75,Electric Guitar
405.0,0.16260162601626016,35,127,Electric Guitar
405.0,0.12195121951219512,78,113,Electric Guitar
405.0,0.3252032520325203,66,103,Electric Guitar
405.0,0.3252032520325203,59,103,Electric Guitar
405.0,0.3252032520325203,62,103,Electric Guitar
405.0,0.3252032520325203,57,103,Electric Guitar
405.0,0.3252032520325203,47,103,Electric Guitar
405.0,0.12195121951219512,36,127,Electric Guitar
405.0,0.12195121951219512,38,127,Electric Guitar
405.0,0.0,42,94,Electric Guitar
405.0,0.0,54,94,Electric Guitar
405.0,0.0,70,94,Electric Guitar
405.0,0.0,42,106,Electric Guitar
405.0,0.0,40,106,Electric Guitar
405.0,0.0,63,118,Electric Guitar
405.0,0.0,66,118,Electric Guitar
405.0,0.0,59,118,Electric Guitar
405.25,0.12195121951219512,30,127,Electric Guitar
405.25,0.0,42,90,Electric Guitar
405.25,0.0,54,90,Electric Guitar
405.25,0.0,70,90,Electric Guitar
405.25,0.0,42,53,Electric Guitar
405.25,0.0,66,82,Electric Guitar
405.25,0.0,63,82,Electric Guitar
405.25,0.0,59,82,Electric Guitar
405.5,0.12195121951219512,33,127,Electric Guitar
405.5,0.16260162601626016,78,108,Electric Guitar
405.5,0.0,46,127,Electric Guitar
405.5,0.0,54,127,Electric Guitar
405.5,0.0,70,127,Electric Guitar
405.5,0.0,36,102,Electric Guitar
405.5,0.0,42,102,Electric Guitar
405.5,0.0,66,89,Electric Guitar
405.5,0.0,63,89,Electric Guitar
405.5,0.0,59,89,Electric Guitar
405.75,0.36585365853658536,35,127,Electric Guitar
405.75,0.0,57,102,Electric Guitar
405.75,0.0,59,102,Electric Guitar
405.75,0.0,62,102,Electric Guitar
405.75,0.0,66,102,Electric Guitar
405.75,0.12195121951219512,47,110,Electric Guitar
405.75,0.0,54,82,Electric Guitar
405.75,0.0,70,82,Electric Guitar
405.75,0.0,36,84,Electric Guitar
405.75,0.0,42,84,Electric Guitar
405.75,0.0,63,64,Electric Guitar
405.75,0.0,66,64,Electric Guitar
406.0,0.16260162601626016,80,110,Electric Guitar
406.0,0.12195121951219512,36,127,Electric Guitar
406.0,0.0,42,99,Electric Guitar
406.0,0.0,54,99,Electric Guitar
406.0,0.0,70,99,Electric Guitar
406.0,0.0,44,117,Electric Guitar
406.0,0.0,66,113,Electric Guitar
406.0,0.0,63,113,Electric Guitar
406.0,0.0,59,113,Electric Guitar
406.25,0.0,42,82,Electric Guitar
406.25,0.0,54,82,Electric Guitar
406.25,0.0,70,82,Electric Guitar
406.25,0.0,42,63,Electric Guitar
406.25,0.0,66,80,Electric Guitar
406.25,0.0,63,80,Electric Guitar
406.25,0.0,59,80,Electric Guitar
406.5,0.16260162601626016,38,127,Electric Guitar
406.5,0.36585365853658536,81,110,Electric Guitar
406.5,0.36585365853658536,62,102,Electric Guitar
406.5,0.36585365853658536,66,102,Electric Guitar
406.5,0.3252032520325203,57,112,Electric Guitar
406.5,0.3252032520325203,59,112,Electric Guitar
406.5,0.24390243902439024,47,110,Electric Guitar
406.5,0.0,46,124,Electric Guitar
406.5,0.0,54,124,Electric Guitar
406.5,0.0,70,124,Electric Guitar
406.5,0.0,36,100,Electric Guitar
406.5,0.0,42,100,Electric Guitar
406.5,0.0,66,70,Electric Guitar
406.5,0.0,63,70,Electric Guitar
406.5,0.0,59,70,Electric Guitar
406.75,0.0,54,60,Electric Guitar
406.75,0.0,70,60,Electric Guitar
406.75,0.0,42,71,Electric Guitar
406.75,0.0,63,79,Electric Guitar
406.75,0.0,66,79,Electric Guitar
406.75,0.0,59,79,Electric Guitar
407.0,0.12195121951219512,42,127,Electric Guitar
407.0,0.12195121951219512,36,127,Electric Guitar
407.0,0.12195121951219512,38,127,Electric Guitar
407.0,0.0,42,94,Electric Guitar
407.0,0.0,54,94,Electric Guitar
407.0,0.0,70,94,Electric Guitar
407.0,0.0,44,124,Electric Guitar
407.0,0.0,40,124,Electric Guitar
407.0,0.0,66,114,Electric Guitar
407.0,0.0,63,114,Electric Guitar
407.0,0.0,59,114,Electric Guitar
407.25,0.12195121951219512,38,127,Electric Guitar
407.25,0.0,42,90,Electric Guitar
407.25,0.0,54,90,Electric Guitar
407.25,0.0,70,90,Electric Guitar
407.25,0.0,36,86,Electric Guitar
407.25,0.0,42,86,Electric Guitar
407.25,0.0,66,88,Electric Guitar
407.25,0.0,63,88,Electric Guitar
407.25,0.0,59,88,Electric Guitar
407.5,0.24390243902439024,39,127,Electric Guitar
407.5,0.16260162601626016,81,108,Electric Guitar
407.5,0.0,66,87,Electric Guitar
407.5,0.0,57,87,Electric Guitar
407.5,0.0,59,87,Electric Guitar
407.5,0.0,62,87,Electric Guitar
407.5,0.12195121951219512,47,103,Electric Guitar
407.5,0.0,46,127,Electric Guitar
407.5,0.0,54,127,Electric Guitar
407.5,0.0,70,127,Electric Guitar
407.5,0.0,42,89,Electric Guitar
407.5,0.0,63,87,Electric Guitar
407.5,0.0,66,87,Electric Guitar
407.5,0.0,59,87,Electric Guitar
407.75,0.0,54,82,Electric Guitar
407.75,0.0,70,82,Electric Guitar
407.75,0.0,36,84,Electric Guitar
407.75,0.0,42,84,Electric Guitar
407.75,0.0,66,85,Electric Guitar
407.75,0.0,63,85,Electric Guitar
407.75,0.0,59,85,Electric Guitar
408.0,0.12195121951219512,40,127,Electric Guitar
408.0,0.4878048780487805,68,98,Electric Guitar
408.0,0.4878048780487805,74,102,Electric Guitar
408.0,0.4878048780487805,76,102,Electric Guitar
408.0,0.36585365853658536,52,103,Electric Guitar
408.0,1.3414634146341462,80,117,Electric Guitar
408.0,1.951219512195122,80,91,Electric Guitar
408.0,1.951219512195122,76,91,Electric Guitar
408.0,0.12195121951219512,62,106,Electric Guitar
408.0,0.12195121951219512,64,106,Electric Guitar
408.0,0.12195121951219512,59,106,Electric Guitar
408.0,0.12195121951219512,40,106,Electric Guitar
408.0,0.16260162601626016,68,87,Electric Guitar
408.0,1.951219512195122,62,127,Electric Guitar
408.0,1.951219512195122,64,127,Electric Guitar
408.0,1.951219512195122,68,127,Electric Guitar
408.0,1.951219512195122,40,127,Electric Guitar
408.0,1.951219512195122,71,127,Electric Guitar
408.0,0.12195121951219512,36,127,Electric Guitar
408.0,0.0,42,99,Electric Guitar
408.0,0.0,54,99,Electric Guitar
408.0,0.0,70,99,Electric Guitar
408.0,0.0,36,110,Electric Guitar
408.0,0.0,42,110,Electric Guitar
408.0,0.24390243902439024,71,127,Electric Guitar
408.0,0.24390243902439024,59,127,Electric Guitar
408.0,0.0,56,116,Electric Guitar
408.0,0.0,59,116,Electric Guitar
408.0,0.0,64,116,Electric Guitar
408.25,0.0,42,82,Electric Guitar
408.25,0.0,54,82,Electric Guitar
408.25,0.0,70,82,Electric Guitar
408.25,0.0,42,63,Electric Guitar
408.25,0.0,56,64,Electric Guitar
408.25,0.0,59,64,Electric Guitar
408.25,0.0,64,64,Electric Guitar
408.5,0.0,46,124,Electric Guitar
408.5,0.0,54,124,Electric Guitar
408.5,0.0,70,124,Electric Guitar
408.5,0.0,42,93,Electric Guitar
408.5,0.0,56,76,Electric Guitar
408.5,0.0,59,76,Electric Guitar
408.5,0.0,64,76,Electric Guitar
408.75,0.0,54,60,Electric Guitar
408.75,0.0,70,60,Electric Guitar
408.75,0.0,36,85,Electric Guitar
408.75,0.0,42,85,Electric Guitar
408.75,0.0,59,65,Electric Guitar
408.75,0.0,56,65,Electric Guitar
408.75,0.0,64,65,Electric Guitar
409.0,0.12195121951219512,40,127,Electric Guitar
409.0,0.3252032520325203,64,105,Electric Guitar
409.0,0.3252032520325203,62,105,Electric Guitar
409.0,0.3252032520325203,40,105,Electric Guitar
409.0,0.24390243902439024,68,102,Electric Guitar
409.0,0.24390243902439024,59,102,Electric Guitar
409.0,0.12195121951219512,36,127,Electric Guitar
409.0,0.12195121951219512,38,127,Electric Guitar
409.0,0.0,42,94,Electric Guitar
409.0,0.0,54,94,Electric Guitar
409.0,0.0,70,94,Electric Guitar
409.0,0.0,42,106,Electric Guitar
409.0,0.0,40,106,Electric Guitar
409.0,0.0,56,104,Electric Guitar
409.0,0.0,59,104,Electric Guitar
409.0,0.0,64,104,Electric Guitar
409.25,0.12195121951219512,35,127,Electric Guitar
409.25,0.0,42,90,Electric Guitar
409.25,0.0,54,90,Electric Guitar
409.25,0.0,70,90,Electric Guitar
409.25,0.0,42,53,Electric Guitar
409.25,0.0,64,72,Electric Guitar
409.25,0.0,56,72,Electric Guitar
409.25,0.0,59,72,Electric Guitar
409.5,0.12195121951219512,38,127,Electric Guitar
409.5,0.0,46,127,Electric Guitar
409.5,0.0,54,127,Electric Guitar
409.5,0.0,70,127,Electric Guitar
409.5,0.0,36,102,Electric Guitar
409.5,0.0,42,102,Electric Guitar
409.5,0.0,59,71,Electric Guitar
409.5,0.0,64,71,Electric Guitar
409.5,0.0,56,71,Electric Guitar
409.75,0.36585365853658536,40,127,Electric Guitar
409.75,0.0,59,104,Electric Guitar
409.75,0.0,64,104,Electric Guitar
409.75,0.0,68,104,Electric Guitar
409.75,0.0,62,104,Electric Guitar
409.75,0.12195121951219512,40,98,Electric Guitar
409.75,0.0,54,82,Electric Guitar
409.75,0.0,70,82,Electric Guitar
409.75,0.0,36,84,Electric Guitar
409.75,0.0,42,84,Electric Guitar
409.75,0.0,64,62,Electric Guitar
409.75,0.0,59,62,Electric Guitar
409.75,0.0,56,62,Electric Guitar
410.0,0.12195121951219512,36,127,Electric Guitar
410.0,0.0,42,99,Electric Guitar
410.0,0.0,54,99,Electric Guitar
410.0,0.0,70,99,Electric Guitar
410.0,0.0,44,117,Electric Guitar
410.0,0.0,56,115,Electric Guitar
410.0,0.0,64,115,Electric Guitar
410.0,0.0,59,115,Electric Guitar
410.25,0.0,42,82,Electric Guitar
410.25,0.0,54,82,Electric Guitar
410.25,0.0,70,82,Electric Guitar
410.25,0.12195121951219512,38,77,Electric Guitar
410.25,0.0,42,63,Electric Guitar
410.25,0.0,64,86,Electric Guitar
410.25,0.0,56,86,Electric Guitar
410.25,0.0,59,86,Electric Guitar
410.5,0.24390243902439024,35,127,Electric Guitar
410.5,0.36585365853658536,64,104,Electric Guitar
410.5,0.36585365853658536,68,104,Electric Guitar
410.5,0.36585365853658536,62,104,Electric Guitar
410.5,0.3252032520325203,59,110,Electric Guitar
410.5,0.3252032520325203,40,110,Electric Guitar
410.5,0.0,46,124,Electric Guitar
410.5,0.0,54,124,Electric Guitar
410.5,0.0,70,124,Electric Guitar
410.5,0.0,36,100,Electric Guitar
410.5,0.0,42,100,Electric Guitar
410.5,0.12195121951219512,64,127,Electric Guitar
410.5,0.16260162601626016,76,127,Electric Guitar
410.5,0.0,64,67,Electric Guitar
410.5,0.0,59,67,Electric Guitar
410.5,0.0,56,67,Electric Guitar
410.75,0.0,54,60,Electric Guitar
410.75,0.0,70,60,Electric Guitar
410.75,0.0,42,71,Electric Guitar
410.75,0.0,56,74,Electric Guitar
410.75,0.0,64,74,Electric Guitar
410.75,0.0,59,74,Electric Guitar
411.0,0.24390243902439024,38,127,Electric Guitar
411.0,0.12195121951219512,36,127,Electric Guitar
411.0,0.12195121951219512,38,127,Electric Guitar
411.0,0.0,42,94,Electric Guitar
411.0,0.0,54,94,Electric Guitar
411.0,0.0,70,94,Electric Guitar
411.0,0.0,44,124,Electric Guitar
411.0,0.0,40,124,Electric Guitar
411.0,0.16260162601626016,62,127,Electric Guitar
411.0,0.16260162601626016,74,127,Electric Guitar
411.0,0.0,56,109,Electric Guitar
411.0,0.0,64,109,Electric Guitar
411.0,0.0,59,109,Electric Guitar
411.25,0.0,42,90,Electric Guitar
411.25,0.0,54,90,Electric Guitar
411.25,0.0,70,90,Electric Guitar
411.25,0.0,36,86,Electric Guitar
411.25,0.0,42,86,Electric Guitar
411.25,0.16260162601626016,75,127,Electric Guitar
411.25,0.16260162601626016,63,127,Electric Guitar
411.25,0.0,64,84,Electric Guitar
411.25,0.0,56,84,Electric Guitar
411.25,0.0,59,84,Electric Guitar
411.5,0.24390243902439024,40,127,Electric Guitar
411.5,0.0,62,86,Electric Guitar
411.5,0.0,59,86,Electric Guitar
411.5,0.0,64,86,Electric Guitar
411.5,0.0,68,86,Electric Guitar
411.5,0.0,40,86,Electric Guitar
411.5,0.0,46,127,Electric Guitar
411.5,0.0,54,127,Electric Guitar
411.5,0.0,70,127,Electric Guitar
411.5,0.0,42,89,Electric Guitar
411.5,0.0,56,77,Electric Guitar
411.5,0.0,64,77,Electric Guitar
411.5,0.0,59,77,Electric Guitar
411.75,0.12195121951219512,38,77,Electric Guitar
411.75,0.0,54,82,Electric Guitar
411.75,0.0,70,82,Electric Guitar
411.75,0.0,36,84,Electric Guitar
411.75,0.0,42,84,Electric Guitar
411.75,0.0,64,89,Electric Guitar
411.75,0.0,56,89,Electric Guitar
411.75,0.0,59,89,Electric Guitar
412.0,0.16260162601626016,28,127,Electric Guitar
412.0,0.12195121951219512,59,112,Electric Guitar
412.0,0.12195121951219512,64,112,Electric Guitar
412.0,0.12195121951219512,62,112,Electric Guitar
412.0,0.12195121951219512,40,112,Electric Guitar
412.0,0.16260162601626016,68,107,Electric Guitar
412.0,0.12195121951219512,36,127,Electric Guitar
412.0,0.12195121951219512,57,127,Electric Guitar
412.0,0.0,42,99,Electric Guitar
412.0,0.0,54,99,Electric Guitar
412.0,0.0,70,99,Electric Guitar
412.0,0.0,36,110,Electric Guitar
412.0,0.0,42,110,Electric Guitar
412.0,0.16260162601626016,64,127,Electric Guitar
412.0,0.16260162601626016,76,127,Electric Guitar
412.0,0.0,64,121,Electric Guitar
412.0,0.0,56,121,Electric Guitar
412.0,0.0,59,121,Electric Guitar
412.25,0.0,42,82,Electric Guitar
412.25,0.0,54,82,Electric Guitar
412.25,0.0,70,82,Electric Guitar
412.25,0.0,42,63,Electric Guitar
412.5,0.0,46,124,Electric Guitar
412.5,0.0,54,124,Electric Guitar
412.5,0.0,70,124,Electric Guitar
412.5,0.0,42,93,Electric Guitar
412.75,0.0,54,60,Electric Guitar
412.75,0.0,70,60,Electric Guitar
412.75,0.0,36,85,Electric Guitar
412.75,0.0,42,85,Electric Guitar
413.0,0.12195121951219512,36,127,Electric Guitar
413.0,0.12195121951219512,38,127,Electric Guitar
413.0,0.0,42,94,Electric Guitar
413.0,0.0,54,94,Electric Guitar
413.0,0.0,70,94,Electric Guitar
413.0,0.0,42,106,Electric Guitar
413.0,0.0,40,106,Electric Guitar
413.25,0.0,42,90,Electric Guitar
413.25,0.0,54,90,Electric Guitar
413.25,0.0,70,90,Electric Guitar
413.25,0.0,42,53,Electric Guitar
413.5,0.0,46,127,Electric Guitar
413.5,0.0,54,127,Electric Guitar
413.5,0.0,70,127,Electric Guitar
413.5,0.0,36,102,Electric Guitar
413.5,0.0,42,102,Electric Guitar
413.75,0.0,54,82,Electric Guitar
413.75,0.0,70,82,Electric Guitar
413.75,0.0,36,84,Electric Guitar
413.75,0.0,42,84,Electric Guitar
414.0,0.36585365853658536,76,122,Electric Guitar
414.0,0.12195121951219512,36,127,Electric Guitar
414.0,0.0,42,99,Electric Guitar
414.0,0.0,54,99,Electric Guitar
414.0,0.0,70,99,Electric Guitar
414.0,0.0,44,117,Electric Guitar
414.25,0.0,42,82,Electric Guitar
414.25,0.0,54,82,Electric Guitar
414.25,0.0,70,82,Electric Guitar
414.25,0.12195121951219512,38,77,Electric Guitar
414.25,0.0,42,63,Electric Guitar
414.5,0.0,46,124,Electric Guitar
414.5,0.0,54,124,Electric Guitar
414.5,0.0,70,124,Electric Guitar
414.5,0.0,36,100,Electric Guitar
414.5,0.0,42,100,Electric Guitar
414.75,0.0,54,60,Electric Guitar
414.75,0.0,70,60,Electric Guitar
414.75,0.0,42,71,Electric Guitar
415.0,0.36585365853658536,80,122,Electric Guitar
415.0,0.12195121951219512,36,127,Electric Guitar
415.0,0.12195121951219512,38,127,Electric Guitar
415.0,0.0,42,94,Electric Guitar
415.0,0.0,54,94,Electric Guitar
415.0,0.0,70,94,Electric Guitar
415.0,0.0,44,124,Electric Guitar
415.0,0.0,40,124,Electric Guitar
415.0,0.12195121951219512,76,127,Electric Guitar
415.0,0.12195121951219512,77,127,Electric Guitar
415.0,0.12195121951219512,64,127,Electric Guitar
415.0,0.12195121951219512,65,127,Electric Guitar
415.25,0.0,42,90,Electric Guitar
415.25,0.0,54,90,Electric Guitar
415.25,0.0,70,90,Electric Guitar
415.25,0.0,36,86,Electric Guitar
415.25,0.0,42,86,Electric Guitar
415.25,0.12195121951219512,79,127,Electric Guitar
415.25,0.12195121951219512,67,127,Electric Guitar
415.3333333333333,0.12195121951219512,81,127,Electric Guitar
415.3333333333333,0.12195121951219512,69,127,Electric Guitar
415.5,0.0,46,127,Electric Guitar
415.5,0.0,54,127,Electric Guitar
415.5,0.0,70,127,Electric Guitar
415.5,0.0,42,89,Electric Guitar
415.5,0.12195121951219512,83,127,Electric Guitar
415.5,0.12195121951219512,71,127,Electric Guitar
415.6666666666667,0.12195121951219512,84,127,Electric Guitar
415.6666666666667,0.12195121951219512,72,127,Electric Guitar
415.75,0.12195121951219512,38,77,Electric Guitar
415.75,0.0,54,82,Electric Guitar
415.75,0.0,70,82,Electric Guitar
415.75,0.0,36,84,Electric Guitar
415.75,0.0,42,84,Electric Guitar
415.75,0.12195121951219512,86,127,Electric Guitar
415.75,0.12195121951219512,74,127,Electric Guitar
416.0,0.16260162601626016,29,127,Electric Guitar
416.0,0.4878048780487805,53,110,Electric Guitar
416.0,0.4878048780487805,76,110,Electric Guitar
416.0,0.4878048780487805,72,110,Electric Guitar
416.0,0.4878048780487805,69,110,Electric Guitar
416.0,0.4878048780487805,65,110,Electric Guitar
416.0,0.16260162601626016,81,122,Electric Guitar
416.0,0.0,57,127,Electric Guitar
416.0,0.0,60,127,Electric Guitar
416.0,0.0,53,127,Electric Guitar
416.0,0.0,64,127,Electric Guitar
416.0,0.12195121951219512,41,127,Electric Guitar
416.0,0.12195121951219512,36,127,Electric Guitar
416.0,0.12195121951219512,49,127,Electric Guitar
416.0,0.0,42,99,Electric Guitar
416.0,0.0,54,99,Electric Guitar
416.0,0.0,70,99,Electric Guitar
416.0,0.0,36,110,Electric Guitar
416.0,0.0,42,110,Electric Guitar
416.0,1.5853658536585367,88,127,Electric Guitar
416.0,0.975609756097561,57,127,Electric Guitar
416.0,1.4634146341463414,76,127,Electric Guitar
416.0,0.975609756097561,45,127,Electric Guitar
416.0,0.16260162601626016,81,107,Electric Guitar
416.0,0.16260162601626016,69,107,Electric Guitar
416.0,0.0,57,115,Electric Guitar
416.0,0.0,65,115,Electric Guitar
416.0,0.0,60,115,Electric Guitar
416.25,0.0,42,82,Electric Guitar
416.25,0.0,54,82,Electric Guitar
416.25,0.0,70,82,Electric Guitar
416.25,0.0,42,63,Electric Guitar
416.25,0.0,60,88,Electric Guitar
416.25,0.0,57,88,Electric Guitar
416.25,0.0,65,88,Electric Guitar
416.5,0.24390243902439024,41,127,Electric Guitar
416.5,0.12195121951219512,81,120,Electric Guitar
416.5,0.0,46,124,Electric Guitar
416.5,0.0,54,124,Electric Guitar
416.5,0.0,70,124,Electric Guitar
416.5,0.0,42,93,Electric Guitar
416.5,0.0,60,88,Electric Guitar
416.5,0.0,57,88,Electric Guitar
416.5,0.0,65,88,Electric Guitar
416.75,0.0,54,60,Electric Guitar
416.75,0.0,70,60,Electric Guitar
416.75,0.0,36,85,Electric Guitar
416.75,0.0,42,85,Electric Guitar
416.75,0.0,60,80,Electric Guitar
416.75,0.0,57,80,Electric Guitar
416.75,0.0,65,80,Electric Guitar
417.0,0.12195121951219512,36,127,Electric Guitar
417.0,0.0,81,96,Electric Guitar
417.0,0.3252032520325203,41,127,Electric Guitar
417.0,0.3252032520325203,64,127,Electric Guitar
417.0,0.24390243902439024,60,127,Electric Guitar
417.0,0.24390243902439024,57,127,Electric Guitar
417.0,0.24390243902439024,53,127,Electric Guitar
417.0,0.12195121951219512,36,127,Electric Guitar
417.0,0.12195121951219512,38,127,Electric Guitar
417.0,0.0,42,94,Electric Guitar
417.0,0.0,54,94,Electric Guitar
417.0,0.0,70,94,Electric Guitar
417.0,0.0,42,106,Electric Guitar
417.0,0.0,40,106,Electric Guitar
417.0,0.0,65,116,Electric Guitar
417.0,0.0,57,116,Electric Guitar
417.0,0.0,60,116,Electric Guitar
417.25,0.12195121951219512,38,127,Electric Guitar
417.25,0.16260162601626016,81,106,Electric Guitar
417.25,0.0,42,90,Electric Guitar
417.25,0.0,54,90,Electric Guitar
417.25,0.0,70,90,Electric Guitar
417.25,0.0,42,53,Electric Guitar
417.25,0.0,60,89,Electric Guitar
417.25,0.0,57,89,Electric Guitar
417.25,0.0,65,89,Electric Guitar
417.5,0.12195121951219512,39,127,Electric Guitar
417.5,0.0,46,127,Electric Guitar
417.5,0.0,54,127,Electric Guitar
417.5,0.0,70,127,Electric Guitar
417.5,0.0,36,102,Electric Guitar
417.5,0.0,42,102,Electric Guitar
417.5,0.0,65,90,Electric Guitar
417.5,0.0,60,90,Electric Guitar
417.5,0.0,57,90,Electric Guitar
417.75,0.36585365853658536,40,127,Electric Guitar
417.75,0.6097560975609756,64,105,Electric Guitar
417.75,0.6097560975609756,71,105,Electric Guitar
417.75,0.8536585365853658,52,107,Electric Guitar
417.75,0.6504065040650406,68,84,Electric Guitar
417.75,0.7317073170731707,74,102,Electric Guitar
417.75,0.8536585365853658,80,108,Electric Guitar
417.75,0.0,40,127,Electric Guitar
417.75,0.0,64,127,Electric Guitar
417.75,0.0,56,127,Electric Guitar
417.75,0.0,52,127,Electric Guitar
417.75,0.0,59,127,Electric Guitar
417.75,0.0,54,82,Electric Guitar
417.75,0.0,70,82,Electric Guitar
417.75,0.0,36,84,Electric Guitar
417.75,0.0,42,84,Electric Guitar
417.75,0.0,65,87,Electric Guitar
417.75,0.0,60,87,Electric Guitar
417.75,0.0,57,87,Electric Guitar
418.0,0.12195121951219512,36,127,Electric Guitar
418.0,0.0,42,99,Electric Guitar
418.0,0.0,54,99,Electric Guitar
418.0,0.0,70,99,Electric Guitar
418.0,0.0,44,117,Electric Guitar
418.0,0.12195121951219512,62,127,Electric Guitar
418.0,0.12195121951219512,50,127,Electric Guitar
418.0,0.0,59,117,Electric Guitar
418.0,0.0,56,117,Electric Guitar
418.0,0.0,64,117,Electric Guitar
418.25,0.0,42,82,Electric Guitar
418.25,0.0,54,82,Electric Guitar
418.25,0.0,70,82,Electric Guitar
418.25,0.12195121951219512,38,77,Electric Guitar
418.25,0.0,42,63,Electric Guitar
418.25,0.12195121951219512,63,127,Electric Guitar
418.25,0.12195121951219512,51,127,Electric Guitar
418.25,0.0,64,99,Electric Guitar
418.25,0.0,56,99,Electric Guitar
418.25,0.0,59,99,Electric Guitar
418.5,0.24390243902439024,28,127,Electric Guitar
418.5,0.36585365853658536,56,127,Electric Guitar
418.5,0.36585365853658536,52,127,Electric Guitar
418.5,0.36585365853658536,64,127,Electric Guitar
418.5,0.36585365853658536,40,127,Electric Guitar
418.5,0.36585365853658536,59,127,Electric Guitar
418.5,0.0,46,124,Electric Guitar
418.5,0.0,54,124,Electric Guitar
418.5,0.0,70,124,Electric Guitar
418.5,0.0,36,100,Electric Guitar
418.5,0.0,42,100,Electric Guitar
418.5,0.12195121951219512,64,127,Electric Guitar
418.5,0.12195121951219512,52,127,Electric Guitar
418.5,0.16260162601626016,81,107,Electric Guitar
418.5,0.16260162601626016,69,107,Electric Guitar
418.5,0.0,59,78,Electric Guitar
418.5,0.0,64,78,Electric Guitar
418.5,0.0,56,78,Electric Guitar
418.75,0.0,54,60,Electric Guitar
418.75,0.0,70,60,Electric Guitar
418.75,0.0,42,71,Electric Guitar
418.75,0.24390243902439024,67,127,Electric Guitar
418.75,0.24390243902439024,55,127,Electric Guitar
418.75,0.0,56,80,Electric Guitar
418.75,0.0,59,80,Electric Guitar
418.75,0.0,64,80,Electric Guitar
419.0,0.12195121951219512,35,127,Electric Guitar
419.0,0.12195121951219512,36,127,Electric Guitar
419.0,0.12195121951219512,38,127,Electric Guitar
419.0,0.0,42,94,Electric Guitar
419.0,0.0,54,94,Electric Guitar
419.0,0.0,70,94,Electric Guitar
419.0,0.0,44,124,Electric Guitar
419.0,0.0,40,124,Electric Guitar
419.0,0.4878048780487805,92,127,Electric Guitar
419.0,0.4878048780487805,80,127,Electric Guitar
419.0,0.0,56,115,Electric Guitar
419.0,0.0,64,115,Electric Guitar
419.0,0.0,59,115,Electric Guitar
419.25,0.12195121951219512,38,127,Electric Guitar
419.25,0.0,42,90,Electric Guitar
419.25,0.0,54,90,Electric Guitar
419.25,0.0,70,90,Electric Guitar
419.25,0.0,36,86,Electric Guitar
419.25,0.0,42,86,Electric Guitar
419.25,0.12195121951219512,64,127,Electric Guitar
419.25,0.12195121951219512,52,127,Electric Guitar
419.25,0.16260162601626016,80,107,Electric Guitar
419.25,0.16260162601626016,68,107,Electric Guitar
419.25,0.0,56,90,Electric Guitar
419.25,0.0,59,90,Electric Guitar
419.25,0.0,64,90,Electric Guitar
419.5,0.24390243902439024,40,127,Electric Guitar
419.5,0.16260162601626016,76,108,Electric Guitar
419.5,0.0,52,127,Electric Guitar
419.5,0.0,56,127,Electric Guitar
419.5,0.0,64,127,Electric Guitar
419.5,0.0,40,127,Electric Guitar
419.5,0.0,59,127,Electric Guitar
419.5,0.0,46,127,Electric Guitar
419.5,0.0,54,127,Electric Guitar
419.5,0.0,70,127,Electric Guitar
419.5,0.0,42,89,Electric Guitar
419.5,0.24390243902439024,67,127,Electric Guitar
419.5,0.24390243902439024,55,127,Electric Guitar
419.5,0.0,64,87,Electric Guitar
419.5,0.0,59,87,Electric Guitar
419.5,0.0,56,87,Electric Guitar
419.75,0.12195121951219512,38,77,Electric Guitar
419.75,0.0,54,82,Electric Guitar
419.75,0.0,70,82,Electric Guitar
419.75,0.0,36,84,Electric Guitar
419.75,0.0,42,84,Electric Guitar
419.75,0.0,64,92,Electric Guitar
419.75,0.0,59,92,Electric Guitar
419.75,0.0,56,92,Electric Guitar
420.0,0.24390243902439024,33,127,Electric Guitar
420.0,0.4878048780487805,67,108,Electric Guitar
420.0,0.4878048780487805,57,108,Electric Guitar
420.0,0.4878048780487805,76,102,Electric Guitar
420.0,0.4878048780487805,72,102,Electric Guitar
420.0,0.16260162601626016,79,117,Electric Guitar
420.0,0.0,55,127,Electric Guitar
420.0,0.0,60,127,Electric Guitar
420.0,0.0,59,127,Electric Guitar
420.0,0.12195121951219512,64,127,Electric Guitar
420.0,0.12195121951219512,45,127,Electric Guitar
420.0,0.12195121951219512,36,127,Electric Guitar
420.0,0.0,42,99,Electric Guitar
420.0,0.0,54,99,Electric Guitar
420.0,0.0,70,99,Electric Guitar
420.0,0.0,36,110,Electric Guitar
420.0,0.0,42,110,Electric Guitar
420.0,0.4878048780487805,93,127,Electric Guitar
420.0,0.7317073170731707,69,127,Electric Guitar
420.0,0.4878048780487805,81,127,Electric Guitar
420.0,0.7317073170731707,57,127,Electric Guitar
420.0,0.16260162601626016,69,107,Electric Guitar
420.0,0.24390243902439024,81,107,Electric Guitar
420.0,0.0,64,116,Electric Guitar
420.0,0.0,60,116,Electric Guitar
420.0,0.0,57,116,Electric Guitar
420.25,0.0,42,82,Electric Guitar
420.25,0.0,54,82,Electric Guitar
420.25,0.0,70,82,Electric Guitar
420.25,0.0,42,63,Electric Guitar
420.25,0.0,64,94,Electric Guitar
420.25,0.0,60,94,Electric Guitar
420.25,0.0,57,94,Electric Guitar
420.5,0.24390243902439024,45,127,Electric Guitar
420.5,0.12195121951219512,79,106,Electric Guitar
420.5,0.0,46,124,Electric Guitar
420.5,0.0,54,124,Electric Guitar
420.5,0.0,70,124,Electric Guitar
420.5,0.0,42,93,Electric Guitar
420.5,0.0,64,66,Electric Guitar
420.5,0.0,60,66,Electric Guitar
420.5,0.0,57,66,Electric Guitar
420.75,0.0,54,60,Electric Guitar
420.75,0.0,70,60,Electric Guitar
420.75,0.0,36,85,Electric Guitar
420.75,0.0,42,85,Electric Guitar
420.75,0.0,64,88,Electric Guitar
420.75,0.0,60,88,Electric Guitar
420.75,0.0,57,88,Electric Guitar
421.0,0.12195121951219512,35,127,Electric Guitar
421.0,0.0,79,97,Electric Guitar
421.0,0.24390243902439024,55,127,Electric Guitar
421.0,0.24390243902439024,64,127,Electric Guitar
421.0,0.24390243902439024,60,127,Electric Guitar
421.0,0.24390243902439024,59,127,Electric Guitar
421.0,0.3252032520325203,45,127,Electric Guitar
421.0,0.12195121951219512,36,127,Electric Guitar
421.0,0.12195121951219512,38,127,Electric Guitar
421.0,0.0,42,94,Electric Guitar
421.0,0.0,54,94,Electric Guitar
421.0,0.0,70,94,Electric Guitar
421.0,0.0,42,106,Electric Guitar
421.0,0.0,40,106,Electric Guitar
421.0,0.4878048780487805,95,127,Electric Guitar
421.0,0.4878048780487805,83,127,Electric Guitar
421.0,0.0,64,114,Electric Guitar
421.0,0.0,60,114,Electric Guitar
421.0,0.0,57,114,Electric Guitar
421.25,0.12195121951219512,36,127,Electric Guitar
421.25,0.16260162601626016,79,122,Electric Guitar
421.25,0.0,42,90,Electric Guitar
421.25,0.0,54,90,Electric Guitar
421.25,0.0,70,90,Electric Guitar
421.25,0.0,42,53,Electric Guitar
421.25,0.0,64,85,Electric Guitar
421.25,0.0,60,85,Electric Guitar
421.25,0.0,57,85,Electric Guitar
421.5,0.12195121951219512,37,127,Electric Guitar
421.5,0.0,46,127,Electric Guitar
421.5,0.0,54,127,Electric Guitar
421.5,0.0,70,127,Electric Guitar
421.5,0.0,36,102,Electric Guitar
421.5,0.0,42,102,Electric Guitar
421.5,0.0,64,96,Electric Guitar
421.5,0.0,60,96,Electric Guitar
421.5,0.0,57,96,Electric Guitar
421.75,0.12195121951219512,38,127,Electric Guitar
421.75,0.6097560975609756,76,108,Electric Guitar
421.75,0.6097560975609756,50,108,Electric Guitar
421.75,0.4878048780487805,72,101,Electric Guitar
421.75,0.4878048780487805,66,101,Electric Guitar
421.75,0.4878048780487805,69,100,Electric Guitar
421.75,0.6504065040650406,78,117,Electric Guitar
421.75,0.0,60,127,Electric Guitar
421.75,0.0,64,127,Electric Guitar
421.75,0.0,54,127,Electric Guitar
421.75,0.0,57,127,Electric Guitar
421.75,0.12195121951219512,38,127,Electric Guitar
421.75,0.0,54,82,Electric Guitar
421.75,0.0,70,82,Electric Guitar
421.75,0.0,36,84,Electric Guitar
421.75,0.0,42,84,Electric Guitar
421.75,0.0,64,85,Electric Guitar
421.75,0.0,57,85,Electric Guitar
421.75,0.0,60,85,Electric Guitar
422.0,0.24390243902439024,38,127,Electric Guitar
422.0,0.12195121951219512,36,127,Electric Guitar
422.0,0.0,42,99,Electric Guitar
422.0,0.0,54,99,Electric Guitar
422.0,0.0,70,99,Electric Guitar
422.0,0.0,44,117,Electric Guitar
422.0,0.4878048780487805,96,127,Electric Guitar
422.0,0.12195121951219512,72,127,Electric Guitar
422.0,0.4878048780487805,84,127,Electric Guitar
422.0,0.12195121951219512,60,127,Electric Guitar
422.0,0.0,62,115,Electric Guitar
422.0,0.0,66,115,Electric Guitar
422.0,0.0,57,115,Electric Guitar
422.25,0.0,42,82,Electric Guitar
422.25,0.0,54,82,Electric Guitar
422.25,0.0,70,82,Electric Guitar
422.25,0.12195121951219512,38,77,Electric Guitar
422.25,0.0,42,63,Electric Guitar
422.25,0.12195121951219512,69,127,Electric Guitar
422.25,0.12195121951219512,57,127,Electric Guitar
422.25,0.0,66,78,Electric Guitar
422.25,0.0,62,78,Electric Guitar
422.25,0.0,57,78,Electric Guitar
422.5,0.24390243902439024,45,127,Electric Guitar
422.5,0.36585365853658536,38,127,Electric Guitar
422.5,0.36585365853658536,54,127,Electric Guitar
422.5,0.36585365853658536,57,127,Electric Guitar
422.5,0.36585365853658536,64,127,Electric Guitar
422.5,0.36585365853658536,60,127,Electric Guitar
422.5,0.0,46,124,Electric Guitar
422.5,0.0,54,124,Electric Guitar
422.5,0.0,70,124,Electric Guitar
422.5,0.0,36,100,Electric Guitar
422.5,0.0,42,100,Electric Guitar
422.5,0.12195121951219512,67,127,Electric Guitar
422.5,0.12195121951219512,55,127,Electric Guitar
422.5,0.12195121951219512,69,107,Electric Guitar
422.5,0.12195121951219512,81,107,Electric Guitar
422.5,0.0,66,78,Electric Guitar
422.5,0.0,57,78,Electric Guitar
422.5,0.0,62,78,Electric Guitar
422.75,0.0,54,60,Electric Guitar
422.75,0.0,70,60,Electric Guitar
422.75,0.0,42,71,Electric Guitar
422.75,0.12195121951219512,63,127,Electric Guitar
422.75,0.12195121951219512,51,127,Electric Guitar
422.75,0.0,62,84,Electric Guitar
422.75,0.0,66,84,Electric Guitar
422.75,0.0,57,84,Electric Guitar
423.0,0.12195121951219512,48,127,Electric Guitar
423.0,0.12195121951219512,36,127,Electric Guitar
423.0,0.12195121951219512,38,127,Electric Guitar
423.0,0.0,42,94,Electric Guitar
423.0,0.0,54,94,Electric Guitar
423.0,0.0,70,94,Electric Guitar
423.0,0.0,44,124,Electric Guitar
423.0,0.0,40,124,Electric Guitar
423.0,0.4878048780487805,98,127,Electric Guitar
423.0,0.12195121951219512,62,127,Electric Guitar
423.0,0.4878048780487805,86,127,Electric Guitar
423.0,0.12195121951219512,50,127,Electric Guitar
423.0,0.12195121951219512,69,107,Electric Guitar
423.0,0.12195121951219512,81,107,Electric Guitar
423.0,0.0,66,112,Electric Guitar
423.0,0.0,57,112,Electric Guitar
423.0,0.0,62,112,Electric Guitar
423.25,0.12195121951219512,50,127,Electric Guitar
423.25,0.0,42,90,Electric Guitar
423.25,0.0,54,90,Electric Guitar
423.25,0.0,70,90,Electric Guitar
423.25,0.0,36,86,Electric Guitar
423.25,0.0,42,86,Electric Guitar
423.25,0.12195121951219512,60,127,Electric Guitar
423.25,0.12195121951219512,48,127,Electric Guitar
423.25,0.24390243902439024,84,107,Electric Guitar
423.25,0.16260162601626016,72,107,Electric Guitar
423.25,0.0,66,92,Electric Guitar
423.25,0.0,62,92,Electric Guitar
423.25,0.0,57,92,Electric Guitar
423.5,0.12195121951219512,48,127,Electric Guitar
423.5,0.16260162601626016,76,124,Electric Guitar
423.5,0.0,54,127,Electric Guitar
423.5,0.0,60,127,Electric Guitar
423.5,0.0,64,127,Electric Guitar
423.5,0.0,57,127,Electric Guitar
423.5,0.12195121951219512,38,127,Electric Guitar
423.5,0.0,46,127,Electric Guitar
423.5,0.0,54,127,Electric Guitar
423.5,0.0,70,127,Electric Guitar
423.5,0.0,42,89,Electric Guitar
423.5,0.12195121951219512,57,127,Electric Guitar
423.5,0.12195121951219512,45,127,Electric Guitar
423.5,0.0,66,83,Electric Guitar
423.5,0.0,57,83,Electric Guitar
423.5,0.0,62,83,Electric Guitar
423.75,0.12195121951219512,33,127,Electric Guitar
423.75,0.12195121951219512,38,77,Electric Guitar
423.75,0.0,54,82,Electric Guitar
423.75,0.0,70,82,Electric Guitar
423.75,0.0,36,84,Electric Guitar
423.75,0.0,42,84,Electric Guitar
423.75,0.12195121951219512,55,127,Electric Guitar
423.75,0.12195121951219512,43,127,Electric Guitar
423.75,0.0,66,85,Electric Guitar
423.75,0.0,62,85,Electric Guitar
423.75,0.0,57,85,Electric Guitar
424.0,0.16260162601626016,50,127,Electric Guitar
424.0,0.4878048780487805,72,104,Electric Guitar
424.0,0.4878048780487805,76,104,Electric Guitar
424.0,0.4878048780487805,69,104,Electric Guitar
424.0,0.4878048780487805,50,114,Electric Guitar
424.0,0.4878048780487805,65,114,Electric Guitar
424.0,0.16260162601626016,38,127,Electric Guitar
424.0,0.0,57,127,Electric Guitar
424.0,0.0,60,127,Electric Guitar
424.0,0.0,53,127,Electric Guitar
424.0,0.0,64,127,Electric Guitar
424.0,0.12195121951219512,36,127,Electric Guitar
424.0,0.0,42,99,Electric Guitar
424.0,0.0,54,99,Electric Guitar
424.0,0.0,70,99,Electric Guitar
424.0,0.0,36,110,Electric Guitar
424.0,0.0,42,110,Electric Guitar
424.0,0.975609756097561,98,127,Electric Guitar
424.0,0.975609756097561,57,127,Electric Guitar
424.0,0.975609756097561,86,127,Electric Guitar
424.0,0.975609756097561,45,127,Electric Guitar
424.0,0.16260162601626016,81,107,Electric Guitar
424.0,0.16260162601626016,69,107,Electric Guitar
424.0,0.0,62,116,Electric Guitar
424.0,0.0,57,116,Electric Guitar
424.0,0.0,65,116,Electric Guitar
424.25,0.0,42,82,Electric Guitar
424.25,0.0,54,82,Electric Guitar
424.25,0.0,70,82,Electric Guitar
424.25,0.0,42,63,Electric Guitar
424.25,0.0,62,78,Electric Guitar
424.25,0.0,65,78,Electric Guitar
424.25,0.0,57,78,Electric Guitar
424.5,0.24390243902439024,45,127,Electric Guitar
424.5,0.16260162601626016,74,127,Electric Guitar
424.5,0.0,46,124,Electric Guitar
424.5,0.0,54,124,Electric Guitar
424.5,0.0,70,124,Electric Guitar
424.5,0.0,42,93,Electric Guitar
424.5,0.0,62,90,Electric Guitar
424.5,0.0,57,90,Electric Guitar
424.5,0.0,65,90,Electric Guitar
424.75,0.0,54,60,Electric Guitar
424.75,0.0,70,60,Electric Guitar
424.75,0.0,36,85,Electric Guitar
424.75,0.0,42,85,Electric Guitar
424.75,0.0,65,68,Electric Guitar
424.75,0.0,62,68,Electric Guitar
424.75,0.0,57,68,Electric Guitar
425.0,0.12195121951219512,38,127,Electric Guitar
425.0,0.24390243902439024,74,120,Electric Guitar
425.0,0.24390243902439024,60,127,Electric Guitar
425.0,0.24390243902439024,64,127,Electric Guitar
425.0,0.24390243902439024,57,127,Electric Guitar
425.0,0.24390243902439024,53,127,Electric Guitar
425.0,0.3252032520325203,38,127,Electric Guitar
425.0,0.12195121951219512,36,127,Electric Guitar
425.0,0.12195121951219512,38,127,Electric Guitar
425.0,0.0,42,94,Electric Guitar
425.0,0.0,54,94,Electric Guitar
425.0,0.0,70,94,Electric Guitar
425.0,0.0,42,106,Electric Guitar
425.0,0.0,40,106,Electric Guitar
425.0,0.0,62,117,Electric Guitar
425.0,0.0,65,117,Electric Guitar
425.0,0.0,57,117,Electric Guitar
425.25,0.12195121951219512,33,127,Electric Guitar
425.25,0.0,42,90,Electric Guitar
425.25,0.0,54,90,Electric Guitar
425.25,0.0,70,90,Electric Guitar
425.25,0.0,42,53,Electric Guitar
425.25,0.0,62,88,Electric Guitar
425.25,0.0,57,88,Electric Guitar
425.25,0.0,65,88,Electric Guitar
425.5,0.12195121951219512,26,127,Electric Guitar
425.5,0.16260162601626016,72,115,Electric Guitar
425.5,0.0,46,127,Electric Guitar
425.5,0.0,54,127,Electric Guitar
425.5,0.0,70,127,Electric Guitar
425.5,0.0,36,102,Electric Guitar
425.5,0.0,42,102,Electric Guitar
425.5,0.0,62,89,Electric Guitar
425.5,0.0,57,89,Electric Guitar
425.5,0.0,65,89,Electric Guitar
425.75,0.36585365853658536,28,127,Electric Guitar
425.75,0.0,56,127,Electric Guitar
425.75,0.0,62,127,Electric Guitar
425.75,0.0,52,127,Electric Guitar
425.75,0.0,59,127,Electric Guitar
425.75,0.12195121951219512,40,127,Electric Guitar
425.75,0.0,54,82,Electric Guitar
425.75,0.0,70,82,Electric Guitar
425.75,0.0,36,84,Electric Guitar
425.75,0.0,42,84,Electric Guitar
425.75,0.0,62,87,Electric Guitar
425.75,0.0,65,87,Electric Guitar
425.75,0.0,57,87,Electric Guitar
426.0,0.36585365853658536,64,110,Electric Guitar
426.0,0.4878048780487805,71,98,Electric Guitar
426.0,0.4878048780487805,68,98,Electric Guitar
426.0,0.4878048780487805,74,98,Electric Guitar
426.0,0.8536585365853658,52,105,Electric Guitar
426.0,0.16260162601626016,76,124,Electric Guitar
426.0,0.12195121951219512,36,127,Electric Guitar
426.0,0.0,42,99,Electric Guitar
426.0,0.0,54,99,Electric Guitar
426.0,0.0,70,99,Electric Guitar
426.0,0.0,44,117,Electric Guitar
426.0,0.975609756097561,100,127,Electric Guitar
426.0,0.975609756097561,56,127,Electric Guitar
426.0,0.975609756097561,88,127,Electric Guitar
426.0,0.975609756097561,52,127,Electric Guitar
426.0,0.24390243902439024,68,107,Electric Guitar
426.0,0.3252032520325203,80,107,Electric Guitar
426.0,0.0,64,118,Electric Guitar
426.0,0.0,56,118,Electric Guitar
426.0,0.0,59,118,Electric Guitar
426.25,0.0,42,82,Electric Guitar
426.25,0.0,54,82,Electric Guitar
426.25,0.0,70,82,Electric Guitar
426.25,0.12195121951219512,38,77,Electric Guitar
426.25,0.0,42,63,Electric Guitar
426.25,0.0,56,82,Electric Guitar
426.25,0.0,59,82,Electric Guitar
426.25,0.0,64,82,Electric Guitar
426.5,0.24390243902439024,28,127,Electric Guitar
426.5,0.16260162601626016,74,101,Electric Guitar
426.5,0.36585365853658536,62,127,Electric Guitar
426.5,0.36585365853658536,56,127,Electric Guitar
426.5,0.36585365853658536,40,127,Electric Guitar
426.5,0.36585365853658536,52,127,Electric Guitar
426.5,0.36585365853658536,59,127,Electric Guitar
426.5,0.0,46,124,Electric Guitar
426.5,0.0,54,124,Electric Guitar
426.5,0.0,70,124,Electric Guitar
426.5,0.0,36,100,Electric Guitar
426.5,0.0,42,100,Electric Guitar
426.5,0.0,56,82,Electric Guitar
426.5,0.0,59,82,Electric Guitar
426.5,0.0,64,82,Electric Guitar
426.75,0.0,54,60,Electric Guitar
426.75,0.0,70,60,Electric Guitar
426.75,0.0,42,71,Electric Guitar
426.75,0.0,59,76,Electric Guitar
426.75,0.0,56,76,Electric Guitar
426.75,0.0,64,76,Electric Guitar
427.0,0.12195121951219512,31,127,Electric Guitar
427.0,0.24390243902439024,74,117,Electric Guitar
427.0,0.12195121951219512,36,127,Electric Guitar
427.0,0.12195121951219512,38,127,Electric Guitar
427.0,0.0,42,94,Electric Guitar
427.0,0.0,54,94,Electric Guitar
427.0,0.0,70,94,Electric Guitar
427.0,0.0,44,124,Electric Guitar
427.0,0.0,40,124,Electric Guitar
427.0,0.0,56,111,Electric Guitar
427.0,0.0,59,111,Electric Guitar
427.0,0.0,64,111,Electric Guitar
427.25,0.12195121951219512,31,127,Electric Guitar
427.25,0.0,42,90,Electric Guitar
427.25,0.0,54,90,Electric Guitar
427.25,0.0,70,90,Electric Guitar
427.25,0.0,36,86,Electric Guitar
427.25,0.0,42,86,Electric Guitar
427.25,0.0,64,74,Electric Guitar
427.25,0.0,59,74,Electric Guitar
427.25,0.0,56,74,Electric Guitar
427.5,0.24390243902439024,32,127,Electric Guitar
427.5,0.24390243902439024,72,113,Electric Guitar
427.5,0.0,52,127,Electric Guitar
427.5,0.0,59,127,Electric Guitar
427.5,0.12195121951219512,56,127,Electric Guitar
427.5,0.12195121951219512,62,127,Electric Guitar
427.5,0.12195121951219512,40,127,Electric Guitar
427.5,0.0,46,127,Electric Guitar
427.5,0.0,54,127,Electric Guitar
427.5,0.0,70,127,Electric Guitar
427.5,0.0,42,89,Electric Guitar
427.5,0.0,56,86,Electric Guitar
427.5,0.0,59,86,Electric Guitar
427.5,0.0,64,86,Electric Guitar
427.75,0.12195121951219512,38,77,Electric Guitar
427.75,0.0,54,82,Electric Guitar
427.75,0.0,70,82,Electric Guitar
427.75,0.0,36,84,Electric Guitar
427.75,0.0,42,84,Electric Guitar
427.75,0.0,56,68,Electric Guitar
427.75,0.0,59,68,Electric Guitar
427.75,0.0,64,68,Electric Guitar
428.0,0.16260162601626016,33,127,Electric Guitar
428.0,0.6097560975609756,67,107,Electric Guitar
428.0,0.4878048780487805,72,104,Electric Guitar
428.0,0.4878048780487805,76,104,Electric Guitar
428.0,1.4634146341463414,57,103,Electric Guitar
428.0,0.24390243902439024,72,127,Electric Guitar
428.0,0.0,55,127,Electric Guitar
428.0,0.0,64,127,Electric Guitar
428.0,0.0,60,127,Electric Guitar
428.0,0.0,59,127,Electric Guitar
428.0,0.12195121951219512,45,127,Electric Guitar
428.0,0.12195121951219512,36,127,Electric Guitar
428.0,0.0,42,99,Electric Guitar
428.0,0.0,54,99,Electric Guitar
428.0,0.0,70,99,Electric Guitar
428.0,0.0,36,110,Electric Guitar
428.0,0.0,42,110,Electric Guitar
428.0,0.4878048780487805,95,127,Electric Guitar
428.0,0.4878048780487805,60,127,Electric Guitar
428.0,0.4878048780487805,83,127,Electric Guitar
428.0,1.951219512195122,45,127,Electric Guitar
428.0,0.24390243902439024,81,107,Electric Guitar
428.0,0.24390243902439024,69,107,Electric Guitar
428.0,0.0,60,107,Electric Guitar
428.0,0.0,57,107,Electric Guitar
428.0,0.0,64,107,Electric Guitar
428.25,0.0,42,82,Electric Guitar
428.25,0.0,54,82,Electric Guitar
428.25,0.0,70,82,Electric Guitar
428.25,0.0,42,63,Electric Guitar
428.25,0.0,64,77,Electric Guitar
428.25,0.0,60,77,Electric Guitar
428.25,0.0,57,77,Electric Guitar
428.5,0.24390243902439024,40,127,Electric Guitar
428.5,0.16260162601626016,71,120,Electric Guitar
428.5,0.0,46,124,Electric Guitar
428.5,0.0,54,124,Electric Guitar
428.5,0.0,70,124,Electric Guitar
428.5,0.0,42,93,Electric Guitar
428.5,0.0,60,75,Electric Guitar
428.5,0.0,64,75,Electric Guitar
428.5,0.0,57,75,Electric Guitar
428.75,0.0,54,60,Electric Guitar
428.75,0.0,70,60,Electric Guitar
428.75,0.0,36,85,Electric Guitar
428.75,0.0,42,85,Electric Guitar
428.75,0.0,60,74,Electric Guitar
428.75,0.0,64,74,Electric Guitar
428.75,0.0,57,74,Electric Guitar
429.0,0.12195121951219512,43,127,Electric Guitar
429.0,0.12195121951219512,72,120,Electric Guitar
429.0,0.3252032520325203,45,127,Electric Guitar
429.0,0.24390243902439024,55,127,Electric Guitar
429.0,0.24390243902439024,64,127,Electric Guitar
429.0,0.24390243902439024,59,127,Electric Guitar
429.0,0.24390243902439024,60,127,Electric Guitar
429.0,0.12195121951219512,36,127,Electric Guitar
429.0,0.12195121951219512,38,127,Electric Guitar
429.0,0.0,42,94,Electric Guitar
429.0,0.0,54,94,Electric Guitar
429.0,0.0,70,94,Electric Guitar
429.0,0.0,42,106,Electric Guitar
429.0,0.0,40,106,Electric Guitar
429.0,0.4878048780487805,96,127,Electric Guitar
429.0,0.4878048780487805,57,127,Electric Guitar
429.0,0.4878048780487805,84,127,Electric Guitar
429.0,0.0,60,112,Electric Guitar
429.0,0.0,57,112,Electric Guitar
429.0,0.0,64,112,Electric Guitar
429.25,0.12195121951219512,40,127,Electric Guitar
429.25,0.24390243902439024,74,113,Electric Guitar
429.25,0.0,42,90,Electric Guitar
429.25,0.0,54,90,Electric Guitar
429.25,0.0,70,90,Electric Guitar
429.25,0.0,42,53,Electric Guitar
429.25,0.0,60,31,Electric Guitar
429.5,0.12195121951219512,43,127,Electric Guitar
429.5,0.0,46,127,Electric Guitar
429.5,0.0,54,127,Electric Guitar
429.5,0.0,70,127,Electric Guitar
429.5,0.0,36,102,Electric Guitar
429.5,0.0,42,102,Electric Guitar
429.5,0.0,60,85,Electric Guitar
429.5,0.0,64,85,Electric Guitar
429.5,0.0,57,85,Electric Guitar
429.75,0.36585365853658536,45,127,Electric Guitar
429.75,0.6097560975609756,76,120,Electric Guitar
429.75,0.0,55,127,Electric Guitar
429.75,0.0,61,127,Electric Guitar
429.75,0.0,64,127,Electric Guitar
429.75,0.0,58,127,Electric Guitar
429.75,0.12195121951219512,45,127,Electric Guitar
429.75,0.0,54,82,Electric Guitar
429.75,0.0,70,82,Electric Guitar
429.75,0.0,36,84,Electric Guitar
429.75,0.0,42,84,Electric Guitar
429.75,0.0,60,85,Electric Guitar
429.75,0.0,64,85,Electric Guitar
429.75,0.0,57,85,Electric Guitar
430.0,0.36585365853658536,73,99,Electric Guitar
430.0,0.36585365853658536,67,99,Electric Guitar
430.0,0.36585365853658536,70,99,Electric Guitar
430.0,0.4878048780487805,76,100,Electric Guitar
430.0,0.12195121951219512,36,127,Electric Guitar
430.0,0.0,42,99,Electric Guitar
430.0,0.0,54,99,Electric Guitar
430.0,0.0,70,99,Electric Guitar
430.0,0.0,44,117,Electric Guitar
430.0,0.4878048780487805,100,127,Electric Guitar
430.0,0.4878048780487805,61,127,Electric Guitar
430.0,0.4878048780487805,88,127,Electric Guitar
430.0,0.24390243902439024,76,107,Electric Guitar
430.0,0.24390243902439024,64,107,Electric Guitar
430.0,0.0,60,81,Electric Guitar
430.0,0.0,64,81,Electric Guitar
430.0,0.0,57,81,Electric Guitar
430.25,0.0,42,82,Electric Guitar
430.25,0.0,54,82,Electric Guitar
430.25,0.0,70,82,Electric Guitar
430.25,0.12195121951219512,38,77,Electric Guitar
430.25,0.0,42,63,Electric Guitar
430.25,0.0,61,112,Electric Guitar
430.25,0.0,64,112,Electric Guitar
430.25,0.0,57,112,Electric Guitar
430.5,0.24390243902439024,40,127,Electric Guitar
430.5,0.36585365853658536,45,127,Electric Guitar
430.5,0.36585365853658536,55,127,Electric Guitar
430.5,0.36585365853658536,64,127,Electric Guitar
430.5,0.36585365853658536,58,127,Electric Guitar
430.5,0.36585365853658536,61,127,Electric Guitar
430.5,0.0,46,124,Electric Guitar
430.5,0.0,54,124,Electric Guitar
430.5,0.0,70,124,Electric Guitar
430.5,0.0,36,100,Electric Guitar
430.5,0.0,42,100,Electric Guitar
430.5,0.0,61,81,Electric Guitar
430.5,0.0,57,81,Electric Guitar
430.5,0.0,64,81,Electric Guitar
430.75,0.0,54,60,Electric Guitar
430.75,0.0,70,60,Electric Guitar
430.75,0.0,42,71,Electric Guitar
430.75,0.0,61,81,Electric Guitar
430.75,0.0,57,81,Electric Guitar
430.75,0.0,64,81,Electric Guitar
431.0,0.12195121951219512,38,127,Electric Guitar
431.0,0.12195121951219512,36,127,Electric Guitar
431.0,0.12195121951219512,38,127,Electric Guitar
431.0,0.0,42,94,Electric Guitar
431.0,0.0,54,94,Electric Guitar
431.0,0.0,70,94,Electric Guitar
431.0,0.0,44,124,Electric Guitar
431.0,0.0,40,124,Electric Guitar
431.0,0.36585365853658536,103,127,Electric Guitar
431.0,0.4878048780487805,64,127,Electric Guitar
431.0,0.36585365853658536,91,127,Electric Guitar
431.0,0.0,64,80,Electric Guitar
431.0,0.0,61,80,Electric Guitar
431.0,0.0,57,80,Electric Guitar
431.25,0.12195121951219512,38,127,Electric Guitar
431.25,0.0,42,90,Electric Guitar
431.25,0.0,54,90,Electric Guitar
431.25,0.0,70,90,Electric Guitar
431.25,0.0,36,86,Electric Guitar
431.25,0.0,42,86,Electric Guitar
431.25,0.0,64,114,Electric Guitar
431.25,0.0,61,114,Electric Guitar
431.25,0.0,57,114,Electric Guitar
431.5,0.24390243902439024,40,127,Electric Guitar
431.5,0.12195121951219512,45,127,Electric Guitar
431.5,0.0,55,127,Electric Guitar
431.5,0.0,58,127,Electric Guitar
431.5,0.0,61,127,Electric Guitar
431.5,0.0,64,127,Electric Guitar
431.5,0.0,46,127,Electric Guitar
431.5,0.0,54,127,Electric Guitar
431.5,0.0,70,127,Electric Guitar
431.5,0.0,42,89,Electric Guitar
431.5,0.0,64,93,Electric Guitar
431.5,0.0,61,93,Electric Guitar
431.5,0.0,57,93,Electric Guitar
431.75,0.12195121951219512,38,77,Electric Guitar
431.75,0.0,54,82,Electric Guitar
431.75,0.0,70,82,Electric Guitar
431.75,0.0,36,84,Electric Guitar
431.75,0.0,42,84,Electric Guitar
431.75,0.12195121951219512,102,127,Electric Guitar
431.75,0.12195121951219512,90,127,Electric Guitar
431.75,0.0,64,94,Electric Guitar
431.75,0.0,61,94,Electric Guitar
431.75,0.0,57,94,Electric Guitar
432.0,0.16260162601626016,29,127,Electric Guitar
432.0,0.4878048780487805,65,117,Electric Guitar
432.0,0.4878048780487805,69,102,Electric Guitar
432.0,0.4878048780487805,76,102,Electric Guitar
432.0,0.4878048780487805,72,102,Electric Guitar
432.0,0.4878048780487805,53,102,Electric Guitar
432.0,0.16260162601626016,81,122,Electric Guitar
432.0,0.0,57,127,Electric Guitar
432.0,0.0,60,127,Electric Guitar
432.0,0.0,53,127,Electric Guitar
432.0,0.0,64,127,Electric Guitar
432.0,0.12195121951219512,41,127,Electric Guitar
432.0,0.12195121951219512,36,127,Electric Guitar
432.0,0.12195121951219512,57,127,Electric Guitar
432.0,0.0,42,99,Electric Guitar
432.0,0.0,54,99,Electric Guitar
432.0,0.0,70,99,Electric Guitar
432.0,0.0,36,110,Electric Guitar
432.0,0.0,42,110,Electric Guitar
432.0,0.12195121951219512,101,127,Electric Guitar
432.0,1.4634146341463414,100,127,Electric Guitar
432.0,0.8536585365853658,69,127,Electric Guitar
432.0,0.12195121951219512,89,127,Electric Guitar
432.0,1.4634146341463414,88,127,Electric Guitar
432.0,0.8536585365853658,41,127,Electric Guitar
432.0,0.16260162601626016,81,107,Electric Guitar
432.0,0.16260162601626016,69,107,Electric Guitar
432.0,0.0,57,115,Electric Guitar
432.0,0.0,65,115,Electric Guitar
432.0,0.0,60,115,Electric Guitar
432.25,0.0,42,82,Electric Guitar
432.25,0.0,54,82,Electric Guitar
432.25,0.0,70,82,Electric Guitar
432.25,0.0,42,63,Electric Guitar
432.25,0.0,60,88,Electric Guitar
432.25,0.0,57,88,Electric Guitar
432.25,0.0,65,88,Electric Guitar
432.5,0.24390243902439024,41,127,Electric Guitar
432.5,0.12195121951219512,81,120,Electric Guitar
432.5,0.0,46,124,Electric Guitar
432.5,0.0,54,124,Electric Guitar
432.5,0.0,70,124,Electric Guitar
432.5,0.0,42,93,Electric Guitar
432.5,0.0,60,88,Electric Guitar
432.5,0.0,57,88,Electric Guitar
432.5,0.0,65,88,Electric Guitar
432.75,0.0,54,60,Electric Guitar
432.75,0.0,70,60,Electric Guitar
432.75,0.0,36,85,Electric Guitar
432.75,0.0,42,85,Electric Guitar
432.75,0.0,60,80,Electric Guitar
432.75,0.0,57,80,Electric Guitar
432.75,0.0,65,80,Electric Guitar
433.0,0.12195121951219512,36,127,Electric Guitar
433.0,0.0,81,96,Electric Guitar
433.0,0.3252032520325203,41,127,Electric Guitar
433.0,0.3252032520325203,64,127,Electric Guitar
433.0,0.24390243902439024,60,127,Electric Guitar
433.0,0.24390243902439024,57,127,Electric Guitar
433.0,0.24390243902439024,53,127,Electric Guitar
433.0,0.12195121951219512,36,127,Electric Guitar
433.0,0.12195121951219512,38,127,Electric Guitar
433.0,0.0,42,94,Electric Guitar
433.0,0.0,54,94,Electric Guitar
433.0,0.0,70,94,Electric Guitar
433.0,0.0,42,106,Electric Guitar
433.0,0.0,40,106,Electric Guitar
433.0,0.0,65,116,Electric Guitar
433.0,0.0,57,116,Electric Guitar
433.0,0.0,60,116,Electric Guitar
433.25,0.12195121951219512,38,127,Electric Guitar
433.25,0.16260162601626016,81,106,Electric Guitar
433.25,0.0,42,90,Electric Guitar
433.25,0.0,54,90,Electric Guitar
433.25,0.0,70,90,Electric Guitar
433.25,0.0,42,53,Electric Guitar
433.25,0.0,60,89,Electric Guitar
433.25,0.0,57,89,Electric Guitar
433.25,0.0,65,89,Electric Guitar
433.5,0.12195121951219512,39,127,Electric Guitar
433.5,0.0,46,127,Electric Guitar
433.5,0.0,54,127,Electric Guitar
433.5,0.0,70,127,Electric Guitar
433.5,0.0,36,102,Electric Guitar
433.5,0.0,42,102,Electric Guitar
433.5,0.0,65,90,Electric Guitar
433.5,0.0,60,90,Electric Guitar
433.5,0.0,57,90,Electric Guitar
433.75,0.36585365853658536,40,127,Electric Guitar
433.75,0.6097560975609756,68,97,Electric Guitar
433.75,0.6097560975609756,74,97,Electric Guitar
433.75,0.4878048780487805,71,100,Electric Guitar
433.75,0.4878048780487805,52,113,Electric Guitar
433.75,0.4878048780487805,64,113,Electric Guitar
433.75,0.8536585365853658,80,108,Electric Guitar
433.75,0.0,40,127,Electric Guitar
433.75,0.0,64,127,Electric Guitar
433.75,0.0,56,127,Electric Guitar
433.75,0.0,52,127,Electric Guitar
433.75,0.0,59,127,Electric Guitar
433.75,0.0,54,82,Electric Guitar
433.75,0.0,70,82,Electric Guitar
433.75,0.0,36,84,Electric Guitar
433.75,0.0,42,84,Electric Guitar
433.75,1.0975609756097562,68,127,Electric Guitar
433.75,1.0975609756097562,52,127,Electric Guitar
433.75,0.0,65,87,Electric Guitar
433.75,0.0,60,87,Electric Guitar
433.75,0.0,57,87,Electric Guitar
434.0,0.12195121951219512,36,127,Electric Guitar
434.0,0.0,42,99,Electric Guitar
434.0,0.0,54,99,Electric Guitar
434.0,0.0,70,99,Electric Guitar
434.0,0.0,44,117,Electric Guitar
434.0,0.0,59,117,Electric Guitar
434.0,0.0,56,117,Electric Guitar
434.0,0.0,64,117,Electric Guitar
434.25,0.0,42,82,Electric Guitar
434.25,0.0,54,82,Electric Guitar
434.25,0.0,70,82,Electric Guitar
434.25,0.12195121951219512,38,77,Electric Guitar
434.25,0.0,42,63,Electric Guitar
434.25,0.0,64,99,Electric Guitar
434.25,0.0,56,99,Electric Guitar
434.25,0.0,59,99,Electric Guitar
434.5,0.24390243902439024,28,127,Electric Guitar
434.5,0.36585365853658536,56,127,Electric Guitar
434.5,0.36585365853658536,52,127,Electric Guitar
434.5,0.36585365853658536,64,127,Electric Guitar
434.5,0.36585365853658536,40,127,Electric Guitar
434.5,0.36585365853658536,59,127,Electric Guitar
434.5,0.0,46,124,Electric Guitar
434.5,0.0,54,124,Electric Guitar
434.5,0.0,70,124,Electric Guitar
434.5,0.0,36,100,Electric Guitar
434.5,0.0,42,100,Electric Guitar
434.5,0.16260162601626016,81,107,Electric Guitar
434.5,0.16260162601626016,69,107,Electric Guitar
434.5,0.0,59,78,Electric Guitar
434.5,0.0,64,78,Electric Guitar
434.5,0.0,56,78,Electric Guitar
434.75,0.0,54,60,Electric Guitar
434.75,0.0,70,60,Electric Guitar
434.75,0.0,42,71,Electric Guitar
434.75,0.0,56,80,Electric Guitar
434.75,0.0,59,80,Electric Guitar
434.75,0.0,64,80,Electric Guitar
435.0,0.12195121951219512,35,127,Electric Guitar
435.0,0.12195121951219512,36,127,Electric Guitar
435.0,0.12195121951219512,38,127,Electric Guitar
435.0,0.0,42,94,Electric Guitar
435.0,0.0,54,94,Electric Guitar
435.0,0.0,70,94,Electric Guitar
435.0,0.0,44,124,Electric Guitar
435.0,0.0,40,124,Electric Guitar
435.0,0.4878048780487805,104,127,Electric Guitar
435.0,0.4878048780487805,92,127,Electric Guitar
435.0,0.0,56,115,Electric Guitar
435.0,0.0,64,115,Electric Guitar
435.0,0.0,59,115,Electric Guitar
435.25,0.12195121951219512,38,127,Electric Guitar
435.25,0.0,42,90,Electric Guitar
435.25,0.0,54,90,Electric Guitar
435.25,0.0,70,90,Electric Guitar
435.25,0.0,36,86,Electric Guitar
435.25,0.0,42,86,Electric Guitar
435.25,0.16260162601626016,80,107,Electric Guitar
435.25,0.16260162601626016,68,107,Electric Guitar
435.25,0.0,56,90,Electric Guitar
435.25,0.0,59,90,Electric Guitar
435.25,0.0,64,90,Electric Guitar
435.5,0.24390243902439024,40,127,Electric Guitar
435.5,0.16260162601626016,76,108,Electric Guitar
435.5,0.0,52,127,Electric Guitar
435.5,0.0,56,127,Electric Guitar
435.5,0.0,64,127,Electric Guitar
435.5,0.0,40,127,Electric Guitar
435.5,0.0,59,127,Electric Guitar
435.5,0.0,46,127,Electric Guitar
435.5,0.0,54,127,Electric Guitar
435.5,0.0,70,127,Electric Guitar
435.5,0.0,42,89,Electric Guitar
435.5,0.0,64,87,Electric Guitar
435.5,0.0,59,87,Electric Guitar
435.5,0.0,56,87,Electric Guitar
435.75,0.12195121951219512,38,77,Electric Guitar
435.75,0.0,54,82,Electric Guitar
435.75,0.0,70,82,Electric Guitar
435.75,0.0,36,84,Electric Guitar
435.75,0.0,42,84,Electric Guitar
435.75,0.0,64,92,Electric Guitar
435.75,0.0,59,92,Electric Guitar
435.75,0.0,56,92,Electric Guitar
436.0,0.24390243902439024,33,127,Electric Guitar
436.0,0.4878048780487805,72,102,Electric Guitar
436.0,0.4878048780487805,67,102,Electric Guitar
436.0,0.36585365853658536,76,104,Electric Guitar
436.0,0.36585365853658536,57,104,Electric Guitar
436.0,0.16260162601626016,79,117,Electric Guitar
436.0,0.0,55,127,Electric Guitar
436.0,0.0,60,127,Electric Guitar
436.0,0.0,59,127,Electric Guitar
436.0,0.12195121951219512,64,127,Electric Guitar
436.0,0.12195121951219512,45,127,Electric Guitar
436.0,0.12195121951219512,36,127,Electric Guitar
436.0,0.0,42,99,Electric Guitar
436.0,0.0,54,99,Electric Guitar
436.0,0.0,70,99,Electric Guitar
436.0,0.0,36,110,Electric Guitar
436.0,0.0,42,110,Electric Guitar
436.0,0.36585365853658536,105,127,Electric Guitar
436.0,0.8536585365853658,67,127,Electric Guitar
436.0,0.36585365853658536,93,127,Electric Guitar
436.0,0.8536585365853658,45,127,Electric Guitar
436.0,0.16260162601626016,69,107,Electric Guitar
436.0,0.24390243902439024,81,107,Electric Guitar
436.0,0.0,64,116,Electric Guitar
436.0,0.0,60,116,Electric Guitar
436.0,0.0,57,116,Electric Guitar
436.25,0.0,42,82,Electric Guitar
436.25,0.0,54,82,Electric Guitar
436.25,0.0,70,82,Electric Guitar
436.25,0.0,42,63,Electric Guitar
436.25,0.0,64,94,Electric Guitar
436.25,0.0,60,94,Electric Guitar
436.25,0.0,57,94,Electric Guitar
436.5,0.24390243902439024,45,127,Electric Guitar
436.5,0.12195121951219512,79,106,Electric Guitar
436.5,0.0,46,124,Electric Guitar
436.5,0.0,54,124,Electric Guitar
436.5,0.0,70,124,Electric Guitar
436.5,0.0,42,93,Electric Guitar
436.5,0.0,64,66,Electric Guitar
436.5,0.0,60,66,Electric Guitar
436.5,0.0,57,66,Electric Guitar
436.75,0.0,54,60,Electric Guitar
436.75,0.0,70,60,Electric Guitar
436.75,0.0,36,85,Electric Guitar
436.75,0.0,42,85,Electric Guitar
436.75,0.0,101,127,Electric Guitar
436.75,0.0,89,127,Electric Guitar
436.75,0.0,64,88,Electric Guitar
436.75,0.0,60,88,Electric Guitar
436.75,0.0,57,88,Electric Guitar
437.0,0.12195121951219512,35,127,Electric Guitar
437.0,0.0,79,97,Electric Guitar
437.0,0.24390243902439024,55,127,Electric Guitar
437.0,0.24390243902439024,64,127,Electric Guitar
437.0,0.24390243902439024,60,127,Electric Guitar
437.0,0.24390243902439024,59,127,Electric Guitar
437.0,0.3252032520325203,45,127,Electric Guitar
437.0,0.12195121951219512,36,127,Electric Guitar
437.0,0.12195121951219512,38,127,Electric Guitar
437.0,0.0,42,94,Electric Guitar
437.0,0.0,54,94,Electric Guitar
437.0,0.0,70,94,Electric Guitar
437.0,0.0,42,106,Electric Guitar
437.0,0.0,40,106,Electric Guitar
437.0,0.12195121951219512,100,127,Electric Guitar
437.0,0.24390243902439024,99,127,Electric Guitar
437.0,0.12195121951219512,88,127,Electric Guitar
437.0,0.24390243902439024,87,127,Electric Guitar
437.0,0.0,64,114,Electric Guitar
437.0,0.0,60,114,Electric Guitar
437.0,0.0,57,114,Electric Guitar
437.25,0.12195121951219512,36,127,Electric Guitar
437.25,0.16260162601626016,79,122,Electric Guitar
437.25,0.0,42,90,Electric Guitar
437.25,0.0,54,90,Electric Guitar
437.25,0.0,70,90,Electric Guitar
437.25,0.0,42,53,Electric Guitar
437.25,0.0,64,85,Electric Guitar
437.25,0.0,60,85,Electric Guitar
437.25,0.0,57,85,Electric Guitar
437.5,0.12195121951219512,37,127,Electric Guitar
437.5,0.0,46,127,Electric Guitar
437.5,0.0,54,127,Electric Guitar
437.5,0.0,70,127,Electric Guitar
437.5,0.0,36,102,Electric Guitar
437.5,0.0,42,102,Electric Guitar
437.5,0.6504065040650406,98,127,Electric Guitar
437.5,0.6504065040650406,86,127,Electric Guitar
437.5,0.0,64,96,Electric Guitar
437.5,0.0,60,96,Electric Guitar
437.5,0.0,57,96,Electric Guitar
437.75,0.12195121951219512,38,127,Electric Guitar
437.75,0.6097560975609756,72,101,Electric Guitar
437.75,0.6097560975609756,66,101,Electric Guitar
437.75,0.6097560975609756,50,101,Electric Guitar
437.75,0.6504065040650406,76,105,Electric Guitar
437.75,0.4878048780487805,69,96,Electric Guitar
437.75,0.6504065040650406,78,117,Electric Guitar
437.75,0.0,60,127,Electric Guitar
437.75,0.0,64,127,Electric Guitar
437.75,0.0,54,127,Electric Guitar
437.75,0.0,57,127,Electric Guitar
437.75,0.12195121951219512,38,127,Electric Guitar
437.75,0.0,54,82,Electric Guitar
437.75,0.0,70,82,Electric Guitar
437.75,0.0,36,84,Electric Guitar
437.75,0.0,42,84,Electric Guitar
437.75,1.0975609756097562,66,127,Electric Guitar
437.75,1.0975609756097562,50,127,Electric Guitar
437.75,0.0,64,85,Electric Guitar
437.75,0.0,57,85,Electric Guitar
437.75,0.0,60,85,Electric Guitar
438.0,0.24390243902439024,38,127,Electric Guitar
438.0,0.12195121951219512,36,127,Electric Guitar
438.0,0.0,42,99,Electric Guitar
438.0,0.0,54,99,Electric Guitar
438.0,0.0,70,99,Electric Guitar
438.0,0.0,44,117,Electric Guitar
438.0,0.0,62,115,Electric Guitar
438.0,0.0,66,115,Electric Guitar
438.0,0.0,57,115,Electric Guitar
438.25,0.0,42,82,Electric Guitar
438.25,0.0,54,82,Electric Guitar
438.25,0.0,70,82,Electric Guitar
438.25,0.12195121951219512,38,77,Electric Guitar
438.25,0.0,42,63,Electric Guitar
438.25,0.0,66,78,Electric Guitar
438.25,0.0,62,78,Electric Guitar
438.25,0.0,57,78,Electric Guitar
438.5,0.24390243902439024,36,127,Electric Guitar
438.5,0.36585365853658536,38,127,Electric Guitar
438.5,0.36585365853658536,54,127,Electric Guitar
438.5,0.36585365853658536,57,127,Electric Guitar
438.5,0.36585365853658536,64,127,Electric Guitar
438.5,0.36585365853658536,60,127,Electric Guitar
438.5,0.0,46,124,Electric Guitar
438.5,0.0,54,124,Electric Guitar
438.5,0.0,70,124,Electric Guitar
438.5,0.0,36,100,Electric Guitar
438.5,0.0,42,100,Electric Guitar
438.5,0.12195121951219512,69,107,Electric Guitar
438.5,0.12195121951219512,81,107,Electric Guitar
438.5,0.0,66,78,Electric Guitar
438.5,0.0,57,78,Electric Guitar
438.5,0.0,62,78,Electric Guitar
438.75,0.0,54,60,Electric Guitar
438.75,0.0,70,60,Electric Guitar
438.75,0.0,42,71,Electric Guitar
438.75,0.0,62,84,Electric Guitar
438.75,0.0,66,84,Electric Guitar
438.75,0.0,57,84,Electric Guitar
439.0,0.12195121951219512,36,127,Electric Guitar
439.0,0.12195121951219512,36,127,Electric Guitar
439.0,0.12195121951219512,38,127,Electric Guitar
439.0,0.0,42,94,Electric Guitar
439.0,0.0,54,94,Electric Guitar
439.0,0.0,70,94,Electric Guitar
439.0,0.0,44,124,Electric Guitar
439.0,0.0,40,124,Electric Guitar
439.0,0.36585365853658536,96,127,Electric Guitar
439.0,0.36585365853658536,84,127,Electric Guitar
439.0,0.12195121951219512,69,107,Electric Guitar
439.0,0.12195121951219512,81,107,Electric Guitar
439.0,0.0,66,112,Electric Guitar
439.0,0.0,57,112,Electric Guitar
439.0,0.0,62,112,Electric Guitar
439.25,0.12195121951219512,38,127,Electric Guitar
439.25,0.0,42,90,Electric Guitar
439.25,0.0,54,90,Electric Guitar
439.25,0.0,70,90,Electric Guitar
439.25,0.0,36,86,Electric Guitar
439.25,0.0,42,86,Electric Guitar
439.25,0.24390243902439024,84,107,Electric Guitar
439.25,0.16260162601626016,72,107,Electric Guitar
439.25,0.0,66,92,Electric Guitar
439.25,0.0,62,92,Electric Guitar
439.25,0.0,57,92,Electric Guitar
439.5,0.12195121951219512,36,127,Electric Guitar
439.5,0.16260162601626016,76,124,Electric Guitar
439.5,0.0,54,127,Electric Guitar
439.5,0.0,60,127,Electric Guitar
439.5,0.0,64,127,Electric Guitar
439.5,0.0,57,127,Electric Guitar
439.5,0.12195121951219512,38,127,Electric Guitar
439.5,0.0,46,127,Electric Guitar
439.5,0.0,54,127,Electric Guitar
439.5,0.0,70,127,Electric Guitar
439.5,0.0,42,89,Electric Guitar
439.5,0.0,66,83,Electric Guitar
439.5,0.0,57,83,Electric Guitar
439.5,0.0,62,83,Electric Guitar
439.75,0.12195121951219512,33,127,Electric Guitar
439.75,0.12195121951219512,38,77,Electric Guitar
439.75,0.0,54,82,Electric Guitar
439.75,0.0,70,82,Electric Guitar
439.75,0.0,36,84,Electric Guitar
439.75,0.0,42,84,Electric Guitar
439.75,0.12195121951219512,95,127,Electric Guitar
439.75,0.12195121951219512,94,127,Electric Guitar
439.75,0.12195121951219512,83,127,Electric Guitar
439.75,0.12195121951219512,82,127,Electric Guitar
439.75,0.0,66,85,Electric Guitar
439.75,0.0,62,85,Electric Guitar
439.75,0.0,57,85,Electric Guitar
440.0,0.16260162601626016,38,127,Electric Guitar
440.0,1.4634146341463414,72,101,Electric Guitar
440.0,1.4634146341463414,65,101,Electric Guitar
440.0,1.4634146341463414,50,101,Electric Guitar
440.0,1.4634146341463414,76,101,Electric Guitar
440.0,1.4634146341463414,69,102,Electric Guitar
440.0,0.16260162601626016,38,127,Electric Guitar
440.0,0.0,57,127,Electric Guitar
440.0,0.0,60,127,Electric Guitar
440.0,0.0,53,127,Electric Guitar
440.0,0.0,64,127,Electric Guitar
440.0,0.12195121951219512,36,127,Electric Guitar
440.0,0.0,42,99,Electric Guitar
440.0,0.0,54,99,Electric Guitar
440.0,0.0,70,99,Electric Guitar
440.0,0.0,36,110,Electric Guitar
440.0,0.0,42,110,Electric Guitar
440.0,1.4634146341463414,93,127,Electric Guitar
440.0,1.951219512195122,62,127,Electric Guitar
440.0,1.4634146341463414,81,127,Electric Guitar
440.0,1.951219512195122,50,127,Electric Guitar
440.0,0.16260162601626016,81,107,Electric Guitar
440.0,0.16260162601626016,69,107,Electric Guitar
440.0,0.0,57,110,Electric Guitar
440.0,0.0,65,110,Electric Guitar
440.0,0.0,62,110,Electric Guitar
440.25,0.0,42,82,Electric Guitar
440.25,0.0,54,82,Electric Guitar
440.25,0.0,70,82,Electric Guitar
440.25,0.0,42,63,Electric Guitar
440.25,0.0,65,86,Electric Guitar
440.25,0.0,62,86,Electric Guitar
440.25,0.0,57,86,Electric Guitar
440.5,0.24390243902439024,38,127,Electric Guitar
440.5,0.16260162601626016,74,127,Electric Guitar
440.5,0.0,46,124,Electric Guitar
440.5,0.0,54,124,Electric Guitar
440.5,0.0,70,124,Electric Guitar
440.5,0.0,42,93,Electric Guitar
440.5,0.0,57,83,Electric Guitar
440.5,0.0,65,83,Electric Guitar
440.5,0.0,62,83,Electric Guitar
440.75,0.0,54,60,Electric Guitar
440.75,0.0,70,60,Electric Guitar
440.75,0.0,36,85,Electric Guitar
440.75,0.0,42,85,Electric Guitar
440.75,0.0,65,84,Electric Guitar
440.75,0.0,57,84,Electric Guitar
440.75,0.0,62,84,Electric Guitar
441.0,0.12195121951219512,38,127,Electric Guitar
441.0,0.16260162601626016,74,113,Electric Guitar
441.0,0.24390243902439024,60,127,Electric Guitar
441.0,0.24390243902439024,64,127,Electric Guitar
441.0,0.24390243902439024,57,127,Electric Guitar
441.0,0.24390243902439024,53,127,Electric Guitar
441.0,0.3252032520325203,38,127,Electric Guitar
441.0,0.12195121951219512,36,127,Electric Guitar
441.0,0.12195121951219512,38,127,Electric Guitar
441.0,0.0,42,94,Electric Guitar
441.0,0.0,54,94,Electric Guitar
441.0,0.0,70,94,Electric Guitar
441.0,0.0,42,106,Electric Guitar
441.0,0.0,40,106,Electric Guitar
441.0,0.0,65,110,Electric Guitar
441.0,0.0,57,110,Electric Guitar
441.0,0.0,62,110,Electric Guitar
441.25,0.12195121951219512,33,127,Electric Guitar
441.25,0.0,42,90,Electric Guitar
441.25,0.0,54,90,Electric Guitar
441.25,0.0,70,90,Electric Guitar
441.25,0.0,42,53,Electric Guitar
441.25,0.0,57,83,Electric Guitar
441.25,0.0,62,83,Electric Guitar
441.25,0.0,65,83,Electric Guitar
441.5,0.12195121951219512,26,127,Electric Guitar
441.5,0.16260162601626016,72,117,Electric Guitar
441.5,0.0,46,127,Electric Guitar
441.5,0.0,54,127,Electric Guitar
441.5,0.0,70,127,Electric Guitar
441.5,0.0,36,102,Electric Guitar
441.5,0.0,42,102,Electric Guitar
441.5,0.0,65,79,Electric Guitar
441.5,0.0,57,79,Electric Guitar
441.5,0.0,62,79,Electric Guitar
441.75,0.36585365853658536,26,127,Electric Guitar
441.75,0.0,57,127,Electric Guitar
441.75,0.0,64,127,Electric Guitar
441.75,0.0,53,127,Electric Guitar
441.75,0.0,60,127,Electric Guitar
441.75,0.12195121951219512,38,127,Electric Guitar
441.75,0.0,54,82,Electric Guitar
441.75,0.0,70,82,Electric Guitar
441.75,0.0,36,84,Electric Guitar
441.75,0.0,42,84,Electric Guitar
441.75,0.0,57,87,Electric Guitar
441.75,0.0,65,87,Electric Guitar
441.75,0.0,62,87,Electric Guitar
442.0,0.36585365853658536,72,120,Electric Guitar
442.0,0.12195121951219512,36,127,Electric Guitar
442.0,0.0,42,99,Electric Guitar
442.0,0.0,54,99,Electric Guitar
442.0,0.0,70,99,Electric Guitar
442.0,0.0,44,117,Electric Guitar
442.0,0.0,57,116,Electric Guitar
442.0,0.0,65,116,Electric Guitar
442.0,0.0,62,116,Electric Guitar
442.25,0.0,42,82,Electric Guitar
442.25,0.0,54,82,Electric Guitar
442.25,0.0,70,82,Electric Guitar
442.25,0.12195121951219512,38,77,Electric Guitar
442.25,0.0,42,63,Electric Guitar
442.25,0.0,62,65,Electric Guitar
442.25,0.0,57,65,Electric Guitar
442.25,0.0,65,65,Electric Guitar
442.5,0.24390243902439024,33,127,Electric Guitar
442.5,0.36585365853658536,64,127,Electric Guitar
442.5,0.36585365853658536,57,127,Electric Guitar
442.5,0.36585365853658536,38,127,Electric Guitar
442.5,0.36585365853658536,53,127,Electric Guitar
442.5,0.36585365853658536,60,127,Electric Guitar
442.5,0.0,46,124,Electric Guitar
442.5,0.0,54,124,Electric Guitar
442.5,0.0,70,124,Electric Guitar
442.5,0.0,36,100,Electric Guitar
442.5,0.0,42,100,Electric Guitar
442.5,0.0,62,94,Electric Guitar
442.5,0.0,57,94,Electric Guitar
442.5,0.0,65,94,Electric Guitar
442.75,0.0,54,60,Electric Guitar
442.75,0.0,70,60,Electric Guitar
442.75,0.0,42,71,Electric Guitar
442.75,0.0,62,78,Electric Guitar
442.75,0.0,65,78,Electric Guitar
442.75,0.0,57,78,Electric Guitar
443.0,0.12195121951219512,38,127,Electric Guitar
443.0,0.24390243902439024,76,122,Electric Guitar
443.0,0.12195121951219512,36,127,Electric Guitar
443.0,0.12195121951219512,38,127,Electric Guitar
443.0,0.0,42,94,Electric Guitar
443.0,0.0,54,94,Electric Guitar
443.0,0.0,70,94,Electric Guitar
443.0,0.0,44,124,Electric Guitar
443.0,0.0,40,124,Electric Guitar
443.0,0.24390243902439024,87,127,Electric Guitar
443.0,0.24390243902439024,75,127,Electric Guitar
443.0,0.0,57,107,Electric Guitar
443.0,0.0,62,107,Electric Guitar
443.0,0.0,65,107,Electric Guitar
443.25,0.12195121951219512,33,127,Electric Guitar
443.25,0.0,42,90,Electric Guitar
443.25,0.0,54,90,Electric Guitar
443.25,0.0,70,90,Electric Guitar
443.25,0.0,36,86,Electric Guitar
443.25,0.0,42,86,Electric Guitar
443.25,0.0,65,89,Electric Guitar
443.25,0.0,62,89,Electric Guitar
443.25,0.0,57,89,Electric Guitar
443.5,0.24390243902439024,26,127,Electric Guitar
443.5,0.36585365853658536,74,122,Electric Guitar
443.5,0.0,53,127,Electric Guitar
443.5,0.0,60,127,Electric Guitar
443.5,0.12195121951219512,57,127,Electric Guitar
443.5,0.12195121951219512,64,127,Electric Guitar
443.5,0.12195121951219512,38,127,Electric Guitar
443.5,0.0,46,127,Electric Guitar
443.5,0.0,54,127,Electric Guitar
443.5,0.0,70,127,Electric Guitar
443.5,0.0,42,89,Electric Guitar
443.5,1.7073170731707317,86,127,Electric Guitar
443.5,1.7073170731707317,74,127,Electric Guitar
443.5,0.0,57,84,Electric Guitar
443.5,0.0,65,84,Electric Guitar
443.5,0.0,62,84,Electric Guitar
443.75,0.12195121951219512,38,77,Electric Guitar
443.75,0.0,54,82,Electric Guitar
443.75,0.0,70,82,Electric Guitar
443.75,0.0,36,84,Electric Guitar
443.75,0.0,42,84,Electric Guitar
443.75,0.0,65,84,Electric Guitar
443.75,0.0,62,84,Electric Guitar
443.75,0.0,57,84,Electric Guitar
444.0,0.24390243902439024,28,127,Electric Guitar
444.0,0.7317073170731707,64,105,Electric Guitar
444.0,0.7317073170731707,71,105,Electric Guitar
444.0,0.8130081300813008,74,102,Electric Guitar
444.0,0.8130081300813008,68,102,Electric Guitar
444.0,0.8130081300813008,52,102,Electric Guitar
444.0,0.0,56,127,Electric Guitar
444.0,0.0,52,127,Electric Guitar
444.0,0.0,64,127,Electric Guitar
444.0,0.0,59,127,Electric Guitar
444.0,0.12195121951219512,40,127,Electric Guitar
444.0,0.12195121951219512,36,127,Electric Guitar
444.0,0.0,42,99,Electric Guitar
444.0,0.0,54,99,Electric Guitar
444.0,0.0,70,99,Electric Guitar
444.0,0.0,36,110,Electric Guitar
444.0,0.0,42,110,Electric Guitar
444.0,1.951219512195122,62,127,Electric Guitar
444.0,1.951219512195122,52,127,Electric Guitar
444.0,0.24390243902439024,76,107,Electric Guitar
444.0,0.24390243902439024,64,107,Electric Guitar
444.0,0.0,64,113,Electric Guitar
444.0,0.0,56,113,Electric Guitar
444.0,0.0,59,113,Electric Guitar
444.25,0.0,42,82,Electric Guitar
444.25,0.0,54,82,Electric Guitar
444.25,0.0,70,82,Electric Guitar
444.25,0.0,42,63,Electric Guitar
444.25,0.0,64,79,Electric Guitar
444.25,0.0,59,79,Electric Guitar
444.25,0.0,56,79,Electric Guitar
444.5,0.24390243902439024,28,127,Electric Guitar
444.5,0.24390243902439024,76,120,Electric Guitar
444.5,0.0,46,124,Electric Guitar
444.5,0.0,54,124,Electric Guitar
444.5,0.0,70,124,Electric Guitar
444.5,0.0,42,93,Electric Guitar
444.5,0.0,64,79,Electric Guitar
444.5,0.0,59,79,Electric Guitar
444.5,0.0,56,79,Electric Guitar
444.75,0.0,54,60,Electric Guitar
444.75,0.0,70,60,Electric Guitar
444.75,0.0,36,85,Electric Guitar
444.75,0.0,42,85,Electric Guitar
444.75,0.0,64,75,Electric Guitar
444.75,0.0,59,75,Electric Guitar
444.75,0.0,56,75,Electric Guitar
445.0,0.12195121951219512,40,127,Electric Guitar
445.0,0.3252032520325203,40,127,Electric Guitar
445.0,0.24390243902439024,56,127,Electric Guitar
445.0,0.24390243902439024,52,127,Electric Guitar
445.0,0.24390243902439024,59,127,Electric Guitar
445.0,0.24390243902439024,64,127,Electric Guitar
445.0,0.12195121951219512,36,127,Electric Guitar
445.0,0.12195121951219512,38,127,Electric Guitar
445.0,0.0,42,94,Electric Guitar
445.0,0.0,54,94,Electric Guitar
445.0,0.0,70,94,Electric Guitar
445.0,0.0,42,106,Electric Guitar
445.0,0.0,40,106,Electric Guitar
445.0,0.0,56,107,Electric Guitar
445.0,0.0,64,107,Electric Guitar
445.0,0.0,59,107,Electric Guitar
445.25,0.12195121951219512,28,127,Electric Guitar
445.25,0.0,42,90,Electric Guitar
445.25,0.0,54,90,Electric Guitar
445.25,0.0,70,90,Electric Guitar
445.25,0.0,42,53,Electric Guitar
445.25,0.0,64,72,Electric Guitar
445.25,0.0,56,72,Electric Guitar
445.25,0.0,59,72,Electric Guitar
445.5,0.12195121951219512,28,127,Electric Guitar
445.5,0.24390243902439024,76,110,Electric Guitar
445.5,0.0,46,127,Electric Guitar
445.5,0.0,54,127,Electric Guitar
445.5,0.0,70,127,Electric Guitar
445.5,0.0,36,102,Electric Guitar
445.5,0.0,42,102,Electric Guitar
445.5,0.0,64,67,Electric Guitar
445.5,0.0,59,67,Electric Guitar
445.5,0.0,56,67,Electric Guitar
445.75,0.36585365853658536,28,127,Electric Guitar
445.75,0.0,56,127,Electric Guitar
445.75,0.0,64,127,Electric Guitar
445.75,0.0,52,127,Electric Guitar
445.75,0.0,59,127,Electric Guitar
445.75,0.12195121951219512,40,127,Electric Guitar
445.75,0.0,54,82,Electric Guitar
445.75,0.0,70,82,Electric Guitar
445.75,0.0,36,84,Electric Guitar
445.75,0.0,42,84,Electric Guitar
445.75,0.0,64,68,Electric Guitar
445.75,0.0,56,68,Electric Guitar
445.75,0.0,59,68,Electric Guitar
446.0,0.24390243902439024,79,117,Electric Guitar
446.0,0.12195121951219512,36,127,Electric Guitar
446.0,0.0,42,99,Electric Guitar
446.0,0.0,54,99,Electric Guitar
446.0,0.0,70,99,Electric Guitar
446.0,0.0,44,117,Electric Guitar
446.0,0.0,56,113,Electric Guitar
446.0,0.0,64,113,Electric Guitar
446.0,0.0,59,113,Electric Guitar
446.25,0.0,42,82,Electric Guitar
446.25,0.0,54,82,Electric Guitar
446.25,0.0,70,82,Electric Guitar
446.25,0.12195121951219512,38,77,Electric Guitar
446.25,0.0,42,63,Electric Guitar
446.25,0.0,59,70,Electric Guitar
446.25,0.0,64,70,Electric Guitar
446.25,0.0,56,70,Electric Guitar
446.5,0.12195121951219512,28,127,Electric Guitar
446.5,0.16260162601626016,76,108,Electric Guitar
446.5,0.36585365853658536,40,127,Electric Guitar
446.5,0.36585365853658536,56,127,Electric Guitar
446.5,0.36585365853658536,52,127,Electric Guitar
446.5,0.36585365853658536,59,127,Electric Guitar
446.5,0.36585365853658536,64,127,Electric Guitar
446.5,0.0,46,124,Electric Guitar
446.5,0.0,54,124,Electric Guitar
446.5,0.0,70,124,Electric Guitar
446.5,0.0,36,100,Electric Guitar
446.5,0.0,42,100,Electric Guitar
446.5,0.0,64,81,Electric Guitar
446.5,0.0,56,81,Electric Guitar
446.5,0.0,59,81,Electric Guitar
446.75,0.12195121951219512,28,127,Electric Guitar
446.75,0.0,54,60,Electric Guitar
446.75,0.0,70,60,Electric Guitar
446.75,0.0,42,71,Electric Guitar
446.75,0.0,59,71,Electric Guitar
446.75,0.0,64,71,Electric Guitar
446.75,0.0,56,71,Electric Guitar
447.0,0.12195121951219512,40,127,Electric Guitar
447.0,0.16260162601626016,83,122,Electric Guitar
447.0,0.12195121951219512,36,127,Electric Guitar
447.0,0.12195121951219512,38,127,Electric Guitar
447.0,0.0,42,94,Electric Guitar
447.0,0.0,54,94,Electric Guitar
447.0,0.0,70,94,Electric Guitar
447.0,0.0,44,124,Electric Guitar
447.0,0.0,40,124,Electric Guitar
447.0,0.12195121951219512,76,127,Electric Guitar
447.0,0.12195121951219512,77,127,Electric Guitar
447.0,0.12195121951219512,64,127,Electric Guitar
447.0,0.12195121951219512,65,127,Electric Guitar
447.0,0.0,56,110,Electric Guitar
447.0,0.0,64,110,Electric Guitar
447.0,0.0,59,110,Electric Guitar
447.25,0.12195121951219512,38,127,Electric Guitar
447.25,0.0,42,90,Electric Guitar
447.25,0.0,54,90,Electric Guitar
447.25,0.0,70,90,Electric Guitar
447.25,0.0,36,86,Electric Guitar
447.25,0.0,42,86,Electric Guitar
447.25,0.12195121951219512,79,127,Electric Guitar
447.25,0.12195121951219512,67,127,Electric Guitar
447.25,0.0,56,68,Electric Guitar
447.25,0.0,59,68,Electric Guitar
447.25,0.0,64,68,Electric Guitar
447.3333333333333,0.12195121951219512,81,127,Electric Guitar
447.3333333333333,0.12195121951219512,69,127,Electric Guitar
447.5,0.24390243902439024,40,127,Electric Guitar
447.5,0.4878048780487805,83,117,Electric Guitar
447.5,0.12195121951219512,40,127,Electric Guitar
447.5,0.0,56,127,Electric Guitar
447.5,0.0,59,127,Electric Guitar
447.5,0.0,64,127,Electric Guitar
447.5,0.0,52,127,Electric Guitar
447.5,0.0,46,127,Electric Guitar
447.5,0.0,54,127,Electric Guitar
447.5,0.0,70,127,Electric Guitar
447.5,0.0,42,89,Electric Guitar
447.5,0.12195121951219512,83,127,Electric Guitar
447.5,0.12195121951219512,71,127,Electric Guitar
447.5,0.0,64,77,Electric Guitar
447.5,0.0,56,77,Electric Guitar
447.5,0.0,59,77,Electric Guitar
447.6666666666667,0.12195121951219512,84,127,Electric Guitar
447.6666666666667,0.12195121951219512,72,127,Electric Guitar
447.75,0.12195121951219512,38,77,Electric Guitar
447.75,0.0,54,82,Electric Guitar
447.75,0.0,70,82,Electric Guitar
447.75,0.0,36,84,Electric Guitar
447.75,0.0,42,84,Electric Guitar
447.75,0.12195121951219512,86,127,Electric Guitar
447.75,0.12195121951219512,74,127,Electric Guitar
447.75,0.0,64,72,Electric Guitar
447.75,0.0,56,72,Electric Guitar
447.75,0.0,59,72,Electric Guitar
448.0,0.16260162601626016,29,127,Electric Guitar
448.0,0.4878048780487805,53,110,Electric Guitar
448.0,0.4878048780487805,76,110,Electric Guitar
448.0,0.4878048780487805,72,110,Electric Guitar
448.0,0.4878048780487805,69,110,Electric Guitar
448.0,0.4878048780487805,65,110,Electric Guitar
448.0,0.0,57,127,Electric Guitar
448.0,0.0,60,127,Electric Guitar
448.0,0.0,53,127,Electric Guitar
448.0,0.0,64,127,Electric Guitar
448.0,0.12195121951219512,41,127,Electric Guitar
448.0,0.12195121951219512,36,127,Electric Guitar
448.0,0.12195121951219512,49,127,Electric Guitar
448.0,0.0,42,99,Electric Guitar
448.0,0.0,54,99,Electric Guitar
448.0,0.0,70,99,Electric Guitar
448.0,0.0,36,110,Electric Guitar
448.0,0.0,42,110,Electric Guitar
448.0,1.5853658536585367,88,127,Electric Guitar
448.0,0.975609756097561,57,127,Electric Guitar
448.0,1.4634146341463414,76,127,Electric Guitar
448.0,0.975609756097561,45,127,Electric Guitar
448.0,0.16260162601626016,81,107,Electric Guitar
448.0,0.16260162601626016,69,107,Electric Guitar
448.0,0.0,57,115,Electric Guitar
448.0,0.0,65,115,Electric Guitar
448.0,0.0,60,115,Electric Guitar
448.25,0.0,42,82,Electric Guitar
448.25,0.0,54,82,Electric Guitar
448.25,0.0,70,82,Electric Guitar
448.25,0.0,42,63,Electric Guitar
448.25,0.0,60,88,Electric Guitar
448.25,0.0,57,88,Electric Guitar
448.25,0.0,65,88,Electric Guitar
448.5,0.24390243902439024,41,127,Electric Guitar
448.5,0.0,81,117,Electric Guitar
448.5,0.0,46,124,Electric Guitar
448.5,0.0,54,124,Electric Guitar
448.5,0.0,70,124,Electric Guitar
448.5,0.0,42,93,Electric Guitar
448.5,0.0,60,88,Electric Guitar
448.5,0.0,57,88,Electric Guitar
448.5,0.0,65,88,Electric Guitar
448.75,0.12195121951219512,83,108,Electric Guitar
448.75,0.0,54,60,Electric Guitar
448.75,0.0,70,60,Electric Guitar
448.75,0.0,36,85,Electric Guitar
448.75,0.0,42,85,Electric Guitar
448.75,0.0,60,80,Electric Guitar
448.75,0.0,57,80,Electric Guitar
448.75,0.0,65,80,Electric Guitar
449.0,1.3414634146341462,76,117,Electric Guitar
449.0,0.12195121951219512,36,127,Electric Guitar
449.0,1.4634146341463414,81,113,Electric Guitar
449.0,0.3252032520325203,41,127,Electric Guitar
449.0,0.3252032520325203,64,127,Electric Guitar
449.0,0.24390243902439024,60,127,Electric Guitar
449.0,0.24390243902439024,57,127,Electric Guitar
449.0,0.24390243902439024,53,127,Electric Guitar
449.0,0.12195121951219512,36,127,Electric Guitar
449.0,0.12195121951219512,38,127,Electric Guitar
449.0,0.0,42,94,Electric Guitar
449.0,0.0,54,94,Electric Guitar
449.0,0.0,70,94,Electric Guitar
449.0,0.0,42,106,Electric Guitar
449.0,0.0,40,106,Electric Guitar
449.0,0.0,65,116,Electric Guitar
449.0,0.0,57,116,Electric Guitar
449.0,0.0,60,116,Electric Guitar
449.25,0.12195121951219512,38,127,Electric Guitar
449.25,0.0,42,90,Electric Guitar
449.25,0.0,54,90,Electric Guitar
449.25,0.0,70,90,Electric Guitar
449.25,0.0,42,53,Electric Guitar
449.25,0.0,60,89,Electric Guitar
449.25,0.0,57,89,Electric Guitar
449.25,0.0,65,89,Electric Guitar
449.5,0.12195121951219512,39,127,Electric Guitar
449.5,0.0,46,127,Electric Guitar
449.5,0.0,54,127,Electric Guitar
449.5,0.0,70,127,Electric Guitar
449.5,0.0,36,102,Electric Guitar
449.5,0.0,42,102,Electric Guitar
449.5,0.0,65,90,Electric Guitar
449.5,0.0,60,90,Electric Guitar
449.5,0.0,57,90,Electric Guitar
449.75,0.36585365853658536,40,127,Electric Guitar
449.75,0.6097560975609756,64,105,Electric Guitar
449.75,0.6097560975609756,71,105,Electric Guitar
449.75,0.8536585365853658,52,107,Electric Guitar
449.75,0.6504065040650406,68,84,Electric Guitar
449.75,0.7317073170731707,74,102,Electric Guitar
449.75,0.0,40,127,Electric Guitar
449.75,0.0,64,127,Electric Guitar
449.75,0.0,56,127,Electric Guitar
449.75,0.0,52,127,Electric Guitar
449.75,0.0,59,127,Electric Guitar
449.75,0.0,54,82,Electric Guitar
449.75,0.0,70,82,Electric Guitar
449.75,0.0,36,84,Electric Guitar
449.75,0.0,42,84,Electric Guitar
449.75,0.0,65,87,Electric Guitar
449.75,0.0,60,87,Electric Guitar
449.75,0.0,57,87,Electric Guitar
450.0,0.12195121951219512,36,127,Electric Guitar
450.0,0.0,42,99,Electric Guitar
450.0,0.0,54,99,Electric Guitar
450.0,0.0,70,99,Electric Guitar
450.0,0.0,44,117,Electric Guitar
450.0,0.12195121951219512,62,127,Electric Guitar
450.0,0.12195121951219512,50,127,Electric Guitar
450.0,0.0,59,117,Electric Guitar
450.0,0.0,56,117,Electric Guitar
450.0,0.0,64,117,Electric Guitar
450.25,0.0,42,82,Electric Guitar
450.25,0.0,54,82,Electric Guitar
450.25,0.0,70,82,Electric Guitar
450.25,0.12195121951219512,38,77,Electric Guitar
450.25,0.0,42,63,Electric Guitar
450.25,0.12195121951219512,63,127,Electric Guitar
450.25,0.12195121951219512,51,127,Electric Guitar
450.25,0.0,64,99,Electric Guitar
450.25,0.0,56,99,Electric Guitar
450.25,0.0,59,99,Electric Guitar
450.5,0.24390243902439024,28,127,Electric Guitar
450.5,0.36585365853658536,56,127,Electric Guitar
450.5,0.36585365853658536,52,127,Electric Guitar
450.5,0.36585365853658536,64,127,Electric Guitar
450.5,0.36585365853658536,40,127,Electric Guitar
450.5,0.36585365853658536,59,127,Electric Guitar
450.5,0.0,46,124,Electric Guitar
450.5,0.0,54,124,Electric Guitar
450.5,0.0,70,124,Electric Guitar
450.5,0.0,36,100,Electric Guitar
450.5,0.0,42,100,Electric Guitar
450.5,0.12195121951219512,64,127,Electric Guitar
450.5,0.12195121951219512,52,127,Electric Guitar
450.5,0.16260162601626016,81,107,Electric Guitar
450.5,0.16260162601626016,69,107,Electric Guitar
450.5,0.0,59,78,Electric Guitar
450.5,0.0,64,78,Electric Guitar
450.5,0.0,56,78,Electric Guitar
450.75,0.0,54,60,Electric Guitar
450.75,0.0,70,60,Electric Guitar
450.75,0.0,42,71,Electric Guitar
450.75,0.24390243902439024,67,127,Electric Guitar
450.75,0.24390243902439024,55,127,Electric Guitar
450.75,0.0,56,80,Electric Guitar
450.75,0.0,59,80,Electric Guitar
450.75,0.0,64,80,Electric Guitar
451.0,0.12195121951219512,35,127,Electric Guitar
451.0,0.12195121951219512,36,127,Electric Guitar
451.0,0.12195121951219512,38,127,Electric Guitar
451.0,0.0,42,94,Electric Guitar
451.0,0.0,54,94,Electric Guitar
451.0,0.0,70,94,Electric Guitar
451.0,0.0,44,124,Electric Guitar
451.0,0.0,40,124,Electric Guitar
451.0,0.4878048780487805,92,127,Electric Guitar
451.0,0.4878048780487805,80,127,Electric Guitar
451.0,0.0,56,115,Electric Guitar
451.0,0.0,64,115,Electric Guitar
451.0,0.0,59,115,Electric Guitar
451.25,0.12195121951219512,38,127,Electric Guitar
451.25,0.0,42,90,Electric Guitar
451.25,0.0,54,90,Electric Guitar
451.25,0.0,70,90,Electric Guitar
451.25,0.0,36,86,Electric Guitar
451.25,0.0,42,86,Electric Guitar
451.25,0.12195121951219512,64,127,Electric Guitar
451.25,0.12195121951219512,52,127,Electric Guitar
451.25,0.16260162601626016,80,107,Electric Guitar
451.25,0.16260162601626016,68,107,Electric Guitar
451.25,0.0,56,90,Electric Guitar
451.25,0.0,59,90,Electric Guitar
451.25,0.0,64,90,Electric Guitar
451.5,0.24390243902439024,40,127,Electric Guitar
451.5,0.0,52,127,Electric Guitar
451.5,0.0,56,127,Electric Guitar
451.5,0.0,64,127,Electric Guitar
451.5,0.0,40,127,Electric Guitar
451.5,0.0,59,127,Electric Guitar
451.5,0.0,46,127,Electric Guitar
451.5,0.0,54,127,Electric Guitar
451.5,0.0,70,127,Electric Guitar
451.5,0.0,42,89,Electric Guitar
451.5,0.24390243902439024,67,127,Electric Guitar
451.5,0.24390243902439024,55,127,Electric Guitar
451.5,0.0,64,87,Electric Guitar
451.5,0.0,59,87,Electric Guitar
451.5,0.0,56,87,Electric Guitar
451.75,0.12195121951219512,38,77,Electric Guitar
451.75,0.0,54,82,Electric Guitar
451.75,0.0,70,82,Electric Guitar
451.75,0.0,36,84,Electric Guitar
451.75,0.0,42,84,Electric Guitar
451.75,0.0,64,92,Electric Guitar
451.75,0.0,59,92,Electric Guitar
451.75,0.0,56,92,Electric Guitar
452.0,0.12195121951219512,74,114,Electric Guitar
452.0,0.24390243902439024,33,127,Electric Guitar
452.0,0.4878048780487805,67,108,Electric Guitar
452.0,0.4878048780487805,57,108,Electric Guitar
452.0,0.4878048780487805,76,102,Electric Guitar
452.0,0.4878048780487805,72,102,Electric Guitar
452.0,0.0,55,127,Electric Guitar
452.0,0.0,60,127,Electric Guitar
452.0,0.0,59,127,Electric Guitar
452.0,0.12195121951219512,64,127,Electric Guitar
452.0,0.12195121951219512,45,127,Electric Guitar
452.0,0.12195121951219512,36,127,Electric Guitar
452.0,0.0,42,99,Electric Guitar
452.0,0.0,54,99,Electric Guitar
452.0,0.0,70,99,Electric Guitar
452.0,0.0,36,110,Electric Guitar
452.0,0.0,42,110,Electric Guitar
452.0,0.4878048780487805,93,127,Electric Guitar
452.0,0.7317073170731707,69,127,Electric Guitar
452.0,0.4878048780487805,81,127,Electric Guitar
452.0,0.7317073170731707,57,127,Electric Guitar
452.0,0.16260162601626016,69,107,Electric Guitar
452.0,0.24390243902439024,81,107,Electric Guitar
452.0,0.0,64,116,Electric Guitar
452.0,0.0,60,116,Electric Guitar
452.0,0.0,57,116,Electric Guitar
452.25,0.0,42,82,Electric Guitar
452.25,0.0,54,82,Electric Guitar
452.25,0.0,70,82,Electric Guitar
452.25,0.0,42,63,Electric Guitar
452.25,0.0,64,94,Electric Guitar
452.25,0.0,60,94,Electric Guitar
452.25,0.0,57,94,Electric Guitar
452.5,0.16260162601626016,72,103,Electric Guitar
452.5,0.24390243902439024,45,127,Electric Guitar
452.5,0.0,46,124,Electric Guitar
452.5,0.0,54,124,Electric Guitar
452.5,0.0,70,124,Electric Guitar
452.5,0.0,42,93,Electric Guitar
452.5,0.0,64,66,Electric Guitar
452.5,0.0,60,66,Electric Guitar
452.5,0.0,57,66,Electric Guitar
452.75,0.0,54,60,Electric Guitar
452.75,0.0,70,60,Electric Guitar
452.75,0.0,36,85,Electric Guitar
452.75,0.0,42,85,Electric Guitar
452.75,0.0,64,88,Electric Guitar
452.75,0.0,60,88,Electric Guitar
452.75,0.0,57,88,Electric Guitar
453.0,0.16260162601626016,74,105,Electric Guitar
453.0,0.12195121951219512,35,127,Electric Guitar
453.0,0.24390243902439024,55,127,Electric Guitar
453.0,0.24390243902439024,64,127,Electric Guitar
453.0,0.24390243902439024,60,127,Electric Guitar
453.0,0.24390243902439024,59,127,Electric Guitar
453.0,0.3252032520325203,45,127,Electric Guitar
453.0,0.12195121951219512,36,127,Electric Guitar
453.0,0.12195121951219512,38,127,Electric Guitar
453.0,0.0,42,94,Electric Guitar
453.0,0.0,54,94,Electric Guitar
453.0,0.0,70,94,Electric Guitar
453.0,0.0,42,106,Electric Guitar
453.0,0.0,40,106,Electric Guitar
453.0,0.4878048780487805,95,127,Electric Guitar
453.0,0.4878048780487805,83,127,Electric Guitar
453.0,0.0,64,114,Electric Guitar
453.0,0.0,60,114,Electric Guitar
453.0,0.0,57,114,Electric Guitar
453.25,0.12195121951219512,36,127,Electric Guitar
453.25,0.0,42,90,Electric Guitar
453.25,0.0,54,90,Electric Guitar
453.25,0.0,70,90,Electric Guitar
453.25,0.0,42,53,Electric Guitar
453.25,0.0,64,85,Electric Guitar
453.25,0.0,60,85,Electric Guitar
453.25,0.0,57,85,Electric Guitar
453.5,0.12195121951219512,76,112,Electric Guitar
453.5,0.12195121951219512,37,127,Electric Guitar
453.5,0.0,46,127,Electric Guitar
453.5,0.0,54,127,Electric Guitar
453.5,0.0,70,127,Electric Guitar
453.5,0.0,36,102,Electric Guitar
453.5,0.0,42,102,Electric Guitar
453.5,0.0,64,96,Electric Guitar
453.5,0.0,60,96,Electric Guitar
453.5,0.0,57,96,Electric Guitar
453.75,0.12195121951219512,38,127,Electric Guitar
453.75,0.6097560975609756,76,108,Electric Guitar
453.75,0.6097560975609756,50,108,Electric Guitar
453.75,0.4878048780487805,72,101,Electric Guitar
453.75,0.4878048780487805,66,101,Electric Guitar
453.75,0.4878048780487805,69,100,Electric Guitar
453.75,0.0,60,127,Electric Guitar
453.75,0.0,64,127,Electric Guitar
453.75,0.0,54,127,Electric Guitar
453.75,0.0,57,127,Electric Guitar
453.75,0.12195121951219512,38,127,Electric Guitar
453.75,0.0,54,82,Electric Guitar
453.75,0.0,70,82,Electric Guitar
453.75,0.0,36,84,Electric Guitar
453.75,0.0,42,84,Electric Guitar
453.75,0.0,64,85,Electric Guitar
453.75,0.0,57,85,Electric Guitar
453.75,0.0,60,85,Electric Guitar
454.0,0.12195121951219512,72,105,Electric Guitar
454.0,0.24390243902439024,38,127,Electric Guitar
454.0,0.12195121951219512,36,127,Electric Guitar
454.0,0.0,42,99,Electric Guitar
454.0,0.0,54,99,Electric Guitar
454.0,0.0,70,99,Electric Guitar
454.0,0.0,44,117,Electric Guitar
454.0,0.4878048780487805,96,127,Electric Guitar
454.0,0.12195121951219512,72,127,Electric Guitar
454.0,0.4878048780487805,84,127,Electric Guitar
454.0,0.12195121951219512,60,127,Electric Guitar
454.0,0.0,62,115,Electric Guitar
454.0,0.0,66,115,Electric Guitar
454.0,0.0,57,115,Electric Guitar
454.25,0.8536585365853658,69,98,Electric Guitar
454.25,0.0,42,82,Electric Guitar
454.25,0.0,54,82,Electric Guitar
454.25,0.0,70,82,Electric Guitar
454.25,0.12195121951219512,38,77,Electric Guitar
454.25,0.0,42,63,Electric Guitar
454.25,0.12195121951219512,69,127,Electric Guitar
454.25,0.12195121951219512,57,127,Electric Guitar
454.25,0.0,66,78,Electric Guitar
454.25,0.0,62,78,Electric Guitar
454.25,0.0,57,78,Electric Guitar
454.5,0.24390243902439024,45,127,Electric Guitar
454.5,0.36585365853658536,38,127,Electric Guitar
454.5,0.36585365853658536,54,127,Electric Guitar
454.5,0.36585365853658536,57,127,Electric Guitar
454.5,0.36585365853658536,64,127,Electric Guitar
454.5,0.36585365853658536,60,127,Electric Guitar
454.5,0.0,46,124,Electric Guitar
454.5,0.0,54,124,Electric Guitar
454.5,0.0,70,124,Electric Guitar
454.5,0.0,36,100,Electric Guitar
454.5,0.0,42,100,Electric Guitar
454.5,0.12195121951219512,67,127,Electric Guitar
454.5,0.12195121951219512,55,127,Electric Guitar
454.5,0.12195121951219512,69,107,Electric Guitar
454.5,0.12195121951219512,81,107,Electric Guitar
454.5,0.0,66,78,Electric Guitar
454.5,0.0,57,78,Electric Guitar
454.5,0.0,62,78,Electric Guitar
454.75,0.0,54,60,Electric Guitar
454.75,0.0,70,60,Electric Guitar
454.75,0.0,42,71,Electric Guitar
454.75,0.12195121951219512,63,127,Electric Guitar
454.75,0.12195121951219512,51,127,Electric Guitar
454.75,0.0,62,84,Electric Guitar
454.75,0.0,66,84,Electric Guitar
454.75,0.0,57,84,Electric Guitar
455.0,0.12195121951219512,48,127,Electric Guitar
455.0,0.12195121951219512,36,127,Electric Guitar
455.0,0.12195121951219512,38,127,Electric Guitar
455.0,0.0,42,94,Electric Guitar
455.0,0.0,54,94,Electric Guitar
455.0,0.0,70,94,Electric Guitar
455.0,0.0,44,124,Electric Guitar
455.0,0.0,40,124,Electric Guitar
455.0,0.4878048780487805,98,127,Electric Guitar
455.0,0.12195121951219512,62,127,Electric Guitar
455.0,0.4878048780487805,86,127,Electric Guitar
455.0,0.12195121951219512,50,127,Electric Guitar
455.0,0.12195121951219512,69,107,Electric Guitar
455.0,0.12195121951219512,81,107,Electric Guitar
455.0,0.0,66,112,Electric Guitar
455.0,0.0,57,112,Electric Guitar
455.0,0.0,62,112,Electric Guitar
455.25,0.12195121951219512,50,127,Electric Guitar
455.25,0.0,42,90,Electric Guitar
455.25,0.0,54,90,Electric Guitar
455.25,0.0,70,90,Electric Guitar
455.25,0.0,36,86,Electric Guitar
455.25,0.0,42,86,Electric Guitar
455.25,0.12195121951219512,60,127,Electric Guitar
455.25,0.12195121951219512,48,127,Electric Guitar
455.25,0.24390243902439024,84,107,Electric Guitar
455.25,0.16260162601626016,72,107,Electric Guitar
455.25,0.0,66,92,Electric Guitar
455.25,0.0,62,92,Electric Guitar
455.25,0.0,57,92,Electric Guitar
455.5,0.12195121951219512,48,127,Electric Guitar
455.5,0.0,54,127,Electric Guitar
455.5,0.0,60,127,Electric Guitar
455.5,0.0,64,127,Electric Guitar
455.5,0.0,57,127,Electric Guitar
455.5,0.12195121951219512,38,127,Electric Guitar
455.5,0.0,46,127,Electric Guitar
455.5,0.0,54,127,Electric Guitar
455.5,0.0,70,127,Electric Guitar
455.5,0.0,42,89,Electric Guitar
455.5,0.12195121951219512,57,127,Electric Guitar
455.5,0.12195121951219512,45,127,Electric Guitar
455.5,0.0,66,83,Electric Guitar
455.5,0.0,57,83,Electric Guitar
455.5,0.0,62,83,Electric Guitar
455.75,0.12195121951219512,33,127,Electric Guitar
455.75,0.12195121951219512,38,77,Electric Guitar
455.75,0.0,54,82,Electric Guitar
455.75,0.0,70,82,Electric Guitar
455.75,0.0,36,84,Electric Guitar
455.75,0.0,42,84,Electric Guitar
455.75,0.12195121951219512,55,127,Electric Guitar
455.75,0.12195121951219512,43,127,Electric Guitar
455.75,0.0,66,85,Electric Guitar
455.75,0.0,62,85,Electric Guitar
455.75,0.0,57,85,Electric Guitar
456.0,0.16260162601626016,50,127,Electric Guitar
456.0,0.4878048780487805,72,104,Electric Guitar
456.0,0.4878048780487805,76,104,Electric Guitar
456.0,0.4878048780487805,69,104,Electric Guitar
456.0,0.4878048780487805,50,114,Electric Guitar
456.0,0.4878048780487805,65,114,Electric Guitar
456.0,0.16260162601626016,38,127,Electric Guitar
456.0,0.0,57,127,Electric Guitar
456.0,0.0,60,127,Electric Guitar
456.0,0.0,53,127,Electric Guitar
456.0,0.0,64,127,Electric Guitar
456.0,0.12195121951219512,36,127,Electric Guitar
456.0,0.0,42,99,Electric Guitar
456.0,0.0,54,99,Electric Guitar
456.0,0.0,70,99,Electric Guitar
456.0,0.0,36,110,Electric Guitar
456.0,0.0,42,110,Electric Guitar
456.0,0.975609756097561,98,127,Electric Guitar
456.0,0.975609756097561,57,127,Electric Guitar
456.0,0.975609756097561,86,127,Electric Guitar
456.0,0.975609756097561,45,127,Electric Guitar
456.0,0.16260162601626016,81,107,Electric Guitar
456.0,0.16260162601626016,69,107,Electric Guitar
456.0,0.0,62,116,Electric Guitar
456.0,0.0,57,116,Electric Guitar
456.0,0.0,65,116,Electric Guitar
456.25,0.0,42,82,Electric Guitar
456.25,0.0,54,82,Electric Guitar
456.25,0.0,70,82,Electric Guitar
456.25,0.0,42,63,Electric Guitar
456.25,0.0,62,78,Electric Guitar
456.25,0.0,65,78,Electric Guitar
456.25,0.0,57,78,Electric Guitar
456.5,0.24390243902439024,45,127,Electric Guitar
456.5,0.0,46,124,Electric Guitar
456.5,0.0,54,124,Electric Guitar
456.5,0.0,70,124,Electric Guitar
456.5,0.0,42,93,Electric Guitar
456.5,0.0,62,90,Electric Guitar
456.5,0.0,57,90,Electric Guitar
456.5,0.0,65,90,Electric Guitar
456.75,0.0,54,60,Electric Guitar
456.75,0.0,70,60,Electric Guitar
456.75,0.0,36,85,Electric Guitar
456.75,0.0,42,85,Electric Guitar
456.75,0.0,65,68,Electric Guitar
456.75,0.0,62,68,Electric Guitar
456.75,0.0,57,68,Electric Guitar
457.0,0.12195121951219512,38,127,Electric Guitar
457.0,0.24390243902439024,60,127,Electric Guitar
457.0,0.24390243902439024,64,127,Electric Guitar
457.0,0.24390243902439024,57,127,Electric Guitar
457.0,0.24390243902439024,53,127,Electric Guitar
457.0,0.3252032520325203,38,127,Electric Guitar
457.0,0.12195121951219512,36,127,Electric Guitar
457.0,0.12195121951219512,38,127,Electric Guitar
457.0,0.0,42,94,Electric Guitar
457.0,0.0,54,94,Electric Guitar
457.0,0.0,70,94,Electric Guitar
457.0,0.0,42,106,Electric Guitar
457.0,0.0,40,106,Electric Guitar
457.0,0.0,62,117,Electric Guitar
457.0,0.0,65,117,Electric Guitar
457.0,0.0,57,117,Electric Guitar
457.25,0.12195121951219512,33,127,Electric Guitar
457.25,0.0,42,90,Electric Guitar
457.25,0.0,54,90,Electric Guitar
457.25,0.0,70,90,Electric Guitar
457.25,0.0,42,53,Electric Guitar
457.25,0.0,62,88,Electric Guitar
457.25,0.0,57,88,Electric Guitar
457.25,0.0,65,88,Electric Guitar
457.5,0.12195121951219512,26,127,Electric Guitar
457.5,0.0,46,127,Electric Guitar
457.5,0.0,54,127,Electric Guitar
457.5,0.0,70,127,Electric Guitar
457.5,0.0,36,102,Electric Guitar
457.5,0.0,42,102,Electric Guitar
457.5,0.0,62,89,Electric Guitar
457.5,0.0,57,89,Electric Guitar
457.5,0.0,65,89,Electric Guitar
457.75,0.36585365853658536,28,127,Electric Guitar
457.75,0.0,56,127,Electric Guitar
457.75,0.0,62,127,Electric Guitar
457.75,0.0,52,127,Electric Guitar
457.75,0.0,59,127,Electric Guitar
457.75,0.12195121951219512,40,127,Electric Guitar
457.75,0.0,54,82,Electric Guitar
457.75,0.0,70,82,Electric Guitar
457.75,0.0,36,84,Electric Guitar
457.75,0.0,42,84,Electric Guitar
457.75,0.0,62,87,Electric Guitar
457.75,0.0,65,87,Electric Guitar
457.75,0.0,57,87,Electric Guitar
458.0,0.36585365853658536,64,110,Electric Guitar
458.0,0.4878048780487805,71,98,Electric Guitar
458.0,0.4878048780487805,68,98,Electric Guitar
458.0,0.4878048780487805,74,98,Electric Guitar
458.0,0.8536585365853658,52,105,Electric Guitar
458.0,0.12195121951219512,36,127,Electric Guitar
458.0,0.0,42,99,Electric Guitar
458.0,0.0,54,99,Electric Guitar
458.0,0.0,70,99,Electric Guitar
458.0,0.0,44,117,Electric Guitar
458.0,0.975609756097561,100,127,Electric Guitar
458.0,0.975609756097561,56,127,Electric Guitar
458.0,0.975609756097561,88,127,Electric Guitar
458.0,0.975609756097561,52,127,Electric Guitar
458.0,0.24390243902439024,68,107,Electric Guitar
458.0,0.3252032520325203,80,107,Electric Guitar
458.0,0.0,64,118,Electric Guitar
458.0,0.0,56,118,Electric Guitar
458.0,0.0,59,118,Electric Guitar
458.25,0.0,42,82,Electric Guitar
458.25,0.0,54,82,Electric Guitar
458.25,0.0,70,82,Electric Guitar
458.25,0.12195121951219512,38,77,Electric Guitar
458.25,0.0,42,63,Electric Guitar
458.25,0.0,56,82,Electric Guitar
458.25,0.0,59,82,Electric Guitar
458.25,0.0,64,82,Electric Guitar
458.5,0.24390243902439024,28,127,Electric Guitar
458.5,0.36585365853658536,62,127,Electric Guitar
458.5,0.36585365853658536,56,127,Electric Guitar
458.5,0.36585365853658536,40,127,Electric Guitar
458.5,0.36585365853658536,52,127,Electric Guitar
458.5,0.36585365853658536,59,127,Electric Guitar
458.5,0.0,46,124,Electric Guitar
458.5,0.0,54,124,Electric Guitar
458.5,0.0,70,124,Electric Guitar
458.5,0.0,36,100,Electric Guitar
458.5,0.0,42,100,Electric Guitar
458.5,0.0,56,82,Electric Guitar
458.5,0.0,59,82,Electric Guitar
458.5,0.0,64,82,Electric Guitar
458.75,0.0,54,60,Electric Guitar
458.75,0.0,70,60,Electric Guitar
458.75,0.0,42,71,Electric Guitar
458.75,0.0,59,76,Electric Guitar
458.75,0.0,56,76,Electric Guitar
458.75,0.0,64,76,Electric Guitar
459.0,0.12195121951219512,31,127,Electric Guitar
459.0,0.12195121951219512,36,127,Electric Guitar
459.0,0.12195121951219512,38,127,Electric Guitar
459.0,0.0,42,94,Electric Guitar
459.0,0.0,54,94,Electric Guitar
459.0,0.0,70,94,Electric Guitar
459.0,0.0,44,124,Electric Guitar
459.0,0.0,40,124,Electric Guitar
459.0,0.0,56,111,Electric Guitar
459.0,0.0,59,111,Electric Guitar
459.0,0.0,64,111,Electric Guitar
459.25,0.12195121951219512,31,127,Electric Guitar
459.25,0.0,42,90,Electric Guitar
459.25,0.0,54,90,Electric Guitar
459.25,0.0,70,90,Electric Guitar
459.25,0.0,36,86,Electric Guitar
459.25,0.0,42,86,Electric Guitar
459.25,0.0,64,74,Electric Guitar
459.25,0.0,59,74,Electric Guitar
459.25,0.0,56,74,Electric Guitar
459.5,0.12195121951219512,55,112,Electric Guitar
459.5,0.24390243902439024,32,127,Electric Guitar
459.5,0.0,52,127,Electric Guitar
459.5,0.0,59,127,Electric Guitar
459.5,0.12195121951219512,56,127,Electric Guitar
459.5,0.12195121951219512,62,127,Electric Guitar
459.5,0.12195121951219512,40,127,Electric Guitar
459.5,0.0,46,127,Electric Guitar
459.5,0.0,54,127,Electric Guitar
459.5,0.0,70,127,Electric Guitar
459.5,0.0,42,89,Electric Guitar
459.5,0.0,56,86,Electric Guitar
459.5,0.0,59,86,Electric Guitar
459.5,0.0,64,86,Electric Guitar
459.75,0.16260162601626016,57,103,Electric Guitar
459.75,0.12195121951219512,38,77,Electric Guitar
459.75,0.0,54,82,Electric Guitar
459.75,0.0,70,82,Electric Guitar
459.75,0.0,36,84,Electric Guitar
459.75,0.0,42,84,Electric Guitar
459.75,0.0,56,68,Electric Guitar
459.75,0.0,59,68,Electric Guitar
459.75,0.0,64,68,Electric Guitar
460.0,0.16260162601626016,60,112,Electric Guitar
460.0,0.16260162601626016,33,127,Electric Guitar
460.0,0.6097560975609756,67,107,Electric Guitar
460.0,0.4878048780487805,72,104,Electric Guitar
460.0,0.4878048780487805,76,104,Electric Guitar
460.0,1.4634146341463414,57,103,Electric Guitar
460.0,0.0,55,127,Electric Guitar
460.0,0.0,64,127,Electric Guitar
460.0,0.0,60,127,Electric Guitar
460.0,0.0,59,127,Electric Guitar
460.0,0.12195121951219512,45,127,Electric Guitar
460.0,0.12195121951219512,36,127,Electric Guitar
460.0,0.0,42,99,Electric Guitar
460.0,0.0,54,99,Electric Guitar
460.0,0.0,70,99,Electric Guitar
460.0,0.0,36,110,Electric Guitar
460.0,0.0,42,110,Electric Guitar
460.0,0.4878048780487805,95,127,Electric Guitar
460.0,0.4878048780487805,60,127,Electric Guitar
460.0,0.4878048780487805,83,127,Electric Guitar
460.0,1.951219512195122,45,127,Electric Guitar
460.0,0.24390243902439024,81,107,Electric Guitar
460.0,0.24390243902439024,69,107,Electric Guitar
460.0,0.0,60,107,Electric Guitar
460.0,0.0,57,107,Electric Guitar
460.0,0.0,64,107,Electric Guitar
460.25,0.0,42,82,Electric Guitar
460.25,0.0,54,82,Electric Guitar
460.25,0.0,70,82,Electric Guitar
460.25,0.0,42,63,Electric Guitar
460.25,0.0,64,77,Electric Guitar
460.25,0.0,60,77,Electric Guitar
460.25,0.0,57,77,Electric Guitar
460.5,0.12195121951219512,62,112,Electric Guitar
460.5,0.24390243902439024,40,127,Electric Guitar
460.5,0.0,46,124,Electric Guitar
460.5,0.0,54,124,Electric Guitar
460.5,0.0,70,124,Electric Guitar
460.5,0.0,42,93,Electric Guitar
460.5,0.0,60,75,Electric Guitar
460.5,0.0,64,75,Electric Guitar
460.5,0.0,57,75,Electric Guitar
460.75,0.0,54,60,Electric Guitar
460.75,0.0,70,60,Electric Guitar
460.75,0.0,36,85,Electric Guitar
460.75,0.0,42,85,Electric Guitar
460.75,0.0,60,74,Electric Guitar
460.75,0.0,64,74,Electric Guitar
460.75,0.0,57,74,Electric Guitar
461.0,0.12195121951219512,63,107,Electric Guitar
461.0,0.12195121951219512,43,127,Electric Guitar
461.0,0.3252032520325203,45,127,Electric Guitar
461.0,0.24390243902439024,55,127,Electric Guitar
461.0,0.24390243902439024,64,127,Electric Guitar
461.0,0.24390243902439024,59,127,Electric Guitar
461.0,0.24390243902439024,60,127,Electric Guitar
461.0,0.12195121951219512,36,127,Electric Guitar
461.0,0.12195121951219512,38,127,Electric Guitar
461.0,0.0,42,94,Electric Guitar
461.0,0.0,54,94,Electric Guitar
461.0,0.0,70,94,Electric Guitar
461.0,0.0,42,106,Electric Guitar
461.0,0.0,40,106,Electric Guitar
461.0,0.4878048780487805,96,127,Electric Guitar
461.0,0.4878048780487805,57,127,Electric Guitar
461.0,0.4878048780487805,84,127,Electric Guitar
461.0,0.0,60,112,Electric Guitar
461.0,0.0,57,112,Electric Guitar
461.0,0.0,64,112,Electric Guitar
461.25,0.24390243902439024,62,114,Electric Guitar
461.25,0.12195121951219512,40,127,Electric Guitar
461.25,0.0,42,90,Electric Guitar
461.25,0.0,54,90,Electric Guitar
461.25,0.0,70,90,Electric Guitar
461.25,0.0,42,53,Electric Guitar
461.25,0.0,60,31,Electric Guitar
461.5,0.12195121951219512,43,127,Electric Guitar
461.5,0.0,46,127,Electric Guitar
461.5,0.0,54,127,Electric Guitar
461.5,0.0,70,127,Electric Guitar
461.5,0.0,36,102,Electric Guitar
461.5,0.0,42,102,Electric Guitar
461.5,0.0,60,85,Electric Guitar
461.5,0.0,64,85,Electric Guitar
461.5,0.0,57,85,Electric Guitar
461.75,0.16260162601626016,60,100,Electric Guitar
461.75,0.36585365853658536,45,127,Electric Guitar
461.75,0.0,55,127,Electric Guitar
461.75,0.0,61,127,Electric Guitar
461.75,0.0,64,127,Electric Guitar
461.75,0.0,58,127,Electric Guitar
461.75,0.12195121951219512,45,127,Electric Guitar
461.75,0.0,54,82,Electric Guitar
461.75,0.0,70,82,Electric Guitar
461.75,0.0,36,84,Electric Guitar
461.75,0.0,42,84,Electric Guitar
461.75,0.0,60,85,Electric Guitar
461.75,0.0,64,85,Electric Guitar
461.75,0.0,57,85,Electric Guitar
462.0,0.975609756097561,57,110,Electric Guitar
462.0,0.36585365853658536,73,99,Electric Guitar
462.0,0.36585365853658536,67,99,Electric Guitar
462.0,0.36585365853658536,70,99,Electric Guitar
462.0,0.4878048780487805,76,100,Electric Guitar
462.0,0.12195121951219512,36,127,Electric Guitar
462.0,0.0,42,99,Electric Guitar
462.0,0.0,54,99,Electric Guitar
462.0,0.0,70,99,Electric Guitar
462.0,0.0,44,117,Electric Guitar
462.0,0.4878048780487805,100,127,Electric Guitar
462.0,0.4878048780487805,61,127,Electric Guitar
462.0,0.4878048780487805,88,127,Electric Guitar
462.0,0.24390243902439024,76,107,Electric Guitar
462.0,0.24390243902439024,64,107,Electric Guitar
462.0,0.0,60,81,Electric Guitar
462.0,0.0,64,81,Electric Guitar
462.0,0.0,57,81,Electric Guitar
462.25,0.0,42,82,Electric Guitar
462.25,0.0,54,82,Electric Guitar
462.25,0.0,70,82,Electric Guitar
462.25,0.12195121951219512,38,77,Electric Guitar
462.25,0.0,42,63,Electric Guitar
462.25,0.0,61,112,Electric Guitar
462.25,0.0,64,112,Electric Guitar
462.25,0.0,57,112,Electric Guitar
462.5,0.24390243902439024,40,127,Electric Guitar
462.5,0.36585365853658536,45,127,Electric Guitar
462.5,0.36585365853658536,55,127,Electric Guitar
462.5,0.36585365853658536,64,127,Electric Guitar
462.5,0.36585365853658536,58,127,Electric Guitar
462.5,0.36585365853658536,61,127,Electric Guitar
462.5,0.0,46,124,Electric Guitar
462.5,0.0,54,124,Electric Guitar
462.5,0.0,70,124,Electric Guitar
462.5,0.0,36,100,Electric Guitar
462.5,0.0,42,100,Electric Guitar
462.5,0.0,61,81,Electric Guitar
462.5,0.0,57,81,Electric Guitar
462.5,0.0,64,81,Electric Guitar
462.75,0.0,54,60,Electric Guitar
462.75,0.0,70,60,Electric Guitar
462.75,0.0,42,71,Electric Guitar
462.75,0.0,61,81,Electric Guitar
462.75,0.0,57,81,Electric Guitar
462.75,0.0,64,81,Electric Guitar
463.0,0.12195121951219512,38,127,Electric Guitar
463.0,0.12195121951219512,36,127,Electric Guitar
463.0,0.12195121951219512,38,127,Electric Guitar
463.0,0.0,42,94,Electric Guitar
463.0,0.0,54,94,Electric Guitar
463.0,0.0,70,94,Electric Guitar
463.0,0.0,44,124,Electric Guitar
463.0,0.0,40,124,Electric Guitar
463.0,0.36585365853658536,103,127,Electric Guitar
463.0,0.4878048780487805,64,127,Electric Guitar
463.0,0.36585365853658536,91,127,Electric Guitar
463.0,0.0,64,80,Electric Guitar
463.0,0.0,61,80,Electric Guitar
463.0,0.0,57,80,Electric Guitar
463.25,0.12195121951219512,38,127,Electric Guitar
463.25,0.0,42,90,Electric Guitar
463.25,0.0,54,90,Electric Guitar
463.25,0.0,70,90,Electric Guitar
463.25,0.0,36,86,Electric Guitar
463.25,0.0,42,86,Electric Guitar
463.25,0.0,64,114,Electric Guitar
463.25,0.0,61,114,Electric Guitar
463.25,0.0,57,114,Electric Guitar
463.5,0.24390243902439024,40,127,Electric Guitar
463.5,0.12195121951219512,45,127,Electric Guitar
463.5,0.0,55,127,Electric Guitar
463.5,0.0,58,127,Electric Guitar
463.5,0.0,61,127,Electric Guitar
463.5,0.0,64,127,Electric Guitar
463.5,0.0,46,127,Electric Guitar
463.5,0.0,54,127,Electric Guitar
463.5,0.0,70,127,Electric Guitar
463.5,0.0,42,89,Electric Guitar
463.5,0.0,64,93,Electric Guitar
463.5,0.0,61,93,Electric Guitar
463.5,0.0,57,93,Electric Guitar
463.75,0.12195121951219512,38,77,Electric Guitar
463.75,0.0,54,82,Electric Guitar
463.75,0.0,70,82,Electric Guitar
463.75,0.0,36,84,Electric Guitar
463.75,0.0,42,84,Electric Guitar
463.75,0.12195121951219512,102,127,Electric Guitar
463.75,0.12195121951219512,90,127,Electric Guitar
463.75,0.0,64,94,Electric Guitar
463.75,0.0,61,94,Electric Guitar
463.75,0.0,57,94,Electric Guitar
464.0,0.16260162601626016,29,127,Electric Guitar
464.0,0.4878048780487805,65,117,Electric Guitar
464.0,0.4878048780487805,69,102,Electric Guitar
464.0,0.4878048780487805,76,102,Electric Guitar
464.0,0.4878048780487805,72,102,Electric Guitar
464.0,0.4878048780487805,53,102,Electric Guitar
464.0,0.0,57,127,Electric Guitar
464.0,0.0,60,127,Electric Guitar
464.0,0.0,53,127,Electric Guitar
464.0,0.0,64,127,Electric Guitar
464.0,0.12195121951219512,41,127,Electric Guitar
464.0,0.12195121951219512,36,127,Electric Guitar
464.0,0.12195121951219512,57,127,Electric Guitar
464.0,0.0,42,99,Electric Guitar
464.0,0.0,54,99,Electric Guitar
464.0,0.0,70,99,Electric Guitar
464.0,0.0,36,110,Electric Guitar
464.0,0.0,42,110,Electric Guitar
464.0,0.12195121951219512,101,127,Electric Guitar
464.0,1.4634146341463414,100,127,Electric Guitar
464.0,0.8536585365853658,69,127,Electric Guitar
464.0,0.12195121951219512,89,127,Electric Guitar
464.0,1.4634146341463414,88,127,Electric Guitar
464.0,0.8536585365853658,41,127,Electric Guitar
464.0,0.16260162601626016,81,107,Electric Guitar
464.0,0.16260162601626016,69,107,Electric Guitar
464.0,0.0,57,115,Electric Guitar
464.0,0.0,65,115,Electric Guitar
464.0,0.0,60,115,Electric Guitar
464.25,0.0,42,82,Electric Guitar
464.25,0.0,54,82,Electric Guitar
464.25,0.0,70,82,Electric Guitar
464.25,0.0,42,63,Electric Guitar
464.25,0.0,60,88,Electric Guitar
464.25,0.0,57,88,Electric Guitar
464.25,0.0,65,88,Electric Guitar
464.5,0.24390243902439024,41,127,Electric Guitar
464.5,0.0,46,124,Electric Guitar
464.5,0.0,54,124,Electric Guitar
464.5,0.0,70,124,Electric Guitar
464.5,0.0,42,93,Electric Guitar
464.5,0.0,60,88,Electric Guitar
464.5,0.0,57,88,Electric Guitar
464.5,0.0,65,88,Electric Guitar
464.75,0.0,54,60,Electric Guitar
464.75,0.0,70,60,Electric Guitar
464.75,0.0,36,85,Electric Guitar
464.75,0.0,42,85,Electric Guitar
464.75,0.0,60,80,Electric Guitar
464.75,0.0,57,80,Electric Guitar
464.75,0.0,65,80,Electric Guitar
465.0,1.0975609756097562,71,119,Electric Guitar
465.0,0.12195121951219512,36,127,Electric Guitar
465.0,0.3252032520325203,41,127,Electric Guitar
465.0,0.3252032520325203,64,127,Electric Guitar
465.0,0.24390243902439024,60,127,Electric Guitar
465.0,0.24390243902439024,57,127,Electric Guitar
465.0,0.24390243902439024,53,127,Electric Guitar
465.0,0.12195121951219512,36,127,Electric Guitar
465.0,0.12195121951219512,38,127,Electric Guitar
465.0,0.0,42,94,Electric Guitar
465.0,0.0,54,94,Electric Guitar
465.0,0.0,70,94,Electric Guitar
465.0,0.0,42,106,Electric Guitar
465.0,0.0,40,106,Electric Guitar
465.0,0.0,65,116,Electric Guitar
465.0,0.0,57,116,Electric Guitar
465.0,0.0,60,116,Electric Guitar
465.25,0.12195121951219512,38,127,Electric Guitar
465.25,0.0,42,90,Electric Guitar
465.25,0.0,54,90,Electric Guitar
465.25,0.0,70,90,Electric Guitar
465.25,0.0,42,53,Electric Guitar
465.25,0.0,60,89,Electric Guitar
465.25,0.0,57,89,Electric Guitar
465.25,0.0,65,89,Electric Guitar
465.5,0.12195121951219512,39,127,Electric Guitar
465.5,0.0,46,127,Electric Guitar
465.5,0.0,54,127,Electric Guitar
465.5,0.0,70,127,Electric Guitar
465.5,0.0,36,102,Electric Guitar
465.5,0.0,42,102,Electric Guitar
465.5,0.0,65,90,Electric Guitar
465.5,0.0,60,90,Electric Guitar
465.5,0.0,57,90,Electric Guitar
465.75,0.36585365853658536,40,127,Electric Guitar
465.75,0.6097560975609756,68,97,Electric Guitar
465.75,0.6097560975609756,74,97,Electric Guitar
465.75,0.4878048780487805,71,100,Electric Guitar
465.75,0.4878048780487805,52,113,Electric Guitar
465.75,0.4878048780487805,64,113,Electric Guitar
465.75,0.0,40,127,Electric Guitar
465.75,0.0,64,127,Electric Guitar
465.75,0.0,56,127,Electric Guitar
465.75,0.0,52,127,Electric Guitar
465.75,0.0,59,127,Electric Guitar
465.75,0.0,54,82,Electric Guitar
465.75,0.0,70,82,Electric Guitar
465.75,0.0,36,84,Electric Guitar
465.75,0.0,42,84,Electric Guitar
465.75,1.0975609756097562,68,127,Electric Guitar
465.75,1.0975609756097562,52,127,Electric Guitar
465.75,0.0,65,87,Electric Guitar
465.75,0.0,60,87,Electric Guitar
465.75,0.0,57,87,Electric Guitar
466.0,0.12195121951219512,36,127,Electric Guitar
466.0,0.0,42,99,Electric Guitar
466.0,0.0,54,99,Electric Guitar
466.0,0.0,70,99,Electric Guitar
466.0,0.0,44,117,Electric Guitar
466.0,0.0,59,117,Electric Guitar
466.0,0.0,56,117,Electric Guitar
466.0,0.0,64,117,Electric Guitar
466.25,0.0,42,82,Electric Guitar
466.25,0.0,54,82,Electric Guitar
466.25,0.0,70,82,Electric Guitar
466.25,0.12195121951219512,38,77,Electric Guitar
466.25,0.0,42,63,Electric Guitar
466.25,0.0,64,99,Electric Guitar
466.25,0.0,56,99,Electric Guitar
466.25,0.0,59,99,Electric Guitar
466.5,0.24390243902439024,28,127,Electric Guitar
466.5,0.36585365853658536,56,127,Electric Guitar
466.5,0.36585365853658536,52,127,Electric Guitar
466.5,0.36585365853658536,64,127,Electric Guitar
466.5,0.36585365853658536,40,127,Electric Guitar
466.5,0.36585365853658536,59,127,Electric Guitar
466.5,0.0,46,124,Electric Guitar
466.5,0.0,54,124,Electric Guitar
466.5,0.0,70,124,Electric Guitar
466.5,0.0,36,100,Electric Guitar
466.5,0.0,42,100,Electric Guitar
466.5,0.16260162601626016,81,107,Electric Guitar
466.5,0.16260162601626016,69,107,Electric Guitar
466.5,0.0,59,78,Electric Guitar
466.5,0.0,64,78,Electric Guitar
466.5,0.0,56,78,Electric Guitar
466.75,0.0,54,60,Electric Guitar
466.75,0.0,70,60,Electric Guitar
466.75,0.0,42,71,Electric Guitar
466.75,0.0,56,80,Electric Guitar
466.75,0.0,59,80,Electric Guitar
466.75,0.0,64,80,Electric Guitar
467.0,0.12195121951219512,35,127,Electric Guitar
467.0,0.12195121951219512,36,127,Electric Guitar
467.0,0.12195121951219512,38,127,Electric Guitar
467.0,0.0,42,94,Electric Guitar
467.0,0.0,54,94,Electric Guitar
467.0,0.0,70,94,Electric Guitar
467.0,0.0,44,124,Electric Guitar
467.0,0.0,40,124,Electric Guitar
467.0,0.4878048780487805,104,127,Electric Guitar
467.0,0.4878048780487805,92,127,Electric Guitar
467.0,0.0,56,115,Electric Guitar
467.0,0.0,64,115,Electric Guitar
467.0,0.0,59,115,Electric Guitar
467.25,0.12195121951219512,72,105,Electric Guitar
467.25,0.12195121951219512,38,127,Electric Guitar
467.25,0.0,42,90,Electric Guitar
467.25,0.0,54,90,Electric Guitar
467.25,0.0,70,90,Electric Guitar
467.25,0.0,36,86,Electric Guitar
467.25,0.0,42,86,Electric Guitar
467.25,0.16260162601626016,80,107,Electric Guitar
467.25,0.16260162601626016,68,107,Electric Guitar
467.25,0.0,56,90,Electric Guitar
467.25,0.0,59,90,Electric Guitar
467.25,0.0,64,90,Electric Guitar
467.5,0.6097560975609756,71,114,Electric Guitar
467.5,0.24390243902439024,40,127,Electric Guitar
467.5,0.0,52,127,Electric Guitar
467.5,0.0,56,127,Electric Guitar
467.5,0.0,64,127,Electric Guitar
467.5,0.0,40,127,Electric Guitar
467.5,0.0,59,127,Electric Guitar
467.5,0.0,46,127,Electric Guitar
467.5,0.0,54,127,Electric Guitar
467.5,0.0,70,127,Electric Guitar
467.5,0.0,42,89,Electric Guitar
467.5,0.0,64,87,Electric Guitar
467.5,0.0,59,87,Electric Guitar
467.5,0.0,56,87,Electric Guitar
467.75,0.12195121951219512,38,77,Electric Guitar
467.75,0.0,54,82,Electric Guitar
467.75,0.0,70,82,Electric Guitar
467.75,0.0,36,84,Electric Guitar
467.75,0.0,42,84,Electric Guitar
467.75,0.0,64,92,Electric Guitar
467.75,0.0,59,92,Electric Guitar
467.75,0.0,56,92,Electric Guitar
468.0,0.24390243902439024,33,127,Electric Guitar
468.0,0.4878048780487805,72,102,Electric Guitar
468.0,0.4878048780487805,67,102,Electric Guitar
468.0,0.36585365853658536,76,104,Electric Guitar
468.0,0.36585365853658536,57,104,Electric Guitar
468.0,0.0,55,127,Electric Guitar
468.0,0.0,60,127,Electric Guitar
468.0,0.0,59,127,Electric Guitar
468.0,0.12195121951219512,64,127,Electric Guitar
468.0,0.12195121951219512,45,127,Electric Guitar
468.0,0.12195121951219512,36,127,Electric Guitar
468.0,0.0,42,99,Electric Guitar
468.0,0.0,54,99,Electric Guitar
468.0,0.0,70,99,Electric Guitar
468.0,0.0,36,110,Electric Guitar
468.0,0.0,42,110,Electric Guitar
468.0,0.36585365853658536,105,127,Electric Guitar
468.0,0.8536585365853658,67,127,Electric Guitar
468.0,0.36585365853658536,93,127,Electric Guitar
468.0,0.8536585365853658,45,127,Electric Guitar
468.0,0.16260162601626016,69,107,Electric Guitar
468.0,0.24390243902439024,81,107,Electric Guitar
468.0,0.0,64,116,Electric Guitar
468.0,0.0,60,116,Electric Guitar
468.0,0.0,57,116,Electric Guitar
468.25,0.0,42,82,Electric Guitar
468.25,0.0,54,82,Electric Guitar
468.25,0.0,70,82,Electric Guitar
468.25,0.0,42,63,Electric Guitar
468.25,0.0,64,94,Electric Guitar
468.25,0.0,60,94,Electric Guitar
468.25,0.0,57,94,Electric Guitar
468.5,1.2195121951219512,69,107,Electric Guitar
468.5,0.24390243902439024,45,127,Electric Guitar
468.5,0.0,46,124,Electric Guitar
468.5,0.0,54,124,Electric Guitar
468.5,0.0,70,124,Electric Guitar
468.5,0.0,42,93,Electric Guitar
468.5,0.0,64,66,Electric Guitar
468.5,0.0,60,66,Electric Guitar
468.5,0.0,57,66,Electric Guitar
468.75,0.0,54,60,Electric Guitar
468.75,0.0,70,60,Electric Guitar
468.75,0.0,36,85,Electric Guitar
468.75,0.0,42,85,Electric Guitar
468.75,0.0,101,127,Electric Guitar
468.75,0.0,89,127,Electric Guitar
468.75,0.0,64,88,Electric Guitar
468.75,0.0,60,88,Electric Guitar
468.75,0.0,57,88,Electric Guitar
469.0,0.12195121951219512,35,127,Electric Guitar
469.0,0.24390243902439024,55,127,Electric Guitar
469.0,0.24390243902439024,64,127,Electric Guitar
469.0,0.24390243902439024,60,127,Electric Guitar
469.0,0.24390243902439024,59,127,Electric Guitar
469.0,0.3252032520325203,45,127,Electric Guitar
469.0,0.12195121951219512,36,127,Electric Guitar
469.0,0.12195121951219512,38,127,Electric Guitar
469.0,0.0,42,94,Electric Guitar
469.0,0.0,54,94,Electric Guitar
469.0,0.0,70,94,Electric Guitar
469.0,0.0,42,106,Electric Guitar
469.0,0.0,40,106,Electric Guitar
469.0,0.12195121951219512,100,127,Electric Guitar
469.0,0.24390243902439024,99,127,Electric Guitar
469.0,0.12195121951219512,88,127,Electric Guitar
469.0,0.24390243902439024,87,127,Electric Guitar
469.0,0.0,64,114,Electric Guitar
469.0,0.0,60,114,Electric Guitar
469.0,0.0,57,114,Electric Guitar
469.25,0.12195121951219512,36,127,Electric Guitar
469.25,0.0,42,90,Electric Guitar
469.25,0.0,54,90,Electric Guitar
469.25,0.0,70,90,Electric Guitar
469.25,0.0,42,53,Electric Guitar
469.25,0.0,64,85,Electric Guitar
469.25,0.0,60,85,Electric Guitar
469.25,0.0,57,85,Electric Guitar
469.5,0.12195121951219512,37,127,Electric Guitar
469.5,0.0,46,127,Electric Guitar
469.5,0.0,54,127,Electric Guitar
469.5,0.0,70,127,Electric Guitar
469.5,0.0,36,102,Electric Guitar
469.5,0.0,42,102,Electric Guitar
469.5,0.6504065040650406,98,127,Electric Guitar
469.5,0.6504065040650406,86,127,Electric Guitar
469.5,0.0,64,96,Electric Guitar
469.5,0.0,60,96,Electric Guitar
469.5,0.0,57,96,Electric Guitar
469.75,0.12195121951219512,38,127,Electric Guitar
469.75,0.6097560975609756,72,101,Electric Guitar
469.75,0.6097560975609756,66,101,Electric Guitar
469.75,0.6097560975609756,50,101,Electric Guitar
469.75,0.6504065040650406,76,105,Electric Guitar
469.75,0.4878048780487805,69,96,Electric Guitar
469.75,0.0,60,127,Electric Guitar
469.75,0.0,64,127,Electric Guitar
469.75,0.0,54,127,Electric Guitar
469.75,0.0,57,127,Electric Guitar
469.75,0.12195121951219512,38,127,Electric Guitar
469.75,0.0,54,82,Electric Guitar
469.75,0.0,70,82,Electric Guitar
469.75,0.0,36,84,Electric Guitar
469.75,0.0,42,84,Electric Guitar
469.75,1.0975609756097562,66,127,Electric Guitar
469.75,1.0975609756097562,50,127,Electric Guitar
469.75,0.0,64,85,Electric Guitar
469.75,0.0,57,85,Electric Guitar
469.75,0.0,60,85,Electric Guitar
470.0,0.24390243902439024,38,127,Electric Guitar
470.0,0.12195121951219512,36,127,Electric Guitar
470.0,0.0,42,99,Electric Guitar
470.0,0.0,54,99,Electric Guitar
470.0,0.0,70,99,Electric Guitar
470.0,0.0,44,117,Electric Guitar
470.0,0.0,62,115,Electric Guitar
470.0,0.0,66,115,Electric Guitar
470.0,0.0,57,115,Electric Guitar
470.25,0.0,42,82,Electric Guitar
470.25,0.0,54,82,Electric Guitar
470.25,0.0,70,82,Electric Guitar
470.25,0.12195121951219512,38,77,Electric Guitar
470.25,0.0,42,63,Electric Guitar
470.25,0.0,66,78,Electric Guitar
470.25,0.0,62,78,Electric Guitar
470.25,0.0,57,78,Electric Guitar
470.5,0.24390243902439024,36,127,Electric Guitar
470.5,0.36585365853658536,38,127,Electric Guitar
470.5,0.36585365853658536,54,127,Electric Guitar
470.5,0.36585365853658536,57,127,Electric Guitar
470.5,0.36585365853658536,64,127,Electric Guitar
470.5,0.36585365853658536,60,127,Electric Guitar
470.5,0.0,46,124,Electric Guitar
470.5,0.0,54,124,Electric Guitar
470.5,0.0,70,124,Electric Guitar
470.5,0.0,36,100,Electric Guitar
470.5,0.0,42,100,Electric Guitar
470.5,0.12195121951219512,69,107,Electric Guitar
470.5,0.12195121951219512,81,107,Electric Guitar
470.5,0.0,66,78,Electric Guitar
470.5,0.0,57,78,Electric Guitar
470.5,0.0,62,78,Electric Guitar
470.75,0.0,54,60,Electric Guitar
470.75,0.0,70,60,Electric Guitar
470.75,0.0,42,71,Electric Guitar
470.75,0.0,62,84,Electric Guitar
470.75,0.0,66,84,Electric Guitar
470.75,0.0,57,84,Electric Guitar
471.0,0.12195121951219512,36,127,Electric Guitar
471.0,0.12195121951219512,36,127,Electric Guitar
471.0,0.12195121951219512,38,127,Electric Guitar
471.0,0.0,42,94,Electric Guitar
471.0,0.0,54,94,Electric Guitar
471.0,0.0,70,94,Electric Guitar
471.0,0.0,44,124,Electric Guitar
471.0,0.0,40,124,Electric Guitar
471.0,0.36585365853658536,96,127,Electric Guitar
471.0,0.36585365853658536,84,127,Electric Guitar
471.0,0.12195121951219512,69,107,Electric Guitar
471.0,0.12195121951219512,81,107,Electric Guitar
471.0,0.0,66,112,Electric Guitar
471.0,0.0,57,112,Electric Guitar
471.0,0.0,62,112,Electric Guitar
471.25,0.12195121951219512,38,127,Electric Guitar
471.25,0.0,42,90,Electric Guitar
471.25,0.0,54,90,Electric Guitar
471.25,0.0,70,90,Electric Guitar
471.25,0.0,36,86,Electric Guitar
471.25,0.0,42,86,Electric Guitar
471.25,0.24390243902439024,84,107,Electric Guitar
471.25,0.16260162601626016,72,107,Electric Guitar
471.25,0.0,66,92,Electric Guitar
471.25,0.0,62,92,Electric Guitar
471.25,0.0,57,92,Electric Guitar
471.5,0.24390243902439024,67,110,Electric Guitar
471.5,0.12195121951219512,36,127,Electric Guitar
471.5,0.0,54,127,Electric Guitar
471.5,0.0,60,127,Electric Guitar
471.5,0.0,64,127,Electric Guitar
471.5,0.0,57,127,Electric Guitar
471.5,0.12195121951219512,38,127,Electric Guitar
471.5,0.0,46,127,Electric Guitar
471.5,0.0,54,127,Electric Guitar
471.5,0.0,70,127,Electric Guitar
471.5,0.0,42,89,Electric Guitar
471.5,0.0,66,83,Electric Guitar
471.5,0.0,57,83,Electric Guitar
471.5,0.0,62,83,Electric Guitar
471.75,0.12195121951219512,33,127,Electric Guitar
471.75,0.12195121951219512,38,77,Electric Guitar
471.75,0.0,54,82,Electric Guitar
471.75,0.0,70,82,Electric Guitar
471.75,0.0,36,84,Electric Guitar
471.75,0.0,42,84,Electric Guitar
471.75,0.12195121951219512,95,127,Electric Guitar
471.75,0.12195121951219512,94,127,Electric Guitar
471.75,0.12195121951219512,83,127,Electric Guitar
471.75,0.12195121951219512,82,127,Electric Guitar
471.75,0.0,66,85,Electric Guitar
471.75,0.0,62,85,Electric Guitar
471.75,0.0,57,85,Electric Guitar
472.0,0.16260162601626016,74,112,Electric Guitar
472.0,0.16260162601626016,38,127,Electric Guitar
472.0,1.4634146341463414,72,101,Electric Guitar
472.0,1.4634146341463414,65,101,Electric Guitar
472.0,1.4634146341463414,50,101,Electric Guitar
472.0,1.4634146341463414,76,101,Electric Guitar
472.0,1.4634146341463414,69,102,Electric Guitar
472.0,0.16260162601626016,38,127,Electric Guitar
472.0,0.0,57,127,Electric Guitar
472.0,0.0,60,127,Electric Guitar
472.0,0.0,53,127,Electric Guitar
472.0,0.0,64,127,Electric Guitar
472.0,0.12195121951219512,36,127,Electric Guitar
472.0,0.0,42,99,Electric Guitar
472.0,0.0,54,99,Electric Guitar
472.0,0.0,70,99,Electric Guitar
472.0,0.0,36,110,Electric Guitar
472.0,0.0,42,110,Electric Guitar
472.0,1.4634146341463414,93,127,Electric Guitar
472.0,1.951219512195122,62,127,Electric Guitar
472.0,1.4634146341463414,81,127,Electric Guitar
472.0,1.951219512195122,50,127,Electric Guitar
472.0,0.16260162601626016,81,107,Electric Guitar
472.0,0.16260162601626016,69,107,Electric Guitar
472.0,0.0,57,110,Electric Guitar
472.0,0.0,65,110,Electric Guitar
472.0,0.0,62,110,Electric Guitar
472.25,0.16260162601626016,72,100,Electric Guitar
472.25,0.0,42,82,Electric Guitar
472.25,0.0,54,82,Electric Guitar
472.25,0.0,70,82,Electric Guitar
472.25,0.0,42,63,Electric Guitar
472.25,0.0,65,86,Electric Guitar
472.25,0.0,62,86,Electric Guitar
472.25,0.0,57,86,Electric Guitar
472.5,0.12195121951219512,69,100,Electric Guitar
472.5,0.24390243902439024,38,127,Electric Guitar
472.5,0.0,46,124,Electric Guitar
472.5,0.0,54,124,Electric Guitar
472.5,0.0,70,124,Electric Guitar
472.5,0.0,42,93,Electric Guitar
472.5,0.0,57,83,Electric Guitar
472.5,0.0,65,83,Electric Guitar
472.5,0.0,62,83,Electric Guitar
472.75,0.16260162601626016,74,114,Electric Guitar
472.75,0.0,54,60,Electric Guitar
472.75,0.0,70,60,Electric Guitar
472.75,0.0,36,85,Electric Guitar
472.75,0.0,42,85,Electric Guitar
472.75,0.0,65,84,Electric Guitar
472.75,0.0,57,84,Electric Guitar
472.75,0.0,62,84,Electric Guitar
473.0,0.12195121951219512,72,102,Electric Guitar
473.0,0.12195121951219512,38,127,Electric Guitar
473.0,0.24390243902439024,60,127,Electric Guitar
473.0,0.24390243902439024,64,127,Electric Guitar
473.0,0.24390243902439024,57,127,Electric Guitar
473.0,0.24390243902439024,53,127,Electric Guitar
473.0,0.3252032520325203,38,127,Electric Guitar
473.0,0.12195121951219512,36,127,Electric Guitar
473.0,0.12195121951219512,38,127,Electric Guitar
473.0,0.0,42,94,Electric Guitar
473.0,0.0,54,94,Electric Guitar
473.0,0.0,70,94,Electric Guitar
473.0,0.0,42,106,Electric Guitar
473.0,0.0,40,106,Electric Guitar
473.0,0.0,65,110,Electric Guitar
473.0,0.0,57,110,Electric Guitar
473.0,0.0,62,110,Electric Guitar
473.25,0.12195121951219512,69,94,Electric Guitar
473.25,0.12195121951219512,33,127,Electric Guitar
473.25,0.0,42,90,Electric Guitar
473.25,0.0,54,90,Electric Guitar
473.25,0.0,70,90,Electric Guitar
473.25,0.0,42,53,Electric Guitar
473.25,0.0,57,83,Electric Guitar
473.25,0.0,62,83,Electric Guitar
473.25,0.0,65,83,Electric Guitar
473.5,0.12195121951219512,74,112,Electric Guitar
473.5,0.12195121951219512,26,127,Electric Guitar
473.5,0.0,46,127,Electric Guitar
473.5,0.0,54,127,Electric Guitar
473.5,0.0,70,127,Electric Guitar
473.5,0.0,36,102,Electric Guitar
473.5,0.0,42,102,Electric Guitar
473.5,0.0,65,79,Electric Guitar
473.5,0.0,57,79,Electric Guitar
473.5,0.0,62,79,Electric Guitar
473.75,0.12195121951219512,72,102,Electric Guitar
473.75,0.36585365853658536,26,127,Electric Guitar
473.75,0.0,57,127,Electric Guitar
473.75,0.0,64,127,Electric Guitar
473.75,0.0,53,127,Electric Guitar
473.75,0.0,60,127,Electric Guitar
473.75,0.12195121951219512,38,127,Electric Guitar
473.75,0.0,54,82,Electric Guitar
473.75,0.0,70,82,Electric Guitar
473.75,0.0,36,84,Electric Guitar
473.75,0.0,42,84,Electric Guitar
473.75,0.0,57,87,Electric Guitar
473.75,0.0,65,87,Electric Guitar
473.75,0.0,62,87,Electric Guitar
474.0,0.12195121951219512,69,102,Electric Guitar
474.0,0.12195121951219512,36,127,Electric Guitar
474.0,0.0,42,99,Electric Guitar
474.0,0.0,54,99,Electric Guitar
474.0,0.0,70,99,Electric Guitar
474.0,0.0,44,117,Electric Guitar
474.0,0.0,57,116,Electric Guitar
474.0,0.0,65,116,Electric Guitar
474.0,0.0,62,116,Electric Guitar
474.25,0.12195121951219512,74,110,Electric Guitar
474.25,0.0,42,82,Electric Guitar
474.25,0.0,54,82,Electric Guitar
474.25,0.0,70,82,Electric Guitar
474.25,0.12195121951219512,38,77,Electric Guitar
474.25,0.0,42,63,Electric Guitar
474.25,0.0,62,65,Electric Guitar
474.25,0.0,57,65,Electric Guitar
474.25,0.0,65,65,Electric Guitar
474.5,0.12195121951219512,72,96,Electric Guitar
474.5,0.24390243902439024,33,127,Electric Guitar
474.5,0.36585365853658536,64,127,Electric Guitar
474.5,0.36585365853658536,57,127,Electric Guitar
474.5,0.36585365853658536,38,127,Electric Guitar
474.5,0.36585365853658536,53,127,Electric Guitar
474.5,0.36585365853658536,60,127,Electric Guitar
474.5,0.0,46,124,Electric Guitar
474.5,0.0,54,124,Electric Guitar
474.5,0.0,70,124,Electric Guitar
474.5,0.0,36,100,Electric Guitar
474.5,0.0,42,100,Electric Guitar
474.5,0.0,62,94,Electric Guitar
474.5,0.0,57,94,Electric Guitar
474.5,0.0,65,94,Electric Guitar
474.75,0.12195121951219512,69,89,Electric Guitar
474.75,0.0,54,60,Electric Guitar
474.75,0.0,70,60,Electric Guitar
474.75,0.0,42,71,Electric Guitar
474.75,0.0,62,78,Electric Guitar
474.75,0.0,65,78,Electric Guitar
474.75,0.0,57,78,Electric Guitar
475.0,0.12195121951219512,74,110,Electric Guitar
475.0,0.12195121951219512,38,127,Electric Guitar
475.0,0.12195121951219512,36,127,Electric Guitar
475.0,0.12195121951219512,38,127,Electric Guitar
475.0,0.0,42,94,Electric Guitar
475.0,0.0,54,94,Electric Guitar
475.0,0.0,70,94,Electric Guitar
475.0,0.0,44,124,Electric Guitar
475.0,0.0,40,124,Electric Guitar
475.0,0.24390243902439024,87,127,Electric Guitar
475.0,0.24390243902439024,75,127,Electric Guitar
475.0,0.0,57,107,Electric Guitar
475.0,0.0,62,107,Electric Guitar
475.0,0.0,65,107,Electric Guitar
475.25,0.16260162601626016,72,98,Electric Guitar
475.25,0.12195121951219512,33,127,Electric Guitar
475.25,0.0,42,90,Electric Guitar
475.25,0.0,54,90,Electric Guitar
475.25,0.0,70,90,Electric Guitar
475.25,0.0,36,86,Electric Guitar
475.25,0.0,42,86,Electric Guitar
475.25,0.0,65,89,Electric Guitar
475.25,0.0,62,89,Electric Guitar
475.25,0.0,57,89,Electric Guitar
475.5,0.3252032520325203,69,100,Electric Guitar
475.5,0.24390243902439024,26,127,Electric Guitar
475.5,0.0,53,127,Electric Guitar
475.5,0.0,60,127,Electric Guitar
475.5,0.12195121951219512,57,127,Electric Guitar
475.5,0.12195121951219512,64,127,Electric Guitar
475.5,0.12195121951219512,38,127,Electric Guitar
475.5,0.0,46,127,Electric Guitar
475.5,0.0,54,127,Electric Guitar
475.5,0.0,70,127,Electric Guitar
475.5,0.0,42,89,Electric Guitar
475.5,1.7073170731707317,86,127,Electric Guitar
475.5,1.7073170731707317,74,127,Electric Guitar
475.5,0.0,57,84,Electric Guitar
475.5,0.0,65,84,Electric Guitar
475.5,0.0,62,84,Electric Guitar
475.75,0.12195121951219512,38,77,Electric Guitar
475.75,0.0,54,82,Electric Guitar
475.75,0.0,70,82,Electric Guitar
475.75,0.0,36,84,Electric Guitar
475.75,0.0,42,84,Electric Guitar
475.75,0.0,65,84,Electric Guitar
475.75,0.0,62,84,Electric Guitar
475.75,0.0,57,84,Electric Guitar
476.0,0.16260162601626016,76,119,Electric Guitar
476.0,0.24390243902439024,28,127,Electric Guitar
476.0,0.7317073170731707,64,105,Electric Guitar
476.0,0.7317073170731707,71,105,Electric Guitar
476.0,0.8130081300813008,74,102,Electric Guitar
476.0,0.8130081300813008,68,102,Electric Guitar
476.0,0.8130081300813008,52,102,Electric Guitar
476.0,0.0,56,127,Electric Guitar
476.0,0.0,52,127,Electric Guitar
476.0,0.0,64,127,Electric Guitar
476.0,0.0,59,127,Electric Guitar
476.0,0.12195121951219512,40,127,Electric Guitar
476.0,0.12195121951219512,36,127,Electric Guitar
476.0,0.0,42,99,Electric Guitar
476.0,0.0,54,99,Electric Guitar
476.0,0.0,70,99,Electric Guitar
476.0,0.0,36,110,Electric Guitar
476.0,0.0,42,110,Electric Guitar
476.0,1.951219512195122,62,127,Electric Guitar
476.0,1.951219512195122,52,127,Electric Guitar
476.0,0.24390243902439024,76,107,Electric Guitar
476.0,0.24390243902439024,64,107,Electric Guitar
476.0,0.0,64,113,Electric Guitar
476.0,0.0,56,113,Electric Guitar
476.0,0.0,59,113,Electric Guitar
476.25,0.12195121951219512,74,88,Electric Guitar
476.25,0.0,42,82,Electric Guitar
476.25,0.0,54,82,Electric Guitar
476.25,0.0,70,82,Electric Guitar
476.25,0.0,42,63,Electric Guitar
476.25,0.0,64,79,Electric Guitar
476.25,0.0,59,79,Electric Guitar
476.25,0.0,56,79,Electric Guitar
476.5,0.12195121951219512,69,94,Electric Guitar
476.5,0.24390243902439024,28,127,Electric Guitar
476.5,0.0,46,124,Electric Guitar
476.5,0.0,54,124,Electric Guitar
476.5,0.0,70,124,Electric Guitar
476.5,0.0,42,93,Electric Guitar
476.5,0.0,64,79,Electric Guitar
476.5,0.0,59,79,Electric Guitar
476.5,0.0,56,79,Electric Guitar
476.75,0.16260162601626016,76,114,Electric Guitar
476.75,0.0,54,60,Electric Guitar
476.75,0.0,70,60,Electric Guitar
476.75,0.0,36,85,Electric Guitar
476.75,0.0,42,85,Electric Guitar
476.75,0.0,64,75,Electric Guitar
476.75,0.0,59,75,Electric Guitar
476.75,0.0,56,75,Electric Guitar
477.0,0.12195121951219512,74,92,Electric Guitar
477.0,0.12195121951219512,40,127,Electric Guitar
477.0,0.3252032520325203,40,127,Electric Guitar
477.0,0.24390243902439024,56,127,Electric Guitar
477.0,0.24390243902439024,52,127,Electric Guitar
477.0,0.24390243902439024,59,127,Electric Guitar
477.0,0.24390243902439024,64,127,Electric Guitar
477.0,0.12195121951219512,36,127,Electric Guitar
477.0,0.12195121951219512,38,127,Electric Guitar
477.0,0.0,42,94,Electric Guitar
477.0,0.0,54,94,Electric Guitar
477.0,0.0,70,94,Electric Guitar
477.0,0.0,42,106,Electric Guitar
477.0,0.0,40,106,Electric Guitar
477.0,0.0,56,107,Electric Guitar
477.0,0.0,64,107,Electric Guitar
477.0,0.0,59,107,Electric Guitar
477.25,0.12195121951219512,69,92,Electric Guitar
477.25,0.12195121951219512,28,127,Electric Guitar
477.25,0.0,42,90,Electric Guitar
477.25,0.0,54,90,Electric Guitar
477.25,0.0,70,90,Electric Guitar
477.25,0.0,42,53,Electric Guitar
477.25,0.0,64,72,Electric Guitar
477.25,0.0,56,72,Electric Guitar
477.25,0.0,59,72,Electric Guitar
477.5,0.12195121951219512,76,110,Electric Guitar
477.5,0.12195121951219512,28,127,Electric Guitar
477.5,0.0,46,127,Electric Guitar
477.5,0.0,54,127,Electric Guitar
477.5,0.0,70,127,Electric Guitar
477.5,0.0,36,102,Electric Guitar
477.5,0.0,42,102,Electric Guitar
477.5,0.0,64,67,Electric Guitar
477.5,0.0,59,67,Electric Guitar
477.5,0.0,56,67,Electric Guitar
477.75,0.12195121951219512,74,89,Electric Guitar
477.75,0.36585365853658536,28,127,Electric Guitar
477.75,0.0,56,127,Electric Guitar
477.75,0.0,64,127,Electric Guitar
477.75,0.0,52,127,Electric Guitar
477.75,0.0,59,127,Electric Guitar
477.75,0.12195121951219512,40,127,Electric Guitar
477.75,0.0,54,82,Electric Guitar
477.75,0.0,70,82,Electric Guitar
477.75,0.0,36,84,Electric Guitar
477.75,0.0,42,84,Electric Guitar
477.75,0.0,64,68,Electric Guitar
477.75,0.0,56,68,Electric Guitar
477.75,0.0,59,68,Electric Guitar
478.0,0.12195121951219512,69,86,Electric Guitar
478.0,0.12195121951219512,36,127,Electric Guitar
478.0,0.0,42,99,Electric Guitar
478.0,0.0,54,99,Electric Guitar
478.0,0.0,70,99,Electric Guitar
478.0,0.0,44,117,Electric Guitar
478.0,0.0,56,113,Electric Guitar
478.0,0.0,64,113,Electric Guitar
478.0,0.0,59,113,Electric Guitar
478.25,0.12195121951219512,76,105,Electric Guitar
478.25,0.0,42,82,Electric Guitar
478.25,0.0,54,82,Electric Guitar
478.25,0.0,70,82,Electric Guitar
478.25,0.12195121951219512,38,77,Electric Guitar
478.25,0.0,42,63,Electric Guitar
478.25,0.0,59,70,Electric Guitar
478.25,0.0,64,70,Electric Guitar
478.25,0.0,56,70,Electric Guitar
478.5,0.16260162601626016,74,91,Electric Guitar
478.5,0.12195121951219512,28,127,Electric Guitar
478.5,0.36585365853658536,40,127,Electric Guitar
478.5,0.36585365853658536,56,127,Electric Guitar
478.5,0.36585365853658536,52,127,Electric Guitar
478.5,0.36585365853658536,59,127,Electric Guitar
478.5,0.36585365853658536,64,127,Electric Guitar
478.5,0.0,46,124,Electric Guitar
478.5,0.0,54,124,Electric Guitar
478.5,0.0,70,124,Electric Guitar
478.5,0.0,36,100,Electric Guitar
478.5,0.0,42,100,Electric Guitar
478.5,0.0,64,81,Electric Guitar
478.5,0.0,56,81,Electric Guitar
478.5,0.0,59,81,Electric Guitar
478.75,0.12195121951219512,69,102,Electric Guitar
478.75,0.12195121951219512,28,127,Electric Guitar
478.75,0.0,54,60,Electric Guitar
478.75,0.0,70,60,Electric Guitar
478.75,0.0,42,71,Electric Guitar
478.75,0.0,59,71,Electric Guitar
478.75,0.0,64,71,Electric Guitar
478.75,0.0,56,71,Electric Guitar
479.0,0.24390243902439024,76,117,Electric Guitar
479.0,0.12195121951219512,40,127,Electric Guitar
479.0,0.12195121951219512,36,127,Electric Guitar
479.0,0.12195121951219512,38,127,Electric Guitar
479.0,0.0,42,94,Electric Guitar
479.0,0.0,54,94,Electric Guitar
479.0,0.0,70,94,Electric Guitar
479.0,0.0,44,124,Electric Guitar
479.0,0.0,40,124,Electric Guitar
479.0,0.12195121951219512,76,127,Electric Guitar
479.0,0.12195121951219512,77,127,Electric Guitar
479.0,0.12195121951219512,76,127,Electric Guitar
479.0,0.12195121951219512,77,127,Electric Guitar
479.0,0.0,56,110,Electric Guitar
479.0,0.0,64,110,Electric Guitar
479.0,0.0,59,110,Electric Guitar
479.25,0.12195121951219512,38,127,Electric Guitar
479.25,0.0,42,90,Electric Guitar
479.25,0.0,54,90,Electric Guitar
479.25,0.0,70,90,Electric Guitar
479.25,0.0,36,86,Electric Guitar
479.25,0.0,42,86,Electric Guitar
479.25,0.12195121951219512,79,127,Electric Guitar
479.25,0.12195121951219512,79,127,Electric Guitar
479.25,0.0,56,68,Electric Guitar
479.25,0.0,59,68,Electric Guitar
479.25,0.0,64,68,Electric Guitar
479.3333333333333,0.12195121951219512,81,127,Electric Guitar
479.3333333333333,0.12195121951219512,81,127,Electric Guitar
479.5,0.24390243902439024,79,107,Electric Guitar
479.5,0.24390243902439024,40,127,Electric Guitar
479.5,0.12195121951219512,40,127,Electric Guitar
479.5,0.0,56,127,Electric Guitar
479.5,0.0,59,127,Electric Guitar
479.5,0.0,64,127,Electric Guitar
479.5,0.0,52,127,Electric Guitar
479.5,0.0,46,127,Electric Guitar
479.5,0.0,54,127,Electric Guitar
479.5,0.0,70,127,Electric Guitar
479.5,0.0,42,89,Electric Guitar
479.5,0.12195121951219512,83,127,Electric Guitar
479.5,0.12195121951219512,83,127,Electric Guitar
479.5,0.0,64,77,Electric Guitar
479.5,0.0,56,77,Electric Guitar
479.5,0.0,59,77,Electric Guitar
479.6666666666667,0.12195121951219512,84,127,Electric Guitar
479.6666666666667,0.12195121951219512,84,127,Electric Guitar
479.75,0.12195121951219512,38,77,Electric Guitar
479.75,0.0,54,82,Electric Guitar
479.75,0.0,70,82,Electric Guitar
479.75,0.0,36,84,Electric Guitar
479.75,0.0,42,84,Electric Guitar
479.75,0.12195121951219512,86,127,Electric Guitar
479.75,0.12195121951219512,86,127,Electric Guitar
479.75,0.0,64,72,Electric Guitar
479.75,0.0,56,72,Electric Guitar
479.75,0.0,59,72,Electric Guitar
480.0,1.4634146341463414,79,110,Electric Guitar
480.0,0.16260162601626016,29,127,Electric Guitar
480.0,0.4878048780487805,53,110,Electric Guitar
480.0,0.4878048780487805,76,110,Electric Guitar
480.0,0.4878048780487805,72,110,Electric Guitar
480.0,0.4878048780487805,69,110,Electric Guitar
480.0,0.4878048780487805,65,110,Electric Guitar
480.0,0.0,57,127,Electric Guitar
480.0,0.0,60,127,Electric Guitar
480.0,0.0,53,127,Electric Guitar
480.0,0.0,64,127,Electric Guitar
480.0,0.12195121951219512,41,127,Electric Guitar
480.0,0.12195121951219512,36,127,Electric Guitar
480.0,0.12195121951219512,49,127,Electric Guitar
480.0,0.0,42,99,Electric Guitar
480.0,0.0,54,99,Electric Guitar
480.0,0.0,70,99,Electric Guitar
480.0,0.0,36,110,Electric Guitar
480.0,0.0,42,110,Electric Guitar
480.0,1.5853658536585367,88,127,Electric Guitar
480.0,0.975609756097561,57,127,Electric Guitar
480.0,1.4634146341463414,76,127,Electric Guitar
480.0,0.975609756097561,45,127,Electric Guitar
480.0,0.16260162601626016,81,107,Electric Guitar
480.0,0.16260162601626016,69,107,Electric Guitar
480.0,0.0,57,115,Electric Guitar
480.0,0.0,65,115,Electric Guitar
480.0,0.0,60,115,Electric Guitar
480.25,0.0,42,82,Electric Guitar
480.25,0.0,54,82,Electric Guitar
480.25,0.0,70,82,Electric Guitar
480.25,0.0,42,63,Electric Guitar
480.25,0.0,60,88,Electric Guitar
480.25,0.0,57,88,Electric Guitar
480.25,0.0,65,88,Electric Guitar
480.5,0.24390243902439024,41,127,Electric Guitar
480.5,0.0,46,124,Electric Guitar
480.5,0.0,54,124,Electric Guitar
480.5,0.0,70,124,Electric Guitar
480.5,0.0,42,93,Electric Guitar
480.5,0.0,60,88,Electric Guitar
480.5,0.0,57,88,Electric Guitar
480.5,0.0,65,88,Electric Guitar
480.75,0.0,54,60,Electric Guitar
480.75,0.0,70,60,Electric Guitar
480.75,0.0,36,85,Electric Guitar
480.75,0.0,42,85,Electric Guitar
480.75,0.0,60,80,Electric Guitar
480.75,0.0,57,80,Electric Guitar
480.75,0.0,65,80,Electric Guitar
481.0,0.12195121951219512,36,127,Electric Guitar
481.0,0.3252032520325203,41,127,Electric Guitar
481.0,0.3252032520325203,64,127,Electric Guitar
481.0,0.24390243902439024,60,127,Electric Guitar
481.0,0.24390243902439024,57,127,Electric Guitar
481.0,0.24390243902439024,53,127,Electric Guitar
481.0,0.12195121951219512,36,127,Electric Guitar
481.0,0.12195121951219512,38,127,Electric Guitar
481.0,0.0,42,94,Electric Guitar
481.0,0.0,54,94,Electric Guitar
481.0,0.0,70,94,Electric Guitar
481.0,0.0,42,106,Electric Guitar
481.0,0.0,40,106,Electric Guitar
481.0,0.0,65,116,Electric Guitar
481.0,0.0,57,116,Electric Guitar
481.0,0.0,60,116,Electric Guitar
481.25,0.12195121951219512,38,127,Electric Guitar
481.25,0.0,42,90,Electric Guitar
481.25,0.0,54,90,Electric Guitar
481.25,0.0,70,90,Electric Guitar
481.25,0.0,42,53,Electric Guitar
481.25,0.0,60,89,Electric Guitar
481.25,0.0,57,89,Electric Guitar
481.25,0.0,65,89,Electric Guitar
481.5,0.12195121951219512,39,127,Electric Guitar
481.5,0.0,46,127,Electric Guitar
481.5,0.0,54,127,Electric Guitar
481.5,0.0,70,127,Electric Guitar
481.5,0.0,36,102,Electric Guitar
481.5,0.0,42,102,Electric Guitar
481.5,0.0,65,90,Electric Guitar
481.5,0.0,60,90,Electric Guitar
481.5,0.0,57,90,Electric Guitar
481.75,0.36585365853658536,40,127,Electric Guitar
481.75,0.6097560975609756,64,105,Electric Guitar
481.75,0.6097560975609756,71,105,Electric Guitar
481.75,0.8536585365853658,52,107,Electric Guitar
481.75,0.6504065040650406,68,84,Electric Guitar
481.75,0.7317073170731707,74,102,Electric Guitar
481.75,0.0,40,127,Electric Guitar
481.75,0.0,64,127,Electric Guitar
481.75,0.0,56,127,Electric Guitar
481.75,0.0,52,127,Electric Guitar
481.75,0.0,59,127,Electric Guitar
481.75,0.0,54,82,Electric Guitar
481.75,0.0,70,82,Electric Guitar
481.75,0.0,36,84,Electric Guitar
481.75,0.0,42,84,Electric Guitar
481.75,0.0,65,87,Electric Guitar
481.75,0.0,60,87,Electric Guitar
481.75,0.0,57,87,Electric Guitar
482.0,0.12195121951219512,36,127,Electric Guitar
482.0,0.0,42,99,Electric Guitar
482.0,0.0,54,99,Electric Guitar
482.0,0.0,70,99,Electric Guitar
482.0,0.0,44,117,Electric Guitar
482.0,0.12195121951219512,62,127,Electric Guitar
482.0,0.12195121951219512,50,127,Electric Guitar
482.0,0.0,59,117,Electric Guitar
482.0,0.0,56,117,Electric Guitar
482.0,0.0,64,117,Electric Guitar
482.25,0.0,42,82,Electric Guitar
482.25,0.0,54,82,Electric Guitar
482.25,0.0,70,82,Electric Guitar
482.25,0.12195121951219512,38,77,Electric Guitar
482.25,0.0,42,63,Electric Guitar
482.25,0.12195121951219512,63,127,Electric Guitar
482.25,0.12195121951219512,51,127,Electric Guitar
482.25,0.0,64,99,Electric Guitar
482.25,0.0,56,99,Electric Guitar
482.25,0.0,59,99,Electric Guitar
482.5,0.24390243902439024,28,127,Electric Guitar
482.5,0.36585365853658536,56,127,Electric Guitar
482.5,0.36585365853658536,52,127,Electric Guitar
482.5,0.36585365853658536,64,127,Electric Guitar
482.5,0.36585365853658536,40,127,Electric Guitar
482.5,0.36585365853658536,59,127,Electric Guitar
482.5,0.0,46,124,Electric Guitar
482.5,0.0,54,124,Electric Guitar
482.5,0.0,70,124,Electric Guitar
482.5,0.0,36,100,Electric Guitar
482.5,0.0,42,100,Electric Guitar
482.5,0.12195121951219512,64,127,Electric Guitar
482.5,0.12195121951219512,52,127,Electric Guitar
482.5,0.16260162601626016,81,107,Electric Guitar
482.5,0.16260162601626016,69,107,Electric Guitar
482.5,0.0,59,78,Electric Guitar
482.5,0.0,64,78,Electric Guitar
482.5,0.0,56,78,Electric Guitar
482.75,0.0,54,60,Electric Guitar
482.75,0.0,70,60,Electric Guitar
482.75,0.0,42,71,Electric Guitar
482.75,0.24390243902439024,67,127,Electric Guitar
482.75,0.24390243902439024,55,127,Electric Guitar
482.75,0.0,56,80,Electric Guitar
482.75,0.0,59,80,Electric Guitar
482.75,0.0,64,80,Electric Guitar
483.0,0.12195121951219512,35,127,Electric Guitar
483.0,0.12195121951219512,36,127,Electric Guitar
483.0,0.12195121951219512,38,127,Electric Guitar
483.0,0.0,42,94,Electric Guitar
483.0,0.0,54,94,Electric Guitar
483.0,0.0,70,94,Electric Guitar
483.0,0.0,44,124,Electric Guitar
483.0,0.0,40,124,Electric Guitar
483.0,0.4878048780487805,92,127,Electric Guitar
483.0,0.4878048780487805,80,127,Electric Guitar
483.0,0.0,56,115,Electric Guitar
483.0,0.0,64,115,Electric Guitar
483.0,0.0,59,115,Electric Guitar
483.25,0.12195121951219512,38,127,Electric Guitar
483.25,0.0,42,90,Electric Guitar
483.25,0.0,54,90,Electric Guitar
483.25,0.0,70,90,Electric Guitar
483.25,0.0,36,86,Electric Guitar
483.25,0.0,42,86,Electric Guitar
483.25,0.12195121951219512,64,127,Electric Guitar
483.25,0.12195121951219512,52,127,Electric Guitar
483.25,0.16260162601626016,80,107,Electric Guitar
483.25,0.16260162601626016,68,107,Electric Guitar
483.25,0.0,56,90,Electric Guitar
483.25,0.0,59,90,Electric Guitar
483.25,0.0,64,90,Electric Guitar
483.5,0.24390243902439024,76,120,Electric Guitar
483.5,0.24390243902439024,40,127,Electric Guitar
483.5,0.0,52,127,Electric Guitar
483.5,0.0,56,127,Electric Guitar
483.5,0.0,64,127,Electric Guitar
483.5,0.0,40,127,Electric Guitar
483.5,0.0,59,127,Electric Guitar
483.5,0.0,46,127,Electric Guitar
483.5,0.0,54,127,Electric Guitar
483.5,0.0,70,127,Electric Guitar
483.5,0.0,42,89,Electric Guitar
483.5,0.24390243902439024,67,127,Electric Guitar
483.5,0.24390243902439024,55,127,Electric Guitar
483.5,0.0,64,87,Electric Guitar
483.5,0.0,59,87,Electric Guitar
483.5,0.0,56,87,Electric Guitar
483.75,0.12195121951219512,38,77,Electric Guitar
483.75,0.0,54,82,Electric Guitar
483.75,0.0,70,82,Electric Guitar
483.75,0.0,36,84,Electric Guitar
483.75,0.0,42,84,Electric Guitar
483.75,0.0,64,92,Electric Guitar
483.75,0.0,59,92,Electric Guitar
483.75,0.0,56,92,Electric Guitar
484.0,0.6504065040650406,69,113,Electric Guitar
484.0,0.24390243902439024,33,127,Electric Guitar
484.0,0.4878048780487805,67,108,Electric Guitar
484.0,0.4878048780487805,57,108,Electric Guitar
484.0,0.4878048780487805,76,102,Electric Guitar
484.0,0.4878048780487805,72,102,Electric Guitar
484.0,0.0,55,127,Electric Guitar
484.0,0.0,60,127,Electric Guitar
484.0,0.0,59,127,Electric Guitar
484.0,0.12195121951219512,64,127,Electric Guitar
484.0,0.12195121951219512,45,127,Electric Guitar
484.0,0.12195121951219512,36,127,Electric Guitar
484.0,0.0,42,99,Electric Guitar
484.0,0.0,54,99,Electric Guitar
484.0,0.0,70,99,Electric Guitar
484.0,0.0,36,110,Electric Guitar
484.0,0.0,42,110,Electric Guitar
484.0,0.4878048780487805,93,127,Electric Guitar
484.0,0.7317073170731707,69,127,Electric Guitar
484.0,0.4878048780487805,81,127,Electric Guitar
484.0,0.7317073170731707,57,127,Electric Guitar
484.0,0.16260162601626016,69,107,Electric Guitar
484.0,0.24390243902439024,81,107,Electric Guitar
484.0,0.0,64,116,Electric Guitar
484.0,0.0,60,116,Electric Guitar
484.0,0.0,57,116,Electric Guitar
484.25,0.0,42,82,Electric Guitar
484.25,0.0,54,82,Electric Guitar
484.25,0.0,70,82,Electric Guitar
484.25,0.0,42,63,Electric Guitar
484.25,0.0,64,94,Electric Guitar
484.25,0.0,60,94,Electric Guitar
484.25,0.0,57,94,Electric Guitar
484.5,0.24390243902439024,45,127,Electric Guitar
484.5,0.0,46,124,Electric Guitar
484.5,0.0,54,124,Electric Guitar
484.5,0.0,70,124,Electric Guitar
484.5,0.0,42,93,Electric Guitar
484.5,0.0,64,66,Electric Guitar
484.5,0.0,60,66,Electric Guitar
484.5,0.0,57,66,Electric Guitar
484.75,0.0,54,60,Electric Guitar
484.75,0.0,70,60,Electric Guitar
484.75,0.0,36,85,Electric Guitar
484.75,0.0,42,85,Electric Guitar
484.75,0.0,64,88,Electric Guitar
484.75,0.0,60,88,Electric Guitar
484.75,0.0,57,88,Electric Guitar
485.0,0.12195121951219512,35,127,Electric Guitar
485.0,0.24390243902439024,55,127,Electric Guitar
485.0,0.24390243902439024,64,127,Electric Guitar
485.0,0.24390243902439024,60,127,Electric Guitar
485.0,0.24390243902439024,59,127,Electric Guitar
485.0,0.3252032520325203,45,127,Electric Guitar
485.0,0.12195121951219512,36,127,Electric Guitar
485.0,0.12195121951219512,38,127,Electric Guitar
485.0,0.0,42,94,Electric Guitar
485.0,0.0,54,94,Electric Guitar
485.0,0.0,70,94,Electric Guitar
485.0,0.0,42,106,Electric Guitar
485.0,0.0,40,106,Electric Guitar
485.0,0.4878048780487805,95,127,Electric Guitar
485.0,0.4878048780487805,83,127,Electric Guitar
485.0,0.0,64,114,Electric Guitar
485.0,0.0,60,114,Electric Guitar
485.0,0.0,57,114,Electric Guitar
485.25,0.12195121951219512,36,127,Electric Guitar
485.25,0.0,42,90,Electric Guitar
485.25,0.0,54,90,Electric Guitar
485.25,0.0,70,90,Electric Guitar
485.25,0.0,42,53,Electric Guitar
485.25,0.0,64,85,Electric Guitar
485.25,0.0,60,85,Electric Guitar
485.25,0.0,57,85,Electric Guitar
485.5,0.16260162601626016,72,110,Electric Guitar
485.5,0.12195121951219512,37,127,Electric Guitar
485.5,0.0,46,127,Electric Guitar
485.5,0.0,54,127,Electric Guitar
485.5,0.0,70,127,Electric Guitar
485.5,0.0,36,102,Electric Guitar
485.5,0.0,42,102,Electric Guitar
485.5,0.0,64,96,Electric Guitar
485.5,0.0,60,96,Electric Guitar
485.5,0.0,57,96,Electric Guitar
485.75,0.12195121951219512,38,127,Electric Guitar
485.75,0.6097560975609756,76,108,Electric Guitar
485.75,0.6097560975609756,50,108,Electric Guitar
485.75,0.4878048780487805,72,101,Electric Guitar
485.75,0.4878048780487805,66,101,Electric Guitar
485.75,0.4878048780487805,69,100,Electric Guitar
485.75,0.0,60,127,Electric Guitar
485.75,0.0,64,127,Electric Guitar
485.75,0.0,54,127,Electric Guitar
485.75,0.0,57,127,Electric Guitar
485.75,0.12195121951219512,38,127,Electric Guitar
485.75,0.0,54,82,Electric Guitar
485.75,0.0,70,82,Electric Guitar
485.75,0.0,36,84,Electric Guitar
485.75,0.0,42,84,Electric Guitar
485.75,0.0,64,85,Electric Guitar
485.75,0.0,57,85,Electric Guitar
485.75,0.0,60,85,Electric Guitar
486.0,0.7317073170731707,76,117,Electric Guitar
486.0,0.24390243902439024,38,127,Electric Guitar
486.0,0.12195121951219512,36,127,Electric Guitar
486.0,0.0,42,99,Electric Guitar
486.0,0.0,54,99,Electric Guitar
486.0,0.0,70,99,Electric Guitar
486.0,0.0,44,117,Electric Guitar
486.0,0.4878048780487805,96,127,Electric Guitar
486.0,0.12195121951219512,72,127,Electric Guitar
486.0,0.4878048780487805,84,127,Electric Guitar
486.0,0.12195121951219512,60,127,Electric Guitar
486.0,0.0,62,115,Electric Guitar
486.0,0.0,66,115,Electric Guitar
486.0,0.0,57,115,Electric Guitar
486.25,0.0,42,82,Electric Guitar
486.25,0.0,54,82,Electric Guitar
486.25,0.0,70,82,Electric Guitar
486.25,0.12195121951219512,38,77,Electric Guitar
486.25,0.0,42,63,Electric Guitar
486.25,0.12195121951219512,69,127,Electric Guitar
486.25,0.12195121951219512,57,127,Electric Guitar
486.25,0.0,66,78,Electric Guitar
486.25,0.0,62,78,Electric Guitar
486.25,0.0,57,78,Electric Guitar
486.5,0.24390243902439024,45,127,Electric Guitar
486.5,0.36585365853658536,38,127,Electric Guitar
486.5,0.36585365853658536,54,127,Electric Guitar
486.5,0.36585365853658536,57,127,Electric Guitar
486.5,0.36585365853658536,64,127,Electric Guitar
486.5,0.36585365853658536,60,127,Electric Guitar
486.5,0.0,46,124,Electric Guitar
486.5,0.0,54,124,Electric Guitar
486.5,0.0,70,124,Electric Guitar
486.5,0.0,36,100,Electric Guitar
486.5,0.0,42,100,Electric Guitar
486.5,0.12195121951219512,67,127,Electric Guitar
486.5,0.12195121951219512,55,127,Electric Guitar
486.5,0.12195121951219512,69,107,Electric Guitar
486.5,0.12195121951219512,81,107,Electric Guitar
486.5,0.0,66,78,Electric Guitar
486.5,0.0,57,78,Electric Guitar
486.5,0.0,62,78,Electric Guitar
486.75,0.0,54,60,Electric Guitar
486.75,0.0,70,60,Electric Guitar
486.75,0.0,42,71,Electric Guitar
486.75,0.12195121951219512,63,127,Electric Guitar
486.75,0.12195121951219512,51,127,Electric Guitar
486.75,0.0,62,84,Electric Guitar
486.75,0.0,66,84,Electric Guitar
486.75,0.0,57,84,Electric Guitar
487.0,0.12195121951219512,48,127,Electric Guitar
487.0,0.12195121951219512,36,127,Electric Guitar
487.0,0.12195121951219512,38,127,Electric Guitar
487.0,0.0,42,94,Electric Guitar
487.0,0.0,54,94,Electric Guitar
487.0,0.0,70,94,Electric Guitar
487.0,0.0,44,124,Electric Guitar
487.0,0.0,40,124,Electric Guitar
487.0,0.4878048780487805,98,127,Electric Guitar
487.0,0.12195121951219512,62,127,Electric Guitar
487.0,0.4878048780487805,86,127,Electric Guitar
487.0,0.12195121951219512,50,127,Electric Guitar
487.0,0.12195121951219512,69,107,Electric Guitar
487.0,0.12195121951219512,81,107,Electric Guitar
487.0,0.0,66,112,Electric Guitar
487.0,0.0,57,112,Electric Guitar
487.0,0.0,62,112,Electric Guitar
487.25,0.12195121951219512,50,127,Electric Guitar
487.25,0.0,42,90,Electric Guitar
487.25,0.0,54,90,Electric Guitar
487.25,0.0,70,90,Electric Guitar
487.25,0.0,36,86,Electric Guitar
487.25,0.0,42,86,Electric Guitar
487.25,0.12195121951219512,60,127,Electric Guitar
487.25,0.12195121951219512,48,127,Electric Guitar
487.25,0.24390243902439024,84,107,Electric Guitar
487.25,0.16260162601626016,72,107,Electric Guitar
487.25,0.0,66,92,Electric Guitar
487.25,0.0,62,92,Electric Guitar
487.25,0.0,57,92,Electric Guitar
487.5,0.24390243902439024,79,112,Electric Guitar
487.5,0.12195121951219512,48,127,Electric Guitar
487.5,0.0,54,127,Electric Guitar
487.5,0.0,60,127,Electric Guitar
487.5,0.0,64,127,Electric Guitar
487.5,0.0,57,127,Electric Guitar
487.5,0.12195121951219512,38,127,Electric Guitar
487.5,0.0,46,127,Electric Guitar
487.5,0.0,54,127,Electric Guitar
487.5,0.0,70,127,Electric Guitar
487.5,0.0,42,89,Electric Guitar
487.5,0.12195121951219512,57,127,Electric Guitar
487.5,0.12195121951219512,45,127,Electric Guitar
487.5,0.0,66,83,Electric Guitar
487.5,0.0,57,83,Electric Guitar
487.5,0.0,62,83,Electric Guitar
487.75,0.12195121951219512,33,127,Electric Guitar
487.75,0.12195121951219512,38,77,Electric Guitar
487.75,0.0,54,82,Electric Guitar
487.75,0.0,70,82,Electric Guitar
487.75,0.0,36,84,Electric Guitar
487.75,0.0,42,84,Electric Guitar
487.75,0.12195121951219512,55,127,Electric Guitar
487.75,0.12195121951219512,43,127,Electric Guitar
487.75,0.0,66,85,Electric Guitar
487.75,0.0,62,85,Electric Guitar
487.75,0.0,57,85,Electric Guitar
488.0,0.16260162601626016,75,122,Electric Guitar
488.0,0.16260162601626016,50,127,Electric Guitar
488.0,0.4878048780487805,72,104,Electric Guitar
488.0,0.4878048780487805,76,104,Electric Guitar
488.0,0.4878048780487805,69,104,Electric Guitar
488.0,0.4878048780487805,50,114,Electric Guitar
488.0,0.4878048780487805,65,114,Electric Guitar
488.0,0.16260162601626016,38,127,Electric Guitar
488.0,0.0,57,127,Electric Guitar
488.0,0.0,60,127,Electric Guitar
488.0,0.0,53,127,Electric Guitar
488.0,0.0,64,127,Electric Guitar
488.0,0.12195121951219512,36,127,Electric Guitar
488.0,0.0,42,99,Electric Guitar
488.0,0.0,54,99,Electric Guitar
488.0,0.0,70,99,Electric Guitar
488.0,0.0,36,110,Electric Guitar
488.0,0.0,42,110,Electric Guitar
488.0,0.975609756097561,98,127,Electric Guitar
488.0,0.975609756097561,57,127,Electric Guitar
488.0,0.975609756097561,86,127,Electric Guitar
488.0,0.975609756097561,45,127,Electric Guitar
488.0,0.16260162601626016,81,107,Electric Guitar
488.0,0.16260162601626016,69,107,Electric Guitar
488.0,0.0,62,116,Electric Guitar
488.0,0.0,57,116,Electric Guitar
488.0,0.0,65,116,Electric Guitar
488.25,0.12195121951219512,76,122,Electric Guitar
488.25,0.0,42,82,Electric Guitar
488.25,0.0,54,82,Electric Guitar
488.25,0.0,70,82,Electric Guitar
488.25,0.0,42,63,Electric Guitar
488.25,0.0,62,78,Electric Guitar
488.25,0.0,65,78,Electric Guitar
488.25,0.0,57,78,Electric Guitar
488.5,0.12195121951219512,79,110,Electric Guitar
488.5,0.24390243902439024,45,127,Electric Guitar
488.5,0.0,46,124,Electric Guitar
488.5,0.0,54,124,Electric Guitar
488.5,0.0,70,124,Electric Guitar
488.5,0.0,42,93,Electric Guitar
488.5,0.0,62,90,Electric Guitar
488.5,0.0,57,90,Electric Guitar
488.5,0.0,65,90,Electric Guitar
488.75,0.16260162601626016,75,102,Electric Guitar
488.75,0.0,54,60,Electric Guitar
488.75,0.0,70,60,Electric Guitar
488.75,0.0,36,85,Electric Guitar
488.75,0.0,42,85,Electric Guitar
488.75,0.0,65,68,Electric Guitar
488.75,0.0,62,68,Electric Guitar
488.75,0.0,57,68,Electric Guitar
489.0,0.12195121951219512,76,113,Electric Guitar
489.0,0.12195121951219512,38,127,Electric Guitar
489.0,0.24390243902439024,60,127,Electric Guitar
489.0,0.24390243902439024,64,127,Electric Guitar
489.0,0.24390243902439024,57,127,Electric Guitar
489.0,0.24390243902439024,53,127,Electric Guitar
489.0,0.3252032520325203,38,127,Electric Guitar
489.0,0.12195121951219512,36,127,Electric Guitar
489.0,0.12195121951219512,38,127,Electric Guitar
489.0,0.0,42,94,Electric Guitar
489.0,0.0,54,94,Electric Guitar
489.0,0.0,70,94,Electric Guitar
489.0,0.0,42,106,Electric Guitar
489.0,0.0,40,106,Electric Guitar
489.0,0.0,62,117,Electric Guitar
489.0,0.0,65,117,Electric Guitar
489.0,0.0,57,117,Electric Guitar
489.25,0.12195121951219512,79,106,Electric Guitar
489.25,0.12195121951219512,33,127,Electric Guitar
489.25,0.0,42,90,Electric Guitar
489.25,0.0,54,90,Electric Guitar
489.25,0.0,70,90,Electric Guitar
489.25,0.0,42,53,Electric Guitar
489.25,0.0,62,88,Electric Guitar
489.25,0.0,57,88,Electric Guitar
489.25,0.0,65,88,Electric Guitar
489.5,0.16260162601626016,75,108,Electric Guitar
489.5,0.12195121951219512,26,127,Electric Guitar
489.5,0.0,46,127,Electric Guitar
489.5,0.0,54,127,Electric Guitar
489.5,0.0,70,127,Electric Guitar
489.5,0.0,36,102,Electric Guitar
489.5,0.0,42,102,Electric Guitar
489.5,0.0,62,89,Electric Guitar
489.5,0.0,57,89,Electric Guitar
489.5,0.0,65,89,Electric Guitar
489.75,0.12195121951219512,76,113,Electric Guitar
489.75,0.36585365853658536,28,127,Electric Guitar
489.75,0.0,56,127,Electric Guitar
489.75,0.0,62,127,Electric Guitar
489.75,0.0,52,127,Electric Guitar
489.75,0.0,59,127,Electric Guitar
489.75,0.12195121951219512,40,127,Electric Guitar
489.75,0.0,54,82,Electric Guitar
489.75,0.0,70,82,Electric Guitar
489.75,0.0,36,84,Electric Guitar
489.75,0.0,42,84,Electric Guitar
489.75,0.0,62,87,Electric Guitar
489.75,0.0,65,87,Electric Guitar
489.75,0.0,57,87,Electric Guitar
490.0,0.12195121951219512,79,113,Electric Guitar
490.0,0.36585365853658536,64,110,Electric Guitar
490.0,0.4878048780487805,71,98,Electric Guitar
490.0,0.4878048780487805,68,98,Electric Guitar
490.0,0.4878048780487805,74,98,Electric Guitar
490.0,0.8536585365853658,52,105,Electric Guitar
490.0,0.12195121951219512,36,127,Electric Guitar
490.0,0.0,42,99,Electric Guitar
490.0,0.0,54,99,Electric Guitar
490.0,0.0,70,99,Electric Guitar
490.0,0.0,44,117,Electric Guitar
490.0,0.975609756097561,100,127,Electric Guitar
490.0,0.975609756097561,56,127,Electric Guitar
490.0,0.975609756097561,88,127,Electric Guitar
490.0,0.975609756097561,52,127,Electric Guitar
490.0,0.24390243902439024,68,107,Electric Guitar
490.0,0.3252032520325203,80,107,Electric Guitar
490.0,0.0,64,118,Electric Guitar
490.0,0.0,56,118,Electric Guitar
490.0,0.0,59,118,Electric Guitar
490.25,0.12195121951219512,75,98,Electric Guitar
490.25,0.0,42,82,Electric Guitar
490.25,0.0,54,82,Electric Guitar
490.25,0.0,70,82,Electric Guitar
490.25,0.12195121951219512,38,77,Electric Guitar
490.25,0.0,42,63,Electric Guitar
490.25,0.0,56,82,Electric Guitar
490.25,0.0,59,82,Electric Guitar
490.25,0.0,64,82,Electric Guitar
490.5,0.12195121951219512,76,113,Electric Guitar
490.5,0.24390243902439024,28,127,Electric Guitar
490.5,0.36585365853658536,62,127,Electric Guitar
490.5,0.36585365853658536,56,127,Electric Guitar
490.5,0.36585365853658536,40,127,Electric Guitar
490.5,0.36585365853658536,52,127,Electric Guitar
490.5,0.36585365853658536,59,127,Electric Guitar
490.5,0.0,46,124,Electric Guitar
490.5,0.0,54,124,Electric Guitar
490.5,0.0,70,124,Electric Guitar
490.5,0.0,36,100,Electric Guitar
490.5,0.0,42,100,Electric Guitar
490.5,0.0,56,82,Electric Guitar
490.5,0.0,59,82,Electric Guitar
490.5,0.0,64,82,Electric Guitar
490.75,0.12195121951219512,79,113,Electric Guitar
490.75,0.0,54,60,Electric Guitar
490.75,0.0,70,60,Electric Guitar
490.75,0.0,42,71,Electric Guitar
490.75,0.0,59,76,Electric Guitar
490.75,0.0,56,76,Electric Guitar
490.75,0.0,64,76,Electric Guitar
491.0,0.24390243902439024,76,102,Electric Guitar
491.0,0.12195121951219512,31,127,Electric Guitar
491.0,0.12195121951219512,36,127,Electric Guitar
491.0,0.12195121951219512,38,127,Electric Guitar
491.0,0.0,42,94,Electric Guitar
491.0,0.0,54,94,Electric Guitar
491.0,0.0,70,94,Electric Guitar
491.0,0.0,44,124,Electric Guitar
491.0,0.0,40,124,Electric Guitar
491.0,0.0,56,111,Electric Guitar
491.0,0.0,59,111,Electric Guitar
491.0,0.0,64,111,Electric Guitar
491.25,0.12195121951219512,31,127,Electric Guitar
491.25,0.0,42,90,Electric Guitar
491.25,0.0,54,90,Electric Guitar
491.25,0.0,70,90,Electric Guitar
491.25,0.0,36,86,Electric Guitar
491.25,0.0,42,86,Electric Guitar
491.25,0.0,64,74,Electric Guitar
491.25,0.0,59,74,Electric Guitar
491.25,0.0,56,74,Electric Guitar
491.5,0.24390243902439024,79,122,Electric Guitar
491.5,0.24390243902439024,32,127,Electric Guitar
491.5,0.0,52,127,Electric Guitar
491.5,0.0,59,127,Electric Guitar
491.5,0.12195121951219512,56,127,Electric Guitar
491.5,0.12195121951219512,62,127,Electric Guitar
491.5,0.12195121951219512,40,127,Electric Guitar
491.5,0.0,46,127,Electric Guitar
491.5,0.0,54,127,Electric Guitar
491.5,0.0,70,127,Electric Guitar
491.5,0.0,42,89,Electric Guitar
491.5,0.0,56,86,Electric Guitar
491.5,0.0,59,86,Electric Guitar
491.5,0.0,64,86,Electric Guitar
491.75,0.12195121951219512,38,77,Electric Guitar
491.75,0.0,54,82,Electric Guitar
491.75,0.0,70,82,Electric Guitar
491.75,0.0,36,84,Electric Guitar
491.75,0.0,42,84,Electric Guitar
491.75,0.0,56,68,Electric Guitar
491.75,0.0,59,68,Electric Guitar
491.75,0.0,64,68,Electric Guitar
492.0,0.24390243902439024,76,124,Electric Guitar
492.0,0.16260162601626016,33,127,Electric Guitar
492.0,0.6097560975609756,67,107,Electric Guitar
492.0,0.4878048780487805,72,104,Electric Guitar
492.0,0.4878048780487805,76,104,Electric Guitar
492.0,1.4634146341463414,57,103,Electric Guitar
492.0,0.0,55,127,Electric Guitar
492.0,0.0,64,127,Electric Guitar
492.0,0.0,60,127,Electric Guitar
492.0,0.0,59,127,Electric Guitar
492.0,0.12195121951219512,45,127,Electric Guitar
492.0,0.12195121951219512,36,127,Electric Guitar
492.0,0.0,42,99,Electric Guitar
492.0,0.0,54,99,Electric Guitar
492.0,0.0,70,99,Electric Guitar
492.0,0.0,36,110,Electric Guitar
492.0,0.0,42,110,Electric Guitar
492.0,0.4878048780487805,95,127,Electric Guitar
492.0,0.4878048780487805,60,127,Electric Guitar
492.0,0.4878048780487805,83,127,Electric Guitar
492.0,1.951219512195122,45,127,Electric Guitar
492.0,0.24390243902439024,81,107,Electric Guitar
492.0,0.24390243902439024,69,107,Electric Guitar
492.0,0.0,60,107,Electric Guitar
492.0,0.0,57,107,Electric Guitar
492.0,0.0,64,107,Electric Guitar
492.25,0.0,42,82,Electric Guitar
492.25,0.0,54,82,Electric Guitar
492.25,0.0,70,82,Electric Guitar
492.25,0.0,42,63,Electric Guitar
492.25,0.0,64,77,Electric Guitar
492.25,0.0,60,77,Electric Guitar
492.25,0.0,57,77,Electric Guitar
492.5,0.12195121951219512,79,110,Electric Guitar
492.5,0.24390243902439024,40,127,Electric Guitar
492.5,0.0,46,124,Electric Guitar
492.5,0.0,54,124,Electric Guitar
492.5,0.0,70,124,Electric Guitar
492.5,0.0,42,93,Electric Guitar
492.5,0.0,60,75,Electric Guitar
492.5,0.0,64,75,Electric Guitar
492.5,0.0,57,75,Electric Guitar
492.75,0.24390243902439024,76,99,Electric Guitar
492.75,0.0,54,60,Electric Guitar
492.75,0.0,70,60,Electric Guitar
492.75,0.0,36,85,Electric Guitar
492.75,0.0,42,85,Electric Guitar
492.75,0.0,60,74,Electric Guitar
492.75,0.0,64,74,Electric Guitar
492.75,0.0,57,74,Electric Guitar
493.0,0.12195121951219512,43,127,Electric Guitar
493.0,0.3252032520325203,45,127,Electric Guitar
493.0,0.24390243902439024,55,127,Electric Guitar
493.0,0.24390243902439024,64,127,Electric Guitar
493.0,0.24390243902439024,59,127,Electric Guitar
493.0,0.24390243902439024,60,127,Electric Guitar
493.0,0.12195121951219512,36,127,Electric Guitar
493.0,0.12195121951219512,38,127,Electric Guitar
493.0,0.0,42,94,Electric Guitar
493.0,0.0,54,94,Electric Guitar
493.0,0.0,70,94,Electric Guitar
493.0,0.0,42,106,Electric Guitar
493.0,0.0,40,106,Electric Guitar
493.0,0.4878048780487805,96,127,Electric Guitar
493.0,0.4878048780487805,57,127,Electric Guitar
493.0,0.4878048780487805,84,127,Electric Guitar
493.0,0.0,60,112,Electric Guitar
493.0,0.0,57,112,Electric Guitar
493.0,0.0,64,112,Electric Guitar
493.25,0.12195121951219512,79,115,Electric Guitar
493.25,0.12195121951219512,40,127,Electric Guitar
493.25,0.0,42,90,Electric Guitar
493.25,0.0,54,90,Electric Guitar
493.25,0.0,70,90,Electric Guitar
493.25,0.0,42,53,Electric Guitar
493.25,0.0,60,31,Electric Guitar
493.5,0.16260162601626016,76,101,Electric Guitar
493.5,0.12195121951219512,43,127,Electric Guitar
493.5,0.0,46,127,Electric Guitar
493.5,0.0,54,127,Electric Guitar
493.5,0.0,70,127,Electric Guitar
493.5,0.0,36,102,Electric Guitar
493.5,0.0,42,102,Electric Guitar
493.5,0.0,60,85,Electric Guitar
493.5,0.0,64,85,Electric Guitar
493.5,0.0,57,85,Electric Guitar
493.75,0.16260162601626016,79,104,Electric Guitar
493.75,0.36585365853658536,45,127,Electric Guitar
493.75,0.0,55,127,Electric Guitar
493.75,0.0,61,127,Electric Guitar
493.75,0.0,64,127,Electric Guitar
493.75,0.0,58,127,Electric Guitar
493.75,0.12195121951219512,45,127,Electric Guitar
493.75,0.0,54,82,Electric Guitar
493.75,0.0,70,82,Electric Guitar
493.75,0.0,36,84,Electric Guitar
493.75,0.0,42,84,Electric Guitar
493.75,0.0,60,85,Electric Guitar
493.75,0.0,64,85,Electric Guitar
493.75,0.0,57,85,Electric Guitar
494.0,0.36585365853658536,76,108,Electric Guitar
494.0,0.36585365853658536,73,99,Electric Guitar
494.0,0.36585365853658536,67,99,Electric Guitar
494.0,0.36585365853658536,70,99,Electric Guitar
494.0,0.4878048780487805,76,100,Electric Guitar
494.0,0.12195121951219512,36,127,Electric Guitar
494.0,0.0,42,99,Electric Guitar
494.0,0.0,54,99,Electric Guitar
494.0,0.0,70,99,Electric Guitar
494.0,0.0,44,117,Electric Guitar
494.0,0.4878048780487805,100,127,Electric Guitar
494.0,0.4878048780487805,61,127,Electric Guitar
494.0,0.4878048780487805,88,127,Electric Guitar
494.0,0.24390243902439024,76,107,Electric Guitar
494.0,0.24390243902439024,64,107,Electric Guitar
494.0,0.0,60,81,Electric Guitar
494.0,0.0,64,81,Electric Guitar
494.0,0.0,57,81,Electric Guitar
494.25,0.0,42,82,Electric Guitar
494.25,0.0,54,82,Electric Guitar
494.25,0.0,70,82,Electric Guitar
494.25,0.12195121951219512,38,77,Electric Guitar
494.25,0.0,42,63,Electric Guitar
494.25,0.0,61,112,Electric Guitar
494.25,0.0,64,112,Electric Guitar
494.25,0.0,57,112,Electric Guitar
494.5,0.24390243902439024,40,127,Electric Guitar
494.5,0.36585365853658536,45,127,Electric Guitar
494.5,0.36585365853658536,55,127,Electric Guitar
494.5,0.36585365853658536,64,127,Electric Guitar
494.5,0.36585365853658536,58,127,Electric Guitar
494.5,0.36585365853658536,61,127,Electric Guitar
494.5,0.0,46,124,Electric Guitar
494.5,0.0,54,124,Electric Guitar
494.5,0.0,70,124,Electric Guitar
494.5,0.0,36,100,Electric Guitar
494.5,0.0,42,100,Electric Guitar
494.5,0.0,61,81,Electric Guitar
494.5,0.0,57,81,Electric Guitar
494.5,0.0,64,81,Electric Guitar
494.75,0.12195121951219512,69,108,Electric Guitar
494.75,0.0,54,60,Electric Guitar
494.75,0.0,70,60,Electric Guitar
494.75,0.0,42,71,Electric Guitar
494.75,0.0,61,81,Electric Guitar
494.75,0.0,57,81,Electric Guitar
494.75,0.0,64,81,Electric Guitar
495.0,0.24390243902439024,76,104,Electric Guitar
495.0,0.12195121951219512,38,127,Electric Guitar
495.0,0.12195121951219512,36,127,Electric Guitar
495.0,0.12195121951219512,38,127,Electric Guitar
495.0,0.0,42,94,Electric Guitar
495.0,0.0,54,94,Electric Guitar
495.0,0.0,70,94,Electric Guitar
495.0,0.0,44,124,Electric Guitar
495.0,0.0,40,124,Electric Guitar
495.0,0.36585365853658536,103,127,Electric Guitar
495.0,0.4878048780487805,64,127,Electric Guitar
495.0,0.36585365853658536,91,127,Electric Guitar
495.0,0.0,64,80,Electric Guitar
495.0,0.0,61,80,Electric Guitar
495.0,0.0,57,80,Electric Guitar
495.25,0.12195121951219512,38,127,Electric Guitar
495.25,0.0,42,90,Electric Guitar
495.25,0.0,54,90,Electric Guitar
495.25,0.0,70,90,Electric Guitar
495.25,0.0,36,86,Electric Guitar
495.25,0.0,42,86,Electric Guitar
495.25,0.0,64,114,Electric Guitar
495.25,0.0,61,114,Electric Guitar
495.25,0.0,57,114,Electric Guitar
495.5,0.24390243902439024,81,115,Electric Guitar
495.5,0.24390243902439024,40,127,Electric Guitar
495.5,0.12195121951219512,45,127,Electric Guitar
495.5,0.0,55,127,Electric Guitar
495.5,0.0,58,127,Electric Guitar
495.5,0.0,61,127,Electric Guitar
495.5,0.0,64,127,Electric Guitar
495.5,0.0,46,127,Electric Guitar
495.5,0.0,54,127,Electric Guitar
495.5,0.0,70,127,Electric Guitar
495.5,0.0,42,89,Electric Guitar
495.5,0.0,64,93,Electric Guitar
495.5,0.0,61,93,Electric Guitar
495.5,0.0,57,93,Electric Guitar
495.75,0.12195121951219512,38,77,Electric Guitar
495.75,0.0,54,82,Electric Guitar
495.75,0.0,70,82,Electric Guitar
495.75,0.0,36,84,Electric Guitar
495.75,0.0,42,84,Electric Guitar
495.75,0.12195121951219512,102,127,Electric Guitar
495.75,0.12195121951219512,90,127,Electric Guitar
495.75,0.0,64,94,Electric Guitar
495.75,0.0,61,94,Electric Guitar
495.75,0.0,57,94,Electric Guitar
496.0,0.16260162601626016,76,115,Electric Guitar
496.0,0.16260162601626016,29,127,Electric Guitar
496.0,0.4878048780487805,65,117,Electric Guitar
496.0,0.4878048780487805,69,102,Electric Guitar
496.0,0.4878048780487805,76,102,Electric Guitar
496.0,0.4878048780487805,72,102,Electric Guitar
496.0,0.4878048780487805,53,102,Electric Guitar
496.0,0.0,57,127,Electric Guitar
496.0,0.0,60,127,Electric Guitar
496.0,0.0,53,127,Electric Guitar
496.0,0.0,64,127,Electric Guitar
496.0,0.12195121951219512,41,127,Electric Guitar
496.0,0.12195121951219512,36,127,Electric Guitar
496.0,0.12195121951219512,57,127,Electric Guitar
496.0,0.0,42,99,Electric Guitar
496.0,0.0,54,99,Electric Guitar
496.0,0.0,70,99,Electric Guitar
496.0,0.0,36,110,Electric Guitar
496.0,0.0,42,110,Electric Guitar
496.0,0.12195121951219512,101,127,Electric Guitar
496.0,1.4634146341463414,100,127,Electric Guitar
496.0,0.8536585365853658,69,127,Electric Guitar
496.0,0.12195121951219512,89,127,Electric Guitar
496.0,1.4634146341463414,88,127,Electric Guitar
496.0,0.8536585365853658,41,127,Electric Guitar
496.0,0.16260162601626016,81,107,Electric Guitar
496.0,0.16260162601626016,69,107,Electric Guitar
496.0,0.0,57,115,Electric Guitar
496.0,0.0,65,115,Electric Guitar
496.0,0.0,60,115,Electric Guitar
496.25,0.0,42,82,Electric Guitar
496.25,0.0,54,82,Electric Guitar
496.25,0.0,70,82,Electric Guitar
496.25,0.0,42,63,Electric Guitar
496.25,0.0,60,88,Electric Guitar
496.25,0.0,57,88,Electric Guitar
496.25,0.0,65,88,Electric Guitar
496.3333333333333,0.16260162601626016,83,115,Electric Guitar
496.5,0.24390243902439024,41,127,Electric Guitar
496.5,0.0,46,124,Electric Guitar
496.5,0.0,54,124,Electric Guitar
496.5,0.0,70,124,Electric Guitar
496.5,0.0,42,93,Electric Guitar
496.5,0.0,60,88,Electric Guitar
496.5,0.0,57,88,Electric Guitar
496.5,0.0,65,88,Electric Guitar
496.6666666666667,0.16260162601626016,76,101,Electric Guitar
496.75,0.0,54,60,Electric Guitar
496.75,0.0,70,60,Electric Guitar
496.75,0.0,36,85,Electric Guitar
496.75,0.0,42,85,Electric Guitar
496.75,0.0,60,80,Electric Guitar
496.75,0.0,57,80,Electric Guitar
496.75,0.0,65,80,Electric Guitar
497.0,0.16260162601626016,84,115,Electric Guitar
497.0,0.12195121951219512,36,127,Electric Guitar
497.0,0.3252032520325203,41,127,Electric Guitar
497.0,0.3252032520325203,64,127,Electric Guitar
497.0,0.24390243902439024,60,127,Electric Guitar
497.0,0.24390243902439024,57,127,Electric Guitar
497.0,0.24390243902439024,53,127,Electric Guitar
497.0,0.12195121951219512,36,127,Electric Guitar
497.0,0.12195121951219512,38,127,Electric Guitar
497.0,0.0,42,94,Electric Guitar
497.0,0.0,54,94,Electric Guitar
497.0,0.0,70,94,Electric Guitar
497.0,0.0,42,106,Electric Guitar
497.0,0.0,40,106,Electric Guitar
497.0,0.0,65,116,Electric Guitar
497.0,0.0,57,116,Electric Guitar
497.0,0.0,60,116,Electric Guitar
497.25,0.12195121951219512,38,127,Electric Guitar
497.25,0.0,42,90,Electric Guitar
497.25,0.0,54,90,Electric Guitar
497.25,0.0,70,90,Electric Guitar
497.25,0.0,42,53,Electric Guitar
497.25,0.0,60,89,Electric Guitar
497.25,0.0,57,89,Electric Guitar
497.25,0.0,65,89,Electric Guitar
497.3333333333333,0.16260162601626016,76,82,Electric Guitar
497.5,0.12195121951219512,39,127,Electric Guitar
497.5,0.0,46,127,Electric Guitar
497.5,0.0,54,127,Electric Guitar
497.5,0.0,70,127,Electric Guitar
497.5,0.0,36,102,Electric Guitar
497.5,0.0,42,102,Electric Guitar
497.5,0.0,65,90,Electric Guitar
497.5,0.0,60,90,Electric Guitar
497.5,0.0,57,90,Electric Guitar
497.6666666666667,0.975609756097561,86,127,Electric Guitar
497.75,0.36585365853658536,40,127,Electric Guitar
497.75,0.6097560975609756,68,97,Electric Guitar
497.75,0.6097560975609756,74,97,Electric Guitar
497.75,0.4878048780487805,71,100,Electric Guitar
497.75,0.4878048780487805,52,113,Electric Guitar
497.75,0.4878048780487805,64,113,Electric Guitar
497.75,0.0,40,127,Electric Guitar
497.75,0.0,64,127,Electric Guitar
497.75,0.0,56,127,Electric Guitar
497.75,0.0,52,127,Electric Guitar
497.75,0.0,59,127,Electric Guitar
497.75,0.0,54,82,Electric Guitar
497.75,0.0,70,82,Electric Guitar
497.75,0.0,36,84,Electric Guitar
497.75,0.0,42,84,Electric Guitar
497.75,1.0975609756097562,68,127,Electric Guitar
497.75,1.0975609756097562,52,127,Electric Guitar
497.75,0.0,65,87,Electric Guitar
497.75,0.0,60,87,Electric Guitar
497.75,0.0,57,87,Electric Guitar
498.0,0.12195121951219512,36,127,Electric Guitar
498.0,0.0,42,99,Electric Guitar
498.0,0.0,54,99,Electric Guitar
498.0,0.0,70,99,Electric Guitar
498.0,0.0,44,117,Electric Guitar
498.0,0.0,59,117,Electric Guitar
498.0,0.0,56,117,Electric Guitar
498.0,0.0,64,117,Electric Guitar
498.25,0.0,42,82,Electric Guitar
498.25,0.0,54,82,Electric Guitar
498.25,0.0,70,82,Electric Guitar
498.25,0.12195121951219512,38,77,Electric Guitar
498.25,0.0,42,63,Electric Guitar
498.25,0.0,64,99,Electric Guitar
498.25,0.0,56,99,Electric Guitar
498.25,0.0,59,99,Electric Guitar
498.5,0.24390243902439024,28,127,Electric Guitar
498.5,0.36585365853658536,56,127,Electric Guitar
498.5,0.36585365853658536,52,127,Electric Guitar
498.5,0.36585365853658536,64,127,Electric Guitar
498.5,0.36585365853658536,40,127,Electric Guitar
498.5,0.36585365853658536,59,127,Electric Guitar
498.5,0.0,46,124,Electric Guitar
498.5,0.0,54,124,Electric Guitar
498.5,0.0,70,124,Electric Guitar
498.5,0.0,36,100,Electric Guitar
498.5,0.0,42,100,Electric Guitar
498.5,0.16260162601626016,81,107,Electric Guitar
498.5,0.16260162601626016,69,107,Electric Guitar
498.5,0.0,59,78,Electric Guitar
498.5,0.0,64,78,Electric Guitar
498.5,0.0,56,78,Electric Guitar
498.75,0.0,54,60,Electric Guitar
498.75,0.0,70,60,Electric Guitar
498.75,0.0,42,71,Electric Guitar
498.75,0.0,56,80,Electric Guitar
498.75,0.0,59,80,Electric Guitar
498.75,0.0,64,80,Electric Guitar
499.0,0.12195121951219512,35,127,Electric Guitar
499.0,0.12195121951219512,36,127,Electric Guitar
499.0,0.12195121951219512,38,127,Electric Guitar
499.0,0.0,42,94,Electric Guitar
499.0,0.0,54,94,Electric Guitar
499.0,0.0,70,94,Electric Guitar
499.0,0.0,44,124,Electric Guitar
499.0,0.0,40,124,Electric Guitar
499.0,0.4878048780487805,104,127,Electric Guitar
499.0,0.4878048780487805,92,127,Electric Guitar
499.0,0.0,56,115,Electric Guitar
499.0,0.0,64,115,Electric Guitar
499.0,0.0,59,115,Electric Guitar
499.25,0.12195121951219512,38,127,Electric Guitar
499.25,0.0,42,90,Electric Guitar
499.25,0.0,54,90,Electric Guitar
499.25,0.0,70,90,Electric Guitar
499.25,0.0,36,86,Electric Guitar
499.25,0.0,42,86,Electric Guitar
499.25,0.16260162601626016,80,107,Electric Guitar
499.25,0.16260162601626016,68,107,Electric Guitar
499.25,0.0,56,90,Electric Guitar
499.25,0.0,59,90,Electric Guitar
499.25,0.0,64,90,Electric Guitar
499.5,0.12195121951219512,84,106,Electric Guitar
499.5,0.24390243902439024,40,127,Electric Guitar
499.5,0.0,52,127,Electric Guitar
499.5,0.0,56,127,Electric Guitar
499.5,0.0,64,127,Electric Guitar
499.5,0.0,40,127,Electric Guitar
499.5,0.0,59,127,Electric Guitar
499.5,0.0,46,127,Electric Guitar
499.5,0.0,54,127,Electric Guitar
499.5,0.0,70,127,Electric Guitar
499.5,0.0,42,89,Electric Guitar
499.5,0.0,64,87,Electric Guitar
499.5,0.0,59,87,Electric Guitar
499.5,0.0,56,87,Electric Guitar
499.75,0.12195121951219512,38,77,Electric Guitar
499.75,0.0,54,82,Electric Guitar
499.75,0.0,70,82,Electric Guitar
499.75,0.0,36,84,Electric Guitar
499.75,0.0,42,84,Electric Guitar
499.75,0.0,64,92,Electric Guitar
499.75,0.0,59,92,Electric Guitar
499.75,0.0,56,92,Electric Guitar
500.0,1.7886178861788617,81,127,Electric Guitar
500.0,0.24390243902439024,33,127,Electric Guitar
500.0,0.4878048780487805,72,102,Electric Guitar
500.0,0.4878048780487805,67,102,Electric Guitar
500.0,0.36585365853658536,76,104,Electric Guitar
500.0,0.36585365853658536,57,104,Electric Guitar
500.0,0.0,55,127,Electric Guitar
500.0,0.0,60,127,Electric Guitar
500.0,0.0,59,127,Electric Guitar
500.0,0.12195121951219512,64,127,Electric Guitar
500.0,0.12195121951219512,45,127,Electric Guitar
500.0,0.12195121951219512,36,127,Electric Guitar
500.0,0.0,42,99,Electric Guitar
500.0,0.0,54,99,Electric Guitar
500.0,0.0,70,99,Electric Guitar
500.0,0.0,36,110,Electric Guitar
500.0,0.0,42,110,Electric Guitar
500.0,0.36585365853658536,105,127,Electric Guitar
500.0,0.8536585365853658,67,127,Electric Guitar
500.0,0.36585365853658536,93,127,Electric Guitar
500.0,0.8536585365853658,45,127,Electric Guitar
500.0,0.16260162601626016,69,107,Electric Guitar
500.0,0.24390243902439024,81,107,Electric Guitar
500.0,0.0,64,116,Electric Guitar
500.0,0.0,60,116,Electric Guitar
500.0,0.0,57,116,Electric Guitar
500.25,0.0,42,82,Electric Guitar
500.25,0.0,54,82,Electric Guitar
500.25,0.0,70,82,Electric Guitar
500.25,0.0,42,63,Electric Guitar
500.25,0.0,64,94,Electric Guitar
500.25,0.0,60,94,Electric Guitar
500.25,0.0,57,94,Electric Guitar
500.5,0.24390243902439024,45,127,Electric Guitar
500.5,0.0,46,124,Electric Guitar
500.5,0.0,54,124,Electric Guitar
500.5,0.0,70,124,Electric Guitar
500.5,0.0,42,93,Electric Guitar
500.5,0.0,64,66,Electric Guitar
500.5,0.0,60,66,Electric Guitar
500.5,0.0,57,66,Electric Guitar
500.75,0.0,54,60,Electric Guitar
500.75,0.0,70,60,Electric Guitar
500.75,0.0,36,85,Electric Guitar
500.75,0.0,42,85,Electric Guitar
500.75,0.0,101,127,Electric Guitar
500.75,0.0,89,127,Electric Guitar
500.75,0.0,64,88,Electric Guitar
500.75,0.0,60,88,Electric Guitar
500.75,0.0,57,88,Electric Guitar
501.0,0.12195121951219512,35,127,Electric Guitar
501.0,0.24390243902439024,55,127,Electric Guitar
501.0,0.24390243902439024,64,127,Electric Guitar
501.0,0.24390243902439024,60,127,Electric Guitar
501.0,0.24390243902439024,59,127,Electric Guitar
501.0,0.3252032520325203,45,127,Electric Guitar
501.0,0.12195121951219512,36,127,Electric Guitar
501.0,0.12195121951219512,38,127,Electric Guitar
501.0,0.0,42,94,Electric Guitar
501.0,0.0,54,94,Electric Guitar
501.0,0.0,70,94,Electric Guitar
501.0,0.0,42,106,Electric Guitar
501.0,0.0,40,106,Electric Guitar
501.0,0.12195121951219512,100,127,Electric Guitar
501.0,0.24390243902439024,99,127,Electric Guitar
501.0,0.12195121951219512,88,127,Electric Guitar
501.0,0.24390243902439024,87,127,Electric Guitar
501.0,0.0,64,114,Electric Guitar
501.0,0.0,60,114,Electric Guitar
501.0,0.0,57,114,Electric Guitar
501.25,0.12195121951219512,36,127,Electric Guitar
501.25,0.0,42,90,Electric Guitar
501.25,0.0,54,90,Electric Guitar
501.25,0.0,70,90,Electric Guitar
501.25,0.0,42,53,Electric Guitar
501.25,0.0,64,85,Electric Guitar
501.25,0.0,60,85,Electric Guitar
501.25,0.0,57,85,Electric Guitar
501.5,0.12195121951219512,37,127,Electric Guitar
501.5,0.0,46,127,Electric Guitar
501.5,0.0,54,127,Electric Guitar
501.5,0.0,70,127,Electric Guitar
501.5,0.0,36,102,Electric Guitar
501.5,0.0,42,102,Electric Guitar
501.5,0.6504065040650406,98,127,Electric Guitar
501.5,0.6504065040650406,86,127,Electric Guitar
501.5,0.0,64,96,Electric Guitar
501.5,0.0,60,96,Electric Guitar
501.5,0.0,57,96,Electric Guitar
501.75,0.12195121951219512,38,127,Electric Guitar
501.75,0.6097560975609756,72,101,Electric Guitar
501.75,0.6097560975609756,66,101,Electric Guitar
501.75,0.6097560975609756,50,101,Electric Guitar
501.75,0.6504065040650406,76,105,Electric Guitar
501.75,0.4878048780487805,69,96,Electric Guitar
501.75,0.0,60,127,Electric Guitar
501.75,0.0,64,127,Electric Guitar
501.75,0.0,54,127,Electric Guitar
501.75,0.0,57,127,Electric Guitar
501.75,0.12195121951219512,38,127,Electric Guitar
501.75,0.0,54,82,Electric Guitar
501.75,0.0,70,82,Electric Guitar
501.75,0.0,36,84,Electric Guitar
501.75,0.0,42,84,Electric Guitar
501.75,1.0975609756097562,66,127,Electric Guitar
501.75,1.0975609756097562,50,127,Electric Guitar
501.75,0.0,64,85,Electric Guitar
501.75,0.0,57,85,Electric Guitar
501.75,0.0,60,85,Electric Guitar
502.0,0.24390243902439024,38,127,Electric Guitar
502.0,0.12195121951219512,36,127,Electric Guitar
502.0,0.0,42,99,Electric Guitar
502.0,0.0,54,99,Electric Guitar
502.0,0.0,70,99,Electric Guitar
502.0,0.0,44,117,Electric Guitar
502.0,0.0,62,115,Electric Guitar
502.0,0.0,66,115,Electric Guitar
502.0,0.0,57,115,Electric Guitar
502.25,0.0,42,82,Electric Guitar
502.25,0.0,54,82,Electric Guitar
502.25,0.0,70,82,Electric Guitar
502.25,0.12195121951219512,38,77,Electric Guitar
502.25,0.0,42,63,Electric Guitar
502.25,0.0,66,78,Electric Guitar
502.25,0.0,62,78,Electric Guitar
502.25,0.0,57,78,Electric Guitar
502.5,0.24390243902439024,36,127,Electric Guitar
502.5,0.36585365853658536,38,127,Electric Guitar
502.5,0.36585365853658536,54,127,Electric Guitar
502.5,0.36585365853658536,57,127,Electric Guitar
502.5,0.36585365853658536,64,127,Electric Guitar
502.5,0.36585365853658536,60,127,Electric Guitar
502.5,0.0,46,124,Electric Guitar
502.5,0.0,54,124,Electric Guitar
502.5,0.0,70,124,Electric Guitar
502.5,0.0,36,100,Electric Guitar
502.5,0.0,42,100,Electric Guitar
502.5,0.12195121951219512,69,107,Electric Guitar
502.5,0.12195121951219512,81,107,Electric Guitar
502.5,0.0,66,78,Electric Guitar
502.5,0.0,57,78,Electric Guitar
502.5,0.0,62,78,Electric Guitar
502.75,0.0,54,60,Electric Guitar
502.75,0.0,70,60,Electric Guitar
502.75,0.0,42,71,Electric Guitar
502.75,0.0,62,84,Electric Guitar
502.75,0.0,66,84,Electric Guitar
502.75,0.0,57,84,Electric Guitar
503.0,0.12195121951219512,36,127,Electric Guitar
503.0,0.12195121951219512,36,127,Electric Guitar
503.0,0.12195121951219512,38,127,Electric Guitar
503.0,0.0,42,94,Electric Guitar
503.0,0.0,54,94,Electric Guitar
503.0,0.0,70,94,Electric Guitar
503.0,0.0,44,124,Electric Guitar
503.0,0.0,40,124,Electric Guitar
503.0,0.36585365853658536,96,127,Electric Guitar
503.0,0.36585365853658536,84,127,Electric Guitar
503.0,0.12195121951219512,69,107,Electric Guitar
503.0,0.12195121951219512,81,107,Electric Guitar
503.0,0.0,66,112,Electric Guitar
503.0,0.0,57,112,Electric Guitar
503.0,0.0,62,112,Electric Guitar
503.25,0.12195121951219512,38,127,Electric Guitar
503.25,0.0,42,90,Electric Guitar
503.25,0.0,54,90,Electric Guitar
503.25,0.0,70,90,Electric Guitar
503.25,0.0,36,86,Electric Guitar
503.25,0.0,42,86,Electric Guitar
503.25,0.24390243902439024,84,107,Electric Guitar
503.25,0.16260162601626016,72,107,Electric Guitar
503.25,0.0,66,92,Electric Guitar
503.25,0.0,62,92,Electric Guitar
503.25,0.0,57,92,Electric Guitar
503.5,0.12195121951219512,36,127,Electric Guitar
503.5,0.0,54,127,Electric Guitar
503.5,0.0,60,127,Electric Guitar
503.5,0.0,64,127,Electric Guitar
503.5,0.0,57,127,Electric Guitar
503.5,0.12195121951219512,38,127,Electric Guitar
503.5,0.0,46,127,Electric Guitar
503.5,0.0,54,127,Electric Guitar
503.5,0.0,70,127,Electric Guitar
503.5,0.0,42,89,Electric Guitar
503.5,0.0,66,83,Electric Guitar
503.5,0.0,57,83,Electric Guitar
503.5,0.0,62,83,Electric Guitar
503.75,0.12195121951219512,33,127,Electric Guitar
503.75,0.12195121951219512,38,77,Electric Guitar
503.75,0.0,54,82,Electric Guitar
503.75,0.0,70,82,Electric Guitar
503.75,0.0,36,84,Electric Guitar
503.75,0.0,42,84,Electric Guitar
503.75,0.12195121951219512,95,127,Electric Guitar
503.75,0.12195121951219512,94,127,Electric Guitar
503.75,0.12195121951219512,83,127,Electric Guitar
503.75,0.12195121951219512,82,127,Electric Guitar
503.75,0.0,66,85,Electric Guitar
503.75,0.0,62,85,Electric Guitar
503.75,0.0,57,85,Electric Guitar
504.0,1.3414634146341462,76,127,Electric Guitar
504.0,0.16260162601626016,38,127,Electric Guitar
504.0,1.4634146341463414,72,101,Electric Guitar
504.0,1.4634146341463414,65,101,Electric Guitar
504.0,1.4634146341463414,50,101,Electric Guitar
504.0,1.4634146341463414,76,101,Electric Guitar
504.0,1.4634146341463414,69,102,Electric Guitar
504.0,0.16260162601626016,38,127,Electric Guitar
504.0,0.0,57,127,Electric Guitar
504.0,0.0,60,127,Electric Guitar
504.0,0.0,53,127,Electric Guitar
504.0,0.0,64,127,Electric Guitar
504.0,0.12195121951219512,36,127,Electric Guitar
504.0,0.0,42,99,Electric Guitar
504.0,0.0,54,99,Electric Guitar
504.0,0.0,70,99,Electric Guitar
504.0,0.0,36,110,Electric Guitar
504.0,0.0,42,110,Electric Guitar
504.0,1.4634146341463414,93,127,Electric Guitar
504.0,1.951219512195122,62,127,Electric Guitar
504.0,1.4634146341463414,81,127,Electric Guitar
504.0,1.951219512195122,50,127,Electric Guitar
504.0,0.16260162601626016,81,107,Electric Guitar
504.0,0.16260162601626016,69,107,Electric Guitar
504.0,0.0,57,110,Electric Guitar
504.0,0.0,65,110,Electric Guitar
504.0,0.0,62,110,Electric Guitar
504.25,0.0,42,82,Electric Guitar
504.25,0.0,54,82,Electric Guitar
504.25,0.0,70,82,Electric Guitar
504.25,0.0,42,63,Electric Guitar
504.25,0.0,65,86,Electric Guitar
504.25,0.0,62,86,Electric Guitar
504.25,0.0,57,86,Electric Guitar
504.5,0.24390243902439024,38,127,Electric Guitar
504.5,0.0,46,124,Electric Guitar
504.5,0.0,54,124,Electric Guitar
504.5,0.0,70,124,Electric Guitar
504.5,0.0,42,93,Electric Guitar
504.5,0.0,57,83,Electric Guitar
504.5,0.0,65,83,Electric Guitar
504.5,0.0,62,83,Electric Guitar
504.75,0.0,54,60,Electric Guitar
504.75,0.0,70,60,Electric Guitar
504.75,0.0,36,85,Electric Guitar
504.75,0.0,42,85,Electric Guitar
504.75,0.0,65,84,Electric Guitar
504.75,0.0,57,84,Electric Guitar
504.75,0.0,62,84,Electric Guitar
505.0,0.12195121951219512,38,127,Electric Guitar
505.0,0.24390243902439024,60,127,Electric Guitar
505.0,0.24390243902439024,64,127,Electric Guitar
505.0,0.24390243902439024,57,127,Electric Guitar
505.0,0.24390243902439024,53,127,Electric Guitar
505.0,0.3252032520325203,38,127,Electric Guitar
505.0,0.12195121951219512,36,127,Electric Guitar
505.0,0.12195121951219512,38,127,Electric Guitar
505.0,0.0,42,94,Electric Guitar
505.0,0.0,54,94,Electric Guitar
505.0,0.0,70,94,Electric Guitar
505.0,0.0,42,106,Electric Guitar
505.0,0.0,40,106,Electric Guitar
505.0,0.0,65,110,Electric Guitar
505.0,0.0,57,110,Electric Guitar
505.0,0.0,62,110,Electric Guitar
505.25,0.12195121951219512,33,127,Electric Guitar
505.25,0.0,42,90,Electric Guitar
505.25,0.0,54,90,Electric Guitar
505.25,0.0,70,90,Electric Guitar
505.25,0.0,42,53,Electric Guitar
505.25,0.0,57,83,Electric Guitar
505.25,0.0,62,83,Electric Guitar
505.25,0.0,65,83,Electric Guitar
505.5,0.12195121951219512,26,127,Electric Guitar
505.5,0.0,46,127,Electric Guitar
505.5,0.0,54,127,Electric Guitar
505.5,0.0,70,127,Electric Guitar
505.5,0.0,36,102,Electric Guitar
505.5,0.0,42,102,Electric Guitar
505.5,0.0,65,79,Electric Guitar
505.5,0.0,57,79,Electric Guitar
505.5,0.0,62,79,Electric Guitar
505.75,0.36585365853658536,26,127,Electric Guitar
505.75,0.0,57,127,Electric Guitar
505.75,0.0,64,127,Electric Guitar
505.75,0.0,53,127,Electric Guitar
505.75,0.0,60,127,Electric Guitar
505.75,0.12195121951219512,38,127,Electric Guitar
505.75,0.0,54,82,Electric Guitar
505.75,0.0,70,82,Electric Guitar
505.75,0.0,36,84,Electric Guitar
505.75,0.0,42,84,Electric Guitar
505.75,0.0,57,87,Electric Guitar
505.75,0.0,65,87,Electric Guitar
505.75,0.0,62,87,Electric Guitar
506.0,0.12195121951219512,36,127,Electric Guitar
506.0,0.0,42,99,Electric Guitar
506.0,0.0,54,99,Electric Guitar
506.0,0.0,70,99,Electric Guitar
506.0,0.0,44,117,Electric Guitar
506.0,0.0,57,116,Electric Guitar
506.0,0.0,65,116,Electric Guitar
506.0,0.0,62,116,Electric Guitar
506.25,0.0,42,82,Electric Guitar
506.25,0.0,54,82,Electric Guitar
506.25,0.0,70,82,Electric Guitar
506.25,0.12195121951219512,38,77,Electric Guitar
506.25,0.0,42,63,Electric Guitar
506.25,0.0,62,65,Electric Guitar
506.25,0.0,57,65,Electric Guitar
506.25,0.0,65,65,Electric Guitar
506.5,0.24390243902439024,33,127,Electric Guitar
506.5,0.36585365853658536,64,127,Electric Guitar
506.5,0.36585365853658536,57,127,Electric Guitar
506.5,0.36585365853658536,38,127,Electric Guitar
506.5,0.36585365853658536,53,127,Electric Guitar
506.5,0.36585365853658536,60,127,Electric Guitar
506.5,0.0,46,124,Electric Guitar
506.5,0.0,54,124,Electric Guitar
506.5,0.0,70,124,Electric Guitar
506.5,0.0,36,100,Electric Guitar
506.5,0.0,42,100,Electric Guitar
506.5,0.0,62,94,Electric Guitar
506.5,0.0,57,94,Electric Guitar
506.5,0.0,65,94,Electric Guitar
506.75,0.0,54,60,Electric Guitar
506.75,0.0,70,60,Electric Guitar
506.75,0.0,42,71,Electric Guitar
506.75,0.0,62,78,Electric Guitar
506.75,0.0,65,78,Electric Guitar
506.75,0.0,57,78,Electric Guitar
507.0,0.16260162601626016,76,115,Electric Guitar
507.0,0.12195121951219512,38,127,Electric Guitar
507.0,0.12195121951219512,36,127,Electric Guitar
507.0,0.12195121951219512,38,127,Electric Guitar
507.0,0.0,42,94,Electric Guitar
507.0,0.0,54,94,Electric Guitar
507.0,0.0,70,94,Electric Guitar
507.0,0.0,44,124,Electric Guitar
507.0,0.0,40,124,Electric Guitar
507.0,0.24390243902439024,87,127,Electric Guitar
507.0,0.24390243902439024,75,127,Electric Guitar
507.0,0.0,57,107,Electric Guitar
507.0,0.0,62,107,Electric Guitar
507.0,0.0,65,107,Electric Guitar
507.25,0.12195121951219512,74,113,Electric Guitar
507.25,0.12195121951219512,33,127,Electric Guitar
507.25,0.0,42,90,Electric Guitar
507.25,0.0,54,90,Electric Guitar
507.25,0.0,70,90,Electric Guitar
507.25,0.0,36,86,Electric Guitar
507.25,0.0,42,86,Electric Guitar
507.25,0.0,65,89,Electric Guitar
507.25,0.0,62,89,Electric Guitar
507.25,0.0,57,89,Electric Guitar
507.5,0.24390243902439024,72,110,Electric Guitar
507.5,0.24390243902439024,26,127,Electric Guitar
507.5,0.0,53,127,Electric Guitar
507.5,0.0,60,127,Electric Guitar
507.5,0.12195121951219512,57,127,Electric Guitar
507.5,0.12195121951219512,64,127,Electric Guitar
507.5,0.12195121951219512,38,127,Electric Guitar
507.5,0.0,46,127,Electric Guitar
507.5,0.0,54,127,Electric Guitar
507.5,0.0,70,127,Electric Guitar
507.5,0.0,42,89,Electric Guitar
507.5,1.7073170731707317,86,127,Electric Guitar
507.5,1.7073170731707317,74,127,Electric Guitar
507.5,0.0,57,84,Electric Guitar
507.5,0.0,65,84,Electric Guitar
507.5,0.0,62,84,Electric Guitar
507.75,0.12195121951219512,38,77,Electric Guitar
507.75,0.0,54,82,Electric Guitar
507.75,0.0,70,82,Electric Guitar
507.75,0.0,36,84,Electric Guitar
507.75,0.0,42,84,Electric Guitar
507.75,0.0,65,84,Electric Guitar
507.75,0.0,62,84,Electric Guitar
507.75,0.0,57,84,Electric Guitar
508.0,0.12195121951219512,74,113,Electric Guitar
508.0,0.24390243902439024,28,127,Electric Guitar
508.0,0.7317073170731707,64,105,Electric Guitar
508.0,0.7317073170731707,71,105,Electric Guitar
508.0,0.8130081300813008,74,102,Electric Guitar
508.0,0.8130081300813008,68,102,Electric Guitar
508.0,0.8130081300813008,52,102,Electric Guitar
508.0,0.0,56,127,Electric Guitar
508.0,0.0,52,127,Electric Guitar
508.0,0.0,64,127,Electric Guitar
508.0,0.0,59,127,Electric Guitar
508.0,0.12195121951219512,40,127,Electric Guitar
508.0,0.12195121951219512,36,127,Electric Guitar
508.0,0.0,42,99,Electric Guitar
508.0,0.0,54,99,Electric Guitar
508.0,0.0,70,99,Electric Guitar
508.0,0.0,36,110,Electric Guitar
508.0,0.0,42,110,Electric Guitar
508.0,1.951219512195122,62,127,Electric Guitar
508.0,1.951219512195122,52,127,Electric Guitar
508.0,0.24390243902439024,76,107,Electric Guitar
508.0,0.24390243902439024,64,107,Electric Guitar
508.0,0.0,64,113,Electric Guitar
508.0,0.0,56,113,Electric Guitar
508.0,0.0,59,113,Electric Guitar
508.25,0.0,42,82,Electric Guitar
508.25,0.0,54,82,Electric Guitar
508.25,0.0,70,82,Electric Guitar
508.25,0.0,42,63,Electric Guitar
508.25,0.0,64,79,Electric Guitar
508.25,0.0,59,79,Electric Guitar
508.25,0.0,56,79,Electric Guitar
508.5,0.36585365853658536,76,124,Electric Guitar
508.5,0.24390243902439024,28,127,Electric Guitar
508.5,0.0,46,124,Electric Guitar
508.5,0.0,54,124,Electric Guitar
508.5,0.0,70,124,Electric Guitar
508.5,0.0,42,93,Electric Guitar
508.5,0.0,64,79,Electric Guitar
508.5,0.0,59,79,Electric Guitar
508.5,0.0,56,79,Electric Guitar
508.75,0.0,54,60,Electric Guitar
508.75,0.0,70,60,Electric Guitar
508.75,0.0,36,85,Electric Guitar
508.75,0.0,42,85,Electric Guitar
508.75,0.0,64,75,Electric Guitar
508.75,0.0,59,75,Electric Guitar
508.75,0.0,56,75,Electric Guitar
509.0,0.12195121951219512,40,127,Electric Guitar
509.0,0.3252032520325203,40,127,Electric Guitar
509.0,0.24390243902439024,56,127,Electric Guitar
509.0,0.24390243902439024,52,127,Electric Guitar
509.0,0.24390243902439024,59,127,Electric Guitar
509.0,0.24390243902439024,64,127,Electric Guitar
509.0,0.12195121951219512,36,127,Electric Guitar
509.0,0.12195121951219512,38,127,Electric Guitar
509.0,0.0,42,94,Electric Guitar
509.0,0.0,54,94,Electric Guitar
509.0,0.0,70,94,Electric Guitar
509.0,0.0,42,106,Electric Guitar
509.0,0.0,40,106,Electric Guitar
509.0,0.0,56,107,Electric Guitar
509.0,0.0,64,107,Electric Guitar
509.0,0.0,59,107,Electric Guitar
509.25,0.12195121951219512,72,110,Electric Guitar
509.25,0.12195121951219512,28,127,Electric Guitar
509.25,0.0,42,90,Electric Guitar
509.25,0.0,54,90,Electric Guitar
509.25,0.0,70,90,Electric Guitar
509.25,0.0,42,53,Electric Guitar
509.25,0.0,64,72,Electric Guitar
509.25,0.0,56,72,Electric Guitar
509.25,0.0,59,72,Electric Guitar
509.5,1.0975609756097562,69,124,Electric Guitar
509.5,0.12195121951219512,28,127,Electric Guitar
509.5,0.0,46,127,Electric Guitar
509.5,0.0,54,127,Electric Guitar
509.5,0.0,70,127,Electric Guitar
509.5,0.0,36,102,Electric Guitar
509.5,0.0,42,102,Electric Guitar
509.5,0.0,64,67,Electric Guitar
509.5,0.0,59,67,Electric Guitar
509.5,0.0,56,67,Electric Guitar
509.75,0.36585365853658536,28,127,Electric Guitar
509.75,0.0,56,127,Electric Guitar
509.75,0.0,64,127,Electric Guitar
509.75,0.0,52,127,Electric Guitar
509.75,0.0,59,127,Electric Guitar
509.75,0.12195121951219512,40,127,Electric Guitar
509.75,0.0,54,82,Electric Guitar
509.75,0.0,70,82,Electric Guitar
509.75,0.0,36,84,Electric Guitar
509.75,0.0,42,84,Electric Guitar
509.75,0.0,64,68,Electric Guitar
509.75,0.0,56,68,Electric Guitar
509.75,0.0,59,68,Electric Guitar
510.0,0.12195121951219512,36,127,Electric Guitar
510.0,0.0,42,99,Electric Guitar
510.0,0.0,54,99,Electric Guitar
510.0,0.0,70,99,Electric Guitar
510.0,0.0,44,117,Electric Guitar
510.0,0.0,56,113,Electric Guitar
510.0,0.0,64,113,Electric Guitar
510.0,0.0,59,113,Electric Guitar
510.25,0.0,42,82,Electric Guitar
510.25,0.0,54,82,Electric Guitar
510.25,0.0,70,82,Electric Guitar
510.25,0.12195121951219512,38,77,Electric Guitar
510.25,0.0,42,63,Electric Guitar
510.25,0.0,59,70,Electric Guitar
510.25,0.0,64,70,Electric Guitar
510.25,0.0,56,70,Electric Guitar
510.5,0.12195121951219512,28,127,Electric Guitar
510.5,0.36585365853658536,40,127,Electric Guitar
510.5,0.36585365853658536,56,127,Electric Guitar
510.5,0.36585365853658536,52,127,Electric Guitar
510.5,0.36585365853658536,59,127,Electric Guitar
510.5,0.36585365853658536,64,127,Electric Guitar
510.5,0.0,46,124,Electric Guitar
510.5,0.0,54,124,Electric Guitar
510.5,0.0,70,124,Electric Guitar
510.5,0.0,36,100,Electric Guitar
510.5,0.0,42,100,Electric Guitar
510.5,0.0,64,81,Electric Guitar
510.5,0.0,56,81,Electric Guitar
510.5,0.0,59,81,Electric Guitar
510.75,0.12195121951219512,28,127,Electric Guitar
510.75,0.0,54,60,Electric Guitar
510.75,0.0,70,60,Electric Guitar
510.75,0.0,42,71,Electric Guitar
510.75,0.0,59,71,Electric Guitar
510.75,0.0,64,71,Electric Guitar
510.75,0.0,56,71,Electric Guitar
511.0,0.12195121951219512,40,127,Electric Guitar
511.0,0.12195121951219512,36,127,Electric Guitar
511.0,0.12195121951219512,38,127,Electric Guitar
511.0,0.0,42,94,Electric Guitar
511.0,0.0,54,94,Electric Guitar
511.0,0.0,70,94,Electric Guitar
511.0,0.0,44,124,Electric Guitar
511.0,0.0,40,124,Electric Guitar
511.0,0.12195121951219512,76,127,Electric Guitar
511.0,0.12195121951219512,77,127,Electric Guitar
511.0,0.12195121951219512,76,127,Electric Guitar
511.0,0.12195121951219512,77,127,Electric Guitar
511.0,0.0,56,110,Electric Guitar
511.0,0.0,64,110,Electric Guitar
511.0,0.0,59,110,Electric Guitar
511.25,0.12195121951219512,38,127,Electric Guitar
511.25,0.0,42,90,Electric Guitar
511.25,0.0,54,90,Electric Guitar
511.25,0.0,70,90,Electric Guitar
511.25,0.0,36,86,Electric Guitar
511.25,0.0,42,86,Electric Guitar
511.25,0.12195121951219512,79,127,Electric Guitar
511.25,0.12195121951219512,79,127,Electric Guitar
511.25,0.0,56,68,Electric Guitar
511.25,0.0,59,68,Electric Guitar
511.25,0.0,64,68,Electric Guitar
511.3333333333333,0.12195121951219512,81,127,Electric Guitar
511.3333333333333,0.12195121951219512,81,127,Electric Guitar
511.5,0.24390243902439024,40,127,Electric Guitar
511.5,0.12195121951219512,40,127,Electric Guitar
511.5,0.0,56,127,Electric Guitar
511.5,0.0,59,127,Electric Guitar
511.5,0.0,64,127,Electric Guitar
511.5,0.0,52,127,Electric Guitar
511.5,0.0,46,127,Electric Guitar
511.5,0.0,54,127,Electric Guitar
511.5,0.0,70,127,Electric Guitar
511.5,0.0,42,89,Electric Guitar
511.5,0.12195121951219512,83,127,Electric Guitar
511.5,0.12195121951219512,83,127,Electric Guitar
511.5,0.0,64,77,Electric Guitar
511.5,0.0,56,77,Electric Guitar
511.5,0.0,59,77,Electric Guitar
511.6666666666667,0.12195121951219512,84,127,Electric Guitar
511.6666666666667,0.12195121951219512,84,127,Electric Guitar
511.75,0.12195121951219512,38,77,Electric Guitar
511.75,0.0,54,82,Electric Guitar
511.75,0.0,70,82,Electric Guitar
511.75,0.0,36,84,Electric Guitar
511.75,0.0,42,84,Electric Guitar
511.75,0.12195121951219512,86,127,Electric Guitar
511.75,0.12195121951219512,86,127,Electric Guitar
511.75,0.0,64,72,Electric Guitar
511.75,0.0,56,72,Electric Guitar
511.75,0.0,59,72,Electric Guitar
512.0,0.16260162601626016,29,127,Electric Guitar
512.0,0.4878048780487805,53,110,Electric Guitar
512.0,0.4878048780487805,76,110,Electric Guitar
512.0,0.4878048780487805,72,110,Electric Guitar
512.0,0.4878048780487805,69,110,Electric Guitar
512.0,0.4878048780487805,65,110,Electric Guitar
512.0,0.0,57,127,Electric Guitar
512.0,0.0,60,127,Electric Guitar
512.0,0.0,53,127,Electric Guitar
512.0,0.0,64,127,Electric Guitar
512.0,0.12195121951219512,41,127,Electric Guitar
512.0,0.12195121951219512,36,127,Electric Guitar
512.0,0.12195121951219512,49,127,Electric Guitar
512.0,0.0,42,99,Electric Guitar
512.0,0.0,54,99,Electric Guitar
512.0,0.0,70,99,Electric Guitar
512.0,0.0,36,110,Electric Guitar
512.0,0.0,42,110,Electric Guitar
512.0,1.5853658536585367,88,127,Electric Guitar
512.0,0.975609756097561,57,127,Electric Guitar
512.0,1.4634146341463414,76,127,Electric Guitar
512.0,0.975609756097561,45,127,Electric Guitar
512.0,0.16260162601626016,81,107,Electric Guitar
512.0,0.16260162601626016,69,107,Electric Guitar
512.0,0.0,57,115,Electric Guitar
512.0,0.0,65,115,Electric Guitar
512.0,0.0,60,115,Electric Guitar
512.25,0.0,42,82,Electric Guitar
512.25,0.0,54,82,Electric Guitar
512.25,0.0,70,82,Electric Guitar
512.25,0.0,42,63,Electric Guitar
512.25,0.0,60,88,Electric Guitar
512.25,0.0,57,88,Electric Guitar
512.25,0.0,65,88,Electric Guitar
512.5,0.16260162601626016,50,117,Electric Guitar
512.5,0.24390243902439024,41,127,Electric Guitar
512.5,0.0,46,124,Electric Guitar
512.5,0.0,54,124,Electric Guitar
512.5,0.0,70,124,Electric Guitar
512.5,0.0,42,93,Electric Guitar
512.5,0.0,60,88,Electric Guitar
512.5,0.0,57,88,Electric Guitar
512.5,0.0,65,88,Electric Guitar
512.75,0.12195121951219512,52,113,Electric Guitar
512.75,0.0,54,60,Electric Guitar
512.75,0.0,70,60,Electric Guitar
512.75,0.0,36,85,Electric Guitar
512.75,0.0,42,85,Electric Guitar
512.75,0.0,60,80,Electric Guitar
512.75,0.0,57,80,Electric Guitar
512.75,0.0,65,80,Electric Guitar
513.0,0.12195121951219512,55,108,Electric Guitar
513.0,0.12195121951219512,36,127,Electric Guitar
513.0,0.3252032520325203,41,127,Electric Guitar
513.0,0.3252032520325203,64,127,Electric Guitar
513.0,0.24390243902439024,60,127,Electric Guitar
513.0,0.24390243902439024,57,127,Electric Guitar
513.0,0.24390243902439024,53,127,Electric Guitar
513.0,0.12195121951219512,36,127,Electric Guitar
513.0,0.12195121951219512,38,127,Electric Guitar
513.0,0.0,42,94,Electric Guitar
513.0,0.0,54,94,Electric Guitar
513.0,0.0,70,94,Electric Guitar
513.0,0.0,42,106,Electric Guitar
513.0,0.0,40,106,Electric Guitar
513.0,0.0,65,116,Electric Guitar
513.0,0.0,57,116,Electric Guitar
513.0,0.0,60,116,Electric Guitar
513.25,0.3252032520325203,57,117,Electric Guitar
513.25,0.12195121951219512,38,127,Electric Guitar
513.25,0.0,42,90,Electric Guitar
513.25,0.0,54,90,Electric Guitar
513.25,0.0,70,90,Electric Guitar
513.25,0.0,42,53,Electric Guitar
513.25,0.0,60,89,Electric Guitar
513.25,0.0,57,89,Electric Guitar
513.25,0.0,65,89,Electric Guitar
513.5,0.12195121951219512,39,127,Electric Guitar
513.5,0.0,46,127,Electric Guitar
513.5,0.0,54,127,Electric Guitar
513.5,0.0,70,127,Electric Guitar
513.5,0.0,36,102,Electric Guitar
513.5,0.0,42,102,Electric Guitar
513.5,0.0,65,90,Electric Guitar
513.5,0.0,60,90,Electric Guitar
513.5,0.0,57,90,Electric Guitar
513.75,0.36585365853658536,40,127,Electric Guitar
513.75,0.6097560975609756,64,105,Electric Guitar
513.75,0.6097560975609756,71,105,Electric Guitar
513.75,0.8536585365853658,52,107,Electric Guitar
513.75,0.6504065040650406,68,84,Electric Guitar
513.75,0.7317073170731707,74,102,Electric Guitar
513.75,0.0,40,127,Electric Guitar
513.75,0.0,64,127,Electric Guitar
513.75,0.0,56,127,Electric Guitar
513.75,0.0,52,127,Electric Guitar
513.75,0.0,59,127,Electric Guitar
513.75,0.0,54,82,Electric Guitar
513.75,0.0,70,82,Electric Guitar
513.75,0.0,36,84,Electric Guitar
513.75,0.0,42,84,Electric Guitar
513.75,0.0,65,87,Electric Guitar
513.75,0.0,60,87,Electric Guitar
513.75,0.0,57,87,Electric Guitar
514.0,0.16260162601626016,55,115,Electric Guitar
514.0,0.12195121951219512,36,127,Electric Guitar
514.0,0.0,42,99,Electric Guitar
514.0,0.0,54,99,Electric Guitar
514.0,0.0,70,99,Electric Guitar
514.0,0.0,44,117,Electric Guitar
514.0,0.12195121951219512,62,127,Electric Guitar
514.0,0.12195121951219512,50,127,Electric Guitar
514.0,0.0,59,117,Electric Guitar
514.0,0.0,56,117,Electric Guitar
514.0,0.0,64,117,Electric Guitar
514.25,0.0,42,82,Electric Guitar
514.25,0.0,54,82,Electric Guitar
514.25,0.0,70,82,Electric Guitar
514.25,0.12195121951219512,38,77,Electric Guitar
514.25,0.0,42,63,Electric Guitar
514.25,0.12195121951219512,63,127,Electric Guitar
514.25,0.12195121951219512,51,127,Electric Guitar
514.25,0.0,64,99,Electric Guitar
514.25,0.0,56,99,Electric Guitar
514.25,0.0,59,99,Electric Guitar
514.5,0.12195121951219512,57,115,Electric Guitar
514.5,0.24390243902439024,28,127,Electric Guitar
514.5,0.36585365853658536,56,127,Electric Guitar
514.5,0.36585365853658536,52,127,Electric Guitar
514.5,0.36585365853658536,64,127,Electric Guitar
514.5,0.36585365853658536,40,127,Electric Guitar
514.5,0.36585365853658536,59,127,Electric Guitar
514.5,0.0,46,124,Electric Guitar
514.5,0.0,54,124,Electric Guitar
514.5,0.0,70,124,Electric Guitar
514.5,0.0,36,100,Electric Guitar
514.5,0.0,42,100,Electric Guitar
514.5,0.12195121951219512,64,127,Electric Guitar
514.5,0.12195121951219512,52,127,Electric Guitar
514.5,0.16260162601626016,81,107,Electric Guitar
514.5,0.16260162601626016,69,107,Electric Guitar
514.5,0.0,59,78,Electric Guitar
514.5,0.0,64,78,Electric Guitar
514.5,0.0,56,78,Electric Guitar
514.75,0.0,54,60,Electric Guitar
514.75,0.0,70,60,Electric Guitar
514.75,0.0,42,71,Electric Guitar
514.75,0.24390243902439024,67,127,Electric Guitar
514.75,0.24390243902439024,55,127,Electric Guitar
514.75,0.0,56,80,Electric Guitar
514.75,0.0,59,80,Electric Guitar
514.75,0.0,64,80,Electric Guitar
515.0,0.12195121951219512,57,113,Electric Guitar
515.0,0.12195121951219512,35,127,Electric Guitar
515.0,0.12195121951219512,36,127,Electric Guitar
515.0,0.12195121951219512,38,127,Electric Guitar
515.0,0.0,42,94,Electric Guitar
515.0,0.0,54,94,Electric Guitar
515.0,0.0,70,94,Electric Guitar
515.0,0.0,44,124,Electric Guitar
515.0,0.0,40,124,Electric Guitar
515.0,0.4878048780487805,92,127,Electric Guitar
515.0,0.4878048780487805,80,127,Electric Guitar
515.0,0.0,56,115,Electric Guitar
515.0,0.0,64,115,Electric Guitar
515.0,0.0,59,115,Electric Guitar
515.25,0.24390243902439024,55,112,Electric Guitar
515.25,0.12195121951219512,38,127,Electric Guitar
515.25,0.0,42,90,Electric Guitar
515.25,0.0,54,90,Electric Guitar
515.25,0.0,70,90,Electric Guitar
515.25,0.0,36,86,Electric Guitar
515.25,0.0,42,86,Electric Guitar
515.25,0.12195121951219512,64,127,Electric Guitar
515.25,0.12195121951219512,52,127,Electric Guitar
515.25,0.16260162601626016,80,107,Electric Guitar
515.25,0.16260162601626016,68,107,Electric Guitar
515.25,0.0,56,90,Electric Guitar
515.25,0.0,59,90,Electric Guitar
515.25,0.0,64,90,Electric Guitar
515.5,0.24390243902439024,40,127,Electric Guitar
515.5,0.0,52,127,Electric Guitar
515.5,0.0,56,127,Electric Guitar
515.5,0.0,64,127,Electric Guitar
515.5,0.0,40,127,Electric Guitar
515.5,0.0,59,127,Electric Guitar
515.5,0.0,46,127,Electric Guitar
515.5,0.0,54,127,Electric Guitar
515.5,0.0,70,127,Electric Guitar
515.5,0.0,42,89,Electric Guitar
515.5,0.24390243902439024,67,127,Electric Guitar
515.5,0.24390243902439024,55,127,Electric Guitar
515.5,0.0,64,87,Electric Guitar
515.5,0.0,59,87,Electric Guitar
515.5,0.0,56,87,Electric Guitar
515.75,0.12195121951219512,60,120,Electric Guitar
515.75,0.12195121951219512,38,77,Electric Guitar
515.75,0.0,54,82,Electric Guitar
515.75,0.0,70,82,Electric Guitar
515.75,0.0,36,84,Electric Guitar
515.75,0.0,42,84,Electric Guitar
515.75,0.0,64,92,Electric Guitar
515.75,0.0,59,92,Electric Guitar
515.75,0.0,56,92,Electric Guitar
516.0,0.24390243902439024,33,127,Electric Guitar
516.0,0.4878048780487805,67,108,Electric Guitar
516.0,0.4878048780487805,57,108,Electric Guitar
516.0,0.4878048780487805,76,102,Electric Guitar
516.0,0.4878048780487805,72,102,Electric Guitar
516.0,0.0,55,127,Electric Guitar
516.0,0.0,60,127,Electric Guitar
516.0,0.0,59,127,Electric Guitar
516.0,0.12195121951219512,64,127,Electric Guitar
516.0,0.12195121951219512,45,127,Electric Guitar
516.0,0.12195121951219512,36,127,Electric Guitar
516.0,0.0,42,99,Electric Guitar
516.0,0.0,54,99,Electric Guitar
516.0,0.0,70,99,Electric Guitar
516.0,0.0,36,110,Electric Guitar
516.0,0.0,42,110,Electric Guitar
516.0,0.4878048780487805,93,127,Electric Guitar
516.0,0.7317073170731707,69,127,Electric Guitar
516.0,0.4878048780487805,81,127,Electric Guitar
516.0,0.7317073170731707,57,127,Electric Guitar
516.0,0.16260162601626016,69,107,Electric Guitar
516.0,0.24390243902439024,81,107,Electric Guitar
516.0,0.0,64,116,Electric Guitar
516.0,0.0,60,116,Electric Guitar
516.0,0.0,57,116,Electric Guitar
516.25,0.0,42,82,Electric Guitar
516.25,0.0,54,82,Electric Guitar
516.25,0.0,70,82,Electric Guitar
516.25,0.0,42,63,Electric Guitar
516.25,0.0,64,94,Electric Guitar
516.25,0.0,60,94,Electric Guitar
516.25,0.0,57,94,Electric Guitar
516.5,0.12195121951219512,62,115,Electric Guitar
516.5,0.24390243902439024,45,127,Electric Guitar
516.5,0.0,46,124,Electric Guitar
516.5,0.0,54,124,Electric Guitar
516.5,0.0,70,124,Electric Guitar
516.5,0.0,42,93,Electric Guitar
516.5,0.0,64,66,Electric Guitar
516.5,0.0,60,66,Electric Guitar
516.5,0.0,57,66,Electric Guitar
516.75,0.16260162601626016,60,110,Electric Guitar
516.75,0.0,54,60,Electric Guitar
516.75,0.0,70,60,Electric Guitar
516.75,0.0,36,85,Electric Guitar
516.75,0.0,42,85,Electric Guitar
516.75,0.0,64,88,Electric Guitar
516.75,0.0,60,88,Electric Guitar
516.75,0.0,57,88,Electric Guitar
517.0,0.12195121951219512,62,113,Electric Guitar
517.0,0.12195121951219512,35,127,Electric Guitar
517.0,0.24390243902439024,55,127,Electric Guitar
517.0,0.24390243902439024,64,127,Electric Guitar
517.0,0.24390243902439024,60,127,Electric Guitar
517.0,0.24390243902439024,59,127,Electric Guitar
517.0,0.3252032520325203,45,127,Electric Guitar
517.0,0.12195121951219512,36,127,Electric Guitar
517.0,0.12195121951219512,38,127,Electric Guitar
517.0,0.0,42,94,Electric Guitar
517.0,0.0,54,94,Electric Guitar
517.0,0.0,70,94,Electric Guitar
517.0,0.0,42,106,Electric Guitar
517.0,0.0,40,106,Electric Guitar
517.0,0.4878048780487805,95,127,Electric Guitar
517.0,0.4878048780487805,83,127,Electric Guitar
517.0,0.0,64,114,Electric Guitar
517.0,0.0,60,114,Electric Guitar
517.0,0.0,57,114,Electric Guitar
517.25,0.16260162601626016,64,120,Electric Guitar
517.25,0.12195121951219512,36,127,Electric Guitar
517.25,0.0,42,90,Electric Guitar
517.25,0.0,54,90,Electric Guitar
517.25,0.0,70,90,Electric Guitar
517.25,0.0,42,53,Electric Guitar
517.25,0.0,64,85,Electric Guitar
517.25,0.0,60,85,Electric Guitar
517.25,0.0,57,85,Electric Guitar
517.5,0.12195121951219512,37,127,Electric Guitar
517.5,0.0,46,127,Electric Guitar
517.5,0.0,54,127,Electric Guitar
517.5,0.0,70,127,Electric Guitar
517.5,0.0,36,102,Electric Guitar
517.5,0.0,42,102,Electric Guitar
517.5,0.0,64,96,Electric Guitar
517.5,0.0,60,96,Electric Guitar
517.5,0.0,57,96,Electric Guitar
517.75,0.12195121951219512,64,112,Electric Guitar
517.75,0.12195121951219512,38,127,Electric Guitar
517.75,0.6097560975609756,76,108,Electric Guitar
517.75,0.6097560975609756,50,108,Electric Guitar
517.75,0.4878048780487805,72,101,Electric Guitar
517.75,0.4878048780487805,66,101,Electric Guitar
517.75,0.4878048780487805,69,100,Electric Guitar
517.75,0.0,60,127,Electric Guitar
517.75,0.0,64,127,Electric Guitar
517.75,0.0,54,127,Electric Guitar
517.75,0.0,57,127,Electric Guitar
517.75,0.12195121951219512,38,127,Electric Guitar
517.75,0.0,54,82,Electric Guitar
517.75,0.0,70,82,Electric Guitar
517.75,0.0,36,84,Electric Guitar
517.75,0.0,42,84,Electric Guitar
517.75,0.0,64,85,Electric Guitar
517.75,0.0,57,85,Electric Guitar
517.75,0.0,60,85,Electric Guitar
518.0,0.16260162601626016,60,120,Electric Guitar
518.0,0.24390243902439024,38,127,Electric Guitar
518.0,0.12195121951219512,36,127,Electric Guitar
518.0,0.0,42,99,Electric Guitar
518.0,0.0,54,99,Electric Guitar
518.0,0.0,70,99,Electric Guitar
518.0,0.0,44,117,Electric Guitar
518.0,0.4878048780487805,96,127,Electric Guitar
518.0,0.12195121951219512,72,127,Electric Guitar
518.0,0.4878048780487805,84,127,Electric Guitar
518.0,0.12195121951219512,60,127,Electric Guitar
518.0,0.0,62,115,Electric Guitar
518.0,0.0,66,115,Electric Guitar
518.0,0.0,57,115,Electric Guitar
518.25,0.8536585365853658,57,106,Electric Guitar
518.25,0.0,42,82,Electric Guitar
518.25,0.0,54,82,Electric Guitar
518.25,0.0,70,82,Electric Guitar
518.25,0.12195121951219512,38,77,Electric Guitar
518.25,0.0,42,63,Electric Guitar
518.25,0.12195121951219512,69,127,Electric Guitar
518.25,0.12195121951219512,57,127,Electric Guitar
518.25,0.0,66,78,Electric Guitar
518.25,0.0,62,78,Electric Guitar
518.25,0.0,57,78,Electric Guitar
518.5,0.24390243902439024,45,127,Electric Guitar
518.5,0.36585365853658536,38,127,Electric Guitar
518.5,0.36585365853658536,54,127,Electric Guitar
518.5,0.36585365853658536,57,127,Electric Guitar
518.5,0.36585365853658536,64,127,Electric Guitar
518.5,0.36585365853658536,60,127,Electric Guitar
518.5,0.0,46,124,Electric Guitar
518.5,0.0,54,124,Electric Guitar
518.5,0.0,70,124,Electric Guitar
518.5,0.0,36,100,Electric Guitar
518.5,0.0,42,100,Electric Guitar
518.5,0.12195121951219512,67,127,Electric Guitar
518.5,0.12195121951219512,55,127,Electric Guitar
518.5,0.12195121951219512,69,107,Electric Guitar
518.5,0.12195121951219512,81,107,Electric Guitar
518.5,0.0,66,78,Electric Guitar
518.5,0.0,57,78,Electric Guitar
518.5,0.0,62,78,Electric Guitar
518.75,0.0,54,60,Electric Guitar
518.75,0.0,70,60,Electric Guitar
518.75,0.0,42,71,Electric Guitar
518.75,0.12195121951219512,63,127,Electric Guitar
518.75,0.12195121951219512,51,127,Electric Guitar
518.75,0.0,62,84,Electric Guitar
518.75,0.0,66,84,Electric Guitar
518.75,0.0,57,84,Electric Guitar
519.0,0.12195121951219512,48,127,Electric Guitar
519.0,0.12195121951219512,36,127,Electric Guitar
519.0,0.12195121951219512,38,127,Electric Guitar
519.0,0.0,42,94,Electric Guitar
519.0,0.0,54,94,Electric Guitar
519.0,0.0,70,94,Electric Guitar
519.0,0.0,44,124,Electric Guitar
519.0,0.0,40,124,Electric Guitar
519.0,0.4878048780487805,98,127,Electric Guitar
519.0,0.12195121951219512,62,127,Electric Guitar
519.0,0.4878048780487805,86,127,Electric Guitar
519.0,0.12195121951219512,50,127,Electric Guitar
519.0,0.12195121951219512,69,107,Electric Guitar
519.0,0.12195121951219512,81,107,Electric Guitar
519.0,0.0,66,112,Electric Guitar
519.0,0.0,57,112,Electric Guitar
519.0,0.0,62,112,Electric Guitar
519.25,0.12195121951219512,50,127,Electric Guitar
519.25,0.0,42,90,Electric Guitar
519.25,0.0,54,90,Electric Guitar
519.25,0.0,70,90,Electric Guitar
519.25,0.0,36,86,Electric Guitar
519.25,0.0,42,86,Electric Guitar
519.25,0.12195121951219512,60,127,Electric Guitar
519.25,0.12195121951219512,48,127,Electric Guitar
519.25,0.24390243902439024,84,107,Electric Guitar
519.25,0.16260162601626016,72,107,Electric Guitar
519.25,0.0,66,92,Electric Guitar
519.25,0.0,62,92,Electric Guitar
519.25,0.0,57,92,Electric Guitar
519.5,0.12195121951219512,48,127,Electric Guitar
519.5,0.0,54,127,Electric Guitar
519.5,0.0,60,127,Electric Guitar
519.5,0.0,64,127,Electric Guitar
519.5,0.0,57,127,Electric Guitar
519.5,0.12195121951219512,38,127,Electric Guitar
519.5,0.0,46,127,Electric Guitar
519.5,0.0,54,127,Electric Guitar
519.5,0.0,70,127,Electric Guitar
519.5,0.0,42,89,Electric Guitar
519.5,0.12195121951219512,57,127,Electric Guitar
519.5,0.12195121951219512,45,127,Electric Guitar
519.5,0.0,66,83,Electric Guitar
519.5,0.0,57,83,Electric Guitar
519.5,0.0,62,83,Electric Guitar
519.75,0.12195121951219512,33,127,Electric Guitar
519.75,0.12195121951219512,38,77,Electric Guitar
519.75,0.0,54,82,Electric Guitar
519.75,0.0,70,82,Electric Guitar
519.75,0.0,36,84,Electric Guitar
519.75,0.0,42,84,Electric Guitar
519.75,0.12195121951219512,55,127,Electric Guitar
519.75,0.12195121951219512,43,127,Electric Guitar
519.75,0.0,66,85,Electric Guitar
519.75,0.0,62,85,Electric Guitar
519.75,0.0,57,85,Electric Guitar
520.0,0.12195121951219512,63,115,Electric Guitar
520.0,0.16260162601626016,50,127,Electric Guitar
520.0,0.4878048780487805,72,104,Electric Guitar
520.0,0.4878048780487805,76,104,Electric Guitar
520.0,0.4878048780487805,69,104,Electric Guitar
520.0,0.4878048780487805,50,114,Electric Guitar
520.0,0.4878048780487805,65,114,Electric Guitar
520.0,0.16260162601626016,38,127,Electric Guitar
520.0,0.0,57,127,Electric Guitar
520.0,0.0,60,127,Electric Guitar
520.0,0.0,53,127,Electric Guitar
520.0,0.0,64,127,Electric Guitar
520.0,0.12195121951219512,36,127,Electric Guitar
520.0,0.0,42,99,Electric Guitar
520.0,0.0,54,99,Electric Guitar
520.0,0.0,70,99,Electric Guitar
520.0,0.0,36,110,Electric Guitar
520.0,0.0,42,110,Electric Guitar
520.0,0.975609756097561,98,127,Electric Guitar
520.0,0.975609756097561,57,127,Electric Guitar
520.0,0.975609756097561,86,127,Electric Guitar
520.0,0.975609756097561,45,127,Electric Guitar
520.0,0.16260162601626016,81,107,Electric Guitar
520.0,0.16260162601626016,69,107,Electric Guitar
520.0,0.0,62,116,Electric Guitar
520.0,0.0,57,116,Electric Guitar
520.0,0.0,65,116,Electric Guitar
520.25,0.12195121951219512,64,101,Electric Guitar
520.25,0.0,42,82,Electric Guitar
520.25,0.0,54,82,Electric Guitar
520.25,0.0,70,82,Electric Guitar
520.25,0.0,42,63,Electric Guitar
520.25,0.0,62,78,Electric Guitar
520.25,0.0,65,78,Electric Guitar
520.25,0.0,57,78,Electric Guitar
520.5,0.12195121951219512,67,108,Electric Guitar
520.5,0.24390243902439024,45,127,Electric Guitar
520.5,0.0,46,124,Electric Guitar
520.5,0.0,54,124,Electric Guitar
520.5,0.0,70,124,Electric Guitar
520.5,0.0,42,93,Electric Guitar
520.5,0.0,62,90,Electric Guitar
520.5,0.0,57,90,Electric Guitar
520.5,0.0,65,90,Electric Guitar
520.75,0.12195121951219512,63,106,Electric Guitar
520.75,0.0,54,60,Electric Guitar
520.75,0.0,70,60,Electric Guitar
520.75,0.0,36,85,Electric Guitar
520.75,0.0,42,85,Electric Guitar
520.75,0.0,65,68,Electric Guitar
520.75,0.0,62,68,Electric Guitar
520.75,0.0,57,68,Electric Guitar
521.0,0.12195121951219512,64,110,Electric Guitar
521.0,0.12195121951219512,38,127,Electric Guitar
521.0,0.24390243902439024,60,127,Electric Guitar
521.0,0.24390243902439024,64,127,Electric Guitar
521.0,0.24390243902439024,57,127,Electric Guitar
521.0,0.24390243902439024,53,127,Electric Guitar
521.0,0.3252032520325203,38,127,Electric Guitar
521.0,0.12195121951219512,36,127,Electric Guitar
521.0,0.12195121951219512,38,127,Electric Guitar
521.0,0.0,42,94,Electric Guitar
521.0,0.0,54,94,Electric Guitar
521.0,0.0,70,94,Electric Guitar
521.0,0.0,42,106,Electric Guitar
521.0,0.0,40,106,Electric Guitar
521.0,0.0,62,117,Electric Guitar
521.0,0.0,65,117,Electric Guitar
521.0,0.0,57,117,Electric Guitar
521.25,0.12195121951219512,67,102,Electric Guitar
521.25,0.12195121951219512,33,127,Electric Guitar
521.25,0.0,42,90,Electric Guitar
521.25,0.0,54,90,Electric Guitar
521.25,0.0,70,90,Electric Guitar
521.25,0.0,42,53,Electric Guitar
521.25,0.0,62,88,Electric Guitar
521.25,0.0,57,88,Electric Guitar
521.25,0.0,65,88,Electric Guitar
521.5,0.16260162601626016,63,101,Electric Guitar
521.5,0.12195121951219512,26,127,Electric Guitar
521.5,0.0,46,127,Electric Guitar
521.5,0.0,54,127,Electric Guitar
521.5,0.0,70,127,Electric Guitar
521.5,0.0,36,102,Electric Guitar
521.5,0.0,42,102,Electric Guitar
521.5,0.0,62,89,Electric Guitar
521.5,0.0,57,89,Electric Guitar
521.5,0.0,65,89,Electric Guitar
521.75,0.12195121951219512,64,106,Electric Guitar
521.75,0.36585365853658536,28,127,Electric Guitar
521.75,0.0,56,127,Electric Guitar
521.75,0.0,62,127,Electric Guitar
521.75,0.0,52,127,Electric Guitar
521.75,0.0,59,127,Electric Guitar
521.75,0.12195121951219512,40,127,Electric Guitar
521.75,0.0,54,82,Electric Guitar
521.75,0.0,70,82,Electric Guitar
521.75,0.0,36,84,Electric Guitar
521.75,0.0,42,84,Electric Guitar
521.75,0.0,62,87,Electric Guitar
521.75,0.0,65,87,Electric Guitar
521.75,0.0,57,87,Electric Guitar
522.0,0.12195121951219512,67,108,Electric Guitar
522.0,0.36585365853658536,64,110,Electric Guitar
522.0,0.4878048780487805,71,98,Electric Guitar
522.0,0.4878048780487805,68,98,Electric Guitar
522.0,0.4878048780487805,74,98,Electric Guitar
522.0,0.8536585365853658,52,105,Electric Guitar
522.0,0.12195121951219512,36,127,Electric Guitar
522.0,0.0,42,99,Electric Guitar
522.0,0.0,54,99,Electric Guitar
522.0,0.0,70,99,Electric Guitar
522.0,0.0,44,117,Electric Guitar
522.0,0.975609756097561,100,127,Electric Guitar
522.0,0.975609756097561,56,127,Electric Guitar
522.0,0.975609756097561,88,127,Electric Guitar
522.0,0.975609756097561,52,127,Electric Guitar
522.0,0.24390243902439024,68,107,Electric Guitar
522.0,0.3252032520325203,80,107,Electric Guitar
522.0,0.0,64,118,Electric Guitar
522.0,0.0,56,118,Electric Guitar
522.0,0.0,59,118,Electric Guitar
522.25,0.12195121951219512,63,101,Electric Guitar
522.25,0.0,42,82,Electric Guitar
522.25,0.0,54,82,Electric Guitar
522.25,0.0,70,82,Electric Guitar
522.25,0.12195121951219512,38,77,Electric Guitar
522.25,0.0,42,63,Electric Guitar
522.25,0.0,56,82,Electric Guitar
522.25,0.0,59,82,Electric Guitar
522.25,0.0,64,82,Electric Guitar
522.5,0.12195121951219512,64,108,Electric Guitar
522.5,0.24390243902439024,28,127,Electric Guitar
522.5,0.36585365853658536,62,127,Electric Guitar
522.5,0.36585365853658536,56,127,Electric Guitar
522.5,0.36585365853658536,40,127,Electric Guitar
522.5,0.36585365853658536,52,127,Electric Guitar
522.5,0.36585365853658536,59,127,Electric Guitar
522.5,0.0,46,124,Electric Guitar
522.5,0.0,54,124,Electric Guitar
522.5,0.0,70,124,Electric Guitar
522.5,0.0,36,100,Electric Guitar
522.5,0.0,42,100,Electric Guitar
522.5,0.0,56,82,Electric Guitar
522.5,0.0,59,82,Electric Guitar
522.5,0.0,64,82,Electric Guitar
522.75,0.12195121951219512,67,106,Electric Guitar
522.75,0.0,54,60,Electric Guitar
522.75,0.0,70,60,Electric Guitar
522.75,0.0,42,71,Electric Guitar
522.75,0.0,59,76,Electric Guitar
522.75,0.0,56,76,Electric Guitar
522.75,0.0,64,76,Electric Guitar
523.0,0.16260162601626016,63,96,Electric Guitar
523.0,0.12195121951219512,31,127,Electric Guitar
523.0,0.12195121951219512,36,127,Electric Guitar
523.0,0.12195121951219512,38,127,Electric Guitar
523.0,0.0,42,94,Electric Guitar
523.0,0.0,54,94,Electric Guitar
523.0,0.0,70,94,Electric Guitar
523.0,0.0,44,124,Electric Guitar
523.0,0.0,40,124,Electric Guitar
523.0,0.0,56,111,Electric Guitar
523.0,0.0,59,111,Electric Guitar
523.0,0.0,64,111,Electric Guitar
523.25,0.12195121951219512,64,112,Electric Guitar
523.25,0.12195121951219512,31,127,Electric Guitar
523.25,0.0,42,90,Electric Guitar
523.25,0.0,54,90,Electric Guitar
523.25,0.0,70,90,Electric Guitar
523.25,0.0,36,86,Electric Guitar
523.25,0.0,42,86,Electric Guitar
523.25,0.0,64,74,Electric Guitar
523.25,0.0,59,74,Electric Guitar
523.25,0.0,56,74,Electric Guitar
523.5,0.24390243902439024,67,120,Electric Guitar
523.5,0.24390243902439024,32,127,Electric Guitar
523.5,0.0,52,127,Electric Guitar
523.5,0.0,59,127,Electric Guitar
523.5,0.12195121951219512,56,127,Electric Guitar
523.5,0.12195121951219512,62,127,Electric Guitar
523.5,0.12195121951219512,40,127,Electric Guitar
523.5,0.0,46,127,Electric Guitar
523.5,0.0,54,127,Electric Guitar
523.5,0.0,70,127,Electric Guitar
523.5,0.0,42,89,Electric Guitar
523.5,0.0,56,86,Electric Guitar
523.5,0.0,59,86,Electric Guitar
523.5,0.0,64,86,Electric Guitar
523.75,0.12195121951219512,38,77,Electric Guitar
523.75,0.0,54,82,Electric Guitar
523.75,0.0,70,82,Electric Guitar
523.75,0.0,36,84,Electric Guitar
523.75,0.0,42,84,Electric Guitar
523.75,0.0,56,68,Electric Guitar
523.75,0.0,59,68,Electric Guitar
523.75,0.0,64,68,Electric Guitar
524.0,0.12195121951219512,63,104,Electric Guitar
524.0,0.16260162601626016,33,127,Electric Guitar
524.0,0.6097560975609756,67,107,Electric Guitar
524.0,0.4878048780487805,72,104,Electric Guitar
524.0,0.4878048780487805,76,104,Electric Guitar
524.0,1.4634146341463414,57,103,Electric Guitar
524.0,0.0,55,127,Electric Guitar
524.0,0.0,64,127,Electric Guitar
524.0,0.0,60,127,Electric Guitar
524.0,0.0,59,127,Electric Guitar
524.0,0.12195121951219512,45,127,Electric Guitar
524.0,0.12195121951219512,36,127,Electric Guitar
524.0,0.0,42,99,Electric Guitar
524.0,0.0,54,99,Electric Guitar
524.0,0.0,70,99,Electric Guitar
524.0,0.0,36,110,Electric Guitar
524.0,0.0,42,110,Electric Guitar
524.0,0.4878048780487805,95,127,Electric Guitar
524.0,0.4878048780487805,60,127,Electric Guitar
524.0,0.4878048780487805,83,127,Electric Guitar
524.0,1.951219512195122,45,127,Electric Guitar
524.0,0.24390243902439024,81,107,Electric Guitar
524.0,0.24390243902439024,69,107,Electric Guitar
524.0,0.0,60,107,Electric Guitar
524.0,0.0,57,107,Electric Guitar
524.0,0.0,64,107,Electric Guitar
524.25,0.12195121951219512,64,110,Electric Guitar
524.25,0.0,42,82,Electric Guitar
524.25,0.0,54,82,Electric Guitar
524.25,0.0,70,82,Electric Guitar
524.25,0.0,42,63,Electric Guitar
524.25,0.0,64,77,Electric Guitar
524.25,0.0,60,77,Electric Guitar
524.25,0.0,57,77,Electric Guitar
524.5,0.12195121951219512,67,108,Electric Guitar
524.5,0.24390243902439024,40,127,Electric Guitar
524.5,0.0,46,124,Electric Guitar
524.5,0.0,54,124,Electric Guitar
524.5,0.0,70,124,Electric Guitar
524.5,0.0,42,93,Electric Guitar
524.5,0.0,60,75,Electric Guitar
524.5,0.0,64,75,Electric Guitar
524.5,0.0,57,75,Electric Guitar
524.75,0.16260162601626016,63,104,Electric Guitar
524.75,0.0,54,60,Electric Guitar
524.75,0.0,70,60,Electric Guitar
524.75,0.0,36,85,Electric Guitar
524.75,0.0,42,85,Electric Guitar
524.75,0.0,60,74,Electric Guitar
524.75,0.0,64,74,Electric Guitar
524.75,0.0,57,74,Electric Guitar
525.0,0.12195121951219512,64,113,Electric Guitar
525.0,0.12195121951219512,43,127,Electric Guitar
525.0,0.3252032520325203,45,127,Electric Guitar
525.0,0.24390243902439024,55,127,Electric Guitar
525.0,0.24390243902439024,64,127,Electric Guitar
525.0,0.24390243902439024,59,127,Electric Guitar
525.0,0.24390243902439024,60,127,Electric Guitar
525.0,0.12195121951219512,36,127,Electric Guitar
525.0,0.12195121951219512,38,127,Electric Guitar
525.0,0.0,42,94,Electric Guitar
525.0,0.0,54,94,Electric Guitar
525.0,0.0,70,94,Electric Guitar
525.0,0.0,42,106,Electric Guitar
525.0,0.0,40,106,Electric Guitar
525.0,0.4878048780487805,96,127,Electric Guitar
525.0,0.4878048780487805,57,127,Electric Guitar
525.0,0.4878048780487805,84,127,Electric Guitar
525.0,0.0,60,112,Electric Guitar
525.0,0.0,57,112,Electric Guitar
525.0,0.0,64,112,Electric Guitar
525.25,0.12195121951219512,67,112,Electric Guitar
525.25,0.12195121951219512,40,127,Electric Guitar
525.25,0.0,42,90,Electric Guitar
525.25,0.0,54,90,Electric Guitar
525.25,0.0,70,90,Electric Guitar
525.25,0.0,42,53,Electric Guitar
525.25,0.0,60,31,Electric Guitar
525.5,0.16260162601626016,63,104,Electric Guitar
525.5,0.12195121951219512,43,127,Electric Guitar
525.5,0.0,46,127,Electric Guitar
525.5,0.0,54,127,Electric Guitar
525.5,0.0,70,127,Electric Guitar
525.5,0.0,36,102,Electric Guitar
525.5,0.0,42,102,Electric Guitar
525.5,0.0,60,85,Electric Guitar
525.5,0.0,64,85,Electric Guitar
525.5,0.0,57,85,Electric Guitar
525.75,0.12195121951219512,64,110,Electric Guitar
525.75,0.36585365853658536,45,127,Electric Guitar
525.75,0.0,55,127,Electric Guitar
525.75,0.0,61,127,Electric Guitar
525.75,0.0,64,127,Electric Guitar
525.75,0.0,58,127,Electric Guitar
525.75,0.12195121951219512,45,127,Electric Guitar
525.75,0.0,54,82,Electric Guitar
525.75,0.0,70,82,Electric Guitar
525.75,0.0,36,84,Electric Guitar
525.75,0.0,42,84,Electric Guitar
525.75,0.0,60,85,Electric Guitar
525.75,0.0,64,85,Electric Guitar
525.75,0.0,57,85,Electric Guitar
526.0,0.12195121951219512,67,106,Electric Guitar
526.0,0.36585365853658536,73,99,Electric Guitar
526.0,0.36585365853658536,67,99,Electric Guitar
526.0,0.36585365853658536,70,99,Electric Guitar
526.0,0.4878048780487805,76,100,Electric Guitar
526.0,0.12195121951219512,36,127,Electric Guitar
526.0,0.0,42,99,Electric Guitar
526.0,0.0,54,99,Electric Guitar
526.0,0.0,70,99,Electric Guitar
526.0,0.0,44,117,Electric Guitar
526.0,0.4878048780487805,100,127,Electric Guitar
526.0,0.4878048780487805,61,127,Electric Guitar
526.0,0.4878048780487805,88,127,Electric Guitar
526.0,0.24390243902439024,76,107,Electric Guitar
526.0,0.24390243902439024,64,107,Electric Guitar
526.0,0.0,60,81,Electric Guitar
526.0,0.0,64,81,Electric Guitar
526.0,0.0,57,81,Electric Guitar
526.25,0.16260162601626016,63,110,Electric Guitar
526.25,0.0,42,82,Electric Guitar
526.25,0.0,54,82,Electric Guitar
526.25,0.0,70,82,Electric Guitar
526.25,0.12195121951219512,38,77,Electric Guitar
526.25,0.0,42,63,Electric Guitar
526.25,0.0,61,112,Electric Guitar
526.25,0.0,64,112,Electric Guitar
526.25,0.0,57,112,Electric Guitar
526.5,0.12195121951219512,64,110,Electric Guitar
526.5,0.24390243902439024,40,127,Electric Guitar
526.5,0.36585365853658536,45,127,Electric Guitar
526.5,0.36585365853658536,55,127,Electric Guitar
526.5,0.36585365853658536,64,127,Electric Guitar
526.5,0.36585365853658536,58,127,Electric Guitar
526.5,0.36585365853658536,61,127,Electric Guitar
526.5,0.0,46,124,Electric Guitar
526.5,0.0,54,124,Electric Guitar
526.5,0.0,70,124,Electric Guitar
526.5,0.0,36,100,Electric Guitar
526.5,0.0,42,100,Electric Guitar
526.5,0.0,61,81,Electric Guitar
526.5,0.0,57,81,Electric Guitar
526.5,0.0,64,81,Electric Guitar
526.75,0.12195121951219512,67,110,Electric Guitar
526.75,0.0,54,60,Electric Guitar
526.75,0.0,70,60,Electric Guitar
526.75,0.0,42,71,Electric Guitar
526.75,0.0,61,81,Electric Guitar
526.75,0.0,57,81,Electric Guitar
526.75,0.0,64,81,Electric Guitar
527.0,0.24390243902439024,63,108,Electric Guitar
527.0,0.12195121951219512,38,127,Electric Guitar
527.0,0.12195121951219512,36,127,Electric Guitar
527.0,0.12195121951219512,38,127,Electric Guitar
527.0,0.0,42,94,Electric Guitar
527.0,0.0,54,94,Electric Guitar
527.0,0.0,70,94,Electric Guitar
527.0,0.0,44,124,Electric Guitar
527.0,0.0,40,124,Electric Guitar
527.0,0.36585365853658536,103,127,Electric Guitar
527.0,0.4878048780487805,64,127,Electric Guitar
527.0,0.36585365853658536,91,127,Electric Guitar
527.0,0.0,64,80,Electric Guitar
527.0,0.0,61,80,Electric Guitar
527.0,0.0,57,80,Electric Guitar
527.25,0.12195121951219512,38,127,Electric Guitar
527.25,0.0,42,90,Electric Guitar
527.25,0.0,54,90,Electric Guitar
527.25,0.0,70,90,Electric Guitar
527.25,0.0,36,86,Electric Guitar
527.25,0.0,42,86,Electric Guitar
527.25,0.0,64,114,Electric Guitar
527.25,0.0,61,114,Electric Guitar
527.25,0.0,57,114,Electric Guitar
527.5,0.3252032520325203,67,110,Electric Guitar
527.5,0.24390243902439024,40,127,Electric Guitar
527.5,0.12195121951219512,45,127,Electric Guitar
527.5,0.0,55,127,Electric Guitar
527.5,0.0,58,127,Electric Guitar
527.5,0.0,61,127,Electric Guitar
527.5,0.0,64,127,Electric Guitar
527.5,0.0,46,127,Electric Guitar
527.5,0.0,54,127,Electric Guitar
527.5,0.0,70,127,Electric Guitar
527.5,0.0,42,89,Electric Guitar
527.5,0.0,64,93,Electric Guitar
527.5,0.0,61,93,Electric Guitar
527.5,0.0,57,93,Electric Guitar
527.75,0.12195121951219512,38,77,Electric Guitar
527.75,0.0,54,82,Electric Guitar
527.75,0.0,70,82,Electric Guitar
527.75,0.0,36,84,Electric Guitar
527.75,0.0,42,84,Electric Guitar
527.75,0.12195121951219512,102,127,Electric Guitar
527.75,0.12195121951219512,90,127,Electric Guitar
527.75,0.0,64,94,Electric Guitar
527.75,0.0,61,94,Electric Guitar
527.75,0.0,57,94,Electric Guitar
528.0,1.4634146341463414,72,120,Electric Guitar
528.0,0.16260162601626016,29,127,Electric Guitar
528.0,0.4878048780487805,65,117,Electric Guitar
528.0,0.4878048780487805,69,102,Electric Guitar
528.0,0.4878048780487805,76,102,Electric Guitar
528.0,0.4878048780487805,72,102,Electric Guitar
528.0,0.4878048780487805,53,102,Electric Guitar
528.0,0.0,57,127,Electric Guitar
528.0,0.0,60,127,Electric Guitar
528.0,0.0,53,127,Electric Guitar
528.0,0.0,64,127,Electric Guitar
528.0,0.12195121951219512,41,127,Electric Guitar
528.0,0.12195121951219512,36,127,Electric Guitar
528.0,0.12195121951219512,57,127,Electric Guitar
528.0,0.0,42,99,Electric Guitar
528.0,0.0,54,99,Electric Guitar
528.0,0.0,70,99,Electric Guitar
528.0,0.0,36,110,Electric Guitar
528.0,0.0,42,110,Electric Guitar
528.0,0.12195121951219512,101,127,Electric Guitar
528.0,1.4634146341463414,100,127,Electric Guitar
528.0,0.8536585365853658,69,127,Electric Guitar
528.0,0.12195121951219512,89,127,Electric Guitar
528.0,1.4634146341463414,88,127,Electric Guitar
528.0,0.8536585365853658,41,127,Electric Guitar
528.0,0.16260162601626016,81,107,Electric Guitar
528.0,0.16260162601626016,69,107,Electric Guitar
528.0,0.0,57,115,Electric Guitar
528.0,0.0,65,115,Electric Guitar
528.0,0.0,60,115,Electric Guitar
528.25,0.0,42,82,Electric Guitar
528.25,0.0,54,82,Electric Guitar
528.25,0.0,70,82,Electric Guitar
528.25,0.0,42,63,Electric Guitar
528.25,0.0,60,88,Electric Guitar
528.25,0.0,57,88,Electric Guitar
528.25,0.0,65,88,Electric Guitar
528.5,0.24390243902439024,41,127,Electric Guitar
528.5,0.0,46,124,Electric Guitar
528.5,0.0,54,124,Electric Guitar
528.5,0.0,70,124,Electric Guitar
528.5,0.0,42,93,Electric Guitar
528.5,0.0,60,88,Electric Guitar
528.5,0.0,57,88,Electric Guitar
528.5,0.0,65,88,Electric Guitar
528.75,0.0,54,60,Electric Guitar
528.75,0.0,70,60,Electric Guitar
528.75,0.0,36,85,Electric Guitar
528.75,0.0,42,85,Electric Guitar
528.75,0.0,60,80,Electric Guitar
528.75,0.0,57,80,Electric Guitar
528.75,0.0,65,80,Electric Guitar
529.0,0.12195121951219512,36,127,Electric Guitar
529.0,0.3252032520325203,41,127,Electric Guitar
529.0,0.3252032520325203,64,127,Electric Guitar
529.0,0.24390243902439024,60,127,Electric Guitar
529.0,0.24390243902439024,57,127,Electric Guitar
529.0,0.24390243902439024,53,127,Electric Guitar
529.0,0.12195121951219512,36,127,Electric Guitar
529.0,0.12195121951219512,38,127,Electric Guitar
529.0,0.0,42,94,Electric Guitar
529.0,0.0,54,94,Electric Guitar
529.0,0.0,70,94,Electric Guitar
529.0,0.0,42,106,Electric Guitar
529.0,0.0,40,106,Electric Guitar
529.0,0.0,65,116,Electric Guitar
529.0,0.0,57,116,Electric Guitar
529.0,0.0,60,116,Electric Guitar
529.25,0.12195121951219512,38,127,Electric Guitar
529.25,0.0,42,90,Electric Guitar
529.25,0.0,54,90,Electric Guitar
529.25,0.0,70,90,Electric Guitar
529.25,0.0,42,53,Electric Guitar
529.25,0.0,60,89,Electric Guitar
529.25,0.0,57,89,Electric Guitar
529.25,0.0,65,89,Electric Guitar
529.5,0.12195121951219512,39,127,Electric Guitar
529.5,0.0,46,127,Electric Guitar
529.5,0.0,54,127,Electric Guitar
529.5,0.0,70,127,Electric Guitar
529.5,0.0,36,102,Electric Guitar
529.5,0.0,42,102,Electric Guitar
529.5,0.0,65,90,Electric Guitar
529.5,0.0,60,90,Electric Guitar
529.5,0.0,57,90,Electric Guitar
529.75,0.36585365853658536,40,127,Electric Guitar
529.75,0.6097560975609756,68,97,Electric Guitar
529.75,0.6097560975609756,74,97,Electric Guitar
529.75,0.4878048780487805,71,100,Electric Guitar
529.75,0.4878048780487805,52,113,Electric Guitar
529.75,0.4878048780487805,64,113,Electric Guitar
529.75,0.0,40,127,Electric Guitar
529.75,0.0,64,127,Electric Guitar
529.75,0.0,56,127,Electric Guitar
529.75,0.0,52,127,Electric Guitar
529.75,0.0,59,127,Electric Guitar
529.75,0.0,54,82,Electric Guitar
529.75,0.0,70,82,Electric Guitar
529.75,0.0,36,84,Electric Guitar
529.75,0.0,42,84,Electric Guitar
529.75,1.0975609756097562,68,127,Electric Guitar
529.75,1.0975609756097562,52,127,Electric Guitar
529.75,0.0,65,87,Electric Guitar
529.75,0.0,60,87,Electric Guitar
529.75,0.0,57,87,Electric Guitar
530.0,0.12195121951219512,36,127,Electric Guitar
530.0,0.0,42,99,Electric Guitar
530.0,0.0,54,99,Electric Guitar
530.0,0.0,70,99,Electric Guitar
530.0,0.0,44,117,Electric Guitar
530.0,0.0,59,117,Electric Guitar
530.0,0.0,56,117,Electric Guitar
530.0,0.0,64,117,Electric Guitar
530.25,0.0,42,82,Electric Guitar
530.25,0.0,54,82,Electric Guitar
530.25,0.0,70,82,Electric Guitar
530.25,0.12195121951219512,38,77,Electric Guitar
530.25,0.0,42,63,Electric Guitar
530.25,0.0,64,99,Electric Guitar
530.25,0.0,56,99,Electric Guitar
530.25,0.0,59,99,Electric Guitar
530.5,0.24390243902439024,28,127,Electric Guitar
530.5,0.36585365853658536,56,127,Electric Guitar
530.5,0.36585365853658536,52,127,Electric Guitar
530.5,0.36585365853658536,64,127,Electric Guitar
530.5,0.36585365853658536,40,127,Electric Guitar
530.5,0.36585365853658536,59,127,Electric Guitar
530.5,0.0,46,124,Electric Guitar
530.5,0.0,54,124,Electric Guitar
530.5,0.0,70,124,Electric Guitar
530.5,0.0,36,100,Electric Guitar
530.5,0.0,42,100,Electric Guitar
530.5,0.16260162601626016,81,107,Electric Guitar
530.5,0.16260162601626016,69,107,Electric Guitar
530.5,0.0,59,78,Electric Guitar
530.5,0.0,64,78,Electric Guitar
530.5,0.0,56,78,Electric Guitar
530.75,0.0,54,60,Electric Guitar
530.75,0.0,70,60,Electric Guitar
530.75,0.0,42,71,Electric Guitar
530.75,0.0,56,80,Electric Guitar
530.75,0.0,59,80,Electric Guitar
530.75,0.0,64,80,Electric Guitar
531.0,0.12195121951219512,69,110,Electric Guitar
531.0,0.12195121951219512,35,127,Electric Guitar
531.0,0.12195121951219512,36,127,Electric Guitar
531.0,0.12195121951219512,38,127,Electric Guitar
531.0,0.0,42,94,Electric Guitar
531.0,0.0,54,94,Electric Guitar
531.0,0.0,70,94,Electric Guitar
531.0,0.0,44,124,Electric Guitar
531.0,0.0,40,124,Electric Guitar
531.0,0.4878048780487805,104,127,Electric Guitar
531.0,0.4878048780487805,92,127,Electric Guitar
531.0,0.0,56,115,Electric Guitar
531.0,0.0,64,115,Electric Guitar
531.0,0.0,59,115,Electric Guitar
531.25,0.12195121951219512,38,127,Electric Guitar
531.25,0.0,42,90,Electric Guitar
531.25,0.0,54,90,Electric Guitar
531.25,0.0,70,90,Electric Guitar
531.25,0.0,36,86,Electric Guitar
531.25,0.0,42,86,Electric Guitar
531.25,0.16260162601626016,80,107,Electric Guitar
531.25,0.16260162601626016,68,107,Electric Guitar
531.25,0.0,56,90,Electric Guitar
531.25,0.0,59,90,Electric Guitar
531.25,0.0,64,90,Electric Guitar
531.5,1.7073170731707317,69,104,Electric Guitar
531.5,0.24390243902439024,40,127,Electric Guitar
531.5,0.0,52,127,Electric Guitar
531.5,0.0,56,127,Electric Guitar
531.5,0.0,64,127,Electric Guitar
531.5,0.0,40,127,Electric Guitar
531.5,0.0,59,127,Electric Guitar
531.5,0.0,46,127,Electric Guitar
531.5,0.0,54,127,Electric Guitar
531.5,0.0,70,127,Electric Guitar
531.5,0.0,42,89,Electric Guitar
531.5,0.0,64,87,Electric Guitar
531.5,0.0,59,87,Electric Guitar
531.5,0.0,56,87,Electric Guitar
531.75,0.12195121951219512,38,77,Electric Guitar
531.75,0.0,54,82,Electric Guitar
531.75,0.0,70,82,Electric Guitar
531.75,0.0,36,84,Electric Guitar
531.75,0.0,42,84,Electric Guitar
531.75,0.0,64,92,Electric Guitar
531.75,0.0,59,92,Electric Guitar
531.75,0.0,56,92,Electric Guitar
532.0,0.24390243902439024,33,127,Electric Guitar
532.0,0.4878048780487805,72,102,Electric Guitar
532.0,0.4878048780487805,67,102,Electric Guitar
532.0,0.36585365853658536,76,104,Electric Guitar
532.0,0.36585365853658536,57,104,Electric Guitar
532.0,0.0,55,127,Electric Guitar
532.0,0.0,60,127,Electric Guitar
532.0,0.0,59,127,Electric Guitar
532.0,0.12195121951219512,64,127,Electric Guitar
532.0,0.12195121951219512,45,127,Electric Guitar
532.0,0.12195121951219512,36,127,Electric Guitar
532.0,0.0,42,99,Electric Guitar
532.0,0.0,54,99,Electric Guitar
532.0,0.0,70,99,Electric Guitar
532.0,0.0,36,110,Electric Guitar
532.0,0.0,42,110,Electric Guitar
532.0,0.36585365853658536,105,127,Electric Guitar
532.0,0.8536585365853658,67,127,Electric Guitar
532.0,0.36585365853658536,93,127,Electric Guitar
532.0,0.8536585365853658,45,127,Electric Guitar
532.0,0.16260162601626016,69,107,Electric Guitar
532.0,0.24390243902439024,81,107,Electric Guitar
532.0,0.0,64,116,Electric Guitar
532.0,0.0,60,116,Electric Guitar
532.0,0.0,57,116,Electric Guitar
532.25,0.0,42,82,Electric Guitar
532.25,0.0,54,82,Electric Guitar
532.25,0.0,70,82,Electric Guitar
532.25,0.0,42,63,Electric Guitar
532.25,0.0,64,94,Electric Guitar
532.25,0.0,60,94,Electric Guitar
532.25,0.0,57,94,Electric Guitar
532.5,0.24390243902439024,45,127,Electric Guitar
532.5,0.0,46,124,Electric Guitar
532.5,0.0,54,124,Electric Guitar
532.5,0.0,70,124,Electric Guitar
532.5,0.0,42,93,Electric Guitar
532.5,0.0,64,66,Electric Guitar
532.5,0.0,60,66,Electric Guitar
532.5,0.0,57,66,Electric Guitar
532.75,0.0,54,60,Electric Guitar
532.75,0.0,70,60,Electric Guitar
532.75,0.0,36,85,Electric Guitar
532.75,0.0,42,85,Electric Guitar
532.75,0.0,101,127,Electric Guitar
532.75,0.0,89,127,Electric Guitar
532.75,0.0,64,88,Electric Guitar
532.75,0.0,60,88,Electric Guitar
532.75,0.0,57,88,Electric Guitar
533.0,0.12195121951219512,35,127,Electric Guitar
533.0,0.24390243902439024,55,127,Electric Guitar
533.0,0.24390243902439024,64,127,Electric Guitar
533.0,0.24390243902439024,60,127,Electric Guitar
533.0,0.24390243902439024,59,127,Electric Guitar
533.0,0.3252032520325203,45,127,Electric Guitar
533.0,0.12195121951219512,36,127,Electric Guitar
533.0,0.12195121951219512,38,127,Electric Guitar
533.0,0.0,42,94,Electric Guitar
533.0,0.0,54,94,Electric Guitar
533.0,0.0,70,94,Electric Guitar
533.0,0.0,42,106,Electric Guitar
533.0,0.0,40,106,Electric Guitar
533.0,0.12195121951219512,100,127,Electric Guitar
533.0,0.24390243902439024,99,127,Electric Guitar
533.0,0.12195121951219512,88,127,Electric Guitar
533.0,0.24390243902439024,87,127,Electric Guitar
533.0,0.0,64,114,Electric Guitar
533.0,0.0,60,114,Electric Guitar
533.0,0.0,57,114,Electric Guitar
533.25,0.12195121951219512,36,127,Electric Guitar
533.25,0.0,42,90,Electric Guitar
533.25,0.0,54,90,Electric Guitar
533.25,0.0,70,90,Electric Guitar
533.25,0.0,42,53,Electric Guitar
533.25,0.0,64,85,Electric Guitar
533.25,0.0,60,85,Electric Guitar
533.25,0.0,57,85,Electric Guitar
533.5,0.12195121951219512,37,127,Electric Guitar
533.5,0.0,46,127,Electric Guitar
533.5,0.0,54,127,Electric Guitar
533.5,0.0,70,127,Electric Guitar
533.5,0.0,36,102,Electric Guitar
533.5,0.0,42,102,Electric Guitar
533.5,0.6504065040650406,98,127,Electric Guitar
533.5,0.6504065040650406,86,127,Electric Guitar
533.5,0.0,64,96,Electric Guitar
533.5,0.0,60,96,Electric Guitar
533.5,0.0,57,96,Electric Guitar
533.75,0.12195121951219512,38,127,Electric Guitar
533.75,0.6097560975609756,72,101,Electric Guitar
533.75,0.6097560975609756,66,101,Electric Guitar
533.75,0.6097560975609756,50,101,Electric Guitar
533.75,0.6504065040650406,76,105,Electric Guitar
533.75,0.4878048780487805,69,96,Electric Guitar
533.75,0.0,60,127,Electric Guitar
533.75,0.0,64,127,Electric Guitar
533.75,0.0,54,127,Electric Guitar
533.75,0.0,57,127,Electric Guitar
533.75,0.12195121951219512,38,127,Electric Guitar
533.75,0.0,54,82,Electric Guitar
533.75,0.0,70,82,Electric Guitar
533.75,0.0,36,84,Electric Guitar
533.75,0.0,42,84,Electric Guitar
533.75,1.0975609756097562,66,127,Electric Guitar
533.75,1.0975609756097562,50,127,Electric Guitar
533.75,0.0,64,85,Electric Guitar
533.75,0.0,57,85,Electric Guitar
533.75,0.0,60,85,Electric Guitar
534.0,0.24390243902439024,38,127,Electric Guitar
534.0,0.12195121951219512,36,127,Electric Guitar
534.0,0.0,42,99,Electric Guitar
534.0,0.0,54,99,Electric Guitar
534.0,0.0,70,99,Electric Guitar
534.0,0.0,44,117,Electric Guitar
534.0,0.0,62,115,Electric Guitar
534.0,0.0,66,115,Electric Guitar
534.0,0.0,57,115,Electric Guitar
534.25,0.0,42,82,Electric Guitar
534.25,0.0,54,82,Electric Guitar
534.25,0.0,70,82,Electric Guitar
534.25,0.12195121951219512,38,77,Electric Guitar
534.25,0.0,42,63,Electric Guitar
534.25,0.0,66,78,Electric Guitar
534.25,0.0,62,78,Electric Guitar
534.25,0.0,57,78,Electric Guitar
534.5,0.24390243902439024,36,127,Electric Guitar
534.5,0.36585365853658536,38,127,Electric Guitar
534.5,0.36585365853658536,54,127,Electric Guitar
534.5,0.36585365853658536,57,127,Electric Guitar
534.5,0.36585365853658536,64,127,Electric Guitar
534.5,0.36585365853658536,60,127,Electric Guitar
534.5,0.0,46,124,Electric Guitar
534.5,0.0,54,124,Electric Guitar
534.5,0.0,70,124,Electric Guitar
534.5,0.0,36,100,Electric Guitar
534.5,0.0,42,100,Electric Guitar
534.5,0.12195121951219512,69,107,Electric Guitar
534.5,0.12195121951219512,81,107,Electric Guitar
534.5,0.0,66,78,Electric Guitar
534.5,0.0,57,78,Electric Guitar
534.5,0.0,62,78,Electric Guitar
534.75,0.0,54,60,Electric Guitar
534.75,0.0,70,60,Electric Guitar
534.75,0.0,42,71,Electric Guitar
534.75,0.0,62,84,Electric Guitar
534.75,0.0,66,84,Electric Guitar
534.75,0.0,57,84,Electric Guitar
535.0,0.12195121951219512,36,127,Electric Guitar
535.0,0.12195121951219512,36,127,Electric Guitar
535.0,0.12195121951219512,38,127,Electric Guitar
535.0,0.0,42,94,Electric Guitar
535.0,0.0,54,94,Electric Guitar
535.0,0.0,70,94,Electric Guitar
535.0,0.0,44,124,Electric Guitar
535.0,0.0,40,124,Electric Guitar
535.0,0.36585365853658536,96,127,Electric Guitar
535.0,0.36585365853658536,84,127,Electric Guitar
535.0,0.12195121951219512,69,107,Electric Guitar
535.0,0.12195121951219512,81,107,Electric Guitar
535.0,0.0,66,112,Electric Guitar
535.0,0.0,57,112,Electric Guitar
535.0,0.0,62,112,Electric Guitar
535.25,0.12195121951219512,38,127,Electric Guitar
535.25,0.0,42,90,Electric Guitar
535.25,0.0,54,90,Electric Guitar
535.25,0.0,70,90,Electric Guitar
535.25,0.0,36,86,Electric Guitar
535.25,0.0,42,86,Electric Guitar
535.25,0.24390243902439024,84,107,Electric Guitar
535.25,0.16260162601626016,72,107,Electric Guitar
535.25,0.0,66,92,Electric Guitar
535.25,0.0,62,92,Electric Guitar
535.25,0.0,57,92,Electric Guitar
535.5,0.12195121951219512,36,127,Electric Guitar
535.5,0.0,54,127,Electric Guitar
535.5,0.0,60,127,Electric Guitar
535.5,0.0,64,127,Electric Guitar
535.5,0.0,57,127,Electric Guitar
535.5,0.12195121951219512,38,127,Electric Guitar
535.5,0.0,46,127,Electric Guitar
535.5,0.0,54,127,Electric Guitar
535.5,0.0,70,127,Electric Guitar
535.5,0.0,42,89,Electric Guitar
535.5,0.0,66,83,Electric Guitar
535.5,0.0,57,83,Electric Guitar
535.5,0.0,62,83,Electric Guitar
535.75,0.12195121951219512,33,127,Electric Guitar
535.75,0.12195121951219512,38,77,Electric Guitar
535.75,0.0,54,82,Electric Guitar
535.75,0.0,70,82,Electric Guitar
535.75,0.0,36,84,Electric Guitar
535.75,0.0,42,84,Electric Guitar
535.75,0.12195121951219512,95,127,Electric Guitar
535.75,0.0,94,127,Electric Guitar
535.75,0.12195121951219512,83,127,Electric Guitar
535.75,0.0,82,127,Electric Guitar
535.75,0.0,66,85,Electric Guitar
535.75,0.0,62,85,Electric Guitar
535.75,0.0,57,85,Electric Guitar
