Start,Duration,Pitch,Velocity,Instrument
4.0,0.0,36,99,Electric Organ
4.0,0.0,42,99,Electric Organ
4.0,1.875,23,85,Electric Organ
4.0,1.875,35,85,Electric Organ
5.0,0.0,36,99,Electric Organ
5.0,0.0,42,99,Electric Organ
6.0,0.625,42,106,Electric Organ
6.0,0.625,40,106,Electric Organ
6.0,1.875,40,100,Electric Organ
7.0,0.0,42,92,Electric Organ
7.0,0.625,30,85,Electric Organ
7.0,0.625,42,85,Electric Organ
8.0,0.0,36,99,Electric Organ
8.0,0.0,42,99,Electric Organ
8.0,2.5,24,85,Electric Organ
8.0,2.5,36,85,Electric Organ
9.0,0.0,36,99,Electric Organ
9.0,0.0,42,99,Electric Organ
9.0,1.875,40,100,Electric Organ
10.0,0.625,42,106,Electric Organ
10.0,0.625,40,106,Electric Organ
11.0,0.0,42,92,Electric Organ
12.0,0.0,36,99,Electric Organ
12.0,0.0,42,99,Electric Organ
12.0,1.875,40,100,Electric Organ
12.0,1.875,23,85,Electric Organ
12.0,1.875,35,85,Electric Organ
13.0,0.0,36,99,Electric Organ
13.0,0.0,42,99,Electric Organ
14.0,0.625,42,106,Electric Organ
14.0,0.625,40,106,Electric Organ
15.0,0.0,42,92,Electric Organ
15.0,3.125,40,100,Electric Organ
15.0,0.625,30,85,Electric Organ
15.0,0.625,42,85,Electric Organ
16.0,0.0,36,99,Electric Organ
16.0,0.0,42,99,Electric Organ
16.0,2.5,24,85,Electric Organ
16.0,2.5,36,85,Electric Organ
17.0,0.0,36,99,Electric Organ
17.0,0.0,42,99,Electric Organ
18.0,0.625,42,106,Electric Organ
18.0,0.625,40,106,Electric Organ
19.0,0.0,42,92,Electric Organ
20.0,0.0,36,99,Electric Organ
20.0,0.0,42,99,Electric Organ
20.0,0.625,40,100,Electric Organ
20.0,1.875,23,88,Electric Organ
20.0,1.875,47,88,Electric Organ
20.0,1.875,35,88,Electric Organ
21.0,0.0,36,99,Electric Organ
21.0,0.0,42,99,Electric Organ
21.0,1.875,40,100,Electric Organ
22.0,0.625,42,106,Electric Organ
22.0,0.625,40,106,Electric Organ
23.0,0.0,42,92,Electric Organ
23.0,0.625,30,88,Electric Organ
23.0,0.625,54,88,Electric Organ
23.0,0.625,42,88,Electric Organ
24.0,0.0,36,99,Electric Organ
24.0,0.0,42,99,Electric Organ
24.0,2.5,48,100,Electric Organ
24.0,2.5,24,88,Electric Organ
24.0,2.5,48,88,Electric Organ
24.0,2.5,36,88,Electric Organ
25.0,0.0,36,99,Electric Organ
25.0,0.0,42,99,Electric Organ
26.0,0.625,42,106,Electric Organ
26.0,0.625,40,106,Electric Organ
27.0,0.0,42,92,Electric Organ
28.0,0.0,36,99,Electric Organ
28.0,0.0,42,99,Electric Organ
28.0,1.875,47,100,Electric Organ
28.0,1.875,23,85,Electric Organ
28.0,1.875,59,85,Electric Organ
28.0,1.875,47,85,Electric Organ
28.0,1.875,35,85,Electric Organ
29.0,0.0,36,99,Electric Organ
29.0,0.0,42,99,Electric Organ
30.0,0.625,42,106,Electric Organ
30.0,0.625,40,106,Electric Organ
31.0,0.0,42,92,Electric Organ
31.0,0.625,40,100,Electric Organ
31.0,0.625,30,85,Electric Organ
31.0,0.625,66,85,Electric Organ
31.0,0.625,54,85,Electric Organ
31.0,0.625,42,85,Electric Organ
32.0,0.0,36,99,Electric Organ
32.0,0.0,42,99,Electric Organ
32.0,2.5,50,100,Electric Organ
32.0,2.5,24,85,Electric Organ
32.0,2.5,60,85,Electric Organ
32.0,2.5,48,85,Electric Organ
32.0,2.5,36,85,Electric Organ
33.0,0.0,36,99,Electric Organ
33.0,0.0,42,99,Electric Organ
34.0,0.625,42,106,Electric Organ
34.0,0.625,40,106,Electric Organ
35.0,0.0,42,92,Electric Organ
36.0,0.0,36,92,Electric Organ
36.0,0.0,49,92,Electric Organ
36.0,2.5,46,100,Electric Organ
36.0,10.0,23,82,Electric Organ
36.0,10.0,47,82,Electric Organ
36.0,10.0,35,82,Electric Organ
38.0,0.3125,35,100,Electric Organ
38.0,0.3125,47,100,Electric Organ
38.75,0.3125,35,100,Electric Organ
38.75,0.3125,47,100,Electric Organ
40.0,0.3125,35,100,Electric Organ
40.0,0.3125,47,100,Electric Organ
40.0,1.25,47,100,Electric Organ
40.75,0.3125,35,100,Electric Organ
40.75,0.3125,47,100,Electric Organ
41.5,0.3125,35,100,Electric Organ
41.5,0.3125,47,100,Electric Organ
42.0,0.20833333333333331,47,100,Electric Organ
42.333333333333336,0.20833333333333331,52,100,Electric Organ
42.666666666666664,0.20833333333333331,59,100,Electric Organ
43.5,5.3125,47,127,Electric Organ
43.5,5.3125,54,127,Electric Organ
43.5,5.3125,59,127,Electric Organ
43.5,5.3125,61,127,Electric Organ
52.0,0.0,36,92,Electric Organ
52.0,0.0,57,92,Electric Organ
52.75,0.0,36,92,Electric Organ
53.0,0.0,38,99,Electric Organ
53.0,0.0,53,99,Electric Organ
53.5,0.0,36,92,Electric Organ
53.5,0.0,53,92,Electric Organ
54.0,0.0,38,80,Electric Organ
54.0,0.0,40,90,Electric Organ
54.0,0.0,36,99,Electric Organ
54.0,0.0,53,99,Electric Organ
54.25,0.0,42,90,Electric Organ
54.25,0.0,38,106,Electric Organ
54.333333333333336,0.0,43,100,Electric Organ
54.333333333333336,0.0,45,100,Electric Organ
54.5,0.0,47,100,Electric Organ
54.5,0.0,53,92,Electric Organ
54.666666666666664,0.0,48,100,Electric Organ
54.75,0.0,50,100,Electric Organ
54.75,0.0,52,100,Electric Organ
54.75,0.0,36,92,Electric Organ
55.0,0.0,54,100,Electric Organ
55.0,0.0,55,100,Electric Organ
55.0,0.0,38,99,Electric Organ
55.0,0.0,53,99,Electric Organ
55.25,0.0,57,100,Electric Organ
55.25,0.0,59,100,Electric Organ
55.333333333333336,0.0,60,100,Electric Organ
55.5,0.0,62,100,Electric Organ
55.5,0.0,64,100,Electric Organ
55.5,0.0,38,106,Electric Organ
55.666666666666664,0.0,66,100,Electric Organ
55.75,0.31999999999999995,35,110,Electric Organ
55.75,0.72,71,97,Electric Organ
55.75,0.72,74,97,Electric Organ
55.75,0.72,78,97,Electric Organ
55.75,0.0,36,92,Electric Organ
55.75,0.0,49,92,Electric Organ
55.75,0.31999999999999995,47,110,Electric Organ
55.75,0.31999999999999995,54,110,Electric Organ
55.75,0.31999999999999995,47,110,Electric Organ
55.75,0.31999999999999995,54,110,Electric Organ
56.0,0.0,36,106,Electric Organ
56.25,0.0,36,92,Electric Organ
56.5,0.12,35,100,Electric Organ
56.5,0.0,38,101,Electric Organ
56.5,0.0,36,101,Electric Organ
56.5,0.0,53,101,Electric Organ
56.5,0.12,47,95,Electric Organ
56.5,0.12,54,95,Electric Organ
56.5,0.12,47,95,Electric Organ
56.5,0.12,54,95,Electric Organ
56.75,0.12,35,100,Electric Organ
56.75,0.0,36,92,Electric Organ
56.75,0.12,54,95,Electric Organ
56.75,0.12,47,95,Electric Organ
56.75,0.12,54,95,Electric Organ
56.75,0.12,47,95,Electric Organ
57.0,0.12,35,110,Electric Organ
57.0,0.0,36,99,Electric Organ
57.0,0.0,53,99,Electric Organ
57.0,0.12,47,105,Electric Organ
57.0,0.12,54,105,Electric Organ
57.0,0.12,47,105,Electric Organ
57.0,0.12,54,105,Electric Organ
57.25,0.12,35,100,Electric Organ
57.25,0.0,69,100,Electric Organ
57.25,0.0,36,92,Electric Organ
57.25,0.12,54,95,Electric Organ
57.25,0.12,47,95,Electric Organ
57.25,0.12,54,95,Electric Organ
57.25,0.12,47,95,Electric Organ
57.333333333333336,0.0,67,100,Electric Organ
57.5,0.12,35,100,Electric Organ
57.5,0.0,66,100,Electric Organ
57.5,0.0,64,100,Electric Organ
57.5,0.0,38,101,Electric Organ
57.5,0.0,36,101,Electric Organ
57.5,0.0,53,101,Electric Organ
57.5,0.12,47,95,Electric Organ
57.5,0.12,54,95,Electric Organ
57.5,0.12,47,95,Electric Organ
57.5,0.12,54,95,Electric Organ
57.666666666666664,0.0,62,100,Electric Organ
57.75,0.12,35,100,Electric Organ
57.75,0.0,60,100,Electric Organ
57.75,0.0,59,100,Electric Organ
57.75,0.0,36,92,Electric Organ
57.75,0.12,54,95,Electric Organ
57.75,0.12,47,95,Electric Organ
57.75,0.12,54,95,Electric Organ
57.75,0.12,47,95,Electric Organ
58.0,0.12,35,110,Electric Organ
58.0,0.0,57,100,Electric Organ
58.0,0.0,55,90,Electric Organ
58.0,0.0,36,99,Electric Organ
58.0,0.0,53,99,Electric Organ
58.0,0.12,47,105,Electric Organ
58.0,0.12,54,105,Electric Organ
58.0,0.12,47,105,Electric Organ
58.0,0.12,54,105,Electric Organ
58.25,0.12,35,100,Electric Organ
58.25,0.0,54,90,Electric Organ
58.25,0.0,52,80,Electric Organ
58.25,0.0,36,92,Electric Organ
58.25,0.12,54,95,Electric Organ
58.25,0.12,47,95,Electric Organ
58.25,0.12,54,95,Electric Organ
58.25,0.12,47,95,Electric Organ
58.333333333333336,0.0,50,80,Electric Organ
58.5,0.12,35,100,Electric Organ
58.5,0.0,38,101,Electric Organ
58.5,0.0,36,101,Electric Organ
58.5,0.0,53,101,Electric Organ
58.5,0.12,47,95,Electric Organ
58.5,0.12,54,95,Electric Organ
58.5,0.12,47,95,Electric Organ
58.5,0.12,54,95,Electric Organ
58.75,0.12,35,100,Electric Organ
58.75,0.0,36,92,Electric Organ
58.75,0.12,54,95,Electric Organ
58.75,0.12,47,95,Electric Organ
58.75,0.12,54,95,Electric Organ
58.75,0.12,47,95,Electric Organ
59.0,0.12,35,110,Electric Organ
59.0,0.0,36,99,Electric Organ
59.0,0.0,53,99,Electric Organ
59.0,0.12,47,105,Electric Organ
59.0,0.12,54,105,Electric Organ
59.0,0.12,47,105,Electric Organ
59.0,0.12,54,105,Electric Organ
59.25,0.12,35,100,Electric Organ
59.25,0.0,36,92,Electric Organ
59.25,0.12,54,95,Electric Organ
59.25,0.12,47,95,Electric Organ
59.25,0.12,54,95,Electric Organ
59.25,0.12,47,95,Electric Organ
59.5,0.12,35,100,Electric Organ
59.5,0.0,38,101,Electric Organ
59.5,0.0,36,101,Electric Organ
59.5,0.0,53,101,Electric Organ
59.5,0.12,47,95,Electric Organ
59.5,0.12,54,95,Electric Organ
59.5,0.12,47,95,Electric Organ
59.5,0.12,54,95,Electric Organ
59.75,0.12,35,100,Electric Organ
59.75,0.0,36,92,Electric Organ
59.75,0.31999999999999995,54,105,Electric Organ
59.75,0.31999999999999995,47,105,Electric Organ
59.75,0.31999999999999995,54,105,Electric Organ
59.75,0.31999999999999995,47,105,Electric Organ
60.0,0.12,35,110,Electric Organ
60.0,0.0,36,99,Electric Organ
60.0,0.0,53,99,Electric Organ
60.25,0.12,35,100,Electric Organ
60.25,0.0,36,92,Electric Organ
60.5,0.12,35,100,Electric Organ
60.5,0.0,38,101,Electric Organ
60.5,0.0,36,101,Electric Organ
60.5,0.0,53,101,Electric Organ
60.5,0.12,47,95,Electric Organ
60.5,0.12,54,95,Electric Organ
60.5,0.12,47,95,Electric Organ
60.5,0.12,54,95,Electric Organ
60.75,0.12,35,100,Electric Organ
60.75,0.0,30,80,Electric Organ
60.75,0.0,31,80,Electric Organ
60.75,0.0,36,92,Electric Organ
60.75,0.12,54,95,Electric Organ
60.75,0.12,47,95,Electric Organ
60.75,0.12,54,95,Electric Organ
60.75,0.12,47,95,Electric Organ
61.0,0.12,35,110,Electric Organ
61.0,0.0,33,90,Electric Organ
61.0,0.0,35,90,Electric Organ
61.0,0.0,36,99,Electric Organ
61.0,0.0,53,99,Electric Organ
61.0,0.12,47,105,Electric Organ
61.0,0.12,54,105,Electric Organ
61.0,0.12,47,105,Electric Organ
61.0,0.12,54,105,Electric Organ
61.25,0.12,35,100,Electric Organ
61.25,0.0,36,98,Electric Organ
61.25,0.0,38,100,Electric Organ
61.25,0.0,36,92,Electric Organ
61.25,0.12,54,95,Electric Organ
61.25,0.12,47,95,Electric Organ
61.25,0.12,54,95,Electric Organ
61.25,0.12,47,95,Electric Organ
61.333333333333336,0.0,40,100,Electric Organ
61.5,0.12,35,100,Electric Organ
61.5,0.0,42,100,Electric Organ
61.5,0.0,43,100,Electric Organ
61.5,0.0,38,101,Electric Organ
61.5,0.0,36,101,Electric Organ
61.5,0.0,53,101,Electric Organ
61.5,0.12,47,95,Electric Organ
61.5,0.12,54,95,Electric Organ
61.5,0.12,47,95,Electric Organ
61.5,0.12,54,95,Electric Organ
61.666666666666664,0.0,45,100,Electric Organ
61.75,0.12,35,100,Electric Organ
61.75,0.0,47,100,Electric Organ
61.75,0.0,48,100,Electric Organ
61.75,0.0,36,92,Electric Organ
61.75,0.12,54,95,Electric Organ
61.75,0.12,47,95,Electric Organ
61.75,0.12,54,95,Electric Organ
61.75,0.12,47,95,Electric Organ
62.0,0.12,35,110,Electric Organ
62.0,0.0,50,100,Electric Organ
62.0,0.0,52,100,Electric Organ
62.0,0.0,36,99,Electric Organ
62.0,0.0,53,99,Electric Organ
62.0,0.12,47,105,Electric Organ
62.0,0.12,54,105,Electric Organ
62.0,0.12,47,105,Electric Organ
62.0,0.12,54,105,Electric Organ
62.25,0.12,35,100,Electric Organ
62.25,0.0,54,100,Electric Organ
62.25,0.0,55,100,Electric Organ
62.25,0.0,36,92,Electric Organ
62.25,0.12,54,95,Electric Organ
62.25,0.12,47,95,Electric Organ
62.25,0.12,54,95,Electric Organ
62.25,0.12,47,95,Electric Organ
62.333333333333336,0.0,57,100,Electric Organ
62.5,0.12,33,110,Electric Organ
62.5,0.0,59,100,Electric Organ
62.5,0.0,38,101,Electric Organ
62.5,0.0,36,101,Electric Organ
62.5,0.0,53,101,Electric Organ
62.5,0.12,45,110,Electric Organ
62.5,0.12,52,110,Electric Organ
62.5,0.12,45,110,Electric Organ
62.5,0.12,52,110,Electric Organ
62.666666666666664,0.0,60,100,Electric Organ
62.666666666666664,0.0,62,100,Electric Organ
62.75,0.0,64,100,Electric Organ
62.75,0.0,36,92,Electric Organ
63.0,0.12,33,110,Electric Organ
63.0,0.0,66,100,Electric Organ
63.0,0.12,69,97,Electric Organ
63.0,0.12,73,97,Electric Organ
63.0,0.12,76,97,Electric Organ
63.0,0.0,36,99,Electric Organ
63.0,0.0,53,99,Electric Organ
63.0,0.12,45,110,Electric Organ
63.0,0.12,52,110,Electric Organ
63.0,0.12,45,110,Electric Organ
63.0,0.12,52,110,Electric Organ
63.25,0.0,36,92,Electric Organ
63.5,0.12,33,100,Electric Organ
63.5,0.12,69,97,Electric Organ
63.5,0.12,73,97,Electric Organ
63.5,0.12,76,97,Electric Organ
63.5,0.0,38,106,Electric Organ
63.5,0.0,36,106,Electric Organ
63.5,0.12,45,100,Electric Organ
63.5,0.12,52,100,Electric Organ
63.5,0.12,45,100,Electric Organ
63.5,0.12,52,100,Electric Organ
63.75,0.31999999999999995,35,110,Electric Organ
63.75,0.96,71,97,Electric Organ
63.75,0.96,74,97,Electric Organ
63.75,0.96,78,97,Electric Organ
63.75,0.0,36,85,Electric Organ
63.75,0.0,49,85,Electric Organ
63.75,0.31999999999999995,54,110,Electric Organ
63.75,0.31999999999999995,47,110,Electric Organ
63.75,0.31999999999999995,54,110,Electric Organ
63.75,0.31999999999999995,47,110,Electric Organ
64.0,0.0,36,106,Electric Organ
64.25,0.0,36,92,Electric Organ
64.5,0.12,35,100,Electric Organ
64.5,0.0,38,101,Electric Organ
64.5,0.0,36,101,Electric Organ
64.5,0.0,53,101,Electric Organ
64.5,0.12,47,95,Electric Organ
64.5,0.12,54,95,Electric Organ
64.5,0.12,47,95,Electric Organ
64.5,0.12,54,95,Electric Organ
64.75,0.12,35,100,Electric Organ
64.75,0.0,36,92,Electric Organ
64.75,0.12,54,95,Electric Organ
64.75,0.12,47,95,Electric Organ
64.75,0.12,54,95,Electric Organ
64.75,0.12,47,95,Electric Organ
65.0,0.12,35,110,Electric Organ
65.0,0.0,36,99,Electric Organ
65.0,0.0,53,99,Electric Organ
65.0,0.12,47,105,Electric Organ
65.0,0.12,54,105,Electric Organ
65.0,0.12,47,105,Electric Organ
65.0,0.12,54,105,Electric Organ
65.25,0.12,35,100,Electric Organ
65.25,0.0,36,92,Electric Organ
65.25,0.12,54,95,Electric Organ
65.25,0.12,47,95,Electric Organ
65.25,0.12,54,95,Electric Organ
65.25,0.12,47,95,Electric Organ
65.5,0.12,35,100,Electric Organ
65.5,0.0,38,101,Electric Organ
65.5,0.0,36,101,Electric Organ
65.5,0.0,53,101,Electric Organ
65.5,0.12,47,95,Electric Organ
65.5,0.12,54,95,Electric Organ
65.5,0.12,47,95,Electric Organ
65.5,0.12,54,95,Electric Organ
65.75,0.12,35,100,Electric Organ
65.75,0.0,69,100,Electric Organ
65.75,0.0,36,92,Electric Organ
65.75,0.12,54,95,Electric Organ
65.75,0.12,47,95,Electric Organ
65.75,0.12,54,95,Electric Organ
65.75,0.12,47,95,Electric Organ
66.0,0.12,35,110,Electric Organ
66.0,0.0,67,100,Electric Organ
66.0,0.0,66,100,Electric Organ
66.0,0.0,64,100,Electric Organ
66.0,0.0,36,99,Electric Organ
66.0,0.0,53,99,Electric Organ
66.0,0.12,47,105,Electric Organ
66.0,0.12,54,105,Electric Organ
66.0,0.12,47,105,Electric Organ
66.0,0.12,54,105,Electric Organ
66.25,0.12,35,100,Electric Organ
66.25,0.0,62,100,Electric Organ
66.25,0.0,36,92,Electric Organ
66.25,0.12,54,95,Electric Organ
66.25,0.12,47,95,Electric Organ
66.25,0.12,54,95,Electric Organ
66.25,0.12,47,95,Electric Organ
66.33333333333333,0.0,60,100,Electric Organ
66.33333333333333,0.0,59,100,Electric Organ
66.5,0.12,35,100,Electric Organ
66.5,0.0,57,100,Electric Organ
66.5,0.0,38,101,Electric Organ
66.5,0.0,36,101,Electric Organ
66.5,0.0,53,101,Electric Organ
66.5,0.12,47,95,Electric Organ
66.5,0.12,54,95,Electric Organ
66.5,0.12,47,95,Electric Organ
66.5,0.12,54,95,Electric Organ
66.66666666666667,0.0,55,90,Electric Organ
66.75,0.12,35,100,Electric Organ
66.75,0.0,54,90,Electric Organ
66.75,0.0,52,80,Electric Organ
66.75,0.0,36,92,Electric Organ
66.75,0.12,54,95,Electric Organ
66.75,0.12,47,95,Electric Organ
66.75,0.12,54,95,Electric Organ
66.75,0.12,47,95,Electric Organ
67.0,0.12,35,110,Electric Organ
67.0,0.0,50,80,Electric Organ
67.0,0.0,36,99,Electric Organ
67.0,0.0,53,99,Electric Organ
67.0,0.12,47,105,Electric Organ
67.0,0.12,54,105,Electric Organ
67.0,0.12,47,105,Electric Organ
67.0,0.12,54,105,Electric Organ
67.25,0.12,35,100,Electric Organ
67.25,0.0,36,92,Electric Organ
67.25,0.12,54,95,Electric Organ
67.25,0.12,47,95,Electric Organ
67.25,0.12,54,95,Electric Organ
67.25,0.12,47,95,Electric Organ
67.5,0.12,35,100,Electric Organ
67.5,0.0,38,101,Electric Organ
67.5,0.0,36,101,Electric Organ
67.5,0.0,53,101,Electric Organ
67.5,0.12,47,95,Electric Organ
67.5,0.12,54,95,Electric Organ
67.5,0.12,47,95,Electric Organ
67.5,0.12,54,95,Electric Organ
67.75,0.12,35,100,Electric Organ
67.75,0.0,36,92,Electric Organ
67.75,0.31999999999999995,54,105,Electric Organ
67.75,0.31999999999999995,47,105,Electric Organ
67.75,0.31999999999999995,54,105,Electric Organ
67.75,0.31999999999999995,47,105,Electric Organ
68.0,0.12,35,110,Electric Organ
68.0,0.0,36,99,Electric Organ
68.0,0.0,53,99,Electric Organ
68.25,0.12,35,100,Electric Organ
68.25,0.0,36,92,Electric Organ
68.5,0.12,35,100,Electric Organ
68.5,0.0,38,101,Electric Organ
68.5,0.0,36,101,Electric Organ
68.5,0.0,53,101,Electric Organ
68.5,0.12,47,95,Electric Organ
68.5,0.12,54,95,Electric Organ
68.5,0.12,47,95,Electric Organ
68.5,0.12,54,95,Electric Organ
68.75,0.12,35,100,Electric Organ
68.75,0.0,30,80,Electric Organ
68.75,0.0,31,80,Electric Organ
68.75,0.0,36,92,Electric Organ
68.75,0.12,54,95,Electric Organ
68.75,0.12,47,95,Electric Organ
68.75,0.12,54,95,Electric Organ
68.75,0.12,47,95,Electric Organ
69.0,0.12,35,110,Electric Organ
69.0,0.0,33,90,Electric Organ
69.0,0.0,35,90,Electric Organ
69.0,0.0,36,99,Electric Organ
69.0,0.0,53,99,Electric Organ
69.0,0.12,47,105,Electric Organ
69.0,0.12,54,105,Electric Organ
69.0,0.12,47,105,Electric Organ
69.0,0.12,54,105,Electric Organ
69.25,0.12,35,100,Electric Organ
69.25,0.0,36,96,Electric Organ
69.25,0.0,38,100,Electric Organ
69.25,0.0,36,92,Electric Organ
69.25,0.12,54,95,Electric Organ
69.25,0.12,47,95,Electric Organ
69.25,0.12,54,95,Electric Organ
69.25,0.12,47,95,Electric Organ
69.33333333333333,0.0,40,100,Electric Organ
69.5,0.12,35,100,Electric Organ
69.5,0.0,42,100,Electric Organ
69.5,0.0,43,100,Electric Organ
69.5,0.0,38,101,Electric Organ
69.5,0.0,36,101,Electric Organ
69.5,0.0,53,101,Electric Organ
69.5,0.12,47,95,Electric Organ
69.5,0.12,54,95,Electric Organ
69.5,0.12,47,95,Electric Organ
69.5,0.12,54,95,Electric Organ
69.66666666666667,0.0,45,100,Electric Organ
69.75,0.12,35,100,Electric Organ
69.75,0.0,47,100,Electric Organ
69.75,0.0,48,100,Electric Organ
69.75,0.0,36,92,Electric Organ
69.75,0.12,54,95,Electric Organ
69.75,0.12,47,95,Electric Organ
69.75,0.12,54,95,Electric Organ
69.75,0.12,47,95,Electric Organ
70.0,0.12,35,110,Electric Organ
70.0,0.0,50,100,Electric Organ
70.0,0.0,52,100,Electric Organ
70.0,0.0,36,99,Electric Organ
70.0,0.0,53,99,Electric Organ
70.0,0.12,47,105,Electric Organ
70.0,0.12,54,105,Electric Organ
70.0,0.12,47,105,Electric Organ
70.0,0.12,54,105,Electric Organ
70.25,0.12,35,100,Electric Organ
70.25,0.0,54,100,Electric Organ
70.25,0.0,55,100,Electric Organ
70.25,0.0,36,92,Electric Organ
70.25,0.12,54,95,Electric Organ
70.25,0.12,47,95,Electric Organ
70.25,0.12,54,95,Electric Organ
70.25,0.12,47,95,Electric Organ
70.33333333333333,0.0,57,100,Electric Organ
70.5,0.12,33,110,Electric Organ
70.5,0.0,59,100,Electric Organ
70.5,0.0,38,101,Electric Organ
70.5,0.0,36,101,Electric Organ
70.5,0.0,53,101,Electric Organ
70.5,0.12,45,110,Electric Organ
70.5,0.12,52,110,Electric Organ
70.5,0.12,45,110,Electric Organ
70.5,0.12,52,110,Electric Organ
70.66666666666667,0.0,60,100,Electric Organ
70.66666666666667,0.0,62,100,Electric Organ
70.75,0.0,64,100,Electric Organ
70.75,0.0,36,92,Electric Organ
71.0,0.12,33,110,Electric Organ
71.0,0.0,66,100,Electric Organ
71.0,0.12,69,97,Electric Organ
71.0,0.12,73,97,Electric Organ
71.0,0.12,76,97,Electric Organ
71.0,0.0,36,99,Electric Organ
71.0,0.0,53,99,Electric Organ
71.0,0.12,45,110,Electric Organ
71.0,0.12,52,110,Electric Organ
71.0,0.12,45,110,Electric Organ
71.0,0.12,52,110,Electric Organ
71.25,0.0,36,92,Electric Organ
71.5,0.12,33,100,Electric Organ
71.5,0.12,69,97,Electric Organ
71.5,0.12,73,97,Electric Organ
71.5,0.12,76,97,Electric Organ
71.5,0.0,38,106,Electric Organ
71.5,0.0,36,106,Electric Organ
71.5,0.12,45,100,Electric Organ
71.5,0.12,52,100,Electric Organ
71.5,0.12,45,100,Electric Organ
71.5,0.12,52,100,Electric Organ
71.75,0.31999999999999995,35,110,Electric Organ
71.75,0.96,71,97,Electric Organ
71.75,0.96,74,97,Electric Organ
71.75,0.96,78,97,Electric Organ
71.75,0.0,36,85,Electric Organ
71.75,0.0,49,85,Electric Organ
71.75,0.31999999999999995,54,110,Electric Organ
71.75,0.31999999999999995,47,110,Electric Organ
71.75,0.31999999999999995,54,110,Electric Organ
71.75,0.31999999999999995,47,110,Electric Organ
72.0,0.0,36,106,Electric Organ
72.25,0.0,36,92,Electric Organ
72.5,0.12,35,100,Electric Organ
72.5,0.0,38,101,Electric Organ
72.5,0.0,36,101,Electric Organ
72.5,0.0,53,101,Electric Organ
72.5,0.12,47,95,Electric Organ
72.5,0.12,54,95,Electric Organ
72.5,0.12,47,95,Electric Organ
72.5,0.12,54,95,Electric Organ
72.75,0.12,35,100,Electric Organ
72.75,0.0,36,92,Electric Organ
72.75,0.12,54,95,Electric Organ
72.75,0.12,47,95,Electric Organ
72.75,0.12,54,95,Electric Organ
72.75,0.12,47,95,Electric Organ
73.0,0.12,35,110,Electric Organ
73.0,0.0,36,99,Electric Organ
73.0,0.0,53,99,Electric Organ
73.0,0.12,47,105,Electric Organ
73.0,0.12,54,105,Electric Organ
73.0,0.12,47,105,Electric Organ
73.0,0.12,54,105,Electric Organ
73.25,0.12,35,100,Electric Organ
73.25,0.0,36,92,Electric Organ
73.25,0.12,54,95,Electric Organ
73.25,0.12,47,95,Electric Organ
73.25,0.12,54,95,Electric Organ
73.25,0.12,47,95,Electric Organ
73.5,0.12,35,100,Electric Organ
73.5,0.0,38,101,Electric Organ
73.5,0.0,36,101,Electric Organ
73.5,0.0,53,101,Electric Organ
73.5,0.12,47,95,Electric Organ
73.5,0.12,54,95,Electric Organ
73.5,0.12,47,95,Electric Organ
73.5,0.12,54,95,Electric Organ
73.75,0.12,35,100,Electric Organ
73.75,0.0,69,100,Electric Organ
73.75,0.0,36,92,Electric Organ
73.75,0.12,54,95,Electric Organ
73.75,0.12,47,95,Electric Organ
73.75,0.12,54,95,Electric Organ
73.75,0.12,47,95,Electric Organ
74.0,0.12,35,110,Electric Organ
74.0,0.0,67,100,Electric Organ
74.0,0.0,66,100,Electric Organ
74.0,0.0,64,100,Electric Organ
74.0,0.0,36,99,Electric Organ
74.0,0.0,53,99,Electric Organ
74.0,0.12,47,105,Electric Organ
74.0,0.12,54,105,Electric Organ
74.0,0.12,47,105,Electric Organ
74.0,0.12,54,105,Electric Organ
74.25,0.12,35,100,Electric Organ
74.25,0.0,62,100,Electric Organ
74.25,0.0,36,92,Electric Organ
74.25,0.12,54,95,Electric Organ
74.25,0.12,47,95,Electric Organ
74.25,0.12,54,95,Electric Organ
74.25,0.12,47,95,Electric Organ
74.33333333333333,0.0,60,100,Electric Organ
74.33333333333333,0.0,59,100,Electric Organ
74.5,0.12,35,100,Electric Organ
74.5,0.0,57,96,Electric Organ
74.5,0.0,38,101,Electric Organ
74.5,0.0,36,101,Electric Organ
74.5,0.0,53,101,Electric Organ
74.5,0.12,47,95,Electric Organ
74.5,0.12,54,95,Electric Organ
74.5,0.12,47,95,Electric Organ
74.5,0.12,54,95,Electric Organ
74.66666666666667,0.0,55,90,Electric Organ
74.75,0.12,35,100,Electric Organ
74.75,0.0,54,90,Electric Organ
74.75,0.0,52,80,Electric Organ
74.75,0.0,36,92,Electric Organ
74.75,0.12,54,95,Electric Organ
74.75,0.12,47,95,Electric Organ
74.75,0.12,54,95,Electric Organ
74.75,0.12,47,95,Electric Organ
75.0,0.12,35,110,Electric Organ
75.0,0.0,50,80,Electric Organ
75.0,0.0,36,99,Electric Organ
75.0,0.0,53,99,Electric Organ
75.0,0.12,47,105,Electric Organ
75.0,0.12,54,105,Electric Organ
75.0,0.12,47,105,Electric Organ
75.0,0.12,54,105,Electric Organ
75.25,0.12,35,100,Electric Organ
75.25,0.0,36,92,Electric Organ
75.25,0.12,54,95,Electric Organ
75.25,0.12,47,95,Electric Organ
75.25,0.12,54,95,Electric Organ
75.25,0.12,47,95,Electric Organ
75.5,0.12,35,100,Electric Organ
75.5,0.0,38,101,Electric Organ
75.5,0.0,36,101,Electric Organ
75.5,0.0,53,101,Electric Organ
75.5,0.12,47,95,Electric Organ
75.5,0.12,54,95,Electric Organ
75.5,0.12,47,95,Electric Organ
75.5,0.12,54,95,Electric Organ
75.75,0.12,35,100,Electric Organ
75.75,0.0,36,92,Electric Organ
75.75,0.31999999999999995,54,105,Electric Organ
75.75,0.31999999999999995,47,105,Electric Organ
75.75,0.31999999999999995,54,105,Electric Organ
75.75,0.31999999999999995,47,105,Electric Organ
76.0,0.12,35,110,Electric Organ
76.0,0.0,36,99,Electric Organ
76.0,0.0,53,99,Electric Organ
76.25,0.12,35,100,Electric Organ
76.25,0.0,36,92,Electric Organ
76.5,0.12,35,100,Electric Organ
76.5,0.0,38,101,Electric Organ
76.5,0.0,36,101,Electric Organ
76.5,0.0,53,101,Electric Organ
76.5,0.12,47,95,Electric Organ
76.5,0.12,54,95,Electric Organ
76.5,0.12,47,95,Electric Organ
76.5,0.12,54,95,Electric Organ
76.75,0.12,35,100,Electric Organ
76.75,0.0,30,80,Electric Organ
76.75,0.0,31,80,Electric Organ
76.75,0.0,36,92,Electric Organ
76.75,0.12,54,95,Electric Organ
76.75,0.12,47,95,Electric Organ
76.75,0.12,54,95,Electric Organ
76.75,0.12,47,95,Electric Organ
77.0,0.12,35,110,Electric Organ
77.0,0.0,33,90,Electric Organ
77.0,0.0,35,90,Electric Organ
77.0,0.0,36,99,Electric Organ
77.0,0.0,53,99,Electric Organ
77.0,0.12,47,105,Electric Organ
77.0,0.12,54,105,Electric Organ
77.0,0.12,47,105,Electric Organ
77.0,0.12,54,105,Electric Organ
77.25,0.12,35,100,Electric Organ
77.25,0.0,36,100,Electric Organ
77.25,0.0,38,100,Electric Organ
77.25,0.0,36,92,Electric Organ
77.25,0.12,54,95,Electric Organ
77.25,0.12,47,95,Electric Organ
77.25,0.12,54,95,Electric Organ
77.25,0.12,47,95,Electric Organ
77.33333333333333,0.0,40,100,Electric Organ
77.5,0.12,35,100,Electric Organ
77.5,0.0,42,100,Electric Organ
77.5,0.0,43,100,Electric Organ
77.5,0.0,38,101,Electric Organ
77.5,0.0,36,101,Electric Organ
77.5,0.0,53,101,Electric Organ
77.5,0.12,47,95,Electric Organ
77.5,0.12,54,95,Electric Organ
77.5,0.12,47,95,Electric Organ
77.5,0.12,54,95,Electric Organ
77.66666666666667,0.0,45,100,Electric Organ
77.75,0.12,35,100,Electric Organ
77.75,0.0,47,100,Electric Organ
77.75,0.0,48,100,Electric Organ
77.75,0.0,36,92,Electric Organ
77.75,0.12,54,95,Electric Organ
77.75,0.12,47,95,Electric Organ
77.75,0.12,54,95,Electric Organ
77.75,0.12,47,95,Electric Organ
78.0,0.12,35,110,Electric Organ
78.0,0.0,50,100,Electric Organ
78.0,0.0,52,100,Electric Organ
78.0,0.0,36,99,Electric Organ
78.0,0.0,53,99,Electric Organ
78.0,0.12,47,105,Electric Organ
78.0,0.12,54,105,Electric Organ
78.0,0.12,47,105,Electric Organ
78.0,0.12,54,105,Electric Organ
78.25,0.12,35,100,Electric Organ
78.25,0.0,54,100,Electric Organ
78.25,0.0,55,100,Electric Organ
78.25,0.0,36,92,Electric Organ
78.25,0.12,54,95,Electric Organ
78.25,0.12,47,95,Electric Organ
78.25,0.12,54,95,Electric Organ
78.25,0.12,47,95,Electric Organ
78.33333333333333,0.0,57,100,Electric Organ
78.5,0.12,33,110,Electric Organ
78.5,0.0,59,100,Electric Organ
78.5,0.0,38,101,Electric Organ
78.5,0.0,36,101,Electric Organ
78.5,0.0,53,101,Electric Organ
78.5,0.12,45,110,Electric Organ
78.5,0.12,52,110,Electric Organ
78.5,0.12,45,110,Electric Organ
78.5,0.12,52,110,Electric Organ
78.66666666666667,0.0,60,100,Electric Organ
78.66666666666667,0.0,62,100,Electric Organ
78.75,0.0,64,100,Electric Organ
78.75,0.0,36,92,Electric Organ
79.0,0.12,33,110,Electric Organ
79.0,0.0,66,100,Electric Organ
79.0,0.12,69,97,Electric Organ
79.0,0.12,73,97,Electric Organ
79.0,0.12,76,97,Electric Organ
79.0,0.0,36,99,Electric Organ
79.0,0.0,53,99,Electric Organ
79.0,0.12,45,110,Electric Organ
79.0,0.12,52,110,Electric Organ
79.0,0.12,45,110,Electric Organ
79.0,0.12,52,110,Electric Organ
79.25,0.0,36,92,Electric Organ
79.5,0.12,33,100,Electric Organ
79.5,0.12,69,97,Electric Organ
79.5,0.12,73,97,Electric Organ
79.5,0.12,76,97,Electric Organ
79.5,0.0,38,106,Electric Organ
79.5,0.0,36,106,Electric Organ
79.5,0.12,45,100,Electric Organ
79.5,0.12,52,100,Electric Organ
79.5,0.12,45,100,Electric Organ
79.5,0.12,52,100,Electric Organ
79.75,0.31999999999999995,35,110,Electric Organ
79.75,0.96,71,97,Electric Organ
79.75,0.96,74,97,Electric Organ
79.75,0.96,78,97,Electric Organ
79.75,0.0,36,85,Electric Organ
79.75,0.0,49,85,Electric Organ
79.75,0.31999999999999995,54,110,Electric Organ
79.75,0.31999999999999995,47,110,Electric Organ
79.75,0.31999999999999995,54,110,Electric Organ
79.75,0.31999999999999995,47,110,Electric Organ
80.0,0.0,36,106,Electric Organ
80.25,0.0,36,92,Electric Organ
80.5,0.12,35,100,Electric Organ
80.5,0.0,38,101,Electric Organ
80.5,0.0,36,101,Electric Organ
80.5,0.0,53,101,Electric Organ
80.5,0.12,47,95,Electric Organ
80.5,0.12,54,95,Electric Organ
80.5,0.12,47,95,Electric Organ
80.5,0.12,54,95,Electric Organ
80.75,0.12,35,100,Electric Organ
80.75,0.0,36,92,Electric Organ
80.75,0.12,54,95,Electric Organ
80.75,0.12,47,95,Electric Organ
80.75,0.12,54,95,Electric Organ
80.75,0.12,47,95,Electric Organ
81.0,0.12,35,110,Electric Organ
81.0,0.0,36,99,Electric Organ
81.0,0.0,53,99,Electric Organ
81.0,0.12,47,105,Electric Organ
81.0,0.12,54,105,Electric Organ
81.0,0.12,47,105,Electric Organ
81.0,0.12,54,105,Electric Organ
81.25,0.12,35,100,Electric Organ
81.25,0.0,36,92,Electric Organ
81.25,0.12,54,95,Electric Organ
81.25,0.12,47,95,Electric Organ
81.25,0.12,54,95,Electric Organ
81.25,0.12,47,95,Electric Organ
81.5,0.12,35,100,Electric Organ
81.5,0.0,38,101,Electric Organ
81.5,0.0,36,101,Electric Organ
81.5,0.0,53,101,Electric Organ
81.5,0.12,47,95,Electric Organ
81.5,0.12,54,95,Electric Organ
81.5,0.12,47,95,Electric Organ
81.5,0.12,54,95,Electric Organ
81.75,0.12,35,100,Electric Organ
81.75,0.0,69,100,Electric Organ
81.75,0.0,36,92,Electric Organ
81.75,0.12,54,95,Electric Organ
81.75,0.12,47,95,Electric Organ
81.75,0.12,54,95,Electric Organ
81.75,0.12,47,95,Electric Organ
82.0,0.12,35,110,Electric Organ
82.0,0.0,67,100,Electric Organ
82.0,0.0,66,100,Electric Organ
82.0,0.0,64,100,Electric Organ
82.0,0.0,36,99,Electric Organ
82.0,0.0,53,99,Electric Organ
82.0,0.12,47,105,Electric Organ
82.0,0.12,54,105,Electric Organ
82.0,0.12,47,105,Electric Organ
82.0,0.12,54,105,Electric Organ
82.25,0.12,35,100,Electric Organ
82.25,0.0,62,100,Electric Organ
82.25,0.0,36,92,Electric Organ
82.25,0.12,54,95,Electric Organ
82.25,0.12,47,95,Electric Organ
82.25,0.12,54,95,Electric Organ
82.25,0.12,47,95,Electric Organ
82.33333333333333,0.0,60,100,Electric Organ
82.33333333333333,0.0,59,100,Electric Organ
82.5,0.12,35,100,Electric Organ
82.5,0.0,57,96,Electric Organ
82.5,0.0,38,101,Electric Organ
82.5,0.0,36,101,Electric Organ
82.5,0.0,53,101,Electric Organ
82.5,0.12,47,95,Electric Organ
82.5,0.12,54,95,Electric Organ
82.5,0.12,47,95,Electric Organ
82.5,0.12,54,95,Electric Organ
82.66666666666667,0.0,55,90,Electric Organ
82.75,0.12,35,100,Electric Organ
82.75,0.0,54,90,Electric Organ
82.75,0.0,52,80,Electric Organ
82.75,0.0,36,92,Electric Organ
82.75,0.12,54,95,Electric Organ
82.75,0.12,47,95,Electric Organ
82.75,0.12,54,95,Electric Organ
82.75,0.12,47,95,Electric Organ
83.0,0.12,35,110,Electric Organ
83.0,0.0,50,80,Electric Organ
83.0,0.0,36,99,Electric Organ
83.0,0.0,53,99,Electric Organ
83.0,0.12,47,105,Electric Organ
83.0,0.12,54,105,Electric Organ
83.0,0.12,47,105,Electric Organ
83.0,0.12,54,105,Electric Organ
83.25,0.12,35,100,Electric Organ
83.25,0.0,36,92,Electric Organ
83.25,0.12,54,95,Electric Organ
83.25,0.12,47,95,Electric Organ
83.25,0.12,54,95,Electric Organ
83.25,0.12,47,95,Electric Organ
83.5,0.12,35,100,Electric Organ
83.5,0.0,38,101,Electric Organ
83.5,0.0,36,101,Electric Organ
83.5,0.0,53,101,Electric Organ
83.5,0.12,47,95,Electric Organ
83.5,0.12,54,95,Electric Organ
83.5,0.12,47,95,Electric Organ
83.5,0.12,54,95,Electric Organ
83.75,0.12,35,100,Electric Organ
83.75,0.0,36,92,Electric Organ
83.75,0.31999999999999995,54,105,Electric Organ
83.75,0.31999999999999995,47,105,Electric Organ
83.75,0.31999999999999995,54,105,Electric Organ
83.75,0.31999999999999995,47,105,Electric Organ
84.0,0.12,35,110,Electric Organ
84.0,0.0,36,99,Electric Organ
84.0,0.0,53,99,Electric Organ
84.25,0.12,35,100,Electric Organ
84.25,0.0,36,92,Electric Organ
84.5,0.12,35,100,Electric Organ
84.5,0.0,38,101,Electric Organ
84.5,0.0,36,101,Electric Organ
84.5,0.0,53,101,Electric Organ
84.5,0.12,47,95,Electric Organ
84.5,0.12,54,95,Electric Organ
84.5,0.12,47,95,Electric Organ
84.5,0.12,54,95,Electric Organ
84.75,0.12,35,100,Electric Organ
84.75,0.0,30,80,Electric Organ
84.75,0.0,31,80,Electric Organ
84.75,0.0,36,92,Electric Organ
84.75,0.12,54,95,Electric Organ
84.75,0.12,47,95,Electric Organ
84.75,0.12,54,95,Electric Organ
84.75,0.12,47,95,Electric Organ
85.0,0.12,35,110,Electric Organ
85.0,0.0,33,90,Electric Organ
85.0,0.0,35,90,Electric Organ
85.0,0.0,36,99,Electric Organ
85.0,0.0,53,99,Electric Organ
85.0,0.12,47,105,Electric Organ
85.0,0.12,54,105,Electric Organ
85.0,0.12,47,105,Electric Organ
85.0,0.12,54,105,Electric Organ
85.25,0.12,35,100,Electric Organ
85.25,0.0,36,97,Electric Organ
85.25,0.0,38,100,Electric Organ
85.25,0.0,36,92,Electric Organ
85.25,0.12,54,95,Electric Organ
85.25,0.12,47,95,Electric Organ
85.25,0.12,54,95,Electric Organ
85.25,0.12,47,95,Electric Organ
85.33333333333333,0.0,40,100,Electric Organ
85.5,0.12,35,100,Electric Organ
85.5,0.0,42,100,Electric Organ
85.5,0.0,43,100,Electric Organ
85.5,0.0,38,101,Electric Organ
85.5,0.0,36,101,Electric Organ
85.5,0.0,53,101,Electric Organ
85.5,0.12,47,95,Electric Organ
85.5,0.12,54,95,Electric Organ
85.5,0.12,47,95,Electric Organ
85.5,0.12,54,95,Electric Organ
85.66666666666667,0.0,45,100,Electric Organ
85.75,0.12,35,100,Electric Organ
85.75,0.0,47,100,Electric Organ
85.75,0.0,48,100,Electric Organ
85.75,0.0,36,92,Electric Organ
85.75,0.12,54,95,Electric Organ
85.75,0.12,47,95,Electric Organ
85.75,0.12,54,95,Electric Organ
85.75,0.12,47,95,Electric Organ
86.0,0.12,35,110,Electric Organ
86.0,0.0,50,100,Electric Organ
86.0,0.0,52,100,Electric Organ
86.0,0.0,36,99,Electric Organ
86.0,0.0,53,99,Electric Organ
86.0,0.12,47,105,Electric Organ
86.0,0.12,54,105,Electric Organ
86.0,0.12,47,105,Electric Organ
86.0,0.12,54,105,Electric Organ
86.25,0.12,35,100,Electric Organ
86.25,0.0,54,100,Electric Organ
86.25,0.0,55,100,Electric Organ
86.25,0.0,36,92,Electric Organ
86.25,0.12,54,95,Electric Organ
86.25,0.12,47,95,Electric Organ
86.25,0.12,54,95,Electric Organ
86.25,0.12,47,95,Electric Organ
86.33333333333333,0.0,57,100,Electric Organ
86.5,0.12,35,110,Electric Organ
86.5,0.0,59,100,Electric Organ
86.5,0.0,38,101,Electric Organ
86.5,0.0,36,101,Electric Organ
86.5,0.0,53,101,Electric Organ
86.5,0.12,47,95,Electric Organ
86.5,0.12,54,95,Electric Organ
86.5,0.12,47,95,Electric Organ
86.5,0.12,54,95,Electric Organ
86.66666666666667,0.0,60,100,Electric Organ
86.66666666666667,0.0,62,100,Electric Organ
86.75,0.12,35,100,Electric Organ
86.75,0.0,64,100,Electric Organ
86.75,0.0,36,92,Electric Organ
86.75,0.12,54,95,Electric Organ
86.75,0.12,47,95,Electric Organ
86.75,0.12,54,95,Electric Organ
86.75,0.12,47,95,Electric Organ
87.0,0.12,33,110,Electric Organ
87.0,0.0,66,100,Electric Organ
87.0,0.12,69,97,Electric Organ
87.0,0.12,73,97,Electric Organ
87.0,0.12,76,97,Electric Organ
87.0,0.0,36,99,Electric Organ
87.0,0.0,53,99,Electric Organ
87.0,0.12,45,110,Electric Organ
87.0,0.12,52,110,Electric Organ
87.0,0.12,45,110,Electric Organ
87.0,0.12,52,110,Electric Organ
87.25,0.12,32,100,Electric Organ
87.25,0.12,69,97,Electric Organ
87.25,0.12,72,97,Electric Organ
87.25,0.12,75,97,Electric Organ
87.25,0.0,36,92,Electric Organ
87.25,0.0,53,92,Electric Organ
87.25,0.12,44,110,Electric Organ
87.25,0.12,51,110,Electric Organ
87.25,0.12,44,110,Electric Organ
87.25,0.12,51,110,Electric Organ
87.5,0.0,38,106,Electric Organ
87.5,0.0,36,106,Electric Organ
87.75,0.24,31,110,Electric Organ
87.75,0.96,67,97,Electric Organ
87.75,0.96,71,97,Electric Organ
87.75,0.96,74,97,Electric Organ
87.75,0.0,36,85,Electric Organ
87.75,0.0,49,85,Electric Organ
87.75,0.96,50,110,Electric Organ
87.75,0.96,43,110,Electric Organ
87.75,0.96,50,110,Electric Organ
87.75,0.96,43,110,Electric Organ
88.25,0.12,31,100,Electric Organ
88.25,0.0,36,92,Electric Organ
88.5,0.24,31,100,Electric Organ
88.5,0.0,38,99,Electric Organ
88.5,0.0,53,99,Electric Organ
88.5,0.8,64,110,Electric Organ
88.5,0.8,64,110,Electric Organ
89.0,0.12,31,110,Electric Organ
89.0,0.0,36,99,Electric Organ
89.0,0.0,53,99,Electric Organ
89.0,0.6399999999999999,59,110,Electric Organ
89.0,0.6399999999999999,59,110,Electric Organ
89.25,0.12,31,100,Electric Organ
89.25,0.0,36,92,Electric Organ
89.25,0.0,53,92,Electric Organ
89.5,0.12,31,100,Electric Organ
89.5,0.0,38,106,Electric Organ
89.75,0.24,33,110,Electric Organ
89.75,0.96,69,97,Electric Organ
89.75,0.96,73,97,Electric Organ
89.75,0.96,76,97,Electric Organ
89.75,0.0,36,85,Electric Organ
89.75,0.0,57,85,Electric Organ
89.75,0.8,45,110,Electric Organ
89.75,0.8,52,110,Electric Organ
89.75,0.8,45,110,Electric Organ
89.75,0.8,52,110,Electric Organ
90.25,0.12,33,100,Electric Organ
90.25,0.0,36,92,Electric Organ
90.5,0.24,33,100,Electric Organ
90.5,0.0,38,99,Electric Organ
90.5,0.0,53,99,Electric Organ
90.5,0.6,64,110,Electric Organ
90.5,0.6,64,110,Electric Organ
91.0,0.12,33,110,Electric Organ
91.0,0.0,36,99,Electric Organ
91.0,0.0,53,99,Electric Organ
91.0,0.36,59,110,Electric Organ
91.0,0.36,59,110,Electric Organ
91.25,0.12,33,110,Electric Organ
91.25,0.0,36,92,Electric Organ
91.25,0.0,53,92,Electric Organ
91.5,0.12,33,110,Electric Organ
91.5,0.0,38,106,Electric Organ
91.75,0.12,35,110,Electric Organ
91.75,0.12,71,97,Electric Organ
91.75,0.12,74,97,Electric Organ
91.75,0.12,78,97,Electric Organ
91.75,0.0,36,92,Electric Organ
91.75,0.0,46,92,Electric Organ
91.75,0.15999999999999998,47,110,Electric Organ
91.75,0.15999999999999998,54,110,Electric Organ
91.75,0.15999999999999998,47,110,Electric Organ
91.75,0.15999999999999998,54,110,Electric Organ
92.0,0.0,44,50,Electric Organ
92.5,0.0,44,78,Electric Organ
93.5,0.0,44,78,Electric Organ
94.5,0.0,44,78,Electric Organ
95.5,0.12,33,110,Electric Organ
95.5,0.12,69,97,Electric Organ
95.5,0.12,73,97,Electric Organ
95.5,0.12,76,97,Electric Organ
95.5,0.0,44,92,Electric Organ
95.5,0.0,38,92,Electric Organ
95.5,0.12,45,110,Electric Organ
95.5,0.12,52,110,Electric Organ
95.5,0.12,45,110,Electric Organ
95.5,0.12,52,110,Electric Organ
95.75,0.12,35,110,Electric Organ
95.75,0.12,71,97,Electric Organ
95.75,0.12,74,97,Electric Organ
95.75,0.12,78,97,Electric Organ
95.75,0.0,36,92,Electric Organ
95.75,0.0,46,92,Electric Organ
95.75,0.15999999999999998,54,110,Electric Organ
95.75,0.15999999999999998,47,110,Electric Organ
95.75,0.12,54,110,Electric Organ
95.75,0.12,47,110,Electric Organ
96.0,0.0,44,50,Electric Organ
96.5,0.0,44,78,Electric Organ
97.5,0.0,44,78,Electric Organ
98.5,0.0,48,100,Electric Organ
98.5,0.0,50,100,Electric Organ
98.5,0.0,44,78,Electric Organ
98.66666666666667,0.0,52,100,Electric Organ
98.66666666666667,0.0,54,100,Electric Organ
98.75,0.0,55,100,Electric Organ
99.0,0.0,57,100,Electric Organ
99.0,0.0,59,100,Electric Organ
99.0,0.0,60,100,Electric Organ
99.0,0.12,71,100,Electric Organ
99.25,0.0,62,100,Electric Organ
99.25,0.0,64,100,Electric Organ
99.25,0.12,71,100,Electric Organ
99.33333333333333,0.0,66,100,Electric Organ
99.5,0.0,67,100,Electric Organ
99.5,0.0,69,100,Electric Organ
99.5,0.0,44,78,Electric Organ
99.66666666666667,0.0,71,100,Electric Organ
99.75,1.92,71,97,Electric Organ
99.75,1.92,74,97,Electric Organ
99.75,1.92,78,97,Electric Organ
99.75,0.31999999999999995,35,110,Electric Organ
99.75,1.56,78,100,Electric Organ
99.75,0.0,36,92,Electric Organ
99.75,0.0,49,92,Electric Organ
99.75,0.31999999999999995,47,110,Electric Organ
99.75,0.31999999999999995,54,110,Electric Organ
99.75,0.31999999999999995,47,110,Electric Organ
99.75,0.31999999999999995,54,110,Electric Organ
100.25,0.0,36,92,Electric Organ
100.5,0.24,35,100,Electric Organ
100.5,0.0,38,85,Electric Organ
100.5,0.0,42,85,Electric Organ
100.5,0.12,47,95,Electric Organ
100.5,0.12,54,95,Electric Organ
100.5,0.12,47,95,Electric Organ
100.5,0.12,54,95,Electric Organ
100.75,0.12,54,95,Electric Organ
100.75,0.12,47,95,Electric Organ
100.75,0.12,54,95,Electric Organ
100.75,0.12,47,95,Electric Organ
101.0,0.12,30,100,Electric Organ
101.0,0.0,36,92,Electric Organ
101.0,0.0,42,92,Electric Organ
101.0,0.12,47,105,Electric Organ
101.0,0.12,54,105,Electric Organ
101.0,0.12,47,105,Electric Organ
101.0,0.12,54,105,Electric Organ
101.25,0.31999999999999995,33,110,Electric Organ
101.25,0.0,36,92,Electric Organ
101.25,0.12,54,95,Electric Organ
101.25,0.12,47,95,Electric Organ
101.25,0.12,54,95,Electric Organ
101.25,0.12,47,95,Electric Organ
101.5,0.0,38,85,Electric Organ
101.5,0.0,42,85,Electric Organ
101.5,0.12,47,95,Electric Organ
101.5,0.12,54,95,Electric Organ
101.5,0.12,47,95,Electric Organ
101.5,0.12,54,95,Electric Organ
101.75,0.12,54,95,Electric Organ
101.75,0.12,47,95,Electric Organ
101.75,0.12,54,95,Electric Organ
101.75,0.12,47,95,Electric Organ
102.0,0.24,33,110,Electric Organ
102.0,0.0,36,92,Electric Organ
102.0,0.0,42,92,Electric Organ
102.0,0.12,47,105,Electric Organ
102.0,0.12,54,105,Electric Organ
102.0,0.12,47,105,Electric Organ
102.0,0.12,54,105,Electric Organ
102.25,0.12,54,95,Electric Organ
102.25,0.12,47,95,Electric Organ
102.25,0.12,54,95,Electric Organ
102.25,0.12,47,95,Electric Organ
102.5,0.12,35,100,Electric Organ
102.5,0.0,38,85,Electric Organ
102.5,0.0,42,85,Electric Organ
102.5,0.12,47,95,Electric Organ
102.5,0.12,54,95,Electric Organ
102.5,0.12,47,95,Electric Organ
102.5,0.12,54,95,Electric Organ
102.75,0.12,35,100,Electric Organ
102.75,0.0,36,92,Electric Organ
102.75,0.12,54,95,Electric Organ
102.75,0.12,47,95,Electric Organ
102.75,0.12,54,95,Electric Organ
102.75,0.12,47,95,Electric Organ
103.0,0.12,38,110,Electric Organ
103.0,0.24,76,100,Electric Organ
103.0,0.0,42,78,Electric Organ
103.0,0.12,47,105,Electric Organ
103.0,0.12,54,105,Electric Organ
103.0,0.12,47,105,Electric Organ
103.0,0.12,54,105,Electric Organ
103.25,0.24,37,100,Electric Organ
103.25,0.0,36,92,Electric Organ
103.25,0.12,54,95,Electric Organ
103.25,0.12,47,95,Electric Organ
103.25,0.12,54,95,Electric Organ
103.25,0.12,47,95,Electric Organ
103.5,0.12,74,100,Electric Organ
103.5,0.0,38,85,Electric Organ
103.5,0.0,42,85,Electric Organ
103.5,0.12,47,95,Electric Organ
103.5,0.12,54,95,Electric Organ
103.5,0.12,47,95,Electric Organ
103.5,0.12,54,95,Electric Organ
103.75,1.92,69,97,Electric Organ
103.75,1.92,73,97,Electric Organ
103.75,1.92,76,97,Electric Organ
103.75,0.31999999999999995,33,110,Electric Organ
103.75,0.31999999999999995,76,100,Electric Organ
103.75,0.0,46,99,Electric Organ
103.75,0.0,36,99,Electric Organ
103.75,0.31999999999999995,52,105,Electric Organ
103.75,0.31999999999999995,45,105,Electric Organ
103.75,0.31999999999999995,52,105,Electric Organ
103.75,0.31999999999999995,45,105,Electric Organ
104.0,0.0,44,50,Electric Organ
104.25,0.0,36,92,Electric Organ
104.5,0.24,33,100,Electric Organ
104.5,0.48,73,100,Electric Organ
104.5,0.0,38,85,Electric Organ
104.5,0.0,42,85,Electric Organ
104.5,0.12,45,95,Electric Organ
104.5,0.12,52,95,Electric Organ
104.5,0.12,45,95,Electric Organ
104.5,0.12,52,95,Electric Organ
104.75,0.12,52,95,Electric Organ
104.75,0.12,45,95,Electric Organ
104.75,0.12,52,95,Electric Organ
104.75,0.12,45,95,Electric Organ
105.0,0.12,28,100,Electric Organ
105.0,0.0,36,92,Electric Organ
105.0,0.0,42,92,Electric Organ
105.0,0.12,45,105,Electric Organ
105.0,0.12,52,105,Electric Organ
105.0,0.12,45,105,Electric Organ
105.0,0.12,52,105,Electric Organ
105.25,0.31999999999999995,33,110,Electric Organ
105.25,0.0,36,92,Electric Organ
105.25,0.12,52,95,Electric Organ
105.25,0.12,45,95,Electric Organ
105.25,0.12,52,95,Electric Organ
105.25,0.12,45,95,Electric Organ
105.5,0.0,38,85,Electric Organ
105.5,0.0,42,85,Electric Organ
105.5,0.12,45,95,Electric Organ
105.5,0.12,52,95,Electric Organ
105.5,0.12,45,95,Electric Organ
105.5,0.12,52,95,Electric Organ
105.75,0.12,52,95,Electric Organ
105.75,0.12,45,95,Electric Organ
105.75,0.12,52,95,Electric Organ
105.75,0.12,45,95,Electric Organ
106.0,0.24,33,110,Electric Organ
106.0,0.0,36,92,Electric Organ
106.0,0.0,42,92,Electric Organ
106.0,0.24,45,110,Electric Organ
106.0,0.24,45,110,Electric Organ
106.25,0.24,52,110,Electric Organ
106.25,0.24,52,110,Electric Organ
106.5,0.12,35,100,Electric Organ
106.5,0.0,38,85,Electric Organ
106.5,0.0,42,85,Electric Organ
106.75,0.12,35,100,Electric Organ
106.75,0.0,36,92,Electric Organ
106.75,0.24,45,110,Electric Organ
106.75,0.24,45,110,Electric Organ
107.0,0.12,38,110,Electric Organ
107.0,0.12,71,100,Electric Organ
107.0,0.0,42,78,Electric Organ
107.0,0.24,52,110,Electric Organ
107.0,0.24,52,110,Electric Organ
107.25,0.24,37,100,Electric Organ
107.25,0.12,71,100,Electric Organ
107.25,0.0,36,92,Electric Organ
107.5,0.0,38,85,Electric Organ
107.5,0.0,42,85,Electric Organ
107.5,0.12,45,110,Electric Organ
107.5,0.12,45,110,Electric Organ
107.75,1.92,67,97,Electric Organ
107.75,1.92,71,97,Electric Organ
107.75,1.92,74,97,Electric Organ
107.75,0.31999999999999995,31,110,Electric Organ
107.75,0.31999999999999995,74,100,Electric Organ
107.75,0.0,46,99,Electric Organ
107.75,0.0,36,99,Electric Organ
107.75,0.31999999999999995,50,110,Electric Organ
107.75,0.31999999999999995,43,110,Electric Organ
107.75,0.31999999999999995,50,110,Electric Organ
107.75,0.31999999999999995,43,110,Electric Organ
108.0,0.0,44,50,Electric Organ
108.25,0.0,36,92,Electric Organ
108.5,0.24,31,100,Electric Organ
108.5,0.0,38,85,Electric Organ
108.5,0.0,42,85,Electric Organ
108.5,0.12,43,95,Electric Organ
108.5,0.12,50,95,Electric Organ
108.5,0.12,43,95,Electric Organ
108.5,0.12,50,95,Electric Organ
108.75,0.12,50,95,Electric Organ
108.75,0.12,43,95,Electric Organ
108.75,0.12,50,95,Electric Organ
108.75,0.12,43,95,Electric Organ
109.0,0.12,30,100,Electric Organ
109.0,0.24,71,100,Electric Organ
109.0,0.0,36,92,Electric Organ
109.0,0.0,42,92,Electric Organ
109.0,0.12,43,105,Electric Organ
109.0,0.12,50,105,Electric Organ
109.0,0.12,43,105,Electric Organ
109.0,0.12,50,105,Electric Organ
109.25,0.31999999999999995,31,110,Electric Organ
109.25,0.0,36,92,Electric Organ
109.25,0.12,50,95,Electric Organ
109.25,0.12,43,95,Electric Organ
109.25,0.12,50,95,Electric Organ
109.25,0.12,43,95,Electric Organ
109.5,0.0,38,85,Electric Organ
109.5,0.0,42,85,Electric Organ
109.5,0.12,43,95,Electric Organ
109.5,0.12,50,95,Electric Organ
109.5,0.12,43,95,Electric Organ
109.5,0.12,50,95,Electric Organ
109.75,0.12,50,95,Electric Organ
109.75,0.12,43,95,Electric Organ
109.75,0.12,50,95,Electric Organ
109.75,0.12,43,95,Electric Organ
110.0,0.24,33,110,Electric Organ
110.0,0.24,74,100,Electric Organ
110.0,0.0,36,92,Electric Organ
110.0,0.0,42,92,Electric Organ
110.0,0.12,43,105,Electric Organ
110.0,0.12,50,105,Electric Organ
110.0,0.12,43,105,Electric Organ
110.0,0.12,50,105,Electric Organ
110.25,0.12,50,95,Electric Organ
110.25,0.12,43,95,Electric Organ
110.25,0.12,50,95,Electric Organ
110.25,0.12,43,95,Electric Organ
110.5,0.12,35,100,Electric Organ
110.5,0.0,38,85,Electric Organ
110.5,0.0,42,85,Electric Organ
110.5,0.12,43,95,Electric Organ
110.5,0.12,50,95,Electric Organ
110.5,0.12,43,95,Electric Organ
110.5,0.12,50,95,Electric Organ
110.75,0.12,35,100,Electric Organ
110.75,0.0,36,92,Electric Organ
110.75,0.12,50,95,Electric Organ
110.75,0.12,43,95,Electric Organ
110.75,0.12,50,95,Electric Organ
110.75,0.12,43,95,Electric Organ
111.0,0.12,38,110,Electric Organ
111.0,0.31999999999999995,78,100,Electric Organ
111.0,0.0,42,78,Electric Organ
111.0,0.12,43,105,Electric Organ
111.0,0.12,50,105,Electric Organ
111.0,0.12,43,105,Electric Organ
111.0,0.12,50,105,Electric Organ
111.25,0.24,37,100,Electric Organ
111.25,0.0,36,92,Electric Organ
111.25,0.12,50,95,Electric Organ
111.25,0.12,43,95,Electric Organ
111.25,0.12,50,95,Electric Organ
111.25,0.12,43,95,Electric Organ
111.5,0.0,38,85,Electric Organ
111.5,0.0,42,85,Electric Organ
111.5,0.12,43,95,Electric Organ
111.5,0.12,50,95,Electric Organ
111.5,0.12,43,95,Electric Organ
111.5,0.12,50,95,Electric Organ
111.75,1.92,69,97,Electric Organ
111.75,1.92,73,97,Electric Organ
111.75,1.92,76,97,Electric Organ
111.75,0.31999999999999995,33,110,Electric Organ
111.75,0.31999999999999995,76,100,Electric Organ
111.75,0.0,46,99,Electric Organ
111.75,0.0,36,99,Electric Organ
111.75,0.31999999999999995,52,105,Electric Organ
111.75,0.31999999999999995,45,105,Electric Organ
111.75,0.31999999999999995,52,105,Electric Organ
111.75,0.31999999999999995,45,105,Electric Organ
112.0,0.0,44,50,Electric Organ
112.25,0.0,36,92,Electric Organ
112.5,0.24,33,100,Electric Organ
112.5,0.96,78,100,Electric Organ
112.5,0.0,38,85,Electric Organ
112.5,0.0,42,85,Electric Organ
112.5,0.12,45,95,Electric Organ
112.5,0.12,52,95,Electric Organ
112.5,0.12,45,95,Electric Organ
112.5,0.12,52,95,Electric Organ
112.75,0.12,52,95,Electric Organ
112.75,0.12,45,95,Electric Organ
112.75,0.12,52,95,Electric Organ
112.75,0.12,45,95,Electric Organ
113.0,0.12,28,100,Electric Organ
113.0,0.0,36,92,Electric Organ
113.0,0.0,42,92,Electric Organ
113.0,0.12,45,105,Electric Organ
113.0,0.12,52,105,Electric Organ
113.0,0.12,45,105,Electric Organ
113.0,0.12,52,105,Electric Organ
113.25,0.31999999999999995,33,110,Electric Organ
113.25,0.0,36,92,Electric Organ
113.25,0.12,52,95,Electric Organ
113.25,0.12,45,95,Electric Organ
113.25,0.12,52,95,Electric Organ
113.25,0.12,45,95,Electric Organ
113.5,0.0,38,85,Electric Organ
113.5,0.0,42,85,Electric Organ
113.5,0.12,45,95,Electric Organ
113.5,0.12,52,95,Electric Organ
113.5,0.12,45,95,Electric Organ
113.5,0.12,52,95,Electric Organ
113.75,0.12,52,95,Electric Organ
113.75,0.12,45,95,Electric Organ
113.75,0.12,52,95,Electric Organ
113.75,0.12,45,95,Electric Organ
114.0,0.24,33,110,Electric Organ
114.0,0.0,36,92,Electric Organ
114.0,0.0,42,92,Electric Organ
114.0,0.24,45,110,Electric Organ
114.0,0.24,45,110,Electric Organ
114.25,0.24,52,110,Electric Organ
114.25,0.24,52,110,Electric Organ
114.5,0.12,35,100,Electric Organ
114.5,0.0,38,85,Electric Organ
114.5,0.0,42,85,Electric Organ
114.75,0.12,35,100,Electric Organ
114.75,0.0,36,92,Electric Organ
114.75,0.24,45,110,Electric Organ
114.75,0.24,45,110,Electric Organ
115.0,0.12,40,110,Electric Organ
115.0,0.12,71,100,Electric Organ
115.0,0.0,42,78,Electric Organ
115.0,0.24,52,110,Electric Organ
115.0,0.24,52,110,Electric Organ
115.25,0.24,38,100,Electric Organ
115.25,0.12,71,100,Electric Organ
115.25,0.0,36,92,Electric Organ
115.5,0.0,38,85,Electric Organ
115.5,0.0,42,85,Electric Organ
115.5,0.12,45,110,Electric Organ
115.5,0.12,45,110,Electric Organ
115.75,1.92,71,97,Electric Organ
115.75,1.92,74,97,Electric Organ
115.75,1.92,78,97,Electric Organ
115.75,0.31999999999999995,35,110,Electric Organ
115.75,1.56,78,100,Electric Organ
115.75,0.0,36,92,Electric Organ
115.75,0.0,49,92,Electric Organ
115.75,0.31999999999999995,54,110,Electric Organ
115.75,0.31999999999999995,47,110,Electric Organ
115.75,0.31999999999999995,54,110,Electric Organ
115.75,0.31999999999999995,47,110,Electric Organ
116.25,0.0,36,92,Electric Organ
116.5,0.24,35,100,Electric Organ
116.5,0.0,38,85,Electric Organ
116.5,0.0,42,85,Electric Organ
116.5,0.12,47,95,Electric Organ
116.5,0.12,54,95,Electric Organ
116.5,0.12,47,95,Electric Organ
116.5,0.12,54,95,Electric Organ
116.75,0.12,54,95,Electric Organ
116.75,0.12,47,95,Electric Organ
116.75,0.12,54,95,Electric Organ
116.75,0.12,47,95,Electric Organ
117.0,0.12,30,100,Electric Organ
117.0,0.0,36,92,Electric Organ
117.0,0.0,42,92,Electric Organ
117.0,0.12,47,105,Electric Organ
117.0,0.12,54,105,Electric Organ
117.0,0.12,47,105,Electric Organ
117.0,0.12,54,105,Electric Organ
117.25,0.31999999999999995,33,110,Electric Organ
117.25,0.0,36,92,Electric Organ
117.25,0.12,54,95,Electric Organ
117.25,0.12,47,95,Electric Organ
117.25,0.12,54,95,Electric Organ
117.25,0.12,47,95,Electric Organ
117.5,0.0,38,85,Electric Organ
117.5,0.0,42,85,Electric Organ
117.5,0.12,47,95,Electric Organ
117.5,0.12,54,95,Electric Organ
117.5,0.12,47,95,Electric Organ
117.5,0.12,54,95,Electric Organ
117.75,0.12,54,95,Electric Organ
117.75,0.12,47,95,Electric Organ
117.75,0.12,54,95,Electric Organ
117.75,0.12,47,95,Electric Organ
118.0,0.24,33,110,Electric Organ
118.0,0.0,36,92,Electric Organ
118.0,0.0,42,92,Electric Organ
118.0,0.12,47,105,Electric Organ
118.0,0.12,54,105,Electric Organ
118.0,0.12,47,105,Electric Organ
118.0,0.12,54,105,Electric Organ
118.25,0.12,54,95,Electric Organ
118.25,0.12,47,95,Electric Organ
118.25,0.12,54,95,Electric Organ
118.25,0.12,47,95,Electric Organ
118.5,0.12,35,100,Electric Organ
118.5,0.0,38,85,Electric Organ
118.5,0.0,42,85,Electric Organ
118.5,0.12,47,95,Electric Organ
118.5,0.12,54,95,Electric Organ
118.5,0.12,47,95,Electric Organ
118.5,0.12,54,95,Electric Organ
118.75,0.12,35,100,Electric Organ
118.75,0.0,36,92,Electric Organ
118.75,0.12,54,95,Electric Organ
118.75,0.12,47,95,Electric Organ
118.75,0.12,54,95,Electric Organ
118.75,0.12,47,95,Electric Organ
119.0,0.12,38,110,Electric Organ
119.0,0.24,76,100,Electric Organ
119.0,0.0,42,78,Electric Organ
119.0,0.12,47,105,Electric Organ
119.0,0.12,54,105,Electric Organ
119.0,0.12,47,105,Electric Organ
119.0,0.12,54,105,Electric Organ
119.25,0.24,37,100,Electric Organ
119.25,0.0,36,92,Electric Organ
119.25,0.12,54,95,Electric Organ
119.25,0.12,47,95,Electric Organ
119.25,0.12,54,95,Electric Organ
119.25,0.12,47,95,Electric Organ
119.5,0.12,74,100,Electric Organ
119.5,0.0,38,85,Electric Organ
119.5,0.0,42,85,Electric Organ
119.5,0.12,47,95,Electric Organ
119.5,0.12,54,95,Electric Organ
119.5,0.12,47,95,Electric Organ
119.5,0.12,54,95,Electric Organ
119.75,1.92,69,97,Electric Organ
119.75,1.92,73,97,Electric Organ
119.75,1.92,76,97,Electric Organ
119.75,0.31999999999999995,33,110,Electric Organ
119.75,0.31999999999999995,76,100,Electric Organ
119.75,0.0,46,99,Electric Organ
119.75,0.0,36,99,Electric Organ
119.75,0.31999999999999995,52,105,Electric Organ
119.75,0.31999999999999995,45,105,Electric Organ
119.75,0.31999999999999995,52,105,Electric Organ
119.75,0.31999999999999995,45,105,Electric Organ
120.0,0.0,44,50,Electric Organ
120.25,0.0,36,92,Electric Organ
120.5,0.24,33,100,Electric Organ
120.5,0.48,73,100,Electric Organ
120.5,0.0,38,85,Electric Organ
120.5,0.0,42,85,Electric Organ
120.5,0.12,45,95,Electric Organ
120.5,0.12,52,95,Electric Organ
120.5,0.12,45,95,Electric Organ
120.5,0.12,52,95,Electric Organ
120.75,0.12,52,95,Electric Organ
120.75,0.12,45,95,Electric Organ
120.75,0.12,52,95,Electric Organ
120.75,0.12,45,95,Electric Organ
121.0,0.12,28,100,Electric Organ
121.0,0.0,36,92,Electric Organ
121.0,0.0,42,92,Electric Organ
121.0,0.12,45,105,Electric Organ
121.0,0.12,52,105,Electric Organ
121.0,0.12,45,105,Electric Organ
121.0,0.12,52,105,Electric Organ
121.25,0.31999999999999995,33,110,Electric Organ
121.25,0.0,36,92,Electric Organ
121.25,0.12,52,95,Electric Organ
121.25,0.12,45,95,Electric Organ
121.25,0.12,52,95,Electric Organ
121.25,0.12,45,95,Electric Organ
121.5,0.0,38,85,Electric Organ
121.5,0.0,42,85,Electric Organ
121.5,0.12,45,95,Electric Organ
121.5,0.12,52,95,Electric Organ
121.5,0.12,45,95,Electric Organ
121.5,0.12,52,95,Electric Organ
121.75,0.12,52,95,Electric Organ
121.75,0.12,45,95,Electric Organ
121.75,0.12,52,95,Electric Organ
121.75,0.12,45,95,Electric Organ
122.0,0.24,33,110,Electric Organ
122.0,0.0,36,92,Electric Organ
122.0,0.0,42,92,Electric Organ
122.0,0.24,45,110,Electric Organ
122.0,0.24,45,110,Electric Organ
122.25,0.24,52,110,Electric Organ
122.25,0.24,52,110,Electric Organ
122.5,0.12,35,100,Electric Organ
122.5,0.0,38,85,Electric Organ
122.5,0.0,42,85,Electric Organ
122.75,0.12,35,100,Electric Organ
122.75,0.0,36,92,Electric Organ
122.75,0.24,45,110,Electric Organ
122.75,0.24,45,110,Electric Organ
123.0,0.12,38,110,Electric Organ
123.0,0.12,71,100,Electric Organ
123.0,0.0,42,78,Electric Organ
123.0,0.24,52,110,Electric Organ
123.0,0.24,52,110,Electric Organ
123.25,0.24,37,100,Electric Organ
123.25,0.12,71,100,Electric Organ
123.25,0.0,36,92,Electric Organ
123.5,0.0,38,85,Electric Organ
123.5,0.0,42,85,Electric Organ
123.5,0.12,45,110,Electric Organ
123.5,0.12,45,110,Electric Organ
123.75,1.92,67,97,Electric Organ
123.75,1.92,71,97,Electric Organ
123.75,1.92,74,97,Electric Organ
123.75,0.31999999999999995,31,110,Electric Organ
123.75,0.31999999999999995,74,100,Electric Organ
123.75,0.0,46,99,Electric Organ
123.75,0.0,36,99,Electric Organ
123.75,0.31999999999999995,50,110,Electric Organ
123.75,0.31999999999999995,43,110,Electric Organ
123.75,0.31999999999999995,50,110,Electric Organ
123.75,0.31999999999999995,43,110,Electric Organ
124.0,0.0,44,50,Electric Organ
124.25,0.0,36,92,Electric Organ
124.5,0.24,31,100,Electric Organ
124.5,0.0,38,85,Electric Organ
124.5,0.0,42,85,Electric Organ
124.5,0.12,43,95,Electric Organ
124.5,0.12,50,95,Electric Organ
124.5,0.12,43,95,Electric Organ
124.5,0.12,50,95,Electric Organ
124.75,0.12,50,95,Electric Organ
124.75,0.12,43,95,Electric Organ
124.75,0.12,50,95,Electric Organ
124.75,0.12,43,95,Electric Organ
125.0,0.12,30,100,Electric Organ
125.0,0.24,71,100,Electric Organ
125.0,0.0,36,92,Electric Organ
125.0,0.0,42,92,Electric Organ
125.0,0.12,43,105,Electric Organ
125.0,0.12,50,105,Electric Organ
125.0,0.12,43,105,Electric Organ
125.0,0.12,50,105,Electric Organ
125.25,0.31999999999999995,31,110,Electric Organ
125.25,0.0,36,92,Electric Organ
125.25,0.12,50,95,Electric Organ
125.25,0.12,43,95,Electric Organ
125.25,0.12,50,95,Electric Organ
125.25,0.12,43,95,Electric Organ
125.5,0.0,38,85,Electric Organ
125.5,0.0,42,85,Electric Organ
125.5,0.12,43,95,Electric Organ
125.5,0.12,50,95,Electric Organ
125.5,0.12,43,95,Electric Organ
125.5,0.12,50,95,Electric Organ
125.75,0.12,50,95,Electric Organ
125.75,0.12,43,95,Electric Organ
125.75,0.12,50,95,Electric Organ
125.75,0.12,43,95,Electric Organ
126.0,0.24,33,110,Electric Organ
126.0,0.24,74,100,Electric Organ
126.0,0.0,36,92,Electric Organ
126.0,0.0,42,92,Electric Organ
126.0,0.12,43,105,Electric Organ
126.0,0.12,50,105,Electric Organ
126.0,0.12,43,105,Electric Organ
126.0,0.12,50,105,Electric Organ
126.25,0.12,50,95,Electric Organ
126.25,0.12,43,95,Electric Organ
126.25,0.12,50,95,Electric Organ
126.25,0.12,43,95,Electric Organ
126.5,0.12,35,100,Electric Organ
126.5,0.0,38,85,Electric Organ
126.5,0.0,42,85,Electric Organ
126.5,0.12,43,95,Electric Organ
126.5,0.12,50,95,Electric Organ
126.5,0.12,43,95,Electric Organ
126.5,0.12,50,95,Electric Organ
126.75,0.12,35,100,Electric Organ
126.75,0.0,36,92,Electric Organ
126.75,0.12,50,95,Electric Organ
126.75,0.12,43,95,Electric Organ
126.75,0.12,50,95,Electric Organ
126.75,0.12,43,95,Electric Organ
127.0,0.12,38,110,Electric Organ
127.0,0.31999999999999995,78,100,Electric Organ
127.0,0.0,42,78,Electric Organ
127.0,0.12,43,105,Electric Organ
127.0,0.12,50,105,Electric Organ
127.0,0.12,43,105,Electric Organ
127.0,0.12,50,105,Electric Organ
127.25,0.24,37,100,Electric Organ
127.25,0.0,36,92,Electric Organ
127.25,0.12,50,95,Electric Organ
127.25,0.12,43,95,Electric Organ
127.25,0.12,50,95,Electric Organ
127.25,0.12,43,95,Electric Organ
127.5,0.0,38,85,Electric Organ
127.5,0.0,42,85,Electric Organ
127.5,0.12,43,95,Electric Organ
127.5,0.12,50,95,Electric Organ
127.5,0.12,43,95,Electric Organ
127.5,0.12,50,95,Electric Organ
127.75,1.56,69,97,Electric Organ
127.75,1.56,73,97,Electric Organ
127.75,1.56,76,97,Electric Organ
127.75,0.31999999999999995,33,110,Electric Organ
127.75,0.31999999999999995,76,100,Electric Organ
127.75,0.0,36,92,Electric Organ
127.75,0.0,57,92,Electric Organ
127.75,0.31999999999999995,52,105,Electric Organ
127.75,0.31999999999999995,45,105,Electric Organ
127.75,0.31999999999999995,52,105,Electric Organ
127.75,0.31999999999999995,45,105,Electric Organ
128.0,0.0,42,78,Electric Organ
128.25,0.0,36,92,Electric Organ
128.5,0.24,33,100,Electric Organ
128.5,1.44,78,100,Electric Organ
128.5,0.0,38,85,Electric Organ
128.5,0.0,42,85,Electric Organ
128.5,0.12,45,95,Electric Organ
128.5,0.12,52,95,Electric Organ
128.5,0.12,45,95,Electric Organ
128.5,0.12,52,95,Electric Organ
128.75,0.12,52,95,Electric Organ
128.75,0.12,45,95,Electric Organ
128.75,0.12,52,95,Electric Organ
128.75,0.12,45,95,Electric Organ
129.0,0.12,30,100,Electric Organ
129.0,0.0,36,92,Electric Organ
129.0,0.0,42,92,Electric Organ
129.0,0.12,45,105,Electric Organ
129.0,0.12,52,105,Electric Organ
129.0,0.12,45,105,Electric Organ
129.0,0.12,52,105,Electric Organ
129.25,0.31999999999999995,33,110,Electric Organ
129.25,0.0,36,92,Electric Organ
129.25,0.12,52,95,Electric Organ
129.25,0.12,45,95,Electric Organ
129.25,0.12,52,95,Electric Organ
129.25,0.12,45,95,Electric Organ
129.5,0.0,38,85,Electric Organ
129.5,0.0,42,85,Electric Organ
129.5,0.12,45,95,Electric Organ
129.5,0.12,52,95,Electric Organ
129.5,0.12,45,95,Electric Organ
129.5,0.12,52,95,Electric Organ
129.75,0.12,52,95,Electric Organ
129.75,0.12,45,95,Electric Organ
129.75,0.12,52,95,Electric Organ
129.75,0.12,45,95,Electric Organ
130.0,0.24,33,110,Electric Organ
130.0,0.0,36,92,Electric Organ
130.0,0.0,42,92,Electric Organ
130.0,0.12,45,105,Electric Organ
130.0,0.12,52,105,Electric Organ
130.0,0.12,45,105,Electric Organ
130.0,0.12,52,105,Electric Organ
130.25,0.12,52,95,Electric Organ
130.25,0.12,45,95,Electric Organ
130.25,0.12,52,95,Electric Organ
130.25,0.12,45,95,Electric Organ
130.5,0.12,35,110,Electric Organ
130.5,0.0,38,92,Electric Organ
130.5,0.0,46,92,Electric Organ
130.5,0.12,45,95,Electric Organ
130.5,0.12,52,95,Electric Organ
130.5,0.12,45,95,Electric Organ
130.5,0.12,52,95,Electric Organ
130.75,0.12,52,95,Electric Organ
130.75,0.12,45,95,Electric Organ
130.75,0.12,52,95,Electric Organ
130.75,0.12,45,95,Electric Organ
131.0,0.12,69,97,Electric Organ
131.0,0.12,73,97,Electric Organ
131.0,0.12,76,97,Electric Organ
131.0,0.12,33,110,Electric Organ
131.0,0.0,38,106,Electric Organ
131.0,0.12,45,110,Electric Organ
131.0,0.12,52,110,Electric Organ
131.0,0.12,45,110,Electric Organ
131.0,0.12,52,110,Electric Organ
131.25,0.12,69,97,Electric Organ
131.25,0.12,73,97,Electric Organ
131.25,0.12,75,97,Electric Organ
131.25,0.12,32,100,Electric Organ
131.25,0.0,38,106,Electric Organ
131.25,0.12,44,110,Electric Organ
131.25,0.12,51,110,Electric Organ
131.25,0.12,44,110,Electric Organ
131.25,0.12,51,110,Electric Organ
131.75,1.92,67,97,Electric Organ
131.75,1.92,71,97,Electric Organ
131.75,1.92,74,97,Electric Organ
131.75,0.24,31,110,Electric Organ
131.75,0.0,36,92,Electric Organ
131.75,0.0,49,92,Electric Organ
131.75,1.92,50,110,Electric Organ
131.75,1.92,43,110,Electric Organ
131.75,1.92,50,110,Electric Organ
131.75,1.92,43,110,Electric Organ
132.25,0.12,31,100,Electric Organ
132.25,0.0,36,92,Electric Organ
132.5,0.24,31,100,Electric Organ
132.5,0.0,38,85,Electric Organ
132.5,0.0,42,85,Electric Organ
133.0,0.12,31,110,Electric Organ
133.0,0.0,36,92,Electric Organ
133.0,0.0,42,92,Electric Organ
133.25,0.12,31,100,Electric Organ
133.25,0.0,36,92,Electric Organ
133.5,0.24,31,100,Electric Organ
133.5,0.12,71,100,Electric Organ
133.5,0.0,38,85,Electric Organ
133.5,0.0,42,85,Electric Organ
134.0,0.24,31,110,Electric Organ
134.0,0.24,74,100,Electric Organ
134.0,0.0,36,92,Electric Organ
134.0,0.0,42,92,Electric Organ
134.5,0.12,31,100,Electric Organ
134.5,0.12,71,100,Electric Organ
134.5,0.0,38,85,Electric Organ
134.5,0.0,42,85,Electric Organ
134.75,0.12,31,100,Electric Organ
134.75,0.0,36,92,Electric Organ
135.0,0.12,31,110,Electric Organ
135.0,0.24,74,100,Electric Organ
135.0,0.0,42,78,Electric Organ
135.25,0.12,31,100,Electric Organ
135.25,0.0,36,92,Electric Organ
135.5,0.12,31,100,Electric Organ
135.5,0.12,71,100,Electric Organ
135.5,0.0,38,85,Electric Organ
135.5,0.0,42,85,Electric Organ
135.75,1.92,67,97,Electric Organ
135.75,1.92,71,97,Electric Organ
135.75,1.92,74,97,Electric Organ
135.75,0.24,31,110,Electric Organ
135.75,1.08,67,97,Electric Organ
135.75,1.08,71,97,Electric Organ
135.75,1.08,78,97,Electric Organ
135.75,0.31999999999999995,74,100,Electric Organ
135.75,0.0,36,106,Electric Organ
135.75,0.31999999999999995,43,105,Electric Organ
135.75,0.31999999999999995,50,105,Electric Organ
135.75,0.31999999999999995,43,105,Electric Organ
135.75,0.31999999999999995,50,105,Electric Organ
136.0,0.0,42,78,Electric Organ
136.25,0.12,31,100,Electric Organ
136.25,0.0,36,92,Electric Organ
136.5,0.24,31,100,Electric Organ
136.5,0.96,78,100,Electric Organ
136.5,0.0,38,85,Electric Organ
136.5,0.0,42,85,Electric Organ
136.5,0.12,43,95,Electric Organ
136.5,0.12,50,95,Electric Organ
136.5,0.12,43,95,Electric Organ
136.5,0.12,50,95,Electric Organ
136.75,0.12,50,95,Electric Organ
136.75,0.12,43,95,Electric Organ
136.75,0.12,50,95,Electric Organ
136.75,0.12,43,95,Electric Organ
137.0,0.12,31,110,Electric Organ
137.0,0.0,36,92,Electric Organ
137.0,0.0,42,92,Electric Organ
137.0,0.12,43,105,Electric Organ
137.0,0.12,50,105,Electric Organ
137.0,0.12,43,105,Electric Organ
137.0,0.12,50,105,Electric Organ
137.25,0.12,31,100,Electric Organ
137.25,0.0,36,92,Electric Organ
137.25,0.12,50,95,Electric Organ
137.25,0.12,43,95,Electric Organ
137.25,0.12,50,95,Electric Organ
137.25,0.12,43,95,Electric Organ
137.5,0.24,31,100,Electric Organ
137.5,0.0,38,85,Electric Organ
137.5,0.0,42,85,Electric Organ
137.5,0.12,43,95,Electric Organ
137.5,0.12,50,95,Electric Organ
137.5,0.12,43,95,Electric Organ
137.5,0.12,50,95,Electric Organ
137.75,0.12,50,95,Electric Organ
137.75,0.12,43,95,Electric Organ
137.75,0.12,50,95,Electric Organ
137.75,0.12,43,95,Electric Organ
138.0,0.24,31,110,Electric Organ
138.0,0.8,67,97,Electric Organ
138.0,0.8,71,97,Electric Organ
138.0,0.8,76,97,Electric Organ
138.0,0.0,36,92,Electric Organ
138.0,0.0,42,92,Electric Organ
138.0,0.12,43,105,Electric Organ
138.0,0.12,50,105,Electric Organ
138.0,0.12,43,105,Electric Organ
138.0,0.12,50,105,Electric Organ
138.25,0.12,50,95,Electric Organ
138.25,0.12,43,95,Electric Organ
138.25,0.12,50,95,Electric Organ
138.25,0.12,43,95,Electric Organ
138.5,0.12,31,100,Electric Organ
138.5,0.0,38,85,Electric Organ
138.5,0.0,42,85,Electric Organ
138.5,0.12,43,95,Electric Organ
138.5,0.12,50,95,Electric Organ
138.5,0.12,43,95,Electric Organ
138.5,0.12,50,95,Electric Organ
138.75,0.12,31,100,Electric Organ
138.75,0.0,36,92,Electric Organ
138.75,0.12,50,95,Electric Organ
138.75,0.12,43,95,Electric Organ
138.75,0.12,50,95,Electric Organ
138.75,0.12,43,95,Electric Organ
139.0,0.12,31,110,Electric Organ
139.0,0.12,71,100,Electric Organ
139.0,0.0,42,78,Electric Organ
139.0,0.12,43,105,Electric Organ
139.0,0.12,50,105,Electric Organ
139.0,0.12,43,105,Electric Organ
139.0,0.12,50,105,Electric Organ
139.25,0.12,31,100,Electric Organ
139.25,0.12,71,100,Electric Organ
139.25,0.0,36,92,Electric Organ
139.25,0.12,50,95,Electric Organ
139.25,0.12,43,95,Electric Organ
139.25,0.12,50,95,Electric Organ
139.25,0.12,43,95,Electric Organ
139.5,0.12,31,100,Electric Organ
139.5,0.0,38,85,Electric Organ
139.5,0.0,42,85,Electric Organ
139.5,0.12,43,95,Electric Organ
139.5,0.12,50,95,Electric Organ
139.5,0.12,43,95,Electric Organ
139.5,0.12,50,95,Electric Organ
139.75,1.7599999999999998,69,97,Electric Organ
139.75,1.7599999999999998,73,97,Electric Organ
139.75,1.7599999999999998,76,97,Electric Organ
139.75,0.24,33,110,Electric Organ
139.75,1.7599999999999998,69,97,Electric Organ
139.75,1.7599999999999998,73,97,Electric Organ
139.75,1.7599999999999998,76,97,Electric Organ
139.75,0.6,76,100,Electric Organ
139.75,0.0,46,99,Electric Organ
139.75,0.0,36,99,Electric Organ
139.75,0.31999999999999995,52,105,Electric Organ
139.75,0.31999999999999995,45,105,Electric Organ
139.75,0.31999999999999995,52,105,Electric Organ
139.75,0.31999999999999995,45,105,Electric Organ
140.0,0.0,44,50,Electric Organ
140.25,0.12,33,100,Electric Organ
140.25,0.0,36,92,Electric Organ
140.5,0.24,33,100,Electric Organ
140.5,0.0,38,85,Electric Organ
140.5,0.0,42,85,Electric Organ
140.5,0.12,45,95,Electric Organ
140.5,0.12,52,95,Electric Organ
140.5,0.12,45,95,Electric Organ
140.5,0.12,52,95,Electric Organ
140.75,0.12,52,95,Electric Organ
140.75,0.12,45,95,Electric Organ
140.75,0.12,52,95,Electric Organ
140.75,0.12,45,95,Electric Organ
141.0,0.12,33,110,Electric Organ
141.0,0.0,36,92,Electric Organ
141.0,0.0,42,92,Electric Organ
141.0,0.12,45,105,Electric Organ
141.0,0.12,52,105,Electric Organ
141.0,0.12,45,105,Electric Organ
141.0,0.12,52,105,Electric Organ
141.25,0.12,33,100,Electric Organ
141.25,0.0,36,92,Electric Organ
141.25,0.12,52,95,Electric Organ
141.25,0.12,45,95,Electric Organ
141.25,0.12,52,95,Electric Organ
141.25,0.12,45,95,Electric Organ
141.5,0.24,33,100,Electric Organ
141.5,0.0,38,85,Electric Organ
141.5,0.0,42,85,Electric Organ
141.5,0.12,45,95,Electric Organ
141.5,0.12,52,95,Electric Organ
141.5,0.12,45,95,Electric Organ
141.5,0.12,52,95,Electric Organ
141.75,0.12,52,95,Electric Organ
141.75,0.12,45,95,Electric Organ
141.75,0.12,52,95,Electric Organ
141.75,0.12,45,95,Electric Organ
142.0,0.24,33,110,Electric Organ
142.0,0.24,69,100,Electric Organ
142.0,0.0,36,92,Electric Organ
142.0,0.0,46,92,Electric Organ
142.0,0.12,45,105,Electric Organ
142.0,0.12,52,105,Electric Organ
142.0,0.12,45,105,Electric Organ
142.0,0.12,52,105,Electric Organ
142.25,0.12,52,95,Electric Organ
142.25,0.12,45,95,Electric Organ
142.25,0.12,52,95,Electric Organ
142.25,0.12,45,95,Electric Organ
142.5,0.12,33,100,Electric Organ
142.5,0.24,71,100,Electric Organ
142.5,0.0,38,78,Electric Organ
142.5,0.12,45,95,Electric Organ
142.5,0.12,52,95,Electric Organ
142.5,0.12,45,95,Electric Organ
142.5,0.12,52,95,Electric Organ
142.75,0.12,33,100,Electric Organ
142.75,0.0,38,92,Electric Organ
142.75,0.12,52,95,Electric Organ
142.75,0.12,45,95,Electric Organ
142.75,0.12,52,95,Electric Organ
142.75,0.12,45,95,Electric Organ
143.0,0.12,33,110,Electric Organ
143.0,0.24,73,100,Electric Organ
143.0,0.0,38,106,Electric Organ
143.0,0.12,45,105,Electric Organ
143.0,0.12,52,105,Electric Organ
143.0,0.12,45,105,Electric Organ
143.0,0.12,52,105,Electric Organ
143.25,0.12,33,100,Electric Organ
143.25,0.0,38,106,Electric Organ
143.25,0.12,45,95,Electric Organ
143.25,0.12,52,95,Electric Organ
143.25,0.12,45,95,Electric Organ
143.25,0.12,52,95,Electric Organ
143.5,1.68,35,110,Electric Organ
143.5,1.08,66,97,Electric Organ
143.5,1.08,71,97,Electric Organ
143.5,1.08,76,97,Electric Organ
143.5,1.12,71,100,Electric Organ
143.5,0.0,36,92,Electric Organ
143.5,0.0,57,92,Electric Organ
143.5,0.96,47,102,Electric Organ
143.5,0.96,54,102,Electric Organ
143.5,0.96,59,102,Electric Organ
143.5,0.96,64,102,Electric Organ
143.5,0.96,47,102,Electric Organ
143.5,0.96,54,102,Electric Organ
143.5,0.96,59,102,Electric Organ
143.5,0.96,64,102,Electric Organ
144.5,0.0,36,106,Electric Organ
145.0,0.0,38,99,Electric Organ
145.0,0.0,53,99,Electric Organ
145.5,0.0,36,99,Electric Organ
145.5,0.0,53,99,Electric Organ
145.5,0.0,47,102,Electric Organ
145.5,0.0,54,102,Electric Organ
145.5,0.0,59,102,Electric Organ
145.5,0.0,64,102,Electric Organ
145.5,0.0,47,102,Electric Organ
145.5,0.0,54,102,Electric Organ
145.5,0.0,59,102,Electric Organ
145.5,0.0,64,102,Electric Organ
145.75,0.6399999999999999,66,97,Electric Organ
145.75,0.6399999999999999,71,97,Electric Organ
145.75,0.6399999999999999,75,97,Electric Organ
145.75,0.6,63,102,Electric Organ
145.75,0.6,59,102,Electric Organ
145.75,0.6,54,102,Electric Organ
145.75,0.6,47,102,Electric Organ
145.75,0.6,63,102,Electric Organ
145.75,0.6,59,102,Electric Organ
145.75,0.6,54,102,Electric Organ
145.75,0.6,47,102,Electric Organ
146.0,0.0,36,99,Electric Organ
146.0,0.0,53,99,Electric Organ
146.25,0.0,38,92,Electric Organ
146.5,0.0,36,92,Electric Organ
146.5,0.0,53,92,Electric Organ
147.0,0.12,35,110,Electric Organ
147.0,0.0,38,99,Electric Organ
147.0,0.0,53,99,Electric Organ
147.0,0.12,47,110,Electric Organ
147.0,0.12,54,110,Electric Organ
147.0,0.12,47,110,Electric Organ
147.0,0.12,54,110,Electric Organ
147.25,0.12,33,110,Electric Organ
147.25,0.12,45,110,Electric Organ
147.25,0.12,52,110,Electric Organ
147.25,0.12,45,110,Electric Organ
147.25,0.12,52,110,Electric Organ
147.5,0.0,38,106,Electric Organ
147.75,1.92,67,97,Electric Organ
147.75,1.92,71,97,Electric Organ
147.75,1.92,74,97,Electric Organ
147.75,0.24,31,110,Electric Organ
147.75,0.0,36,92,Electric Organ
147.75,0.0,49,92,Electric Organ
147.75,0.31999999999999995,50,110,Electric Organ
147.75,0.31999999999999995,43,110,Electric Organ
147.75,0.31999999999999995,50,110,Electric Organ
147.75,0.31999999999999995,43,110,Electric Organ
148.25,0.12,31,100,Electric Organ
148.25,0.0,36,92,Electric Organ
148.5,0.24,31,100,Electric Organ
148.5,0.0,38,85,Electric Organ
148.5,0.0,42,85,Electric Organ
148.5,0.12,43,95,Electric Organ
148.5,0.12,50,95,Electric Organ
148.5,0.12,43,95,Electric Organ
148.5,0.12,50,95,Electric Organ
148.75,0.12,50,95,Electric Organ
148.75,0.12,43,95,Electric Organ
148.75,0.12,50,95,Electric Organ
148.75,0.12,43,95,Electric Organ
149.0,0.12,31,110,Electric Organ
149.0,0.0,36,92,Electric Organ
149.0,0.0,42,92,Electric Organ
149.0,0.12,43,105,Electric Organ
149.0,0.12,50,105,Electric Organ
149.0,0.12,43,105,Electric Organ
149.0,0.12,50,105,Electric Organ
149.25,0.12,31,100,Electric Organ
149.25,0.0,36,92,Electric Organ
149.25,0.12,50,95,Electric Organ
149.25,0.12,43,95,Electric Organ
149.25,0.12,50,95,Electric Organ
149.25,0.12,43,95,Electric Organ
149.5,0.24,31,100,Electric Organ
149.5,0.12,71,100,Electric Organ
149.5,0.0,38,85,Electric Organ
149.5,0.0,42,85,Electric Organ
149.5,0.12,43,95,Electric Organ
149.5,0.12,50,95,Electric Organ
149.5,0.12,43,95,Electric Organ
149.5,0.12,50,95,Electric Organ
149.75,0.12,50,95,Electric Organ
149.75,0.12,43,95,Electric Organ
149.75,0.12,50,95,Electric Organ
149.75,0.12,43,95,Electric Organ
150.0,0.24,31,110,Electric Organ
150.0,0.24,74,100,Electric Organ
150.0,0.0,36,92,Electric Organ
150.0,0.0,42,92,Electric Organ
150.0,0.12,43,105,Electric Organ
150.0,0.12,50,105,Electric Organ
150.0,0.12,43,105,Electric Organ
150.0,0.12,50,105,Electric Organ
150.25,0.12,50,95,Electric Organ
150.25,0.12,43,95,Electric Organ
150.25,0.12,50,95,Electric Organ
150.25,0.12,43,95,Electric Organ
150.5,0.12,31,100,Electric Organ
150.5,0.12,71,100,Electric Organ
150.5,0.0,38,85,Electric Organ
150.5,0.0,42,85,Electric Organ
150.5,0.12,43,95,Electric Organ
150.5,0.12,50,95,Electric Organ
150.5,0.12,43,95,Electric Organ
150.5,0.12,50,95,Electric Organ
150.75,0.12,31,100,Electric Organ
150.75,0.0,36,92,Electric Organ
150.75,0.12,50,95,Electric Organ
150.75,0.12,43,95,Electric Organ
150.75,0.12,50,95,Electric Organ
150.75,0.12,43,95,Electric Organ
151.0,0.12,31,110,Electric Organ
151.0,0.24,74,100,Electric Organ
151.0,0.0,42,78,Electric Organ
151.0,0.12,43,105,Electric Organ
151.0,0.12,50,105,Electric Organ
151.0,0.12,43,105,Electric Organ
151.0,0.12,50,105,Electric Organ
151.25,0.12,31,100,Electric Organ
151.25,0.0,36,92,Electric Organ
151.25,0.12,50,95,Electric Organ
151.25,0.12,43,95,Electric Organ
151.25,0.12,50,95,Electric Organ
151.25,0.12,43,95,Electric Organ
151.5,0.12,31,100,Electric Organ
151.5,0.12,71,100,Electric Organ
151.5,0.0,38,85,Electric Organ
151.5,0.0,42,85,Electric Organ
151.5,0.12,43,95,Electric Organ
151.5,0.12,50,95,Electric Organ
151.5,0.12,43,95,Electric Organ
151.5,0.12,50,95,Electric Organ
151.75,1.92,67,97,Electric Organ
151.75,1.92,71,97,Electric Organ
151.75,1.92,74,97,Electric Organ
151.75,0.24,31,110,Electric Organ
151.75,1.08,67,97,Electric Organ
151.75,1.08,71,97,Electric Organ
151.75,1.08,78,97,Electric Organ
151.75,0.31999999999999995,74,100,Electric Organ
151.75,0.0,36,92,Electric Organ
151.75,0.0,57,92,Electric Organ
151.75,0.31999999999999995,50,105,Electric Organ
151.75,0.31999999999999995,43,105,Electric Organ
151.75,0.31999999999999995,50,105,Electric Organ
151.75,0.31999999999999995,43,105,Electric Organ
152.25,0.12,31,100,Electric Organ
152.25,0.0,36,92,Electric Organ
152.5,0.24,31,100,Electric Organ
152.5,1.44,78,100,Electric Organ
152.5,0.0,38,85,Electric Organ
152.5,0.0,42,85,Electric Organ
152.5,0.12,43,95,Electric Organ
152.5,0.12,50,95,Electric Organ
152.5,0.12,43,95,Electric Organ
152.5,0.12,50,95,Electric Organ
152.75,0.12,50,95,Electric Organ
152.75,0.12,43,95,Electric Organ
152.75,0.12,50,95,Electric Organ
152.75,0.12,43,95,Electric Organ
153.0,0.12,31,110,Electric Organ
153.0,0.0,36,92,Electric Organ
153.0,0.0,42,92,Electric Organ
153.0,0.12,43,105,Electric Organ
153.0,0.12,50,105,Electric Organ
153.0,0.12,43,105,Electric Organ
153.0,0.12,50,105,Electric Organ
153.25,0.12,31,100,Electric Organ
153.25,0.0,36,92,Electric Organ
153.25,0.12,50,95,Electric Organ
153.25,0.12,43,95,Electric Organ
153.25,0.12,50,95,Electric Organ
153.25,0.12,43,95,Electric Organ
153.5,0.24,31,100,Electric Organ
153.5,0.0,38,85,Electric Organ
153.5,0.0,42,85,Electric Organ
153.5,0.12,43,95,Electric Organ
153.5,0.12,50,95,Electric Organ
153.5,0.12,43,95,Electric Organ
153.5,0.12,50,95,Electric Organ
153.75,0.12,50,95,Electric Organ
153.75,0.12,43,95,Electric Organ
153.75,0.12,50,95,Electric Organ
153.75,0.12,43,95,Electric Organ
154.0,0.24,31,110,Electric Organ
154.0,0.8,67,97,Electric Organ
154.0,0.8,71,97,Electric Organ
154.0,0.8,76,97,Electric Organ
154.0,0.0,36,92,Electric Organ
154.0,0.0,42,92,Electric Organ
154.0,0.12,43,105,Electric Organ
154.0,0.12,50,105,Electric Organ
154.0,0.12,43,105,Electric Organ
154.0,0.12,50,105,Electric Organ
154.25,0.12,50,95,Electric Organ
154.25,0.12,43,95,Electric Organ
154.25,0.12,50,95,Electric Organ
154.25,0.12,43,95,Electric Organ
154.5,0.12,31,100,Electric Organ
154.5,0.0,38,85,Electric Organ
154.5,0.0,42,85,Electric Organ
154.5,0.12,43,95,Electric Organ
154.5,0.12,50,95,Electric Organ
154.5,0.12,43,95,Electric Organ
154.5,0.12,50,95,Electric Organ
154.75,0.12,31,100,Electric Organ
154.75,0.0,36,92,Electric Organ
154.75,0.12,50,95,Electric Organ
154.75,0.12,43,95,Electric Organ
154.75,0.12,50,95,Electric Organ
154.75,0.12,43,95,Electric Organ
155.0,0.12,31,110,Electric Organ
155.0,0.0,42,78,Electric Organ
155.0,0.12,43,105,Electric Organ
155.0,0.12,50,105,Electric Organ
155.0,0.12,43,105,Electric Organ
155.0,0.12,50,105,Electric Organ
155.25,0.12,31,100,Electric Organ
155.25,0.0,36,92,Electric Organ
155.25,0.12,50,95,Electric Organ
155.25,0.12,43,95,Electric Organ
155.25,0.12,50,95,Electric Organ
155.25,0.12,43,95,Electric Organ
155.5,0.12,31,100,Electric Organ
155.5,0.0,38,85,Electric Organ
155.5,0.0,42,85,Electric Organ
155.5,0.12,43,95,Electric Organ
155.5,0.12,50,95,Electric Organ
155.5,0.12,43,95,Electric Organ
155.5,0.12,50,95,Electric Organ
155.75,1.56,69,97,Electric Organ
155.75,1.56,73,97,Electric Organ
155.75,1.56,76,97,Electric Organ
155.75,0.24,33,110,Electric Organ
155.75,1.56,69,97,Electric Organ
155.75,1.56,73,97,Electric Organ
155.75,1.56,76,97,Electric Organ
155.75,0.0,36,92,Electric Organ
155.75,0.0,49,92,Electric Organ
155.75,0.31999999999999995,52,105,Electric Organ
155.75,0.31999999999999995,45,105,Electric Organ
155.75,0.31999999999999995,52,105,Electric Organ
155.75,0.31999999999999995,45,105,Electric Organ
156.0,0.0,42,78,Electric Organ
156.25,0.12,33,100,Electric Organ
156.25,0.0,36,92,Electric Organ
156.5,0.24,33,100,Electric Organ
156.5,0.0,38,85,Electric Organ
156.5,0.0,42,85,Electric Organ
156.5,0.12,45,95,Electric Organ
156.5,0.12,52,95,Electric Organ
156.5,0.12,45,95,Electric Organ
156.5,0.12,52,95,Electric Organ
156.75,0.12,52,95,Electric Organ
156.75,0.12,45,95,Electric Organ
156.75,0.12,52,95,Electric Organ
156.75,0.12,45,95,Electric Organ
157.0,0.12,33,110,Electric Organ
157.0,0.36,76,100,Electric Organ
157.0,0.0,36,92,Electric Organ
157.0,0.0,42,92,Electric Organ
157.0,0.12,45,105,Electric Organ
157.0,0.12,52,105,Electric Organ
157.0,0.12,45,105,Electric Organ
157.0,0.12,52,105,Electric Organ
157.25,0.12,33,100,Electric Organ
157.25,0.0,36,92,Electric Organ
157.25,0.12,52,95,Electric Organ
157.25,0.12,45,95,Electric Organ
157.25,0.12,52,95,Electric Organ
157.25,0.12,45,95,Electric Organ
157.5,0.24,33,100,Electric Organ
157.5,0.0,38,85,Electric Organ
157.5,0.0,42,85,Electric Organ
157.5,0.12,45,95,Electric Organ
157.5,0.12,52,95,Electric Organ
157.5,0.12,45,95,Electric Organ
157.5,0.12,52,95,Electric Organ
157.75,0.12,52,95,Electric Organ
157.75,0.12,45,95,Electric Organ
157.75,0.12,52,95,Electric Organ
157.75,0.12,45,95,Electric Organ
158.0,0.24,33,110,Electric Organ
158.0,0.36,76,100,Electric Organ
158.0,0.0,36,92,Electric Organ
158.0,0.0,42,92,Electric Organ
158.0,0.12,45,105,Electric Organ
158.0,0.12,52,105,Electric Organ
158.0,0.12,45,105,Electric Organ
158.0,0.12,52,105,Electric Organ
158.25,0.12,52,95,Electric Organ
158.25,0.12,45,95,Electric Organ
158.25,0.12,52,95,Electric Organ
158.25,0.12,45,95,Electric Organ
158.5,0.12,33,100,Electric Organ
158.5,0.0,38,85,Electric Organ
158.5,0.0,42,85,Electric Organ
158.5,0.12,45,95,Electric Organ
158.5,0.12,52,95,Electric Organ
158.5,0.12,45,95,Electric Organ
158.5,0.12,52,95,Electric Organ
158.75,0.12,33,100,Electric Organ
158.75,0.12,52,95,Electric Organ
158.75,0.12,45,95,Electric Organ
158.75,0.12,52,95,Electric Organ
158.75,0.12,45,95,Electric Organ
159.0,0.12,69,97,Electric Organ
159.0,0.12,73,97,Electric Organ
159.0,0.12,76,97,Electric Organ
159.0,0.12,33,110,Electric Organ
159.0,0.12,69,97,Electric Organ
159.0,0.12,73,97,Electric Organ
159.0,0.12,76,97,Electric Organ
159.0,0.31999999999999995,74,100,Electric Organ
159.0,0.0,36,99,Electric Organ
159.0,0.0,38,99,Electric Organ
159.0,0.12,45,105,Electric Organ
159.0,0.12,52,105,Electric Organ
159.0,0.12,45,105,Electric Organ
159.0,0.12,52,105,Electric Organ
159.25,0.12,69,97,Electric Organ
159.25,0.12,73,97,Electric Organ
159.25,0.12,76,97,Electric Organ
159.25,0.12,33,100,Electric Organ
159.25,0.12,69,97,Electric Organ
159.25,0.12,73,97,Electric Organ
159.25,0.12,76,97,Electric Organ
159.25,0.0,38,106,Electric Organ
159.25,0.12,52,95,Electric Organ
159.25,0.12,45,95,Electric Organ
159.25,0.12,52,95,Electric Organ
159.25,0.12,45,95,Electric Organ
159.75,0.6,66,97,Electric Organ
159.75,0.6,70,97,Electric Organ
159.75,0.6,73,97,Electric Organ
159.75,0.24,42,110,Electric Organ
159.75,0.6,66,97,Electric Organ
159.75,0.6,70,97,Electric Organ
159.75,0.6,73,97,Electric Organ
159.75,0.6,73,100,Electric Organ
159.75,0.0,36,92,Electric Organ
159.75,0.0,57,92,Electric Organ
159.75,0.31999999999999995,49,105,Electric Organ
159.75,0.31999999999999995,42,105,Electric Organ
159.75,0.31999999999999995,49,105,Electric Organ
159.75,0.31999999999999995,42,105,Electric Organ
160.25,0.12,42,100,Electric Organ
160.25,0.0,36,92,Electric Organ
160.5,0.24,42,100,Electric Organ
160.5,0.0,38,106,Electric Organ
160.5,0.12,49,105,Electric Organ
160.5,0.12,42,105,Electric Organ
160.5,0.12,49,105,Electric Organ
160.5,0.12,42,105,Electric Organ
160.75,0.12,49,105,Electric Organ
160.75,0.12,42,105,Electric Organ
160.75,0.12,49,105,Electric Organ
160.75,0.12,42,105,Electric Organ
161.0,0.12,59,95,Electric Organ
161.0,0.12,71,95,Electric Organ
161.0,0.12,40,110,Electric Organ
161.0,0.12,59,90,Electric Organ
161.0,0.12,71,90,Electric Organ
161.0,0.31999999999999995,79,100,Electric Organ
161.0,0.0,43,92,Electric Organ
161.0,0.12,47,105,Electric Organ
161.0,0.12,40,105,Electric Organ
161.0,0.12,47,105,Electric Organ
161.0,0.12,40,105,Electric Organ
161.25,0.12,60,95,Electric Organ
161.25,0.12,72,95,Electric Organ
161.25,0.12,41,100,Electric Organ
161.25,0.12,60,90,Electric Organ
161.25,0.12,72,90,Electric Organ
161.25,0.0,43,92,Electric Organ
161.25,0.12,48,105,Electric Organ
161.25,0.12,41,105,Electric Organ
161.25,0.12,48,105,Electric Organ
161.25,0.12,41,105,Electric Organ
161.5,0.0,42,64,Electric Organ
161.75,0.12,61,95,Electric Organ
161.75,0.12,73,95,Electric Organ
161.75,0.15999999999999998,42,110,Electric Organ
161.75,0.12,61,90,Electric Organ
161.75,0.12,73,90,Electric Organ
161.75,0.6,78,100,Electric Organ
161.75,0.0,36,99,Electric Organ
161.75,0.0,46,99,Electric Organ
161.75,0.12,49,105,Electric Organ
161.75,0.12,42,105,Electric Organ
161.75,0.12,49,105,Electric Organ
161.75,0.12,42,105,Electric Organ
162.0,0.0,44,50,Electric Organ
163.75,0.31999999999999995,35,110,Electric Organ
163.75,0.0,36,92,Electric Organ
163.75,0.0,49,92,Electric Organ
163.75,0.31999999999999995,47,110,Electric Organ
163.75,0.31999999999999995,54,110,Electric Organ
163.75,0.31999999999999995,47,110,Electric Organ
163.75,0.31999999999999995,54,110,Electric Organ
164.25,0.0,36,92,Electric Organ
164.5,0.24,35,100,Electric Organ
164.5,0.0,38,99,Electric Organ
164.5,0.0,53,99,Electric Organ
164.5,0.12,47,95,Electric Organ
164.5,0.12,54,95,Electric Organ
164.5,0.12,47,95,Electric Organ
164.5,0.12,54,95,Electric Organ
164.75,0.12,54,95,Electric Organ
164.75,0.12,47,95,Electric Organ
164.75,0.12,54,95,Electric Organ
164.75,0.12,47,95,Electric Organ
165.0,0.12,30,100,Electric Organ
165.0,0.48,78,100,Electric Organ
165.0,0.48,78,100,Electric Organ
165.0,0.48,59,100,Electric Organ
165.0,0.48,62,100,Electric Organ
165.0,0.0,36,99,Electric Organ
165.0,0.0,53,99,Electric Organ
165.0,0.12,47,105,Electric Organ
165.0,0.12,54,105,Electric Organ
165.0,0.12,47,105,Electric Organ
165.0,0.12,54,105,Electric Organ
165.25,0.24,33,110,Electric Organ
165.25,0.0,36,92,Electric Organ
165.25,0.12,54,95,Electric Organ
165.25,0.12,47,95,Electric Organ
165.25,0.12,54,95,Electric Organ
165.25,0.12,47,95,Electric Organ
165.5,0.0,38,99,Electric Organ
165.5,0.0,53,99,Electric Organ
165.5,0.12,47,95,Electric Organ
165.5,0.12,54,95,Electric Organ
165.5,0.12,47,95,Electric Organ
165.5,0.12,54,95,Electric Organ
165.75,0.24,35,110,Electric Organ
165.75,0.0,36,92,Electric Organ
165.75,0.12,54,95,Electric Organ
165.75,0.12,47,95,Electric Organ
165.75,0.12,54,95,Electric Organ
165.75,0.12,47,95,Electric Organ
166.0,0.48,78,100,Electric Organ
166.0,0.48,78,100,Electric Organ
166.0,0.48,59,100,Electric Organ
166.0,0.48,62,100,Electric Organ
166.0,0.0,53,92,Electric Organ
166.0,0.12,47,105,Electric Organ
166.0,0.12,54,105,Electric Organ
166.0,0.12,47,105,Electric Organ
166.0,0.12,54,105,Electric Organ
166.25,0.12,35,100,Electric Organ
166.25,0.0,36,92,Electric Organ
166.25,0.12,54,95,Electric Organ
166.25,0.12,47,95,Electric Organ
166.25,0.12,54,95,Electric Organ
166.25,0.12,47,95,Electric Organ
166.5,0.12,35,100,Electric Organ
166.5,0.0,38,99,Electric Organ
166.5,0.0,53,99,Electric Organ
166.5,0.12,47,95,Electric Organ
166.5,0.12,54,95,Electric Organ
166.5,0.12,47,95,Electric Organ
166.5,0.12,54,95,Electric Organ
166.75,0.12,35,100,Electric Organ
166.75,0.12,54,95,Electric Organ
166.75,0.12,47,95,Electric Organ
166.75,0.12,54,95,Electric Organ
166.75,0.12,47,95,Electric Organ
167.0,0.12,38,110,Electric Organ
167.0,0.24,78,100,Electric Organ
167.0,0.24,78,100,Electric Organ
167.0,0.24,59,100,Electric Organ
167.0,0.24,62,100,Electric Organ
167.0,0.0,53,99,Electric Organ
167.0,0.0,36,99,Electric Organ
167.0,0.12,47,105,Electric Organ
167.0,0.12,54,105,Electric Organ
167.0,0.12,47,105,Electric Organ
167.0,0.12,54,105,Electric Organ
167.25,0.24,37,100,Electric Organ
167.25,0.0,36,92,Electric Organ
167.25,0.12,54,95,Electric Organ
167.25,0.12,47,95,Electric Organ
167.25,0.12,54,95,Electric Organ
167.25,0.12,47,95,Electric Organ
167.5,0.12,76,100,Electric Organ
167.5,0.12,76,100,Electric Organ
167.5,0.12,57,100,Electric Organ
167.5,0.12,61,100,Electric Organ
167.5,0.0,38,99,Electric Organ
167.5,0.0,53,99,Electric Organ
167.5,0.12,47,95,Electric Organ
167.5,0.12,54,95,Electric Organ
167.5,0.12,47,95,Electric Organ
167.5,0.12,54,95,Electric Organ
167.75,0.31999999999999995,33,110,Electric Organ
167.75,0.31999999999999995,79,100,Electric Organ
167.75,0.31999999999999995,79,100,Electric Organ
167.75,0.31999999999999995,61,100,Electric Organ
167.75,0.31999999999999995,64,100,Electric Organ
167.75,0.0,36,106,Electric Organ
167.75,0.31999999999999995,52,105,Electric Organ
167.75,0.31999999999999995,45,105,Electric Organ
167.75,0.31999999999999995,52,105,Electric Organ
167.75,0.31999999999999995,45,105,Electric Organ
168.0,0.0,53,92,Electric Organ
168.25,0.0,36,92,Electric Organ
168.5,0.24,33,100,Electric Organ
168.5,2.16,78,100,Electric Organ
168.5,1.68,78,100,Electric Organ
168.5,1.68,59,100,Electric Organ
168.5,1.68,62,100,Electric Organ
168.5,0.0,38,99,Electric Organ
168.5,0.0,53,99,Electric Organ
168.5,0.12,45,95,Electric Organ
168.5,0.12,52,95,Electric Organ
168.5,0.12,45,95,Electric Organ
168.5,0.12,52,95,Electric Organ
168.75,0.12,52,95,Electric Organ
168.75,0.12,45,95,Electric Organ
168.75,0.12,52,95,Electric Organ
168.75,0.12,45,95,Electric Organ
169.0,0.12,30,100,Electric Organ
169.0,0.0,36,99,Electric Organ
169.0,0.0,53,99,Electric Organ
169.0,0.12,45,105,Electric Organ
169.0,0.12,52,105,Electric Organ
169.0,0.12,45,105,Electric Organ
169.0,0.12,52,105,Electric Organ
169.25,0.24,33,110,Electric Organ
169.25,0.0,36,92,Electric Organ
169.25,0.12,52,95,Electric Organ
169.25,0.12,45,95,Electric Organ
169.25,0.12,52,95,Electric Organ
169.25,0.12,45,95,Electric Organ
169.5,0.0,38,99,Electric Organ
169.5,0.0,53,99,Electric Organ
169.5,0.12,45,95,Electric Organ
169.5,0.12,52,95,Electric Organ
169.5,0.12,45,95,Electric Organ
169.5,0.12,52,95,Electric Organ
169.75,0.24,33,110,Electric Organ
169.75,0.0,36,92,Electric Organ
169.75,0.12,52,95,Electric Organ
169.75,0.12,45,95,Electric Organ
169.75,0.12,52,95,Electric Organ
169.75,0.12,45,95,Electric Organ
170.0,0.0,53,92,Electric Organ
170.0,0.24,45,110,Electric Organ
170.0,0.24,45,110,Electric Organ
170.25,0.12,33,100,Electric Organ
170.25,0.0,36,92,Electric Organ
170.25,0.24,52,110,Electric Organ
170.25,0.24,52,110,Electric Organ
170.5,0.12,33,100,Electric Organ
170.5,0.0,38,99,Electric Organ
170.5,0.0,53,99,Electric Organ
170.75,0.12,33,100,Electric Organ
170.75,0.24,45,110,Electric Organ
170.75,0.24,45,110,Electric Organ
171.0,0.12,38,110,Electric Organ
171.0,0.0,53,99,Electric Organ
171.0,0.0,36,99,Electric Organ
171.0,0.24,52,110,Electric Organ
171.0,0.24,52,110,Electric Organ
171.25,0.24,37,100,Electric Organ
171.25,0.0,36,92,Electric Organ
171.5,0.0,38,99,Electric Organ
171.5,0.0,53,99,Electric Organ
171.5,0.12,45,110,Electric Organ
171.5,0.12,45,110,Electric Organ
171.75,0.31999999999999995,31,110,Electric Organ
171.75,0.0,36,92,Electric Organ
171.75,0.0,57,92,Electric Organ
171.75,0.31999999999999995,50,110,Electric Organ
171.75,0.31999999999999995,43,110,Electric Organ
171.75,0.31999999999999995,50,110,Electric Organ
171.75,0.31999999999999995,43,110,Electric Organ
172.25,0.0,36,92,Electric Organ
172.5,0.24,31,100,Electric Organ
172.5,0.0,38,99,Electric Organ
172.5,0.0,53,99,Electric Organ
172.5,0.12,43,95,Electric Organ
172.5,0.12,50,95,Electric Organ
172.5,0.12,43,95,Electric Organ
172.5,0.12,50,95,Electric Organ
172.75,0.12,50,95,Electric Organ
172.75,0.12,43,95,Electric Organ
172.75,0.12,50,95,Electric Organ
172.75,0.12,43,95,Electric Organ
173.0,0.12,30,100,Electric Organ
173.0,0.48,74,100,Electric Organ
173.0,0.48,74,100,Electric Organ
173.0,0.0,36,99,Electric Organ
173.0,0.0,53,99,Electric Organ
173.0,0.12,43,105,Electric Organ
173.0,0.12,50,105,Electric Organ
173.0,0.12,43,105,Electric Organ
173.0,0.12,50,105,Electric Organ
173.25,0.24,31,110,Electric Organ
173.25,0.0,36,92,Electric Organ
173.25,0.12,50,95,Electric Organ
173.25,0.12,43,95,Electric Organ
173.25,0.12,50,95,Electric Organ
173.25,0.12,43,95,Electric Organ
173.5,0.0,38,99,Electric Organ
173.5,0.0,53,99,Electric Organ
173.5,0.12,43,95,Electric Organ
173.5,0.12,50,95,Electric Organ
173.5,0.12,43,95,Electric Organ
173.5,0.12,50,95,Electric Organ
173.75,0.24,31,110,Electric Organ
173.75,0.0,36,92,Electric Organ
173.75,0.12,50,95,Electric Organ
173.75,0.12,43,95,Electric Organ
173.75,0.12,50,95,Electric Organ
173.75,0.12,43,95,Electric Organ
174.0,0.48,74,100,Electric Organ
174.0,0.48,74,100,Electric Organ
174.0,0.0,53,92,Electric Organ
174.0,0.12,43,105,Electric Organ
174.0,0.12,50,105,Electric Organ
174.0,0.12,43,105,Electric Organ
174.0,0.12,50,105,Electric Organ
174.25,0.12,31,100,Electric Organ
174.25,0.0,36,92,Electric Organ
174.25,0.12,50,95,Electric Organ
174.25,0.12,43,95,Electric Organ
174.25,0.12,50,95,Electric Organ
174.25,0.12,43,95,Electric Organ
174.5,0.12,31,100,Electric Organ
174.5,0.0,38,99,Electric Organ
174.5,0.0,53,99,Electric Organ
174.5,0.12,43,95,Electric Organ
174.5,0.12,50,95,Electric Organ
174.5,0.12,43,95,Electric Organ
174.5,0.12,50,95,Electric Organ
174.75,0.12,31,100,Electric Organ
174.75,0.12,50,95,Electric Organ
174.75,0.12,43,95,Electric Organ
174.75,0.12,50,95,Electric Organ
174.75,0.12,43,95,Electric Organ
175.0,0.12,38,110,Electric Organ
175.0,0.31999999999999995,71,100,Electric Organ
175.0,0.31999999999999995,71,100,Electric Organ
175.0,0.0,53,99,Electric Organ
175.0,0.0,36,99,Electric Organ
175.0,0.12,43,105,Electric Organ
175.0,0.12,50,105,Electric Organ
175.0,0.12,43,105,Electric Organ
175.0,0.12,50,105,Electric Organ
175.25,0.24,37,100,Electric Organ
175.25,0.0,36,92,Electric Organ
175.25,0.12,50,95,Electric Organ
175.25,0.12,43,95,Electric Organ
175.25,0.12,50,95,Electric Organ
175.25,0.12,43,95,Electric Organ
175.5,0.0,38,99,Electric Organ
175.5,0.0,53,99,Electric Organ
175.5,0.12,43,95,Electric Organ
175.5,0.12,50,95,Electric Organ
175.5,0.12,43,95,Electric Organ
175.5,0.12,50,95,Electric Organ
175.75,0.31999999999999995,33,110,Electric Organ
175.75,0.6,78,100,Electric Organ
175.75,0.6,78,100,Electric Organ
175.75,0.0,36,106,Electric Organ
175.75,0.31999999999999995,52,105,Electric Organ
175.75,0.31999999999999995,45,105,Electric Organ
175.75,0.31999999999999995,52,105,Electric Organ
175.75,0.31999999999999995,45,105,Electric Organ
176.0,0.0,53,92,Electric Organ
176.25,0.0,36,92,Electric Organ
176.5,0.24,33,100,Electric Organ
176.5,0.0,38,99,Electric Organ
176.5,0.0,53,99,Electric Organ
176.5,0.12,45,95,Electric Organ
176.5,0.12,52,95,Electric Organ
176.5,0.12,45,95,Electric Organ
176.5,0.12,52,95,Electric Organ
176.75,0.12,52,95,Electric Organ
176.75,0.12,45,95,Electric Organ
176.75,0.12,52,95,Electric Organ
176.75,0.12,45,95,Electric Organ
177.0,0.12,30,100,Electric Organ
177.0,0.48,76,100,Electric Organ
177.0,0.48,76,100,Electric Organ
177.0,0.0,36,99,Electric Organ
177.0,0.0,53,99,Electric Organ
177.0,0.12,45,105,Electric Organ
177.0,0.12,52,105,Electric Organ
177.0,0.12,45,105,Electric Organ
177.0,0.12,52,105,Electric Organ
177.25,0.24,33,110,Electric Organ
177.25,0.0,36,92,Electric Organ
177.25,0.12,52,95,Electric Organ
177.25,0.12,45,95,Electric Organ
177.25,0.12,52,95,Electric Organ
177.25,0.12,45,95,Electric Organ
177.5,0.0,38,99,Electric Organ
177.5,0.0,53,99,Electric Organ
177.5,0.12,45,95,Electric Organ
177.5,0.12,52,95,Electric Organ
177.5,0.12,45,95,Electric Organ
177.5,0.12,52,95,Electric Organ
177.75,0.24,33,110,Electric Organ
177.75,0.0,36,92,Electric Organ
177.75,0.12,52,95,Electric Organ
177.75,0.12,45,95,Electric Organ
177.75,0.12,52,95,Electric Organ
177.75,0.12,45,95,Electric Organ
178.0,0.24,74,100,Electric Organ
178.0,0.24,74,100,Electric Organ
178.0,0.0,53,92,Electric Organ
178.0,0.24,45,110,Electric Organ
178.0,0.24,45,110,Electric Organ
178.25,0.12,33,100,Electric Organ
178.25,0.0,36,92,Electric Organ
178.25,0.24,52,110,Electric Organ
178.25,0.24,52,110,Electric Organ
178.5,0.12,33,100,Electric Organ
178.5,0.72,78,100,Electric Organ
178.5,0.6399999999999999,78,100,Electric Organ
178.5,0.0,38,99,Electric Organ
178.5,0.0,53,99,Electric Organ
178.75,0.12,33,100,Electric Organ
178.75,0.24,45,110,Electric Organ
178.75,0.24,45,110,Electric Organ
179.0,0.12,40,110,Electric Organ
179.0,0.0,53,99,Electric Organ
179.0,0.0,36,99,Electric Organ
179.0,0.24,52,110,Electric Organ
179.0,0.24,52,110,Electric Organ
179.25,0.24,38,100,Electric Organ
179.25,0.0,36,92,Electric Organ
179.5,0.0,38,106,Electric Organ
179.5,0.12,45,110,Electric Organ
179.5,0.12,45,110,Electric Organ
179.75,0.31999999999999995,35,110,Electric Organ
179.75,0.0,36,92,Electric Organ
179.75,0.0,49,92,Electric Organ
179.75,0.31999999999999995,54,110,Electric Organ
179.75,0.31999999999999995,47,110,Electric Organ
179.75,0.31999999999999995,54,110,Electric Organ
179.75,0.31999999999999995,47,110,Electric Organ
180.25,0.0,36,92,Electric Organ
180.5,0.24,35,100,Electric Organ
180.5,0.0,38,99,Electric Organ
180.5,0.0,53,99,Electric Organ
180.5,0.12,47,95,Electric Organ
180.5,0.12,54,95,Electric Organ
180.5,0.12,47,95,Electric Organ
180.5,0.12,54,95,Electric Organ
180.75,0.12,54,95,Electric Organ
180.75,0.12,47,95,Electric Organ
180.75,0.12,54,95,Electric Organ
180.75,0.12,47,95,Electric Organ
181.0,0.12,30,100,Electric Organ
181.0,0.48,78,100,Electric Organ
181.0,0.48,78,100,Electric Organ
181.0,0.48,59,100,Electric Organ
181.0,0.48,62,100,Electric Organ
181.0,0.0,36,99,Electric Organ
181.0,0.0,53,99,Electric Organ
181.0,0.12,47,105,Electric Organ
181.0,0.12,54,105,Electric Organ
181.0,0.12,47,105,Electric Organ
181.0,0.12,54,105,Electric Organ
181.25,0.24,33,110,Electric Organ
181.25,0.0,36,92,Electric Organ
181.25,0.12,54,95,Electric Organ
181.25,0.12,47,95,Electric Organ
181.25,0.12,54,95,Electric Organ
181.25,0.12,47,95,Electric Organ
181.5,0.0,38,99,Electric Organ
181.5,0.0,53,99,Electric Organ
181.5,0.12,47,95,Electric Organ
181.5,0.12,54,95,Electric Organ
181.5,0.12,47,95,Electric Organ
181.5,0.12,54,95,Electric Organ
181.75,0.24,35,110,Electric Organ
181.75,0.0,36,92,Electric Organ
181.75,0.12,54,95,Electric Organ
181.75,0.12,47,95,Electric Organ
181.75,0.12,54,95,Electric Organ
181.75,0.12,47,95,Electric Organ
182.0,0.48,78,100,Electric Organ
182.0,0.48,78,100,Electric Organ
182.0,0.48,59,100,Electric Organ
182.0,0.48,62,100,Electric Organ
182.0,0.0,53,92,Electric Organ
182.0,0.12,47,105,Electric Organ
182.0,0.12,54,105,Electric Organ
182.0,0.12,47,105,Electric Organ
182.0,0.12,54,105,Electric Organ
182.25,0.12,35,100,Electric Organ
182.25,0.0,36,92,Electric Organ
182.25,0.12,54,95,Electric Organ
182.25,0.12,47,95,Electric Organ
182.25,0.12,54,95,Electric Organ
182.25,0.12,47,95,Electric Organ
182.5,0.12,35,100,Electric Organ
182.5,0.0,38,99,Electric Organ
182.5,0.0,53,99,Electric Organ
182.5,0.12,47,95,Electric Organ
182.5,0.12,54,95,Electric Organ
182.5,0.12,47,95,Electric Organ
182.5,0.12,54,95,Electric Organ
182.75,0.12,35,100,Electric Organ
182.75,0.12,54,95,Electric Organ
182.75,0.12,47,95,Electric Organ
182.75,0.12,54,95,Electric Organ
182.75,0.12,47,95,Electric Organ
183.0,0.12,38,110,Electric Organ
183.0,0.24,78,100,Electric Organ
183.0,0.24,78,100,Electric Organ
183.0,0.24,59,100,Electric Organ
183.0,0.24,62,100,Electric Organ
183.0,0.0,53,99,Electric Organ
183.0,0.0,36,99,Electric Organ
183.0,0.12,47,105,Electric Organ
183.0,0.12,54,105,Electric Organ
183.0,0.12,47,105,Electric Organ
183.0,0.12,54,105,Electric Organ
183.25,0.24,37,100,Electric Organ
183.25,0.0,36,92,Electric Organ
183.25,0.12,54,95,Electric Organ
183.25,0.12,47,95,Electric Organ
183.25,0.12,54,95,Electric Organ
183.25,0.12,47,95,Electric Organ
183.5,0.12,76,100,Electric Organ
183.5,0.12,76,100,Electric Organ
183.5,0.12,57,100,Electric Organ
183.5,0.12,61,100,Electric Organ
183.5,0.0,38,99,Electric Organ
183.5,0.0,53,99,Electric Organ
183.5,0.12,47,95,Electric Organ
183.5,0.12,54,95,Electric Organ
183.5,0.12,47,95,Electric Organ
183.5,0.12,54,95,Electric Organ
183.75,0.31999999999999995,33,110,Electric Organ
183.75,0.31999999999999995,79,100,Electric Organ
183.75,0.31999999999999995,79,100,Electric Organ
183.75,0.31999999999999995,61,100,Electric Organ
183.75,0.31999999999999995,64,100,Electric Organ
183.75,0.0,36,106,Electric Organ
183.75,0.31999999999999995,52,105,Electric Organ
183.75,0.31999999999999995,45,105,Electric Organ
183.75,0.31999999999999995,52,105,Electric Organ
183.75,0.31999999999999995,45,105,Electric Organ
184.0,0.0,53,92,Electric Organ
184.25,0.0,36,92,Electric Organ
184.5,0.24,33,100,Electric Organ
184.5,2.16,78,100,Electric Organ
184.5,1.68,78,100,Electric Organ
184.5,1.68,59,100,Electric Organ
184.5,1.68,62,100,Electric Organ
184.5,0.0,38,99,Electric Organ
184.5,0.0,53,99,Electric Organ
184.5,0.12,45,95,Electric Organ
184.5,0.12,52,95,Electric Organ
184.5,0.12,45,95,Electric Organ
184.5,0.12,52,95,Electric Organ
184.75,0.12,52,95,Electric Organ
184.75,0.12,45,95,Electric Organ
184.75,0.12,52,95,Electric Organ
184.75,0.12,45,95,Electric Organ
185.0,0.12,30,100,Electric Organ
185.0,0.0,36,99,Electric Organ
185.0,0.0,53,99,Electric Organ
185.0,0.12,45,105,Electric Organ
185.0,0.12,52,105,Electric Organ
185.0,0.12,45,105,Electric Organ
185.0,0.12,52,105,Electric Organ
185.25,0.24,33,110,Electric Organ
185.25,0.0,36,92,Electric Organ
185.25,0.12,52,95,Electric Organ
185.25,0.12,45,95,Electric Organ
185.25,0.12,52,95,Electric Organ
185.25,0.12,45,95,Electric Organ
185.5,0.0,38,99,Electric Organ
185.5,0.0,53,99,Electric Organ
185.5,0.12,45,95,Electric Organ
185.5,0.12,52,95,Electric Organ
185.5,0.12,45,95,Electric Organ
185.5,0.12,52,95,Electric Organ
185.75,0.24,33,110,Electric Organ
185.75,0.0,36,92,Electric Organ
185.75,0.12,52,95,Electric Organ
185.75,0.12,45,95,Electric Organ
185.75,0.12,52,95,Electric Organ
185.75,0.12,45,95,Electric Organ
186.0,0.0,53,92,Electric Organ
186.0,0.24,45,110,Electric Organ
186.0,0.24,45,110,Electric Organ
186.25,0.12,33,100,Electric Organ
186.25,0.0,36,92,Electric Organ
186.25,0.24,52,110,Electric Organ
186.25,0.24,52,110,Electric Organ
186.5,0.12,33,100,Electric Organ
186.5,0.0,38,99,Electric Organ
186.5,0.0,53,99,Electric Organ
186.75,0.12,33,100,Electric Organ
186.75,0.24,45,110,Electric Organ
186.75,0.24,45,110,Electric Organ
187.0,0.12,38,110,Electric Organ
187.0,0.0,53,99,Electric Organ
187.0,0.0,36,99,Electric Organ
187.0,0.24,52,110,Electric Organ
187.0,0.24,52,110,Electric Organ
187.25,0.24,37,100,Electric Organ
187.25,0.0,36,92,Electric Organ
187.5,0.0,38,99,Electric Organ
187.5,0.0,53,99,Electric Organ
187.5,0.12,45,110,Electric Organ
187.5,0.12,45,110,Electric Organ
187.75,0.31999999999999995,31,110,Electric Organ
187.75,0.0,36,92,Electric Organ
187.75,0.0,57,92,Electric Organ
187.75,0.31999999999999995,50,110,Electric Organ
187.75,0.31999999999999995,43,110,Electric Organ
187.75,0.31999999999999995,50,110,Electric Organ
187.75,0.31999999999999995,43,110,Electric Organ
188.25,0.0,36,92,Electric Organ
188.5,0.24,31,100,Electric Organ
188.5,0.0,38,99,Electric Organ
188.5,0.0,53,99,Electric Organ
188.5,0.12,43,95,Electric Organ
188.5,0.12,50,95,Electric Organ
188.5,0.12,43,95,Electric Organ
188.5,0.12,50,95,Electric Organ
188.75,0.12,50,95,Electric Organ
188.75,0.12,43,95,Electric Organ
188.75,0.12,50,95,Electric Organ
188.75,0.12,43,95,Electric Organ
189.0,0.12,30,100,Electric Organ
189.0,0.48,74,100,Electric Organ
189.0,0.48,74,100,Electric Organ
189.0,0.0,36,99,Electric Organ
189.0,0.0,53,99,Electric Organ
189.0,0.12,43,105,Electric Organ
189.0,0.12,50,105,Electric Organ
189.0,0.12,43,105,Electric Organ
189.0,0.12,50,105,Electric Organ
189.25,0.24,31,110,Electric Organ
189.25,0.0,36,92,Electric Organ
189.25,0.12,50,95,Electric Organ
189.25,0.12,43,95,Electric Organ
189.25,0.12,50,95,Electric Organ
189.25,0.12,43,95,Electric Organ
189.5,0.0,38,99,Electric Organ
189.5,0.0,53,99,Electric Organ
189.5,0.12,43,95,Electric Organ
189.5,0.12,50,95,Electric Organ
189.5,0.12,43,95,Electric Organ
189.5,0.12,50,95,Electric Organ
189.75,0.24,31,110,Electric Organ
189.75,0.0,36,92,Electric Organ
189.75,0.12,50,95,Electric Organ
189.75,0.12,43,95,Electric Organ
189.75,0.12,50,95,Electric Organ
189.75,0.12,43,95,Electric Organ
190.0,0.48,74,100,Electric Organ
190.0,0.48,74,100,Electric Organ
190.0,0.0,53,92,Electric Organ
190.0,0.12,43,105,Electric Organ
190.0,0.12,50,105,Electric Organ
190.0,0.12,43,105,Electric Organ
190.0,0.12,50,105,Electric Organ
190.25,0.12,31,100,Electric Organ
190.25,0.0,36,92,Electric Organ
190.25,0.12,50,95,Electric Organ
190.25,0.12,43,95,Electric Organ
190.25,0.12,50,95,Electric Organ
190.25,0.12,43,95,Electric Organ
190.5,0.12,31,100,Electric Organ
190.5,0.0,38,99,Electric Organ
190.5,0.0,53,99,Electric Organ
190.5,0.12,43,95,Electric Organ
190.5,0.12,50,95,Electric Organ
190.5,0.12,43,95,Electric Organ
190.5,0.12,50,95,Electric Organ
190.75,0.12,31,100,Electric Organ
190.75,0.12,50,95,Electric Organ
190.75,0.12,43,95,Electric Organ
190.75,0.12,50,95,Electric Organ
190.75,0.12,43,95,Electric Organ
191.0,0.12,38,110,Electric Organ
191.0,0.31999999999999995,71,100,Electric Organ
191.0,0.31999999999999995,71,100,Electric Organ
191.0,0.0,53,99,Electric Organ
191.0,0.0,36,99,Electric Organ
191.0,0.12,43,105,Electric Organ
191.0,0.12,50,105,Electric Organ
191.0,0.12,43,105,Electric Organ
191.0,0.12,50,105,Electric Organ
191.25,0.24,37,100,Electric Organ
191.25,0.0,36,92,Electric Organ
191.25,0.12,50,95,Electric Organ
191.25,0.12,43,95,Electric Organ
191.25,0.12,50,95,Electric Organ
191.25,0.12,43,95,Electric Organ
191.5,0.0,38,99,Electric Organ
191.5,0.0,53,99,Electric Organ
191.5,0.12,43,95,Electric Organ
191.5,0.12,50,95,Electric Organ
191.5,0.12,43,95,Electric Organ
191.5,0.12,50,95,Electric Organ
191.75,0.31999999999999995,33,110,Electric Organ
191.75,0.6,78,100,Electric Organ
191.75,0.6,78,100,Electric Organ
191.75,0.0,36,106,Electric Organ
191.75,0.31999999999999995,52,105,Electric Organ
191.75,0.31999999999999995,45,105,Electric Organ
191.75,0.31999999999999995,52,105,Electric Organ
191.75,0.31999999999999995,45,105,Electric Organ
192.0,0.0,53,92,Electric Organ
192.25,0.0,36,92,Electric Organ
192.5,0.24,33,100,Electric Organ
192.5,0.0,38,99,Electric Organ
192.5,0.0,53,99,Electric Organ
192.5,0.12,45,95,Electric Organ
192.5,0.12,52,95,Electric Organ
192.5,0.12,45,95,Electric Organ
192.5,0.12,52,95,Electric Organ
192.75,0.12,52,95,Electric Organ
192.75,0.12,45,95,Electric Organ
192.75,0.12,52,95,Electric Organ
192.75,0.12,45,95,Electric Organ
193.0,0.12,30,100,Electric Organ
193.0,0.24,76,100,Electric Organ
193.0,0.24,76,100,Electric Organ
193.0,0.0,36,99,Electric Organ
193.0,0.0,53,99,Electric Organ
193.0,0.12,45,105,Electric Organ
193.0,0.12,52,105,Electric Organ
193.0,0.12,45,105,Electric Organ
193.0,0.12,52,105,Electric Organ
193.25,0.24,33,110,Electric Organ
193.25,0.0,36,92,Electric Organ
193.25,0.12,52,95,Electric Organ
193.25,0.12,45,95,Electric Organ
193.25,0.12,52,95,Electric Organ
193.25,0.12,45,95,Electric Organ
193.5,0.24,76,100,Electric Organ
193.5,0.24,76,100,Electric Organ
193.5,0.0,38,99,Electric Organ
193.5,0.0,53,99,Electric Organ
193.5,0.12,45,95,Electric Organ
193.5,0.12,52,95,Electric Organ
193.5,0.12,45,95,Electric Organ
193.5,0.12,52,95,Electric Organ
193.75,0.24,33,110,Electric Organ
193.75,0.12,52,95,Electric Organ
193.75,0.12,45,95,Electric Organ
193.75,0.12,52,95,Electric Organ
193.75,0.12,45,95,Electric Organ
194.0,0.24,74,100,Electric Organ
194.0,0.24,74,100,Electric Organ
194.0,0.0,53,99,Electric Organ
194.0,0.0,36,99,Electric Organ
194.0,0.12,45,105,Electric Organ
194.0,0.12,52,105,Electric Organ
194.0,0.12,45,105,Electric Organ
194.0,0.12,52,105,Electric Organ
194.25,0.12,33,100,Electric Organ
194.25,0.12,52,95,Electric Organ
194.25,0.12,45,95,Electric Organ
194.25,0.12,52,95,Electric Organ
194.25,0.12,45,95,Electric Organ
194.5,0.12,33,100,Electric Organ
194.5,0.24,74,100,Electric Organ
194.5,0.24,74,100,Electric Organ
194.5,0.0,48,106,Electric Organ
194.5,0.12,45,95,Electric Organ
194.5,0.12,52,95,Electric Organ
194.5,0.12,45,95,Electric Organ
194.5,0.12,52,95,Electric Organ
194.75,0.12,33,100,Electric Organ
194.75,0.0,48,92,Electric Organ
194.75,0.12,52,95,Electric Organ
194.75,0.12,45,95,Electric Organ
194.75,0.12,52,95,Electric Organ
194.75,0.12,45,95,Electric Organ
195.0,0.12,33,110,Electric Organ
195.0,0.24,73,100,Electric Organ
195.0,0.24,73,100,Electric Organ
195.0,0.0,45,106,Electric Organ
195.0,0.12,45,110,Electric Organ
195.0,0.12,52,110,Electric Organ
195.0,0.12,45,110,Electric Organ
195.0,0.12,52,110,Electric Organ
195.25,0.12,32,100,Electric Organ
195.25,0.0,45,92,Electric Organ
195.25,0.12,44,110,Electric Organ
195.25,0.12,51,110,Electric Organ
195.25,0.12,44,110,Electric Organ
195.25,0.12,51,110,Electric Organ
195.5,0.12,73,100,Electric Organ
195.5,0.12,73,100,Electric Organ
195.5,0.0,41,92,Electric Organ
195.75,0.24,31,110,Electric Organ
195.75,0.96,71,100,Electric Organ
195.75,1.08,71,100,Electric Organ
195.75,0.0,36,92,Electric Organ
195.75,0.0,49,92,Electric Organ
195.75,0.96,50,110,Electric Organ
195.75,0.96,43,110,Electric Organ
195.75,0.96,50,110,Electric Organ
195.75,0.96,43,110,Electric Organ
196.25,0.12,31,100,Electric Organ
196.25,0.0,36,92,Electric Organ
196.5,0.24,31,100,Electric Organ
196.5,0.0,38,99,Electric Organ
196.5,0.0,53,99,Electric Organ
196.5,0.8,64,110,Electric Organ
196.5,0.8,64,110,Electric Organ
197.0,0.12,31,110,Electric Organ
197.0,0.0,36,99,Electric Organ
197.0,0.0,53,99,Electric Organ
197.0,0.6399999999999999,59,110,Electric Organ
197.0,0.6399999999999999,59,110,Electric Organ
197.25,0.12,31,100,Electric Organ
197.25,0.0,36,92,Electric Organ
197.25,0.0,53,92,Electric Organ
197.5,0.12,31,100,Electric Organ
197.5,0.0,38,106,Electric Organ
197.75,0.24,33,110,Electric Organ
197.75,0.96,73,100,Electric Organ
197.75,0.0,36,85,Electric Organ
197.75,0.0,57,85,Electric Organ
197.75,0.8,45,110,Electric Organ
197.75,0.8,52,110,Electric Organ
197.75,0.8,45,110,Electric Organ
197.75,0.8,52,110,Electric Organ
198.25,0.12,33,100,Electric Organ
198.25,0.0,36,92,Electric Organ
198.5,0.24,33,100,Electric Organ
198.5,0.0,38,99,Electric Organ
198.5,0.0,53,99,Electric Organ
198.5,0.6,64,110,Electric Organ
198.5,0.6,64,110,Electric Organ
199.0,0.12,33,110,Electric Organ
199.0,0.0,36,99,Electric Organ
199.0,0.0,53,99,Electric Organ
199.0,0.36,59,110,Electric Organ
199.0,0.36,59,110,Electric Organ
199.25,0.12,33,110,Electric Organ
199.25,0.0,36,92,Electric Organ
199.25,0.0,53,92,Electric Organ
199.5,0.12,33,110,Electric Organ
199.5,0.0,38,106,Electric Organ
199.75,0.15999999999999998,35,110,Electric Organ
199.75,0.12,74,100,Electric Organ
199.75,0.0,36,92,Electric Organ
199.75,0.0,46,92,Electric Organ
199.75,0.15999999999999998,47,110,Electric Organ
199.75,0.15999999999999998,54,110,Electric Organ
199.75,0.15999999999999998,47,110,Electric Organ
199.75,0.15999999999999998,54,110,Electric Organ
200.0,0.0,44,50,Electric Organ
200.5,0.0,44,78,Electric Organ
201.5,0.0,44,78,Electric Organ
202.5,0.0,44,78,Electric Organ
203.5,0.12,33,110,Electric Organ
203.5,0.12,73,100,Electric Organ
203.5,0.0,44,92,Electric Organ
203.5,0.0,38,92,Electric Organ
203.5,0.12,45,110,Electric Organ
203.5,0.12,52,110,Electric Organ
203.5,0.12,45,110,Electric Organ
203.5,0.12,52,110,Electric Organ
203.75,0.12,35,110,Electric Organ
203.75,0.12,74,100,Electric Organ
203.75,0.0,36,92,Electric Organ
203.75,0.0,46,92,Electric Organ
203.75,0.15999999999999998,54,110,Electric Organ
203.75,0.15999999999999998,47,110,Electric Organ
203.75,0.12,54,110,Electric Organ
203.75,0.12,47,110,Electric Organ
204.0,0.0,44,50,Electric Organ
204.5,0.0,44,78,Electric Organ
205.5,0.0,44,78,Electric Organ
206.5,0.0,48,100,Electric Organ
206.5,0.0,50,100,Electric Organ
206.5,0.0,44,78,Electric Organ
206.66666666666666,0.0,52,100,Electric Organ
206.66666666666666,0.0,54,100,Electric Organ
206.75,0.0,55,100,Electric Organ
207.0,0.0,57,100,Electric Organ
207.0,0.0,59,100,Electric Organ
207.0,0.0,60,100,Electric Organ
207.0,0.12,71,100,Electric Organ
207.25,0.0,62,100,Electric Organ
207.25,0.0,64,100,Electric Organ
207.25,0.12,71,100,Electric Organ
207.33333333333334,0.0,66,100,Electric Organ
207.5,0.0,67,100,Electric Organ
207.5,0.0,69,100,Electric Organ
207.5,0.0,44,78,Electric Organ
207.66666666666666,0.0,71,100,Electric Organ
207.75,1.92,71,97,Electric Organ
207.75,1.92,74,97,Electric Organ
207.75,1.92,78,97,Electric Organ
207.75,0.31999999999999995,35,110,Electric Organ
207.75,1.56,78,100,Electric Organ
207.75,0.0,36,92,Electric Organ
207.75,0.0,49,92,Electric Organ
207.75,0.31999999999999995,47,110,Electric Organ
207.75,0.31999999999999995,54,110,Electric Organ
207.75,0.31999999999999995,47,110,Electric Organ
207.75,0.31999999999999995,54,110,Electric Organ
208.25,0.0,36,92,Electric Organ
208.5,0.24,35,100,Electric Organ
208.5,0.0,38,85,Electric Organ
208.5,0.0,42,85,Electric Organ
208.5,0.12,47,95,Electric Organ
208.5,0.12,54,95,Electric Organ
208.5,0.12,47,95,Electric Organ
208.5,0.12,54,95,Electric Organ
208.75,0.12,54,95,Electric Organ
208.75,0.12,47,95,Electric Organ
208.75,0.12,54,95,Electric Organ
208.75,0.12,47,95,Electric Organ
209.0,0.12,30,100,Electric Organ
209.0,0.0,36,92,Electric Organ
209.0,0.0,42,92,Electric Organ
209.0,0.12,47,105,Electric Organ
209.0,0.12,54,105,Electric Organ
209.0,0.12,47,105,Electric Organ
209.0,0.12,54,105,Electric Organ
209.25,0.31999999999999995,33,110,Electric Organ
209.25,0.0,36,92,Electric Organ
209.25,0.12,54,95,Electric Organ
209.25,0.12,47,95,Electric Organ
209.25,0.12,54,95,Electric Organ
209.25,0.12,47,95,Electric Organ
209.5,0.0,38,85,Electric Organ
209.5,0.0,42,85,Electric Organ
209.5,0.12,47,95,Electric Organ
209.5,0.12,54,95,Electric Organ
209.5,0.12,47,95,Electric Organ
209.5,0.12,54,95,Electric Organ
209.75,0.12,54,95,Electric Organ
209.75,0.12,47,95,Electric Organ
209.75,0.12,54,95,Electric Organ
209.75,0.12,47,95,Electric Organ
210.0,0.24,33,110,Electric Organ
210.0,0.0,36,92,Electric Organ
210.0,0.0,42,92,Electric Organ
210.0,0.12,47,105,Electric Organ
210.0,0.12,54,105,Electric Organ
210.0,0.12,47,105,Electric Organ
210.0,0.12,54,105,Electric Organ
210.25,0.12,54,95,Electric Organ
210.25,0.12,47,95,Electric Organ
210.25,0.12,54,95,Electric Organ
210.25,0.12,47,95,Electric Organ
210.5,0.12,35,100,Electric Organ
210.5,0.0,38,85,Electric Organ
210.5,0.0,42,85,Electric Organ
210.5,0.12,47,95,Electric Organ
210.5,0.12,54,95,Electric Organ
210.5,0.12,47,95,Electric Organ
210.5,0.12,54,95,Electric Organ
210.75,0.12,35,100,Electric Organ
210.75,0.0,36,92,Electric Organ
210.75,0.12,54,95,Electric Organ
210.75,0.12,47,95,Electric Organ
210.75,0.12,54,95,Electric Organ
210.75,0.12,47,95,Electric Organ
211.0,0.12,38,110,Electric Organ
211.0,0.24,76,100,Electric Organ
211.0,0.0,42,78,Electric Organ
211.0,0.12,47,105,Electric Organ
211.0,0.12,54,105,Electric Organ
211.0,0.12,47,105,Electric Organ
211.0,0.12,54,105,Electric Organ
211.25,0.24,37,100,Electric Organ
211.25,0.0,36,92,Electric Organ
211.25,0.12,54,95,Electric Organ
211.25,0.12,47,95,Electric Organ
211.25,0.12,54,95,Electric Organ
211.25,0.12,47,95,Electric Organ
211.5,0.12,74,100,Electric Organ
211.5,0.0,38,85,Electric Organ
211.5,0.0,42,85,Electric Organ
211.5,0.12,47,95,Electric Organ
211.5,0.12,54,95,Electric Organ
211.5,0.12,47,95,Electric Organ
211.5,0.12,54,95,Electric Organ
211.75,1.92,69,97,Electric Organ
211.75,1.92,73,97,Electric Organ
211.75,1.92,76,97,Electric Organ
211.75,0.31999999999999995,33,110,Electric Organ
211.75,0.31999999999999995,76,100,Electric Organ
211.75,0.0,46,99,Electric Organ
211.75,0.0,36,99,Electric Organ
211.75,0.31999999999999995,52,105,Electric Organ
211.75,0.31999999999999995,45,105,Electric Organ
211.75,0.31999999999999995,52,105,Electric Organ
211.75,0.31999999999999995,45,105,Electric Organ
212.0,0.0,44,50,Electric Organ
212.25,0.0,36,92,Electric Organ
212.5,0.24,33,100,Electric Organ
212.5,0.48,73,100,Electric Organ
212.5,0.0,38,85,Electric Organ
212.5,0.0,42,85,Electric Organ
212.5,0.12,45,95,Electric Organ
212.5,0.12,52,95,Electric Organ
212.5,0.12,45,95,Electric Organ
212.5,0.12,52,95,Electric Organ
212.75,0.12,52,95,Electric Organ
212.75,0.12,45,95,Electric Organ
212.75,0.12,52,95,Electric Organ
212.75,0.12,45,95,Electric Organ
213.0,0.12,28,100,Electric Organ
213.0,0.0,36,92,Electric Organ
213.0,0.0,42,92,Electric Organ
213.0,0.12,45,105,Electric Organ
213.0,0.12,52,105,Electric Organ
213.0,0.12,45,105,Electric Organ
213.0,0.12,52,105,Electric Organ
213.25,0.31999999999999995,33,110,Electric Organ
213.25,0.0,36,92,Electric Organ
213.25,0.12,52,95,Electric Organ
213.25,0.12,45,95,Electric Organ
213.25,0.12,52,95,Electric Organ
213.25,0.12,45,95,Electric Organ
213.5,0.0,38,85,Electric Organ
213.5,0.0,42,85,Electric Organ
213.5,0.12,45,95,Electric Organ
213.5,0.12,52,95,Electric Organ
213.5,0.12,45,95,Electric Organ
213.5,0.12,52,95,Electric Organ
213.75,0.12,52,95,Electric Organ
213.75,0.12,45,95,Electric Organ
213.75,0.12,52,95,Electric Organ
213.75,0.12,45,95,Electric Organ
214.0,0.24,33,110,Electric Organ
214.0,0.0,36,92,Electric Organ
214.0,0.0,42,92,Electric Organ
214.0,0.24,45,110,Electric Organ
214.0,0.24,45,110,Electric Organ
214.25,0.24,52,110,Electric Organ
214.25,0.24,52,110,Electric Organ
214.5,0.12,35,100,Electric Organ
214.5,0.0,38,85,Electric Organ
214.5,0.0,42,85,Electric Organ
214.75,0.12,35,100,Electric Organ
214.75,0.0,36,92,Electric Organ
214.75,0.24,45,110,Electric Organ
214.75,0.24,45,110,Electric Organ
215.0,0.12,38,110,Electric Organ
215.0,0.12,71,100,Electric Organ
215.0,0.0,42,78,Electric Organ
215.0,0.24,52,110,Electric Organ
215.0,0.24,52,110,Electric Organ
215.25,0.24,37,100,Electric Organ
215.25,0.12,71,100,Electric Organ
215.25,0.0,36,92,Electric Organ
215.5,0.0,38,85,Electric Organ
215.5,0.0,42,85,Electric Organ
215.5,0.12,45,110,Electric Organ
215.5,0.12,45,110,Electric Organ
215.75,1.92,67,97,Electric Organ
215.75,1.92,71,97,Electric Organ
215.75,1.92,74,97,Electric Organ
215.75,0.31999999999999995,31,110,Electric Organ
215.75,0.31999999999999995,74,100,Electric Organ
215.75,0.0,46,99,Electric Organ
215.75,0.0,36,99,Electric Organ
215.75,0.31999999999999995,50,110,Electric Organ
215.75,0.31999999999999995,43,110,Electric Organ
215.75,0.31999999999999995,50,110,Electric Organ
215.75,0.31999999999999995,43,110,Electric Organ
216.0,0.0,44,50,Electric Organ
216.25,0.0,36,92,Electric Organ
216.5,0.24,31,100,Electric Organ
216.5,0.0,38,85,Electric Organ
216.5,0.0,42,85,Electric Organ
216.5,0.12,43,95,Electric Organ
216.5,0.12,50,95,Electric Organ
216.5,0.12,43,95,Electric Organ
216.5,0.12,50,95,Electric Organ
216.75,0.12,50,95,Electric Organ
216.75,0.12,43,95,Electric Organ
216.75,0.12,50,95,Electric Organ
216.75,0.12,43,95,Electric Organ
217.0,0.12,30,100,Electric Organ
217.0,0.24,71,100,Electric Organ
217.0,0.0,36,92,Electric Organ
217.0,0.0,42,92,Electric Organ
217.0,0.12,43,105,Electric Organ
217.0,0.12,50,105,Electric Organ
217.0,0.12,43,105,Electric Organ
217.0,0.12,50,105,Electric Organ
217.25,0.31999999999999995,31,110,Electric Organ
217.25,0.0,36,92,Electric Organ
217.25,0.12,50,95,Electric Organ
217.25,0.12,43,95,Electric Organ
217.25,0.12,50,95,Electric Organ
217.25,0.12,43,95,Electric Organ
217.5,0.0,38,85,Electric Organ
217.5,0.0,42,85,Electric Organ
217.5,0.12,43,95,Electric Organ
217.5,0.12,50,95,Electric Organ
217.5,0.12,43,95,Electric Organ
217.5,0.12,50,95,Electric Organ
217.75,0.12,50,95,Electric Organ
217.75,0.12,43,95,Electric Organ
217.75,0.12,50,95,Electric Organ
217.75,0.12,43,95,Electric Organ
218.0,0.24,33,110,Electric Organ
218.0,0.24,74,100,Electric Organ
218.0,0.0,36,92,Electric Organ
218.0,0.0,42,92,Electric Organ
218.0,0.12,43,105,Electric Organ
218.0,0.12,50,105,Electric Organ
218.0,0.12,43,105,Electric Organ
218.0,0.12,50,105,Electric Organ
218.25,0.12,50,95,Electric Organ
218.25,0.12,43,95,Electric Organ
218.25,0.12,50,95,Electric Organ
218.25,0.12,43,95,Electric Organ
218.5,0.12,35,100,Electric Organ
218.5,0.0,38,85,Electric Organ
218.5,0.0,42,85,Electric Organ
218.5,0.12,43,95,Electric Organ
218.5,0.12,50,95,Electric Organ
218.5,0.12,43,95,Electric Organ
218.5,0.12,50,95,Electric Organ
218.75,0.12,35,100,Electric Organ
218.75,0.0,36,92,Electric Organ
218.75,0.12,50,95,Electric Organ
218.75,0.12,43,95,Electric Organ
218.75,0.12,50,95,Electric Organ
218.75,0.12,43,95,Electric Organ
219.0,0.12,38,110,Electric Organ
219.0,0.31999999999999995,78,100,Electric Organ
219.0,0.0,42,78,Electric Organ
219.0,0.12,43,105,Electric Organ
219.0,0.12,50,105,Electric Organ
219.0,0.12,43,105,Electric Organ
219.0,0.12,50,105,Electric Organ
219.25,0.24,37,100,Electric Organ
219.25,0.0,36,92,Electric Organ
219.25,0.12,50,95,Electric Organ
219.25,0.12,43,95,Electric Organ
219.25,0.12,50,95,Electric Organ
219.25,0.12,43,95,Electric Organ
219.5,0.0,38,85,Electric Organ
219.5,0.0,42,85,Electric Organ
219.5,0.12,43,95,Electric Organ
219.5,0.12,50,95,Electric Organ
219.5,0.12,43,95,Electric Organ
219.5,0.12,50,95,Electric Organ
219.75,1.92,69,97,Electric Organ
219.75,1.92,73,97,Electric Organ
219.75,1.92,76,97,Electric Organ
219.75,0.31999999999999995,33,110,Electric Organ
219.75,0.31999999999999995,76,100,Electric Organ
219.75,0.0,46,99,Electric Organ
219.75,0.0,36,99,Electric Organ
219.75,0.31999999999999995,52,105,Electric Organ
219.75,0.31999999999999995,45,105,Electric Organ
219.75,0.31999999999999995,52,105,Electric Organ
219.75,0.31999999999999995,45,105,Electric Organ
220.0,0.0,44,50,Electric Organ
220.25,0.0,36,92,Electric Organ
220.5,0.24,33,100,Electric Organ
220.5,0.96,78,100,Electric Organ
220.5,0.0,38,85,Electric Organ
220.5,0.0,42,85,Electric Organ
220.5,0.12,45,95,Electric Organ
220.5,0.12,52,95,Electric Organ
220.5,0.12,45,95,Electric Organ
220.5,0.12,52,95,Electric Organ
220.75,0.12,52,95,Electric Organ
220.75,0.12,45,95,Electric Organ
220.75,0.12,52,95,Electric Organ
220.75,0.12,45,95,Electric Organ
221.0,0.12,28,100,Electric Organ
221.0,0.0,36,92,Electric Organ
221.0,0.0,42,92,Electric Organ
221.0,0.12,45,105,Electric Organ
221.0,0.12,52,105,Electric Organ
221.0,0.12,45,105,Electric Organ
221.0,0.12,52,105,Electric Organ
221.25,0.31999999999999995,33,110,Electric Organ
221.25,0.0,36,92,Electric Organ
221.25,0.12,52,95,Electric Organ
221.25,0.12,45,95,Electric Organ
221.25,0.12,52,95,Electric Organ
221.25,0.12,45,95,Electric Organ
221.5,0.0,38,85,Electric Organ
221.5,0.0,42,85,Electric Organ
221.5,0.12,45,95,Electric Organ
221.5,0.12,52,95,Electric Organ
221.5,0.12,45,95,Electric Organ
221.5,0.12,52,95,Electric Organ
221.75,0.12,52,95,Electric Organ
221.75,0.12,45,95,Electric Organ
221.75,0.12,52,95,Electric Organ
221.75,0.12,45,95,Electric Organ
222.0,0.24,33,110,Electric Organ
222.0,0.0,36,92,Electric Organ
222.0,0.0,42,92,Electric Organ
222.0,0.24,45,110,Electric Organ
222.0,0.24,45,110,Electric Organ
222.25,0.24,52,110,Electric Organ
222.25,0.24,52,110,Electric Organ
222.5,0.12,35,100,Electric Organ
222.5,0.0,38,85,Electric Organ
222.5,0.0,42,85,Electric Organ
222.75,0.12,35,100,Electric Organ
222.75,0.0,36,92,Electric Organ
222.75,0.24,45,110,Electric Organ
222.75,0.24,45,110,Electric Organ
223.0,0.12,40,110,Electric Organ
223.0,0.12,71,100,Electric Organ
223.0,0.0,42,78,Electric Organ
223.0,0.24,52,110,Electric Organ
223.0,0.24,52,110,Electric Organ
223.25,0.24,38,100,Electric Organ
223.25,0.12,71,100,Electric Organ
223.25,0.0,36,92,Electric Organ
223.5,0.0,38,85,Electric Organ
223.5,0.0,42,85,Electric Organ
223.5,0.12,45,110,Electric Organ
223.5,0.12,45,110,Electric Organ
223.75,1.92,71,97,Electric Organ
223.75,1.92,74,97,Electric Organ
223.75,1.92,78,97,Electric Organ
223.75,0.31999999999999995,35,110,Electric Organ
223.75,1.56,78,100,Electric Organ
223.75,0.0,36,92,Electric Organ
223.75,0.0,49,92,Electric Organ
223.75,0.31999999999999995,54,110,Electric Organ
223.75,0.31999999999999995,47,110,Electric Organ
223.75,0.31999999999999995,54,110,Electric Organ
223.75,0.31999999999999995,47,110,Electric Organ
224.25,0.0,36,92,Electric Organ
224.5,0.24,35,100,Electric Organ
224.5,0.0,38,85,Electric Organ
224.5,0.0,42,85,Electric Organ
224.5,0.12,47,95,Electric Organ
224.5,0.12,54,95,Electric Organ
224.5,0.12,47,95,Electric Organ
224.5,0.12,54,95,Electric Organ
224.75,0.12,54,95,Electric Organ
224.75,0.12,47,95,Electric Organ
224.75,0.12,54,95,Electric Organ
224.75,0.12,47,95,Electric Organ
225.0,0.12,30,100,Electric Organ
225.0,0.0,36,92,Electric Organ
225.0,0.0,42,92,Electric Organ
225.0,0.12,47,105,Electric Organ
225.0,0.12,54,105,Electric Organ
225.0,0.12,47,105,Electric Organ
225.0,0.12,54,105,Electric Organ
225.25,0.31999999999999995,33,110,Electric Organ
225.25,0.0,36,92,Electric Organ
225.25,0.12,54,95,Electric Organ
225.25,0.12,47,95,Electric Organ
225.25,0.12,54,95,Electric Organ
225.25,0.12,47,95,Electric Organ
225.5,0.0,38,85,Electric Organ
225.5,0.0,42,85,Electric Organ
225.5,0.12,47,95,Electric Organ
225.5,0.12,54,95,Electric Organ
225.5,0.12,47,95,Electric Organ
225.5,0.12,54,95,Electric Organ
225.75,0.12,54,95,Electric Organ
225.75,0.12,47,95,Electric Organ
225.75,0.12,54,95,Electric Organ
225.75,0.12,47,95,Electric Organ
226.0,0.24,33,110,Electric Organ
226.0,0.0,36,92,Electric Organ
226.0,0.0,42,92,Electric Organ
226.0,0.12,47,105,Electric Organ
226.0,0.12,54,105,Electric Organ
226.0,0.12,47,105,Electric Organ
226.0,0.12,54,105,Electric Organ
226.25,0.12,54,95,Electric Organ
226.25,0.12,47,95,Electric Organ
226.25,0.12,54,95,Electric Organ
226.25,0.12,47,95,Electric Organ
226.5,0.12,35,100,Electric Organ
226.5,0.0,38,85,Electric Organ
226.5,0.0,42,85,Electric Organ
226.5,0.12,47,95,Electric Organ
226.5,0.12,54,95,Electric Organ
226.5,0.12,47,95,Electric Organ
226.5,0.12,54,95,Electric Organ
226.75,0.12,35,100,Electric Organ
226.75,0.0,36,92,Electric Organ
226.75,0.12,54,95,Electric Organ
226.75,0.12,47,95,Electric Organ
226.75,0.12,54,95,Electric Organ
226.75,0.12,47,95,Electric Organ
227.0,0.12,38,110,Electric Organ
227.0,0.24,76,100,Electric Organ
227.0,0.0,42,78,Electric Organ
227.0,0.12,47,105,Electric Organ
227.0,0.12,54,105,Electric Organ
227.0,0.12,47,105,Electric Organ
227.0,0.12,54,105,Electric Organ
227.25,0.24,37,100,Electric Organ
227.25,0.0,36,92,Electric Organ
227.25,0.12,54,95,Electric Organ
227.25,0.12,47,95,Electric Organ
227.25,0.12,54,95,Electric Organ
227.25,0.12,47,95,Electric Organ
227.5,0.12,74,100,Electric Organ
227.5,0.0,38,85,Electric Organ
227.5,0.0,42,85,Electric Organ
227.5,0.12,47,95,Electric Organ
227.5,0.12,54,95,Electric Organ
227.5,0.12,47,95,Electric Organ
227.5,0.12,54,95,Electric Organ
227.75,1.92,69,97,Electric Organ
227.75,1.92,73,97,Electric Organ
227.75,1.92,76,97,Electric Organ
227.75,0.31999999999999995,33,110,Electric Organ
227.75,0.31999999999999995,76,100,Electric Organ
227.75,0.0,46,99,Electric Organ
227.75,0.0,36,99,Electric Organ
227.75,0.31999999999999995,52,105,Electric Organ
227.75,0.31999999999999995,45,105,Electric Organ
227.75,0.31999999999999995,52,105,Electric Organ
227.75,0.31999999999999995,45,105,Electric Organ
228.0,0.0,44,50,Electric Organ
228.25,0.0,36,92,Electric Organ
228.5,0.24,33,100,Electric Organ
228.5,0.48,73,100,Electric Organ
228.5,0.0,38,85,Electric Organ
228.5,0.0,42,85,Electric Organ
228.5,0.12,45,95,Electric Organ
228.5,0.12,52,95,Electric Organ
228.5,0.12,45,95,Electric Organ
228.5,0.12,52,95,Electric Organ
228.75,0.12,52,95,Electric Organ
228.75,0.12,45,95,Electric Organ
228.75,0.12,52,95,Electric Organ
228.75,0.12,45,95,Electric Organ
229.0,0.12,28,100,Electric Organ
229.0,0.0,36,92,Electric Organ
229.0,0.0,42,92,Electric Organ
229.0,0.12,45,105,Electric Organ
229.0,0.12,52,105,Electric Organ
229.0,0.12,45,105,Electric Organ
229.0,0.12,52,105,Electric Organ
229.25,0.31999999999999995,33,110,Electric Organ
229.25,0.0,36,92,Electric Organ
229.25,0.12,52,95,Electric Organ
229.25,0.12,45,95,Electric Organ
229.25,0.12,52,95,Electric Organ
229.25,0.12,45,95,Electric Organ
229.5,0.0,38,85,Electric Organ
229.5,0.0,42,85,Electric Organ
229.5,0.12,45,95,Electric Organ
229.5,0.12,52,95,Electric Organ
229.5,0.12,45,95,Electric Organ
229.5,0.12,52,95,Electric Organ
229.75,0.12,52,95,Electric Organ
229.75,0.12,45,95,Electric Organ
229.75,0.12,52,95,Electric Organ
229.75,0.12,45,95,Electric Organ
230.0,0.24,33,110,Electric Organ
230.0,0.0,36,92,Electric Organ
230.0,0.0,42,92,Electric Organ
230.0,0.24,45,110,Electric Organ
230.0,0.24,45,110,Electric Organ
230.25,0.24,52,110,Electric Organ
230.25,0.24,52,110,Electric Organ
230.5,0.12,35,100,Electric Organ
230.5,0.0,38,85,Electric Organ
230.5,0.0,42,85,Electric Organ
230.75,0.12,35,100,Electric Organ
230.75,0.0,36,92,Electric Organ
230.75,0.24,45,110,Electric Organ
230.75,0.24,45,110,Electric Organ
231.0,0.12,38,110,Electric Organ
231.0,0.12,71,100,Electric Organ
231.0,0.0,42,78,Electric Organ
231.0,0.24,52,110,Electric Organ
231.0,0.24,52,110,Electric Organ
231.25,0.24,37,100,Electric Organ
231.25,0.12,71,100,Electric Organ
231.25,0.0,36,92,Electric Organ
231.5,0.0,38,85,Electric Organ
231.5,0.0,42,85,Electric Organ
231.5,0.12,45,110,Electric Organ
231.5,0.12,45,110,Electric Organ
231.75,1.92,67,97,Electric Organ
231.75,1.92,71,97,Electric Organ
231.75,1.92,74,97,Electric Organ
231.75,0.31999999999999995,31,110,Electric Organ
231.75,0.31999999999999995,74,100,Electric Organ
231.75,0.0,46,99,Electric Organ
231.75,0.0,36,99,Electric Organ
231.75,0.31999999999999995,50,110,Electric Organ
231.75,0.31999999999999995,43,110,Electric Organ
231.75,0.31999999999999995,50,110,Electric Organ
231.75,0.31999999999999995,43,110,Electric Organ
232.0,0.0,44,50,Electric Organ
232.25,0.0,36,92,Electric Organ
232.5,0.24,31,100,Electric Organ
232.5,0.0,38,85,Electric Organ
232.5,0.0,42,85,Electric Organ
232.5,0.12,43,95,Electric Organ
232.5,0.12,50,95,Electric Organ
232.5,0.12,43,95,Electric Organ
232.5,0.12,50,95,Electric Organ
232.75,0.12,50,95,Electric Organ
232.75,0.12,43,95,Electric Organ
232.75,0.12,50,95,Electric Organ
232.75,0.12,43,95,Electric Organ
233.0,0.12,30,100,Electric Organ
233.0,0.24,71,100,Electric Organ
233.0,0.0,36,92,Electric Organ
233.0,0.0,42,92,Electric Organ
233.0,0.12,43,105,Electric Organ
233.0,0.12,50,105,Electric Organ
233.0,0.12,43,105,Electric Organ
233.0,0.12,50,105,Electric Organ
233.25,0.31999999999999995,31,110,Electric Organ
233.25,0.0,36,92,Electric Organ
233.25,0.12,50,95,Electric Organ
233.25,0.12,43,95,Electric Organ
233.25,0.12,50,95,Electric Organ
233.25,0.12,43,95,Electric Organ
233.5,0.0,38,85,Electric Organ
233.5,0.0,42,85,Electric Organ
233.5,0.12,43,95,Electric Organ
233.5,0.12,50,95,Electric Organ
233.5,0.12,43,95,Electric Organ
233.5,0.12,50,95,Electric Organ
233.75,0.12,50,95,Electric Organ
233.75,0.12,43,95,Electric Organ
233.75,0.12,50,95,Electric Organ
233.75,0.12,43,95,Electric Organ
234.0,0.24,33,110,Electric Organ
234.0,0.24,74,100,Electric Organ
234.0,0.0,36,92,Electric Organ
234.0,0.0,42,92,Electric Organ
234.0,0.12,43,105,Electric Organ
234.0,0.12,50,105,Electric Organ
234.0,0.12,43,105,Electric Organ
234.0,0.12,50,105,Electric Organ
234.25,0.12,50,95,Electric Organ
234.25,0.12,43,95,Electric Organ
234.25,0.12,50,95,Electric Organ
234.25,0.12,43,95,Electric Organ
234.5,0.12,35,100,Electric Organ
234.5,0.0,38,85,Electric Organ
234.5,0.0,42,85,Electric Organ
234.5,0.12,43,95,Electric Organ
234.5,0.12,50,95,Electric Organ
234.5,0.12,43,95,Electric Organ
234.5,0.12,50,95,Electric Organ
234.75,0.12,35,100,Electric Organ
234.75,0.0,36,92,Electric Organ
234.75,0.12,50,95,Electric Organ
234.75,0.12,43,95,Electric Organ
234.75,0.12,50,95,Electric Organ
234.75,0.12,43,95,Electric Organ
235.0,0.12,38,110,Electric Organ
235.0,0.31999999999999995,78,100,Electric Organ
235.0,0.0,42,78,Electric Organ
235.0,0.12,43,105,Electric Organ
235.0,0.12,50,105,Electric Organ
235.0,0.12,43,105,Electric Organ
235.0,0.12,50,105,Electric Organ
235.25,0.24,37,100,Electric Organ
235.25,0.0,36,92,Electric Organ
235.25,0.12,50,95,Electric Organ
235.25,0.12,43,95,Electric Organ
235.25,0.12,50,95,Electric Organ
235.25,0.12,43,95,Electric Organ
235.5,0.0,38,85,Electric Organ
235.5,0.0,42,85,Electric Organ
235.5,0.12,43,95,Electric Organ
235.5,0.12,50,95,Electric Organ
235.5,0.12,43,95,Electric Organ
235.5,0.12,50,95,Electric Organ
235.75,1.56,69,97,Electric Organ
235.75,1.56,73,97,Electric Organ
235.75,1.56,76,97,Electric Organ
235.75,0.31999999999999995,33,110,Electric Organ
235.75,0.31999999999999995,76,100,Electric Organ
235.75,0.0,36,92,Electric Organ
235.75,0.0,57,92,Electric Organ
235.75,0.31999999999999995,52,105,Electric Organ
235.75,0.31999999999999995,45,105,Electric Organ
235.75,0.31999999999999995,52,105,Electric Organ
235.75,0.31999999999999995,45,105,Electric Organ
236.0,0.0,42,78,Electric Organ
236.25,0.0,36,92,Electric Organ
236.5,0.24,33,100,Electric Organ
236.5,1.44,78,100,Electric Organ
236.5,0.0,38,85,Electric Organ
236.5,0.0,42,85,Electric Organ
236.5,0.12,45,95,Electric Organ
236.5,0.12,52,95,Electric Organ
236.5,0.12,45,95,Electric Organ
236.5,0.12,52,95,Electric Organ
236.75,0.12,52,95,Electric Organ
236.75,0.12,45,95,Electric Organ
236.75,0.12,52,95,Electric Organ
236.75,0.12,45,95,Electric Organ
237.0,0.12,30,100,Electric Organ
237.0,0.0,36,92,Electric Organ
237.0,0.0,42,92,Electric Organ
237.0,0.12,45,105,Electric Organ
237.0,0.12,52,105,Electric Organ
237.0,0.12,45,105,Electric Organ
237.0,0.12,52,105,Electric Organ
237.25,0.31999999999999995,33,110,Electric Organ
237.25,0.0,36,92,Electric Organ
237.25,0.12,52,95,Electric Organ
237.25,0.12,45,95,Electric Organ
237.25,0.12,52,95,Electric Organ
237.25,0.12,45,95,Electric Organ
237.5,0.0,38,85,Electric Organ
237.5,0.0,42,85,Electric Organ
237.5,0.12,45,95,Electric Organ
237.5,0.12,52,95,Electric Organ
237.5,0.12,45,95,Electric Organ
237.5,0.12,52,95,Electric Organ
237.75,0.12,52,95,Electric Organ
237.75,0.12,45,95,Electric Organ
237.75,0.12,52,95,Electric Organ
237.75,0.12,45,95,Electric Organ
238.0,0.24,33,110,Electric Organ
238.0,0.0,36,92,Electric Organ
238.0,0.0,42,92,Electric Organ
238.0,0.12,45,105,Electric Organ
238.0,0.12,52,105,Electric Organ
238.0,0.12,45,105,Electric Organ
238.0,0.12,52,105,Electric Organ
238.25,0.12,52,95,Electric Organ
238.25,0.12,45,95,Electric Organ
238.25,0.12,52,95,Electric Organ
238.25,0.12,45,95,Electric Organ
238.5,0.12,35,110,Electric Organ
238.5,0.0,38,92,Electric Organ
238.5,0.0,46,92,Electric Organ
238.5,0.12,45,95,Electric Organ
238.5,0.12,52,95,Electric Organ
238.5,0.12,45,95,Electric Organ
238.5,0.12,52,95,Electric Organ
238.75,0.12,52,95,Electric Organ
238.75,0.12,45,95,Electric Organ
238.75,0.12,52,95,Electric Organ
238.75,0.12,45,95,Electric Organ
239.0,0.12,69,97,Electric Organ
239.0,0.12,73,97,Electric Organ
239.0,0.12,76,97,Electric Organ
239.0,0.12,33,110,Electric Organ
239.0,0.0,38,106,Electric Organ
239.0,0.12,45,110,Electric Organ
239.0,0.12,52,110,Electric Organ
239.0,0.12,45,110,Electric Organ
239.0,0.12,52,110,Electric Organ
239.25,0.12,69,97,Electric Organ
239.25,0.12,73,97,Electric Organ
239.25,0.12,75,97,Electric Organ
239.25,0.12,32,100,Electric Organ
239.25,0.0,38,106,Electric Organ
239.25,0.12,44,110,Electric Organ
239.25,0.12,51,110,Electric Organ
239.25,0.12,44,110,Electric Organ
239.25,0.12,51,110,Electric Organ
239.75,1.92,67,97,Electric Organ
239.75,1.92,71,97,Electric Organ
239.75,1.92,74,97,Electric Organ
239.75,0.24,31,110,Electric Organ
239.75,0.0,36,92,Electric Organ
239.75,0.0,49,92,Electric Organ
239.75,1.92,50,110,Electric Organ
239.75,1.92,43,110,Electric Organ
239.75,1.92,50,110,Electric Organ
239.75,1.92,43,110,Electric Organ
240.25,0.12,31,100,Electric Organ
240.25,0.0,36,92,Electric Organ
240.5,0.24,31,100,Electric Organ
240.5,0.0,38,85,Electric Organ
240.5,0.0,42,85,Electric Organ
241.0,0.12,31,110,Electric Organ
241.0,0.0,36,92,Electric Organ
241.0,0.0,42,92,Electric Organ
241.25,0.12,31,100,Electric Organ
241.25,0.0,36,92,Electric Organ
241.5,0.24,31,100,Electric Organ
241.5,0.12,71,100,Electric Organ
241.5,0.0,38,85,Electric Organ
241.5,0.0,42,85,Electric Organ
242.0,0.24,31,110,Electric Organ
242.0,0.24,74,100,Electric Organ
242.0,0.0,36,92,Electric Organ
242.0,0.0,42,92,Electric Organ
242.5,0.12,31,100,Electric Organ
242.5,0.12,71,100,Electric Organ
242.5,0.0,38,85,Electric Organ
242.5,0.0,42,85,Electric Organ
242.75,0.12,31,100,Electric Organ
242.75,0.0,36,92,Electric Organ
243.0,0.12,31,110,Electric Organ
243.0,0.24,74,100,Electric Organ
243.0,0.0,42,78,Electric Organ
243.25,0.12,31,100,Electric Organ
243.25,0.0,36,92,Electric Organ
243.5,0.12,31,100,Electric Organ
243.5,0.12,71,100,Electric Organ
243.5,0.0,38,85,Electric Organ
243.5,0.0,42,85,Electric Organ
243.75,1.92,67,97,Electric Organ
243.75,1.92,71,97,Electric Organ
243.75,1.92,74,97,Electric Organ
243.75,0.24,31,110,Electric Organ
243.75,1.08,67,97,Electric Organ
243.75,1.08,71,97,Electric Organ
243.75,1.08,78,97,Electric Organ
243.75,0.31999999999999995,74,100,Electric Organ
243.75,0.0,36,106,Electric Organ
243.75,0.31999999999999995,43,105,Electric Organ
243.75,0.31999999999999995,50,105,Electric Organ
243.75,0.31999999999999995,43,105,Electric Organ
243.75,0.31999999999999995,50,105,Electric Organ
244.0,0.0,42,78,Electric Organ
244.25,0.12,31,100,Electric Organ
244.25,0.0,36,92,Electric Organ
244.5,0.24,31,100,Electric Organ
244.5,0.96,78,100,Electric Organ
244.5,0.0,38,85,Electric Organ
244.5,0.0,42,85,Electric Organ
244.5,0.12,43,95,Electric Organ
244.5,0.12,50,95,Electric Organ
244.5,0.12,43,95,Electric Organ
244.5,0.12,50,95,Electric Organ
244.75,0.12,50,95,Electric Organ
244.75,0.12,43,95,Electric Organ
244.75,0.12,50,95,Electric Organ
244.75,0.12,43,95,Electric Organ
245.0,0.12,31,110,Electric Organ
245.0,0.0,36,92,Electric Organ
245.0,0.0,42,92,Electric Organ
245.0,0.12,43,105,Electric Organ
245.0,0.12,50,105,Electric Organ
245.0,0.12,43,105,Electric Organ
245.0,0.12,50,105,Electric Organ
245.25,0.12,31,100,Electric Organ
245.25,0.0,36,92,Electric Organ
245.25,0.12,50,95,Electric Organ
245.25,0.12,43,95,Electric Organ
245.25,0.12,50,95,Electric Organ
245.25,0.12,43,95,Electric Organ
245.5,0.24,31,100,Electric Organ
245.5,0.0,38,85,Electric Organ
245.5,0.0,42,85,Electric Organ
245.5,0.12,43,95,Electric Organ
245.5,0.12,50,95,Electric Organ
245.5,0.12,43,95,Electric Organ
245.5,0.12,50,95,Electric Organ
245.75,0.12,50,95,Electric Organ
245.75,0.12,43,95,Electric Organ
245.75,0.12,50,95,Electric Organ
245.75,0.12,43,95,Electric Organ
246.0,0.24,31,110,Electric Organ
246.0,0.8,67,97,Electric Organ
246.0,0.8,71,97,Electric Organ
246.0,0.8,76,97,Electric Organ
246.0,0.0,36,92,Electric Organ
246.0,0.0,42,92,Electric Organ
246.0,0.12,43,105,Electric Organ
246.0,0.12,50,105,Electric Organ
246.0,0.12,43,105,Electric Organ
246.0,0.12,50,105,Electric Organ
246.25,0.12,50,95,Electric Organ
246.25,0.12,43,95,Electric Organ
246.25,0.12,50,95,Electric Organ
246.25,0.12,43,95,Electric Organ
246.5,0.12,31,100,Electric Organ
246.5,0.0,38,85,Electric Organ
246.5,0.0,42,85,Electric Organ
246.5,0.12,43,95,Electric Organ
246.5,0.12,50,95,Electric Organ
246.5,0.12,43,95,Electric Organ
246.5,0.12,50,95,Electric Organ
246.75,0.12,31,100,Electric Organ
246.75,0.0,36,92,Electric Organ
246.75,0.12,50,95,Electric Organ
246.75,0.12,43,95,Electric Organ
246.75,0.12,50,95,Electric Organ
246.75,0.12,43,95,Electric Organ
247.0,0.12,31,110,Electric Organ
247.0,0.12,71,100,Electric Organ
247.0,0.0,42,78,Electric Organ
247.0,0.12,43,105,Electric Organ
247.0,0.12,50,105,Electric Organ
247.0,0.12,43,105,Electric Organ
247.0,0.12,50,105,Electric Organ
247.25,0.12,31,100,Electric Organ
247.25,0.12,71,100,Electric Organ
247.25,0.0,36,92,Electric Organ
247.25,0.12,50,95,Electric Organ
247.25,0.12,43,95,Electric Organ
247.25,0.12,50,95,Electric Organ
247.25,0.12,43,95,Electric Organ
247.5,0.12,31,100,Electric Organ
247.5,0.0,38,85,Electric Organ
247.5,0.0,42,85,Electric Organ
247.5,0.12,43,95,Electric Organ
247.5,0.12,50,95,Electric Organ
247.5,0.12,43,95,Electric Organ
247.5,0.12,50,95,Electric Organ
247.75,1.7599999999999998,69,97,Electric Organ
247.75,1.7599999999999998,73,97,Electric Organ
247.75,1.7599999999999998,76,97,Electric Organ
247.75,0.24,33,110,Electric Organ
247.75,1.7599999999999998,69,97,Electric Organ
247.75,1.7599999999999998,73,97,Electric Organ
247.75,1.7599999999999998,76,97,Electric Organ
247.75,0.8,76,100,Electric Organ
247.75,0.0,46,99,Electric Organ
247.75,0.0,36,99,Electric Organ
247.75,0.31999999999999995,52,105,Electric Organ
247.75,0.31999999999999995,45,105,Electric Organ
247.75,0.31999999999999995,52,105,Electric Organ
247.75,0.31999999999999995,45,105,Electric Organ
248.0,0.0,44,50,Electric Organ
248.25,0.12,33,100,Electric Organ
248.25,0.0,36,92,Electric Organ
248.5,0.24,33,100,Electric Organ
248.5,0.0,38,85,Electric Organ
248.5,0.0,42,85,Electric Organ
248.5,0.12,45,95,Electric Organ
248.5,0.12,52,95,Electric Organ
248.5,0.12,45,95,Electric Organ
248.5,0.12,52,95,Electric Organ
248.75,0.12,52,95,Electric Organ
248.75,0.12,45,95,Electric Organ
248.75,0.12,52,95,Electric Organ
248.75,0.12,45,95,Electric Organ
249.0,0.12,33,110,Electric Organ
249.0,0.0,36,92,Electric Organ
249.0,0.0,42,92,Electric Organ
249.0,0.12,45,105,Electric Organ
249.0,0.12,52,105,Electric Organ
249.0,0.12,45,105,Electric Organ
249.0,0.12,52,105,Electric Organ
249.25,0.12,33,100,Electric Organ
249.25,0.0,36,92,Electric Organ
249.25,0.12,52,95,Electric Organ
249.25,0.12,45,95,Electric Organ
249.25,0.12,52,95,Electric Organ
249.25,0.12,45,95,Electric Organ
249.5,0.24,33,100,Electric Organ
249.5,0.0,38,85,Electric Organ
249.5,0.0,42,85,Electric Organ
249.5,0.12,45,95,Electric Organ
249.5,0.12,52,95,Electric Organ
249.5,0.12,45,95,Electric Organ
249.5,0.12,52,95,Electric Organ
249.75,0.12,52,95,Electric Organ
249.75,0.12,45,95,Electric Organ
249.75,0.12,52,95,Electric Organ
249.75,0.12,45,95,Electric Organ
250.0,0.24,33,110,Electric Organ
250.0,0.24,69,100,Electric Organ
250.0,0.0,36,92,Electric Organ
250.0,0.0,46,92,Electric Organ
250.0,0.12,45,105,Electric Organ
250.0,0.12,52,105,Electric Organ
250.0,0.12,45,105,Electric Organ
250.0,0.12,52,105,Electric Organ
250.25,0.12,52,95,Electric Organ
250.25,0.12,45,95,Electric Organ
250.25,0.12,52,95,Electric Organ
250.25,0.12,45,95,Electric Organ
250.5,0.12,33,100,Electric Organ
250.5,0.24,71,100,Electric Organ
250.5,0.0,38,78,Electric Organ
250.5,0.12,45,95,Electric Organ
250.5,0.12,52,95,Electric Organ
250.5,0.12,45,95,Electric Organ
250.5,0.12,52,95,Electric Organ
250.75,0.12,33,100,Electric Organ
250.75,0.0,38,92,Electric Organ
250.75,0.12,52,95,Electric Organ
250.75,0.12,45,95,Electric Organ
250.75,0.12,52,95,Electric Organ
250.75,0.12,45,95,Electric Organ
251.0,0.12,33,110,Electric Organ
251.0,0.24,73,100,Electric Organ
251.0,0.0,38,106,Electric Organ
251.0,0.12,45,105,Electric Organ
251.0,0.12,52,105,Electric Organ
251.0,0.12,45,105,Electric Organ
251.0,0.12,52,105,Electric Organ
251.25,0.12,33,100,Electric Organ
251.25,0.0,38,106,Electric Organ
251.25,0.12,45,95,Electric Organ
251.25,0.12,52,95,Electric Organ
251.25,0.12,45,95,Electric Organ
251.25,0.12,52,95,Electric Organ
251.5,1.68,35,110,Electric Organ
251.5,1.08,66,97,Electric Organ
251.5,1.08,71,97,Electric Organ
251.5,1.08,76,97,Electric Organ
251.5,1.12,71,100,Electric Organ
251.5,0.0,36,92,Electric Organ
251.5,0.0,57,92,Electric Organ
251.5,0.96,47,102,Electric Organ
251.5,0.96,54,102,Electric Organ
251.5,0.96,59,102,Electric Organ
251.5,0.96,64,102,Electric Organ
251.5,0.96,47,102,Electric Organ
251.5,0.96,54,102,Electric Organ
251.5,0.96,59,102,Electric Organ
251.5,0.96,64,102,Electric Organ
252.5,0.0,36,106,Electric Organ
253.0,0.0,38,99,Electric Organ
253.0,0.0,53,99,Electric Organ
253.5,0.0,36,99,Electric Organ
253.5,0.0,53,99,Electric Organ
253.5,0.0,47,102,Electric Organ
253.5,0.0,54,102,Electric Organ
253.5,0.0,59,102,Electric Organ
253.5,0.0,64,102,Electric Organ
253.5,0.0,47,102,Electric Organ
253.5,0.0,54,102,Electric Organ
253.5,0.0,59,102,Electric Organ
253.5,0.0,64,102,Electric Organ
253.75,0.6399999999999999,66,97,Electric Organ
253.75,0.6399999999999999,71,97,Electric Organ
253.75,0.6399999999999999,75,97,Electric Organ
253.75,0.6,63,102,Electric Organ
253.75,0.6,59,102,Electric Organ
253.75,0.6,54,102,Electric Organ
253.75,0.6,47,102,Electric Organ
253.75,0.6,63,102,Electric Organ
253.75,0.6,59,102,Electric Organ
253.75,0.6,54,102,Electric Organ
253.75,0.6,47,102,Electric Organ
254.0,0.0,36,99,Electric Organ
254.0,0.0,53,99,Electric Organ
254.25,0.0,38,92,Electric Organ
254.5,0.0,36,92,Electric Organ
254.5,0.0,53,92,Electric Organ
255.0,0.12,35,110,Electric Organ
255.0,0.0,38,99,Electric Organ
255.0,0.0,53,99,Electric Organ
255.0,0.12,47,110,Electric Organ
255.0,0.12,54,110,Electric Organ
255.0,0.12,47,110,Electric Organ
255.0,0.12,54,110,Electric Organ
255.25,0.12,33,110,Electric Organ
255.25,0.12,45,110,Electric Organ
255.25,0.12,52,110,Electric Organ
255.25,0.12,45,110,Electric Organ
255.25,0.12,52,110,Electric Organ
255.5,0.0,38,106,Electric Organ
255.75,1.92,67,97,Electric Organ
255.75,1.92,71,97,Electric Organ
255.75,1.92,74,97,Electric Organ
255.75,0.24,31,110,Electric Organ
255.75,0.0,36,92,Electric Organ
255.75,0.0,49,92,Electric Organ
255.75,0.31999999999999995,50,110,Electric Organ
255.75,0.31999999999999995,43,110,Electric Organ
255.75,0.31999999999999995,50,110,Electric Organ
255.75,0.31999999999999995,43,110,Electric Organ
256.25,0.12,31,100,Electric Organ
256.25,0.0,36,92,Electric Organ
256.5,0.24,31,100,Electric Organ
256.5,0.0,38,85,Electric Organ
256.5,0.0,42,85,Electric Organ
256.5,0.12,43,95,Electric Organ
256.5,0.12,50,95,Electric Organ
256.5,0.12,43,95,Electric Organ
256.5,0.12,50,95,Electric Organ
256.75,0.12,50,95,Electric Organ
256.75,0.12,43,95,Electric Organ
256.75,0.12,50,95,Electric Organ
256.75,0.12,43,95,Electric Organ
257.0,0.12,31,110,Electric Organ
257.0,0.0,36,92,Electric Organ
257.0,0.0,42,92,Electric Organ
257.0,0.12,43,105,Electric Organ
257.0,0.12,50,105,Electric Organ
257.0,0.12,43,105,Electric Organ
257.0,0.12,50,105,Electric Organ
257.25,0.12,31,100,Electric Organ
257.25,0.0,36,92,Electric Organ
257.25,0.12,50,95,Electric Organ
257.25,0.12,43,95,Electric Organ
257.25,0.12,50,95,Electric Organ
257.25,0.12,43,95,Electric Organ
257.5,0.24,31,100,Electric Organ
257.5,0.12,71,100,Electric Organ
257.5,0.0,38,85,Electric Organ
257.5,0.0,42,85,Electric Organ
257.5,0.12,43,95,Electric Organ
257.5,0.12,50,95,Electric Organ
257.5,0.12,43,95,Electric Organ
257.5,0.12,50,95,Electric Organ
257.75,0.12,50,95,Electric Organ
257.75,0.12,43,95,Electric Organ
257.75,0.12,50,95,Electric Organ
257.75,0.12,43,95,Electric Organ
258.0,0.24,31,110,Electric Organ
258.0,0.24,74,100,Electric Organ
258.0,0.0,36,92,Electric Organ
258.0,0.0,42,92,Electric Organ
258.0,0.12,43,105,Electric Organ
258.0,0.12,50,105,Electric Organ
258.0,0.12,43,105,Electric Organ
258.0,0.12,50,105,Electric Organ
258.25,0.12,50,95,Electric Organ
258.25,0.12,43,95,Electric Organ
258.25,0.12,50,95,Electric Organ
258.25,0.12,43,95,Electric Organ
258.5,0.12,31,100,Electric Organ
258.5,0.12,71,100,Electric Organ
258.5,0.0,38,85,Electric Organ
258.5,0.0,42,85,Electric Organ
258.5,0.12,43,95,Electric Organ
258.5,0.12,50,95,Electric Organ
258.5,0.12,43,95,Electric Organ
258.5,0.12,50,95,Electric Organ
258.75,0.12,31,100,Electric Organ
258.75,0.0,36,92,Electric Organ
258.75,0.12,50,95,Electric Organ
258.75,0.12,43,95,Electric Organ
258.75,0.12,50,95,Electric Organ
258.75,0.12,43,95,Electric Organ
259.0,0.12,31,110,Electric Organ
259.0,0.24,74,100,Electric Organ
259.0,0.0,42,78,Electric Organ
259.0,0.12,43,105,Electric Organ
259.0,0.12,50,105,Electric Organ
259.0,0.12,43,105,Electric Organ
259.0,0.12,50,105,Electric Organ
259.25,0.12,31,100,Electric Organ
259.25,0.0,36,92,Electric Organ
259.25,0.12,50,95,Electric Organ
259.25,0.12,43,95,Electric Organ
259.25,0.12,50,95,Electric Organ
259.25,0.12,43,95,Electric Organ
259.5,0.12,31,100,Electric Organ
259.5,0.12,71,100,Electric Organ
259.5,0.0,38,85,Electric Organ
259.5,0.0,42,85,Electric Organ
259.5,0.12,43,95,Electric Organ
259.5,0.12,50,95,Electric Organ
259.5,0.12,43,95,Electric Organ
259.5,0.12,50,95,Electric Organ
259.75,1.92,67,97,Electric Organ
259.75,1.92,71,97,Electric Organ
259.75,1.92,74,97,Electric Organ
259.75,0.24,31,110,Electric Organ
259.75,1.08,67,97,Electric Organ
259.75,1.08,71,97,Electric Organ
259.75,1.08,78,97,Electric Organ
259.75,0.31999999999999995,74,100,Electric Organ
259.75,0.0,36,92,Electric Organ
259.75,0.0,57,92,Electric Organ
259.75,0.31999999999999995,50,105,Electric Organ
259.75,0.31999999999999995,43,105,Electric Organ
259.75,0.31999999999999995,50,105,Electric Organ
259.75,0.31999999999999995,43,105,Electric Organ
260.25,0.12,31,100,Electric Organ
260.25,0.0,36,92,Electric Organ
260.5,0.24,31,100,Electric Organ
260.5,1.44,78,100,Electric Organ
260.5,0.0,38,85,Electric Organ
260.5,0.0,42,85,Electric Organ
260.5,0.12,43,95,Electric Organ
260.5,0.12,50,95,Electric Organ
260.5,0.12,43,95,Electric Organ
260.5,0.12,50,95,Electric Organ
260.75,0.12,50,95,Electric Organ
260.75,0.12,43,95,Electric Organ
260.75,0.12,50,95,Electric Organ
260.75,0.12,43,95,Electric Organ
261.0,0.12,31,110,Electric Organ
261.0,0.0,36,92,Electric Organ
261.0,0.0,42,92,Electric Organ
261.0,0.12,43,105,Electric Organ
261.0,0.12,50,105,Electric Organ
261.0,0.12,43,105,Electric Organ
261.0,0.12,50,105,Electric Organ
261.25,0.12,31,100,Electric Organ
261.25,0.0,36,92,Electric Organ
261.25,0.12,50,95,Electric Organ
261.25,0.12,43,95,Electric Organ
261.25,0.12,50,95,Electric Organ
261.25,0.12,43,95,Electric Organ
261.5,0.24,31,100,Electric Organ
261.5,0.0,38,85,Electric Organ
261.5,0.0,42,85,Electric Organ
261.5,0.12,43,95,Electric Organ
261.5,0.12,50,95,Electric Organ
261.5,0.12,43,95,Electric Organ
261.5,0.12,50,95,Electric Organ
261.75,0.12,50,95,Electric Organ
261.75,0.12,43,95,Electric Organ
261.75,0.12,50,95,Electric Organ
261.75,0.12,43,95,Electric Organ
262.0,0.24,31,110,Electric Organ
262.0,0.8,67,97,Electric Organ
262.0,0.8,71,97,Electric Organ
262.0,0.8,76,97,Electric Organ
262.0,0.0,36,92,Electric Organ
262.0,0.0,42,92,Electric Organ
262.0,0.12,43,105,Electric Organ
262.0,0.12,50,105,Electric Organ
262.0,0.12,43,105,Electric Organ
262.0,0.12,50,105,Electric Organ
262.25,0.12,50,95,Electric Organ
262.25,0.12,43,95,Electric Organ
262.25,0.12,50,95,Electric Organ
262.25,0.12,43,95,Electric Organ
262.5,0.12,31,100,Electric Organ
262.5,0.0,38,85,Electric Organ
262.5,0.0,42,85,Electric Organ
262.5,0.12,43,95,Electric Organ
262.5,0.12,50,95,Electric Organ
262.5,0.12,43,95,Electric Organ
262.5,0.12,50,95,Electric Organ
262.75,0.12,31,100,Electric Organ
262.75,0.0,36,92,Electric Organ
262.75,0.12,50,95,Electric Organ
262.75,0.12,43,95,Electric Organ
262.75,0.12,50,95,Electric Organ
262.75,0.12,43,95,Electric Organ
263.0,0.12,31,110,Electric Organ
263.0,0.0,42,78,Electric Organ
263.0,0.12,43,105,Electric Organ
263.0,0.12,50,105,Electric Organ
263.0,0.12,43,105,Electric Organ
263.0,0.12,50,105,Electric Organ
263.25,0.12,31,100,Electric Organ
263.25,0.0,36,92,Electric Organ
263.25,0.12,50,95,Electric Organ
263.25,0.12,43,95,Electric Organ
263.25,0.12,50,95,Electric Organ
263.25,0.12,43,95,Electric Organ
263.5,0.12,31,100,Electric Organ
263.5,0.0,38,85,Electric Organ
263.5,0.0,42,85,Electric Organ
263.5,0.12,43,95,Electric Organ
263.5,0.12,50,95,Electric Organ
263.5,0.12,43,95,Electric Organ
263.5,0.12,50,95,Electric Organ
263.75,1.56,69,97,Electric Organ
263.75,1.56,73,97,Electric Organ
263.75,1.56,76,97,Electric Organ
263.75,0.24,33,110,Electric Organ
263.75,1.56,69,97,Electric Organ
263.75,1.56,73,97,Electric Organ
263.75,1.56,76,97,Electric Organ
263.75,0.0,36,92,Electric Organ
263.75,0.0,49,92,Electric Organ
263.75,0.31999999999999995,52,105,Electric Organ
263.75,0.31999999999999995,45,105,Electric Organ
263.75,0.31999999999999995,52,105,Electric Organ
263.75,0.31999999999999995,45,105,Electric Organ
264.0,0.0,42,78,Electric Organ
264.25,0.12,33,100,Electric Organ
264.25,0.0,36,92,Electric Organ
264.5,0.24,33,100,Electric Organ
264.5,0.0,38,85,Electric Organ
264.5,0.0,42,85,Electric Organ
264.5,0.12,45,95,Electric Organ
264.5,0.12,52,95,Electric Organ
264.5,0.12,45,95,Electric Organ
264.5,0.12,52,95,Electric Organ
264.75,0.12,52,95,Electric Organ
264.75,0.12,45,95,Electric Organ
264.75,0.12,52,95,Electric Organ
264.75,0.12,45,95,Electric Organ
265.0,0.12,33,110,Electric Organ
265.0,0.36,76,100,Electric Organ
265.0,0.0,36,92,Electric Organ
265.0,0.0,42,92,Electric Organ
265.0,0.12,45,105,Electric Organ
265.0,0.12,52,105,Electric Organ
265.0,0.12,45,105,Electric Organ
265.0,0.12,52,105,Electric Organ
265.25,0.12,33,100,Electric Organ
265.25,0.0,36,92,Electric Organ
265.25,0.12,52,95,Electric Organ
265.25,0.12,45,95,Electric Organ
265.25,0.12,52,95,Electric Organ
265.25,0.12,45,95,Electric Organ
265.5,0.24,33,100,Electric Organ
265.5,0.0,38,85,Electric Organ
265.5,0.0,42,85,Electric Organ
265.5,0.12,45,95,Electric Organ
265.5,0.12,52,95,Electric Organ
265.5,0.12,45,95,Electric Organ
265.5,0.12,52,95,Electric Organ
265.75,0.12,52,95,Electric Organ
265.75,0.12,45,95,Electric Organ
265.75,0.12,52,95,Electric Organ
265.75,0.12,45,95,Electric Organ
266.0,0.24,33,110,Electric Organ
266.0,0.36,76,100,Electric Organ
266.0,0.0,36,92,Electric Organ
266.0,0.0,42,92,Electric Organ
266.0,0.12,45,105,Electric Organ
266.0,0.12,52,105,Electric Organ
266.0,0.12,45,105,Electric Organ
266.0,0.12,52,105,Electric Organ
266.25,0.12,52,95,Electric Organ
266.25,0.12,45,95,Electric Organ
266.25,0.12,52,95,Electric Organ
266.25,0.12,45,95,Electric Organ
266.5,0.12,33,100,Electric Organ
266.5,0.0,38,85,Electric Organ
266.5,0.0,42,85,Electric Organ
266.5,0.12,45,95,Electric Organ
266.5,0.12,52,95,Electric Organ
266.5,0.12,45,95,Electric Organ
266.5,0.12,52,95,Electric Organ
266.75,0.12,33,100,Electric Organ
266.75,0.12,52,95,Electric Organ
266.75,0.12,45,95,Electric Organ
266.75,0.12,52,95,Electric Organ
266.75,0.12,45,95,Electric Organ
267.0,0.12,69,97,Electric Organ
267.0,0.12,73,97,Electric Organ
267.0,0.12,76,97,Electric Organ
267.0,0.12,33,110,Electric Organ
267.0,0.12,69,97,Electric Organ
267.0,0.12,73,97,Electric Organ
267.0,0.12,76,97,Electric Organ
267.0,0.31999999999999995,74,100,Electric Organ
267.0,0.0,36,99,Electric Organ
267.0,0.0,38,99,Electric Organ
267.0,0.12,45,105,Electric Organ
267.0,0.12,52,105,Electric Organ
267.0,0.12,45,105,Electric Organ
267.0,0.12,52,105,Electric Organ
267.25,0.12,69,97,Electric Organ
267.25,0.12,73,97,Electric Organ
267.25,0.12,76,97,Electric Organ
267.25,0.12,33,100,Electric Organ
267.25,0.12,69,97,Electric Organ
267.25,0.12,73,97,Electric Organ
267.25,0.12,76,97,Electric Organ
267.25,0.0,38,106,Electric Organ
267.25,0.12,52,95,Electric Organ
267.25,0.12,45,95,Electric Organ
267.25,0.12,52,95,Electric Organ
267.25,0.12,45,95,Electric Organ
267.75,0.6,66,97,Electric Organ
267.75,0.6,70,97,Electric Organ
267.75,0.6,73,97,Electric Organ
267.75,0.24,42,110,Electric Organ
267.75,0.6,66,97,Electric Organ
267.75,0.6,70,97,Electric Organ
267.75,0.6,73,97,Electric Organ
267.75,0.6,73,100,Electric Organ
267.75,0.0,36,92,Electric Organ
267.75,0.0,57,92,Electric Organ
267.75,0.31999999999999995,49,105,Electric Organ
267.75,0.31999999999999995,42,105,Electric Organ
267.75,0.31999999999999995,49,105,Electric Organ
267.75,0.31999999999999995,42,105,Electric Organ
268.25,0.12,42,100,Electric Organ
268.25,0.0,36,92,Electric Organ
268.5,0.24,42,100,Electric Organ
268.5,0.0,38,106,Electric Organ
268.5,0.12,49,105,Electric Organ
268.5,0.12,42,105,Electric Organ
268.5,0.12,49,105,Electric Organ
268.5,0.12,42,105,Electric Organ
268.75,0.12,49,105,Electric Organ
268.75,0.12,42,105,Electric Organ
268.75,0.12,49,105,Electric Organ
268.75,0.12,42,105,Electric Organ
269.0,0.12,59,95,Electric Organ
269.0,0.12,71,95,Electric Organ
269.0,0.12,40,110,Electric Organ
269.0,0.12,59,90,Electric Organ
269.0,0.12,71,90,Electric Organ
269.0,0.31999999999999995,79,100,Electric Organ
269.0,0.0,43,92,Electric Organ
269.0,0.12,47,105,Electric Organ
269.0,0.12,40,105,Electric Organ
269.0,0.12,47,105,Electric Organ
269.0,0.12,40,105,Electric Organ
269.25,0.12,60,95,Electric Organ
269.25,0.12,72,95,Electric Organ
269.25,0.12,41,100,Electric Organ
269.25,0.12,60,90,Electric Organ
269.25,0.12,72,90,Electric Organ
269.25,0.0,43,92,Electric Organ
269.25,0.12,48,105,Electric Organ
269.25,0.12,41,105,Electric Organ
269.25,0.12,48,105,Electric Organ
269.25,0.12,41,105,Electric Organ
269.5,0.0,42,64,Electric Organ
269.75,0.12,61,95,Electric Organ
269.75,0.12,73,95,Electric Organ
269.75,0.15999999999999998,42,110,Electric Organ
269.75,0.12,61,90,Electric Organ
269.75,0.12,73,90,Electric Organ
269.75,1.08,78,100,Electric Organ
269.75,0.0,36,99,Electric Organ
269.75,0.0,46,99,Electric Organ
269.75,0.12,49,105,Electric Organ
269.75,0.12,42,105,Electric Organ
269.75,0.12,49,105,Electric Organ
269.75,0.12,42,105,Electric Organ
270.0,0.0,44,50,Electric Organ
271.75,0.31999999999999995,35,110,Electric Organ
271.75,0.0,36,92,Electric Organ
271.75,0.0,49,92,Electric Organ
271.75,0.31999999999999995,47,110,Electric Organ
271.75,0.31999999999999995,54,110,Electric Organ
271.75,0.31999999999999995,47,110,Electric Organ
271.75,0.31999999999999995,54,110,Electric Organ
272.25,0.0,36,92,Electric Organ
272.5,0.24,35,100,Electric Organ
272.5,0.0,38,99,Electric Organ
272.5,0.0,53,99,Electric Organ
272.5,0.12,47,95,Electric Organ
272.5,0.12,54,95,Electric Organ
272.5,0.12,47,95,Electric Organ
272.5,0.12,54,95,Electric Organ
272.75,0.12,54,95,Electric Organ
272.75,0.12,47,95,Electric Organ
272.75,0.12,54,95,Electric Organ
272.75,0.12,47,95,Electric Organ
273.0,0.12,30,100,Electric Organ
273.0,0.48,78,100,Electric Organ
273.0,0.48,78,100,Electric Organ
273.0,0.48,59,100,Electric Organ
273.0,0.48,62,100,Electric Organ
273.0,0.0,36,99,Electric Organ
273.0,0.0,53,99,Electric Organ
273.0,0.12,47,105,Electric Organ
273.0,0.12,54,105,Electric Organ
273.0,0.12,47,105,Electric Organ
273.0,0.12,54,105,Electric Organ
273.25,0.24,33,110,Electric Organ
273.25,0.0,36,92,Electric Organ
273.25,0.12,54,95,Electric Organ
273.25,0.12,47,95,Electric Organ
273.25,0.12,54,95,Electric Organ
273.25,0.12,47,95,Electric Organ
273.5,0.0,38,99,Electric Organ
273.5,0.0,53,99,Electric Organ
273.5,0.12,47,95,Electric Organ
273.5,0.12,54,95,Electric Organ
273.5,0.12,47,95,Electric Organ
273.5,0.12,54,95,Electric Organ
273.75,0.24,35,110,Electric Organ
273.75,0.0,36,92,Electric Organ
273.75,0.12,54,95,Electric Organ
273.75,0.12,47,95,Electric Organ
273.75,0.12,54,95,Electric Organ
273.75,0.12,47,95,Electric Organ
274.0,0.48,78,100,Electric Organ
274.0,0.48,78,100,Electric Organ
274.0,0.48,59,100,Electric Organ
274.0,0.48,62,100,Electric Organ
274.0,0.0,53,92,Electric Organ
274.0,0.12,47,105,Electric Organ
274.0,0.12,54,105,Electric Organ
274.0,0.12,47,105,Electric Organ
274.0,0.12,54,105,Electric Organ
274.25,0.12,35,100,Electric Organ
274.25,0.0,36,92,Electric Organ
274.25,0.12,54,95,Electric Organ
274.25,0.12,47,95,Electric Organ
274.25,0.12,54,95,Electric Organ
274.25,0.12,47,95,Electric Organ
274.5,0.12,35,100,Electric Organ
274.5,0.0,38,99,Electric Organ
274.5,0.0,53,99,Electric Organ
274.5,0.12,47,95,Electric Organ
274.5,0.12,54,95,Electric Organ
274.5,0.12,47,95,Electric Organ
274.5,0.12,54,95,Electric Organ
274.75,0.12,35,100,Electric Organ
274.75,0.12,54,95,Electric Organ
274.75,0.12,47,95,Electric Organ
274.75,0.12,54,95,Electric Organ
274.75,0.12,47,95,Electric Organ
275.0,0.12,38,110,Electric Organ
275.0,0.24,78,100,Electric Organ
275.0,0.24,78,100,Electric Organ
275.0,0.24,59,100,Electric Organ
275.0,0.24,62,100,Electric Organ
275.0,0.0,53,99,Electric Organ
275.0,0.0,36,99,Electric Organ
275.0,0.12,47,105,Electric Organ
275.0,0.12,54,105,Electric Organ
275.0,0.12,47,105,Electric Organ
275.0,0.12,54,105,Electric Organ
275.25,0.24,37,100,Electric Organ
275.25,0.0,36,92,Electric Organ
275.25,0.12,54,95,Electric Organ
275.25,0.12,47,95,Electric Organ
275.25,0.12,54,95,Electric Organ
275.25,0.12,47,95,Electric Organ
275.5,0.12,76,100,Electric Organ
275.5,0.12,76,100,Electric Organ
275.5,0.12,57,100,Electric Organ
275.5,0.12,61,100,Electric Organ
275.5,0.0,38,99,Electric Organ
275.5,0.0,53,99,Electric Organ
275.5,0.12,47,95,Electric Organ
275.5,0.12,54,95,Electric Organ
275.5,0.12,47,95,Electric Organ
275.5,0.12,54,95,Electric Organ
275.75,0.31999999999999995,33,110,Electric Organ
275.75,0.31999999999999995,79,100,Electric Organ
275.75,0.31999999999999995,79,100,Electric Organ
275.75,0.31999999999999995,61,100,Electric Organ
275.75,0.31999999999999995,64,100,Electric Organ
275.75,0.0,36,106,Electric Organ
275.75,0.31999999999999995,52,105,Electric Organ
275.75,0.31999999999999995,45,105,Electric Organ
275.75,0.31999999999999995,52,105,Electric Organ
275.75,0.31999999999999995,45,105,Electric Organ
276.0,0.0,53,92,Electric Organ
276.25,0.0,36,92,Electric Organ
276.5,0.24,33,100,Electric Organ
276.5,2.16,78,100,Electric Organ
276.5,1.68,78,100,Electric Organ
276.5,1.68,59,100,Electric Organ
276.5,1.68,62,100,Electric Organ
276.5,0.0,38,99,Electric Organ
276.5,0.0,53,99,Electric Organ
276.5,0.12,45,95,Electric Organ
276.5,0.12,52,95,Electric Organ
276.5,0.12,45,95,Electric Organ
276.5,0.12,52,95,Electric Organ
276.75,0.12,52,95,Electric Organ
276.75,0.12,45,95,Electric Organ
276.75,0.12,52,95,Electric Organ
276.75,0.12,45,95,Electric Organ
277.0,0.12,30,100,Electric Organ
277.0,0.0,36,99,Electric Organ
277.0,0.0,53,99,Electric Organ
277.0,0.12,45,105,Electric Organ
277.0,0.12,52,105,Electric Organ
277.0,0.12,45,105,Electric Organ
277.0,0.12,52,105,Electric Organ
277.25,0.24,33,110,Electric Organ
277.25,0.0,36,92,Electric Organ
277.25,0.12,52,95,Electric Organ
277.25,0.12,45,95,Electric Organ
277.25,0.12,52,95,Electric Organ
277.25,0.12,45,95,Electric Organ
277.5,0.0,38,99,Electric Organ
277.5,0.0,53,99,Electric Organ
277.5,0.12,45,95,Electric Organ
277.5,0.12,52,95,Electric Organ
277.5,0.12,45,95,Electric Organ
277.5,0.12,52,95,Electric Organ
277.75,0.24,33,110,Electric Organ
277.75,0.0,36,92,Electric Organ
277.75,0.12,52,95,Electric Organ
277.75,0.12,45,95,Electric Organ
277.75,0.12,52,95,Electric Organ
277.75,0.12,45,95,Electric Organ
278.0,0.0,53,92,Electric Organ
278.0,0.24,45,110,Electric Organ
278.0,0.24,45,110,Electric Organ
278.25,0.12,33,100,Electric Organ
278.25,0.0,36,92,Electric Organ
278.25,0.24,52,110,Electric Organ
278.25,0.24,52,110,Electric Organ
278.5,0.12,33,100,Electric Organ
278.5,0.0,38,99,Electric Organ
278.5,0.0,53,99,Electric Organ
278.75,0.12,33,100,Electric Organ
278.75,0.24,45,110,Electric Organ
278.75,0.24,45,110,Electric Organ
279.0,0.12,38,110,Electric Organ
279.0,0.0,53,99,Electric Organ
279.0,0.0,36,99,Electric Organ
279.0,0.24,52,110,Electric Organ
279.0,0.24,52,110,Electric Organ
279.25,0.24,37,100,Electric Organ
279.25,0.0,36,92,Electric Organ
279.5,0.0,38,99,Electric Organ
279.5,0.0,53,99,Electric Organ
279.5,0.12,45,110,Electric Organ
279.5,0.12,45,110,Electric Organ
279.75,0.31999999999999995,31,110,Electric Organ
279.75,0.0,36,92,Electric Organ
279.75,0.0,57,92,Electric Organ
279.75,0.31999999999999995,50,110,Electric Organ
279.75,0.31999999999999995,43,110,Electric Organ
279.75,0.31999999999999995,50,110,Electric Organ
279.75,0.31999999999999995,43,110,Electric Organ
280.25,0.0,36,92,Electric Organ
280.5,0.24,31,100,Electric Organ
280.5,0.0,38,99,Electric Organ
280.5,0.0,53,99,Electric Organ
280.5,0.12,43,95,Electric Organ
280.5,0.12,50,95,Electric Organ
280.5,0.12,43,95,Electric Organ
280.5,0.12,50,95,Electric Organ
280.75,0.12,50,95,Electric Organ
280.75,0.12,43,95,Electric Organ
280.75,0.12,50,95,Electric Organ
280.75,0.12,43,95,Electric Organ
281.0,0.12,30,100,Electric Organ
281.0,0.48,74,100,Electric Organ
281.0,0.48,74,100,Electric Organ
281.0,0.0,36,99,Electric Organ
281.0,0.0,53,99,Electric Organ
281.0,0.12,43,105,Electric Organ
281.0,0.12,50,105,Electric Organ
281.0,0.12,43,105,Electric Organ
281.0,0.12,50,105,Electric Organ
281.25,0.24,31,110,Electric Organ
281.25,0.0,36,92,Electric Organ
281.25,0.12,50,95,Electric Organ
281.25,0.12,43,95,Electric Organ
281.25,0.12,50,95,Electric Organ
281.25,0.12,43,95,Electric Organ
281.5,0.0,38,99,Electric Organ
281.5,0.0,53,99,Electric Organ
281.5,0.12,43,95,Electric Organ
281.5,0.12,50,95,Electric Organ
281.5,0.12,43,95,Electric Organ
281.5,0.12,50,95,Electric Organ
281.75,0.24,31,110,Electric Organ
281.75,0.0,36,92,Electric Organ
281.75,0.12,50,95,Electric Organ
281.75,0.12,43,95,Electric Organ
281.75,0.12,50,95,Electric Organ
281.75,0.12,43,95,Electric Organ
282.0,0.48,74,100,Electric Organ
282.0,0.48,74,100,Electric Organ
282.0,0.0,53,92,Electric Organ
282.0,0.12,43,105,Electric Organ
282.0,0.12,50,105,Electric Organ
282.0,0.12,43,105,Electric Organ
282.0,0.12,50,105,Electric Organ
282.25,0.12,31,100,Electric Organ
282.25,0.0,36,92,Electric Organ
282.25,0.12,50,95,Electric Organ
282.25,0.12,43,95,Electric Organ
282.25,0.12,50,95,Electric Organ
282.25,0.12,43,95,Electric Organ
282.5,0.12,31,100,Electric Organ
282.5,0.0,38,99,Electric Organ
282.5,0.0,53,99,Electric Organ
282.5,0.12,43,95,Electric Organ
282.5,0.12,50,95,Electric Organ
282.5,0.12,43,95,Electric Organ
282.5,0.12,50,95,Electric Organ
282.75,0.12,31,100,Electric Organ
282.75,0.12,50,95,Electric Organ
282.75,0.12,43,95,Electric Organ
282.75,0.12,50,95,Electric Organ
282.75,0.12,43,95,Electric Organ
283.0,0.12,38,110,Electric Organ
283.0,0.31999999999999995,71,100,Electric Organ
283.0,0.31999999999999995,71,100,Electric Organ
283.0,0.0,53,99,Electric Organ
283.0,0.0,36,99,Electric Organ
283.0,0.12,43,105,Electric Organ
283.0,0.12,50,105,Electric Organ
283.0,0.12,43,105,Electric Organ
283.0,0.12,50,105,Electric Organ
283.25,0.24,37,100,Electric Organ
283.25,0.0,36,92,Electric Organ
283.25,0.12,50,95,Electric Organ
283.25,0.12,43,95,Electric Organ
283.25,0.12,50,95,Electric Organ
283.25,0.12,43,95,Electric Organ
283.5,0.0,38,99,Electric Organ
283.5,0.0,53,99,Electric Organ
283.5,0.12,43,95,Electric Organ
283.5,0.12,50,95,Electric Organ
283.5,0.12,43,95,Electric Organ
283.5,0.12,50,95,Electric Organ
283.75,0.31999999999999995,33,110,Electric Organ
283.75,0.6,78,100,Electric Organ
283.75,0.6,78,100,Electric Organ
283.75,0.0,36,106,Electric Organ
283.75,0.31999999999999995,52,105,Electric Organ
283.75,0.31999999999999995,45,105,Electric Organ
283.75,0.31999999999999995,52,105,Electric Organ
283.75,0.31999999999999995,45,105,Electric Organ
284.0,0.0,53,92,Electric Organ
284.25,0.0,36,92,Electric Organ
284.5,0.24,33,100,Electric Organ
284.5,0.0,38,99,Electric Organ
284.5,0.0,53,99,Electric Organ
284.5,0.12,45,95,Electric Organ
284.5,0.12,52,95,Electric Organ
284.5,0.12,45,95,Electric Organ
284.5,0.12,52,95,Electric Organ
284.75,0.12,52,95,Electric Organ
284.75,0.12,45,95,Electric Organ
284.75,0.12,52,95,Electric Organ
284.75,0.12,45,95,Electric Organ
285.0,0.12,30,100,Electric Organ
285.0,0.48,76,100,Electric Organ
285.0,0.48,76,100,Electric Organ
285.0,0.0,36,99,Electric Organ
285.0,0.0,53,99,Electric Organ
285.0,0.12,45,105,Electric Organ
285.0,0.12,52,105,Electric Organ
285.0,0.12,45,105,Electric Organ
285.0,0.12,52,105,Electric Organ
285.25,0.24,33,110,Electric Organ
285.25,0.0,36,92,Electric Organ
285.25,0.12,52,95,Electric Organ
285.25,0.12,45,95,Electric Organ
285.25,0.12,52,95,Electric Organ
285.25,0.12,45,95,Electric Organ
285.5,0.0,38,99,Electric Organ
285.5,0.0,53,99,Electric Organ
285.5,0.12,45,95,Electric Organ
285.5,0.12,52,95,Electric Organ
285.5,0.12,45,95,Electric Organ
285.5,0.12,52,95,Electric Organ
285.75,0.24,33,110,Electric Organ
285.75,0.0,36,92,Electric Organ
285.75,0.12,52,95,Electric Organ
285.75,0.12,45,95,Electric Organ
285.75,0.12,52,95,Electric Organ
285.75,0.12,45,95,Electric Organ
286.0,0.24,74,100,Electric Organ
286.0,0.24,74,100,Electric Organ
286.0,0.0,53,92,Electric Organ
286.0,0.24,45,110,Electric Organ
286.0,0.24,45,110,Electric Organ
286.25,0.12,33,100,Electric Organ
286.25,0.0,36,92,Electric Organ
286.25,0.24,52,110,Electric Organ
286.25,0.24,52,110,Electric Organ
286.5,0.12,33,100,Electric Organ
286.5,0.72,78,100,Electric Organ
286.5,0.6399999999999999,78,100,Electric Organ
286.5,0.0,38,99,Electric Organ
286.5,0.0,53,99,Electric Organ
286.75,0.12,33,100,Electric Organ
286.75,0.24,45,110,Electric Organ
286.75,0.24,45,110,Electric Organ
287.0,0.12,40,110,Electric Organ
287.0,0.0,53,99,Electric Organ
287.0,0.0,36,99,Electric Organ
287.0,0.24,52,110,Electric Organ
287.0,0.24,52,110,Electric Organ
287.25,0.24,38,100,Electric Organ
287.25,0.0,36,92,Electric Organ
287.5,0.0,38,106,Electric Organ
287.5,0.12,45,110,Electric Organ
287.5,0.12,45,110,Electric Organ
287.75,0.31999999999999995,35,110,Electric Organ
287.75,0.0,36,92,Electric Organ
287.75,0.0,49,92,Electric Organ
287.75,0.31999999999999995,54,110,Electric Organ
287.75,0.31999999999999995,47,110,Electric Organ
287.75,0.31999999999999995,54,110,Electric Organ
287.75,0.31999999999999995,47,110,Electric Organ
288.25,0.0,36,92,Electric Organ
288.5,0.24,35,100,Electric Organ
288.5,0.0,38,99,Electric Organ
288.5,0.0,53,99,Electric Organ
288.5,0.12,47,95,Electric Organ
288.5,0.12,54,95,Electric Organ
288.5,0.12,47,95,Electric Organ
288.5,0.12,54,95,Electric Organ
288.75,0.12,54,95,Electric Organ
288.75,0.12,47,95,Electric Organ
288.75,0.12,54,95,Electric Organ
288.75,0.12,47,95,Electric Organ
289.0,0.12,30,100,Electric Organ
289.0,0.48,78,100,Electric Organ
289.0,0.48,78,100,Electric Organ
289.0,0.48,59,100,Electric Organ
289.0,0.48,62,100,Electric Organ
289.0,0.0,36,99,Electric Organ
289.0,0.0,53,99,Electric Organ
289.0,0.12,47,105,Electric Organ
289.0,0.12,54,105,Electric Organ
289.0,0.12,47,105,Electric Organ
289.0,0.12,54,105,Electric Organ
289.25,0.24,33,110,Electric Organ
289.25,0.0,36,92,Electric Organ
289.25,0.12,54,95,Electric Organ
289.25,0.12,47,95,Electric Organ
289.25,0.12,54,95,Electric Organ
289.25,0.12,47,95,Electric Organ
289.5,0.0,38,99,Electric Organ
289.5,0.0,53,99,Electric Organ
289.5,0.12,47,95,Electric Organ
289.5,0.12,54,95,Electric Organ
289.5,0.12,47,95,Electric Organ
289.5,0.12,54,95,Electric Organ
289.75,0.24,35,110,Electric Organ
289.75,0.0,36,92,Electric Organ
289.75,0.12,54,95,Electric Organ
289.75,0.12,47,95,Electric Organ
289.75,0.12,54,95,Electric Organ
289.75,0.12,47,95,Electric Organ
290.0,0.48,78,100,Electric Organ
290.0,0.48,78,100,Electric Organ
290.0,0.48,59,100,Electric Organ
290.0,0.48,62,100,Electric Organ
290.0,0.0,53,92,Electric Organ
290.0,0.12,47,105,Electric Organ
290.0,0.12,54,105,Electric Organ
290.0,0.12,47,105,Electric Organ
290.0,0.12,54,105,Electric Organ
290.25,0.12,35,100,Electric Organ
290.25,0.0,36,92,Electric Organ
290.25,0.12,54,95,Electric Organ
290.25,0.12,47,95,Electric Organ
290.25,0.12,54,95,Electric Organ
290.25,0.12,47,95,Electric Organ
290.5,0.12,35,100,Electric Organ
290.5,0.0,38,99,Electric Organ
290.5,0.0,53,99,Electric Organ
290.5,0.12,47,95,Electric Organ
290.5,0.12,54,95,Electric Organ
290.5,0.12,47,95,Electric Organ
290.5,0.12,54,95,Electric Organ
290.75,0.12,35,100,Electric Organ
290.75,0.12,54,95,Electric Organ
290.75,0.12,47,95,Electric Organ
290.75,0.12,54,95,Electric Organ
290.75,0.12,47,95,Electric Organ
291.0,0.12,38,110,Electric Organ
291.0,0.24,78,100,Electric Organ
291.0,0.24,78,100,Electric Organ
291.0,0.24,59,100,Electric Organ
291.0,0.24,62,100,Electric Organ
291.0,0.0,53,99,Electric Organ
291.0,0.0,36,99,Electric Organ
291.0,0.12,47,105,Electric Organ
291.0,0.12,54,105,Electric Organ
291.0,0.12,47,105,Electric Organ
291.0,0.12,54,105,Electric Organ
291.25,0.24,37,100,Electric Organ
291.25,0.0,36,92,Electric Organ
291.25,0.12,54,95,Electric Organ
291.25,0.12,47,95,Electric Organ
291.25,0.12,54,95,Electric Organ
291.25,0.12,47,95,Electric Organ
291.5,0.12,76,100,Electric Organ
291.5,0.12,76,100,Electric Organ
291.5,0.12,57,100,Electric Organ
291.5,0.12,61,100,Electric Organ
291.5,0.0,38,99,Electric Organ
291.5,0.0,53,99,Electric Organ
291.5,0.12,47,95,Electric Organ
291.5,0.12,54,95,Electric Organ
291.5,0.12,47,95,Electric Organ
291.5,0.12,54,95,Electric Organ
291.75,0.31999999999999995,33,110,Electric Organ
291.75,0.31999999999999995,79,100,Electric Organ
291.75,0.31999999999999995,79,100,Electric Organ
291.75,0.31999999999999995,61,100,Electric Organ
291.75,0.31999999999999995,64,100,Electric Organ
291.75,0.0,36,106,Electric Organ
291.75,0.31999999999999995,52,105,Electric Organ
291.75,0.31999999999999995,45,105,Electric Organ
291.75,0.31999999999999995,52,105,Electric Organ
291.75,0.31999999999999995,45,105,Electric Organ
292.0,0.0,53,92,Electric Organ
292.25,0.0,36,92,Electric Organ
292.5,0.24,33,100,Electric Organ
292.5,2.16,78,100,Electric Organ
292.5,1.68,78,100,Electric Organ
292.5,1.68,59,100,Electric Organ
292.5,1.68,62,100,Electric Organ
292.5,0.0,38,99,Electric Organ
292.5,0.0,53,99,Electric Organ
292.5,0.12,45,95,Electric Organ
292.5,0.12,52,95,Electric Organ
292.5,0.12,45,95,Electric Organ
292.5,0.12,52,95,Electric Organ
292.75,0.12,52,95,Electric Organ
292.75,0.12,45,95,Electric Organ
292.75,0.12,52,95,Electric Organ
292.75,0.12,45,95,Electric Organ
293.0,0.12,30,100,Electric Organ
293.0,0.0,36,99,Electric Organ
293.0,0.0,53,99,Electric Organ
293.0,0.12,45,105,Electric Organ
293.0,0.12,52,105,Electric Organ
293.0,0.12,45,105,Electric Organ
293.0,0.12,52,105,Electric Organ
293.25,0.24,33,110,Electric Organ
293.25,0.0,36,92,Electric Organ
293.25,0.12,52,95,Electric Organ
293.25,0.12,45,95,Electric Organ
293.25,0.12,52,95,Electric Organ
293.25,0.12,45,95,Electric Organ
293.5,0.0,38,99,Electric Organ
293.5,0.0,53,99,Electric Organ
293.5,0.12,45,95,Electric Organ
293.5,0.12,52,95,Electric Organ
293.5,0.12,45,95,Electric Organ
293.5,0.12,52,95,Electric Organ
293.75,0.24,33,110,Electric Organ
293.75,0.0,36,92,Electric Organ
293.75,0.12,52,95,Electric Organ
293.75,0.12,45,95,Electric Organ
293.75,0.12,52,95,Electric Organ
293.75,0.12,45,95,Electric Organ
294.0,0.0,53,92,Electric Organ
294.0,0.24,45,110,Electric Organ
294.0,0.24,45,110,Electric Organ
294.25,0.12,33,100,Electric Organ
294.25,0.0,36,92,Electric Organ
294.25,0.24,52,110,Electric Organ
294.25,0.24,52,110,Electric Organ
294.5,0.12,33,100,Electric Organ
294.5,0.0,38,99,Electric Organ
294.5,0.0,53,99,Electric Organ
294.75,0.12,33,100,Electric Organ
294.75,0.24,45,110,Electric Organ
294.75,0.24,45,110,Electric Organ
295.0,0.12,38,110,Electric Organ
295.0,0.0,53,99,Electric Organ
295.0,0.0,36,99,Electric Organ
295.0,0.24,52,110,Electric Organ
295.0,0.24,52,110,Electric Organ
295.25,0.24,37,100,Electric Organ
295.25,0.0,36,92,Electric Organ
295.5,0.0,38,99,Electric Organ
295.5,0.0,53,99,Electric Organ
295.5,0.12,45,110,Electric Organ
295.5,0.12,45,110,Electric Organ
295.75,0.31999999999999995,31,110,Electric Organ
295.75,0.0,36,92,Electric Organ
295.75,0.0,57,92,Electric Organ
295.75,0.31999999999999995,50,110,Electric Organ
295.75,0.31999999999999995,43,110,Electric Organ
295.75,0.31999999999999995,50,110,Electric Organ
295.75,0.31999999999999995,43,110,Electric Organ
296.25,0.0,36,92,Electric Organ
296.5,0.24,31,100,Electric Organ
296.5,0.0,38,99,Electric Organ
296.5,0.0,53,99,Electric Organ
296.5,0.12,43,95,Electric Organ
296.5,0.12,50,95,Electric Organ
296.5,0.12,43,95,Electric Organ
296.5,0.12,50,95,Electric Organ
296.75,0.12,50,95,Electric Organ
296.75,0.12,43,95,Electric Organ
296.75,0.12,50,95,Electric Organ
296.75,0.12,43,95,Electric Organ
297.0,0.12,30,100,Electric Organ
297.0,0.48,74,100,Electric Organ
297.0,0.48,74,100,Electric Organ
297.0,0.0,36,99,Electric Organ
297.0,0.0,53,99,Electric Organ
297.0,0.12,43,105,Electric Organ
297.0,0.12,50,105,Electric Organ
297.0,0.12,43,105,Electric Organ
297.0,0.12,50,105,Electric Organ
297.25,0.24,31,110,Electric Organ
297.25,0.0,36,92,Electric Organ
297.25,0.12,50,95,Electric Organ
297.25,0.12,43,95,Electric Organ
297.25,0.12,50,95,Electric Organ
297.25,0.12,43,95,Electric Organ
297.5,0.0,38,99,Electric Organ
297.5,0.0,53,99,Electric Organ
297.5,0.12,43,95,Electric Organ
297.5,0.12,50,95,Electric Organ
297.5,0.12,43,95,Electric Organ
297.5,0.12,50,95,Electric Organ
297.75,0.24,31,110,Electric Organ
297.75,0.0,36,92,Electric Organ
297.75,0.12,50,95,Electric Organ
297.75,0.12,43,95,Electric Organ
297.75,0.12,50,95,Electric Organ
297.75,0.12,43,95,Electric Organ
298.0,0.48,74,100,Electric Organ
298.0,0.48,74,100,Electric Organ
298.0,0.0,53,92,Electric Organ
298.0,0.12,43,105,Electric Organ
298.0,0.12,50,105,Electric Organ
298.0,0.12,43,105,Electric Organ
298.0,0.12,50,105,Electric Organ
298.25,0.12,31,100,Electric Organ
298.25,0.0,36,92,Electric Organ
298.25,0.12,50,95,Electric Organ
298.25,0.12,43,95,Electric Organ
298.25,0.12,50,95,Electric Organ
298.25,0.12,43,95,Electric Organ
298.5,0.12,31,100,Electric Organ
298.5,0.0,38,99,Electric Organ
298.5,0.0,53,99,Electric Organ
298.5,0.12,43,95,Electric Organ
298.5,0.12,50,95,Electric Organ
298.5,0.12,43,95,Electric Organ
298.5,0.12,50,95,Electric Organ
298.75,0.12,31,100,Electric Organ
298.75,0.12,50,95,Electric Organ
298.75,0.12,43,95,Electric Organ
298.75,0.12,50,95,Electric Organ
298.75,0.12,43,95,Electric Organ
299.0,0.12,38,110,Electric Organ
299.0,0.31999999999999995,71,100,Electric Organ
299.0,0.31999999999999995,71,100,Electric Organ
299.0,0.0,53,99,Electric Organ
299.0,0.0,36,99,Electric Organ
299.0,0.12,43,105,Electric Organ
299.0,0.12,50,105,Electric Organ
299.0,0.12,43,105,Electric Organ
299.0,0.12,50,105,Electric Organ
299.25,0.24,37,100,Electric Organ
299.25,0.0,36,92,Electric Organ
299.25,0.12,50,95,Electric Organ
299.25,0.12,43,95,Electric Organ
299.25,0.12,50,95,Electric Organ
299.25,0.12,43,95,Electric Organ
299.5,0.0,38,99,Electric Organ
299.5,0.0,53,99,Electric Organ
299.5,0.12,43,95,Electric Organ
299.5,0.12,50,95,Electric Organ
299.5,0.12,43,95,Electric Organ
299.5,0.12,50,95,Electric Organ
299.75,0.31999999999999995,33,110,Electric Organ
299.75,0.6,78,100,Electric Organ
299.75,0.6,78,100,Electric Organ
299.75,0.0,36,106,Electric Organ
299.75,0.31999999999999995,52,105,Electric Organ
299.75,0.31999999999999995,45,105,Electric Organ
299.75,0.31999999999999995,52,105,Electric Organ
299.75,0.31999999999999995,45,105,Electric Organ
300.0,0.0,53,92,Electric Organ
300.25,0.0,36,92,Electric Organ
300.5,0.24,33,100,Electric Organ
300.5,0.0,38,99,Electric Organ
300.5,0.0,53,99,Electric Organ
300.5,0.12,45,95,Electric Organ
300.5,0.12,52,95,Electric Organ
300.5,0.12,45,95,Electric Organ
300.5,0.12,52,95,Electric Organ
300.75,0.12,52,95,Electric Organ
300.75,0.12,45,95,Electric Organ
300.75,0.12,52,95,Electric Organ
300.75,0.12,45,95,Electric Organ
301.0,0.12,30,100,Electric Organ
301.0,0.24,76,100,Electric Organ
301.0,0.24,76,100,Electric Organ
301.0,0.0,36,99,Electric Organ
301.0,0.0,53,99,Electric Organ
301.0,0.12,45,105,Electric Organ
301.0,0.12,52,105,Electric Organ
301.0,0.12,45,105,Electric Organ
301.0,0.12,52,105,Electric Organ
301.25,0.24,33,110,Electric Organ
301.25,0.0,36,92,Electric Organ
301.25,0.12,52,95,Electric Organ
301.25,0.12,45,95,Electric Organ
301.25,0.12,52,95,Electric Organ
301.25,0.12,45,95,Electric Organ
301.5,0.24,76,100,Electric Organ
301.5,0.24,76,100,Electric Organ
301.5,0.0,38,99,Electric Organ
301.5,0.0,53,99,Electric Organ
301.5,0.12,45,95,Electric Organ
301.5,0.12,52,95,Electric Organ
301.5,0.12,45,95,Electric Organ
301.5,0.12,52,95,Electric Organ
301.75,0.24,33,110,Electric Organ
301.75,0.12,52,95,Electric Organ
301.75,0.12,45,95,Electric Organ
301.75,0.12,52,95,Electric Organ
301.75,0.12,45,95,Electric Organ
302.0,0.24,74,100,Electric Organ
302.0,0.24,74,100,Electric Organ
302.0,0.0,53,99,Electric Organ
302.0,0.0,36,99,Electric Organ
302.0,0.12,45,105,Electric Organ
302.0,0.12,52,105,Electric Organ
302.0,0.12,45,105,Electric Organ
302.0,0.12,52,105,Electric Organ
302.25,0.12,33,100,Electric Organ
302.25,0.12,52,95,Electric Organ
302.25,0.12,45,95,Electric Organ
302.25,0.12,52,95,Electric Organ
302.25,0.12,45,95,Electric Organ
302.5,0.12,33,100,Electric Organ
302.5,0.24,74,100,Electric Organ
302.5,0.24,74,100,Electric Organ
302.5,0.0,48,106,Electric Organ
302.5,0.12,45,95,Electric Organ
302.5,0.12,52,95,Electric Organ
302.5,0.12,45,95,Electric Organ
302.5,0.12,52,95,Electric Organ
302.75,0.12,33,100,Electric Organ
302.75,0.0,48,92,Electric Organ
302.75,0.12,52,95,Electric Organ
302.75,0.12,45,95,Electric Organ
302.75,0.12,52,95,Electric Organ
302.75,0.12,45,95,Electric Organ
303.0,0.12,33,110,Electric Organ
303.0,0.24,73,100,Electric Organ
303.0,0.24,73,100,Electric Organ
303.0,0.0,45,106,Electric Organ
303.0,0.12,45,110,Electric Organ
303.0,0.12,52,110,Electric Organ
303.0,0.12,45,110,Electric Organ
303.0,0.12,52,110,Electric Organ
303.25,0.12,32,100,Electric Organ
303.25,0.0,45,92,Electric Organ
303.25,0.12,44,110,Electric Organ
303.25,0.12,51,110,Electric Organ
303.25,0.12,44,110,Electric Organ
303.25,0.12,51,110,Electric Organ
303.5,0.12,73,100,Electric Organ
303.5,0.12,73,100,Electric Organ
303.5,0.0,41,92,Electric Organ
303.75,0.24,31,110,Electric Organ
303.75,0.96,71,100,Electric Organ
303.75,1.08,71,100,Electric Organ
303.75,0.0,36,92,Electric Organ
303.75,0.0,49,92,Electric Organ
303.75,0.96,50,110,Electric Organ
303.75,0.96,43,110,Electric Organ
303.75,0.96,50,110,Electric Organ
303.75,0.96,43,110,Electric Organ
304.25,0.12,31,100,Electric Organ
304.25,0.0,36,92,Electric Organ
304.5,0.24,31,100,Electric Organ
304.5,0.0,38,99,Electric Organ
304.5,0.0,53,99,Electric Organ
304.5,0.8,64,110,Electric Organ
304.5,0.8,64,110,Electric Organ
305.0,0.12,31,110,Electric Organ
305.0,0.0,36,99,Electric Organ
305.0,0.0,53,99,Electric Organ
305.0,0.6399999999999999,59,110,Electric Organ
305.0,0.6399999999999999,59,110,Electric Organ
305.25,0.12,31,100,Electric Organ
305.25,0.0,36,92,Electric Organ
305.25,0.0,53,92,Electric Organ
305.5,0.12,31,100,Electric Organ
305.5,0.0,38,106,Electric Organ
305.75,0.24,33,110,Electric Organ
305.75,0.96,73,100,Electric Organ
305.75,0.0,36,85,Electric Organ
305.75,0.0,57,85,Electric Organ
305.75,0.8,45,110,Electric Organ
305.75,0.8,52,110,Electric Organ
305.75,0.8,45,110,Electric Organ
305.75,0.8,52,110,Electric Organ
306.25,0.12,33,100,Electric Organ
306.25,0.0,36,92,Electric Organ
306.5,0.24,33,100,Electric Organ
306.5,0.0,38,99,Electric Organ
306.5,0.0,53,99,Electric Organ
306.5,0.6,64,110,Electric Organ
306.5,0.6,64,110,Electric Organ
307.0,0.12,33,110,Electric Organ
307.0,0.0,36,99,Electric Organ
307.0,0.0,53,99,Electric Organ
307.0,0.36,59,110,Electric Organ
307.0,0.36,59,110,Electric Organ
307.25,0.12,33,110,Electric Organ
307.25,0.0,36,92,Electric Organ
307.25,0.0,53,92,Electric Organ
307.5,0.12,33,110,Electric Organ
307.5,0.0,38,106,Electric Organ
307.75,0.12,35,110,Electric Organ
307.75,0.12,74,100,Electric Organ
307.75,0.0,36,92,Electric Organ
307.75,0.0,46,92,Electric Organ
307.75,0.15999999999999998,47,110,Electric Organ
307.75,0.15999999999999998,54,110,Electric Organ
307.75,0.12,47,110,Electric Organ
307.75,0.12,54,110,Electric Organ
308.0,0.0,44,50,Electric Organ
308.5,0.0,48,106,Electric Organ
308.6666666666667,0.0,48,92,Electric Organ
308.75,0.0,48,92,Electric Organ
309.0,0.0,48,92,Electric Organ
309.25,0.0,45,106,Electric Organ
309.5,0.0,45,92,Electric Organ
309.75,0.0,45,92,Electric Organ
310.0,0.0,45,106,Electric Organ
310.0,0.0,45,92,Electric Organ
310.25,0.0,45,92,Electric Organ
310.5,0.0,45,92,Electric Organ
310.75,0.0,41,106,Electric Organ
311.0,0.0,41,92,Electric Organ
311.0,1.92,78,119,Electric Organ
311.25,0.0,41,92,Electric Organ
311.5,0.0,41,92,Electric Organ
311.75,1.92,71,97,Electric Organ
311.75,1.92,74,97,Electric Organ
311.75,1.92,66,97,Electric Organ
311.75,0.31999999999999995,35,110,Electric Organ
311.75,0.0,36,92,Electric Organ
311.75,0.0,49,92,Electric Organ
311.75,1.56,81,100,Electric Organ
311.75,0.31999999999999995,47,110,Electric Organ
311.75,0.31999999999999995,54,110,Electric Organ
311.75,0.31999999999999995,47,110,Electric Organ
311.75,0.31999999999999995,54,110,Electric Organ
312.25,0.0,36,92,Electric Organ
312.5,0.24,35,100,Electric Organ
312.5,0.0,38,99,Electric Organ
312.5,0.0,53,99,Electric Organ
312.5,0.12,47,95,Electric Organ
312.5,0.12,54,95,Electric Organ
312.5,0.12,47,95,Electric Organ
312.5,0.12,54,95,Electric Organ
312.75,0.12,54,95,Electric Organ
312.75,0.12,47,95,Electric Organ
312.75,0.12,54,95,Electric Organ
312.75,0.12,47,95,Electric Organ
313.0,0.12,30,100,Electric Organ
313.0,0.0,36,99,Electric Organ
313.0,0.0,53,99,Electric Organ
313.0,0.12,47,105,Electric Organ
313.0,0.12,54,105,Electric Organ
313.0,0.12,47,105,Electric Organ
313.0,0.12,54,105,Electric Organ
313.25,0.31999999999999995,33,110,Electric Organ
313.25,0.0,36,92,Electric Organ
313.25,0.12,54,95,Electric Organ
313.25,0.12,47,95,Electric Organ
313.25,0.12,54,95,Electric Organ
313.25,0.12,47,95,Electric Organ
313.5,0.0,38,99,Electric Organ
313.5,0.0,53,99,Electric Organ
313.5,0.12,47,95,Electric Organ
313.5,0.12,54,95,Electric Organ
313.5,0.12,47,95,Electric Organ
313.5,0.12,54,95,Electric Organ
313.75,0.12,54,95,Electric Organ
313.75,0.12,47,95,Electric Organ
313.75,0.12,54,95,Electric Organ
313.75,0.12,47,95,Electric Organ
314.0,0.24,33,110,Electric Organ
314.0,0.0,36,99,Electric Organ
314.0,0.0,53,99,Electric Organ
314.0,0.12,47,105,Electric Organ
314.0,0.12,54,105,Electric Organ
314.0,0.12,47,105,Electric Organ
314.0,0.12,54,105,Electric Organ
314.25,0.12,54,95,Electric Organ
314.25,0.12,47,95,Electric Organ
314.25,0.12,54,95,Electric Organ
314.25,0.12,47,95,Electric Organ
314.5,0.12,35,100,Electric Organ
314.5,0.0,38,99,Electric Organ
314.5,0.0,53,99,Electric Organ
314.5,0.12,47,95,Electric Organ
314.5,0.12,54,95,Electric Organ
314.5,0.12,47,95,Electric Organ
314.5,0.12,54,95,Electric Organ
314.75,0.12,35,100,Electric Organ
314.75,0.0,36,92,Electric Organ
314.75,0.12,54,95,Electric Organ
314.75,0.12,47,95,Electric Organ
314.75,0.12,54,95,Electric Organ
314.75,0.12,47,95,Electric Organ
315.0,0.12,38,110,Electric Organ
315.0,0.0,53,92,Electric Organ
315.0,0.24,81,110,Electric Organ
315.0,0.12,47,105,Electric Organ
315.0,0.12,54,105,Electric Organ
315.0,0.12,47,105,Electric Organ
315.0,0.12,54,105,Electric Organ
315.25,0.24,37,100,Electric Organ
315.25,0.0,36,92,Electric Organ
315.25,0.12,54,95,Electric Organ
315.25,0.12,47,95,Electric Organ
315.25,0.12,54,95,Electric Organ
315.25,0.12,47,95,Electric Organ
315.5,0.0,38,99,Electric Organ
315.5,0.0,53,99,Electric Organ
315.5,0.12,76,100,Electric Organ
315.5,0.12,47,95,Electric Organ
315.5,0.12,54,95,Electric Organ
315.5,0.12,47,95,Electric Organ
315.5,0.12,54,95,Electric Organ
315.75,1.92,64,97,Electric Organ
315.75,1.92,69,97,Electric Organ
315.75,1.92,73,97,Electric Organ
315.75,0.31999999999999995,33,110,Electric Organ
315.75,0.0,36,106,Electric Organ
315.75,0.6,76,110,Electric Organ
315.75,0.31999999999999995,52,105,Electric Organ
315.75,0.31999999999999995,45,105,Electric Organ
315.75,0.31999999999999995,52,105,Electric Organ
315.75,0.31999999999999995,45,105,Electric Organ
316.0,0.0,53,92,Electric Organ
316.25,0.0,36,92,Electric Organ
316.5,0.24,33,100,Electric Organ
316.5,0.0,38,99,Electric Organ
316.5,0.0,53,99,Electric Organ
316.5,0.12,45,95,Electric Organ
316.5,0.12,52,95,Electric Organ
316.5,0.12,45,95,Electric Organ
316.5,0.12,52,95,Electric Organ
316.75,0.12,52,95,Electric Organ
316.75,0.12,45,95,Electric Organ
316.75,0.12,52,95,Electric Organ
316.75,0.12,45,95,Electric Organ
317.0,0.12,28,100,Electric Organ
317.0,0.0,36,99,Electric Organ
317.0,0.0,53,99,Electric Organ
317.0,0.12,74,100,Electric Organ
317.0,0.12,45,105,Electric Organ
317.0,0.12,52,105,Electric Organ
317.0,0.12,45,105,Electric Organ
317.0,0.12,52,105,Electric Organ
317.25,0.31999999999999995,33,110,Electric Organ
317.25,0.0,36,92,Electric Organ
317.25,0.12,76,110,Electric Organ
317.25,0.12,52,95,Electric Organ
317.25,0.12,45,95,Electric Organ
317.25,0.12,52,95,Electric Organ
317.25,0.12,45,95,Electric Organ
317.5,0.0,38,99,Electric Organ
317.5,0.0,53,99,Electric Organ
317.5,0.12,45,95,Electric Organ
317.5,0.12,52,95,Electric Organ
317.5,0.12,45,95,Electric Organ
317.5,0.12,52,95,Electric Organ
317.75,0.84,71,110,Electric Organ
317.75,0.12,52,95,Electric Organ
317.75,0.12,45,95,Electric Organ
317.75,0.12,52,95,Electric Organ
317.75,0.12,45,95,Electric Organ
318.0,0.24,33,110,Electric Organ
318.0,0.0,36,99,Electric Organ
318.0,0.0,53,99,Electric Organ
318.0,0.24,45,110,Electric Organ
318.0,0.24,45,110,Electric Organ
318.25,0.24,52,110,Electric Organ
318.25,0.24,52,110,Electric Organ
318.5,0.12,35,100,Electric Organ
318.5,0.0,38,99,Electric Organ
318.5,0.0,53,99,Electric Organ
318.75,0.12,35,100,Electric Organ
318.75,0.0,36,92,Electric Organ
318.75,0.24,45,110,Electric Organ
318.75,0.24,45,110,Electric Organ
319.0,0.12,38,110,Electric Organ
319.0,0.0,53,92,Electric Organ
319.0,0.24,52,110,Electric Organ
319.0,0.24,52,110,Electric Organ
319.25,0.24,37,100,Electric Organ
319.25,0.0,36,92,Electric Organ
319.5,0.0,38,99,Electric Organ
319.5,0.0,53,99,Electric Organ
319.5,0.12,45,110,Electric Organ
319.5,0.12,45,110,Electric Organ
319.75,1.92,67,97,Electric Organ
319.75,1.92,71,97,Electric Organ
319.75,1.92,74,97,Electric Organ
319.75,0.31999999999999995,31,110,Electric Organ
319.75,0.0,36,92,Electric Organ
319.75,0.0,49,92,Electric Organ
319.75,0.72,64,110,Electric Organ
319.75,0.31999999999999995,50,110,Electric Organ
319.75,0.31999999999999995,43,110,Electric Organ
319.75,0.31999999999999995,50,110,Electric Organ
319.75,0.31999999999999995,43,110,Electric Organ
320.25,0.0,36,92,Electric Organ
320.5,0.24,31,100,Electric Organ
320.5,0.0,38,99,Electric Organ
320.5,0.0,53,99,Electric Organ
320.5,0.12,43,95,Electric Organ
320.5,0.12,50,95,Electric Organ
320.5,0.12,43,95,Electric Organ
320.5,0.12,50,95,Electric Organ
320.75,0.12,50,95,Electric Organ
320.75,0.12,43,95,Electric Organ
320.75,0.12,50,95,Electric Organ
320.75,0.12,43,95,Electric Organ
321.0,0.12,30,100,Electric Organ
321.0,0.0,36,99,Electric Organ
321.0,0.0,53,99,Electric Organ
321.0,0.12,43,105,Electric Organ
321.0,0.12,50,105,Electric Organ
321.0,0.12,43,105,Electric Organ
321.0,0.12,50,105,Electric Organ
321.25,0.31999999999999995,31,110,Electric Organ
321.25,0.0,36,92,Electric Organ
321.25,0.12,66,110,Electric Organ
321.25,0.12,50,95,Electric Organ
321.25,0.12,43,95,Electric Organ
321.25,0.12,50,95,Electric Organ
321.25,0.12,43,95,Electric Organ
321.5,0.0,38,99,Electric Organ
321.5,0.0,53,99,Electric Organ
321.5,0.12,69,120,Electric Organ
321.5,0.12,43,95,Electric Organ
321.5,0.12,50,95,Electric Organ
321.5,0.12,43,95,Electric Organ
321.5,0.12,50,95,Electric Organ
321.75,0.12,64,110,Electric Organ
321.75,0.12,50,95,Electric Organ
321.75,0.12,43,95,Electric Organ
321.75,0.12,50,95,Electric Organ
321.75,0.12,43,95,Electric Organ
322.0,0.24,33,110,Electric Organ
322.0,0.0,36,99,Electric Organ
322.0,0.0,53,99,Electric Organ
322.0,0.12,66,120,Electric Organ
322.0,0.12,43,105,Electric Organ
322.0,0.12,50,105,Electric Organ
322.0,0.12,43,105,Electric Organ
322.0,0.12,50,105,Electric Organ
322.25,0.24,64,110,Electric Organ
322.25,0.12,50,95,Electric Organ
322.25,0.12,43,95,Electric Organ
322.25,0.12,50,95,Electric Organ
322.25,0.12,43,95,Electric Organ
322.5,0.12,35,100,Electric Organ
322.5,0.0,38,99,Electric Organ
322.5,0.0,53,99,Electric Organ
322.5,0.12,43,95,Electric Organ
322.5,0.12,50,95,Electric Organ
322.5,0.12,43,95,Electric Organ
322.5,0.12,50,95,Electric Organ
322.75,0.12,35,100,Electric Organ
322.75,0.0,36,92,Electric Organ
322.75,0.12,59,110,Electric Organ
322.75,0.12,50,95,Electric Organ
322.75,0.12,43,95,Electric Organ
322.75,0.12,50,95,Electric Organ
322.75,0.12,43,95,Electric Organ
323.0,0.12,38,110,Electric Organ
323.0,0.0,53,92,Electric Organ
323.0,0.24,62,120,Electric Organ
323.0,0.12,43,105,Electric Organ
323.0,0.12,50,105,Electric Organ
323.0,0.12,43,105,Electric Organ
323.0,0.12,50,105,Electric Organ
323.25,0.24,37,100,Electric Organ
323.25,0.0,36,92,Electric Organ
323.25,0.12,50,95,Electric Organ
323.25,0.12,43,95,Electric Organ
323.25,0.12,50,95,Electric Organ
323.25,0.12,43,95,Electric Organ
323.5,0.0,38,99,Electric Organ
323.5,0.0,53,99,Electric Organ
323.5,0.24,61,120,Electric Organ
323.5,0.12,43,95,Electric Organ
323.5,0.12,50,95,Electric Organ
323.5,0.12,43,95,Electric Organ
323.5,0.12,50,95,Electric Organ
323.75,1.92,64,97,Electric Organ
323.75,1.92,69,97,Electric Organ
323.75,1.92,73,97,Electric Organ
323.75,0.24,33,110,Electric Organ
323.75,0.0,36,106,Electric Organ
323.75,0.31999999999999995,52,105,Electric Organ
323.75,0.31999999999999995,45,105,Electric Organ
323.75,0.31999999999999995,52,105,Electric Organ
323.75,0.31999999999999995,45,105,Electric Organ
324.0,0.0,53,92,Electric Organ
324.0,0.24,59,120,Electric Organ
324.25,0.12,38,100,Electric Organ
324.25,0.0,36,92,Electric Organ
324.5,0.12,37,100,Electric Organ
324.5,0.0,38,99,Electric Organ
324.5,0.0,53,99,Electric Organ
324.5,0.24,61,120,Electric Organ
324.5,0.12,45,95,Electric Organ
324.5,0.12,52,95,Electric Organ
324.5,0.12,45,95,Electric Organ
324.5,0.12,52,95,Electric Organ
324.75,0.12,38,110,Electric Organ
324.75,0.12,52,95,Electric Organ
324.75,0.12,45,95,Electric Organ
324.75,0.12,52,95,Electric Organ
324.75,0.12,45,95,Electric Organ
325.0,0.12,40,110,Electric Organ
325.0,0.0,36,99,Electric Organ
325.0,0.0,53,99,Electric Organ
325.0,0.24,59,120,Electric Organ
325.0,0.12,45,105,Electric Organ
325.0,0.12,52,105,Electric Organ
325.0,0.12,45,105,Electric Organ
325.0,0.12,52,105,Electric Organ
325.25,0.12,38,100,Electric Organ
325.25,0.0,36,92,Electric Organ
325.25,0.12,52,95,Electric Organ
325.25,0.12,45,95,Electric Organ
325.25,0.12,52,95,Electric Organ
325.25,0.12,45,95,Electric Organ
325.5,0.12,42,100,Electric Organ
325.5,0.0,38,99,Electric Organ
325.5,0.0,53,99,Electric Organ
325.5,0.24,57,120,Electric Organ
325.5,0.12,45,95,Electric Organ
325.5,0.12,52,95,Electric Organ
325.5,0.12,45,95,Electric Organ
325.5,0.12,52,95,Electric Organ
325.75,0.12,40,110,Electric Organ
325.75,0.12,52,95,Electric Organ
325.75,0.12,45,95,Electric Organ
325.75,0.12,52,95,Electric Organ
325.75,0.12,45,95,Electric Organ
326.0,0.12,38,100,Electric Organ
326.0,0.0,36,99,Electric Organ
326.0,0.0,53,99,Electric Organ
326.0,0.24,56,110,Electric Organ
326.0,0.24,45,110,Electric Organ
326.0,0.24,45,110,Electric Organ
326.25,0.12,37,110,Electric Organ
326.25,0.24,52,110,Electric Organ
326.25,0.24,52,110,Electric Organ
326.5,0.12,35,100,Electric Organ
326.5,0.0,38,99,Electric Organ
326.5,0.0,53,99,Electric Organ
326.5,0.6,56,120,Electric Organ
326.75,0.12,38,110,Electric Organ
326.75,0.0,36,92,Electric Organ
326.75,0.24,45,110,Electric Organ
326.75,0.24,45,110,Electric Organ
327.0,0.12,37,100,Electric Organ
327.0,0.0,53,92,Electric Organ
327.0,0.24,52,110,Electric Organ
327.0,0.24,52,110,Electric Organ
327.25,0.12,35,110,Electric Organ
327.25,0.0,36,92,Electric Organ
327.5,0.12,33,100,Electric Organ
327.5,0.0,38,99,Electric Organ
327.5,0.0,53,99,Electric Organ
327.5,0.12,45,110,Electric Organ
327.5,0.12,45,110,Electric Organ
327.75,1.92,71,97,Electric Organ
327.75,1.92,74,97,Electric Organ
327.75,1.92,66,97,Electric Organ
327.75,0.31999999999999995,35,110,Electric Organ
327.75,0.0,36,92,Electric Organ
327.75,0.0,49,92,Electric Organ
327.75,0.8,71,120,Electric Organ
327.75,0.31999999999999995,54,110,Electric Organ
327.75,0.31999999999999995,47,110,Electric Organ
327.75,0.31999999999999995,54,110,Electric Organ
327.75,0.31999999999999995,47,110,Electric Organ
328.25,0.0,36,92,Electric Organ
328.5,0.24,35,100,Electric Organ
328.5,0.0,38,99,Electric Organ
328.5,0.0,53,99,Electric Organ
328.5,0.12,47,95,Electric Organ
328.5,0.12,54,95,Electric Organ
328.5,0.12,47,95,Electric Organ
328.5,0.12,54,95,Electric Organ
328.75,0.12,54,95,Electric Organ
328.75,0.12,47,95,Electric Organ
328.75,0.12,54,95,Electric Organ
328.75,0.12,47,95,Electric Organ
329.0,0.12,30,100,Electric Organ
329.0,0.0,36,99,Electric Organ
329.0,0.0,53,99,Electric Organ
329.0,0.12,47,105,Electric Organ
329.0,0.12,54,105,Electric Organ
329.0,0.12,47,105,Electric Organ
329.0,0.12,54,105,Electric Organ
329.25,0.31999999999999995,33,110,Electric Organ
329.25,0.0,36,92,Electric Organ
329.25,0.12,54,95,Electric Organ
329.25,0.12,47,95,Electric Organ
329.25,0.12,54,95,Electric Organ
329.25,0.12,47,95,Electric Organ
329.5,0.0,38,99,Electric Organ
329.5,0.0,53,99,Electric Organ
329.5,0.6399999999999999,73,120,Electric Organ
329.5,0.12,47,95,Electric Organ
329.5,0.12,54,95,Electric Organ
329.5,0.12,47,95,Electric Organ
329.5,0.12,54,95,Electric Organ
329.75,0.12,54,95,Electric Organ
329.75,0.12,47,95,Electric Organ
329.75,0.12,54,95,Electric Organ
329.75,0.12,47,95,Electric Organ
330.0,0.24,33,110,Electric Organ
330.0,0.0,36,99,Electric Organ
330.0,0.0,53,99,Electric Organ
330.0,0.12,47,105,Electric Organ
330.0,0.12,54,105,Electric Organ
330.0,0.12,47,105,Electric Organ
330.0,0.12,54,105,Electric Organ
330.25,0.12,54,95,Electric Organ
330.25,0.12,47,95,Electric Organ
330.25,0.12,54,95,Electric Organ
330.25,0.12,47,95,Electric Organ
330.5,0.12,35,100,Electric Organ
330.5,0.0,38,99,Electric Organ
330.5,0.0,53,99,Electric Organ
330.5,0.12,47,95,Electric Organ
330.5,0.12,54,95,Electric Organ
330.5,0.12,47,95,Electric Organ
330.5,0.12,54,95,Electric Organ
330.75,0.12,35,100,Electric Organ
330.75,0.0,36,92,Electric Organ
330.75,0.12,54,95,Electric Organ
330.75,0.12,47,95,Electric Organ
330.75,0.12,54,95,Electric Organ
330.75,0.12,47,95,Electric Organ
331.0,0.12,38,110,Electric Organ
331.0,0.0,53,92,Electric Organ
331.0,0.6,74,120,Electric Organ
331.0,0.12,47,105,Electric Organ
331.0,0.12,54,105,Electric Organ
331.0,0.12,47,105,Electric Organ
331.0,0.12,54,105,Electric Organ
331.25,0.24,37,100,Electric Organ
331.25,0.0,36,92,Electric Organ
331.25,0.12,54,95,Electric Organ
331.25,0.12,47,95,Electric Organ
331.25,0.12,54,95,Electric Organ
331.25,0.12,47,95,Electric Organ
331.5,0.0,38,99,Electric Organ
331.5,0.0,53,99,Electric Organ
331.5,0.12,47,95,Electric Organ
331.5,0.12,54,95,Electric Organ
331.5,0.12,47,95,Electric Organ
331.5,0.12,54,95,Electric Organ
331.75,1.92,64,97,Electric Organ
331.75,1.92,69,97,Electric Organ
331.75,1.92,73,97,Electric Organ
331.75,0.31999999999999995,33,110,Electric Organ
331.75,0.0,36,106,Electric Organ
331.75,0.31999999999999995,52,105,Electric Organ
331.75,0.31999999999999995,45,105,Electric Organ
331.75,0.31999999999999995,52,105,Electric Organ
331.75,0.31999999999999995,45,105,Electric Organ
332.0,0.0,53,92,Electric Organ
332.25,0.0,36,92,Electric Organ
332.25,0.12,74,110,Electric Organ
332.5,0.24,33,100,Electric Organ
332.5,0.0,38,99,Electric Organ
332.5,0.0,53,99,Electric Organ
332.5,0.12,76,120,Electric Organ
332.5,0.12,45,95,Electric Organ
332.5,0.12,52,95,Electric Organ
332.5,0.12,45,95,Electric Organ
332.5,0.12,52,95,Electric Organ
332.75,0.12,73,110,Electric Organ
332.75,0.12,52,95,Electric Organ
332.75,0.12,45,95,Electric Organ
332.75,0.12,52,95,Electric Organ
332.75,0.12,45,95,Electric Organ
333.0,0.12,28,100,Electric Organ
333.0,0.0,36,99,Electric Organ
333.0,0.0,53,99,Electric Organ
333.0,0.12,74,120,Electric Organ
333.0,0.12,45,105,Electric Organ
333.0,0.12,52,105,Electric Organ
333.0,0.12,45,105,Electric Organ
333.0,0.12,52,105,Electric Organ
333.25,0.31999999999999995,33,110,Electric Organ
333.25,0.0,36,92,Electric Organ
333.25,0.12,52,95,Electric Organ
333.25,0.12,45,95,Electric Organ
333.25,0.12,52,95,Electric Organ
333.25,0.12,45,95,Electric Organ
333.3333333333333,0.12,76,120,Electric Organ
333.5,0.0,38,99,Electric Organ
333.5,0.0,53,99,Electric Organ
333.5,0.12,45,95,Electric Organ
333.5,0.12,52,95,Electric Organ
333.5,0.12,45,95,Electric Organ
333.5,0.12,52,95,Electric Organ
333.6666666666667,0.12,78,120,Electric Organ
333.75,0.12,52,95,Electric Organ
333.75,0.12,45,95,Electric Organ
333.75,0.12,52,95,Electric Organ
333.75,0.12,45,95,Electric Organ
334.0,0.24,33,110,Electric Organ
334.0,0.0,36,99,Electric Organ
334.0,0.0,53,99,Electric Organ
334.0,0.24,76,120,Electric Organ
334.0,0.24,45,110,Electric Organ
334.0,0.24,45,110,Electric Organ
334.25,0.24,52,110,Electric Organ
334.25,0.24,52,110,Electric Organ
334.5,0.12,35,100,Electric Organ
334.5,0.0,38,99,Electric Organ
334.5,0.0,53,99,Electric Organ
334.5,0.12,74,120,Electric Organ
334.75,0.12,35,100,Electric Organ
334.75,0.0,36,92,Electric Organ
334.75,0.12,76,120,Electric Organ
334.75,0.24,45,110,Electric Organ
334.75,0.24,45,110,Electric Organ
335.0,0.12,38,110,Electric Organ
335.0,0.0,53,92,Electric Organ
335.0,0.24,52,110,Electric Organ
335.0,0.24,52,110,Electric Organ
335.25,0.24,37,100,Electric Organ
335.25,0.0,36,92,Electric Organ
335.25,0.12,78,120,Electric Organ
335.5,0.0,38,99,Electric Organ
335.5,0.0,53,99,Electric Organ
335.5,0.24,76,120,Electric Organ
335.5,0.12,45,110,Electric Organ
335.5,0.12,45,110,Electric Organ
335.75,1.92,67,97,Electric Organ
335.75,1.92,71,97,Electric Organ
335.75,1.92,74,97,Electric Organ
335.75,0.31999999999999995,31,110,Electric Organ
335.75,0.0,36,92,Electric Organ
335.75,0.0,49,92,Electric Organ
335.75,0.31999999999999995,50,110,Electric Organ
335.75,0.31999999999999995,43,110,Electric Organ
335.75,0.31999999999999995,50,110,Electric Organ
335.75,0.31999999999999995,43,110,Electric Organ
336.0,0.36,74,120,Electric Organ
336.25,0.0,36,92,Electric Organ
336.5,0.24,31,100,Electric Organ
336.5,0.0,38,99,Electric Organ
336.5,0.0,53,99,Electric Organ
336.5,0.12,43,95,Electric Organ
336.5,0.12,50,95,Electric Organ
336.5,0.12,43,95,Electric Organ
336.5,0.12,50,95,Electric Organ
336.75,0.36,74,120,Electric Organ
336.75,0.12,50,95,Electric Organ
336.75,0.12,43,95,Electric Organ
336.75,0.12,50,95,Electric Organ
336.75,0.12,43,95,Electric Organ
337.0,0.12,30,100,Electric Organ
337.0,0.0,36,99,Electric Organ
337.0,0.0,53,99,Electric Organ
337.0,0.12,43,105,Electric Organ
337.0,0.12,50,105,Electric Organ
337.0,0.12,43,105,Electric Organ
337.0,0.12,50,105,Electric Organ
337.25,0.31999999999999995,31,110,Electric Organ
337.25,0.0,36,92,Electric Organ
337.25,0.12,50,95,Electric Organ
337.25,0.12,43,95,Electric Organ
337.25,0.12,50,95,Electric Organ
337.25,0.12,43,95,Electric Organ
337.5,0.0,38,99,Electric Organ
337.5,0.0,53,99,Electric Organ
337.5,0.36,74,120,Electric Organ
337.5,0.12,43,95,Electric Organ
337.5,0.12,50,95,Electric Organ
337.5,0.12,43,95,Electric Organ
337.5,0.12,50,95,Electric Organ
337.75,0.12,50,95,Electric Organ
337.75,0.12,43,95,Electric Organ
337.75,0.12,50,95,Electric Organ
337.75,0.12,43,95,Electric Organ
338.0,0.24,33,110,Electric Organ
338.0,0.0,36,99,Electric Organ
338.0,0.0,53,99,Electric Organ
338.0,0.12,43,105,Electric Organ
338.0,0.12,50,105,Electric Organ
338.0,0.12,43,105,Electric Organ
338.0,0.12,50,105,Electric Organ
338.25,0.36,74,120,Electric Organ
338.25,0.12,50,95,Electric Organ
338.25,0.12,43,95,Electric Organ
338.25,0.12,50,95,Electric Organ
338.25,0.12,43,95,Electric Organ
338.5,0.12,35,100,Electric Organ
338.5,0.0,38,99,Electric Organ
338.5,0.0,53,99,Electric Organ
338.5,0.12,43,95,Electric Organ
338.5,0.12,50,95,Electric Organ
338.5,0.12,43,95,Electric Organ
338.5,0.12,50,95,Electric Organ
338.75,0.12,35,100,Electric Organ
338.75,0.0,36,92,Electric Organ
338.75,0.12,50,95,Electric Organ
338.75,0.12,43,95,Electric Organ
338.75,0.12,50,95,Electric Organ
338.75,0.12,43,95,Electric Organ
339.0,0.12,38,110,Electric Organ
339.0,0.0,53,92,Electric Organ
339.0,0.36,74,120,Electric Organ
339.0,0.12,43,105,Electric Organ
339.0,0.12,50,105,Electric Organ
339.0,0.12,43,105,Electric Organ
339.0,0.12,50,105,Electric Organ
339.25,0.24,37,100,Electric Organ
339.25,0.0,36,92,Electric Organ
339.25,0.12,50,95,Electric Organ
339.25,0.12,43,95,Electric Organ
339.25,0.12,50,95,Electric Organ
339.25,0.12,43,95,Electric Organ
339.5,0.0,38,99,Electric Organ
339.5,0.0,53,99,Electric Organ
339.5,0.12,43,95,Electric Organ
339.5,0.12,50,95,Electric Organ
339.5,0.12,43,95,Electric Organ
339.5,0.12,50,95,Electric Organ
339.75,1.56,64,97,Electric Organ
339.75,1.56,69,97,Electric Organ
339.75,1.56,73,97,Electric Organ
339.75,0.31999999999999995,33,110,Electric Organ
339.75,0.0,36,106,Electric Organ
339.75,0.0,81,120,Electric Organ
339.75,0.0,81,120,Electric Organ
339.75,0.31999999999999995,52,105,Electric Organ
339.75,0.31999999999999995,45,105,Electric Organ
339.75,0.31999999999999995,52,105,Electric Organ
339.75,0.31999999999999995,45,105,Electric Organ
340.0,0.0,53,92,Electric Organ
340.0,0.0,81,120,Electric Organ
340.0,0.0,81,120,Electric Organ
340.25,0.0,36,92,Electric Organ
340.25,0.0,81,120,Electric Organ
340.3333333333333,0.0,81,120,Electric Organ
340.5,0.24,33,100,Electric Organ
340.5,0.0,38,99,Electric Organ
340.5,0.0,53,99,Electric Organ
340.5,0.12,81,110,Electric Organ
340.5,0.12,45,95,Electric Organ
340.5,0.12,52,95,Electric Organ
340.5,0.12,45,95,Electric Organ
340.5,0.12,52,95,Electric Organ
340.6666666666667,0.12,79,110,Electric Organ
340.75,0.12,78,100,Electric Organ
340.75,0.12,52,95,Electric Organ
340.75,0.12,45,95,Electric Organ
340.75,0.12,52,95,Electric Organ
340.75,0.12,45,95,Electric Organ
341.0,0.12,30,100,Electric Organ
341.0,0.0,36,99,Electric Organ
341.0,0.0,53,99,Electric Organ
341.0,0.0,81,120,Electric Organ
341.0,0.0,81,120,Electric Organ
341.0,0.12,45,105,Electric Organ
341.0,0.12,52,105,Electric Organ
341.0,0.12,45,105,Electric Organ
341.0,0.12,52,105,Electric Organ
341.25,0.31999999999999995,33,110,Electric Organ
341.25,0.0,36,92,Electric Organ
341.25,0.0,81,120,Electric Organ
341.25,0.12,52,95,Electric Organ
341.25,0.12,45,95,Electric Organ
341.25,0.12,52,95,Electric Organ
341.25,0.12,45,95,Electric Organ
341.3333333333333,0.0,81,120,Electric Organ
341.5,0.0,38,99,Electric Organ
341.5,0.0,53,99,Electric Organ
341.5,0.12,81,110,Electric Organ
341.5,0.12,45,95,Electric Organ
341.5,0.12,52,95,Electric Organ
341.5,0.12,45,95,Electric Organ
341.5,0.12,52,95,Electric Organ
341.6666666666667,0.12,79,100,Electric Organ
341.75,0.12,78,100,Electric Organ
341.75,0.12,52,95,Electric Organ
341.75,0.12,45,95,Electric Organ
341.75,0.12,52,95,Electric Organ
341.75,0.12,45,95,Electric Organ
342.0,0.24,33,110,Electric Organ
342.0,0.0,36,99,Electric Organ
342.0,0.0,53,99,Electric Organ
342.0,0.72,83,120,Electric Organ
342.0,0.12,45,105,Electric Organ
342.0,0.12,52,105,Electric Organ
342.0,0.12,45,105,Electric Organ
342.0,0.12,52,105,Electric Organ
342.25,0.0,38,106,Electric Organ
342.25,0.12,52,95,Electric Organ
342.25,0.12,45,95,Electric Organ
342.25,0.12,52,95,Electric Organ
342.25,0.12,45,95,Electric Organ
342.5,0.12,35,100,Electric Organ
342.5,0.0,48,106,Electric Organ
342.5,0.12,45,95,Electric Organ
342.5,0.12,52,95,Electric Organ
342.5,0.12,45,95,Electric Organ
342.5,0.12,52,95,Electric Organ
342.75,0.12,35,100,Electric Organ
342.75,0.0,45,106,Electric Organ
342.75,0.12,52,95,Electric Organ
342.75,0.12,45,95,Electric Organ
342.75,0.12,52,95,Electric Organ
342.75,0.12,45,95,Electric Organ
343.0,0.12,57,95,Electric Organ
343.0,0.12,69,95,Electric Organ
343.0,0.12,35,110,Electric Organ
343.0,0.0,41,106,Electric Organ
343.0,0.12,45,110,Electric Organ
343.0,0.12,52,110,Electric Organ
343.0,0.12,45,110,Electric Organ
343.0,0.12,52,110,Electric Organ
343.25,0.12,56,95,Electric Organ
343.25,0.12,68,95,Electric Organ
343.25,0.12,33,100,Electric Organ
343.25,0.0,41,92,Electric Organ
343.25,0.12,44,110,Electric Organ
343.25,0.12,51,110,Electric Organ
343.25,0.12,44,110,Electric Organ
343.25,0.12,51,110,Electric Organ
343.75,1.92,62,93,Electric Organ
343.75,1.92,67,93,Electric Organ
343.75,1.92,71,93,Electric Organ
343.75,0.24,31,110,Electric Organ
343.75,0.0,49,92,Electric Organ
343.75,0.0,36,92,Electric Organ
343.75,0.24,74,120,Electric Organ
343.75,0.24,71,120,Electric Organ
343.75,0.31999999999999995,50,110,Electric Organ
343.75,0.31999999999999995,43,110,Electric Organ
343.75,0.31999999999999995,50,110,Electric Organ
343.75,0.31999999999999995,43,110,Electric Organ
344.25,0.12,31,100,Electric Organ
344.25,0.0,36,92,Electric Organ
344.25,0.12,71,110,Electric Organ
344.25,0.12,67,110,Electric Organ
344.5,0.24,31,100,Electric Organ
344.5,0.0,38,99,Electric Organ
344.5,0.0,53,99,Electric Organ
344.5,0.12,67,109,Electric Organ
344.5,0.12,62,109,Electric Organ
344.5,0.12,43,95,Electric Organ
344.5,0.12,50,95,Electric Organ
344.5,0.12,43,95,Electric Organ
344.5,0.12,50,95,Electric Organ
344.75,0.12,71,120,Electric Organ
344.75,0.12,67,120,Electric Organ
344.75,0.12,50,95,Electric Organ
344.75,0.12,43,95,Electric Organ
344.75,0.12,50,95,Electric Organ
344.75,0.12,43,95,Electric Organ
345.0,0.12,31,110,Electric Organ
345.0,0.0,36,99,Electric Organ
345.0,0.0,53,99,Electric Organ
345.0,0.12,74,120,Electric Organ
345.0,0.12,71,120,Electric Organ
345.0,0.12,43,105,Electric Organ
345.0,0.12,50,105,Electric Organ
345.0,0.12,43,105,Electric Organ
345.0,0.12,50,105,Electric Organ
345.25,0.12,31,100,Electric Organ
345.25,0.0,36,92,Electric Organ
345.25,0.12,71,110,Electric Organ
345.25,0.12,67,110,Electric Organ
345.25,0.12,50,95,Electric Organ
345.25,0.12,43,95,Electric Organ
345.25,0.12,50,95,Electric Organ
345.25,0.12,43,95,Electric Organ
345.5,0.24,31,100,Electric Organ
345.5,0.0,38,99,Electric Organ
345.5,0.0,53,99,Electric Organ
345.5,0.12,67,109,Electric Organ
345.5,0.12,62,109,Electric Organ
345.5,0.12,43,95,Electric Organ
345.5,0.12,50,95,Electric Organ
345.5,0.12,43,95,Electric Organ
345.5,0.12,50,95,Electric Organ
345.75,0.12,71,120,Electric Organ
345.75,0.12,67,120,Electric Organ
345.75,0.12,50,95,Electric Organ
345.75,0.12,43,95,Electric Organ
345.75,0.12,50,95,Electric Organ
345.75,0.12,43,95,Electric Organ
346.0,0.24,31,110,Electric Organ
346.0,0.0,36,99,Electric Organ
346.0,0.0,53,99,Electric Organ
346.0,0.12,74,120,Electric Organ
346.0,0.12,71,120,Electric Organ
346.0,0.12,43,105,Electric Organ
346.0,0.12,50,105,Electric Organ
346.0,0.12,43,105,Electric Organ
346.0,0.12,50,105,Electric Organ
346.25,0.12,71,110,Electric Organ
346.25,0.12,67,110,Electric Organ
346.25,0.12,50,95,Electric Organ
346.25,0.12,43,95,Electric Organ
346.25,0.12,50,95,Electric Organ
346.25,0.12,43,95,Electric Organ
346.5,0.12,31,100,Electric Organ
346.5,0.0,38,99,Electric Organ
346.5,0.0,53,99,Electric Organ
346.5,0.12,67,109,Electric Organ
346.5,0.12,62,109,Electric Organ
346.5,0.12,43,95,Electric Organ
346.5,0.12,50,95,Electric Organ
346.5,0.12,43,95,Electric Organ
346.5,0.12,50,95,Electric Organ
346.75,0.12,31,100,Electric Organ
346.75,0.0,36,92,Electric Organ
346.75,0.12,71,120,Electric Organ
346.75,0.12,67,120,Electric Organ
346.75,0.12,50,95,Electric Organ
346.75,0.12,43,95,Electric Organ
346.75,0.12,50,95,Electric Organ
346.75,0.12,43,95,Electric Organ
347.0,0.12,31,110,Electric Organ
347.0,0.0,53,92,Electric Organ
347.0,0.12,74,120,Electric Organ
347.0,0.12,71,120,Electric Organ
347.0,0.12,43,105,Electric Organ
347.0,0.12,50,105,Electric Organ
347.0,0.12,43,105,Electric Organ
347.0,0.12,50,105,Electric Organ
347.25,0.12,31,100,Electric Organ
347.25,0.0,36,92,Electric Organ
347.25,0.12,71,110,Electric Organ
347.25,0.12,67,110,Electric Organ
347.25,0.12,50,95,Electric Organ
347.25,0.12,43,95,Electric Organ
347.25,0.12,50,95,Electric Organ
347.25,0.12,43,95,Electric Organ
347.5,0.12,31,100,Electric Organ
347.5,0.0,38,106,Electric Organ
347.5,0.12,43,95,Electric Organ
347.5,0.12,50,95,Electric Organ
347.5,0.12,43,95,Electric Organ
347.5,0.12,50,95,Electric Organ
347.75,1.92,64,97,Electric Organ
347.75,1.92,69,97,Electric Organ
347.75,1.92,73,97,Electric Organ
347.75,0.24,33,110,Electric Organ
347.75,0.0,36,92,Electric Organ
347.75,0.0,57,92,Electric Organ
347.75,0.24,76,120,Electric Organ
347.75,0.24,73,120,Electric Organ
347.75,0.31999999999999995,52,105,Electric Organ
347.75,0.31999999999999995,45,105,Electric Organ
347.75,0.31999999999999995,52,105,Electric Organ
347.75,0.31999999999999995,45,105,Electric Organ
348.0,0.0,53,92,Electric Organ
348.25,0.12,33,100,Electric Organ
348.25,0.0,36,92,Electric Organ
348.25,0.12,73,110,Electric Organ
348.25,0.12,69,110,Electric Organ
348.5,0.24,33,100,Electric Organ
348.5,0.0,38,99,Electric Organ
348.5,0.0,53,99,Electric Organ
348.5,0.12,69,109,Electric Organ
348.5,0.12,64,109,Electric Organ
348.5,0.12,45,95,Electric Organ
348.5,0.12,52,95,Electric Organ
348.5,0.12,45,95,Electric Organ
348.5,0.12,52,95,Electric Organ
348.75,0.12,73,120,Electric Organ
348.75,0.12,69,120,Electric Organ
348.75,0.12,52,95,Electric Organ
348.75,0.12,45,95,Electric Organ
348.75,0.12,52,95,Electric Organ
348.75,0.12,45,95,Electric Organ
349.0,0.12,33,110,Electric Organ
349.0,0.0,36,99,Electric Organ
349.0,0.0,53,99,Electric Organ
349.0,0.12,76,120,Electric Organ
349.0,0.12,73,120,Electric Organ
349.0,0.12,45,105,Electric Organ
349.0,0.12,52,105,Electric Organ
349.0,0.12,45,105,Electric Organ
349.0,0.12,52,105,Electric Organ
349.25,0.12,33,100,Electric Organ
349.25,0.0,36,92,Electric Organ
349.25,0.12,73,110,Electric Organ
349.25,0.12,69,110,Electric Organ
349.25,0.12,52,95,Electric Organ
349.25,0.12,45,95,Electric Organ
349.25,0.12,52,95,Electric Organ
349.25,0.12,45,95,Electric Organ
349.5,0.24,33,100,Electric Organ
349.5,0.0,38,99,Electric Organ
349.5,0.0,53,99,Electric Organ
349.5,0.12,69,109,Electric Organ
349.5,0.12,64,109,Electric Organ
349.5,0.12,45,95,Electric Organ
349.5,0.12,52,95,Electric Organ
349.5,0.12,45,95,Electric Organ
349.5,0.12,52,95,Electric Organ
349.75,0.12,73,120,Electric Organ
349.75,0.12,69,120,Electric Organ
349.75,0.12,52,95,Electric Organ
349.75,0.12,45,95,Electric Organ
349.75,0.12,52,95,Electric Organ
349.75,0.12,45,95,Electric Organ
350.0,0.24,33,110,Electric Organ
350.0,0.0,36,99,Electric Organ
350.0,0.0,53,99,Electric Organ
350.0,0.12,76,120,Electric Organ
350.0,0.12,73,120,Electric Organ
350.0,0.12,45,105,Electric Organ
350.0,0.12,52,105,Electric Organ
350.0,0.12,45,105,Electric Organ
350.0,0.12,52,105,Electric Organ
350.25,0.12,73,110,Electric Organ
350.25,0.12,69,110,Electric Organ
350.25,0.12,52,95,Electric Organ
350.25,0.12,45,95,Electric Organ
350.25,0.12,52,95,Electric Organ
350.25,0.12,45,95,Electric Organ
350.5,0.12,33,100,Electric Organ
350.5,0.0,38,99,Electric Organ
350.5,0.0,53,99,Electric Organ
350.5,0.12,69,109,Electric Organ
350.5,0.12,64,109,Electric Organ
350.5,0.12,45,95,Electric Organ
350.5,0.12,52,95,Electric Organ
350.5,0.12,45,95,Electric Organ
350.5,0.12,52,95,Electric Organ
350.75,0.12,33,100,Electric Organ
350.75,0.0,36,92,Electric Organ
350.75,0.12,73,120,Electric Organ
350.75,0.12,69,120,Electric Organ
350.75,0.12,52,95,Electric Organ
350.75,0.12,45,95,Electric Organ
350.75,0.12,52,95,Electric Organ
350.75,0.12,45,95,Electric Organ
351.0,0.12,33,110,Electric Organ
351.0,0.0,53,92,Electric Organ
351.0,0.12,76,120,Electric Organ
351.0,0.12,73,120,Electric Organ
351.0,0.12,45,105,Electric Organ
351.0,0.12,52,105,Electric Organ
351.0,0.12,45,105,Electric Organ
351.0,0.12,52,105,Electric Organ
351.25,0.12,33,100,Electric Organ
351.25,0.0,36,92,Electric Organ
351.25,0.12,73,110,Electric Organ
351.25,0.12,69,110,Electric Organ
351.25,0.12,52,95,Electric Organ
351.25,0.12,45,95,Electric Organ
351.25,0.12,52,95,Electric Organ
351.25,0.12,45,95,Electric Organ
351.5,0.12,33,100,Electric Organ
351.5,0.0,38,99,Electric Organ
351.5,0.0,53,99,Electric Organ
351.5,0.12,45,95,Electric Organ
351.5,0.12,52,95,Electric Organ
351.5,0.12,45,95,Electric Organ
351.5,0.12,52,95,Electric Organ
351.75,1.92,66,97,Electric Organ
351.75,1.92,70,97,Electric Organ
351.75,1.92,73,97,Electric Organ
351.75,0.24,34,110,Electric Organ
351.75,0.0,36,92,Electric Organ
351.75,0.0,49,92,Electric Organ
351.75,0.24,76,120,Electric Organ
351.75,0.24,73,120,Electric Organ
351.75,0.31999999999999995,54,105,Electric Organ
351.75,0.31999999999999995,46,105,Electric Organ
351.75,0.31999999999999995,54,105,Electric Organ
351.75,0.31999999999999995,46,105,Electric Organ
352.25,0.12,34,100,Electric Organ
352.25,0.0,36,92,Electric Organ
352.25,0.12,73,110,Electric Organ
352.25,0.12,70,110,Electric Organ
352.5,0.24,34,100,Electric Organ
352.5,0.0,38,99,Electric Organ
352.5,0.0,53,99,Electric Organ
352.5,0.12,70,109,Electric Organ
352.5,0.12,64,109,Electric Organ
352.5,0.12,46,95,Electric Organ
352.5,0.12,54,95,Electric Organ
352.5,0.12,46,95,Electric Organ
352.5,0.12,54,95,Electric Organ
352.75,0.12,73,120,Electric Organ
352.75,0.12,70,120,Electric Organ
352.75,0.12,54,95,Electric Organ
352.75,0.12,46,95,Electric Organ
352.75,0.12,54,95,Electric Organ
352.75,0.12,46,95,Electric Organ
353.0,0.12,34,110,Electric Organ
353.0,0.0,36,99,Electric Organ
353.0,0.0,53,99,Electric Organ
353.0,0.12,76,120,Electric Organ
353.0,0.12,73,120,Electric Organ
353.0,0.12,46,105,Electric Organ
353.0,0.12,54,105,Electric Organ
353.0,0.12,46,105,Electric Organ
353.0,0.12,54,105,Electric Organ
353.25,0.12,34,100,Electric Organ
353.25,0.0,36,92,Electric Organ
353.25,0.12,73,110,Electric Organ
353.25,0.12,70,110,Electric Organ
353.25,0.12,54,95,Electric Organ
353.25,0.12,46,95,Electric Organ
353.25,0.12,54,95,Electric Organ
353.25,0.12,46,95,Electric Organ
353.5,0.24,34,100,Electric Organ
353.5,0.0,38,99,Electric Organ
353.5,0.0,53,99,Electric Organ
353.5,0.12,70,109,Electric Organ
353.5,0.12,64,109,Electric Organ
353.5,0.12,46,95,Electric Organ
353.5,0.12,54,95,Electric Organ
353.5,0.12,46,95,Electric Organ
353.5,0.12,54,95,Electric Organ
353.75,0.12,73,120,Electric Organ
353.75,0.12,70,120,Electric Organ
353.75,0.12,54,95,Electric Organ
353.75,0.12,46,95,Electric Organ
353.75,0.12,54,95,Electric Organ
353.75,0.12,46,95,Electric Organ
354.0,0.24,34,110,Electric Organ
354.0,0.0,36,99,Electric Organ
354.0,0.0,53,99,Electric Organ
354.0,0.12,76,120,Electric Organ
354.0,0.12,73,120,Electric Organ
354.0,0.12,46,105,Electric Organ
354.0,0.12,54,105,Electric Organ
354.0,0.12,46,105,Electric Organ
354.0,0.12,54,105,Electric Organ
354.25,0.12,73,110,Electric Organ
354.25,0.12,70,110,Electric Organ
354.25,0.12,54,95,Electric Organ
354.25,0.12,46,95,Electric Organ
354.25,0.12,54,95,Electric Organ
354.25,0.12,46,95,Electric Organ
354.5,0.12,34,100,Electric Organ
354.5,0.0,38,99,Electric Organ
354.5,0.0,53,99,Electric Organ
354.5,0.12,70,109,Electric Organ
354.5,0.12,64,109,Electric Organ
354.5,0.12,46,95,Electric Organ
354.5,0.12,54,95,Electric Organ
354.5,0.12,46,95,Electric Organ
354.5,0.12,54,95,Electric Organ
354.75,0.12,34,100,Electric Organ
354.75,0.0,36,92,Electric Organ
354.75,0.12,73,120,Electric Organ
354.75,0.12,70,120,Electric Organ
354.75,0.12,54,95,Electric Organ
354.75,0.12,46,95,Electric Organ
354.75,0.12,54,95,Electric Organ
354.75,0.12,46,95,Electric Organ
355.0,0.12,34,110,Electric Organ
355.0,0.0,53,92,Electric Organ
355.0,0.12,76,120,Electric Organ
355.0,0.12,73,120,Electric Organ
355.0,0.12,46,105,Electric Organ
355.0,0.12,54,105,Electric Organ
355.0,0.12,46,105,Electric Organ
355.0,0.12,54,105,Electric Organ
355.25,0.12,34,100,Electric Organ
355.25,0.0,36,92,Electric Organ
355.25,0.12,73,110,Electric Organ
355.25,0.12,70,110,Electric Organ
355.25,0.12,54,95,Electric Organ
355.25,0.12,46,95,Electric Organ
355.25,0.12,54,95,Electric Organ
355.25,0.12,46,95,Electric Organ
355.5,0.12,34,100,Electric Organ
355.5,0.0,38,99,Electric Organ
355.5,0.0,53,99,Electric Organ
355.5,0.12,46,95,Electric Organ
355.5,0.12,54,95,Electric Organ
355.5,0.12,46,95,Electric Organ
355.5,0.12,54,95,Electric Organ
355.75,1.56,66,97,Electric Organ
355.75,1.56,70,97,Electric Organ
355.75,1.56,73,97,Electric Organ
355.75,0.24,42,110,Electric Organ
355.75,0.0,36,106,Electric Organ
355.75,0.24,78,120,Electric Organ
355.75,0.24,74,120,Electric Organ
355.75,0.31999999999999995,49,105,Electric Organ
355.75,0.31999999999999995,42,105,Electric Organ
355.75,0.31999999999999995,49,105,Electric Organ
355.75,0.31999999999999995,42,105,Electric Organ
356.0,0.0,53,92,Electric Organ
356.25,0.12,42,100,Electric Organ
356.25,0.0,36,92,Electric Organ
356.25,0.12,78,110,Electric Organ
356.25,0.12,74,110,Electric Organ
356.5,0.24,42,100,Electric Organ
356.5,0.0,38,99,Electric Organ
356.5,0.0,53,99,Electric Organ
356.5,0.24,78,120,Electric Organ
356.5,0.24,74,120,Electric Organ
356.5,0.12,42,95,Electric Organ
356.5,0.12,49,95,Electric Organ
356.5,0.12,42,95,Electric Organ
356.5,0.12,49,95,Electric Organ
356.75,0.12,49,95,Electric Organ
356.75,0.12,42,95,Electric Organ
356.75,0.12,49,95,Electric Organ
356.75,0.12,42,95,Electric Organ
357.0,0.12,42,110,Electric Organ
357.0,0.0,36,99,Electric Organ
357.0,0.0,53,99,Electric Organ
357.0,0.12,76,110,Electric Organ
357.0,0.12,73,110,Electric Organ
357.0,0.12,42,105,Electric Organ
357.0,0.12,49,105,Electric Organ
357.0,0.12,42,105,Electric Organ
357.0,0.12,49,105,Electric Organ
357.25,0.12,42,100,Electric Organ
357.25,0.0,36,92,Electric Organ
357.25,0.24,76,120,Electric Organ
357.25,0.24,73,120,Electric Organ
357.25,0.12,49,95,Electric Organ
357.25,0.12,42,95,Electric Organ
357.25,0.12,49,95,Electric Organ
357.25,0.12,42,95,Electric Organ
357.5,0.24,42,100,Electric Organ
357.5,0.0,38,99,Electric Organ
357.5,0.0,53,99,Electric Organ
357.5,0.12,42,95,Electric Organ
357.5,0.12,49,95,Electric Organ
357.5,0.12,42,95,Electric Organ
357.5,0.12,49,95,Electric Organ
357.75,0.12,74,110,Electric Organ
357.75,0.12,71,110,Electric Organ
357.75,0.12,49,95,Electric Organ
357.75,0.12,42,95,Electric Organ
357.75,0.12,49,95,Electric Organ
357.75,0.12,42,95,Electric Organ
358.0,0.24,42,110,Electric Organ
358.0,0.0,36,99,Electric Organ
358.0,0.0,53,99,Electric Organ
358.0,0.24,74,120,Electric Organ
358.0,0.24,71,120,Electric Organ
358.0,0.12,42,105,Electric Organ
358.0,0.12,49,105,Electric Organ
358.0,0.12,42,105,Electric Organ
358.0,0.12,49,105,Electric Organ
358.25,0.12,49,95,Electric Organ
358.25,0.12,42,95,Electric Organ
358.25,0.12,49,95,Electric Organ
358.25,0.12,42,95,Electric Organ
358.5,0.24,42,100,Electric Organ
358.5,0.0,38,99,Electric Organ
358.5,0.0,53,99,Electric Organ
358.5,0.12,73,110,Electric Organ
358.5,0.12,69,110,Electric Organ
358.5,0.12,42,95,Electric Organ
358.5,0.12,49,95,Electric Organ
358.5,0.12,42,95,Electric Organ
358.5,0.12,49,95,Electric Organ
358.75,0.12,73,120,Electric Organ
358.75,0.12,69,120,Electric Organ
358.75,0.12,49,95,Electric Organ
358.75,0.12,42,95,Electric Organ
358.75,0.12,49,95,Electric Organ
358.75,0.12,42,95,Electric Organ
359.0,0.12,74,95,Electric Organ
359.0,0.12,62,95,Electric Organ
359.0,0.12,35,110,Electric Organ
359.0,0.0,38,106,Electric Organ
359.0,0.12,73,110,Electric Organ
359.0,0.12,69,110,Electric Organ
359.0,0.12,45,110,Electric Organ
359.0,0.12,52,110,Electric Organ
359.0,0.12,45,110,Electric Organ
359.0,0.12,52,110,Electric Organ
359.25,0.12,61,95,Electric Organ
359.25,0.12,73,95,Electric Organ
359.25,0.12,33,100,Electric Organ
359.25,0.0,38,106,Electric Organ
359.25,0.12,74,120,Electric Organ
359.25,0.12,71,120,Electric Organ
359.25,0.12,44,110,Electric Organ
359.25,0.12,51,110,Electric Organ
359.25,0.12,44,110,Electric Organ
359.25,0.12,51,110,Electric Organ
359.75,1.92,67,97,Electric Organ
359.75,1.92,71,97,Electric Organ
359.75,1.92,74,97,Electric Organ
359.75,0.24,31,110,Electric Organ
359.75,0.0,36,92,Electric Organ
359.75,0.0,49,92,Electric Organ
359.75,3.48,71,120,Electric Organ
359.75,3.48,67,120,Electric Organ
359.75,1.92,50,110,Electric Organ
359.75,1.92,43,110,Electric Organ
359.75,1.92,50,110,Electric Organ
359.75,1.92,43,110,Electric Organ
360.25,0.12,31,100,Electric Organ
360.25,0.0,36,92,Electric Organ
360.5,0.24,31,100,Electric Organ
360.5,0.0,38,85,Electric Organ
360.5,0.0,42,85,Electric Organ
361.0,0.12,31,110,Electric Organ
361.0,0.0,36,92,Electric Organ
361.0,0.0,42,92,Electric Organ
361.25,0.12,31,100,Electric Organ
361.25,0.0,36,92,Electric Organ
361.5,0.24,31,100,Electric Organ
361.5,0.12,71,100,Electric Organ
361.5,0.0,38,85,Electric Organ
361.5,0.0,42,85,Electric Organ
362.0,0.24,31,110,Electric Organ
362.0,0.24,74,100,Electric Organ
362.0,0.0,36,92,Electric Organ
362.0,0.0,42,92,Electric Organ
362.5,0.12,31,100,Electric Organ
362.5,0.12,71,100,Electric Organ
362.5,0.0,38,85,Electric Organ
362.5,0.0,42,85,Electric Organ
362.75,0.12,31,100,Electric Organ
362.75,0.0,36,92,Electric Organ
363.0,0.12,31,110,Electric Organ
363.0,0.24,74,100,Electric Organ
363.0,0.0,42,78,Electric Organ
363.25,0.12,31,100,Electric Organ
363.25,0.0,36,92,Electric Organ
363.5,0.12,31,100,Electric Organ
363.5,0.12,71,100,Electric Organ
363.5,0.0,38,85,Electric Organ
363.5,0.0,42,85,Electric Organ
363.75,1.92,67,97,Electric Organ
363.75,1.92,71,97,Electric Organ
363.75,1.92,74,97,Electric Organ
363.75,0.24,31,110,Electric Organ
363.75,1.08,67,97,Electric Organ
363.75,1.08,71,97,Electric Organ
363.75,1.08,78,97,Electric Organ
363.75,0.31999999999999995,74,100,Electric Organ
363.75,0.0,36,106,Electric Organ
363.75,0.31999999999999995,43,105,Electric Organ
363.75,0.31999999999999995,50,105,Electric Organ
363.75,0.31999999999999995,43,105,Electric Organ
363.75,0.31999999999999995,50,105,Electric Organ
364.0,0.0,42,78,Electric Organ
364.25,0.12,31,100,Electric Organ
364.25,0.0,36,92,Electric Organ
364.5,0.24,31,100,Electric Organ
364.5,0.96,78,100,Electric Organ
364.5,0.0,38,85,Electric Organ
364.5,0.0,42,85,Electric Organ
364.5,0.12,43,95,Electric Organ
364.5,0.12,50,95,Electric Organ
364.5,0.12,43,95,Electric Organ
364.5,0.12,50,95,Electric Organ
364.75,0.12,50,95,Electric Organ
364.75,0.12,43,95,Electric Organ
364.75,0.12,50,95,Electric Organ
364.75,0.12,43,95,Electric Organ
365.0,0.12,31,110,Electric Organ
365.0,0.0,36,92,Electric Organ
365.0,0.0,42,92,Electric Organ
365.0,0.12,43,105,Electric Organ
365.0,0.12,50,105,Electric Organ
365.0,0.12,43,105,Electric Organ
365.0,0.12,50,105,Electric Organ
365.25,0.12,31,100,Electric Organ
365.25,0.0,36,92,Electric Organ
365.25,0.12,50,95,Electric Organ
365.25,0.12,43,95,Electric Organ
365.25,0.12,50,95,Electric Organ
365.25,0.12,43,95,Electric Organ
365.5,0.24,31,100,Electric Organ
365.5,0.0,38,85,Electric Organ
365.5,0.0,42,85,Electric Organ
365.5,0.12,43,95,Electric Organ
365.5,0.12,50,95,Electric Organ
365.5,0.12,43,95,Electric Organ
365.5,0.12,50,95,Electric Organ
365.75,0.12,50,95,Electric Organ
365.75,0.12,43,95,Electric Organ
365.75,0.12,50,95,Electric Organ
365.75,0.12,43,95,Electric Organ
366.0,0.24,31,110,Electric Organ
366.0,0.8,67,97,Electric Organ
366.0,0.8,71,97,Electric Organ
366.0,0.8,76,97,Electric Organ
366.0,0.0,36,92,Electric Organ
366.0,0.0,42,92,Electric Organ
366.0,0.12,43,105,Electric Organ
366.0,0.12,50,105,Electric Organ
366.0,0.12,43,105,Electric Organ
366.0,0.12,50,105,Electric Organ
366.25,0.12,50,95,Electric Organ
366.25,0.12,43,95,Electric Organ
366.25,0.12,50,95,Electric Organ
366.25,0.12,43,95,Electric Organ
366.5,0.12,31,100,Electric Organ
366.5,0.0,38,85,Electric Organ
366.5,0.0,42,85,Electric Organ
366.5,0.12,43,95,Electric Organ
366.5,0.12,50,95,Electric Organ
366.5,0.12,43,95,Electric Organ
366.5,0.12,50,95,Electric Organ
366.75,0.12,31,100,Electric Organ
366.75,0.0,36,92,Electric Organ
366.75,0.12,50,95,Electric Organ
366.75,0.12,43,95,Electric Organ
366.75,0.12,50,95,Electric Organ
366.75,0.12,43,95,Electric Organ
367.0,0.12,31,110,Electric Organ
367.0,0.12,71,100,Electric Organ
367.0,0.0,42,78,Electric Organ
367.0,0.12,43,105,Electric Organ
367.0,0.12,50,105,Electric Organ
367.0,0.12,43,105,Electric Organ
367.0,0.12,50,105,Electric Organ
367.25,0.12,31,100,Electric Organ
367.25,0.12,71,100,Electric Organ
367.25,0.0,36,92,Electric Organ
367.25,0.12,50,95,Electric Organ
367.25,0.12,43,95,Electric Organ
367.25,0.12,50,95,Electric Organ
367.25,0.12,43,95,Electric Organ
367.5,0.12,31,100,Electric Organ
367.5,0.0,38,85,Electric Organ
367.5,0.0,42,85,Electric Organ
367.5,0.12,43,95,Electric Organ
367.5,0.12,50,95,Electric Organ
367.5,0.12,43,95,Electric Organ
367.5,0.12,50,95,Electric Organ
367.75,1.7599999999999998,69,97,Electric Organ
367.75,1.7599999999999998,73,97,Electric Organ
367.75,1.7599999999999998,76,97,Electric Organ
367.75,0.24,33,110,Electric Organ
367.75,1.7599999999999998,69,97,Electric Organ
367.75,1.7599999999999998,73,97,Electric Organ
367.75,1.7599999999999998,76,97,Electric Organ
367.75,0.6,76,100,Electric Organ
367.75,0.0,46,99,Electric Organ
367.75,0.0,36,99,Electric Organ
367.75,0.31999999999999995,52,105,Electric Organ
367.75,0.31999999999999995,45,105,Electric Organ
367.75,0.31999999999999995,52,105,Electric Organ
367.75,0.31999999999999995,45,105,Electric Organ
368.0,0.0,44,50,Electric Organ
368.25,0.12,33,100,Electric Organ
368.25,0.0,36,92,Electric Organ
368.5,0.24,33,100,Electric Organ
368.5,0.0,38,85,Electric Organ
368.5,0.0,42,85,Electric Organ
368.5,0.12,45,95,Electric Organ
368.5,0.12,52,95,Electric Organ
368.5,0.12,45,95,Electric Organ
368.5,0.12,52,95,Electric Organ
368.75,0.12,52,95,Electric Organ
368.75,0.12,45,95,Electric Organ
368.75,0.12,52,95,Electric Organ
368.75,0.12,45,95,Electric Organ
369.0,0.12,33,110,Electric Organ
369.0,0.0,36,92,Electric Organ
369.0,0.0,42,92,Electric Organ
369.0,0.12,45,105,Electric Organ
369.0,0.12,52,105,Electric Organ
369.0,0.12,45,105,Electric Organ
369.0,0.12,52,105,Electric Organ
369.25,0.12,33,100,Electric Organ
369.25,0.0,36,92,Electric Organ
369.25,0.12,52,95,Electric Organ
369.25,0.12,45,95,Electric Organ
369.25,0.12,52,95,Electric Organ
369.25,0.12,45,95,Electric Organ
369.5,0.24,33,100,Electric Organ
369.5,0.0,38,85,Electric Organ
369.5,0.0,42,85,Electric Organ
369.5,0.12,45,95,Electric Organ
369.5,0.12,52,95,Electric Organ
369.5,0.12,45,95,Electric Organ
369.5,0.12,52,95,Electric Organ
369.75,0.12,52,95,Electric Organ
369.75,0.12,45,95,Electric Organ
369.75,0.12,52,95,Electric Organ
369.75,0.12,45,95,Electric Organ
370.0,0.24,33,110,Electric Organ
370.0,0.24,69,100,Electric Organ
370.0,0.0,36,92,Electric Organ
370.0,0.0,46,92,Electric Organ
370.0,0.12,45,105,Electric Organ
370.0,0.12,52,105,Electric Organ
370.0,0.12,45,105,Electric Organ
370.0,0.12,52,105,Electric Organ
370.25,0.12,52,95,Electric Organ
370.25,0.12,45,95,Electric Organ
370.25,0.12,52,95,Electric Organ
370.25,0.12,45,95,Electric Organ
370.5,0.12,33,100,Electric Organ
370.5,0.24,71,100,Electric Organ
370.5,0.0,38,78,Electric Organ
370.5,0.12,45,95,Electric Organ
370.5,0.12,52,95,Electric Organ
370.5,0.12,45,95,Electric Organ
370.5,0.12,52,95,Electric Organ
370.75,0.12,33,100,Electric Organ
370.75,0.0,38,92,Electric Organ
370.75,0.12,52,95,Electric Organ
370.75,0.12,45,95,Electric Organ
370.75,0.12,52,95,Electric Organ
370.75,0.12,45,95,Electric Organ
371.0,0.12,33,110,Electric Organ
371.0,0.24,73,100,Electric Organ
371.0,0.0,38,106,Electric Organ
371.0,0.12,45,105,Electric Organ
371.0,0.12,52,105,Electric Organ
371.0,0.12,45,105,Electric Organ
371.0,0.12,52,105,Electric Organ
371.25,0.12,33,100,Electric Organ
371.25,0.0,38,106,Electric Organ
371.25,0.12,45,95,Electric Organ
371.25,0.12,52,95,Electric Organ
371.25,0.12,45,95,Electric Organ
371.25,0.12,52,95,Electric Organ
371.5,1.68,35,110,Electric Organ
371.5,1.08,66,97,Electric Organ
371.5,1.08,71,97,Electric Organ
371.5,1.08,76,97,Electric Organ
371.5,1.12,71,100,Electric Organ
371.5,0.0,36,92,Electric Organ
371.5,0.0,57,92,Electric Organ
371.5,0.96,47,102,Electric Organ
371.5,0.96,54,102,Electric Organ
371.5,0.96,59,102,Electric Organ
371.5,0.96,64,102,Electric Organ
371.5,0.96,47,102,Electric Organ
371.5,0.96,54,102,Electric Organ
371.5,0.96,59,102,Electric Organ
371.5,0.96,64,102,Electric Organ
372.5,0.0,36,106,Electric Organ
373.0,0.0,38,99,Electric Organ
373.0,0.0,53,99,Electric Organ
373.5,0.0,36,99,Electric Organ
373.5,0.0,53,99,Electric Organ
373.5,0.0,47,102,Electric Organ
373.5,0.0,54,102,Electric Organ
373.5,0.0,59,102,Electric Organ
373.5,0.0,64,102,Electric Organ
373.5,0.0,47,102,Electric Organ
373.5,0.0,54,102,Electric Organ
373.5,0.0,59,102,Electric Organ
373.5,0.0,64,102,Electric Organ
373.75,0.6399999999999999,66,97,Electric Organ
373.75,0.6399999999999999,71,97,Electric Organ
373.75,0.6399999999999999,75,97,Electric Organ
373.75,0.6,63,102,Electric Organ
373.75,0.6,59,102,Electric Organ
373.75,0.6,54,102,Electric Organ
373.75,0.6,47,102,Electric Organ
373.75,0.6,63,102,Electric Organ
373.75,0.6,59,102,Electric Organ
373.75,0.6,54,102,Electric Organ
373.75,0.6,47,102,Electric Organ
374.0,0.0,36,99,Electric Organ
374.0,0.0,53,99,Electric Organ
374.25,0.0,38,92,Electric Organ
374.5,0.0,36,92,Electric Organ
374.5,0.0,53,92,Electric Organ
375.0,0.12,35,110,Electric Organ
375.0,0.0,38,99,Electric Organ
375.0,0.0,53,99,Electric Organ
375.0,0.12,47,110,Electric Organ
375.0,0.12,54,110,Electric Organ
375.0,0.12,47,110,Electric Organ
375.0,0.12,54,110,Electric Organ
375.25,0.12,33,110,Electric Organ
375.25,0.12,45,110,Electric Organ
375.25,0.12,52,110,Electric Organ
375.25,0.12,45,110,Electric Organ
375.25,0.12,52,110,Electric Organ
375.5,0.0,38,106,Electric Organ
375.75,1.92,67,97,Electric Organ
375.75,1.92,71,97,Electric Organ
375.75,1.92,74,97,Electric Organ
375.75,0.24,31,110,Electric Organ
375.75,0.0,36,92,Electric Organ
375.75,0.0,49,92,Electric Organ
375.75,0.31999999999999995,50,110,Electric Organ
375.75,0.31999999999999995,43,110,Electric Organ
375.75,0.31999999999999995,50,110,Electric Organ
375.75,0.31999999999999995,43,110,Electric Organ
376.25,0.12,31,100,Electric Organ
376.25,0.0,36,92,Electric Organ
376.5,0.24,31,100,Electric Organ
376.5,0.0,38,85,Electric Organ
376.5,0.0,42,85,Electric Organ
376.5,0.12,43,95,Electric Organ
376.5,0.12,50,95,Electric Organ
376.5,0.12,43,95,Electric Organ
376.5,0.12,50,95,Electric Organ
376.75,0.12,50,95,Electric Organ
376.75,0.12,43,95,Electric Organ
376.75,0.12,50,95,Electric Organ
376.75,0.12,43,95,Electric Organ
377.0,0.12,31,110,Electric Organ
377.0,0.0,36,92,Electric Organ
377.0,0.0,42,92,Electric Organ
377.0,0.12,43,105,Electric Organ
377.0,0.12,50,105,Electric Organ
377.0,0.12,43,105,Electric Organ
377.0,0.12,50,105,Electric Organ
377.25,0.12,31,100,Electric Organ
377.25,0.0,36,92,Electric Organ
377.25,0.12,50,95,Electric Organ
377.25,0.12,43,95,Electric Organ
377.25,0.12,50,95,Electric Organ
377.25,0.12,43,95,Electric Organ
377.5,0.24,31,100,Electric Organ
377.5,0.12,71,100,Electric Organ
377.5,0.0,38,85,Electric Organ
377.5,0.0,42,85,Electric Organ
377.5,0.12,43,95,Electric Organ
377.5,0.12,50,95,Electric Organ
377.5,0.12,43,95,Electric Organ
377.5,0.12,50,95,Electric Organ
377.75,0.12,50,95,Electric Organ
377.75,0.12,43,95,Electric Organ
377.75,0.12,50,95,Electric Organ
377.75,0.12,43,95,Electric Organ
378.0,0.24,31,110,Electric Organ
378.0,0.24,74,100,Electric Organ
378.0,0.0,36,92,Electric Organ
378.0,0.0,42,92,Electric Organ
378.0,0.12,43,105,Electric Organ
378.0,0.12,50,105,Electric Organ
378.0,0.12,43,105,Electric Organ
378.0,0.12,50,105,Electric Organ
378.25,0.12,50,95,Electric Organ
378.25,0.12,43,95,Electric Organ
378.25,0.12,50,95,Electric Organ
378.25,0.12,43,95,Electric Organ
378.5,0.12,31,100,Electric Organ
378.5,0.12,71,100,Electric Organ
378.5,0.0,38,85,Electric Organ
378.5,0.0,42,85,Electric Organ
378.5,0.12,43,95,Electric Organ
378.5,0.12,50,95,Electric Organ
378.5,0.12,43,95,Electric Organ
378.5,0.12,50,95,Electric Organ
378.75,0.12,31,100,Electric Organ
378.75,0.0,36,92,Electric Organ
378.75,0.12,50,95,Electric Organ
378.75,0.12,43,95,Electric Organ
378.75,0.12,50,95,Electric Organ
378.75,0.12,43,95,Electric Organ
379.0,0.12,31,110,Electric Organ
379.0,0.24,74,100,Electric Organ
379.0,0.0,42,78,Electric Organ
379.0,0.12,43,105,Electric Organ
379.0,0.12,50,105,Electric Organ
379.0,0.12,43,105,Electric Organ
379.0,0.12,50,105,Electric Organ
379.25,0.12,31,100,Electric Organ
379.25,0.0,36,92,Electric Organ
379.25,0.12,50,95,Electric Organ
379.25,0.12,43,95,Electric Organ
379.25,0.12,50,95,Electric Organ
379.25,0.12,43,95,Electric Organ
379.5,0.12,31,100,Electric Organ
379.5,0.12,71,100,Electric Organ
379.5,0.0,38,85,Electric Organ
379.5,0.0,42,85,Electric Organ
379.5,0.12,43,95,Electric Organ
379.5,0.12,50,95,Electric Organ
379.5,0.12,43,95,Electric Organ
379.5,0.12,50,95,Electric Organ
379.75,1.92,67,97,Electric Organ
379.75,1.92,71,97,Electric Organ
379.75,1.92,74,97,Electric Organ
379.75,0.24,31,110,Electric Organ
379.75,1.08,67,97,Electric Organ
379.75,1.08,71,97,Electric Organ
379.75,1.08,78,97,Electric Organ
379.75,0.31999999999999995,74,100,Electric Organ
379.75,0.0,36,92,Electric Organ
379.75,0.0,57,92,Electric Organ
379.75,0.31999999999999995,50,105,Electric Organ
379.75,0.31999999999999995,43,105,Electric Organ
379.75,0.31999999999999995,50,105,Electric Organ
379.75,0.31999999999999995,43,105,Electric Organ
380.25,0.12,31,100,Electric Organ
380.25,0.0,36,92,Electric Organ
380.5,0.24,31,100,Electric Organ
380.5,1.44,78,100,Electric Organ
380.5,0.0,38,85,Electric Organ
380.5,0.0,42,85,Electric Organ
380.5,0.12,43,95,Electric Organ
380.5,0.12,50,95,Electric Organ
380.5,0.12,43,95,Electric Organ
380.5,0.12,50,95,Electric Organ
380.75,0.12,50,95,Electric Organ
380.75,0.12,43,95,Electric Organ
380.75,0.12,50,95,Electric Organ
380.75,0.12,43,95,Electric Organ
381.0,0.12,31,110,Electric Organ
381.0,0.0,36,92,Electric Organ
381.0,0.0,42,92,Electric Organ
381.0,0.12,43,105,Electric Organ
381.0,0.12,50,105,Electric Organ
381.0,0.12,43,105,Electric Organ
381.0,0.12,50,105,Electric Organ
381.25,0.12,31,100,Electric Organ
381.25,0.0,36,92,Electric Organ
381.25,0.12,50,95,Electric Organ
381.25,0.12,43,95,Electric Organ
381.25,0.12,50,95,Electric Organ
381.25,0.12,43,95,Electric Organ
381.5,0.24,31,100,Electric Organ
381.5,0.0,38,85,Electric Organ
381.5,0.0,42,85,Electric Organ
381.5,0.12,43,95,Electric Organ
381.5,0.12,50,95,Electric Organ
381.5,0.12,43,95,Electric Organ
381.5,0.12,50,95,Electric Organ
381.75,0.12,50,95,Electric Organ
381.75,0.12,43,95,Electric Organ
381.75,0.12,50,95,Electric Organ
381.75,0.12,43,95,Electric Organ
382.0,0.24,31,110,Electric Organ
382.0,0.8,67,97,Electric Organ
382.0,0.8,71,97,Electric Organ
382.0,0.8,76,97,Electric Organ
382.0,0.0,36,92,Electric Organ
382.0,0.0,42,92,Electric Organ
382.0,0.12,43,105,Electric Organ
382.0,0.12,50,105,Electric Organ
382.0,0.12,43,105,Electric Organ
382.0,0.12,50,105,Electric Organ
382.25,0.12,50,95,Electric Organ
382.25,0.12,43,95,Electric Organ
382.25,0.12,50,95,Electric Organ
382.25,0.12,43,95,Electric Organ
382.5,0.12,31,100,Electric Organ
382.5,0.0,38,85,Electric Organ
382.5,0.0,42,85,Electric Organ
382.5,0.12,43,95,Electric Organ
382.5,0.12,50,95,Electric Organ
382.5,0.12,43,95,Electric Organ
382.5,0.12,50,95,Electric Organ
382.75,0.12,31,100,Electric Organ
382.75,0.0,36,92,Electric Organ
382.75,0.12,50,95,Electric Organ
382.75,0.12,43,95,Electric Organ
382.75,0.12,50,95,Electric Organ
382.75,0.12,43,95,Electric Organ
383.0,0.12,31,110,Electric Organ
383.0,0.0,42,78,Electric Organ
383.0,0.12,43,105,Electric Organ
383.0,0.12,50,105,Electric Organ
383.0,0.12,43,105,Electric Organ
383.0,0.12,50,105,Electric Organ
383.25,0.12,31,100,Electric Organ
383.25,0.0,36,92,Electric Organ
383.25,0.12,50,95,Electric Organ
383.25,0.12,43,95,Electric Organ
383.25,0.12,50,95,Electric Organ
383.25,0.12,43,95,Electric Organ
383.5,0.12,31,100,Electric Organ
383.5,0.0,38,85,Electric Organ
383.5,0.0,42,85,Electric Organ
383.5,0.12,43,95,Electric Organ
383.5,0.12,50,95,Electric Organ
383.5,0.12,43,95,Electric Organ
383.5,0.12,50,95,Electric Organ
383.75,1.56,69,97,Electric Organ
383.75,1.56,73,97,Electric Organ
383.75,1.56,76,97,Electric Organ
383.75,0.24,33,110,Electric Organ
383.75,1.56,69,97,Electric Organ
383.75,1.56,73,97,Electric Organ
383.75,1.56,76,97,Electric Organ
383.75,0.0,36,92,Electric Organ
383.75,0.0,49,92,Electric Organ
383.75,0.31999999999999995,52,105,Electric Organ
383.75,0.31999999999999995,45,105,Electric Organ
383.75,0.31999999999999995,52,105,Electric Organ
383.75,0.31999999999999995,45,105,Electric Organ
384.0,0.0,42,78,Electric Organ
384.25,0.12,33,100,Electric Organ
384.25,0.0,36,92,Electric Organ
384.5,0.24,33,100,Electric Organ
384.5,0.0,38,85,Electric Organ
384.5,0.0,42,85,Electric Organ
384.5,0.12,45,95,Electric Organ
384.5,0.12,52,95,Electric Organ
384.5,0.12,45,95,Electric Organ
384.5,0.12,52,95,Electric Organ
384.75,0.12,52,95,Electric Organ
384.75,0.12,45,95,Electric Organ
384.75,0.12,52,95,Electric Organ
384.75,0.12,45,95,Electric Organ
385.0,0.12,33,110,Electric Organ
385.0,0.36,76,100,Electric Organ
385.0,0.0,36,92,Electric Organ
385.0,0.0,42,92,Electric Organ
385.0,0.12,45,105,Electric Organ
385.0,0.12,52,105,Electric Organ
385.0,0.12,45,105,Electric Organ
385.0,0.12,52,105,Electric Organ
385.25,0.12,33,100,Electric Organ
385.25,0.0,36,92,Electric Organ
385.25,0.12,52,95,Electric Organ
385.25,0.12,45,95,Electric Organ
385.25,0.12,52,95,Electric Organ
385.25,0.12,45,95,Electric Organ
385.5,0.24,33,100,Electric Organ
385.5,0.0,38,85,Electric Organ
385.5,0.0,42,85,Electric Organ
385.5,0.12,45,95,Electric Organ
385.5,0.12,52,95,Electric Organ
385.5,0.12,45,95,Electric Organ
385.5,0.12,52,95,Electric Organ
385.75,0.12,52,95,Electric Organ
385.75,0.12,45,95,Electric Organ
385.75,0.12,52,95,Electric Organ
385.75,0.12,45,95,Electric Organ
386.0,0.24,33,110,Electric Organ
386.0,0.36,76,100,Electric Organ
386.0,0.0,36,92,Electric Organ
386.0,0.0,42,92,Electric Organ
386.0,0.12,45,105,Electric Organ
386.0,0.12,52,105,Electric Organ
386.0,0.12,45,105,Electric Organ
386.0,0.12,52,105,Electric Organ
386.25,0.12,52,95,Electric Organ
386.25,0.12,45,95,Electric Organ
386.25,0.12,52,95,Electric Organ
386.25,0.12,45,95,Electric Organ
386.5,0.12,33,100,Electric Organ
386.5,0.0,38,85,Electric Organ
386.5,0.0,42,85,Electric Organ
386.5,0.12,45,95,Electric Organ
386.5,0.12,52,95,Electric Organ
386.5,0.12,45,95,Electric Organ
386.5,0.12,52,95,Electric Organ
386.75,0.12,33,100,Electric Organ
386.75,0.12,52,95,Electric Organ
386.75,0.12,45,95,Electric Organ
386.75,0.12,52,95,Electric Organ
386.75,0.12,45,95,Electric Organ
387.0,0.12,69,97,Electric Organ
387.0,0.12,73,97,Electric Organ
387.0,0.12,76,97,Electric Organ
387.0,0.12,33,110,Electric Organ
387.0,0.12,69,97,Electric Organ
387.0,0.12,73,97,Electric Organ
387.0,0.12,76,97,Electric Organ
387.0,0.31999999999999995,74,100,Electric Organ
387.0,0.0,36,99,Electric Organ
387.0,0.0,38,99,Electric Organ
387.0,0.12,45,105,Electric Organ
387.0,0.12,52,105,Electric Organ
387.0,0.12,45,105,Electric Organ
387.0,0.12,52,105,Electric Organ
387.25,0.12,69,97,Electric Organ
387.25,0.12,73,97,Electric Organ
387.25,0.12,76,97,Electric Organ
387.25,0.12,33,100,Electric Organ
387.25,0.12,69,97,Electric Organ
387.25,0.12,73,97,Electric Organ
387.25,0.12,76,97,Electric Organ
387.25,0.0,38,106,Electric Organ
387.25,0.12,52,95,Electric Organ
387.25,0.12,45,95,Electric Organ
387.25,0.12,52,95,Electric Organ
387.25,0.12,45,95,Electric Organ
387.75,0.6,66,97,Electric Organ
387.75,0.6,70,97,Electric Organ
387.75,0.6,73,97,Electric Organ
387.75,0.24,42,110,Electric Organ
387.75,0.6,66,97,Electric Organ
387.75,0.6,70,97,Electric Organ
387.75,0.6,73,97,Electric Organ
387.75,0.6,73,100,Electric Organ
387.75,0.0,36,92,Electric Organ
387.75,0.0,57,92,Electric Organ
387.75,0.31999999999999995,49,105,Electric Organ
387.75,0.31999999999999995,42,105,Electric Organ
387.75,0.31999999999999995,49,105,Electric Organ
387.75,0.31999999999999995,42,105,Electric Organ
388.25,0.12,42,100,Electric Organ
388.25,0.0,36,92,Electric Organ
388.5,0.24,42,100,Electric Organ
388.5,0.0,38,106,Electric Organ
388.5,0.12,49,105,Electric Organ
388.5,0.12,42,105,Electric Organ
388.5,0.12,49,105,Electric Organ
388.5,0.12,42,105,Electric Organ
388.75,0.12,49,105,Electric Organ
388.75,0.12,42,105,Electric Organ
388.75,0.12,49,105,Electric Organ
388.75,0.12,42,105,Electric Organ
389.0,0.12,59,95,Electric Organ
389.0,0.12,71,95,Electric Organ
389.0,0.12,40,110,Electric Organ
389.0,0.12,59,90,Electric Organ
389.0,0.12,71,90,Electric Organ
389.0,0.31999999999999995,79,100,Electric Organ
389.0,0.0,43,92,Electric Organ
389.0,0.12,47,105,Electric Organ
389.0,0.12,40,105,Electric Organ
389.0,0.12,47,105,Electric Organ
389.0,0.12,40,105,Electric Organ
389.25,0.12,60,95,Electric Organ
389.25,0.12,72,95,Electric Organ
389.25,0.12,41,100,Electric Organ
389.25,0.12,60,90,Electric Organ
389.25,0.12,72,90,Electric Organ
389.25,0.0,43,92,Electric Organ
389.25,0.12,48,105,Electric Organ
389.25,0.12,41,105,Electric Organ
389.25,0.12,48,105,Electric Organ
389.25,0.12,41,105,Electric Organ
389.5,0.0,42,64,Electric Organ
389.75,0.12,61,95,Electric Organ
389.75,0.12,73,95,Electric Organ
389.75,0.15999999999999998,42,110,Electric Organ
389.75,0.12,61,90,Electric Organ
389.75,0.12,73,90,Electric Organ
389.75,0.8,78,100,Electric Organ
389.75,0.0,36,99,Electric Organ
389.75,0.0,46,99,Electric Organ
389.75,0.12,49,105,Electric Organ
389.75,0.12,42,105,Electric Organ
389.75,0.12,49,105,Electric Organ
389.75,0.12,42,105,Electric Organ
390.0,0.0,44,50,Electric Organ
391.75,0.6,43,110,Electric Organ
391.75,0.84,43,100,Electric Organ
391.75,2.04,50,100,Electric Organ
391.75,0.48,62,108,Electric Organ
391.75,0.48,66,108,Electric Organ
391.75,0.48,67,108,Electric Organ
391.75,0.48,71,108,Electric Organ
391.75,1.92,55,90,Electric Organ
391.75,1.92,50,80,Electric Organ
391.75,1.92,43,80,Electric Organ
391.75,0.0,36,92,Electric Organ
391.75,0.0,49,92,Electric Organ
392.5,0.6,55,90,Electric Organ
393.0,0.48,78,100,Electric Organ
393.0,0.96,62,100,Electric Organ
393.0,0.48,66,110,Electric Organ
393.0,0.48,67,110,Electric Organ
393.0,0.48,71,110,Electric Organ
393.5,0.48,31,95,Electric Organ
393.5,0.96,43,100,Electric Organ
394.0,0.48,78,100,Electric Organ
394.0,0.48,64,110,Electric Organ
394.0,0.48,67,110,Electric Organ
394.0,0.48,71,110,Electric Organ
394.0,0.48,74,110,Electric Organ
394.5,0.6,31,94,Electric Organ
395.0,0.24,78,100,Electric Organ
395.0,0.31999999999999995,55,100,Electric Organ
395.0,0.31999999999999995,59,100,Electric Organ
395.0,0.31999999999999995,62,100,Electric Organ
395.0,0.31999999999999995,64,100,Electric Organ
395.5,0.12,76,100,Electric Organ
395.75,0.31999999999999995,79,100,Electric Organ
395.75,0.84,42,100,Electric Organ
395.75,2.04,49,100,Electric Organ
395.75,0.48,61,108,Electric Organ
395.75,0.48,64,108,Electric Organ
395.75,0.48,66,108,Electric Organ
395.75,0.48,69,108,Electric Organ
395.75,0.6,54,90,Electric Organ
395.75,1.92,49,80,Electric Organ
395.75,1.92,42,80,Electric Organ
396.5,1.68,78,100,Electric Organ
396.5,0.6,54,90,Electric Organ
397.0,0.84,57,100,Electric Organ
397.0,0.84,66,100,Electric Organ
397.0,0.48,61,113,Electric Organ
397.0,0.48,64,113,Electric Organ
397.0,0.48,69,113,Electric Organ
397.0,0.48,61,100,Electric Organ
397.5,0.48,30,95,Electric Organ
397.5,0.84,42,100,Electric Organ
398.0,0.48,64,112,Electric Organ
398.0,0.48,69,112,Electric Organ
398.0,0.48,73,112,Electric Organ
398.0,0.48,57,90,Electric Organ
398.5,0.6,30,104,Electric Organ
399.0,0.31999999999999995,57,100,Electric Organ
399.0,0.31999999999999995,61,100,Electric Organ
399.0,0.31999999999999995,64,100,Electric Organ
399.0,0.31999999999999995,69,100,Electric Organ
399.0,0.31999999999999995,52,95,Electric Organ
399.75,0.84,40,100,Electric Organ
399.75,2.04,47,100,Electric Organ
399.75,0.6,59,108,Electric Organ
399.75,0.6,62,108,Electric Organ
399.75,0.6,64,108,Electric Organ
399.75,0.6,67,108,Electric Organ
399.75,1.92,55,105,Electric Organ
399.75,1.92,47,80,Electric Organ
399.75,1.92,40,80,Electric Organ
400.5,0.6,52,90,Electric Organ
401.0,0.48,74,100,Electric Organ
401.0,0.84,55,100,Electric Organ
401.0,0.48,59,108,Electric Organ
401.0,0.48,62,108,Electric Organ
401.0,0.48,64,108,Electric Organ
401.0,0.48,67,108,Electric Organ
401.5,0.48,28,94,Electric Organ
401.5,0.84,40,100,Electric Organ
402.0,0.48,74,100,Electric Organ
402.0,0.48,62,112,Electric Organ
402.0,0.48,64,112,Electric Organ
402.0,0.48,67,112,Electric Organ
402.0,0.48,71,112,Electric Organ
402.5,0.72,28,94,Electric Organ
403.0,0.31999999999999995,71,100,Electric Organ
403.0,0.31999999999999995,59,100,Electric Organ
403.0,0.31999999999999995,62,100,Electric Organ
403.0,0.31999999999999995,64,100,Electric Organ
403.0,0.31999999999999995,67,100,Electric Organ
403.75,0.6,78,100,Electric Organ
403.75,0.84,42,100,Electric Organ
403.75,2.04,49,100,Electric Organ
403.75,0.6,57,109,Electric Organ
403.75,0.6,61,109,Electric Organ
403.75,0.6,64,109,Electric Organ
403.75,0.6,69,109,Electric Organ
403.75,0.8,57,105,Electric Organ
403.75,1.92,49,80,Electric Organ
403.75,1.92,42,80,Electric Organ
404.5,0.6,54,100,Electric Organ
405.0,0.48,76,100,Electric Organ
405.0,0.84,62,100,Electric Organ
405.0,0.48,64,115,Electric Organ
405.0,0.48,71,115,Electric Organ
405.5,0.48,30,108,Electric Organ
405.5,0.48,42,108,Electric Organ
405.5,0.12,57,100,Electric Organ
405.75,0.12,59,90,Electric Organ
406.0,0.24,74,100,Electric Organ
406.0,0.48,64,112,Electric Organ
406.0,0.48,69,112,Electric Organ
406.0,0.48,73,112,Electric Organ
406.0,0.48,61,105,Electric Organ
406.5,0.6399999999999999,78,100,Electric Organ
406.5,0.48,30,119,Electric Organ
406.5,0.48,42,119,Electric Organ
407.0,0.31999999999999995,64,109,Electric Organ
407.0,0.31999999999999995,66,109,Electric Organ
407.0,0.31999999999999995,69,109,Electric Organ
407.0,0.31999999999999995,71,109,Electric Organ
407.0,0.36,64,110,Electric Organ
407.5,0.12,30,127,Electric Organ
407.75,0.84,43,100,Electric Organ
407.75,0.48,62,108,Electric Organ
407.75,0.48,66,108,Electric Organ
407.75,0.48,67,108,Electric Organ
407.75,0.48,71,108,Electric Organ
407.75,2.04,50,120,Electric Organ
407.75,3.84,78,80,Electric Organ
407.75,1.92,62,105,Electric Organ
407.75,1.92,50,80,Electric Organ
407.75,1.92,43,80,Electric Organ
408.5,0.6,55,90,Electric Organ
409.0,0.48,78,100,Electric Organ
409.0,0.96,62,100,Electric Organ
409.0,0.48,66,110,Electric Organ
409.0,0.48,67,110,Electric Organ
409.0,0.48,71,110,Electric Organ
409.5,0.48,31,95,Electric Organ
409.5,0.96,43,100,Electric Organ
410.0,0.48,78,100,Electric Organ
410.0,0.48,64,110,Electric Organ
410.0,0.48,67,110,Electric Organ
410.0,0.48,71,110,Electric Organ
410.0,0.48,74,110,Electric Organ
410.5,0.6,31,94,Electric Organ
411.0,0.24,78,100,Electric Organ
411.0,0.31999999999999995,55,100,Electric Organ
411.0,0.31999999999999995,59,100,Electric Organ
411.0,0.31999999999999995,62,100,Electric Organ
411.0,0.31999999999999995,64,100,Electric Organ
411.5,0.12,76,100,Electric Organ
411.75,0.31999999999999995,79,100,Electric Organ
411.75,0.84,42,100,Electric Organ
411.75,2.04,49,100,Electric Organ
411.75,0.48,61,108,Electric Organ
411.75,0.48,64,108,Electric Organ
411.75,0.48,66,108,Electric Organ
411.75,0.48,69,108,Electric Organ
411.75,0.6,61,100,Electric Organ
411.75,1.92,49,80,Electric Organ
411.75,1.92,42,80,Electric Organ
412.5,1.68,78,100,Electric Organ
412.5,0.6,54,90,Electric Organ
413.0,0.84,57,100,Electric Organ
413.0,0.84,66,100,Electric Organ
413.0,0.48,61,113,Electric Organ
413.0,0.48,64,113,Electric Organ
413.0,0.48,69,113,Electric Organ
413.0,0.48,69,110,Electric Organ
413.5,0.48,30,95,Electric Organ
413.5,0.84,42,100,Electric Organ
414.0,0.48,64,112,Electric Organ
414.0,0.48,69,112,Electric Organ
414.0,0.48,73,112,Electric Organ
414.0,0.48,64,105,Electric Organ
414.5,0.6,30,104,Electric Organ
415.0,0.31999999999999995,57,100,Electric Organ
415.0,0.31999999999999995,61,100,Electric Organ
415.0,0.31999999999999995,64,100,Electric Organ
415.0,0.31999999999999995,69,100,Electric Organ
415.0,0.36,61,95,Electric Organ
415.75,0.84,40,100,Electric Organ
415.75,2.04,47,100,Electric Organ
415.75,0.6,59,108,Electric Organ
415.75,0.6,62,108,Electric Organ
415.75,0.6,64,108,Electric Organ
415.75,0.6,67,108,Electric Organ
415.75,1.92,76,80,Electric Organ
415.75,0.8,67,105,Electric Organ
415.75,1.92,47,80,Electric Organ
415.75,1.92,40,80,Electric Organ
416.5,0.6,52,90,Electric Organ
417.0,0.48,74,100,Electric Organ
417.0,0.84,55,100,Electric Organ
417.0,0.48,59,108,Electric Organ
417.0,0.48,62,108,Electric Organ
417.0,0.48,64,108,Electric Organ
417.0,0.48,67,108,Electric Organ
417.5,0.48,28,94,Electric Organ
417.5,0.84,40,100,Electric Organ
417.5,0.12,67,105,Electric Organ
417.75,0.12,69,95,Electric Organ
418.0,0.48,74,100,Electric Organ
418.0,0.48,62,112,Electric Organ
418.0,0.48,64,112,Electric Organ
418.0,0.48,67,112,Electric Organ
418.0,0.48,71,112,Electric Organ
418.0,0.8,71,110,Electric Organ
418.5,0.72,28,94,Electric Organ
419.0,0.31999999999999995,71,100,Electric Organ
419.0,0.31999999999999995,59,100,Electric Organ
419.0,0.31999999999999995,62,100,Electric Organ
419.0,0.31999999999999995,64,100,Electric Organ
419.0,0.31999999999999995,67,100,Electric Organ
419.75,0.6,78,100,Electric Organ
419.75,0.84,42,100,Electric Organ
419.75,2.04,49,100,Electric Organ
419.75,1.08,57,100,Electric Organ
419.75,0.48,61,110,Electric Organ
419.75,0.6,64,114,Electric Organ
419.75,0.6,69,114,Electric Organ
419.75,1.92,78,80,Electric Organ
419.75,0.8,69,110,Electric Organ
419.75,1.92,49,80,Electric Organ
419.75,1.92,42,80,Electric Organ
420.5,0.6,54,100,Electric Organ
421.0,0.48,76,100,Electric Organ
421.0,0.84,61,100,Electric Organ
421.0,0.48,64,110,Electric Organ
421.0,0.48,66,110,Electric Organ
421.0,0.48,71,110,Electric Organ
421.5,0.48,30,110,Electric Organ
421.5,0.48,42,110,Electric Organ
421.5,0.12,69,100,Electric Organ
421.75,0.12,71,90,Electric Organ
422.0,0.24,74,100,Electric Organ
422.0,0.48,64,109,Electric Organ
422.0,0.48,66,109,Electric Organ
422.0,0.48,69,109,Electric Organ
422.0,0.48,73,109,Electric Organ
422.0,0.48,73,105,Electric Organ
422.5,0.6399999999999999,78,100,Electric Organ
422.5,0.48,30,124,Electric Organ
422.5,0.48,42,124,Electric Organ
423.0,0.31999999999999995,64,110,Electric Organ
423.0,0.31999999999999995,69,110,Electric Organ
423.0,0.31999999999999995,73,110,Electric Organ
423.0,0.31999999999999995,76,110,Electric Organ
423.0,0.31999999999999995,76,110,Electric Organ
423.5,0.12,30,127,Electric Organ
423.5,0.12,42,127,Electric Organ
423.75,0.84,31,120,Electric Organ
423.75,0.72,43,120,Electric Organ
423.75,0.72,74,120,Electric Organ
423.75,2.04,50,100,Electric Organ
423.75,0.6,62,110,Electric Organ
423.75,0.6,66,110,Electric Organ
423.75,3.84,78,80,Electric Organ
423.75,1.92,62,98,Electric Organ
423.75,1.92,74,98,Electric Organ
423.75,1.92,50,80,Electric Organ
423.75,1.92,43,80,Electric Organ
424.5,0.6,55,90,Electric Organ
425.0,0.48,78,100,Electric Organ
425.0,1.2,62,108,Electric Organ
425.0,1.2,67,108,Electric Organ
425.0,0.84,66,110,Electric Organ
425.0,0.6399999999999999,71,110,Electric Organ
425.5,0.72,31,110,Electric Organ
425.5,0.72,43,110,Electric Organ
426.0,0.48,78,100,Electric Organ
426.0,0.15999999999999998,78,127,Electric Organ
426.25,0.15999999999999998,74,110,Electric Organ
426.5,0.15999999999999998,71,120,Electric Organ
426.75,0.15999999999999998,66,104,Electric Organ
427.0,0.24,78,100,Electric Organ
427.0,0.96,31,110,Electric Organ
427.0,0.96,43,110,Electric Organ
427.0,0.15999999999999998,64,127,Electric Organ
427.25,0.15999999999999998,59,110,Electric Organ
427.5,0.12,76,100,Electric Organ
427.5,0.15999999999999998,55,127,Electric Organ
427.75,0.31999999999999995,79,100,Electric Organ
427.75,0.84,30,110,Electric Organ
427.75,0.84,42,110,Electric Organ
427.75,2.04,49,100,Electric Organ
427.75,0.6,61,113,Electric Organ
427.75,0.6,64,113,Electric Organ
427.75,0.6,73,113,Electric Organ
427.75,0.6,61,92,Electric Organ
427.75,0.6,73,92,Electric Organ
427.75,1.92,49,80,Electric Organ
427.75,1.92,42,80,Electric Organ
428.5,1.68,78,100,Electric Organ
428.5,0.6,54,90,Electric Organ
429.0,0.96,61,100,Electric Organ
429.0,0.72,64,110,Electric Organ
429.0,0.6399999999999999,69,120,Electric Organ
429.0,0.48,69,102,Electric Organ
429.0,0.48,81,102,Electric Organ
429.5,0.72,30,110,Electric Organ
429.5,0.72,42,110,Electric Organ
430.0,0.15999999999999998,76,127,Electric Organ
430.0,0.48,64,98,Electric Organ
430.0,0.48,76,98,Electric Organ
430.25,0.15999999999999998,73,110,Electric Organ
430.5,0.15999999999999998,69,120,Electric Organ
430.75,0.15999999999999998,64,104,Electric Organ
431.0,0.84,30,110,Electric Organ
431.0,0.84,42,110,Electric Organ
431.0,0.15999999999999998,61,127,Electric Organ
431.0,0.31999999999999995,61,88,Electric Organ
431.0,0.31999999999999995,73,88,Electric Organ
431.25,0.15999999999999998,57,110,Electric Organ
431.5,0.15999999999999998,52,127,Electric Organ
431.75,0.8,28,106,Electric Organ
431.75,0.8,40,106,Electric Organ
431.75,0.8,47,106,Electric Organ
431.75,0.8,55,106,Electric Organ
431.75,0.8,59,106,Electric Organ
431.75,0.6,62,115,Electric Organ
431.75,0.6,71,115,Electric Organ
431.75,1.92,76,80,Electric Organ
431.75,0.8,67,98,Electric Organ
431.75,0.8,79,98,Electric Organ
431.75,1.92,47,80,Electric Organ
431.75,1.92,40,80,Electric Organ
432.5,0.6,52,90,Electric Organ
433.0,0.48,74,100,Electric Organ
433.0,0.36,62,107,Electric Organ
433.0,0.36,67,107,Electric Organ
433.0,0.36,71,107,Electric Organ
433.5,0.72,28,115,Electric Organ
433.5,0.72,40,115,Electric Organ
433.5,0.12,67,98,Electric Organ
433.5,0.12,79,98,Electric Organ
433.75,0.12,69,88,Electric Organ
433.75,0.12,81,88,Electric Organ
434.0,0.48,74,100,Electric Organ
434.0,0.15999999999999998,74,127,Electric Organ
434.0,0.8,71,102,Electric Organ
434.0,0.8,83,102,Electric Organ
434.25,0.15999999999999998,71,110,Electric Organ
434.5,0.15999999999999998,67,120,Electric Organ
434.75,0.15999999999999998,62,104,Electric Organ
435.0,0.31999999999999995,71,100,Electric Organ
435.0,0.84,28,115,Electric Organ
435.0,0.84,40,115,Electric Organ
435.0,0.15999999999999998,59,127,Electric Organ
435.25,0.15999999999999998,55,110,Electric Organ
435.5,0.15999999999999998,50,127,Electric Organ
435.75,0.6,78,100,Electric Organ
435.75,0.84,30,110,Electric Organ
435.75,0.84,42,110,Electric Organ
435.75,2.04,49,105,Electric Organ
435.75,2.04,57,105,Electric Organ
435.75,0.6,61,110,Electric Organ
435.75,0.6,64,110,Electric Organ
435.75,0.6,73,110,Electric Organ
435.75,1.92,78,80,Electric Organ
435.75,0.8,69,102,Electric Organ
435.75,0.8,81,102,Electric Organ
435.75,1.92,49,80,Electric Organ
435.75,1.92,42,80,Electric Organ
436.5,0.48,54,100,Electric Organ
437.0,0.48,76,100,Electric Organ
437.0,0.24,64,110,Electric Organ
437.0,0.24,61,110,Electric Organ
437.0,0.24,69,110,Electric Organ
437.5,0.48,30,110,Electric Organ
437.5,0.48,42,110,Electric Organ
437.5,0.84,54,110,Electric Organ
437.5,0.15999999999999998,69,92,Electric Organ
437.5,0.15999999999999998,81,92,Electric Organ
437.75,0.12,71,82,Electric Organ
437.75,0.12,83,82,Electric Organ
438.0,0.24,74,100,Electric Organ
438.0,0.48,61,112,Electric Organ
438.0,0.48,64,112,Electric Organ
438.0,0.48,69,112,Electric Organ
438.0,0.48,71,112,Electric Organ
438.0,0.48,73,98,Electric Organ
438.0,0.48,85,98,Electric Organ
438.5,0.6399999999999999,78,100,Electric Organ
438.5,0.48,30,124,Electric Organ
438.5,0.48,42,124,Electric Organ
439.0,0.31999999999999995,64,109,Electric Organ
439.0,0.31999999999999995,66,109,Electric Organ
439.0,0.31999999999999995,69,109,Electric Organ
439.0,0.31999999999999995,73,109,Electric Organ
439.0,0.31999999999999995,76,102,Electric Organ
439.0,0.31999999999999995,88,102,Electric Organ
439.5,0.12,30,127,Electric Organ
439.5,0.12,42,127,Electric Organ
439.75,2.04,31,120,Electric Organ
439.75,2.04,43,120,Electric Organ
439.75,1.6,50,100,Electric Organ
439.75,0.31999999999999995,62,120,Electric Organ
439.75,0.24,74,127,Electric Organ
439.75,3.84,78,80,Electric Organ
439.75,1.92,74,98,Electric Organ
439.75,1.92,86,98,Electric Organ
439.75,1.92,50,80,Electric Organ
439.75,1.92,43,80,Electric Organ
440.25,0.15999999999999998,67,107,Electric Organ
440.5,0.15999999999999998,71,117,Electric Organ
440.75,0.15999999999999998,74,127,Electric Organ
441.0,0.48,78,100,Electric Organ
441.0,0.15999999999999998,78,127,Electric Organ
441.25,0.15999999999999998,74,107,Electric Organ
441.5,0.15999999999999998,71,120,Electric Organ
441.75,0.15999999999999998,67,107,Electric Organ
442.0,0.48,78,100,Electric Organ
442.0,0.15999999999999998,71,117,Electric Organ
442.25,0.15999999999999998,67,107,Electric Organ
442.5,0.15999999999999998,62,117,Electric Organ
442.75,0.15999999999999998,59,127,Electric Organ
443.0,0.24,78,100,Electric Organ
443.0,0.15999999999999998,55,107,Electric Organ
443.25,0.15999999999999998,50,127,Electric Organ
443.5,0.12,76,100,Electric Organ
443.5,0.15999999999999998,47,127,Electric Organ
443.75,0.31999999999999995,79,100,Electric Organ
443.75,2.04,30,120,Electric Organ
443.75,2.04,42,120,Electric Organ
443.75,1.6,49,100,Electric Organ
443.75,0.31999999999999995,61,120,Electric Organ
443.75,0.24,73,127,Electric Organ
443.75,0.6,73,92,Electric Organ
443.75,0.6,85,92,Electric Organ
443.75,1.92,49,80,Electric Organ
443.75,1.92,42,80,Electric Organ
444.25,0.15999999999999998,66,107,Electric Organ
444.5,1.68,78,100,Electric Organ
444.5,0.15999999999999998,69,117,Electric Organ
444.75,0.15999999999999998,73,127,Electric Organ
445.0,0.15999999999999998,76,127,Electric Organ
445.0,0.48,81,102,Electric Organ
445.0,0.48,93,102,Electric Organ
445.25,0.15999999999999998,73,107,Electric Organ
445.5,0.15999999999999998,69,120,Electric Organ
445.75,0.15999999999999998,66,107,Electric Organ
446.0,0.15999999999999998,69,117,Electric Organ
446.0,0.48,76,98,Electric Organ
446.0,0.48,88,98,Electric Organ
446.25,0.15999999999999998,66,107,Electric Organ
446.5,0.15999999999999998,61,117,Electric Organ
446.75,0.15999999999999998,57,127,Electric Organ
447.0,0.15999999999999998,54,107,Electric Organ
447.0,0.31999999999999995,73,88,Electric Organ
447.0,0.31999999999999995,85,88,Electric Organ
447.25,0.15999999999999998,49,127,Electric Organ
447.5,0.15999999999999998,45,127,Electric Organ
447.75,2.04,28,113,Electric Organ
447.75,2.04,40,113,Electric Organ
447.75,2.04,47,113,Electric Organ
447.75,0.31999999999999995,59,120,Electric Organ
447.75,0.24,71,127,Electric Organ
447.75,1.92,76,80,Electric Organ
447.75,0.8,79,98,Electric Organ
447.75,0.8,91,98,Electric Organ
447.75,1.92,47,80,Electric Organ
447.75,1.92,40,80,Electric Organ
448.25,0.15999999999999998,64,107,Electric Organ
448.5,0.15999999999999998,67,117,Electric Organ
448.75,0.15999999999999998,71,127,Electric Organ
449.0,0.48,74,100,Electric Organ
449.0,0.15999999999999998,74,127,Electric Organ
449.25,0.15999999999999998,71,107,Electric Organ
449.5,0.15999999999999998,67,120,Electric Organ
449.5,0.12,79,98,Electric Organ
449.5,0.12,91,98,Electric Organ
449.75,0.15999999999999998,64,107,Electric Organ
449.75,0.12,76,88,Electric Organ
449.75,0.12,88,88,Electric Organ
450.0,0.48,74,100,Electric Organ
450.0,0.15999999999999998,67,117,Electric Organ
450.0,0.8,71,102,Electric Organ
450.0,0.8,83,102,Electric Organ
450.25,0.15999999999999998,71,117,Electric Organ
450.5,0.15999999999999998,76,107,Electric Organ
450.75,0.15999999999999998,79,127,Electric Organ
451.0,0.31999999999999995,71,100,Electric Organ
451.0,0.15999999999999998,83,127,Electric Organ
451.25,0.15999999999999998,88,107,Electric Organ
451.5,0.15999999999999998,91,127,Electric Organ
451.75,0.6,78,100,Electric Organ
451.75,2.04,30,120,Electric Organ
451.75,1.6,42,120,Electric Organ
451.75,1.44,49,100,Electric Organ
451.75,0.96,61,120,Electric Organ
451.75,0.72,73,127,Electric Organ
451.75,1.92,78,80,Electric Organ
451.75,0.24,69,102,Electric Organ
451.75,0.24,81,102,Electric Organ
451.75,1.7999999999999998,49,80,Electric Organ
451.75,1.7999999999999998,42,80,Electric Organ
451.75,0.0,38,99,Electric Organ
451.75,0.0,53,99,Electric Organ
452.25,0.15999999999999998,90,107,Electric Organ
452.25,0.15999999999999998,78,100,Electric Organ
452.25,0.15999999999999998,90,100,Electric Organ
452.25,0.0,38,99,Electric Organ
452.25,0.0,53,99,Electric Organ
452.5,0.15999999999999998,85,127,Electric Organ
452.5,0.15999999999999998,73,120,Electric Organ
452.5,0.15999999999999998,85,120,Electric Organ
452.75,0.15999999999999998,81,120,Electric Organ
452.75,0.15999999999999998,69,112,Electric Organ
452.75,0.15999999999999998,81,112,Electric Organ
452.75,0.0,36,106,Electric Organ
453.0,0.48,76,100,Electric Organ
453.0,0.15999999999999998,76,127,Electric Organ
453.0,0.15999999999999998,64,120,Electric Organ
453.0,0.15999999999999998,76,120,Electric Organ
453.0,0.0,38,99,Electric Organ
453.0,0.0,53,99,Electric Organ
453.0,0.48,54,110,Electric Organ
453.25,1.2799999999999998,73,107,Electric Organ
453.25,0.15999999999999998,61,100,Electric Organ
453.25,0.15999999999999998,73,100,Electric Organ
453.5,0.15999999999999998,69,117,Electric Organ
453.5,0.15999999999999998,57,110,Electric Organ
453.5,0.15999999999999998,69,110,Electric Organ
453.5,0.0,38,99,Electric Organ
453.5,0.0,53,99,Electric Organ
453.75,0.15999999999999998,66,107,Electric Organ
453.75,0.15999999999999998,54,100,Electric Organ
453.75,0.15999999999999998,66,100,Electric Organ
454.0,0.24,74,100,Electric Organ
454.0,0.96,61,117,Electric Organ
454.0,0.15999999999999998,49,110,Electric Organ
454.0,0.15999999999999998,61,110,Electric Organ
454.0,0.0,48,106,Electric Organ
454.0,0.8,50,110,Electric Organ
454.0,0.8,55,110,Electric Organ
454.25,0.15999999999999998,57,127,Electric Organ
454.25,0.15999999999999998,45,120,Electric Organ
454.25,0.15999999999999998,57,120,Electric Organ
454.25,0.0,45,92,Electric Organ
454.3333333333333,0.0,36,92,Electric Organ
454.5,0.0,48,100,Electric Organ
454.5,0.0,50,100,Electric Organ
454.5,0.6399999999999999,78,100,Electric Organ
454.5,0.15999999999999998,54,107,Electric Organ
454.5,0.15999999999999998,42,100,Electric Organ
454.5,0.15999999999999998,54,100,Electric Organ
454.5,0.0,45,106,Electric Organ
454.6666666666667,0.0,52,100,Electric Organ
454.6666666666667,0.0,54,100,Electric Organ
454.6666666666667,0.0,41,92,Electric Organ
454.75,0.0,55,100,Electric Organ
454.75,0.6,49,127,Electric Organ
454.75,0.15999999999999998,37,120,Electric Organ
454.75,0.15999999999999998,49,120,Electric Organ
454.75,0.0,36,92,Electric Organ
455.0,0.0,57,100,Electric Organ
455.0,0.0,59,100,Electric Organ
455.0,0.0,60,100,Electric Organ
455.0,0.15999999999999998,45,127,Electric Organ
455.0,0.15999999999999998,33,120,Electric Organ
455.0,0.15999999999999998,45,120,Electric Organ
455.0,0.0,48,106,Electric Organ
455.25,0.0,62,100,Electric Organ
455.25,0.0,64,100,Electric Organ
455.25,0.31999999999999995,42,107,Electric Organ
455.25,0.31999999999999995,30,100,Electric Organ
455.25,0.31999999999999995,42,100,Electric Organ
455.25,0.0,45,92,Electric Organ
455.3333333333333,0.0,66,100,Electric Organ
455.3333333333333,0.0,41,92,Electric Organ
455.5,0.0,67,100,Electric Organ
455.5,0.0,69,100,Electric Organ
455.5,0.0,38,101,Electric Organ
455.5,0.0,36,101,Electric Organ
455.6666666666667,0.0,71,100,Electric Organ
455.75,1.7999999999999998,67,98,Electric Organ
455.75,1.7999999999999998,71,98,Electric Organ
455.75,1.7999999999999998,74,98,Electric Organ
455.75,1.7999999999999998,78,98,Electric Organ
455.75,0.24,31,110,Electric Organ
455.75,0.0,36,80,Electric Organ
455.75,0.0,57,80,Electric Organ
455.75,0.31999999999999995,43,110,Electric Organ
455.75,0.31999999999999995,50,110,Electric Organ
455.75,0.31999999999999995,43,110,Electric Organ
455.75,0.31999999999999995,50,110,Electric Organ
456.25,0.12,31,110,Electric Organ
456.25,0.0,36,82,Electric Organ
456.5,0.24,38,100,Electric Organ
456.5,0.0,38,98,Electric Organ
456.5,0.0,53,98,Electric Organ
456.5,0.0,36,98,Electric Organ
456.5,0.12,43,95,Electric Organ
456.5,0.12,50,95,Electric Organ
456.5,0.12,43,95,Electric Organ
456.5,0.12,50,95,Electric Organ
456.75,0.0,36,82,Electric Organ
456.75,0.12,50,95,Electric Organ
456.75,0.12,43,95,Electric Organ
456.75,0.12,50,95,Electric Organ
456.75,0.12,43,95,Electric Organ
457.0,0.12,43,100,Electric Organ
457.0,0.48,78,100,Electric Organ
457.0,0.48,78,100,Electric Organ
457.0,0.48,59,100,Electric Organ
457.0,0.48,62,100,Electric Organ
457.0,0.0,36,94,Electric Organ
457.0,0.0,53,94,Electric Organ
457.0,0.12,43,105,Electric Organ
457.0,0.12,50,105,Electric Organ
457.0,0.12,43,105,Electric Organ
457.0,0.12,50,105,Electric Organ
457.25,0.12,43,110,Electric Organ
457.25,0.0,36,82,Electric Organ
457.25,0.12,50,95,Electric Organ
457.25,0.12,43,95,Electric Organ
457.25,0.12,50,95,Electric Organ
457.25,0.12,43,95,Electric Organ
457.5,0.12,38,110,Electric Organ
457.5,0.0,38,98,Electric Organ
457.5,0.0,53,98,Electric Organ
457.5,0.0,36,98,Electric Organ
457.5,0.12,43,95,Electric Organ
457.5,0.12,50,95,Electric Organ
457.5,0.12,43,95,Electric Organ
457.5,0.12,50,95,Electric Organ
457.75,0.24,43,110,Electric Organ
457.75,0.0,36,82,Electric Organ
457.75,0.12,50,95,Electric Organ
457.75,0.12,43,95,Electric Organ
457.75,0.12,50,95,Electric Organ
457.75,0.12,43,95,Electric Organ
458.0,0.48,78,100,Electric Organ
458.0,0.48,78,100,Electric Organ
458.0,0.48,59,100,Electric Organ
458.0,0.48,62,100,Electric Organ
458.0,0.0,53,94,Electric Organ
458.0,0.0,36,94,Electric Organ
458.0,0.12,43,105,Electric Organ
458.0,0.12,50,105,Electric Organ
458.0,0.12,43,105,Electric Organ
458.0,0.12,50,105,Electric Organ
458.25,0.12,43,100,Electric Organ
458.25,0.0,36,82,Electric Organ
458.25,0.12,50,95,Electric Organ
458.25,0.12,43,95,Electric Organ
458.25,0.12,50,95,Electric Organ
458.25,0.12,43,95,Electric Organ
458.5,0.24,38,100,Electric Organ
458.5,0.0,38,98,Electric Organ
458.5,0.0,53,98,Electric Organ
458.5,0.0,36,98,Electric Organ
458.5,0.12,43,95,Electric Organ
458.5,0.12,50,95,Electric Organ
458.5,0.12,43,95,Electric Organ
458.5,0.12,50,95,Electric Organ
458.75,0.0,36,82,Electric Organ
458.75,0.12,50,95,Electric Organ
458.75,0.12,43,95,Electric Organ
458.75,0.12,50,95,Electric Organ
458.75,0.12,43,95,Electric Organ
459.0,0.12,43,110,Electric Organ
459.0,0.24,78,100,Electric Organ
459.0,0.24,78,100,Electric Organ
459.0,0.24,59,100,Electric Organ
459.0,0.24,62,100,Electric Organ
459.0,0.0,53,94,Electric Organ
459.0,0.0,36,94,Electric Organ
459.0,0.12,43,105,Electric Organ
459.0,0.12,50,105,Electric Organ
459.0,0.12,43,105,Electric Organ
459.0,0.12,50,105,Electric Organ
459.25,0.12,45,110,Electric Organ
459.25,0.0,36,82,Electric Organ
459.25,0.12,50,95,Electric Organ
459.25,0.12,43,95,Electric Organ
459.25,0.12,50,95,Electric Organ
459.25,0.12,43,95,Electric Organ
459.5,0.0,66,100,Electric Organ
459.5,0.0,64,90,Electric Organ
459.5,0.12,43,100,Electric Organ
459.5,0.12,79,100,Electric Organ
459.5,0.12,79,100,Electric Organ
459.5,0.12,61,100,Electric Organ
459.5,0.12,64,100,Electric Organ
459.5,0.0,38,101,Electric Organ
459.5,0.0,36,101,Electric Organ
459.5,0.12,43,95,Electric Organ
459.5,0.12,50,95,Electric Organ
459.5,0.12,43,95,Electric Organ
459.5,0.12,50,95,Electric Organ
459.6666666666667,0.0,62,80,Electric Organ
459.75,1.7999999999999998,66,98,Electric Organ
459.75,1.7999999999999998,69,98,Electric Organ
459.75,1.7999999999999998,73,98,Electric Organ
459.75,1.7999999999999998,76,98,Electric Organ
459.75,0.24,42,110,Electric Organ
459.75,0.8,81,100,Electric Organ
459.75,0.8,81,100,Electric Organ
459.75,0.8,61,100,Electric Organ
459.75,0.8,66,100,Electric Organ
459.75,0.0,36,80,Electric Organ
459.75,0.0,57,80,Electric Organ
459.75,0.31999999999999995,49,105,Electric Organ
459.75,0.31999999999999995,42,105,Electric Organ
459.75,0.31999999999999995,49,105,Electric Organ
459.75,0.31999999999999995,42,105,Electric Organ
460.0,0.0,53,94,Electric Organ
460.0,0.0,36,94,Electric Organ
460.25,0.12,42,110,Electric Organ
460.25,0.0,36,82,Electric Organ
460.5,0.24,37,100,Electric Organ
460.5,0.0,38,98,Electric Organ
460.5,0.0,53,98,Electric Organ
460.5,0.0,36,98,Electric Organ
460.5,0.12,42,95,Electric Organ
460.5,0.12,49,95,Electric Organ
460.5,0.12,42,95,Electric Organ
460.5,0.12,49,95,Electric Organ
460.75,0.0,36,82,Electric Organ
460.75,0.12,49,95,Electric Organ
460.75,0.12,42,95,Electric Organ
460.75,0.12,49,95,Electric Organ
460.75,0.12,42,95,Electric Organ
461.0,0.12,42,110,Electric Organ
461.0,0.0,36,94,Electric Organ
461.0,0.0,53,94,Electric Organ
461.0,0.12,42,105,Electric Organ
461.0,0.12,49,105,Electric Organ
461.0,0.12,42,105,Electric Organ
461.0,0.12,49,105,Electric Organ
461.25,0.12,42,110,Electric Organ
461.25,0.0,36,82,Electric Organ
461.25,0.12,49,95,Electric Organ
461.25,0.12,42,95,Electric Organ
461.25,0.12,49,95,Electric Organ
461.25,0.12,42,95,Electric Organ
461.5,0.12,37,100,Electric Organ
461.5,0.12,79,100,Electric Organ
461.5,0.12,79,100,Electric Organ
461.5,0.12,61,100,Electric Organ
461.5,0.12,64,100,Electric Organ
461.5,0.0,38,98,Electric Organ
461.5,0.0,53,98,Electric Organ
461.5,0.0,36,98,Electric Organ
461.5,0.12,42,95,Electric Organ
461.5,0.12,49,95,Electric Organ
461.5,0.12,42,95,Electric Organ
461.5,0.12,49,95,Electric Organ
461.75,0.24,42,110,Electric Organ
461.75,0.12,78,100,Electric Organ
461.75,0.12,78,100,Electric Organ
461.75,0.12,59,100,Electric Organ
461.75,0.12,62,100,Electric Organ
461.75,0.0,36,82,Electric Organ
461.75,0.12,49,95,Electric Organ
461.75,0.12,42,95,Electric Organ
461.75,0.12,49,95,Electric Organ
461.75,0.12,42,95,Electric Organ
462.0,1.44,76,100,Electric Organ
462.0,0.96,76,100,Electric Organ
462.0,0.96,57,100,Electric Organ
462.0,0.96,61,100,Electric Organ
462.0,0.0,53,94,Electric Organ
462.0,0.0,36,94,Electric Organ
462.0,0.12,42,105,Electric Organ
462.0,0.12,49,105,Electric Organ
462.0,0.12,42,105,Electric Organ
462.0,0.12,49,105,Electric Organ
462.25,0.12,42,100,Electric Organ
462.25,0.0,36,82,Electric Organ
462.25,0.12,49,95,Electric Organ
462.25,0.12,42,95,Electric Organ
462.25,0.12,49,95,Electric Organ
462.25,0.12,42,95,Electric Organ
462.5,0.24,37,100,Electric Organ
462.5,0.0,38,98,Electric Organ
462.5,0.0,53,98,Electric Organ
462.5,0.0,36,98,Electric Organ
462.5,0.12,42,95,Electric Organ
462.5,0.12,49,95,Electric Organ
462.5,0.12,42,95,Electric Organ
462.5,0.12,49,95,Electric Organ
462.75,0.0,36,82,Electric Organ
462.75,0.12,49,95,Electric Organ
462.75,0.12,42,95,Electric Organ
462.75,0.12,49,95,Electric Organ
462.75,0.12,42,95,Electric Organ
463.0,0.12,42,110,Electric Organ
463.0,0.0,53,94,Electric Organ
463.0,0.0,36,94,Electric Organ
463.0,0.12,42,105,Electric Organ
463.0,0.12,49,105,Electric Organ
463.0,0.12,42,105,Electric Organ
463.0,0.12,49,105,Electric Organ
463.25,0.12,42,100,Electric Organ
463.25,0.0,36,82,Electric Organ
463.25,0.12,49,95,Electric Organ
463.25,0.12,42,95,Electric Organ
463.25,0.12,49,95,Electric Organ
463.25,0.12,42,95,Electric Organ
463.5,0.12,37,100,Electric Organ
463.5,0.0,38,101,Electric Organ
463.5,0.0,36,101,Electric Organ
463.5,0.12,42,95,Electric Organ
463.5,0.12,49,95,Electric Organ
463.5,0.12,42,95,Electric Organ
463.5,0.12,49,95,Electric Organ
463.75,1.7999999999999998,64,98,Electric Organ
463.75,1.7999999999999998,67,98,Electric Organ
463.75,1.7999999999999998,71,98,Electric Organ
463.75,1.7999999999999998,74,98,Electric Organ
463.75,0.24,40,110,Electric Organ
463.75,0.0,36,80,Electric Organ
463.75,0.0,49,80,Electric Organ
463.75,0.31999999999999995,47,105,Electric Organ
463.75,0.31999999999999995,40,105,Electric Organ
463.75,0.31999999999999995,47,105,Electric Organ
463.75,0.31999999999999995,40,105,Electric Organ
464.0,0.0,36,96,Electric Organ
464.25,0.12,40,100,Electric Organ
464.25,0.0,36,82,Electric Organ
464.5,0.24,35,100,Electric Organ
464.5,0.0,38,98,Electric Organ
464.5,0.0,53,98,Electric Organ
464.5,0.0,36,98,Electric Organ
464.5,0.12,40,95,Electric Organ
464.5,0.12,47,95,Electric Organ
464.5,0.12,40,95,Electric Organ
464.5,0.12,47,95,Electric Organ
464.75,0.0,36,82,Electric Organ
464.75,0.12,47,95,Electric Organ
464.75,0.12,40,95,Electric Organ
464.75,0.12,47,95,Electric Organ
464.75,0.12,40,95,Electric Organ
465.0,0.12,40,110,Electric Organ
465.0,0.48,74,100,Electric Organ
465.0,0.0,36,94,Electric Organ
465.0,0.0,53,94,Electric Organ
465.0,0.12,40,105,Electric Organ
465.0,0.12,47,105,Electric Organ
465.0,0.12,40,105,Electric Organ
465.0,0.12,47,105,Electric Organ
465.25,0.12,40,110,Electric Organ
465.25,0.0,36,82,Electric Organ
465.25,0.12,47,95,Electric Organ
465.25,0.12,40,95,Electric Organ
465.25,0.12,47,95,Electric Organ
465.25,0.12,40,95,Electric Organ
465.5,0.12,35,100,Electric Organ
465.5,0.0,38,98,Electric Organ
465.5,0.0,53,98,Electric Organ
465.5,0.0,36,98,Electric Organ
465.5,0.12,40,95,Electric Organ
465.5,0.12,47,95,Electric Organ
465.5,0.12,40,95,Electric Organ
465.5,0.12,47,95,Electric Organ
465.75,0.24,40,110,Electric Organ
465.75,0.0,36,82,Electric Organ
465.75,0.12,47,95,Electric Organ
465.75,0.12,40,95,Electric Organ
465.75,0.12,47,95,Electric Organ
465.75,0.12,40,95,Electric Organ
466.0,0.48,74,100,Electric Organ
466.0,0.0,53,94,Electric Organ
466.0,0.0,36,94,Electric Organ
466.0,0.12,40,105,Electric Organ
466.0,0.12,47,105,Electric Organ
466.0,0.12,40,105,Electric Organ
466.0,0.12,47,105,Electric Organ
466.25,0.12,40,110,Electric Organ
466.25,0.0,36,82,Electric Organ
466.25,0.12,47,95,Electric Organ
466.25,0.12,40,95,Electric Organ
466.25,0.12,47,95,Electric Organ
466.25,0.12,40,95,Electric Organ
466.5,0.24,35,100,Electric Organ
466.5,0.0,38,98,Electric Organ
466.5,0.0,53,98,Electric Organ
466.5,0.0,36,98,Electric Organ
466.5,0.12,40,95,Electric Organ
466.5,0.12,47,95,Electric Organ
466.5,0.12,40,95,Electric Organ
466.5,0.12,47,95,Electric Organ
466.75,0.0,36,82,Electric Organ
466.75,0.12,47,95,Electric Organ
466.75,0.12,40,95,Electric Organ
466.75,0.12,47,95,Electric Organ
466.75,0.12,40,95,Electric Organ
467.0,0.12,40,110,Electric Organ
467.0,0.31999999999999995,71,100,Electric Organ
467.0,0.0,53,94,Electric Organ
467.0,0.0,36,94,Electric Organ
467.0,0.12,40,105,Electric Organ
467.0,0.12,47,105,Electric Organ
467.0,0.12,40,105,Electric Organ
467.0,0.12,47,105,Electric Organ
467.25,0.12,40,100,Electric Organ
467.25,0.0,36,82,Electric Organ
467.25,0.12,47,95,Electric Organ
467.25,0.12,40,95,Electric Organ
467.25,0.12,47,95,Electric Organ
467.25,0.12,40,95,Electric Organ
467.5,0.0,62,95,Electric Organ
467.5,0.0,60,95,Electric Organ
467.5,0.12,41,100,Electric Organ
467.5,0.0,38,101,Electric Organ
467.5,0.0,36,101,Electric Organ
467.5,0.12,40,95,Electric Organ
467.5,0.12,47,95,Electric Organ
467.5,0.12,40,95,Electric Organ
467.5,0.12,47,95,Electric Organ
467.6666666666667,0.0,59,80,Electric Organ
467.75,1.7999999999999998,66,98,Electric Organ
467.75,1.7999999999999998,69,98,Electric Organ
467.75,1.7999999999999998,73,98,Electric Organ
467.75,1.7999999999999998,76,98,Electric Organ
467.75,0.24,42,110,Electric Organ
467.75,0.6,78,100,Electric Organ
467.75,0.0,36,80,Electric Organ
467.75,0.0,57,80,Electric Organ
467.75,0.31999999999999995,49,105,Electric Organ
467.75,0.31999999999999995,42,105,Electric Organ
467.75,0.31999999999999995,49,105,Electric Organ
467.75,0.31999999999999995,42,105,Electric Organ
468.0,0.0,53,94,Electric Organ
468.0,0.0,36,94,Electric Organ
468.25,0.12,42,110,Electric Organ
468.25,0.0,36,82,Electric Organ
468.5,0.24,37,100,Electric Organ
468.5,0.0,38,98,Electric Organ
468.5,0.0,53,98,Electric Organ
468.5,0.0,36,98,Electric Organ
468.5,0.12,42,95,Electric Organ
468.5,0.12,49,95,Electric Organ
468.5,0.12,42,95,Electric Organ
468.5,0.12,49,95,Electric Organ
468.75,0.0,36,82,Electric Organ
468.75,0.12,49,95,Electric Organ
468.75,0.12,42,95,Electric Organ
468.75,0.12,49,95,Electric Organ
468.75,0.12,42,95,Electric Organ
469.0,0.12,42,110,Electric Organ
469.0,0.48,76,100,Electric Organ
469.0,0.0,36,94,Electric Organ
469.0,0.0,53,94,Electric Organ
469.0,0.12,42,105,Electric Organ
469.0,0.12,49,105,Electric Organ
469.0,0.12,42,105,Electric Organ
469.0,0.12,49,105,Electric Organ
469.25,0.12,42,110,Electric Organ
469.25,0.0,36,82,Electric Organ
469.25,0.12,49,95,Electric Organ
469.25,0.12,42,95,Electric Organ
469.25,0.12,49,95,Electric Organ
469.25,0.12,42,95,Electric Organ
469.5,0.24,37,100,Electric Organ
469.5,0.0,38,98,Electric Organ
469.5,0.0,53,98,Electric Organ
469.5,0.0,36,98,Electric Organ
469.5,0.12,42,95,Electric Organ
469.5,0.12,49,95,Electric Organ
469.5,0.12,42,95,Electric Organ
469.5,0.12,49,95,Electric Organ
469.75,0.0,36,82,Electric Organ
469.75,0.12,49,95,Electric Organ
469.75,0.12,42,95,Electric Organ
469.75,0.12,49,95,Electric Organ
469.75,0.12,42,95,Electric Organ
470.0,0.24,45,110,Electric Organ
470.0,0.24,74,100,Electric Organ
470.0,0.0,53,94,Electric Organ
470.0,0.0,36,94,Electric Organ
470.0,0.12,42,105,Electric Organ
470.0,0.12,49,105,Electric Organ
470.0,0.12,42,105,Electric Organ
470.0,0.12,49,105,Electric Organ
470.25,0.0,36,82,Electric Organ
470.25,0.12,49,95,Electric Organ
470.25,0.12,42,95,Electric Organ
470.25,0.12,49,95,Electric Organ
470.25,0.12,42,95,Electric Organ
470.5,0.24,43,110,Electric Organ
470.5,1.2,78,100,Electric Organ
470.5,0.0,38,98,Electric Organ
470.5,0.0,53,98,Electric Organ
470.5,0.0,36,98,Electric Organ
470.5,0.12,42,95,Electric Organ
470.5,0.12,49,95,Electric Organ
470.5,0.12,42,95,Electric Organ
470.5,0.12,49,95,Electric Organ
470.75,0.0,36,82,Electric Organ
470.75,0.12,49,95,Electric Organ
470.75,0.12,42,95,Electric Organ
470.75,0.12,49,95,Electric Organ
470.75,0.12,42,95,Electric Organ
471.0,0.24,42,100,Electric Organ
471.0,0.0,53,94,Electric Organ
471.0,0.0,36,94,Electric Organ
471.0,0.12,42,105,Electric Organ
471.0,0.12,49,105,Electric Organ
471.0,0.12,42,105,Electric Organ
471.0,0.12,49,105,Electric Organ
471.25,0.0,36,82,Electric Organ
471.25,0.12,49,95,Electric Organ
471.25,0.12,42,95,Electric Organ
471.25,0.12,49,95,Electric Organ
471.25,0.12,42,95,Electric Organ
471.5,0.12,40,100,Electric Organ
471.5,0.0,38,101,Electric Organ
471.5,0.0,36,101,Electric Organ
471.5,0.12,42,95,Electric Organ
471.5,0.12,49,95,Electric Organ
471.5,0.12,42,95,Electric Organ
471.5,0.12,49,95,Electric Organ
471.75,1.7999999999999998,67,98,Electric Organ
471.75,1.7999999999999998,71,98,Electric Organ
471.75,1.7999999999999998,74,98,Electric Organ
471.75,1.7999999999999998,78,98,Electric Organ
471.75,0.24,43,110,Electric Organ
471.75,0.0,36,80,Electric Organ
471.75,0.0,49,80,Electric Organ
471.75,0.31999999999999995,50,105,Electric Organ
471.75,0.31999999999999995,43,105,Electric Organ
471.75,0.31999999999999995,50,105,Electric Organ
471.75,0.31999999999999995,43,105,Electric Organ
472.0,0.0,36,96,Electric Organ
472.25,0.12,43,110,Electric Organ
472.25,0.0,36,82,Electric Organ
472.5,0.24,38,100,Electric Organ
472.5,0.0,38,98,Electric Organ
472.5,0.0,53,98,Electric Organ
472.5,0.0,36,98,Electric Organ
472.5,0.12,43,95,Electric Organ
472.5,0.12,50,95,Electric Organ
472.5,0.12,43,95,Electric Organ
472.5,0.12,50,95,Electric Organ
472.75,0.0,36,82,Electric Organ
472.75,0.12,50,95,Electric Organ
472.75,0.12,43,95,Electric Organ
472.75,0.12,50,95,Electric Organ
472.75,0.12,43,95,Electric Organ
473.0,0.12,43,100,Electric Organ
473.0,0.48,78,100,Electric Organ
473.0,0.48,78,100,Electric Organ
473.0,0.48,59,100,Electric Organ
473.0,0.48,62,100,Electric Organ
473.0,0.0,36,94,Electric Organ
473.0,0.0,53,94,Electric Organ
473.0,0.12,43,105,Electric Organ
473.0,0.12,50,105,Electric Organ
473.0,0.12,43,105,Electric Organ
473.0,0.12,50,105,Electric Organ
473.25,0.12,43,110,Electric Organ
473.25,0.0,36,82,Electric Organ
473.25,0.12,50,95,Electric Organ
473.25,0.12,43,95,Electric Organ
473.25,0.12,50,95,Electric Organ
473.25,0.12,43,95,Electric Organ
473.5,0.12,38,110,Electric Organ
473.5,0.0,38,98,Electric Organ
473.5,0.0,53,98,Electric Organ
473.5,0.0,36,98,Electric Organ
473.5,0.12,43,95,Electric Organ
473.5,0.12,50,95,Electric Organ
473.5,0.12,43,95,Electric Organ
473.5,0.12,50,95,Electric Organ
473.75,0.24,43,110,Electric Organ
473.75,0.0,36,82,Electric Organ
473.75,0.12,50,95,Electric Organ
473.75,0.12,43,95,Electric Organ
473.75,0.12,50,95,Electric Organ
473.75,0.12,43,95,Electric Organ
474.0,0.48,78,100,Electric Organ
474.0,0.48,78,100,Electric Organ
474.0,0.48,59,100,Electric Organ
474.0,0.48,62,100,Electric Organ
474.0,0.0,53,94,Electric Organ
474.0,0.0,36,94,Electric Organ
474.0,0.12,43,105,Electric Organ
474.0,0.12,50,105,Electric Organ
474.0,0.12,43,105,Electric Organ
474.0,0.12,50,105,Electric Organ
474.25,0.12,43,100,Electric Organ
474.25,0.0,36,82,Electric Organ
474.25,0.12,50,95,Electric Organ
474.25,0.12,43,95,Electric Organ
474.25,0.12,50,95,Electric Organ
474.25,0.12,43,95,Electric Organ
474.5,0.24,38,100,Electric Organ
474.5,0.0,38,98,Electric Organ
474.5,0.0,53,98,Electric Organ
474.5,0.0,36,98,Electric Organ
474.5,0.12,43,95,Electric Organ
474.5,0.12,50,95,Electric Organ
474.5,0.12,43,95,Electric Organ
474.5,0.12,50,95,Electric Organ
474.75,0.0,36,82,Electric Organ
474.75,0.12,50,95,Electric Organ
474.75,0.12,43,95,Electric Organ
474.75,0.12,50,95,Electric Organ
474.75,0.12,43,95,Electric Organ
475.0,0.12,43,110,Electric Organ
475.0,0.24,78,100,Electric Organ
475.0,0.24,78,100,Electric Organ
475.0,0.24,59,100,Electric Organ
475.0,0.24,62,100,Electric Organ
475.0,0.0,53,94,Electric Organ
475.0,0.0,36,94,Electric Organ
475.0,0.12,43,105,Electric Organ
475.0,0.12,50,105,Electric Organ
475.0,0.12,43,105,Electric Organ
475.0,0.12,50,105,Electric Organ
475.25,0.12,45,110,Electric Organ
475.25,0.0,36,82,Electric Organ
475.25,0.12,50,95,Electric Organ
475.25,0.12,43,95,Electric Organ
475.25,0.12,50,95,Electric Organ
475.25,0.12,43,95,Electric Organ
475.5,0.0,66,100,Electric Organ
475.5,0.0,64,90,Electric Organ
475.5,0.12,43,100,Electric Organ
475.5,0.12,79,100,Electric Organ
475.5,0.12,79,100,Electric Organ
475.5,0.12,61,100,Electric Organ
475.5,0.12,64,100,Electric Organ
475.5,0.0,38,101,Electric Organ
475.5,0.0,36,101,Electric Organ
475.5,0.12,43,95,Electric Organ
475.5,0.12,50,95,Electric Organ
475.5,0.12,43,95,Electric Organ
475.5,0.12,50,95,Electric Organ
475.6666666666667,0.0,62,80,Electric Organ
475.75,1.7999999999999998,66,98,Electric Organ
475.75,1.7999999999999998,69,98,Electric Organ
475.75,1.7999999999999998,73,98,Electric Organ
475.75,1.7999999999999998,76,98,Electric Organ
475.75,0.24,42,110,Electric Organ
475.75,0.8,81,100,Electric Organ
475.75,0.8,81,100,Electric Organ
475.75,0.8,61,100,Electric Organ
475.75,0.8,66,100,Electric Organ
475.75,0.0,36,80,Electric Organ
475.75,0.0,57,80,Electric Organ
475.75,0.31999999999999995,49,105,Electric Organ
475.75,0.31999999999999995,42,105,Electric Organ
475.75,0.31999999999999995,49,105,Electric Organ
475.75,0.31999999999999995,42,105,Electric Organ
476.0,0.0,53,94,Electric Organ
476.0,0.0,36,94,Electric Organ
476.25,0.12,42,110,Electric Organ
476.25,0.0,36,82,Electric Organ
476.5,0.24,37,100,Electric Organ
476.5,0.0,38,98,Electric Organ
476.5,0.0,53,98,Electric Organ
476.5,0.0,36,98,Electric Organ
476.5,0.12,42,95,Electric Organ
476.5,0.12,49,95,Electric Organ
476.5,0.12,42,95,Electric Organ
476.5,0.12,49,95,Electric Organ
476.75,0.0,36,82,Electric Organ
476.75,0.12,49,95,Electric Organ
476.75,0.12,42,95,Electric Organ
476.75,0.12,49,95,Electric Organ
476.75,0.12,42,95,Electric Organ
477.0,0.12,42,110,Electric Organ
477.0,0.0,36,94,Electric Organ
477.0,0.0,53,94,Electric Organ
477.0,0.12,42,105,Electric Organ
477.0,0.12,49,105,Electric Organ
477.0,0.12,42,105,Electric Organ
477.0,0.12,49,105,Electric Organ
477.25,0.12,42,110,Electric Organ
477.25,0.0,36,82,Electric Organ
477.25,0.12,49,95,Electric Organ
477.25,0.12,42,95,Electric Organ
477.25,0.12,49,95,Electric Organ
477.25,0.12,42,95,Electric Organ
477.5,0.12,37,100,Electric Organ
477.5,0.12,79,100,Electric Organ
477.5,0.12,79,100,Electric Organ
477.5,0.12,61,100,Electric Organ
477.5,0.12,64,100,Electric Organ
477.5,0.0,38,98,Electric Organ
477.5,0.0,53,98,Electric Organ
477.5,0.0,36,98,Electric Organ
477.5,0.12,42,95,Electric Organ
477.5,0.12,49,95,Electric Organ
477.5,0.12,42,95,Electric Organ
477.5,0.12,49,95,Electric Organ
477.75,0.24,42,110,Electric Organ
477.75,0.12,78,100,Electric Organ
477.75,0.12,78,100,Electric Organ
477.75,0.12,59,100,Electric Organ
477.75,0.12,62,100,Electric Organ
477.75,0.0,36,82,Electric Organ
477.75,0.12,49,95,Electric Organ
477.75,0.12,42,95,Electric Organ
477.75,0.12,49,95,Electric Organ
477.75,0.12,42,95,Electric Organ
478.0,1.44,76,100,Electric Organ
478.0,0.96,76,100,Electric Organ
478.0,0.96,57,100,Electric Organ
478.0,0.96,61,100,Electric Organ
478.0,0.0,53,94,Electric Organ
478.0,0.0,36,94,Electric Organ
478.0,0.12,42,105,Electric Organ
478.0,0.12,49,105,Electric Organ
478.0,0.12,42,105,Electric Organ
478.0,0.12,49,105,Electric Organ
478.25,0.12,42,100,Electric Organ
478.25,0.0,36,82,Electric Organ
478.25,0.12,49,95,Electric Organ
478.25,0.12,42,95,Electric Organ
478.25,0.12,49,95,Electric Organ
478.25,0.12,42,95,Electric Organ
478.5,0.24,37,100,Electric Organ
478.5,0.0,38,98,Electric Organ
478.5,0.0,53,98,Electric Organ
478.5,0.0,36,98,Electric Organ
478.5,0.12,42,95,Electric Organ
478.5,0.12,49,95,Electric Organ
478.5,0.12,42,95,Electric Organ
478.5,0.12,49,95,Electric Organ
478.75,0.0,36,82,Electric Organ
478.75,0.12,49,95,Electric Organ
478.75,0.12,42,95,Electric Organ
478.75,0.12,49,95,Electric Organ
478.75,0.12,42,95,Electric Organ
479.0,0.12,42,110,Electric Organ
479.0,0.0,53,94,Electric Organ
479.0,0.0,36,94,Electric Organ
479.0,0.12,42,105,Electric Organ
479.0,0.12,49,105,Electric Organ
479.0,0.12,42,105,Electric Organ
479.0,0.12,49,105,Electric Organ
479.25,0.12,42,100,Electric Organ
479.25,0.0,36,82,Electric Organ
479.25,0.12,49,95,Electric Organ
479.25,0.12,42,95,Electric Organ
479.25,0.12,49,95,Electric Organ
479.25,0.12,42,95,Electric Organ
479.5,0.12,37,100,Electric Organ
479.5,0.0,38,101,Electric Organ
479.5,0.0,36,101,Electric Organ
479.5,0.12,42,95,Electric Organ
479.5,0.12,49,95,Electric Organ
479.5,0.12,42,95,Electric Organ
479.5,0.12,49,95,Electric Organ
479.75,1.7999999999999998,64,98,Electric Organ
479.75,1.7999999999999998,67,98,Electric Organ
479.75,1.7999999999999998,71,98,Electric Organ
479.75,1.7999999999999998,74,98,Electric Organ
479.75,0.24,40,110,Electric Organ
479.75,0.0,36,80,Electric Organ
479.75,0.0,49,80,Electric Organ
479.75,0.31999999999999995,47,105,Electric Organ
479.75,0.31999999999999995,40,105,Electric Organ
479.75,0.31999999999999995,47,105,Electric Organ
479.75,0.31999999999999995,40,105,Electric Organ
480.0,0.0,36,96,Electric Organ
480.25,0.12,40,100,Electric Organ
480.25,0.0,36,82,Electric Organ
480.5,0.24,35,100,Electric Organ
480.5,0.0,38,98,Electric Organ
480.5,0.0,53,98,Electric Organ
480.5,0.0,36,98,Electric Organ
480.5,0.12,40,95,Electric Organ
480.5,0.12,47,95,Electric Organ
480.5,0.12,40,95,Electric Organ
480.5,0.12,47,95,Electric Organ
480.75,0.0,36,82,Electric Organ
480.75,0.12,47,95,Electric Organ
480.75,0.12,40,95,Electric Organ
480.75,0.12,47,95,Electric Organ
480.75,0.12,40,95,Electric Organ
481.0,0.12,40,110,Electric Organ
481.0,0.48,74,100,Electric Organ
481.0,0.0,36,94,Electric Organ
481.0,0.0,53,94,Electric Organ
481.0,0.12,40,105,Electric Organ
481.0,0.12,47,105,Electric Organ
481.0,0.12,40,105,Electric Organ
481.0,0.12,47,105,Electric Organ
481.25,0.12,40,110,Electric Organ
481.25,0.0,36,82,Electric Organ
481.25,0.12,47,95,Electric Organ
481.25,0.12,40,95,Electric Organ
481.25,0.12,47,95,Electric Organ
481.25,0.12,40,95,Electric Organ
481.5,0.12,35,100,Electric Organ
481.5,0.0,38,98,Electric Organ
481.5,0.0,53,98,Electric Organ
481.5,0.0,36,98,Electric Organ
481.5,0.12,40,95,Electric Organ
481.5,0.12,47,95,Electric Organ
481.5,0.12,40,95,Electric Organ
481.5,0.12,47,95,Electric Organ
481.75,0.24,40,110,Electric Organ
481.75,0.0,36,82,Electric Organ
481.75,0.12,47,95,Electric Organ
481.75,0.12,40,95,Electric Organ
481.75,0.12,47,95,Electric Organ
481.75,0.12,40,95,Electric Organ
482.0,0.48,74,100,Electric Organ
482.0,0.0,53,94,Electric Organ
482.0,0.0,36,94,Electric Organ
482.0,0.12,40,105,Electric Organ
482.0,0.12,47,105,Electric Organ
482.0,0.12,40,105,Electric Organ
482.0,0.12,47,105,Electric Organ
482.25,0.12,40,110,Electric Organ
482.25,0.0,36,82,Electric Organ
482.25,0.12,47,95,Electric Organ
482.25,0.12,40,95,Electric Organ
482.25,0.12,47,95,Electric Organ
482.25,0.12,40,95,Electric Organ
482.5,0.24,35,100,Electric Organ
482.5,0.0,38,98,Electric Organ
482.5,0.0,53,98,Electric Organ
482.5,0.0,36,98,Electric Organ
482.5,0.12,40,95,Electric Organ
482.5,0.12,47,95,Electric Organ
482.5,0.12,40,95,Electric Organ
482.5,0.12,47,95,Electric Organ
482.75,0.0,36,82,Electric Organ
482.75,0.12,47,95,Electric Organ
482.75,0.12,40,95,Electric Organ
482.75,0.12,47,95,Electric Organ
482.75,0.12,40,95,Electric Organ
483.0,0.12,40,110,Electric Organ
483.0,0.31999999999999995,71,100,Electric Organ
483.0,0.0,53,94,Electric Organ
483.0,0.0,36,94,Electric Organ
483.0,0.12,40,105,Electric Organ
483.0,0.12,47,105,Electric Organ
483.0,0.12,40,105,Electric Organ
483.0,0.12,47,105,Electric Organ
483.25,0.12,40,100,Electric Organ
483.25,0.0,36,82,Electric Organ
483.25,0.12,47,95,Electric Organ
483.25,0.12,40,95,Electric Organ
483.25,0.12,47,95,Electric Organ
483.25,0.12,40,95,Electric Organ
483.5,0.0,62,95,Electric Organ
483.5,0.0,60,95,Electric Organ
483.5,0.12,41,100,Electric Organ
483.5,0.0,38,101,Electric Organ
483.5,0.0,36,101,Electric Organ
483.5,0.12,40,95,Electric Organ
483.5,0.12,47,95,Electric Organ
483.5,0.12,40,95,Electric Organ
483.5,0.12,47,95,Electric Organ
483.6666666666667,0.0,59,80,Electric Organ
483.75,0.96,66,98,Electric Organ
483.75,0.96,69,98,Electric Organ
483.75,0.96,73,98,Electric Organ
483.75,0.96,76,98,Electric Organ
483.75,0.24,42,110,Electric Organ
483.75,0.6,78,100,Electric Organ
483.75,0.0,36,80,Electric Organ
483.75,0.0,57,80,Electric Organ
483.75,0.31999999999999995,49,105,Electric Organ
483.75,0.31999999999999995,42,105,Electric Organ
483.75,0.31999999999999995,49,105,Electric Organ
483.75,0.31999999999999995,42,105,Electric Organ
484.0,0.0,53,94,Electric Organ
484.0,0.0,36,94,Electric Organ
484.25,0.12,42,110,Electric Organ
484.25,0.0,36,82,Electric Organ
484.5,0.24,42,100,Electric Organ
484.5,0.0,38,98,Electric Organ
484.5,0.0,53,98,Electric Organ
484.5,0.0,36,98,Electric Organ
484.5,0.12,42,95,Electric Organ
484.5,0.12,49,95,Electric Organ
484.5,0.12,42,95,Electric Organ
484.5,0.12,49,95,Electric Organ
484.75,0.0,36,82,Electric Organ
484.75,0.12,49,95,Electric Organ
484.75,0.12,42,95,Electric Organ
484.75,0.12,49,95,Electric Organ
484.75,0.12,42,95,Electric Organ
485.0,0.12,42,110,Electric Organ
485.0,0.48,76,100,Electric Organ
485.0,0.0,36,94,Electric Organ
485.0,0.0,53,94,Electric Organ
485.0,0.12,42,105,Electric Organ
485.0,0.12,49,105,Electric Organ
485.0,0.12,42,105,Electric Organ
485.0,0.12,49,105,Electric Organ
485.25,0.12,42,110,Electric Organ
485.25,0.0,36,82,Electric Organ
485.25,0.12,49,95,Electric Organ
485.25,0.12,42,95,Electric Organ
485.25,0.12,49,95,Electric Organ
485.25,0.12,42,95,Electric Organ
485.5,0.24,42,100,Electric Organ
485.5,0.0,38,98,Electric Organ
485.5,0.0,53,98,Electric Organ
485.5,0.0,36,98,Electric Organ
485.5,0.12,42,95,Electric Organ
485.5,0.12,49,95,Electric Organ
485.5,0.12,42,95,Electric Organ
485.5,0.12,49,95,Electric Organ
485.75,0.84,66,98,Electric Organ
485.75,0.84,70,98,Electric Organ
485.75,0.84,73,98,Electric Organ
485.75,0.84,76,98,Electric Organ
485.75,0.0,36,82,Electric Organ
485.75,0.31999999999999995,58,100,Electric Organ
485.75,0.31999999999999995,54,100,Electric Organ
485.75,0.31999999999999995,49,100,Electric Organ
485.75,0.31999999999999995,42,100,Electric Organ
485.75,0.31999999999999995,58,100,Electric Organ
485.75,0.31999999999999995,54,100,Electric Organ
485.75,0.31999999999999995,49,100,Electric Organ
485.75,0.31999999999999995,42,100,Electric Organ
486.0,0.24,42,110,Electric Organ
486.0,0.24,74,100,Electric Organ
486.0,0.0,53,94,Electric Organ
486.0,0.0,36,94,Electric Organ
486.25,0.0,36,82,Electric Organ
486.5,0.24,37,110,Electric Organ
486.5,1.2,78,100,Electric Organ
486.5,0.0,48,101,Electric Organ
486.5,0.0,36,101,Electric Organ
486.5,0.24,58,90,Electric Organ
486.5,0.24,54,90,Electric Organ
486.5,0.24,49,90,Electric Organ
486.5,0.24,42,90,Electric Organ
486.5,0.24,58,90,Electric Organ
486.5,0.24,54,90,Electric Organ
486.5,0.24,49,90,Electric Organ
486.5,0.24,42,90,Electric Organ
486.75,0.0,48,87,Electric Organ
486.75,0.0,36,87,Electric Organ
487.0,0.24,30,100,Electric Organ
487.0,0.0,45,101,Electric Organ
487.0,0.0,36,101,Electric Organ
487.0,0.31999999999999995,58,100,Electric Organ
487.0,0.31999999999999995,54,100,Electric Organ
487.0,0.31999999999999995,49,100,Electric Organ
487.0,0.31999999999999995,42,100,Electric Organ
487.0,0.31999999999999995,58,100,Electric Organ
487.0,0.31999999999999995,54,100,Electric Organ
487.0,0.31999999999999995,49,100,Electric Organ
487.0,0.31999999999999995,42,100,Electric Organ
487.25,0.0,45,87,Electric Organ
487.25,0.0,36,87,Electric Organ
487.5,0.0,66,95,Electric Organ
487.5,0.0,64,95,Electric Organ
487.5,0.12,30,100,Electric Organ
487.5,0.0,41,94,Electric Organ
487.5,0.0,36,94,Electric Organ
487.6666666666667,0.0,62,80,Electric Organ
487.75,1.92,59,98,Electric Organ
487.75,1.92,71,98,Electric Organ
487.75,1.92,74,98,Electric Organ
487.75,1.92,78,98,Electric Organ
487.75,0.31999999999999995,35,110,Electric Organ
487.75,0.0,36,80,Electric Organ
487.75,0.0,49,80,Electric Organ
487.75,0.31999999999999995,54,105,Electric Organ
487.75,0.31999999999999995,47,105,Electric Organ
487.75,0.31999999999999995,54,105,Electric Organ
487.75,0.31999999999999995,47,105,Electric Organ
488.0,0.0,36,92,Electric Organ
488.25,0.0,36,82,Electric Organ
488.5,0.12,35,100,Electric Organ
488.5,0.0,38,98,Electric Organ
488.5,0.0,53,98,Electric Organ
488.5,0.0,36,98,Electric Organ
488.5,0.12,47,95,Electric Organ
488.5,0.12,54,95,Electric Organ
488.5,0.12,47,95,Electric Organ
488.5,0.12,54,95,Electric Organ
488.75,0.12,35,100,Electric Organ
488.75,0.0,36,82,Electric Organ
488.75,0.12,54,95,Electric Organ
488.75,0.12,47,95,Electric Organ
488.75,0.12,54,95,Electric Organ
488.75,0.12,47,95,Electric Organ
489.0,0.12,35,110,Electric Organ
489.0,0.48,78,100,Electric Organ
489.0,0.48,78,100,Electric Organ
489.0,0.48,59,100,Electric Organ
489.0,0.48,62,100,Electric Organ
489.0,0.0,36,94,Electric Organ
489.0,0.0,53,94,Electric Organ
489.0,0.12,47,105,Electric Organ
489.0,0.12,54,105,Electric Organ
489.0,0.12,47,105,Electric Organ
489.0,0.12,54,105,Electric Organ
489.25,0.12,35,100,Electric Organ
489.25,0.0,36,82,Electric Organ
489.25,0.12,54,95,Electric Organ
489.25,0.12,47,95,Electric Organ
489.25,0.12,54,95,Electric Organ
489.25,0.12,47,95,Electric Organ
489.5,0.12,35,100,Electric Organ
489.5,0.0,38,98,Electric Organ
489.5,0.0,53,98,Electric Organ
489.5,0.0,36,98,Electric Organ
489.5,0.12,47,95,Electric Organ
489.5,0.12,54,95,Electric Organ
489.5,0.12,47,95,Electric Organ
489.5,0.12,54,95,Electric Organ
489.75,0.12,35,100,Electric Organ
489.75,0.0,36,82,Electric Organ
489.75,0.12,54,95,Electric Organ
489.75,0.12,47,95,Electric Organ
489.75,0.12,54,95,Electric Organ
489.75,0.12,47,95,Electric Organ
490.0,0.12,35,110,Electric Organ
490.0,0.48,78,100,Electric Organ
490.0,0.48,78,100,Electric Organ
490.0,0.48,59,100,Electric Organ
490.0,0.48,62,100,Electric Organ
490.0,0.0,53,94,Electric Organ
490.0,0.0,36,94,Electric Organ
490.0,0.12,47,105,Electric Organ
490.0,0.12,54,105,Electric Organ
490.0,0.12,47,105,Electric Organ
490.0,0.12,54,105,Electric Organ
490.25,0.12,35,100,Electric Organ
490.25,0.0,36,82,Electric Organ
490.25,0.12,54,95,Electric Organ
490.25,0.12,47,95,Electric Organ
490.25,0.12,54,95,Electric Organ
490.25,0.12,47,95,Electric Organ
490.5,0.12,35,100,Electric Organ
490.5,0.0,38,98,Electric Organ
490.5,0.0,53,98,Electric Organ
490.5,0.0,36,98,Electric Organ
490.5,0.12,47,95,Electric Organ
490.5,0.12,54,95,Electric Organ
490.5,0.12,47,95,Electric Organ
490.5,0.12,54,95,Electric Organ
490.75,0.12,35,100,Electric Organ
490.75,0.0,36,82,Electric Organ
490.75,0.12,54,95,Electric Organ
490.75,0.12,47,95,Electric Organ
490.75,0.12,54,95,Electric Organ
490.75,0.12,47,95,Electric Organ
491.0,0.12,35,110,Electric Organ
491.0,0.24,78,100,Electric Organ
491.0,0.24,78,100,Electric Organ
491.0,0.24,59,100,Electric Organ
491.0,0.24,62,100,Electric Organ
491.0,0.0,53,94,Electric Organ
491.0,0.0,36,94,Electric Organ
491.0,0.12,47,105,Electric Organ
491.0,0.12,54,105,Electric Organ
491.0,0.12,47,105,Electric Organ
491.0,0.12,54,105,Electric Organ
491.25,0.12,35,100,Electric Organ
491.25,0.0,36,82,Electric Organ
491.25,0.12,54,95,Electric Organ
491.25,0.12,47,95,Electric Organ
491.25,0.12,54,95,Electric Organ
491.25,0.12,47,95,Electric Organ
491.5,0.12,35,100,Electric Organ
491.5,0.12,76,100,Electric Organ
491.5,0.12,76,100,Electric Organ
491.5,0.12,57,100,Electric Organ
491.5,0.12,61,100,Electric Organ
491.5,0.0,38,98,Electric Organ
491.5,0.0,36,98,Electric Organ
491.5,0.0,53,98,Electric Organ
491.5,0.12,47,95,Electric Organ
491.5,0.12,54,95,Electric Organ
491.5,0.12,47,95,Electric Organ
491.5,0.12,54,95,Electric Organ
491.75,1.56,59,98,Electric Organ
491.75,1.56,69,98,Electric Organ
491.75,1.56,73,98,Electric Organ
491.75,1.56,76,98,Electric Organ
491.75,0.24,35,110,Electric Organ
491.75,0.31999999999999995,79,100,Electric Organ
491.75,0.31999999999999995,79,100,Electric Organ
491.75,0.31999999999999995,61,100,Electric Organ
491.75,0.31999999999999995,64,100,Electric Organ
491.75,0.0,36,82,Electric Organ
491.75,0.31999999999999995,57,103,Electric Organ
491.75,0.31999999999999995,52,103,Electric Organ
491.75,0.31999999999999995,47,103,Electric Organ
491.75,0.31999999999999995,57,103,Electric Organ
491.75,0.31999999999999995,52,103,Electric Organ
491.75,0.31999999999999995,47,103,Electric Organ
492.0,0.0,53,94,Electric Organ
492.0,0.0,36,94,Electric Organ
492.25,0.12,35,100,Electric Organ
492.25,0.0,36,82,Electric Organ
492.5,0.12,35,100,Electric Organ
492.5,1.2,78,100,Electric Organ
492.5,1.2,78,100,Electric Organ
492.5,1.2,59,100,Electric Organ
492.5,1.2,62,100,Electric Organ
492.5,0.0,38,98,Electric Organ
492.5,0.0,53,98,Electric Organ
492.5,0.0,36,98,Electric Organ
492.5,0.12,47,95,Electric Organ
492.5,0.12,52,95,Electric Organ
492.5,0.12,47,95,Electric Organ
492.5,0.12,52,95,Electric Organ
492.75,0.12,35,100,Electric Organ
492.75,0.0,36,82,Electric Organ
492.75,0.12,52,95,Electric Organ
492.75,0.12,47,95,Electric Organ
492.75,0.12,52,95,Electric Organ
492.75,0.12,47,95,Electric Organ
493.0,0.12,35,110,Electric Organ
493.0,0.0,36,94,Electric Organ
493.0,0.0,53,94,Electric Organ
493.0,0.12,47,105,Electric Organ
493.0,0.12,52,105,Electric Organ
493.0,0.12,47,105,Electric Organ
493.0,0.12,52,105,Electric Organ
493.25,0.12,35,100,Electric Organ
493.25,0.0,36,82,Electric Organ
493.25,0.12,52,95,Electric Organ
493.25,0.12,47,95,Electric Organ
493.25,0.12,52,95,Electric Organ
493.25,0.12,47,95,Electric Organ
493.5,0.12,35,100,Electric Organ
493.5,0.0,38,98,Electric Organ
493.5,0.0,53,98,Electric Organ
493.5,0.0,36,98,Electric Organ
493.5,0.12,47,95,Electric Organ
493.5,0.12,52,95,Electric Organ
493.5,0.12,47,95,Electric Organ
493.5,0.12,52,95,Electric Organ
493.75,0.12,35,100,Electric Organ
493.75,0.0,36,82,Electric Organ
493.75,0.12,52,95,Electric Organ
493.75,0.12,47,95,Electric Organ
493.75,0.12,52,95,Electric Organ
493.75,0.12,47,95,Electric Organ
494.0,0.12,35,110,Electric Organ
494.0,0.0,53,94,Electric Organ
494.0,0.0,36,94,Electric Organ
494.0,0.12,47,105,Electric Organ
494.0,0.12,52,105,Electric Organ
494.0,0.12,47,105,Electric Organ
494.0,0.12,52,105,Electric Organ
494.25,0.12,35,100,Electric Organ
494.25,0.0,36,82,Electric Organ
494.25,0.12,52,95,Electric Organ
494.25,0.12,47,95,Electric Organ
494.25,0.12,52,95,Electric Organ
494.25,0.12,47,95,Electric Organ
494.5,0.12,35,100,Electric Organ
494.5,0.0,38,99,Electric Organ
494.5,0.0,53,99,Electric Organ
494.5,0.12,47,95,Electric Organ
494.5,0.12,52,95,Electric Organ
494.5,0.12,47,95,Electric Organ
494.5,0.12,52,95,Electric Organ
494.75,0.12,35,100,Electric Organ
494.75,0.12,52,95,Electric Organ
494.75,0.12,47,95,Electric Organ
494.75,0.12,52,95,Electric Organ
494.75,0.12,47,95,Electric Organ
495.0,0.6399999999999999,65,97,Electric Organ
495.0,0.6399999999999999,69,97,Electric Organ
495.0,0.6399999999999999,72,97,Electric Organ
495.0,0.6399999999999999,29,110,Electric Organ
495.0,0.0,36,92,Electric Organ
495.0,0.0,49,92,Electric Organ
495.0,0.6399999999999999,41,107,Electric Organ
495.0,0.6399999999999999,48,107,Electric Organ
495.0,0.6399999999999999,53,107,Electric Organ
495.0,0.6399999999999999,41,107,Electric Organ
495.0,0.6399999999999999,48,107,Electric Organ
495.0,0.6399999999999999,53,107,Electric Organ
496.5,0.6399999999999999,65,97,Electric Organ
496.5,0.6399999999999999,69,97,Electric Organ
496.5,0.6399999999999999,72,97,Electric Organ
496.5,0.6399999999999999,29,100,Electric Organ
496.5,0.0,57,92,Electric Organ
496.5,0.0,36,92,Electric Organ
496.5,0.6399999999999999,41,107,Electric Organ
496.5,0.6399999999999999,48,107,Electric Organ
496.5,0.6399999999999999,53,107,Electric Organ
496.5,0.6399999999999999,41,107,Electric Organ
496.5,0.6399999999999999,48,107,Electric Organ
496.5,0.6399999999999999,53,107,Electric Organ
498.0,1.7599999999999998,59,98,Electric Organ
498.0,1.7599999999999998,71,98,Electric Organ
498.0,1.7599999999999998,74,98,Electric Organ
498.0,1.7599999999999998,78,98,Electric Organ
498.0,0.24,35,110,Electric Organ
498.0,0.0,36,85,Electric Organ
498.0,0.0,49,85,Electric Organ
498.0,0.24,47,110,Electric Organ
498.0,0.24,54,110,Electric Organ
498.0,0.24,47,110,Electric Organ
498.0,0.24,54,110,Electric Organ
498.25,0.0,36,82,Electric Organ
498.5,0.12,35,100,Electric Organ
498.5,0.0,38,98,Electric Organ
498.5,0.0,53,98,Electric Organ
498.5,0.0,36,98,Electric Organ
498.5,0.12,47,95,Electric Organ
498.5,0.12,54,95,Electric Organ
498.5,0.12,47,95,Electric Organ
498.5,0.12,54,95,Electric Organ
498.75,0.12,35,100,Electric Organ
498.75,0.0,36,82,Electric Organ
498.75,0.12,54,95,Electric Organ
498.75,0.12,47,95,Electric Organ
498.75,0.12,54,95,Electric Organ
498.75,0.12,47,95,Electric Organ
499.0,0.12,35,110,Electric Organ
499.0,0.48,78,100,Electric Organ
499.0,0.48,78,100,Electric Organ
499.0,0.48,59,100,Electric Organ
499.0,0.48,62,100,Electric Organ
499.0,0.0,36,94,Electric Organ
499.0,0.0,53,94,Electric Organ
499.0,0.12,47,105,Electric Organ
499.0,0.12,54,105,Electric Organ
499.0,0.12,47,105,Electric Organ
499.0,0.12,54,105,Electric Organ
499.25,0.12,35,100,Electric Organ
499.25,0.0,36,82,Electric Organ
499.25,0.12,54,95,Electric Organ
499.25,0.12,47,95,Electric Organ
499.25,0.12,54,95,Electric Organ
499.25,0.12,47,95,Electric Organ
499.5,0.12,35,100,Electric Organ
499.5,0.0,38,98,Electric Organ
499.5,0.0,53,98,Electric Organ
499.5,0.0,36,98,Electric Organ
499.5,0.12,47,95,Electric Organ
499.5,0.12,54,95,Electric Organ
499.5,0.12,47,95,Electric Organ
499.5,0.12,54,95,Electric Organ
499.75,0.12,35,100,Electric Organ
499.75,0.0,36,82,Electric Organ
499.75,0.12,54,95,Electric Organ
499.75,0.12,47,95,Electric Organ
499.75,0.12,54,95,Electric Organ
499.75,0.12,47,95,Electric Organ
500.0,0.12,35,110,Electric Organ
500.0,0.48,78,100,Electric Organ
500.0,0.48,78,100,Electric Organ
500.0,0.48,59,100,Electric Organ
500.0,0.48,62,100,Electric Organ
500.0,0.0,53,94,Electric Organ
500.0,0.0,36,94,Electric Organ
500.0,0.12,47,105,Electric Organ
500.0,0.12,54,105,Electric Organ
500.0,0.12,47,105,Electric Organ
500.0,0.12,54,105,Electric Organ
500.25,0.12,35,100,Electric Organ
500.25,0.0,36,82,Electric Organ
500.25,0.12,54,95,Electric Organ
500.25,0.12,47,95,Electric Organ
500.25,0.12,54,95,Electric Organ
500.25,0.12,47,95,Electric Organ
500.5,0.12,35,100,Electric Organ
500.5,0.0,38,98,Electric Organ
500.5,0.0,53,98,Electric Organ
500.5,0.0,36,98,Electric Organ
500.5,0.12,47,95,Electric Organ
500.5,0.12,54,95,Electric Organ
500.5,0.12,47,95,Electric Organ
500.5,0.12,54,95,Electric Organ
500.75,0.12,35,100,Electric Organ
500.75,0.0,36,82,Electric Organ
500.75,0.12,54,95,Electric Organ
500.75,0.12,47,95,Electric Organ
500.75,0.12,54,95,Electric Organ
500.75,0.12,47,95,Electric Organ
501.0,0.12,35,110,Electric Organ
501.0,0.24,78,100,Electric Organ
501.0,0.24,78,100,Electric Organ
501.0,0.24,59,100,Electric Organ
501.0,0.24,62,100,Electric Organ
501.0,0.0,53,94,Electric Organ
501.0,0.0,36,94,Electric Organ
501.0,0.12,47,105,Electric Organ
501.0,0.12,54,105,Electric Organ
501.0,0.12,47,105,Electric Organ
501.0,0.12,54,105,Electric Organ
501.25,0.12,35,100,Electric Organ
501.25,0.0,36,82,Electric Organ
501.25,0.12,54,95,Electric Organ
501.25,0.12,47,95,Electric Organ
501.25,0.12,54,95,Electric Organ
501.25,0.12,47,95,Electric Organ
501.5,0.12,35,100,Electric Organ
501.5,0.12,76,100,Electric Organ
501.5,0.12,76,100,Electric Organ
501.5,0.12,57,100,Electric Organ
501.5,0.12,61,100,Electric Organ
501.5,0.0,38,101,Electric Organ
501.5,0.0,36,101,Electric Organ
501.5,0.12,47,95,Electric Organ
501.5,0.12,54,95,Electric Organ
501.5,0.12,47,95,Electric Organ
501.5,0.12,54,95,Electric Organ
501.75,1.56,59,98,Electric Organ
501.75,1.56,69,98,Electric Organ
501.75,1.56,73,98,Electric Organ
501.75,1.56,76,98,Electric Organ
501.75,0.31999999999999995,35,100,Electric Organ
501.75,0.31999999999999995,79,100,Electric Organ
501.75,0.31999999999999995,79,100,Electric Organ
501.75,0.31999999999999995,61,100,Electric Organ
501.75,0.31999999999999995,64,100,Electric Organ
501.75,0.0,36,80,Electric Organ
501.75,0.0,57,80,Electric Organ
501.75,0.31999999999999995,57,103,Electric Organ
501.75,0.31999999999999995,52,103,Electric Organ
501.75,0.31999999999999995,47,103,Electric Organ
501.75,0.31999999999999995,57,103,Electric Organ
501.75,0.31999999999999995,52,103,Electric Organ
501.75,0.31999999999999995,47,103,Electric Organ
502.0,0.0,36,96,Electric Organ
502.25,0.0,36,82,Electric Organ
502.5,0.12,35,100,Electric Organ
502.5,1.2,78,100,Electric Organ
502.5,1.2,78,100,Electric Organ
502.5,1.2,59,100,Electric Organ
502.5,1.2,62,100,Electric Organ
502.5,0.0,38,98,Electric Organ
502.5,0.0,53,98,Electric Organ
502.5,0.0,36,98,Electric Organ
502.5,0.12,47,95,Electric Organ
502.5,0.12,52,95,Electric Organ
502.5,0.12,47,95,Electric Organ
502.5,0.12,52,95,Electric Organ
502.75,0.12,35,100,Electric Organ
502.75,0.0,36,82,Electric Organ
502.75,0.12,52,95,Electric Organ
502.75,0.12,47,95,Electric Organ
502.75,0.12,52,95,Electric Organ
502.75,0.12,47,95,Electric Organ
503.0,0.12,35,110,Electric Organ
503.0,0.0,36,94,Electric Organ
503.0,0.0,53,94,Electric Organ
503.0,0.12,47,105,Electric Organ
503.0,0.12,52,105,Electric Organ
503.0,0.12,47,105,Electric Organ
503.0,0.12,52,105,Electric Organ
503.25,0.12,35,100,Electric Organ
503.25,0.0,36,82,Electric Organ
503.25,0.12,52,95,Electric Organ
503.25,0.12,47,95,Electric Organ
503.25,0.12,52,95,Electric Organ
503.25,0.12,47,95,Electric Organ
503.5,0.12,35,100,Electric Organ
503.5,0.0,38,98,Electric Organ
503.5,0.0,53,98,Electric Organ
503.5,0.0,36,98,Electric Organ
503.5,0.12,47,95,Electric Organ
503.5,0.12,52,95,Electric Organ
503.5,0.12,47,95,Electric Organ
503.5,0.12,52,95,Electric Organ
503.75,0.12,35,100,Electric Organ
503.75,0.0,36,82,Electric Organ
503.75,0.12,52,95,Electric Organ
503.75,0.12,47,95,Electric Organ
503.75,0.12,52,95,Electric Organ
503.75,0.12,47,95,Electric Organ
504.0,0.12,35,110,Electric Organ
504.0,0.0,53,94,Electric Organ
504.0,0.0,36,94,Electric Organ
504.0,0.12,47,105,Electric Organ
504.0,0.12,52,105,Electric Organ
504.0,0.12,47,105,Electric Organ
504.0,0.12,52,105,Electric Organ
504.25,0.12,35,100,Electric Organ
504.25,0.0,36,82,Electric Organ
504.25,0.12,52,95,Electric Organ
504.25,0.12,47,95,Electric Organ
504.25,0.12,52,95,Electric Organ
504.25,0.12,47,95,Electric Organ
504.5,0.12,35,100,Electric Organ
504.5,0.0,38,99,Electric Organ
504.5,0.0,53,99,Electric Organ
504.5,0.12,47,95,Electric Organ
504.5,0.12,52,95,Electric Organ
504.5,0.12,47,95,Electric Organ
504.5,0.12,52,95,Electric Organ
504.75,0.12,35,100,Electric Organ
504.75,0.12,52,95,Electric Organ
504.75,0.12,47,95,Electric Organ
504.75,0.12,52,95,Electric Organ
504.75,0.12,47,95,Electric Organ
505.0,0.6399999999999999,65,97,Electric Organ
505.0,0.6399999999999999,69,97,Electric Organ
505.0,0.6399999999999999,72,97,Electric Organ
505.0,0.6399999999999999,29,110,Electric Organ
505.0,0.0,36,92,Electric Organ
505.0,0.0,49,92,Electric Organ
505.0,0.6399999999999999,41,107,Electric Organ
505.0,0.6399999999999999,48,107,Electric Organ
505.0,0.6399999999999999,53,107,Electric Organ
505.0,0.6399999999999999,41,107,Electric Organ
505.0,0.6399999999999999,48,107,Electric Organ
505.0,0.6399999999999999,53,107,Electric Organ
506.5,0.6399999999999999,65,97,Electric Organ
506.5,0.6399999999999999,69,97,Electric Organ
506.5,0.6399999999999999,72,97,Electric Organ
506.5,0.6399999999999999,29,100,Electric Organ
506.5,0.0,57,92,Electric Organ
506.5,0.0,36,92,Electric Organ
506.5,0.6399999999999999,41,107,Electric Organ
506.5,0.6399999999999999,48,107,Electric Organ
506.5,0.6399999999999999,53,107,Electric Organ
506.5,0.6399999999999999,41,107,Electric Organ
506.5,0.6399999999999999,48,107,Electric Organ
506.5,0.6399999999999999,53,107,Electric Organ
508.0,0.6399999999999999,65,97,Electric Organ
508.0,0.6399999999999999,69,97,Electric Organ
508.0,0.6399999999999999,72,97,Electric Organ
508.0,0.6399999999999999,29,110,Electric Organ
508.0,0.0,49,92,Electric Organ
508.0,0.0,36,92,Electric Organ
508.0,0.6399999999999999,41,107,Electric Organ
508.0,0.6399999999999999,48,107,Electric Organ
508.0,0.6399999999999999,53,107,Electric Organ
508.0,0.6399999999999999,41,107,Electric Organ
508.0,0.6399999999999999,48,107,Electric Organ
508.0,0.6399999999999999,53,107,Electric Organ
509.5,1.7599999999999998,59,98,Electric Organ
509.5,1.7599999999999998,71,98,Electric Organ
509.5,1.7599999999999998,74,98,Electric Organ
509.5,1.7599999999999998,78,98,Electric Organ
509.5,0.24,35,110,Electric Organ
509.5,0.0,36,85,Electric Organ
509.5,0.0,57,85,Electric Organ
509.5,0.24,47,110,Electric Organ
509.5,0.24,54,110,Electric Organ
509.5,0.24,47,110,Electric Organ
509.5,0.24,54,110,Electric Organ
509.75,0.0,36,82,Electric Organ
510.0,0.12,35,100,Electric Organ
510.0,0.0,38,98,Electric Organ
510.0,0.0,53,98,Electric Organ
510.0,0.0,36,98,Electric Organ
510.0,0.12,47,95,Electric Organ
510.0,0.12,54,95,Electric Organ
510.0,0.12,47,95,Electric Organ
510.0,0.12,54,95,Electric Organ
510.25,0.12,35,100,Electric Organ
510.25,0.0,36,82,Electric Organ
510.25,0.12,54,95,Electric Organ
510.25,0.12,47,95,Electric Organ
510.25,0.12,54,95,Electric Organ
510.25,0.12,47,95,Electric Organ
510.5,0.12,35,110,Electric Organ
510.5,0.48,78,100,Electric Organ
510.5,0.48,78,100,Electric Organ
510.5,0.48,59,100,Electric Organ
510.5,0.48,62,100,Electric Organ
510.5,0.0,36,94,Electric Organ
510.5,0.0,53,94,Electric Organ
510.5,0.12,47,105,Electric Organ
510.5,0.12,54,105,Electric Organ
510.5,0.12,47,105,Electric Organ
510.5,0.12,54,105,Electric Organ
510.75,0.12,35,100,Electric Organ
510.75,0.0,36,82,Electric Organ
510.75,0.12,54,95,Electric Organ
510.75,0.12,47,95,Electric Organ
510.75,0.12,54,95,Electric Organ
510.75,0.12,47,95,Electric Organ
511.0,0.12,35,100,Electric Organ
511.0,0.0,38,98,Electric Organ
511.0,0.0,53,98,Electric Organ
511.0,0.0,36,98,Electric Organ
511.0,0.12,47,95,Electric Organ
511.0,0.12,54,95,Electric Organ
511.0,0.12,47,95,Electric Organ
511.0,0.12,54,95,Electric Organ
511.25,0.12,35,100,Electric Organ
511.25,0.0,36,82,Electric Organ
511.25,0.12,54,95,Electric Organ
511.25,0.12,47,95,Electric Organ
511.25,0.12,54,95,Electric Organ
511.25,0.12,47,95,Electric Organ
511.5,0.12,35,110,Electric Organ
511.5,0.48,78,100,Electric Organ
511.5,0.48,78,100,Electric Organ
511.5,0.48,59,100,Electric Organ
511.5,0.48,62,100,Electric Organ
511.5,0.0,53,94,Electric Organ
511.5,0.0,36,94,Electric Organ
511.5,0.12,47,105,Electric Organ
511.5,0.12,54,105,Electric Organ
511.5,0.12,47,105,Electric Organ
511.5,0.12,54,105,Electric Organ
511.75,0.12,35,100,Electric Organ
511.75,0.0,36,82,Electric Organ
511.75,0.12,54,95,Electric Organ
511.75,0.12,47,95,Electric Organ
511.75,0.12,54,95,Electric Organ
511.75,0.12,47,95,Electric Organ
512.0,0.12,35,100,Electric Organ
512.0,0.0,38,98,Electric Organ
512.0,0.0,53,98,Electric Organ
512.0,0.0,36,98,Electric Organ
512.0,0.12,47,95,Electric Organ
512.0,0.12,54,95,Electric Organ
512.0,0.12,47,95,Electric Organ
512.0,0.12,54,95,Electric Organ
512.25,0.12,35,100,Electric Organ
512.25,0.0,36,82,Electric Organ
512.25,0.12,54,95,Electric Organ
512.25,0.12,47,95,Electric Organ
512.25,0.12,54,95,Electric Organ
512.25,0.12,47,95,Electric Organ
512.5,0.12,35,110,Electric Organ
512.5,0.24,78,100,Electric Organ
512.5,0.24,78,100,Electric Organ
512.5,0.24,59,100,Electric Organ
512.5,0.24,62,100,Electric Organ
512.5,0.0,53,94,Electric Organ
512.5,0.0,36,94,Electric Organ
512.5,0.12,47,105,Electric Organ
512.5,0.12,54,105,Electric Organ
512.5,0.12,47,105,Electric Organ
512.5,0.12,54,105,Electric Organ
512.75,0.12,35,100,Electric Organ
512.75,0.0,36,82,Electric Organ
512.75,0.12,54,95,Electric Organ
512.75,0.12,47,95,Electric Organ
512.75,0.12,54,95,Electric Organ
512.75,0.12,47,95,Electric Organ
513.0,0.12,35,100,Electric Organ
513.0,0.12,76,100,Electric Organ
513.0,0.12,76,100,Electric Organ
513.0,0.12,57,100,Electric Organ
513.0,0.12,61,100,Electric Organ
513.0,0.0,38,101,Electric Organ
513.0,0.0,36,101,Electric Organ
513.0,0.12,47,95,Electric Organ
513.0,0.12,54,95,Electric Organ
513.0,0.12,47,95,Electric Organ
513.0,0.12,54,95,Electric Organ
513.25,1.56,59,98,Electric Organ
513.25,1.56,69,98,Electric Organ
513.25,1.56,73,98,Electric Organ
513.25,1.56,76,98,Electric Organ
513.25,0.31999999999999995,35,100,Electric Organ
513.25,0.31999999999999995,79,100,Electric Organ
513.25,0.31999999999999995,79,100,Electric Organ
513.25,0.31999999999999995,61,100,Electric Organ
513.25,0.31999999999999995,64,100,Electric Organ
513.25,0.0,36,80,Electric Organ
513.25,0.0,49,80,Electric Organ
513.25,0.31999999999999995,57,103,Electric Organ
513.25,0.31999999999999995,52,103,Electric Organ
513.25,0.31999999999999995,47,103,Electric Organ
513.25,0.31999999999999995,57,103,Electric Organ
513.25,0.31999999999999995,52,103,Electric Organ
513.25,0.31999999999999995,47,103,Electric Organ
513.5,0.0,36,96,Electric Organ
513.75,0.0,36,82,Electric Organ
514.0,0.12,35,100,Electric Organ
514.0,4.08,78,100,Electric Organ
514.0,9.84,78,100,Electric Organ
514.0,1.92,59,100,Electric Organ
514.0,1.92,62,100,Electric Organ
514.0,0.0,38,98,Electric Organ
514.0,0.0,53,98,Electric Organ
514.0,0.0,36,98,Electric Organ
514.0,0.12,47,95,Electric Organ
514.0,0.12,52,95,Electric Organ
514.0,0.12,47,95,Electric Organ
514.0,0.12,52,95,Electric Organ
514.25,0.12,35,100,Electric Organ
514.25,0.0,36,82,Electric Organ
514.25,0.12,52,95,Electric Organ
514.25,0.12,47,95,Electric Organ
514.25,0.12,52,95,Electric Organ
514.25,0.12,47,95,Electric Organ
514.5,0.12,35,110,Electric Organ
514.5,0.0,36,94,Electric Organ
514.5,0.0,53,94,Electric Organ
514.5,0.12,47,105,Electric Organ
514.5,0.12,52,105,Electric Organ
514.5,0.12,47,105,Electric Organ
514.5,0.12,52,105,Electric Organ
514.75,0.12,35,100,Electric Organ
514.75,0.0,36,82,Electric Organ
514.75,0.12,52,95,Electric Organ
514.75,0.12,47,95,Electric Organ
514.75,0.12,52,95,Electric Organ
514.75,0.12,47,95,Electric Organ
515.0,0.12,35,100,Electric Organ
515.0,0.0,38,98,Electric Organ
515.0,0.0,53,98,Electric Organ
515.0,0.0,36,98,Electric Organ
515.0,0.12,47,95,Electric Organ
515.0,0.12,52,95,Electric Organ
515.0,0.12,47,95,Electric Organ
515.0,0.12,52,95,Electric Organ
515.25,0.12,35,100,Electric Organ
515.25,0.0,36,82,Electric Organ
515.25,0.12,52,95,Electric Organ
515.25,0.12,47,95,Electric Organ
515.25,0.12,52,95,Electric Organ
515.25,0.12,47,95,Electric Organ
515.5,0.12,35,110,Electric Organ
515.5,0.0,53,94,Electric Organ
515.5,0.0,36,94,Electric Organ
515.5,0.12,47,105,Electric Organ
515.5,0.12,52,105,Electric Organ
515.5,0.12,47,105,Electric Organ
515.5,0.12,52,105,Electric Organ
515.75,0.12,35,100,Electric Organ
515.75,0.0,36,82,Electric Organ
515.75,0.12,52,95,Electric Organ
515.75,0.12,47,95,Electric Organ
515.75,0.12,52,95,Electric Organ
515.75,0.12,47,95,Electric Organ
516.0,0.12,35,100,Electric Organ
516.0,0.0,38,99,Electric Organ
516.0,0.0,53,99,Electric Organ
516.0,0.12,47,95,Electric Organ
516.0,0.12,52,95,Electric Organ
516.0,0.12,47,95,Electric Organ
516.0,0.12,52,95,Electric Organ
516.25,0.12,35,100,Electric Organ
516.25,0.12,52,95,Electric Organ
516.25,0.12,47,95,Electric Organ
516.25,0.12,52,95,Electric Organ
516.25,0.12,47,95,Electric Organ
516.5,0.6399999999999999,65,97,Electric Organ
516.5,0.6399999999999999,69,97,Electric Organ
516.5,0.6399999999999999,72,97,Electric Organ
516.5,0.6399999999999999,29,110,Electric Organ
516.5,0.0,36,92,Electric Organ
516.5,0.0,49,92,Electric Organ
516.5,0.6399999999999999,41,107,Electric Organ
516.5,0.6399999999999999,48,107,Electric Organ
516.5,0.6399999999999999,53,107,Electric Organ
516.5,0.6399999999999999,41,107,Electric Organ
516.5,0.6399999999999999,48,107,Electric Organ
516.5,0.6399999999999999,53,107,Electric Organ
518.0,0.6500365645567563,65,97,Electric Organ
518.0,0.6500365645567563,69,97,Electric Organ
518.0,0.6500365645567563,72,97,Electric Organ
518.0,0.6500365645567563,29,100,Electric Organ
518.0,0.0,57,92,Electric Organ
518.0,0.0,36,92,Electric Organ
518.0,0.6500365645567563,41,107,Electric Organ
518.0,0.6500365645567563,48,107,Electric Organ
518.0,0.6500365645567563,53,107,Electric Organ
518.0,0.6500365645567563,41,107,Electric Organ
518.0,0.6500365645567563,48,107,Electric Organ
518.0,0.6500365645567563,53,107,Electric Organ
519.5,0.6714225765841376,65,97,Electric Organ
519.5,0.6714225765841376,69,97,Electric Organ
519.5,0.6714225765841376,72,97,Electric Organ
519.5,0.6714225765841376,29,110,Electric Organ
519.5,0.0,36,92,Electric Organ
519.5,0.0,49,92,Electric Organ
519.5,0.6714225765841376,41,107,Electric Organ
519.5,0.6714225765841376,48,107,Electric Organ
519.5,0.6714225765841376,53,107,Electric Organ
519.5,0.6714225765841376,41,107,Electric Organ
519.5,0.6714225765841376,48,107,Electric Organ
519.5,0.6714225765841376,53,107,Electric Organ
521.0,0.6825356198276598,65,97,Electric Organ
521.0,0.6825356198276598,69,97,Electric Organ
521.0,0.6825356198276598,72,97,Electric Organ
521.0,0.6825356198276598,29,100,Electric Organ
521.0,0.0,57,92,Electric Organ
521.0,0.0,36,92,Electric Organ
521.0,0.6825356198276598,41,107,Electric Organ
521.0,0.6825356198276598,48,107,Electric Organ
521.0,0.6825356198276598,53,107,Electric Organ
521.0,0.6825356198276598,41,107,Electric Organ
521.0,0.6825356198276598,48,107,Electric Organ
521.0,0.6825356198276598,53,107,Electric Organ
522.5,0.7313282749794313,65,97,Electric Organ
522.5,0.7313282749794313,69,97,Electric Organ
522.5,0.7313282749794313,72,97,Electric Organ
522.5,0.7313282749794313,29,110,Electric Organ
522.5,0.0,36,92,Electric Organ
522.5,0.0,49,92,Electric Organ
522.5,0.7313282749794313,41,107,Electric Organ
522.5,0.7313282749794313,48,107,Electric Organ
522.5,0.7313282749794313,53,107,Electric Organ
522.5,0.7313282749794313,41,107,Electric Organ
522.5,0.7313282749794313,48,107,Electric Organ
522.5,0.7313282749794313,53,107,Electric Organ
524.0,0.7584376185058779,65,97,Electric Organ
524.0,0.7584376185058779,69,97,Electric Organ
524.0,0.7584376185058779,72,97,Electric Organ
524.0,0.7584376185058779,29,100,Electric Organ
524.0,0.0,57,92,Electric Organ
524.0,0.0,36,92,Electric Organ
524.0,0.7584376185058779,41,107,Electric Organ
524.0,0.7584376185058779,48,107,Electric Organ
524.0,0.7584376185058779,53,107,Electric Organ
524.0,0.7584376185058779,41,107,Electric Organ
524.0,0.7584376185058779,48,107,Electric Organ
524.0,0.7584376185058779,53,107,Electric Organ
525.5,1.8429405139756323,65,97,Electric Organ
525.5,1.8429405139756323,69,97,Electric Organ
525.5,1.8429405139756323,72,97,Electric Organ
525.5,1.8429405139756323,29,110,Electric Organ
525.5,0.0,36,92,Electric Organ
525.5,0.0,49,92,Electric Organ
525.5,1.8429405139756323,41,107,Electric Organ
525.5,1.8429405139756323,48,107,Electric Organ
525.5,1.8429405139756323,53,107,Electric Organ
525.5,1.8429405139756323,41,107,Electric Organ
525.5,1.8429405139756323,48,107,Electric Organ
525.5,1.8429405139756323,53,107,Electric Organ
526.75,0.0,36,92,Electric Organ
526.75,0.0,36,92,Electric Organ
527.0,0.0,38,106,Electric Organ
528.5,1.8429405139756323,66,97,Electric Organ
528.5,1.8429405139756323,70,97,Electric Organ
528.5,1.8429405139756323,73,97,Electric Organ
528.5,1.8429405139756323,30,100,Electric Organ
528.5,0.0,36,92,Electric Organ
528.5,0.0,49,92,Electric Organ
528.5,1.8429405139756323,42,107,Electric Organ
528.5,1.8429405139756323,49,107,Electric Organ
528.5,1.8429405139756323,54,107,Electric Organ
528.5,1.8429405139756323,42,107,Electric Organ
528.5,1.8429405139756323,49,107,Electric Organ
528.5,1.8429405139756323,54,107,Electric Organ
529.75,0.0,36,92,Electric Organ
529.75,0.0,36,92,Electric Organ
530.0,0.0,38,106,Electric Organ
531.5,7.525340432067165,59,98,Electric Organ
531.5,7.525340432067165,71,98,Electric Organ
531.5,7.525340432067165,74,98,Electric Organ
531.5,7.525340432067165,78,98,Electric Organ
531.5,7.371762055902529,35,100,Electric Organ
531.5,0.0,36,92,Electric Organ
531.5,0.0,49,92,Electric Organ
531.5,0.6143135046585441,71,120,Electric Organ
531.5,7.371762055902529,47,105,Electric Organ
531.5,7.371762055902529,54,105,Electric Organ
531.5,1.8429405139756323,59,110,Electric Organ
531.5,7.371762055902529,47,107,Electric Organ
531.5,7.371762055902529,54,107,Electric Organ
531.5,7.371762055902529,59,107,Electric Organ
532.5,0.15357837616463602,71,110,Electric Organ
532.75,0.15357837616463602,74,120,Electric Organ
533.0,0.15357837616463602,69,110,Electric Organ
533.3333333333334,0.15357837616463602,71,120,Electric Organ
533.5,0.15357837616463602,69,110,Electric Organ
533.75,0.30715675232927203,66,120,Electric Organ
534.25,0.15357837616463602,64,110,Electric Organ
534.5,0.15357837616463602,66,110,Electric Organ
534.5,1.8429405139756323,59,110,Electric Organ
534.75,0.15357837616463602,69,110,Electric Organ
535.0,0.30715675232927203,71,120,Electric Organ
535.3333333333334,0.15357837616463602,69,110,Electric Organ
535.6666666666666,0.30715675232927203,71,120,Electric Organ
536.0,0.15357837616463602,69,110,Electric Organ
536.25,0.15357837616463602,71,100,Electric Organ
536.5,0.15357837616463602,73,110,Electric Organ
536.6666666666666,0.15357837616463602,74,120,Electric Organ
536.75,0.0,76,110,Electric Organ
537.0,0.15357837616463602,74,110,Electric Organ
537.0,0.0,73,100,Electric Organ
537.25,0.15357837616463602,71,100,Electric Organ
537.3333333333334,0.0,73,110,Electric Organ
537.5,0.15357837616463602,74,120,Electric Organ
537.5,0.0,76,110,Electric Organ
537.5,1.8429405139756323,59,110,Electric Organ
537.6666666666666,0.15357837616463602,74,110,Electric Organ
537.75,0.0,73,100,Electric Organ
538.0,0.0,71,100,Electric Organ
538.0,0.0,73,110,Electric Organ
538.25,0.0,74,120,Electric Organ
538.3333333333334,0.15357837616463602,76,110,Electric Organ
538.5,0.0,74,110,Electric Organ
538.6666666666666,0.15357837616463602,73,100,Electric Organ
538.75,0.15357837616463602,73,100,Electric Organ
539.0,0.15357837616463602,74,110,Electric Organ
539.0,0.15357837616463602,76,110,Electric Organ
539.25,0.0,78,120,Electric Organ
539.3333333333334,0.15357837616463602,76,110,Electric Organ
539.5,0.0,74,100,Electric Organ
539.6666666666666,0.15357837616463602,73,100,Electric Organ
539.75,0.0,74,110,Electric Organ
540.0,0.15357837616463602,76,110,Electric Organ
540.0,0.0,78,120,Electric Organ
540.25,0.15357837616463602,76,110,Electric Organ
540.3333333333334,0.0,74,100,Electric Organ
540.5,0.15357837616463602,73,100,Electric Organ
540.5,1.8429405139756323,59,110,Electric Organ
540.6666666666666,0.0,74,110,Electric Organ
540.75,0.15357837616463602,76,110,Electric Organ
541.0,0.0,78,120,Electric Organ
541.0,0.15357837616463602,76,110,Electric Organ
541.25,0.0,74,100,Electric Organ
541.3333333333334,0.15357837616463602,73,100,Electric Organ
541.5,0.0,74,110,Electric Organ
541.5,0.15357837616463602,76,110,Electric Organ
541.75,0.0,78,120,Electric Organ
541.75,0.15357837616463602,76,110,Electric Organ
542.0,0.0,74,100,Electric Organ
542.0,0.15357837616463602,74,110,Electric Organ
542.25,0.0,76,110,Electric Organ
542.3333333333334,0.15357837616463602,78,120,Electric Organ
542.5,0.0,79,120,Electric Organ
542.6666666666666,0.0,81,120,Electric Organ
542.75,0.0,81,120,Electric Organ
543.0,0.0,36,106,Electric Organ
543.0,0.0,81,120,Electric Organ
543.0,0.0,81,120,Electric Organ
543.25,0.0,36,96,Electric Organ
543.25,0.0,79,120,Electric Organ
543.3333333333334,0.0,36,96,Electric Organ
543.3333333333334,0.0,78,120,Electric Organ
543.5,0.0,38,106,Electric Organ
543.5,0.6143135046585441,83,120,Electric Organ
