Start,Duration,Pitch,Velocity,Instrument
1.0,0.15000375009375233,31,89,Marimba
1.0,0.0,42,112,Marimba
1.3333333333333333,0.15000375009375233,33,106,Marimba
1.6666666666666667,0.11250281257031425,36,106,Marimba
2.0,0.15333895576171125,38,89,Marimba
2.0,0.0,42,83,Marimba
2.0,0.0,28,83,Marimba
2.3333333333333335,0.11500421682128344,40,103,Marimba
2.6666666666666665,0.46001686728513375,43,114,Marimba
3.0,0.0,42,111,Marimba
3.6666666666666665,0.0,42,59,Marimba
4.0,0.30000750018750466,55,112,Marimba
4.0,0.0,42,82,Marimba
4.0,0.0,28,82,Marimba
4.666666666666667,0.450011250281257,43,115,Marimba
5.0,0.0,42,112,Marimba
6.0,0.30000750018750466,55,112,Marimba
6.0,0.0,42,86,Marimba
6.0,0.0,28,86,Marimba
6.666666666666667,0.30000750018750466,43,115,Marimba
7.0,0.0,42,111,Marimba
7.333333333333333,0.0,55,127,Marimba
7.666666666666667,0.0,42,72,Marimba
7.75,0.0,54,45,Marimba
7.75,0.0,54,60,Marimba
8.0,0.0,54,75,Marimba
8.0,0.0,46,83,Marimba
8.0,0.0,54,83,Marimba
8.0,0.0,28,83,Marimba
8.0,0.0,54,75,Marimba
8.25,0.0,54,60,Marimba
8.25,0.0,54,45,Marimba
8.333333333333334,0.0,43,127,Marimba
8.666666666666666,0.15000375009375233,31,111,Marimba
9.0,0.3066779115234225,36,121,Marimba
9.0,0.0,42,69,Marimba
9.0,0.0,36,69,Marimba
9.0,0.0,35,69,Marimba
9.0,0.0,28,69,Marimba
9.333333333333334,0.0,36,28,Marimba
9.666666666666666,0.11500421682128344,36,122,Marimba
10.0,0.0,42,77,Marimba
10.0,0.0,28,77,Marimba
10.666666666666666,0.33750843771094274,36,96,Marimba
10.666666666666666,0.0,35,111,Marimba
11.0,0.0,42,58,Marimba
11.0,0.0,36,58,Marimba
11.0,0.0,28,58,Marimba
11.333333333333334,0.0,28,34,Marimba
12.0,0.0,42,76,Marimba
12.0,0.0,28,76,Marimba
12.666666666666666,0.15000375009375233,31,111,Marimba
12.666666666666666,0.0,28,34,Marimba
13.0,0.3066779115234225,36,121,Marimba
13.0,0.0,42,110,Marimba
13.0,0.0,35,110,Marimba
13.333333333333334,0.0,36,31,Marimba
13.333333333333334,0.0,28,31,Marimba
13.666666666666666,0.11500421682128344,36,122,Marimba
14.0,0.0,42,121,Marimba
14.333333333333334,0.0,28,34,Marimba
14.666666666666666,0.33750843771094274,36,96,Marimba
14.666666666666666,0.0,35,115,Marimba
15.0,0.0,42,52,Marimba
15.0,0.0,36,52,Marimba
15.0,0.0,28,52,Marimba
15.333333333333334,0.0,40,84,Marimba
15.666666666666666,0.0,42,90,Marimba
15.75,0.0,54,45,Marimba
15.75,0.0,54,60,Marimba
16.0,0.0,91,101,Marimba
16.0,0.0,89,101,Marimba
16.0,0.46001686728513375,88,107,Marimba
16.0,0.46001686728513375,86,107,Marimba
16.0,0.46001686728513375,84,107,Marimba
16.0,0.0,54,75,Marimba
16.0,0.0,42,88,Marimba
16.0,0.0,54,88,Marimba
16.0,0.0,35,88,Marimba
16.0,0.0,28,88,Marimba
16.0,0.0,54,75,Marimba
16.25,0.46001686728513375,83,124,Marimba
16.25,0.46001686728513375,81,124,Marimba
16.25,0.46001686728513375,79,124,Marimba
16.25,0.0,54,60,Marimba
16.25,0.0,54,36,Marimba
16.25,0.0,36,36,Marimba
16.333333333333332,0.0,77,127,Marimba
16.333333333333332,0.0,76,127,Marimba
16.333333333333332,0.0,74,127,Marimba
16.333333333333332,0.46001686728513375,72,127,Marimba
16.333333333333332,0.46001686728513375,71,127,Marimba
16.5,0.0,69,127,Marimba
16.5,0.0,67,127,Marimba
16.5,0.0,65,127,Marimba
16.5,0.0,64,127,Marimba
16.666666666666668,0.15333895576171125,31,111,Marimba
16.666666666666668,0.0,62,127,Marimba
16.666666666666668,0.0,42,71,Marimba
16.666666666666668,0.0,40,71,Marimba
16.666666666666668,0.0,28,71,Marimba
17.0,0.450011250281257,36,122,Marimba
17.0,0.2250056251406285,55,107,Marimba
17.0,0.2250056251406285,64,107,Marimba
17.0,0.2250056251406285,62,107,Marimba
17.0,0.2250056251406285,52,107,Marimba
17.0,0.11250281257031425,67,76,Marimba
17.0,0.11250281257031425,64,76,Marimba
17.0,0.11250281257031425,62,76,Marimba
17.0,0.11250281257031425,67,97,Marimba
17.0,0.11250281257031425,64,97,Marimba
17.0,0.11250281257031425,62,97,Marimba
17.0,0.0,42,87,Marimba
17.0,0.0,35,87,Marimba
17.0,0.0,28,87,Marimba
17.333333333333332,0.0,36,28,Marimba
17.666666666666668,0.0,28,34,Marimba
18.0,0.3450126504638503,52,118,Marimba
18.0,0.3450126504638503,64,118,Marimba
18.0,0.3450126504638503,55,118,Marimba
18.0,0.3450126504638503,62,118,Marimba
18.0,0.3450126504638503,64,118,Marimba
18.0,0.3450126504638503,67,118,Marimba
18.0,0.3450126504638503,62,118,Marimba
18.0,0.3450126504638503,64,116,Marimba
18.0,0.3450126504638503,67,116,Marimba
18.0,0.3450126504638503,62,116,Marimba
18.0,0.0,42,77,Marimba
18.0,0.0,40,77,Marimba
18.0,0.0,28,77,Marimba
18.666666666666668,0.0,35,117,Marimba
19.0,0.15000375009375233,64,84,Marimba
19.0,0.15000375009375233,52,84,Marimba
19.0,0.15000375009375233,55,84,Marimba
19.0,0.15000375009375233,60,84,Marimba
19.0,0.11250281257031425,64,80,Marimba
19.0,0.11250281257031425,60,80,Marimba
19.0,0.11250281257031425,67,80,Marimba
19.0,0.11250281257031425,60,100,Marimba
19.0,0.11250281257031425,64,100,Marimba
19.0,0.11250281257031425,67,100,Marimba
19.0,0.0,42,58,Marimba
19.0,0.0,36,58,Marimba
19.0,0.0,28,58,Marimba
19.666666666666668,0.0,42,79,Marimba
19.666666666666668,0.0,40,79,Marimba
20.0,0.23000843364256687,64,122,Marimba
20.0,0.46001686728513375,55,118,Marimba
20.0,0.46001686728513375,64,118,Marimba
20.0,0.46001686728513375,60,118,Marimba
20.0,0.46001686728513375,52,118,Marimba
20.0,0.3450126504638503,60,115,Marimba
20.0,0.3450126504638503,67,115,Marimba
20.0,0.3450126504638503,64,115,Marimba
20.0,0.3450126504638503,67,112,Marimba
20.0,0.3450126504638503,60,112,Marimba
20.0,0.3450126504638503,64,112,Marimba
20.0,0.0,42,72,Marimba
20.0,0.0,28,72,Marimba
20.666666666666668,0.15333895576171125,31,117,Marimba
20.666666666666668,0.11500421682128344,65,112,Marimba
20.666666666666668,0.0,28,34,Marimba
21.0,0.30000750018750466,36,121,Marimba
21.0,0.30000750018750466,64,122,Marimba
21.0,0.11250281257031425,52,81,Marimba
21.0,0.11250281257031425,55,81,Marimba
21.0,0.11250281257031425,64,81,Marimba
21.0,0.11250281257031425,59,81,Marimba
21.0,0.11250281257031425,59,80,Marimba
21.0,0.11250281257031425,64,80,Marimba
21.0,0.11250281257031425,67,80,Marimba
21.0,0.11250281257031425,59,101,Marimba
21.0,0.11250281257031425,67,101,Marimba
21.0,0.11250281257031425,64,101,Marimba
21.0,0.0,42,114,Marimba
21.0,0.0,35,114,Marimba
21.333333333333332,0.0,36,28,Marimba
21.666666666666668,0.11250281257031425,36,122,Marimba
21.666666666666668,0.11250281257031425,62,122,Marimba
21.666666666666668,0.2250056251406285,52,106,Marimba
21.666666666666668,0.2250056251406285,55,106,Marimba
21.666666666666668,0.2250056251406285,59,106,Marimba
21.666666666666668,0.2250056251406285,64,106,Marimba
21.666666666666668,0.0,28,34,Marimba
22.0,0.3450126504638503,59,112,Marimba
22.0,0.3450126504638503,64,112,Marimba
22.0,0.3450126504638503,67,112,Marimba
22.0,0.3450126504638503,64,112,Marimba
22.0,0.3450126504638503,67,112,Marimba
22.0,0.3450126504638503,59,112,Marimba
22.0,0.0,42,100,Marimba
22.0,0.0,40,100,Marimba
22.333333333333332,0.0,28,34,Marimba
22.666666666666668,0.3450126504638503,36,96,Marimba
22.666666666666668,0.3450126504638503,60,122,Marimba
22.666666666666668,0.11500421682128344,64,96,Marimba
22.666666666666668,0.11500421682128344,52,96,Marimba
22.666666666666668,0.11500421682128344,59,96,Marimba
22.666666666666668,0.11500421682128344,55,96,Marimba
23.0,0.2250056251406285,64,92,Marimba
23.0,0.2250056251406285,55,92,Marimba
23.0,0.2250056251406285,60,92,Marimba
23.0,0.11250281257031425,52,90,Marimba
23.0,0.15000375009375233,60,85,Marimba
23.0,0.15000375009375233,64,85,Marimba
23.0,0.15000375009375233,67,85,Marimba
23.0,0.11250281257031425,60,91,Marimba
23.0,0.11250281257031425,64,91,Marimba
23.0,0.11250281257031425,67,91,Marimba
23.0,0.0,42,87,Marimba
23.0,0.0,35,87,Marimba
23.0,0.0,28,87,Marimba
23.333333333333332,0.0,36,28,Marimba
23.666666666666668,0.0,42,72,Marimba
23.75,0.0,54,45,Marimba
23.75,0.0,54,60,Marimba
24.0,0.3066779115234225,59,123,Marimba
24.0,0.3066779115234225,64,120,Marimba
24.0,0.3066779115234225,60,120,Marimba
24.0,0.3066779115234225,52,120,Marimba
24.0,0.23000843364256687,55,122,Marimba
24.0,0.23000843364256687,60,122,Marimba
24.0,0.3450126504638503,60,104,Marimba
24.0,0.3450126504638503,64,104,Marimba
24.0,0.3450126504638503,67,104,Marimba
24.0,0.3450126504638503,60,109,Marimba
24.0,0.3450126504638503,64,109,Marimba
24.0,0.3450126504638503,67,109,Marimba
24.0,0.0,54,75,Marimba
24.0,0.0,46,78,Marimba
24.0,0.0,54,78,Marimba
24.0,0.0,40,78,Marimba
24.0,0.0,28,78,Marimba
24.25,0.0,54,75,Marimba
24.25,0.0,54,60,Marimba
24.333333333333332,0.0,54,45,Marimba
24.666666666666668,0.15333895576171125,31,111,Marimba
24.666666666666668,0.11500421682128344,60,95,Marimba
24.666666666666668,0.0,35,59,Marimba
24.666666666666668,0.0,28,59,Marimba
25.0,0.450011250281257,38,112,Marimba
25.0,0.30000750018750466,62,122,Marimba
25.0,0.2250056251406285,65,103,Marimba
25.0,0.2250056251406285,53,103,Marimba
25.0,0.2250056251406285,64,103,Marimba
25.0,0.2250056251406285,57,103,Marimba
25.0,0.11250281257031425,69,88,Marimba
25.0,0.11250281257031425,65,88,Marimba
25.0,0.11250281257031425,64,88,Marimba
25.0,0.11250281257031425,65,101,Marimba
25.0,0.11250281257031425,69,101,Marimba
25.0,0.11250281257031425,64,101,Marimba
25.0,0.0,42,69,Marimba
25.0,0.0,36,69,Marimba
25.0,0.0,35,69,Marimba
25.0,0.0,28,69,Marimba
25.333333333333332,0.0,36,28,Marimba
25.666666666666668,0.2250056251406285,57,86,Marimba
25.666666666666668,0.2250056251406285,65,86,Marimba
25.666666666666668,0.2250056251406285,64,86,Marimba
25.666666666666668,0.2250056251406285,53,86,Marimba
26.0,0.30000750018750466,64,122,Marimba
26.0,0.33750843771094274,64,113,Marimba
26.0,0.33750843771094274,65,113,Marimba
26.0,0.33750843771094274,69,113,Marimba
26.0,0.33750843771094274,65,108,Marimba
26.0,0.33750843771094274,64,108,Marimba
26.0,0.33750843771094274,69,108,Marimba
26.0,0.0,42,79,Marimba
26.0,0.0,40,79,Marimba
26.0,0.0,28,79,Marimba
26.666666666666668,1.1250281257031425,57,121,Marimba
26.666666666666668,0.15000375009375233,65,113,Marimba
26.666666666666668,0.15000375009375233,64,113,Marimba
26.666666666666668,0.15000375009375233,57,113,Marimba
26.666666666666668,0.15000375009375233,53,113,Marimba
26.666666666666668,0.0,35,111,Marimba
27.0,0.15333895576171125,53,95,Marimba
27.0,0.15333895576171125,62,95,Marimba
27.0,0.15333895576171125,65,95,Marimba
27.0,0.15333895576171125,57,95,Marimba
27.0,0.11500421682128344,65,86,Marimba
27.0,0.11500421682128344,62,86,Marimba
27.0,0.11500421682128344,69,86,Marimba
27.0,0.11500421682128344,62,100,Marimba
27.0,0.11500421682128344,65,100,Marimba
27.0,0.11500421682128344,69,100,Marimba
27.0,0.0,42,58,Marimba
27.0,0.0,36,58,Marimba
27.0,0.0,28,58,Marimba
27.333333333333332,0.0,28,34,Marimba
27.666666666666668,0.0,40,99,Marimba
28.0,0.33750843771094274,53,119,Marimba
28.0,0.33750843771094274,65,119,Marimba
28.0,0.33750843771094274,57,119,Marimba
28.0,0.33750843771094274,62,119,Marimba
28.0,0.450011250281257,62,110,Marimba
28.0,0.450011250281257,65,110,Marimba
28.0,0.450011250281257,69,110,Marimba
28.0,0.33750843771094274,65,109,Marimba
28.0,0.33750843771094274,62,109,Marimba
28.0,0.33750843771094274,69,109,Marimba
28.0,0.0,42,76,Marimba
28.0,0.0,28,76,Marimba
28.666666666666668,0.11250281257031425,33,95,Marimba
28.666666666666668,0.0,28,34,Marimba
29.0,0.23000843364256687,38,120,Marimba
29.0,0.15333895576171125,53,98,Marimba
29.0,0.15333895576171125,65,98,Marimba
29.0,0.15333895576171125,61,98,Marimba
29.0,0.15333895576171125,57,98,Marimba
29.0,0.11500421682128344,65,67,Marimba
29.0,0.11500421682128344,69,67,Marimba
29.0,0.11500421682128344,61,67,Marimba
29.0,0.11500421682128344,65,93,Marimba
29.0,0.11500421682128344,69,93,Marimba
29.0,0.11500421682128344,61,93,Marimba
29.0,0.0,42,110,Marimba
29.0,0.0,35,110,Marimba
29.333333333333332,0.0,36,31,Marimba
29.333333333333332,0.0,28,31,Marimba
29.666666666666668,0.11500421682128344,38,95,Marimba
29.666666666666668,0.23000843364256687,53,121,Marimba
29.666666666666668,0.23000843364256687,61,121,Marimba
29.666666666666668,0.23000843364256687,57,121,Marimba
29.666666666666668,0.23000843364256687,65,121,Marimba
30.0,0.33750843771094274,33,90,Marimba
30.0,0.33750843771094274,65,123,Marimba
30.0,0.33750843771094274,61,106,Marimba
30.0,0.33750843771094274,69,106,Marimba
30.0,0.33750843771094274,65,106,Marimba
30.0,0.33750843771094274,69,107,Marimba
30.0,0.33750843771094274,65,107,Marimba
30.0,0.33750843771094274,61,107,Marimba
30.0,0.0,42,102,Marimba
30.0,0.0,40,102,Marimba
30.333333333333332,0.0,28,34,Marimba
30.666666666666668,0.11250281257031425,61,87,Marimba
30.666666666666668,0.11250281257031425,65,87,Marimba
30.666666666666668,0.11250281257031425,53,87,Marimba
30.666666666666668,0.11250281257031425,57,87,Marimba
30.666666666666668,0.0,35,115,Marimba
31.0,0.3450126504638503,32,121,Marimba
31.0,0.3450126504638503,64,124,Marimba
31.0,0.23000843364256687,53,96,Marimba
31.0,0.23000843364256687,65,96,Marimba
31.0,0.23000843364256687,57,96,Marimba
31.0,0.23000843364256687,62,96,Marimba
31.0,0.15333895576171125,69,78,Marimba
31.0,0.15333895576171125,65,78,Marimba
31.0,0.15333895576171125,62,60,Marimba
31.0,0.11500421682128344,65,95,Marimba
31.0,0.11500421682128344,62,95,Marimba
31.0,0.11500421682128344,69,95,Marimba
31.0,0.0,42,52,Marimba
31.0,0.0,36,52,Marimba
31.0,0.0,28,52,Marimba
31.333333333333332,0.0,40,84,Marimba
31.666666666666668,0.0,42,90,Marimba
31.75,0.0,54,45,Marimba
31.75,0.0,54,60,Marimba
32.0,0.33750843771094274,31,114,Marimba
32.0,0.30000750018750466,65,122,Marimba
32.0,0.30000750018750466,65,121,Marimba
32.0,0.30000750018750466,53,121,Marimba
32.0,0.30000750018750466,62,121,Marimba
32.0,0.2250056251406285,57,122,Marimba
32.0,0.2250056251406285,62,122,Marimba
32.0,0.30000750018750466,65,112,Marimba
32.0,0.30000750018750466,69,112,Marimba
32.0,0.30000750018750466,62,112,Marimba
32.0,0.0,64,98,Marimba
32.0,0.33750843771094274,65,107,Marimba
32.0,0.33750843771094274,62,107,Marimba
32.0,0.33750843771094274,69,107,Marimba
32.0,0.0,54,75,Marimba
32.0,0.0,42,88,Marimba
32.0,0.0,54,88,Marimba
32.0,0.0,35,88,Marimba
32.0,0.0,28,88,Marimba
32.0,0.0,54,75,Marimba
32.25,0.0,54,60,Marimba
32.25,0.0,54,36,Marimba
32.25,0.0,36,36,Marimba
32.666666666666664,0.450011250281257,62,121,Marimba
32.666666666666664,0.0,42,71,Marimba
32.666666666666664,0.0,40,71,Marimba
32.666666666666664,0.0,28,71,Marimba
33.0,0.46001686728513375,36,111,Marimba
33.0,0.23000843364256687,55,107,Marimba
33.0,0.23000843364256687,64,107,Marimba
33.0,0.23000843364256687,62,107,Marimba
33.0,0.23000843364256687,52,107,Marimba
33.0,0.11500421682128344,67,76,Marimba
33.0,0.11500421682128344,64,76,Marimba
33.0,0.11500421682128344,62,76,Marimba
33.0,0.11500421682128344,64,100,Marimba
33.0,0.11500421682128344,67,100,Marimba
33.0,0.11500421682128344,62,100,Marimba
33.0,0.0,42,108,Marimba
33.0,0.0,35,108,Marimba
33.333333333333336,0.0,36,31,Marimba
33.333333333333336,0.0,28,31,Marimba
34.0,0.900022500562514,64,122,Marimba
34.0,0.33750843771094274,52,118,Marimba
34.0,0.33750843771094274,64,118,Marimba
34.0,0.33750843771094274,55,118,Marimba
34.0,0.33750843771094274,62,118,Marimba
34.0,0.33750843771094274,64,118,Marimba
34.0,0.33750843771094274,67,118,Marimba
34.0,0.33750843771094274,62,118,Marimba
34.0,0.33750843771094274,64,108,Marimba
34.0,0.33750843771094274,67,108,Marimba
34.0,0.33750843771094274,62,108,Marimba
34.0,0.0,42,98,Marimba
34.0,0.0,40,98,Marimba
34.333333333333336,0.0,28,34,Marimba
34.666666666666664,0.0,35,117,Marimba
35.0,0.15333895576171125,64,84,Marimba
35.0,0.15333895576171125,52,84,Marimba
35.0,0.15333895576171125,55,84,Marimba
35.0,0.15333895576171125,60,84,Marimba
35.0,0.11500421682128344,64,80,Marimba
35.0,0.11500421682128344,60,80,Marimba
35.0,0.11500421682128344,67,80,Marimba
35.0,0.11500421682128344,64,92,Marimba
35.0,0.11500421682128344,60,92,Marimba
35.0,0.11500421682128344,67,92,Marimba
35.0,0.0,42,54,Marimba
35.0,0.0,36,54,Marimba
35.0,0.0,28,54,Marimba
35.666666666666664,0.0,42,87,Marimba
35.666666666666664,0.0,40,87,Marimba
36.0,0.450011250281257,55,118,Marimba
36.0,0.450011250281257,64,118,Marimba
36.0,0.450011250281257,60,118,Marimba
36.0,0.450011250281257,52,118,Marimba
36.0,0.33750843771094274,60,115,Marimba
36.0,0.33750843771094274,67,115,Marimba
36.0,0.33750843771094274,64,115,Marimba
36.0,0.33750843771094274,60,107,Marimba
36.0,0.33750843771094274,64,107,Marimba
36.0,0.33750843771094274,67,107,Marimba
36.0,0.0,42,64,Marimba
36.0,0.0,28,64,Marimba
36.666666666666664,0.15000375009375233,31,95,Marimba
37.0,0.30000750018750466,36,117,Marimba
37.0,0.11250281257031425,52,81,Marimba
37.0,0.11250281257031425,55,81,Marimba
37.0,0.11250281257031425,64,81,Marimba
37.0,0.11250281257031425,59,81,Marimba
37.0,0.11250281257031425,59,80,Marimba
37.0,0.11250281257031425,64,80,Marimba
37.0,0.11250281257031425,67,80,Marimba
37.0,0.11250281257031425,64,96,Marimba
37.0,0.11250281257031425,67,96,Marimba
37.0,0.11250281257031425,59,96,Marimba
37.0,0.0,42,114,Marimba
37.0,0.0,35,114,Marimba
37.333333333333336,0.0,36,31,Marimba
37.333333333333336,0.0,28,31,Marimba
37.666666666666664,0.11250281257031425,36,104,Marimba
37.666666666666664,0.2250056251406285,52,106,Marimba
37.666666666666664,0.2250056251406285,55,106,Marimba
37.666666666666664,0.2250056251406285,59,106,Marimba
37.666666666666664,0.2250056251406285,64,106,Marimba
38.0,0.3450126504638503,59,112,Marimba
38.0,0.3450126504638503,64,112,Marimba
38.0,0.3450126504638503,67,112,Marimba
38.0,0.3450126504638503,64,109,Marimba
38.0,0.3450126504638503,59,109,Marimba
38.0,0.3450126504638503,67,109,Marimba
38.0,0.0,42,100,Marimba
38.0,0.0,40,100,Marimba
38.333333333333336,0.0,28,34,Marimba
38.666666666666664,0.15333895576171125,55,117,Marimba
38.666666666666664,0.11500421682128344,64,96,Marimba
38.666666666666664,0.11500421682128344,52,96,Marimba
38.666666666666664,0.11500421682128344,59,96,Marimba
38.666666666666664,0.11500421682128344,55,96,Marimba
39.0,0.2250056251406285,57,121,Marimba
39.0,0.15000375009375233,64,92,Marimba
39.0,0.15000375009375233,55,92,Marimba
39.0,0.15000375009375233,60,92,Marimba
39.0,0.11250281257031425,52,90,Marimba
39.0,0.15000375009375233,60,85,Marimba
39.0,0.15000375009375233,64,85,Marimba
39.0,0.15000375009375233,67,85,Marimba
39.0,0.11250281257031425,60,97,Marimba
39.0,0.11250281257031425,64,97,Marimba
39.0,0.11250281257031425,67,97,Marimba
39.0,0.0,42,88,Marimba
39.0,0.0,35,88,Marimba
39.0,0.0,28,88,Marimba
39.333333333333336,0.0,36,28,Marimba
39.666666666666664,0.11250281257031425,59,115,Marimba
39.75,0.0,54,45,Marimba
39.75,0.0,54,60,Marimba
40.0,0.46001686728513375,31,120,Marimba
40.0,0.23000843364256687,60,115,Marimba
40.0,0.3066779115234225,64,120,Marimba
40.0,0.3066779115234225,60,120,Marimba
40.0,0.3066779115234225,52,120,Marimba
40.0,0.23000843364256687,55,122,Marimba
40.0,0.23000843364256687,60,122,Marimba
40.0,0.3450126504638503,60,104,Marimba
40.0,0.3450126504638503,64,104,Marimba
40.0,0.3450126504638503,67,104,Marimba
40.0,0.3450126504638503,60,106,Marimba
40.0,0.3450126504638503,64,106,Marimba
40.0,0.3450126504638503,67,106,Marimba
40.0,0.0,54,75,Marimba
40.0,0.0,46,78,Marimba
40.0,0.0,54,78,Marimba
40.0,0.0,40,78,Marimba
40.0,0.0,28,78,Marimba
40.25,0.0,54,75,Marimba
40.25,0.0,54,60,Marimba
40.333333333333336,0.0,54,45,Marimba
40.666666666666664,0.11500421682128344,62,117,Marimba
40.666666666666664,0.0,35,84,Marimba
41.0,0.30000750018750466,38,121,Marimba
41.0,0.30000750018750466,64,122,Marimba
41.0,0.2250056251406285,65,103,Marimba
41.0,0.2250056251406285,53,103,Marimba
41.0,0.2250056251406285,64,103,Marimba
41.0,0.2250056251406285,57,103,Marimba
41.0,0.11250281257031425,69,88,Marimba
41.0,0.11250281257031425,65,88,Marimba
41.0,0.11250281257031425,64,88,Marimba
41.0,0.11250281257031425,65,91,Marimba
41.0,0.11250281257031425,64,91,Marimba
41.0,0.11250281257031425,69,91,Marimba
41.0,0.0,42,85,Marimba
41.0,0.0,36,85,Marimba
41.0,0.0,35,85,Marimba
41.333333333333336,0.0,28,31,Marimba
41.333333333333336,0.0,36,31,Marimba
41.666666666666664,0.2250056251406285,57,86,Marimba
41.666666666666664,0.2250056251406285,65,86,Marimba
41.666666666666664,0.2250056251406285,64,86,Marimba
41.666666666666664,0.2250056251406285,53,86,Marimba
42.0,0.23000843364256687,55,121,Marimba
42.0,0.3450126504638503,64,113,Marimba
42.0,0.3450126504638503,65,113,Marimba
42.0,0.3450126504638503,69,113,Marimba
42.0,0.3450126504638503,65,101,Marimba
42.0,0.3450126504638503,64,101,Marimba
42.0,0.3450126504638503,69,101,Marimba
42.0,0.0,42,79,Marimba
42.0,0.0,40,79,Marimba
42.0,0.0,28,79,Marimba
42.666666666666664,0.46001686728513375,57,122,Marimba
42.666666666666664,0.15333895576171125,65,113,Marimba
42.666666666666664,0.15333895576171125,64,113,Marimba
42.666666666666664,0.15333895576171125,57,113,Marimba
42.666666666666664,0.15333895576171125,53,113,Marimba
42.666666666666664,0.0,35,111,Marimba
43.0,0.15000375009375233,53,95,Marimba
43.0,0.15000375009375233,62,95,Marimba
43.0,0.15000375009375233,65,95,Marimba
43.0,0.15000375009375233,57,95,Marimba
43.0,0.11250281257031425,65,86,Marimba
43.0,0.11250281257031425,62,86,Marimba
43.0,0.11250281257031425,69,86,Marimba
43.0,0.11250281257031425,65,90,Marimba
43.0,0.11250281257031425,69,90,Marimba
43.0,0.11250281257031425,62,90,Marimba
43.0,0.0,42,55,Marimba
43.0,0.0,36,55,Marimba
43.0,0.0,28,55,Marimba
43.666666666666664,0.0,40,84,Marimba
44.0,0.23000843364256687,67,117,Marimba
44.0,0.3450126504638503,53,119,Marimba
44.0,0.3450126504638503,65,119,Marimba
44.0,0.3450126504638503,57,119,Marimba
44.0,0.3450126504638503,62,119,Marimba
44.0,0.46001686728513375,62,110,Marimba
44.0,0.46001686728513375,65,110,Marimba
44.0,0.46001686728513375,69,110,Marimba
44.0,0.3450126504638503,65,106,Marimba
44.0,0.3450126504638503,62,106,Marimba
44.0,0.3450126504638503,69,106,Marimba
44.0,0.0,42,77,Marimba
44.0,0.0,28,77,Marimba
44.666666666666664,0.15333895576171125,33,114,Marimba
44.666666666666664,0.46001686728513375,65,121,Marimba
45.0,0.30000750018750466,38,117,Marimba
45.0,0.15000375009375233,53,98,Marimba
45.0,0.15000375009375233,65,98,Marimba
45.0,0.15000375009375233,61,98,Marimba
45.0,0.15000375009375233,57,98,Marimba
45.0,0.11250281257031425,65,67,Marimba
45.0,0.11250281257031425,69,67,Marimba
45.0,0.11250281257031425,61,67,Marimba
45.0,0.11250281257031425,65,92,Marimba
45.0,0.11250281257031425,69,92,Marimba
45.0,0.11250281257031425,61,92,Marimba
45.0,0.0,42,86,Marimba
45.0,0.0,35,86,Marimba
45.0,0.0,28,86,Marimba
45.333333333333336,0.0,36,31,Marimba
45.333333333333336,0.0,28,31,Marimba
45.666666666666664,0.11250281257031425,38,111,Marimba
45.666666666666664,0.2250056251406285,53,121,Marimba
45.666666666666664,0.2250056251406285,61,121,Marimba
45.666666666666664,0.2250056251406285,57,121,Marimba
45.666666666666664,0.2250056251406285,65,121,Marimba
46.0,0.3450126504638503,67,122,Marimba
46.0,0.3450126504638503,61,106,Marimba
46.0,0.3450126504638503,69,106,Marimba
46.0,0.3450126504638503,65,106,Marimba
46.0,0.3450126504638503,65,106,Marimba
46.0,0.3450126504638503,61,106,Marimba
46.0,0.3450126504638503,69,106,Marimba
46.0,0.0,42,78,Marimba
46.0,0.0,40,78,Marimba
46.0,0.0,28,78,Marimba
46.666666666666664,0.11500421682128344,61,87,Marimba
46.666666666666664,0.11500421682128344,65,87,Marimba
46.666666666666664,0.11500421682128344,53,87,Marimba
46.666666666666664,0.11500421682128344,57,87,Marimba
46.666666666666664,0.0,35,115,Marimba
47.0,0.30000750018750466,69,123,Marimba
47.0,0.2250056251406285,53,96,Marimba
47.0,0.2250056251406285,65,96,Marimba
47.0,0.2250056251406285,57,96,Marimba
47.0,0.2250056251406285,62,96,Marimba
47.0,0.15000375009375233,69,78,Marimba
47.0,0.15000375009375233,65,78,Marimba
47.0,0.15000375009375233,62,60,Marimba
47.0,0.11250281257031425,65,85,Marimba
47.0,0.11250281257031425,62,85,Marimba
47.0,0.11250281257031425,69,85,Marimba
47.0,0.0,42,52,Marimba
47.0,0.0,36,52,Marimba
47.0,0.0,28,52,Marimba
47.333333333333336,0.0,40,59,Marimba
47.333333333333336,0.0,28,59,Marimba
47.666666666666664,0.2250056251406285,72,120,Marimba
47.666666666666664,0.0,42,90,Marimba
47.75,0.0,54,45,Marimba
47.75,0.0,54,60,Marimba
48.0,0.450011250281257,31,117,Marimba
48.0,0.30000750018750466,65,121,Marimba
48.0,0.30000750018750466,53,121,Marimba
48.0,0.30000750018750466,62,121,Marimba
48.0,0.2250056251406285,57,122,Marimba
48.0,0.2250056251406285,62,122,Marimba
48.0,0.30000750018750466,65,112,Marimba
48.0,0.30000750018750466,69,112,Marimba
48.0,0.30000750018750466,62,112,Marimba
48.0,0.0,64,98,Marimba
48.0,0.30000750018750466,62,114,Marimba
48.0,0.30000750018750466,65,114,Marimba
48.0,0.30000750018750466,69,114,Marimba
48.0,0.0,54,75,Marimba
48.0,0.0,46,85,Marimba
48.0,0.0,54,85,Marimba
48.0,0.0,35,85,Marimba
48.0,0.0,40,85,Marimba
48.0,0.0,28,85,Marimba
48.0,0.0,54,75,Marimba
48.25,0.0,54,60,Marimba
48.25,0.0,54,36,Marimba
48.25,0.0,36,36,Marimba
48.666666666666664,0.5625140628515712,71,123,Marimba
48.666666666666664,0.0,40,84,Marimba
49.0,0.46001686728513375,36,122,Marimba
49.0,0.23000843364256687,55,107,Marimba
49.0,0.23000843364256687,64,107,Marimba
49.0,0.23000843364256687,62,107,Marimba
49.0,0.23000843364256687,52,107,Marimba
49.0,0.11500421682128344,67,76,Marimba
49.0,0.11500421682128344,64,76,Marimba
49.0,0.11500421682128344,62,76,Marimba
49.0,0.11500421682128344,67,97,Marimba
49.0,0.11500421682128344,64,97,Marimba
49.0,0.11500421682128344,62,97,Marimba
49.0,0.0,42,87,Marimba
49.0,0.0,35,87,Marimba
49.0,0.0,28,87,Marimba
49.333333333333336,0.0,36,28,Marimba
49.666666666666664,0.0,28,34,Marimba
50.0,0.2250056251406285,67,122,Marimba
50.0,0.33750843771094274,52,118,Marimba
50.0,0.33750843771094274,64,118,Marimba
50.0,0.33750843771094274,55,118,Marimba
50.0,0.33750843771094274,62,118,Marimba
50.0,0.33750843771094274,64,118,Marimba
50.0,0.33750843771094274,67,118,Marimba
50.0,0.33750843771094274,62,118,Marimba
50.0,0.33750843771094274,64,116,Marimba
50.0,0.33750843771094274,67,116,Marimba
50.0,0.33750843771094274,62,116,Marimba
50.0,0.0,42,77,Marimba
50.0,0.0,40,77,Marimba
50.0,0.0,28,77,Marimba
50.666666666666664,1.350033750843771,67,122,Marimba
50.666666666666664,0.0,35,117,Marimba
51.0,0.15333895576171125,64,84,Marimba
51.0,0.15333895576171125,52,84,Marimba
51.0,0.15333895576171125,55,84,Marimba
51.0,0.15333895576171125,60,84,Marimba
51.0,0.11500421682128344,64,80,Marimba
51.0,0.11500421682128344,60,80,Marimba
51.0,0.11500421682128344,67,80,Marimba
51.0,0.11500421682128344,60,100,Marimba
51.0,0.11500421682128344,64,100,Marimba
51.0,0.11500421682128344,67,100,Marimba
51.0,0.0,42,58,Marimba
51.0,0.0,36,58,Marimba
51.0,0.0,28,58,Marimba
51.666666666666664,0.0,42,79,Marimba
51.666666666666664,0.0,40,79,Marimba
52.0,0.450011250281257,55,118,Marimba
52.0,0.450011250281257,64,118,Marimba
52.0,0.450011250281257,60,118,Marimba
52.0,0.450011250281257,52,118,Marimba
52.0,0.33750843771094274,60,115,Marimba
52.0,0.33750843771094274,67,115,Marimba
52.0,0.33750843771094274,64,115,Marimba
52.0,0.33750843771094274,67,112,Marimba
52.0,0.33750843771094274,60,112,Marimba
52.0,0.33750843771094274,64,112,Marimba
52.0,0.0,42,72,Marimba
52.0,0.0,28,72,Marimba
52.666666666666664,0.15000375009375233,31,117,Marimba
52.666666666666664,0.0,28,34,Marimba
53.0,0.3066779115234225,36,121,Marimba
53.0,0.11500421682128344,52,81,Marimba
53.0,0.11500421682128344,55,81,Marimba
53.0,0.11500421682128344,64,81,Marimba
53.0,0.11500421682128344,59,81,Marimba
53.0,0.11500421682128344,59,80,Marimba
53.0,0.11500421682128344,64,80,Marimba
53.0,0.11500421682128344,67,80,Marimba
53.0,0.11500421682128344,59,101,Marimba
53.0,0.11500421682128344,67,101,Marimba
53.0,0.11500421682128344,64,101,Marimba
53.0,0.0,42,114,Marimba
53.0,0.0,35,114,Marimba
53.333333333333336,0.0,36,28,Marimba
53.666666666666664,0.11500421682128344,36,122,Marimba
53.666666666666664,0.23000843364256687,52,106,Marimba
53.666666666666664,0.23000843364256687,55,106,Marimba
53.666666666666664,0.23000843364256687,59,106,Marimba
53.666666666666664,0.23000843364256687,64,106,Marimba
53.666666666666664,0.0,28,34,Marimba
54.0,0.33750843771094274,59,112,Marimba
54.0,0.33750843771094274,64,112,Marimba
54.0,0.33750843771094274,67,112,Marimba
54.0,0.33750843771094274,64,112,Marimba
54.0,0.33750843771094274,67,112,Marimba
54.0,0.33750843771094274,59,112,Marimba
54.0,0.0,42,100,Marimba
54.0,0.0,40,100,Marimba
54.333333333333336,0.0,28,34,Marimba
54.666666666666664,0.33750843771094274,36,96,Marimba
54.666666666666664,0.11250281257031425,64,96,Marimba
54.666666666666664,0.11250281257031425,52,96,Marimba
54.666666666666664,0.11250281257031425,59,96,Marimba
54.666666666666664,0.11250281257031425,55,96,Marimba
55.0,0.15333895576171125,64,92,Marimba
55.0,0.15333895576171125,55,92,Marimba
55.0,0.15333895576171125,60,92,Marimba
55.0,0.11500421682128344,52,90,Marimba
55.0,0.15333895576171125,60,85,Marimba
55.0,0.15333895576171125,64,85,Marimba
55.0,0.15333895576171125,67,85,Marimba
55.0,0.11500421682128344,60,91,Marimba
55.0,0.11500421682128344,64,91,Marimba
55.0,0.11500421682128344,67,91,Marimba
55.0,0.0,42,87,Marimba
55.0,0.0,35,87,Marimba
55.0,0.0,28,87,Marimba
55.333333333333336,0.0,36,28,Marimba
55.666666666666664,0.0,42,72,Marimba
55.75,0.0,54,45,Marimba
55.75,0.0,54,60,Marimba
56.0,0.30000750018750466,64,120,Marimba
56.0,0.30000750018750466,60,120,Marimba
56.0,0.30000750018750466,52,120,Marimba
56.0,0.2250056251406285,55,122,Marimba
56.0,0.2250056251406285,60,122,Marimba
56.0,0.33750843771094274,60,104,Marimba
56.0,0.33750843771094274,64,104,Marimba
56.0,0.33750843771094274,67,104,Marimba
56.0,0.33750843771094274,60,109,Marimba
56.0,0.33750843771094274,64,109,Marimba
56.0,0.33750843771094274,67,109,Marimba
56.0,0.0,54,75,Marimba
56.0,0.0,46,78,Marimba
56.0,0.0,54,78,Marimba
56.0,0.0,40,78,Marimba
56.0,0.0,28,78,Marimba
56.25,0.0,54,75,Marimba
56.25,0.0,54,60,Marimba
56.25,0.0,54,45,Marimba
56.666666666666664,0.15000375009375233,31,111,Marimba
56.666666666666664,0.0,35,59,Marimba
56.666666666666664,0.0,28,59,Marimba
57.0,0.46001686728513375,38,112,Marimba
57.0,0.23000843364256687,65,103,Marimba
57.0,0.23000843364256687,53,103,Marimba
57.0,0.23000843364256687,64,103,Marimba
57.0,0.23000843364256687,57,103,Marimba
57.0,0.11500421682128344,69,88,Marimba
57.0,0.11500421682128344,65,88,Marimba
57.0,0.11500421682128344,64,88,Marimba
57.0,0.11500421682128344,65,101,Marimba
57.0,0.11500421682128344,69,101,Marimba
57.0,0.11500421682128344,64,101,Marimba
57.0,0.0,42,69,Marimba
57.0,0.0,36,69,Marimba
57.0,0.0,35,69,Marimba
57.0,0.0,28,69,Marimba
57.333333333333336,0.0,36,28,Marimba
57.666666666666664,0.11500421682128344,67,107,Marimba
57.666666666666664,0.23000843364256687,57,86,Marimba
57.666666666666664,0.23000843364256687,65,86,Marimba
57.666666666666664,0.23000843364256687,64,86,Marimba
57.666666666666664,0.23000843364256687,53,86,Marimba
58.0,0.15000375009375233,79,116,Marimba
58.0,0.33750843771094274,64,113,Marimba
58.0,0.33750843771094274,65,113,Marimba
58.0,0.33750843771094274,69,113,Marimba
58.0,0.33750843771094274,65,108,Marimba
58.0,0.33750843771094274,64,108,Marimba
58.0,0.33750843771094274,69,108,Marimba
58.0,0.0,42,79,Marimba
58.0,0.0,40,79,Marimba
58.0,0.0,28,79,Marimba
58.666666666666664,0.11250281257031425,67,107,Marimba
58.666666666666664,0.15000375009375233,65,113,Marimba
58.666666666666664,0.15000375009375233,64,113,Marimba
58.666666666666664,0.15000375009375233,57,113,Marimba
58.666666666666664,0.15000375009375233,53,113,Marimba
58.666666666666664,0.0,35,111,Marimba
59.0,0.2250056251406285,74,112,Marimba
59.0,0.15000375009375233,53,95,Marimba
59.0,0.15000375009375233,62,95,Marimba
59.0,0.15000375009375233,65,95,Marimba
59.0,0.15000375009375233,57,95,Marimba
59.0,0.11250281257031425,65,86,Marimba
59.0,0.11250281257031425,62,86,Marimba
59.0,0.11250281257031425,69,86,Marimba
59.0,0.11250281257031425,62,100,Marimba
59.0,0.11250281257031425,65,100,Marimba
59.0,0.11250281257031425,69,100,Marimba
59.0,0.0,42,58,Marimba
59.0,0.0,36,58,Marimba
59.0,0.0,28,58,Marimba
59.333333333333336,0.0,28,34,Marimba
59.666666666666664,0.11250281257031425,76,107,Marimba
59.666666666666664,0.0,40,99,Marimba
60.0,0.3450126504638503,53,119,Marimba
60.0,0.3450126504638503,65,119,Marimba
60.0,0.3450126504638503,57,119,Marimba
60.0,0.3450126504638503,62,119,Marimba
60.0,0.46001686728513375,62,110,Marimba
60.0,0.46001686728513375,65,110,Marimba
60.0,0.46001686728513375,69,110,Marimba
60.0,0.3450126504638503,65,109,Marimba
60.0,0.3450126504638503,62,109,Marimba
60.0,0.3450126504638503,69,109,Marimba
60.0,0.0,42,76,Marimba
60.0,0.0,28,76,Marimba
60.666666666666664,0.11500421682128344,67,97,Marimba
60.666666666666664,0.11500421682128344,33,95,Marimba
60.666666666666664,0.0,28,34,Marimba
61.0,0.2250056251406285,79,116,Marimba
61.0,0.2250056251406285,38,120,Marimba
61.0,0.15000375009375233,53,98,Marimba
61.0,0.15000375009375233,65,98,Marimba
61.0,0.15000375009375233,61,98,Marimba
61.0,0.15000375009375233,57,98,Marimba
61.0,0.11250281257031425,65,67,Marimba
61.0,0.11250281257031425,69,67,Marimba
61.0,0.11250281257031425,61,67,Marimba
61.0,0.11250281257031425,65,93,Marimba
61.0,0.11250281257031425,69,93,Marimba
61.0,0.11250281257031425,61,93,Marimba
61.0,0.0,42,110,Marimba
61.0,0.0,35,110,Marimba
61.333333333333336,0.0,36,31,Marimba
61.333333333333336,0.0,28,31,Marimba
61.666666666666664,0.11250281257031425,67,97,Marimba
61.666666666666664,0.11250281257031425,38,95,Marimba
61.666666666666664,0.2250056251406285,53,121,Marimba
61.666666666666664,0.2250056251406285,61,121,Marimba
61.666666666666664,0.2250056251406285,57,121,Marimba
61.666666666666664,0.2250056251406285,65,121,Marimba
62.0,0.23000843364256687,76,124,Marimba
62.0,0.3450126504638503,33,90,Marimba
62.0,0.3450126504638503,61,106,Marimba
62.0,0.3450126504638503,69,106,Marimba
62.0,0.3450126504638503,65,106,Marimba
62.0,0.3450126504638503,69,107,Marimba
62.0,0.3450126504638503,65,107,Marimba
62.0,0.3450126504638503,61,107,Marimba
62.0,0.0,42,102,Marimba
62.0,0.0,40,102,Marimba
62.333333333333336,0.0,28,34,Marimba
62.666666666666664,0.11500421682128344,74,120,Marimba
62.666666666666664,0.11500421682128344,61,87,Marimba
62.666666666666664,0.11500421682128344,65,87,Marimba
62.666666666666664,0.11500421682128344,53,87,Marimba
62.666666666666664,0.11500421682128344,57,87,Marimba
62.666666666666664,0.0,38,88,Marimba
62.666666666666664,0.0,35,88,Marimba
63.0,0.33750843771094274,32,121,Marimba
63.0,0.2250056251406285,53,96,Marimba
63.0,0.2250056251406285,65,96,Marimba
63.0,0.2250056251406285,57,96,Marimba
63.0,0.2250056251406285,62,96,Marimba
63.0,0.15000375009375233,69,78,Marimba
63.0,0.15000375009375233,65,78,Marimba
63.0,0.15000375009375233,62,60,Marimba
63.0,0.11250281257031425,65,95,Marimba
63.0,0.11250281257031425,62,95,Marimba
63.0,0.11250281257031425,69,95,Marimba
63.0,0.0,42,52,Marimba
63.0,0.0,36,52,Marimba
63.0,0.0,28,52,Marimba
63.333333333333336,0.0,40,82,Marimba
63.333333333333336,0.0,38,82,Marimba
63.666666666666664,0.15000375009375233,67,116,Marimba
63.666666666666664,0.0,42,81,Marimba
63.666666666666664,0.0,38,81,Marimba
63.75,0.0,54,45,Marimba
63.75,0.0,54,60,Marimba
64.0,0.3450126504638503,31,114,Marimba
64.0,0.3066779115234225,65,121,Marimba
64.0,0.3066779115234225,53,121,Marimba
64.0,0.3066779115234225,62,121,Marimba
64.0,0.23000843364256687,57,122,Marimba
64.0,0.23000843364256687,62,122,Marimba
64.0,0.3066779115234225,65,112,Marimba
64.0,0.3066779115234225,69,112,Marimba
64.0,0.3066779115234225,62,112,Marimba
64.0,0.0,64,98,Marimba
64.0,0.3450126504638503,65,107,Marimba
64.0,0.3450126504638503,62,107,Marimba
64.0,0.3450126504638503,69,107,Marimba
64.0,0.0,54,75,Marimba
64.0,0.0,41,91,Marimba
64.0,0.0,42,91,Marimba
64.0,0.0,54,91,Marimba
64.0,0.0,35,91,Marimba
64.0,0.0,28,91,Marimba
64.25,0.0,54,75,Marimba
64.25,0.0,54,60,Marimba
64.33333333333333,0.0,54,36,Marimba
64.33333333333333,0.0,36,36,Marimba
64.66666666666667,0.0,42,71,Marimba
64.66666666666667,0.0,40,71,Marimba
64.66666666666667,0.0,28,71,Marimba
65.0,0.450011250281257,36,122,Marimba
65.0,0.2250056251406285,55,107,Marimba
65.0,0.2250056251406285,64,107,Marimba
65.0,0.2250056251406285,62,107,Marimba
65.0,0.2250056251406285,52,107,Marimba
65.0,0.11250281257031425,67,76,Marimba
65.0,0.11250281257031425,64,76,Marimba
65.0,0.11250281257031425,62,76,Marimba
65.0,0.11250281257031425,67,97,Marimba
65.0,0.11250281257031425,64,97,Marimba
65.0,0.11250281257031425,62,97,Marimba
65.0,0.0,42,83,Marimba
65.0,0.0,49,83,Marimba
65.0,0.0,35,83,Marimba
65.0,0.0,28,83,Marimba
65.33333333333333,0.0,36,28,Marimba
65.66666666666667,0.0,28,34,Marimba
66.0,0.3450126504638503,52,118,Marimba
66.0,0.3450126504638503,64,118,Marimba
66.0,0.3450126504638503,55,118,Marimba
66.0,0.3450126504638503,62,118,Marimba
66.0,0.3450126504638503,64,118,Marimba
66.0,0.3450126504638503,67,118,Marimba
66.0,0.3450126504638503,62,118,Marimba
66.0,0.3450126504638503,64,116,Marimba
66.0,0.3450126504638503,67,116,Marimba
66.0,0.3450126504638503,62,116,Marimba
66.0,0.0,42,77,Marimba
66.0,0.0,40,77,Marimba
66.0,0.0,28,77,Marimba
66.66666666666667,0.0,35,117,Marimba
67.0,0.15000375009375233,64,84,Marimba
67.0,0.15000375009375233,52,84,Marimba
67.0,0.15000375009375233,55,84,Marimba
67.0,0.15000375009375233,60,84,Marimba
67.0,0.11250281257031425,64,80,Marimba
67.0,0.11250281257031425,60,80,Marimba
67.0,0.11250281257031425,67,80,Marimba
67.0,0.11250281257031425,60,100,Marimba
67.0,0.11250281257031425,64,100,Marimba
67.0,0.11250281257031425,67,100,Marimba
67.0,0.0,42,58,Marimba
67.0,0.0,36,58,Marimba
67.0,0.0,28,58,Marimba
67.66666666666667,0.15000375009375233,67,121,Marimba
67.66666666666667,0.0,42,79,Marimba
67.66666666666667,0.0,40,79,Marimba
68.0,0.3066779115234225,69,121,Marimba
68.0,0.46001686728513375,55,118,Marimba
68.0,0.46001686728513375,64,118,Marimba
68.0,0.46001686728513375,60,118,Marimba
68.0,0.46001686728513375,52,118,Marimba
68.0,0.3450126504638503,60,115,Marimba
68.0,0.3450126504638503,67,115,Marimba
68.0,0.3450126504638503,64,115,Marimba
68.0,0.3450126504638503,67,112,Marimba
68.0,0.3450126504638503,60,112,Marimba
68.0,0.3450126504638503,64,112,Marimba
68.0,0.0,42,72,Marimba
68.0,0.0,28,72,Marimba
68.66666666666667,0.15333895576171125,31,117,Marimba
68.66666666666667,0.15333895576171125,72,116,Marimba
68.66666666666667,0.0,28,34,Marimba
69.0,0.30000750018750466,36,121,Marimba
69.0,0.450011250281257,71,117,Marimba
69.0,0.11250281257031425,52,81,Marimba
69.0,0.11250281257031425,55,81,Marimba
69.0,0.11250281257031425,64,81,Marimba
69.0,0.11250281257031425,59,81,Marimba
69.0,0.11250281257031425,59,80,Marimba
69.0,0.11250281257031425,64,80,Marimba
69.0,0.11250281257031425,67,80,Marimba
69.0,0.11250281257031425,59,101,Marimba
69.0,0.11250281257031425,67,101,Marimba
69.0,0.11250281257031425,64,101,Marimba
69.0,0.0,42,114,Marimba
69.0,0.0,35,114,Marimba
69.33333333333333,0.0,36,28,Marimba
69.66666666666667,0.11250281257031425,36,122,Marimba
69.66666666666667,0.2250056251406285,52,106,Marimba
69.66666666666667,0.2250056251406285,55,106,Marimba
69.66666666666667,0.2250056251406285,59,106,Marimba
69.66666666666667,0.2250056251406285,64,106,Marimba
69.66666666666667,0.0,28,34,Marimba
70.0,0.30000750018750466,67,122,Marimba
70.0,0.33750843771094274,59,112,Marimba
70.0,0.33750843771094274,64,112,Marimba
70.0,0.33750843771094274,67,112,Marimba
70.0,0.33750843771094274,64,112,Marimba
70.0,0.33750843771094274,67,112,Marimba
70.0,0.33750843771094274,59,112,Marimba
70.0,0.0,42,100,Marimba
70.0,0.0,40,100,Marimba
70.33333333333333,0.0,28,34,Marimba
70.66666666666667,0.33750843771094274,36,96,Marimba
70.66666666666667,0.5625140628515712,64,122,Marimba
70.66666666666667,0.11250281257031425,64,96,Marimba
70.66666666666667,0.11250281257031425,52,96,Marimba
70.66666666666667,0.11250281257031425,59,96,Marimba
70.66666666666667,0.11250281257031425,55,96,Marimba
71.0,0.15333895576171125,64,92,Marimba
71.0,0.15333895576171125,55,92,Marimba
71.0,0.15333895576171125,60,92,Marimba
71.0,0.11500421682128344,52,90,Marimba
71.0,0.15333895576171125,60,85,Marimba
71.0,0.15333895576171125,64,85,Marimba
71.0,0.15333895576171125,67,85,Marimba
71.0,0.11500421682128344,60,91,Marimba
71.0,0.11500421682128344,64,91,Marimba
71.0,0.11500421682128344,67,91,Marimba
71.0,0.0,42,87,Marimba
71.0,0.0,35,87,Marimba
71.0,0.0,28,87,Marimba
71.33333333333333,0.0,36,28,Marimba
71.66666666666667,0.0,42,72,Marimba
71.75,0.0,54,45,Marimba
71.75,0.0,54,60,Marimba
72.0,0.30000750018750466,65,121,Marimba
72.0,0.30000750018750466,64,120,Marimba
72.0,0.30000750018750466,60,120,Marimba
72.0,0.30000750018750466,52,120,Marimba
72.0,0.2250056251406285,55,122,Marimba
72.0,0.2250056251406285,60,122,Marimba
72.0,0.33750843771094274,60,104,Marimba
72.0,0.33750843771094274,64,104,Marimba
72.0,0.33750843771094274,67,104,Marimba
72.0,0.33750843771094274,60,109,Marimba
72.0,0.33750843771094274,64,109,Marimba
72.0,0.33750843771094274,67,109,Marimba
72.0,0.0,54,75,Marimba
72.0,0.0,46,78,Marimba
72.0,0.0,54,78,Marimba
72.0,0.0,40,78,Marimba
72.0,0.0,28,78,Marimba
72.0,0.0,54,75,Marimba
72.25,0.0,54,60,Marimba
72.25,0.0,54,45,Marimba
72.66666666666667,0.15000375009375233,31,111,Marimba
72.66666666666667,0.5625140628515712,64,123,Marimba
72.66666666666667,0.0,35,59,Marimba
72.66666666666667,0.0,28,59,Marimba
73.0,0.46001686728513375,38,112,Marimba
73.0,0.23000843364256687,65,103,Marimba
73.0,0.23000843364256687,53,103,Marimba
73.0,0.23000843364256687,64,103,Marimba
73.0,0.23000843364256687,57,103,Marimba
73.0,0.11500421682128344,69,88,Marimba
73.0,0.11500421682128344,65,88,Marimba
73.0,0.11500421682128344,64,88,Marimba
73.0,0.11500421682128344,65,101,Marimba
73.0,0.11500421682128344,69,101,Marimba
73.0,0.11500421682128344,64,101,Marimba
73.0,0.0,42,69,Marimba
73.0,0.0,36,69,Marimba
73.0,0.0,35,69,Marimba
73.0,0.0,28,69,Marimba
73.33333333333333,0.0,36,28,Marimba
73.66666666666667,0.23000843364256687,57,86,Marimba
73.66666666666667,0.23000843364256687,65,86,Marimba
73.66666666666667,0.23000843364256687,64,86,Marimba
73.66666666666667,0.23000843364256687,53,86,Marimba
74.0,0.30000750018750466,62,122,Marimba
74.0,0.33750843771094274,64,113,Marimba
74.0,0.33750843771094274,65,113,Marimba
74.0,0.33750843771094274,69,113,Marimba
74.0,0.33750843771094274,65,108,Marimba
74.0,0.33750843771094274,64,108,Marimba
74.0,0.33750843771094274,69,108,Marimba
74.0,0.0,42,79,Marimba
74.0,0.0,40,79,Marimba
74.0,0.0,28,79,Marimba
74.66666666666667,1.2000300007500186,57,121,Marimba
74.66666666666667,0.15000375009375233,65,113,Marimba
74.66666666666667,0.15000375009375233,64,113,Marimba
74.66666666666667,0.15000375009375233,57,113,Marimba
74.66666666666667,0.15000375009375233,53,113,Marimba
74.66666666666667,0.0,35,111,Marimba
75.0,0.15333895576171125,53,95,Marimba
75.0,0.15333895576171125,62,95,Marimba
75.0,0.15333895576171125,65,95,Marimba
75.0,0.15333895576171125,57,95,Marimba
75.0,0.11500421682128344,65,86,Marimba
75.0,0.11500421682128344,62,86,Marimba
75.0,0.11500421682128344,69,86,Marimba
75.0,0.11500421682128344,62,100,Marimba
75.0,0.11500421682128344,65,100,Marimba
75.0,0.11500421682128344,69,100,Marimba
75.0,0.0,42,58,Marimba
75.0,0.0,36,58,Marimba
75.0,0.0,28,58,Marimba
75.33333333333333,0.0,28,34,Marimba
75.66666666666667,0.0,40,99,Marimba
76.0,0.33750843771094274,53,119,Marimba
76.0,0.33750843771094274,65,119,Marimba
76.0,0.33750843771094274,57,119,Marimba
76.0,0.33750843771094274,62,119,Marimba
76.0,0.450011250281257,62,110,Marimba
76.0,0.450011250281257,65,110,Marimba
76.0,0.450011250281257,69,110,Marimba
76.0,0.33750843771094274,65,109,Marimba
76.0,0.33750843771094274,62,109,Marimba
76.0,0.33750843771094274,69,109,Marimba
76.0,0.0,42,76,Marimba
76.0,0.0,28,76,Marimba
76.66666666666667,0.11250281257031425,33,95,Marimba
76.66666666666667,0.0,28,34,Marimba
77.0,0.23000843364256687,38,120,Marimba
77.0,0.15333895576171125,53,98,Marimba
77.0,0.15333895576171125,65,98,Marimba
77.0,0.15333895576171125,61,98,Marimba
77.0,0.15333895576171125,57,98,Marimba
77.0,0.11500421682128344,65,67,Marimba
77.0,0.11500421682128344,69,67,Marimba
77.0,0.11500421682128344,61,67,Marimba
77.0,0.11500421682128344,65,93,Marimba
77.0,0.11500421682128344,69,93,Marimba
77.0,0.11500421682128344,61,93,Marimba
77.0,0.0,42,110,Marimba
77.0,0.0,35,110,Marimba
77.33333333333333,0.0,36,31,Marimba
77.33333333333333,0.0,28,31,Marimba
77.66666666666667,0.11500421682128344,38,95,Marimba
77.66666666666667,0.23000843364256687,53,121,Marimba
77.66666666666667,0.23000843364256687,61,121,Marimba
77.66666666666667,0.23000843364256687,57,121,Marimba
77.66666666666667,0.23000843364256687,65,121,Marimba
78.0,0.33750843771094274,33,90,Marimba
78.0,0.450011250281257,65,121,Marimba
78.0,0.33750843771094274,61,106,Marimba
78.0,0.33750843771094274,69,106,Marimba
78.0,0.33750843771094274,65,106,Marimba
78.0,0.33750843771094274,69,107,Marimba
78.0,0.33750843771094274,65,107,Marimba
78.0,0.33750843771094274,61,107,Marimba
78.0,0.0,42,102,Marimba
78.0,0.0,40,102,Marimba
78.33333333333333,0.0,28,34,Marimba
78.66666666666667,0.11250281257031425,61,87,Marimba
78.66666666666667,0.11250281257031425,65,87,Marimba
78.66666666666667,0.11250281257031425,53,87,Marimba
78.66666666666667,0.11250281257031425,57,87,Marimba
78.66666666666667,0.0,35,115,Marimba
79.0,0.3450126504638503,32,121,Marimba
79.0,0.46001686728513375,64,123,Marimba
79.0,0.23000843364256687,53,96,Marimba
79.0,0.23000843364256687,65,96,Marimba
79.0,0.23000843364256687,57,96,Marimba
79.0,0.23000843364256687,62,96,Marimba
79.0,0.15333895576171125,69,78,Marimba
79.0,0.15333895576171125,65,78,Marimba
79.0,0.15333895576171125,62,60,Marimba
79.0,0.11500421682128344,65,95,Marimba
79.0,0.11500421682128344,62,95,Marimba
79.0,0.11500421682128344,69,95,Marimba
79.0,0.0,42,52,Marimba
79.0,0.0,36,52,Marimba
79.0,0.0,28,52,Marimba
79.33333333333333,0.0,40,84,Marimba
79.66666666666667,0.0,42,90,Marimba
79.75,0.0,54,45,Marimba
79.75,0.0,54,60,Marimba
80.0,0.33750843771094274,31,114,Marimba
80.0,0.450011250281257,62,123,Marimba
80.0,0.30000750018750466,65,121,Marimba
80.0,0.30000750018750466,53,121,Marimba
80.0,0.30000750018750466,62,121,Marimba
80.0,0.2250056251406285,57,122,Marimba
80.0,0.2250056251406285,62,122,Marimba
80.0,0.30000750018750466,65,112,Marimba
80.0,0.30000750018750466,69,112,Marimba
80.0,0.30000750018750466,62,112,Marimba
80.0,0.0,64,98,Marimba
80.0,0.33750843771094274,65,107,Marimba
80.0,0.33750843771094274,62,107,Marimba
80.0,0.33750843771094274,69,107,Marimba
80.0,0.0,54,75,Marimba
80.0,0.0,42,88,Marimba
80.0,0.0,54,88,Marimba
80.0,0.0,35,88,Marimba
80.0,0.0,28,88,Marimba
80.25,0.0,54,75,Marimba
80.25,0.0,54,60,Marimba
80.33333333333333,0.0,54,36,Marimba
80.33333333333333,0.0,36,36,Marimba
80.66666666666667,0.0,42,71,Marimba
80.66666666666667,0.0,40,71,Marimba
80.66666666666667,0.0,28,71,Marimba
81.0,0.450011250281257,36,111,Marimba
81.0,0.450011250281257,62,123,Marimba
81.0,0.2250056251406285,55,107,Marimba
81.0,0.2250056251406285,64,107,Marimba
81.0,0.2250056251406285,62,107,Marimba
81.0,0.2250056251406285,52,107,Marimba
81.0,0.11250281257031425,67,76,Marimba
81.0,0.11250281257031425,64,76,Marimba
81.0,0.11250281257031425,62,76,Marimba
81.0,0.11250281257031425,64,100,Marimba
81.0,0.11250281257031425,67,100,Marimba
81.0,0.11250281257031425,62,100,Marimba
81.0,0.0,42,108,Marimba
81.0,0.0,35,108,Marimba
81.33333333333333,0.0,36,31,Marimba
81.33333333333333,0.0,28,31,Marimba
82.0,0.3066779115234225,60,122,Marimba
82.0,0.3450126504638503,52,118,Marimba
82.0,0.3450126504638503,64,118,Marimba
82.0,0.3450126504638503,55,118,Marimba
82.0,0.3450126504638503,62,118,Marimba
82.0,0.3450126504638503,64,118,Marimba
82.0,0.3450126504638503,67,118,Marimba
82.0,0.3450126504638503,62,118,Marimba
82.0,0.3450126504638503,64,108,Marimba
82.0,0.3450126504638503,67,108,Marimba
82.0,0.3450126504638503,62,108,Marimba
82.0,0.0,42,98,Marimba
82.0,0.0,40,98,Marimba
82.33333333333333,0.0,28,34,Marimba
82.66666666666667,1.3800506018554013,64,122,Marimba
82.66666666666667,0.0,35,117,Marimba
83.0,0.15000375009375233,64,84,Marimba
83.0,0.15000375009375233,52,84,Marimba
83.0,0.15000375009375233,55,84,Marimba
83.0,0.15000375009375233,60,84,Marimba
83.0,0.11250281257031425,64,80,Marimba
83.0,0.11250281257031425,60,80,Marimba
83.0,0.11250281257031425,67,80,Marimba
83.0,0.11250281257031425,64,92,Marimba
83.0,0.11250281257031425,60,92,Marimba
83.0,0.11250281257031425,67,92,Marimba
83.0,0.0,42,54,Marimba
83.0,0.0,36,54,Marimba
83.0,0.0,28,54,Marimba
83.66666666666667,0.0,42,87,Marimba
83.66666666666667,0.0,40,87,Marimba
84.0,0.46001686728513375,55,118,Marimba
84.0,0.46001686728513375,64,118,Marimba
84.0,0.46001686728513375,60,118,Marimba
84.0,0.46001686728513375,52,118,Marimba
84.0,0.3450126504638503,60,115,Marimba
84.0,0.3450126504638503,67,115,Marimba
84.0,0.3450126504638503,64,115,Marimba
84.0,0.46001686728513375,60,107,Marimba
84.0,0.46001686728513375,64,107,Marimba
84.0,0.46001686728513375,67,107,Marimba
84.0,0.0,42,64,Marimba
84.0,0.0,28,64,Marimba
84.66666666666667,0.15333895576171125,31,95,Marimba
85.0,0.30000750018750466,36,117,Marimba
85.0,0.11250281257031425,52,81,Marimba
85.0,0.11250281257031425,55,81,Marimba
85.0,0.11250281257031425,64,81,Marimba
85.0,0.11250281257031425,59,81,Marimba
85.0,0.11250281257031425,59,80,Marimba
85.0,0.11250281257031425,64,80,Marimba
85.0,0.11250281257031425,67,80,Marimba
85.0,0.11250281257031425,64,96,Marimba
85.0,0.11250281257031425,67,96,Marimba
85.0,0.11250281257031425,59,96,Marimba
85.0,0.0,42,114,Marimba
85.0,0.0,35,114,Marimba
85.33333333333333,0.0,36,31,Marimba
85.33333333333333,0.0,28,31,Marimba
85.66666666666667,0.11250281257031425,36,104,Marimba
85.66666666666667,0.2250056251406285,52,106,Marimba
85.66666666666667,0.2250056251406285,55,106,Marimba
85.66666666666667,0.2250056251406285,59,106,Marimba
85.66666666666667,0.2250056251406285,64,106,Marimba
86.0,0.3450126504638503,59,112,Marimba
86.0,0.3450126504638503,64,112,Marimba
86.0,0.3450126504638503,67,112,Marimba
86.0,0.3450126504638503,64,109,Marimba
86.0,0.3450126504638503,59,109,Marimba
86.0,0.3450126504638503,67,109,Marimba
86.0,0.0,42,100,Marimba
86.0,0.0,40,100,Marimba
86.33333333333333,0.0,28,34,Marimba
86.66666666666667,0.15333895576171125,55,117,Marimba
86.66666666666667,0.11500421682128344,64,96,Marimba
86.66666666666667,0.11500421682128344,52,96,Marimba
86.66666666666667,0.11500421682128344,59,96,Marimba
86.66666666666667,0.11500421682128344,55,96,Marimba
87.0,0.30000750018750466,57,122,Marimba
87.0,0.15000375009375233,64,92,Marimba
87.0,0.15000375009375233,55,92,Marimba
87.0,0.15000375009375233,60,92,Marimba
87.0,0.11250281257031425,52,90,Marimba
87.0,0.15000375009375233,60,85,Marimba
87.0,0.15000375009375233,64,85,Marimba
87.0,0.15000375009375233,67,85,Marimba
87.0,0.11250281257031425,60,97,Marimba
87.0,0.11250281257031425,64,97,Marimba
87.0,0.11250281257031425,67,97,Marimba
87.0,0.0,42,88,Marimba
87.0,0.0,35,88,Marimba
87.0,0.0,28,88,Marimba
87.33333333333333,0.0,36,28,Marimba
87.66666666666667,0.15000375009375233,59,122,Marimba
87.75,0.0,54,45,Marimba
87.75,0.0,54,60,Marimba
88.0,0.46001686728513375,31,120,Marimba
88.0,0.3066779115234225,60,119,Marimba
88.0,0.3066779115234225,64,120,Marimba
88.0,0.3066779115234225,60,120,Marimba
88.0,0.3066779115234225,52,120,Marimba
88.0,0.23000843364256687,55,122,Marimba
88.0,0.23000843364256687,60,122,Marimba
88.0,0.3450126504638503,60,104,Marimba
88.0,0.3450126504638503,64,104,Marimba
88.0,0.3450126504638503,67,104,Marimba
88.0,0.3450126504638503,60,106,Marimba
88.0,0.3450126504638503,64,106,Marimba
88.0,0.3450126504638503,67,106,Marimba
88.0,0.0,54,75,Marimba
88.0,0.0,46,78,Marimba
88.0,0.0,54,78,Marimba
88.0,0.0,40,78,Marimba
88.0,0.0,28,78,Marimba
88.0,0.0,54,75,Marimba
88.25,0.0,54,60,Marimba
88.25,0.0,54,45,Marimba
88.66666666666667,0.15333895576171125,62,117,Marimba
88.66666666666667,0.0,35,84,Marimba
89.0,0.30000750018750466,38,121,Marimba
89.0,0.33750843771094274,64,121,Marimba
89.0,0.2250056251406285,65,103,Marimba
89.0,0.2250056251406285,53,103,Marimba
89.0,0.2250056251406285,64,103,Marimba
89.0,0.2250056251406285,57,103,Marimba
89.0,0.11250281257031425,69,88,Marimba
89.0,0.11250281257031425,65,88,Marimba
89.0,0.11250281257031425,64,88,Marimba
89.0,0.11250281257031425,65,91,Marimba
89.0,0.11250281257031425,64,91,Marimba
89.0,0.11250281257031425,69,91,Marimba
89.0,0.0,42,85,Marimba
89.0,0.0,36,85,Marimba
89.0,0.0,35,85,Marimba
89.33333333333333,0.0,28,31,Marimba
89.33333333333333,0.0,36,31,Marimba
89.66666666666667,0.2250056251406285,57,86,Marimba
89.66666666666667,0.2250056251406285,65,86,Marimba
89.66666666666667,0.2250056251406285,64,86,Marimba
89.66666666666667,0.2250056251406285,53,86,Marimba
90.0,0.3450126504638503,55,117,Marimba
90.0,0.3450126504638503,64,113,Marimba
90.0,0.3450126504638503,65,113,Marimba
90.0,0.3450126504638503,69,113,Marimba
90.0,0.3450126504638503,65,101,Marimba
90.0,0.3450126504638503,64,101,Marimba
90.0,0.3450126504638503,69,101,Marimba
90.0,0.0,42,79,Marimba
90.0,0.0,40,79,Marimba
90.0,0.0,28,79,Marimba
90.66666666666667,0.5750210841064172,57,122,Marimba
90.66666666666667,0.15333895576171125,65,113,Marimba
90.66666666666667,0.15333895576171125,64,113,Marimba
90.66666666666667,0.15333895576171125,57,113,Marimba
90.66666666666667,0.15333895576171125,53,113,Marimba
90.66666666666667,0.0,35,111,Marimba
91.0,0.15000375009375233,53,95,Marimba
91.0,0.15000375009375233,62,95,Marimba
91.0,0.15000375009375233,65,95,Marimba
91.0,0.15000375009375233,57,95,Marimba
91.0,0.11250281257031425,65,86,Marimba
91.0,0.11250281257031425,62,86,Marimba
91.0,0.11250281257031425,69,86,Marimba
91.0,0.11250281257031425,65,90,Marimba
91.0,0.11250281257031425,69,90,Marimba
91.0,0.11250281257031425,62,90,Marimba
91.0,0.0,42,55,Marimba
91.0,0.0,36,55,Marimba
91.0,0.0,28,55,Marimba
91.66666666666667,0.0,40,84,Marimba
92.0,0.30000750018750466,67,121,Marimba
92.0,0.33750843771094274,53,119,Marimba
92.0,0.33750843771094274,65,119,Marimba
92.0,0.33750843771094274,57,119,Marimba
92.0,0.33750843771094274,62,119,Marimba
92.0,0.450011250281257,62,110,Marimba
92.0,0.450011250281257,65,110,Marimba
92.0,0.450011250281257,69,110,Marimba
92.0,0.33750843771094274,65,106,Marimba
92.0,0.33750843771094274,62,106,Marimba
92.0,0.33750843771094274,69,106,Marimba
92.0,0.0,42,77,Marimba
92.0,0.0,28,77,Marimba
92.66666666666667,0.15000375009375233,33,114,Marimba
92.66666666666667,0.5625140628515712,65,122,Marimba
93.0,0.3066779115234225,38,117,Marimba
93.0,0.15333895576171125,53,98,Marimba
93.0,0.15333895576171125,65,98,Marimba
93.0,0.15333895576171125,61,98,Marimba
93.0,0.15333895576171125,57,98,Marimba
93.0,0.11500421682128344,65,67,Marimba
93.0,0.11500421682128344,69,67,Marimba
93.0,0.11500421682128344,61,67,Marimba
93.0,0.11500421682128344,65,92,Marimba
93.0,0.11500421682128344,69,92,Marimba
93.0,0.11500421682128344,61,92,Marimba
93.0,0.0,42,86,Marimba
93.0,0.0,35,86,Marimba
93.0,0.0,28,86,Marimba
93.33333333333333,0.0,36,31,Marimba
93.33333333333333,0.0,28,31,Marimba
93.66666666666667,0.11500421682128344,38,111,Marimba
93.66666666666667,0.23000843364256687,53,121,Marimba
93.66666666666667,0.23000843364256687,61,121,Marimba
93.66666666666667,0.23000843364256687,57,121,Marimba
93.66666666666667,0.23000843364256687,65,121,Marimba
94.0,0.450011250281257,67,123,Marimba
94.0,0.450011250281257,61,106,Marimba
94.0,0.450011250281257,69,106,Marimba
94.0,0.450011250281257,65,106,Marimba
94.0,0.33750843771094274,65,106,Marimba
94.0,0.33750843771094274,61,106,Marimba
94.0,0.33750843771094274,69,106,Marimba
94.0,0.0,42,78,Marimba
94.0,0.0,40,78,Marimba
94.0,0.0,28,78,Marimba
94.66666666666667,0.11250281257031425,61,87,Marimba
94.66666666666667,0.11250281257031425,65,87,Marimba
94.66666666666667,0.11250281257031425,53,87,Marimba
94.66666666666667,0.11250281257031425,57,87,Marimba
94.66666666666667,0.0,35,115,Marimba
95.0,0.46001686728513375,69,119,Marimba
95.0,0.23000843364256687,53,96,Marimba
95.0,0.23000843364256687,65,96,Marimba
95.0,0.23000843364256687,57,96,Marimba
95.0,0.23000843364256687,62,96,Marimba
95.0,0.15333895576171125,69,78,Marimba
95.0,0.15333895576171125,65,78,Marimba
95.0,0.15333895576171125,62,60,Marimba
95.0,0.11500421682128344,65,85,Marimba
95.0,0.11500421682128344,62,85,Marimba
95.0,0.11500421682128344,69,85,Marimba
95.0,0.0,42,52,Marimba
95.0,0.0,36,52,Marimba
95.0,0.0,28,52,Marimba
95.33333333333333,0.0,40,59,Marimba
95.33333333333333,0.0,28,59,Marimba
95.66666666666667,0.0,42,90,Marimba
95.75,0.0,54,45,Marimba
95.75,0.0,54,60,Marimba
96.0,0.450011250281257,31,117,Marimba
96.0,0.30000750018750466,76,123,Marimba
96.0,0.30000750018750466,65,121,Marimba
96.0,0.30000750018750466,53,121,Marimba
96.0,0.30000750018750466,62,121,Marimba
96.0,0.2250056251406285,57,122,Marimba
96.0,0.2250056251406285,62,122,Marimba
96.0,0.30000750018750466,65,112,Marimba
96.0,0.30000750018750466,69,112,Marimba
96.0,0.30000750018750466,62,112,Marimba
96.0,0.0,64,98,Marimba
96.0,0.30000750018750466,62,114,Marimba
96.0,0.30000750018750466,65,114,Marimba
96.0,0.30000750018750466,69,114,Marimba
96.0,0.0,54,75,Marimba
96.0,0.0,46,85,Marimba
96.0,0.0,54,85,Marimba
96.0,0.0,35,85,Marimba
96.0,0.0,40,85,Marimba
96.0,0.0,28,85,Marimba
96.25,0.0,54,75,Marimba
96.25,0.0,54,60,Marimba
96.33333333333333,0.0,54,36,Marimba
96.33333333333333,0.0,36,36,Marimba
96.66666666666667,0.450011250281257,74,123,Marimba
96.66666666666667,0.0,40,84,Marimba
97.0,0.46001686728513375,36,122,Marimba
97.0,0.23000843364256687,55,107,Marimba
97.0,0.23000843364256687,64,107,Marimba
97.0,0.23000843364256687,62,107,Marimba
97.0,0.23000843364256687,52,107,Marimba
97.0,0.11500421682128344,67,76,Marimba
97.0,0.11500421682128344,64,76,Marimba
97.0,0.11500421682128344,62,76,Marimba
97.0,0.11500421682128344,67,97,Marimba
97.0,0.11500421682128344,64,97,Marimba
97.0,0.11500421682128344,62,97,Marimba
97.0,0.0,42,87,Marimba
97.0,0.0,35,87,Marimba
97.0,0.0,28,87,Marimba
97.33333333333333,0.0,36,28,Marimba
97.66666666666667,0.0,28,34,Marimba
98.0,0.30000750018750466,76,121,Marimba
98.0,0.33750843771094274,52,118,Marimba
98.0,0.33750843771094274,64,118,Marimba
98.0,0.33750843771094274,55,118,Marimba
98.0,0.33750843771094274,62,118,Marimba
98.0,0.33750843771094274,64,118,Marimba
98.0,0.33750843771094274,67,118,Marimba
98.0,0.33750843771094274,62,118,Marimba
98.0,0.33750843771094274,64,116,Marimba
98.0,0.33750843771094274,67,116,Marimba
98.0,0.33750843771094274,62,116,Marimba
98.0,0.0,42,77,Marimba
98.0,0.0,40,77,Marimba
98.0,0.0,28,77,Marimba
98.66666666666667,1.9125478136953422,67,120,Marimba
98.66666666666667,0.0,35,117,Marimba
99.0,0.15333895576171125,64,84,Marimba
99.0,0.15333895576171125,52,84,Marimba
99.0,0.15333895576171125,55,84,Marimba
99.0,0.15333895576171125,60,84,Marimba
99.0,0.11500421682128344,64,80,Marimba
99.0,0.11500421682128344,60,80,Marimba
99.0,0.11500421682128344,67,80,Marimba
99.0,0.11500421682128344,60,100,Marimba
99.0,0.11500421682128344,64,100,Marimba
99.0,0.11500421682128344,67,100,Marimba
99.0,0.0,42,58,Marimba
99.0,0.0,36,58,Marimba
99.0,0.0,28,58,Marimba
99.66666666666667,0.0,42,79,Marimba
99.66666666666667,0.0,40,79,Marimba
100.0,0.450011250281257,55,118,Marimba
100.0,0.450011250281257,64,118,Marimba
100.0,0.450011250281257,60,118,Marimba
100.0,0.450011250281257,52,118,Marimba
100.0,0.33750843771094274,60,115,Marimba
100.0,0.33750843771094274,67,115,Marimba
100.0,0.33750843771094274,64,115,Marimba
100.0,0.33750843771094274,67,112,Marimba
100.0,0.33750843771094274,60,112,Marimba
100.0,0.33750843771094274,64,112,Marimba
100.0,0.0,42,72,Marimba
100.0,0.0,28,72,Marimba
100.66666666666667,0.15000375009375233,31,117,Marimba
100.66666666666667,0.0,28,34,Marimba
101.0,0.3066779115234225,36,121,Marimba
101.0,0.11500421682128344,52,81,Marimba
101.0,0.11500421682128344,55,81,Marimba
101.0,0.11500421682128344,64,81,Marimba
101.0,0.11500421682128344,59,81,Marimba
101.0,0.11500421682128344,59,80,Marimba
101.0,0.11500421682128344,64,80,Marimba
101.0,0.11500421682128344,67,80,Marimba
101.0,0.11500421682128344,59,101,Marimba
101.0,0.11500421682128344,67,101,Marimba
101.0,0.11500421682128344,64,101,Marimba
101.0,0.0,42,114,Marimba
101.0,0.0,35,114,Marimba
101.33333333333333,0.0,36,28,Marimba
101.66666666666667,0.11500421682128344,36,122,Marimba
101.66666666666667,0.23000843364256687,52,106,Marimba
101.66666666666667,0.23000843364256687,55,106,Marimba
101.66666666666667,0.23000843364256687,59,106,Marimba
101.66666666666667,0.23000843364256687,64,106,Marimba
101.66666666666667,0.0,28,34,Marimba
102.0,0.33750843771094274,59,112,Marimba
102.0,0.33750843771094274,64,112,Marimba
102.0,0.33750843771094274,67,112,Marimba
102.0,0.33750843771094274,64,112,Marimba
102.0,0.33750843771094274,67,112,Marimba
102.0,0.33750843771094274,59,112,Marimba
102.0,0.0,42,100,Marimba
102.0,0.0,40,100,Marimba
102.33333333333333,0.0,28,34,Marimba
102.66666666666667,0.33750843771094274,36,96,Marimba
102.66666666666667,0.11250281257031425,64,96,Marimba
102.66666666666667,0.11250281257031425,52,96,Marimba
102.66666666666667,0.11250281257031425,59,96,Marimba
102.66666666666667,0.11250281257031425,55,96,Marimba
103.0,0.15000375009375233,64,92,Marimba
103.0,0.15000375009375233,55,92,Marimba
103.0,0.15000375009375233,60,92,Marimba
103.0,0.11250281257031425,52,90,Marimba
103.0,0.15000375009375233,60,85,Marimba
103.0,0.15000375009375233,64,85,Marimba
103.0,0.15000375009375233,67,85,Marimba
103.0,0.11250281257031425,60,91,Marimba
103.0,0.11250281257031425,64,91,Marimba
103.0,0.11250281257031425,67,91,Marimba
103.0,0.0,42,87,Marimba
103.0,0.0,35,87,Marimba
103.0,0.0,28,87,Marimba
103.33333333333333,0.0,36,28,Marimba
103.66666666666667,0.0,42,72,Marimba
103.75,0.0,54,45,Marimba
103.75,0.0,54,60,Marimba
104.0,0.3066779115234225,64,120,Marimba
104.0,0.3066779115234225,60,120,Marimba
104.0,0.3066779115234225,52,120,Marimba
104.0,0.23000843364256687,55,122,Marimba
104.0,0.23000843364256687,60,122,Marimba
104.0,0.3450126504638503,60,104,Marimba
104.0,0.3450126504638503,64,104,Marimba
104.0,0.3450126504638503,67,104,Marimba
104.0,0.3450126504638503,60,109,Marimba
104.0,0.3450126504638503,64,109,Marimba
104.0,0.3450126504638503,67,109,Marimba
104.0,0.0,54,75,Marimba
104.0,0.0,46,78,Marimba
104.0,0.0,54,78,Marimba
104.0,0.0,40,78,Marimba
104.0,0.0,28,78,Marimba
104.0,0.0,54,75,Marimba
104.25,0.0,54,60,Marimba
104.25,0.0,54,45,Marimba
104.66666666666667,0.15333895576171125,31,111,Marimba
104.66666666666667,0.0,35,59,Marimba
104.66666666666667,0.0,28,59,Marimba
105.0,0.450011250281257,37,112,Marimba
105.0,0.33750843771094274,74,93,Marimba
105.0,0.2250056251406285,75,127,Marimba
105.0,0.2250056251406285,61,103,Marimba
105.0,0.2250056251406285,49,103,Marimba
105.0,0.2250056251406285,60,103,Marimba
105.0,0.2250056251406285,53,103,Marimba
105.0,0.11250281257031425,65,88,Marimba
105.0,0.11250281257031425,61,88,Marimba
105.0,0.11250281257031425,60,88,Marimba
105.0,0.11250281257031425,61,101,Marimba
105.0,0.11250281257031425,65,101,Marimba
105.0,0.11250281257031425,60,101,Marimba
105.0,0.0,42,69,Marimba
105.0,0.0,36,69,Marimba
105.0,0.0,35,69,Marimba
105.0,0.0,28,69,Marimba
105.33333333333333,0.0,36,28,Marimba
105.66666666666667,0.11250281257031425,63,107,Marimba
105.66666666666667,0.11250281257031425,76,46,Marimba
105.66666666666667,0.15000375009375233,77,106,Marimba
105.66666666666667,0.2250056251406285,53,86,Marimba
105.66666666666667,0.2250056251406285,61,86,Marimba
105.66666666666667,0.2250056251406285,60,86,Marimba
105.66666666666667,0.2250056251406285,49,86,Marimba
106.0,0.15333895576171125,75,116,Marimba
106.0,0.11500421682128344,77,54,Marimba
106.0,0.11500421682128344,79,60,Marimba
106.0,0.3066779115234225,82,127,Marimba
106.0,0.3450126504638503,60,113,Marimba
106.0,0.3450126504638503,61,113,Marimba
106.0,0.3450126504638503,65,113,Marimba
106.0,0.3450126504638503,61,108,Marimba
106.0,0.3450126504638503,60,108,Marimba
106.0,0.3450126504638503,65,108,Marimba
106.0,0.0,42,79,Marimba
106.0,0.0,40,79,Marimba
106.0,0.0,28,79,Marimba
106.25,0.11500421682128344,81,56,Marimba
106.33333333333333,0.11500421682128344,83,43,Marimba
106.5,0.11500421682128344,84,62,Marimba
106.66666666666667,0.11500421682128344,63,107,Marimba
106.66666666666667,0.11500421682128344,86,59,Marimba
106.66666666666667,0.613355823046845,87,114,Marimba
106.66666666666667,0.15333895576171125,61,113,Marimba
106.66666666666667,0.15333895576171125,60,113,Marimba
106.66666666666667,0.15333895576171125,53,113,Marimba
106.66666666666667,0.15333895576171125,49,113,Marimba
106.66666666666667,0.0,35,111,Marimba
106.75,0.11500421682128344,88,59,Marimba
107.0,0.2250056251406285,70,112,Marimba
107.0,0.11250281257031425,89,50,Marimba
107.0,0.33750843771094274,91,93,Marimba
107.0,0.15000375009375233,49,95,Marimba
107.0,0.15000375009375233,58,95,Marimba
107.0,0.15000375009375233,61,95,Marimba
107.0,0.15000375009375233,53,95,Marimba
107.0,0.11250281257031425,61,86,Marimba
107.0,0.11250281257031425,58,86,Marimba
107.0,0.11250281257031425,65,86,Marimba
107.0,0.11250281257031425,58,100,Marimba
107.0,0.11250281257031425,61,100,Marimba
107.0,0.11250281257031425,65,100,Marimba
107.0,0.0,42,58,Marimba
107.0,0.0,36,58,Marimba
107.0,0.0,28,58,Marimba
107.33333333333333,0.0,28,34,Marimba
107.66666666666667,0.11250281257031425,75,107,Marimba
107.66666666666667,0.11250281257031425,89,46,Marimba
107.66666666666667,0.0,40,99,Marimba
107.75,0.11250281257031425,88,54,Marimba
108.0,0.11500421682128344,86,60,Marimba
108.0,0.23000843364256687,94,127,Marimba
108.0,0.3450126504638503,49,119,Marimba
108.0,0.3450126504638503,61,119,Marimba
108.0,0.3450126504638503,53,119,Marimba
108.0,0.3450126504638503,58,119,Marimba
108.0,0.46001686728513375,58,110,Marimba
108.0,0.46001686728513375,61,110,Marimba
108.0,0.46001686728513375,65,110,Marimba
108.0,0.3450126504638503,61,109,Marimba
108.0,0.3450126504638503,58,109,Marimba
108.0,0.3450126504638503,65,109,Marimba
108.0,0.0,42,76,Marimba
108.0,0.0,28,76,Marimba
108.25,0.11500421682128344,84,56,Marimba
108.33333333333333,0.11500421682128344,83,43,Marimba
108.5,0.11500421682128344,81,62,Marimba
108.66666666666667,0.11500421682128344,63,97,Marimba
108.66666666666667,0.11500421682128344,34,95,Marimba
108.66666666666667,0.11500421682128344,79,59,Marimba
108.66666666666667,1.610059035497968,87,127,Marimba
108.66666666666667,0.0,28,34,Marimba
108.75,0.11500421682128344,77,59,Marimba
109.0,0.2250056251406285,75,116,Marimba
109.0,0.2250056251406285,39,120,Marimba
109.0,0.11250281257031425,76,50,Marimba
109.0,0.11250281257031425,74,62,Marimba
109.0,0.2250056251406285,49,98,Marimba
109.0,0.2250056251406285,61,98,Marimba
109.0,0.2250056251406285,57,98,Marimba
109.0,0.2250056251406285,53,98,Marimba
109.0,0.11250281257031425,61,67,Marimba
109.0,0.11250281257031425,65,67,Marimba
109.0,0.11250281257031425,57,67,Marimba
109.0,0.11250281257031425,61,93,Marimba
109.0,0.11250281257031425,65,93,Marimba
109.0,0.11250281257031425,57,93,Marimba
109.0,0.0,42,110,Marimba
109.0,0.0,35,110,Marimba
109.25,0.11250281257031425,72,59,Marimba
109.33333333333333,0.11250281257031425,71,59,Marimba
109.33333333333333,0.0,36,31,Marimba
109.33333333333333,0.0,28,31,Marimba
109.5,0.11250281257031425,69,67,Marimba
109.66666666666667,0.11250281257031425,63,97,Marimba
109.66666666666667,0.11250281257031425,39,95,Marimba
109.66666666666667,0.11250281257031425,67,60,Marimba
109.66666666666667,0.2250056251406285,49,121,Marimba
109.66666666666667,0.2250056251406285,57,121,Marimba
109.66666666666667,0.2250056251406285,53,121,Marimba
109.66666666666667,0.2250056251406285,61,121,Marimba
109.75,0.11250281257031425,65,58,Marimba
110.0,0.23000843364256687,70,124,Marimba
110.0,0.3450126504638503,34,90,Marimba
110.0,0.11500421682128344,64,58,Marimba
110.0,0.11500421682128344,62,60,Marimba
110.0,0.3450126504638503,57,106,Marimba
110.0,0.3450126504638503,65,106,Marimba
110.0,0.3450126504638503,61,106,Marimba
110.0,0.3450126504638503,65,107,Marimba
110.0,0.3450126504638503,61,107,Marimba
110.0,0.3450126504638503,57,107,Marimba
110.0,0.0,42,102,Marimba
110.0,0.0,40,102,Marimba
110.25,0.11500421682128344,60,60,Marimba
110.33333333333333,0.11500421682128344,59,63,Marimba
110.33333333333333,0.0,28,34,Marimba
110.5,0.11500421682128344,57,59,Marimba
110.66666666666667,0.11500421682128344,63,120,Marimba
110.66666666666667,0.11500421682128344,55,48,Marimba
110.66666666666667,0.11500421682128344,57,87,Marimba
110.66666666666667,0.11500421682128344,61,87,Marimba
110.66666666666667,0.11500421682128344,49,87,Marimba
110.66666666666667,0.11500421682128344,53,87,Marimba
110.66666666666667,0.0,38,88,Marimba
110.66666666666667,0.0,35,88,Marimba
111.0,0.33750843771094274,39,121,Marimba
111.0,0.15000375009375233,53,44,Marimba
111.0,0.2250056251406285,49,96,Marimba
111.0,0.2250056251406285,61,96,Marimba
111.0,0.2250056251406285,53,96,Marimba
111.0,0.2250056251406285,58,96,Marimba
111.0,0.15000375009375233,65,78,Marimba
111.0,0.15000375009375233,61,78,Marimba
111.0,0.15000375009375233,58,60,Marimba
111.0,0.11250281257031425,61,95,Marimba
111.0,0.11250281257031425,58,95,Marimba
111.0,0.11250281257031425,65,95,Marimba
111.0,0.0,42,52,Marimba
111.0,0.0,36,52,Marimba
111.0,0.0,28,52,Marimba
111.25,0.15000375009375233,52,47,Marimba
111.33333333333333,0.0,40,82,Marimba
111.33333333333333,0.0,38,82,Marimba
111.5,0.30000750018750466,50,47,Marimba
111.66666666666667,0.15000375009375233,63,116,Marimba
111.66666666666667,0.0,42,81,Marimba
111.66666666666667,0.0,38,81,Marimba
111.75,0.0,54,45,Marimba
111.75,0.0,54,60,Marimba
112.0,0.33750843771094274,27,114,Marimba
112.0,0.30000750018750466,61,121,Marimba
112.0,0.30000750018750466,49,121,Marimba
112.0,0.30000750018750466,58,121,Marimba
112.0,0.2250056251406285,53,122,Marimba
112.0,0.2250056251406285,58,122,Marimba
112.0,0.30000750018750466,61,112,Marimba
112.0,0.30000750018750466,65,112,Marimba
112.0,0.30000750018750466,58,112,Marimba
112.0,0.33750843771094274,61,107,Marimba
112.0,0.33750843771094274,58,107,Marimba
112.0,0.33750843771094274,65,107,Marimba
112.0,0.0,54,75,Marimba
112.0,0.0,41,91,Marimba
112.0,0.0,42,91,Marimba
112.0,0.0,54,91,Marimba
112.0,0.0,35,91,Marimba
112.0,0.0,28,91,Marimba
112.0,0.0,54,75,Marimba
112.25,0.0,54,60,Marimba
112.25,0.0,54,36,Marimba
112.25,0.0,36,36,Marimba
112.66666666666667,0.0,42,71,Marimba
112.66666666666667,0.0,40,71,Marimba
112.66666666666667,0.0,28,71,Marimba
113.0,0.3450126504638503,37,120,Marimba
113.0,0.23000843364256687,72,120,Marimba
113.0,0.23000843364256687,73,120,Marimba
113.0,0.23000843364256687,84,120,Marimba
113.0,0.23000843364256687,77,120,Marimba
113.0,0.23000843364256687,80,120,Marimba
113.0,0.23000843364256687,49,98,Marimba
113.0,0.23000843364256687,53,98,Marimba
113.0,0.23000843364256687,56,98,Marimba
113.0,0.23000843364256687,60,98,Marimba
113.0,0.3066779115234225,61,117,Marimba
113.0,0.11500421682128344,56,98,Marimba
113.0,0.11500421682128344,60,98,Marimba
113.0,0.11500421682128344,61,98,Marimba
113.0,0.11500421682128344,65,98,Marimba
113.0,1.840067469140535,37,86,Marimba
113.0,0.0,42,82,Marimba
113.0,0.0,49,82,Marimba
113.0,0.0,53,82,Marimba
113.0,0.0,35,82,Marimba
113.0,0.0,28,82,Marimba
113.33333333333333,0.0,36,28,Marimba
113.66666666666667,0.11500421682128344,72,120,Marimba
113.66666666666667,0.11500421682128344,73,120,Marimba
113.66666666666667,0.11500421682128344,77,120,Marimba
113.66666666666667,0.11500421682128344,80,120,Marimba
113.66666666666667,0.11500421682128344,84,120,Marimba
113.66666666666667,0.11500421682128344,53,62,Marimba
113.66666666666667,0.0,28,34,Marimba
114.0,0.30000750018750466,36,122,Marimba
114.0,0.2250056251406285,72,120,Marimba
114.0,0.2250056251406285,84,120,Marimba
114.0,0.2250056251406285,73,120,Marimba
114.0,0.2250056251406285,80,120,Marimba
114.0,0.2250056251406285,77,120,Marimba
114.0,0.30000750018750466,49,114,Marimba
114.0,0.30000750018750466,56,114,Marimba
114.0,0.30000750018750466,53,114,Marimba
114.0,0.30000750018750466,60,114,Marimba
114.0,0.30000750018750466,56,120,Marimba
114.0,0.33750843771094274,56,102,Marimba
114.0,0.33750843771094274,61,102,Marimba
114.0,0.33750843771094274,60,102,Marimba
114.0,0.33750843771094274,65,102,Marimba
114.0,0.0,42,78,Marimba
114.0,0.0,53,78,Marimba
114.0,0.0,40,78,Marimba
114.0,0.0,28,78,Marimba
114.66666666666667,0.2250056251406285,37,87,Marimba
114.66666666666667,0.11250281257031425,72,120,Marimba
114.66666666666667,0.11250281257031425,73,120,Marimba
114.66666666666667,0.11250281257031425,84,120,Marimba
114.66666666666667,0.11250281257031425,77,120,Marimba
114.66666666666667,0.11250281257031425,80,120,Marimba
114.66666666666667,0.11250281257031425,56,77,Marimba
114.66666666666667,0.11250281257031425,53,77,Marimba
114.66666666666667,0.11250281257031425,49,77,Marimba
114.66666666666667,0.11250281257031425,60,77,Marimba
114.66666666666667,0.2250056251406285,61,111,Marimba
114.66666666666667,0.0,35,117,Marimba
115.0,0.15333895576171125,56,69,Marimba
115.0,0.15333895576171125,53,69,Marimba
115.0,0.15333895576171125,60,69,Marimba
115.0,0.15333895576171125,49,69,Marimba
115.0,0.11500421682128344,60,96,Marimba
115.0,0.11500421682128344,56,96,Marimba
115.0,0.11500421682128344,61,96,Marimba
115.0,0.11500421682128344,65,96,Marimba
115.0,0.0,42,64,Marimba
115.0,0.0,53,64,Marimba
115.0,0.0,36,64,Marimba
115.0,0.0,28,64,Marimba
115.66666666666667,0.46001686728513375,32,120,Marimba
115.66666666666667,0.23000843364256687,49,113,Marimba
115.66666666666667,0.23000843364256687,53,113,Marimba
115.66666666666667,0.23000843364256687,56,113,Marimba
115.66666666666667,0.23000843364256687,60,113,Marimba
115.66666666666667,0.11500421682128344,53,83,Marimba
115.66666666666667,0.0,42,79,Marimba
115.66666666666667,0.0,40,79,Marimba
116.0,0.30000750018750466,56,117,Marimba
116.0,0.33750843771094274,56,98,Marimba
116.0,0.33750843771094274,61,98,Marimba
116.0,0.33750843771094274,60,98,Marimba
116.0,0.33750843771094274,65,98,Marimba
116.0,0.0,48,79,Marimba
116.0,0.0,53,79,Marimba
116.0,0.0,42,79,Marimba
116.0,0.0,28,79,Marimba
116.33333333333333,0.11250281257031425,53,55,Marimba
116.33333333333333,0.11250281257031425,56,55,Marimba
116.33333333333333,0.11250281257031425,49,55,Marimba
116.66666666666667,0.15000375009375233,25,95,Marimba
116.66666666666667,0.11250281257031425,56,88,Marimba
116.66666666666667,0.11250281257031425,53,88,Marimba
116.66666666666667,0.11250281257031425,49,88,Marimba
116.66666666666667,0.11250281257031425,60,88,Marimba
116.66666666666667,0.15000375009375233,61,65,Marimba
116.66666666666667,0.0,28,34,Marimba
117.0,0.46001686728513375,27,112,Marimba
117.0,0.23000843364256687,58,94,Marimba
117.0,0.23000843364256687,55,94,Marimba
117.0,0.23000843364256687,49,94,Marimba
117.0,0.23000843364256687,53,94,Marimba
117.0,0.23000843364256687,53,111,Marimba
117.0,0.11500421682128344,61,101,Marimba
117.0,0.11500421682128344,55,101,Marimba
117.0,0.11500421682128344,58,101,Marimba
117.0,0.11500421682128344,65,101,Marimba
117.0,1.840067469140535,39,85,Marimba
117.0,0.0,53,102,Marimba
117.0,0.0,42,102,Marimba
117.0,0.0,35,102,Marimba
117.33333333333333,0.0,36,28,Marimba
117.66666666666667,0.46001686728513375,70,120,Marimba
117.66666666666667,0.46001686728513375,82,120,Marimba
117.66666666666667,0.46001686728513375,73,120,Marimba
117.66666666666667,0.46001686728513375,79,120,Marimba
117.66666666666667,0.46001686728513375,75,120,Marimba
117.66666666666667,0.11500421682128344,55,86,Marimba
117.66666666666667,0.0,28,34,Marimba
118.0,0.450011250281257,29,120,Marimba
118.0,0.30000750018750466,49,112,Marimba
118.0,0.30000750018750466,53,112,Marimba
118.0,0.30000750018750466,55,112,Marimba
118.0,0.30000750018750466,58,112,Marimba
118.0,0.2250056251406285,58,100,Marimba
118.0,0.33750843771094274,55,102,Marimba
118.0,0.33750843771094274,58,102,Marimba
118.0,0.33750843771094274,65,102,Marimba
118.0,0.33750843771094274,61,102,Marimba
118.0,0.0,53,94,Marimba
118.0,0.0,42,94,Marimba
118.0,0.0,40,94,Marimba
118.33333333333333,0.0,28,34,Marimba
118.66666666666667,0.11250281257031425,58,79,Marimba
118.66666666666667,0.11250281257031425,53,79,Marimba
118.66666666666667,0.11250281257031425,49,79,Marimba
118.66666666666667,0.11250281257031425,55,79,Marimba
118.66666666666667,0.30000750018750466,63,112,Marimba
119.0,0.46001686728513375,31,122,Marimba
119.0,0.15333895576171125,68,120,Marimba
119.0,0.15333895576171125,79,120,Marimba
119.0,0.15333895576171125,73,120,Marimba
119.0,0.15333895576171125,80,120,Marimba
119.0,0.15333895576171125,75,120,Marimba
119.0,0.15333895576171125,58,74,Marimba
119.0,0.15333895576171125,53,74,Marimba
119.0,0.15333895576171125,55,74,Marimba
119.0,0.15333895576171125,49,74,Marimba
119.0,0.11500421682128344,55,95,Marimba
119.0,0.11500421682128344,58,95,Marimba
119.0,0.11500421682128344,61,95,Marimba
119.0,0.11500421682128344,65,95,Marimba
119.0,0.0,53,84,Marimba
119.0,0.0,42,84,Marimba
119.0,0.0,35,84,Marimba
119.0,0.0,28,84,Marimba
119.33333333333333,0.0,36,28,Marimba
119.66666666666667,0.23000843364256687,49,106,Marimba
119.66666666666667,0.23000843364256687,55,106,Marimba
119.66666666666667,0.23000843364256687,53,106,Marimba
119.66666666666667,0.23000843364256687,58,106,Marimba
119.66666666666667,0.11500421682128344,53,100,Marimba
119.66666666666667,0.0,42,72,Marimba
119.75,0.0,54,45,Marimba
119.75,0.0,54,60,Marimba
120.0,0.450011250281257,27,117,Marimba
120.0,0.30000750018750466,70,120,Marimba
120.0,0.30000750018750466,82,120,Marimba
120.0,0.30000750018750466,73,120,Marimba
120.0,0.30000750018750466,75,120,Marimba
120.0,0.30000750018750466,79,120,Marimba
120.0,0.2250056251406285,55,112,Marimba
120.0,0.33750843771094274,55,105,Marimba
120.0,0.33750843771094274,61,105,Marimba
120.0,0.33750843771094274,58,105,Marimba
120.0,0.33750843771094274,65,105,Marimba
120.0,0.0,54,75,Marimba
120.0,0.0,53,78,Marimba
120.0,0.0,46,78,Marimba
120.0,0.0,54,78,Marimba
120.0,0.0,40,78,Marimba
120.0,0.0,28,78,Marimba
120.25,0.0,54,75,Marimba
120.25,0.0,54,60,Marimba
120.33333333333333,0.0,54,45,Marimba
120.66666666666667,0.11250281257031425,49,104,Marimba
120.66666666666667,0.11250281257031425,53,104,Marimba
120.66666666666667,0.11250281257031425,58,104,Marimba
120.66666666666667,0.11250281257031425,55,104,Marimba
120.66666666666667,0.11250281257031425,63,104,Marimba
120.66666666666667,0.0,35,59,Marimba
120.66666666666667,0.0,28,59,Marimba
121.0,0.46001686728513375,32,114,Marimba
121.0,0.23000843364256687,70,120,Marimba
121.0,0.23000843364256687,72,120,Marimba
121.0,0.23000843364256687,82,120,Marimba
121.0,0.23000843364256687,75,120,Marimba
121.0,0.23000843364256687,79,120,Marimba
121.0,0.23000843364256687,48,90,Marimba
121.0,0.23000843364256687,51,90,Marimba
121.0,0.23000843364256687,55,90,Marimba
121.0,0.23000843364256687,58,90,Marimba
121.0,0.23000843364256687,51,114,Marimba
121.0,0.11500421682128344,56,92,Marimba
121.0,0.11500421682128344,60,92,Marimba
121.0,0.11500421682128344,67,92,Marimba
121.0,0.11500421682128344,63,92,Marimba
121.0,1.840067469140535,44,70,Marimba
121.0,0.0,53,71,Marimba
121.0,0.0,42,71,Marimba
121.0,0.0,36,71,Marimba
121.0,0.0,35,71,Marimba
121.0,0.0,28,71,Marimba
121.33333333333333,0.0,36,28,Marimba
121.66666666666667,0.11500421682128344,70,120,Marimba
121.66666666666667,0.11500421682128344,72,120,Marimba
121.66666666666667,0.11500421682128344,75,120,Marimba
121.66666666666667,0.11500421682128344,79,120,Marimba
121.66666666666667,0.11500421682128344,82,120,Marimba
121.66666666666667,0.11500421682128344,55,95,Marimba
122.0,0.30000750018750466,34,121,Marimba
122.0,0.2250056251406285,70,120,Marimba
122.0,0.2250056251406285,72,120,Marimba
122.0,0.2250056251406285,82,120,Marimba
122.0,0.2250056251406285,75,120,Marimba
122.0,0.2250056251406285,79,120,Marimba
122.0,0.2250056251406285,48,110,Marimba
122.0,0.2250056251406285,51,110,Marimba
122.0,0.2250056251406285,55,110,Marimba
122.0,0.2250056251406285,58,110,Marimba
122.0,0.2250056251406285,58,120,Marimba
122.0,0.33750843771094274,58,110,Marimba
122.0,0.33750843771094274,67,110,Marimba
122.0,0.33750843771094274,60,110,Marimba
122.0,0.33750843771094274,63,110,Marimba
122.0,0.0,53,80,Marimba
122.0,0.0,42,80,Marimba
122.0,0.0,40,80,Marimba
122.0,0.0,28,80,Marimba
122.66666666666667,0.11250281257031425,35,108,Marimba
122.66666666666667,0.15000375009375233,70,120,Marimba
122.66666666666667,0.11250281257031425,72,120,Marimba
122.66666666666667,0.11250281257031425,82,120,Marimba
122.66666666666667,0.11250281257031425,75,120,Marimba
122.66666666666667,0.11250281257031425,79,120,Marimba
122.66666666666667,0.0,51,74,Marimba
122.66666666666667,0.0,48,74,Marimba
122.66666666666667,0.0,55,74,Marimba
122.66666666666667,0.0,58,74,Marimba
122.66666666666667,0.11250281257031425,51,104,Marimba
122.66666666666667,0.0,35,111,Marimba
123.0,0.3450126504638503,36,108,Marimba
123.0,0.15333895576171125,51,77,Marimba
123.0,0.15333895576171125,55,77,Marimba
123.0,0.15333895576171125,48,77,Marimba
123.0,0.15333895576171125,58,77,Marimba
123.0,0.23000843364256687,55,114,Marimba
123.0,0.11500421682128344,67,88,Marimba
123.0,0.11500421682128344,60,88,Marimba
123.0,0.11500421682128344,63,88,Marimba
123.0,0.11500421682128344,58,88,Marimba
123.0,0.0,53,65,Marimba
123.0,0.0,42,65,Marimba
123.0,0.0,36,65,Marimba
123.0,0.0,28,65,Marimba
123.33333333333333,0.0,28,34,Marimba
123.66666666666667,0.3066779115234225,48,100,Marimba
123.66666666666667,0.3066779115234225,51,100,Marimba
123.66666666666667,0.3066779115234225,55,100,Marimba
123.66666666666667,0.3066779115234225,58,100,Marimba
123.66666666666667,0.15333895576171125,58,121,Marimba
123.66666666666667,0.0,40,99,Marimba
124.0,0.450011250281257,27,117,Marimba
124.0,0.33750843771094274,58,116,Marimba
124.0,0.33750843771094274,60,116,Marimba
124.0,0.33750843771094274,63,116,Marimba
124.0,0.30000750018750466,67,95,Marimba
124.0,0.0,45,82,Marimba
124.0,0.0,53,82,Marimba
124.0,0.0,42,82,Marimba
124.0,0.0,28,82,Marimba
124.66666666666667,0.11250281257031425,48,99,Marimba
124.66666666666667,0.11250281257031425,51,99,Marimba
124.66666666666667,0.11250281257031425,55,99,Marimba
124.66666666666667,0.11250281257031425,58,99,Marimba
124.66666666666667,0.15000375009375233,51,112,Marimba
124.66666666666667,0.0,28,34,Marimba
125.0,0.450011250281257,29,117,Marimba
125.0,0.2250056251406285,60,101,Marimba
125.0,0.2250056251406285,56,101,Marimba
125.0,0.2250056251406285,51,101,Marimba
125.0,0.2250056251406285,53,101,Marimba
125.0,0.2250056251406285,53,86,Marimba
125.0,0.15000375009375233,51,79,Marimba
125.0,0.11250281257031425,56,100,Marimba
125.0,0.11250281257031425,53,100,Marimba
125.0,0.11250281257031425,63,100,Marimba
125.0,0.11250281257031425,60,100,Marimba
125.0,1.800045001125028,41,77,Marimba
125.0,0.0,53,99,Marimba
125.0,0.0,42,99,Marimba
125.0,0.0,35,99,Marimba
125.33333333333333,0.0,36,31,Marimba
125.33333333333333,0.0,28,31,Marimba
125.66666666666667,0.450011250281257,68,120,Marimba
125.66666666666667,0.450011250281257,80,120,Marimba
125.66666666666667,0.450011250281257,72,120,Marimba
125.66666666666667,0.450011250281257,75,120,Marimba
125.66666666666667,0.450011250281257,77,120,Marimba
125.66666666666667,0.11250281257031425,56,90,Marimba
126.0,0.46001686728513375,31,121,Marimba
126.0,0.23000843364256687,51,110,Marimba
126.0,0.23000843364256687,53,110,Marimba
126.0,0.23000843364256687,56,110,Marimba
126.0,0.23000843364256687,60,110,Marimba
126.0,0.23000843364256687,60,112,Marimba
126.0,0.3450126504638503,53,108,Marimba
126.0,0.3450126504638503,56,108,Marimba
126.0,0.3450126504638503,63,108,Marimba
126.0,0.3450126504638503,60,108,Marimba
126.0,0.0,53,97,Marimba
126.0,0.0,42,97,Marimba
126.0,0.0,40,97,Marimba
126.33333333333333,0.0,28,34,Marimba
126.66666666666667,0.0,56,76,Marimba
126.66666666666667,0.0,53,76,Marimba
126.66666666666667,0.0,51,76,Marimba
126.66666666666667,0.0,60,76,Marimba
126.66666666666667,0.11500421682128344,53,76,Marimba
126.66666666666667,0.0,35,115,Marimba
127.0,0.450011250281257,32,121,Marimba
127.0,0.2250056251406285,67,120,Marimba
127.0,0.2250056251406285,77,120,Marimba
127.0,0.2250056251406285,72,120,Marimba
127.0,0.2250056251406285,79,120,Marimba
127.0,0.2250056251406285,75,120,Marimba
127.0,0.15000375009375233,56,71,Marimba
127.0,0.15000375009375233,53,71,Marimba
127.0,0.15000375009375233,60,71,Marimba
127.0,0.15000375009375233,51,71,Marimba
127.0,0.2250056251406285,56,111,Marimba
127.0,0.11250281257031425,63,88,Marimba
127.0,0.11250281257031425,53,88,Marimba
127.0,0.11250281257031425,60,88,Marimba
127.0,0.11250281257031425,56,88,Marimba
127.0,0.0,53,58,Marimba
127.0,0.0,42,58,Marimba
127.0,0.0,36,58,Marimba
127.0,0.0,28,58,Marimba
127.33333333333333,0.0,40,84,Marimba
127.66666666666667,0.30000750018750466,51,105,Marimba
127.66666666666667,0.30000750018750466,56,105,Marimba
127.66666666666667,0.30000750018750466,53,105,Marimba
127.66666666666667,0.30000750018750466,60,105,Marimba
127.66666666666667,0.2250056251406285,60,104,Marimba
127.66666666666667,0.0,42,90,Marimba
127.75,0.0,54,45,Marimba
127.75,0.0,54,60,Marimba
128.0,0.46001686728513375,29,117,Marimba
128.0,0.3450126504638503,68,120,Marimba
128.0,0.3450126504638503,80,120,Marimba
128.0,0.3450126504638503,72,120,Marimba
128.0,0.3450126504638503,75,120,Marimba
128.0,0.3450126504638503,77,120,Marimba
128.0,0.3066779115234225,53,104,Marimba
128.0,0.3066779115234225,63,104,Marimba
128.0,0.3066779115234225,56,104,Marimba
128.0,0.3066779115234225,60,104,Marimba
128.0,0.0,54,75,Marimba
128.0,0.0,53,88,Marimba
128.0,0.0,42,88,Marimba
128.0,0.0,54,88,Marimba
128.0,0.0,35,88,Marimba
128.0,0.0,28,88,Marimba
128.0,0.0,54,75,Marimba
128.25,0.0,54,60,Marimba
128.25,0.0,54,36,Marimba
128.25,0.0,36,36,Marimba
128.66666666666666,0.11500421682128344,51,91,Marimba
128.66666666666666,0.11500421682128344,56,91,Marimba
128.66666666666666,0.11500421682128344,53,91,Marimba
128.66666666666666,0.11500421682128344,60,91,Marimba
128.66666666666666,0.15333895576171125,60,111,Marimba
128.66666666666666,0.0,42,71,Marimba
128.66666666666666,0.0,40,71,Marimba
128.66666666666666,0.0,28,71,Marimba
129.0,0.450011250281257,37,117,Marimba
129.0,0.2250056251406285,72,120,Marimba
129.0,0.30000750018750466,73,120,Marimba
129.0,0.30000750018750466,77,120,Marimba
129.0,0.30000750018750466,80,120,Marimba
129.0,0.30000750018750466,84,120,Marimba
129.0,0.2250056251406285,60,102,Marimba
129.0,0.2250056251406285,49,102,Marimba
129.0,0.2250056251406285,53,102,Marimba
129.0,0.2250056251406285,56,102,Marimba
129.0,1.800045001125028,37,74,Marimba
129.0,0.11250281257031425,56,103,Marimba
129.0,0.11250281257031425,61,103,Marimba
129.0,0.11250281257031425,60,103,Marimba
129.0,0.11250281257031425,65,103,Marimba
129.0,0.0,53,100,Marimba
129.0,0.0,42,100,Marimba
129.0,0.0,35,100,Marimba
129.33333333333334,0.0,36,31,Marimba
129.33333333333334,0.0,28,31,Marimba
129.66666666666666,0.11250281257031425,72,120,Marimba
129.66666666666666,0.11250281257031425,73,120,Marimba
129.66666666666666,0.11250281257031425,80,120,Marimba
129.66666666666666,0.11250281257031425,77,120,Marimba
129.66666666666666,0.11250281257031425,84,120,Marimba
129.66666666666666,0.11250281257031425,53,111,Marimba
130.0,0.3066779115234225,36,114,Marimba
130.0,0.23000843364256687,72,120,Marimba
130.0,0.23000843364256687,84,120,Marimba
130.0,0.23000843364256687,73,120,Marimba
130.0,0.23000843364256687,77,120,Marimba
130.0,0.23000843364256687,80,120,Marimba
130.0,0.23000843364256687,49,102,Marimba
130.0,0.23000843364256687,53,102,Marimba
130.0,0.23000843364256687,56,102,Marimba
130.0,0.23000843364256687,60,102,Marimba
130.0,0.23000843364256687,56,104,Marimba
130.0,0.3450126504638503,56,108,Marimba
130.0,0.3450126504638503,61,108,Marimba
130.0,0.3450126504638503,60,108,Marimba
130.0,0.3450126504638503,65,108,Marimba
130.0,0.0,53,91,Marimba
130.0,0.0,42,91,Marimba
130.0,0.0,40,91,Marimba
130.33333333333334,0.0,28,34,Marimba
130.66666666666666,0.3450126504638503,37,108,Marimba
130.66666666666666,0.11500421682128344,72,120,Marimba
130.66666666666666,0.11500421682128344,84,120,Marimba
130.66666666666666,0.11500421682128344,73,120,Marimba
130.66666666666666,0.11500421682128344,77,120,Marimba
130.66666666666666,0.11500421682128344,80,120,Marimba
130.66666666666666,0.0,56,83,Marimba
130.66666666666666,0.0,53,83,Marimba
130.66666666666666,0.0,49,83,Marimba
130.66666666666666,0.0,60,83,Marimba
130.66666666666666,0.23000843364256687,61,98,Marimba
130.66666666666666,0.0,35,117,Marimba
131.0,0.15000375009375233,56,76,Marimba
131.0,0.15000375009375233,60,76,Marimba
131.0,0.15000375009375233,53,76,Marimba
131.0,0.15000375009375233,49,76,Marimba
131.0,0.2250056251406285,53,104,Marimba
131.0,0.11250281257031425,56,80,Marimba
131.0,0.11250281257031425,61,80,Marimba
131.0,0.11250281257031425,60,80,Marimba
131.0,0.11250281257031425,65,80,Marimba
131.0,0.0,53,59,Marimba
131.0,0.0,42,59,Marimba
131.0,0.0,36,59,Marimba
131.0,0.0,28,59,Marimba
131.66666666666666,0.33750843771094274,29,117,Marimba
131.66666666666666,0.30000750018750466,49,102,Marimba
131.66666666666666,0.30000750018750466,53,102,Marimba
131.66666666666666,0.30000750018750466,56,102,Marimba
131.66666666666666,0.2250056251406285,60,95,Marimba
131.66666666666666,0.15000375009375233,56,117,Marimba
131.66666666666666,0.0,42,87,Marimba
131.66666666666666,0.0,40,87,Marimba
132.0,0.23000843364256687,61,85,Marimba
132.0,0.3450126504638503,61,110,Marimba
132.0,0.3450126504638503,56,110,Marimba
132.0,0.3450126504638503,60,110,Marimba
132.0,0.3450126504638503,65,110,Marimba
132.0,0.0,48,75,Marimba
132.0,0.0,53,75,Marimba
132.0,0.0,42,75,Marimba
132.0,0.0,28,75,Marimba
132.66666666666666,0.11500421682128344,28,98,Marimba
132.66666666666666,0.11500421682128344,49,95,Marimba
132.66666666666666,0.11500421682128344,53,95,Marimba
132.66666666666666,0.11500421682128344,56,95,Marimba
132.66666666666666,0.11500421682128344,60,95,Marimba
132.66666666666666,0.11500421682128344,53,65,Marimba
133.0,0.450011250281257,27,121,Marimba
133.0,0.2250056251406285,49,92,Marimba
133.0,0.2250056251406285,58,92,Marimba
133.0,0.2250056251406285,55,92,Marimba
133.0,0.2250056251406285,51,92,Marimba
133.0,0.2250056251406285,53,83,Marimba
133.0,1.800045001125028,39,76,Marimba
133.0,0.11250281257031425,61,94,Marimba
133.0,0.11250281257031425,55,94,Marimba
133.0,0.11250281257031425,58,94,Marimba
133.0,0.11250281257031425,65,94,Marimba
133.0,0.0,53,102,Marimba
133.0,0.0,42,102,Marimba
133.0,0.0,35,102,Marimba
133.33333333333334,0.0,36,31,Marimba
133.33333333333334,0.0,28,31,Marimba
133.66666666666666,0.450011250281257,70,120,Marimba
133.66666666666666,0.450011250281257,73,120,Marimba
133.66666666666666,0.450011250281257,82,120,Marimba
133.66666666666666,0.450011250281257,75,120,Marimba
133.66666666666666,0.450011250281257,79,120,Marimba
133.66666666666666,0.11250281257031425,55,98,Marimba
134.0,0.46001686728513375,29,120,Marimba
134.0,0.3066779115234225,49,112,Marimba
134.0,0.3066779115234225,53,112,Marimba
134.0,0.3066779115234225,58,112,Marimba
134.0,0.3066779115234225,55,112,Marimba
134.0,0.23000843364256687,63,111,Marimba
134.0,0.3450126504638503,55,105,Marimba
134.0,0.3450126504638503,61,105,Marimba
134.0,0.3450126504638503,58,105,Marimba
134.0,0.3450126504638503,65,105,Marimba
134.0,0.0,53,96,Marimba
134.0,0.0,42,96,Marimba
134.0,0.0,40,96,Marimba
134.33333333333334,0.0,28,34,Marimba
134.66666666666666,0.11500421682128344,53,76,Marimba
134.66666666666666,0.11500421682128344,55,76,Marimba
134.66666666666666,0.11500421682128344,58,76,Marimba
134.66666666666666,0.11500421682128344,49,76,Marimba
134.66666666666666,0.11500421682128344,53,86,Marimba
135.0,0.30000750018750466,31,121,Marimba
135.0,0.15000375009375233,68,120,Marimba
135.0,0.15000375009375233,79,120,Marimba
135.0,0.15000375009375233,73,120,Marimba
135.0,0.15000375009375233,75,120,Marimba
135.0,0.15000375009375233,80,120,Marimba
135.0,0.15000375009375233,58,70,Marimba
135.0,0.15000375009375233,55,70,Marimba
135.0,0.15000375009375233,53,70,Marimba
135.0,0.15000375009375233,49,70,Marimba
135.0,0.2250056251406285,55,111,Marimba
135.0,0.11250281257031425,55,93,Marimba
135.0,0.11250281257031425,58,93,Marimba
135.0,0.11250281257031425,61,93,Marimba
135.0,0.11250281257031425,65,93,Marimba
135.0,0.0,53,87,Marimba
135.0,0.0,42,87,Marimba
135.0,0.0,35,87,Marimba
135.0,0.0,28,87,Marimba
135.33333333333334,0.0,36,28,Marimba
135.66666666666666,0.450011250281257,27,117,Marimba
135.66666666666666,0.30000750018750466,49,109,Marimba
135.66666666666666,0.30000750018750466,55,109,Marimba
135.66666666666666,0.30000750018750466,58,109,Marimba
135.66666666666666,0.30000750018750466,53,109,Marimba
135.66666666666666,0.11250281257031425,58,117,Marimba
135.75,0.0,54,45,Marimba
135.75,0.0,54,60,Marimba
136.0,0.2250056251406285,70,120,Marimba
136.0,0.2250056251406285,82,120,Marimba
136.0,0.2250056251406285,73,120,Marimba
136.0,0.2250056251406285,79,120,Marimba
136.0,0.2250056251406285,75,120,Marimba
136.0,0.30000750018750466,63,111,Marimba
136.0,0.33750843771094274,55,111,Marimba
136.0,0.33750843771094274,58,111,Marimba
136.0,0.33750843771094274,61,104,Marimba
136.0,0.33750843771094274,58,104,Marimba
136.0,0.33750843771094274,65,104,Marimba
136.0,0.0,54,75,Marimba
136.0,0.0,53,80,Marimba
136.0,0.0,46,80,Marimba
136.0,0.0,54,80,Marimba
136.0,0.0,40,80,Marimba
136.0,0.0,28,80,Marimba
136.25,0.0,54,75,Marimba
136.25,0.0,54,60,Marimba
136.33333333333334,0.0,54,45,Marimba
136.66666666666666,0.15000375009375233,27,98,Marimba
136.66666666666666,0.11250281257031425,49,77,Marimba
136.66666666666666,0.11250281257031425,53,77,Marimba
136.66666666666666,0.11250281257031425,55,77,Marimba
136.66666666666666,0.11250281257031425,58,77,Marimba
136.66666666666666,0.0,35,84,Marimba
137.0,0.46001686728513375,32,121,Marimba
137.0,0.3450126504638503,70,120,Marimba
137.0,0.3450126504638503,72,120,Marimba
137.0,0.3450126504638503,75,120,Marimba
137.0,0.3450126504638503,79,120,Marimba
137.0,0.3450126504638503,82,120,Marimba
137.0,0.23000843364256687,58,94,Marimba
137.0,0.23000843364256687,55,94,Marimba
137.0,0.23000843364256687,51,94,Marimba
137.0,0.23000843364256687,48,94,Marimba
137.0,0.3066779115234225,63,112,Marimba
137.0,0.11500421682128344,60,100,Marimba
137.0,0.11500421682128344,58,100,Marimba
137.0,0.11500421682128344,67,100,Marimba
137.0,0.11500421682128344,63,100,Marimba
137.0,1.840067469140535,44,74,Marimba
137.0,0.0,53,86,Marimba
137.0,0.0,42,86,Marimba
137.0,0.0,36,86,Marimba
137.0,0.0,35,86,Marimba
137.33333333333334,0.0,28,31,Marimba
137.33333333333334,0.0,36,31,Marimba
138.0,0.450011250281257,31,120,Marimba
138.0,0.2250056251406285,68,120,Marimba
138.0,0.2250056251406285,79,120,Marimba
138.0,0.2250056251406285,72,120,Marimba
138.0,0.2250056251406285,75,120,Marimba
138.0,0.2250056251406285,80,120,Marimba
138.0,0.30000750018750466,48,108,Marimba
138.0,0.30000750018750466,51,108,Marimba
138.0,0.30000750018750466,55,108,Marimba
138.0,0.30000750018750466,58,108,Marimba
138.0,0.2250056251406285,55,111,Marimba
138.0,0.33750843771094274,67,109,Marimba
138.0,0.33750843771094274,58,109,Marimba
138.0,0.33750843771094274,60,109,Marimba
138.0,0.33750843771094274,63,109,Marimba
138.0,0.0,53,83,Marimba
138.0,0.0,42,83,Marimba
138.0,0.0,40,83,Marimba
138.0,0.0,28,83,Marimba
138.66666666666666,0.11250281257031425,70,120,Marimba
138.66666666666666,0.11250281257031425,72,120,Marimba
138.66666666666666,0.11250281257031425,82,120,Marimba
138.66666666666666,0.11250281257031425,79,120,Marimba
138.66666666666666,0.11250281257031425,75,120,Marimba
138.66666666666666,0.2250056251406285,48,89,Marimba
138.66666666666666,0.2250056251406285,51,89,Marimba
138.66666666666666,0.2250056251406285,55,89,Marimba
138.66666666666666,0.2250056251406285,58,89,Marimba
138.66666666666666,0.2250056251406285,60,117,Marimba
138.66666666666666,0.0,35,111,Marimba
139.0,0.46001686728513375,32,121,Marimba
139.0,0.11500421682128344,60,92,Marimba
139.0,0.11500421682128344,58,92,Marimba
139.0,0.11500421682128344,63,92,Marimba
139.0,0.11500421682128344,67,92,Marimba
139.0,0.0,53,61,Marimba
139.0,0.0,42,61,Marimba
139.0,0.0,36,61,Marimba
139.0,0.0,28,61,Marimba
139.66666666666666,0.11500421682128344,72,120,Marimba
139.66666666666666,0.11500421682128344,75,120,Marimba
139.66666666666666,0.11500421682128344,80,120,Marimba
139.66666666666666,0.11500421682128344,79,120,Marimba
139.66666666666666,0.11500421682128344,84,120,Marimba
139.66666666666666,0.3450126504638503,48,97,Marimba
139.66666666666666,0.3450126504638503,51,97,Marimba
139.66666666666666,0.3450126504638503,55,97,Marimba
139.66666666666666,0.3450126504638503,58,97,Marimba
139.66666666666666,0.3450126504638503,63,111,Marimba
139.66666666666666,0.0,40,84,Marimba
140.0,0.450011250281257,27,112,Marimba
140.0,0.30000750018750466,67,111,Marimba
140.0,0.30000750018750466,60,111,Marimba
140.0,0.30000750018750466,58,111,Marimba
140.0,0.30000750018750466,63,111,Marimba
140.0,0.0,53,80,Marimba
140.0,0.0,42,80,Marimba
140.0,0.0,28,80,Marimba
140.66666666666666,1.5750393759843995,68,120,Marimba
140.66666666666666,1.5750393759843995,72,120,Marimba
140.66666666666666,1.5750393759843995,80,120,Marimba
140.66666666666666,1.5750393759843995,75,120,Marimba
140.66666666666666,1.5750393759843995,77,120,Marimba
140.66666666666666,0.11250281257031425,48,82,Marimba
140.66666666666666,0.11250281257031425,51,82,Marimba
140.66666666666666,0.11250281257031425,55,82,Marimba
140.66666666666666,0.11250281257031425,58,82,Marimba
140.66666666666666,0.15000375009375233,63,100,Marimba
141.0,0.46001686728513375,29,122,Marimba
141.0,0.15333895576171125,60,91,Marimba
141.0,0.15333895576171125,51,91,Marimba
141.0,0.15333895576171125,56,91,Marimba
141.0,0.15333895576171125,53,91,Marimba
141.0,0.0,55,79,Marimba
141.0,0.11500421682128344,56,94,Marimba
141.0,0.11500421682128344,63,94,Marimba
141.0,0.11500421682128344,53,94,Marimba
141.0,0.11500421682128344,60,94,Marimba
141.0,1.840067469140535,41,76,Marimba
141.0,0.0,53,86,Marimba
141.0,0.0,42,86,Marimba
141.0,0.0,35,86,Marimba
141.0,0.0,28,86,Marimba
141.33333333333334,0.0,36,31,Marimba
141.33333333333334,0.0,28,31,Marimba
141.66666666666666,0.11500421682128344,53,108,Marimba
142.0,0.450011250281257,29,117,Marimba
142.0,0.2250056251406285,51,112,Marimba
142.0,0.2250056251406285,56,112,Marimba
142.0,0.2250056251406285,53,112,Marimba
142.0,0.2250056251406285,60,112,Marimba
142.0,0.2250056251406285,56,117,Marimba
142.0,0.33750843771094274,53,111,Marimba
142.0,0.33750843771094274,56,111,Marimba
142.0,0.33750843771094274,63,111,Marimba
142.0,0.33750843771094274,60,111,Marimba
142.0,0.0,53,80,Marimba
142.0,0.0,42,80,Marimba
142.0,0.0,40,80,Marimba
142.0,0.0,28,80,Marimba
142.66666666666666,0.15000375009375233,56,80,Marimba
142.66666666666666,0.15000375009375233,51,80,Marimba
142.66666666666666,0.15000375009375233,60,80,Marimba
142.66666666666666,0.15000375009375233,53,80,Marimba
142.66666666666666,0.15000375009375233,60,104,Marimba
142.66666666666666,0.0,35,115,Marimba
143.0,0.3066779115234225,36,114,Marimba
143.0,0.23000843364256687,51,111,Marimba
143.0,0.11500421682128344,53,80,Marimba
143.0,0.11500421682128344,56,80,Marimba
143.0,0.11500421682128344,63,80,Marimba
143.0,0.11500421682128344,60,80,Marimba
143.0,0.0,53,61,Marimba
143.0,0.0,42,61,Marimba
143.0,0.0,36,61,Marimba
143.0,0.0,28,61,Marimba
143.33333333333334,0.0,40,59,Marimba
143.33333333333334,0.0,28,59,Marimba
143.66666666666666,0.46001686728513375,29,112,Marimba
143.66666666666666,0.3066779115234225,51,111,Marimba
143.66666666666666,0.3066779115234225,56,111,Marimba
143.66666666666666,0.3066779115234225,53,111,Marimba
143.66666666666666,0.3066779115234225,60,111,Marimba
143.66666666666666,0.11500421682128344,56,79,Marimba
143.66666666666666,0.0,42,90,Marimba
143.75,0.0,54,45,Marimba
143.75,0.0,54,60,Marimba
144.0,0.30000750018750466,60,108,Marimba
144.0,0.33750843771094274,63,110,Marimba
144.0,0.33750843771094274,53,110,Marimba
144.0,0.33750843771094274,56,110,Marimba
144.0,0.33750843771094274,60,110,Marimba
144.0,0.0,54,75,Marimba
144.0,0.0,53,84,Marimba
144.0,0.0,46,84,Marimba
144.0,0.0,54,84,Marimba
144.0,0.0,35,84,Marimba
144.0,0.0,40,84,Marimba
144.0,0.0,28,84,Marimba
144.0,0.0,54,75,Marimba
144.25,0.0,54,60,Marimba
144.25,0.0,54,36,Marimba
144.25,0.0,36,36,Marimba
144.66666666666666,0.15000375009375233,29,111,Marimba
144.66666666666666,0.11250281257031425,56,84,Marimba
144.66666666666666,0.11250281257031425,53,84,Marimba
144.66666666666666,0.11250281257031425,51,84,Marimba
144.66666666666666,0.11250281257031425,60,84,Marimba
144.66666666666666,0.0,41,87,Marimba
144.66666666666666,0.0,40,87,Marimba
145.0,0.5625140628515712,34,122,Marimba
145.0,0.33750843771094274,61,120,Marimba
145.0,0.33750843771094274,73,120,Marimba
145.0,0.2250056251406285,56,91,Marimba
145.0,0.2250056251406285,60,91,Marimba
145.0,0.2250056251406285,53,91,Marimba
145.0,0.2250056251406285,49,91,Marimba
145.0,0.15000375009375233,56,93,Marimba
145.0,0.15000375009375233,61,93,Marimba
145.0,0.15000375009375233,53,93,Marimba
145.0,1.800045001125028,34,74,Marimba
145.0,0.11250281257031425,56,95,Marimba
145.0,0.11250281257031425,61,95,Marimba
145.0,0.11250281257031425,53,95,Marimba
145.0,0.11250281257031425,58,95,Marimba
145.0,0.0,42,87,Marimba
145.0,0.0,35,87,Marimba
145.0,0.0,28,87,Marimba
145.33333333333334,0.0,36,28,Marimba
145.66666666666666,0.0,28,34,Marimba
146.0,0.3066779115234225,60,120,Marimba
146.0,0.3066779115234225,72,120,Marimba
146.0,0.23000843364256687,49,109,Marimba
146.0,0.23000843364256687,56,109,Marimba
146.0,0.23000843364256687,53,109,Marimba
146.0,0.23000843364256687,60,109,Marimba
146.0,0.3450126504638503,53,115,Marimba
146.0,0.3450126504638503,56,115,Marimba
146.0,0.3450126504638503,61,115,Marimba
146.0,0.3450126504638503,56,112,Marimba
146.0,0.3450126504638503,61,112,Marimba
146.0,0.3450126504638503,53,112,Marimba
146.0,0.3450126504638503,58,112,Marimba
146.0,0.0,42,77,Marimba
146.0,0.0,40,77,Marimba
146.0,0.0,28,77,Marimba
146.66666666666666,0.3450126504638503,36,120,Marimba
146.66666666666666,0.3066779115234225,61,120,Marimba
146.66666666666666,0.3066779115234225,73,120,Marimba
146.66666666666666,0.23000843364256687,49,100,Marimba
146.66666666666666,0.23000843364256687,56,100,Marimba
146.66666666666666,0.23000843364256687,53,100,Marimba
146.66666666666666,0.23000843364256687,60,100,Marimba
146.66666666666666,0.0,35,117,Marimba
147.0,0.11250281257031425,56,87,Marimba
147.0,0.11250281257031425,53,87,Marimba
147.0,0.11250281257031425,61,87,Marimba
147.0,0.11250281257031425,56,80,Marimba
147.0,0.11250281257031425,58,80,Marimba
147.0,0.11250281257031425,53,80,Marimba
147.0,0.11250281257031425,61,80,Marimba
147.0,0.0,42,58,Marimba
147.0,0.0,36,58,Marimba
147.0,0.0,28,58,Marimba
147.66666666666666,0.11250281257031425,37,90,Marimba
147.66666666666666,0.11250281257031425,65,120,Marimba
147.66666666666666,0.11250281257031425,77,120,Marimba
147.66666666666666,0.33750843771094274,49,100,Marimba
147.66666666666666,0.33750843771094274,56,100,Marimba
147.66666666666666,0.33750843771094274,53,100,Marimba
147.66666666666666,0.33750843771094274,60,100,Marimba
147.66666666666666,0.0,42,79,Marimba
147.66666666666666,0.0,40,79,Marimba
148.0,0.3450126504638503,41,111,Marimba
148.0,0.3066779115234225,72,120,Marimba
148.0,0.3066779115234225,84,120,Marimba
148.0,0.46001686728513375,56,114,Marimba
148.0,0.46001686728513375,53,114,Marimba
148.0,0.46001686728513375,61,114,Marimba
148.0,0.3450126504638503,56,110,Marimba
148.0,0.3450126504638503,53,110,Marimba
148.0,0.3450126504638503,58,110,Marimba
148.0,0.3450126504638503,61,110,Marimba
148.0,0.0,42,72,Marimba
148.0,0.0,28,72,Marimba
148.66666666666666,0.11500421682128344,40,104,Marimba
148.66666666666666,0.46001686728513375,70,120,Marimba
148.66666666666666,0.46001686728513375,82,120,Marimba
148.66666666666666,0.11500421682128344,56,83,Marimba
148.66666666666666,0.11500421682128344,49,83,Marimba
148.66666666666666,0.11500421682128344,53,83,Marimba
148.66666666666666,0.11500421682128344,60,83,Marimba
148.66666666666666,0.0,28,34,Marimba
149.0,0.450011250281257,39,90,Marimba
149.0,0.2250056251406285,58,98,Marimba
149.0,0.2250056251406285,55,98,Marimba
149.0,0.2250056251406285,49,98,Marimba
149.0,0.2250056251406285,53,98,Marimba
149.0,0.11250281257031425,63,97,Marimba
149.0,0.11250281257031425,58,97,Marimba
149.0,0.11250281257031425,55,97,Marimba
149.0,0.11250281257031425,55,89,Marimba
149.0,0.11250281257031425,58,89,Marimba
149.0,0.11250281257031425,61,89,Marimba
149.0,0.11250281257031425,65,89,Marimba
149.0,1.800045001125028,39,76,Marimba
149.0,0.0,42,114,Marimba
149.0,0.0,35,114,Marimba
149.33333333333334,0.0,36,28,Marimba
149.66666666666666,0.0,28,34,Marimba
150.0,0.3066779115234225,34,120,Marimba
150.0,0.3450126504638503,67,120,Marimba
150.0,0.3450126504638503,79,120,Marimba
150.0,0.23000843364256687,49,105,Marimba
150.0,0.23000843364256687,55,105,Marimba
150.0,0.23000843364256687,53,105,Marimba
150.0,0.23000843364256687,58,105,Marimba
150.0,0.3450126504638503,55,109,Marimba
150.0,0.3450126504638503,63,109,Marimba
150.0,0.3450126504638503,58,109,Marimba
150.0,0.3450126504638503,55,104,Marimba
150.0,0.3450126504638503,58,104,Marimba
150.0,0.3450126504638503,61,104,Marimba
150.0,0.3450126504638503,65,104,Marimba
150.0,0.0,42,100,Marimba
150.0,0.0,40,100,Marimba
150.33333333333334,0.0,28,34,Marimba
150.66666666666666,0.46001686728513375,27,112,Marimba
150.66666666666666,0.23000843364256687,49,80,Marimba
150.66666666666666,0.23000843364256687,58,80,Marimba
150.66666666666666,0.23000843364256687,55,80,Marimba
150.66666666666666,0.23000843364256687,53,80,Marimba
151.0,0.33750843771094274,65,120,Marimba
151.0,0.33750843771094274,77,120,Marimba
151.0,0.11250281257031425,63,94,Marimba
151.0,0.11250281257031425,58,94,Marimba
151.0,0.11250281257031425,55,94,Marimba
151.0,0.11250281257031425,61,79,Marimba
151.0,0.11250281257031425,55,79,Marimba
151.0,0.11250281257031425,58,79,Marimba
151.0,0.11250281257031425,65,79,Marimba
151.0,0.0,42,87,Marimba
151.0,0.0,35,87,Marimba
151.0,0.0,28,87,Marimba
151.33333333333334,0.0,36,28,Marimba
151.66666666666666,0.11250281257031425,29,75,Marimba
151.66666666666666,0.15000375009375233,49,102,Marimba
151.66666666666666,0.15000375009375233,53,102,Marimba
151.66666666666666,0.15000375009375233,55,102,Marimba
151.66666666666666,0.15000375009375233,58,102,Marimba
151.66666666666666,0.0,42,72,Marimba
151.75,0.0,54,45,Marimba
151.75,0.0,54,60,Marimba
152.0,0.3450126504638503,27,104,Marimba
152.0,0.3450126504638503,67,120,Marimba
152.0,0.3450126504638503,79,120,Marimba
152.0,0.3450126504638503,55,113,Marimba
152.0,0.3450126504638503,58,113,Marimba
152.0,0.3450126504638503,63,113,Marimba
152.0,0.3450126504638503,58,104,Marimba
152.0,0.3450126504638503,61,104,Marimba
152.0,0.3450126504638503,55,104,Marimba
152.0,0.3450126504638503,65,104,Marimba
152.0,0.0,54,75,Marimba
152.0,0.0,46,78,Marimba
152.0,0.0,54,78,Marimba
152.0,0.0,40,78,Marimba
152.0,0.0,28,78,Marimba
152.0,0.0,54,75,Marimba
152.25,0.0,54,60,Marimba
152.25,0.0,54,45,Marimba
152.33333333333334,0.11500421682128344,53,76,Marimba
152.33333333333334,0.11500421682128344,55,76,Marimba
152.33333333333334,0.11500421682128344,58,76,Marimba
152.33333333333334,0.11500421682128344,49,76,Marimba
152.66666666666666,0.11500421682128344,55,81,Marimba
152.66666666666666,0.11500421682128344,53,81,Marimba
152.66666666666666,0.11500421682128344,49,81,Marimba
152.66666666666666,0.11500421682128344,58,81,Marimba
152.66666666666666,0.0,35,59,Marimba
152.66666666666666,0.0,28,59,Marimba
153.0,0.450011250281257,36,122,Marimba
153.0,0.33750843771094274,63,120,Marimba
153.0,0.33750843771094274,75,120,Marimba
153.0,0.2250056251406285,58,91,Marimba
153.0,0.2250056251406285,55,91,Marimba
153.0,0.2250056251406285,51,91,Marimba
153.0,0.2250056251406285,48,91,Marimba
153.0,0.11250281257031425,56,76,Marimba
153.0,0.11250281257031425,63,88,Marimba
153.0,0.11250281257031425,55,88,Marimba
153.0,0.11250281257031425,58,88,Marimba
153.0,1.800045001125028,36,86,Marimba
153.0,0.11250281257031425,60,87,Marimba
153.0,0.11250281257031425,63,87,Marimba
153.0,0.11250281257031425,55,87,Marimba
153.0,0.11250281257031425,58,87,Marimba
153.0,0.0,42,69,Marimba
153.0,0.0,36,69,Marimba
153.0,0.0,35,69,Marimba
153.0,0.0,28,69,Marimba
153.33333333333334,0.0,36,28,Marimba
153.66666666666666,0.11250281257031425,63,107,Marimba
154.0,0.15333895576171125,75,116,Marimba
154.0,0.23000843364256687,62,120,Marimba
154.0,0.23000843364256687,74,120,Marimba
154.0,0.3066779115234225,48,109,Marimba
154.0,0.3066779115234225,51,109,Marimba
154.0,0.3066779115234225,55,109,Marimba
154.0,0.3066779115234225,58,109,Marimba
154.0,0.3450126504638503,55,112,Marimba
154.0,0.3450126504638503,63,112,Marimba
154.0,0.3450126504638503,58,112,Marimba
154.0,0.3450126504638503,55,106,Marimba
154.0,0.3450126504638503,60,106,Marimba
154.0,0.3450126504638503,58,106,Marimba
154.0,0.3450126504638503,63,106,Marimba
154.0,0.0,42,79,Marimba
154.0,0.0,40,79,Marimba
154.0,0.0,28,79,Marimba
154.66666666666666,0.11500421682128344,63,107,Marimba
154.66666666666666,0.46001686728513375,36,122,Marimba
154.66666666666666,0.3450126504638503,63,120,Marimba
154.66666666666666,0.3450126504638503,75,120,Marimba
154.66666666666666,0.23000843364256687,48,94,Marimba
154.66666666666666,0.23000843364256687,55,94,Marimba
154.66666666666666,0.23000843364256687,51,94,Marimba
154.66666666666666,0.23000843364256687,58,94,Marimba
154.66666666666666,0.0,35,111,Marimba
155.0,0.2250056251406285,70,112,Marimba
155.0,0.11250281257031425,55,95,Marimba
155.0,0.11250281257031425,58,95,Marimba
155.0,0.11250281257031425,63,95,Marimba
155.0,0.11250281257031425,55,94,Marimba
155.0,0.11250281257031425,60,94,Marimba
155.0,0.11250281257031425,58,94,Marimba
155.0,0.11250281257031425,63,94,Marimba
155.0,0.0,42,58,Marimba
155.0,0.0,36,58,Marimba
155.0,0.0,28,58,Marimba
155.33333333333334,0.0,28,34,Marimba
155.66666666666666,0.11250281257031425,72,107,Marimba
155.66666666666666,0.11250281257031425,39,104,Marimba
155.66666666666666,0.11250281257031425,67,120,Marimba
155.66666666666666,0.11250281257031425,79,120,Marimba
155.66666666666666,0.11250281257031425,48,97,Marimba
155.66666666666666,0.11250281257031425,51,97,Marimba
155.66666666666666,0.11250281257031425,55,97,Marimba
155.66666666666666,0.11250281257031425,58,97,Marimba
155.66666666666666,0.0,40,99,Marimba
156.0,0.33750843771094274,43,111,Marimba
156.0,0.33750843771094274,75,120,Marimba
156.0,0.33750843771094274,87,120,Marimba
156.0,0.2250056251406285,58,85,Marimba
156.0,0.2250056251406285,51,85,Marimba
156.0,0.2250056251406285,48,85,Marimba
156.0,0.2250056251406285,55,85,Marimba
156.0,0.33750843771094274,55,110,Marimba
156.0,0.33750843771094274,63,110,Marimba
156.0,0.33750843771094274,58,110,Marimba
156.0,0.33750843771094274,60,107,Marimba
156.0,0.33750843771094274,63,107,Marimba
156.0,0.33750843771094274,55,107,Marimba
156.0,0.2250056251406285,58,114,Marimba
156.0,0.0,42,76,Marimba
156.0,0.0,28,76,Marimba
156.66666666666666,0.11250281257031425,63,97,Marimba
156.66666666666666,0.11250281257031425,42,104,Marimba
156.66666666666666,0.11250281257031425,55,64,Marimba
156.66666666666666,0.11250281257031425,51,64,Marimba
156.66666666666666,0.11250281257031425,48,64,Marimba
156.66666666666666,0.11250281257031425,58,64,Marimba
156.66666666666666,0.0,28,34,Marimba
157.0,0.23000843364256687,75,116,Marimba
157.0,0.46001686728513375,41,98,Marimba
157.0,0.3450126504638503,73,120,Marimba
157.0,0.3450126504638503,85,120,Marimba
157.0,0.23000843364256687,57,88,Marimba
157.0,0.23000843364256687,51,88,Marimba
157.0,0.23000843364256687,60,88,Marimba
157.0,0.23000843364256687,53,88,Marimba
157.0,0.11500421682128344,60,97,Marimba
157.0,0.11500421682128344,57,97,Marimba
157.0,0.11500421682128344,65,97,Marimba
157.0,0.11500421682128344,60,98,Marimba
157.0,0.11500421682128344,57,98,Marimba
157.0,0.11500421682128344,55,98,Marimba
157.0,0.11500421682128344,65,98,Marimba
157.0,1.840067469140535,41,76,Marimba
157.0,0.0,42,110,Marimba
157.0,0.0,35,110,Marimba
157.33333333333334,0.0,36,31,Marimba
157.33333333333334,0.0,28,31,Marimba
157.66666666666666,0.11500421682128344,63,97,Marimba
158.0,0.2250056251406285,72,124,Marimba
158.0,0.2250056251406285,36,121,Marimba
158.0,0.33750843771094274,72,120,Marimba
158.0,0.33750843771094274,84,120,Marimba
158.0,0.2250056251406285,57,109,Marimba
158.0,0.2250056251406285,53,109,Marimba
158.0,0.2250056251406285,60,109,Marimba
158.0,0.2250056251406285,51,109,Marimba
158.0,0.33750843771094274,60,110,Marimba
158.0,0.33750843771094274,57,110,Marimba
158.0,0.33750843771094274,65,110,Marimba
158.0,0.33750843771094274,60,107,Marimba
158.0,0.33750843771094274,55,107,Marimba
158.0,0.33750843771094274,57,107,Marimba
158.0,0.33750843771094274,65,107,Marimba
158.0,0.0,42,102,Marimba
158.0,0.0,40,102,Marimba
158.33333333333334,0.0,28,34,Marimba
158.66666666666666,0.11250281257031425,70,120,Marimba
158.66666666666666,0.450011250281257,29,112,Marimba
158.66666666666666,0.15000375009375233,51,93,Marimba
158.66666666666666,0.15000375009375233,53,93,Marimba
158.66666666666666,0.15000375009375233,60,93,Marimba
158.66666666666666,0.15000375009375233,57,93,Marimba
158.66666666666666,0.0,38,88,Marimba
158.66666666666666,0.0,35,88,Marimba
159.0,0.3066779115234225,70,120,Marimba
159.0,0.3066779115234225,82,120,Marimba
159.0,0.11500421682128344,60,83,Marimba
159.0,0.11500421682128344,57,83,Marimba
159.0,0.11500421682128344,65,83,Marimba
159.0,0.11500421682128344,60,86,Marimba
159.0,0.11500421682128344,55,86,Marimba
159.0,0.11500421682128344,57,86,Marimba
159.0,0.11500421682128344,65,86,Marimba
159.0,0.0,42,52,Marimba
159.0,0.0,36,52,Marimba
159.0,0.0,28,52,Marimba
159.33333333333334,0.0,40,82,Marimba
159.33333333333334,0.0,38,82,Marimba
159.66666666666666,0.15333895576171125,63,116,Marimba
159.66666666666666,0.15333895576171125,31,90,Marimba
159.66666666666666,0.46001686728513375,72,120,Marimba
159.66666666666666,0.46001686728513375,84,120,Marimba
159.66666666666666,0.3450126504638503,51,100,Marimba
159.66666666666666,0.3450126504638503,57,100,Marimba
159.66666666666666,0.3450126504638503,53,100,Marimba
159.66666666666666,0.3450126504638503,60,100,Marimba
159.66666666666666,0.0,42,81,Marimba
159.66666666666666,0.0,38,81,Marimba
159.75,0.0,54,45,Marimba
159.75,0.0,54,60,Marimba
160.0,0.33750843771094274,29,114,Marimba
160.0,0.33750843771094274,57,116,Marimba
160.0,0.33750843771094274,60,116,Marimba
160.0,0.30000750018750466,65,100,Marimba
160.0,0.33750843771094274,60,113,Marimba
160.0,0.33750843771094274,57,113,Marimba
160.0,0.33750843771094274,55,113,Marimba
160.0,0.30000750018750466,65,70,Marimba
160.0,0.0,54,75,Marimba
160.0,0.0,41,91,Marimba
160.0,0.0,42,91,Marimba
160.0,0.0,54,91,Marimba
160.0,0.0,35,91,Marimba
160.0,0.0,28,91,Marimba
160.25,0.0,54,75,Marimba
160.25,0.0,54,60,Marimba
160.33333333333334,0.0,54,36,Marimba
160.33333333333334,0.0,36,36,Marimba
160.66666666666666,0.11250281257031425,57,92,Marimba
160.66666666666666,0.11250281257031425,51,92,Marimba
160.66666666666666,0.11250281257031425,53,92,Marimba
160.66666666666666,0.11250281257031425,60,92,Marimba
160.66666666666666,0.0,42,71,Marimba
160.66666666666666,0.0,40,71,Marimba
160.66666666666666,0.0,28,71,Marimba
161.0,0.46001686728513375,34,122,Marimba
161.0,0.3450126504638503,72,120,Marimba
161.0,0.3450126504638503,84,120,Marimba
161.0,0.23000843364256687,49,94,Marimba
161.0,0.23000843364256687,53,94,Marimba
161.0,0.23000843364256687,56,94,Marimba
161.0,0.23000843364256687,60,94,Marimba
161.0,0.11500421682128344,53,97,Marimba
161.0,0.11500421682128344,61,97,Marimba
161.0,0.11500421682128344,56,97,Marimba
161.0,0.11500421682128344,56,96,Marimba
161.0,0.11500421682128344,61,96,Marimba
161.0,0.11500421682128344,53,96,Marimba
161.0,0.11500421682128344,58,96,Marimba
161.0,1.840067469140535,34,81,Marimba
161.0,0.0,42,108,Marimba
161.0,0.0,35,108,Marimba
161.33333333333334,0.0,36,31,Marimba
161.33333333333334,0.0,28,31,Marimba
162.0,0.450011250281257,36,121,Marimba
162.0,0.30000750018750466,65,120,Marimba
162.0,0.30000750018750466,77,120,Marimba
162.0,0.2250056251406285,49,110,Marimba
162.0,0.2250056251406285,56,110,Marimba
162.0,0.2250056251406285,53,110,Marimba
162.0,0.2250056251406285,60,110,Marimba
162.0,0.33750843771094274,53,114,Marimba
162.0,0.33750843771094274,61,114,Marimba
162.0,0.33750843771094274,56,114,Marimba
162.0,0.33750843771094274,61,108,Marimba
162.0,0.33750843771094274,53,108,Marimba
162.0,0.33750843771094274,56,108,Marimba
162.0,0.33750843771094274,58,108,Marimba
162.0,0.0,42,98,Marimba
162.0,0.0,40,98,Marimba
162.33333333333334,0.0,28,34,Marimba
162.66666666666666,0.450011250281257,68,120,Marimba
162.66666666666666,0.450011250281257,80,120,Marimba
162.66666666666666,0.11250281257031425,56,79,Marimba
162.66666666666666,0.11250281257031425,49,79,Marimba
162.66666666666666,0.11250281257031425,53,79,Marimba
162.66666666666666,0.11250281257031425,60,79,Marimba
162.66666666666666,0.0,35,117,Marimba
163.0,0.3450126504638503,37,111,Marimba
163.0,0.15333895576171125,56,78,Marimba
163.0,0.15333895576171125,60,78,Marimba
163.0,0.15333895576171125,53,78,Marimba
163.0,0.15333895576171125,49,78,Marimba
163.0,0.11500421682128344,56,83,Marimba
163.0,0.11500421682128344,61,83,Marimba
163.0,0.11500421682128344,53,83,Marimba
163.0,0.11500421682128344,58,82,Marimba
163.0,0.11500421682128344,56,82,Marimba
163.0,0.11500421682128344,61,82,Marimba
163.0,0.11500421682128344,53,82,Marimba
163.0,0.0,42,54,Marimba
163.0,0.0,36,54,Marimba
163.0,0.0,28,54,Marimba
163.66666666666666,0.3066779115234225,49,109,Marimba
163.66666666666666,0.3066779115234225,56,109,Marimba
163.66666666666666,0.3066779115234225,53,109,Marimba
163.66666666666666,0.3066779115234225,60,109,Marimba
163.66666666666666,0.0,42,87,Marimba
163.66666666666666,0.0,40,87,Marimba
164.0,0.30000750018750466,29,111,Marimba
164.0,0.30000750018750466,65,120,Marimba
164.0,0.30000750018750466,77,120,Marimba
164.0,0.33750843771094274,53,108,Marimba
164.0,0.33750843771094274,61,108,Marimba
164.0,0.33750843771094274,56,108,Marimba
164.0,0.33750843771094274,61,112,Marimba
164.0,0.33750843771094274,56,112,Marimba
164.0,0.33750843771094274,58,112,Marimba
164.0,0.33750843771094274,53,112,Marimba
164.0,0.33750843771094274,56,112,Marimba
164.0,0.33750843771094274,58,112,Marimba
164.0,0.0,42,64,Marimba
164.0,0.0,28,64,Marimba
164.66666666666666,0.11250281257031425,28,104,Marimba
164.66666666666666,0.5625140628515712,72,120,Marimba
164.66666666666666,0.5625140628515712,84,120,Marimba
164.66666666666666,0.11250281257031425,56,82,Marimba
164.66666666666666,0.11250281257031425,49,82,Marimba
164.66666666666666,0.11250281257031425,53,82,Marimba
164.66666666666666,0.11250281257031425,60,82,Marimba
165.0,0.46001686728513375,27,112,Marimba
165.0,0.15333895576171125,55,93,Marimba
165.0,0.15333895576171125,58,93,Marimba
165.0,0.15333895576171125,51,93,Marimba
165.0,0.15333895576171125,49,93,Marimba
165.0,0.11500421682128344,63,101,Marimba
165.0,0.11500421682128344,58,101,Marimba
165.0,0.11500421682128344,55,98,Marimba
165.0,0.11500421682128344,58,98,Marimba
165.0,1.840067469140535,39,68,Marimba
165.0,0.11500421682128344,58,95,Marimba
165.0,0.11500421682128344,55,95,Marimba
165.0,0.11500421682128344,65,95,Marimba
165.0,0.11500421682128344,61,95,Marimba
165.0,0.0,42,114,Marimba
165.0,0.0,35,114,Marimba
165.33333333333334,0.0,36,31,Marimba
165.33333333333334,0.0,28,31,Marimba
166.0,0.450011250281257,29,122,Marimba
166.0,0.33750843771094274,65,120,Marimba
166.0,0.33750843771094274,77,120,Marimba
166.0,0.2250056251406285,49,105,Marimba
166.0,0.2250056251406285,51,105,Marimba
166.0,0.2250056251406285,55,105,Marimba
166.0,0.2250056251406285,58,105,Marimba
166.0,0.33750843771094274,55,113,Marimba
166.0,0.33750843771094274,63,113,Marimba
166.0,0.33750843771094274,58,113,Marimba
166.0,0.33750843771094274,55,105,Marimba
166.0,0.33750843771094274,61,105,Marimba
166.0,0.33750843771094274,58,105,Marimba
166.0,0.33750843771094274,65,105,Marimba
166.0,0.0,42,100,Marimba
166.0,0.0,40,100,Marimba
166.33333333333334,0.0,28,34,Marimba
166.66666666666666,0.11250281257031425,51,77,Marimba
166.66666666666666,0.11250281257031425,49,77,Marimba
166.66666666666666,0.11250281257031425,55,77,Marimba
166.66666666666666,0.11250281257031425,58,77,Marimba
167.0,0.46001686728513375,31,121,Marimba
167.0,0.3066779115234225,68,120,Marimba
167.0,0.3066779115234225,80,120,Marimba
167.0,0.15333895576171125,58,72,Marimba
167.0,0.15333895576171125,55,72,Marimba
167.0,0.15333895576171125,51,72,Marimba
167.0,0.15333895576171125,49,72,Marimba
167.0,0.11500421682128344,55,99,Marimba
167.0,0.11500421682128344,58,99,Marimba
167.0,0.11500421682128344,63,99,Marimba
167.0,0.11500421682128344,58,73,Marimba
167.0,0.11500421682128344,61,73,Marimba
167.0,0.11500421682128344,55,73,Marimba
167.0,0.11500421682128344,65,73,Marimba
167.0,0.0,42,88,Marimba
167.0,0.0,35,88,Marimba
167.0,0.0,28,88,Marimba
167.33333333333334,0.0,36,28,Marimba
167.66666666666666,0.15333895576171125,65,120,Marimba
167.66666666666666,0.15333895576171125,77,120,Marimba
167.66666666666666,0.3066779115234225,49,107,Marimba
167.66666666666666,0.3066779115234225,58,107,Marimba
167.66666666666666,0.3066779115234225,55,107,Marimba
167.66666666666666,0.3066779115234225,51,107,Marimba
167.75,0.0,54,45,Marimba
167.75,0.0,54,60,Marimba
168.0,0.450011250281257,27,114,Marimba
168.0,0.33750843771094274,55,113,Marimba
168.0,0.33750843771094274,58,113,Marimba
168.0,0.33750843771094274,63,113,Marimba
168.0,0.33750843771094274,55,106,Marimba
168.0,0.33750843771094274,58,106,Marimba
168.0,0.33750843771094274,61,101,Marimba
168.0,0.33750843771094274,58,101,Marimba
168.0,0.33750843771094274,65,101,Marimba
168.0,0.0,54,75,Marimba
168.0,0.0,46,78,Marimba
168.0,0.0,54,78,Marimba
168.0,0.0,40,78,Marimba
168.0,0.0,28,78,Marimba
168.0,0.0,54,75,Marimba
168.25,0.0,54,60,Marimba
168.25,0.0,54,45,Marimba
168.66666666666666,1.4625365634140852,68,120,Marimba
168.66666666666666,1.4625365634140852,80,120,Marimba
168.66666666666666,0.11250281257031425,49,88,Marimba
168.66666666666666,0.11250281257031425,51,88,Marimba
168.66666666666666,0.11250281257031425,55,88,Marimba
168.66666666666666,0.11250281257031425,58,88,Marimba
168.66666666666666,0.0,35,84,Marimba
169.0,0.3066779115234225,32,121,Marimba
169.0,0.15333895576171125,53,101,Marimba
169.0,0.15333895576171125,56,101,Marimba
169.0,0.15333895576171125,51,101,Marimba
169.0,0.15333895576171125,60,101,Marimba
169.0,0.11500421682128344,51,104,Marimba
169.0,0.11500421682128344,56,104,Marimba
169.0,0.11500421682128344,60,104,Marimba
169.0,0.11500421682128344,60,95,Marimba
169.0,0.11500421682128344,58,95,Marimba
169.0,0.11500421682128344,67,95,Marimba
169.0,0.11500421682128344,63,95,Marimba
169.0,3.68013493828107,44,83,Marimba
169.0,0.0,42,85,Marimba
169.0,0.0,36,85,Marimba
169.0,0.0,35,85,Marimba
169.33333333333334,0.0,28,31,Marimba
169.33333333333334,0.0,36,31,Marimba
169.66666666666666,0.15333895576171125,27,81,Marimba
170.0,0.30000750018750466,32,121,Marimba
170.0,0.2250056251406285,51,108,Marimba
170.0,0.2250056251406285,53,108,Marimba
170.0,0.2250056251406285,56,108,Marimba
170.0,0.2250056251406285,60,108,Marimba
170.0,0.33750843771094274,60,109,Marimba
170.0,0.33750843771094274,51,109,Marimba
170.0,0.33750843771094274,56,109,Marimba
170.0,0.33750843771094274,58,106,Marimba
170.0,0.33750843771094274,60,106,Marimba
170.0,0.33750843771094274,63,106,Marimba
170.0,0.33750843771094274,67,106,Marimba
170.0,0.0,42,79,Marimba
170.0,0.0,40,79,Marimba
170.0,0.0,28,79,Marimba
170.66666666666666,0.30000750018750466,31,111,Marimba
170.66666666666666,0.11250281257031425,56,77,Marimba
170.66666666666666,0.11250281257031425,51,77,Marimba
170.66666666666666,0.11250281257031425,55,77,Marimba
170.66666666666666,0.11250281257031425,60,77,Marimba
170.66666666666666,0.0,35,111,Marimba
171.0,0.11250281257031425,60,78,Marimba
171.0,0.11250281257031425,56,78,Marimba
171.0,0.11250281257031425,51,78,Marimba
171.0,0.11250281257031425,55,78,Marimba
171.0,0.11250281257031425,60,93,Marimba
171.0,0.11250281257031425,51,93,Marimba
171.0,0.11250281257031425,56,93,Marimba
171.0,0.11250281257031425,60,84,Marimba
171.0,0.11250281257031425,63,84,Marimba
171.0,0.11250281257031425,58,84,Marimba
171.0,0.11250281257031425,67,84,Marimba
171.0,0.0,42,55,Marimba
171.0,0.0,36,55,Marimba
171.0,0.0,28,55,Marimba
171.66666666666666,0.15000375009375233,30,98,Marimba
171.66666666666666,0.33750843771094274,56,102,Marimba
171.66666666666666,0.33750843771094274,60,102,Marimba
171.66666666666666,0.33750843771094274,55,102,Marimba
171.66666666666666,0.33750843771094274,51,102,Marimba
171.66666666666666,0.0,40,84,Marimba
172.0,0.3066779115234225,29,114,Marimba
172.0,0.3066779115234225,51,115,Marimba
172.0,0.3066779115234225,60,115,Marimba
172.0,0.3066779115234225,56,115,Marimba
172.0,0.3450126504638503,58,103,Marimba
172.0,0.3450126504638503,63,103,Marimba
172.0,0.3450126504638503,60,103,Marimba
172.0,0.3066779115234225,67,93,Marimba
172.0,0.0,42,77,Marimba
172.0,0.0,28,77,Marimba
172.66666666666666,0.15333895576171125,28,86,Marimba
172.66666666666666,0.11500421682128344,56,92,Marimba
172.66666666666666,0.11500421682128344,55,92,Marimba
172.66666666666666,0.11500421682128344,51,92,Marimba
172.66666666666666,0.11500421682128344,60,92,Marimba
173.0,0.30000750018750466,31,122,Marimba
173.0,0.2250056251406285,57,111,Marimba
173.0,0.2250056251406285,60,111,Marimba
173.0,0.2250056251406285,65,111,Marimba
173.0,0.2250056251406285,62,111,Marimba
173.0,0.11250281257031425,65,105,Marimba
173.0,0.11250281257031425,60,105,Marimba
173.0,0.11250281257031425,57,105,Marimba
173.0,0.30000750018750466,43,98,Marimba
173.0,0.30000750018750466,60,98,Marimba
173.0,0.30000750018750466,62,98,Marimba
173.0,0.30000750018750466,65,98,Marimba
173.0,0.30000750018750466,69,98,Marimba
173.0,0.0,42,86,Marimba
173.0,0.0,35,86,Marimba
173.0,0.0,28,86,Marimba
173.33333333333334,0.0,36,31,Marimba
173.33333333333334,0.0,28,31,Marimba
174.0,0.3450126504638503,31,121,Marimba
174.0,0.3066779115234225,57,119,Marimba
174.0,0.3066779115234225,60,119,Marimba
174.0,0.3066779115234225,62,119,Marimba
174.0,0.3066779115234225,65,119,Marimba
174.0,0.15333895576171125,57,116,Marimba
174.0,0.15333895576171125,60,116,Marimba
174.0,0.15333895576171125,65,116,Marimba
174.0,0.11500421682128344,60,107,Marimba
174.0,0.11500421682128344,65,107,Marimba
174.0,0.11500421682128344,62,107,Marimba
174.0,0.11500421682128344,69,107,Marimba
174.0,0.11500421682128344,43,107,Marimba
174.0,0.0,42,78,Marimba
174.0,0.0,40,78,Marimba
174.0,0.0,28,78,Marimba
174.66666666666666,0.0,35,115,Marimba
175.0,0.0,42,52,Marimba
175.0,0.0,36,52,Marimba
175.0,0.0,28,52,Marimba
175.33333333333334,0.0,40,59,Marimba
175.33333333333334,0.0,28,59,Marimba
175.66666666666666,0.5625140628515712,31,124,Marimba
175.66666666666666,0.450011250281257,57,118,Marimba
175.66666666666666,0.450011250281257,60,118,Marimba
175.66666666666666,0.450011250281257,62,118,Marimba
175.66666666666666,0.450011250281257,65,118,Marimba
175.66666666666666,0.450011250281257,57,119,Marimba
175.66666666666666,0.450011250281257,60,119,Marimba
175.66666666666666,0.450011250281257,65,119,Marimba
175.66666666666666,0.450011250281257,60,111,Marimba
175.66666666666666,0.450011250281257,62,111,Marimba
175.66666666666666,0.450011250281257,65,111,Marimba
175.66666666666666,0.450011250281257,69,111,Marimba
175.66666666666666,0.5625140628515712,43,111,Marimba
175.66666666666666,0.0,42,90,Marimba
175.75,0.0,54,45,Marimba
175.75,0.0,54,60,Marimba
176.0,0.0,54,75,Marimba
176.0,0.0,46,85,Marimba
176.0,0.0,54,85,Marimba
176.0,0.0,35,85,Marimba
176.0,0.0,40,85,Marimba
176.0,0.0,28,85,Marimba
176.25,0.0,54,75,Marimba
176.25,0.0,54,60,Marimba
176.33333333333334,0.0,54,36,Marimba
176.33333333333334,0.0,36,36,Marimba
176.66666666666666,0.0,40,84,Marimba
177.0,0.450011250281257,36,122,Marimba
177.0,0.2250056251406285,55,107,Marimba
177.0,0.2250056251406285,64,107,Marimba
177.0,0.2250056251406285,62,107,Marimba
177.0,0.2250056251406285,52,107,Marimba
177.0,0.11250281257031425,67,76,Marimba
177.0,0.11250281257031425,64,76,Marimba
177.0,0.11250281257031425,62,76,Marimba
177.0,0.11250281257031425,67,97,Marimba
177.0,0.11250281257031425,64,97,Marimba
177.0,0.11250281257031425,62,97,Marimba
177.0,0.0,42,87,Marimba
177.0,0.0,35,87,Marimba
177.0,0.0,28,87,Marimba
177.33333333333334,0.0,36,28,Marimba
177.66666666666666,0.0,28,34,Marimba
178.0,0.33750843771094274,52,118,Marimba
178.0,0.33750843771094274,64,118,Marimba
178.0,0.33750843771094274,55,118,Marimba
178.0,0.33750843771094274,62,118,Marimba
178.0,0.33750843771094274,64,118,Marimba
178.0,0.33750843771094274,67,118,Marimba
178.0,0.33750843771094274,62,118,Marimba
178.0,0.33750843771094274,64,116,Marimba
178.0,0.33750843771094274,67,116,Marimba
178.0,0.33750843771094274,62,116,Marimba
178.0,0.0,42,77,Marimba
178.0,0.0,40,77,Marimba
178.0,0.0,28,77,Marimba
178.66666666666666,0.0,35,117,Marimba
179.0,0.15333895576171125,64,84,Marimba
179.0,0.15333895576171125,52,84,Marimba
179.0,0.15333895576171125,55,84,Marimba
179.0,0.15333895576171125,60,84,Marimba
179.0,0.11500421682128344,64,80,Marimba
179.0,0.11500421682128344,60,80,Marimba
179.0,0.11500421682128344,67,80,Marimba
179.0,0.11500421682128344,60,100,Marimba
179.0,0.11500421682128344,64,100,Marimba
179.0,0.11500421682128344,67,100,Marimba
179.0,0.0,42,58,Marimba
179.0,0.0,36,58,Marimba
179.0,0.0,28,58,Marimba
179.66666666666666,0.0,42,79,Marimba
179.66666666666666,0.0,40,79,Marimba
180.0,0.2250056251406285,64,122,Marimba
180.0,0.450011250281257,55,118,Marimba
180.0,0.450011250281257,64,118,Marimba
180.0,0.450011250281257,60,118,Marimba
180.0,0.450011250281257,52,118,Marimba
180.0,0.33750843771094274,60,115,Marimba
180.0,0.33750843771094274,67,115,Marimba
180.0,0.33750843771094274,64,115,Marimba
180.0,0.33750843771094274,67,112,Marimba
180.0,0.33750843771094274,60,112,Marimba
180.0,0.33750843771094274,64,112,Marimba
180.0,0.0,42,72,Marimba
180.0,0.0,28,72,Marimba
180.66666666666666,0.15000375009375233,31,117,Marimba
180.66666666666666,0.11250281257031425,65,112,Marimba
180.66666666666666,0.0,28,34,Marimba
181.0,0.3066779115234225,36,121,Marimba
181.0,0.3066779115234225,64,122,Marimba
181.0,0.11500421682128344,52,81,Marimba
181.0,0.11500421682128344,55,81,Marimba
181.0,0.11500421682128344,64,81,Marimba
181.0,0.11500421682128344,59,81,Marimba
181.0,0.11500421682128344,59,80,Marimba
181.0,0.11500421682128344,64,80,Marimba
181.0,0.11500421682128344,67,80,Marimba
181.0,0.11500421682128344,59,101,Marimba
181.0,0.11500421682128344,67,101,Marimba
181.0,0.11500421682128344,64,101,Marimba
181.0,0.0,42,114,Marimba
181.0,0.0,35,114,Marimba
181.33333333333334,0.0,36,28,Marimba
181.66666666666666,0.11500421682128344,36,122,Marimba
181.66666666666666,0.11500421682128344,62,122,Marimba
181.66666666666666,0.23000843364256687,52,106,Marimba
181.66666666666666,0.23000843364256687,55,106,Marimba
181.66666666666666,0.23000843364256687,59,106,Marimba
181.66666666666666,0.23000843364256687,64,106,Marimba
181.66666666666666,0.0,28,34,Marimba
182.0,0.33750843771094274,59,112,Marimba
182.0,0.33750843771094274,64,112,Marimba
182.0,0.33750843771094274,67,112,Marimba
182.0,0.33750843771094274,64,112,Marimba
182.0,0.33750843771094274,67,112,Marimba
182.0,0.33750843771094274,59,112,Marimba
182.0,0.0,42,100,Marimba
182.0,0.0,40,100,Marimba
182.33333333333334,0.0,28,34,Marimba
182.66666666666666,0.33750843771094274,36,96,Marimba
182.66666666666666,0.33750843771094274,60,122,Marimba
182.66666666666666,0.11250281257031425,64,96,Marimba
182.66666666666666,0.11250281257031425,52,96,Marimba
182.66666666666666,0.11250281257031425,59,96,Marimba
182.66666666666666,0.11250281257031425,55,96,Marimba
183.0,0.15333895576171125,64,92,Marimba
183.0,0.15333895576171125,55,92,Marimba
183.0,0.15333895576171125,60,92,Marimba
183.0,0.11500421682128344,52,90,Marimba
183.0,0.15333895576171125,60,85,Marimba
183.0,0.15333895576171125,64,85,Marimba
183.0,0.15333895576171125,67,85,Marimba
183.0,0.11500421682128344,60,91,Marimba
183.0,0.11500421682128344,64,91,Marimba
183.0,0.11500421682128344,67,91,Marimba
183.0,0.0,42,87,Marimba
183.0,0.0,35,87,Marimba
183.0,0.0,28,87,Marimba
183.33333333333334,0.0,36,28,Marimba
183.66666666666666,0.0,42,72,Marimba
183.75,0.0,54,45,Marimba
183.75,0.0,54,60,Marimba
184.0,0.30000750018750466,59,123,Marimba
184.0,0.30000750018750466,64,120,Marimba
184.0,0.30000750018750466,60,120,Marimba
184.0,0.30000750018750466,52,120,Marimba
184.0,0.2250056251406285,55,122,Marimba
184.0,0.2250056251406285,60,122,Marimba
184.0,0.33750843771094274,60,104,Marimba
184.0,0.33750843771094274,64,104,Marimba
184.0,0.33750843771094274,67,104,Marimba
184.0,0.33750843771094274,60,109,Marimba
184.0,0.33750843771094274,64,109,Marimba
184.0,0.33750843771094274,67,109,Marimba
184.0,0.0,54,75,Marimba
184.0,0.0,46,78,Marimba
184.0,0.0,54,78,Marimba
184.0,0.0,40,78,Marimba
184.0,0.0,28,78,Marimba
184.0,0.0,54,75,Marimba
184.25,0.0,54,60,Marimba
184.25,0.0,54,45,Marimba
184.66666666666666,0.15000375009375233,31,111,Marimba
184.66666666666666,0.11250281257031425,60,95,Marimba
184.66666666666666,0.0,35,59,Marimba
184.66666666666666,0.0,28,59,Marimba
185.0,0.46001686728513375,38,112,Marimba
185.0,0.3066779115234225,62,122,Marimba
185.0,0.23000843364256687,65,103,Marimba
185.0,0.23000843364256687,53,103,Marimba
185.0,0.23000843364256687,64,103,Marimba
185.0,0.23000843364256687,57,103,Marimba
185.0,0.11500421682128344,69,88,Marimba
185.0,0.11500421682128344,65,88,Marimba
185.0,0.11500421682128344,64,88,Marimba
185.0,0.11500421682128344,65,101,Marimba
185.0,0.11500421682128344,69,101,Marimba
185.0,0.11500421682128344,64,101,Marimba
185.0,0.0,42,69,Marimba
185.0,0.0,36,69,Marimba
185.0,0.0,35,69,Marimba
185.0,0.0,28,69,Marimba
185.33333333333334,0.0,36,28,Marimba
185.66666666666666,0.11500421682128344,62,122,Marimba
185.66666666666666,0.23000843364256687,57,86,Marimba
185.66666666666666,0.23000843364256687,65,86,Marimba
185.66666666666666,0.23000843364256687,64,86,Marimba
185.66666666666666,0.23000843364256687,53,86,Marimba
186.0,0.30000750018750466,64,122,Marimba
186.0,0.33750843771094274,64,113,Marimba
186.0,0.33750843771094274,65,113,Marimba
186.0,0.33750843771094274,69,113,Marimba
186.0,0.33750843771094274,65,108,Marimba
186.0,0.33750843771094274,64,108,Marimba
186.0,0.33750843771094274,69,108,Marimba
186.0,0.0,42,79,Marimba
186.0,0.0,40,79,Marimba
186.0,0.0,28,79,Marimba
186.66666666666666,1.0500262506562663,57,121,Marimba
186.66666666666666,0.15000375009375233,65,113,Marimba
186.66666666666666,0.15000375009375233,64,113,Marimba
186.66666666666666,0.15000375009375233,57,113,Marimba
186.66666666666666,0.15000375009375233,53,113,Marimba
186.66666666666666,0.0,35,111,Marimba
187.0,0.15333895576171125,53,95,Marimba
187.0,0.15333895576171125,62,95,Marimba
187.0,0.15333895576171125,65,95,Marimba
187.0,0.15333895576171125,57,95,Marimba
187.0,0.11500421682128344,65,86,Marimba
187.0,0.11500421682128344,62,86,Marimba
187.0,0.11500421682128344,69,86,Marimba
187.0,0.11500421682128344,62,100,Marimba
187.0,0.11500421682128344,65,100,Marimba
187.0,0.11500421682128344,69,100,Marimba
187.0,0.0,42,58,Marimba
187.0,0.0,36,58,Marimba
187.0,0.0,28,58,Marimba
187.33333333333334,0.0,28,34,Marimba
187.66666666666666,0.0,40,99,Marimba
188.0,0.33750843771094274,53,119,Marimba
188.0,0.33750843771094274,65,119,Marimba
188.0,0.33750843771094274,57,119,Marimba
188.0,0.33750843771094274,62,119,Marimba
188.0,0.450011250281257,62,110,Marimba
188.0,0.450011250281257,65,110,Marimba
188.0,0.450011250281257,69,110,Marimba
188.0,0.33750843771094274,65,109,Marimba
188.0,0.33750843771094274,62,109,Marimba
188.0,0.33750843771094274,69,109,Marimba
188.0,0.0,42,76,Marimba
188.0,0.0,28,76,Marimba
188.66666666666666,0.11250281257031425,33,95,Marimba
188.66666666666666,0.0,28,34,Marimba
189.0,0.2250056251406285,38,120,Marimba
189.0,0.2250056251406285,53,98,Marimba
189.0,0.2250056251406285,65,98,Marimba
189.0,0.2250056251406285,61,98,Marimba
189.0,0.2250056251406285,57,98,Marimba
189.0,0.11250281257031425,65,67,Marimba
189.0,0.11250281257031425,69,67,Marimba
189.0,0.11250281257031425,61,67,Marimba
189.0,0.11250281257031425,65,93,Marimba
189.0,0.11250281257031425,69,93,Marimba
189.0,0.11250281257031425,61,93,Marimba
189.0,0.0,42,110,Marimba
189.0,0.0,35,110,Marimba
189.33333333333334,0.0,36,31,Marimba
189.33333333333334,0.0,28,31,Marimba
189.66666666666666,0.11250281257031425,38,95,Marimba
189.66666666666666,0.2250056251406285,53,121,Marimba
189.66666666666666,0.2250056251406285,61,121,Marimba
189.66666666666666,0.2250056251406285,57,121,Marimba
189.66666666666666,0.2250056251406285,65,121,Marimba
190.0,0.3450126504638503,33,90,Marimba
190.0,0.3450126504638503,65,123,Marimba
190.0,0.3450126504638503,61,106,Marimba
190.0,0.3450126504638503,69,106,Marimba
190.0,0.3450126504638503,65,106,Marimba
190.0,0.3450126504638503,69,107,Marimba
190.0,0.3450126504638503,65,107,Marimba
190.0,0.3450126504638503,61,107,Marimba
190.0,0.0,42,102,Marimba
190.0,0.0,40,102,Marimba
190.33333333333334,0.0,28,34,Marimba
190.66666666666666,0.11500421682128344,61,87,Marimba
190.66666666666666,0.11500421682128344,65,87,Marimba
190.66666666666666,0.11500421682128344,53,87,Marimba
190.66666666666666,0.11500421682128344,57,87,Marimba
190.66666666666666,0.0,35,115,Marimba
191.0,0.3450126504638503,32,121,Marimba
191.0,0.3450126504638503,64,124,Marimba
191.0,0.23000843364256687,53,96,Marimba
191.0,0.23000843364256687,65,96,Marimba
191.0,0.23000843364256687,57,96,Marimba
191.0,0.23000843364256687,62,96,Marimba
191.0,0.15333895576171125,69,78,Marimba
191.0,0.15333895576171125,65,78,Marimba
191.0,0.15333895576171125,62,60,Marimba
191.0,0.11500421682128344,65,95,Marimba
191.0,0.11500421682128344,62,95,Marimba
191.0,0.11500421682128344,69,95,Marimba
191.0,0.0,42,52,Marimba
191.0,0.0,36,52,Marimba
191.0,0.0,28,52,Marimba
191.33333333333334,0.0,40,84,Marimba
191.66666666666666,0.0,42,90,Marimba
191.75,0.0,54,45,Marimba
191.75,0.0,54,60,Marimba
192.0,0.33750843771094274,31,114,Marimba
192.0,0.30000750018750466,65,122,Marimba
192.0,0.30000750018750466,65,121,Marimba
192.0,0.30000750018750466,53,121,Marimba
192.0,0.30000750018750466,62,121,Marimba
192.0,0.2250056251406285,57,122,Marimba
192.0,0.2250056251406285,62,122,Marimba
192.0,0.30000750018750466,65,112,Marimba
192.0,0.30000750018750466,69,112,Marimba
192.0,0.30000750018750466,62,112,Marimba
192.0,0.0,64,98,Marimba
192.0,0.33750843771094274,65,107,Marimba
192.0,0.33750843771094274,62,107,Marimba
192.0,0.33750843771094274,69,107,Marimba
192.0,0.0,54,75,Marimba
192.0,0.0,42,88,Marimba
192.0,0.0,54,88,Marimba
192.0,0.0,35,88,Marimba
192.0,0.0,28,88,Marimba
192.25,0.0,54,75,Marimba
192.25,0.0,54,60,Marimba
192.25,0.0,54,36,Marimba
192.25,0.0,36,36,Marimba
192.66666666666666,0.450011250281257,62,121,Marimba
192.66666666666666,0.0,42,71,Marimba
192.66666666666666,0.0,40,71,Marimba
192.66666666666666,0.0,28,71,Marimba
193.0,0.450011250281257,36,111,Marimba
193.0,0.2250056251406285,55,107,Marimba
193.0,0.2250056251406285,64,107,Marimba
193.0,0.2250056251406285,62,107,Marimba
193.0,0.2250056251406285,52,107,Marimba
193.0,0.11250281257031425,67,76,Marimba
193.0,0.11250281257031425,64,76,Marimba
193.0,0.11250281257031425,62,76,Marimba
193.0,0.11250281257031425,64,100,Marimba
193.0,0.11250281257031425,67,100,Marimba
193.0,0.11250281257031425,62,100,Marimba
193.0,0.0,42,108,Marimba
193.0,0.0,35,108,Marimba
193.33333333333334,0.0,36,31,Marimba
193.33333333333334,0.0,28,31,Marimba
194.0,0.9200337345702675,64,122,Marimba
194.0,0.3450126504638503,52,118,Marimba
194.0,0.3450126504638503,64,118,Marimba
194.0,0.3450126504638503,55,118,Marimba
194.0,0.3450126504638503,62,118,Marimba
194.0,0.3450126504638503,64,118,Marimba
194.0,0.3450126504638503,67,118,Marimba
194.0,0.3450126504638503,62,118,Marimba
194.0,0.3450126504638503,64,108,Marimba
194.0,0.3450126504638503,67,108,Marimba
194.0,0.3450126504638503,62,108,Marimba
194.0,0.0,42,98,Marimba
194.0,0.0,40,98,Marimba
194.33333333333334,0.0,28,34,Marimba
194.66666666666666,0.0,35,117,Marimba
195.0,0.15000375009375233,64,84,Marimba
195.0,0.15000375009375233,52,84,Marimba
195.0,0.15000375009375233,55,84,Marimba
195.0,0.15000375009375233,60,84,Marimba
195.0,0.11250281257031425,64,80,Marimba
195.0,0.11250281257031425,60,80,Marimba
195.0,0.11250281257031425,67,80,Marimba
195.0,0.11250281257031425,64,92,Marimba
195.0,0.11250281257031425,60,92,Marimba
195.0,0.11250281257031425,67,92,Marimba
195.0,0.0,42,54,Marimba
195.0,0.0,36,54,Marimba
195.0,0.0,28,54,Marimba
195.66666666666666,0.0,42,87,Marimba
195.66666666666666,0.0,40,87,Marimba
196.0,0.46001686728513375,55,118,Marimba
196.0,0.46001686728513375,64,118,Marimba
196.0,0.46001686728513375,60,118,Marimba
196.0,0.46001686728513375,52,118,Marimba
196.0,0.3450126504638503,60,115,Marimba
196.0,0.3450126504638503,67,115,Marimba
196.0,0.3450126504638503,64,115,Marimba
196.0,0.3450126504638503,60,107,Marimba
196.0,0.3450126504638503,64,107,Marimba
196.0,0.3450126504638503,67,107,Marimba
196.0,0.0,42,64,Marimba
196.0,0.0,28,64,Marimba
196.66666666666666,0.15333895576171125,31,95,Marimba
197.0,0.30000750018750466,36,117,Marimba
197.0,0.11250281257031425,52,81,Marimba
197.0,0.11250281257031425,55,81,Marimba
197.0,0.11250281257031425,64,81,Marimba
197.0,0.11250281257031425,59,81,Marimba
197.0,0.11250281257031425,59,80,Marimba
197.0,0.11250281257031425,64,80,Marimba
197.0,0.11250281257031425,67,80,Marimba
197.0,0.11250281257031425,64,96,Marimba
197.0,0.11250281257031425,67,96,Marimba
197.0,0.11250281257031425,59,96,Marimba
197.0,0.0,42,114,Marimba
197.0,0.0,35,114,Marimba
197.33333333333334,0.0,36,31,Marimba
197.33333333333334,0.0,28,31,Marimba
197.66666666666666,0.11250281257031425,36,104,Marimba
197.66666666666666,0.2250056251406285,52,106,Marimba
197.66666666666666,0.2250056251406285,55,106,Marimba
197.66666666666666,0.2250056251406285,59,106,Marimba
197.66666666666666,0.2250056251406285,64,106,Marimba
198.0,0.3450126504638503,59,112,Marimba
198.0,0.3450126504638503,64,112,Marimba
198.0,0.3450126504638503,67,112,Marimba
198.0,0.3450126504638503,64,109,Marimba
198.0,0.3450126504638503,59,109,Marimba
198.0,0.3450126504638503,67,109,Marimba
198.0,0.0,42,100,Marimba
198.0,0.0,40,100,Marimba
198.33333333333334,0.0,28,34,Marimba
198.66666666666666,0.15333895576171125,55,117,Marimba
198.66666666666666,0.11500421682128344,64,96,Marimba
198.66666666666666,0.11500421682128344,52,96,Marimba
198.66666666666666,0.11500421682128344,59,96,Marimba
198.66666666666666,0.11500421682128344,55,96,Marimba
199.0,0.30000750018750466,57,121,Marimba
199.0,0.15000375009375233,64,92,Marimba
199.0,0.15000375009375233,55,92,Marimba
199.0,0.15000375009375233,60,92,Marimba
199.0,0.11250281257031425,52,90,Marimba
199.0,0.15000375009375233,60,85,Marimba
199.0,0.15000375009375233,64,85,Marimba
199.0,0.15000375009375233,67,85,Marimba
199.0,0.11250281257031425,60,97,Marimba
199.0,0.11250281257031425,64,97,Marimba
199.0,0.11250281257031425,67,97,Marimba
199.0,0.0,42,88,Marimba
199.0,0.0,35,88,Marimba
199.0,0.0,28,88,Marimba
199.33333333333334,0.0,36,28,Marimba
199.66666666666666,0.11250281257031425,59,115,Marimba
199.75,0.0,54,45,Marimba
199.75,0.0,54,60,Marimba
200.0,0.46001686728513375,31,120,Marimba
200.0,0.23000843364256687,60,115,Marimba
200.0,0.3066779115234225,64,120,Marimba
200.0,0.3066779115234225,60,120,Marimba
200.0,0.3066779115234225,52,120,Marimba
200.0,0.23000843364256687,55,122,Marimba
200.0,0.23000843364256687,60,122,Marimba
200.0,0.3450126504638503,60,104,Marimba
200.0,0.3450126504638503,64,104,Marimba
200.0,0.3450126504638503,67,104,Marimba
200.0,0.3450126504638503,60,106,Marimba
200.0,0.3450126504638503,64,106,Marimba
200.0,0.3450126504638503,67,106,Marimba
200.0,0.0,54,75,Marimba
200.0,0.0,46,78,Marimba
200.0,0.0,54,78,Marimba
200.0,0.0,40,78,Marimba
200.0,0.0,28,78,Marimba
200.25,0.0,54,75,Marimba
200.25,0.0,54,60,Marimba
200.33333333333334,0.0,54,45,Marimba
200.66666666666666,0.11500421682128344,62,117,Marimba
200.66666666666666,0.0,35,84,Marimba
201.0,0.30000750018750466,38,121,Marimba
201.0,0.30000750018750466,64,122,Marimba
201.0,0.2250056251406285,65,103,Marimba
201.0,0.2250056251406285,53,103,Marimba
201.0,0.2250056251406285,64,103,Marimba
201.0,0.2250056251406285,57,103,Marimba
201.0,0.11250281257031425,69,88,Marimba
201.0,0.11250281257031425,65,88,Marimba
201.0,0.11250281257031425,64,88,Marimba
201.0,0.11250281257031425,65,91,Marimba
201.0,0.11250281257031425,64,91,Marimba
201.0,0.11250281257031425,69,91,Marimba
201.0,0.0,42,85,Marimba
201.0,0.0,36,85,Marimba
201.0,0.0,35,85,Marimba
201.33333333333334,0.0,28,31,Marimba
201.33333333333334,0.0,36,31,Marimba
201.66666666666666,0.2250056251406285,57,86,Marimba
201.66666666666666,0.2250056251406285,65,86,Marimba
201.66666666666666,0.2250056251406285,64,86,Marimba
201.66666666666666,0.2250056251406285,53,86,Marimba
202.0,0.23000843364256687,55,121,Marimba
202.0,0.3450126504638503,64,113,Marimba
202.0,0.3450126504638503,65,113,Marimba
202.0,0.3450126504638503,69,113,Marimba
202.0,0.3450126504638503,65,101,Marimba
202.0,0.3450126504638503,64,101,Marimba
202.0,0.3450126504638503,69,101,Marimba
202.0,0.0,42,79,Marimba
202.0,0.0,40,79,Marimba
202.0,0.0,28,79,Marimba
202.66666666666666,0.46001686728513375,57,122,Marimba
202.66666666666666,0.15333895576171125,65,113,Marimba
202.66666666666666,0.15333895576171125,64,113,Marimba
202.66666666666666,0.15333895576171125,57,113,Marimba
202.66666666666666,0.15333895576171125,53,113,Marimba
202.66666666666666,0.0,35,111,Marimba
203.0,0.15000375009375233,53,95,Marimba
203.0,0.15000375009375233,62,95,Marimba
203.0,0.15000375009375233,65,95,Marimba
203.0,0.15000375009375233,57,95,Marimba
203.0,0.11250281257031425,65,86,Marimba
203.0,0.11250281257031425,62,86,Marimba
203.0,0.11250281257031425,69,86,Marimba
203.0,0.11250281257031425,65,90,Marimba
203.0,0.11250281257031425,69,90,Marimba
203.0,0.11250281257031425,62,90,Marimba
203.0,0.0,42,55,Marimba
203.0,0.0,36,55,Marimba
203.0,0.0,28,55,Marimba
203.66666666666666,0.0,40,84,Marimba
204.0,0.2250056251406285,67,117,Marimba
204.0,0.33750843771094274,53,119,Marimba
204.0,0.33750843771094274,65,119,Marimba
204.0,0.33750843771094274,57,119,Marimba
204.0,0.33750843771094274,62,119,Marimba
204.0,0.450011250281257,62,110,Marimba
204.0,0.450011250281257,65,110,Marimba
204.0,0.450011250281257,69,110,Marimba
204.0,0.33750843771094274,65,106,Marimba
204.0,0.33750843771094274,62,106,Marimba
204.0,0.33750843771094274,69,106,Marimba
204.0,0.0,42,77,Marimba
204.0,0.0,28,77,Marimba
204.66666666666666,0.15000375009375233,33,114,Marimba
204.66666666666666,0.5625140628515712,65,121,Marimba
205.0,0.3066779115234225,38,117,Marimba
205.0,0.23000843364256687,53,98,Marimba
205.0,0.23000843364256687,65,98,Marimba
205.0,0.23000843364256687,61,98,Marimba
205.0,0.23000843364256687,57,98,Marimba
205.0,0.11500421682128344,65,67,Marimba
205.0,0.11500421682128344,69,67,Marimba
205.0,0.11500421682128344,61,67,Marimba
205.0,0.11500421682128344,65,92,Marimba
205.0,0.11500421682128344,69,92,Marimba
205.0,0.11500421682128344,61,92,Marimba
205.0,0.0,42,86,Marimba
205.0,0.0,35,86,Marimba
205.0,0.0,28,86,Marimba
205.33333333333334,0.0,36,31,Marimba
205.33333333333334,0.0,28,31,Marimba
205.66666666666666,0.11500421682128344,38,111,Marimba
205.66666666666666,0.23000843364256687,53,121,Marimba
205.66666666666666,0.23000843364256687,61,121,Marimba
205.66666666666666,0.23000843364256687,57,121,Marimba
205.66666666666666,0.23000843364256687,65,121,Marimba
206.0,0.33750843771094274,67,122,Marimba
206.0,0.33750843771094274,61,106,Marimba
206.0,0.33750843771094274,69,106,Marimba
206.0,0.33750843771094274,65,106,Marimba
206.0,0.33750843771094274,65,106,Marimba
206.0,0.33750843771094274,61,106,Marimba
206.0,0.33750843771094274,69,106,Marimba
206.0,0.0,42,78,Marimba
206.0,0.0,40,78,Marimba
206.0,0.0,28,78,Marimba
206.66666666666666,0.11250281257031425,61,87,Marimba
206.66666666666666,0.11250281257031425,65,87,Marimba
206.66666666666666,0.11250281257031425,53,87,Marimba
206.66666666666666,0.11250281257031425,57,87,Marimba
206.66666666666666,0.0,35,115,Marimba
207.0,0.3066779115234225,69,123,Marimba
207.0,0.23000843364256687,53,96,Marimba
207.0,0.23000843364256687,65,96,Marimba
207.0,0.23000843364256687,57,96,Marimba
207.0,0.23000843364256687,62,96,Marimba
207.0,0.15333895576171125,69,78,Marimba
207.0,0.15333895576171125,65,78,Marimba
207.0,0.15333895576171125,62,60,Marimba
207.0,0.11500421682128344,65,85,Marimba
207.0,0.11500421682128344,62,85,Marimba
207.0,0.11500421682128344,69,85,Marimba
207.0,0.0,42,52,Marimba
207.0,0.0,36,52,Marimba
207.0,0.0,28,52,Marimba
207.33333333333334,0.0,40,59,Marimba
207.33333333333334,0.0,28,59,Marimba
207.66666666666666,0.23000843364256687,72,120,Marimba
207.66666666666666,0.0,42,90,Marimba
207.75,0.0,54,45,Marimba
207.75,0.0,54,60,Marimba
208.0,0.450011250281257,31,117,Marimba
208.0,0.30000750018750466,65,121,Marimba
208.0,0.30000750018750466,53,121,Marimba
208.0,0.30000750018750466,62,121,Marimba
208.0,0.2250056251406285,57,122,Marimba
208.0,0.2250056251406285,62,122,Marimba
208.0,0.30000750018750466,65,112,Marimba
208.0,0.30000750018750466,69,112,Marimba
208.0,0.30000750018750466,62,112,Marimba
208.0,0.0,64,98,Marimba
208.0,0.30000750018750466,62,114,Marimba
208.0,0.30000750018750466,65,114,Marimba
208.0,0.30000750018750466,69,114,Marimba
208.0,0.0,54,75,Marimba
208.0,0.0,46,85,Marimba
208.0,0.0,54,85,Marimba
208.0,0.0,35,85,Marimba
208.0,0.0,40,85,Marimba
208.0,0.0,28,85,Marimba
208.0,0.0,54,75,Marimba
208.25,0.0,54,60,Marimba
208.25,0.0,54,36,Marimba
208.25,0.0,36,36,Marimba
208.66666666666666,0.5625140628515712,71,123,Marimba
208.66666666666666,0.0,40,84,Marimba
209.0,0.46001686728513375,36,122,Marimba
209.0,0.23000843364256687,55,107,Marimba
209.0,0.23000843364256687,64,107,Marimba
209.0,0.23000843364256687,62,107,Marimba
209.0,0.23000843364256687,52,107,Marimba
209.0,0.11500421682128344,67,76,Marimba
209.0,0.11500421682128344,64,76,Marimba
209.0,0.11500421682128344,62,76,Marimba
209.0,0.11500421682128344,67,97,Marimba
209.0,0.11500421682128344,64,97,Marimba
209.0,0.11500421682128344,62,97,Marimba
209.0,0.0,42,87,Marimba
209.0,0.0,35,87,Marimba
209.0,0.0,28,87,Marimba
209.33333333333334,0.0,36,28,Marimba
209.66666666666666,0.0,28,34,Marimba
210.0,0.2250056251406285,67,122,Marimba
210.0,0.33750843771094274,52,118,Marimba
210.0,0.33750843771094274,64,118,Marimba
210.0,0.33750843771094274,55,118,Marimba
210.0,0.33750843771094274,62,118,Marimba
210.0,0.33750843771094274,64,118,Marimba
210.0,0.33750843771094274,67,118,Marimba
210.0,0.33750843771094274,62,118,Marimba
210.0,0.33750843771094274,64,116,Marimba
210.0,0.33750843771094274,67,116,Marimba
210.0,0.33750843771094274,62,116,Marimba
210.0,0.0,42,77,Marimba
210.0,0.0,40,77,Marimba
210.0,0.0,28,77,Marimba
210.66666666666666,1.350033750843771,67,122,Marimba
210.66666666666666,0.0,35,117,Marimba
211.0,0.15333895576171125,64,84,Marimba
211.0,0.15333895576171125,52,84,Marimba
211.0,0.15333895576171125,55,84,Marimba
211.0,0.15333895576171125,60,84,Marimba
211.0,0.11500421682128344,64,80,Marimba
211.0,0.11500421682128344,60,80,Marimba
211.0,0.11500421682128344,67,80,Marimba
211.0,0.11500421682128344,60,100,Marimba
211.0,0.11500421682128344,64,100,Marimba
211.0,0.11500421682128344,67,100,Marimba
211.0,0.0,42,58,Marimba
211.0,0.0,36,58,Marimba
211.0,0.0,28,58,Marimba
211.66666666666666,0.0,42,79,Marimba
211.66666666666666,0.0,40,79,Marimba
212.0,0.450011250281257,55,118,Marimba
212.0,0.450011250281257,64,118,Marimba
212.0,0.450011250281257,60,118,Marimba
212.0,0.450011250281257,52,118,Marimba
212.0,0.33750843771094274,60,115,Marimba
212.0,0.33750843771094274,67,115,Marimba
212.0,0.33750843771094274,64,115,Marimba
212.0,0.33750843771094274,67,112,Marimba
212.0,0.33750843771094274,60,112,Marimba
212.0,0.33750843771094274,64,112,Marimba
212.0,0.0,42,72,Marimba
212.0,0.0,28,72,Marimba
212.66666666666666,0.15000375009375233,31,117,Marimba
212.66666666666666,0.0,28,34,Marimba
213.0,0.30000750018750466,36,121,Marimba
213.0,0.11250281257031425,52,81,Marimba
213.0,0.11250281257031425,55,81,Marimba
213.0,0.11250281257031425,64,81,Marimba
213.0,0.11250281257031425,59,81,Marimba
213.0,0.11250281257031425,59,80,Marimba
213.0,0.11250281257031425,64,80,Marimba
213.0,0.11250281257031425,67,80,Marimba
213.0,0.11250281257031425,59,101,Marimba
213.0,0.11250281257031425,67,101,Marimba
213.0,0.11250281257031425,64,101,Marimba
213.0,0.0,42,114,Marimba
213.0,0.0,35,114,Marimba
213.33333333333334,0.0,36,28,Marimba
213.66666666666666,0.11250281257031425,36,122,Marimba
213.66666666666666,0.2250056251406285,52,106,Marimba
213.66666666666666,0.2250056251406285,55,106,Marimba
213.66666666666666,0.2250056251406285,59,106,Marimba
213.66666666666666,0.2250056251406285,64,106,Marimba
213.66666666666666,0.0,28,34,Marimba
214.0,0.3450126504638503,59,112,Marimba
214.0,0.3450126504638503,64,112,Marimba
214.0,0.3450126504638503,67,112,Marimba
214.0,0.3450126504638503,64,112,Marimba
214.0,0.3450126504638503,67,112,Marimba
214.0,0.3450126504638503,59,112,Marimba
214.0,0.0,42,100,Marimba
214.0,0.0,40,100,Marimba
214.33333333333334,0.0,28,34,Marimba
214.66666666666666,0.3450126504638503,36,96,Marimba
214.66666666666666,0.11500421682128344,64,96,Marimba
214.66666666666666,0.11500421682128344,52,96,Marimba
214.66666666666666,0.11500421682128344,59,96,Marimba
214.66666666666666,0.11500421682128344,55,96,Marimba
215.0,0.15000375009375233,64,92,Marimba
215.0,0.15000375009375233,55,92,Marimba
215.0,0.15000375009375233,60,92,Marimba
215.0,0.11250281257031425,52,90,Marimba
215.0,0.15000375009375233,60,85,Marimba
215.0,0.15000375009375233,64,85,Marimba
215.0,0.15000375009375233,67,85,Marimba
215.0,0.11250281257031425,60,91,Marimba
215.0,0.11250281257031425,64,91,Marimba
215.0,0.11250281257031425,67,91,Marimba
215.0,0.0,42,87,Marimba
215.0,0.0,35,87,Marimba
215.0,0.0,28,87,Marimba
215.33333333333334,0.0,36,28,Marimba
215.66666666666666,0.0,42,72,Marimba
215.75,0.0,54,45,Marimba
215.75,0.0,54,60,Marimba
216.0,0.3066779115234225,64,120,Marimba
216.0,0.3066779115234225,60,120,Marimba
216.0,0.3066779115234225,52,120,Marimba
216.0,0.23000843364256687,55,122,Marimba
216.0,0.23000843364256687,60,122,Marimba
216.0,0.3450126504638503,60,104,Marimba
216.0,0.3450126504638503,64,104,Marimba
216.0,0.3450126504638503,67,104,Marimba
216.0,0.3450126504638503,60,109,Marimba
216.0,0.3450126504638503,64,109,Marimba
216.0,0.3450126504638503,67,109,Marimba
216.0,0.0,54,75,Marimba
216.0,0.0,46,78,Marimba
216.0,0.0,54,78,Marimba
216.0,0.0,40,78,Marimba
216.0,0.0,28,78,Marimba
216.25,0.0,54,75,Marimba
216.25,0.0,54,60,Marimba
216.33333333333334,0.0,54,45,Marimba
216.66666666666666,0.15333895576171125,31,111,Marimba
216.66666666666666,0.0,35,59,Marimba
216.66666666666666,0.0,28,59,Marimba
217.0,0.450011250281257,38,112,Marimba
217.0,0.2250056251406285,65,103,Marimba
217.0,0.2250056251406285,53,103,Marimba
217.0,0.2250056251406285,64,103,Marimba
217.0,0.2250056251406285,57,103,Marimba
217.0,0.11250281257031425,69,88,Marimba
217.0,0.11250281257031425,65,88,Marimba
217.0,0.11250281257031425,64,88,Marimba
217.0,0.11250281257031425,65,101,Marimba
217.0,0.11250281257031425,69,101,Marimba
217.0,0.11250281257031425,64,101,Marimba
217.0,0.0,42,69,Marimba
217.0,0.0,36,69,Marimba
217.0,0.0,35,69,Marimba
217.0,0.0,28,69,Marimba
217.33333333333334,0.0,36,28,Marimba
217.66666666666666,0.11250281257031425,67,107,Marimba
217.66666666666666,0.2250056251406285,57,86,Marimba
217.66666666666666,0.2250056251406285,65,86,Marimba
217.66666666666666,0.2250056251406285,64,86,Marimba
217.66666666666666,0.2250056251406285,53,86,Marimba
218.0,0.15333895576171125,79,116,Marimba
218.0,0.3450126504638503,64,113,Marimba
218.0,0.3450126504638503,65,113,Marimba
218.0,0.3450126504638503,69,113,Marimba
218.0,0.3450126504638503,65,108,Marimba
218.0,0.3450126504638503,64,108,Marimba
218.0,0.3450126504638503,69,108,Marimba
218.0,0.0,42,79,Marimba
218.0,0.0,40,79,Marimba
218.0,0.0,28,79,Marimba
218.66666666666666,0.11500421682128344,67,107,Marimba
218.66666666666666,0.15333895576171125,65,113,Marimba
218.66666666666666,0.15333895576171125,64,113,Marimba
218.66666666666666,0.15333895576171125,57,113,Marimba
218.66666666666666,0.15333895576171125,53,113,Marimba
218.66666666666666,0.0,35,111,Marimba
219.0,0.2250056251406285,74,112,Marimba
219.0,0.15000375009375233,53,95,Marimba
219.0,0.15000375009375233,62,95,Marimba
219.0,0.15000375009375233,65,95,Marimba
219.0,0.15000375009375233,57,95,Marimba
219.0,0.11250281257031425,65,86,Marimba
219.0,0.11250281257031425,62,86,Marimba
219.0,0.11250281257031425,69,86,Marimba
219.0,0.11250281257031425,62,100,Marimba
219.0,0.11250281257031425,65,100,Marimba
219.0,0.11250281257031425,69,100,Marimba
219.0,0.0,42,58,Marimba
219.0,0.0,36,58,Marimba
219.0,0.0,28,58,Marimba
219.33333333333334,0.0,28,34,Marimba
219.66666666666666,0.11250281257031425,76,107,Marimba
219.66666666666666,0.0,40,99,Marimba
220.0,0.3450126504638503,53,119,Marimba
220.0,0.3450126504638503,65,119,Marimba
220.0,0.3450126504638503,57,119,Marimba
220.0,0.3450126504638503,62,119,Marimba
220.0,0.46001686728513375,62,110,Marimba
220.0,0.46001686728513375,65,110,Marimba
220.0,0.46001686728513375,69,110,Marimba
220.0,0.3450126504638503,65,109,Marimba
220.0,0.3450126504638503,62,109,Marimba
220.0,0.3450126504638503,69,109,Marimba
220.0,0.0,42,76,Marimba
220.0,0.0,28,76,Marimba
220.66666666666666,0.11500421682128344,67,97,Marimba
220.66666666666666,0.11500421682128344,33,95,Marimba
220.66666666666666,0.0,28,34,Marimba
221.0,0.2250056251406285,79,116,Marimba
221.0,0.2250056251406285,38,120,Marimba
221.0,0.15000375009375233,53,98,Marimba
221.0,0.15000375009375233,65,98,Marimba
221.0,0.15000375009375233,61,98,Marimba
221.0,0.15000375009375233,57,98,Marimba
221.0,0.11250281257031425,65,67,Marimba
221.0,0.11250281257031425,69,67,Marimba
221.0,0.11250281257031425,61,67,Marimba
221.0,0.11250281257031425,65,93,Marimba
221.0,0.11250281257031425,69,93,Marimba
221.0,0.11250281257031425,61,93,Marimba
221.0,0.0,42,110,Marimba
221.0,0.0,35,110,Marimba
221.33333333333334,0.0,36,31,Marimba
221.33333333333334,0.0,28,31,Marimba
221.66666666666666,0.11250281257031425,67,97,Marimba
221.66666666666666,0.11250281257031425,38,95,Marimba
221.66666666666666,0.2250056251406285,53,121,Marimba
221.66666666666666,0.2250056251406285,61,121,Marimba
221.66666666666666,0.2250056251406285,57,121,Marimba
221.66666666666666,0.2250056251406285,65,121,Marimba
222.0,0.23000843364256687,76,124,Marimba
222.0,0.3450126504638503,33,90,Marimba
222.0,0.3450126504638503,61,106,Marimba
222.0,0.3450126504638503,69,106,Marimba
222.0,0.3450126504638503,65,106,Marimba
222.0,0.3450126504638503,69,107,Marimba
222.0,0.3450126504638503,65,107,Marimba
222.0,0.3450126504638503,61,107,Marimba
222.0,0.0,42,102,Marimba
222.0,0.0,40,102,Marimba
222.33333333333334,0.0,28,34,Marimba
222.66666666666666,0.11500421682128344,74,120,Marimba
222.66666666666666,0.11500421682128344,61,87,Marimba
222.66666666666666,0.11500421682128344,65,87,Marimba
222.66666666666666,0.11500421682128344,53,87,Marimba
222.66666666666666,0.11500421682128344,57,87,Marimba
222.66666666666666,0.0,38,88,Marimba
222.66666666666666,0.0,35,88,Marimba
223.0,0.33750843771094274,32,121,Marimba
223.0,0.2250056251406285,53,96,Marimba
223.0,0.2250056251406285,65,96,Marimba
223.0,0.2250056251406285,57,96,Marimba
223.0,0.2250056251406285,62,96,Marimba
223.0,0.15000375009375233,69,78,Marimba
223.0,0.15000375009375233,65,78,Marimba
223.0,0.15000375009375233,62,60,Marimba
223.0,0.11250281257031425,65,95,Marimba
223.0,0.11250281257031425,62,95,Marimba
223.0,0.11250281257031425,69,95,Marimba
223.0,0.0,42,52,Marimba
223.0,0.0,36,52,Marimba
223.0,0.0,28,52,Marimba
223.33333333333334,0.0,40,82,Marimba
223.33333333333334,0.0,38,82,Marimba
223.66666666666666,0.15000375009375233,67,116,Marimba
223.66666666666666,0.0,42,81,Marimba
223.66666666666666,0.0,38,81,Marimba
223.75,0.0,54,45,Marimba
223.75,0.0,54,60,Marimba
224.0,0.33750843771094274,31,114,Marimba
224.0,0.30000750018750466,65,121,Marimba
224.0,0.30000750018750466,53,121,Marimba
224.0,0.30000750018750466,62,121,Marimba
224.0,0.2250056251406285,57,122,Marimba
224.0,0.2250056251406285,62,122,Marimba
224.0,0.30000750018750466,65,112,Marimba
224.0,0.30000750018750466,69,112,Marimba
224.0,0.30000750018750466,62,112,Marimba
224.0,0.0,64,98,Marimba
224.0,0.33750843771094274,65,107,Marimba
224.0,0.33750843771094274,62,107,Marimba
224.0,0.33750843771094274,69,107,Marimba
224.0,0.0,54,75,Marimba
224.0,0.0,41,91,Marimba
224.0,0.0,42,91,Marimba
224.0,0.0,54,91,Marimba
224.0,0.0,35,91,Marimba
224.0,0.0,28,91,Marimba
224.0,0.0,54,75,Marimba
224.25,0.0,54,60,Marimba
224.25,0.0,54,36,Marimba
224.25,0.0,36,36,Marimba
224.66666666666666,0.0,42,71,Marimba
224.66666666666666,0.0,40,71,Marimba
224.66666666666666,0.0,28,71,Marimba
225.0,0.46001686728513375,36,122,Marimba
225.0,0.23000843364256687,55,107,Marimba
225.0,0.23000843364256687,64,107,Marimba
225.0,0.23000843364256687,62,107,Marimba
225.0,0.23000843364256687,52,107,Marimba
225.0,0.11500421682128344,67,76,Marimba
225.0,0.11500421682128344,64,76,Marimba
225.0,0.11500421682128344,62,76,Marimba
225.0,0.11500421682128344,67,96,Marimba
225.0,0.11500421682128344,64,96,Marimba
225.0,0.11500421682128344,62,98,Marimba
225.0,0.0,42,83,Marimba
225.0,0.0,49,83,Marimba
225.0,0.0,35,83,Marimba
225.0,0.0,28,83,Marimba
225.33333333333334,0.0,36,28,Marimba
225.66666666666666,0.0,28,34,Marimba
226.0,0.33750843771094274,52,118,Marimba
226.0,0.33750843771094274,64,118,Marimba
226.0,0.33750843771094274,55,118,Marimba
226.0,0.33750843771094274,62,118,Marimba
226.0,0.33750843771094274,64,118,Marimba
226.0,0.33750843771094274,67,118,Marimba
226.0,0.33750843771094274,62,118,Marimba
226.0,0.33750843771094274,64,116,Marimba
226.0,0.33750843771094274,67,116,Marimba
226.0,0.33750843771094274,62,116,Marimba
226.0,0.0,42,77,Marimba
226.0,0.0,40,77,Marimba
226.0,0.0,28,77,Marimba
226.66666666666666,0.0,35,117,Marimba
227.0,0.15333895576171125,64,84,Marimba
227.0,0.15333895576171125,52,84,Marimba
227.0,0.15333895576171125,55,84,Marimba
227.0,0.15333895576171125,60,84,Marimba
227.0,0.11500421682128344,64,80,Marimba
227.0,0.11500421682128344,60,80,Marimba
227.0,0.11500421682128344,67,80,Marimba
227.0,0.11500421682128344,60,100,Marimba
227.0,0.11500421682128344,64,100,Marimba
227.0,0.11500421682128344,67,100,Marimba
227.0,0.0,42,58,Marimba
227.0,0.0,36,58,Marimba
227.0,0.0,28,58,Marimba
227.66666666666666,0.15333895576171125,67,121,Marimba
227.66666666666666,0.0,42,79,Marimba
227.66666666666666,0.0,40,79,Marimba
228.0,0.30000750018750466,69,121,Marimba
228.0,0.450011250281257,55,118,Marimba
228.0,0.450011250281257,64,118,Marimba
228.0,0.450011250281257,60,118,Marimba
228.0,0.450011250281257,52,118,Marimba
228.0,0.33750843771094274,60,115,Marimba
228.0,0.33750843771094274,67,115,Marimba
228.0,0.33750843771094274,64,115,Marimba
228.0,0.33750843771094274,67,112,Marimba
228.0,0.33750843771094274,60,112,Marimba
228.0,0.33750843771094274,64,112,Marimba
228.0,0.0,42,72,Marimba
228.0,0.0,28,72,Marimba
228.66666666666666,0.15000375009375233,31,117,Marimba
228.66666666666666,0.15000375009375233,72,116,Marimba
228.66666666666666,0.0,28,34,Marimba
229.0,0.3066779115234225,36,121,Marimba
229.0,0.46001686728513375,71,117,Marimba
229.0,0.11500421682128344,52,81,Marimba
229.0,0.11500421682128344,55,81,Marimba
229.0,0.11500421682128344,64,81,Marimba
229.0,0.11500421682128344,59,81,Marimba
229.0,0.11500421682128344,59,80,Marimba
229.0,0.11500421682128344,64,80,Marimba
229.0,0.11500421682128344,67,80,Marimba
229.0,0.11500421682128344,59,101,Marimba
229.0,0.11500421682128344,67,101,Marimba
229.0,0.11500421682128344,64,101,Marimba
229.0,0.0,42,114,Marimba
229.0,0.0,35,114,Marimba
229.33333333333334,0.0,36,28,Marimba
229.66666666666666,0.11500421682128344,36,122,Marimba
229.66666666666666,0.23000843364256687,52,106,Marimba
229.66666666666666,0.23000843364256687,55,106,Marimba
229.66666666666666,0.23000843364256687,59,106,Marimba
229.66666666666666,0.23000843364256687,64,106,Marimba
229.66666666666666,0.0,28,34,Marimba
230.0,0.30000750018750466,67,122,Marimba
230.0,0.33750843771094274,59,112,Marimba
230.0,0.33750843771094274,64,112,Marimba
230.0,0.33750843771094274,67,112,Marimba
230.0,0.33750843771094274,64,112,Marimba
230.0,0.33750843771094274,67,112,Marimba
230.0,0.33750843771094274,59,112,Marimba
230.0,0.0,42,100,Marimba
230.0,0.0,40,100,Marimba
230.33333333333334,0.0,28,34,Marimba
230.66666666666666,0.33750843771094274,36,96,Marimba
230.66666666666666,0.5625140628515712,64,122,Marimba
230.66666666666666,0.11250281257031425,64,96,Marimba
230.66666666666666,0.11250281257031425,52,96,Marimba
230.66666666666666,0.11250281257031425,59,96,Marimba
230.66666666666666,0.11250281257031425,55,96,Marimba
231.0,0.15333895576171125,64,92,Marimba
231.0,0.15333895576171125,55,92,Marimba
231.0,0.15333895576171125,60,92,Marimba
231.0,0.11500421682128344,52,90,Marimba
231.0,0.15333895576171125,60,85,Marimba
231.0,0.15333895576171125,64,85,Marimba
231.0,0.15333895576171125,67,85,Marimba
231.0,0.11500421682128344,60,91,Marimba
231.0,0.11500421682128344,64,91,Marimba
231.0,0.11500421682128344,67,91,Marimba
231.0,0.0,42,87,Marimba
231.0,0.0,35,87,Marimba
231.0,0.0,28,87,Marimba
231.33333333333334,0.0,36,28,Marimba
231.66666666666666,0.0,42,72,Marimba
231.75,0.0,54,45,Marimba
231.75,0.0,54,60,Marimba
232.0,0.30000750018750466,65,121,Marimba
232.0,0.30000750018750466,64,120,Marimba
232.0,0.30000750018750466,60,120,Marimba
232.0,0.30000750018750466,52,120,Marimba
232.0,0.2250056251406285,55,122,Marimba
232.0,0.2250056251406285,60,122,Marimba
232.0,0.33750843771094274,60,104,Marimba
232.0,0.33750843771094274,64,104,Marimba
232.0,0.33750843771094274,67,104,Marimba
232.0,0.33750843771094274,60,109,Marimba
232.0,0.33750843771094274,64,109,Marimba
232.0,0.33750843771094274,67,109,Marimba
232.0,0.0,54,75,Marimba
232.0,0.0,46,78,Marimba
232.0,0.0,54,78,Marimba
232.0,0.0,40,78,Marimba
232.0,0.0,28,78,Marimba
232.25,0.0,54,75,Marimba
232.25,0.0,54,60,Marimba
232.33333333333334,0.0,54,45,Marimba
232.66666666666666,0.15000375009375233,31,111,Marimba
232.66666666666666,0.5625140628515712,64,123,Marimba
232.66666666666666,0.0,35,59,Marimba
232.66666666666666,0.0,28,59,Marimba
233.0,0.46001686728513375,38,112,Marimba
233.0,0.23000843364256687,65,103,Marimba
233.0,0.23000843364256687,53,103,Marimba
233.0,0.23000843364256687,64,103,Marimba
233.0,0.23000843364256687,57,103,Marimba
233.0,0.11500421682128344,69,88,Marimba
233.0,0.11500421682128344,65,88,Marimba
233.0,0.11500421682128344,64,88,Marimba
233.0,0.11500421682128344,65,101,Marimba
233.0,0.11500421682128344,69,101,Marimba
233.0,0.11500421682128344,64,101,Marimba
233.0,0.0,42,69,Marimba
233.0,0.0,36,69,Marimba
233.0,0.0,35,69,Marimba
233.0,0.0,28,69,Marimba
233.33333333333334,0.0,36,28,Marimba
233.66666666666666,0.23000843364256687,57,86,Marimba
233.66666666666666,0.23000843364256687,65,86,Marimba
233.66666666666666,0.23000843364256687,64,86,Marimba
233.66666666666666,0.23000843364256687,53,86,Marimba
234.0,0.30000750018750466,62,122,Marimba
234.0,0.33750843771094274,64,113,Marimba
234.0,0.33750843771094274,65,113,Marimba
234.0,0.33750843771094274,69,113,Marimba
234.0,0.33750843771094274,65,108,Marimba
234.0,0.33750843771094274,64,108,Marimba
234.0,0.33750843771094274,69,108,Marimba
234.0,0.0,42,79,Marimba
234.0,0.0,40,79,Marimba
234.0,0.0,28,79,Marimba
234.66666666666666,1.2000300007500186,57,121,Marimba
234.66666666666666,0.15000375009375233,65,113,Marimba
234.66666666666666,0.15000375009375233,64,113,Marimba
234.66666666666666,0.15000375009375233,57,113,Marimba
234.66666666666666,0.15000375009375233,53,113,Marimba
234.66666666666666,0.0,35,111,Marimba
235.0,0.15000375009375233,53,95,Marimba
235.0,0.15000375009375233,62,95,Marimba
235.0,0.15000375009375233,65,95,Marimba
235.0,0.15000375009375233,57,95,Marimba
235.0,0.11250281257031425,65,86,Marimba
235.0,0.11250281257031425,62,86,Marimba
235.0,0.11250281257031425,69,86,Marimba
235.0,0.11250281257031425,62,100,Marimba
235.0,0.11250281257031425,65,100,Marimba
235.0,0.11250281257031425,69,100,Marimba
235.0,0.0,42,58,Marimba
235.0,0.0,36,58,Marimba
235.0,0.0,28,58,Marimba
235.33333333333334,0.0,28,34,Marimba
235.66666666666666,0.0,40,99,Marimba
236.0,0.3450126504638503,53,119,Marimba
236.0,0.3450126504638503,65,119,Marimba
236.0,0.3450126504638503,57,119,Marimba
236.0,0.3450126504638503,62,119,Marimba
236.0,0.46001686728513375,62,110,Marimba
236.0,0.46001686728513375,65,110,Marimba
236.0,0.46001686728513375,69,110,Marimba
236.0,0.3450126504638503,65,109,Marimba
236.0,0.3450126504638503,62,109,Marimba
236.0,0.3450126504638503,69,109,Marimba
236.0,0.0,42,76,Marimba
236.0,0.0,28,76,Marimba
236.66666666666666,0.11500421682128344,33,95,Marimba
236.66666666666666,0.0,28,34,Marimba
237.0,0.2250056251406285,38,120,Marimba
237.0,0.15000375009375233,53,98,Marimba
237.0,0.15000375009375233,65,98,Marimba
237.0,0.15000375009375233,61,98,Marimba
237.0,0.15000375009375233,57,98,Marimba
237.0,0.11250281257031425,65,67,Marimba
237.0,0.11250281257031425,69,67,Marimba
237.0,0.11250281257031425,61,67,Marimba
237.0,0.11250281257031425,65,93,Marimba
237.0,0.11250281257031425,69,93,Marimba
237.0,0.11250281257031425,61,93,Marimba
237.0,0.0,42,110,Marimba
237.0,0.0,35,110,Marimba
237.33333333333334,0.0,36,31,Marimba
237.33333333333334,0.0,28,31,Marimba
237.66666666666666,0.11250281257031425,38,95,Marimba
237.66666666666666,0.2250056251406285,53,121,Marimba
237.66666666666666,0.2250056251406285,61,121,Marimba
237.66666666666666,0.2250056251406285,57,121,Marimba
237.66666666666666,0.2250056251406285,65,121,Marimba
238.0,0.3450126504638503,33,90,Marimba
238.0,0.46001686728513375,65,121,Marimba
238.0,0.3450126504638503,61,106,Marimba
238.0,0.3450126504638503,69,106,Marimba
238.0,0.3450126504638503,65,106,Marimba
238.0,0.3450126504638503,69,107,Marimba
238.0,0.3450126504638503,65,107,Marimba
238.0,0.3450126504638503,61,107,Marimba
238.0,0.0,42,102,Marimba
238.0,0.0,40,102,Marimba
238.33333333333334,0.0,28,34,Marimba
238.66666666666666,0.11500421682128344,61,87,Marimba
238.66666666666666,0.11500421682128344,65,87,Marimba
238.66666666666666,0.11500421682128344,53,87,Marimba
238.66666666666666,0.11500421682128344,57,87,Marimba
238.66666666666666,0.0,35,115,Marimba
239.0,0.33750843771094274,32,121,Marimba
239.0,0.450011250281257,64,123,Marimba
239.0,0.2250056251406285,53,96,Marimba
239.0,0.2250056251406285,65,96,Marimba
239.0,0.2250056251406285,57,96,Marimba
239.0,0.2250056251406285,62,96,Marimba
239.0,0.15000375009375233,69,78,Marimba
239.0,0.15000375009375233,65,78,Marimba
239.0,0.15000375009375233,62,60,Marimba
239.0,0.11250281257031425,65,95,Marimba
239.0,0.11250281257031425,62,95,Marimba
239.0,0.11250281257031425,69,95,Marimba
239.0,0.0,42,52,Marimba
239.0,0.0,36,52,Marimba
239.0,0.0,28,52,Marimba
239.33333333333334,0.0,40,84,Marimba
239.66666666666666,0.0,42,90,Marimba
239.75,0.0,54,45,Marimba
239.75,0.0,54,60,Marimba
240.0,0.46001686728513375,31,114,Marimba
240.0,0.46001686728513375,62,123,Marimba
240.0,0.3066779115234225,65,121,Marimba
240.0,0.3066779115234225,53,121,Marimba
240.0,0.3066779115234225,62,121,Marimba
240.0,0.23000843364256687,57,122,Marimba
240.0,0.23000843364256687,62,122,Marimba
240.0,0.3066779115234225,65,112,Marimba
240.0,0.3066779115234225,69,112,Marimba
240.0,0.3066779115234225,62,112,Marimba
240.0,0.0,64,98,Marimba
240.0,0.3450126504638503,65,107,Marimba
240.0,0.3450126504638503,62,107,Marimba
240.0,0.3450126504638503,69,107,Marimba
240.0,0.0,54,75,Marimba
240.0,0.0,42,88,Marimba
240.0,0.0,54,88,Marimba
240.0,0.0,35,88,Marimba
240.0,0.0,28,88,Marimba
240.0,0.0,54,75,Marimba
240.25,0.0,54,60,Marimba
240.25,0.0,54,36,Marimba
240.25,0.0,36,36,Marimba
240.66666666666666,0.0,42,71,Marimba
240.66666666666666,0.0,40,71,Marimba
240.66666666666666,0.0,28,71,Marimba
241.0,0.450011250281257,36,111,Marimba
241.0,0.450011250281257,62,123,Marimba
241.0,0.2250056251406285,55,107,Marimba
241.0,0.2250056251406285,64,107,Marimba
241.0,0.2250056251406285,62,107,Marimba
241.0,0.2250056251406285,52,107,Marimba
241.0,0.11250281257031425,67,76,Marimba
241.0,0.11250281257031425,64,76,Marimba
241.0,0.11250281257031425,62,76,Marimba
241.0,0.11250281257031425,64,100,Marimba
241.0,0.11250281257031425,67,100,Marimba
241.0,0.11250281257031425,62,100,Marimba
241.0,0.0,42,108,Marimba
241.0,0.0,35,108,Marimba
241.33333333333334,0.0,36,31,Marimba
241.33333333333334,0.0,28,31,Marimba
242.0,0.3066779115234225,60,122,Marimba
242.0,0.3450126504638503,52,118,Marimba
242.0,0.3450126504638503,64,118,Marimba
242.0,0.3450126504638503,55,118,Marimba
242.0,0.3450126504638503,62,118,Marimba
242.0,0.3450126504638503,64,118,Marimba
242.0,0.3450126504638503,67,118,Marimba
242.0,0.3450126504638503,62,118,Marimba
242.0,0.3450126504638503,64,108,Marimba
242.0,0.3450126504638503,67,108,Marimba
242.0,0.3450126504638503,62,108,Marimba
242.0,0.0,42,98,Marimba
242.0,0.0,40,98,Marimba
242.33333333333334,0.0,28,34,Marimba
242.66666666666666,1.3800506018554013,64,122,Marimba
242.66666666666666,0.0,35,117,Marimba
243.0,0.15000375009375233,64,84,Marimba
243.0,0.15000375009375233,52,84,Marimba
243.0,0.15000375009375233,55,84,Marimba
243.0,0.15000375009375233,60,84,Marimba
243.0,0.11250281257031425,64,80,Marimba
243.0,0.11250281257031425,60,80,Marimba
243.0,0.11250281257031425,67,80,Marimba
243.0,0.11250281257031425,64,92,Marimba
243.0,0.11250281257031425,60,92,Marimba
243.0,0.11250281257031425,67,92,Marimba
243.0,0.0,42,54,Marimba
243.0,0.0,36,54,Marimba
243.0,0.0,28,54,Marimba
243.66666666666666,0.0,42,87,Marimba
243.66666666666666,0.0,40,87,Marimba
244.0,0.450011250281257,55,118,Marimba
244.0,0.450011250281257,64,118,Marimba
244.0,0.450011250281257,60,118,Marimba
244.0,0.450011250281257,52,118,Marimba
244.0,0.33750843771094274,60,115,Marimba
244.0,0.33750843771094274,67,115,Marimba
244.0,0.33750843771094274,64,115,Marimba
244.0,0.33750843771094274,60,107,Marimba
244.0,0.33750843771094274,64,107,Marimba
244.0,0.33750843771094274,67,107,Marimba
244.0,0.0,42,64,Marimba
244.0,0.0,28,64,Marimba
244.66666666666666,0.15000375009375233,31,95,Marimba
245.0,0.3066779115234225,36,117,Marimba
245.0,0.11500421682128344,52,81,Marimba
245.0,0.11500421682128344,55,81,Marimba
245.0,0.11500421682128344,64,81,Marimba
245.0,0.11500421682128344,59,81,Marimba
245.0,0.11500421682128344,59,80,Marimba
245.0,0.11500421682128344,64,80,Marimba
245.0,0.11500421682128344,67,80,Marimba
245.0,0.11500421682128344,64,96,Marimba
245.0,0.11500421682128344,67,96,Marimba
245.0,0.11500421682128344,59,96,Marimba
245.0,0.0,42,114,Marimba
245.0,0.0,35,114,Marimba
245.33333333333334,0.0,36,31,Marimba
245.33333333333334,0.0,28,31,Marimba
245.66666666666666,0.11500421682128344,36,104,Marimba
245.66666666666666,0.23000843364256687,52,106,Marimba
245.66666666666666,0.23000843364256687,55,106,Marimba
245.66666666666666,0.23000843364256687,59,106,Marimba
245.66666666666666,0.23000843364256687,64,106,Marimba
246.0,0.33750843771094274,59,112,Marimba
246.0,0.33750843771094274,64,112,Marimba
246.0,0.33750843771094274,67,112,Marimba
246.0,0.33750843771094274,64,109,Marimba
246.0,0.33750843771094274,59,109,Marimba
246.0,0.33750843771094274,67,109,Marimba
246.0,0.0,42,100,Marimba
246.0,0.0,40,100,Marimba
246.33333333333334,0.0,28,34,Marimba
246.66666666666666,0.15000375009375233,55,117,Marimba
246.66666666666666,0.11250281257031425,64,96,Marimba
246.66666666666666,0.11250281257031425,52,96,Marimba
246.66666666666666,0.11250281257031425,59,96,Marimba
246.66666666666666,0.11250281257031425,55,96,Marimba
247.0,0.3066779115234225,57,122,Marimba
247.0,0.15333895576171125,64,92,Marimba
247.0,0.15333895576171125,55,92,Marimba
247.0,0.15333895576171125,60,92,Marimba
247.0,0.11500421682128344,52,90,Marimba
247.0,0.15333895576171125,60,85,Marimba
247.0,0.15333895576171125,64,85,Marimba
247.0,0.15333895576171125,67,85,Marimba
247.0,0.11500421682128344,60,97,Marimba
247.0,0.11500421682128344,64,97,Marimba
247.0,0.11500421682128344,67,97,Marimba
247.0,0.0,42,88,Marimba
247.0,0.0,35,88,Marimba
247.0,0.0,28,88,Marimba
247.33333333333334,0.0,36,28,Marimba
247.66666666666666,0.15333895576171125,59,122,Marimba
247.75,0.0,54,45,Marimba
247.75,0.0,54,60,Marimba
248.0,0.450011250281257,31,120,Marimba
248.0,0.30000750018750466,60,119,Marimba
248.0,0.30000750018750466,64,120,Marimba
248.0,0.30000750018750466,60,120,Marimba
248.0,0.30000750018750466,52,120,Marimba
248.0,0.2250056251406285,55,122,Marimba
248.0,0.2250056251406285,60,122,Marimba
248.0,0.33750843771094274,60,104,Marimba
248.0,0.33750843771094274,64,104,Marimba
248.0,0.33750843771094274,67,104,Marimba
248.0,0.33750843771094274,60,106,Marimba
248.0,0.33750843771094274,64,106,Marimba
248.0,0.33750843771094274,67,106,Marimba
248.0,0.0,54,75,Marimba
248.0,0.0,46,78,Marimba
248.0,0.0,54,78,Marimba
248.0,0.0,40,78,Marimba
248.0,0.0,28,78,Marimba
248.0,0.0,54,75,Marimba
248.25,0.0,54,60,Marimba
248.25,0.0,54,45,Marimba
248.66666666666666,0.15000375009375233,62,117,Marimba
248.66666666666666,0.0,35,84,Marimba
249.0,0.3066779115234225,38,121,Marimba
249.0,0.3450126504638503,64,121,Marimba
249.0,0.23000843364256687,65,103,Marimba
249.0,0.23000843364256687,53,103,Marimba
249.0,0.23000843364256687,64,103,Marimba
249.0,0.23000843364256687,57,103,Marimba
249.0,0.11500421682128344,69,88,Marimba
249.0,0.11500421682128344,65,88,Marimba
249.0,0.11500421682128344,64,88,Marimba
249.0,0.11500421682128344,65,91,Marimba
249.0,0.11500421682128344,64,91,Marimba
249.0,0.11500421682128344,69,91,Marimba
249.0,0.0,42,85,Marimba
249.0,0.0,36,85,Marimba
249.0,0.0,35,85,Marimba
249.33333333333334,0.0,28,31,Marimba
249.33333333333334,0.0,36,31,Marimba
249.66666666666666,0.23000843364256687,57,86,Marimba
249.66666666666666,0.23000843364256687,65,86,Marimba
249.66666666666666,0.23000843364256687,64,86,Marimba
249.66666666666666,0.23000843364256687,53,86,Marimba
250.0,0.33750843771094274,55,117,Marimba
250.0,0.33750843771094274,64,113,Marimba
250.0,0.33750843771094274,65,113,Marimba
250.0,0.33750843771094274,69,113,Marimba
250.0,0.33750843771094274,65,101,Marimba
250.0,0.33750843771094274,64,101,Marimba
250.0,0.33750843771094274,69,101,Marimba
250.0,0.0,42,79,Marimba
250.0,0.0,40,79,Marimba
250.0,0.0,28,79,Marimba
250.66666666666666,0.5625140628515712,57,122,Marimba
250.66666666666666,0.15000375009375233,65,113,Marimba
250.66666666666666,0.15000375009375233,64,113,Marimba
250.66666666666666,0.15000375009375233,57,113,Marimba
250.66666666666666,0.15000375009375233,53,113,Marimba
250.66666666666666,0.0,35,111,Marimba
251.0,0.15333895576171125,53,95,Marimba
251.0,0.15333895576171125,62,95,Marimba
251.0,0.15333895576171125,65,95,Marimba
251.0,0.15333895576171125,57,95,Marimba
251.0,0.11500421682128344,65,86,Marimba
251.0,0.11500421682128344,62,86,Marimba
251.0,0.11500421682128344,69,86,Marimba
251.0,0.11500421682128344,65,90,Marimba
251.0,0.11500421682128344,69,90,Marimba
251.0,0.11500421682128344,62,90,Marimba
251.0,0.0,42,55,Marimba
251.0,0.0,36,55,Marimba
251.0,0.0,28,55,Marimba
251.66666666666666,0.0,40,84,Marimba
252.0,0.30000750018750466,67,121,Marimba
252.0,0.33750843771094274,53,119,Marimba
252.0,0.33750843771094274,65,119,Marimba
252.0,0.33750843771094274,57,119,Marimba
252.0,0.33750843771094274,62,119,Marimba
252.0,0.450011250281257,62,110,Marimba
252.0,0.450011250281257,65,110,Marimba
252.0,0.450011250281257,69,110,Marimba
252.0,0.33750843771094274,65,106,Marimba
252.0,0.33750843771094274,62,106,Marimba
252.0,0.33750843771094274,69,106,Marimba
252.0,0.0,42,77,Marimba
252.0,0.0,28,77,Marimba
252.66666666666666,0.15000375009375233,33,114,Marimba
252.66666666666666,0.5625140628515712,65,122,Marimba
253.0,0.3066779115234225,38,117,Marimba
253.0,0.15333895576171125,53,98,Marimba
253.0,0.15333895576171125,65,98,Marimba
253.0,0.15333895576171125,61,98,Marimba
253.0,0.15333895576171125,57,98,Marimba
253.0,0.11500421682128344,65,67,Marimba
253.0,0.11500421682128344,69,67,Marimba
253.0,0.11500421682128344,61,67,Marimba
253.0,0.11500421682128344,65,92,Marimba
253.0,0.11500421682128344,69,92,Marimba
253.0,0.11500421682128344,61,92,Marimba
253.0,0.0,42,86,Marimba
253.0,0.0,35,86,Marimba
253.0,0.0,28,86,Marimba
253.33333333333334,0.0,36,31,Marimba
253.33333333333334,0.0,28,31,Marimba
253.66666666666666,0.11500421682128344,38,111,Marimba
253.66666666666666,0.23000843364256687,53,121,Marimba
253.66666666666666,0.23000843364256687,61,121,Marimba
253.66666666666666,0.23000843364256687,57,121,Marimba
253.66666666666666,0.23000843364256687,65,121,Marimba
254.0,0.450011250281257,67,123,Marimba
254.0,0.33750843771094274,61,106,Marimba
254.0,0.33750843771094274,69,106,Marimba
254.0,0.33750843771094274,65,106,Marimba
254.0,0.33750843771094274,65,106,Marimba
254.0,0.33750843771094274,61,106,Marimba
254.0,0.33750843771094274,69,106,Marimba
254.0,0.0,42,78,Marimba
254.0,0.0,40,78,Marimba
254.0,0.0,28,78,Marimba
254.66666666666666,0.11250281257031425,61,87,Marimba
254.66666666666666,0.11250281257031425,65,87,Marimba
254.66666666666666,0.11250281257031425,53,87,Marimba
254.66666666666666,0.11250281257031425,57,87,Marimba
254.66666666666666,0.0,35,115,Marimba
255.0,0.46001686728513375,69,119,Marimba
255.0,0.23000843364256687,53,98,Marimba
255.0,0.23000843364256687,65,98,Marimba
255.0,0.23000843364256687,62,98,Marimba
255.0,0.23000843364256687,57,97,Marimba
255.0,0.23000843364256687,62,97,Marimba
255.0,0.15333895576171125,69,78,Marimba
255.0,0.15333895576171125,65,78,Marimba
255.0,0.15333895576171125,62,60,Marimba
255.0,0.11500421682128344,65,85,Marimba
255.0,0.11500421682128344,62,85,Marimba
255.0,0.11500421682128344,69,85,Marimba
255.0,0.0,42,52,Marimba
255.0,0.0,36,52,Marimba
255.0,0.0,28,52,Marimba
255.33333333333334,0.0,40,59,Marimba
255.33333333333334,0.0,28,59,Marimba
255.66666666666666,0.0,42,90,Marimba
255.75,0.0,54,45,Marimba
255.75,0.0,54,60,Marimba
256.0,0.450011250281257,31,117,Marimba
256.0,0.30000750018750466,76,123,Marimba
256.0,0.30000750018750466,65,121,Marimba
256.0,0.30000750018750466,53,121,Marimba
256.0,0.30000750018750466,62,121,Marimba
256.0,0.2250056251406285,57,122,Marimba
256.0,0.2250056251406285,62,122,Marimba
256.0,0.30000750018750466,65,112,Marimba
256.0,0.30000750018750466,69,112,Marimba
256.0,0.30000750018750466,62,112,Marimba
256.0,0.0,64,98,Marimba
256.0,0.30000750018750466,62,114,Marimba
256.0,0.30000750018750466,65,114,Marimba
256.0,0.30000750018750466,69,114,Marimba
256.0,0.0,54,75,Marimba
256.0,0.0,46,85,Marimba
256.0,0.0,54,85,Marimba
256.0,0.0,35,85,Marimba
256.0,0.0,40,85,Marimba
256.0,0.0,28,85,Marimba
256.25,0.0,54,75,Marimba
256.25,0.0,54,60,Marimba
256.3333333333333,0.0,54,36,Marimba
256.3333333333333,0.0,36,36,Marimba
256.6666666666667,0.450011250281257,74,123,Marimba
256.6666666666667,0.0,40,84,Marimba
257.0,0.450011250281257,36,122,Marimba
257.0,0.2250056251406285,55,107,Marimba
257.0,0.2250056251406285,64,107,Marimba
257.0,0.2250056251406285,62,107,Marimba
257.0,0.2250056251406285,52,107,Marimba
257.0,0.11250281257031425,67,76,Marimba
257.0,0.11250281257031425,64,76,Marimba
257.0,0.11250281257031425,62,76,Marimba
257.0,0.11250281257031425,67,97,Marimba
257.0,0.11250281257031425,64,97,Marimba
257.0,0.11250281257031425,62,97,Marimba
257.0,0.0,42,87,Marimba
257.0,0.0,35,87,Marimba
257.0,0.0,28,87,Marimba
257.3333333333333,0.0,36,28,Marimba
257.6666666666667,0.0,28,34,Marimba
258.0,0.3066779115234225,76,121,Marimba
258.0,0.3450126504638503,52,118,Marimba
258.0,0.3450126504638503,64,118,Marimba
258.0,0.3450126504638503,55,118,Marimba
258.0,0.3450126504638503,62,118,Marimba
258.0,0.3450126504638503,64,118,Marimba
258.0,0.3450126504638503,67,118,Marimba
258.0,0.3450126504638503,62,118,Marimba
258.0,0.3450126504638503,64,116,Marimba
258.0,0.3450126504638503,67,116,Marimba
258.0,0.3450126504638503,62,116,Marimba
258.0,0.0,42,77,Marimba
258.0,0.0,40,77,Marimba
258.0,0.0,28,77,Marimba
258.6666666666667,1.9550716859618185,67,120,Marimba
258.6666666666667,0.0,35,117,Marimba
259.0,0.15000375009375233,64,84,Marimba
259.0,0.15000375009375233,52,84,Marimba
259.0,0.15000375009375233,55,84,Marimba
259.0,0.15000375009375233,60,84,Marimba
259.0,0.11250281257031425,64,80,Marimba
259.0,0.11250281257031425,60,80,Marimba
259.0,0.11250281257031425,67,80,Marimba
259.0,0.11250281257031425,60,100,Marimba
259.0,0.11250281257031425,64,100,Marimba
259.0,0.11250281257031425,67,100,Marimba
259.0,0.0,42,58,Marimba
259.0,0.0,36,58,Marimba
259.0,0.0,28,58,Marimba
259.6666666666667,0.0,42,79,Marimba
259.6666666666667,0.0,40,79,Marimba
260.0,0.46001686728513375,55,118,Marimba
260.0,0.46001686728513375,64,118,Marimba
260.0,0.46001686728513375,60,118,Marimba
260.0,0.46001686728513375,52,118,Marimba
260.0,0.3450126504638503,60,115,Marimba
260.0,0.3450126504638503,67,115,Marimba
260.0,0.3450126504638503,64,115,Marimba
260.0,0.3450126504638503,67,112,Marimba
260.0,0.3450126504638503,60,112,Marimba
260.0,0.3450126504638503,64,112,Marimba
260.0,0.0,42,72,Marimba
260.0,0.0,28,72,Marimba
260.6666666666667,0.15333895576171125,31,117,Marimba
260.6666666666667,0.0,28,34,Marimba
261.0,0.30000750018750466,36,121,Marimba
261.0,0.11250281257031425,52,81,Marimba
261.0,0.11250281257031425,55,81,Marimba
261.0,0.11250281257031425,64,81,Marimba
261.0,0.11250281257031425,59,81,Marimba
261.0,0.11250281257031425,59,80,Marimba
261.0,0.11250281257031425,64,80,Marimba
261.0,0.11250281257031425,67,80,Marimba
261.0,0.11250281257031425,59,101,Marimba
261.0,0.11250281257031425,67,101,Marimba
261.0,0.11250281257031425,64,101,Marimba
261.0,0.0,42,114,Marimba
261.0,0.0,35,114,Marimba
261.3333333333333,0.0,36,28,Marimba
261.6666666666667,0.11250281257031425,36,122,Marimba
261.6666666666667,0.2250056251406285,52,106,Marimba
261.6666666666667,0.2250056251406285,55,106,Marimba
261.6666666666667,0.2250056251406285,59,106,Marimba
261.6666666666667,0.2250056251406285,64,106,Marimba
261.6666666666667,0.0,28,34,Marimba
262.0,0.3450126504638503,59,112,Marimba
262.0,0.3450126504638503,64,112,Marimba
262.0,0.3450126504638503,67,112,Marimba
262.0,0.3450126504638503,64,112,Marimba
262.0,0.3450126504638503,67,112,Marimba
262.0,0.3450126504638503,59,112,Marimba
262.0,0.0,42,100,Marimba
262.0,0.0,40,100,Marimba
262.3333333333333,0.0,28,34,Marimba
262.6666666666667,0.3450126504638503,36,96,Marimba
262.6666666666667,0.11500421682128344,64,96,Marimba
262.6666666666667,0.11500421682128344,52,96,Marimba
262.6666666666667,0.11500421682128344,59,96,Marimba
262.6666666666667,0.11500421682128344,55,96,Marimba
263.0,0.15000375009375233,64,92,Marimba
263.0,0.15000375009375233,55,92,Marimba
263.0,0.15000375009375233,60,92,Marimba
263.0,0.11250281257031425,52,90,Marimba
263.0,0.15000375009375233,60,85,Marimba
263.0,0.15000375009375233,64,85,Marimba
263.0,0.15000375009375233,67,85,Marimba
263.0,0.11250281257031425,60,91,Marimba
263.0,0.11250281257031425,64,91,Marimba
263.0,0.11250281257031425,67,91,Marimba
263.0,0.0,42,87,Marimba
263.0,0.0,35,87,Marimba
263.0,0.0,28,87,Marimba
263.3333333333333,0.0,36,28,Marimba
263.6666666666667,0.0,42,72,Marimba
263.75,0.0,54,45,Marimba
263.75,0.0,54,60,Marimba
264.0,0.3066779115234225,64,120,Marimba
264.0,0.3066779115234225,60,120,Marimba
264.0,0.3066779115234225,52,120,Marimba
264.0,0.23000843364256687,55,122,Marimba
264.0,0.23000843364256687,60,122,Marimba
264.0,0.3450126504638503,60,104,Marimba
264.0,0.3450126504638503,64,104,Marimba
264.0,0.3450126504638503,67,104,Marimba
264.0,0.3450126504638503,60,109,Marimba
264.0,0.3450126504638503,64,109,Marimba
264.0,0.3450126504638503,67,109,Marimba
264.0,0.0,54,75,Marimba
264.0,0.0,46,78,Marimba
264.0,0.0,54,78,Marimba
264.0,0.0,40,78,Marimba
264.0,0.0,28,78,Marimba
264.0,0.0,54,75,Marimba
264.25,0.0,54,60,Marimba
264.25,0.0,54,45,Marimba
264.6666666666667,0.15333895576171125,31,111,Marimba
264.6666666666667,0.0,35,59,Marimba
264.6666666666667,0.0,28,59,Marimba
265.0,0.450011250281257,38,112,Marimba
265.0,0.2250056251406285,65,103,Marimba
265.0,0.2250056251406285,53,103,Marimba
265.0,0.2250056251406285,64,103,Marimba
265.0,0.2250056251406285,57,103,Marimba
265.0,0.11250281257031425,69,88,Marimba
265.0,0.11250281257031425,65,88,Marimba
265.0,0.11250281257031425,64,88,Marimba
265.0,0.11250281257031425,65,101,Marimba
265.0,0.11250281257031425,69,101,Marimba
265.0,0.11250281257031425,64,101,Marimba
265.0,0.0,42,69,Marimba
265.0,0.0,36,69,Marimba
265.0,0.0,35,69,Marimba
265.0,0.0,28,69,Marimba
265.3333333333333,0.0,36,28,Marimba
265.6666666666667,0.11250281257031425,67,107,Marimba
265.6666666666667,0.30000750018750466,57,86,Marimba
265.6666666666667,0.30000750018750466,65,86,Marimba
265.6666666666667,0.30000750018750466,64,86,Marimba
265.6666666666667,0.30000750018750466,53,86,Marimba
266.0,0.15000375009375233,79,116,Marimba
266.0,0.33750843771094274,64,113,Marimba
266.0,0.33750843771094274,65,113,Marimba
266.0,0.33750843771094274,69,113,Marimba
266.0,0.33750843771094274,65,108,Marimba
266.0,0.33750843771094274,64,108,Marimba
266.0,0.33750843771094274,69,108,Marimba
266.0,0.0,42,79,Marimba
266.0,0.0,40,79,Marimba
266.0,0.0,28,79,Marimba
266.6666666666667,0.11250281257031425,67,107,Marimba
266.6666666666667,0.15000375009375233,65,113,Marimba
266.6666666666667,0.15000375009375233,64,113,Marimba
266.6666666666667,0.15000375009375233,57,113,Marimba
266.6666666666667,0.15000375009375233,53,113,Marimba
266.6666666666667,0.0,35,111,Marimba
267.0,0.23000843364256687,74,112,Marimba
267.0,0.15333895576171125,53,95,Marimba
267.0,0.15333895576171125,62,95,Marimba
267.0,0.15333895576171125,65,95,Marimba
267.0,0.15333895576171125,57,95,Marimba
267.0,0.11500421682128344,65,86,Marimba
267.0,0.11500421682128344,62,86,Marimba
267.0,0.11500421682128344,69,86,Marimba
267.0,0.11500421682128344,62,100,Marimba
267.0,0.11500421682128344,65,100,Marimba
267.0,0.11500421682128344,69,100,Marimba
267.0,0.0,42,58,Marimba
267.0,0.0,36,58,Marimba
267.0,0.0,28,58,Marimba
267.3333333333333,0.0,28,34,Marimba
267.6666666666667,0.11500421682128344,76,107,Marimba
267.6666666666667,0.0,40,99,Marimba
268.0,0.33750843771094274,53,119,Marimba
268.0,0.33750843771094274,65,119,Marimba
268.0,0.33750843771094274,57,119,Marimba
268.0,0.33750843771094274,62,119,Marimba
268.0,0.450011250281257,62,110,Marimba
268.0,0.450011250281257,65,110,Marimba
268.0,0.450011250281257,69,110,Marimba
268.0,0.33750843771094274,65,109,Marimba
268.0,0.33750843771094274,62,109,Marimba
268.0,0.33750843771094274,69,109,Marimba
268.0,0.0,42,76,Marimba
268.0,0.0,28,76,Marimba
268.6666666666667,0.11250281257031425,67,97,Marimba
268.6666666666667,0.11250281257031425,33,95,Marimba
268.6666666666667,0.0,28,34,Marimba
269.0,0.23000843364256687,79,116,Marimba
269.0,0.23000843364256687,38,120,Marimba
269.0,0.15333895576171125,53,98,Marimba
269.0,0.15333895576171125,65,98,Marimba
269.0,0.15333895576171125,61,98,Marimba
269.0,0.15333895576171125,57,98,Marimba
269.0,0.11500421682128344,65,67,Marimba
269.0,0.11500421682128344,69,67,Marimba
269.0,0.11500421682128344,61,67,Marimba
269.0,0.11500421682128344,65,93,Marimba
269.0,0.11500421682128344,69,93,Marimba
269.0,0.11500421682128344,61,93,Marimba
269.0,0.0,42,110,Marimba
269.0,0.0,35,110,Marimba
269.3333333333333,0.0,36,31,Marimba
269.3333333333333,0.0,28,31,Marimba
269.6666666666667,0.11500421682128344,67,97,Marimba
269.6666666666667,0.11500421682128344,38,95,Marimba
269.6666666666667,0.23000843364256687,53,121,Marimba
269.6666666666667,0.23000843364256687,61,121,Marimba
269.6666666666667,0.23000843364256687,57,121,Marimba
269.6666666666667,0.23000843364256687,65,121,Marimba
270.0,0.2250056251406285,76,124,Marimba
270.0,0.33750843771094274,33,90,Marimba
270.0,0.450011250281257,61,106,Marimba
270.0,0.450011250281257,69,106,Marimba
270.0,0.450011250281257,65,106,Marimba
270.0,0.33750843771094274,69,107,Marimba
270.0,0.33750843771094274,65,107,Marimba
270.0,0.33750843771094274,61,107,Marimba
270.0,0.0,42,102,Marimba
270.0,0.0,40,102,Marimba
270.3333333333333,0.0,28,34,Marimba
270.6666666666667,0.11250281257031425,74,120,Marimba
270.6666666666667,0.11250281257031425,61,87,Marimba
270.6666666666667,0.11250281257031425,65,87,Marimba
270.6666666666667,0.11250281257031425,53,87,Marimba
270.6666666666667,0.11250281257031425,57,87,Marimba
270.6666666666667,0.0,38,88,Marimba
270.6666666666667,0.0,35,88,Marimba
271.0,0.3450126504638503,32,121,Marimba
271.0,0.23000843364256687,53,96,Marimba
271.0,0.23000843364256687,65,96,Marimba
271.0,0.23000843364256687,57,96,Marimba
271.0,0.23000843364256687,62,96,Marimba
271.0,0.15333895576171125,69,78,Marimba
271.0,0.15333895576171125,65,78,Marimba
271.0,0.15333895576171125,62,60,Marimba
271.0,0.11500421682128344,65,95,Marimba
271.0,0.11500421682128344,62,95,Marimba
271.0,0.11500421682128344,69,95,Marimba
271.0,0.0,42,52,Marimba
271.0,0.0,36,52,Marimba
271.0,0.0,28,52,Marimba
271.3333333333333,0.0,40,82,Marimba
271.3333333333333,0.0,38,82,Marimba
271.6666666666667,0.15333895576171125,67,116,Marimba
271.6666666666667,0.0,42,81,Marimba
271.6666666666667,0.0,38,81,Marimba
271.75,0.0,54,45,Marimba
271.75,0.0,54,60,Marimba
272.0,0.33750843771094274,31,114,Marimba
272.0,0.30000750018750466,65,121,Marimba
272.0,0.30000750018750466,53,121,Marimba
272.0,0.30000750018750466,62,121,Marimba
272.0,0.2250056251406285,57,122,Marimba
272.0,0.2250056251406285,62,122,Marimba
272.0,0.30000750018750466,65,112,Marimba
272.0,0.30000750018750466,69,112,Marimba
272.0,0.30000750018750466,62,112,Marimba
272.0,0.0,64,98,Marimba
272.0,0.33750843771094274,65,107,Marimba
272.0,0.33750843771094274,62,107,Marimba
272.0,0.33750843771094274,69,107,Marimba
272.0,0.0,54,75,Marimba
272.0,0.0,41,91,Marimba
272.0,0.0,42,91,Marimba
272.0,0.0,54,91,Marimba
272.0,0.0,35,91,Marimba
272.0,0.0,28,91,Marimba
272.25,0.0,54,75,Marimba
272.25,0.0,54,60,Marimba
272.3333333333333,0.0,54,36,Marimba
272.3333333333333,0.0,36,36,Marimba
272.6666666666667,0.0,42,71,Marimba
272.6666666666667,0.0,40,71,Marimba
272.6666666666667,0.0,28,71,Marimba
273.0,0.3066779115234225,64,112,Marimba
273.0,0.3450126504638503,41,120,Marimba
273.0,0.23000843364256687,53,98,Marimba
273.0,0.23000843364256687,57,98,Marimba
273.0,0.23000843364256687,60,98,Marimba
273.0,0.23000843364256687,64,98,Marimba
273.0,0.3066779115234225,65,117,Marimba
273.0,0.11500421682128344,60,98,Marimba
273.0,0.11500421682128344,64,98,Marimba
273.0,0.11500421682128344,65,98,Marimba
273.0,0.11500421682128344,69,98,Marimba
273.0,1.840067469140535,41,86,Marimba
273.0,0.0,42,82,Marimba
273.0,0.0,49,82,Marimba
273.0,0.0,53,82,Marimba
273.0,0.0,35,82,Marimba
273.0,0.0,28,82,Marimba
273.3333333333333,0.0,36,28,Marimba
273.6666666666667,0.15333895576171125,65,108,Marimba
273.6666666666667,0.11500421682128344,57,62,Marimba
273.6666666666667,0.0,28,34,Marimba
274.0,0.30000750018750466,69,98,Marimba
274.0,0.30000750018750466,40,122,Marimba
274.0,0.2250056251406285,53,114,Marimba
274.0,0.2250056251406285,60,114,Marimba
274.0,0.2250056251406285,57,114,Marimba
274.0,0.2250056251406285,64,114,Marimba
274.0,0.2250056251406285,60,120,Marimba
274.0,0.33750843771094274,60,102,Marimba
274.0,0.33750843771094274,65,102,Marimba
274.0,0.33750843771094274,64,102,Marimba
274.0,0.33750843771094274,69,102,Marimba
274.0,0.0,42,78,Marimba
274.0,0.0,53,78,Marimba
274.0,0.0,40,78,Marimba
274.0,0.0,28,78,Marimba
274.6666666666667,0.11250281257031425,72,85,Marimba
274.6666666666667,0.2250056251406285,41,87,Marimba
274.6666666666667,0.11250281257031425,60,77,Marimba
274.6666666666667,0.11250281257031425,57,77,Marimba
274.6666666666667,0.11250281257031425,53,77,Marimba
274.6666666666667,0.11250281257031425,64,77,Marimba
274.6666666666667,0.2250056251406285,65,111,Marimba
274.6666666666667,0.0,35,117,Marimba
275.0,0.3066779115234225,76,108,Marimba
275.0,0.15333895576171125,60,69,Marimba
275.0,0.15333895576171125,57,69,Marimba
275.0,0.15333895576171125,64,69,Marimba
275.0,0.15333895576171125,53,69,Marimba
275.0,0.11500421682128344,64,96,Marimba
275.0,0.11500421682128344,60,96,Marimba
275.0,0.11500421682128344,65,96,Marimba
275.0,0.11500421682128344,69,96,Marimba
275.0,0.0,42,64,Marimba
275.0,0.0,53,64,Marimba
275.0,0.0,36,64,Marimba
275.0,0.0,28,64,Marimba
275.6666666666667,0.15333895576171125,72,114,Marimba
275.6666666666667,0.46001686728513375,36,120,Marimba
275.6666666666667,0.23000843364256687,53,113,Marimba
275.6666666666667,0.23000843364256687,57,113,Marimba
275.6666666666667,0.23000843364256687,60,113,Marimba
275.6666666666667,0.23000843364256687,64,113,Marimba
275.6666666666667,0.11500421682128344,57,83,Marimba
275.6666666666667,0.0,42,79,Marimba
275.6666666666667,0.0,40,79,Marimba
276.0,0.30000750018750466,60,117,Marimba
276.0,0.33750843771094274,60,98,Marimba
276.0,0.33750843771094274,65,98,Marimba
276.0,0.33750843771094274,64,98,Marimba
276.0,0.33750843771094274,69,98,Marimba
276.0,0.0,48,79,Marimba
276.0,0.0,53,79,Marimba
276.0,0.0,42,79,Marimba
276.0,0.0,28,79,Marimba
276.3333333333333,0.11250281257031425,57,55,Marimba
276.3333333333333,0.11250281257031425,60,55,Marimba
276.3333333333333,0.11250281257031425,53,55,Marimba
276.6666666666667,0.11250281257031425,69,108,Marimba
276.6666666666667,0.15000375009375233,29,95,Marimba
276.6666666666667,0.11250281257031425,60,88,Marimba
276.6666666666667,0.11250281257031425,57,88,Marimba
276.6666666666667,0.11250281257031425,53,88,Marimba
276.6666666666667,0.11250281257031425,64,88,Marimba
276.6666666666667,0.15000375009375233,65,65,Marimba
276.6666666666667,0.0,28,34,Marimba
277.0,0.33750843771094274,71,111,Marimba
277.0,0.450011250281257,31,112,Marimba
277.0,0.2250056251406285,62,94,Marimba
277.0,0.2250056251406285,59,94,Marimba
277.0,0.2250056251406285,53,94,Marimba
277.0,0.2250056251406285,57,94,Marimba
277.0,0.2250056251406285,57,111,Marimba
277.0,0.11250281257031425,65,101,Marimba
277.0,0.11250281257031425,59,101,Marimba
277.0,0.11250281257031425,62,101,Marimba
277.0,0.11250281257031425,69,101,Marimba
277.0,1.800045001125028,43,85,Marimba
277.0,0.0,53,102,Marimba
277.0,0.0,42,102,Marimba
277.0,0.0,35,102,Marimba
277.3333333333333,0.0,36,28,Marimba
277.6666666666667,0.11250281257031425,59,86,Marimba
277.6666666666667,0.0,28,34,Marimba
278.0,0.3450126504638503,72,120,Marimba
278.0,0.46001686728513375,33,120,Marimba
278.0,0.3066779115234225,53,112,Marimba
278.0,0.3066779115234225,57,112,Marimba
278.0,0.3066779115234225,59,112,Marimba
278.0,0.3066779115234225,62,112,Marimba
278.0,0.23000843364256687,62,100,Marimba
278.0,0.3450126504638503,59,102,Marimba
278.0,0.3450126504638503,62,102,Marimba
278.0,0.3450126504638503,69,102,Marimba
278.0,0.3450126504638503,65,102,Marimba
278.0,0.0,53,94,Marimba
278.0,0.0,42,94,Marimba
278.0,0.0,40,94,Marimba
278.3333333333333,0.0,28,34,Marimba
278.6666666666667,0.11500421682128344,62,79,Marimba
278.6666666666667,0.11500421682128344,57,79,Marimba
278.6666666666667,0.11500421682128344,53,79,Marimba
278.6666666666667,0.11500421682128344,59,79,Marimba
278.6666666666667,0.3066779115234225,67,112,Marimba
279.0,0.33750843771094274,74,121,Marimba
279.0,0.450011250281257,35,122,Marimba
279.0,0.15000375009375233,62,74,Marimba
279.0,0.15000375009375233,57,74,Marimba
279.0,0.15000375009375233,59,74,Marimba
279.0,0.15000375009375233,53,74,Marimba
279.0,0.11250281257031425,59,95,Marimba
279.0,0.11250281257031425,62,95,Marimba
279.0,0.11250281257031425,65,95,Marimba
279.0,0.11250281257031425,69,95,Marimba
279.0,0.0,53,84,Marimba
279.0,0.0,42,84,Marimba
279.0,0.0,35,84,Marimba
279.0,0.0,28,84,Marimba
279.3333333333333,0.0,36,28,Marimba
279.6666666666667,0.2250056251406285,53,106,Marimba
279.6666666666667,0.2250056251406285,59,106,Marimba
279.6666666666667,0.2250056251406285,57,106,Marimba
279.6666666666667,0.2250056251406285,62,106,Marimba
279.6666666666667,0.11250281257031425,57,100,Marimba
279.6666666666667,0.0,42,72,Marimba
279.75,0.0,54,45,Marimba
279.75,0.0,54,60,Marimba
280.0,0.3066779115234225,81,108,Marimba
280.0,0.46001686728513375,31,117,Marimba
280.0,0.3066779115234225,59,112,Marimba
280.0,0.3450126504638503,59,105,Marimba
280.0,0.3450126504638503,65,105,Marimba
280.0,0.3450126504638503,62,105,Marimba
280.0,0.3450126504638503,69,105,Marimba
280.0,0.0,54,75,Marimba
280.0,0.0,53,78,Marimba
280.0,0.0,46,78,Marimba
280.0,0.0,54,78,Marimba
280.0,0.0,40,78,Marimba
280.0,0.0,28,78,Marimba
280.0,0.0,54,75,Marimba
280.25,0.0,54,60,Marimba
280.25,0.0,54,45,Marimba
280.6666666666667,0.0,80,90,Marimba
280.6666666666667,0.11500421682128344,53,104,Marimba
280.6666666666667,0.11500421682128344,57,104,Marimba
280.6666666666667,0.11500421682128344,62,104,Marimba
280.6666666666667,0.11500421682128344,59,104,Marimba
280.6666666666667,0.11500421682128344,67,104,Marimba
280.6666666666667,0.0,35,59,Marimba
280.6666666666667,0.0,28,59,Marimba
281.0,0.33750843771094274,79,108,Marimba
281.0,0.450011250281257,36,114,Marimba
281.0,0.2250056251406285,52,90,Marimba
281.0,0.2250056251406285,55,90,Marimba
281.0,0.2250056251406285,59,90,Marimba
281.0,0.2250056251406285,62,90,Marimba
281.0,0.2250056251406285,55,114,Marimba
281.0,0.11250281257031425,60,92,Marimba
281.0,0.11250281257031425,64,92,Marimba
281.0,0.11250281257031425,71,92,Marimba
281.0,0.11250281257031425,67,92,Marimba
281.0,1.800045001125028,48,70,Marimba
281.0,0.0,53,71,Marimba
281.0,0.0,42,71,Marimba
281.0,0.0,36,71,Marimba
281.0,0.0,35,71,Marimba
281.0,0.0,28,71,Marimba
281.3333333333333,0.0,36,28,Marimba
281.6666666666667,0.11250281257031425,59,95,Marimba
282.0,0.3450126504638503,76,120,Marimba
282.0,0.3066779115234225,38,121,Marimba
282.0,0.23000843364256687,52,110,Marimba
282.0,0.23000843364256687,55,110,Marimba
282.0,0.23000843364256687,59,110,Marimba
282.0,0.23000843364256687,62,110,Marimba
282.0,0.23000843364256687,62,120,Marimba
282.0,0.3450126504638503,62,110,Marimba
282.0,0.3450126504638503,71,110,Marimba
282.0,0.3450126504638503,64,110,Marimba
282.0,0.3450126504638503,67,110,Marimba
282.0,0.0,53,80,Marimba
282.0,0.0,42,80,Marimba
282.0,0.0,40,80,Marimba
282.0,0.0,28,80,Marimba
282.6666666666667,0.11500421682128344,39,108,Marimba
282.6666666666667,0.0,55,74,Marimba
282.6666666666667,0.0,52,74,Marimba
282.6666666666667,0.0,59,74,Marimba
282.6666666666667,0.0,62,74,Marimba
282.6666666666667,0.11500421682128344,55,104,Marimba
282.6666666666667,0.0,35,111,Marimba
283.0,0.2250056251406285,79,121,Marimba
283.0,0.33750843771094274,40,108,Marimba
283.0,0.15000375009375233,55,77,Marimba
283.0,0.15000375009375233,59,77,Marimba
283.0,0.15000375009375233,52,77,Marimba
283.0,0.15000375009375233,62,77,Marimba
283.0,0.2250056251406285,59,114,Marimba
283.0,0.11250281257031425,71,88,Marimba
283.0,0.11250281257031425,64,88,Marimba
283.0,0.11250281257031425,67,88,Marimba
283.0,0.11250281257031425,62,88,Marimba
283.0,0.0,53,65,Marimba
283.0,0.0,42,65,Marimba
283.0,0.0,36,65,Marimba
283.0,0.0,28,65,Marimba
283.3333333333333,0.0,28,34,Marimba
283.6666666666667,0.2250056251406285,81,104,Marimba
283.6666666666667,0.30000750018750466,52,100,Marimba
283.6666666666667,0.30000750018750466,55,100,Marimba
283.6666666666667,0.30000750018750466,59,100,Marimba
283.6666666666667,0.30000750018750466,62,100,Marimba
283.6666666666667,0.15000375009375233,62,121,Marimba
283.6666666666667,0.0,40,99,Marimba
284.0,0.46001686728513375,31,117,Marimba
284.0,0.3450126504638503,62,116,Marimba
284.0,0.3450126504638503,64,116,Marimba
284.0,0.3450126504638503,67,116,Marimba
284.0,0.3066779115234225,71,95,Marimba
284.0,0.0,45,82,Marimba
284.0,0.0,53,82,Marimba
284.0,0.0,42,82,Marimba
284.0,0.0,28,82,Marimba
284.6666666666667,0.11500421682128344,83,114,Marimba
284.6666666666667,0.11500421682128344,52,99,Marimba
284.6666666666667,0.11500421682128344,55,99,Marimba
284.6666666666667,0.11500421682128344,59,99,Marimba
284.6666666666667,0.11500421682128344,62,99,Marimba
284.6666666666667,0.15333895576171125,55,112,Marimba
284.6666666666667,0.0,28,34,Marimba
285.0,0.30000750018750466,83,104,Marimba
285.0,0.450011250281257,33,117,Marimba
285.0,0.2250056251406285,64,101,Marimba
285.0,0.2250056251406285,60,101,Marimba
285.0,0.2250056251406285,55,101,Marimba
285.0,0.2250056251406285,57,101,Marimba
285.0,0.2250056251406285,57,86,Marimba
285.0,0.15000375009375233,55,79,Marimba
285.0,0.11250281257031425,60,100,Marimba
285.0,0.11250281257031425,57,100,Marimba
285.0,0.11250281257031425,67,100,Marimba
285.0,0.11250281257031425,64,100,Marimba
285.0,1.800045001125028,45,77,Marimba
285.0,0.0,53,99,Marimba
285.0,0.0,42,99,Marimba
285.0,0.0,35,99,Marimba
285.3333333333333,0.0,36,31,Marimba
285.3333333333333,0.0,28,31,Marimba
285.6666666666667,0.15000375009375233,79,100,Marimba
285.6666666666667,0.11250281257031425,60,90,Marimba
286.0,0.46001686728513375,35,121,Marimba
286.0,0.23000843364256687,55,110,Marimba
286.0,0.23000843364256687,57,110,Marimba
286.0,0.23000843364256687,60,110,Marimba
286.0,0.23000843364256687,64,110,Marimba
286.0,0.23000843364256687,64,112,Marimba
286.0,0.3450126504638503,57,108,Marimba
286.0,0.3450126504638503,60,108,Marimba
286.0,0.3450126504638503,67,108,Marimba
286.0,0.3450126504638503,64,108,Marimba
286.0,0.0,53,97,Marimba
286.0,0.0,42,97,Marimba
286.0,0.0,40,97,Marimba
286.3333333333333,0.0,28,34,Marimba
286.6666666666667,0.6900253009277006,81,121,Marimba
286.6666666666667,0.0,60,76,Marimba
286.6666666666667,0.0,57,76,Marimba
286.6666666666667,0.0,55,76,Marimba
286.6666666666667,0.0,64,76,Marimba
286.6666666666667,0.11500421682128344,57,76,Marimba
286.6666666666667,0.0,35,115,Marimba
287.0,0.450011250281257,36,121,Marimba
287.0,0.15000375009375233,60,71,Marimba
287.0,0.15000375009375233,57,71,Marimba
287.0,0.15000375009375233,64,71,Marimba
287.0,0.15000375009375233,55,71,Marimba
287.0,0.2250056251406285,60,111,Marimba
287.0,0.11250281257031425,67,88,Marimba
287.0,0.11250281257031425,57,88,Marimba
287.0,0.11250281257031425,64,88,Marimba
287.0,0.11250281257031425,60,88,Marimba
287.0,0.0,53,58,Marimba
287.0,0.0,42,58,Marimba
287.0,0.0,36,58,Marimba
287.0,0.0,28,58,Marimba
287.3333333333333,0.0,40,84,Marimba
287.6666666666667,0.30000750018750466,55,105,Marimba
287.6666666666667,0.30000750018750466,60,105,Marimba
287.6666666666667,0.30000750018750466,57,105,Marimba
287.6666666666667,0.30000750018750466,64,105,Marimba
287.6666666666667,0.2250056251406285,64,104,Marimba
287.6666666666667,0.0,42,90,Marimba
287.75,0.0,54,45,Marimba
287.75,0.0,54,60,Marimba
288.0,0.450011250281257,33,117,Marimba
288.0,0.30000750018750466,57,104,Marimba
288.0,0.30000750018750466,67,104,Marimba
288.0,0.30000750018750466,60,104,Marimba
288.0,0.30000750018750466,64,104,Marimba
288.0,0.0,54,75,Marimba
288.0,0.0,53,88,Marimba
288.0,0.0,42,88,Marimba
288.0,0.0,54,88,Marimba
288.0,0.0,35,88,Marimba
288.0,0.0,28,88,Marimba
288.0,0.0,54,75,Marimba
288.25,0.0,54,60,Marimba
288.25,0.0,54,36,Marimba
288.25,0.0,36,36,Marimba
288.6666666666667,0.11250281257031425,55,91,Marimba
288.6666666666667,0.11250281257031425,60,91,Marimba
288.6666666666667,0.11250281257031425,57,91,Marimba
288.6666666666667,0.11250281257031425,64,91,Marimba
288.6666666666667,0.15000375009375233,64,111,Marimba
288.6666666666667,0.0,42,71,Marimba
288.6666666666667,0.0,40,71,Marimba
288.6666666666667,0.0,28,71,Marimba
289.0,0.3450126504638503,41,117,Marimba
289.0,0.23000843364256687,64,102,Marimba
289.0,0.23000843364256687,53,102,Marimba
289.0,0.23000843364256687,57,102,Marimba
289.0,0.23000843364256687,60,102,Marimba
289.0,1.840067469140535,41,74,Marimba
289.0,0.11500421682128344,60,103,Marimba
289.0,0.11500421682128344,65,103,Marimba
289.0,0.11500421682128344,64,103,Marimba
289.0,0.11500421682128344,69,103,Marimba
289.0,0.0,53,100,Marimba
289.0,0.0,42,100,Marimba
289.0,0.0,35,100,Marimba
289.3333333333333,0.0,36,31,Marimba
289.3333333333333,0.0,28,31,Marimba
289.6666666666667,0.11500421682128344,57,111,Marimba
290.0,0.30000750018750466,40,114,Marimba
290.0,0.2250056251406285,53,102,Marimba
290.0,0.2250056251406285,57,102,Marimba
290.0,0.2250056251406285,60,102,Marimba
290.0,0.2250056251406285,64,102,Marimba
290.0,0.2250056251406285,60,104,Marimba
290.0,0.33750843771094274,60,108,Marimba
290.0,0.33750843771094274,65,108,Marimba
290.0,0.33750843771094274,64,108,Marimba
290.0,0.33750843771094274,69,108,Marimba
290.0,0.0,53,91,Marimba
290.0,0.0,42,91,Marimba
290.0,0.0,40,91,Marimba
290.3333333333333,0.0,28,34,Marimba
290.6666666666667,0.15000375009375233,77,120,Marimba
290.6666666666667,0.33750843771094274,41,108,Marimba
290.6666666666667,0.0,60,83,Marimba
290.6666666666667,0.0,57,83,Marimba
290.6666666666667,0.0,53,83,Marimba
290.6666666666667,0.0,64,83,Marimba
290.6666666666667,0.2250056251406285,65,98,Marimba
290.6666666666667,0.0,35,117,Marimba
291.0,0.23000843364256687,76,111,Marimba
291.0,0.15333895576171125,60,76,Marimba
291.0,0.15333895576171125,64,76,Marimba
291.0,0.15333895576171125,57,76,Marimba
291.0,0.15333895576171125,53,76,Marimba
291.0,0.23000843364256687,57,104,Marimba
291.0,0.11500421682128344,60,80,Marimba
291.0,0.11500421682128344,65,80,Marimba
291.0,0.11500421682128344,64,80,Marimba
291.0,0.11500421682128344,69,80,Marimba
291.0,0.0,53,59,Marimba
291.0,0.0,42,59,Marimba
291.0,0.0,36,59,Marimba
291.0,0.0,28,59,Marimba
291.6666666666667,0.23000843364256687,72,108,Marimba
291.6666666666667,0.3450126504638503,33,117,Marimba
291.6666666666667,0.3066779115234225,53,102,Marimba
291.6666666666667,0.3066779115234225,57,102,Marimba
291.6666666666667,0.3066779115234225,60,102,Marimba
291.6666666666667,0.23000843364256687,64,95,Marimba
291.6666666666667,0.15333895576171125,60,117,Marimba
291.6666666666667,0.0,42,87,Marimba
291.6666666666667,0.0,40,87,Marimba
292.0,0.2250056251406285,65,85,Marimba
292.0,0.33750843771094274,65,110,Marimba
292.0,0.33750843771094274,60,110,Marimba
292.0,0.33750843771094274,64,110,Marimba
292.0,0.33750843771094274,69,110,Marimba
292.0,0.0,48,75,Marimba
292.0,0.0,53,75,Marimba
292.0,0.0,42,75,Marimba
292.0,0.0,28,75,Marimba
292.6666666666667,0.11250281257031425,69,98,Marimba
292.6666666666667,0.11250281257031425,32,98,Marimba
292.6666666666667,0.11250281257031425,53,95,Marimba
292.6666666666667,0.11250281257031425,57,95,Marimba
292.6666666666667,0.11250281257031425,60,95,Marimba
292.6666666666667,0.11250281257031425,64,95,Marimba
292.6666666666667,0.11250281257031425,57,65,Marimba
293.0,0.3450126504638503,72,117,Marimba
293.0,0.46001686728513375,31,121,Marimba
293.0,0.23000843364256687,53,92,Marimba
293.0,0.23000843364256687,62,92,Marimba
293.0,0.23000843364256687,59,92,Marimba
293.0,0.23000843364256687,55,92,Marimba
293.0,0.23000843364256687,57,83,Marimba
293.0,1.840067469140535,43,76,Marimba
293.0,0.11500421682128344,65,94,Marimba
293.0,0.11500421682128344,59,94,Marimba
293.0,0.11500421682128344,62,94,Marimba
293.0,0.11500421682128344,69,94,Marimba
293.0,0.0,53,102,Marimba
293.0,0.0,42,102,Marimba
293.0,0.0,35,102,Marimba
293.3333333333333,0.0,36,31,Marimba
293.3333333333333,0.0,28,31,Marimba
293.6666666666667,0.11500421682128344,59,98,Marimba
294.0,0.30000750018750466,69,114,Marimba
294.0,0.450011250281257,33,120,Marimba
294.0,0.30000750018750466,53,112,Marimba
294.0,0.30000750018750466,57,112,Marimba
294.0,0.30000750018750466,62,112,Marimba
294.0,0.30000750018750466,59,112,Marimba
294.0,0.2250056251406285,67,111,Marimba
294.0,0.33750843771094274,59,105,Marimba
294.0,0.33750843771094274,65,105,Marimba
294.0,0.33750843771094274,62,105,Marimba
294.0,0.33750843771094274,69,105,Marimba
294.0,0.0,53,96,Marimba
294.0,0.0,42,96,Marimba
294.0,0.0,40,96,Marimba
294.3333333333333,0.0,28,34,Marimba
294.6666666666667,0.11250281257031425,57,76,Marimba
294.6666666666667,0.11250281257031425,59,76,Marimba
294.6666666666667,0.11250281257031425,62,76,Marimba
294.6666666666667,0.11250281257031425,53,76,Marimba
294.6666666666667,0.11250281257031425,57,86,Marimba
295.0,0.3450126504638503,72,121,Marimba
295.0,0.3066779115234225,35,121,Marimba
295.0,0.15333895576171125,62,70,Marimba
295.0,0.15333895576171125,59,70,Marimba
295.0,0.15333895576171125,57,70,Marimba
295.0,0.15333895576171125,53,70,Marimba
295.0,0.23000843364256687,59,111,Marimba
295.0,0.11500421682128344,59,93,Marimba
295.0,0.11500421682128344,62,93,Marimba
295.0,0.11500421682128344,65,93,Marimba
295.0,0.11500421682128344,69,93,Marimba
295.0,0.0,53,87,Marimba
295.0,0.0,42,87,Marimba
295.0,0.0,35,87,Marimba
295.0,0.0,28,87,Marimba
295.3333333333333,0.0,36,28,Marimba
295.6666666666667,0.46001686728513375,31,117,Marimba
295.6666666666667,0.3066779115234225,53,109,Marimba
295.6666666666667,0.3066779115234225,59,109,Marimba
295.6666666666667,0.3066779115234225,62,109,Marimba
295.6666666666667,0.3066779115234225,57,109,Marimba
295.6666666666667,0.11500421682128344,62,117,Marimba
295.75,0.0,54,45,Marimba
295.75,0.0,54,60,Marimba
296.0,0.30000750018750466,74,122,Marimba
296.0,0.30000750018750466,67,111,Marimba
296.0,0.33750843771094274,59,111,Marimba
296.0,0.33750843771094274,62,111,Marimba
296.0,0.33750843771094274,65,104,Marimba
296.0,0.33750843771094274,62,104,Marimba
296.0,0.33750843771094274,69,104,Marimba
296.0,0.0,54,75,Marimba
296.0,0.0,53,80,Marimba
296.0,0.0,46,80,Marimba
296.0,0.0,54,80,Marimba
296.0,0.0,40,80,Marimba
296.0,0.0,28,80,Marimba
296.25,0.0,54,75,Marimba
296.25,0.0,54,60,Marimba
296.3333333333333,0.0,54,45,Marimba
296.6666666666667,0.11250281257031425,72,93,Marimba
296.6666666666667,0.15000375009375233,31,98,Marimba
296.6666666666667,0.11250281257031425,53,77,Marimba
296.6666666666667,0.11250281257031425,57,77,Marimba
296.6666666666667,0.11250281257031425,59,77,Marimba
296.6666666666667,0.11250281257031425,62,77,Marimba
296.6666666666667,0.0,35,84,Marimba
297.0,0.23000843364256687,74,108,Marimba
297.0,0.46001686728513375,36,121,Marimba
297.0,0.23000843364256687,62,94,Marimba
297.0,0.23000843364256687,59,94,Marimba
297.0,0.23000843364256687,55,94,Marimba
297.0,0.23000843364256687,52,94,Marimba
297.0,0.3066779115234225,67,112,Marimba
297.0,0.11500421682128344,64,100,Marimba
297.0,0.11500421682128344,62,100,Marimba
297.0,0.11500421682128344,71,100,Marimba
297.0,0.11500421682128344,67,100,Marimba
297.0,1.840067469140535,48,74,Marimba
297.0,0.0,53,86,Marimba
297.0,0.0,42,86,Marimba
297.0,0.0,36,86,Marimba
297.0,0.0,35,86,Marimba
297.3333333333333,0.0,28,31,Marimba
297.3333333333333,0.0,36,31,Marimba
298.0,0.2250056251406285,75,123,Marimba
298.0,0.450011250281257,35,120,Marimba
298.0,0.30000750018750466,52,108,Marimba
298.0,0.30000750018750466,55,108,Marimba
298.0,0.30000750018750466,59,108,Marimba
298.0,0.30000750018750466,62,108,Marimba
298.0,0.2250056251406285,59,111,Marimba
298.0,0.33750843771094274,71,109,Marimba
298.0,0.33750843771094274,62,109,Marimba
298.0,0.33750843771094274,64,109,Marimba
298.0,0.33750843771094274,67,109,Marimba
298.0,0.0,53,83,Marimba
298.0,0.0,42,83,Marimba
298.0,0.0,40,83,Marimba
298.0,0.0,28,83,Marimba
298.6666666666667,0.2250056251406285,52,89,Marimba
298.6666666666667,0.2250056251406285,55,89,Marimba
298.6666666666667,0.2250056251406285,59,89,Marimba
298.6666666666667,0.2250056251406285,62,89,Marimba
298.6666666666667,0.2250056251406285,64,117,Marimba
298.6666666666667,0.0,35,111,Marimba
299.0,0.30000750018750466,76,117,Marimba
299.0,0.450011250281257,36,121,Marimba
299.0,0.11250281257031425,64,92,Marimba
299.0,0.11250281257031425,62,92,Marimba
299.0,0.11250281257031425,67,92,Marimba
299.0,0.11250281257031425,71,92,Marimba
299.0,0.0,53,61,Marimba
299.0,0.0,42,61,Marimba
299.0,0.0,36,61,Marimba
299.0,0.0,28,61,Marimba
299.6666666666667,0.33750843771094274,52,97,Marimba
299.6666666666667,0.33750843771094274,55,97,Marimba
299.6666666666667,0.33750843771094274,59,97,Marimba
299.6666666666667,0.33750843771094274,62,97,Marimba
299.6666666666667,0.33750843771094274,67,111,Marimba
299.6666666666667,0.0,40,84,Marimba
300.0,0.3066779115234225,79,121,Marimba
300.0,0.46001686728513375,31,112,Marimba
300.0,0.3066779115234225,71,111,Marimba
300.0,0.3066779115234225,64,111,Marimba
300.0,0.3066779115234225,62,111,Marimba
300.0,0.3066779115234225,67,111,Marimba
300.0,0.0,53,80,Marimba
300.0,0.0,42,80,Marimba
300.0,0.0,28,80,Marimba
300.6666666666667,0.11500421682128344,80,95,Marimba
300.6666666666667,0.11500421682128344,52,82,Marimba
300.6666666666667,0.11500421682128344,55,82,Marimba
300.6666666666667,0.11500421682128344,59,82,Marimba
300.6666666666667,0.11500421682128344,62,82,Marimba
300.6666666666667,0.15333895576171125,67,100,Marimba
301.0,0.2250056251406285,81,108,Marimba
301.0,0.450011250281257,33,122,Marimba
301.0,0.15000375009375233,64,91,Marimba
301.0,0.15000375009375233,55,91,Marimba
301.0,0.15000375009375233,60,91,Marimba
301.0,0.15000375009375233,57,91,Marimba
301.0,0.0,59,79,Marimba
301.0,0.11250281257031425,60,94,Marimba
301.0,0.11250281257031425,67,94,Marimba
301.0,0.11250281257031425,57,94,Marimba
301.0,0.11250281257031425,64,94,Marimba
301.0,1.800045001125028,45,76,Marimba
301.0,0.0,53,86,Marimba
301.0,0.0,42,86,Marimba
301.0,0.0,35,86,Marimba
301.0,0.0,28,86,Marimba
301.3333333333333,0.0,36,31,Marimba
301.3333333333333,0.0,28,31,Marimba
301.6666666666667,0.11250281257031425,84,120,Marimba
301.6666666666667,0.11250281257031425,57,108,Marimba
302.0,0.46001686728513375,33,117,Marimba
302.0,0.23000843364256687,55,112,Marimba
302.0,0.23000843364256687,60,112,Marimba
302.0,0.23000843364256687,57,112,Marimba
302.0,0.23000843364256687,64,112,Marimba
302.0,0.23000843364256687,60,117,Marimba
302.0,0.3450126504638503,57,111,Marimba
302.0,0.3450126504638503,60,111,Marimba
302.0,0.3450126504638503,67,111,Marimba
302.0,0.3450126504638503,64,111,Marimba
302.0,0.0,53,80,Marimba
302.0,0.0,42,80,Marimba
302.0,0.0,40,80,Marimba
302.0,0.0,28,80,Marimba
302.6666666666667,0.11500421682128344,81,86,Marimba
302.6666666666667,0.15333895576171125,60,80,Marimba
302.6666666666667,0.15333895576171125,55,80,Marimba
302.6666666666667,0.15333895576171125,64,80,Marimba
302.6666666666667,0.15333895576171125,57,80,Marimba
302.6666666666667,0.15333895576171125,64,104,Marimba
302.6666666666667,0.0,35,115,Marimba
303.0,0.2250056251406285,84,120,Marimba
303.0,0.30000750018750466,40,114,Marimba
303.0,0.2250056251406285,55,111,Marimba
303.0,0.11250281257031425,57,80,Marimba
303.0,0.11250281257031425,60,80,Marimba
303.0,0.11250281257031425,67,80,Marimba
303.0,0.11250281257031425,64,80,Marimba
303.0,0.0,53,61,Marimba
303.0,0.0,42,61,Marimba
303.0,0.0,36,61,Marimba
303.0,0.0,28,61,Marimba
303.3333333333333,0.0,40,59,Marimba
303.3333333333333,0.0,28,59,Marimba
303.6666666666667,0.11250281257031425,84,108,Marimba
303.6666666666667,0.450011250281257,33,112,Marimba
303.6666666666667,0.30000750018750466,55,111,Marimba
303.6666666666667,0.30000750018750466,60,111,Marimba
303.6666666666667,0.30000750018750466,57,111,Marimba
303.6666666666667,0.30000750018750466,64,111,Marimba
303.6666666666667,0.11250281257031425,60,79,Marimba
303.6666666666667,0.0,42,90,Marimba
303.75,0.0,54,45,Marimba
303.75,0.0,54,60,Marimba
304.0,0.23000843364256687,81,95,Marimba
304.0,0.3066779115234225,64,108,Marimba
304.0,0.3066779115234225,67,110,Marimba
304.0,0.3066779115234225,57,110,Marimba
304.0,0.3066779115234225,60,110,Marimba
304.0,0.3066779115234225,64,110,Marimba
304.0,0.0,54,75,Marimba
304.0,0.0,53,84,Marimba
304.0,0.0,46,84,Marimba
304.0,0.0,54,84,Marimba
304.0,0.0,35,84,Marimba
304.0,0.0,40,84,Marimba
304.0,0.0,28,84,Marimba
304.0,0.0,54,75,Marimba
304.25,0.0,54,60,Marimba
304.25,0.0,54,36,Marimba
304.25,0.0,36,36,Marimba
304.6666666666667,0.15333895576171125,84,117,Marimba
304.6666666666667,0.15333895576171125,33,111,Marimba
304.6666666666667,0.11500421682128344,60,84,Marimba
304.6666666666667,0.11500421682128344,57,84,Marimba
304.6666666666667,0.11500421682128344,55,84,Marimba
304.6666666666667,0.11500421682128344,64,84,Marimba
304.6666666666667,0.0,41,87,Marimba
304.6666666666667,0.0,40,87,Marimba
305.0,0.5625140628515712,38,122,Marimba
305.0,0.2250056251406285,60,91,Marimba
305.0,0.2250056251406285,64,91,Marimba
305.0,0.2250056251406285,57,91,Marimba
305.0,0.2250056251406285,53,91,Marimba
305.0,0.15000375009375233,60,93,Marimba
305.0,0.15000375009375233,65,93,Marimba
305.0,0.15000375009375233,57,93,Marimba
305.0,1.800045001125028,38,74,Marimba
305.0,0.11250281257031425,60,95,Marimba
305.0,0.11250281257031425,65,95,Marimba
305.0,0.11250281257031425,57,95,Marimba
305.0,0.11250281257031425,62,95,Marimba
305.0,0.0,42,87,Marimba
305.0,0.0,35,87,Marimba
305.0,0.0,28,87,Marimba
305.3333333333333,0.0,36,28,Marimba
305.6666666666667,0.15000375009375233,84,112,Marimba
305.6666666666667,0.0,28,34,Marimba
306.0,0.23000843364256687,53,109,Marimba
306.0,0.23000843364256687,60,109,Marimba
306.0,0.23000843364256687,57,109,Marimba
306.0,0.23000843364256687,64,109,Marimba
306.0,0.3450126504638503,57,115,Marimba
306.0,0.3450126504638503,60,115,Marimba
306.0,0.3450126504638503,65,115,Marimba
306.0,0.3450126504638503,60,112,Marimba
306.0,0.3450126504638503,65,112,Marimba
306.0,0.3450126504638503,57,112,Marimba
306.0,0.3450126504638503,62,112,Marimba
306.0,0.0,42,77,Marimba
306.0,0.0,40,77,Marimba
306.0,0.0,28,77,Marimba
306.6666666666667,0.11500421682128344,81,85,Marimba
306.6666666666667,0.3450126504638503,40,120,Marimba
306.6666666666667,0.23000843364256687,53,100,Marimba
306.6666666666667,0.23000843364256687,60,100,Marimba
306.6666666666667,0.23000843364256687,57,100,Marimba
306.6666666666667,0.23000843364256687,64,100,Marimba
306.6666666666667,0.0,35,117,Marimba
307.0,0.30000750018750466,84,121,Marimba
307.0,0.11250281257031425,60,87,Marimba
307.0,0.11250281257031425,57,87,Marimba
307.0,0.11250281257031425,65,87,Marimba
307.0,0.11250281257031425,60,80,Marimba
307.0,0.11250281257031425,62,80,Marimba
307.0,0.11250281257031425,57,80,Marimba
307.0,0.11250281257031425,65,80,Marimba
307.0,0.0,42,58,Marimba
307.0,0.0,36,58,Marimba
307.0,0.0,28,58,Marimba
307.6666666666667,0.11250281257031425,41,90,Marimba
307.6666666666667,0.33750843771094274,53,100,Marimba
307.6666666666667,0.33750843771094274,60,100,Marimba
307.6666666666667,0.33750843771094274,57,100,Marimba
307.6666666666667,0.33750843771094274,64,100,Marimba
307.6666666666667,0.0,42,79,Marimba
307.6666666666667,0.0,40,79,Marimba
308.0,0.3066779115234225,81,117,Marimba
308.0,0.3450126504638503,45,111,Marimba
308.0,0.46001686728513375,60,114,Marimba
308.0,0.46001686728513375,57,114,Marimba
308.0,0.46001686728513375,65,114,Marimba
308.0,0.3450126504638503,60,110,Marimba
308.0,0.3450126504638503,57,110,Marimba
308.0,0.3450126504638503,62,110,Marimba
308.0,0.3450126504638503,65,110,Marimba
308.0,0.0,42,72,Marimba
308.0,0.0,28,72,Marimba
308.6666666666667,0.3450126504638503,77,108,Marimba
308.6666666666667,0.11500421682128344,44,104,Marimba
308.6666666666667,0.11500421682128344,60,83,Marimba
308.6666666666667,0.11500421682128344,53,83,Marimba
308.6666666666667,0.11500421682128344,57,83,Marimba
308.6666666666667,0.11500421682128344,64,83,Marimba
308.6666666666667,0.0,28,34,Marimba
309.0,0.450011250281257,43,90,Marimba
309.0,0.2250056251406285,62,98,Marimba
309.0,0.2250056251406285,59,98,Marimba
309.0,0.2250056251406285,53,98,Marimba
309.0,0.2250056251406285,57,98,Marimba
309.0,0.11250281257031425,67,97,Marimba
309.0,0.11250281257031425,62,97,Marimba
309.0,0.11250281257031425,59,97,Marimba
309.0,0.11250281257031425,59,89,Marimba
309.0,0.11250281257031425,62,89,Marimba
309.0,0.11250281257031425,65,89,Marimba
309.0,0.11250281257031425,69,89,Marimba
309.0,1.800045001125028,43,76,Marimba
309.0,0.0,42,114,Marimba
309.0,0.0,35,114,Marimba
309.3333333333333,0.0,36,28,Marimba
309.6666666666667,0.30000750018750466,76,117,Marimba
309.6666666666667,0.0,28,34,Marimba
310.0,0.30000750018750466,38,120,Marimba
310.0,0.2250056251406285,53,105,Marimba
310.0,0.2250056251406285,59,105,Marimba
310.0,0.2250056251406285,57,105,Marimba
310.0,0.2250056251406285,62,105,Marimba
310.0,0.33750843771094274,59,109,Marimba
310.0,0.33750843771094274,67,109,Marimba
310.0,0.33750843771094274,62,109,Marimba
310.0,0.33750843771094274,59,104,Marimba
310.0,0.33750843771094274,62,104,Marimba
310.0,0.33750843771094274,65,104,Marimba
310.0,0.33750843771094274,69,104,Marimba
310.0,0.0,42,100,Marimba
310.0,0.0,40,100,Marimba
310.3333333333333,0.0,28,34,Marimba
310.6666666666667,0.30000750018750466,74,120,Marimba
310.6666666666667,0.450011250281257,31,112,Marimba
310.6666666666667,0.2250056251406285,53,80,Marimba
310.6666666666667,0.2250056251406285,62,80,Marimba
310.6666666666667,0.2250056251406285,59,80,Marimba
310.6666666666667,0.2250056251406285,57,80,Marimba
311.0,0.11500421682128344,67,94,Marimba
311.0,0.11500421682128344,62,94,Marimba
311.0,0.11500421682128344,59,94,Marimba
311.0,0.11500421682128344,65,79,Marimba
311.0,0.11500421682128344,59,79,Marimba
311.0,0.11500421682128344,62,79,Marimba
311.0,0.11500421682128344,69,79,Marimba
311.0,0.0,42,87,Marimba
311.0,0.0,35,87,Marimba
311.0,0.0,28,87,Marimba
311.3333333333333,0.0,36,28,Marimba
311.6666666666667,0.11500421682128344,74,95,Marimba
311.6666666666667,0.11500421682128344,33,75,Marimba
311.6666666666667,0.15333895576171125,53,102,Marimba
311.6666666666667,0.15333895576171125,57,102,Marimba
311.6666666666667,0.15333895576171125,59,102,Marimba
311.6666666666667,0.15333895576171125,62,102,Marimba
311.6666666666667,0.0,42,72,Marimba
311.75,0.0,54,45,Marimba
311.75,0.0,54,60,Marimba
312.0,0.30000750018750466,81,104,Marimba
312.0,0.33750843771094274,31,104,Marimba
312.0,0.33750843771094274,59,113,Marimba
312.0,0.33750843771094274,62,113,Marimba
312.0,0.33750843771094274,67,113,Marimba
312.0,0.33750843771094274,62,104,Marimba
312.0,0.33750843771094274,65,104,Marimba
312.0,0.33750843771094274,59,104,Marimba
312.0,0.33750843771094274,69,104,Marimba
312.0,0.0,54,75,Marimba
312.0,0.0,46,78,Marimba
312.0,0.0,54,78,Marimba
312.0,0.0,40,78,Marimba
312.0,0.0,28,78,Marimba
312.25,0.0,54,75,Marimba
312.25,0.0,54,60,Marimba
312.3333333333333,0.11250281257031425,57,76,Marimba
312.3333333333333,0.11250281257031425,59,76,Marimba
312.3333333333333,0.11250281257031425,62,76,Marimba
312.3333333333333,0.11250281257031425,53,76,Marimba
312.3333333333333,0.0,54,45,Marimba
312.6666666666667,0.11250281257031425,80,93,Marimba
312.6666666666667,0.11250281257031425,59,81,Marimba
312.6666666666667,0.11250281257031425,57,81,Marimba
312.6666666666667,0.11250281257031425,53,81,Marimba
312.6666666666667,0.11250281257031425,62,81,Marimba
312.6666666666667,0.0,35,59,Marimba
312.6666666666667,0.0,28,59,Marimba
313.0,0.23000843364256687,79,104,Marimba
313.0,0.46001686728513375,40,122,Marimba
313.0,0.23000843364256687,62,91,Marimba
313.0,0.23000843364256687,59,91,Marimba
313.0,0.23000843364256687,55,91,Marimba
313.0,0.23000843364256687,52,91,Marimba
313.0,0.11500421682128344,60,76,Marimba
313.0,0.11500421682128344,67,88,Marimba
313.0,0.11500421682128344,59,88,Marimba
313.0,0.11500421682128344,62,88,Marimba
313.0,1.840067469140535,40,86,Marimba
313.0,0.11500421682128344,64,87,Marimba
313.0,0.11500421682128344,67,87,Marimba
313.0,0.11500421682128344,59,87,Marimba
313.0,0.11500421682128344,62,87,Marimba
313.0,0.0,42,69,Marimba
313.0,0.0,36,69,Marimba
313.0,0.0,35,69,Marimba
313.0,0.0,28,69,Marimba
313.3333333333333,0.0,36,28,Marimba
313.6666666666667,0.15333895576171125,83,112,Marimba
314.0,0.30000750018750466,52,109,Marimba
314.0,0.30000750018750466,55,109,Marimba
314.0,0.30000750018750466,59,109,Marimba
314.0,0.30000750018750466,62,109,Marimba
314.0,0.33750843771094274,59,112,Marimba
314.0,0.33750843771094274,67,112,Marimba
314.0,0.33750843771094274,62,112,Marimba
314.0,0.33750843771094274,59,106,Marimba
314.0,0.33750843771094274,64,106,Marimba
314.0,0.33750843771094274,62,106,Marimba
314.0,0.33750843771094274,67,106,Marimba
314.0,0.0,42,79,Marimba
314.0,0.0,40,79,Marimba
314.0,0.0,28,79,Marimba
314.6666666666667,0.11250281257031425,79,75,Marimba
314.6666666666667,0.450011250281257,40,122,Marimba
314.6666666666667,0.2250056251406285,52,94,Marimba
314.6666666666667,0.2250056251406285,59,94,Marimba
314.6666666666667,0.2250056251406285,55,94,Marimba
314.6666666666667,0.2250056251406285,62,94,Marimba
314.6666666666667,0.0,35,111,Marimba
315.0,0.23000843364256687,83,104,Marimba
315.0,0.11500421682128344,59,95,Marimba
315.0,0.11500421682128344,62,95,Marimba
315.0,0.11500421682128344,67,95,Marimba
315.0,0.11500421682128344,59,94,Marimba
315.0,0.11500421682128344,64,94,Marimba
315.0,0.11500421682128344,62,94,Marimba
315.0,0.11500421682128344,67,94,Marimba
315.0,0.0,42,58,Marimba
315.0,0.0,36,58,Marimba
315.0,0.0,28,58,Marimba
315.3333333333333,0.0,28,34,Marimba
315.6666666666667,0.11500421682128344,83,98,Marimba
315.6666666666667,0.11500421682128344,43,104,Marimba
315.6666666666667,0.11500421682128344,52,97,Marimba
315.6666666666667,0.11500421682128344,55,97,Marimba
315.6666666666667,0.11500421682128344,59,97,Marimba
315.6666666666667,0.11500421682128344,62,97,Marimba
315.6666666666667,0.0,40,99,Marimba
316.0,0.2250056251406285,79,112,Marimba
316.0,0.33750843771094274,47,111,Marimba
316.0,0.2250056251406285,62,85,Marimba
316.0,0.2250056251406285,55,85,Marimba
316.0,0.2250056251406285,52,85,Marimba
316.0,0.2250056251406285,59,85,Marimba
316.0,0.33750843771094274,59,110,Marimba
316.0,0.33750843771094274,67,110,Marimba
316.0,0.33750843771094274,62,110,Marimba
316.0,0.33750843771094274,64,107,Marimba
316.0,0.33750843771094274,67,107,Marimba
316.0,0.33750843771094274,59,107,Marimba
316.0,0.2250056251406285,62,114,Marimba
316.0,0.0,42,76,Marimba
316.0,0.0,28,76,Marimba
316.6666666666667,0.11250281257031425,78,114,Marimba
316.6666666666667,0.11250281257031425,46,104,Marimba
316.6666666666667,0.11250281257031425,59,64,Marimba
316.6666666666667,0.11250281257031425,55,64,Marimba
316.6666666666667,0.11250281257031425,52,64,Marimba
316.6666666666667,0.11250281257031425,62,64,Marimba
316.6666666666667,0.0,28,34,Marimba
317.0,0.46001686728513375,45,98,Marimba
317.0,0.23000843364256687,61,88,Marimba
317.0,0.23000843364256687,55,88,Marimba
317.0,0.23000843364256687,64,88,Marimba
317.0,0.23000843364256687,57,88,Marimba
317.0,0.11500421682128344,64,97,Marimba
317.0,0.11500421682128344,61,97,Marimba
317.0,0.11500421682128344,69,97,Marimba
317.0,0.11500421682128344,64,98,Marimba
317.0,0.11500421682128344,61,98,Marimba
317.0,0.11500421682128344,59,98,Marimba
317.0,0.11500421682128344,69,98,Marimba
317.0,1.840067469140535,45,76,Marimba
317.0,0.0,42,110,Marimba
317.0,0.0,35,110,Marimba
317.3333333333333,0.0,36,31,Marimba
317.3333333333333,0.0,28,31,Marimba
317.6666666666667,0.3450126504638503,77,120,Marimba
318.0,0.2250056251406285,40,121,Marimba
318.0,0.2250056251406285,61,109,Marimba
318.0,0.2250056251406285,57,109,Marimba
318.0,0.2250056251406285,64,109,Marimba
318.0,0.2250056251406285,55,109,Marimba
318.0,0.33750843771094274,64,110,Marimba
318.0,0.33750843771094274,61,110,Marimba
318.0,0.33750843771094274,69,110,Marimba
318.0,0.33750843771094274,64,107,Marimba
318.0,0.33750843771094274,59,107,Marimba
318.0,0.33750843771094274,61,107,Marimba
318.0,0.33750843771094274,69,107,Marimba
318.0,0.0,42,102,Marimba
318.0,0.0,40,102,Marimba
318.3333333333333,0.0,28,34,Marimba
318.6666666666667,0.33750843771094274,76,98,Marimba
318.6666666666667,0.450011250281257,33,112,Marimba
318.6666666666667,0.15000375009375233,55,93,Marimba
318.6666666666667,0.15000375009375233,57,93,Marimba
318.6666666666667,0.15000375009375233,64,93,Marimba
318.6666666666667,0.15000375009375233,61,93,Marimba
318.6666666666667,0.0,38,88,Marimba
318.6666666666667,0.0,35,88,Marimba
319.0,0.11250281257031425,64,83,Marimba
319.0,0.11250281257031425,61,83,Marimba
319.0,0.11250281257031425,69,83,Marimba
319.0,0.11250281257031425,64,86,Marimba
319.0,0.11250281257031425,59,86,Marimba
319.0,0.11250281257031425,61,86,Marimba
319.0,0.11250281257031425,69,86,Marimba
319.0,0.0,42,52,Marimba
319.0,0.0,36,52,Marimba
319.0,0.0,28,52,Marimba
319.3333333333333,0.0,40,82,Marimba
319.3333333333333,0.0,38,82,Marimba
319.6666666666667,0.11250281257031425,76,93,Marimba
319.6666666666667,0.15000375009375233,35,90,Marimba
319.6666666666667,0.33750843771094274,55,100,Marimba
319.6666666666667,0.33750843771094274,61,100,Marimba
319.6666666666667,0.33750843771094274,57,100,Marimba
319.6666666666667,0.33750843771094274,64,100,Marimba
319.6666666666667,0.0,42,81,Marimba
319.6666666666667,0.0,38,81,Marimba
319.75,0.0,54,45,Marimba
319.75,0.0,54,60,Marimba
320.0,0.23000843364256687,79,104,Marimba
320.0,0.46001686728513375,33,114,Marimba
320.0,0.3450126504638503,61,116,Marimba
320.0,0.3450126504638503,64,116,Marimba
320.0,0.3066779115234225,69,100,Marimba
320.0,0.3450126504638503,64,113,Marimba
320.0,0.3450126504638503,61,113,Marimba
320.0,0.3450126504638503,59,113,Marimba
320.0,0.3066779115234225,69,70,Marimba
320.0,0.0,54,75,Marimba
320.0,0.0,41,91,Marimba
320.0,0.0,42,91,Marimba
320.0,0.0,54,91,Marimba
320.0,0.0,35,91,Marimba
320.0,0.0,28,91,Marimba
320.0,0.0,54,75,Marimba
320.25,0.0,54,60,Marimba
320.25,0.0,54,36,Marimba
320.25,0.0,36,36,Marimba
320.6666666666667,0.11500421682128344,76,87,Marimba
320.6666666666667,0.11500421682128344,61,92,Marimba
320.6666666666667,0.11500421682128344,55,92,Marimba
320.6666666666667,0.11500421682128344,57,92,Marimba
320.6666666666667,0.11500421682128344,64,92,Marimba
320.6666666666667,0.0,42,71,Marimba
320.6666666666667,0.0,40,71,Marimba
320.6666666666667,0.0,28,71,Marimba
321.0,0.2250056251406285,76,90,Marimba
321.0,0.450011250281257,38,122,Marimba
321.0,0.2250056251406285,53,94,Marimba
321.0,0.2250056251406285,57,94,Marimba
321.0,0.2250056251406285,60,94,Marimba
321.0,0.2250056251406285,64,94,Marimba
321.0,0.11250281257031425,57,97,Marimba
321.0,0.11250281257031425,65,97,Marimba
321.0,0.11250281257031425,60,97,Marimba
321.0,0.11250281257031425,60,96,Marimba
321.0,0.11250281257031425,65,96,Marimba
321.0,0.11250281257031425,57,96,Marimba
321.0,0.11250281257031425,62,96,Marimba
321.0,1.800045001125028,38,81,Marimba
321.0,0.0,42,108,Marimba
321.0,0.0,35,108,Marimba
321.3333333333333,0.0,36,31,Marimba
321.3333333333333,0.0,28,31,Marimba
321.6666666666667,0.15000375009375233,72,117,Marimba
322.0,0.46001686728513375,40,121,Marimba
322.0,0.23000843364256687,53,110,Marimba
322.0,0.23000843364256687,60,110,Marimba
322.0,0.23000843364256687,57,110,Marimba
322.0,0.23000843364256687,64,110,Marimba
322.0,0.3450126504638503,57,114,Marimba
322.0,0.3450126504638503,65,114,Marimba
322.0,0.3450126504638503,60,114,Marimba
322.0,0.3450126504638503,65,108,Marimba
322.0,0.3450126504638503,57,108,Marimba
322.0,0.3450126504638503,60,108,Marimba
322.0,0.3450126504638503,62,108,Marimba
322.0,0.0,42,98,Marimba
322.0,0.0,40,98,Marimba
322.3333333333333,0.0,28,34,Marimba
322.6666666666667,0.11500421682128344,69,98,Marimba
322.6666666666667,0.11500421682128344,60,79,Marimba
322.6666666666667,0.11500421682128344,53,79,Marimba
322.6666666666667,0.11500421682128344,57,79,Marimba
322.6666666666667,0.11500421682128344,64,79,Marimba
322.6666666666667,0.0,35,117,Marimba
323.0,0.30000750018750466,72,111,Marimba
323.0,0.33750843771094274,41,111,Marimba
323.0,0.15000375009375233,60,78,Marimba
323.0,0.15000375009375233,64,78,Marimba
323.0,0.15000375009375233,57,78,Marimba
323.0,0.15000375009375233,53,78,Marimba
323.0,0.11250281257031425,60,83,Marimba
323.0,0.11250281257031425,65,83,Marimba
323.0,0.11250281257031425,57,83,Marimba
323.0,0.11250281257031425,62,82,Marimba
323.0,0.11250281257031425,60,82,Marimba
323.0,0.11250281257031425,65,82,Marimba
323.0,0.11250281257031425,57,82,Marimba
323.0,0.0,42,54,Marimba
323.0,0.0,36,54,Marimba
323.0,0.0,28,54,Marimba
323.6666666666667,0.2250056251406285,69,108,Marimba
323.6666666666667,0.30000750018750466,53,109,Marimba
323.6666666666667,0.30000750018750466,60,109,Marimba
323.6666666666667,0.30000750018750466,57,109,Marimba
323.6666666666667,0.30000750018750466,64,109,Marimba
323.6666666666667,0.0,42,87,Marimba
323.6666666666667,0.0,40,87,Marimba
324.0,0.3066779115234225,33,111,Marimba
324.0,0.3450126504638503,57,108,Marimba
324.0,0.3450126504638503,65,108,Marimba
324.0,0.3450126504638503,60,108,Marimba
324.0,0.3450126504638503,65,112,Marimba
324.0,0.3450126504638503,60,112,Marimba
324.0,0.3450126504638503,62,112,Marimba
324.0,0.3450126504638503,57,112,Marimba
324.0,0.3450126504638503,60,112,Marimba
324.0,0.3450126504638503,62,112,Marimba
324.0,0.0,42,64,Marimba
324.0,0.0,28,64,Marimba
324.6666666666667,0.3066779115234225,76,121,Marimba
324.6666666666667,0.11500421682128344,32,104,Marimba
324.6666666666667,0.11500421682128344,60,82,Marimba
324.6666666666667,0.11500421682128344,53,82,Marimba
324.6666666666667,0.11500421682128344,57,82,Marimba
324.6666666666667,0.11500421682128344,64,82,Marimba
325.0,0.450011250281257,31,112,Marimba
325.0,0.15000375009375233,59,93,Marimba
325.0,0.15000375009375233,62,93,Marimba
325.0,0.15000375009375233,55,93,Marimba
325.0,0.15000375009375233,53,93,Marimba
325.0,0.11250281257031425,67,98,Marimba
325.0,0.11250281257031425,59,98,Marimba
325.0,0.11250281257031425,62,98,Marimba
325.0,1.800045001125028,43,68,Marimba
325.0,0.11250281257031425,62,95,Marimba
325.0,0.11250281257031425,59,95,Marimba
325.0,0.11250281257031425,69,95,Marimba
325.0,0.11250281257031425,65,95,Marimba
325.0,0.0,42,114,Marimba
325.0,0.0,35,114,Marimba
325.3333333333333,0.0,36,31,Marimba
325.3333333333333,0.0,28,31,Marimba
325.6666666666667,0.11250281257031425,76,108,Marimba
326.0,0.3066779115234225,72,100,Marimba
326.0,0.46001686728513375,33,122,Marimba
326.0,0.23000843364256687,53,105,Marimba
326.0,0.23000843364256687,55,105,Marimba
326.0,0.23000843364256687,59,105,Marimba
326.0,0.23000843364256687,62,105,Marimba
326.0,0.3450126504638503,59,113,Marimba
326.0,0.3450126504638503,67,113,Marimba
326.0,0.3450126504638503,62,113,Marimba
326.0,0.3450126504638503,59,105,Marimba
326.0,0.3450126504638503,65,105,Marimba
326.0,0.3450126504638503,62,105,Marimba
326.0,0.3450126504638503,69,105,Marimba
326.0,0.0,42,100,Marimba
326.0,0.0,40,100,Marimba
326.3333333333333,0.0,28,34,Marimba
326.6666666666667,0.11500421682128344,69,79,Marimba
326.6666666666667,0.11500421682128344,55,77,Marimba
326.6666666666667,0.11500421682128344,53,77,Marimba
326.6666666666667,0.11500421682128344,59,77,Marimba
326.6666666666667,0.11500421682128344,62,77,Marimba
327.0,0.30000750018750466,72,117,Marimba
327.0,0.450011250281257,35,121,Marimba
327.0,0.15000375009375233,62,72,Marimba
327.0,0.15000375009375233,59,72,Marimba
327.0,0.15000375009375233,55,72,Marimba
327.0,0.15000375009375233,53,72,Marimba
327.0,0.11250281257031425,59,99,Marimba
327.0,0.11250281257031425,62,99,Marimba
327.0,0.11250281257031425,67,99,Marimba
327.0,0.11250281257031425,62,73,Marimba
327.0,0.11250281257031425,65,73,Marimba
327.0,0.11250281257031425,59,73,Marimba
327.0,0.11250281257031425,69,73,Marimba
327.0,0.0,42,88,Marimba
327.0,0.0,35,88,Marimba
327.0,0.0,28,88,Marimba
327.3333333333333,0.0,36,28,Marimba
327.6666666666667,0.11250281257031425,69,76,Marimba
327.6666666666667,0.30000750018750466,53,107,Marimba
327.6666666666667,0.30000750018750466,62,107,Marimba
327.6666666666667,0.30000750018750466,59,107,Marimba
327.6666666666667,0.30000750018750466,55,107,Marimba
327.75,0.0,54,45,Marimba
327.75,0.0,54,60,Marimba
328.0,0.23000843364256687,72,117,Marimba
328.0,0.46001686728513375,31,114,Marimba
328.0,0.3450126504638503,59,113,Marimba
328.0,0.3450126504638503,62,113,Marimba
328.0,0.3450126504638503,67,113,Marimba
328.0,0.3450126504638503,59,106,Marimba
328.0,0.3450126504638503,62,106,Marimba
328.0,0.3450126504638503,65,101,Marimba
328.0,0.3450126504638503,62,101,Marimba
328.0,0.3450126504638503,69,101,Marimba
328.0,0.0,54,75,Marimba
328.0,0.0,46,78,Marimba
328.0,0.0,54,78,Marimba
328.0,0.0,40,78,Marimba
328.0,0.0,28,78,Marimba
328.25,0.0,54,75,Marimba
328.25,0.0,54,60,Marimba
328.25,0.0,54,45,Marimba
328.6666666666667,0.15333895576171125,74,95,Marimba
328.6666666666667,0.11500421682128344,53,88,Marimba
328.6666666666667,0.11500421682128344,55,88,Marimba
328.6666666666667,0.11500421682128344,59,88,Marimba
328.6666666666667,0.11500421682128344,62,88,Marimba
328.6666666666667,0.0,35,84,Marimba
329.0,0.30000750018750466,36,122,Marimba
329.0,0.2250056251406285,64,99,Marimba
329.0,0.2250056251406285,62,99,Marimba
329.0,0.2250056251406285,55,99,Marimba
329.0,0.2250056251406285,52,99,Marimba
329.0,0.15000375009375233,67,103,Marimba
329.0,0.15000375009375233,62,103,Marimba
329.0,0.15000375009375233,64,103,Marimba
329.0,0.30000750018750466,62,113,Marimba
329.0,0.30000750018750466,64,113,Marimba
329.0,0.30000750018750466,67,113,Marimba
329.0,0.0,42,85,Marimba
329.0,0.0,36,85,Marimba
329.0,0.0,35,85,Marimba
329.3333333333333,0.0,28,31,Marimba
329.3333333333333,0.0,36,31,Marimba
329.6666666666667,1.1250281257031425,72,120,Marimba
329.6666666666667,0.15000375009375233,31,85,Marimba
330.0,0.30000750018750466,36,114,Marimba
330.0,0.30000750018750466,55,107,Marimba
330.0,0.30000750018750466,64,107,Marimba
330.0,0.30000750018750466,52,107,Marimba
330.0,0.30000750018750466,62,107,Marimba
330.0,0.33750843771094274,64,115,Marimba
330.0,0.33750843771094274,62,115,Marimba
330.0,0.33750843771094274,67,115,Marimba
330.0,0.33750843771094274,64,108,Marimba
330.0,0.33750843771094274,62,108,Marimba
330.0,0.33750843771094274,67,108,Marimba
330.0,0.0,42,79,Marimba
330.0,0.0,40,79,Marimba
330.0,0.0,28,79,Marimba
330.6666666666667,0.15000375009375233,38,90,Marimba
330.6666666666667,0.0,35,111,Marimba
331.0,0.3066779115234225,39,108,Marimba
331.0,0.23000843364256687,52,91,Marimba
331.0,0.23000843364256687,60,91,Marimba
331.0,0.23000843364256687,55,91,Marimba
331.0,0.23000843364256687,64,81,Marimba
331.0,0.11500421682128344,60,93,Marimba
331.0,0.11500421682128344,64,93,Marimba
331.0,0.11500421682128344,67,93,Marimba
331.0,0.23000843364256687,60,105,Marimba
331.0,0.23000843364256687,64,105,Marimba
331.0,0.23000843364256687,67,105,Marimba
331.0,0.0,42,55,Marimba
331.0,0.0,36,55,Marimba
331.0,0.0,28,55,Marimba
331.6666666666667,0.15333895576171125,40,75,Marimba
331.6666666666667,0.0,40,84,Marimba
332.0,0.30000750018750466,41,117,Marimba
332.0,0.33750843771094274,55,113,Marimba
332.0,0.33750843771094274,60,113,Marimba
332.0,0.33750843771094274,64,113,Marimba
332.0,0.33750843771094274,52,113,Marimba
332.0,0.33750843771094274,67,115,Marimba
332.0,0.33750843771094274,60,115,Marimba
332.0,0.33750843771094274,64,115,Marimba
332.0,0.33750843771094274,60,114,Marimba
332.0,0.33750843771094274,67,114,Marimba
332.0,0.33750843771094274,64,114,Marimba
332.0,0.0,42,77,Marimba
332.0,0.0,28,77,Marimba
332.6666666666667,0.15000375009375233,42,86,Marimba
333.0,0.3066779115234225,43,112,Marimba
333.0,0.23000843364256687,52,94,Marimba
333.0,0.23000843364256687,55,94,Marimba
333.0,0.23000843364256687,59,94,Marimba
333.0,0.23000843364256687,64,94,Marimba
333.0,0.11500421682128344,64,90,Marimba
333.0,0.11500421682128344,67,90,Marimba
333.0,0.11500421682128344,59,90,Marimba
333.0,0.15333895576171125,64,101,Marimba
333.0,0.15333895576171125,59,101,Marimba
333.0,0.15333895576171125,67,101,Marimba
333.0,0.0,42,86,Marimba
333.0,0.0,35,86,Marimba
333.0,0.0,28,86,Marimba
333.3333333333333,0.0,36,31,Marimba
333.3333333333333,0.0,28,31,Marimba
333.6666666666667,0.15333895576171125,44,117,Marimba
334.0,0.30000750018750466,45,100,Marimba
334.0,0.30000750018750466,64,106,Marimba
334.0,0.30000750018750466,52,106,Marimba
334.0,0.33750843771094274,59,113,Marimba
334.0,0.33750843771094274,64,113,Marimba
334.0,0.33750843771094274,67,113,Marimba
334.0,0.450011250281257,59,109,Marimba
334.0,0.450011250281257,67,109,Marimba
334.0,0.450011250281257,64,109,Marimba
334.0,0.0,42,78,Marimba
334.0,0.0,40,78,Marimba
334.0,0.0,28,78,Marimba
334.6666666666667,0.450011250281257,48,121,Marimba
334.6666666666667,0.0,55,99,Marimba
334.6666666666667,0.0,59,99,Marimba
334.6666666666667,0.15000375009375233,52,92,Marimba
334.6666666666667,0.15000375009375233,64,92,Marimba
334.6666666666667,0.0,35,115,Marimba
335.0,0.11500421682128344,60,91,Marimba
335.0,0.11500421682128344,67,91,Marimba
335.0,0.11500421682128344,64,91,Marimba
335.0,0.23000843364256687,60,102,Marimba
335.0,0.23000843364256687,67,102,Marimba
335.0,0.23000843364256687,64,102,Marimba
335.0,0.0,42,52,Marimba
335.0,0.0,36,52,Marimba
335.0,0.0,28,52,Marimba
335.3333333333333,0.0,40,59,Marimba
335.3333333333333,0.0,28,59,Marimba
335.6666666666667,0.15333895576171125,45,122,Marimba
335.6666666666667,0.23000843364256687,64,102,Marimba
335.6666666666667,0.23000843364256687,55,102,Marimba
335.6666666666667,0.23000843364256687,60,102,Marimba
335.6666666666667,0.23000843364256687,52,102,Marimba
335.6666666666667,0.0,42,90,Marimba
335.75,0.0,54,45,Marimba
335.75,0.0,54,60,Marimba
336.0,0.30000750018750466,43,117,Marimba
336.0,0.2250056251406285,60,115,Marimba
336.0,0.2250056251406285,67,115,Marimba
336.0,0.2250056251406285,64,115,Marimba
336.0,0.30000750018750466,60,113,Marimba
336.0,0.30000750018750466,64,113,Marimba
336.0,0.30000750018750466,67,113,Marimba
336.0,0.0,54,75,Marimba
336.0,0.0,46,85,Marimba
336.0,0.0,54,85,Marimba
336.0,0.0,35,85,Marimba
336.0,0.0,40,85,Marimba
336.0,0.0,28,85,Marimba
336.0,0.0,54,75,Marimba
336.25,0.0,54,60,Marimba
336.25,0.0,54,56,Marimba
336.25,0.0,50,56,Marimba
336.25,0.0,36,56,Marimba
336.3333333333333,0.2250056251406285,52,112,Marimba
336.3333333333333,0.2250056251406285,60,112,Marimba
336.3333333333333,0.2250056251406285,55,112,Marimba
336.3333333333333,0.2250056251406285,64,112,Marimba
336.6666666666667,0.11250281257031425,40,108,Marimba
336.6666666666667,0.0,41,83,Marimba
336.6666666666667,0.0,40,83,Marimba
337.0,0.3450126504638503,37,120,Marimba
337.0,0.23000843364256687,72,120,Marimba
337.0,0.23000843364256687,73,120,Marimba
337.0,0.23000843364256687,84,120,Marimba
337.0,0.23000843364256687,77,120,Marimba
337.0,0.23000843364256687,80,120,Marimba
337.0,0.23000843364256687,49,98,Marimba
337.0,0.23000843364256687,53,98,Marimba
337.0,0.23000843364256687,56,98,Marimba
337.0,0.23000843364256687,60,98,Marimba
337.0,0.3066779115234225,61,117,Marimba
337.0,0.11500421682128344,56,98,Marimba
337.0,0.11500421682128344,60,98,Marimba
337.0,0.11500421682128344,61,98,Marimba
337.0,0.11500421682128344,65,98,Marimba
337.0,1.840067469140535,37,86,Marimba
337.0,0.0,42,82,Marimba
337.0,0.0,49,82,Marimba
337.0,0.0,53,82,Marimba
337.0,0.0,35,82,Marimba
337.0,0.0,28,82,Marimba
337.3333333333333,0.0,36,28,Marimba
337.6666666666667,0.11500421682128344,72,120,Marimba
337.6666666666667,0.11500421682128344,73,120,Marimba
337.6666666666667,0.11500421682128344,77,120,Marimba
337.6666666666667,0.11500421682128344,80,120,Marimba
337.6666666666667,0.11500421682128344,84,120,Marimba
337.6666666666667,0.11500421682128344,53,62,Marimba
337.6666666666667,0.0,28,34,Marimba
338.0,0.30000750018750466,36,122,Marimba
338.0,0.2250056251406285,72,120,Marimba
338.0,0.2250056251406285,84,120,Marimba
338.0,0.2250056251406285,73,120,Marimba
338.0,0.2250056251406285,80,120,Marimba
338.0,0.2250056251406285,77,120,Marimba
338.0,0.2250056251406285,49,114,Marimba
338.0,0.2250056251406285,56,114,Marimba
338.0,0.2250056251406285,53,114,Marimba
338.0,0.2250056251406285,60,114,Marimba
338.0,0.2250056251406285,56,120,Marimba
338.0,0.33750843771094274,56,102,Marimba
338.0,0.33750843771094274,61,102,Marimba
338.0,0.33750843771094274,60,102,Marimba
338.0,0.33750843771094274,65,102,Marimba
338.0,0.0,42,78,Marimba
338.0,0.0,53,78,Marimba
338.0,0.0,40,78,Marimba
338.0,0.0,28,78,Marimba
338.6666666666667,0.2250056251406285,37,87,Marimba
338.6666666666667,0.11250281257031425,72,120,Marimba
338.6666666666667,0.11250281257031425,73,120,Marimba
338.6666666666667,0.11250281257031425,84,120,Marimba
338.6666666666667,0.11250281257031425,77,120,Marimba
338.6666666666667,0.11250281257031425,80,120,Marimba
338.6666666666667,0.11250281257031425,56,77,Marimba
338.6666666666667,0.11250281257031425,53,77,Marimba
338.6666666666667,0.11250281257031425,49,77,Marimba
338.6666666666667,0.11250281257031425,60,77,Marimba
338.6666666666667,0.2250056251406285,61,111,Marimba
338.6666666666667,0.0,35,117,Marimba
339.0,0.15333895576171125,56,69,Marimba
339.0,0.15333895576171125,53,69,Marimba
339.0,0.15333895576171125,60,69,Marimba
339.0,0.15333895576171125,49,69,Marimba
339.0,0.11500421682128344,60,96,Marimba
339.0,0.11500421682128344,56,96,Marimba
339.0,0.11500421682128344,61,96,Marimba
339.0,0.11500421682128344,65,96,Marimba
339.0,0.0,42,64,Marimba
339.0,0.0,53,64,Marimba
339.0,0.0,36,64,Marimba
339.0,0.0,28,64,Marimba
339.6666666666667,0.46001686728513375,32,120,Marimba
339.6666666666667,0.23000843364256687,49,113,Marimba
339.6666666666667,0.23000843364256687,53,113,Marimba
339.6666666666667,0.23000843364256687,56,113,Marimba
339.6666666666667,0.23000843364256687,60,113,Marimba
339.6666666666667,0.11500421682128344,53,83,Marimba
339.6666666666667,0.0,42,79,Marimba
339.6666666666667,0.0,40,79,Marimba
340.0,0.30000750018750466,56,117,Marimba
340.0,0.33750843771094274,56,98,Marimba
340.0,0.33750843771094274,61,98,Marimba
340.0,0.33750843771094274,60,98,Marimba
340.0,0.33750843771094274,65,98,Marimba
340.0,0.0,48,79,Marimba
340.0,0.0,53,79,Marimba
340.0,0.0,42,79,Marimba
340.0,0.0,28,79,Marimba
340.3333333333333,0.11250281257031425,53,55,Marimba
340.3333333333333,0.11250281257031425,56,55,Marimba
340.3333333333333,0.11250281257031425,49,55,Marimba
340.6666666666667,0.15000375009375233,25,95,Marimba
340.6666666666667,0.11250281257031425,56,88,Marimba
340.6666666666667,0.11250281257031425,53,88,Marimba
340.6666666666667,0.11250281257031425,49,88,Marimba
340.6666666666667,0.11250281257031425,60,88,Marimba
340.6666666666667,0.15000375009375233,61,65,Marimba
340.6666666666667,0.0,28,34,Marimba
341.0,0.46001686728513375,27,112,Marimba
341.0,0.23000843364256687,58,94,Marimba
341.0,0.23000843364256687,55,94,Marimba
341.0,0.23000843364256687,49,94,Marimba
341.0,0.23000843364256687,53,94,Marimba
341.0,0.23000843364256687,53,111,Marimba
341.0,0.11500421682128344,61,101,Marimba
341.0,0.11500421682128344,55,101,Marimba
341.0,0.11500421682128344,58,101,Marimba
341.0,0.11500421682128344,65,101,Marimba
341.0,1.840067469140535,39,85,Marimba
341.0,0.0,53,102,Marimba
341.0,0.0,42,102,Marimba
341.0,0.0,35,102,Marimba
341.3333333333333,0.0,36,28,Marimba
341.6666666666667,0.46001686728513375,70,120,Marimba
341.6666666666667,0.46001686728513375,82,120,Marimba
341.6666666666667,0.46001686728513375,73,120,Marimba
341.6666666666667,0.46001686728513375,79,120,Marimba
341.6666666666667,0.46001686728513375,75,120,Marimba
341.6666666666667,0.11500421682128344,55,86,Marimba
341.6666666666667,0.0,28,34,Marimba
342.0,0.450011250281257,29,120,Marimba
342.0,0.30000750018750466,49,112,Marimba
342.0,0.30000750018750466,53,112,Marimba
342.0,0.30000750018750466,55,112,Marimba
342.0,0.30000750018750466,58,112,Marimba
342.0,0.2250056251406285,58,100,Marimba
342.0,0.33750843771094274,55,102,Marimba
342.0,0.33750843771094274,58,102,Marimba
342.0,0.33750843771094274,65,102,Marimba
342.0,0.33750843771094274,61,102,Marimba
342.0,0.0,53,94,Marimba
342.0,0.0,42,94,Marimba
342.0,0.0,40,94,Marimba
342.3333333333333,0.0,28,34,Marimba
342.6666666666667,0.11250281257031425,58,79,Marimba
342.6666666666667,0.11250281257031425,53,79,Marimba
342.6666666666667,0.11250281257031425,49,79,Marimba
342.6666666666667,0.11250281257031425,55,79,Marimba
342.6666666666667,0.30000750018750466,63,112,Marimba
343.0,0.450011250281257,31,122,Marimba
343.0,0.15000375009375233,68,120,Marimba
343.0,0.15000375009375233,79,120,Marimba
343.0,0.15000375009375233,73,120,Marimba
343.0,0.15000375009375233,80,120,Marimba
343.0,0.15000375009375233,75,120,Marimba
343.0,0.15000375009375233,58,74,Marimba
343.0,0.15000375009375233,53,74,Marimba
343.0,0.15000375009375233,55,74,Marimba
343.0,0.15000375009375233,49,74,Marimba
343.0,0.11250281257031425,55,95,Marimba
343.0,0.11250281257031425,58,95,Marimba
343.0,0.11250281257031425,61,95,Marimba
343.0,0.11250281257031425,65,95,Marimba
343.0,0.0,53,84,Marimba
343.0,0.0,42,84,Marimba
343.0,0.0,35,84,Marimba
343.0,0.0,28,84,Marimba
343.3333333333333,0.0,36,28,Marimba
343.6666666666667,0.2250056251406285,49,106,Marimba
343.6666666666667,0.2250056251406285,55,106,Marimba
343.6666666666667,0.2250056251406285,53,106,Marimba
343.6666666666667,0.2250056251406285,58,106,Marimba
343.6666666666667,0.11250281257031425,53,100,Marimba
343.6666666666667,0.0,42,72,Marimba
343.75,0.0,54,45,Marimba
343.75,0.0,54,60,Marimba
344.0,0.46001686728513375,27,117,Marimba
344.0,0.3066779115234225,70,120,Marimba
344.0,0.3066779115234225,82,120,Marimba
344.0,0.3066779115234225,73,120,Marimba
344.0,0.3066779115234225,75,120,Marimba
344.0,0.3066779115234225,79,120,Marimba
344.0,0.23000843364256687,55,112,Marimba
344.0,0.3450126504638503,55,105,Marimba
344.0,0.3450126504638503,61,105,Marimba
344.0,0.3450126504638503,58,105,Marimba
344.0,0.3450126504638503,65,105,Marimba
344.0,0.0,54,75,Marimba
344.0,0.0,53,78,Marimba
344.0,0.0,46,78,Marimba
344.0,0.0,54,78,Marimba
344.0,0.0,40,78,Marimba
344.0,0.0,28,78,Marimba
344.0,0.0,54,75,Marimba
344.25,0.0,54,60,Marimba
344.25,0.0,54,45,Marimba
344.6666666666667,0.11500421682128344,49,104,Marimba
344.6666666666667,0.11500421682128344,53,104,Marimba
344.6666666666667,0.11500421682128344,58,104,Marimba
344.6666666666667,0.11500421682128344,55,104,Marimba
344.6666666666667,0.11500421682128344,63,104,Marimba
344.6666666666667,0.0,35,59,Marimba
344.6666666666667,0.0,28,59,Marimba
345.0,0.450011250281257,32,114,Marimba
345.0,0.2250056251406285,70,120,Marimba
345.0,0.2250056251406285,72,120,Marimba
345.0,0.2250056251406285,82,120,Marimba
345.0,0.2250056251406285,75,120,Marimba
345.0,0.2250056251406285,79,120,Marimba
345.0,0.2250056251406285,48,90,Marimba
345.0,0.2250056251406285,51,90,Marimba
345.0,0.2250056251406285,55,90,Marimba
345.0,0.2250056251406285,58,90,Marimba
345.0,0.2250056251406285,51,114,Marimba
345.0,0.11250281257031425,56,92,Marimba
345.0,0.11250281257031425,60,92,Marimba
345.0,0.11250281257031425,67,92,Marimba
345.0,0.11250281257031425,63,92,Marimba
345.0,1.800045001125028,44,70,Marimba
345.0,0.0,53,71,Marimba
345.0,0.0,42,71,Marimba
345.0,0.0,36,71,Marimba
345.0,0.0,35,71,Marimba
345.0,0.0,28,71,Marimba
345.3333333333333,0.0,36,28,Marimba
345.6666666666667,0.11250281257031425,70,120,Marimba
345.6666666666667,0.11250281257031425,72,120,Marimba
345.6666666666667,0.11250281257031425,75,120,Marimba
345.6666666666667,0.11250281257031425,79,120,Marimba
345.6666666666667,0.11250281257031425,82,120,Marimba
345.6666666666667,0.11250281257031425,55,95,Marimba
346.0,0.3066779115234225,34,121,Marimba
346.0,0.23000843364256687,70,120,Marimba
346.0,0.23000843364256687,72,120,Marimba
346.0,0.23000843364256687,82,120,Marimba
346.0,0.23000843364256687,75,120,Marimba
346.0,0.23000843364256687,79,120,Marimba
346.0,0.23000843364256687,48,110,Marimba
346.0,0.23000843364256687,51,110,Marimba
346.0,0.23000843364256687,55,110,Marimba
346.0,0.23000843364256687,58,110,Marimba
346.0,0.3066779115234225,58,120,Marimba
346.0,0.3450126504638503,58,110,Marimba
346.0,0.3450126504638503,67,110,Marimba
346.0,0.3450126504638503,60,110,Marimba
346.0,0.3450126504638503,63,110,Marimba
346.0,0.0,53,80,Marimba
346.0,0.0,42,80,Marimba
346.0,0.0,40,80,Marimba
346.0,0.0,28,80,Marimba
346.6666666666667,0.11500421682128344,35,108,Marimba
346.6666666666667,0.15333895576171125,70,120,Marimba
346.6666666666667,0.11500421682128344,72,120,Marimba
346.6666666666667,0.11500421682128344,82,120,Marimba
346.6666666666667,0.11500421682128344,75,120,Marimba
346.6666666666667,0.11500421682128344,79,120,Marimba
346.6666666666667,0.0,51,74,Marimba
346.6666666666667,0.0,48,74,Marimba
346.6666666666667,0.0,55,74,Marimba
346.6666666666667,0.0,58,74,Marimba
346.6666666666667,0.11500421682128344,51,104,Marimba
346.6666666666667,0.0,35,111,Marimba
347.0,0.33750843771094274,36,108,Marimba
347.0,0.15000375009375233,51,77,Marimba
347.0,0.15000375009375233,55,77,Marimba
347.0,0.15000375009375233,48,77,Marimba
347.0,0.15000375009375233,58,77,Marimba
347.0,0.2250056251406285,55,114,Marimba
347.0,0.11250281257031425,67,88,Marimba
347.0,0.11250281257031425,60,88,Marimba
347.0,0.11250281257031425,63,88,Marimba
347.0,0.11250281257031425,58,88,Marimba
347.0,0.0,53,65,Marimba
347.0,0.0,42,65,Marimba
347.0,0.0,36,65,Marimba
347.0,0.0,28,65,Marimba
347.3333333333333,0.0,28,34,Marimba
347.6666666666667,0.30000750018750466,48,100,Marimba
347.6666666666667,0.30000750018750466,51,100,Marimba
347.6666666666667,0.30000750018750466,55,100,Marimba
347.6666666666667,0.30000750018750466,58,100,Marimba
347.6666666666667,0.15000375009375233,58,121,Marimba
347.6666666666667,0.0,40,99,Marimba
348.0,0.46001686728513375,27,117,Marimba
348.0,0.3450126504638503,58,116,Marimba
348.0,0.3450126504638503,60,116,Marimba
348.0,0.3450126504638503,63,116,Marimba
348.0,0.3066779115234225,67,95,Marimba
348.0,0.0,45,82,Marimba
348.0,0.0,53,82,Marimba
348.0,0.0,42,82,Marimba
348.0,0.0,28,82,Marimba
348.6666666666667,0.11500421682128344,48,99,Marimba
348.6666666666667,0.11500421682128344,51,99,Marimba
348.6666666666667,0.11500421682128344,55,99,Marimba
348.6666666666667,0.11500421682128344,58,99,Marimba
348.6666666666667,0.15333895576171125,51,112,Marimba
348.6666666666667,0.0,28,34,Marimba
349.0,0.450011250281257,29,117,Marimba
349.0,0.2250056251406285,60,101,Marimba
349.0,0.2250056251406285,56,101,Marimba
349.0,0.2250056251406285,51,101,Marimba
349.0,0.2250056251406285,53,101,Marimba
349.0,0.2250056251406285,53,86,Marimba
349.0,0.15000375009375233,51,79,Marimba
349.0,0.11250281257031425,56,100,Marimba
349.0,0.11250281257031425,53,100,Marimba
349.0,0.11250281257031425,63,100,Marimba
349.0,0.11250281257031425,60,100,Marimba
349.0,1.800045001125028,41,77,Marimba
349.0,0.0,53,99,Marimba
349.0,0.0,42,99,Marimba
349.0,0.0,35,99,Marimba
349.3333333333333,0.0,36,31,Marimba
349.3333333333333,0.0,28,31,Marimba
349.6666666666667,0.450011250281257,68,120,Marimba
349.6666666666667,0.450011250281257,80,120,Marimba
349.6666666666667,0.450011250281257,72,120,Marimba
349.6666666666667,0.450011250281257,75,120,Marimba
349.6666666666667,0.450011250281257,77,120,Marimba
349.6666666666667,0.11250281257031425,56,90,Marimba
350.0,0.46001686728513375,31,121,Marimba
350.0,0.23000843364256687,51,110,Marimba
350.0,0.23000843364256687,53,110,Marimba
350.0,0.23000843364256687,56,110,Marimba
350.0,0.23000843364256687,60,110,Marimba
350.0,0.23000843364256687,60,112,Marimba
350.0,0.3450126504638503,53,108,Marimba
350.0,0.3450126504638503,56,108,Marimba
350.0,0.3450126504638503,63,108,Marimba
350.0,0.3450126504638503,60,108,Marimba
350.0,0.0,53,97,Marimba
350.0,0.0,42,97,Marimba
350.0,0.0,40,97,Marimba
350.3333333333333,0.0,28,34,Marimba
350.6666666666667,0.0,56,76,Marimba
350.6666666666667,0.0,53,76,Marimba
350.6666666666667,0.0,51,76,Marimba
350.6666666666667,0.0,60,76,Marimba
350.6666666666667,0.11500421682128344,53,76,Marimba
350.6666666666667,0.0,35,115,Marimba
351.0,0.450011250281257,32,121,Marimba
351.0,0.2250056251406285,67,120,Marimba
351.0,0.2250056251406285,77,120,Marimba
351.0,0.2250056251406285,72,120,Marimba
351.0,0.2250056251406285,79,120,Marimba
351.0,0.2250056251406285,75,120,Marimba
351.0,0.15000375009375233,56,71,Marimba
351.0,0.15000375009375233,53,71,Marimba
351.0,0.15000375009375233,60,71,Marimba
351.0,0.15000375009375233,51,71,Marimba
351.0,0.2250056251406285,56,111,Marimba
351.0,0.11250281257031425,63,88,Marimba
351.0,0.11250281257031425,53,88,Marimba
351.0,0.11250281257031425,60,88,Marimba
351.0,0.11250281257031425,56,88,Marimba
351.0,0.0,53,58,Marimba
351.0,0.0,42,58,Marimba
351.0,0.0,36,58,Marimba
351.0,0.0,28,58,Marimba
351.3333333333333,0.0,40,84,Marimba
351.6666666666667,0.30000750018750466,51,105,Marimba
351.6666666666667,0.30000750018750466,56,105,Marimba
351.6666666666667,0.30000750018750466,53,105,Marimba
351.6666666666667,0.30000750018750466,60,105,Marimba
351.6666666666667,0.2250056251406285,60,104,Marimba
351.6666666666667,0.0,42,90,Marimba
351.75,0.0,54,45,Marimba
351.75,0.0,54,60,Marimba
352.0,0.450011250281257,29,117,Marimba
352.0,0.33750843771094274,68,120,Marimba
352.0,0.33750843771094274,80,120,Marimba
352.0,0.33750843771094274,72,120,Marimba
352.0,0.33750843771094274,75,120,Marimba
352.0,0.33750843771094274,77,120,Marimba
352.0,0.30000750018750466,53,104,Marimba
352.0,0.30000750018750466,63,104,Marimba
352.0,0.30000750018750466,56,104,Marimba
352.0,0.30000750018750466,60,104,Marimba
352.0,0.0,54,75,Marimba
352.0,0.0,53,88,Marimba
352.0,0.0,42,88,Marimba
352.0,0.0,54,88,Marimba
352.0,0.0,35,88,Marimba
352.0,0.0,28,88,Marimba
352.25,0.0,54,75,Marimba
352.25,0.0,54,60,Marimba
352.3333333333333,0.0,54,36,Marimba
352.3333333333333,0.0,36,36,Marimba
352.6666666666667,0.11250281257031425,51,91,Marimba
352.6666666666667,0.11250281257031425,56,91,Marimba
352.6666666666667,0.11250281257031425,53,91,Marimba
352.6666666666667,0.11250281257031425,60,91,Marimba
352.6666666666667,0.15000375009375233,60,111,Marimba
352.6666666666667,0.0,42,71,Marimba
352.6666666666667,0.0,40,71,Marimba
352.6666666666667,0.0,28,71,Marimba
353.0,0.3450126504638503,37,117,Marimba
353.0,0.23000843364256687,72,120,Marimba
353.0,0.3066779115234225,73,120,Marimba
353.0,0.3066779115234225,77,120,Marimba
353.0,0.3066779115234225,80,120,Marimba
353.0,0.3066779115234225,84,120,Marimba
353.0,0.23000843364256687,60,102,Marimba
353.0,0.23000843364256687,49,102,Marimba
353.0,0.23000843364256687,53,102,Marimba
353.0,0.23000843364256687,56,102,Marimba
353.0,1.840067469140535,37,74,Marimba
353.0,0.11500421682128344,56,103,Marimba
353.0,0.11500421682128344,61,103,Marimba
353.0,0.11500421682128344,60,103,Marimba
353.0,0.11500421682128344,65,103,Marimba
353.0,0.0,53,100,Marimba
353.0,0.0,42,100,Marimba
353.0,0.0,35,100,Marimba
353.3333333333333,0.0,36,31,Marimba
353.3333333333333,0.0,28,31,Marimba
353.6666666666667,0.11500421682128344,72,120,Marimba
353.6666666666667,0.11500421682128344,73,120,Marimba
353.6666666666667,0.11500421682128344,80,120,Marimba
353.6666666666667,0.11500421682128344,77,120,Marimba
353.6666666666667,0.11500421682128344,84,120,Marimba
353.6666666666667,0.11500421682128344,53,111,Marimba
354.0,0.30000750018750466,36,114,Marimba
354.0,0.2250056251406285,72,120,Marimba
354.0,0.2250056251406285,84,120,Marimba
354.0,0.2250056251406285,73,120,Marimba
354.0,0.2250056251406285,77,120,Marimba
354.0,0.2250056251406285,80,120,Marimba
354.0,0.2250056251406285,49,102,Marimba
354.0,0.2250056251406285,53,102,Marimba
354.0,0.2250056251406285,56,102,Marimba
354.0,0.2250056251406285,60,102,Marimba
354.0,0.2250056251406285,56,104,Marimba
354.0,0.33750843771094274,56,108,Marimba
354.0,0.33750843771094274,61,108,Marimba
354.0,0.33750843771094274,60,108,Marimba
354.0,0.33750843771094274,65,108,Marimba
354.0,0.0,53,91,Marimba
354.0,0.0,42,91,Marimba
354.0,0.0,40,91,Marimba
354.3333333333333,0.0,28,34,Marimba
354.6666666666667,0.33750843771094274,37,108,Marimba
354.6666666666667,0.11250281257031425,72,120,Marimba
354.6666666666667,0.11250281257031425,84,120,Marimba
354.6666666666667,0.11250281257031425,73,120,Marimba
354.6666666666667,0.11250281257031425,77,120,Marimba
354.6666666666667,0.11250281257031425,80,120,Marimba
354.6666666666667,0.0,56,83,Marimba
354.6666666666667,0.0,53,83,Marimba
354.6666666666667,0.0,49,83,Marimba
354.6666666666667,0.0,60,83,Marimba
354.6666666666667,0.2250056251406285,61,98,Marimba
354.6666666666667,0.0,35,117,Marimba
355.0,0.15333895576171125,56,76,Marimba
355.0,0.15333895576171125,60,76,Marimba
355.0,0.15333895576171125,53,76,Marimba
355.0,0.15333895576171125,49,76,Marimba
355.0,0.23000843364256687,53,104,Marimba
355.0,0.11500421682128344,56,80,Marimba
355.0,0.11500421682128344,61,80,Marimba
355.0,0.11500421682128344,60,80,Marimba
355.0,0.11500421682128344,65,80,Marimba
355.0,0.0,53,59,Marimba
355.0,0.0,42,59,Marimba
355.0,0.0,36,59,Marimba
355.0,0.0,28,59,Marimba
355.6666666666667,0.46001686728513375,29,117,Marimba
355.6666666666667,0.3066779115234225,49,102,Marimba
355.6666666666667,0.3066779115234225,53,102,Marimba
355.6666666666667,0.3066779115234225,56,102,Marimba
355.6666666666667,0.23000843364256687,60,95,Marimba
355.6666666666667,0.15333895576171125,56,117,Marimba
355.6666666666667,0.0,42,87,Marimba
355.6666666666667,0.0,40,87,Marimba
356.0,0.30000750018750466,61,85,Marimba
356.0,0.33750843771094274,61,110,Marimba
356.0,0.33750843771094274,56,110,Marimba
356.0,0.33750843771094274,60,110,Marimba
356.0,0.33750843771094274,65,110,Marimba
356.0,0.0,48,75,Marimba
356.0,0.0,53,75,Marimba
356.0,0.0,42,75,Marimba
356.0,0.0,28,75,Marimba
356.6666666666667,0.11250281257031425,28,98,Marimba
356.6666666666667,0.11250281257031425,49,95,Marimba
356.6666666666667,0.11250281257031425,53,95,Marimba
356.6666666666667,0.11250281257031425,56,95,Marimba
356.6666666666667,0.11250281257031425,60,95,Marimba
356.6666666666667,0.11250281257031425,53,65,Marimba
357.0,0.46001686728513375,27,121,Marimba
357.0,0.23000843364256687,49,92,Marimba
357.0,0.23000843364256687,58,92,Marimba
357.0,0.23000843364256687,55,92,Marimba
357.0,0.23000843364256687,51,92,Marimba
357.0,0.23000843364256687,53,83,Marimba
357.0,1.840067469140535,39,76,Marimba
357.0,0.11500421682128344,61,94,Marimba
357.0,0.11500421682128344,55,94,Marimba
357.0,0.11500421682128344,58,94,Marimba
357.0,0.11500421682128344,65,94,Marimba
357.0,0.0,53,102,Marimba
357.0,0.0,42,102,Marimba
357.0,0.0,35,102,Marimba
357.3333333333333,0.0,36,31,Marimba
357.3333333333333,0.0,28,31,Marimba
357.6666666666667,0.46001686728513375,70,120,Marimba
357.6666666666667,0.46001686728513375,73,120,Marimba
357.6666666666667,0.46001686728513375,82,120,Marimba
357.6666666666667,0.46001686728513375,75,120,Marimba
357.6666666666667,0.46001686728513375,79,120,Marimba
357.6666666666667,0.11500421682128344,55,98,Marimba
358.0,0.450011250281257,29,120,Marimba
358.0,0.30000750018750466,49,112,Marimba
358.0,0.30000750018750466,53,112,Marimba
358.0,0.30000750018750466,58,112,Marimba
358.0,0.30000750018750466,55,112,Marimba
358.0,0.2250056251406285,63,111,Marimba
358.0,0.33750843771094274,55,105,Marimba
358.0,0.33750843771094274,61,105,Marimba
358.0,0.33750843771094274,58,105,Marimba
358.0,0.33750843771094274,65,105,Marimba
358.0,0.0,53,96,Marimba
358.0,0.0,42,96,Marimba
358.0,0.0,40,96,Marimba
358.3333333333333,0.0,28,34,Marimba
358.6666666666667,0.11250281257031425,53,76,Marimba
358.6666666666667,0.11250281257031425,55,76,Marimba
358.6666666666667,0.11250281257031425,58,76,Marimba
358.6666666666667,0.11250281257031425,49,76,Marimba
358.6666666666667,0.11250281257031425,53,86,Marimba
359.0,0.3066779115234225,31,121,Marimba
359.0,0.15333895576171125,68,120,Marimba
359.0,0.15333895576171125,79,120,Marimba
359.0,0.15333895576171125,73,120,Marimba
359.0,0.15333895576171125,75,120,Marimba
359.0,0.15333895576171125,80,120,Marimba
359.0,0.15333895576171125,58,70,Marimba
359.0,0.15333895576171125,55,70,Marimba
359.0,0.15333895576171125,53,70,Marimba
359.0,0.15333895576171125,49,70,Marimba
359.0,0.23000843364256687,55,111,Marimba
359.0,0.11500421682128344,55,93,Marimba
359.0,0.11500421682128344,58,93,Marimba
359.0,0.11500421682128344,61,93,Marimba
359.0,0.11500421682128344,65,93,Marimba
359.0,0.0,53,87,Marimba
359.0,0.0,42,87,Marimba
359.0,0.0,35,87,Marimba
359.0,0.0,28,87,Marimba
359.3333333333333,0.0,36,28,Marimba
359.6666666666667,0.46001686728513375,27,117,Marimba
359.6666666666667,0.3066779115234225,49,109,Marimba
359.6666666666667,0.3066779115234225,55,109,Marimba
359.6666666666667,0.3066779115234225,58,109,Marimba
359.6666666666667,0.3066779115234225,53,109,Marimba
359.6666666666667,0.11500421682128344,58,117,Marimba
359.75,0.0,54,45,Marimba
359.75,0.0,54,60,Marimba
360.0,0.2250056251406285,70,120,Marimba
360.0,0.2250056251406285,82,120,Marimba
360.0,0.2250056251406285,73,120,Marimba
360.0,0.2250056251406285,79,120,Marimba
360.0,0.2250056251406285,75,120,Marimba
360.0,0.30000750018750466,63,111,Marimba
360.0,0.33750843771094274,55,111,Marimba
360.0,0.33750843771094274,58,111,Marimba
360.0,0.33750843771094274,61,104,Marimba
360.0,0.33750843771094274,58,104,Marimba
360.0,0.33750843771094274,65,104,Marimba
360.0,0.0,54,75,Marimba
360.0,0.0,53,80,Marimba
360.0,0.0,46,80,Marimba
360.0,0.0,54,80,Marimba
360.0,0.0,40,80,Marimba
360.0,0.0,28,80,Marimba
360.0,0.0,54,75,Marimba
360.25,0.0,54,60,Marimba
360.25,0.0,54,45,Marimba
360.6666666666667,0.15000375009375233,27,98,Marimba
360.6666666666667,0.11250281257031425,49,77,Marimba
360.6666666666667,0.11250281257031425,53,77,Marimba
360.6666666666667,0.11250281257031425,55,77,Marimba
360.6666666666667,0.11250281257031425,58,77,Marimba
360.6666666666667,0.0,35,84,Marimba
361.0,0.46001686728513375,32,121,Marimba
361.0,0.3450126504638503,70,120,Marimba
361.0,0.3450126504638503,72,120,Marimba
361.0,0.3450126504638503,75,120,Marimba
361.0,0.3450126504638503,79,120,Marimba
361.0,0.3450126504638503,82,120,Marimba
361.0,0.23000843364256687,58,94,Marimba
361.0,0.23000843364256687,55,94,Marimba
361.0,0.23000843364256687,51,94,Marimba
361.0,0.23000843364256687,48,94,Marimba
361.0,0.3066779115234225,63,112,Marimba
361.0,0.11500421682128344,60,100,Marimba
361.0,0.11500421682128344,58,100,Marimba
361.0,0.11500421682128344,67,100,Marimba
361.0,0.11500421682128344,63,100,Marimba
361.0,1.840067469140535,44,74,Marimba
361.0,0.0,53,86,Marimba
361.0,0.0,42,86,Marimba
361.0,0.0,36,86,Marimba
361.0,0.0,35,86,Marimba
361.3333333333333,0.0,28,31,Marimba
361.3333333333333,0.0,36,31,Marimba
362.0,0.450011250281257,31,120,Marimba
362.0,0.2250056251406285,68,120,Marimba
362.0,0.2250056251406285,79,120,Marimba
362.0,0.2250056251406285,72,120,Marimba
362.0,0.2250056251406285,75,120,Marimba
362.0,0.2250056251406285,80,120,Marimba
362.0,0.30000750018750466,48,108,Marimba
362.0,0.30000750018750466,51,108,Marimba
362.0,0.30000750018750466,55,108,Marimba
362.0,0.30000750018750466,58,108,Marimba
362.0,0.2250056251406285,55,111,Marimba
362.0,0.33750843771094274,67,109,Marimba
362.0,0.33750843771094274,58,109,Marimba
362.0,0.33750843771094274,60,109,Marimba
362.0,0.33750843771094274,63,109,Marimba
362.0,0.0,53,83,Marimba
362.0,0.0,42,83,Marimba
362.0,0.0,40,83,Marimba
362.0,0.0,28,83,Marimba
362.6666666666667,0.11250281257031425,70,120,Marimba
362.6666666666667,0.11250281257031425,72,120,Marimba
362.6666666666667,0.11250281257031425,82,120,Marimba
362.6666666666667,0.11250281257031425,79,120,Marimba
362.6666666666667,0.11250281257031425,75,120,Marimba
362.6666666666667,0.2250056251406285,48,89,Marimba
362.6666666666667,0.2250056251406285,51,89,Marimba
362.6666666666667,0.2250056251406285,55,89,Marimba
362.6666666666667,0.2250056251406285,58,89,Marimba
362.6666666666667,0.2250056251406285,60,117,Marimba
362.6666666666667,0.0,35,111,Marimba
363.0,0.450011250281257,32,121,Marimba
363.0,0.11250281257031425,60,92,Marimba
363.0,0.11250281257031425,58,92,Marimba
363.0,0.11250281257031425,63,92,Marimba
363.0,0.11250281257031425,67,92,Marimba
363.0,0.0,53,61,Marimba
363.0,0.0,42,61,Marimba
363.0,0.0,36,61,Marimba
363.0,0.0,28,61,Marimba
363.6666666666667,0.11250281257031425,72,120,Marimba
363.6666666666667,0.11250281257031425,75,120,Marimba
363.6666666666667,0.11250281257031425,80,120,Marimba
363.6666666666667,0.11250281257031425,79,120,Marimba
363.6666666666667,0.11250281257031425,84,120,Marimba
363.6666666666667,0.33750843771094274,48,97,Marimba
363.6666666666667,0.33750843771094274,51,97,Marimba
363.6666666666667,0.33750843771094274,55,97,Marimba
363.6666666666667,0.33750843771094274,58,97,Marimba
363.6666666666667,0.33750843771094274,63,111,Marimba
363.6666666666667,0.0,40,84,Marimba
364.0,0.46001686728513375,27,112,Marimba
364.0,0.3066779115234225,67,111,Marimba
364.0,0.3066779115234225,60,111,Marimba
364.0,0.3066779115234225,58,111,Marimba
364.0,0.3066779115234225,63,111,Marimba
364.0,0.0,53,80,Marimba
364.0,0.0,42,80,Marimba
364.0,0.0,28,80,Marimba
364.6666666666667,1.6867285133788237,68,120,Marimba
364.6666666666667,1.610059035497968,72,120,Marimba
364.6666666666667,1.610059035497968,80,120,Marimba
364.6666666666667,1.610059035497968,75,120,Marimba
364.6666666666667,1.610059035497968,77,120,Marimba
364.6666666666667,0.11500421682128344,48,82,Marimba
364.6666666666667,0.11500421682128344,51,82,Marimba
364.6666666666667,0.11500421682128344,55,82,Marimba
364.6666666666667,0.11500421682128344,58,82,Marimba
364.6666666666667,0.15333895576171125,63,100,Marimba
365.0,0.450011250281257,29,122,Marimba
365.0,0.15000375009375233,60,91,Marimba
365.0,0.15000375009375233,51,91,Marimba
365.0,0.15000375009375233,56,91,Marimba
365.0,0.15000375009375233,53,91,Marimba
365.0,0.0,55,79,Marimba
365.0,0.11250281257031425,56,94,Marimba
365.0,0.11250281257031425,63,94,Marimba
365.0,0.11250281257031425,53,94,Marimba
365.0,0.11250281257031425,60,94,Marimba
365.0,1.800045001125028,41,76,Marimba
365.0,0.0,53,86,Marimba
365.0,0.0,42,86,Marimba
365.0,0.0,35,86,Marimba
365.0,0.0,28,86,Marimba
365.3333333333333,0.0,36,31,Marimba
365.3333333333333,0.0,28,31,Marimba
365.6666666666667,0.11250281257031425,53,108,Marimba
366.0,0.46001686728513375,29,117,Marimba
366.0,0.23000843364256687,51,112,Marimba
366.0,0.23000843364256687,56,112,Marimba
366.0,0.23000843364256687,53,112,Marimba
366.0,0.23000843364256687,60,112,Marimba
366.0,0.23000843364256687,56,117,Marimba
366.0,0.3450126504638503,53,111,Marimba
366.0,0.3450126504638503,56,111,Marimba
366.0,0.3450126504638503,63,111,Marimba
366.0,0.3450126504638503,60,111,Marimba
366.0,0.0,53,80,Marimba
366.0,0.0,42,80,Marimba
366.0,0.0,40,80,Marimba
366.0,0.0,28,80,Marimba
366.6666666666667,0.15333895576171125,56,81,Marimba
366.6666666666667,0.15333895576171125,51,81,Marimba
366.6666666666667,0.15333895576171125,53,81,Marimba
366.6666666666667,0.15333895576171125,60,80,Marimba
366.6666666666667,0.15333895576171125,53,80,Marimba
366.6666666666667,0.15333895576171125,60,104,Marimba
366.6666666666667,0.0,35,115,Marimba
367.0,0.30000750018750466,36,114,Marimba
367.0,0.2250056251406285,51,111,Marimba
367.0,0.11250281257031425,53,80,Marimba
367.0,0.11250281257031425,56,80,Marimba
367.0,0.11250281257031425,63,80,Marimba
367.0,0.11250281257031425,60,80,Marimba
367.0,0.0,53,61,Marimba
367.0,0.0,42,61,Marimba
367.0,0.0,36,61,Marimba
367.0,0.0,28,61,Marimba
367.3333333333333,0.0,40,59,Marimba
367.3333333333333,0.0,28,59,Marimba
367.6666666666667,0.450011250281257,29,112,Marimba
367.6666666666667,0.30000750018750466,51,111,Marimba
367.6666666666667,0.30000750018750466,56,111,Marimba
367.6666666666667,0.30000750018750466,53,111,Marimba
367.6666666666667,0.30000750018750466,60,111,Marimba
367.6666666666667,0.11250281257031425,56,79,Marimba
367.6666666666667,0.0,42,90,Marimba
367.75,0.0,54,45,Marimba
367.75,0.0,54,60,Marimba
368.0,0.3066779115234225,60,108,Marimba
368.0,0.3066779115234225,63,110,Marimba
368.0,0.3066779115234225,53,110,Marimba
368.0,0.3066779115234225,56,110,Marimba
368.0,0.3066779115234225,60,110,Marimba
368.0,0.0,54,75,Marimba
368.0,0.0,53,84,Marimba
368.0,0.0,46,84,Marimba
368.0,0.0,54,84,Marimba
368.0,0.0,35,84,Marimba
368.0,0.0,40,84,Marimba
368.0,0.0,28,84,Marimba
368.25,0.0,54,75,Marimba
368.25,0.0,54,60,Marimba
368.3333333333333,0.0,54,36,Marimba
368.3333333333333,0.0,36,36,Marimba
368.6666666666667,0.15333895576171125,29,111,Marimba
368.6666666666667,0.11500421682128344,56,84,Marimba
368.6666666666667,0.11500421682128344,53,84,Marimba
368.6666666666667,0.11500421682128344,51,84,Marimba
368.6666666666667,0.11500421682128344,60,84,Marimba
368.6666666666667,0.0,41,87,Marimba
368.6666666666667,0.0,40,87,Marimba
369.0,0.5625140628515712,34,122,Marimba
369.0,0.33750843771094274,61,120,Marimba
369.0,0.33750843771094274,61,120,Marimba
369.0,0.2250056251406285,56,91,Marimba
369.0,0.2250056251406285,60,91,Marimba
369.0,0.2250056251406285,53,91,Marimba
369.0,0.2250056251406285,49,91,Marimba
369.0,0.15000375009375233,56,93,Marimba
369.0,0.15000375009375233,61,93,Marimba
369.0,0.15000375009375233,53,93,Marimba
369.0,1.800045001125028,34,74,Marimba
369.0,0.11250281257031425,56,95,Marimba
369.0,0.11250281257031425,61,95,Marimba
369.0,0.11250281257031425,53,95,Marimba
369.0,0.11250281257031425,58,95,Marimba
369.0,0.0,42,87,Marimba
369.0,0.0,35,87,Marimba
369.0,0.0,28,87,Marimba
369.3333333333333,0.0,36,28,Marimba
369.6666666666667,0.0,28,34,Marimba
370.0,0.3066779115234225,60,120,Marimba
370.0,0.3066779115234225,60,120,Marimba
370.0,0.23000843364256687,49,109,Marimba
370.0,0.23000843364256687,56,109,Marimba
370.0,0.23000843364256687,53,109,Marimba
370.0,0.23000843364256687,60,109,Marimba
370.0,0.3450126504638503,53,115,Marimba
370.0,0.3450126504638503,56,115,Marimba
370.0,0.3450126504638503,61,115,Marimba
370.0,0.3450126504638503,56,112,Marimba
370.0,0.3450126504638503,61,112,Marimba
370.0,0.3450126504638503,53,112,Marimba
370.0,0.3450126504638503,58,112,Marimba
370.0,0.0,42,77,Marimba
370.0,0.0,40,77,Marimba
370.0,0.0,28,77,Marimba
370.6666666666667,0.3450126504638503,36,120,Marimba
370.6666666666667,0.3066779115234225,61,120,Marimba
370.6666666666667,0.3066779115234225,61,120,Marimba
370.6666666666667,0.23000843364256687,49,100,Marimba
370.6666666666667,0.23000843364256687,56,100,Marimba
370.6666666666667,0.23000843364256687,53,100,Marimba
370.6666666666667,0.23000843364256687,60,100,Marimba
370.6666666666667,0.0,35,117,Marimba
371.0,0.11250281257031425,56,87,Marimba
371.0,0.11250281257031425,53,87,Marimba
371.0,0.11250281257031425,61,87,Marimba
371.0,0.11250281257031425,56,80,Marimba
371.0,0.11250281257031425,58,80,Marimba
371.0,0.11250281257031425,53,80,Marimba
371.0,0.11250281257031425,61,80,Marimba
371.0,0.0,42,58,Marimba
371.0,0.0,36,58,Marimba
371.0,0.0,28,58,Marimba
371.6666666666667,0.11250281257031425,37,90,Marimba
371.6666666666667,0.11250281257031425,65,120,Marimba
371.6666666666667,0.11250281257031425,65,120,Marimba
371.6666666666667,0.33750843771094274,49,100,Marimba
371.6666666666667,0.33750843771094274,56,100,Marimba
371.6666666666667,0.33750843771094274,53,100,Marimba
371.6666666666667,0.33750843771094274,60,100,Marimba
371.6666666666667,0.0,42,79,Marimba
371.6666666666667,0.0,40,79,Marimba
372.0,0.33750843771094274,41,111,Marimba
372.0,0.30000750018750466,72,120,Marimba
372.0,0.30000750018750466,72,120,Marimba
372.0,0.450011250281257,56,114,Marimba
372.0,0.450011250281257,53,114,Marimba
372.0,0.450011250281257,61,114,Marimba
372.0,0.33750843771094274,56,110,Marimba
372.0,0.33750843771094274,53,110,Marimba
372.0,0.33750843771094274,58,110,Marimba
372.0,0.33750843771094274,61,110,Marimba
372.0,0.0,42,72,Marimba
372.0,0.0,28,72,Marimba
372.6666666666667,0.11250281257031425,40,104,Marimba
372.6666666666667,0.450011250281257,70,120,Marimba
372.6666666666667,0.450011250281257,70,120,Marimba
372.6666666666667,0.11250281257031425,56,83,Marimba
372.6666666666667,0.11250281257031425,49,83,Marimba
372.6666666666667,0.11250281257031425,53,83,Marimba
372.6666666666667,0.11250281257031425,60,83,Marimba
372.6666666666667,0.0,28,34,Marimba
373.0,0.46001686728513375,39,90,Marimba
373.0,0.23000843364256687,58,98,Marimba
373.0,0.23000843364256687,55,98,Marimba
373.0,0.23000843364256687,49,98,Marimba
373.0,0.23000843364256687,53,98,Marimba
373.0,0.11500421682128344,63,97,Marimba
373.0,0.11500421682128344,58,97,Marimba
373.0,0.11500421682128344,55,97,Marimba
373.0,0.11500421682128344,55,89,Marimba
373.0,0.11500421682128344,58,89,Marimba
373.0,0.11500421682128344,61,89,Marimba
373.0,0.11500421682128344,65,89,Marimba
373.0,1.840067469140535,39,76,Marimba
373.0,0.0,42,114,Marimba
373.0,0.0,35,114,Marimba
373.3333333333333,0.0,36,28,Marimba
373.6666666666667,0.0,28,34,Marimba
374.0,0.30000750018750466,34,120,Marimba
374.0,0.33750843771094274,67,120,Marimba
374.0,0.33750843771094274,67,120,Marimba
374.0,0.2250056251406285,49,105,Marimba
374.0,0.2250056251406285,55,105,Marimba
374.0,0.2250056251406285,53,105,Marimba
374.0,0.2250056251406285,58,105,Marimba
374.0,0.33750843771094274,55,109,Marimba
374.0,0.33750843771094274,63,109,Marimba
374.0,0.33750843771094274,58,109,Marimba
374.0,0.33750843771094274,55,104,Marimba
374.0,0.33750843771094274,58,104,Marimba
374.0,0.33750843771094274,61,104,Marimba
374.0,0.33750843771094274,65,104,Marimba
374.0,0.0,42,100,Marimba
374.0,0.0,40,100,Marimba
374.3333333333333,0.0,28,34,Marimba
374.6666666666667,0.450011250281257,27,112,Marimba
374.6666666666667,0.2250056251406285,49,80,Marimba
374.6666666666667,0.2250056251406285,58,80,Marimba
374.6666666666667,0.2250056251406285,55,80,Marimba
374.6666666666667,0.2250056251406285,53,80,Marimba
375.0,0.3450126504638503,65,120,Marimba
375.0,0.3450126504638503,65,120,Marimba
375.0,0.11500421682128344,63,94,Marimba
375.0,0.11500421682128344,58,94,Marimba
375.0,0.11500421682128344,55,94,Marimba
375.0,0.11500421682128344,61,79,Marimba
375.0,0.11500421682128344,55,79,Marimba
375.0,0.11500421682128344,58,79,Marimba
375.0,0.11500421682128344,65,79,Marimba
375.0,0.0,42,87,Marimba
375.0,0.0,35,87,Marimba
375.0,0.0,28,87,Marimba
375.3333333333333,0.0,36,28,Marimba
375.6666666666667,0.11500421682128344,29,75,Marimba
375.6666666666667,0.15333895576171125,49,102,Marimba
375.6666666666667,0.15333895576171125,53,102,Marimba
375.6666666666667,0.15333895576171125,55,102,Marimba
375.6666666666667,0.15333895576171125,58,102,Marimba
375.6666666666667,0.0,42,72,Marimba
375.75,0.0,54,45,Marimba
375.75,0.0,54,60,Marimba
376.0,0.33750843771094274,27,104,Marimba
376.0,0.450011250281257,67,120,Marimba
376.0,0.450011250281257,67,120,Marimba
376.0,0.33750843771094274,55,113,Marimba
376.0,0.33750843771094274,58,113,Marimba
376.0,0.33750843771094274,63,113,Marimba
376.0,0.33750843771094274,58,104,Marimba
376.0,0.33750843771094274,61,104,Marimba
376.0,0.33750843771094274,55,104,Marimba
376.0,0.33750843771094274,65,104,Marimba
376.0,0.0,54,75,Marimba
376.0,0.0,46,78,Marimba
376.0,0.0,54,78,Marimba
376.0,0.0,40,78,Marimba
376.0,0.0,28,78,Marimba
376.0,0.0,54,75,Marimba
376.25,0.0,54,60,Marimba
376.25,0.0,54,45,Marimba
376.3333333333333,0.11250281257031425,53,76,Marimba
376.3333333333333,0.11250281257031425,55,76,Marimba
376.3333333333333,0.11250281257031425,58,76,Marimba
376.3333333333333,0.11250281257031425,49,76,Marimba
376.6666666666667,0.11250281257031425,55,81,Marimba
376.6666666666667,0.11250281257031425,53,81,Marimba
376.6666666666667,0.11250281257031425,49,81,Marimba
376.6666666666667,0.11250281257031425,58,81,Marimba
376.6666666666667,0.0,35,59,Marimba
376.6666666666667,0.0,28,59,Marimba
377.0,0.46001686728513375,36,122,Marimba
377.0,0.3450126504638503,63,120,Marimba
377.0,0.3450126504638503,63,120,Marimba
377.0,0.23000843364256687,58,91,Marimba
377.0,0.23000843364256687,55,91,Marimba
377.0,0.23000843364256687,51,91,Marimba
377.0,0.23000843364256687,48,91,Marimba
377.0,0.11500421682128344,56,76,Marimba
377.0,0.11500421682128344,63,88,Marimba
377.0,0.11500421682128344,55,88,Marimba
377.0,0.11500421682128344,58,88,Marimba
377.0,1.840067469140535,36,86,Marimba
377.0,0.11500421682128344,60,87,Marimba
377.0,0.11500421682128344,63,87,Marimba
377.0,0.11500421682128344,55,87,Marimba
377.0,0.11500421682128344,58,87,Marimba
377.0,0.0,42,69,Marimba
377.0,0.0,36,69,Marimba
377.0,0.0,35,69,Marimba
377.0,0.0,28,69,Marimba
377.3333333333333,0.0,36,28,Marimba
377.6666666666667,0.11500421682128344,63,107,Marimba
378.0,0.15000375009375233,75,116,Marimba
378.0,0.2250056251406285,62,120,Marimba
378.0,0.2250056251406285,62,120,Marimba
378.0,0.30000750018750466,48,109,Marimba
378.0,0.30000750018750466,51,109,Marimba
378.0,0.30000750018750466,55,109,Marimba
378.0,0.30000750018750466,58,109,Marimba
378.0,0.33750843771094274,55,112,Marimba
378.0,0.33750843771094274,63,112,Marimba
378.0,0.33750843771094274,58,112,Marimba
378.0,0.33750843771094274,55,106,Marimba
378.0,0.33750843771094274,60,106,Marimba
378.0,0.33750843771094274,58,106,Marimba
378.0,0.33750843771094274,63,106,Marimba
378.0,0.0,42,79,Marimba
378.0,0.0,40,79,Marimba
378.0,0.0,28,79,Marimba
378.6666666666667,0.11250281257031425,63,107,Marimba
378.6666666666667,0.450011250281257,36,122,Marimba
378.6666666666667,0.33750843771094274,63,120,Marimba
378.6666666666667,0.33750843771094274,63,120,Marimba
378.6666666666667,0.2250056251406285,48,94,Marimba
378.6666666666667,0.2250056251406285,55,94,Marimba
378.6666666666667,0.2250056251406285,51,94,Marimba
378.6666666666667,0.2250056251406285,58,94,Marimba
378.6666666666667,0.0,35,111,Marimba
379.0,0.23000843364256687,70,112,Marimba
379.0,0.11500421682128344,55,95,Marimba
379.0,0.11500421682128344,58,95,Marimba
379.0,0.11500421682128344,63,95,Marimba
379.0,0.11500421682128344,55,94,Marimba
379.0,0.11500421682128344,60,94,Marimba
379.0,0.11500421682128344,58,94,Marimba
379.0,0.11500421682128344,63,94,Marimba
379.0,0.0,42,58,Marimba
379.0,0.0,36,58,Marimba
379.0,0.0,28,58,Marimba
379.3333333333333,0.0,28,34,Marimba
379.6666666666667,0.11500421682128344,72,107,Marimba
379.6666666666667,0.11500421682128344,39,104,Marimba
379.6666666666667,0.11500421682128344,67,120,Marimba
379.6666666666667,0.11500421682128344,67,120,Marimba
379.6666666666667,0.11500421682128344,48,97,Marimba
379.6666666666667,0.11500421682128344,51,97,Marimba
379.6666666666667,0.11500421682128344,55,97,Marimba
379.6666666666667,0.11500421682128344,58,97,Marimba
379.6666666666667,0.0,40,99,Marimba
380.0,0.33750843771094274,43,111,Marimba
380.0,0.33750843771094274,75,120,Marimba
380.0,0.33750843771094274,75,120,Marimba
380.0,0.2250056251406285,58,85,Marimba
380.0,0.2250056251406285,51,85,Marimba
380.0,0.2250056251406285,48,85,Marimba
380.0,0.2250056251406285,55,85,Marimba
380.0,0.33750843771094274,55,110,Marimba
380.0,0.33750843771094274,63,110,Marimba
380.0,0.33750843771094274,58,110,Marimba
380.0,0.33750843771094274,60,107,Marimba
380.0,0.33750843771094274,63,107,Marimba
380.0,0.33750843771094274,55,107,Marimba
380.0,0.2250056251406285,58,114,Marimba
380.0,0.0,42,76,Marimba
380.0,0.0,28,76,Marimba
380.6666666666667,0.11250281257031425,63,97,Marimba
380.6666666666667,0.11250281257031425,42,104,Marimba
380.6666666666667,0.11250281257031425,55,64,Marimba
380.6666666666667,0.11250281257031425,51,64,Marimba
380.6666666666667,0.11250281257031425,48,64,Marimba
380.6666666666667,0.11250281257031425,58,64,Marimba
380.6666666666667,0.0,28,34,Marimba
381.0,0.23000843364256687,75,116,Marimba
381.0,0.46001686728513375,41,98,Marimba
381.0,0.3450126504638503,73,120,Marimba
381.0,0.3450126504638503,73,120,Marimba
381.0,0.23000843364256687,57,88,Marimba
381.0,0.23000843364256687,51,88,Marimba
381.0,0.23000843364256687,60,88,Marimba
381.0,0.23000843364256687,53,88,Marimba
381.0,0.11500421682128344,60,97,Marimba
381.0,0.11500421682128344,57,97,Marimba
381.0,0.11500421682128344,65,97,Marimba
381.0,0.11500421682128344,60,98,Marimba
381.0,0.11500421682128344,57,98,Marimba
381.0,0.11500421682128344,55,98,Marimba
381.0,0.11500421682128344,65,98,Marimba
381.0,1.840067469140535,41,76,Marimba
381.0,0.0,42,110,Marimba
381.0,0.0,35,110,Marimba
381.3333333333333,0.0,36,31,Marimba
381.3333333333333,0.0,28,31,Marimba
381.6666666666667,0.11500421682128344,63,97,Marimba
382.0,0.2250056251406285,72,124,Marimba
382.0,0.2250056251406285,36,121,Marimba
382.0,0.33750843771094274,72,120,Marimba
382.0,0.33750843771094274,72,120,Marimba
382.0,0.2250056251406285,57,109,Marimba
382.0,0.2250056251406285,53,109,Marimba
382.0,0.2250056251406285,60,109,Marimba
382.0,0.2250056251406285,51,109,Marimba
382.0,0.33750843771094274,60,110,Marimba
382.0,0.33750843771094274,57,110,Marimba
382.0,0.33750843771094274,65,110,Marimba
382.0,0.33750843771094274,60,107,Marimba
382.0,0.33750843771094274,55,107,Marimba
382.0,0.33750843771094274,57,107,Marimba
382.0,0.33750843771094274,65,107,Marimba
382.0,0.0,42,102,Marimba
382.0,0.0,40,102,Marimba
382.3333333333333,0.0,28,34,Marimba
382.6666666666667,0.11250281257031425,70,120,Marimba
382.6666666666667,0.450011250281257,29,112,Marimba
382.6666666666667,0.15000375009375233,51,93,Marimba
382.6666666666667,0.15000375009375233,53,93,Marimba
382.6666666666667,0.15000375009375233,60,93,Marimba
382.6666666666667,0.15000375009375233,57,93,Marimba
382.6666666666667,0.0,38,88,Marimba
382.6666666666667,0.0,35,88,Marimba
383.0,0.3066779115234225,70,120,Marimba
383.0,0.3066779115234225,70,120,Marimba
383.0,0.11500421682128344,60,83,Marimba
383.0,0.11500421682128344,57,83,Marimba
383.0,0.11500421682128344,65,83,Marimba
383.0,0.11500421682128344,60,86,Marimba
383.0,0.11500421682128344,55,86,Marimba
383.0,0.11500421682128344,57,86,Marimba
383.0,0.11500421682128344,65,86,Marimba
383.0,0.0,42,52,Marimba
383.0,0.0,36,52,Marimba
383.0,0.0,28,52,Marimba
383.3333333333333,0.0,40,82,Marimba
383.3333333333333,0.0,38,82,Marimba
383.6666666666667,0.15333895576171125,63,116,Marimba
383.6666666666667,0.15333895576171125,31,90,Marimba
383.6666666666667,0.46001686728513375,72,120,Marimba
383.6666666666667,0.46001686728513375,72,120,Marimba
383.6666666666667,0.3450126504638503,51,100,Marimba
383.6666666666667,0.3450126504638503,57,100,Marimba
383.6666666666667,0.3450126504638503,53,100,Marimba
383.6666666666667,0.3450126504638503,60,100,Marimba
383.6666666666667,0.0,42,81,Marimba
383.6666666666667,0.0,38,81,Marimba
383.75,0.0,54,45,Marimba
383.75,0.0,54,60,Marimba
384.0,0.33750843771094274,29,114,Marimba
384.0,0.33750843771094274,57,116,Marimba
384.0,0.33750843771094274,60,116,Marimba
384.0,0.30000750018750466,65,100,Marimba
384.0,0.33750843771094274,60,113,Marimba
384.0,0.33750843771094274,57,113,Marimba
384.0,0.33750843771094274,55,113,Marimba
384.0,0.30000750018750466,65,70,Marimba
384.0,0.0,54,75,Marimba
384.0,0.0,41,91,Marimba
384.0,0.0,42,91,Marimba
384.0,0.0,54,91,Marimba
384.0,0.0,35,91,Marimba
384.0,0.0,28,91,Marimba
384.0,0.0,54,75,Marimba
384.25,0.0,54,60,Marimba
384.25,0.0,54,36,Marimba
384.25,0.0,36,36,Marimba
384.6666666666667,0.11250281257031425,57,92,Marimba
384.6666666666667,0.11250281257031425,51,92,Marimba
384.6666666666667,0.11250281257031425,53,92,Marimba
384.6666666666667,0.11250281257031425,60,92,Marimba
384.6666666666667,0.0,42,71,Marimba
384.6666666666667,0.0,40,71,Marimba
384.6666666666667,0.0,28,71,Marimba
385.0,0.450011250281257,34,122,Marimba
385.0,0.33750843771094274,72,120,Marimba
385.0,0.33750843771094274,72,120,Marimba
385.0,0.2250056251406285,49,94,Marimba
385.0,0.2250056251406285,53,94,Marimba
385.0,0.2250056251406285,56,94,Marimba
385.0,0.2250056251406285,60,94,Marimba
385.0,0.11250281257031425,53,97,Marimba
385.0,0.11250281257031425,61,97,Marimba
385.0,0.11250281257031425,56,97,Marimba
385.0,0.11250281257031425,56,96,Marimba
385.0,0.11250281257031425,61,96,Marimba
385.0,0.11250281257031425,53,96,Marimba
385.0,0.11250281257031425,58,96,Marimba
385.0,1.800045001125028,34,81,Marimba
385.0,0.0,42,108,Marimba
385.0,0.0,35,108,Marimba
385.3333333333333,0.0,36,31,Marimba
385.3333333333333,0.0,28,31,Marimba
386.0,0.46001686728513375,36,121,Marimba
386.0,0.3066779115234225,65,120,Marimba
386.0,0.3066779115234225,65,120,Marimba
386.0,0.23000843364256687,49,110,Marimba
386.0,0.23000843364256687,56,110,Marimba
386.0,0.23000843364256687,53,110,Marimba
386.0,0.23000843364256687,60,110,Marimba
386.0,0.3450126504638503,53,114,Marimba
386.0,0.3450126504638503,61,114,Marimba
386.0,0.3450126504638503,56,114,Marimba
386.0,0.3450126504638503,61,108,Marimba
386.0,0.3450126504638503,53,108,Marimba
386.0,0.3450126504638503,56,108,Marimba
386.0,0.3450126504638503,58,108,Marimba
386.0,0.0,42,98,Marimba
386.0,0.0,40,98,Marimba
386.3333333333333,0.0,28,34,Marimba
386.6666666666667,0.46001686728513375,68,120,Marimba
386.6666666666667,0.46001686728513375,68,120,Marimba
386.6666666666667,0.11500421682128344,56,79,Marimba
386.6666666666667,0.11500421682128344,49,79,Marimba
386.6666666666667,0.11500421682128344,53,79,Marimba
386.6666666666667,0.11500421682128344,60,79,Marimba
386.6666666666667,0.0,35,117,Marimba
387.0,0.33750843771094274,37,111,Marimba
387.0,0.15000375009375233,56,78,Marimba
387.0,0.15000375009375233,60,78,Marimba
387.0,0.15000375009375233,53,78,Marimba
387.0,0.15000375009375233,49,78,Marimba
387.0,0.11250281257031425,56,83,Marimba
387.0,0.11250281257031425,61,83,Marimba
387.0,0.11250281257031425,53,83,Marimba
387.0,0.11250281257031425,58,82,Marimba
387.0,0.11250281257031425,56,82,Marimba
387.0,0.11250281257031425,61,82,Marimba
387.0,0.11250281257031425,53,82,Marimba
387.0,0.0,42,54,Marimba
387.0,0.0,36,54,Marimba
387.0,0.0,28,54,Marimba
387.6666666666667,0.30000750018750466,49,109,Marimba
387.6666666666667,0.30000750018750466,56,109,Marimba
387.6666666666667,0.30000750018750466,53,109,Marimba
387.6666666666667,0.30000750018750466,60,109,Marimba
387.6666666666667,0.0,42,87,Marimba
387.6666666666667,0.0,40,87,Marimba
388.0,0.3066779115234225,29,111,Marimba
388.0,0.23000843364256687,65,120,Marimba
388.0,0.23000843364256687,65,120,Marimba
388.0,0.3450126504638503,53,108,Marimba
388.0,0.3450126504638503,61,108,Marimba
388.0,0.3450126504638503,56,108,Marimba
388.0,0.3450126504638503,61,112,Marimba
388.0,0.3450126504638503,56,112,Marimba
388.0,0.3450126504638503,58,112,Marimba
388.0,0.3450126504638503,53,112,Marimba
388.0,0.3450126504638503,56,112,Marimba
388.0,0.3450126504638503,58,112,Marimba
388.0,0.0,42,64,Marimba
388.0,0.0,28,64,Marimba
388.6666666666667,0.11500421682128344,28,104,Marimba
388.6666666666667,0.5750210841064172,72,120,Marimba
388.6666666666667,0.5750210841064172,72,120,Marimba
388.6666666666667,0.11500421682128344,56,82,Marimba
388.6666666666667,0.11500421682128344,49,82,Marimba
388.6666666666667,0.11500421682128344,53,82,Marimba
388.6666666666667,0.11500421682128344,60,82,Marimba
389.0,0.450011250281257,27,112,Marimba
389.0,0.15000375009375233,55,93,Marimba
389.0,0.15000375009375233,58,93,Marimba
389.0,0.15000375009375233,51,93,Marimba
389.0,0.15000375009375233,49,93,Marimba
389.0,0.11250281257031425,63,101,Marimba
389.0,0.11250281257031425,58,101,Marimba
389.0,0.11250281257031425,55,98,Marimba
389.0,0.11250281257031425,58,98,Marimba
389.0,1.800045001125028,39,68,Marimba
389.0,0.11250281257031425,58,95,Marimba
389.0,0.11250281257031425,55,95,Marimba
389.0,0.11250281257031425,65,95,Marimba
389.0,0.11250281257031425,61,95,Marimba
389.0,0.0,42,114,Marimba
389.0,0.0,35,114,Marimba
389.3333333333333,0.0,36,31,Marimba
389.3333333333333,0.0,28,31,Marimba
390.0,0.46001686728513375,29,122,Marimba
390.0,0.3450126504638503,65,120,Marimba
390.0,0.3450126504638503,65,120,Marimba
390.0,0.23000843364256687,49,105,Marimba
390.0,0.23000843364256687,51,105,Marimba
390.0,0.23000843364256687,55,105,Marimba
390.0,0.23000843364256687,58,105,Marimba
390.0,0.3450126504638503,55,113,Marimba
390.0,0.3450126504638503,63,113,Marimba
390.0,0.3450126504638503,58,113,Marimba
390.0,0.3450126504638503,55,105,Marimba
390.0,0.3450126504638503,61,105,Marimba
390.0,0.3450126504638503,58,105,Marimba
390.0,0.3450126504638503,65,105,Marimba
390.0,0.0,42,100,Marimba
390.0,0.0,40,100,Marimba
390.3333333333333,0.0,28,34,Marimba
390.6666666666667,0.11500421682128344,51,77,Marimba
390.6666666666667,0.11500421682128344,49,77,Marimba
390.6666666666667,0.11500421682128344,55,77,Marimba
390.6666666666667,0.11500421682128344,58,77,Marimba
391.0,0.450011250281257,31,121,Marimba
391.0,0.30000750018750466,68,120,Marimba
391.0,0.30000750018750466,68,120,Marimba
391.0,0.15000375009375233,58,72,Marimba
391.0,0.15000375009375233,55,72,Marimba
391.0,0.15000375009375233,51,72,Marimba
391.0,0.15000375009375233,49,72,Marimba
391.0,0.11250281257031425,55,99,Marimba
391.0,0.11250281257031425,58,99,Marimba
391.0,0.11250281257031425,63,99,Marimba
391.0,0.11250281257031425,58,73,Marimba
391.0,0.11250281257031425,61,73,Marimba
391.0,0.11250281257031425,55,73,Marimba
391.0,0.11250281257031425,65,73,Marimba
391.0,0.0,42,88,Marimba
391.0,0.0,35,88,Marimba
391.0,0.0,28,88,Marimba
391.3333333333333,0.0,36,28,Marimba
391.6666666666667,0.15000375009375233,65,120,Marimba
391.6666666666667,0.15000375009375233,65,120,Marimba
391.6666666666667,0.30000750018750466,49,107,Marimba
391.6666666666667,0.30000750018750466,58,107,Marimba
391.6666666666667,0.30000750018750466,55,107,Marimba
391.6666666666667,0.30000750018750466,51,107,Marimba
391.75,0.0,54,45,Marimba
391.75,0.0,54,60,Marimba
392.0,0.46001686728513375,27,114,Marimba
392.0,0.3450126504638503,55,113,Marimba
392.0,0.3450126504638503,58,113,Marimba
392.0,0.3450126504638503,63,113,Marimba
392.0,0.3450126504638503,55,106,Marimba
392.0,0.3450126504638503,58,106,Marimba
392.0,0.3450126504638503,61,101,Marimba
392.0,0.3450126504638503,58,101,Marimba
392.0,0.3450126504638503,65,101,Marimba
392.0,0.0,54,75,Marimba
392.0,0.0,46,78,Marimba
392.0,0.0,54,78,Marimba
392.0,0.0,40,78,Marimba
392.0,0.0,28,78,Marimba
392.25,0.0,54,75,Marimba
392.25,0.0,54,60,Marimba
392.3333333333333,0.0,54,45,Marimba
392.6666666666667,1.3800506018554013,75,120,Marimba
392.6666666666667,0.46001686728513375,75,120,Marimba
392.6666666666667,0.11500421682128344,49,88,Marimba
392.6666666666667,0.11500421682128344,51,88,Marimba
392.6666666666667,0.11500421682128344,55,88,Marimba
392.6666666666667,0.11500421682128344,58,88,Marimba
392.6666666666667,0.0,35,84,Marimba
393.0,0.450011250281257,36,112,Marimba
393.0,0.15000375009375233,55,93,Marimba
393.0,0.15000375009375233,58,93,Marimba
393.0,0.15000375009375233,51,93,Marimba
393.0,0.15000375009375233,48,93,Marimba
393.0,0.11250281257031425,63,101,Marimba
393.0,0.11250281257031425,58,101,Marimba
393.0,0.11250281257031425,55,98,Marimba
393.0,0.11250281257031425,58,98,Marimba
393.0,1.800045001125028,36,68,Marimba
393.0,0.11250281257031425,70,95,Marimba
393.0,0.11250281257031425,67,95,Marimba
393.0,0.11250281257031425,63,95,Marimba
393.0,0.11250281257031425,60,95,Marimba
393.0,0.0,42,114,Marimba
393.0,0.0,35,114,Marimba
393.3333333333333,0.0,36,31,Marimba
393.3333333333333,0.0,28,31,Marimba
394.0,0.46001686728513375,36,122,Marimba
394.0,0.3450126504638503,67,120,Marimba
394.0,0.23000843364256687,48,105,Marimba
394.0,0.23000843364256687,51,105,Marimba
394.0,0.23000843364256687,55,105,Marimba
394.0,0.23000843364256687,58,105,Marimba
394.0,0.3450126504638503,55,113,Marimba
394.0,0.3450126504638503,63,113,Marimba
394.0,0.3450126504638503,58,113,Marimba
394.0,0.3450126504638503,67,105,Marimba
394.0,0.3450126504638503,70,105,Marimba
394.0,0.3450126504638503,63,105,Marimba
394.0,0.3450126504638503,60,105,Marimba
394.0,0.0,42,100,Marimba
394.0,0.0,40,100,Marimba
394.3333333333333,0.0,28,34,Marimba
394.6666666666667,0.11500421682128344,51,77,Marimba
394.6666666666667,0.11500421682128344,48,77,Marimba
394.6666666666667,0.11500421682128344,55,77,Marimba
394.6666666666667,0.11500421682128344,58,77,Marimba
395.0,0.450011250281257,31,121,Marimba
395.0,0.30000750018750466,70,120,Marimba
395.0,0.15000375009375233,58,72,Marimba
395.0,0.15000375009375233,55,72,Marimba
395.0,0.15000375009375233,51,72,Marimba
395.0,0.15000375009375233,48,72,Marimba
395.0,0.11250281257031425,55,99,Marimba
395.0,0.11250281257031425,58,99,Marimba
395.0,0.11250281257031425,63,99,Marimba
395.0,0.11250281257031425,70,73,Marimba
395.0,0.11250281257031425,67,73,Marimba
395.0,0.11250281257031425,63,73,Marimba
395.0,0.11250281257031425,60,73,Marimba
395.0,0.0,42,88,Marimba
395.0,0.0,35,88,Marimba
395.0,0.0,28,88,Marimba
395.3333333333333,0.0,36,28,Marimba
395.6666666666667,0.15000375009375233,67,120,Marimba
395.6666666666667,0.30000750018750466,48,107,Marimba
395.6666666666667,0.30000750018750466,58,107,Marimba
395.6666666666667,0.30000750018750466,55,107,Marimba
395.6666666666667,0.30000750018750466,51,107,Marimba
395.75,0.0,54,45,Marimba
395.75,0.0,54,60,Marimba
396.0,0.450011250281257,36,114,Marimba
396.0,0.33750843771094274,55,113,Marimba
396.0,0.33750843771094274,58,113,Marimba
396.0,0.33750843771094274,63,113,Marimba
396.0,0.33750843771094274,63,106,Marimba
396.0,0.33750843771094274,70,106,Marimba
396.0,0.33750843771094274,67,101,Marimba
396.0,0.33750843771094274,70,101,Marimba
396.0,0.33750843771094274,60,101,Marimba
396.0,0.0,54,75,Marimba
396.0,0.0,46,78,Marimba
396.0,0.0,54,78,Marimba
396.0,0.0,40,78,Marimba
396.0,0.0,28,78,Marimba
396.0,0.0,54,75,Marimba
396.25,0.0,54,60,Marimba
396.25,0.0,54,45,Marimba
396.6666666666667,0.450011250281257,72,120,Marimba
396.6666666666667,0.11250281257031425,48,88,Marimba
396.6666666666667,0.11250281257031425,51,88,Marimba
396.6666666666667,0.11250281257031425,55,88,Marimba
396.6666666666667,0.11250281257031425,58,88,Marimba
396.6666666666667,0.0,35,84,Marimba
397.0,0.46001686728513375,29,112,Marimba
397.0,0.15333895576171125,57,93,Marimba
397.0,0.15333895576171125,60,93,Marimba
397.0,0.15333895576171125,53,93,Marimba
397.0,0.15333895576171125,51,93,Marimba
397.0,0.11500421682128344,65,101,Marimba
397.0,0.11500421682128344,60,101,Marimba
397.0,0.11500421682128344,57,98,Marimba
397.0,0.11500421682128344,60,98,Marimba
397.0,1.840067469140535,41,68,Marimba
397.0,0.11500421682128344,69,95,Marimba
397.0,0.11500421682128344,65,95,Marimba
397.0,0.11500421682128344,60,95,Marimba
397.0,0.11500421682128344,57,95,Marimba
397.0,0.0,42,114,Marimba
397.0,0.0,35,114,Marimba
397.3333333333333,0.0,36,31,Marimba
397.3333333333333,0.0,28,31,Marimba
398.0,0.450011250281257,29,122,Marimba
398.0,0.33750843771094274,65,120,Marimba
398.0,0.2250056251406285,51,105,Marimba
398.0,0.2250056251406285,53,105,Marimba
398.0,0.2250056251406285,57,105,Marimba
398.0,0.2250056251406285,60,105,Marimba
398.0,0.33750843771094274,57,113,Marimba
398.0,0.33750843771094274,65,113,Marimba
398.0,0.33750843771094274,60,113,Marimba
398.0,0.33750843771094274,65,105,Marimba
398.0,0.33750843771094274,69,105,Marimba
398.0,0.33750843771094274,60,105,Marimba
398.0,0.33750843771094274,57,105,Marimba
398.0,0.0,42,100,Marimba
398.0,0.0,40,100,Marimba
398.3333333333333,0.0,28,34,Marimba
398.6666666666667,0.11250281257031425,53,77,Marimba
398.6666666666667,0.11250281257031425,51,77,Marimba
398.6666666666667,0.11250281257031425,57,77,Marimba
398.6666666666667,0.11250281257031425,60,77,Marimba
399.0,0.46001686728513375,29,121,Marimba
399.0,0.3066779115234225,77,120,Marimba
399.0,0.15333895576171125,60,72,Marimba
399.0,0.15333895576171125,57,72,Marimba
399.0,0.15333895576171125,53,72,Marimba
399.0,0.15333895576171125,51,72,Marimba
399.0,0.11500421682128344,57,99,Marimba
399.0,0.11500421682128344,60,99,Marimba
399.0,0.11500421682128344,65,99,Marimba
399.0,0.11500421682128344,69,73,Marimba
399.0,0.11500421682128344,65,73,Marimba
399.0,0.11500421682128344,60,73,Marimba
399.0,0.11500421682128344,57,73,Marimba
399.0,0.0,42,88,Marimba
399.0,0.0,35,88,Marimba
399.0,0.0,28,88,Marimba
399.3333333333333,0.0,36,28,Marimba
399.6666666666667,0.15333895576171125,65,120,Marimba
399.6666666666667,0.3066779115234225,51,107,Marimba
399.6666666666667,0.3066779115234225,60,107,Marimba
399.6666666666667,0.3066779115234225,57,107,Marimba
399.6666666666667,0.3066779115234225,53,107,Marimba
399.75,0.0,54,45,Marimba
399.75,0.0,54,60,Marimba
400.0,0.450011250281257,29,114,Marimba
400.0,0.33750843771094274,57,113,Marimba
400.0,0.33750843771094274,60,113,Marimba
400.0,0.33750843771094274,65,113,Marimba
400.0,0.33750843771094274,69,106,Marimba
400.0,0.33750843771094274,60,106,Marimba
400.0,0.33750843771094274,65,101,Marimba
400.0,0.33750843771094274,60,101,Marimba
400.0,0.33750843771094274,57,101,Marimba
400.0,0.0,54,75,Marimba
400.0,0.0,46,78,Marimba
400.0,0.0,54,78,Marimba
400.0,0.0,40,78,Marimba
400.0,0.0,28,78,Marimba
400.0,0.0,54,75,Marimba
400.25,0.0,54,60,Marimba
400.25,0.0,54,45,Marimba
400.6666666666667,0.11250281257031425,51,88,Marimba
400.6666666666667,0.11250281257031425,53,88,Marimba
400.6666666666667,0.11250281257031425,57,88,Marimba
400.6666666666667,0.11250281257031425,60,88,Marimba
400.6666666666667,0.0,35,84,Marimba
401.0,0.46001686728513375,37,120,Marimba
401.0,0.23000843364256687,72,120,Marimba
401.0,0.23000843364256687,73,120,Marimba
401.0,0.23000843364256687,84,120,Marimba
401.0,0.23000843364256687,77,120,Marimba
401.0,0.23000843364256687,80,120,Marimba
401.0,0.23000843364256687,49,98,Marimba
401.0,0.23000843364256687,53,98,Marimba
401.0,0.23000843364256687,56,98,Marimba
401.0,0.23000843364256687,60,98,Marimba
401.0,0.3066779115234225,61,117,Marimba
401.0,0.11500421682128344,56,98,Marimba
401.0,0.11500421682128344,60,98,Marimba
401.0,0.11500421682128344,61,98,Marimba
401.0,0.11500421682128344,65,98,Marimba
401.0,1.840067469140535,37,86,Marimba
401.0,0.0,42,82,Marimba
401.0,0.0,49,82,Marimba
401.0,0.0,53,82,Marimba
401.0,0.0,35,82,Marimba
401.0,0.0,28,82,Marimba
401.3333333333333,0.0,36,28,Marimba
401.6666666666667,0.11500421682128344,72,120,Marimba
401.6666666666667,0.11500421682128344,73,120,Marimba
401.6666666666667,0.11500421682128344,77,120,Marimba
401.6666666666667,0.11500421682128344,80,120,Marimba
401.6666666666667,0.11500421682128344,84,120,Marimba
401.6666666666667,0.11500421682128344,53,62,Marimba
401.6666666666667,0.0,28,34,Marimba
402.0,0.30000750018750466,36,122,Marimba
402.0,0.2250056251406285,72,120,Marimba
402.0,0.2250056251406285,84,120,Marimba
402.0,0.2250056251406285,73,120,Marimba
402.0,0.2250056251406285,80,120,Marimba
402.0,0.2250056251406285,77,120,Marimba
402.0,0.2250056251406285,49,114,Marimba
402.0,0.2250056251406285,56,114,Marimba
402.0,0.2250056251406285,53,114,Marimba
402.0,0.2250056251406285,60,114,Marimba
402.0,0.2250056251406285,56,120,Marimba
402.0,0.33750843771094274,56,102,Marimba
402.0,0.33750843771094274,61,102,Marimba
402.0,0.33750843771094274,60,102,Marimba
402.0,0.33750843771094274,65,102,Marimba
402.0,0.0,42,78,Marimba
402.0,0.0,53,78,Marimba
402.0,0.0,40,78,Marimba
402.0,0.0,28,78,Marimba
402.6666666666667,0.2250056251406285,37,87,Marimba
402.6666666666667,0.11250281257031425,72,120,Marimba
402.6666666666667,0.11250281257031425,73,120,Marimba
402.6666666666667,0.11250281257031425,84,120,Marimba
402.6666666666667,0.11250281257031425,77,120,Marimba
402.6666666666667,0.11250281257031425,80,120,Marimba
402.6666666666667,0.11250281257031425,56,77,Marimba
402.6666666666667,0.11250281257031425,53,77,Marimba
402.6666666666667,0.11250281257031425,49,77,Marimba
402.6666666666667,0.11250281257031425,60,77,Marimba
402.6666666666667,0.2250056251406285,61,111,Marimba
402.6666666666667,0.0,35,117,Marimba
403.0,0.15333895576171125,56,69,Marimba
403.0,0.15333895576171125,53,69,Marimba
403.0,0.15333895576171125,60,69,Marimba
403.0,0.15333895576171125,49,69,Marimba
403.0,0.11500421682128344,60,96,Marimba
403.0,0.11500421682128344,56,96,Marimba
403.0,0.11500421682128344,61,96,Marimba
403.0,0.11500421682128344,65,96,Marimba
403.0,0.0,42,64,Marimba
403.0,0.0,53,64,Marimba
403.0,0.0,36,64,Marimba
403.0,0.0,28,64,Marimba
403.6666666666667,0.46001686728513375,32,120,Marimba
403.6666666666667,0.23000843364256687,49,113,Marimba
403.6666666666667,0.23000843364256687,53,113,Marimba
403.6666666666667,0.23000843364256687,56,113,Marimba
403.6666666666667,0.23000843364256687,60,113,Marimba
403.6666666666667,0.11500421682128344,53,83,Marimba
403.6666666666667,0.0,42,79,Marimba
403.6666666666667,0.0,40,79,Marimba
404.0,0.30000750018750466,56,117,Marimba
404.0,0.33750843771094274,56,98,Marimba
404.0,0.33750843771094274,61,98,Marimba
404.0,0.33750843771094274,60,98,Marimba
404.0,0.33750843771094274,65,98,Marimba
404.0,0.0,48,79,Marimba
404.0,0.0,53,79,Marimba
404.0,0.0,42,79,Marimba
404.0,0.0,28,79,Marimba
404.3333333333333,0.11250281257031425,53,55,Marimba
404.3333333333333,0.11250281257031425,56,55,Marimba
404.3333333333333,0.11250281257031425,49,55,Marimba
404.6666666666667,0.15000375009375233,25,95,Marimba
404.6666666666667,0.11250281257031425,56,88,Marimba
404.6666666666667,0.11250281257031425,53,88,Marimba
404.6666666666667,0.11250281257031425,49,88,Marimba
404.6666666666667,0.11250281257031425,60,88,Marimba
404.6666666666667,0.15000375009375233,61,65,Marimba
404.6666666666667,0.0,28,34,Marimba
405.0,0.450011250281257,27,112,Marimba
405.0,0.2250056251406285,58,94,Marimba
405.0,0.2250056251406285,55,94,Marimba
405.0,0.2250056251406285,49,94,Marimba
405.0,0.2250056251406285,53,94,Marimba
405.0,0.2250056251406285,53,111,Marimba
405.0,0.11250281257031425,61,101,Marimba
405.0,0.11250281257031425,55,101,Marimba
405.0,0.11250281257031425,58,101,Marimba
405.0,0.11250281257031425,65,101,Marimba
405.0,1.800045001125028,39,85,Marimba
405.0,0.0,53,102,Marimba
405.0,0.0,42,102,Marimba
405.0,0.0,35,102,Marimba
405.3333333333333,0.0,36,28,Marimba
405.6666666666667,0.450011250281257,70,120,Marimba
405.6666666666667,0.450011250281257,82,120,Marimba
405.6666666666667,0.450011250281257,73,120,Marimba
405.6666666666667,0.450011250281257,79,120,Marimba
405.6666666666667,0.450011250281257,75,120,Marimba
405.6666666666667,0.11250281257031425,55,86,Marimba
405.6666666666667,0.0,28,34,Marimba
406.0,0.46001686728513375,29,120,Marimba
406.0,0.3066779115234225,49,112,Marimba
406.0,0.3066779115234225,53,112,Marimba
406.0,0.3066779115234225,55,112,Marimba
406.0,0.3066779115234225,58,112,Marimba
406.0,0.23000843364256687,58,100,Marimba
406.0,0.3450126504638503,55,102,Marimba
406.0,0.3450126504638503,58,102,Marimba
406.0,0.3450126504638503,65,102,Marimba
406.0,0.3450126504638503,61,102,Marimba
406.0,0.0,53,94,Marimba
406.0,0.0,42,94,Marimba
406.0,0.0,40,94,Marimba
406.3333333333333,0.0,28,34,Marimba
406.6666666666667,0.11500421682128344,58,79,Marimba
406.6666666666667,0.11500421682128344,53,79,Marimba
406.6666666666667,0.11500421682128344,49,79,Marimba
406.6666666666667,0.11500421682128344,55,79,Marimba
406.6666666666667,0.3066779115234225,63,112,Marimba
407.0,0.450011250281257,31,122,Marimba
407.0,0.15000375009375233,68,120,Marimba
407.0,0.15000375009375233,79,120,Marimba
407.0,0.15000375009375233,73,120,Marimba
407.0,0.15000375009375233,80,120,Marimba
407.0,0.15000375009375233,75,120,Marimba
407.0,0.15000375009375233,58,74,Marimba
407.0,0.15000375009375233,53,74,Marimba
407.0,0.15000375009375233,55,74,Marimba
407.0,0.15000375009375233,49,74,Marimba
407.0,0.11250281257031425,55,95,Marimba
407.0,0.11250281257031425,58,95,Marimba
407.0,0.11250281257031425,61,95,Marimba
407.0,0.11250281257031425,65,95,Marimba
407.0,0.0,53,84,Marimba
407.0,0.0,42,84,Marimba
407.0,0.0,35,84,Marimba
407.0,0.0,28,84,Marimba
407.3333333333333,0.0,36,28,Marimba
407.6666666666667,0.2250056251406285,49,106,Marimba
407.6666666666667,0.2250056251406285,55,106,Marimba
407.6666666666667,0.2250056251406285,53,106,Marimba
407.6666666666667,0.2250056251406285,58,106,Marimba
407.6666666666667,0.11250281257031425,53,100,Marimba
407.6666666666667,0.0,42,72,Marimba
407.75,0.0,54,45,Marimba
407.75,0.0,54,60,Marimba
408.0,0.46001686728513375,27,117,Marimba
408.0,0.3066779115234225,70,120,Marimba
408.0,0.3066779115234225,82,120,Marimba
408.0,0.3066779115234225,73,120,Marimba
408.0,0.3066779115234225,75,120,Marimba
408.0,0.3066779115234225,79,120,Marimba
408.0,0.23000843364256687,55,112,Marimba
408.0,0.3450126504638503,55,105,Marimba
408.0,0.3450126504638503,61,105,Marimba
408.0,0.3450126504638503,58,105,Marimba
408.0,0.3450126504638503,65,105,Marimba
408.0,0.0,54,75,Marimba
408.0,0.0,53,78,Marimba
408.0,0.0,46,78,Marimba
408.0,0.0,54,78,Marimba
408.0,0.0,40,78,Marimba
408.0,0.0,28,78,Marimba
408.25,0.0,54,75,Marimba
408.25,0.0,54,60,Marimba
408.3333333333333,0.0,54,45,Marimba
408.6666666666667,0.11500421682128344,49,104,Marimba
408.6666666666667,0.11500421682128344,53,104,Marimba
408.6666666666667,0.11500421682128344,58,104,Marimba
408.6666666666667,0.11500421682128344,55,104,Marimba
408.6666666666667,0.11500421682128344,63,104,Marimba
408.6666666666667,0.0,35,59,Marimba
408.6666666666667,0.0,28,59,Marimba
409.0,0.450011250281257,32,114,Marimba
409.0,0.2250056251406285,70,120,Marimba
409.0,0.2250056251406285,72,120,Marimba
409.0,0.2250056251406285,82,120,Marimba
409.0,0.2250056251406285,75,120,Marimba
409.0,0.2250056251406285,79,120,Marimba
409.0,0.2250056251406285,48,90,Marimba
409.0,0.2250056251406285,51,90,Marimba
409.0,0.2250056251406285,55,90,Marimba
409.0,0.2250056251406285,58,90,Marimba
409.0,0.2250056251406285,51,114,Marimba
409.0,0.11250281257031425,56,92,Marimba
409.0,0.11250281257031425,60,92,Marimba
409.0,0.11250281257031425,67,92,Marimba
409.0,0.11250281257031425,63,92,Marimba
409.0,1.800045001125028,44,70,Marimba
409.0,0.0,53,71,Marimba
409.0,0.0,42,71,Marimba
409.0,0.0,36,71,Marimba
409.0,0.0,35,71,Marimba
409.0,0.0,28,71,Marimba
409.3333333333333,0.0,36,28,Marimba
409.6666666666667,0.11250281257031425,70,120,Marimba
409.6666666666667,0.11250281257031425,72,120,Marimba
409.6666666666667,0.11250281257031425,75,120,Marimba
409.6666666666667,0.11250281257031425,79,120,Marimba
409.6666666666667,0.11250281257031425,82,120,Marimba
409.6666666666667,0.11250281257031425,55,95,Marimba
410.0,0.3066779115234225,34,121,Marimba
410.0,0.23000843364256687,70,120,Marimba
410.0,0.23000843364256687,72,120,Marimba
410.0,0.23000843364256687,82,120,Marimba
410.0,0.23000843364256687,75,120,Marimba
410.0,0.23000843364256687,79,120,Marimba
410.0,0.23000843364256687,48,110,Marimba
410.0,0.23000843364256687,51,110,Marimba
410.0,0.23000843364256687,55,110,Marimba
410.0,0.23000843364256687,58,110,Marimba
410.0,0.23000843364256687,58,120,Marimba
410.0,0.3450126504638503,58,110,Marimba
410.0,0.3450126504638503,67,110,Marimba
410.0,0.3450126504638503,60,110,Marimba
410.0,0.3450126504638503,63,110,Marimba
410.0,0.0,53,80,Marimba
410.0,0.0,42,80,Marimba
410.0,0.0,40,80,Marimba
410.0,0.0,28,80,Marimba
410.6666666666667,0.11500421682128344,35,108,Marimba
410.6666666666667,0.15333895576171125,70,120,Marimba
410.6666666666667,0.11500421682128344,72,120,Marimba
410.6666666666667,0.11500421682128344,82,120,Marimba
410.6666666666667,0.11500421682128344,75,120,Marimba
410.6666666666667,0.11500421682128344,79,120,Marimba
410.6666666666667,0.0,51,74,Marimba
410.6666666666667,0.0,48,74,Marimba
410.6666666666667,0.0,55,74,Marimba
410.6666666666667,0.0,58,74,Marimba
410.6666666666667,0.11500421682128344,51,104,Marimba
410.6666666666667,0.0,35,111,Marimba
411.0,0.450011250281257,36,108,Marimba
411.0,0.15000375009375233,51,77,Marimba
411.0,0.15000375009375233,55,77,Marimba
411.0,0.15000375009375233,48,77,Marimba
411.0,0.15000375009375233,58,77,Marimba
411.0,0.2250056251406285,55,114,Marimba
411.0,0.11250281257031425,67,88,Marimba
411.0,0.11250281257031425,60,88,Marimba
411.0,0.11250281257031425,63,88,Marimba
411.0,0.11250281257031425,58,88,Marimba
411.0,0.0,53,65,Marimba
411.0,0.0,42,65,Marimba
411.0,0.0,36,65,Marimba
411.0,0.0,28,65,Marimba
411.3333333333333,0.0,28,34,Marimba
411.6666666666667,0.30000750018750466,48,100,Marimba
411.6666666666667,0.30000750018750466,51,100,Marimba
411.6666666666667,0.30000750018750466,55,100,Marimba
411.6666666666667,0.30000750018750466,58,100,Marimba
411.6666666666667,0.15000375009375233,58,121,Marimba
411.6666666666667,0.0,40,99,Marimba
412.0,0.46001686728513375,27,117,Marimba
412.0,0.3450126504638503,58,116,Marimba
412.0,0.3450126504638503,60,116,Marimba
412.0,0.3450126504638503,63,116,Marimba
412.0,0.3066779115234225,67,95,Marimba
412.0,0.0,45,82,Marimba
412.0,0.0,53,82,Marimba
412.0,0.0,42,82,Marimba
412.0,0.0,28,82,Marimba
412.6666666666667,0.11500421682128344,48,99,Marimba
412.6666666666667,0.11500421682128344,51,99,Marimba
412.6666666666667,0.11500421682128344,55,99,Marimba
412.6666666666667,0.11500421682128344,58,99,Marimba
412.6666666666667,0.15333895576171125,51,112,Marimba
412.6666666666667,0.0,28,34,Marimba
413.0,0.450011250281257,29,117,Marimba
413.0,0.2250056251406285,60,101,Marimba
413.0,0.2250056251406285,56,101,Marimba
413.0,0.2250056251406285,51,101,Marimba
413.0,0.2250056251406285,53,101,Marimba
413.0,0.2250056251406285,53,86,Marimba
413.0,0.15000375009375233,51,79,Marimba
413.0,0.11250281257031425,56,100,Marimba
413.0,0.11250281257031425,53,100,Marimba
413.0,0.11250281257031425,63,100,Marimba
413.0,0.11250281257031425,60,100,Marimba
413.0,1.800045001125028,41,77,Marimba
413.0,0.0,53,99,Marimba
413.0,0.0,42,99,Marimba
413.0,0.0,35,99,Marimba
413.3333333333333,0.0,36,31,Marimba
413.3333333333333,0.0,28,31,Marimba
413.6666666666667,0.450011250281257,68,120,Marimba
413.6666666666667,0.450011250281257,80,120,Marimba
413.6666666666667,0.450011250281257,72,120,Marimba
413.6666666666667,0.450011250281257,75,120,Marimba
413.6666666666667,0.450011250281257,77,120,Marimba
413.6666666666667,0.11250281257031425,56,90,Marimba
414.0,0.46001686728513375,31,121,Marimba
414.0,0.23000843364256687,51,110,Marimba
414.0,0.23000843364256687,53,110,Marimba
414.0,0.23000843364256687,56,110,Marimba
414.0,0.23000843364256687,60,110,Marimba
414.0,0.23000843364256687,60,112,Marimba
414.0,0.3450126504638503,53,108,Marimba
414.0,0.3450126504638503,56,108,Marimba
414.0,0.3450126504638503,63,108,Marimba
414.0,0.3450126504638503,60,108,Marimba
414.0,0.0,53,97,Marimba
414.0,0.0,42,97,Marimba
414.0,0.0,40,97,Marimba
414.3333333333333,0.0,28,34,Marimba
414.6666666666667,0.0,56,76,Marimba
414.6666666666667,0.0,53,76,Marimba
414.6666666666667,0.0,51,76,Marimba
414.6666666666667,0.0,60,76,Marimba
414.6666666666667,0.11500421682128344,53,76,Marimba
414.6666666666667,0.0,35,115,Marimba
415.0,0.450011250281257,32,121,Marimba
415.0,0.2250056251406285,67,120,Marimba
415.0,0.2250056251406285,77,120,Marimba
415.0,0.2250056251406285,72,120,Marimba
415.0,0.2250056251406285,79,120,Marimba
415.0,0.2250056251406285,75,120,Marimba
415.0,0.15000375009375233,56,71,Marimba
415.0,0.15000375009375233,53,71,Marimba
415.0,0.15000375009375233,60,71,Marimba
415.0,0.15000375009375233,51,71,Marimba
415.0,0.2250056251406285,56,111,Marimba
415.0,0.11250281257031425,63,88,Marimba
415.0,0.11250281257031425,53,88,Marimba
415.0,0.11250281257031425,60,88,Marimba
415.0,0.11250281257031425,56,88,Marimba
415.0,0.0,53,58,Marimba
415.0,0.0,42,58,Marimba
415.0,0.0,36,58,Marimba
415.0,0.0,28,58,Marimba
415.3333333333333,0.0,40,84,Marimba
415.6666666666667,0.30000750018750466,51,105,Marimba
415.6666666666667,0.30000750018750466,56,105,Marimba
415.6666666666667,0.30000750018750466,53,105,Marimba
415.6666666666667,0.30000750018750466,60,105,Marimba
415.6666666666667,0.2250056251406285,60,104,Marimba
415.6666666666667,0.0,42,90,Marimba
415.75,0.0,54,45,Marimba
415.75,0.0,54,60,Marimba
416.0,0.46001686728513375,29,117,Marimba
416.0,0.3450126504638503,68,120,Marimba
416.0,0.3450126504638503,80,120,Marimba
416.0,0.3450126504638503,72,120,Marimba
416.0,0.3450126504638503,75,120,Marimba
416.0,0.3450126504638503,77,120,Marimba
416.0,0.3066779115234225,53,104,Marimba
416.0,0.3066779115234225,63,104,Marimba
416.0,0.3066779115234225,56,104,Marimba
416.0,0.3066779115234225,60,104,Marimba
416.0,0.0,54,75,Marimba
416.0,0.0,53,88,Marimba
416.0,0.0,42,88,Marimba
416.0,0.0,54,88,Marimba
416.0,0.0,35,88,Marimba
416.0,0.0,28,88,Marimba
416.0,0.0,54,75,Marimba
416.25,0.0,54,60,Marimba
416.25,0.0,54,36,Marimba
416.25,0.0,36,36,Marimba
416.6666666666667,0.11500421682128344,51,91,Marimba
416.6666666666667,0.11500421682128344,56,91,Marimba
416.6666666666667,0.11500421682128344,53,91,Marimba
416.6666666666667,0.11500421682128344,60,91,Marimba
416.6666666666667,0.15333895576171125,60,111,Marimba
416.6666666666667,0.0,42,71,Marimba
416.6666666666667,0.0,40,71,Marimba
416.6666666666667,0.0,28,71,Marimba
417.0,0.33750843771094274,37,117,Marimba
417.0,0.2250056251406285,72,120,Marimba
417.0,0.30000750018750466,73,120,Marimba
417.0,0.30000750018750466,77,120,Marimba
417.0,0.30000750018750466,80,120,Marimba
417.0,0.30000750018750466,84,120,Marimba
417.0,0.2250056251406285,60,102,Marimba
417.0,0.2250056251406285,49,102,Marimba
417.0,0.2250056251406285,53,102,Marimba
417.0,0.2250056251406285,56,102,Marimba
417.0,1.800045001125028,37,74,Marimba
417.0,0.11250281257031425,56,103,Marimba
417.0,0.11250281257031425,61,103,Marimba
417.0,0.11250281257031425,60,103,Marimba
417.0,0.11250281257031425,65,103,Marimba
417.0,0.0,53,100,Marimba
417.0,0.0,42,100,Marimba
417.0,0.0,35,100,Marimba
417.3333333333333,0.0,36,31,Marimba
417.3333333333333,0.0,28,31,Marimba
417.6666666666667,0.11250281257031425,72,120,Marimba
417.6666666666667,0.11250281257031425,73,120,Marimba
417.6666666666667,0.11250281257031425,80,120,Marimba
417.6666666666667,0.11250281257031425,77,120,Marimba
417.6666666666667,0.11250281257031425,84,120,Marimba
417.6666666666667,0.11250281257031425,53,111,Marimba
418.0,0.3066779115234225,36,114,Marimba
418.0,0.23000843364256687,72,120,Marimba
418.0,0.23000843364256687,84,120,Marimba
418.0,0.23000843364256687,73,120,Marimba
418.0,0.23000843364256687,77,120,Marimba
418.0,0.23000843364256687,80,120,Marimba
418.0,0.23000843364256687,49,102,Marimba
418.0,0.23000843364256687,53,102,Marimba
418.0,0.23000843364256687,56,102,Marimba
418.0,0.23000843364256687,60,102,Marimba
418.0,0.23000843364256687,56,104,Marimba
418.0,0.3450126504638503,56,108,Marimba
418.0,0.3450126504638503,61,108,Marimba
418.0,0.3450126504638503,60,108,Marimba
418.0,0.3450126504638503,65,108,Marimba
418.0,0.0,53,91,Marimba
418.0,0.0,42,91,Marimba
418.0,0.0,40,91,Marimba
418.3333333333333,0.0,28,34,Marimba
418.6666666666667,0.3450126504638503,37,108,Marimba
418.6666666666667,0.11500421682128344,72,120,Marimba
418.6666666666667,0.11500421682128344,84,120,Marimba
418.6666666666667,0.11500421682128344,73,120,Marimba
418.6666666666667,0.11500421682128344,77,120,Marimba
418.6666666666667,0.11500421682128344,80,120,Marimba
418.6666666666667,0.0,56,83,Marimba
418.6666666666667,0.0,53,83,Marimba
418.6666666666667,0.0,49,83,Marimba
418.6666666666667,0.0,60,83,Marimba
418.6666666666667,0.23000843364256687,61,98,Marimba
418.6666666666667,0.0,35,117,Marimba
419.0,0.15000375009375233,56,76,Marimba
419.0,0.15000375009375233,60,76,Marimba
419.0,0.15000375009375233,53,76,Marimba
419.0,0.15000375009375233,49,76,Marimba
419.0,0.2250056251406285,53,104,Marimba
419.0,0.11250281257031425,56,80,Marimba
419.0,0.11250281257031425,61,80,Marimba
419.0,0.11250281257031425,60,80,Marimba
419.0,0.11250281257031425,65,80,Marimba
419.0,0.0,53,59,Marimba
419.0,0.0,42,59,Marimba
419.0,0.0,36,59,Marimba
419.0,0.0,28,59,Marimba
419.6666666666667,0.33750843771094274,29,117,Marimba
419.6666666666667,0.30000750018750466,49,102,Marimba
419.6666666666667,0.30000750018750466,53,102,Marimba
419.6666666666667,0.30000750018750466,56,102,Marimba
419.6666666666667,0.2250056251406285,60,95,Marimba
419.6666666666667,0.15000375009375233,56,117,Marimba
419.6666666666667,0.0,42,87,Marimba
419.6666666666667,0.0,40,87,Marimba
420.0,0.2250056251406285,61,85,Marimba
420.0,0.33750843771094274,61,110,Marimba
420.0,0.33750843771094274,56,110,Marimba
420.0,0.33750843771094274,60,110,Marimba
420.0,0.33750843771094274,65,110,Marimba
420.0,0.0,48,75,Marimba
420.0,0.0,53,75,Marimba
420.0,0.0,42,75,Marimba
420.0,0.0,28,75,Marimba
420.6666666666667,0.11250281257031425,28,98,Marimba
420.6666666666667,0.11250281257031425,49,95,Marimba
420.6666666666667,0.11250281257031425,53,95,Marimba
420.6666666666667,0.11250281257031425,56,95,Marimba
420.6666666666667,0.11250281257031425,60,95,Marimba
420.6666666666667,0.11250281257031425,53,65,Marimba
421.0,0.46001686728513375,27,121,Marimba
421.0,0.23000843364256687,49,92,Marimba
421.0,0.23000843364256687,58,92,Marimba
421.0,0.23000843364256687,55,92,Marimba
421.0,0.23000843364256687,51,92,Marimba
421.0,0.23000843364256687,53,83,Marimba
421.0,1.840067469140535,39,76,Marimba
421.0,0.11500421682128344,61,94,Marimba
421.0,0.11500421682128344,55,94,Marimba
421.0,0.11500421682128344,58,94,Marimba
421.0,0.11500421682128344,65,94,Marimba
421.0,0.0,53,102,Marimba
421.0,0.0,42,102,Marimba
421.0,0.0,35,102,Marimba
421.3333333333333,0.0,36,31,Marimba
421.3333333333333,0.0,28,31,Marimba
421.6666666666667,0.46001686728513375,70,120,Marimba
421.6666666666667,0.46001686728513375,73,120,Marimba
421.6666666666667,0.46001686728513375,82,120,Marimba
421.6666666666667,0.46001686728513375,75,120,Marimba
421.6666666666667,0.46001686728513375,79,120,Marimba
421.6666666666667,0.11500421682128344,55,98,Marimba
422.0,0.450011250281257,29,120,Marimba
422.0,0.30000750018750466,49,112,Marimba
422.0,0.30000750018750466,53,112,Marimba
422.0,0.30000750018750466,58,112,Marimba
422.0,0.30000750018750466,55,112,Marimba
422.0,0.2250056251406285,63,111,Marimba
422.0,0.33750843771094274,55,105,Marimba
422.0,0.33750843771094274,61,105,Marimba
422.0,0.33750843771094274,58,105,Marimba
422.0,0.33750843771094274,65,105,Marimba
422.0,0.0,53,96,Marimba
422.0,0.0,42,96,Marimba
422.0,0.0,40,96,Marimba
422.3333333333333,0.0,28,34,Marimba
422.6666666666667,0.11250281257031425,53,76,Marimba
422.6666666666667,0.11250281257031425,55,76,Marimba
422.6666666666667,0.11250281257031425,58,76,Marimba
422.6666666666667,0.11250281257031425,49,76,Marimba
422.6666666666667,0.11250281257031425,53,86,Marimba
423.0,0.3066779115234225,31,121,Marimba
423.0,0.15333895576171125,68,120,Marimba
423.0,0.15333895576171125,79,120,Marimba
423.0,0.15333895576171125,73,120,Marimba
423.0,0.15333895576171125,75,120,Marimba
423.0,0.15333895576171125,80,120,Marimba
423.0,0.15333895576171125,58,70,Marimba
423.0,0.15333895576171125,55,70,Marimba
423.0,0.15333895576171125,53,70,Marimba
423.0,0.15333895576171125,49,70,Marimba
423.0,0.23000843364256687,55,111,Marimba
423.0,0.11500421682128344,55,93,Marimba
423.0,0.11500421682128344,58,93,Marimba
423.0,0.11500421682128344,61,93,Marimba
423.0,0.11500421682128344,65,93,Marimba
423.0,0.0,53,87,Marimba
423.0,0.0,42,87,Marimba
423.0,0.0,35,87,Marimba
423.0,0.0,28,87,Marimba
423.3333333333333,0.0,36,28,Marimba
423.6666666666667,0.46001686728513375,27,117,Marimba
423.6666666666667,0.3066779115234225,49,109,Marimba
423.6666666666667,0.3066779115234225,55,109,Marimba
423.6666666666667,0.3066779115234225,58,109,Marimba
423.6666666666667,0.3066779115234225,53,109,Marimba
423.6666666666667,0.11500421682128344,58,117,Marimba
423.75,0.0,54,45,Marimba
423.75,0.0,54,60,Marimba
424.0,0.2250056251406285,70,120,Marimba
424.0,0.2250056251406285,82,120,Marimba
424.0,0.2250056251406285,73,120,Marimba
424.0,0.2250056251406285,79,120,Marimba
424.0,0.2250056251406285,75,120,Marimba
424.0,0.30000750018750466,63,111,Marimba
424.0,0.33750843771094274,55,111,Marimba
424.0,0.33750843771094274,58,111,Marimba
424.0,0.33750843771094274,61,104,Marimba
424.0,0.33750843771094274,58,104,Marimba
424.0,0.33750843771094274,65,104,Marimba
424.0,0.0,54,75,Marimba
424.0,0.0,53,80,Marimba
424.0,0.0,46,80,Marimba
424.0,0.0,54,80,Marimba
424.0,0.0,40,80,Marimba
424.0,0.0,28,80,Marimba
424.0,0.0,54,75,Marimba
424.25,0.0,54,60,Marimba
424.25,0.0,54,45,Marimba
424.6666666666667,0.15000375009375233,27,98,Marimba
424.6666666666667,0.11250281257031425,49,77,Marimba
424.6666666666667,0.11250281257031425,53,77,Marimba
424.6666666666667,0.11250281257031425,55,77,Marimba
424.6666666666667,0.11250281257031425,58,77,Marimba
424.6666666666667,0.0,35,84,Marimba
425.0,0.46001686728513375,32,121,Marimba
425.0,0.3450126504638503,70,120,Marimba
425.0,0.3450126504638503,72,120,Marimba
425.0,0.3450126504638503,75,120,Marimba
425.0,0.3450126504638503,79,120,Marimba
425.0,0.3450126504638503,82,120,Marimba
425.0,0.23000843364256687,58,94,Marimba
425.0,0.23000843364256687,55,94,Marimba
425.0,0.23000843364256687,51,94,Marimba
425.0,0.23000843364256687,48,94,Marimba
425.0,0.3066779115234225,63,112,Marimba
425.0,0.11500421682128344,60,100,Marimba
425.0,0.11500421682128344,58,100,Marimba
425.0,0.11500421682128344,67,100,Marimba
425.0,0.11500421682128344,63,100,Marimba
425.0,1.840067469140535,44,74,Marimba
425.0,0.0,53,86,Marimba
425.0,0.0,42,86,Marimba
425.0,0.0,36,86,Marimba
425.0,0.0,35,86,Marimba
425.3333333333333,0.0,28,31,Marimba
425.3333333333333,0.0,36,31,Marimba
426.0,0.450011250281257,31,120,Marimba
426.0,0.2250056251406285,68,120,Marimba
426.0,0.30000750018750466,79,120,Marimba
426.0,0.30000750018750466,72,120,Marimba
426.0,0.30000750018750466,75,120,Marimba
426.0,0.30000750018750466,80,120,Marimba
426.0,0.30000750018750466,48,108,Marimba
426.0,0.30000750018750466,51,108,Marimba
426.0,0.30000750018750466,55,108,Marimba
426.0,0.30000750018750466,58,108,Marimba
426.0,0.2250056251406285,55,111,Marimba
426.0,0.33750843771094274,67,109,Marimba
426.0,0.33750843771094274,58,109,Marimba
426.0,0.33750843771094274,60,109,Marimba
426.0,0.33750843771094274,63,109,Marimba
426.0,0.0,53,83,Marimba
426.0,0.0,42,83,Marimba
426.0,0.0,40,83,Marimba
426.0,0.0,28,83,Marimba
426.6666666666667,0.11250281257031425,70,120,Marimba
426.6666666666667,0.11250281257031425,72,120,Marimba
426.6666666666667,0.11250281257031425,82,120,Marimba
426.6666666666667,0.11250281257031425,79,120,Marimba
426.6666666666667,0.11250281257031425,75,120,Marimba
426.6666666666667,0.2250056251406285,48,89,Marimba
426.6666666666667,0.2250056251406285,51,89,Marimba
426.6666666666667,0.2250056251406285,55,89,Marimba
426.6666666666667,0.2250056251406285,58,89,Marimba
426.6666666666667,0.30000750018750466,60,117,Marimba
426.6666666666667,0.0,35,111,Marimba
427.0,0.46001686728513375,32,121,Marimba
427.0,0.11500421682128344,60,92,Marimba
427.0,0.11500421682128344,58,92,Marimba
427.0,0.11500421682128344,63,92,Marimba
427.0,0.11500421682128344,67,92,Marimba
427.0,0.0,53,61,Marimba
427.0,0.0,42,61,Marimba
427.0,0.0,36,61,Marimba
427.0,0.0,28,61,Marimba
427.6666666666667,0.11500421682128344,72,120,Marimba
427.6666666666667,0.11500421682128344,75,120,Marimba
427.6666666666667,0.11500421682128344,80,120,Marimba
427.6666666666667,0.11500421682128344,79,120,Marimba
427.6666666666667,0.11500421682128344,84,120,Marimba
427.6666666666667,0.3450126504638503,48,97,Marimba
427.6666666666667,0.3450126504638503,51,97,Marimba
427.6666666666667,0.3450126504638503,55,97,Marimba
427.6666666666667,0.3450126504638503,58,97,Marimba
427.6666666666667,0.3450126504638503,63,111,Marimba
427.6666666666667,0.0,40,84,Marimba
428.0,0.450011250281257,27,112,Marimba
428.0,0.30000750018750466,67,111,Marimba
428.0,0.30000750018750466,60,111,Marimba
428.0,0.30000750018750466,58,111,Marimba
428.0,0.30000750018750466,63,111,Marimba
428.0,0.0,53,80,Marimba
428.0,0.0,42,80,Marimba
428.0,0.0,28,80,Marimba
428.6666666666667,1.6500412510312756,68,120,Marimba
428.6666666666667,1.5750393759843995,72,120,Marimba
428.6666666666667,1.5750393759843995,80,120,Marimba
428.6666666666667,1.5750393759843995,75,120,Marimba
428.6666666666667,1.5750393759843995,77,120,Marimba
428.6666666666667,0.11250281257031425,48,82,Marimba
428.6666666666667,0.11250281257031425,51,82,Marimba
428.6666666666667,0.11250281257031425,55,82,Marimba
428.6666666666667,0.11250281257031425,58,82,Marimba
428.6666666666667,0.15000375009375233,63,100,Marimba
429.0,0.450011250281257,29,122,Marimba
429.0,0.15000375009375233,60,91,Marimba
429.0,0.15000375009375233,51,91,Marimba
429.0,0.15000375009375233,56,91,Marimba
429.0,0.15000375009375233,53,91,Marimba
429.0,0.0,55,79,Marimba
429.0,0.11250281257031425,56,94,Marimba
429.0,0.11250281257031425,63,94,Marimba
429.0,0.11250281257031425,53,94,Marimba
429.0,0.11250281257031425,60,94,Marimba
429.0,1.800045001125028,41,76,Marimba
429.0,0.0,53,86,Marimba
429.0,0.0,42,86,Marimba
429.0,0.0,35,86,Marimba
429.0,0.0,28,86,Marimba
429.3333333333333,0.0,36,31,Marimba
429.3333333333333,0.0,28,31,Marimba
429.6666666666667,0.11250281257031425,53,108,Marimba
430.0,0.46001686728513375,29,117,Marimba
430.0,0.23000843364256687,51,112,Marimba
430.0,0.23000843364256687,56,112,Marimba
430.0,0.23000843364256687,53,112,Marimba
430.0,0.23000843364256687,60,112,Marimba
430.0,0.23000843364256687,56,117,Marimba
430.0,0.3450126504638503,53,111,Marimba
430.0,0.3450126504638503,56,111,Marimba
430.0,0.3450126504638503,63,111,Marimba
430.0,0.3450126504638503,60,111,Marimba
430.0,0.0,53,80,Marimba
430.0,0.0,42,80,Marimba
430.0,0.0,40,80,Marimba
430.0,0.0,28,80,Marimba
430.6666666666667,0.15333895576171125,56,80,Marimba
430.6666666666667,0.15333895576171125,51,80,Marimba
430.6666666666667,0.15333895576171125,60,80,Marimba
430.6666666666667,0.15333895576171125,53,80,Marimba
430.6666666666667,0.15333895576171125,60,104,Marimba
430.6666666666667,0.0,35,115,Marimba
431.0,0.30000750018750466,36,114,Marimba
431.0,0.2250056251406285,51,111,Marimba
431.0,0.11250281257031425,53,80,Marimba
431.0,0.11250281257031425,56,80,Marimba
431.0,0.11250281257031425,63,80,Marimba
431.0,0.11250281257031425,60,80,Marimba
431.0,0.0,53,61,Marimba
431.0,0.0,42,61,Marimba
431.0,0.0,36,61,Marimba
431.0,0.0,28,61,Marimba
431.3333333333333,0.0,40,59,Marimba
431.3333333333333,0.0,28,59,Marimba
431.6666666666667,0.450011250281257,29,112,Marimba
431.6666666666667,0.30000750018750466,51,111,Marimba
431.6666666666667,0.30000750018750466,56,111,Marimba
431.6666666666667,0.30000750018750466,53,111,Marimba
431.6666666666667,0.30000750018750466,60,111,Marimba
431.6666666666667,0.11250281257031425,56,79,Marimba
431.6666666666667,0.0,42,90,Marimba
431.75,0.0,54,45,Marimba
431.75,0.0,54,60,Marimba
432.0,0.3066779115234225,60,108,Marimba
432.0,0.3066779115234225,63,110,Marimba
432.0,0.3066779115234225,53,110,Marimba
432.0,0.3066779115234225,56,110,Marimba
432.0,0.3066779115234225,60,110,Marimba
432.0,0.0,54,75,Marimba
432.0,0.0,53,84,Marimba
432.0,0.0,46,84,Marimba
432.0,0.0,54,84,Marimba
432.0,0.0,35,84,Marimba
432.0,0.0,40,84,Marimba
432.0,0.0,28,84,Marimba
432.25,0.0,54,75,Marimba
432.25,0.0,54,60,Marimba
432.3333333333333,0.0,54,36,Marimba
432.3333333333333,0.0,36,36,Marimba
432.6666666666667,0.15333895576171125,29,111,Marimba
432.6666666666667,0.11500421682128344,56,84,Marimba
432.6666666666667,0.11500421682128344,53,84,Marimba
432.6666666666667,0.11500421682128344,51,84,Marimba
432.6666666666667,0.11500421682128344,60,84,Marimba
432.6666666666667,0.0,41,87,Marimba
432.6666666666667,0.0,40,87,Marimba
433.0,0.5625140628515712,34,122,Marimba
433.0,0.33750843771094274,61,120,Marimba
433.0,0.33750843771094274,61,120,Marimba
433.0,0.2250056251406285,56,91,Marimba
433.0,0.2250056251406285,60,91,Marimba
433.0,0.2250056251406285,53,91,Marimba
433.0,0.2250056251406285,49,91,Marimba
433.0,0.15000375009375233,56,93,Marimba
433.0,0.15000375009375233,61,93,Marimba
433.0,0.15000375009375233,53,93,Marimba
433.0,1.800045001125028,34,74,Marimba
433.0,0.11250281257031425,56,95,Marimba
433.0,0.11250281257031425,61,95,Marimba
433.0,0.11250281257031425,53,95,Marimba
433.0,0.11250281257031425,58,95,Marimba
433.0,0.0,42,87,Marimba
433.0,0.0,35,87,Marimba
433.0,0.0,28,87,Marimba
433.3333333333333,0.0,36,28,Marimba
433.6666666666667,0.0,28,34,Marimba
434.0,0.3066779115234225,60,120,Marimba
434.0,0.3066779115234225,60,120,Marimba
434.0,0.23000843364256687,49,109,Marimba
434.0,0.23000843364256687,56,109,Marimba
434.0,0.23000843364256687,53,109,Marimba
434.0,0.23000843364256687,60,109,Marimba
434.0,0.3450126504638503,53,115,Marimba
434.0,0.3450126504638503,56,115,Marimba
434.0,0.3450126504638503,61,115,Marimba
434.0,0.3450126504638503,56,112,Marimba
434.0,0.3450126504638503,61,112,Marimba
434.0,0.3450126504638503,53,112,Marimba
434.0,0.3450126504638503,58,112,Marimba
434.0,0.0,42,77,Marimba
434.0,0.0,40,77,Marimba
434.0,0.0,28,77,Marimba
434.6666666666667,0.3450126504638503,36,120,Marimba
434.6666666666667,0.3066779115234225,61,120,Marimba
434.6666666666667,0.3066779115234225,61,120,Marimba
434.6666666666667,0.23000843364256687,49,100,Marimba
434.6666666666667,0.23000843364256687,56,100,Marimba
434.6666666666667,0.23000843364256687,53,100,Marimba
434.6666666666667,0.23000843364256687,60,100,Marimba
434.6666666666667,0.0,35,117,Marimba
435.0,0.11250281257031425,56,87,Marimba
435.0,0.11250281257031425,53,87,Marimba
435.0,0.11250281257031425,61,87,Marimba
435.0,0.11250281257031425,56,80,Marimba
435.0,0.11250281257031425,58,80,Marimba
435.0,0.11250281257031425,53,80,Marimba
435.0,0.11250281257031425,61,80,Marimba
435.0,0.0,42,58,Marimba
435.0,0.0,36,58,Marimba
435.0,0.0,28,58,Marimba
435.6666666666667,0.11250281257031425,37,90,Marimba
435.6666666666667,0.11250281257031425,65,120,Marimba
435.6666666666667,0.11250281257031425,65,120,Marimba
435.6666666666667,0.33750843771094274,49,100,Marimba
435.6666666666667,0.33750843771094274,56,100,Marimba
435.6666666666667,0.33750843771094274,53,100,Marimba
435.6666666666667,0.33750843771094274,60,100,Marimba
435.6666666666667,0.0,42,79,Marimba
435.6666666666667,0.0,40,79,Marimba
436.0,0.3450126504638503,41,111,Marimba
436.0,0.3066779115234225,72,120,Marimba
436.0,0.3066779115234225,72,120,Marimba
436.0,0.46001686728513375,56,114,Marimba
436.0,0.46001686728513375,53,114,Marimba
436.0,0.46001686728513375,61,114,Marimba
436.0,0.3450126504638503,56,110,Marimba
436.0,0.3450126504638503,53,110,Marimba
436.0,0.3450126504638503,58,110,Marimba
436.0,0.3450126504638503,61,110,Marimba
436.0,0.0,42,72,Marimba
436.0,0.0,28,72,Marimba
436.6666666666667,0.11500421682128344,40,104,Marimba
436.6666666666667,0.46001686728513375,70,120,Marimba
436.6666666666667,0.46001686728513375,70,120,Marimba
436.6666666666667,0.11500421682128344,56,83,Marimba
436.6666666666667,0.11500421682128344,49,83,Marimba
436.6666666666667,0.11500421682128344,53,83,Marimba
436.6666666666667,0.11500421682128344,60,83,Marimba
436.6666666666667,0.0,28,34,Marimba
437.0,0.450011250281257,39,90,Marimba
437.0,0.2250056251406285,58,98,Marimba
437.0,0.2250056251406285,55,98,Marimba
437.0,0.2250056251406285,49,98,Marimba
437.0,0.2250056251406285,53,98,Marimba
437.0,0.11250281257031425,63,97,Marimba
437.0,0.11250281257031425,58,97,Marimba
437.0,0.11250281257031425,55,97,Marimba
437.0,0.11250281257031425,55,89,Marimba
437.0,0.11250281257031425,58,89,Marimba
437.0,0.11250281257031425,61,89,Marimba
437.0,0.11250281257031425,65,89,Marimba
437.0,1.800045001125028,39,76,Marimba
437.0,0.0,42,114,Marimba
437.0,0.0,35,114,Marimba
437.3333333333333,0.0,36,28,Marimba
437.6666666666667,0.0,28,34,Marimba
438.0,0.30000750018750466,34,120,Marimba
438.0,0.33750843771094274,67,120,Marimba
438.0,0.33750843771094274,67,120,Marimba
438.0,0.2250056251406285,49,105,Marimba
438.0,0.2250056251406285,55,105,Marimba
438.0,0.2250056251406285,53,105,Marimba
438.0,0.2250056251406285,58,105,Marimba
438.0,0.33750843771094274,55,109,Marimba
438.0,0.33750843771094274,63,109,Marimba
438.0,0.33750843771094274,58,109,Marimba
438.0,0.33750843771094274,55,104,Marimba
438.0,0.33750843771094274,58,104,Marimba
438.0,0.33750843771094274,61,104,Marimba
438.0,0.33750843771094274,65,104,Marimba
438.0,0.0,42,100,Marimba
438.0,0.0,40,100,Marimba
438.3333333333333,0.0,28,34,Marimba
438.6666666666667,0.450011250281257,27,112,Marimba
438.6666666666667,0.2250056251406285,49,80,Marimba
438.6666666666667,0.2250056251406285,58,80,Marimba
438.6666666666667,0.2250056251406285,55,80,Marimba
438.6666666666667,0.2250056251406285,53,80,Marimba
439.0,0.3450126504638503,65,120,Marimba
439.0,0.3450126504638503,65,120,Marimba
439.0,0.11500421682128344,63,94,Marimba
439.0,0.11500421682128344,58,94,Marimba
439.0,0.11500421682128344,55,94,Marimba
439.0,0.11500421682128344,61,79,Marimba
439.0,0.11500421682128344,55,79,Marimba
439.0,0.11500421682128344,58,79,Marimba
439.0,0.11500421682128344,65,79,Marimba
439.0,0.0,42,87,Marimba
439.0,0.0,35,87,Marimba
439.0,0.0,28,87,Marimba
439.3333333333333,0.0,36,28,Marimba
439.6666666666667,0.11500421682128344,29,75,Marimba
439.6666666666667,0.15333895576171125,49,102,Marimba
439.6666666666667,0.15333895576171125,53,102,Marimba
439.6666666666667,0.15333895576171125,55,102,Marimba
439.6666666666667,0.15333895576171125,58,102,Marimba
439.6666666666667,0.0,42,72,Marimba
439.75,0.0,54,45,Marimba
439.75,0.0,54,60,Marimba
440.0,0.33750843771094274,27,104,Marimba
440.0,0.33750843771094274,67,120,Marimba
440.0,0.33750843771094274,67,120,Marimba
440.0,0.33750843771094274,55,113,Marimba
440.0,0.33750843771094274,58,113,Marimba
440.0,0.33750843771094274,63,113,Marimba
440.0,0.33750843771094274,58,104,Marimba
440.0,0.33750843771094274,61,104,Marimba
440.0,0.33750843771094274,55,104,Marimba
440.0,0.33750843771094274,65,104,Marimba
440.0,0.0,54,75,Marimba
440.0,0.0,46,78,Marimba
440.0,0.0,54,78,Marimba
440.0,0.0,40,78,Marimba
440.0,0.0,28,78,Marimba
440.0,0.0,54,75,Marimba
440.25,0.0,54,60,Marimba
440.25,0.0,54,45,Marimba
440.3333333333333,0.11250281257031425,53,76,Marimba
440.3333333333333,0.11250281257031425,55,76,Marimba
440.3333333333333,0.11250281257031425,58,76,Marimba
440.3333333333333,0.11250281257031425,49,76,Marimba
440.6666666666667,0.11250281257031425,55,81,Marimba
440.6666666666667,0.11250281257031425,53,81,Marimba
440.6666666666667,0.11250281257031425,49,81,Marimba
440.6666666666667,0.11250281257031425,58,81,Marimba
440.6666666666667,0.0,35,59,Marimba
440.6666666666667,0.0,28,59,Marimba
441.0,0.46001686728513375,36,122,Marimba
441.0,0.3450126504638503,63,120,Marimba
441.0,0.3450126504638503,63,120,Marimba
441.0,0.23000843364256687,58,91,Marimba
441.0,0.23000843364256687,55,91,Marimba
441.0,0.23000843364256687,51,91,Marimba
441.0,0.23000843364256687,48,91,Marimba
441.0,0.11500421682128344,56,76,Marimba
441.0,0.11500421682128344,63,88,Marimba
441.0,0.11500421682128344,55,88,Marimba
441.0,0.11500421682128344,58,88,Marimba
441.0,1.840067469140535,36,86,Marimba
441.0,0.11500421682128344,60,87,Marimba
441.0,0.11500421682128344,63,87,Marimba
441.0,0.11500421682128344,55,87,Marimba
441.0,0.11500421682128344,58,87,Marimba
441.0,0.0,42,69,Marimba
441.0,0.0,36,69,Marimba
441.0,0.0,35,69,Marimba
441.0,0.0,28,69,Marimba
441.3333333333333,0.0,36,28,Marimba
441.6666666666667,0.11500421682128344,63,107,Marimba
442.0,0.15000375009375233,75,116,Marimba
442.0,0.2250056251406285,62,120,Marimba
442.0,0.2250056251406285,62,120,Marimba
442.0,0.30000750018750466,48,109,Marimba
442.0,0.30000750018750466,51,109,Marimba
442.0,0.30000750018750466,55,109,Marimba
442.0,0.30000750018750466,58,109,Marimba
442.0,0.33750843771094274,55,112,Marimba
442.0,0.33750843771094274,63,112,Marimba
442.0,0.33750843771094274,58,112,Marimba
442.0,0.33750843771094274,55,106,Marimba
442.0,0.33750843771094274,60,106,Marimba
442.0,0.33750843771094274,58,106,Marimba
442.0,0.33750843771094274,63,106,Marimba
442.0,0.0,42,79,Marimba
442.0,0.0,40,79,Marimba
442.0,0.0,28,79,Marimba
442.6666666666667,0.11250281257031425,63,107,Marimba
442.6666666666667,0.450011250281257,36,122,Marimba
442.6666666666667,0.33750843771094274,63,120,Marimba
442.6666666666667,0.33750843771094274,63,120,Marimba
442.6666666666667,0.2250056251406285,48,94,Marimba
442.6666666666667,0.2250056251406285,55,94,Marimba
442.6666666666667,0.2250056251406285,51,94,Marimba
442.6666666666667,0.2250056251406285,58,94,Marimba
442.6666666666667,0.0,35,111,Marimba
443.0,0.23000843364256687,70,112,Marimba
443.0,0.11500421682128344,55,95,Marimba
443.0,0.11500421682128344,58,95,Marimba
443.0,0.11500421682128344,63,95,Marimba
443.0,0.11500421682128344,55,94,Marimba
443.0,0.11500421682128344,60,94,Marimba
443.0,0.11500421682128344,58,94,Marimba
443.0,0.11500421682128344,63,94,Marimba
443.0,0.0,42,58,Marimba
443.0,0.0,36,58,Marimba
443.0,0.0,28,58,Marimba
443.3333333333333,0.0,28,34,Marimba
443.6666666666667,0.11500421682128344,72,107,Marimba
443.6666666666667,0.11500421682128344,39,104,Marimba
443.6666666666667,0.11500421682128344,67,120,Marimba
443.6666666666667,0.11500421682128344,67,120,Marimba
443.6666666666667,0.11500421682128344,48,97,Marimba
443.6666666666667,0.11500421682128344,51,97,Marimba
443.6666666666667,0.11500421682128344,55,97,Marimba
443.6666666666667,0.11500421682128344,58,97,Marimba
443.6666666666667,0.0,40,99,Marimba
444.0,0.33750843771094274,43,111,Marimba
444.0,0.33750843771094274,75,120,Marimba
444.0,0.33750843771094274,75,120,Marimba
444.0,0.2250056251406285,58,85,Marimba
444.0,0.2250056251406285,51,85,Marimba
444.0,0.2250056251406285,48,85,Marimba
444.0,0.2250056251406285,55,85,Marimba
444.0,0.33750843771094274,55,110,Marimba
444.0,0.33750843771094274,63,110,Marimba
444.0,0.33750843771094274,58,110,Marimba
444.0,0.33750843771094274,60,107,Marimba
444.0,0.33750843771094274,63,107,Marimba
444.0,0.33750843771094274,55,107,Marimba
444.0,0.2250056251406285,58,114,Marimba
444.0,0.0,42,76,Marimba
444.0,0.0,28,76,Marimba
444.6666666666667,0.11250281257031425,63,97,Marimba
444.6666666666667,0.11250281257031425,42,104,Marimba
444.6666666666667,0.11250281257031425,55,64,Marimba
444.6666666666667,0.11250281257031425,51,64,Marimba
444.6666666666667,0.11250281257031425,48,64,Marimba
444.6666666666667,0.11250281257031425,58,64,Marimba
444.6666666666667,0.0,28,34,Marimba
445.0,0.23000843364256687,75,116,Marimba
445.0,0.46001686728513375,41,98,Marimba
445.0,0.3450126504638503,73,120,Marimba
445.0,0.3450126504638503,73,120,Marimba
445.0,0.23000843364256687,57,88,Marimba
445.0,0.23000843364256687,51,88,Marimba
445.0,0.23000843364256687,60,88,Marimba
445.0,0.23000843364256687,53,88,Marimba
445.0,0.11500421682128344,60,97,Marimba
445.0,0.11500421682128344,57,97,Marimba
445.0,0.11500421682128344,65,97,Marimba
445.0,0.11500421682128344,60,98,Marimba
445.0,0.11500421682128344,57,98,Marimba
445.0,0.11500421682128344,55,98,Marimba
445.0,0.11500421682128344,65,98,Marimba
445.0,1.840067469140535,41,76,Marimba
445.0,0.0,42,110,Marimba
445.0,0.0,35,110,Marimba
445.3333333333333,0.0,36,31,Marimba
445.3333333333333,0.0,28,31,Marimba
445.6666666666667,0.11500421682128344,63,97,Marimba
446.0,0.2250056251406285,72,124,Marimba
446.0,0.2250056251406285,36,121,Marimba
446.0,0.33750843771094274,72,120,Marimba
446.0,0.33750843771094274,72,120,Marimba
446.0,0.2250056251406285,57,109,Marimba
446.0,0.2250056251406285,53,109,Marimba
446.0,0.2250056251406285,60,109,Marimba
446.0,0.2250056251406285,51,109,Marimba
446.0,0.33750843771094274,60,110,Marimba
446.0,0.33750843771094274,57,110,Marimba
446.0,0.33750843771094274,65,110,Marimba
446.0,0.33750843771094274,60,107,Marimba
446.0,0.33750843771094274,55,107,Marimba
446.0,0.33750843771094274,57,107,Marimba
446.0,0.33750843771094274,65,107,Marimba
446.0,0.0,42,102,Marimba
446.0,0.0,40,102,Marimba
446.3333333333333,0.0,28,34,Marimba
446.6666666666667,0.11250281257031425,70,120,Marimba
446.6666666666667,0.450011250281257,29,112,Marimba
446.6666666666667,0.15000375009375233,51,93,Marimba
446.6666666666667,0.15000375009375233,53,93,Marimba
446.6666666666667,0.15000375009375233,60,93,Marimba
446.6666666666667,0.15000375009375233,57,93,Marimba
446.6666666666667,0.0,38,88,Marimba
446.6666666666667,0.0,35,88,Marimba
447.0,0.3066779115234225,70,120,Marimba
447.0,0.3066779115234225,70,120,Marimba
447.0,0.11500421682128344,60,83,Marimba
447.0,0.11500421682128344,57,83,Marimba
447.0,0.11500421682128344,65,83,Marimba
447.0,0.11500421682128344,60,86,Marimba
447.0,0.11500421682128344,55,86,Marimba
447.0,0.11500421682128344,57,86,Marimba
447.0,0.11500421682128344,65,86,Marimba
447.0,0.0,42,52,Marimba
447.0,0.0,36,52,Marimba
447.0,0.0,28,52,Marimba
447.3333333333333,0.0,40,82,Marimba
447.3333333333333,0.0,38,82,Marimba
447.6666666666667,0.15333895576171125,63,116,Marimba
447.6666666666667,0.15333895576171125,31,90,Marimba
447.6666666666667,0.46001686728513375,72,120,Marimba
447.6666666666667,0.46001686728513375,72,120,Marimba
447.6666666666667,0.3450126504638503,51,100,Marimba
447.6666666666667,0.3450126504638503,57,100,Marimba
447.6666666666667,0.3450126504638503,53,100,Marimba
447.6666666666667,0.3450126504638503,60,100,Marimba
447.6666666666667,0.0,42,81,Marimba
447.6666666666667,0.0,38,81,Marimba
447.75,0.0,54,45,Marimba
447.75,0.0,54,60,Marimba
448.0,0.33750843771094274,29,114,Marimba
448.0,0.33750843771094274,57,116,Marimba
448.0,0.33750843771094274,60,116,Marimba
448.0,0.30000750018750466,65,100,Marimba
448.0,0.33750843771094274,60,113,Marimba
448.0,0.33750843771094274,57,113,Marimba
448.0,0.33750843771094274,55,113,Marimba
448.0,0.30000750018750466,65,70,Marimba
448.0,0.0,54,75,Marimba
448.0,0.0,41,91,Marimba
448.0,0.0,42,91,Marimba
448.0,0.0,54,91,Marimba
448.0,0.0,35,91,Marimba
448.0,0.0,28,91,Marimba
448.25,0.0,54,75,Marimba
448.25,0.0,54,60,Marimba
448.3333333333333,0.0,54,36,Marimba
448.3333333333333,0.0,36,36,Marimba
448.6666666666667,0.11250281257031425,57,92,Marimba
448.6666666666667,0.11250281257031425,51,92,Marimba
448.6666666666667,0.11250281257031425,53,92,Marimba
448.6666666666667,0.11250281257031425,60,92,Marimba
448.6666666666667,0.0,42,71,Marimba
448.6666666666667,0.0,40,71,Marimba
448.6666666666667,0.0,28,71,Marimba
449.0,0.46001686728513375,34,122,Marimba
449.0,0.3450126504638503,72,120,Marimba
449.0,0.3450126504638503,72,120,Marimba
449.0,0.23000843364256687,49,94,Marimba
449.0,0.23000843364256687,53,94,Marimba
449.0,0.23000843364256687,56,94,Marimba
449.0,0.23000843364256687,60,94,Marimba
449.0,0.11500421682128344,53,97,Marimba
449.0,0.11500421682128344,61,97,Marimba
449.0,0.11500421682128344,56,97,Marimba
449.0,0.11500421682128344,56,96,Marimba
449.0,0.11500421682128344,61,96,Marimba
449.0,0.11500421682128344,53,96,Marimba
449.0,0.11500421682128344,58,96,Marimba
449.0,1.840067469140535,34,81,Marimba
449.0,0.0,42,108,Marimba
449.0,0.0,35,108,Marimba
449.3333333333333,0.0,36,31,Marimba
449.3333333333333,0.0,28,31,Marimba
450.0,0.450011250281257,36,121,Marimba
450.0,0.30000750018750466,65,120,Marimba
450.0,0.30000750018750466,65,120,Marimba
450.0,0.2250056251406285,49,110,Marimba
450.0,0.2250056251406285,56,110,Marimba
450.0,0.2250056251406285,53,110,Marimba
450.0,0.2250056251406285,60,110,Marimba
450.0,0.33750843771094274,53,114,Marimba
450.0,0.33750843771094274,61,114,Marimba
450.0,0.33750843771094274,56,114,Marimba
450.0,0.33750843771094274,61,108,Marimba
450.0,0.33750843771094274,53,108,Marimba
450.0,0.33750843771094274,56,108,Marimba
450.0,0.33750843771094274,58,108,Marimba
450.0,0.0,42,98,Marimba
450.0,0.0,40,98,Marimba
450.3333333333333,0.0,28,34,Marimba
450.6666666666667,0.450011250281257,68,120,Marimba
450.6666666666667,0.450011250281257,68,120,Marimba
450.6666666666667,0.11250281257031425,56,79,Marimba
450.6666666666667,0.11250281257031425,49,79,Marimba
450.6666666666667,0.11250281257031425,53,79,Marimba
450.6666666666667,0.11250281257031425,60,79,Marimba
450.6666666666667,0.0,35,117,Marimba
451.0,0.450011250281257,37,111,Marimba
451.0,0.15000375009375233,56,78,Marimba
451.0,0.15000375009375233,60,78,Marimba
451.0,0.15000375009375233,53,78,Marimba
451.0,0.15000375009375233,49,78,Marimba
451.0,0.11250281257031425,56,83,Marimba
451.0,0.11250281257031425,61,83,Marimba
451.0,0.11250281257031425,53,83,Marimba
451.0,0.11250281257031425,58,82,Marimba
451.0,0.11250281257031425,56,82,Marimba
451.0,0.11250281257031425,61,82,Marimba
451.0,0.11250281257031425,53,82,Marimba
451.0,0.0,42,54,Marimba
451.0,0.0,36,54,Marimba
451.0,0.0,28,54,Marimba
451.6666666666667,0.30000750018750466,49,109,Marimba
451.6666666666667,0.30000750018750466,56,109,Marimba
451.6666666666667,0.30000750018750466,53,109,Marimba
451.6666666666667,0.30000750018750466,60,109,Marimba
451.6666666666667,0.0,42,87,Marimba
451.6666666666667,0.0,40,87,Marimba
452.0,0.3066779115234225,29,111,Marimba
452.0,0.23000843364256687,65,120,Marimba
452.0,0.23000843364256687,65,120,Marimba
452.0,0.3450126504638503,53,108,Marimba
452.0,0.3450126504638503,61,108,Marimba
452.0,0.3450126504638503,56,108,Marimba
452.0,0.3450126504638503,61,112,Marimba
452.0,0.3450126504638503,56,112,Marimba
452.0,0.3450126504638503,58,112,Marimba
452.0,0.3450126504638503,53,112,Marimba
452.0,0.3450126504638503,56,112,Marimba
452.0,0.3450126504638503,58,112,Marimba
452.0,0.0,42,64,Marimba
452.0,0.0,28,64,Marimba
452.6666666666667,0.11500421682128344,28,104,Marimba
452.6666666666667,0.5750210841064172,72,120,Marimba
452.6666666666667,0.5750210841064172,72,120,Marimba
452.6666666666667,0.11500421682128344,56,82,Marimba
452.6666666666667,0.11500421682128344,49,82,Marimba
452.6666666666667,0.11500421682128344,53,82,Marimba
452.6666666666667,0.11500421682128344,60,82,Marimba
453.0,0.450011250281257,27,112,Marimba
453.0,0.15000375009375233,55,93,Marimba
453.0,0.15000375009375233,58,93,Marimba
453.0,0.15000375009375233,51,93,Marimba
453.0,0.15000375009375233,49,93,Marimba
453.0,0.11250281257031425,63,101,Marimba
453.0,0.11250281257031425,58,101,Marimba
453.0,0.11250281257031425,55,98,Marimba
453.0,0.11250281257031425,58,98,Marimba
453.0,1.800045001125028,39,68,Marimba
453.0,0.11250281257031425,58,95,Marimba
453.0,0.11250281257031425,55,95,Marimba
453.0,0.11250281257031425,65,95,Marimba
453.0,0.11250281257031425,61,95,Marimba
453.0,0.0,42,114,Marimba
453.0,0.0,35,114,Marimba
453.3333333333333,0.0,36,31,Marimba
453.3333333333333,0.0,28,31,Marimba
454.0,0.46001686728513375,29,122,Marimba
454.0,0.3450126504638503,65,120,Marimba
454.0,0.3450126504638503,65,120,Marimba
454.0,0.23000843364256687,49,105,Marimba
454.0,0.23000843364256687,51,105,Marimba
454.0,0.23000843364256687,55,105,Marimba
454.0,0.23000843364256687,58,105,Marimba
454.0,0.3450126504638503,55,113,Marimba
454.0,0.3450126504638503,63,113,Marimba
454.0,0.3450126504638503,58,113,Marimba
454.0,0.3450126504638503,55,105,Marimba
454.0,0.3450126504638503,61,105,Marimba
454.0,0.3450126504638503,58,105,Marimba
454.0,0.3450126504638503,65,105,Marimba
454.0,0.0,42,100,Marimba
454.0,0.0,40,100,Marimba
454.3333333333333,0.0,28,34,Marimba
454.6666666666667,0.11500421682128344,51,77,Marimba
454.6666666666667,0.11500421682128344,49,77,Marimba
454.6666666666667,0.11500421682128344,55,77,Marimba
454.6666666666667,0.11500421682128344,58,77,Marimba
455.0,0.450011250281257,31,121,Marimba
455.0,0.30000750018750466,68,120,Marimba
455.0,0.30000750018750466,68,120,Marimba
455.0,0.15000375009375233,58,72,Marimba
455.0,0.15000375009375233,55,72,Marimba
455.0,0.15000375009375233,51,72,Marimba
455.0,0.15000375009375233,49,72,Marimba
455.0,0.11250281257031425,55,99,Marimba
455.0,0.11250281257031425,58,99,Marimba
455.0,0.11250281257031425,63,99,Marimba
455.0,0.11250281257031425,58,73,Marimba
455.0,0.11250281257031425,61,73,Marimba
455.0,0.11250281257031425,55,73,Marimba
455.0,0.11250281257031425,65,73,Marimba
455.0,0.0,42,88,Marimba
455.0,0.0,35,88,Marimba
455.0,0.0,28,88,Marimba
455.3333333333333,0.0,36,28,Marimba
455.6666666666667,0.15000375009375233,65,120,Marimba
455.6666666666667,0.15000375009375233,65,120,Marimba
455.6666666666667,0.30000750018750466,49,107,Marimba
455.6666666666667,0.30000750018750466,58,107,Marimba
455.6666666666667,0.30000750018750466,55,107,Marimba
455.6666666666667,0.30000750018750466,51,107,Marimba
455.75,0.0,54,45,Marimba
455.75,0.0,54,60,Marimba
456.0,0.46001686728513375,27,114,Marimba
456.0,0.3450126504638503,55,113,Marimba
456.0,0.3450126504638503,58,113,Marimba
456.0,0.3450126504638503,63,113,Marimba
456.0,0.3450126504638503,55,106,Marimba
456.0,0.3450126504638503,58,106,Marimba
456.0,0.3450126504638503,61,101,Marimba
456.0,0.3450126504638503,58,101,Marimba
456.0,0.3450126504638503,65,101,Marimba
456.0,0.0,54,75,Marimba
456.0,0.0,46,78,Marimba
456.0,0.0,54,78,Marimba
456.0,0.0,40,78,Marimba
456.0,0.0,28,78,Marimba
456.0,0.0,54,75,Marimba
456.25,0.0,54,60,Marimba
456.25,0.0,54,45,Marimba
456.6666666666667,1.3800506018554013,68,120,Marimba
456.6666666666667,1.3800506018554013,68,120,Marimba
456.6666666666667,0.11500421682128344,49,88,Marimba
456.6666666666667,0.11500421682128344,51,88,Marimba
456.6666666666667,0.11500421682128344,55,88,Marimba
456.6666666666667,0.11500421682128344,58,88,Marimba
456.6666666666667,0.0,35,84,Marimba
457.0,0.30000750018750466,32,121,Marimba
457.0,0.15000375009375233,53,101,Marimba
457.0,0.15000375009375233,56,101,Marimba
457.0,0.15000375009375233,51,101,Marimba
457.0,0.15000375009375233,60,101,Marimba
457.0,0.11250281257031425,51,104,Marimba
457.0,0.11250281257031425,56,104,Marimba
457.0,0.11250281257031425,60,104,Marimba
457.0,0.11250281257031425,60,95,Marimba
457.0,0.11250281257031425,58,95,Marimba
457.0,0.11250281257031425,67,95,Marimba
457.0,0.11250281257031425,63,95,Marimba
457.0,3.600090002250056,44,83,Marimba
457.0,0.0,42,85,Marimba
457.0,0.0,36,85,Marimba
457.0,0.0,35,85,Marimba
457.3333333333333,0.0,28,31,Marimba
457.3333333333333,0.0,36,31,Marimba
457.6666666666667,0.15000375009375233,27,81,Marimba
458.0,0.3066779115234225,32,121,Marimba
458.0,0.23000843364256687,51,108,Marimba
458.0,0.23000843364256687,53,108,Marimba
458.0,0.23000843364256687,56,108,Marimba
458.0,0.23000843364256687,60,108,Marimba
458.0,0.3450126504638503,60,109,Marimba
458.0,0.3450126504638503,51,109,Marimba
458.0,0.3450126504638503,56,109,Marimba
458.0,0.3450126504638503,58,106,Marimba
458.0,0.3450126504638503,60,106,Marimba
458.0,0.3450126504638503,63,106,Marimba
458.0,0.3450126504638503,67,106,Marimba
458.0,0.0,42,79,Marimba
458.0,0.0,40,79,Marimba
458.0,0.0,28,79,Marimba
458.6666666666667,0.3066779115234225,31,111,Marimba
458.6666666666667,0.11500421682128344,56,77,Marimba
458.6666666666667,0.11500421682128344,51,77,Marimba
458.6666666666667,0.11500421682128344,55,77,Marimba
458.6666666666667,0.11500421682128344,60,77,Marimba
458.6666666666667,0.0,35,111,Marimba
459.0,0.11250281257031425,60,78,Marimba
459.0,0.11250281257031425,56,78,Marimba
459.0,0.11250281257031425,51,78,Marimba
459.0,0.11250281257031425,55,78,Marimba
459.0,0.11250281257031425,60,93,Marimba
459.0,0.11250281257031425,51,93,Marimba
459.0,0.11250281257031425,56,93,Marimba
459.0,0.11250281257031425,60,84,Marimba
459.0,0.11250281257031425,63,84,Marimba
459.0,0.11250281257031425,58,84,Marimba
459.0,0.11250281257031425,67,84,Marimba
459.0,0.0,42,55,Marimba
459.0,0.0,36,55,Marimba
459.0,0.0,28,55,Marimba
459.6666666666667,0.15000375009375233,30,98,Marimba
459.6666666666667,0.33750843771094274,56,102,Marimba
459.6666666666667,0.33750843771094274,60,102,Marimba
459.6666666666667,0.33750843771094274,55,102,Marimba
459.6666666666667,0.33750843771094274,51,102,Marimba
459.6666666666667,0.0,40,100,Marimba
459.6666666666667,0.0,35,100,Marimba
460.0,0.3066779115234225,29,114,Marimba
460.0,0.3066779115234225,51,115,Marimba
460.0,0.3066779115234225,60,115,Marimba
460.0,0.3066779115234225,56,115,Marimba
460.0,0.3450126504638503,58,103,Marimba
460.0,0.3450126504638503,63,103,Marimba
460.0,0.3450126504638503,60,103,Marimba
460.0,0.3066779115234225,67,93,Marimba
460.0,0.0,42,77,Marimba
460.0,0.0,28,77,Marimba
460.6666666666667,0.15333895576171125,28,86,Marimba
460.6666666666667,0.11500421682128344,56,92,Marimba
460.6666666666667,0.11500421682128344,55,92,Marimba
460.6666666666667,0.11500421682128344,51,92,Marimba
460.6666666666667,0.11500421682128344,60,92,Marimba
461.0,0.3066779115234225,31,122,Marimba
461.0,0.23000843364256687,57,111,Marimba
461.0,0.23000843364256687,60,111,Marimba
461.0,0.23000843364256687,65,111,Marimba
461.0,0.23000843364256687,62,111,Marimba
461.0,0.11500421682128344,65,105,Marimba
461.0,0.11500421682128344,60,105,Marimba
461.0,0.11500421682128344,57,105,Marimba
461.0,0.3066779115234225,43,98,Marimba
461.0,0.3066779115234225,60,98,Marimba
461.0,0.3066779115234225,62,98,Marimba
461.0,0.3066779115234225,65,98,Marimba
461.0,0.3066779115234225,69,98,Marimba
461.0,0.0,42,86,Marimba
461.0,0.0,35,86,Marimba
461.0,0.0,28,86,Marimba
461.3333333333333,0.0,36,31,Marimba
461.3333333333333,0.0,28,31,Marimba
462.0,0.3333333333333333,31,121,Marimba
462.0,0.3333333333333333,57,119,Marimba
462.0,0.3333333333333333,60,119,Marimba
462.0,0.3333333333333333,62,119,Marimba
462.0,0.3333333333333333,65,119,Marimba
462.0,0.16666666666666666,57,116,Marimba
462.0,0.16666666666666666,60,116,Marimba
462.0,0.16666666666666666,65,116,Marimba
462.0,0.125,60,107,Marimba
462.0,0.125,65,107,Marimba
462.0,0.125,62,107,Marimba
462.0,0.125,69,107,Marimba
462.0,0.125,43,107,Marimba
462.0,0.0,42,88,Marimba
462.0,0.0,40,88,Marimba
462.0,0.0,28,88,Marimba
462.0,0.0,35,88,Marimba
463.0,0.0,42,62,Marimba
463.0,0.0,36,62,Marimba
463.6666666666667,0.6875057292144102,31,124,Marimba
463.6666666666667,0.5500045833715281,57,118,Marimba
463.6666666666667,0.5500045833715281,60,118,Marimba
463.6666666666667,0.5500045833715281,62,118,Marimba
463.6666666666667,0.5500045833715281,65,118,Marimba
463.6666666666667,0.5500045833715281,57,119,Marimba
463.6666666666667,0.5500045833715281,60,119,Marimba
463.6666666666667,0.5500045833715281,65,119,Marimba
463.6666666666667,0.5500045833715281,60,111,Marimba
463.6666666666667,0.5500045833715281,62,111,Marimba
463.6666666666667,0.5500045833715281,65,111,Marimba
463.6666666666667,0.5500045833715281,69,111,Marimba
463.6666666666667,0.6875057292144102,43,111,Marimba
463.6666666666667,0.0,42,102,Marimba
463.6666666666667,0.0,35,102,Marimba
463.75,0.0,54,45,Marimba
463.75,0.0,54,60,Marimba
464.0,0.0,54,75,Marimba
464.0,0.0,46,96,Marimba
464.0,0.0,54,96,Marimba
464.25,0.0,54,75,Marimba
464.25,0.0,54,60,Marimba
464.3333333333333,0.0,54,45,Marimba
464.6666666666667,0.0,40,66,Marimba
465.0,3.6500790850468428,36,117,Marimba
465.0,0.48667721133957903,91,93,Marimba
465.0,3.6500790850468428,48,98,Marimba
465.0,3.6500790850468428,55,98,Marimba
465.0,3.6500790850468428,59,100,Marimba
465.0,3.6500790850468428,59,88,Marimba
465.0,3.6500790850468428,67,88,Marimba
465.0,3.6500790850468428,64,88,Marimba
465.0,3.6500790850468428,67,85,Marimba
465.0,3.6500790850468428,59,85,Marimba
465.0,3.6500790850468428,64,85,Marimba
465.0,3.6500790850468428,36,85,Marimba
465.0,3.6500790850468428,48,85,Marimba
465.0,0.0,49,100,Marimba
465.0,0.0,35,100,Marimba
465.25,3.6500790850468428,64,115,Marimba
465.5,0.18250395425234214,89,46,Marimba
465.75,0.18250395425234214,88,54,Marimba
465.75,0.18250395425234214,86,60,Marimba
466.0,0.18250395425234214,84,56,Marimba
466.25,0.18250395425234214,83,43,Marimba
466.25,0.18250395425234214,81,62,Marimba
466.3333333333333,0.18250395425234214,79,59,Marimba
466.5,0.18250395425234214,77,59,Marimba
466.6666666666667,0.18250395425234214,76,50,Marimba
466.75,0.18250395425234214,74,62,Marimba
466.75,0.18250395425234214,72,59,Marimba
467.0,0.18250395425234214,71,59,Marimba
467.0,0.18250395425234214,69,67,Marimba
467.25,0.18250395425234214,67,60,Marimba
467.3333333333333,0.18250395425234214,65,58,Marimba
467.5,0.18250395425234214,64,58,Marimba
467.5,0.18250395425234214,62,60,Marimba
467.6666666666667,0.18250395425234214,60,60,Marimba
467.75,0.18250395425234214,59,63,Marimba
468.0,0.18250395425234214,57,59,Marimba
468.0,0.18250395425234214,55,48,Marimba
468.25,0.18250395425234214,53,44,Marimba
468.5,0.24333860566978952,52,47,Marimba
468.6666666666667,0.48667721133957903,50,47,Marimba
