Start,Duration,Pitch,Velocity,Instrument
5.0,0.0,40,127,Brass
5.0,0.0,40,127,Brass
5.5,0.2803738317757009,43,127,Brass
6.0,0.42056074766355134,33,120,Brass
6.0,0.14018691588785046,45,127,Brass
6.0,2.102803738317757,85,72,Brass
6.0,1.261682242990654,79,53,Brass
6.0,0.42056074766355134,57,105,Brass
6.0,0.42056074766355134,61,105,Brass
6.0,0.42056074766355134,64,105,Brass
6.0,0.42056074766355134,67,105,Brass
6.0,0.14018691588785046,49,100,Brass
6.0,0.14018691588785046,36,100,Brass
6.5,0.14018691588785046,51,90,Brass
6.75,0.14018691588785046,33,110,Brass
6.75,0.14018691588785046,67,85,Brass
6.75,0.14018691588785046,64,85,Brass
6.75,0.14018691588785046,61,85,Brass
6.75,0.14018691588785046,57,85,Brass
7.0,0.42056074766355134,73,121,Brass
7.0,0.42056074766355134,67,121,Brass
7.0,0.42056074766355134,76,121,Brass
7.0,0.14018691588785046,33,110,Brass
7.0,0.0,57,95,Brass
7.0,0.0,61,95,Brass
7.0,0.0,64,95,Brass
7.0,0.0,67,95,Brass
7.0,1.6822429906542054,81,120,Brass
7.0,0.14018691588785046,42,96,Brass
7.0,0.14018691588785046,40,96,Brass
7.5,0.14018691588785046,38,95,Brass
7.5,0.14018691588785046,57,95,Brass
7.5,0.14018691588785046,61,95,Brass
7.5,0.14018691588785046,64,95,Brass
7.5,0.14018691588785046,67,95,Brass
7.5,0.14018691588785046,36,92,Brass
7.5,0.14018691588785046,51,92,Brass
7.75,0.14018691588785046,72,104,Brass
7.75,0.14018691588785046,66,104,Brass
7.75,0.14018691588785046,75,104,Brass
7.75,0.14018691588785046,40,90,Brass
7.75,0.14018691588785046,67,85,Brass
7.75,0.14018691588785046,64,85,Brass
7.75,0.14018691588785046,61,85,Brass
7.75,0.14018691588785046,57,85,Brass
8.0,0.14018691588785046,67,113,Brass
8.0,0.14018691588785046,73,113,Brass
8.0,0.14018691588785046,76,113,Brass
8.0,0.14018691588785046,43,110,Brass
8.0,0.14018691588785046,42,98,Brass
8.0,0.14018691588785046,36,98,Brass
8.25,0.14018691588785046,67,90,Brass
8.25,0.14018691588785046,64,90,Brass
8.25,0.14018691588785046,61,90,Brass
8.25,0.14018691588785046,57,90,Brass
8.5,0.2803738317757009,43,110,Brass
8.5,0.18691588785046725,79,69,Brass
8.5,0.18691588785046725,73,69,Brass
8.5,0.0,57,80,Brass
8.5,0.0,61,80,Brass
8.5,0.0,64,80,Brass
8.5,0.0,67,80,Brass
8.5,0.14018691588785046,51,90,Brass
9.0,0.2803738317757009,40,105,Brass
9.0,0.14018691588785046,73,82,Brass
9.0,0.14018691588785046,79,57,Brass
9.0,0.14018691588785046,57,95,Brass
9.0,0.14018691588785046,61,95,Brass
9.0,0.14018691588785046,64,95,Brass
9.0,0.14018691588785046,67,95,Brass
9.0,0.14018691588785046,42,96,Brass
9.0,0.14018691588785046,40,96,Brass
9.25,0.0,67,85,Brass
9.25,0.0,64,85,Brass
9.25,0.0,61,85,Brass
9.25,0.0,57,85,Brass
9.5,0.2803738317757009,45,110,Brass
9.5,0.2803738317757009,43,127,Brass
9.5,0.14018691588785046,79,78,Brass
9.5,0.14018691588785046,73,78,Brass
9.5,0.14018691588785046,51,90,Brass
10.0,0.42056074766355134,33,120,Brass
10.0,0.14018691588785046,45,127,Brass
10.0,1.261682242990654,79,53,Brass
10.0,2.102803738317757,85,72,Brass
10.0,0.42056074766355134,57,105,Brass
10.0,0.42056074766355134,61,105,Brass
10.0,0.42056074766355134,64,105,Brass
10.0,0.42056074766355134,67,105,Brass
10.0,0.14018691588785046,36,98,Brass
10.0,0.14018691588785046,42,98,Brass
10.5,0.14018691588785046,51,90,Brass
10.75,0.14018691588785046,33,110,Brass
10.75,0.14018691588785046,67,85,Brass
10.75,0.14018691588785046,64,85,Brass
10.75,0.14018691588785046,61,85,Brass
10.75,0.14018691588785046,57,85,Brass
11.0,0.42056074766355134,67,119,Brass
11.0,0.42056074766355134,73,119,Brass
11.0,0.42056074766355134,76,119,Brass
11.0,0.14018691588785046,33,110,Brass
11.0,0.0,57,95,Brass
11.0,0.0,61,95,Brass
11.0,0.0,64,95,Brass
11.0,0.0,67,95,Brass
11.0,0.2803738317757009,66,120,Brass
11.0,0.14018691588785046,42,96,Brass
11.0,0.14018691588785046,40,96,Brass
11.5,0.14018691588785046,38,95,Brass
11.5,0.14018691588785046,57,95,Brass
11.5,0.14018691588785046,61,95,Brass
11.5,0.14018691588785046,64,95,Brass
11.5,0.14018691588785046,67,95,Brass
11.5,0.14018691588785046,69,110,Brass
11.5,0.14018691588785046,36,92,Brass
11.5,0.14018691588785046,51,92,Brass
11.75,0.14018691588785046,72,104,Brass
11.75,0.14018691588785046,66,104,Brass
11.75,0.14018691588785046,75,104,Brass
11.75,0.14018691588785046,40,90,Brass
11.75,0.14018691588785046,67,85,Brass
11.75,0.14018691588785046,64,85,Brass
11.75,0.14018691588785046,61,85,Brass
11.75,0.14018691588785046,57,85,Brass
12.0,0.14018691588785046,76,110,Brass
12.0,0.14018691588785046,73,110,Brass
12.0,0.14018691588785046,67,110,Brass
12.0,0.14018691588785046,43,110,Brass
12.0,0.5607476635514018,71,120,Brass
12.0,0.14018691588785046,42,98,Brass
12.0,0.14018691588785046,36,98,Brass
12.25,0.14018691588785046,72,107,Brass
12.25,0.14018691588785046,66,107,Brass
12.25,0.14018691588785046,75,107,Brass
12.25,0.14018691588785046,67,90,Brass
12.25,0.14018691588785046,64,90,Brass
12.25,0.14018691588785046,61,90,Brass
12.25,0.14018691588785046,57,90,Brass
12.5,0.14018691588785046,73,110,Brass
12.5,0.14018691588785046,76,110,Brass
12.5,0.14018691588785046,67,110,Brass
12.5,0.2803738317757009,43,110,Brass
12.5,0.18691588785046725,73,69,Brass
12.5,0.18691588785046725,79,69,Brass
12.5,0.0,57,80,Brass
12.5,0.0,61,80,Brass
12.5,0.0,64,80,Brass
12.5,0.0,67,80,Brass
12.5,0.14018691588785046,51,92,Brass
12.5,0.14018691588785046,36,92,Brass
13.0,0.2803738317757009,40,105,Brass
13.0,0.14018691588785046,73,82,Brass
13.0,0.14018691588785046,79,57,Brass
13.0,0.14018691588785046,57,95,Brass
13.0,0.14018691588785046,61,95,Brass
13.0,0.14018691588785046,64,95,Brass
13.0,0.14018691588785046,67,95,Brass
13.0,0.2803738317757009,69,120,Brass
13.0,0.14018691588785046,42,96,Brass
13.0,0.14018691588785046,40,96,Brass
13.25,0.0,67,85,Brass
13.25,0.0,64,85,Brass
13.25,0.0,61,85,Brass
13.25,0.0,57,85,Brass
13.5,0.2803738317757009,45,110,Brass
13.5,0.2803738317757009,43,127,Brass
13.5,0.14018691588785046,73,78,Brass
13.5,0.14018691588785046,79,78,Brass
13.5,0.2803738317757009,66,115,Brass
13.5,0.14018691588785046,51,90,Brass
14.0,0.42056074766355134,33,120,Brass
14.0,0.14018691588785046,45,127,Brass
14.0,1.308411214953271,85,82,Brass
14.0,1.4018691588785046,79,60,Brass
14.0,0.42056074766355134,57,105,Brass
14.0,0.42056074766355134,61,105,Brass
14.0,0.42056074766355134,64,105,Brass
14.0,0.42056074766355134,67,105,Brass
14.0,1.6822429906542054,69,120,Brass
14.0,0.14018691588785046,36,98,Brass
14.0,0.14018691588785046,42,98,Brass
14.5,0.14018691588785046,51,90,Brass
14.75,0.14018691588785046,33,110,Brass
14.75,0.14018691588785046,67,85,Brass
14.75,0.14018691588785046,64,85,Brass
14.75,0.14018691588785046,61,85,Brass
14.75,0.14018691588785046,57,85,Brass
15.0,0.42056074766355134,73,121,Brass
15.0,0.42056074766355134,67,121,Brass
15.0,0.42056074766355134,76,121,Brass
15.0,0.14018691588785046,33,110,Brass
15.0,0.0,57,95,Brass
15.0,0.0,61,95,Brass
15.0,0.0,64,95,Brass
15.0,0.0,67,95,Brass
15.0,0.14018691588785046,42,96,Brass
15.0,0.14018691588785046,40,96,Brass
15.5,0.14018691588785046,38,95,Brass
15.5,0.14018691588785046,57,95,Brass
15.5,0.14018691588785046,61,95,Brass
15.5,0.14018691588785046,64,95,Brass
15.5,0.14018691588785046,67,95,Brass
15.5,0.14018691588785046,36,92,Brass
15.5,0.14018691588785046,51,92,Brass
15.75,0.14018691588785046,72,104,Brass
15.75,0.14018691588785046,66,104,Brass
15.75,0.14018691588785046,75,104,Brass
15.75,0.14018691588785046,40,90,Brass
15.75,0.14018691588785046,67,85,Brass
15.75,0.14018691588785046,64,85,Brass
15.75,0.14018691588785046,61,85,Brass
15.75,0.14018691588785046,57,85,Brass
16.0,0.14018691588785046,67,113,Brass
16.0,0.14018691588785046,73,113,Brass
16.0,0.14018691588785046,76,113,Brass
16.0,0.14018691588785046,43,110,Brass
16.0,0.14018691588785046,42,98,Brass
16.0,0.14018691588785046,36,98,Brass
16.25,0.14018691588785046,67,90,Brass
16.25,0.14018691588785046,64,90,Brass
16.25,0.14018691588785046,61,90,Brass
16.25,0.14018691588785046,57,90,Brass
16.5,0.2803738317757009,43,110,Brass
16.5,0.18691588785046725,69,51,Brass
16.5,0.0,57,80,Brass
16.5,0.0,61,80,Brass
16.5,0.0,64,80,Brass
16.5,0.0,67,80,Brass
16.5,0.14018691588785046,51,92,Brass
16.5,0.14018691588785046,36,92,Brass
17.0,0.2803738317757009,40,105,Brass
17.0,0.2803738317757009,85,86,Brass
17.0,0.2803738317757009,79,86,Brass
17.0,0.14018691588785046,57,95,Brass
17.0,0.14018691588785046,61,95,Brass
17.0,0.14018691588785046,64,95,Brass
17.0,0.14018691588785046,67,95,Brass
17.0,0.14018691588785046,42,96,Brass
17.0,0.14018691588785046,40,96,Brass
17.25,0.0,67,85,Brass
17.25,0.0,64,85,Brass
17.25,0.0,61,85,Brass
17.25,0.0,57,85,Brass
17.5,0.2803738317757009,45,110,Brass
17.5,0.2803738317757009,43,127,Brass
17.5,0.14018691588785046,51,92,Brass
17.5,0.14018691588785046,36,92,Brass
18.0,0.42056074766355134,33,120,Brass
18.0,0.14018691588785046,45,127,Brass
18.0,2.102803738317757,85,72,Brass
18.0,1.261682242990654,79,53,Brass
18.0,0.42056074766355134,57,105,Brass
18.0,0.42056074766355134,61,105,Brass
18.0,0.42056074766355134,64,105,Brass
18.0,0.42056074766355134,67,105,Brass
18.0,0.14018691588785046,42,98,Brass
18.0,0.14018691588785046,36,98,Brass
18.5,0.14018691588785046,51,90,Brass
18.75,0.14018691588785046,33,110,Brass
18.75,0.14018691588785046,67,85,Brass
18.75,0.14018691588785046,64,85,Brass
18.75,0.14018691588785046,61,85,Brass
18.75,0.14018691588785046,57,85,Brass
19.0,0.42056074766355134,67,119,Brass
19.0,0.42056074766355134,73,119,Brass
19.0,0.42056074766355134,76,119,Brass
19.0,0.14018691588785046,33,110,Brass
19.0,0.0,57,95,Brass
19.0,0.0,61,95,Brass
19.0,0.0,64,95,Brass
19.0,0.0,67,95,Brass
19.0,0.14018691588785046,42,96,Brass
19.0,0.14018691588785046,40,96,Brass
19.5,0.14018691588785046,38,95,Brass
19.5,0.14018691588785046,57,95,Brass
19.5,0.14018691588785046,61,95,Brass
19.5,0.14018691588785046,64,95,Brass
19.5,0.14018691588785046,67,95,Brass
19.5,0.14018691588785046,36,92,Brass
19.5,0.14018691588785046,51,92,Brass
19.75,0.14018691588785046,72,104,Brass
19.75,0.14018691588785046,66,104,Brass
19.75,0.14018691588785046,75,104,Brass
19.75,0.14018691588785046,40,90,Brass
19.75,0.14018691588785046,67,85,Brass
19.75,0.14018691588785046,64,85,Brass
19.75,0.14018691588785046,61,85,Brass
19.75,0.14018691588785046,57,85,Brass
20.0,0.14018691588785046,76,110,Brass
20.0,0.14018691588785046,73,110,Brass
20.0,0.14018691588785046,67,110,Brass
20.0,0.14018691588785046,43,110,Brass
20.0,0.14018691588785046,42,98,Brass
20.0,0.14018691588785046,36,98,Brass
20.25,0.14018691588785046,72,107,Brass
20.25,0.14018691588785046,66,107,Brass
20.25,0.14018691588785046,75,107,Brass
20.25,0.14018691588785046,67,90,Brass
20.25,0.14018691588785046,64,90,Brass
20.25,0.14018691588785046,61,90,Brass
20.25,0.14018691588785046,57,90,Brass
20.5,0.14018691588785046,73,110,Brass
20.5,0.14018691588785046,76,110,Brass
20.5,0.14018691588785046,67,110,Brass
20.5,0.2803738317757009,43,110,Brass
20.5,0.18691588785046725,79,69,Brass
20.5,0.18691588785046725,73,69,Brass
20.5,0.0,57,80,Brass
20.5,0.0,61,80,Brass
20.5,0.0,64,80,Brass
20.5,0.0,67,80,Brass
20.5,0.14018691588785046,51,90,Brass
21.0,0.2803738317757009,40,105,Brass
21.0,0.14018691588785046,73,82,Brass
21.0,0.14018691588785046,79,57,Brass
21.0,0.14018691588785046,57,95,Brass
21.0,0.14018691588785046,61,95,Brass
21.0,0.14018691588785046,64,95,Brass
21.0,0.14018691588785046,67,95,Brass
21.0,0.14018691588785046,42,96,Brass
21.0,0.14018691588785046,40,96,Brass
21.25,0.0,67,85,Brass
21.25,0.0,64,85,Brass
21.25,0.0,61,85,Brass
21.25,0.0,57,85,Brass
21.5,0.2803738317757009,45,110,Brass
21.5,0.2803738317757009,43,127,Brass
21.5,0.14018691588785046,79,78,Brass
21.5,0.14018691588785046,73,78,Brass
21.5,0.14018691588785046,51,91,Brass
21.5,0.14018691588785046,40,91,Brass
21.75,0.14018691588785046,40,107,Brass
22.0,0.42056074766355134,33,120,Brass
22.0,0.14018691588785046,45,127,Brass
22.0,1.308411214953271,79,56,Brass
22.0,1.308411214953271,88,56,Brass
22.0,1.308411214953271,85,56,Brass
22.0,1.261682242990654,81,62,Brass
22.0,0.42056074766355134,57,105,Brass
22.0,0.42056074766355134,61,105,Brass
22.0,0.42056074766355134,64,105,Brass
22.0,0.42056074766355134,67,105,Brass
22.0,1.6822429906542054,81,120,Brass
22.0,0.14018691588785046,49,100,Brass
22.0,0.14018691588785046,36,100,Brass
22.5,0.14018691588785046,51,90,Brass
22.75,0.14018691588785046,33,110,Brass
22.75,0.14018691588785046,67,85,Brass
22.75,0.14018691588785046,64,85,Brass
22.75,0.14018691588785046,61,85,Brass
22.75,0.14018691588785046,57,85,Brass
23.0,0.42056074766355134,73,121,Brass
23.0,0.42056074766355134,67,121,Brass
23.0,0.42056074766355134,76,121,Brass
23.0,0.14018691588785046,33,110,Brass
23.0,0.0,57,95,Brass
23.0,0.0,61,95,Brass
23.0,0.0,64,95,Brass
23.0,0.0,67,95,Brass
23.0,0.14018691588785046,42,96,Brass
23.0,0.14018691588785046,40,96,Brass
23.5,0.14018691588785046,38,95,Brass
23.5,0.14018691588785046,57,95,Brass
23.5,0.14018691588785046,61,95,Brass
23.5,0.14018691588785046,64,95,Brass
23.5,0.14018691588785046,67,95,Brass
23.5,0.14018691588785046,36,92,Brass
23.5,0.14018691588785046,51,92,Brass
23.75,0.14018691588785046,72,104,Brass
23.75,0.14018691588785046,66,104,Brass
23.75,0.14018691588785046,75,104,Brass
23.75,0.14018691588785046,40,90,Brass
23.75,0.14018691588785046,67,85,Brass
23.75,0.14018691588785046,64,85,Brass
23.75,0.14018691588785046,61,85,Brass
23.75,0.14018691588785046,57,85,Brass
24.0,0.14018691588785046,67,113,Brass
24.0,0.14018691588785046,73,113,Brass
24.0,0.14018691588785046,76,113,Brass
24.0,0.14018691588785046,43,110,Brass
24.0,0.14018691588785046,42,98,Brass
24.0,0.14018691588785046,36,98,Brass
24.25,0.14018691588785046,67,90,Brass
24.25,0.14018691588785046,64,90,Brass
24.25,0.14018691588785046,61,90,Brass
24.25,0.14018691588785046,57,90,Brass
24.5,0.2803738317757009,43,110,Brass
24.5,0.2803738317757009,69,49,Brass
24.5,0.0,57,80,Brass
24.5,0.0,61,80,Brass
24.5,0.0,64,80,Brass
24.5,0.0,67,80,Brass
24.5,0.14018691588785046,51,90,Brass
25.0,0.2803738317757009,40,105,Brass
25.0,0.18691588785046725,79,85,Brass
25.0,0.18691588785046725,81,85,Brass
25.0,0.18691588785046725,85,85,Brass
25.0,0.18691588785046725,88,85,Brass
25.0,0.14018691588785046,57,95,Brass
25.0,0.14018691588785046,61,95,Brass
25.0,0.14018691588785046,64,95,Brass
25.0,0.14018691588785046,67,95,Brass
25.0,0.14018691588785046,42,96,Brass
25.0,0.14018691588785046,40,96,Brass
25.25,0.0,67,85,Brass
25.25,0.0,64,85,Brass
25.25,0.0,61,85,Brass
25.25,0.0,57,85,Brass
25.5,0.2803738317757009,45,110,Brass
25.5,0.2803738317757009,43,127,Brass
25.5,0.14018691588785046,81,70,Brass
25.5,0.14018691588785046,79,70,Brass
25.5,0.14018691588785046,88,70,Brass
25.5,0.14018691588785046,85,70,Brass
25.5,0.14018691588785046,51,90,Brass
26.0,0.42056074766355134,33,120,Brass
26.0,0.14018691588785046,45,127,Brass
26.0,1.308411214953271,88,56,Brass
26.0,1.308411214953271,85,56,Brass
26.0,1.308411214953271,79,56,Brass
26.0,1.261682242990654,81,62,Brass
26.0,0.42056074766355134,57,105,Brass
26.0,0.42056074766355134,61,105,Brass
26.0,0.42056074766355134,64,105,Brass
26.0,0.42056074766355134,67,105,Brass
26.0,0.14018691588785046,36,98,Brass
26.0,0.14018691588785046,42,98,Brass
26.5,0.14018691588785046,51,90,Brass
26.75,0.14018691588785046,33,110,Brass
26.75,0.14018691588785046,67,85,Brass
26.75,0.14018691588785046,64,85,Brass
26.75,0.14018691588785046,61,85,Brass
26.75,0.14018691588785046,57,85,Brass
27.0,0.42056074766355134,67,119,Brass
27.0,0.42056074766355134,73,119,Brass
27.0,0.42056074766355134,76,119,Brass
27.0,0.14018691588785046,33,110,Brass
27.0,0.0,57,95,Brass
27.0,0.0,61,95,Brass
27.0,0.0,64,95,Brass
27.0,0.0,67,95,Brass
27.0,0.2803738317757009,66,120,Brass
27.0,0.14018691588785046,42,96,Brass
27.0,0.14018691588785046,40,96,Brass
27.5,0.14018691588785046,38,95,Brass
27.5,0.14018691588785046,57,95,Brass
27.5,0.14018691588785046,61,95,Brass
27.5,0.14018691588785046,64,95,Brass
27.5,0.14018691588785046,67,95,Brass
27.5,0.14018691588785046,69,110,Brass
27.5,0.14018691588785046,36,92,Brass
27.5,0.14018691588785046,51,92,Brass
27.75,0.14018691588785046,72,104,Brass
27.75,0.14018691588785046,66,104,Brass
27.75,0.14018691588785046,75,104,Brass
27.75,0.14018691588785046,40,90,Brass
27.75,0.14018691588785046,67,85,Brass
27.75,0.14018691588785046,64,85,Brass
27.75,0.14018691588785046,61,85,Brass
27.75,0.14018691588785046,57,85,Brass
28.0,0.14018691588785046,76,110,Brass
28.0,0.14018691588785046,73,110,Brass
28.0,0.14018691588785046,67,110,Brass
28.0,0.14018691588785046,43,110,Brass
28.0,0.8411214953271027,71,120,Brass
28.0,0.14018691588785046,42,98,Brass
28.0,0.14018691588785046,36,98,Brass
28.25,0.14018691588785046,72,107,Brass
28.25,0.14018691588785046,66,107,Brass
28.25,0.14018691588785046,75,107,Brass
28.25,0.14018691588785046,67,90,Brass
28.25,0.14018691588785046,64,90,Brass
28.25,0.14018691588785046,61,90,Brass
28.25,0.14018691588785046,57,90,Brass
28.5,0.14018691588785046,73,110,Brass
28.5,0.14018691588785046,76,110,Brass
28.5,0.14018691588785046,67,110,Brass
28.5,0.2803738317757009,43,110,Brass
28.5,0.2803738317757009,69,49,Brass
28.5,0.0,57,80,Brass
28.5,0.0,61,80,Brass
28.5,0.0,64,80,Brass
28.5,0.0,67,80,Brass
28.5,0.14018691588785046,51,92,Brass
28.5,0.14018691588785046,36,92,Brass
29.0,0.2803738317757009,40,105,Brass
29.0,0.18691588785046725,81,85,Brass
29.0,0.18691588785046725,85,85,Brass
29.0,0.18691588785046725,88,85,Brass
29.0,0.18691588785046725,79,85,Brass
29.0,0.14018691588785046,57,95,Brass
29.0,0.14018691588785046,61,95,Brass
29.0,0.14018691588785046,64,95,Brass
29.0,0.14018691588785046,67,95,Brass
29.0,0.14018691588785046,42,96,Brass
29.0,0.14018691588785046,40,96,Brass
29.25,0.0,67,85,Brass
29.25,0.0,64,85,Brass
29.25,0.0,61,85,Brass
29.25,0.0,57,85,Brass
29.5,0.2803738317757009,45,110,Brass
29.5,0.2803738317757009,43,127,Brass
29.5,0.14018691588785046,79,70,Brass
29.5,0.14018691588785046,88,70,Brass
29.5,0.14018691588785046,85,70,Brass
29.5,0.14018691588785046,81,70,Brass
29.5,0.2803738317757009,71,115,Brass
29.5,0.14018691588785046,51,90,Brass
30.0,0.42056074766355134,33,120,Brass
30.0,0.14018691588785046,45,127,Brass
30.0,1.4018691588785046,91,64,Brass
30.0,1.4018691588785046,88,64,Brass
30.0,1.4018691588785046,85,64,Brass
30.0,1.4018691588785046,81,64,Brass
30.0,0.42056074766355134,57,105,Brass
30.0,0.42056074766355134,61,105,Brass
30.0,0.42056074766355134,64,105,Brass
30.0,0.42056074766355134,67,105,Brass
30.0,0.3738317757009345,71,120,Brass
30.0,0.14018691588785046,36,98,Brass
30.0,0.14018691588785046,42,98,Brass
30.5,0.14018691588785046,51,90,Brass
30.666666666666668,0.3738317757009345,71,115,Brass
30.75,0.14018691588785046,33,110,Brass
30.75,0.14018691588785046,67,85,Brass
30.75,0.14018691588785046,64,85,Brass
30.75,0.14018691588785046,61,85,Brass
30.75,0.14018691588785046,57,85,Brass
31.0,0.42056074766355134,73,121,Brass
31.0,0.42056074766355134,67,121,Brass
31.0,0.42056074766355134,76,121,Brass
31.0,0.14018691588785046,33,110,Brass
31.0,0.0,57,95,Brass
31.0,0.0,61,95,Brass
31.0,0.0,64,95,Brass
31.0,0.0,67,95,Brass
31.0,0.14018691588785046,42,96,Brass
31.0,0.14018691588785046,40,96,Brass
31.333333333333332,0.3738317757009345,71,110,Brass
31.5,0.14018691588785046,38,95,Brass
31.5,0.14018691588785046,57,95,Brass
31.5,0.14018691588785046,61,95,Brass
31.5,0.14018691588785046,64,95,Brass
31.5,0.14018691588785046,67,95,Brass
31.5,0.14018691588785046,36,92,Brass
31.5,0.14018691588785046,51,92,Brass
31.75,0.14018691588785046,72,104,Brass
31.75,0.14018691588785046,66,104,Brass
31.75,0.14018691588785046,75,104,Brass
31.75,0.14018691588785046,40,90,Brass
31.75,0.14018691588785046,67,85,Brass
31.75,0.14018691588785046,64,85,Brass
31.75,0.14018691588785046,61,85,Brass
31.75,0.14018691588785046,57,85,Brass
32.0,0.14018691588785046,67,113,Brass
32.0,0.14018691588785046,73,113,Brass
32.0,0.14018691588785046,76,113,Brass
32.0,0.14018691588785046,43,110,Brass
32.0,0.2803738317757009,71,120,Brass
32.0,0.14018691588785046,42,98,Brass
32.0,0.14018691588785046,36,98,Brass
32.25,0.14018691588785046,67,90,Brass
32.25,0.14018691588785046,64,90,Brass
32.25,0.14018691588785046,61,90,Brass
32.25,0.14018691588785046,57,90,Brass
32.5,0.2803738317757009,43,110,Brass
32.5,0.2803738317757009,79,78,Brass
32.5,0.0,57,80,Brass
32.5,0.0,61,80,Brass
32.5,0.0,64,80,Brass
32.5,0.0,67,80,Brass
32.5,0.2803738317757009,69,115,Brass
32.5,0.14018691588785046,51,92,Brass
32.5,0.14018691588785046,36,92,Brass
33.0,0.2803738317757009,40,105,Brass
33.0,0.2803738317757009,85,84,Brass
33.0,0.2803738317757009,88,84,Brass
33.0,0.2803738317757009,91,84,Brass
33.0,0.2803738317757009,81,84,Brass
33.0,0.14018691588785046,57,95,Brass
33.0,0.14018691588785046,61,95,Brass
33.0,0.14018691588785046,64,95,Brass
33.0,0.14018691588785046,67,95,Brass
33.0,0.2803738317757009,69,120,Brass
33.0,0.14018691588785046,42,96,Brass
33.0,0.14018691588785046,40,96,Brass
33.25,0.0,67,85,Brass
33.25,0.0,64,85,Brass
33.25,0.0,61,85,Brass
33.25,0.0,57,85,Brass
33.5,0.2803738317757009,45,110,Brass
33.5,0.2803738317757009,43,127,Brass
33.5,0.2803738317757009,66,115,Brass
33.5,0.14018691588785046,51,92,Brass
33.5,0.14018691588785046,36,92,Brass
34.0,0.42056074766355134,33,120,Brass
34.0,0.14018691588785046,45,127,Brass
34.0,1.261682242990654,79,53,Brass
34.0,2.102803738317757,85,72,Brass
34.0,0.42056074766355134,57,105,Brass
34.0,0.42056074766355134,61,105,Brass
34.0,0.42056074766355134,64,105,Brass
34.0,0.42056074766355134,67,105,Brass
34.0,1.6822429906542054,69,120,Brass
34.0,0.14018691588785046,42,98,Brass
34.0,0.14018691588785046,36,98,Brass
34.5,0.14018691588785046,51,90,Brass
34.75,0.14018691588785046,33,110,Brass
34.75,0.14018691588785046,67,85,Brass
34.75,0.14018691588785046,64,85,Brass
34.75,0.14018691588785046,61,85,Brass
34.75,0.14018691588785046,57,85,Brass
35.0,0.42056074766355134,67,119,Brass
35.0,0.42056074766355134,73,119,Brass
35.0,0.42056074766355134,76,119,Brass
35.0,0.14018691588785046,33,110,Brass
35.0,0.0,57,95,Brass
35.0,0.0,61,95,Brass
35.0,0.0,64,95,Brass
35.0,0.0,67,95,Brass
35.0,0.14018691588785046,42,96,Brass
35.0,0.14018691588785046,40,96,Brass
35.5,0.14018691588785046,38,95,Brass
35.5,0.14018691588785046,57,95,Brass
35.5,0.14018691588785046,61,95,Brass
35.5,0.14018691588785046,64,95,Brass
35.5,0.14018691588785046,67,95,Brass
35.5,0.14018691588785046,36,92,Brass
35.5,0.14018691588785046,51,92,Brass
35.75,0.14018691588785046,72,104,Brass
35.75,0.14018691588785046,66,104,Brass
35.75,0.14018691588785046,75,104,Brass
35.75,0.14018691588785046,40,90,Brass
35.75,0.14018691588785046,67,85,Brass
35.75,0.14018691588785046,64,85,Brass
35.75,0.14018691588785046,61,85,Brass
35.75,0.14018691588785046,57,85,Brass
36.0,0.14018691588785046,76,110,Brass
36.0,0.14018691588785046,73,110,Brass
36.0,0.14018691588785046,67,110,Brass
36.0,0.14018691588785046,43,110,Brass
36.0,0.14018691588785046,42,98,Brass
36.0,0.14018691588785046,36,98,Brass
36.25,0.14018691588785046,72,107,Brass
36.25,0.14018691588785046,66,107,Brass
36.25,0.14018691588785046,75,107,Brass
36.25,0.14018691588785046,67,90,Brass
36.25,0.14018691588785046,64,90,Brass
36.25,0.14018691588785046,61,90,Brass
36.25,0.14018691588785046,57,90,Brass
36.5,0.14018691588785046,73,110,Brass
36.5,0.14018691588785046,76,110,Brass
36.5,0.14018691588785046,67,110,Brass
36.5,0.2803738317757009,43,110,Brass
36.5,0.18691588785046725,79,69,Brass
36.5,0.18691588785046725,73,69,Brass
36.5,0.0,57,80,Brass
36.5,0.0,61,80,Brass
36.5,0.0,64,80,Brass
36.5,0.0,67,80,Brass
36.5,0.14018691588785046,40,92,Brass
37.0,0.2803738317757009,40,105,Brass
37.0,0.14018691588785046,79,57,Brass
37.0,0.14018691588785046,73,82,Brass
37.0,0.14018691588785046,57,95,Brass
37.0,0.14018691588785046,61,95,Brass
37.0,0.14018691588785046,64,95,Brass
37.0,0.14018691588785046,67,95,Brass
37.0,0.14018691588785046,42,89,Brass
37.0,0.14018691588785046,40,89,Brass
37.25,0.0,67,85,Brass
37.25,0.0,64,85,Brass
37.25,0.0,61,85,Brass
37.25,0.0,57,85,Brass
37.25,0.14018691588785046,40,107,Brass
37.5,0.2803738317757009,45,110,Brass
37.5,0.14018691588785046,79,78,Brass
37.5,0.14018691588785046,73,78,Brass
38.0,0.42056074766355134,33,120,Brass
38.0,1.308411214953271,85,82,Brass
38.0,1.4018691588785046,79,60,Brass
38.0,0.42056074766355134,57,105,Brass
38.0,0.42056074766355134,61,105,Brass
38.0,0.42056074766355134,64,105,Brass
38.0,0.42056074766355134,67,105,Brass
38.0,0.14018691588785046,49,95,Brass
38.0,0.14018691588785046,36,95,Brass
38.0,0.14018691588785046,42,95,Brass
38.5,0.14018691588785046,42,66,Brass
38.75,0.14018691588785046,33,110,Brass
38.75,0.14018691588785046,67,85,Brass
38.75,0.14018691588785046,64,85,Brass
38.75,0.14018691588785046,61,85,Brass
38.75,0.14018691588785046,57,85,Brass
39.0,0.14018691588785046,33,110,Brass
39.0,0.14018691588785046,67,100,Brass
39.0,0.0,57,95,Brass
39.0,0.0,61,95,Brass
39.0,0.0,64,95,Brass
39.0,0.0,67,95,Brass
39.0,0.14018691588785046,42,96,Brass
39.0,0.14018691588785046,40,96,Brass
39.25,0.14018691588785046,67,100,Brass
39.5,0.14018691588785046,38,95,Brass
39.5,0.2803738317757009,67,100,Brass
39.5,0.14018691588785046,57,95,Brass
39.5,0.14018691588785046,61,95,Brass
39.5,0.14018691588785046,64,95,Brass
39.5,0.14018691588785046,67,95,Brass
39.5,0.14018691588785046,36,80,Brass
39.5,0.14018691588785046,42,80,Brass
39.75,0.14018691588785046,40,90,Brass
39.75,0.14018691588785046,67,85,Brass
39.75,0.14018691588785046,64,85,Brass
39.75,0.14018691588785046,61,85,Brass
39.75,0.14018691588785046,57,85,Brass
40.0,0.14018691588785046,43,110,Brass
40.0,0.14018691588785046,69,100,Brass
40.0,0.14018691588785046,36,98,Brass
40.0,0.14018691588785046,42,98,Brass
40.25,0.14018691588785046,67,90,Brass
40.25,0.14018691588785046,64,90,Brass
40.25,0.14018691588785046,61,90,Brass
40.25,0.14018691588785046,57,90,Brass
40.5,0.2803738317757009,43,110,Brass
40.5,0.5607476635514018,69,100,Brass
40.5,0.18691588785046725,69,51,Brass
40.5,0.0,57,80,Brass
40.5,0.0,61,80,Brass
40.5,0.0,64,80,Brass
40.5,0.0,67,80,Brass
40.5,0.14018691588785046,36,80,Brass
40.5,0.14018691588785046,42,80,Brass
41.0,0.2803738317757009,40,105,Brass
41.0,0.2803738317757009,85,86,Brass
41.0,0.2803738317757009,79,86,Brass
41.0,0.14018691588785046,57,95,Brass
41.0,0.14018691588785046,61,95,Brass
41.0,0.14018691588785046,64,95,Brass
41.0,0.14018691588785046,67,95,Brass
41.0,0.14018691588785046,42,96,Brass
41.0,0.14018691588785046,40,96,Brass
41.25,0.0,67,85,Brass
41.25,0.0,64,85,Brass
41.25,0.0,61,85,Brass
41.25,0.0,57,85,Brass
41.5,0.2803738317757009,45,110,Brass
41.5,0.2803738317757009,64,100,Brass
41.5,0.14018691588785046,36,80,Brass
41.5,0.14018691588785046,42,80,Brass
42.0,0.42056074766355134,33,120,Brass
42.0,0.14018691588785046,67,100,Brass
42.0,1.1214953271028036,81,65,Brass
42.0,1.1214953271028036,88,65,Brass
42.0,1.1214953271028036,85,65,Brass
42.0,1.1214953271028036,79,65,Brass
42.0,0.42056074766355134,57,105,Brass
42.0,0.42056074766355134,61,105,Brass
42.0,0.42056074766355134,64,105,Brass
42.0,0.42056074766355134,67,105,Brass
42.0,0.14018691588785046,36,98,Brass
42.0,0.14018691588785046,42,98,Brass
42.5,0.5607476635514018,67,100,Brass
42.5,0.14018691588785046,42,66,Brass
42.75,0.14018691588785046,33,110,Brass
42.75,0.14018691588785046,67,85,Brass
42.75,0.14018691588785046,64,85,Brass
42.75,0.14018691588785046,61,85,Brass
42.75,0.14018691588785046,57,85,Brass
43.0,0.14018691588785046,33,110,Brass
43.0,0.0,57,95,Brass
43.0,0.0,61,95,Brass
43.0,0.0,64,95,Brass
43.0,0.0,67,95,Brass
43.0,0.14018691588785046,42,96,Brass
43.0,0.14018691588785046,40,96,Brass
43.5,0.14018691588785046,38,95,Brass
43.5,0.5607476635514018,69,100,Brass
43.5,0.14018691588785046,57,95,Brass
43.5,0.14018691588785046,61,95,Brass
43.5,0.14018691588785046,64,95,Brass
43.5,0.14018691588785046,67,95,Brass
43.5,0.14018691588785046,36,80,Brass
43.5,0.14018691588785046,42,80,Brass
43.75,0.14018691588785046,40,90,Brass
43.75,0.14018691588785046,67,85,Brass
43.75,0.14018691588785046,64,85,Brass
43.75,0.14018691588785046,61,85,Brass
43.75,0.14018691588785046,57,85,Brass
44.0,0.14018691588785046,43,110,Brass
44.0,0.14018691588785046,36,98,Brass
44.0,0.14018691588785046,42,98,Brass
44.25,0.0,85,69,Brass
44.25,0.0,81,69,Brass
44.25,0.0,79,69,Brass
44.25,0.0,88,69,Brass
44.25,0.14018691588785046,67,90,Brass
44.25,0.14018691588785046,64,90,Brass
44.25,0.14018691588785046,61,90,Brass
44.25,0.14018691588785046,57,90,Brass
44.5,0.2803738317757009,43,110,Brass
44.5,0.0,57,80,Brass
44.5,0.0,61,80,Brass
44.5,0.0,64,80,Brass
44.5,0.0,67,80,Brass
44.5,0.14018691588785046,36,80,Brass
44.5,0.14018691588785046,42,80,Brass
44.75,0.14018691588785046,69,59,Brass
45.0,0.2803738317757009,40,105,Brass
45.0,0.2803738317757009,81,82,Brass
45.0,0.2803738317757009,85,82,Brass
45.0,0.2803738317757009,79,82,Brass
45.0,0.2803738317757009,88,82,Brass
45.0,0.14018691588785046,57,95,Brass
45.0,0.14018691588785046,61,95,Brass
45.0,0.14018691588785046,64,95,Brass
45.0,0.14018691588785046,67,95,Brass
45.0,0.14018691588785046,42,96,Brass
45.0,0.14018691588785046,40,96,Brass
45.25,0.0,67,85,Brass
45.25,0.0,64,85,Brass
45.25,0.0,61,85,Brass
45.25,0.0,57,85,Brass
45.5,0.2803738317757009,45,110,Brass
45.5,0.2803738317757009,69,100,Brass
45.5,0.14018691588785046,42,66,Brass
46.0,0.42056074766355134,28,120,Brass
46.0,0.14018691588785046,71,100,Brass
46.0,1.308411214953271,74,56,Brass
46.0,1.308411214953271,83,56,Brass
46.0,1.308411214953271,80,56,Brass
46.0,1.261682242990654,76,62,Brass
46.0,0.42056074766355134,59,105,Brass
46.0,0.42056074766355134,62,105,Brass
46.0,0.42056074766355134,64,105,Brass
46.0,0.42056074766355134,68,105,Brass
46.0,0.14018691588785046,36,98,Brass
46.0,0.14018691588785046,42,98,Brass
46.5,0.14018691588785046,69,100,Brass
46.5,0.14018691588785046,42,66,Brass
46.75,0.14018691588785046,28,110,Brass
46.75,0.14018691588785046,71,100,Brass
46.75,0.14018691588785046,68,85,Brass
46.75,0.14018691588785046,64,85,Brass
46.75,0.14018691588785046,62,85,Brass
46.75,0.14018691588785046,59,85,Brass
47.0,0.14018691588785046,28,110,Brass
47.0,0.0,59,95,Brass
47.0,0.0,62,95,Brass
47.0,0.0,64,95,Brass
47.0,0.0,68,95,Brass
47.0,0.14018691588785046,42,96,Brass
47.0,0.14018691588785046,40,96,Brass
47.25,0.14018691588785046,71,100,Brass
47.5,0.14018691588785046,33,95,Brass
47.5,0.14018691588785046,59,95,Brass
47.5,0.14018691588785046,62,95,Brass
47.5,0.14018691588785046,64,95,Brass
47.5,0.14018691588785046,68,95,Brass
47.5,0.14018691588785046,36,80,Brass
47.5,0.14018691588785046,42,80,Brass
47.75,0.14018691588785046,35,90,Brass
47.75,0.2803738317757009,71,100,Brass
47.75,0.14018691588785046,68,85,Brass
47.75,0.14018691588785046,64,85,Brass
47.75,0.14018691588785046,62,85,Brass
47.75,0.14018691588785046,59,85,Brass
48.0,0.14018691588785046,38,110,Brass
48.0,0.14018691588785046,36,98,Brass
48.0,0.14018691588785046,42,98,Brass
48.25,0.14018691588785046,64,100,Brass
48.25,0.14018691588785046,68,90,Brass
48.25,0.14018691588785046,64,90,Brass
48.25,0.14018691588785046,62,90,Brass
48.25,0.14018691588785046,59,90,Brass
48.5,0.2803738317757009,38,110,Brass
48.5,0.2803738317757009,64,49,Brass
48.5,0.0,59,80,Brass
48.5,0.0,62,80,Brass
48.5,0.0,64,80,Brass
48.5,0.0,68,80,Brass
48.5,0.14018691588785046,36,80,Brass
48.5,0.14018691588785046,42,80,Brass
49.0,0.2803738317757009,35,105,Brass
49.0,0.18691588785046725,74,85,Brass
49.0,0.18691588785046725,80,85,Brass
49.0,0.18691588785046725,83,85,Brass
49.0,0.18691588785046725,76,85,Brass
49.0,0.14018691588785046,59,95,Brass
49.0,0.14018691588785046,62,95,Brass
49.0,0.14018691588785046,64,95,Brass
49.0,0.14018691588785046,68,95,Brass
49.0,0.14018691588785046,42,96,Brass
49.0,0.14018691588785046,40,96,Brass
49.25,0.0,68,85,Brass
49.25,0.0,64,85,Brass
49.25,0.0,62,85,Brass
49.25,0.0,59,85,Brass
49.5,0.2803738317757009,40,110,Brass
49.5,0.14018691588785046,69,100,Brass
49.5,0.14018691588785046,83,70,Brass
49.5,0.14018691588785046,74,70,Brass
49.5,0.14018691588785046,76,70,Brass
49.5,0.14018691588785046,80,70,Brass
49.5,0.14018691588785046,36,80,Brass
49.5,0.14018691588785046,42,80,Brass
50.0,0.42056074766355134,28,120,Brass
50.0,0.14018691588785046,71,100,Brass
50.0,1.1214953271028036,76,65,Brass
50.0,1.1214953271028036,80,65,Brass
50.0,1.1214953271028036,74,65,Brass
50.0,1.1214953271028036,83,65,Brass
50.0,0.42056074766355134,59,105,Brass
50.0,0.42056074766355134,62,105,Brass
50.0,0.42056074766355134,64,105,Brass
50.0,0.42056074766355134,68,105,Brass
50.0,0.14018691588785046,36,98,Brass
50.0,0.14018691588785046,42,98,Brass
50.5,0.5607476635514018,71,100,Brass
50.5,0.14018691588785046,42,66,Brass
50.75,0.14018691588785046,28,110,Brass
50.75,0.14018691588785046,68,85,Brass
50.75,0.14018691588785046,64,85,Brass
50.75,0.14018691588785046,62,85,Brass
50.75,0.14018691588785046,59,85,Brass
51.0,0.14018691588785046,28,110,Brass
51.0,0.0,59,95,Brass
51.0,0.0,62,95,Brass
51.0,0.0,64,95,Brass
51.0,0.0,68,95,Brass
51.0,0.14018691588785046,42,96,Brass
51.0,0.14018691588785046,40,96,Brass
51.5,0.14018691588785046,33,95,Brass
51.5,0.5607476635514018,64,100,Brass
51.5,0.14018691588785046,59,95,Brass
51.5,0.14018691588785046,62,95,Brass
51.5,0.14018691588785046,64,95,Brass
51.5,0.14018691588785046,68,95,Brass
51.5,0.14018691588785046,36,88,Brass
51.5,0.14018691588785046,42,88,Brass
51.75,0.14018691588785046,35,90,Brass
51.75,0.14018691588785046,68,85,Brass
51.75,0.14018691588785046,64,85,Brass
51.75,0.14018691588785046,62,85,Brass
51.75,0.14018691588785046,59,85,Brass
52.0,0.14018691588785046,38,110,Brass
52.0,0.14018691588785046,42,86,Brass
52.25,0.14018691588785046,83,69,Brass
52.25,0.14018691588785046,76,69,Brass
52.25,0.14018691588785046,74,69,Brass
52.25,0.14018691588785046,80,69,Brass
52.25,0.14018691588785046,68,90,Brass
52.25,0.14018691588785046,64,90,Brass
52.25,0.14018691588785046,62,90,Brass
52.25,0.14018691588785046,59,90,Brass
52.5,0.2803738317757009,38,110,Brass
52.5,0.0,59,80,Brass
52.5,0.0,62,80,Brass
52.5,0.0,64,80,Brass
52.5,0.0,68,80,Brass
52.5,0.14018691588785046,36,88,Brass
52.5,0.14018691588785046,42,88,Brass
52.75,0.14018691588785046,64,59,Brass
53.0,0.2803738317757009,35,105,Brass
53.0,0.2803738317757009,85,82,Brass
53.0,0.2803738317757009,88,82,Brass
53.0,0.2803738317757009,81,82,Brass
53.0,0.2803738317757009,79,82,Brass
53.0,0.14018691588785046,59,95,Brass
53.0,0.14018691588785046,62,95,Brass
53.0,0.14018691588785046,64,95,Brass
53.0,0.14018691588785046,68,95,Brass
53.0,0.14018691588785046,42,96,Brass
53.0,0.14018691588785046,40,96,Brass
53.25,0.14018691588785046,36,110,Brass
53.5,0.2803738317757009,40,110,Brass
53.5,0.14018691588785046,67,85,Brass
53.5,0.14018691588785046,63,85,Brass
53.5,0.14018691588785046,61,85,Brass
53.5,0.14018691588785046,58,85,Brass
53.5,0.14018691588785046,42,66,Brass
54.0,0.42056074766355134,38,120,Brass
54.0,1.308411214953271,90,82,Brass
54.0,1.4018691588785046,84,60,Brass
54.0,0.42056074766355134,57,105,Brass
54.0,0.42056074766355134,60,105,Brass
54.0,0.42056074766355134,62,105,Brass
54.0,0.42056074766355134,66,105,Brass
54.0,0.14018691588785046,36,98,Brass
54.0,0.14018691588785046,42,98,Brass
54.5,0.14018691588785046,72,100,Brass
54.5,0.14018691588785046,42,66,Brass
54.75,0.14018691588785046,38,110,Brass
54.75,0.14018691588785046,66,85,Brass
54.75,0.14018691588785046,62,85,Brass
54.75,0.14018691588785046,60,85,Brass
54.75,0.14018691588785046,57,85,Brass
55.0,0.14018691588785046,38,110,Brass
55.0,0.14018691588785046,72,100,Brass
55.0,0.0,57,95,Brass
55.0,0.0,60,95,Brass
55.0,0.0,62,95,Brass
55.0,0.0,66,95,Brass
55.0,0.14018691588785046,42,96,Brass
55.0,0.14018691588785046,40,96,Brass
55.5,0.14018691588785046,43,95,Brass
55.5,0.14018691588785046,69,100,Brass
55.5,0.14018691588785046,57,95,Brass
55.5,0.14018691588785046,60,95,Brass
55.5,0.14018691588785046,62,95,Brass
55.5,0.14018691588785046,66,95,Brass
55.5,0.14018691588785046,36,88,Brass
55.5,0.14018691588785046,42,88,Brass
55.75,0.14018691588785046,45,90,Brass
55.75,0.14018691588785046,66,85,Brass
55.75,0.14018691588785046,62,85,Brass
55.75,0.14018691588785046,60,85,Brass
55.75,0.14018691588785046,57,85,Brass
56.0,0.14018691588785046,48,110,Brass
56.0,0.8411214953271027,72,100,Brass
56.0,0.14018691588785046,42,86,Brass
56.25,0.14018691588785046,66,90,Brass
56.25,0.14018691588785046,62,90,Brass
56.25,0.14018691588785046,60,90,Brass
56.25,0.14018691588785046,57,90,Brass
56.5,0.2803738317757009,48,110,Brass
56.5,0.18691588785046725,74,51,Brass
56.5,0.0,57,80,Brass
56.5,0.0,60,80,Brass
56.5,0.0,62,80,Brass
56.5,0.0,66,80,Brass
56.5,0.14018691588785046,36,88,Brass
56.5,0.14018691588785046,42,88,Brass
57.0,0.2803738317757009,45,105,Brass
57.0,0.2803738317757009,90,86,Brass
57.0,0.2803738317757009,84,86,Brass
57.0,0.14018691588785046,57,95,Brass
57.0,0.14018691588785046,60,95,Brass
57.0,0.14018691588785046,62,95,Brass
57.0,0.14018691588785046,66,95,Brass
57.0,0.14018691588785046,42,96,Brass
57.0,0.14018691588785046,40,96,Brass
57.25,0.0,66,85,Brass
57.25,0.0,62,85,Brass
57.25,0.0,60,85,Brass
57.25,0.0,57,85,Brass
57.25,0.14018691588785046,36,110,Brass
57.5,0.2803738317757009,50,110,Brass
57.5,0.14018691588785046,69,100,Brass
57.5,0.14018691588785046,42,66,Brass
58.0,0.42056074766355134,38,120,Brass
58.0,0.2803738317757009,72,100,Brass
58.0,1.1214953271028036,86,65,Brass
58.0,1.1214953271028036,93,65,Brass
58.0,1.1214953271028036,90,65,Brass
58.0,1.1214953271028036,84,65,Brass
58.0,0.42056074766355134,57,105,Brass
58.0,0.42056074766355134,60,105,Brass
58.0,0.42056074766355134,62,105,Brass
58.0,0.42056074766355134,66,105,Brass
58.0,0.14018691588785046,36,98,Brass
58.0,0.14018691588785046,42,98,Brass
58.5,0.14018691588785046,69,100,Brass
58.5,0.14018691588785046,42,66,Brass
58.75,0.14018691588785046,38,110,Brass
58.75,0.2803738317757009,72,100,Brass
58.75,0.14018691588785046,66,85,Brass
58.75,0.14018691588785046,62,85,Brass
58.75,0.14018691588785046,60,85,Brass
58.75,0.14018691588785046,57,85,Brass
59.0,0.14018691588785046,38,110,Brass
59.0,0.0,57,95,Brass
59.0,0.0,60,95,Brass
59.0,0.0,62,95,Brass
59.0,0.0,66,95,Brass
59.0,0.14018691588785046,42,96,Brass
59.0,0.14018691588785046,40,96,Brass
59.25,0.14018691588785046,69,100,Brass
59.5,0.14018691588785046,43,95,Brass
59.5,0.14018691588785046,72,100,Brass
59.5,0.14018691588785046,57,95,Brass
59.5,0.14018691588785046,60,95,Brass
59.5,0.14018691588785046,62,95,Brass
59.5,0.14018691588785046,66,95,Brass
59.5,0.14018691588785046,36,80,Brass
59.5,0.14018691588785046,42,80,Brass
59.75,0.14018691588785046,45,90,Brass
59.75,0.14018691588785046,69,100,Brass
59.75,0.14018691588785046,66,85,Brass
59.75,0.14018691588785046,62,85,Brass
59.75,0.14018691588785046,60,85,Brass
59.75,0.14018691588785046,57,85,Brass
60.0,0.14018691588785046,48,110,Brass
60.0,0.5607476635514018,72,100,Brass
60.0,0.14018691588785046,36,98,Brass
60.0,0.14018691588785046,42,98,Brass
60.25,0.14018691588785046,93,69,Brass
60.25,0.14018691588785046,90,69,Brass
60.25,0.14018691588785046,86,69,Brass
60.25,0.14018691588785046,84,69,Brass
60.25,0.14018691588785046,66,90,Brass
60.25,0.14018691588785046,62,90,Brass
60.25,0.14018691588785046,60,90,Brass
60.25,0.14018691588785046,57,90,Brass
60.5,0.2803738317757009,48,110,Brass
60.5,0.0,57,80,Brass
60.5,0.0,60,80,Brass
60.5,0.0,62,80,Brass
60.5,0.0,66,80,Brass
60.5,0.14018691588785046,42,66,Brass
60.75,0.14018691588785046,74,59,Brass
61.0,0.2803738317757009,45,105,Brass
61.0,0.2803738317757009,86,82,Brass
61.0,0.2803738317757009,84,82,Brass
61.0,0.2803738317757009,90,82,Brass
61.0,0.2803738317757009,93,82,Brass
61.0,0.14018691588785046,57,95,Brass
61.0,0.14018691588785046,60,95,Brass
61.0,0.14018691588785046,62,95,Brass
61.0,0.14018691588785046,66,95,Brass
61.0,0.14018691588785046,42,96,Brass
61.0,0.14018691588785046,40,96,Brass
61.25,0.0,66,85,Brass
61.25,0.0,62,85,Brass
61.25,0.0,60,85,Brass
61.25,0.0,57,85,Brass
61.5,0.2803738317757009,50,110,Brass
61.5,0.2803738317757009,69,100,Brass
61.5,0.14018691588785046,42,66,Brass
62.0,0.42056074766355134,33,120,Brass
62.0,0.2803738317757009,76,100,Brass
62.0,1.1214953271028036,79,65,Brass
62.0,1.1214953271028036,85,65,Brass
62.0,1.1214953271028036,88,65,Brass
62.0,1.1214953271028036,81,65,Brass
62.0,0.42056074766355134,57,105,Brass
62.0,0.42056074766355134,61,105,Brass
62.0,0.42056074766355134,64,105,Brass
62.0,0.42056074766355134,67,105,Brass
62.0,0.14018691588785046,36,98,Brass
62.0,0.14018691588785046,42,98,Brass
62.5,0.2803738317757009,76,100,Brass
62.5,0.14018691588785046,42,66,Brass
62.75,0.14018691588785046,33,110,Brass
62.75,0.14018691588785046,67,85,Brass
62.75,0.14018691588785046,64,85,Brass
62.75,0.14018691588785046,61,85,Brass
62.75,0.14018691588785046,57,85,Brass
63.0,0.14018691588785046,33,110,Brass
63.0,0.2803738317757009,74,100,Brass
63.0,0.0,57,95,Brass
63.0,0.0,61,95,Brass
63.0,0.0,64,95,Brass
63.0,0.0,67,95,Brass
63.0,0.14018691588785046,42,96,Brass
63.0,0.14018691588785046,40,96,Brass
63.5,0.14018691588785046,38,95,Brass
63.5,0.2803738317757009,72,100,Brass
63.5,0.14018691588785046,57,95,Brass
63.5,0.14018691588785046,61,95,Brass
63.5,0.14018691588785046,64,95,Brass
63.5,0.14018691588785046,67,95,Brass
63.5,0.14018691588785046,36,80,Brass
63.5,0.14018691588785046,42,80,Brass
63.75,0.14018691588785046,40,90,Brass
63.75,0.14018691588785046,67,85,Brass
63.75,0.14018691588785046,64,85,Brass
63.75,0.14018691588785046,61,85,Brass
63.75,0.14018691588785046,57,85,Brass
64.0,0.14018691588785046,43,110,Brass
64.0,0.2803738317757009,74,100,Brass
64.0,0.14018691588785046,36,98,Brass
64.0,0.14018691588785046,42,98,Brass
64.25,0.0,79,69,Brass
64.25,0.0,85,69,Brass
64.25,0.0,88,69,Brass
64.25,0.0,81,69,Brass
64.25,0.14018691588785046,67,90,Brass
64.25,0.14018691588785046,64,90,Brass
64.25,0.14018691588785046,61,90,Brass
64.25,0.14018691588785046,57,90,Brass
64.5,0.2803738317757009,43,110,Brass
64.5,0.2803738317757009,72,100,Brass
64.5,0.0,57,80,Brass
64.5,0.0,61,80,Brass
64.5,0.0,64,80,Brass
64.5,0.0,67,80,Brass
64.5,0.14018691588785046,36,80,Brass
64.5,0.14018691588785046,42,80,Brass
64.75,0.14018691588785046,69,59,Brass
65.0,0.2803738317757009,40,105,Brass
65.0,0.2803738317757009,69,100,Brass
65.0,0.2803738317757009,85,82,Brass
65.0,0.2803738317757009,81,82,Brass
65.0,0.2803738317757009,88,82,Brass
65.0,0.2803738317757009,79,82,Brass
65.0,0.14018691588785046,57,95,Brass
65.0,0.14018691588785046,61,95,Brass
65.0,0.14018691588785046,64,95,Brass
65.0,0.14018691588785046,67,95,Brass
65.0,0.14018691588785046,42,96,Brass
65.0,0.14018691588785046,40,96,Brass
65.25,0.0,67,85,Brass
65.25,0.0,64,85,Brass
65.25,0.0,61,85,Brass
65.25,0.0,57,85,Brass
65.5,0.2803738317757009,45,110,Brass
65.5,0.8411214953271027,69,100,Brass
65.5,0.14018691588785046,36,80,Brass
65.5,0.14018691588785046,42,80,Brass
66.0,0.42056074766355134,33,120,Brass
66.0,1.308411214953271,88,56,Brass
66.0,1.308411214953271,79,56,Brass
66.0,1.308411214953271,85,56,Brass
66.0,1.261682242990654,81,62,Brass
66.0,0.42056074766355134,57,105,Brass
66.0,0.42056074766355134,61,105,Brass
66.0,0.42056074766355134,64,105,Brass
66.0,0.42056074766355134,67,105,Brass
66.0,0.14018691588785046,36,98,Brass
66.0,0.14018691588785046,42,98,Brass
66.5,0.14018691588785046,42,66,Brass
66.75,0.14018691588785046,33,110,Brass
66.75,0.14018691588785046,67,85,Brass
66.75,0.14018691588785046,64,85,Brass
66.75,0.14018691588785046,61,85,Brass
66.75,0.14018691588785046,57,85,Brass
67.0,0.14018691588785046,33,110,Brass
67.0,0.0,57,95,Brass
67.0,0.0,61,95,Brass
67.0,0.0,64,95,Brass
67.0,0.0,67,95,Brass
67.0,0.14018691588785046,42,96,Brass
67.0,0.14018691588785046,40,96,Brass
67.5,0.14018691588785046,38,95,Brass
67.5,0.14018691588785046,57,95,Brass
67.5,0.14018691588785046,61,95,Brass
67.5,0.14018691588785046,64,95,Brass
67.5,0.14018691588785046,67,95,Brass
67.5,0.14018691588785046,36,80,Brass
67.5,0.14018691588785046,42,80,Brass
67.75,0.14018691588785046,40,90,Brass
67.75,0.14018691588785046,67,85,Brass
67.75,0.14018691588785046,64,85,Brass
67.75,0.14018691588785046,61,85,Brass
67.75,0.14018691588785046,57,85,Brass
68.0,0.14018691588785046,43,110,Brass
68.0,0.14018691588785046,36,98,Brass
68.0,0.14018691588785046,42,98,Brass
68.25,0.14018691588785046,67,90,Brass
68.25,0.14018691588785046,64,90,Brass
68.25,0.14018691588785046,61,90,Brass
68.25,0.14018691588785046,57,90,Brass
68.5,0.2803738317757009,43,110,Brass
68.5,0.2803738317757009,69,49,Brass
68.5,0.0,57,80,Brass
68.5,0.0,61,80,Brass
68.5,0.0,64,80,Brass
68.5,0.0,67,80,Brass
68.5,0.14018691588785046,36,80,Brass
68.5,0.14018691588785046,42,80,Brass
69.0,0.2803738317757009,40,105,Brass
69.0,0.18691588785046725,81,85,Brass
69.0,0.18691588785046725,88,85,Brass
69.0,0.18691588785046725,79,85,Brass
69.0,0.18691588785046725,85,85,Brass
69.0,0.14018691588785046,57,95,Brass
69.0,0.14018691588785046,61,95,Brass
69.0,0.14018691588785046,64,95,Brass
69.0,0.14018691588785046,67,95,Brass
69.0,0.14018691588785046,42,96,Brass
69.0,0.14018691588785046,40,96,Brass
69.25,0.0,67,85,Brass
69.25,0.0,64,85,Brass
69.25,0.0,61,85,Brass
69.25,0.0,57,85,Brass
69.5,0.2803738317757009,45,110,Brass
69.5,0.14018691588785046,81,70,Brass
69.5,0.14018691588785046,79,70,Brass
69.5,0.14018691588785046,88,70,Brass
69.5,0.14018691588785046,85,70,Brass
70.0,0.42056074766355134,33,120,Brass
70.0,1.308411214953271,85,82,Brass
70.0,1.4018691588785046,79,60,Brass
70.0,0.42056074766355134,57,105,Brass
70.0,0.42056074766355134,61,105,Brass
70.0,0.42056074766355134,64,105,Brass
70.0,0.42056074766355134,67,105,Brass
70.0,0.14018691588785046,49,95,Brass
70.0,0.14018691588785046,36,95,Brass
70.0,0.14018691588785046,42,95,Brass
70.5,0.14018691588785046,67,100,Brass
70.5,0.14018691588785046,42,66,Brass
70.75,0.14018691588785046,33,110,Brass
70.75,0.14018691588785046,67,100,Brass
70.75,0.14018691588785046,67,85,Brass
70.75,0.14018691588785046,64,85,Brass
70.75,0.14018691588785046,61,85,Brass
70.75,0.14018691588785046,57,85,Brass
71.0,0.14018691588785046,33,110,Brass
71.0,0.2803738317757009,67,100,Brass
71.0,0.0,57,95,Brass
71.0,0.0,61,95,Brass
71.0,0.0,64,95,Brass
71.0,0.0,67,95,Brass
71.0,0.14018691588785046,42,96,Brass
71.0,0.14018691588785046,40,96,Brass
71.5,0.14018691588785046,38,95,Brass
71.5,0.14018691588785046,67,100,Brass
71.5,0.14018691588785046,57,95,Brass
71.5,0.14018691588785046,61,95,Brass
71.5,0.14018691588785046,64,95,Brass
71.5,0.14018691588785046,67,95,Brass
71.5,0.14018691588785046,36,80,Brass
71.5,0.14018691588785046,42,80,Brass
71.75,0.14018691588785046,40,90,Brass
71.75,0.14018691588785046,67,85,Brass
71.75,0.14018691588785046,64,85,Brass
71.75,0.14018691588785046,61,85,Brass
71.75,0.14018691588785046,57,85,Brass
72.0,0.14018691588785046,43,110,Brass
72.0,0.14018691588785046,67,100,Brass
72.0,0.14018691588785046,36,98,Brass
72.0,0.14018691588785046,42,98,Brass
72.25,0.14018691588785046,67,90,Brass
72.25,0.14018691588785046,64,90,Brass
72.25,0.14018691588785046,61,90,Brass
72.25,0.14018691588785046,57,90,Brass
72.5,0.2803738317757009,43,110,Brass
72.5,0.5607476635514018,69,100,Brass
72.5,0.18691588785046725,69,51,Brass
72.5,0.0,57,80,Brass
72.5,0.0,61,80,Brass
72.5,0.0,64,80,Brass
72.5,0.0,67,80,Brass
72.5,0.14018691588785046,36,80,Brass
72.5,0.14018691588785046,42,80,Brass
73.0,0.2803738317757009,40,105,Brass
73.0,0.2803738317757009,85,86,Brass
73.0,0.2803738317757009,79,86,Brass
73.0,0.14018691588785046,57,95,Brass
73.0,0.14018691588785046,61,95,Brass
73.0,0.14018691588785046,64,95,Brass
73.0,0.14018691588785046,67,95,Brass
73.0,0.14018691588785046,42,96,Brass
73.0,0.14018691588785046,40,96,Brass
73.25,0.0,67,85,Brass
73.25,0.0,64,85,Brass
73.25,0.0,61,85,Brass
73.25,0.0,57,85,Brass
73.5,0.2803738317757009,45,110,Brass
73.5,0.2803738317757009,69,100,Brass
73.5,0.14018691588785046,36,80,Brass
73.5,0.14018691588785046,42,80,Brass
74.0,0.42056074766355134,33,120,Brass
74.0,0.2803738317757009,67,100,Brass
74.0,1.1214953271028036,81,65,Brass
74.0,1.1214953271028036,88,65,Brass
74.0,1.1214953271028036,85,65,Brass
74.0,1.1214953271028036,79,65,Brass
74.0,0.42056074766355134,57,105,Brass
74.0,0.42056074766355134,61,105,Brass
74.0,0.42056074766355134,64,105,Brass
74.0,0.42056074766355134,67,105,Brass
74.0,0.14018691588785046,36,98,Brass
74.0,0.14018691588785046,42,98,Brass
74.5,0.14018691588785046,64,100,Brass
74.5,0.14018691588785046,42,66,Brass
74.75,0.14018691588785046,33,110,Brass
74.75,0.14018691588785046,67,100,Brass
74.75,0.14018691588785046,67,85,Brass
74.75,0.14018691588785046,64,85,Brass
74.75,0.14018691588785046,61,85,Brass
74.75,0.14018691588785046,57,85,Brass
75.0,0.14018691588785046,33,110,Brass
75.0,0.0,57,95,Brass
75.0,0.0,61,95,Brass
75.0,0.0,64,95,Brass
75.0,0.0,67,95,Brass
75.0,0.14018691588785046,42,96,Brass
75.0,0.14018691588785046,40,96,Brass
75.25,0.2803738317757009,67,100,Brass
75.5,0.14018691588785046,38,95,Brass
75.5,0.14018691588785046,57,95,Brass
75.5,0.14018691588785046,61,95,Brass
75.5,0.14018691588785046,64,95,Brass
75.5,0.14018691588785046,67,95,Brass
75.5,0.14018691588785046,36,80,Brass
75.5,0.14018691588785046,42,80,Brass
75.75,0.14018691588785046,40,90,Brass
75.75,0.5607476635514018,69,100,Brass
75.75,0.14018691588785046,67,85,Brass
75.75,0.14018691588785046,64,85,Brass
75.75,0.14018691588785046,61,85,Brass
75.75,0.14018691588785046,57,85,Brass
76.0,0.14018691588785046,43,110,Brass
76.0,0.14018691588785046,36,98,Brass
76.0,0.14018691588785046,42,98,Brass
76.25,0.0,85,69,Brass
76.25,0.0,81,69,Brass
76.25,0.0,79,69,Brass
76.25,0.0,88,69,Brass
76.25,0.14018691588785046,67,90,Brass
76.25,0.14018691588785046,64,90,Brass
76.25,0.14018691588785046,61,90,Brass
76.25,0.14018691588785046,57,90,Brass
76.5,0.2803738317757009,43,110,Brass
76.5,0.0,57,80,Brass
76.5,0.0,61,80,Brass
76.5,0.0,64,80,Brass
76.5,0.0,67,80,Brass
76.5,0.14018691588785046,36,80,Brass
76.5,0.14018691588785046,42,80,Brass
76.75,0.14018691588785046,69,59,Brass
77.0,0.2803738317757009,40,105,Brass
77.0,0.2803738317757009,81,82,Brass
77.0,0.2803738317757009,85,82,Brass
77.0,0.2803738317757009,79,82,Brass
77.0,0.2803738317757009,88,82,Brass
77.0,0.14018691588785046,57,95,Brass
77.0,0.14018691588785046,61,95,Brass
77.0,0.14018691588785046,64,95,Brass
77.0,0.14018691588785046,67,95,Brass
77.0,0.14018691588785046,42,96,Brass
77.0,0.14018691588785046,40,96,Brass
77.25,0.0,67,85,Brass
77.25,0.0,64,85,Brass
77.25,0.0,61,85,Brass
77.25,0.0,57,85,Brass
77.5,0.2803738317757009,45,110,Brass
77.5,0.2803738317757009,69,100,Brass
77.5,0.14018691588785046,36,80,Brass
77.5,0.14018691588785046,42,80,Brass
78.0,0.42056074766355134,28,120,Brass
78.0,0.2803738317757009,71,100,Brass
78.0,1.308411214953271,74,56,Brass
78.0,1.308411214953271,83,56,Brass
78.0,1.308411214953271,80,56,Brass
78.0,1.261682242990654,76,62,Brass
78.0,0.42056074766355134,59,105,Brass
78.0,0.42056074766355134,62,105,Brass
78.0,0.42056074766355134,64,105,Brass
78.0,0.42056074766355134,68,105,Brass
78.0,0.14018691588785046,36,98,Brass
78.0,0.14018691588785046,42,98,Brass
78.5,0.2803738317757009,69,100,Brass
78.5,0.14018691588785046,42,66,Brass
78.75,0.14018691588785046,28,110,Brass
78.75,0.14018691588785046,68,85,Brass
78.75,0.14018691588785046,64,85,Brass
78.75,0.14018691588785046,62,85,Brass
78.75,0.14018691588785046,59,85,Brass
79.0,0.14018691588785046,28,110,Brass
79.0,0.2803738317757009,71,100,Brass
79.0,0.0,59,95,Brass
79.0,0.0,62,95,Brass
79.0,0.0,64,95,Brass
79.0,0.0,68,95,Brass
79.0,0.14018691588785046,42,96,Brass
79.0,0.14018691588785046,40,96,Brass
79.5,0.14018691588785046,33,95,Brass
79.5,0.14018691588785046,69,100,Brass
79.5,0.14018691588785046,59,95,Brass
79.5,0.14018691588785046,62,95,Brass
79.5,0.14018691588785046,64,95,Brass
79.5,0.14018691588785046,68,95,Brass
79.5,0.14018691588785046,36,80,Brass
79.5,0.14018691588785046,42,80,Brass
79.75,0.14018691588785046,35,90,Brass
79.75,0.2803738317757009,71,100,Brass
79.75,0.14018691588785046,68,85,Brass
79.75,0.14018691588785046,64,85,Brass
79.75,0.14018691588785046,62,85,Brass
79.75,0.14018691588785046,59,85,Brass
80.0,0.14018691588785046,38,110,Brass
80.0,0.14018691588785046,36,98,Brass
80.0,0.14018691588785046,42,98,Brass
80.25,0.2803738317757009,64,100,Brass
80.25,0.14018691588785046,68,90,Brass
80.25,0.14018691588785046,64,90,Brass
80.25,0.14018691588785046,62,90,Brass
80.25,0.14018691588785046,59,90,Brass
80.5,0.2803738317757009,38,110,Brass
80.5,0.2803738317757009,64,49,Brass
80.5,0.0,59,80,Brass
80.5,0.0,62,80,Brass
80.5,0.0,64,80,Brass
80.5,0.0,68,80,Brass
80.5,0.14018691588785046,36,80,Brass
80.5,0.14018691588785046,42,80,Brass
81.0,0.2803738317757009,35,105,Brass
81.0,0.18691588785046725,74,85,Brass
81.0,0.18691588785046725,80,85,Brass
81.0,0.18691588785046725,83,85,Brass
81.0,0.18691588785046725,76,85,Brass
81.0,0.14018691588785046,59,95,Brass
81.0,0.14018691588785046,62,95,Brass
81.0,0.14018691588785046,64,95,Brass
81.0,0.14018691588785046,68,95,Brass
81.0,0.14018691588785046,42,96,Brass
81.0,0.14018691588785046,40,96,Brass
81.25,0.0,68,85,Brass
81.25,0.0,64,85,Brass
81.25,0.0,62,85,Brass
81.25,0.0,59,85,Brass
81.5,0.2803738317757009,40,110,Brass
81.5,0.14018691588785046,69,100,Brass
81.5,0.14018691588785046,83,70,Brass
81.5,0.14018691588785046,74,70,Brass
81.5,0.14018691588785046,76,70,Brass
81.5,0.14018691588785046,80,70,Brass
81.5,0.14018691588785046,36,80,Brass
81.5,0.14018691588785046,42,80,Brass
82.0,0.42056074766355134,28,120,Brass
82.0,0.2803738317757009,71,100,Brass
82.0,1.1214953271028036,76,65,Brass
82.0,1.1214953271028036,80,65,Brass
82.0,1.1214953271028036,74,65,Brass
82.0,1.1214953271028036,83,65,Brass
82.0,0.42056074766355134,59,105,Brass
82.0,0.42056074766355134,62,105,Brass
82.0,0.42056074766355134,64,105,Brass
82.0,0.42056074766355134,68,105,Brass
82.0,0.14018691588785046,36,98,Brass
82.0,0.14018691588785046,42,98,Brass
82.5,0.2803738317757009,69,100,Brass
82.5,0.14018691588785046,42,66,Brass
82.75,0.14018691588785046,28,110,Brass
82.75,0.14018691588785046,68,85,Brass
82.75,0.14018691588785046,64,85,Brass
82.75,0.14018691588785046,62,85,Brass
82.75,0.14018691588785046,59,85,Brass
83.0,0.14018691588785046,28,110,Brass
83.0,0.2803738317757009,71,100,Brass
83.0,0.0,59,95,Brass
83.0,0.0,62,95,Brass
83.0,0.0,64,95,Brass
83.0,0.0,68,95,Brass
83.0,0.14018691588785046,42,96,Brass
83.0,0.14018691588785046,40,96,Brass
83.5,0.14018691588785046,33,95,Brass
83.5,0.14018691588785046,71,100,Brass
83.5,0.14018691588785046,59,95,Brass
83.5,0.14018691588785046,62,95,Brass
83.5,0.14018691588785046,64,95,Brass
83.5,0.14018691588785046,68,95,Brass
83.5,0.14018691588785046,36,80,Brass
83.5,0.14018691588785046,42,80,Brass
83.75,0.14018691588785046,35,90,Brass
83.75,0.5607476635514018,64,100,Brass
83.75,0.14018691588785046,68,85,Brass
83.75,0.14018691588785046,64,85,Brass
83.75,0.14018691588785046,62,85,Brass
83.75,0.14018691588785046,59,85,Brass
84.0,0.14018691588785046,38,110,Brass
84.0,0.14018691588785046,36,98,Brass
84.0,0.14018691588785046,42,98,Brass
84.25,0.14018691588785046,83,69,Brass
84.25,0.14018691588785046,76,69,Brass
84.25,0.14018691588785046,74,69,Brass
84.25,0.14018691588785046,80,69,Brass
84.25,0.14018691588785046,68,90,Brass
84.25,0.14018691588785046,64,90,Brass
84.25,0.14018691588785046,62,90,Brass
84.25,0.14018691588785046,59,90,Brass
84.5,0.2803738317757009,38,110,Brass
84.5,0.0,59,80,Brass
84.5,0.0,62,80,Brass
84.5,0.0,64,80,Brass
84.5,0.0,68,80,Brass
84.5,0.14018691588785046,36,80,Brass
84.5,0.14018691588785046,42,80,Brass
84.75,0.14018691588785046,64,59,Brass
85.0,0.2803738317757009,35,105,Brass
85.0,0.2803738317757009,85,82,Brass
85.0,0.2803738317757009,88,82,Brass
85.0,0.2803738317757009,81,82,Brass
85.0,0.2803738317757009,79,82,Brass
85.0,0.14018691588785046,59,95,Brass
85.0,0.14018691588785046,62,95,Brass
85.0,0.14018691588785046,64,95,Brass
85.0,0.14018691588785046,68,95,Brass
85.0,0.14018691588785046,42,96,Brass
85.0,0.14018691588785046,40,96,Brass
85.5,0.2803738317757009,40,110,Brass
85.5,0.14018691588785046,67,85,Brass
85.5,0.14018691588785046,63,85,Brass
85.5,0.14018691588785046,61,85,Brass
85.5,0.14018691588785046,58,85,Brass
85.5,0.14018691588785046,36,80,Brass
85.5,0.14018691588785046,42,80,Brass
86.0,0.42056074766355134,38,120,Brass
86.0,1.308411214953271,90,82,Brass
86.0,1.4018691588785046,84,60,Brass
86.0,0.42056074766355134,57,105,Brass
86.0,0.42056074766355134,60,105,Brass
86.0,0.42056074766355134,62,105,Brass
86.0,0.42056074766355134,66,105,Brass
86.0,0.14018691588785046,36,98,Brass
86.0,0.14018691588785046,42,98,Brass
86.5,0.14018691588785046,72,100,Brass
86.5,0.14018691588785046,42,66,Brass
86.75,0.14018691588785046,38,110,Brass
86.75,0.14018691588785046,66,85,Brass
86.75,0.14018691588785046,62,85,Brass
86.75,0.14018691588785046,60,85,Brass
86.75,0.14018691588785046,57,85,Brass
87.0,0.14018691588785046,38,110,Brass
87.0,0.14018691588785046,72,100,Brass
87.0,0.0,57,95,Brass
87.0,0.0,60,95,Brass
87.0,0.0,62,95,Brass
87.0,0.0,66,95,Brass
87.0,0.14018691588785046,42,96,Brass
87.0,0.14018691588785046,40,96,Brass
87.5,0.14018691588785046,43,95,Brass
87.5,0.14018691588785046,69,100,Brass
87.5,0.14018691588785046,57,95,Brass
87.5,0.14018691588785046,60,95,Brass
87.5,0.14018691588785046,62,95,Brass
87.5,0.14018691588785046,66,95,Brass
87.5,0.14018691588785046,36,80,Brass
87.5,0.14018691588785046,42,80,Brass
87.75,0.14018691588785046,45,90,Brass
87.75,0.14018691588785046,66,85,Brass
87.75,0.14018691588785046,62,85,Brass
87.75,0.14018691588785046,60,85,Brass
87.75,0.14018691588785046,57,85,Brass
88.0,0.14018691588785046,48,110,Brass
88.0,0.8411214953271027,72,100,Brass
88.0,0.14018691588785046,36,98,Brass
88.0,0.14018691588785046,42,98,Brass
88.25,0.14018691588785046,66,90,Brass
88.25,0.14018691588785046,62,90,Brass
88.25,0.14018691588785046,60,90,Brass
88.25,0.14018691588785046,57,90,Brass
88.5,0.2803738317757009,48,110,Brass
88.5,0.18691588785046725,74,51,Brass
88.5,0.0,57,80,Brass
88.5,0.0,60,80,Brass
88.5,0.0,62,80,Brass
88.5,0.0,66,80,Brass
88.5,0.14018691588785046,36,80,Brass
88.5,0.14018691588785046,42,80,Brass
89.0,0.2803738317757009,45,105,Brass
89.0,0.2803738317757009,90,86,Brass
89.0,0.2803738317757009,84,86,Brass
89.0,0.14018691588785046,57,95,Brass
89.0,0.14018691588785046,60,95,Brass
89.0,0.14018691588785046,62,95,Brass
89.0,0.14018691588785046,66,95,Brass
89.0,0.14018691588785046,42,96,Brass
89.0,0.14018691588785046,40,96,Brass
89.25,0.0,66,85,Brass
89.25,0.0,62,85,Brass
89.25,0.0,60,85,Brass
89.25,0.0,57,85,Brass
89.5,0.2803738317757009,50,110,Brass
89.5,0.14018691588785046,69,100,Brass
89.5,0.14018691588785046,42,66,Brass
90.0,0.42056074766355134,38,120,Brass
90.0,1.1214953271028036,86,65,Brass
90.0,1.1214953271028036,93,65,Brass
90.0,1.1214953271028036,90,65,Brass
90.0,1.1214953271028036,84,65,Brass
90.0,0.42056074766355134,57,105,Brass
90.0,0.42056074766355134,60,105,Brass
90.0,0.42056074766355134,62,105,Brass
90.0,0.42056074766355134,66,105,Brass
90.0,0.14018691588785046,36,98,Brass
90.0,0.14018691588785046,42,98,Brass
90.5,0.14018691588785046,42,66,Brass
90.75,0.14018691588785046,38,110,Brass
90.75,0.14018691588785046,66,85,Brass
90.75,0.14018691588785046,62,85,Brass
90.75,0.14018691588785046,60,85,Brass
90.75,0.14018691588785046,57,85,Brass
91.0,0.14018691588785046,38,110,Brass
91.0,0.0,57,95,Brass
91.0,0.0,60,95,Brass
91.0,0.0,62,95,Brass
91.0,0.0,66,95,Brass
91.0,0.14018691588785046,42,96,Brass
91.0,0.14018691588785046,40,96,Brass
91.5,0.14018691588785046,43,95,Brass
91.5,0.2803738317757009,69,100,Brass
91.5,0.14018691588785046,57,95,Brass
91.5,0.14018691588785046,60,95,Brass
91.5,0.14018691588785046,62,95,Brass
91.5,0.14018691588785046,66,95,Brass
91.5,0.14018691588785046,36,80,Brass
91.5,0.14018691588785046,42,80,Brass
91.75,0.14018691588785046,45,90,Brass
91.75,0.14018691588785046,66,85,Brass
91.75,0.14018691588785046,62,85,Brass
91.75,0.14018691588785046,60,85,Brass
91.75,0.14018691588785046,57,85,Brass
92.0,0.14018691588785046,48,110,Brass
92.0,0.5607476635514018,76,100,Brass
92.0,0.14018691588785046,36,98,Brass
92.0,0.14018691588785046,42,98,Brass
92.25,0.14018691588785046,93,69,Brass
92.25,0.14018691588785046,90,69,Brass
92.25,0.14018691588785046,86,69,Brass
92.25,0.14018691588785046,84,69,Brass
92.25,0.14018691588785046,66,90,Brass
92.25,0.14018691588785046,62,90,Brass
92.25,0.14018691588785046,60,90,Brass
92.25,0.14018691588785046,57,90,Brass
92.5,0.2803738317757009,48,110,Brass
92.5,0.0,57,80,Brass
92.5,0.0,60,80,Brass
92.5,0.0,62,80,Brass
92.5,0.0,66,80,Brass
92.5,0.14018691588785046,36,80,Brass
92.5,0.14018691588785046,42,80,Brass
92.75,0.14018691588785046,74,59,Brass
93.0,0.2803738317757009,45,105,Brass
93.0,0.5607476635514018,74,100,Brass
93.0,0.2803738317757009,86,82,Brass
93.0,0.2803738317757009,84,82,Brass
93.0,0.2803738317757009,90,82,Brass
93.0,0.2803738317757009,93,82,Brass
93.0,0.14018691588785046,57,95,Brass
93.0,0.14018691588785046,60,95,Brass
93.0,0.14018691588785046,62,95,Brass
93.0,0.14018691588785046,66,95,Brass
93.0,0.14018691588785046,42,96,Brass
93.0,0.14018691588785046,40,96,Brass
93.25,0.0,66,85,Brass
93.25,0.0,62,85,Brass
93.25,0.0,60,85,Brass
93.25,0.0,57,85,Brass
93.5,0.2803738317757009,50,110,Brass
93.5,0.14018691588785046,36,80,Brass
93.5,0.14018691588785046,42,80,Brass
94.0,0.42056074766355134,33,120,Brass
94.0,0.2803738317757009,72,100,Brass
94.0,1.1214953271028036,79,65,Brass
94.0,1.1214953271028036,85,65,Brass
94.0,1.1214953271028036,88,65,Brass
94.0,1.1214953271028036,81,65,Brass
94.0,0.42056074766355134,57,105,Brass
94.0,0.42056074766355134,61,105,Brass
94.0,0.42056074766355134,64,105,Brass
94.0,0.42056074766355134,67,105,Brass
94.0,0.14018691588785046,36,98,Brass
94.0,0.14018691588785046,42,98,Brass
94.5,1.9626168224299063,69,100,Brass
94.5,0.14018691588785046,42,66,Brass
94.75,0.14018691588785046,33,110,Brass
94.75,0.14018691588785046,67,85,Brass
94.75,0.14018691588785046,64,85,Brass
94.75,0.14018691588785046,61,85,Brass
94.75,0.14018691588785046,57,85,Brass
95.0,0.14018691588785046,33,110,Brass
95.0,0.0,57,95,Brass
95.0,0.0,61,95,Brass
95.0,0.0,64,95,Brass
95.0,0.0,67,95,Brass
95.0,0.14018691588785046,42,96,Brass
95.0,0.14018691588785046,40,96,Brass
95.5,0.14018691588785046,38,95,Brass
95.5,0.14018691588785046,57,95,Brass
95.5,0.14018691588785046,61,95,Brass
95.5,0.14018691588785046,64,95,Brass
95.5,0.14018691588785046,67,95,Brass
95.5,0.14018691588785046,36,80,Brass
95.5,0.14018691588785046,42,80,Brass
95.75,0.14018691588785046,40,90,Brass
95.75,0.14018691588785046,67,85,Brass
95.75,0.14018691588785046,64,85,Brass
95.75,0.14018691588785046,61,85,Brass
95.75,0.14018691588785046,57,85,Brass
96.0,0.14018691588785046,43,110,Brass
96.0,0.14018691588785046,36,98,Brass
96.0,0.14018691588785046,42,98,Brass
96.25,0.0,79,69,Brass
96.25,0.0,85,69,Brass
96.25,0.0,88,69,Brass
96.25,0.0,81,69,Brass
96.25,0.14018691588785046,67,90,Brass
96.25,0.14018691588785046,64,90,Brass
96.25,0.14018691588785046,61,90,Brass
96.25,0.14018691588785046,57,90,Brass
96.5,0.2803738317757009,43,110,Brass
96.5,0.0,57,80,Brass
96.5,0.0,61,80,Brass
96.5,0.0,64,80,Brass
96.5,0.0,67,80,Brass
96.5,0.14018691588785046,36,80,Brass
96.5,0.14018691588785046,42,80,Brass
96.75,0.14018691588785046,69,59,Brass
97.0,0.2803738317757009,40,105,Brass
97.0,0.2803738317757009,85,82,Brass
97.0,0.2803738317757009,81,82,Brass
97.0,0.2803738317757009,88,82,Brass
97.0,0.2803738317757009,79,82,Brass
97.0,0.14018691588785046,57,95,Brass
97.0,0.14018691588785046,61,95,Brass
97.0,0.14018691588785046,64,95,Brass
97.0,0.14018691588785046,67,95,Brass
97.0,0.14018691588785046,42,96,Brass
97.0,0.14018691588785046,40,96,Brass
97.25,0.0,67,85,Brass
97.25,0.0,64,85,Brass
97.25,0.0,61,85,Brass
97.25,0.0,57,85,Brass
97.5,0.2803738317757009,45,110,Brass
97.5,0.14018691588785046,42,66,Brass
98.0,0.42056074766355134,33,120,Brass
98.0,1.308411214953271,88,56,Brass
98.0,1.308411214953271,79,56,Brass
98.0,1.308411214953271,85,56,Brass
98.0,1.261682242990654,81,62,Brass
98.0,0.42056074766355134,57,105,Brass
98.0,0.42056074766355134,61,105,Brass
98.0,0.42056074766355134,64,105,Brass
98.0,0.42056074766355134,67,105,Brass
98.0,0.14018691588785046,36,98,Brass
98.0,0.14018691588785046,42,98,Brass
98.5,0.14018691588785046,42,66,Brass
98.75,0.14018691588785046,33,110,Brass
98.75,0.14018691588785046,67,85,Brass
98.75,0.14018691588785046,64,85,Brass
98.75,0.14018691588785046,61,85,Brass
98.75,0.14018691588785046,57,85,Brass
99.0,0.14018691588785046,33,110,Brass
99.0,0.0,57,95,Brass
99.0,0.0,61,95,Brass
99.0,0.0,64,95,Brass
99.0,0.0,67,95,Brass
99.0,0.14018691588785046,42,96,Brass
99.0,0.14018691588785046,40,96,Brass
99.5,0.14018691588785046,38,95,Brass
99.5,0.14018691588785046,57,95,Brass
99.5,0.14018691588785046,61,95,Brass
99.5,0.14018691588785046,64,95,Brass
99.5,0.14018691588785046,67,95,Brass
99.5,0.14018691588785046,36,88,Brass
99.5,0.14018691588785046,42,88,Brass
99.75,0.14018691588785046,40,90,Brass
99.75,0.14018691588785046,67,85,Brass
99.75,0.14018691588785046,64,85,Brass
99.75,0.14018691588785046,61,85,Brass
99.75,0.14018691588785046,57,85,Brass
100.0,0.14018691588785046,43,110,Brass
100.0,0.14018691588785046,42,86,Brass
100.25,0.14018691588785046,67,90,Brass
100.25,0.14018691588785046,64,90,Brass
100.25,0.14018691588785046,61,90,Brass
100.25,0.14018691588785046,57,90,Brass
100.5,0.2803738317757009,43,110,Brass
100.5,0.2803738317757009,69,49,Brass
100.5,0.0,57,80,Brass
100.5,0.0,61,80,Brass
100.5,0.0,64,80,Brass
100.5,0.0,67,80,Brass
100.5,0.14018691588785046,36,88,Brass
100.5,0.14018691588785046,42,88,Brass
101.0,0.2803738317757009,40,105,Brass
101.0,0.18691588785046725,81,85,Brass
101.0,0.18691588785046725,88,85,Brass
101.0,0.18691588785046725,79,85,Brass
101.0,0.18691588785046725,85,85,Brass
101.0,0.14018691588785046,57,95,Brass
101.0,0.14018691588785046,61,95,Brass
101.0,0.14018691588785046,64,95,Brass
101.0,0.14018691588785046,67,95,Brass
101.0,0.14018691588785046,42,96,Brass
101.0,0.14018691588785046,40,96,Brass
101.25,0.0,67,85,Brass
101.25,0.0,64,85,Brass
101.25,0.0,61,85,Brass
101.25,0.0,57,85,Brass
101.25,0.14018691588785046,36,110,Brass
101.5,0.2803738317757009,45,110,Brass
101.5,0.2803738317757009,69,100,Brass
101.5,0.14018691588785046,81,70,Brass
101.5,0.14018691588785046,79,70,Brass
101.5,0.14018691588785046,88,70,Brass
101.5,0.14018691588785046,85,70,Brass
101.5,0.14018691588785046,42,66,Brass
102.0,0.14018691588785046,40,108,Brass
102.0,0.2803738317757009,74,100,Brass
102.0,1.308411214953271,86,82,Brass
102.0,1.4018691588785046,80,60,Brass
102.0,0.14018691588785046,59,105,Brass
102.0,0.14018691588785046,62,105,Brass
102.0,0.14018691588785046,64,105,Brass
102.0,0.14018691588785046,68,105,Brass
102.0,0.14018691588785046,40,94,Brass
102.0,0.14018691588785046,49,94,Brass
102.5,0.14018691588785046,40,108,Brass
102.5,0.2803738317757009,72,100,Brass
102.5,0.14018691588785046,68,100,Brass
102.5,0.14018691588785046,64,100,Brass
102.5,0.14018691588785046,62,100,Brass
102.5,0.14018691588785046,59,100,Brass
102.5,0.14018691588785046,36,100,Brass
103.0,0.14018691588785046,40,108,Brass
103.0,0.2803738317757009,74,100,Brass
103.0,0.14018691588785046,59,105,Brass
103.0,0.14018691588785046,62,105,Brass
103.0,0.14018691588785046,64,105,Brass
103.0,0.14018691588785046,68,105,Brass
103.0,0.2803738317757009,46,100,Brass
103.0,0.2803738317757009,40,100,Brass
103.5,0.14018691588785046,40,108,Brass
103.5,0.2803738317757009,72,100,Brass
103.5,0.14018691588785046,68,100,Brass
103.5,0.14018691588785046,64,100,Brass
103.5,0.14018691588785046,62,100,Brass
103.5,0.14018691588785046,59,100,Brass
103.5,0.14018691588785046,36,100,Brass
104.0,0.14018691588785046,40,108,Brass
104.0,0.2803738317757009,74,100,Brass
104.0,0.14018691588785046,59,105,Brass
104.0,0.14018691588785046,62,105,Brass
104.0,0.14018691588785046,64,105,Brass
104.0,0.14018691588785046,68,105,Brass
104.0,0.2803738317757009,46,101,Brass
104.0,0.2803738317757009,40,101,Brass
104.5,0.14018691588785046,40,108,Brass
104.5,0.2803738317757009,72,100,Brass
104.5,0.18691588785046725,71,51,Brass
104.5,0.14018691588785046,68,100,Brass
104.5,0.14018691588785046,64,100,Brass
104.5,0.14018691588785046,62,100,Brass
104.5,0.14018691588785046,59,100,Brass
104.5,0.14018691588785046,36,100,Brass
105.0,0.14018691588785046,40,108,Brass
105.0,0.2803738317757009,74,100,Brass
105.0,0.2803738317757009,86,86,Brass
105.0,0.2803738317757009,80,86,Brass
105.0,0.14018691588785046,58,105,Brass
105.0,0.14018691588785046,61,105,Brass
105.0,0.14018691588785046,64,105,Brass
105.0,0.14018691588785046,67,105,Brass
105.0,0.14018691588785046,46,103,Brass
105.0,0.14018691588785046,40,103,Brass
105.5,0.14018691588785046,40,108,Brass
105.5,0.2803738317757009,76,100,Brass
105.5,0.14018691588785046,67,100,Brass
105.5,0.14018691588785046,64,100,Brass
105.5,0.14018691588785046,61,100,Brass
105.5,0.14018691588785046,58,100,Brass
106.0,0.7009345794392523,38,108,Brass
106.0,0.2803738317757009,72,100,Brass
106.0,0.9813084112149532,93,58,Brass
106.0,0.9813084112149532,84,58,Brass
106.0,0.9813084112149532,86,58,Brass
106.0,0.9813084112149532,90,58,Brass
106.0,0.14018691588785046,57,105,Brass
106.0,0.14018691588785046,60,105,Brass
106.0,0.14018691588785046,62,105,Brass
106.0,0.14018691588785046,66,105,Brass
106.0,0.14018691588785046,42,118,Brass
106.0,0.14018691588785046,36,118,Brass
106.0,0.14018691588785046,40,118,Brass
107.5,0.2803738317757009,36,108,Brass
107.5,0.2803738317757009,69,100,Brass
107.75,0.14018691588785046,74,45,Brass
108.0,0.2803738317757009,38,108,Brass
108.0,0.14018691588785046,74,100,Brass
108.0,0.0,93,48,Brass
108.0,0.0,90,48,Brass
108.25,0.14018691588785046,74,100,Brass
108.25,0.14018691588785046,84,76,Brass
108.25,0.14018691588785046,93,76,Brass
108.25,0.14018691588785046,90,76,Brass
108.25,0.14018691588785046,86,76,Brass
108.5,0.2803738317757009,40,108,Brass
108.5,0.8411214953271027,72,100,Brass
108.75,0.14018691588785046,74,57,Brass
109.0,0.5607476635514018,36,108,Brass
109.0,0.14018691588785046,90,57,Brass
109.0,0.14018691588785046,84,57,Brass
109.0,0.0,93,46,Brass
109.0,0.0,84,46,Brass
109.0,0.14018691588785046,40,100,Brass
109.25,0.0,90,68,Brass
109.25,0.0,93,68,Brass
109.25,0.0,86,68,Brass
109.25,0.0,84,68,Brass
110.0,0.42056074766355134,33,120,Brass
110.0,1.6822429906542054,69,100,Brass
110.0,1.4018691588785046,81,64,Brass
110.0,1.4018691588785046,91,64,Brass
110.0,1.4018691588785046,88,64,Brass
110.0,1.4018691588785046,85,64,Brass
110.0,0.42056074766355134,57,105,Brass
110.0,0.42056074766355134,61,105,Brass
110.0,0.42056074766355134,64,105,Brass
110.0,0.42056074766355134,67,105,Brass
110.0,0.14018691588785046,36,82,Brass
110.0,0.14018691588785046,49,82,Brass
110.5,0.14018691588785046,42,86,Brass
110.75,0.14018691588785046,33,110,Brass
110.75,0.14018691588785046,67,85,Brass
110.75,0.14018691588785046,64,85,Brass
110.75,0.14018691588785046,61,85,Brass
110.75,0.14018691588785046,57,85,Brass
111.0,0.14018691588785046,33,110,Brass
111.0,0.0,57,95,Brass
111.0,0.0,61,95,Brass
111.0,0.0,64,95,Brass
111.0,0.0,67,95,Brass
111.0,0.14018691588785046,42,93,Brass
111.0,0.14018691588785046,40,93,Brass
111.5,0.14018691588785046,38,95,Brass
111.5,0.14018691588785046,57,95,Brass
111.5,0.14018691588785046,61,95,Brass
111.5,0.14018691588785046,64,95,Brass
111.5,0.14018691588785046,67,95,Brass
111.5,0.14018691588785046,42,86,Brass
111.75,0.14018691588785046,40,90,Brass
111.75,0.14018691588785046,67,85,Brass
111.75,0.14018691588785046,64,85,Brass
111.75,0.14018691588785046,61,85,Brass
111.75,0.14018691588785046,57,85,Brass
112.0,0.14018691588785046,43,110,Brass
112.0,0.14018691588785046,36,93,Brass
112.0,0.14018691588785046,42,93,Brass
112.25,0.14018691588785046,67,90,Brass
112.25,0.14018691588785046,64,90,Brass
112.25,0.14018691588785046,61,90,Brass
112.25,0.14018691588785046,57,90,Brass
112.5,0.2803738317757009,43,110,Brass
112.5,0.2803738317757009,79,78,Brass
112.5,0.0,57,80,Brass
112.5,0.0,61,80,Brass
112.5,0.0,64,80,Brass
112.5,0.0,67,80,Brass
112.5,0.14018691588785046,42,86,Brass
113.0,0.2803738317757009,40,105,Brass
113.0,0.2803738317757009,85,84,Brass
113.0,0.2803738317757009,88,84,Brass
113.0,0.2803738317757009,91,84,Brass
113.0,0.2803738317757009,81,84,Brass
113.0,0.14018691588785046,57,95,Brass
113.0,0.14018691588785046,61,95,Brass
113.0,0.14018691588785046,64,95,Brass
113.0,0.14018691588785046,67,95,Brass
113.0,0.14018691588785046,42,93,Brass
113.0,0.14018691588785046,40,93,Brass
113.25,0.0,67,85,Brass
113.25,0.0,64,85,Brass
113.25,0.0,61,85,Brass
113.25,0.0,57,85,Brass
113.5,0.2803738317757009,45,110,Brass
113.5,0.14018691588785046,36,93,Brass
113.5,0.14018691588785046,42,93,Brass
114.0,0.42056074766355134,33,120,Brass
114.0,2.102803738317757,85,72,Brass
114.0,1.261682242990654,79,53,Brass
114.0,0.42056074766355134,57,105,Brass
114.0,0.42056074766355134,61,105,Brass
114.0,0.42056074766355134,64,105,Brass
114.0,0.42056074766355134,67,105,Brass
114.0,0.14018691588785046,42,93,Brass
114.0,0.14018691588785046,36,93,Brass
114.5,0.14018691588785046,42,86,Brass
114.75,0.14018691588785046,33,110,Brass
114.75,0.14018691588785046,67,85,Brass
114.75,0.14018691588785046,64,85,Brass
114.75,0.14018691588785046,61,85,Brass
114.75,0.14018691588785046,57,85,Brass
115.0,0.14018691588785046,33,110,Brass
115.0,0.0,57,95,Brass
115.0,0.0,61,95,Brass
115.0,0.0,64,95,Brass
115.0,0.0,67,95,Brass
115.0,0.14018691588785046,42,93,Brass
115.0,0.14018691588785046,40,93,Brass
115.5,0.14018691588785046,38,95,Brass
115.5,0.14018691588785046,57,95,Brass
115.5,0.14018691588785046,61,95,Brass
115.5,0.14018691588785046,64,95,Brass
115.5,0.14018691588785046,67,95,Brass
115.5,0.14018691588785046,42,86,Brass
115.75,0.14018691588785046,40,90,Brass
115.75,0.14018691588785046,67,85,Brass
115.75,0.14018691588785046,64,85,Brass
115.75,0.14018691588785046,61,85,Brass
115.75,0.14018691588785046,57,85,Brass
116.0,0.14018691588785046,43,110,Brass
116.0,0.14018691588785046,42,93,Brass
116.0,0.14018691588785046,36,93,Brass
116.25,0.14018691588785046,67,90,Brass
116.25,0.14018691588785046,64,90,Brass
116.25,0.14018691588785046,61,90,Brass
116.25,0.14018691588785046,57,90,Brass
116.5,0.2803738317757009,43,110,Brass
116.5,0.18691588785046725,79,69,Brass
116.5,0.18691588785046725,73,69,Brass
116.5,0.0,57,80,Brass
116.5,0.0,61,80,Brass
116.5,0.0,64,80,Brass
116.5,0.0,67,80,Brass
116.5,0.14018691588785046,42,86,Brass
117.0,0.2803738317757009,40,105,Brass
117.0,0.14018691588785046,79,57,Brass
117.0,0.14018691588785046,73,82,Brass
117.0,0.14018691588785046,57,95,Brass
117.0,0.14018691588785046,61,95,Brass
117.0,0.14018691588785046,64,95,Brass
117.0,0.14018691588785046,67,95,Brass
117.0,0.14018691588785046,42,93,Brass
117.0,0.14018691588785046,40,93,Brass
117.25,0.0,67,85,Brass
117.25,0.0,64,85,Brass
117.25,0.0,61,85,Brass
117.25,0.0,57,85,Brass
117.5,0.2803738317757009,45,110,Brass
117.5,0.2803738317757009,69,100,Brass
117.5,0.14018691588785046,79,78,Brass
117.5,0.14018691588785046,73,78,Brass
117.5,0.14018691588785046,42,86,Brass
118.0,0.14018691588785046,40,108,Brass
118.0,0.2803738317757009,74,100,Brass
118.0,1.308411214953271,86,82,Brass
118.0,1.4018691588785046,80,60,Brass
118.0,0.14018691588785046,59,105,Brass
118.0,0.14018691588785046,62,105,Brass
118.0,0.14018691588785046,64,105,Brass
118.0,0.14018691588785046,68,105,Brass
118.0,0.2803738317757009,46,89,Brass
118.0,0.14018691588785046,40,117,Brass
118.5,0.14018691588785046,40,108,Brass
118.5,0.2803738317757009,72,100,Brass
118.5,0.14018691588785046,68,100,Brass
118.5,0.14018691588785046,64,100,Brass
118.5,0.14018691588785046,62,100,Brass
118.5,0.14018691588785046,59,100,Brass
118.5,0.14018691588785046,36,100,Brass
119.0,0.14018691588785046,40,108,Brass
119.0,0.2803738317757009,74,100,Brass
119.0,0.14018691588785046,59,105,Brass
119.0,0.14018691588785046,62,105,Brass
119.0,0.14018691588785046,64,105,Brass
119.0,0.14018691588785046,68,105,Brass
119.0,0.14018691588785046,46,92,Brass
119.0,0.2803738317757009,40,120,Brass
119.5,0.14018691588785046,40,108,Brass
119.5,0.2803738317757009,72,100,Brass
119.5,0.14018691588785046,68,100,Brass
119.5,0.14018691588785046,64,100,Brass
119.5,0.14018691588785046,62,100,Brass
119.5,0.14018691588785046,59,100,Brass
119.5,0.14018691588785046,36,100,Brass
120.0,0.14018691588785046,40,108,Brass
120.0,0.2803738317757009,74,100,Brass
120.0,0.14018691588785046,59,105,Brass
120.0,0.14018691588785046,62,105,Brass
120.0,0.14018691588785046,64,105,Brass
120.0,0.14018691588785046,68,105,Brass
120.0,0.14018691588785046,46,103,Brass
120.0,0.14018691588785046,40,103,Brass
120.5,0.14018691588785046,40,108,Brass
120.5,0.2803738317757009,72,100,Brass
120.5,0.18691588785046725,71,51,Brass
120.5,0.14018691588785046,68,100,Brass
120.5,0.14018691588785046,64,100,Brass
120.5,0.14018691588785046,62,100,Brass
120.5,0.14018691588785046,59,100,Brass
120.5,0.14018691588785046,36,100,Brass
121.0,0.14018691588785046,40,108,Brass
121.0,0.2803738317757009,74,100,Brass
121.0,0.2803738317757009,86,86,Brass
121.0,0.2803738317757009,80,86,Brass
121.0,0.14018691588785046,58,105,Brass
121.0,0.14018691588785046,61,105,Brass
121.0,0.14018691588785046,64,105,Brass
121.0,0.14018691588785046,67,105,Brass
121.0,0.14018691588785046,46,106,Brass
121.0,0.14018691588785046,40,106,Brass
121.5,0.14018691588785046,40,108,Brass
121.5,0.2803738317757009,76,100,Brass
121.5,0.14018691588785046,67,100,Brass
121.5,0.14018691588785046,64,100,Brass
121.5,0.14018691588785046,61,100,Brass
121.5,0.14018691588785046,58,100,Brass
121.5,0.14018691588785046,36,100,Brass
122.0,0.14018691588785046,38,108,Brass
122.0,0.2803738317757009,72,100,Brass
122.0,0.9813084112149532,93,58,Brass
122.0,0.9813084112149532,84,58,Brass
122.0,0.9813084112149532,86,58,Brass
122.0,0.9813084112149532,90,58,Brass
122.0,0.14018691588785046,57,105,Brass
122.0,0.14018691588785046,60,105,Brass
122.0,0.14018691588785046,62,105,Brass
122.0,0.14018691588785046,66,105,Brass
122.0,0.14018691588785046,36,119,Brass
122.0,0.14018691588785046,42,119,Brass
122.0,0.14018691588785046,40,119,Brass
123.5,0.2803738317757009,36,108,Brass
123.5,0.2803738317757009,69,100,Brass
123.75,0.14018691588785046,74,45,Brass
124.0,0.2803738317757009,38,108,Brass
124.0,0.14018691588785046,74,100,Brass
124.0,0.0,93,48,Brass
124.0,0.0,90,48,Brass
124.25,0.14018691588785046,74,100,Brass
124.25,0.14018691588785046,84,76,Brass
124.25,0.14018691588785046,93,76,Brass
124.25,0.14018691588785046,90,76,Brass
124.25,0.14018691588785046,86,76,Brass
124.5,0.2803738317757009,40,108,Brass
124.5,0.8411214953271027,72,100,Brass
124.75,0.14018691588785046,74,57,Brass
125.0,0.5607476635514018,36,108,Brass
125.0,0.14018691588785046,90,57,Brass
125.0,0.14018691588785046,84,57,Brass
125.0,0.0,93,46,Brass
125.0,0.0,84,46,Brass
125.0,0.14018691588785046,40,120,Brass
125.25,0.0,90,68,Brass
125.25,0.0,93,68,Brass
125.25,0.0,86,68,Brass
125.25,0.0,84,68,Brass
126.0,0.42056074766355134,33,120,Brass
126.0,1.6822429906542054,69,100,Brass
126.0,1.4018691588785046,81,64,Brass
126.0,1.4018691588785046,91,64,Brass
126.0,1.4018691588785046,88,64,Brass
126.0,1.4018691588785046,85,64,Brass
126.0,0.42056074766355134,57,105,Brass
126.0,0.42056074766355134,61,105,Brass
126.0,0.42056074766355134,64,105,Brass
126.0,0.42056074766355134,67,105,Brass
126.0,0.14018691588785046,36,96,Brass
126.0,0.14018691588785046,49,96,Brass
126.75,0.14018691588785046,33,110,Brass
126.75,0.14018691588785046,67,85,Brass
126.75,0.14018691588785046,64,85,Brass
126.75,0.14018691588785046,61,85,Brass
126.75,0.14018691588785046,57,85,Brass
127.0,0.14018691588785046,33,110,Brass
127.0,0.0,57,95,Brass
127.0,0.0,61,95,Brass
127.0,0.0,64,95,Brass
127.0,0.0,67,95,Brass
127.0,0.14018691588785046,42,93,Brass
127.0,0.14018691588785046,40,93,Brass
127.5,0.14018691588785046,38,95,Brass
127.5,0.14018691588785046,57,95,Brass
127.5,0.14018691588785046,61,95,Brass
127.5,0.14018691588785046,64,95,Brass
127.5,0.14018691588785046,67,95,Brass
127.5,0.14018691588785046,42,86,Brass
127.75,0.14018691588785046,40,90,Brass
127.75,0.14018691588785046,67,85,Brass
127.75,0.14018691588785046,64,85,Brass
127.75,0.14018691588785046,61,85,Brass
127.75,0.14018691588785046,57,85,Brass
128.0,0.14018691588785046,43,110,Brass
128.0,0.14018691588785046,36,93,Brass
128.0,0.14018691588785046,42,93,Brass
128.25,0.14018691588785046,67,90,Brass
128.25,0.14018691588785046,64,90,Brass
128.25,0.14018691588785046,61,90,Brass
128.25,0.14018691588785046,57,90,Brass
128.5,0.2803738317757009,43,110,Brass
128.5,0.2803738317757009,79,78,Brass
128.5,0.0,57,80,Brass
128.5,0.0,61,80,Brass
128.5,0.0,64,80,Brass
128.5,0.0,67,80,Brass
128.5,0.14018691588785046,42,86,Brass
129.0,0.2803738317757009,40,105,Brass
129.0,0.2803738317757009,85,84,Brass
129.0,0.2803738317757009,88,84,Brass
129.0,0.2803738317757009,91,84,Brass
129.0,0.2803738317757009,81,84,Brass
129.0,0.14018691588785046,57,95,Brass
129.0,0.14018691588785046,61,95,Brass
129.0,0.14018691588785046,64,95,Brass
129.0,0.14018691588785046,67,95,Brass
129.0,0.14018691588785046,42,93,Brass
129.0,0.14018691588785046,40,93,Brass
129.25,0.0,67,85,Brass
129.25,0.0,64,85,Brass
129.25,0.0,61,85,Brass
129.25,0.0,57,85,Brass
129.5,0.2803738317757009,45,110,Brass
129.5,0.14018691588785046,42,86,Brass
130.0,0.14018691588785046,33,108,Brass
130.0,0.2803738317757009,85,62,Brass
130.0,0.2803738317757009,79,62,Brass
130.0,0.14018691588785046,57,105,Brass
130.0,0.14018691588785046,61,105,Brass
130.0,0.14018691588785046,64,105,Brass
130.0,0.14018691588785046,67,105,Brass
130.0,0.14018691588785046,36,101,Brass
130.0,0.14018691588785046,42,101,Brass
130.0,0.14018691588785046,40,101,Brass
131.75,0.14018691588785046,47,90,Brass
132.0,0.14018691588785046,47,110,Brass
132.5,0.14018691588785046,64,120,Brass
132.75,0.14018691588785046,66,115,Brass
132.75,0.14018691588785046,36,110,Brass
133.0,0.14018691588785046,69,115,Brass
133.0,0.14018691588785046,40,107,Brass
133.25,0.14018691588785046,64,120,Brass
133.25,0.14018691588785046,36,110,Brass
133.5,0.2803738317757009,43,127,Brass
133.5,0.14018691588785046,66,115,Brass
133.75,0.14018691588785046,69,115,Brass
134.0,0.42056074766355134,33,120,Brass
134.0,0.14018691588785046,45,127,Brass
134.0,1.308411214953271,85,82,Brass
134.0,1.4018691588785046,79,60,Brass
134.0,0.42056074766355134,57,105,Brass
134.0,0.42056074766355134,61,105,Brass
134.0,0.42056074766355134,64,105,Brass
134.0,0.42056074766355134,67,105,Brass
134.0,0.14018691588785046,64,120,Brass
134.0,0.14018691588785046,49,100,Brass
134.0,0.14018691588785046,36,100,Brass
134.25,0.2803738317757009,66,115,Brass
134.5,0.42056074766355134,69,115,Brass
134.5,0.14018691588785046,51,90,Brass
134.75,0.14018691588785046,33,110,Brass
134.75,0.14018691588785046,67,85,Brass
134.75,0.14018691588785046,64,85,Brass
134.75,0.14018691588785046,61,85,Brass
134.75,0.14018691588785046,57,85,Brass
134.75,0.14018691588785046,64,120,Brass
135.0,0.42056074766355134,73,121,Brass
135.0,0.42056074766355134,67,121,Brass
135.0,0.42056074766355134,76,121,Brass
135.0,0.14018691588785046,33,110,Brass
135.0,0.0,57,95,Brass
135.0,0.0,61,95,Brass
135.0,0.0,64,95,Brass
135.0,0.0,67,95,Brass
135.0,0.2803738317757009,66,115,Brass
135.0,0.14018691588785046,42,96,Brass
135.0,0.14018691588785046,40,96,Brass
135.25,0.42056074766355134,69,115,Brass
135.5,0.14018691588785046,38,95,Brass
135.5,0.14018691588785046,57,95,Brass
135.5,0.14018691588785046,61,95,Brass
135.5,0.14018691588785046,64,95,Brass
135.5,0.14018691588785046,67,95,Brass
135.5,0.14018691588785046,64,120,Brass
135.5,0.14018691588785046,36,92,Brass
135.5,0.14018691588785046,51,92,Brass
135.75,0.14018691588785046,72,104,Brass
135.75,0.14018691588785046,66,104,Brass
135.75,0.14018691588785046,75,104,Brass
135.75,0.14018691588785046,40,90,Brass
135.75,0.14018691588785046,67,85,Brass
135.75,0.14018691588785046,64,85,Brass
135.75,0.14018691588785046,61,85,Brass
135.75,0.14018691588785046,57,85,Brass
135.75,0.2803738317757009,66,115,Brass
136.0,0.14018691588785046,67,113,Brass
136.0,0.14018691588785046,73,113,Brass
136.0,0.14018691588785046,76,113,Brass
136.0,0.14018691588785046,43,110,Brass
136.0,0.42056074766355134,69,115,Brass
136.0,0.14018691588785046,42,98,Brass
136.0,0.14018691588785046,36,98,Brass
136.25,0.14018691588785046,67,90,Brass
136.25,0.14018691588785046,64,90,Brass
136.25,0.14018691588785046,61,90,Brass
136.25,0.14018691588785046,57,90,Brass
136.25,0.14018691588785046,64,120,Brass
136.5,0.2803738317757009,43,110,Brass
136.5,0.18691588785046725,69,51,Brass
136.5,0.0,57,80,Brass
136.5,0.0,61,80,Brass
136.5,0.0,64,80,Brass
136.5,0.0,67,80,Brass
136.5,0.2803738317757009,66,115,Brass
136.5,0.14018691588785046,51,90,Brass
136.75,0.14018691588785046,69,115,Brass
137.0,0.2803738317757009,40,105,Brass
137.0,0.2803738317757009,85,86,Brass
137.0,0.2803738317757009,79,86,Brass
137.0,0.14018691588785046,57,95,Brass
137.0,0.14018691588785046,61,95,Brass
137.0,0.14018691588785046,64,95,Brass
137.0,0.14018691588785046,67,95,Brass
137.0,0.2803738317757009,69,120,Brass
137.0,0.14018691588785046,42,96,Brass
137.0,0.14018691588785046,40,96,Brass
137.25,0.0,67,85,Brass
137.25,0.0,64,85,Brass
137.25,0.0,61,85,Brass
137.25,0.0,57,85,Brass
137.5,0.2803738317757009,45,110,Brass
137.5,0.2803738317757009,43,127,Brass
137.5,0.18691588785046725,71,115,Brass
137.5,0.14018691588785046,51,90,Brass
138.0,0.42056074766355134,33,120,Brass
138.0,0.14018691588785046,45,127,Brass
138.0,1.1214953271028036,81,65,Brass
138.0,1.1214953271028036,88,65,Brass
138.0,1.1214953271028036,85,65,Brass
138.0,1.1214953271028036,79,65,Brass
138.0,0.42056074766355134,57,105,Brass
138.0,0.42056074766355134,61,105,Brass
138.0,0.42056074766355134,64,105,Brass
138.0,0.42056074766355134,67,105,Brass
138.0,1.1214953271028036,71,120,Brass
138.0,0.14018691588785046,36,98,Brass
138.0,0.14018691588785046,42,98,Brass
138.5,0.14018691588785046,51,90,Brass
138.75,0.14018691588785046,33,110,Brass
138.75,0.14018691588785046,67,85,Brass
138.75,0.14018691588785046,64,85,Brass
138.75,0.14018691588785046,61,85,Brass
138.75,0.14018691588785046,57,85,Brass
139.0,0.42056074766355134,67,119,Brass
139.0,0.42056074766355134,73,119,Brass
139.0,0.42056074766355134,76,119,Brass
139.0,0.14018691588785046,33,110,Brass
139.0,0.0,57,95,Brass
139.0,0.0,61,95,Brass
139.0,0.0,64,95,Brass
139.0,0.0,67,95,Brass
139.0,0.14018691588785046,42,96,Brass
139.0,0.14018691588785046,40,96,Brass
139.5,0.14018691588785046,38,95,Brass
139.5,0.14018691588785046,57,95,Brass
139.5,0.14018691588785046,61,95,Brass
139.5,0.14018691588785046,64,95,Brass
139.5,0.14018691588785046,67,95,Brass
139.5,0.14018691588785046,36,92,Brass
139.5,0.14018691588785046,51,92,Brass
139.75,0.14018691588785046,72,104,Brass
139.75,0.14018691588785046,66,104,Brass
139.75,0.14018691588785046,75,104,Brass
139.75,0.14018691588785046,40,90,Brass
139.75,0.14018691588785046,67,85,Brass
139.75,0.14018691588785046,64,85,Brass
139.75,0.14018691588785046,61,85,Brass
139.75,0.14018691588785046,57,85,Brass
140.0,0.14018691588785046,76,110,Brass
140.0,0.14018691588785046,73,110,Brass
140.0,0.14018691588785046,67,110,Brass
140.0,0.14018691588785046,43,110,Brass
140.0,0.2803738317757009,71,120,Brass
140.0,0.14018691588785046,42,98,Brass
140.0,0.14018691588785046,36,98,Brass
140.25,0.14018691588785046,72,107,Brass
140.25,0.14018691588785046,66,107,Brass
140.25,0.14018691588785046,75,107,Brass
140.25,0.0,85,69,Brass
140.25,0.0,81,69,Brass
140.25,0.0,79,69,Brass
140.25,0.0,88,69,Brass
140.25,0.14018691588785046,67,90,Brass
140.25,0.14018691588785046,64,90,Brass
140.25,0.14018691588785046,61,90,Brass
140.25,0.14018691588785046,57,90,Brass
140.5,0.14018691588785046,73,110,Brass
140.5,0.14018691588785046,76,110,Brass
140.5,0.14018691588785046,67,110,Brass
140.5,0.2803738317757009,43,110,Brass
140.5,0.0,57,80,Brass
140.5,0.0,61,80,Brass
140.5,0.0,64,80,Brass
140.5,0.0,67,80,Brass
140.5,0.18691588785046725,71,115,Brass
140.5,0.14018691588785046,51,92,Brass
140.5,0.14018691588785046,36,92,Brass
140.75,0.14018691588785046,69,59,Brass
141.0,0.2803738317757009,40,105,Brass
141.0,0.2803738317757009,81,82,Brass
141.0,0.2803738317757009,85,82,Brass
141.0,0.2803738317757009,79,82,Brass
141.0,0.2803738317757009,88,82,Brass
141.0,0.14018691588785046,57,95,Brass
141.0,0.14018691588785046,61,95,Brass
141.0,0.14018691588785046,64,95,Brass
141.0,0.14018691588785046,67,95,Brass
141.0,0.2803738317757009,71,120,Brass
141.0,0.14018691588785046,42,96,Brass
141.0,0.14018691588785046,40,96,Brass
141.25,0.0,67,85,Brass
141.25,0.0,64,85,Brass
141.25,0.0,61,85,Brass
141.25,0.0,57,85,Brass
141.5,0.2803738317757009,45,110,Brass
141.5,0.2803738317757009,43,127,Brass
141.5,0.18691588785046725,69,115,Brass
141.5,0.14018691588785046,51,90,Brass
142.0,0.42056074766355134,33,120,Brass
142.0,0.14018691588785046,45,127,Brass
142.0,1.308411214953271,88,56,Brass
142.0,1.308411214953271,85,56,Brass
142.0,1.308411214953271,79,56,Brass
142.0,1.261682242990654,81,62,Brass
142.0,0.42056074766355134,57,105,Brass
142.0,0.42056074766355134,61,105,Brass
142.0,0.42056074766355134,64,105,Brass
142.0,0.42056074766355134,67,105,Brass
142.0,0.14018691588785046,71,120,Brass
142.0,0.14018691588785046,36,98,Brass
142.0,0.14018691588785046,42,98,Brass
142.25,2.05607476635514,69,115,Brass
142.5,0.14018691588785046,51,90,Brass
142.75,0.14018691588785046,33,110,Brass
142.75,0.14018691588785046,67,85,Brass
142.75,0.14018691588785046,64,85,Brass
142.75,0.14018691588785046,61,85,Brass
142.75,0.14018691588785046,57,85,Brass
143.0,0.42056074766355134,73,121,Brass
143.0,0.42056074766355134,67,121,Brass
143.0,0.42056074766355134,76,121,Brass
143.0,0.14018691588785046,33,110,Brass
143.0,0.0,57,95,Brass
143.0,0.0,61,95,Brass
143.0,0.0,64,95,Brass
143.0,0.0,67,95,Brass
143.0,0.14018691588785046,42,96,Brass
143.0,0.14018691588785046,40,96,Brass
143.5,0.14018691588785046,38,95,Brass
143.5,0.14018691588785046,57,95,Brass
143.5,0.14018691588785046,61,95,Brass
143.5,0.14018691588785046,64,95,Brass
143.5,0.14018691588785046,67,95,Brass
143.5,0.14018691588785046,36,92,Brass
143.5,0.14018691588785046,51,92,Brass
143.75,0.14018691588785046,72,104,Brass
143.75,0.14018691588785046,66,104,Brass
143.75,0.14018691588785046,75,104,Brass
143.75,0.14018691588785046,40,90,Brass
143.75,0.14018691588785046,67,85,Brass
143.75,0.14018691588785046,64,85,Brass
143.75,0.14018691588785046,61,85,Brass
143.75,0.14018691588785046,57,85,Brass
144.0,0.14018691588785046,67,113,Brass
144.0,0.14018691588785046,73,113,Brass
144.0,0.14018691588785046,76,113,Brass
144.0,0.14018691588785046,43,110,Brass
144.0,0.14018691588785046,42,98,Brass
144.0,0.14018691588785046,36,98,Brass
144.25,0.14018691588785046,67,90,Brass
144.25,0.14018691588785046,64,90,Brass
144.25,0.14018691588785046,61,90,Brass
144.25,0.14018691588785046,57,90,Brass
144.5,0.2803738317757009,43,110,Brass
144.5,0.2803738317757009,69,49,Brass
144.5,0.0,57,80,Brass
144.5,0.0,61,80,Brass
144.5,0.0,64,80,Brass
144.5,0.0,67,80,Brass
144.5,0.14018691588785046,51,92,Brass
144.5,0.14018691588785046,36,92,Brass
145.0,0.2803738317757009,40,105,Brass
145.0,0.18691588785046725,85,85,Brass
145.0,0.18691588785046725,88,85,Brass
145.0,0.18691588785046725,79,85,Brass
145.0,0.18691588785046725,81,85,Brass
145.0,0.14018691588785046,57,95,Brass
145.0,0.14018691588785046,61,95,Brass
145.0,0.14018691588785046,64,95,Brass
145.0,0.14018691588785046,67,95,Brass
145.0,0.14018691588785046,42,96,Brass
145.0,0.14018691588785046,40,96,Brass
145.25,0.0,67,85,Brass
145.25,0.0,64,85,Brass
145.25,0.0,61,85,Brass
145.25,0.0,57,85,Brass
145.5,0.2803738317757009,45,110,Brass
145.5,0.2803738317757009,43,127,Brass
145.5,0.14018691588785046,79,70,Brass
145.5,0.14018691588785046,81,70,Brass
145.5,0.14018691588785046,88,70,Brass
145.5,0.14018691588785046,85,70,Brass
145.5,0.14018691588785046,51,92,Brass
145.5,0.14018691588785046,36,92,Brass
146.0,0.42056074766355134,33,120,Brass
146.0,0.14018691588785046,45,127,Brass
146.0,1.1214953271028036,85,65,Brass
146.0,1.1214953271028036,79,65,Brass
146.0,1.1214953271028036,81,65,Brass
146.0,1.1214953271028036,88,65,Brass
146.0,0.42056074766355134,57,105,Brass
146.0,0.42056074766355134,61,105,Brass
146.0,0.42056074766355134,64,105,Brass
146.0,0.42056074766355134,67,105,Brass
146.0,0.14018691588785046,42,98,Brass
146.0,0.14018691588785046,36,98,Brass
146.5,0.14018691588785046,51,90,Brass
146.75,0.14018691588785046,33,110,Brass
146.75,0.14018691588785046,67,85,Brass
146.75,0.14018691588785046,64,85,Brass
146.75,0.14018691588785046,61,85,Brass
146.75,0.14018691588785046,57,85,Brass
147.0,0.42056074766355134,67,119,Brass
147.0,0.42056074766355134,73,119,Brass
147.0,0.42056074766355134,76,119,Brass
147.0,0.14018691588785046,33,110,Brass
147.0,0.0,57,95,Brass
147.0,0.0,61,95,Brass
147.0,0.0,64,95,Brass
147.0,0.0,67,95,Brass
147.0,0.14018691588785046,42,96,Brass
147.0,0.14018691588785046,40,96,Brass
147.5,0.14018691588785046,38,95,Brass
147.5,0.14018691588785046,57,95,Brass
147.5,0.14018691588785046,61,95,Brass
147.5,0.14018691588785046,64,95,Brass
147.5,0.14018691588785046,67,95,Brass
147.5,0.14018691588785046,36,92,Brass
147.5,0.14018691588785046,51,92,Brass
147.75,0.14018691588785046,72,104,Brass
147.75,0.14018691588785046,66,104,Brass
147.75,0.14018691588785046,75,104,Brass
147.75,0.14018691588785046,40,90,Brass
147.75,0.14018691588785046,67,85,Brass
147.75,0.14018691588785046,64,85,Brass
147.75,0.14018691588785046,61,85,Brass
147.75,0.14018691588785046,57,85,Brass
148.0,0.14018691588785046,76,110,Brass
148.0,0.14018691588785046,73,110,Brass
148.0,0.14018691588785046,67,110,Brass
148.0,0.14018691588785046,43,110,Brass
148.0,0.14018691588785046,42,98,Brass
148.0,0.14018691588785046,36,98,Brass
148.25,0.14018691588785046,72,107,Brass
148.25,0.14018691588785046,66,107,Brass
148.25,0.14018691588785046,75,107,Brass
148.25,0.0,81,69,Brass
148.25,0.0,79,69,Brass
148.25,0.0,88,69,Brass
148.25,0.0,85,69,Brass
148.25,0.14018691588785046,67,90,Brass
148.25,0.14018691588785046,64,90,Brass
148.25,0.14018691588785046,61,90,Brass
148.25,0.14018691588785046,57,90,Brass
148.5,0.14018691588785046,73,110,Brass
148.5,0.14018691588785046,76,110,Brass
148.5,0.14018691588785046,67,110,Brass
148.5,0.2803738317757009,43,110,Brass
148.5,0.0,57,80,Brass
148.5,0.0,61,80,Brass
148.5,0.0,64,80,Brass
148.5,0.0,67,80,Brass
148.5,0.2803738317757009,54,120,Brass
148.5,0.14018691588785046,51,90,Brass
148.75,0.14018691588785046,69,59,Brass
149.0,0.2803738317757009,40,105,Brass
149.0,0.2803738317757009,85,82,Brass
149.0,0.2803738317757009,79,82,Brass
149.0,0.2803738317757009,81,82,Brass
149.0,0.2803738317757009,88,82,Brass
149.0,0.14018691588785046,57,95,Brass
149.0,0.14018691588785046,61,95,Brass
149.0,0.14018691588785046,64,95,Brass
149.0,0.14018691588785046,67,95,Brass
149.0,0.14018691588785046,57,120,Brass
149.0,0.14018691588785046,42,96,Brass
149.0,0.14018691588785046,40,96,Brass
149.25,0.0,67,85,Brass
149.25,0.0,64,85,Brass
149.25,0.0,61,85,Brass
149.25,0.0,57,85,Brass
149.5,0.2803738317757009,45,110,Brass
149.5,0.2803738317757009,48,127,Brass
149.5,0.14018691588785046,59,120,Brass
149.5,0.14018691588785046,51,91,Brass
149.5,0.14018691588785046,40,91,Brass
149.75,0.14018691588785046,40,107,Brass
150.0,0.42056074766355134,38,120,Brass
150.0,0.14018691588785046,50,127,Brass
150.0,1.308411214953271,90,82,Brass
150.0,1.4018691588785046,84,60,Brass
150.0,0.42056074766355134,57,105,Brass
150.0,0.42056074766355134,60,105,Brass
150.0,0.42056074766355134,62,105,Brass
150.0,0.42056074766355134,66,105,Brass
150.0,0.2803738317757009,61,120,Brass
150.0,0.14018691588785046,49,100,Brass
150.0,0.14018691588785046,36,100,Brass
150.5,0.14018691588785046,61,115,Brass
150.5,0.14018691588785046,51,90,Brass
150.75,0.14018691588785046,38,110,Brass
150.75,0.14018691588785046,66,85,Brass
150.75,0.14018691588785046,62,85,Brass
150.75,0.14018691588785046,60,85,Brass
150.75,0.14018691588785046,57,85,Brass
150.75,0.14018691588785046,66,120,Brass
151.0,0.42056074766355134,78,121,Brass
151.0,0.42056074766355134,72,121,Brass
151.0,0.42056074766355134,81,121,Brass
151.0,0.14018691588785046,38,110,Brass
151.0,0.0,57,95,Brass
151.0,0.0,60,95,Brass
151.0,0.0,62,95,Brass
151.0,0.0,66,95,Brass
151.0,0.14018691588785046,61,115,Brass
151.0,0.14018691588785046,42,96,Brass
151.0,0.14018691588785046,40,96,Brass
151.25,0.7009345794392523,66,120,Brass
151.5,0.14018691588785046,43,95,Brass
151.5,0.14018691588785046,57,95,Brass
151.5,0.14018691588785046,60,95,Brass
151.5,0.14018691588785046,62,95,Brass
151.5,0.14018691588785046,66,95,Brass
151.5,0.14018691588785046,36,92,Brass
151.5,0.14018691588785046,51,92,Brass
151.75,0.14018691588785046,71,104,Brass
151.75,0.14018691588785046,77,104,Brass
151.75,0.14018691588785046,80,104,Brass
151.75,0.14018691588785046,45,90,Brass
151.75,0.14018691588785046,66,85,Brass
151.75,0.14018691588785046,62,85,Brass
151.75,0.14018691588785046,60,85,Brass
151.75,0.14018691588785046,57,85,Brass
152.0,0.14018691588785046,72,113,Brass
152.0,0.14018691588785046,81,113,Brass
152.0,0.14018691588785046,78,113,Brass
152.0,0.14018691588785046,48,110,Brass
152.0,0.14018691588785046,42,98,Brass
152.0,0.14018691588785046,36,98,Brass
152.25,0.14018691588785046,66,90,Brass
152.25,0.14018691588785046,62,90,Brass
152.25,0.14018691588785046,60,90,Brass
152.25,0.14018691588785046,57,90,Brass
152.5,0.2803738317757009,48,110,Brass
152.5,0.18691588785046725,74,51,Brass
152.5,0.0,57,80,Brass
152.5,0.0,60,80,Brass
152.5,0.0,62,80,Brass
152.5,0.0,66,80,Brass
152.5,0.14018691588785046,66,120,Brass
152.5,0.14018691588785046,51,90,Brass
152.75,0.14018691588785046,64,115,Brass
153.0,0.2803738317757009,45,105,Brass
153.0,0.2803738317757009,90,86,Brass
153.0,0.2803738317757009,84,86,Brass
153.0,0.14018691588785046,57,95,Brass
153.0,0.14018691588785046,60,95,Brass
153.0,0.14018691588785046,62,95,Brass
153.0,0.14018691588785046,66,95,Brass
153.0,0.14018691588785046,61,120,Brass
153.0,0.14018691588785046,42,96,Brass
153.0,0.14018691588785046,40,96,Brass
153.25,0.0,66,85,Brass
153.25,0.0,62,85,Brass
153.25,0.0,60,85,Brass
153.25,0.0,57,85,Brass
153.25,0.14018691588785046,59,115,Brass
153.5,0.2803738317757009,50,110,Brass
153.5,0.2803738317757009,48,127,Brass
153.5,0.14018691588785046,57,120,Brass
153.5,0.14018691588785046,51,90,Brass
153.75,0.14018691588785046,54,115,Brass
154.0,0.42056074766355134,38,120,Brass
154.0,0.14018691588785046,50,127,Brass
154.0,1.1214953271028036,90,65,Brass
154.0,1.1214953271028036,84,65,Brass
154.0,1.1214953271028036,86,65,Brass
154.0,1.1214953271028036,93,65,Brass
154.0,0.42056074766355134,57,105,Brass
154.0,0.42056074766355134,60,105,Brass
154.0,0.42056074766355134,62,105,Brass
154.0,0.42056074766355134,66,105,Brass
154.0,0.2803738317757009,61,120,Brass
154.0,0.14018691588785046,36,98,Brass
154.0,0.14018691588785046,42,98,Brass
154.5,0.14018691588785046,54,115,Brass
154.5,0.14018691588785046,51,90,Brass
154.75,0.14018691588785046,38,110,Brass
154.75,0.14018691588785046,66,85,Brass
154.75,0.14018691588785046,62,85,Brass
154.75,0.14018691588785046,60,85,Brass
154.75,0.14018691588785046,57,85,Brass
154.75,1.6822429906542054,57,115,Brass
155.0,0.42056074766355134,78,119,Brass
155.0,0.42056074766355134,72,119,Brass
155.0,0.42056074766355134,81,119,Brass
155.0,0.14018691588785046,38,110,Brass
155.0,0.0,57,95,Brass
155.0,0.0,60,95,Brass
155.0,0.0,62,95,Brass
155.0,0.0,66,95,Brass
155.0,0.14018691588785046,42,96,Brass
155.0,0.14018691588785046,40,96,Brass
155.5,0.14018691588785046,43,95,Brass
155.5,0.14018691588785046,57,95,Brass
155.5,0.14018691588785046,60,95,Brass
155.5,0.14018691588785046,62,95,Brass
155.5,0.14018691588785046,66,95,Brass
155.5,0.14018691588785046,36,92,Brass
155.5,0.14018691588785046,51,92,Brass
155.75,0.14018691588785046,77,104,Brass
155.75,0.14018691588785046,80,104,Brass
155.75,0.14018691588785046,71,104,Brass
155.75,0.14018691588785046,45,90,Brass
155.75,0.14018691588785046,66,85,Brass
155.75,0.14018691588785046,62,85,Brass
155.75,0.14018691588785046,60,85,Brass
155.75,0.14018691588785046,57,85,Brass
156.0,0.14018691588785046,81,110,Brass
156.0,0.14018691588785046,72,110,Brass
156.0,0.14018691588785046,78,110,Brass
156.0,0.14018691588785046,48,110,Brass
156.0,0.14018691588785046,42,98,Brass
156.0,0.14018691588785046,36,98,Brass
156.25,0.14018691588785046,80,107,Brass
156.25,0.14018691588785046,77,107,Brass
156.25,0.14018691588785046,71,107,Brass
156.25,0.0,86,69,Brass
156.25,0.0,84,69,Brass
156.25,0.0,93,69,Brass
156.25,0.0,90,69,Brass
156.25,0.14018691588785046,66,90,Brass
156.25,0.14018691588785046,62,90,Brass
156.25,0.14018691588785046,60,90,Brass
156.25,0.14018691588785046,57,90,Brass
156.5,0.14018691588785046,72,110,Brass
156.5,0.14018691588785046,81,110,Brass
156.5,0.14018691588785046,78,110,Brass
156.5,0.2803738317757009,48,110,Brass
156.5,0.0,57,80,Brass
156.5,0.0,60,80,Brass
156.5,0.0,62,80,Brass
156.5,0.0,66,80,Brass
156.5,0.14018691588785046,51,92,Brass
156.5,0.14018691588785046,36,92,Brass
156.75,0.14018691588785046,74,59,Brass
157.0,0.2803738317757009,45,105,Brass
157.0,0.2803738317757009,90,82,Brass
157.0,0.2803738317757009,84,82,Brass
157.0,0.2803738317757009,86,82,Brass
157.0,0.2803738317757009,93,82,Brass
157.0,0.14018691588785046,57,95,Brass
157.0,0.14018691588785046,60,95,Brass
157.0,0.14018691588785046,62,95,Brass
157.0,0.14018691588785046,66,95,Brass
157.0,0.14018691588785046,42,96,Brass
157.0,0.14018691588785046,40,96,Brass
157.25,0.0,66,85,Brass
157.25,0.0,62,85,Brass
157.25,0.0,60,85,Brass
157.25,0.0,57,85,Brass
157.5,0.2803738317757009,50,110,Brass
157.5,0.2803738317757009,43,127,Brass
157.5,0.14018691588785046,51,90,Brass
158.0,0.42056074766355134,33,120,Brass
158.0,0.14018691588785046,45,127,Brass
158.0,1.1214953271028036,88,65,Brass
158.0,1.1214953271028036,85,65,Brass
158.0,1.1214953271028036,79,65,Brass
158.0,1.1214953271028036,81,65,Brass
158.0,0.42056074766355134,57,105,Brass
158.0,0.42056074766355134,61,105,Brass
158.0,0.42056074766355134,64,105,Brass
158.0,0.42056074766355134,67,105,Brass
158.0,0.14018691588785046,69,120,Brass
158.0,0.14018691588785046,36,98,Brass
158.0,0.14018691588785046,42,98,Brass
158.25,0.14018691588785046,69,115,Brass
158.5,0.2803738317757009,61,115,Brass
158.5,0.14018691588785046,51,90,Brass
158.75,0.14018691588785046,33,110,Brass
158.75,0.14018691588785046,67,85,Brass
158.75,0.14018691588785046,64,85,Brass
158.75,0.14018691588785046,61,85,Brass
158.75,0.14018691588785046,57,85,Brass
159.0,0.42056074766355134,67,121,Brass
159.0,0.42056074766355134,73,121,Brass
159.0,0.42056074766355134,76,121,Brass
159.0,0.14018691588785046,33,110,Brass
159.0,0.0,57,95,Brass
159.0,0.0,61,95,Brass
159.0,0.0,64,95,Brass
159.0,0.0,67,95,Brass
159.0,0.2803738317757009,57,115,Brass
159.0,0.14018691588785046,42,96,Brass
159.0,0.14018691588785046,40,96,Brass
159.5,0.14018691588785046,38,95,Brass
159.5,0.14018691588785046,57,95,Brass
159.5,0.14018691588785046,61,95,Brass
159.5,0.14018691588785046,64,95,Brass
159.5,0.14018691588785046,67,95,Brass
159.5,0.14018691588785046,69,120,Brass
159.5,0.14018691588785046,36,92,Brass
159.5,0.14018691588785046,51,92,Brass
159.75,0.14018691588785046,72,104,Brass
159.75,0.14018691588785046,75,104,Brass
159.75,0.14018691588785046,66,104,Brass
159.75,0.14018691588785046,40,90,Brass
159.75,0.14018691588785046,67,85,Brass
159.75,0.14018691588785046,64,85,Brass
159.75,0.14018691588785046,61,85,Brass
159.75,0.14018691588785046,57,85,Brass
159.75,0.14018691588785046,69,115,Brass
160.0,0.14018691588785046,67,113,Brass
160.0,0.14018691588785046,76,113,Brass
160.0,0.14018691588785046,73,113,Brass
160.0,0.14018691588785046,43,110,Brass
160.0,0.2803738317757009,61,115,Brass
160.0,0.14018691588785046,42,98,Brass
160.0,0.14018691588785046,36,98,Brass
160.25,0.0,79,69,Brass
160.25,0.0,88,69,Brass
160.25,0.0,85,69,Brass
160.25,0.0,81,69,Brass
160.25,0.14018691588785046,67,90,Brass
160.25,0.14018691588785046,64,90,Brass
160.25,0.14018691588785046,61,90,Brass
160.25,0.14018691588785046,57,90,Brass
160.5,0.2803738317757009,43,110,Brass
160.5,0.0,57,80,Brass
160.5,0.0,61,80,Brass
160.5,0.0,64,80,Brass
160.5,0.0,67,80,Brass
160.5,0.2803738317757009,57,115,Brass
160.5,0.14018691588785046,51,92,Brass
160.5,0.14018691588785046,36,92,Brass
160.75,0.14018691588785046,69,59,Brass
161.0,0.2803738317757009,40,105,Brass
161.0,0.2803738317757009,81,82,Brass
161.0,0.2803738317757009,85,82,Brass
161.0,0.2803738317757009,79,82,Brass
161.0,0.2803738317757009,88,82,Brass
161.0,0.14018691588785046,57,95,Brass
161.0,0.14018691588785046,61,95,Brass
161.0,0.14018691588785046,64,95,Brass
161.0,0.14018691588785046,67,95,Brass
161.0,0.14018691588785046,69,120,Brass
161.0,0.14018691588785046,42,96,Brass
161.0,0.14018691588785046,40,96,Brass
161.25,0.0,67,85,Brass
161.25,0.0,64,85,Brass
161.25,0.0,61,85,Brass
161.25,0.0,57,85,Brass
161.25,0.14018691588785046,69,115,Brass
161.5,0.2803738317757009,45,110,Brass
161.5,0.2803738317757009,43,127,Brass
161.5,0.2803738317757009,61,115,Brass
161.5,0.14018691588785046,51,92,Brass
161.5,0.14018691588785046,36,92,Brass
162.0,0.42056074766355134,33,120,Brass
162.0,0.14018691588785046,45,127,Brass
162.0,1.261682242990654,81,62,Brass
162.0,1.308411214953271,88,56,Brass
162.0,1.308411214953271,85,56,Brass
162.0,1.308411214953271,79,56,Brass
162.0,0.42056074766355134,57,105,Brass
162.0,0.42056074766355134,61,105,Brass
162.0,0.42056074766355134,64,105,Brass
162.0,0.42056074766355134,67,105,Brass
162.0,0.14018691588785046,57,115,Brass
162.0,0.14018691588785046,42,98,Brass
162.0,0.14018691588785046,36,98,Brass
162.5,0.14018691588785046,61,115,Brass
162.5,0.14018691588785046,51,90,Brass
162.75,0.14018691588785046,33,110,Brass
162.75,0.14018691588785046,67,85,Brass
162.75,0.14018691588785046,64,85,Brass
162.75,0.14018691588785046,61,85,Brass
162.75,0.14018691588785046,57,85,Brass
162.75,0.14018691588785046,57,120,Brass
163.0,0.42056074766355134,76,119,Brass
163.0,0.42056074766355134,67,119,Brass
163.0,0.42056074766355134,73,119,Brass
163.0,0.14018691588785046,33,110,Brass
163.0,0.0,57,95,Brass
163.0,0.0,61,95,Brass
163.0,0.0,64,95,Brass
163.0,0.0,67,95,Brass
163.0,0.14018691588785046,61,115,Brass
163.0,0.14018691588785046,42,96,Brass
163.0,0.14018691588785046,40,96,Brass
163.5,0.14018691588785046,38,95,Brass
163.5,0.14018691588785046,57,95,Brass
163.5,0.14018691588785046,61,95,Brass
163.5,0.14018691588785046,64,95,Brass
163.5,0.14018691588785046,67,95,Brass
163.5,1.4018691588785046,57,120,Brass
163.5,0.14018691588785046,36,92,Brass
163.5,0.14018691588785046,51,92,Brass
163.75,0.14018691588785046,66,104,Brass
163.75,0.14018691588785046,72,104,Brass
163.75,0.14018691588785046,75,104,Brass
163.75,0.14018691588785046,40,90,Brass
163.75,0.14018691588785046,67,85,Brass
163.75,0.14018691588785046,64,85,Brass
163.75,0.14018691588785046,61,85,Brass
163.75,0.14018691588785046,57,85,Brass
164.0,0.14018691588785046,73,110,Brass
164.0,0.14018691588785046,76,110,Brass
164.0,0.14018691588785046,67,110,Brass
164.0,0.14018691588785046,43,110,Brass
164.0,0.14018691588785046,42,98,Brass
164.0,0.14018691588785046,36,98,Brass
164.25,0.14018691588785046,72,107,Brass
164.25,0.14018691588785046,75,107,Brass
164.25,0.14018691588785046,66,107,Brass
164.25,0.14018691588785046,67,90,Brass
164.25,0.14018691588785046,64,90,Brass
164.25,0.14018691588785046,61,90,Brass
164.25,0.14018691588785046,57,90,Brass
164.5,0.14018691588785046,73,110,Brass
164.5,0.14018691588785046,67,110,Brass
164.5,0.14018691588785046,76,110,Brass
164.5,0.2803738317757009,43,110,Brass
164.5,0.2803738317757009,69,49,Brass
164.5,0.0,57,80,Brass
164.5,0.0,61,80,Brass
164.5,0.0,64,80,Brass
164.5,0.0,67,80,Brass
164.5,0.14018691588785046,40,92,Brass
165.0,0.2803738317757009,40,105,Brass
165.0,0.18691588785046725,81,85,Brass
165.0,0.18691588785046725,85,85,Brass
165.0,0.18691588785046725,88,85,Brass
165.0,0.18691588785046725,79,85,Brass
165.0,0.14018691588785046,57,95,Brass
165.0,0.14018691588785046,61,95,Brass
165.0,0.14018691588785046,64,95,Brass
165.0,0.14018691588785046,67,95,Brass
165.0,0.14018691588785046,42,89,Brass
165.0,0.14018691588785046,40,89,Brass
165.25,0.0,67,85,Brass
165.25,0.0,64,85,Brass
165.25,0.0,61,85,Brass
165.25,0.0,57,85,Brass
165.25,0.14018691588785046,40,107,Brass
165.5,0.2803738317757009,45,110,Brass
165.5,0.14018691588785046,81,70,Brass
165.5,0.14018691588785046,88,70,Brass
165.5,0.14018691588785046,85,70,Brass
165.5,0.14018691588785046,79,70,Brass
166.0,0.42056074766355134,71,118,Brass
166.0,0.42056074766355134,68,118,Brass
166.0,0.2803738317757009,62,113,Brass
166.0,0.42056074766355134,28,120,Brass
166.0,0.9813084112149532,86,58,Brass
166.0,0.9813084112149532,88,58,Brass
166.0,0.9813084112149532,80,58,Brass
166.0,0.9813084112149532,83,58,Brass
166.0,0.42056074766355134,59,105,Brass
166.0,0.42056074766355134,62,105,Brass
166.0,0.42056074766355134,64,105,Brass
166.0,0.42056074766355134,68,105,Brass
166.0,0.5607476635514018,68,120,Brass
166.0,0.14018691588785046,49,100,Brass
166.0,0.14018691588785046,36,100,Brass
166.5,0.14018691588785046,51,90,Brass
166.75,0.14018691588785046,71,122,Brass
166.75,0.14018691588785046,68,122,Brass
166.75,0.14018691588785046,62,122,Brass
166.75,0.14018691588785046,28,110,Brass
166.75,0.14018691588785046,68,85,Brass
166.75,0.14018691588785046,64,85,Brass
166.75,0.14018691588785046,62,85,Brass
166.75,0.14018691588785046,59,85,Brass
167.0,0.14018691588785046,28,110,Brass
167.0,0.0,59,95,Brass
167.0,0.0,62,95,Brass
167.0,0.0,64,95,Brass
167.0,0.0,68,95,Brass
167.0,0.14018691588785046,68,120,Brass
167.0,0.14018691588785046,42,96,Brass
167.0,0.14018691588785046,40,96,Brass
167.25,0.14018691588785046,64,115,Brass
167.5,0.14018691588785046,33,95,Brass
167.5,0.14018691588785046,59,95,Brass
167.5,0.14018691588785046,62,95,Brass
167.5,0.14018691588785046,64,95,Brass
167.5,0.14018691588785046,68,95,Brass
167.5,0.14018691588785046,62,120,Brass
167.5,0.14018691588785046,36,92,Brass
167.5,0.14018691588785046,51,92,Brass
167.75,0.14018691588785046,35,90,Brass
167.75,0.14018691588785046,71,45,Brass
167.75,0.14018691588785046,68,85,Brass
167.75,0.14018691588785046,64,85,Brass
167.75,0.14018691588785046,62,85,Brass
167.75,0.14018691588785046,59,85,Brass
167.75,0.14018691588785046,59,115,Brass
168.0,0.14018691588785046,38,110,Brass
168.0,0.0,86,48,Brass
168.0,0.0,88,48,Brass
168.0,0.14018691588785046,57,120,Brass
168.0,0.14018691588785046,42,98,Brass
168.0,0.14018691588785046,36,98,Brass
168.25,0.14018691588785046,88,75,Brass
168.25,0.14018691588785046,80,75,Brass
168.25,0.14018691588785046,86,75,Brass
168.25,0.14018691588785046,83,76,Brass
168.25,0.14018691588785046,86,76,Brass
168.25,0.14018691588785046,68,90,Brass
168.25,0.14018691588785046,64,90,Brass
168.25,0.14018691588785046,62,90,Brass
168.25,0.14018691588785046,59,90,Brass
168.25,0.14018691588785046,59,115,Brass
168.5,0.2803738317757009,71,124,Brass
168.5,0.2803738317757009,68,124,Brass
168.5,0.42056074766355134,62,127,Brass
168.5,0.2803738317757009,38,110,Brass
168.5,0.0,59,80,Brass
168.5,0.0,62,80,Brass
168.5,0.0,64,80,Brass
168.5,0.0,68,80,Brass
168.5,0.5607476635514018,62,120,Brass
168.5,0.14018691588785046,51,90,Brass
168.75,0.14018691588785046,71,57,Brass
169.0,0.2803738317757009,35,105,Brass
169.0,0.0,80,53,Brass
169.0,0.0,88,53,Brass
169.0,0.0,86,53,Brass
169.0,0.14018691588785046,59,95,Brass
169.0,0.14018691588785046,62,95,Brass
169.0,0.14018691588785046,64,95,Brass
169.0,0.14018691588785046,68,95,Brass
169.0,0.14018691588785046,42,96,Brass
169.0,0.14018691588785046,40,96,Brass
169.25,0.2803738317757009,70,118,Brass
169.25,0.2803738317757009,67,118,Brass
169.25,0.2803738317757009,61,118,Brass
169.25,0.0,83,68,Brass
169.25,0.0,88,68,Brass
169.25,0.0,80,68,Brass
169.25,0.0,86,68,Brass
169.5,0.2803738317757009,40,110,Brass
169.5,0.14018691588785046,67,85,Brass
169.5,0.14018691588785046,63,85,Brass
169.5,0.14018691588785046,61,85,Brass
169.5,0.14018691588785046,58,85,Brass
169.5,0.2803738317757009,64,120,Brass
169.5,0.14018691588785046,51,90,Brass
170.0,0.42056074766355134,60,113,Brass
170.0,0.42056074766355134,69,113,Brass
170.0,0.2803738317757009,66,122,Brass
170.0,0.42056074766355134,38,120,Brass
170.0,1.308411214953271,93,56,Brass
170.0,1.308411214953271,90,56,Brass
170.0,1.308411214953271,84,56,Brass
170.0,1.261682242990654,86,62,Brass
170.0,0.42056074766355134,57,105,Brass
170.0,0.42056074766355134,60,105,Brass
170.0,0.42056074766355134,62,105,Brass
170.0,0.42056074766355134,66,105,Brass
170.0,0.14018691588785046,64,120,Brass
170.0,0.14018691588785046,36,98,Brass
170.0,0.14018691588785046,42,98,Brass
170.25,0.14018691588785046,62,115,Brass
170.5,0.14018691588785046,60,120,Brass
170.5,0.14018691588785046,51,90,Brass
170.75,0.14018691588785046,66,118,Brass
170.75,0.14018691588785046,60,118,Brass
170.75,0.14018691588785046,69,118,Brass
170.75,0.14018691588785046,38,110,Brass
170.75,0.14018691588785046,66,85,Brass
170.75,0.14018691588785046,62,85,Brass
170.75,0.14018691588785046,60,85,Brass
170.75,0.14018691588785046,57,85,Brass
170.75,0.14018691588785046,57,115,Brass
171.0,0.14018691588785046,38,110,Brass
171.0,0.0,57,95,Brass
171.0,0.0,60,95,Brass
171.0,0.0,62,95,Brass
171.0,0.0,66,95,Brass
171.0,0.8411214953271027,60,120,Brass
171.0,0.14018691588785046,42,96,Brass
171.0,0.14018691588785046,40,96,Brass
171.5,0.14018691588785046,43,95,Brass
171.5,0.14018691588785046,57,95,Brass
171.5,0.14018691588785046,60,95,Brass
171.5,0.14018691588785046,62,95,Brass
171.5,0.14018691588785046,66,95,Brass
171.5,0.14018691588785046,36,92,Brass
171.5,0.14018691588785046,51,92,Brass
171.75,0.14018691588785046,45,90,Brass
171.75,0.14018691588785046,66,85,Brass
171.75,0.14018691588785046,62,85,Brass
171.75,0.14018691588785046,60,85,Brass
171.75,0.14018691588785046,57,85,Brass
172.0,0.14018691588785046,48,110,Brass
172.0,0.14018691588785046,42,98,Brass
172.0,0.14018691588785046,36,98,Brass
172.25,0.14018691588785046,66,90,Brass
172.25,0.14018691588785046,62,90,Brass
172.25,0.14018691588785046,60,90,Brass
172.25,0.14018691588785046,57,90,Brass
172.5,0.2803738317757009,48,110,Brass
172.5,0.2803738317757009,74,49,Brass
172.5,0.0,57,80,Brass
172.5,0.0,60,80,Brass
172.5,0.0,62,80,Brass
172.5,0.0,66,80,Brass
172.5,0.2803738317757009,57,120,Brass
172.5,0.14018691588785046,51,92,Brass
172.5,0.14018691588785046,36,92,Brass
173.0,0.2803738317757009,45,105,Brass
173.0,0.18691588785046725,90,85,Brass
173.0,0.18691588785046725,93,85,Brass
173.0,0.18691588785046725,84,85,Brass
173.0,0.18691588785046725,86,85,Brass
173.0,0.14018691588785046,57,95,Brass
173.0,0.14018691588785046,60,95,Brass
173.0,0.14018691588785046,62,95,Brass
173.0,0.14018691588785046,66,95,Brass
173.0,0.2803738317757009,60,120,Brass
173.0,0.14018691588785046,42,96,Brass
173.0,0.14018691588785046,40,96,Brass
173.25,0.0,66,85,Brass
173.25,0.0,62,85,Brass
173.25,0.0,60,85,Brass
173.25,0.0,57,85,Brass
173.5,0.2803738317757009,50,110,Brass
173.5,0.14018691588785046,84,70,Brass
173.5,0.14018691588785046,93,70,Brass
173.5,0.14018691588785046,90,70,Brass
173.5,0.14018691588785046,86,70,Brass
173.5,0.2803738317757009,60,120,Brass
173.5,0.14018691588785046,51,90,Brass
174.0,2.3831775700934577,45,122,Brass
174.0,2.3831775700934577,69,122,Brass
174.0,2.3831775700934577,57,122,Brass
174.0,0.42056074766355134,33,120,Brass
174.0,2.3831775700934577,45,127,Brass
174.0,1.4018691588785046,79,60,Brass
174.0,1.308411214953271,85,82,Brass
174.0,0.42056074766355134,57,105,Brass
174.0,0.42056074766355134,61,105,Brass
174.0,0.42056074766355134,64,105,Brass
174.0,0.42056074766355134,67,105,Brass
174.0,0.42056074766355134,57,110,Brass
174.0,0.14018691588785046,36,98,Brass
174.0,0.14018691588785046,42,98,Brass
174.5,0.2803738317757009,60,100,Brass
174.5,0.14018691588785046,51,90,Brass
174.75,0.14018691588785046,33,110,Brass
174.75,0.14018691588785046,67,85,Brass
174.75,0.14018691588785046,64,85,Brass
174.75,0.14018691588785046,61,85,Brass
174.75,0.14018691588785046,57,85,Brass
174.75,0.3738317757009345,57,110,Brass
175.0,0.14018691588785046,33,110,Brass
175.0,0.0,57,95,Brass
175.0,0.0,61,95,Brass
175.0,0.0,64,95,Brass
175.0,0.0,67,95,Brass
175.0,0.8411214953271027,60,100,Brass
175.0,0.14018691588785046,42,96,Brass
175.0,0.14018691588785046,40,96,Brass
175.5,0.14018691588785046,38,95,Brass
175.5,0.14018691588785046,57,95,Brass
175.5,0.14018691588785046,61,95,Brass
175.5,0.14018691588785046,64,95,Brass
175.5,0.14018691588785046,67,95,Brass
175.5,1.4018691588785046,57,110,Brass
175.5,0.14018691588785046,36,92,Brass
175.5,0.14018691588785046,51,92,Brass
175.75,0.14018691588785046,40,90,Brass
175.75,0.14018691588785046,67,85,Brass
175.75,0.14018691588785046,64,85,Brass
175.75,0.14018691588785046,61,85,Brass
175.75,0.14018691588785046,57,85,Brass
176.0,0.14018691588785046,43,110,Brass
176.0,0.14018691588785046,42,98,Brass
176.0,0.14018691588785046,36,98,Brass
176.25,0.14018691588785046,67,90,Brass
176.25,0.14018691588785046,64,90,Brass
176.25,0.14018691588785046,61,90,Brass
176.25,0.14018691588785046,57,90,Brass
176.5,0.2803738317757009,43,110,Brass
176.5,0.18691588785046725,69,51,Brass
176.5,0.0,57,80,Brass
176.5,0.0,61,80,Brass
176.5,0.0,64,80,Brass
176.5,0.0,67,80,Brass
176.5,0.2803738317757009,64,110,Brass
176.5,0.14018691588785046,51,92,Brass
176.5,0.14018691588785046,36,92,Brass
177.0,0.2803738317757009,40,105,Brass
177.0,0.2803738317757009,85,86,Brass
177.0,0.2803738317757009,79,86,Brass
177.0,0.14018691588785046,57,95,Brass
177.0,0.14018691588785046,61,95,Brass
177.0,0.14018691588785046,64,95,Brass
177.0,0.14018691588785046,67,95,Brass
177.0,0.2803738317757009,62,110,Brass
177.0,0.14018691588785046,42,96,Brass
177.0,0.14018691588785046,40,96,Brass
177.25,0.0,67,85,Brass
177.25,0.0,64,85,Brass
177.25,0.0,61,85,Brass
177.25,0.0,57,85,Brass
177.5,0.2803738317757009,45,110,Brass
177.5,0.2803738317757009,60,110,Brass
177.5,0.14018691588785046,51,92,Brass
177.5,0.14018691588785046,36,92,Brass
178.0,0.14018691588785046,33,108,Brass
178.0,0.2803738317757009,85,71,Brass
178.0,0.2803738317757009,79,71,Brass
178.0,0.14018691588785046,57,105,Brass
178.0,0.14018691588785046,61,105,Brass
178.0,0.14018691588785046,64,105,Brass
178.0,0.14018691588785046,67,105,Brass
178.0,0.5607476635514018,57,110,Brass
178.0,0.14018691588785046,36,101,Brass
178.0,0.14018691588785046,42,101,Brass
178.0,0.14018691588785046,40,101,Brass
179.75,0.14018691588785046,47,90,Brass
180.0,0.14018691588785046,47,110,Brass
180.5,0.14018691588785046,71,121,Brass
180.5,0.14018691588785046,67,121,Brass
180.5,0.14018691588785046,76,121,Brass
180.5,0.14018691588785046,81,121,Brass
180.5,0.14018691588785046,45,127,Brass
180.75,0.14018691588785046,36,110,Brass
181.0,0.14018691588785046,76,121,Brass
181.0,0.14018691588785046,81,121,Brass
181.0,0.14018691588785046,67,121,Brass
181.0,0.14018691588785046,71,121,Brass
181.0,0.14018691588785046,45,127,Brass
181.0,0.14018691588785046,40,107,Brass
181.25,0.14018691588785046,81,126,Brass
181.25,0.14018691588785046,67,126,Brass
181.25,0.14018691588785046,71,126,Brass
181.25,0.14018691588785046,76,126,Brass
181.25,0.14018691588785046,45,127,Brass
181.25,0.14018691588785046,36,110,Brass
182.0,0.42056074766355134,33,120,Brass
182.0,1.308411214953271,85,82,Brass
182.0,1.4018691588785046,79,60,Brass
182.0,0.42056074766355134,57,105,Brass
182.0,0.42056074766355134,61,105,Brass
182.0,0.42056074766355134,64,105,Brass
182.0,0.42056074766355134,67,105,Brass
182.0,0.14018691588785046,49,95,Brass
182.0,0.14018691588785046,36,95,Brass
182.0,0.14018691588785046,42,95,Brass
182.5,0.14018691588785046,64,100,Brass
182.5,0.14018691588785046,42,66,Brass
182.75,0.14018691588785046,33,110,Brass
182.75,0.14018691588785046,67,85,Brass
182.75,0.14018691588785046,64,85,Brass
182.75,0.14018691588785046,61,85,Brass
182.75,0.14018691588785046,57,85,Brass
183.0,0.14018691588785046,33,110,Brass
183.0,0.14018691588785046,67,100,Brass
183.0,0.0,57,95,Brass
183.0,0.0,61,95,Brass
183.0,0.0,64,95,Brass
183.0,0.0,67,95,Brass
183.0,0.14018691588785046,42,96,Brass
183.0,0.14018691588785046,40,96,Brass
183.25,0.14018691588785046,67,100,Brass
183.5,0.14018691588785046,38,95,Brass
183.5,0.2803738317757009,67,100,Brass
183.5,0.14018691588785046,57,95,Brass
183.5,0.14018691588785046,61,95,Brass
183.5,0.14018691588785046,64,95,Brass
183.5,0.14018691588785046,67,95,Brass
183.5,0.14018691588785046,36,80,Brass
183.5,0.14018691588785046,42,80,Brass
183.75,0.14018691588785046,40,90,Brass
183.75,0.14018691588785046,67,85,Brass
183.75,0.14018691588785046,64,85,Brass
183.75,0.14018691588785046,61,85,Brass
183.75,0.14018691588785046,57,85,Brass
184.0,0.14018691588785046,43,110,Brass
184.0,0.14018691588785046,69,100,Brass
184.0,0.14018691588785046,36,98,Brass
184.0,0.14018691588785046,42,98,Brass
184.25,0.14018691588785046,67,90,Brass
184.25,0.14018691588785046,64,90,Brass
184.25,0.14018691588785046,61,90,Brass
184.25,0.14018691588785046,57,90,Brass
184.5,0.2803738317757009,43,110,Brass
184.5,0.5607476635514018,69,100,Brass
184.5,0.18691588785046725,69,51,Brass
184.5,0.0,57,80,Brass
184.5,0.0,61,80,Brass
184.5,0.0,64,80,Brass
184.5,0.0,67,80,Brass
184.5,0.14018691588785046,36,80,Brass
184.5,0.14018691588785046,42,80,Brass
185.0,0.2803738317757009,40,105,Brass
185.0,0.2803738317757009,85,86,Brass
185.0,0.2803738317757009,79,86,Brass
185.0,0.14018691588785046,57,95,Brass
185.0,0.14018691588785046,61,95,Brass
185.0,0.14018691588785046,64,95,Brass
185.0,0.14018691588785046,67,95,Brass
185.0,0.14018691588785046,42,96,Brass
185.0,0.14018691588785046,40,96,Brass
185.25,0.0,67,85,Brass
185.25,0.0,64,85,Brass
185.25,0.0,61,85,Brass
185.25,0.0,57,85,Brass
185.5,0.2803738317757009,45,110,Brass
185.5,0.2803738317757009,64,100,Brass
185.5,0.14018691588785046,36,80,Brass
185.5,0.14018691588785046,42,80,Brass
186.0,0.42056074766355134,33,120,Brass
186.0,0.14018691588785046,67,100,Brass
186.0,1.1214953271028036,81,65,Brass
186.0,1.1214953271028036,88,65,Brass
186.0,1.1214953271028036,85,65,Brass
186.0,1.1214953271028036,79,65,Brass
186.0,0.42056074766355134,57,105,Brass
186.0,0.42056074766355134,61,105,Brass
186.0,0.42056074766355134,64,105,Brass
186.0,0.42056074766355134,67,105,Brass
186.0,0.14018691588785046,36,98,Brass
186.0,0.14018691588785046,42,98,Brass
186.5,0.5607476635514018,67,100,Brass
186.5,0.14018691588785046,42,66,Brass
186.75,0.14018691588785046,33,110,Brass
186.75,0.14018691588785046,67,85,Brass
186.75,0.14018691588785046,64,85,Brass
186.75,0.14018691588785046,61,85,Brass
186.75,0.14018691588785046,57,85,Brass
187.0,0.14018691588785046,33,110,Brass
187.0,0.0,57,95,Brass
187.0,0.0,61,95,Brass
187.0,0.0,64,95,Brass
187.0,0.0,67,95,Brass
187.0,0.14018691588785046,42,96,Brass
187.0,0.14018691588785046,40,96,Brass
187.5,0.14018691588785046,38,95,Brass
187.5,0.5607476635514018,69,100,Brass
187.5,0.14018691588785046,57,95,Brass
187.5,0.14018691588785046,61,95,Brass
187.5,0.14018691588785046,64,95,Brass
187.5,0.14018691588785046,67,95,Brass
187.5,0.14018691588785046,36,80,Brass
187.5,0.14018691588785046,42,80,Brass
187.75,0.14018691588785046,40,90,Brass
187.75,0.14018691588785046,67,85,Brass
187.75,0.14018691588785046,64,85,Brass
187.75,0.14018691588785046,61,85,Brass
187.75,0.14018691588785046,57,85,Brass
188.0,0.14018691588785046,43,110,Brass
188.0,0.14018691588785046,36,98,Brass
188.0,0.14018691588785046,42,98,Brass
188.25,0.0,85,69,Brass
188.25,0.0,81,69,Brass
188.25,0.0,79,69,Brass
188.25,0.0,88,69,Brass
188.25,0.14018691588785046,67,90,Brass
188.25,0.14018691588785046,64,90,Brass
188.25,0.14018691588785046,61,90,Brass
188.25,0.14018691588785046,57,90,Brass
188.5,0.2803738317757009,43,110,Brass
188.5,0.0,57,80,Brass
188.5,0.0,61,80,Brass
188.5,0.0,64,80,Brass
188.5,0.0,67,80,Brass
188.5,0.14018691588785046,36,80,Brass
188.5,0.14018691588785046,42,80,Brass
188.75,0.14018691588785046,69,59,Brass
189.0,0.2803738317757009,40,105,Brass
189.0,0.2803738317757009,81,82,Brass
189.0,0.2803738317757009,85,82,Brass
189.0,0.2803738317757009,79,82,Brass
189.0,0.2803738317757009,88,82,Brass
189.0,0.14018691588785046,57,95,Brass
189.0,0.14018691588785046,61,95,Brass
189.0,0.14018691588785046,64,95,Brass
189.0,0.14018691588785046,67,95,Brass
189.0,0.14018691588785046,42,96,Brass
189.0,0.14018691588785046,40,96,Brass
189.25,0.0,67,85,Brass
189.25,0.0,64,85,Brass
189.25,0.0,61,85,Brass
189.25,0.0,57,85,Brass
189.5,0.2803738317757009,45,110,Brass
189.5,0.2803738317757009,69,100,Brass
189.5,0.14018691588785046,42,66,Brass
190.0,0.42056074766355134,28,120,Brass
190.0,0.14018691588785046,71,100,Brass
190.0,1.308411214953271,74,56,Brass
190.0,1.308411214953271,83,56,Brass
190.0,1.308411214953271,80,56,Brass
190.0,1.261682242990654,76,62,Brass
190.0,0.42056074766355134,59,105,Brass
190.0,0.42056074766355134,62,105,Brass
190.0,0.42056074766355134,64,105,Brass
190.0,0.42056074766355134,68,105,Brass
190.0,0.14018691588785046,36,98,Brass
190.0,0.14018691588785046,42,98,Brass
190.5,0.14018691588785046,69,100,Brass
190.5,0.14018691588785046,42,66,Brass
190.75,0.14018691588785046,28,110,Brass
190.75,0.14018691588785046,71,100,Brass
190.75,0.14018691588785046,68,85,Brass
190.75,0.14018691588785046,64,85,Brass
190.75,0.14018691588785046,62,85,Brass
190.75,0.14018691588785046,59,85,Brass
191.0,0.14018691588785046,28,110,Brass
191.0,0.0,59,95,Brass
191.0,0.0,62,95,Brass
191.0,0.0,64,95,Brass
191.0,0.0,68,95,Brass
191.0,0.14018691588785046,42,96,Brass
191.0,0.14018691588785046,40,96,Brass
191.25,0.14018691588785046,71,100,Brass
191.5,0.14018691588785046,33,95,Brass
191.5,0.14018691588785046,59,95,Brass
191.5,0.14018691588785046,62,95,Brass
191.5,0.14018691588785046,64,95,Brass
191.5,0.14018691588785046,68,95,Brass
191.5,0.14018691588785046,36,80,Brass
191.5,0.14018691588785046,42,80,Brass
191.75,0.14018691588785046,35,90,Brass
191.75,0.2803738317757009,71,100,Brass
191.75,0.14018691588785046,68,85,Brass
191.75,0.14018691588785046,64,85,Brass
191.75,0.14018691588785046,62,85,Brass
191.75,0.14018691588785046,59,85,Brass
192.0,0.14018691588785046,38,110,Brass
192.0,0.14018691588785046,36,98,Brass
192.0,0.14018691588785046,42,98,Brass
192.25,0.14018691588785046,64,100,Brass
192.25,0.14018691588785046,68,90,Brass
192.25,0.14018691588785046,64,90,Brass
192.25,0.14018691588785046,62,90,Brass
192.25,0.14018691588785046,59,90,Brass
192.5,0.2803738317757009,38,110,Brass
192.5,0.2803738317757009,64,49,Brass
192.5,0.0,59,80,Brass
192.5,0.0,62,80,Brass
192.5,0.0,64,80,Brass
192.5,0.0,68,80,Brass
192.5,0.14018691588785046,36,80,Brass
192.5,0.14018691588785046,42,80,Brass
193.0,0.2803738317757009,35,105,Brass
193.0,0.18691588785046725,74,85,Brass
193.0,0.18691588785046725,80,85,Brass
193.0,0.18691588785046725,83,85,Brass
193.0,0.18691588785046725,76,85,Brass
193.0,0.14018691588785046,59,95,Brass
193.0,0.14018691588785046,62,95,Brass
193.0,0.14018691588785046,64,95,Brass
193.0,0.14018691588785046,68,95,Brass
193.0,0.14018691588785046,42,96,Brass
193.0,0.14018691588785046,40,96,Brass
193.25,0.0,68,85,Brass
193.25,0.0,64,85,Brass
193.25,0.0,62,85,Brass
193.25,0.0,59,85,Brass
193.5,0.2803738317757009,40,110,Brass
193.5,0.14018691588785046,69,100,Brass
193.5,0.14018691588785046,83,70,Brass
193.5,0.14018691588785046,74,70,Brass
193.5,0.14018691588785046,76,70,Brass
193.5,0.14018691588785046,80,70,Brass
193.5,0.14018691588785046,36,80,Brass
193.5,0.14018691588785046,42,80,Brass
194.0,0.42056074766355134,28,120,Brass
194.0,0.14018691588785046,71,100,Brass
194.0,1.1214953271028036,76,65,Brass
194.0,1.1214953271028036,80,65,Brass
194.0,1.1214953271028036,74,65,Brass
194.0,1.1214953271028036,83,65,Brass
194.0,0.42056074766355134,59,105,Brass
194.0,0.42056074766355134,62,105,Brass
194.0,0.42056074766355134,64,105,Brass
194.0,0.42056074766355134,68,105,Brass
194.0,0.14018691588785046,36,98,Brass
194.0,0.14018691588785046,42,98,Brass
194.5,0.5607476635514018,71,100,Brass
194.5,0.14018691588785046,42,66,Brass
194.75,0.14018691588785046,28,110,Brass
194.75,0.14018691588785046,68,85,Brass
194.75,0.14018691588785046,64,85,Brass
194.75,0.14018691588785046,62,85,Brass
194.75,0.14018691588785046,59,85,Brass
195.0,0.14018691588785046,28,110,Brass
195.0,0.0,59,95,Brass
195.0,0.0,62,95,Brass
195.0,0.0,64,95,Brass
195.0,0.0,68,95,Brass
195.0,0.14018691588785046,42,96,Brass
195.0,0.14018691588785046,40,96,Brass
195.5,0.14018691588785046,33,95,Brass
195.5,0.5607476635514018,64,100,Brass
195.5,0.14018691588785046,59,95,Brass
195.5,0.14018691588785046,62,95,Brass
195.5,0.14018691588785046,64,95,Brass
195.5,0.14018691588785046,68,95,Brass
195.5,0.14018691588785046,36,88,Brass
195.5,0.14018691588785046,42,88,Brass
195.75,0.14018691588785046,35,90,Brass
195.75,0.14018691588785046,68,85,Brass
195.75,0.14018691588785046,64,85,Brass
195.75,0.14018691588785046,62,85,Brass
195.75,0.14018691588785046,59,85,Brass
196.0,0.14018691588785046,38,110,Brass
196.0,0.14018691588785046,42,86,Brass
196.25,0.14018691588785046,83,69,Brass
196.25,0.14018691588785046,76,69,Brass
196.25,0.14018691588785046,74,69,Brass
196.25,0.14018691588785046,80,69,Brass
196.25,0.14018691588785046,68,90,Brass
196.25,0.14018691588785046,64,90,Brass
196.25,0.14018691588785046,62,90,Brass
196.25,0.14018691588785046,59,90,Brass
196.5,0.2803738317757009,38,110,Brass
196.5,0.0,59,80,Brass
196.5,0.0,62,80,Brass
196.5,0.0,64,80,Brass
196.5,0.0,68,80,Brass
196.5,0.14018691588785046,36,88,Brass
196.5,0.14018691588785046,42,88,Brass
196.75,0.14018691588785046,64,59,Brass
197.0,0.2803738317757009,35,105,Brass
197.0,0.2803738317757009,85,82,Brass
197.0,0.2803738317757009,88,82,Brass
197.0,0.2803738317757009,81,82,Brass
197.0,0.2803738317757009,79,82,Brass
197.0,0.14018691588785046,59,95,Brass
197.0,0.14018691588785046,62,95,Brass
197.0,0.14018691588785046,64,95,Brass
197.0,0.14018691588785046,68,95,Brass
197.0,0.14018691588785046,42,96,Brass
197.0,0.14018691588785046,40,96,Brass
197.25,0.14018691588785046,36,110,Brass
197.5,0.2803738317757009,40,110,Brass
197.5,0.14018691588785046,67,85,Brass
197.5,0.14018691588785046,63,85,Brass
197.5,0.14018691588785046,61,85,Brass
197.5,0.14018691588785046,58,85,Brass
197.5,0.14018691588785046,42,66,Brass
198.0,0.42056074766355134,38,120,Brass
198.0,1.308411214953271,90,82,Brass
198.0,1.4018691588785046,84,60,Brass
198.0,0.42056074766355134,57,105,Brass
198.0,0.42056074766355134,60,105,Brass
198.0,0.42056074766355134,62,105,Brass
198.0,0.42056074766355134,66,105,Brass
198.0,0.14018691588785046,36,98,Brass
198.0,0.14018691588785046,42,98,Brass
198.5,0.14018691588785046,72,100,Brass
198.5,0.14018691588785046,42,66,Brass
198.75,0.14018691588785046,38,110,Brass
198.75,0.14018691588785046,66,85,Brass
198.75,0.14018691588785046,62,85,Brass
198.75,0.14018691588785046,60,85,Brass
198.75,0.14018691588785046,57,85,Brass
199.0,0.14018691588785046,38,110,Brass
199.0,0.14018691588785046,72,100,Brass
199.0,0.0,57,95,Brass
199.0,0.0,60,95,Brass
199.0,0.0,62,95,Brass
199.0,0.0,66,95,Brass
199.0,0.14018691588785046,42,96,Brass
199.0,0.14018691588785046,40,96,Brass
199.5,0.14018691588785046,43,95,Brass
199.5,0.14018691588785046,69,100,Brass
199.5,0.14018691588785046,57,95,Brass
199.5,0.14018691588785046,60,95,Brass
199.5,0.14018691588785046,62,95,Brass
199.5,0.14018691588785046,66,95,Brass
199.5,0.14018691588785046,36,88,Brass
199.5,0.14018691588785046,42,88,Brass
199.75,0.14018691588785046,45,90,Brass
199.75,0.14018691588785046,66,85,Brass
199.75,0.14018691588785046,62,85,Brass
199.75,0.14018691588785046,60,85,Brass
199.75,0.14018691588785046,57,85,Brass
200.0,0.14018691588785046,48,110,Brass
200.0,0.8411214953271027,72,100,Brass
200.0,0.14018691588785046,42,86,Brass
200.25,0.14018691588785046,66,90,Brass
200.25,0.14018691588785046,62,90,Brass
200.25,0.14018691588785046,60,90,Brass
200.25,0.14018691588785046,57,90,Brass
200.5,0.2803738317757009,48,110,Brass
200.5,0.18691588785046725,74,51,Brass
200.5,0.0,57,80,Brass
200.5,0.0,60,80,Brass
200.5,0.0,62,80,Brass
200.5,0.0,66,80,Brass
200.5,0.14018691588785046,36,88,Brass
200.5,0.14018691588785046,42,88,Brass
201.0,0.2803738317757009,45,105,Brass
201.0,0.2803738317757009,90,86,Brass
201.0,0.2803738317757009,84,86,Brass
201.0,0.14018691588785046,57,95,Brass
201.0,0.14018691588785046,60,95,Brass
201.0,0.14018691588785046,62,95,Brass
201.0,0.14018691588785046,66,95,Brass
201.0,0.14018691588785046,42,96,Brass
201.0,0.14018691588785046,40,96,Brass
201.25,0.0,66,85,Brass
201.25,0.0,62,85,Brass
201.25,0.0,60,85,Brass
201.25,0.0,57,85,Brass
201.25,0.14018691588785046,36,110,Brass
201.5,0.2803738317757009,50,110,Brass
201.5,0.14018691588785046,69,100,Brass
201.5,0.14018691588785046,42,66,Brass
202.0,0.42056074766355134,38,120,Brass
202.0,0.2803738317757009,72,100,Brass
202.0,1.1214953271028036,86,65,Brass
202.0,1.1214953271028036,93,65,Brass
202.0,1.1214953271028036,90,65,Brass
202.0,1.1214953271028036,84,65,Brass
202.0,0.42056074766355134,57,105,Brass
202.0,0.42056074766355134,60,105,Brass
202.0,0.42056074766355134,62,105,Brass
202.0,0.42056074766355134,66,105,Brass
202.0,0.14018691588785046,36,98,Brass
202.0,0.14018691588785046,42,98,Brass
202.5,0.14018691588785046,69,100,Brass
202.5,0.14018691588785046,42,66,Brass
202.75,0.14018691588785046,38,110,Brass
202.75,0.2803738317757009,72,100,Brass
202.75,0.14018691588785046,66,85,Brass
202.75,0.14018691588785046,62,85,Brass
202.75,0.14018691588785046,60,85,Brass
202.75,0.14018691588785046,57,85,Brass
203.0,0.14018691588785046,38,110,Brass
203.0,0.0,57,95,Brass
203.0,0.0,60,95,Brass
203.0,0.0,62,95,Brass
203.0,0.0,66,95,Brass
203.0,0.14018691588785046,42,96,Brass
203.0,0.14018691588785046,40,96,Brass
203.25,0.14018691588785046,69,100,Brass
203.5,0.14018691588785046,43,95,Brass
203.5,0.14018691588785046,72,100,Brass
203.5,0.14018691588785046,57,95,Brass
203.5,0.14018691588785046,60,95,Brass
203.5,0.14018691588785046,62,95,Brass
203.5,0.14018691588785046,66,95,Brass
203.5,0.14018691588785046,36,80,Brass
203.5,0.14018691588785046,42,80,Brass
203.75,0.14018691588785046,45,90,Brass
203.75,0.14018691588785046,69,100,Brass
203.75,0.14018691588785046,66,85,Brass
203.75,0.14018691588785046,62,85,Brass
203.75,0.14018691588785046,60,85,Brass
203.75,0.14018691588785046,57,85,Brass
204.0,0.14018691588785046,48,110,Brass
204.0,0.5607476635514018,72,100,Brass
204.0,0.14018691588785046,36,98,Brass
204.0,0.14018691588785046,42,98,Brass
204.25,0.14018691588785046,93,69,Brass
204.25,0.14018691588785046,90,69,Brass
204.25,0.14018691588785046,86,69,Brass
204.25,0.14018691588785046,84,69,Brass
204.25,0.14018691588785046,66,90,Brass
204.25,0.14018691588785046,62,90,Brass
204.25,0.14018691588785046,60,90,Brass
204.25,0.14018691588785046,57,90,Brass
204.5,0.2803738317757009,48,110,Brass
204.5,0.0,57,80,Brass
204.5,0.0,60,80,Brass
204.5,0.0,62,80,Brass
204.5,0.0,66,80,Brass
204.5,0.14018691588785046,42,66,Brass
204.75,0.14018691588785046,74,59,Brass
205.0,0.2803738317757009,45,105,Brass
205.0,0.2803738317757009,86,82,Brass
205.0,0.2803738317757009,84,82,Brass
205.0,0.2803738317757009,90,82,Brass
205.0,0.2803738317757009,93,82,Brass
205.0,0.14018691588785046,57,95,Brass
205.0,0.14018691588785046,60,95,Brass
205.0,0.14018691588785046,62,95,Brass
205.0,0.14018691588785046,66,95,Brass
205.0,0.14018691588785046,42,96,Brass
205.0,0.14018691588785046,40,96,Brass
205.25,0.0,66,85,Brass
205.25,0.0,62,85,Brass
205.25,0.0,60,85,Brass
205.25,0.0,57,85,Brass
205.5,0.2803738317757009,50,110,Brass
205.5,0.2803738317757009,69,100,Brass
205.5,0.14018691588785046,42,66,Brass
206.0,0.42056074766355134,33,120,Brass
206.0,0.2803738317757009,76,100,Brass
206.0,1.1214953271028036,79,65,Brass
206.0,1.1214953271028036,85,65,Brass
206.0,1.1214953271028036,88,65,Brass
206.0,1.1214953271028036,81,65,Brass
206.0,0.42056074766355134,57,105,Brass
206.0,0.42056074766355134,61,105,Brass
206.0,0.42056074766355134,64,105,Brass
206.0,0.42056074766355134,67,105,Brass
206.0,0.14018691588785046,36,98,Brass
206.0,0.14018691588785046,42,98,Brass
206.5,0.2803738317757009,76,100,Brass
206.5,0.14018691588785046,42,66,Brass
206.75,0.14018691588785046,33,110,Brass
206.75,0.14018691588785046,67,85,Brass
206.75,0.14018691588785046,64,85,Brass
206.75,0.14018691588785046,61,85,Brass
206.75,0.14018691588785046,57,85,Brass
207.0,0.14018691588785046,33,110,Brass
207.0,0.2803738317757009,74,100,Brass
207.0,0.0,57,95,Brass
207.0,0.0,61,95,Brass
207.0,0.0,64,95,Brass
207.0,0.0,67,95,Brass
207.0,0.14018691588785046,42,96,Brass
207.0,0.14018691588785046,40,96,Brass
207.5,0.14018691588785046,38,95,Brass
207.5,0.2803738317757009,72,100,Brass
207.5,0.14018691588785046,57,95,Brass
207.5,0.14018691588785046,61,95,Brass
207.5,0.14018691588785046,64,95,Brass
207.5,0.14018691588785046,67,95,Brass
207.5,0.14018691588785046,36,80,Brass
207.5,0.14018691588785046,42,80,Brass
207.75,0.14018691588785046,40,90,Brass
207.75,0.14018691588785046,67,85,Brass
207.75,0.14018691588785046,64,85,Brass
207.75,0.14018691588785046,61,85,Brass
207.75,0.14018691588785046,57,85,Brass
208.0,0.14018691588785046,43,110,Brass
208.0,0.2803738317757009,74,100,Brass
208.0,0.14018691588785046,36,98,Brass
208.0,0.14018691588785046,42,98,Brass
208.25,0.0,79,69,Brass
208.25,0.0,85,69,Brass
208.25,0.0,88,69,Brass
208.25,0.0,81,69,Brass
208.25,0.14018691588785046,67,90,Brass
208.25,0.14018691588785046,64,90,Brass
208.25,0.14018691588785046,61,90,Brass
208.25,0.14018691588785046,57,90,Brass
208.5,0.2803738317757009,43,110,Brass
208.5,0.2803738317757009,72,100,Brass
208.5,0.0,57,80,Brass
208.5,0.0,61,80,Brass
208.5,0.0,64,80,Brass
208.5,0.0,67,80,Brass
208.5,0.14018691588785046,36,80,Brass
208.5,0.14018691588785046,42,80,Brass
208.75,0.14018691588785046,69,59,Brass
209.0,0.2803738317757009,40,105,Brass
209.0,0.2803738317757009,69,100,Brass
209.0,0.2803738317757009,85,82,Brass
209.0,0.2803738317757009,81,82,Brass
209.0,0.2803738317757009,88,82,Brass
209.0,0.2803738317757009,79,82,Brass
209.0,0.14018691588785046,57,95,Brass
209.0,0.14018691588785046,61,95,Brass
209.0,0.14018691588785046,64,95,Brass
209.0,0.14018691588785046,67,95,Brass
209.0,0.14018691588785046,42,96,Brass
209.0,0.14018691588785046,40,96,Brass
209.25,0.0,67,85,Brass
209.25,0.0,64,85,Brass
209.25,0.0,61,85,Brass
209.25,0.0,57,85,Brass
209.5,0.2803738317757009,45,110,Brass
209.5,0.8411214953271027,69,100,Brass
209.5,0.14018691588785046,36,80,Brass
209.5,0.14018691588785046,42,80,Brass
210.0,0.42056074766355134,33,120,Brass
210.0,1.308411214953271,88,56,Brass
210.0,1.308411214953271,79,56,Brass
210.0,1.308411214953271,85,56,Brass
210.0,1.261682242990654,81,62,Brass
210.0,0.42056074766355134,57,105,Brass
210.0,0.42056074766355134,61,105,Brass
210.0,0.42056074766355134,64,105,Brass
210.0,0.42056074766355134,67,105,Brass
210.0,0.14018691588785046,36,98,Brass
210.0,0.14018691588785046,42,98,Brass
210.5,0.14018691588785046,42,66,Brass
210.75,0.14018691588785046,33,110,Brass
210.75,0.14018691588785046,67,85,Brass
210.75,0.14018691588785046,64,85,Brass
210.75,0.14018691588785046,61,85,Brass
210.75,0.14018691588785046,57,85,Brass
211.0,0.14018691588785046,33,110,Brass
211.0,0.0,57,95,Brass
211.0,0.0,61,95,Brass
211.0,0.0,64,95,Brass
211.0,0.0,67,95,Brass
211.0,0.14018691588785046,42,96,Brass
211.0,0.14018691588785046,40,96,Brass
211.5,0.14018691588785046,38,95,Brass
211.5,0.14018691588785046,57,95,Brass
211.5,0.14018691588785046,61,95,Brass
211.5,0.14018691588785046,64,95,Brass
211.5,0.14018691588785046,67,95,Brass
211.5,0.14018691588785046,36,80,Brass
211.5,0.14018691588785046,42,80,Brass
211.75,0.14018691588785046,40,90,Brass
211.75,0.14018691588785046,67,85,Brass
211.75,0.14018691588785046,64,85,Brass
211.75,0.14018691588785046,61,85,Brass
211.75,0.14018691588785046,57,85,Brass
212.0,0.14018691588785046,43,110,Brass
212.0,0.14018691588785046,36,98,Brass
212.0,0.14018691588785046,42,98,Brass
212.25,0.14018691588785046,67,90,Brass
212.25,0.14018691588785046,64,90,Brass
212.25,0.14018691588785046,61,90,Brass
212.25,0.14018691588785046,57,90,Brass
212.5,0.2803738317757009,43,110,Brass
212.5,0.2803738317757009,69,49,Brass
212.5,0.0,57,80,Brass
212.5,0.0,61,80,Brass
212.5,0.0,64,80,Brass
212.5,0.0,67,80,Brass
212.5,0.14018691588785046,36,80,Brass
212.5,0.14018691588785046,42,80,Brass
213.0,0.2803738317757009,40,105,Brass
213.0,0.18691588785046725,81,85,Brass
213.0,0.18691588785046725,88,85,Brass
213.0,0.18691588785046725,79,85,Brass
213.0,0.18691588785046725,85,85,Brass
213.0,0.14018691588785046,57,95,Brass
213.0,0.14018691588785046,61,95,Brass
213.0,0.14018691588785046,64,95,Brass
213.0,0.14018691588785046,67,95,Brass
213.0,0.14018691588785046,42,96,Brass
213.0,0.14018691588785046,40,96,Brass
213.25,0.0,67,85,Brass
213.25,0.0,64,85,Brass
213.25,0.0,61,85,Brass
213.25,0.0,57,85,Brass
213.5,0.2803738317757009,45,110,Brass
213.5,0.14018691588785046,81,70,Brass
213.5,0.14018691588785046,79,70,Brass
213.5,0.14018691588785046,88,70,Brass
213.5,0.14018691588785046,85,70,Brass
214.0,0.42056074766355134,33,120,Brass
214.0,1.308411214953271,85,82,Brass
214.0,1.4018691588785046,79,60,Brass
214.0,0.42056074766355134,57,105,Brass
214.0,0.42056074766355134,61,105,Brass
214.0,0.42056074766355134,64,105,Brass
214.0,0.42056074766355134,67,105,Brass
214.0,0.14018691588785046,49,95,Brass
214.0,0.14018691588785046,36,95,Brass
214.0,0.14018691588785046,42,95,Brass
214.5,0.14018691588785046,67,100,Brass
214.5,0.14018691588785046,42,66,Brass
214.75,0.14018691588785046,33,110,Brass
214.75,0.14018691588785046,67,100,Brass
214.75,0.14018691588785046,67,85,Brass
214.75,0.14018691588785046,64,85,Brass
214.75,0.14018691588785046,61,85,Brass
214.75,0.14018691588785046,57,85,Brass
215.0,0.14018691588785046,33,110,Brass
215.0,0.2803738317757009,67,100,Brass
215.0,0.0,57,95,Brass
215.0,0.0,61,95,Brass
215.0,0.0,64,95,Brass
215.0,0.0,67,95,Brass
215.0,0.14018691588785046,42,96,Brass
215.0,0.14018691588785046,40,96,Brass
215.5,0.14018691588785046,38,95,Brass
215.5,0.14018691588785046,67,100,Brass
215.5,0.14018691588785046,57,95,Brass
215.5,0.14018691588785046,61,95,Brass
215.5,0.14018691588785046,64,95,Brass
215.5,0.14018691588785046,67,95,Brass
215.5,0.14018691588785046,36,80,Brass
215.5,0.14018691588785046,42,80,Brass
215.75,0.14018691588785046,40,90,Brass
215.75,0.14018691588785046,67,85,Brass
215.75,0.14018691588785046,64,85,Brass
215.75,0.14018691588785046,61,85,Brass
215.75,0.14018691588785046,57,85,Brass
216.0,0.14018691588785046,43,110,Brass
216.0,0.14018691588785046,67,100,Brass
216.0,0.14018691588785046,36,98,Brass
216.0,0.14018691588785046,42,98,Brass
216.25,0.14018691588785046,67,90,Brass
216.25,0.14018691588785046,64,90,Brass
216.25,0.14018691588785046,61,90,Brass
216.25,0.14018691588785046,57,90,Brass
216.5,0.2803738317757009,43,110,Brass
216.5,0.5607476635514018,69,100,Brass
216.5,0.18691588785046725,69,51,Brass
216.5,0.0,57,80,Brass
216.5,0.0,61,80,Brass
216.5,0.0,64,80,Brass
216.5,0.0,67,80,Brass
216.5,0.14018691588785046,36,80,Brass
216.5,0.14018691588785046,42,80,Brass
217.0,0.2803738317757009,40,105,Brass
217.0,0.2803738317757009,85,86,Brass
217.0,0.2803738317757009,79,86,Brass
217.0,0.14018691588785046,57,95,Brass
217.0,0.14018691588785046,61,95,Brass
217.0,0.14018691588785046,64,95,Brass
217.0,0.14018691588785046,67,95,Brass
217.0,0.14018691588785046,42,96,Brass
217.0,0.14018691588785046,40,96,Brass
217.25,0.0,67,85,Brass
217.25,0.0,64,85,Brass
217.25,0.0,61,85,Brass
217.25,0.0,57,85,Brass
217.5,0.2803738317757009,45,110,Brass
217.5,0.2803738317757009,69,100,Brass
217.5,0.14018691588785046,36,80,Brass
217.5,0.14018691588785046,42,80,Brass
218.0,0.42056074766355134,33,120,Brass
218.0,0.14018691588785046,67,100,Brass
218.0,1.1214953271028036,81,65,Brass
218.0,1.1214953271028036,88,65,Brass
218.0,1.1214953271028036,85,65,Brass
218.0,1.1214953271028036,79,65,Brass
218.0,0.42056074766355134,57,105,Brass
218.0,0.42056074766355134,61,105,Brass
218.0,0.42056074766355134,64,105,Brass
218.0,0.42056074766355134,67,105,Brass
218.0,0.14018691588785046,36,98,Brass
218.0,0.14018691588785046,42,98,Brass
218.5,0.5607476635514018,67,100,Brass
218.5,0.14018691588785046,42,66,Brass
218.75,0.14018691588785046,33,110,Brass
218.75,0.14018691588785046,67,85,Brass
218.75,0.14018691588785046,64,85,Brass
218.75,0.14018691588785046,61,85,Brass
218.75,0.14018691588785046,57,85,Brass
219.0,0.14018691588785046,33,110,Brass
219.0,0.0,57,95,Brass
219.0,0.0,61,95,Brass
219.0,0.0,64,95,Brass
219.0,0.0,67,95,Brass
219.0,0.14018691588785046,42,96,Brass
219.0,0.14018691588785046,40,96,Brass
219.5,0.14018691588785046,38,95,Brass
219.5,0.2803738317757009,67,100,Brass
219.5,0.14018691588785046,57,95,Brass
219.5,0.14018691588785046,61,95,Brass
219.5,0.14018691588785046,64,95,Brass
219.5,0.14018691588785046,67,95,Brass
219.5,0.14018691588785046,36,80,Brass
219.5,0.14018691588785046,42,80,Brass
219.75,0.14018691588785046,40,90,Brass
219.75,0.14018691588785046,67,85,Brass
219.75,0.14018691588785046,64,85,Brass
219.75,0.14018691588785046,61,85,Brass
219.75,0.14018691588785046,57,85,Brass
220.0,0.14018691588785046,43,110,Brass
220.0,0.5607476635514018,69,100,Brass
220.0,0.14018691588785046,36,98,Brass
220.0,0.14018691588785046,42,98,Brass
220.25,0.0,85,69,Brass
220.25,0.0,81,69,Brass
220.25,0.0,79,69,Brass
220.25,0.0,88,69,Brass
220.25,0.14018691588785046,67,90,Brass
220.25,0.14018691588785046,64,90,Brass
220.25,0.14018691588785046,61,90,Brass
220.25,0.14018691588785046,57,90,Brass
220.5,0.2803738317757009,43,110,Brass
220.5,0.0,57,80,Brass
220.5,0.0,61,80,Brass
220.5,0.0,64,80,Brass
220.5,0.0,67,80,Brass
220.5,0.14018691588785046,36,80,Brass
220.5,0.14018691588785046,42,80,Brass
220.75,0.14018691588785046,69,59,Brass
221.0,0.2803738317757009,40,105,Brass
221.0,0.2803738317757009,81,82,Brass
221.0,0.2803738317757009,85,82,Brass
221.0,0.2803738317757009,79,82,Brass
221.0,0.2803738317757009,88,82,Brass
221.0,0.14018691588785046,57,95,Brass
221.0,0.14018691588785046,61,95,Brass
221.0,0.14018691588785046,64,95,Brass
221.0,0.14018691588785046,67,95,Brass
221.0,0.14018691588785046,42,96,Brass
221.0,0.14018691588785046,40,96,Brass
221.25,0.0,67,85,Brass
221.25,0.0,64,85,Brass
221.25,0.0,61,85,Brass
221.25,0.0,57,85,Brass
221.5,0.2803738317757009,45,110,Brass
221.5,0.2803738317757009,69,100,Brass
221.5,0.14018691588785046,36,80,Brass
221.5,0.14018691588785046,42,80,Brass
222.0,0.42056074766355134,28,120,Brass
222.0,0.2803738317757009,71,100,Brass
222.0,1.308411214953271,74,56,Brass
222.0,1.308411214953271,83,56,Brass
222.0,1.308411214953271,80,56,Brass
222.0,1.261682242990654,76,62,Brass
222.0,0.42056074766355134,59,105,Brass
222.0,0.42056074766355134,62,105,Brass
222.0,0.42056074766355134,64,105,Brass
222.0,0.42056074766355134,68,105,Brass
222.0,0.14018691588785046,36,98,Brass
222.0,0.14018691588785046,42,98,Brass
222.5,0.2803738317757009,69,100,Brass
222.5,0.14018691588785046,42,66,Brass
222.75,0.14018691588785046,28,110,Brass
222.75,0.14018691588785046,68,85,Brass
222.75,0.14018691588785046,64,85,Brass
222.75,0.14018691588785046,62,85,Brass
222.75,0.14018691588785046,59,85,Brass
223.0,0.14018691588785046,28,110,Brass
223.0,0.2803738317757009,71,100,Brass
223.0,0.0,59,95,Brass
223.0,0.0,62,95,Brass
223.0,0.0,64,95,Brass
223.0,0.0,68,95,Brass
223.0,0.14018691588785046,42,96,Brass
223.0,0.14018691588785046,40,96,Brass
223.5,0.14018691588785046,33,95,Brass
223.5,0.14018691588785046,69,100,Brass
223.5,0.14018691588785046,59,95,Brass
223.5,0.14018691588785046,62,95,Brass
223.5,0.14018691588785046,64,95,Brass
223.5,0.14018691588785046,68,95,Brass
223.5,0.14018691588785046,36,80,Brass
223.5,0.14018691588785046,42,80,Brass
223.75,0.14018691588785046,35,90,Brass
223.75,0.2803738317757009,71,100,Brass
223.75,0.14018691588785046,68,85,Brass
223.75,0.14018691588785046,64,85,Brass
223.75,0.14018691588785046,62,85,Brass
223.75,0.14018691588785046,59,85,Brass
224.0,0.14018691588785046,38,110,Brass
224.0,0.14018691588785046,36,98,Brass
224.0,0.14018691588785046,42,98,Brass
224.25,0.2803738317757009,64,100,Brass
224.25,0.14018691588785046,68,90,Brass
224.25,0.14018691588785046,64,90,Brass
224.25,0.14018691588785046,62,90,Brass
224.25,0.14018691588785046,59,90,Brass
224.5,0.2803738317757009,38,110,Brass
224.5,0.2803738317757009,64,49,Brass
224.5,0.0,59,80,Brass
224.5,0.0,62,80,Brass
224.5,0.0,64,80,Brass
224.5,0.0,68,80,Brass
224.5,0.14018691588785046,36,80,Brass
224.5,0.14018691588785046,42,80,Brass
225.0,0.2803738317757009,35,105,Brass
225.0,0.18691588785046725,74,85,Brass
225.0,0.18691588785046725,80,85,Brass
225.0,0.18691588785046725,83,85,Brass
225.0,0.18691588785046725,76,85,Brass
225.0,0.14018691588785046,59,95,Brass
225.0,0.14018691588785046,62,95,Brass
225.0,0.14018691588785046,64,95,Brass
225.0,0.14018691588785046,68,95,Brass
225.0,0.14018691588785046,42,96,Brass
225.0,0.14018691588785046,40,96,Brass
225.25,0.0,68,85,Brass
225.25,0.0,64,85,Brass
225.25,0.0,62,85,Brass
225.25,0.0,59,85,Brass
225.5,0.2803738317757009,40,110,Brass
225.5,0.14018691588785046,69,100,Brass
225.5,0.14018691588785046,83,70,Brass
225.5,0.14018691588785046,74,70,Brass
225.5,0.14018691588785046,76,70,Brass
225.5,0.14018691588785046,80,70,Brass
225.5,0.14018691588785046,36,80,Brass
225.5,0.14018691588785046,42,80,Brass
226.0,0.42056074766355134,28,120,Brass
226.0,0.2803738317757009,71,100,Brass
226.0,1.1214953271028036,76,65,Brass
226.0,1.1214953271028036,80,65,Brass
226.0,1.1214953271028036,74,65,Brass
226.0,1.1214953271028036,83,65,Brass
226.0,0.42056074766355134,59,105,Brass
226.0,0.42056074766355134,62,105,Brass
226.0,0.42056074766355134,64,105,Brass
226.0,0.42056074766355134,68,105,Brass
226.0,0.14018691588785046,36,98,Brass
226.0,0.14018691588785046,42,98,Brass
226.5,0.5607476635514018,71,100,Brass
226.5,0.14018691588785046,42,66,Brass
226.75,0.14018691588785046,28,110,Brass
226.75,0.14018691588785046,68,85,Brass
226.75,0.14018691588785046,64,85,Brass
226.75,0.14018691588785046,62,85,Brass
226.75,0.14018691588785046,59,85,Brass
227.0,0.14018691588785046,28,110,Brass
227.0,0.0,59,95,Brass
227.0,0.0,62,95,Brass
227.0,0.0,64,95,Brass
227.0,0.0,68,95,Brass
227.0,0.14018691588785046,42,96,Brass
227.0,0.14018691588785046,40,96,Brass
227.5,0.14018691588785046,33,95,Brass
227.5,0.5607476635514018,64,100,Brass
227.5,0.14018691588785046,59,95,Brass
227.5,0.14018691588785046,62,95,Brass
227.5,0.14018691588785046,64,95,Brass
227.5,0.14018691588785046,68,95,Brass
227.5,0.14018691588785046,36,80,Brass
227.5,0.14018691588785046,42,80,Brass
227.75,0.14018691588785046,35,90,Brass
227.75,0.14018691588785046,68,85,Brass
227.75,0.14018691588785046,64,85,Brass
227.75,0.14018691588785046,62,85,Brass
227.75,0.14018691588785046,59,85,Brass
228.0,0.14018691588785046,38,110,Brass
228.0,0.14018691588785046,36,98,Brass
228.0,0.14018691588785046,42,98,Brass
228.25,0.14018691588785046,83,69,Brass
228.25,0.14018691588785046,76,69,Brass
228.25,0.14018691588785046,74,69,Brass
228.25,0.14018691588785046,80,69,Brass
228.25,0.14018691588785046,68,90,Brass
228.25,0.14018691588785046,64,90,Brass
228.25,0.14018691588785046,62,90,Brass
228.25,0.14018691588785046,59,90,Brass
228.5,0.2803738317757009,38,110,Brass
228.5,0.0,59,80,Brass
228.5,0.0,62,80,Brass
228.5,0.0,64,80,Brass
228.5,0.0,68,80,Brass
228.5,0.14018691588785046,36,80,Brass
228.5,0.14018691588785046,42,80,Brass
228.75,0.14018691588785046,64,59,Brass
229.0,0.2803738317757009,35,105,Brass
229.0,0.2803738317757009,85,82,Brass
229.0,0.2803738317757009,88,82,Brass
229.0,0.2803738317757009,81,82,Brass
229.0,0.2803738317757009,79,82,Brass
229.0,0.14018691588785046,59,95,Brass
229.0,0.14018691588785046,62,95,Brass
229.0,0.14018691588785046,64,95,Brass
229.0,0.14018691588785046,68,95,Brass
229.0,0.14018691588785046,42,96,Brass
229.0,0.14018691588785046,40,96,Brass
229.5,0.2803738317757009,40,110,Brass
229.5,0.14018691588785046,67,85,Brass
229.5,0.14018691588785046,63,85,Brass
229.5,0.14018691588785046,61,85,Brass
229.5,0.14018691588785046,58,85,Brass
229.5,0.14018691588785046,36,80,Brass
229.5,0.14018691588785046,42,80,Brass
230.0,0.42056074766355134,38,120,Brass
230.0,1.308411214953271,90,82,Brass
230.0,1.4018691588785046,84,60,Brass
230.0,0.42056074766355134,57,105,Brass
230.0,0.42056074766355134,60,105,Brass
230.0,0.42056074766355134,62,105,Brass
230.0,0.42056074766355134,66,105,Brass
230.0,0.14018691588785046,36,98,Brass
230.0,0.14018691588785046,42,98,Brass
230.5,0.14018691588785046,72,100,Brass
230.5,0.14018691588785046,42,66,Brass
230.75,0.14018691588785046,38,110,Brass
230.75,0.14018691588785046,66,85,Brass
230.75,0.14018691588785046,62,85,Brass
230.75,0.14018691588785046,60,85,Brass
230.75,0.14018691588785046,57,85,Brass
231.0,0.14018691588785046,38,110,Brass
231.0,0.14018691588785046,72,100,Brass
231.0,0.0,57,95,Brass
231.0,0.0,60,95,Brass
231.0,0.0,62,95,Brass
231.0,0.0,66,95,Brass
231.0,0.14018691588785046,42,96,Brass
231.0,0.14018691588785046,40,96,Brass
231.5,0.14018691588785046,43,95,Brass
231.5,0.14018691588785046,69,100,Brass
231.5,0.14018691588785046,57,95,Brass
231.5,0.14018691588785046,60,95,Brass
231.5,0.14018691588785046,62,95,Brass
231.5,0.14018691588785046,66,95,Brass
231.5,0.14018691588785046,36,80,Brass
231.5,0.14018691588785046,42,80,Brass
231.75,0.14018691588785046,45,90,Brass
231.75,0.14018691588785046,66,85,Brass
231.75,0.14018691588785046,62,85,Brass
231.75,0.14018691588785046,60,85,Brass
231.75,0.14018691588785046,57,85,Brass
232.0,0.14018691588785046,48,110,Brass
232.0,0.8411214953271027,72,100,Brass
232.0,0.14018691588785046,36,98,Brass
232.0,0.14018691588785046,42,98,Brass
232.25,0.14018691588785046,66,90,Brass
232.25,0.14018691588785046,62,90,Brass
232.25,0.14018691588785046,60,90,Brass
232.25,0.14018691588785046,57,90,Brass
232.5,0.2803738317757009,48,110,Brass
232.5,0.18691588785046725,74,51,Brass
232.5,0.0,57,80,Brass
232.5,0.0,60,80,Brass
232.5,0.0,62,80,Brass
232.5,0.0,66,80,Brass
232.5,0.14018691588785046,36,80,Brass
232.5,0.14018691588785046,42,80,Brass
233.0,0.2803738317757009,45,105,Brass
233.0,0.2803738317757009,90,86,Brass
233.0,0.2803738317757009,84,86,Brass
233.0,0.14018691588785046,57,95,Brass
233.0,0.14018691588785046,60,95,Brass
233.0,0.14018691588785046,62,95,Brass
233.0,0.14018691588785046,66,95,Brass
233.0,0.14018691588785046,42,96,Brass
233.0,0.14018691588785046,40,96,Brass
233.25,0.0,66,85,Brass
233.25,0.0,62,85,Brass
233.25,0.0,60,85,Brass
233.25,0.0,57,85,Brass
233.5,0.2803738317757009,50,110,Brass
233.5,0.14018691588785046,69,100,Brass
233.5,0.14018691588785046,42,66,Brass
234.0,0.42056074766355134,38,120,Brass
234.0,1.1214953271028036,86,65,Brass
234.0,1.1214953271028036,93,65,Brass
234.0,1.1214953271028036,90,65,Brass
234.0,1.1214953271028036,84,65,Brass
234.0,0.42056074766355134,57,105,Brass
234.0,0.42056074766355134,60,105,Brass
234.0,0.42056074766355134,62,105,Brass
234.0,0.42056074766355134,66,105,Brass
234.0,0.14018691588785046,36,98,Brass
234.0,0.14018691588785046,42,98,Brass
234.5,0.14018691588785046,42,66,Brass
234.75,0.14018691588785046,38,110,Brass
234.75,0.14018691588785046,66,85,Brass
234.75,0.14018691588785046,62,85,Brass
234.75,0.14018691588785046,60,85,Brass
234.75,0.14018691588785046,57,85,Brass
235.0,0.14018691588785046,38,110,Brass
235.0,0.0,57,95,Brass
235.0,0.0,60,95,Brass
235.0,0.0,62,95,Brass
235.0,0.0,66,95,Brass
235.0,0.14018691588785046,42,96,Brass
235.0,0.14018691588785046,40,96,Brass
235.5,0.14018691588785046,43,95,Brass
235.5,0.2803738317757009,69,100,Brass
235.5,0.14018691588785046,57,95,Brass
235.5,0.14018691588785046,60,95,Brass
235.5,0.14018691588785046,62,95,Brass
235.5,0.14018691588785046,66,95,Brass
235.5,0.14018691588785046,36,80,Brass
235.5,0.14018691588785046,42,80,Brass
235.75,0.14018691588785046,45,90,Brass
235.75,0.14018691588785046,66,85,Brass
235.75,0.14018691588785046,62,85,Brass
235.75,0.14018691588785046,60,85,Brass
235.75,0.14018691588785046,57,85,Brass
236.0,0.14018691588785046,48,110,Brass
236.0,0.5607476635514018,76,100,Brass
236.0,0.14018691588785046,36,98,Brass
236.0,0.14018691588785046,42,98,Brass
236.25,0.14018691588785046,93,69,Brass
236.25,0.14018691588785046,90,69,Brass
236.25,0.14018691588785046,86,69,Brass
236.25,0.14018691588785046,84,69,Brass
236.25,0.14018691588785046,66,90,Brass
236.25,0.14018691588785046,62,90,Brass
236.25,0.14018691588785046,60,90,Brass
236.25,0.14018691588785046,57,90,Brass
236.5,0.2803738317757009,48,110,Brass
236.5,0.0,57,80,Brass
236.5,0.0,60,80,Brass
236.5,0.0,62,80,Brass
236.5,0.0,66,80,Brass
236.5,0.14018691588785046,36,80,Brass
236.5,0.14018691588785046,42,80,Brass
236.75,0.14018691588785046,74,59,Brass
237.0,0.2803738317757009,45,105,Brass
237.0,0.5607476635514018,74,100,Brass
237.0,0.2803738317757009,86,82,Brass
237.0,0.2803738317757009,84,82,Brass
237.0,0.2803738317757009,90,82,Brass
237.0,0.2803738317757009,93,82,Brass
237.0,0.14018691588785046,57,95,Brass
237.0,0.14018691588785046,60,95,Brass
237.0,0.14018691588785046,62,95,Brass
237.0,0.14018691588785046,66,95,Brass
237.0,0.14018691588785046,42,96,Brass
237.0,0.14018691588785046,40,96,Brass
237.25,0.0,66,85,Brass
237.25,0.0,62,85,Brass
237.25,0.0,60,85,Brass
237.25,0.0,57,85,Brass
237.5,0.2803738317757009,50,110,Brass
237.5,0.14018691588785046,36,80,Brass
237.5,0.14018691588785046,42,80,Brass
238.0,0.42056074766355134,33,120,Brass
238.0,0.2803738317757009,72,100,Brass
238.0,1.1214953271028036,79,65,Brass
238.0,1.1214953271028036,85,65,Brass
238.0,1.1214953271028036,88,65,Brass
238.0,1.1214953271028036,81,65,Brass
238.0,0.42056074766355134,57,105,Brass
238.0,0.42056074766355134,61,105,Brass
238.0,0.42056074766355134,64,105,Brass
238.0,0.42056074766355134,67,105,Brass
238.0,0.14018691588785046,36,98,Brass
238.0,0.14018691588785046,42,98,Brass
238.5,1.9626168224299063,69,100,Brass
238.5,0.14018691588785046,42,66,Brass
238.75,0.14018691588785046,33,110,Brass
238.75,0.14018691588785046,67,85,Brass
238.75,0.14018691588785046,64,85,Brass
238.75,0.14018691588785046,61,85,Brass
238.75,0.14018691588785046,57,85,Brass
239.0,0.14018691588785046,33,110,Brass
239.0,0.0,57,95,Brass
239.0,0.0,61,95,Brass
239.0,0.0,64,95,Brass
239.0,0.0,67,95,Brass
239.0,0.14018691588785046,42,96,Brass
239.0,0.14018691588785046,40,96,Brass
239.5,0.14018691588785046,38,95,Brass
239.5,0.14018691588785046,57,95,Brass
239.5,0.14018691588785046,61,95,Brass
239.5,0.14018691588785046,64,95,Brass
239.5,0.14018691588785046,67,95,Brass
239.5,0.14018691588785046,36,80,Brass
239.5,0.14018691588785046,42,80,Brass
239.75,0.14018691588785046,40,90,Brass
239.75,0.14018691588785046,67,85,Brass
239.75,0.14018691588785046,64,85,Brass
239.75,0.14018691588785046,61,85,Brass
239.75,0.14018691588785046,57,85,Brass
240.0,0.14018691588785046,43,110,Brass
240.0,0.14018691588785046,36,98,Brass
240.0,0.14018691588785046,42,98,Brass
240.25,0.0,79,69,Brass
240.25,0.0,85,69,Brass
240.25,0.0,88,69,Brass
240.25,0.0,81,69,Brass
240.25,0.14018691588785046,67,90,Brass
240.25,0.14018691588785046,64,90,Brass
240.25,0.14018691588785046,61,90,Brass
240.25,0.14018691588785046,57,90,Brass
240.5,0.2803738317757009,43,110,Brass
240.5,0.0,57,80,Brass
240.5,0.0,61,80,Brass
240.5,0.0,64,80,Brass
240.5,0.0,67,80,Brass
240.5,0.14018691588785046,36,80,Brass
240.5,0.14018691588785046,42,80,Brass
240.75,0.14018691588785046,69,59,Brass
241.0,0.2803738317757009,40,105,Brass
241.0,0.2803738317757009,85,82,Brass
241.0,0.2803738317757009,81,82,Brass
241.0,0.2803738317757009,88,82,Brass
241.0,0.2803738317757009,79,82,Brass
241.0,0.14018691588785046,57,95,Brass
241.0,0.14018691588785046,61,95,Brass
241.0,0.14018691588785046,64,95,Brass
241.0,0.14018691588785046,67,95,Brass
241.0,0.14018691588785046,42,96,Brass
241.0,0.14018691588785046,40,96,Brass
241.25,0.0,67,85,Brass
241.25,0.0,64,85,Brass
241.25,0.0,61,85,Brass
241.25,0.0,57,85,Brass
241.5,0.2803738317757009,45,110,Brass
241.5,0.14018691588785046,42,66,Brass
242.0,0.42056074766355134,33,120,Brass
242.0,1.308411214953271,88,56,Brass
242.0,1.308411214953271,79,56,Brass
242.0,1.308411214953271,85,56,Brass
242.0,1.261682242990654,81,62,Brass
242.0,0.42056074766355134,57,105,Brass
242.0,0.42056074766355134,61,105,Brass
242.0,0.42056074766355134,64,105,Brass
242.0,0.42056074766355134,67,105,Brass
242.0,0.14018691588785046,36,98,Brass
242.0,0.14018691588785046,42,98,Brass
242.5,0.14018691588785046,42,66,Brass
242.75,0.14018691588785046,33,110,Brass
242.75,0.14018691588785046,67,85,Brass
242.75,0.14018691588785046,64,85,Brass
242.75,0.14018691588785046,61,85,Brass
242.75,0.14018691588785046,57,85,Brass
243.0,0.14018691588785046,33,110,Brass
243.0,0.0,57,95,Brass
243.0,0.0,61,95,Brass
243.0,0.0,64,95,Brass
243.0,0.0,67,95,Brass
243.0,0.14018691588785046,42,96,Brass
243.0,0.14018691588785046,40,96,Brass
243.5,0.14018691588785046,38,95,Brass
243.5,0.14018691588785046,57,95,Brass
243.5,0.14018691588785046,61,95,Brass
243.5,0.14018691588785046,64,95,Brass
243.5,0.14018691588785046,67,95,Brass
243.5,0.14018691588785046,36,88,Brass
243.5,0.14018691588785046,42,88,Brass
243.75,0.14018691588785046,40,90,Brass
243.75,0.14018691588785046,67,85,Brass
243.75,0.14018691588785046,64,85,Brass
243.75,0.14018691588785046,61,85,Brass
243.75,0.14018691588785046,57,85,Brass
244.0,0.14018691588785046,43,110,Brass
244.0,0.14018691588785046,42,86,Brass
244.25,0.14018691588785046,67,90,Brass
244.25,0.14018691588785046,64,90,Brass
244.25,0.14018691588785046,61,90,Brass
244.25,0.14018691588785046,57,90,Brass
244.5,0.2803738317757009,43,110,Brass
244.5,0.2803738317757009,69,49,Brass
244.5,0.0,57,80,Brass
244.5,0.0,61,80,Brass
244.5,0.0,64,80,Brass
244.5,0.0,67,80,Brass
244.5,0.14018691588785046,36,88,Brass
244.5,0.14018691588785046,42,88,Brass
245.0,0.2803738317757009,40,105,Brass
245.0,0.18691588785046725,81,85,Brass
245.0,0.18691588785046725,88,85,Brass
245.0,0.18691588785046725,79,85,Brass
245.0,0.18691588785046725,85,85,Brass
245.0,0.14018691588785046,57,95,Brass
245.0,0.14018691588785046,61,95,Brass
245.0,0.14018691588785046,64,95,Brass
245.0,0.14018691588785046,67,95,Brass
245.0,0.14018691588785046,42,96,Brass
245.0,0.14018691588785046,40,96,Brass
245.25,0.0,67,85,Brass
245.25,0.0,64,85,Brass
245.25,0.0,61,85,Brass
245.25,0.0,57,85,Brass
245.25,0.14018691588785046,36,110,Brass
245.5,0.2803738317757009,45,110,Brass
245.5,0.2803738317757009,69,100,Brass
245.5,0.14018691588785046,81,70,Brass
245.5,0.14018691588785046,79,70,Brass
245.5,0.14018691588785046,88,70,Brass
245.5,0.14018691588785046,85,70,Brass
245.5,0.14018691588785046,42,66,Brass
246.0,0.14018691588785046,40,108,Brass
246.0,0.2803738317757009,74,100,Brass
246.0,1.308411214953271,86,82,Brass
246.0,1.4018691588785046,80,60,Brass
246.0,0.14018691588785046,59,105,Brass
246.0,0.14018691588785046,62,105,Brass
246.0,0.14018691588785046,64,105,Brass
246.0,0.14018691588785046,68,105,Brass
246.0,0.14018691588785046,40,94,Brass
246.0,0.14018691588785046,49,94,Brass
246.5,0.14018691588785046,40,108,Brass
246.5,0.2803738317757009,72,100,Brass
246.5,0.14018691588785046,68,100,Brass
246.5,0.14018691588785046,64,100,Brass
246.5,0.14018691588785046,62,100,Brass
246.5,0.14018691588785046,59,100,Brass
246.5,0.14018691588785046,36,100,Brass
247.0,0.14018691588785046,40,108,Brass
247.0,0.2803738317757009,74,100,Brass
247.0,0.14018691588785046,59,105,Brass
247.0,0.14018691588785046,62,105,Brass
247.0,0.14018691588785046,64,105,Brass
247.0,0.14018691588785046,68,105,Brass
247.0,0.2803738317757009,46,100,Brass
247.0,0.2803738317757009,40,100,Brass
247.5,0.14018691588785046,40,108,Brass
247.5,0.2803738317757009,72,100,Brass
247.5,0.14018691588785046,68,100,Brass
247.5,0.14018691588785046,64,100,Brass
247.5,0.14018691588785046,62,100,Brass
247.5,0.14018691588785046,59,100,Brass
247.5,0.14018691588785046,36,100,Brass
248.0,0.14018691588785046,40,108,Brass
248.0,0.2803738317757009,74,100,Brass
248.0,0.14018691588785046,59,105,Brass
248.0,0.14018691588785046,62,105,Brass
248.0,0.14018691588785046,64,105,Brass
248.0,0.14018691588785046,68,105,Brass
248.0,0.2803738317757009,46,101,Brass
248.0,0.2803738317757009,40,101,Brass
248.5,0.14018691588785046,40,108,Brass
248.5,0.2803738317757009,72,100,Brass
248.5,0.18691588785046725,71,51,Brass
248.5,0.14018691588785046,68,100,Brass
248.5,0.14018691588785046,64,100,Brass
248.5,0.14018691588785046,62,100,Brass
248.5,0.14018691588785046,59,100,Brass
248.5,0.14018691588785046,36,100,Brass
249.0,0.14018691588785046,40,108,Brass
249.0,0.2803738317757009,74,100,Brass
249.0,0.2803738317757009,86,86,Brass
249.0,0.2803738317757009,80,86,Brass
249.0,0.14018691588785046,58,105,Brass
249.0,0.14018691588785046,61,105,Brass
249.0,0.14018691588785046,64,105,Brass
249.0,0.14018691588785046,67,105,Brass
249.0,0.14018691588785046,46,103,Brass
249.0,0.14018691588785046,40,103,Brass
249.5,0.14018691588785046,40,108,Brass
249.5,0.2803738317757009,76,100,Brass
249.5,0.14018691588785046,67,100,Brass
249.5,0.14018691588785046,64,100,Brass
249.5,0.14018691588785046,61,100,Brass
249.5,0.14018691588785046,58,100,Brass
250.0,0.7009345794392523,38,108,Brass
250.0,0.2803738317757009,72,100,Brass
250.0,0.9813084112149532,93,58,Brass
250.0,0.9813084112149532,84,58,Brass
250.0,0.9813084112149532,86,58,Brass
250.0,0.9813084112149532,90,58,Brass
250.0,0.14018691588785046,57,105,Brass
250.0,0.14018691588785046,60,105,Brass
250.0,0.14018691588785046,62,105,Brass
250.0,0.14018691588785046,66,105,Brass
250.0,0.14018691588785046,42,118,Brass
250.0,0.14018691588785046,36,118,Brass
250.0,0.14018691588785046,40,118,Brass
251.5,0.2803738317757009,36,108,Brass
251.5,0.2803738317757009,69,100,Brass
251.75,0.14018691588785046,74,45,Brass
252.0,0.2803738317757009,38,108,Brass
252.0,0.14018691588785046,74,100,Brass
252.0,0.0,93,48,Brass
252.0,0.0,90,48,Brass
252.25,0.14018691588785046,74,100,Brass
252.25,0.14018691588785046,84,76,Brass
252.25,0.14018691588785046,93,76,Brass
252.25,0.14018691588785046,90,76,Brass
252.25,0.14018691588785046,86,76,Brass
252.5,0.2803738317757009,40,108,Brass
252.5,0.8411214953271027,72,100,Brass
252.75,0.14018691588785046,74,57,Brass
253.0,0.5607476635514018,36,108,Brass
253.0,0.14018691588785046,90,57,Brass
253.0,0.14018691588785046,84,57,Brass
253.0,0.0,93,46,Brass
253.0,0.0,84,46,Brass
253.0,0.14018691588785046,40,100,Brass
253.25,0.0,90,68,Brass
253.25,0.0,93,68,Brass
253.25,0.0,86,68,Brass
253.25,0.0,84,68,Brass
254.0,0.42056074766355134,33,120,Brass
254.0,1.6822429906542054,69,100,Brass
254.0,1.4018691588785046,81,64,Brass
254.0,1.4018691588785046,91,64,Brass
254.0,1.4018691588785046,88,64,Brass
254.0,1.4018691588785046,85,64,Brass
254.0,0.42056074766355134,57,105,Brass
254.0,0.42056074766355134,61,105,Brass
254.0,0.42056074766355134,64,105,Brass
254.0,0.42056074766355134,67,105,Brass
254.0,0.14018691588785046,36,82,Brass
254.0,0.14018691588785046,49,82,Brass
254.5,0.14018691588785046,42,86,Brass
254.75,0.14018691588785046,33,110,Brass
254.75,0.14018691588785046,67,85,Brass
254.75,0.14018691588785046,64,85,Brass
254.75,0.14018691588785046,61,85,Brass
254.75,0.14018691588785046,57,85,Brass
255.0,0.14018691588785046,33,110,Brass
255.0,0.0,57,95,Brass
255.0,0.0,61,95,Brass
255.0,0.0,64,95,Brass
255.0,0.0,67,95,Brass
255.0,0.14018691588785046,42,93,Brass
255.0,0.14018691588785046,40,93,Brass
255.5,0.14018691588785046,38,95,Brass
255.5,0.14018691588785046,57,95,Brass
255.5,0.14018691588785046,61,95,Brass
255.5,0.14018691588785046,64,95,Brass
255.5,0.14018691588785046,67,95,Brass
255.5,0.14018691588785046,42,86,Brass
255.75,0.14018691588785046,40,90,Brass
255.75,0.14018691588785046,67,85,Brass
255.75,0.14018691588785046,64,85,Brass
255.75,0.14018691588785046,61,85,Brass
255.75,0.14018691588785046,57,85,Brass
256.0,0.14018691588785046,43,110,Brass
256.0,0.14018691588785046,36,93,Brass
256.0,0.14018691588785046,42,93,Brass
256.25,0.14018691588785046,67,90,Brass
256.25,0.14018691588785046,64,90,Brass
256.25,0.14018691588785046,61,90,Brass
256.25,0.14018691588785046,57,90,Brass
256.5,0.2803738317757009,43,110,Brass
256.5,0.2803738317757009,79,78,Brass
256.5,0.0,57,80,Brass
256.5,0.0,61,80,Brass
256.5,0.0,64,80,Brass
256.5,0.0,67,80,Brass
256.5,0.14018691588785046,42,86,Brass
257.0,0.2803738317757009,40,105,Brass
257.0,0.2803738317757009,85,84,Brass
257.0,0.2803738317757009,88,84,Brass
257.0,0.2803738317757009,91,84,Brass
257.0,0.2803738317757009,81,84,Brass
257.0,0.14018691588785046,57,95,Brass
257.0,0.14018691588785046,61,95,Brass
257.0,0.14018691588785046,64,95,Brass
257.0,0.14018691588785046,67,95,Brass
257.0,0.14018691588785046,42,93,Brass
257.0,0.14018691588785046,40,93,Brass
257.25,0.0,67,85,Brass
257.25,0.0,64,85,Brass
257.25,0.0,61,85,Brass
257.25,0.0,57,85,Brass
257.5,0.2803738317757009,45,110,Brass
257.5,0.14018691588785046,36,93,Brass
257.5,0.14018691588785046,42,93,Brass
258.0,0.42056074766355134,33,120,Brass
258.0,2.102803738317757,85,72,Brass
258.0,1.261682242990654,79,53,Brass
258.0,0.42056074766355134,57,105,Brass
258.0,0.42056074766355134,61,105,Brass
258.0,0.42056074766355134,64,105,Brass
258.0,0.42056074766355134,67,105,Brass
258.0,0.14018691588785046,42,93,Brass
258.0,0.14018691588785046,36,93,Brass
258.5,0.14018691588785046,42,86,Brass
258.75,0.14018691588785046,33,110,Brass
258.75,0.14018691588785046,67,85,Brass
258.75,0.14018691588785046,64,85,Brass
258.75,0.14018691588785046,61,85,Brass
258.75,0.14018691588785046,57,85,Brass
259.0,0.14018691588785046,33,110,Brass
259.0,0.0,57,95,Brass
259.0,0.0,61,95,Brass
259.0,0.0,64,95,Brass
259.0,0.0,67,95,Brass
259.0,0.14018691588785046,42,93,Brass
259.0,0.14018691588785046,40,93,Brass
259.5,0.14018691588785046,38,95,Brass
259.5,0.14018691588785046,57,95,Brass
259.5,0.14018691588785046,61,95,Brass
259.5,0.14018691588785046,64,95,Brass
259.5,0.14018691588785046,67,95,Brass
259.5,0.14018691588785046,42,86,Brass
259.75,0.14018691588785046,40,90,Brass
259.75,0.14018691588785046,67,85,Brass
259.75,0.14018691588785046,64,85,Brass
259.75,0.14018691588785046,61,85,Brass
259.75,0.14018691588785046,57,85,Brass
260.0,0.14018691588785046,43,110,Brass
260.0,0.14018691588785046,42,93,Brass
260.0,0.14018691588785046,36,93,Brass
260.25,0.14018691588785046,67,90,Brass
260.25,0.14018691588785046,64,90,Brass
260.25,0.14018691588785046,61,90,Brass
260.25,0.14018691588785046,57,90,Brass
260.5,0.2803738317757009,43,110,Brass
260.5,0.18691588785046725,79,69,Brass
260.5,0.18691588785046725,73,69,Brass
260.5,0.0,57,80,Brass
260.5,0.0,61,80,Brass
260.5,0.0,64,80,Brass
260.5,0.0,67,80,Brass
260.5,0.14018691588785046,42,86,Brass
261.0,0.2803738317757009,40,105,Brass
261.0,0.14018691588785046,79,57,Brass
261.0,0.14018691588785046,73,82,Brass
261.0,0.14018691588785046,57,95,Brass
261.0,0.14018691588785046,61,95,Brass
261.0,0.14018691588785046,64,95,Brass
261.0,0.14018691588785046,67,95,Brass
261.0,0.14018691588785046,42,93,Brass
261.0,0.14018691588785046,40,93,Brass
261.25,0.0,67,85,Brass
261.25,0.0,64,85,Brass
261.25,0.0,61,85,Brass
261.25,0.0,57,85,Brass
261.5,0.2803738317757009,45,110,Brass
261.5,0.2803738317757009,69,100,Brass
261.5,0.14018691588785046,79,78,Brass
261.5,0.14018691588785046,73,78,Brass
261.5,0.14018691588785046,42,86,Brass
262.0,0.14018691588785046,40,108,Brass
262.0,0.2803738317757009,74,100,Brass
262.0,1.308411214953271,86,82,Brass
262.0,1.4018691588785046,80,60,Brass
262.0,0.14018691588785046,59,105,Brass
262.0,0.14018691588785046,62,105,Brass
262.0,0.14018691588785046,64,105,Brass
262.0,0.14018691588785046,68,105,Brass
262.0,0.2803738317757009,46,89,Brass
262.0,0.14018691588785046,40,117,Brass
262.5,0.14018691588785046,40,108,Brass
262.5,0.2803738317757009,72,100,Brass
262.5,0.14018691588785046,68,100,Brass
262.5,0.14018691588785046,64,100,Brass
262.5,0.14018691588785046,62,100,Brass
262.5,0.14018691588785046,59,100,Brass
262.5,0.14018691588785046,36,100,Brass
263.0,0.14018691588785046,40,108,Brass
263.0,0.2803738317757009,74,100,Brass
263.0,0.14018691588785046,59,105,Brass
263.0,0.14018691588785046,62,105,Brass
263.0,0.14018691588785046,64,105,Brass
263.0,0.14018691588785046,68,105,Brass
263.0,0.14018691588785046,46,92,Brass
263.0,0.2803738317757009,40,120,Brass
263.5,0.14018691588785046,40,108,Brass
263.5,0.2803738317757009,72,100,Brass
263.5,0.14018691588785046,68,100,Brass
263.5,0.14018691588785046,64,100,Brass
263.5,0.14018691588785046,62,100,Brass
263.5,0.14018691588785046,59,100,Brass
263.5,0.14018691588785046,36,100,Brass
264.0,0.14018691588785046,40,108,Brass
264.0,0.2803738317757009,74,100,Brass
264.0,0.14018691588785046,59,105,Brass
264.0,0.14018691588785046,62,105,Brass
264.0,0.14018691588785046,64,105,Brass
264.0,0.14018691588785046,68,105,Brass
264.0,0.14018691588785046,46,103,Brass
264.0,0.14018691588785046,40,103,Brass
264.5,0.14018691588785046,40,108,Brass
264.5,0.2803738317757009,72,100,Brass
264.5,0.18691588785046725,71,51,Brass
264.5,0.14018691588785046,68,100,Brass
264.5,0.14018691588785046,64,100,Brass
264.5,0.14018691588785046,62,100,Brass
264.5,0.14018691588785046,59,100,Brass
264.5,0.14018691588785046,36,100,Brass
265.0,0.14018691588785046,40,108,Brass
265.0,0.2803738317757009,74,100,Brass
265.0,0.2803738317757009,86,86,Brass
265.0,0.2803738317757009,80,86,Brass
265.0,0.14018691588785046,58,105,Brass
265.0,0.14018691588785046,61,105,Brass
265.0,0.14018691588785046,64,105,Brass
265.0,0.14018691588785046,67,105,Brass
265.0,0.14018691588785046,46,106,Brass
265.0,0.14018691588785046,40,106,Brass
265.5,0.14018691588785046,40,108,Brass
265.5,0.2803738317757009,76,100,Brass
265.5,0.14018691588785046,67,100,Brass
265.5,0.14018691588785046,64,100,Brass
265.5,0.14018691588785046,61,100,Brass
265.5,0.14018691588785046,58,100,Brass
265.5,0.14018691588785046,36,100,Brass
266.0,0.14018691588785046,38,108,Brass
266.0,0.2803738317757009,72,100,Brass
266.0,0.9813084112149532,93,58,Brass
266.0,0.9813084112149532,84,58,Brass
266.0,0.9813084112149532,86,58,Brass
266.0,0.9813084112149532,90,58,Brass
266.0,0.14018691588785046,57,105,Brass
266.0,0.14018691588785046,60,105,Brass
266.0,0.14018691588785046,62,105,Brass
266.0,0.14018691588785046,66,105,Brass
266.0,0.14018691588785046,36,119,Brass
266.0,0.14018691588785046,42,119,Brass
266.0,0.14018691588785046,40,119,Brass
267.5,0.2803738317757009,36,108,Brass
267.5,0.2803738317757009,69,100,Brass
267.75,0.14018691588785046,74,45,Brass
268.0,0.2803738317757009,38,108,Brass
268.0,0.14018691588785046,74,100,Brass
268.0,0.0,93,48,Brass
268.0,0.0,90,48,Brass
268.25,0.14018691588785046,74,100,Brass
268.25,0.14018691588785046,84,76,Brass
268.25,0.14018691588785046,93,76,Brass
268.25,0.14018691588785046,90,76,Brass
268.25,0.14018691588785046,86,76,Brass
268.5,0.2803738317757009,40,108,Brass
268.5,0.8411214953271027,72,100,Brass
268.75,0.14018691588785046,74,57,Brass
269.0,0.5607476635514018,36,108,Brass
269.0,0.14018691588785046,90,57,Brass
269.0,0.14018691588785046,84,57,Brass
269.0,0.0,93,46,Brass
269.0,0.0,84,46,Brass
269.0,0.14018691588785046,40,120,Brass
269.25,0.0,90,68,Brass
269.25,0.0,93,68,Brass
269.25,0.0,86,68,Brass
269.25,0.0,84,68,Brass
270.0,0.42056074766355134,33,120,Brass
270.0,1.6822429906542054,69,100,Brass
270.0,1.4018691588785046,81,64,Brass
270.0,1.4018691588785046,91,64,Brass
270.0,1.4018691588785046,88,64,Brass
270.0,1.4018691588785046,85,64,Brass
270.0,0.42056074766355134,57,105,Brass
270.0,0.42056074766355134,61,105,Brass
270.0,0.42056074766355134,64,105,Brass
270.0,0.42056074766355134,67,105,Brass
270.0,0.14018691588785046,36,96,Brass
270.0,0.14018691588785046,49,96,Brass
270.75,0.14018691588785046,33,110,Brass
270.75,0.14018691588785046,67,85,Brass
270.75,0.14018691588785046,64,85,Brass
270.75,0.14018691588785046,61,85,Brass
270.75,0.14018691588785046,57,85,Brass
271.0,0.14018691588785046,33,110,Brass
271.0,0.0,57,95,Brass
271.0,0.0,61,95,Brass
271.0,0.0,64,95,Brass
271.0,0.0,67,95,Brass
271.0,0.14018691588785046,42,93,Brass
271.0,0.14018691588785046,40,93,Brass
271.5,0.14018691588785046,38,95,Brass
271.5,0.14018691588785046,57,95,Brass
271.5,0.14018691588785046,61,95,Brass
271.5,0.14018691588785046,64,95,Brass
271.5,0.14018691588785046,67,95,Brass
271.5,0.14018691588785046,42,86,Brass
271.75,0.14018691588785046,40,90,Brass
271.75,0.14018691588785046,67,85,Brass
271.75,0.14018691588785046,64,85,Brass
271.75,0.14018691588785046,61,85,Brass
271.75,0.14018691588785046,57,85,Brass
272.0,0.14018691588785046,43,110,Brass
272.0,0.14018691588785046,36,93,Brass
272.0,0.14018691588785046,42,93,Brass
272.25,0.14018691588785046,67,90,Brass
272.25,0.14018691588785046,64,90,Brass
272.25,0.14018691588785046,61,90,Brass
272.25,0.14018691588785046,57,90,Brass
272.5,0.2803738317757009,43,110,Brass
272.5,0.2803738317757009,79,78,Brass
272.5,0.0,57,80,Brass
272.5,0.0,61,80,Brass
272.5,0.0,64,80,Brass
272.5,0.0,67,80,Brass
272.5,0.14018691588785046,42,86,Brass
273.0,0.2803738317757009,40,105,Brass
273.0,0.2803738317757009,85,84,Brass
273.0,0.2803738317757009,88,84,Brass
273.0,0.2803738317757009,91,84,Brass
273.0,0.2803738317757009,81,84,Brass
273.0,0.14018691588785046,57,95,Brass
273.0,0.14018691588785046,61,95,Brass
273.0,0.14018691588785046,64,95,Brass
273.0,0.14018691588785046,67,95,Brass
273.0,0.14018691588785046,42,93,Brass
273.0,0.14018691588785046,40,93,Brass
273.25,0.0,67,85,Brass
273.25,0.0,64,85,Brass
273.25,0.0,61,85,Brass
273.25,0.0,57,85,Brass
273.5,0.2803738317757009,45,110,Brass
273.5,0.14018691588785046,42,86,Brass
274.0,0.14018691588785046,33,108,Brass
274.0,2.102803738317757,85,72,Brass
274.0,2.102803738317757,79,53,Brass
274.0,0.14018691588785046,57,105,Brass
274.0,0.14018691588785046,61,105,Brass
274.0,0.14018691588785046,64,105,Brass
274.0,0.14018691588785046,67,105,Brass
274.0,0.14018691588785046,36,101,Brass
274.0,0.14018691588785046,42,101,Brass
274.0,0.14018691588785046,40,101,Brass
275.75,0.14018691588785046,47,90,Brass
276.0,0.14018691588785046,47,110,Brass
276.5,0.14018691588785046,64,120,Brass
276.75,0.14018691588785046,66,115,Brass
276.75,0.14018691588785046,36,110,Brass
277.0,0.14018691588785046,69,115,Brass
277.0,0.14018691588785046,40,107,Brass
277.25,0.2803738317757009,69,120,Brass
277.25,0.14018691588785046,36,110,Brass
277.75,0.14018691588785046,69,115,Brass
278.0,0.42056074766355134,33,120,Brass
278.0,1.308411214953271,85,82,Brass
278.0,1.4018691588785046,79,60,Brass
278.0,0.42056074766355134,57,105,Brass
278.0,0.42056074766355134,61,105,Brass
278.0,0.42056074766355134,64,105,Brass
278.0,0.42056074766355134,67,105,Brass
278.0,1.6822429906542054,71,120,Brass
278.0,0.14018691588785046,49,95,Brass
278.0,0.14018691588785046,36,95,Brass
278.0,0.14018691588785046,42,95,Brass
278.5,0.14018691588785046,42,66,Brass
278.75,0.14018691588785046,33,110,Brass
278.75,0.14018691588785046,67,85,Brass
278.75,0.14018691588785046,64,85,Brass
278.75,0.14018691588785046,61,85,Brass
278.75,0.14018691588785046,57,85,Brass
279.0,0.14018691588785046,33,110,Brass
279.0,0.0,57,95,Brass
279.0,0.0,61,95,Brass
279.0,0.0,64,95,Brass
279.0,0.0,67,95,Brass
279.0,0.14018691588785046,42,96,Brass
279.0,0.14018691588785046,40,96,Brass
279.5,0.14018691588785046,38,95,Brass
279.5,0.14018691588785046,57,95,Brass
279.5,0.14018691588785046,61,95,Brass
279.5,0.14018691588785046,64,95,Brass
279.5,0.14018691588785046,67,95,Brass
279.5,0.14018691588785046,36,80,Brass
279.5,0.14018691588785046,42,80,Brass
279.75,0.14018691588785046,40,90,Brass
279.75,0.14018691588785046,67,85,Brass
279.75,0.14018691588785046,64,85,Brass
279.75,0.14018691588785046,61,85,Brass
279.75,0.14018691588785046,57,85,Brass
280.0,0.14018691588785046,43,110,Brass
280.0,0.14018691588785046,36,98,Brass
280.0,0.14018691588785046,42,98,Brass
280.25,0.14018691588785046,67,90,Brass
280.25,0.14018691588785046,64,90,Brass
280.25,0.14018691588785046,61,90,Brass
280.25,0.14018691588785046,57,90,Brass
280.5,0.2803738317757009,43,110,Brass
280.5,0.18691588785046725,69,51,Brass
280.5,0.0,57,80,Brass
280.5,0.0,61,80,Brass
280.5,0.0,64,80,Brass
280.5,0.0,67,80,Brass
280.5,0.14018691588785046,36,80,Brass
280.5,0.14018691588785046,42,80,Brass
281.0,0.2803738317757009,40,105,Brass
281.0,0.2803738317757009,85,86,Brass
281.0,0.2803738317757009,79,86,Brass
281.0,0.14018691588785046,57,95,Brass
281.0,0.14018691588785046,61,95,Brass
281.0,0.14018691588785046,64,95,Brass
281.0,0.14018691588785046,67,95,Brass
281.0,0.14018691588785046,42,96,Brass
281.0,0.14018691588785046,40,96,Brass
281.25,0.0,67,85,Brass
281.25,0.0,64,85,Brass
281.25,0.0,61,85,Brass
281.25,0.0,57,85,Brass
281.5,0.2803738317757009,45,110,Brass
281.5,0.14018691588785046,36,80,Brass
281.5,0.14018691588785046,42,80,Brass
282.0,0.42056074766355134,33,120,Brass
282.0,1.1214953271028036,81,65,Brass
282.0,1.1214953271028036,88,65,Brass
282.0,1.1214953271028036,85,65,Brass
282.0,1.1214953271028036,79,65,Brass
282.0,0.42056074766355134,57,105,Brass
282.0,0.42056074766355134,61,105,Brass
282.0,0.42056074766355134,64,105,Brass
282.0,0.42056074766355134,67,105,Brass
282.0,0.14018691588785046,36,98,Brass
282.0,0.14018691588785046,42,98,Brass
282.5,0.14018691588785046,42,66,Brass
282.75,0.14018691588785046,33,110,Brass
282.75,0.14018691588785046,67,85,Brass
282.75,0.14018691588785046,64,85,Brass
282.75,0.14018691588785046,61,85,Brass
282.75,0.14018691588785046,57,85,Brass
283.0,0.14018691588785046,33,110,Brass
283.0,0.0,57,95,Brass
283.0,0.0,61,95,Brass
283.0,0.0,64,95,Brass
283.0,0.0,67,95,Brass
283.0,0.14018691588785046,42,96,Brass
283.0,0.14018691588785046,40,96,Brass
283.5,0.14018691588785046,38,95,Brass
283.5,0.14018691588785046,57,95,Brass
283.5,0.14018691588785046,61,95,Brass
283.5,0.14018691588785046,64,95,Brass
283.5,0.14018691588785046,67,95,Brass
283.5,0.14018691588785046,36,80,Brass
283.5,0.14018691588785046,42,80,Brass
283.75,0.14018691588785046,40,90,Brass
283.75,0.14018691588785046,67,85,Brass
283.75,0.14018691588785046,64,85,Brass
283.75,0.14018691588785046,61,85,Brass
283.75,0.14018691588785046,57,85,Brass
284.0,0.14018691588785046,43,110,Brass
284.0,0.14018691588785046,36,98,Brass
284.0,0.14018691588785046,42,98,Brass
284.25,0.0,85,69,Brass
284.25,0.0,81,69,Brass
284.25,0.0,79,69,Brass
284.25,0.0,88,69,Brass
284.25,0.14018691588785046,67,90,Brass
284.25,0.14018691588785046,64,90,Brass
284.25,0.14018691588785046,61,90,Brass
284.25,0.14018691588785046,57,90,Brass
284.5,0.2803738317757009,43,110,Brass
284.5,0.0,57,80,Brass
284.5,0.0,61,80,Brass
284.5,0.0,64,80,Brass
284.5,0.0,67,80,Brass
284.5,0.5607476635514018,76,120,Brass
284.5,0.14018691588785046,36,80,Brass
284.5,0.14018691588785046,42,80,Brass
284.75,0.14018691588785046,69,59,Brass
285.0,0.2803738317757009,40,105,Brass
285.0,0.2803738317757009,81,82,Brass
285.0,0.2803738317757009,85,82,Brass
285.0,0.2803738317757009,79,82,Brass
285.0,0.2803738317757009,88,82,Brass
285.0,0.14018691588785046,57,95,Brass
285.0,0.14018691588785046,61,95,Brass
285.0,0.14018691588785046,64,95,Brass
285.0,0.14018691588785046,67,95,Brass
285.0,0.14018691588785046,42,96,Brass
285.0,0.14018691588785046,40,96,Brass
285.25,0.0,67,85,Brass
285.25,0.0,64,85,Brass
285.25,0.0,61,85,Brass
285.25,0.0,57,85,Brass
285.5,0.2803738317757009,45,110,Brass
285.5,0.2803738317757009,76,115,Brass
285.5,0.14018691588785046,42,66,Brass
286.0,0.42056074766355134,28,120,Brass
286.0,1.308411214953271,74,56,Brass
286.0,1.308411214953271,83,56,Brass
286.0,1.308411214953271,80,56,Brass
286.0,1.261682242990654,76,62,Brass
286.0,0.42056074766355134,59,105,Brass
286.0,0.42056074766355134,62,105,Brass
286.0,0.42056074766355134,64,105,Brass
286.0,0.42056074766355134,68,105,Brass
286.0,0.2803738317757009,73,120,Brass
286.0,0.14018691588785046,36,98,Brass
286.0,0.14018691588785046,42,98,Brass
286.5,0.2803738317757009,73,120,Brass
286.5,0.14018691588785046,42,66,Brass
286.75,0.14018691588785046,28,110,Brass
286.75,0.14018691588785046,68,85,Brass
286.75,0.14018691588785046,64,85,Brass
286.75,0.14018691588785046,62,85,Brass
286.75,0.14018691588785046,59,85,Brass
287.0,0.14018691588785046,28,110,Brass
287.0,0.0,59,95,Brass
287.0,0.0,62,95,Brass
287.0,0.0,64,95,Brass
287.0,0.0,68,95,Brass
287.0,0.2803738317757009,71,120,Brass
287.0,0.14018691588785046,42,96,Brass
287.0,0.14018691588785046,40,96,Brass
287.5,0.14018691588785046,33,95,Brass
287.5,0.14018691588785046,59,95,Brass
287.5,0.14018691588785046,62,95,Brass
287.5,0.14018691588785046,64,95,Brass
287.5,0.14018691588785046,68,95,Brass
287.5,0.14018691588785046,69,120,Brass
287.5,0.14018691588785046,36,80,Brass
287.5,0.14018691588785046,42,80,Brass
287.75,0.14018691588785046,35,90,Brass
287.75,0.14018691588785046,68,85,Brass
287.75,0.14018691588785046,64,85,Brass
287.75,0.14018691588785046,62,85,Brass
287.75,0.14018691588785046,59,85,Brass
287.75,0.14018691588785046,66,115,Brass
288.0,0.14018691588785046,38,110,Brass
288.0,0.14018691588785046,69,120,Brass
288.0,0.14018691588785046,36,98,Brass
288.0,0.14018691588785046,42,98,Brass
288.25,0.14018691588785046,68,90,Brass
288.25,0.14018691588785046,64,90,Brass
288.25,0.14018691588785046,62,90,Brass
288.25,0.14018691588785046,59,90,Brass
288.5,0.2803738317757009,38,110,Brass
288.5,0.2803738317757009,64,49,Brass
288.5,0.0,59,80,Brass
288.5,0.0,62,80,Brass
288.5,0.0,64,80,Brass
288.5,0.0,68,80,Brass
288.5,0.42056074766355134,73,120,Brass
288.5,0.14018691588785046,36,80,Brass
288.5,0.14018691588785046,42,80,Brass
289.0,0.2803738317757009,35,105,Brass
289.0,0.18691588785046725,74,85,Brass
289.0,0.18691588785046725,80,85,Brass
289.0,0.18691588785046725,83,85,Brass
289.0,0.18691588785046725,76,85,Brass
289.0,0.14018691588785046,59,95,Brass
289.0,0.14018691588785046,62,95,Brass
289.0,0.14018691588785046,64,95,Brass
289.0,0.14018691588785046,68,95,Brass
289.0,0.2803738317757009,76,120,Brass
289.0,0.14018691588785046,42,96,Brass
289.0,0.14018691588785046,40,96,Brass
289.25,0.0,68,85,Brass
289.25,0.0,64,85,Brass
289.25,0.0,62,85,Brass
289.25,0.0,59,85,Brass
289.5,0.2803738317757009,40,110,Brass
289.5,0.14018691588785046,83,70,Brass
289.5,0.14018691588785046,74,70,Brass
289.5,0.14018691588785046,76,70,Brass
289.5,0.14018691588785046,80,70,Brass
289.5,0.2803738317757009,73,120,Brass
289.5,0.14018691588785046,36,80,Brass
289.5,0.14018691588785046,42,80,Brass
290.0,0.42056074766355134,28,120,Brass
290.0,1.1214953271028036,76,65,Brass
290.0,1.1214953271028036,80,65,Brass
290.0,1.1214953271028036,74,65,Brass
290.0,1.1214953271028036,83,65,Brass
290.0,0.42056074766355134,59,105,Brass
290.0,0.42056074766355134,62,105,Brass
290.0,0.42056074766355134,64,105,Brass
290.0,0.42056074766355134,68,105,Brass
290.0,0.2803738317757009,71,120,Brass
290.0,0.14018691588785046,36,98,Brass
290.0,0.14018691588785046,42,98,Brass
290.5,0.14018691588785046,69,120,Brass
290.5,0.14018691588785046,42,66,Brass
290.75,0.14018691588785046,28,110,Brass
290.75,0.14018691588785046,68,85,Brass
290.75,0.14018691588785046,64,85,Brass
290.75,0.14018691588785046,62,85,Brass
290.75,0.14018691588785046,59,85,Brass
290.75,0.9813084112149532,69,120,Brass
291.0,0.14018691588785046,28,110,Brass
291.0,0.0,59,95,Brass
291.0,0.0,62,95,Brass
291.0,0.0,64,95,Brass
291.0,0.0,68,95,Brass
291.0,0.14018691588785046,42,96,Brass
291.0,0.14018691588785046,40,96,Brass
291.5,0.14018691588785046,33,95,Brass
291.5,0.14018691588785046,59,95,Brass
291.5,0.14018691588785046,62,95,Brass
291.5,0.14018691588785046,64,95,Brass
291.5,0.14018691588785046,68,95,Brass
291.5,0.14018691588785046,36,88,Brass
291.5,0.14018691588785046,42,88,Brass
291.75,0.14018691588785046,35,90,Brass
291.75,0.14018691588785046,68,85,Brass
291.75,0.14018691588785046,64,85,Brass
291.75,0.14018691588785046,62,85,Brass
291.75,0.14018691588785046,59,85,Brass
292.0,0.14018691588785046,38,110,Brass
292.0,0.14018691588785046,42,86,Brass
292.25,0.14018691588785046,83,69,Brass
292.25,0.14018691588785046,76,69,Brass
292.25,0.14018691588785046,74,69,Brass
292.25,0.14018691588785046,80,69,Brass
292.25,0.14018691588785046,68,90,Brass
292.25,0.14018691588785046,64,90,Brass
292.25,0.14018691588785046,62,90,Brass
292.25,0.14018691588785046,59,90,Brass
292.5,0.2803738317757009,38,110,Brass
292.5,0.0,59,80,Brass
292.5,0.0,62,80,Brass
292.5,0.0,64,80,Brass
292.5,0.0,68,80,Brass
292.5,0.14018691588785046,36,88,Brass
292.5,0.14018691588785046,42,88,Brass
292.75,0.14018691588785046,64,59,Brass
293.0,0.2803738317757009,35,105,Brass
293.0,0.2803738317757009,85,82,Brass
293.0,0.2803738317757009,88,82,Brass
293.0,0.2803738317757009,81,82,Brass
293.0,0.2803738317757009,79,82,Brass
293.0,0.14018691588785046,59,95,Brass
293.0,0.14018691588785046,62,95,Brass
293.0,0.14018691588785046,64,95,Brass
293.0,0.14018691588785046,68,95,Brass
293.0,0.14018691588785046,42,96,Brass
293.0,0.14018691588785046,40,96,Brass
293.25,0.14018691588785046,36,110,Brass
293.5,0.2803738317757009,40,110,Brass
293.5,0.14018691588785046,67,85,Brass
293.5,0.14018691588785046,63,85,Brass
293.5,0.14018691588785046,61,85,Brass
293.5,0.14018691588785046,58,85,Brass
293.5,0.5607476635514018,83,120,Brass
293.5,0.14018691588785046,42,66,Brass
294.0,0.42056074766355134,38,120,Brass
294.0,1.308411214953271,90,82,Brass
294.0,1.4018691588785046,84,60,Brass
294.0,0.42056074766355134,57,105,Brass
294.0,0.42056074766355134,60,105,Brass
294.0,0.42056074766355134,62,105,Brass
294.0,0.42056074766355134,66,105,Brass
294.0,0.14018691588785046,36,98,Brass
294.0,0.14018691588785046,42,98,Brass
294.5,1.4018691588785046,81,120,Brass
294.5,0.14018691588785046,42,66,Brass
294.75,0.14018691588785046,38,110,Brass
294.75,0.14018691588785046,66,85,Brass
294.75,0.14018691588785046,62,85,Brass
294.75,0.14018691588785046,60,85,Brass
294.75,0.14018691588785046,57,85,Brass
295.0,0.14018691588785046,38,110,Brass
295.0,0.0,57,95,Brass
295.0,0.0,60,95,Brass
295.0,0.0,62,95,Brass
295.0,0.0,66,95,Brass
295.0,0.14018691588785046,42,96,Brass
295.0,0.14018691588785046,40,96,Brass
295.5,0.14018691588785046,43,95,Brass
295.5,0.14018691588785046,57,95,Brass
295.5,0.14018691588785046,60,95,Brass
295.5,0.14018691588785046,62,95,Brass
295.5,0.14018691588785046,66,95,Brass
295.5,0.14018691588785046,36,88,Brass
295.5,0.14018691588785046,42,88,Brass
295.75,0.14018691588785046,45,90,Brass
295.75,0.14018691588785046,66,85,Brass
295.75,0.14018691588785046,62,85,Brass
295.75,0.14018691588785046,60,85,Brass
295.75,0.14018691588785046,57,85,Brass
296.0,0.14018691588785046,48,110,Brass
296.0,0.14018691588785046,42,86,Brass
296.25,0.14018691588785046,66,90,Brass
296.25,0.14018691588785046,62,90,Brass
296.25,0.14018691588785046,60,90,Brass
296.25,0.14018691588785046,57,90,Brass
296.5,0.2803738317757009,48,110,Brass
296.5,0.18691588785046725,74,51,Brass
296.5,0.0,57,80,Brass
296.5,0.0,60,80,Brass
296.5,0.0,62,80,Brass
296.5,0.0,66,80,Brass
296.5,0.14018691588785046,36,88,Brass
296.5,0.14018691588785046,42,88,Brass
297.0,0.2803738317757009,45,105,Brass
297.0,0.2803738317757009,90,86,Brass
297.0,0.2803738317757009,84,86,Brass
297.0,0.14018691588785046,57,95,Brass
297.0,0.14018691588785046,60,95,Brass
297.0,0.14018691588785046,62,95,Brass
297.0,0.14018691588785046,66,95,Brass
297.0,0.14018691588785046,42,96,Brass
297.0,0.14018691588785046,40,96,Brass
297.25,0.0,66,85,Brass
297.25,0.0,62,85,Brass
297.25,0.0,60,85,Brass
297.25,0.0,57,85,Brass
297.25,0.14018691588785046,36,110,Brass
297.5,0.2803738317757009,50,110,Brass
297.5,0.5607476635514018,83,120,Brass
297.5,0.14018691588785046,42,66,Brass
298.0,0.42056074766355134,38,120,Brass
298.0,1.1214953271028036,86,65,Brass
298.0,1.1214953271028036,93,65,Brass
298.0,1.1214953271028036,90,65,Brass
298.0,1.1214953271028036,84,65,Brass
298.0,0.42056074766355134,57,105,Brass
298.0,0.42056074766355134,60,105,Brass
298.0,0.42056074766355134,62,105,Brass
298.0,0.42056074766355134,66,105,Brass
298.0,0.14018691588785046,36,98,Brass
298.0,0.14018691588785046,42,98,Brass
298.5,0.14018691588785046,81,115,Brass
298.5,0.14018691588785046,42,66,Brass
298.75,0.14018691588785046,38,110,Brass
298.75,0.14018691588785046,66,85,Brass
298.75,0.14018691588785046,62,85,Brass
298.75,0.14018691588785046,60,85,Brass
298.75,0.14018691588785046,57,85,Brass
298.75,0.2803738317757009,78,120,Brass
299.0,0.14018691588785046,38,110,Brass
299.0,0.0,57,95,Brass
299.0,0.0,60,95,Brass
299.0,0.0,62,95,Brass
299.0,0.0,66,95,Brass
299.0,0.14018691588785046,42,96,Brass
299.0,0.14018691588785046,40,96,Brass
299.25,0.14018691588785046,78,115,Brass
299.5,0.14018691588785046,43,95,Brass
299.5,0.14018691588785046,57,95,Brass
299.5,0.14018691588785046,60,95,Brass
299.5,0.14018691588785046,62,95,Brass
299.5,0.14018691588785046,66,95,Brass
299.5,0.14018691588785046,76,120,Brass
299.5,0.14018691588785046,36,80,Brass
299.5,0.14018691588785046,42,80,Brass
299.75,0.14018691588785046,45,90,Brass
299.75,0.14018691588785046,66,85,Brass
299.75,0.14018691588785046,62,85,Brass
299.75,0.14018691588785046,60,85,Brass
299.75,0.14018691588785046,57,85,Brass
299.75,0.14018691588785046,73,115,Brass
300.0,0.14018691588785046,48,110,Brass
300.0,0.14018691588785046,71,120,Brass
300.0,0.14018691588785046,36,98,Brass
300.0,0.14018691588785046,42,98,Brass
300.25,0.14018691588785046,93,69,Brass
300.25,0.14018691588785046,90,69,Brass
300.25,0.14018691588785046,86,69,Brass
300.25,0.14018691588785046,84,69,Brass
300.25,0.14018691588785046,66,90,Brass
300.25,0.14018691588785046,62,90,Brass
300.25,0.14018691588785046,60,90,Brass
300.25,0.14018691588785046,57,90,Brass
300.25,0.2803738317757009,73,120,Brass
300.5,0.2803738317757009,48,110,Brass
300.5,0.0,57,80,Brass
300.5,0.0,60,80,Brass
300.5,0.0,62,80,Brass
300.5,0.0,66,80,Brass
300.5,0.14018691588785046,42,66,Brass
300.75,0.14018691588785046,74,59,Brass
300.75,0.14018691588785046,73,120,Brass
301.0,0.2803738317757009,45,105,Brass
301.0,0.2803738317757009,86,82,Brass
301.0,0.2803738317757009,84,82,Brass
301.0,0.2803738317757009,90,82,Brass
301.0,0.2803738317757009,93,82,Brass
301.0,0.14018691588785046,57,95,Brass
301.0,0.14018691588785046,60,95,Brass
301.0,0.14018691588785046,62,95,Brass
301.0,0.14018691588785046,66,95,Brass
301.0,0.14018691588785046,71,120,Brass
301.0,0.14018691588785046,42,96,Brass
301.0,0.14018691588785046,40,96,Brass
301.25,0.0,66,85,Brass
301.25,0.0,62,85,Brass
301.25,0.0,60,85,Brass
301.25,0.0,57,85,Brass
301.25,0.14018691588785046,73,120,Brass
301.5,0.2803738317757009,50,110,Brass
301.5,0.2803738317757009,66,120,Brass
301.5,0.14018691588785046,42,66,Brass
302.0,0.42056074766355134,33,120,Brass
302.0,1.1214953271028036,79,65,Brass
302.0,1.1214953271028036,85,65,Brass
302.0,1.1214953271028036,88,65,Brass
302.0,1.1214953271028036,81,65,Brass
302.0,0.42056074766355134,57,105,Brass
302.0,0.42056074766355134,61,105,Brass
302.0,0.42056074766355134,64,105,Brass
302.0,0.42056074766355134,67,105,Brass
302.0,0.8411214953271027,69,120,Brass
302.0,0.14018691588785046,36,98,Brass
302.0,0.14018691588785046,42,98,Brass
302.5,0.14018691588785046,42,66,Brass
302.75,0.14018691588785046,33,110,Brass
302.75,0.14018691588785046,67,85,Brass
302.75,0.14018691588785046,64,85,Brass
302.75,0.14018691588785046,61,85,Brass
302.75,0.14018691588785046,57,85,Brass
303.0,0.14018691588785046,33,110,Brass
303.0,0.0,57,95,Brass
303.0,0.0,61,95,Brass
303.0,0.0,64,95,Brass
303.0,0.0,67,95,Brass
303.0,0.14018691588785046,42,96,Brass
303.0,0.14018691588785046,40,96,Brass
303.5,0.14018691588785046,38,95,Brass
303.5,0.14018691588785046,57,95,Brass
303.5,0.14018691588785046,61,95,Brass
303.5,0.14018691588785046,64,95,Brass
303.5,0.14018691588785046,67,95,Brass
303.5,1.6822429906542054,73,120,Brass
303.5,0.14018691588785046,36,80,Brass
303.5,0.14018691588785046,42,80,Brass
303.75,0.14018691588785046,40,90,Brass
303.75,0.14018691588785046,67,85,Brass
303.75,0.14018691588785046,64,85,Brass
303.75,0.14018691588785046,61,85,Brass
303.75,0.14018691588785046,57,85,Brass
304.0,0.14018691588785046,43,110,Brass
304.0,0.14018691588785046,36,98,Brass
304.0,0.14018691588785046,42,98,Brass
304.25,0.0,79,69,Brass
304.25,0.0,85,69,Brass
304.25,0.0,88,69,Brass
304.25,0.0,81,69,Brass
304.25,0.14018691588785046,67,90,Brass
304.25,0.14018691588785046,64,90,Brass
304.25,0.14018691588785046,61,90,Brass
304.25,0.14018691588785046,57,90,Brass
304.5,0.2803738317757009,43,110,Brass
304.5,0.0,57,80,Brass
304.5,0.0,61,80,Brass
304.5,0.0,64,80,Brass
304.5,0.0,67,80,Brass
304.5,0.14018691588785046,36,80,Brass
304.5,0.14018691588785046,42,80,Brass
304.75,0.14018691588785046,69,59,Brass
305.0,0.2803738317757009,40,105,Brass
305.0,0.2803738317757009,85,82,Brass
305.0,0.2803738317757009,81,82,Brass
305.0,0.2803738317757009,88,82,Brass
305.0,0.2803738317757009,79,82,Brass
305.0,0.14018691588785046,57,95,Brass
305.0,0.14018691588785046,61,95,Brass
305.0,0.14018691588785046,64,95,Brass
305.0,0.14018691588785046,67,95,Brass
305.0,0.14018691588785046,42,96,Brass
305.0,0.14018691588785046,40,96,Brass
305.25,0.0,67,85,Brass
305.25,0.0,64,85,Brass
305.25,0.0,61,85,Brass
305.25,0.0,57,85,Brass
305.5,0.2803738317757009,45,110,Brass
305.5,0.14018691588785046,36,80,Brass
305.5,0.14018691588785046,42,80,Brass
306.0,0.42056074766355134,33,120,Brass
306.0,1.308411214953271,88,56,Brass
306.0,1.308411214953271,79,56,Brass
306.0,1.308411214953271,85,56,Brass
306.0,1.261682242990654,81,62,Brass
306.0,0.42056074766355134,57,105,Brass
306.0,0.42056074766355134,61,105,Brass
306.0,0.42056074766355134,64,105,Brass
306.0,0.42056074766355134,67,105,Brass
306.0,0.14018691588785046,36,98,Brass
306.0,0.14018691588785046,42,98,Brass
306.5,0.14018691588785046,73,120,Brass
306.5,0.14018691588785046,42,66,Brass
306.75,0.14018691588785046,33,110,Brass
306.75,0.14018691588785046,67,85,Brass
306.75,0.14018691588785046,64,85,Brass
306.75,0.14018691588785046,61,85,Brass
306.75,0.14018691588785046,57,85,Brass
306.75,0.14018691588785046,76,115,Brass
307.0,0.14018691588785046,33,110,Brass
307.0,0.0,57,95,Brass
307.0,0.0,61,95,Brass
307.0,0.0,64,95,Brass
307.0,0.0,67,95,Brass
307.0,0.14018691588785046,73,120,Brass
307.0,0.14018691588785046,42,96,Brass
307.0,0.14018691588785046,40,96,Brass
307.25,0.14018691588785046,69,120,Brass
307.5,0.14018691588785046,38,95,Brass
307.5,0.14018691588785046,57,95,Brass
307.5,0.14018691588785046,61,95,Brass
307.5,0.14018691588785046,64,95,Brass
307.5,0.14018691588785046,67,95,Brass
307.5,0.2803738317757009,66,115,Brass
307.5,0.14018691588785046,36,80,Brass
307.5,0.14018691588785046,42,80,Brass
307.75,0.14018691588785046,40,90,Brass
307.75,0.14018691588785046,67,85,Brass
307.75,0.14018691588785046,64,85,Brass
307.75,0.14018691588785046,61,85,Brass
307.75,0.14018691588785046,57,85,Brass
308.0,0.14018691588785046,43,110,Brass
308.0,1.1214953271028036,69,120,Brass
308.0,0.14018691588785046,36,98,Brass
308.0,0.14018691588785046,42,98,Brass
308.25,0.14018691588785046,67,90,Brass
308.25,0.14018691588785046,64,90,Brass
308.25,0.14018691588785046,61,90,Brass
308.25,0.14018691588785046,57,90,Brass
308.5,0.2803738317757009,43,110,Brass
308.5,0.2803738317757009,69,49,Brass
308.5,0.0,57,80,Brass
308.5,0.0,61,80,Brass
308.5,0.0,64,80,Brass
308.5,0.0,67,80,Brass
308.5,0.14018691588785046,36,80,Brass
308.5,0.14018691588785046,42,80,Brass
309.0,0.2803738317757009,40,105,Brass
309.0,0.18691588785046725,81,85,Brass
309.0,0.18691588785046725,88,85,Brass
309.0,0.18691588785046725,79,85,Brass
309.0,0.18691588785046725,85,85,Brass
309.0,0.14018691588785046,57,95,Brass
309.0,0.14018691588785046,61,95,Brass
309.0,0.14018691588785046,64,95,Brass
309.0,0.14018691588785046,67,95,Brass
309.0,0.14018691588785046,42,96,Brass
309.0,0.14018691588785046,40,96,Brass
309.25,0.0,67,85,Brass
309.25,0.0,64,85,Brass
309.25,0.0,61,85,Brass
309.25,0.0,57,85,Brass
309.5,0.2803738317757009,45,110,Brass
309.5,0.14018691588785046,81,70,Brass
309.5,0.14018691588785046,79,70,Brass
309.5,0.14018691588785046,88,70,Brass
309.5,0.14018691588785046,85,70,Brass
310.0,0.42056074766355134,33,120,Brass
310.0,1.308411214953271,85,82,Brass
310.0,1.4018691588785046,79,60,Brass
310.0,0.42056074766355134,57,105,Brass
310.0,0.42056074766355134,61,105,Brass
310.0,0.42056074766355134,64,105,Brass
310.0,0.42056074766355134,67,105,Brass
310.0,0.2803738317757009,54,120,Brass
310.0,0.14018691588785046,49,95,Brass
310.0,0.14018691588785046,36,95,Brass
310.0,0.14018691588785046,42,95,Brass
310.5,0.14018691588785046,57,115,Brass
310.5,0.14018691588785046,42,66,Brass
310.75,0.14018691588785046,33,110,Brass
310.75,0.14018691588785046,67,85,Brass
310.75,0.14018691588785046,64,85,Brass
310.75,0.14018691588785046,61,85,Brass
310.75,0.14018691588785046,57,85,Brass
311.0,0.14018691588785046,33,110,Brass
311.0,0.0,57,95,Brass
311.0,0.0,61,95,Brass
311.0,0.0,64,95,Brass
311.0,0.0,67,95,Brass
311.0,0.5607476635514018,61,120,Brass
311.0,0.14018691588785046,42,96,Brass
311.0,0.14018691588785046,40,96,Brass
311.5,0.14018691588785046,38,95,Brass
311.5,0.14018691588785046,57,95,Brass
311.5,0.14018691588785046,61,95,Brass
311.5,0.14018691588785046,64,95,Brass
311.5,0.14018691588785046,67,95,Brass
311.5,0.14018691588785046,36,80,Brass
311.5,0.14018691588785046,42,80,Brass
311.75,0.14018691588785046,40,90,Brass
311.75,0.14018691588785046,67,85,Brass
311.75,0.14018691588785046,64,85,Brass
311.75,0.14018691588785046,61,85,Brass
311.75,0.14018691588785046,57,85,Brass
312.0,0.14018691588785046,43,110,Brass
312.0,0.14018691588785046,61,120,Brass
312.0,0.14018691588785046,36,98,Brass
312.0,0.14018691588785046,42,98,Brass
312.25,0.14018691588785046,67,90,Brass
312.25,0.14018691588785046,64,90,Brass
312.25,0.14018691588785046,61,90,Brass
312.25,0.14018691588785046,57,90,Brass
312.25,0.14018691588785046,61,115,Brass
312.5,0.2803738317757009,43,110,Brass
312.5,0.18691588785046725,69,51,Brass
312.5,0.0,57,80,Brass
312.5,0.0,61,80,Brass
312.5,0.0,64,80,Brass
312.5,0.0,67,80,Brass
312.5,0.14018691588785046,57,120,Brass
312.5,0.14018691588785046,36,80,Brass
312.5,0.14018691588785046,42,80,Brass
312.75,0.14018691588785046,54,115,Brass
313.0,0.2803738317757009,40,105,Brass
313.0,0.2803738317757009,85,86,Brass
313.0,0.2803738317757009,79,86,Brass
313.0,0.14018691588785046,57,95,Brass
313.0,0.14018691588785046,61,95,Brass
313.0,0.14018691588785046,64,95,Brass
313.0,0.14018691588785046,67,95,Brass
313.0,0.14018691588785046,59,120,Brass
313.0,0.14018691588785046,42,96,Brass
313.0,0.14018691588785046,40,96,Brass
313.25,0.0,67,85,Brass
313.25,0.0,64,85,Brass
313.25,0.0,61,85,Brass
313.25,0.0,57,85,Brass
313.25,0.42056074766355134,57,115,Brass
313.5,0.2803738317757009,45,110,Brass
313.5,0.14018691588785046,36,80,Brass
313.5,0.14018691588785046,42,80,Brass
314.0,0.42056074766355134,33,120,Brass
314.0,1.1214953271028036,81,65,Brass
314.0,1.1214953271028036,88,65,Brass
314.0,1.1214953271028036,85,65,Brass
314.0,1.1214953271028036,79,65,Brass
314.0,0.42056074766355134,57,105,Brass
314.0,0.42056074766355134,61,105,Brass
314.0,0.42056074766355134,64,105,Brass
314.0,0.42056074766355134,67,105,Brass
314.0,1.261682242990654,57,115,Brass
314.0,0.14018691588785046,36,98,Brass
314.0,0.14018691588785046,42,98,Brass
314.5,0.14018691588785046,42,66,Brass
314.75,0.14018691588785046,33,110,Brass
314.75,0.14018691588785046,67,85,Brass
314.75,0.14018691588785046,64,85,Brass
314.75,0.14018691588785046,61,85,Brass
314.75,0.14018691588785046,57,85,Brass
315.0,0.14018691588785046,33,110,Brass
315.0,0.0,57,95,Brass
315.0,0.0,61,95,Brass
315.0,0.0,64,95,Brass
315.0,0.0,67,95,Brass
315.0,0.14018691588785046,42,96,Brass
315.0,0.14018691588785046,40,96,Brass
315.5,0.14018691588785046,38,95,Brass
315.5,0.14018691588785046,57,95,Brass
315.5,0.14018691588785046,61,95,Brass
315.5,0.14018691588785046,64,95,Brass
315.5,0.14018691588785046,67,95,Brass
315.5,0.14018691588785046,36,80,Brass
315.5,0.14018691588785046,42,80,Brass
315.75,0.14018691588785046,40,90,Brass
315.75,0.14018691588785046,67,85,Brass
315.75,0.14018691588785046,64,85,Brass
315.75,0.14018691588785046,61,85,Brass
315.75,0.14018691588785046,57,85,Brass
316.0,0.14018691588785046,43,110,Brass
316.0,0.14018691588785046,36,98,Brass
316.0,0.14018691588785046,42,98,Brass
316.25,0.0,85,69,Brass
316.25,0.0,81,69,Brass
316.25,0.0,79,69,Brass
316.25,0.0,88,69,Brass
316.25,0.14018691588785046,67,90,Brass
316.25,0.14018691588785046,64,90,Brass
316.25,0.14018691588785046,61,90,Brass
316.25,0.14018691588785046,57,90,Brass
316.25,0.14018691588785046,61,115,Brass
316.5,0.2803738317757009,43,110,Brass
316.5,0.0,57,80,Brass
316.5,0.0,61,80,Brass
316.5,0.0,64,80,Brass
316.5,0.0,67,80,Brass
316.5,0.14018691588785046,59,120,Brass
316.5,0.14018691588785046,36,80,Brass
316.5,0.14018691588785046,42,80,Brass
316.75,0.14018691588785046,69,59,Brass
316.75,0.14018691588785046,57,115,Brass
317.0,0.2803738317757009,40,105,Brass
317.0,0.2803738317757009,81,82,Brass
317.0,0.2803738317757009,85,82,Brass
317.0,0.2803738317757009,79,82,Brass
317.0,0.2803738317757009,88,82,Brass
317.0,0.14018691588785046,57,95,Brass
317.0,0.14018691588785046,61,95,Brass
317.0,0.14018691588785046,64,95,Brass
317.0,0.14018691588785046,67,95,Brass
317.0,0.14018691588785046,59,120,Brass
317.0,0.14018691588785046,42,96,Brass
317.0,0.14018691588785046,40,96,Brass
317.25,0.0,67,85,Brass
317.25,0.0,64,85,Brass
317.25,0.0,61,85,Brass
317.25,0.0,57,85,Brass
317.25,0.42056074766355134,57,115,Brass
317.5,0.2803738317757009,45,110,Brass
317.5,0.14018691588785046,36,80,Brass
317.5,0.14018691588785046,42,80,Brass
318.0,0.42056074766355134,28,120,Brass
318.0,1.308411214953271,74,56,Brass
318.0,1.308411214953271,83,56,Brass
318.0,1.308411214953271,80,56,Brass
318.0,1.261682242990654,76,62,Brass
318.0,0.42056074766355134,59,105,Brass
318.0,0.42056074766355134,62,105,Brass
318.0,0.42056074766355134,64,105,Brass
318.0,0.42056074766355134,68,105,Brass
318.0,0.42056074766355134,61,120,Brass
318.0,0.14018691588785046,36,98,Brass
318.0,0.14018691588785046,42,98,Brass
318.5,0.14018691588785046,64,115,Brass
318.5,0.14018691588785046,42,66,Brass
318.75,0.14018691588785046,28,110,Brass
318.75,0.14018691588785046,68,85,Brass
318.75,0.14018691588785046,64,85,Brass
318.75,0.14018691588785046,62,85,Brass
318.75,0.14018691588785046,59,85,Brass
318.75,0.42056074766355134,61,120,Brass
319.0,0.14018691588785046,28,110,Brass
319.0,0.0,59,95,Brass
319.0,0.0,62,95,Brass
319.0,0.0,64,95,Brass
319.0,0.0,68,95,Brass
319.0,0.14018691588785046,42,96,Brass
319.0,0.14018691588785046,40,96,Brass
319.25,0.14018691588785046,66,115,Brass
319.5,0.14018691588785046,33,95,Brass
319.5,0.14018691588785046,59,95,Brass
319.5,0.14018691588785046,62,95,Brass
319.5,0.14018691588785046,64,95,Brass
319.5,0.14018691588785046,68,95,Brass
319.5,0.42056074766355134,61,120,Brass
319.5,0.14018691588785046,36,80,Brass
319.5,0.14018691588785046,42,80,Brass
319.75,0.14018691588785046,35,90,Brass
319.75,0.14018691588785046,68,85,Brass
319.75,0.14018691588785046,64,85,Brass
319.75,0.14018691588785046,62,85,Brass
319.75,0.14018691588785046,59,85,Brass
320.0,0.14018691588785046,38,110,Brass
320.0,0.14018691588785046,66,115,Brass
320.0,0.14018691588785046,36,98,Brass
320.0,0.14018691588785046,42,98,Brass
320.25,0.14018691588785046,68,90,Brass
320.25,0.14018691588785046,64,90,Brass
320.25,0.14018691588785046,62,90,Brass
320.25,0.14018691588785046,59,90,Brass
320.25,0.42056074766355134,61,120,Brass
320.5,0.2803738317757009,38,110,Brass
320.5,0.2803738317757009,64,49,Brass
320.5,0.0,59,80,Brass
320.5,0.0,62,80,Brass
320.5,0.0,64,80,Brass
320.5,0.0,68,80,Brass
320.5,0.14018691588785046,36,80,Brass
320.5,0.14018691588785046,42,80,Brass
320.75,0.14018691588785046,66,115,Brass
321.0,0.2803738317757009,35,105,Brass
321.0,0.18691588785046725,74,85,Brass
321.0,0.18691588785046725,80,85,Brass
321.0,0.18691588785046725,83,85,Brass
321.0,0.18691588785046725,76,85,Brass
321.0,0.14018691588785046,59,95,Brass
321.0,0.14018691588785046,62,95,Brass
321.0,0.14018691588785046,64,95,Brass
321.0,0.14018691588785046,68,95,Brass
321.0,0.42056074766355134,61,120,Brass
321.0,0.14018691588785046,42,96,Brass
321.0,0.14018691588785046,40,96,Brass
321.25,0.0,68,85,Brass
321.25,0.0,64,85,Brass
321.25,0.0,62,85,Brass
321.25,0.0,59,85,Brass
321.5,0.2803738317757009,40,110,Brass
321.5,0.14018691588785046,83,70,Brass
321.5,0.14018691588785046,74,70,Brass
321.5,0.14018691588785046,76,70,Brass
321.5,0.14018691588785046,80,70,Brass
321.5,0.14018691588785046,66,115,Brass
321.5,0.14018691588785046,36,80,Brass
321.5,0.14018691588785046,42,80,Brass
321.75,0.42056074766355134,61,120,Brass
322.0,0.42056074766355134,28,120,Brass
322.0,1.1214953271028036,76,65,Brass
322.0,1.1214953271028036,80,65,Brass
322.0,1.1214953271028036,74,65,Brass
322.0,1.1214953271028036,83,65,Brass
322.0,0.42056074766355134,59,105,Brass
322.0,0.42056074766355134,62,105,Brass
322.0,0.42056074766355134,64,105,Brass
322.0,0.42056074766355134,68,105,Brass
322.0,0.14018691588785046,36,98,Brass
322.0,0.14018691588785046,42,98,Brass
322.25,0.14018691588785046,66,115,Brass
322.5,0.42056074766355134,61,120,Brass
322.5,0.14018691588785046,42,66,Brass
322.75,0.14018691588785046,28,110,Brass
322.75,0.14018691588785046,68,85,Brass
322.75,0.14018691588785046,64,85,Brass
322.75,0.14018691588785046,62,85,Brass
322.75,0.14018691588785046,59,85,Brass
323.0,0.14018691588785046,28,110,Brass
323.0,0.0,59,95,Brass
323.0,0.0,62,95,Brass
323.0,0.0,64,95,Brass
323.0,0.0,68,95,Brass
323.0,0.14018691588785046,66,115,Brass
323.0,0.14018691588785046,42,96,Brass
323.0,0.14018691588785046,40,96,Brass
323.25,0.42056074766355134,61,120,Brass
323.5,0.14018691588785046,33,95,Brass
323.5,0.14018691588785046,59,95,Brass
323.5,0.14018691588785046,62,95,Brass
323.5,0.14018691588785046,64,95,Brass
323.5,0.14018691588785046,68,95,Brass
323.5,0.14018691588785046,36,80,Brass
323.5,0.14018691588785046,42,80,Brass
323.75,0.14018691588785046,35,90,Brass
323.75,0.14018691588785046,68,85,Brass
323.75,0.14018691588785046,64,85,Brass
323.75,0.14018691588785046,62,85,Brass
323.75,0.14018691588785046,59,85,Brass
323.75,0.14018691588785046,66,115,Brass
324.0,0.14018691588785046,38,110,Brass
324.0,0.42056074766355134,61,120,Brass
324.0,0.14018691588785046,36,98,Brass
324.0,0.14018691588785046,42,98,Brass
324.25,0.14018691588785046,83,69,Brass
324.25,0.14018691588785046,76,69,Brass
324.25,0.14018691588785046,74,69,Brass
324.25,0.14018691588785046,80,69,Brass
324.25,0.14018691588785046,68,90,Brass
324.25,0.14018691588785046,64,90,Brass
324.25,0.14018691588785046,62,90,Brass
324.25,0.14018691588785046,59,90,Brass
324.5,0.2803738317757009,38,110,Brass
324.5,0.0,59,80,Brass
324.5,0.0,62,80,Brass
324.5,0.0,64,80,Brass
324.5,0.0,68,80,Brass
324.5,0.14018691588785046,66,115,Brass
324.5,0.14018691588785046,36,80,Brass
324.5,0.14018691588785046,42,80,Brass
324.75,0.14018691588785046,64,59,Brass
324.75,0.42056074766355134,61,120,Brass
325.0,0.2803738317757009,35,105,Brass
325.0,0.2803738317757009,85,82,Brass
325.0,0.2803738317757009,88,82,Brass
325.0,0.2803738317757009,81,82,Brass
325.0,0.2803738317757009,79,82,Brass
325.0,0.14018691588785046,59,95,Brass
325.0,0.14018691588785046,62,95,Brass
325.0,0.14018691588785046,64,95,Brass
325.0,0.14018691588785046,68,95,Brass
325.0,0.14018691588785046,42,96,Brass
325.0,0.14018691588785046,40,96,Brass
325.25,0.14018691588785046,66,115,Brass
325.5,0.2803738317757009,40,110,Brass
325.5,0.14018691588785046,67,85,Brass
325.5,0.14018691588785046,63,85,Brass
325.5,0.14018691588785046,61,85,Brass
325.5,0.14018691588785046,58,85,Brass
325.5,0.2803738317757009,71,120,Brass
325.5,0.14018691588785046,36,80,Brass
325.5,0.14018691588785046,42,80,Brass
326.0,0.42056074766355134,38,120,Brass
326.0,1.308411214953271,90,82,Brass
326.0,1.4018691588785046,84,60,Brass
326.0,0.42056074766355134,57,105,Brass
326.0,0.42056074766355134,60,105,Brass
326.0,0.42056074766355134,62,105,Brass
326.0,0.42056074766355134,66,105,Brass
326.0,1.1214953271028036,78,120,Brass
326.0,0.14018691588785046,36,98,Brass
326.0,0.14018691588785046,42,98,Brass
326.5,0.14018691588785046,42,66,Brass
326.75,0.14018691588785046,38,110,Brass
326.75,0.14018691588785046,66,85,Brass
326.75,0.14018691588785046,62,85,Brass
326.75,0.14018691588785046,60,85,Brass
326.75,0.14018691588785046,57,85,Brass
327.0,0.14018691588785046,38,110,Brass
327.0,0.0,57,95,Brass
327.0,0.0,60,95,Brass
327.0,0.0,62,95,Brass
327.0,0.0,66,95,Brass
327.0,0.14018691588785046,42,96,Brass
327.0,0.14018691588785046,40,96,Brass
327.5,0.14018691588785046,43,95,Brass
327.5,0.14018691588785046,57,95,Brass
327.5,0.14018691588785046,60,95,Brass
327.5,0.14018691588785046,62,95,Brass
327.5,0.14018691588785046,66,95,Brass
327.5,0.14018691588785046,36,80,Brass
327.5,0.14018691588785046,42,80,Brass
327.75,0.14018691588785046,45,90,Brass
327.75,0.14018691588785046,66,85,Brass
327.75,0.14018691588785046,62,85,Brass
327.75,0.14018691588785046,60,85,Brass
327.75,0.14018691588785046,57,85,Brass
328.0,0.14018691588785046,48,110,Brass
328.0,0.14018691588785046,76,115,Brass
328.0,0.14018691588785046,36,98,Brass
328.0,0.14018691588785046,42,98,Brass
328.25,0.14018691588785046,66,90,Brass
328.25,0.14018691588785046,62,90,Brass
328.25,0.14018691588785046,60,90,Brass
328.25,0.14018691588785046,57,90,Brass
328.25,0.42056074766355134,73,110,Brass
328.5,0.2803738317757009,48,110,Brass
328.5,0.18691588785046725,74,51,Brass
328.5,0.0,57,80,Brass
328.5,0.0,60,80,Brass
328.5,0.0,62,80,Brass
328.5,0.0,66,80,Brass
328.5,0.14018691588785046,36,80,Brass
328.5,0.14018691588785046,42,80,Brass
329.0,0.2803738317757009,45,105,Brass
329.0,0.2803738317757009,90,86,Brass
329.0,0.2803738317757009,84,86,Brass
329.0,0.14018691588785046,57,95,Brass
329.0,0.14018691588785046,60,95,Brass
329.0,0.14018691588785046,62,95,Brass
329.0,0.14018691588785046,66,95,Brass
329.0,0.2803738317757009,71,110,Brass
329.0,0.14018691588785046,42,96,Brass
329.0,0.14018691588785046,40,96,Brass
329.25,0.0,66,85,Brass
329.25,0.0,62,85,Brass
329.25,0.0,60,85,Brass
329.25,0.0,57,85,Brass
329.5,0.2803738317757009,50,110,Brass
329.5,0.2803738317757009,66,110,Brass
329.5,0.14018691588785046,42,66,Brass
330.0,0.42056074766355134,38,120,Brass
330.0,1.1214953271028036,86,65,Brass
330.0,1.1214953271028036,93,65,Brass
330.0,1.1214953271028036,90,65,Brass
330.0,1.1214953271028036,84,65,Brass
330.0,0.42056074766355134,57,105,Brass
330.0,0.42056074766355134,60,105,Brass
330.0,0.42056074766355134,62,105,Brass
330.0,0.42056074766355134,66,105,Brass
330.0,1.1214953271028036,73,120,Brass
330.0,0.14018691588785046,36,98,Brass
330.0,0.14018691588785046,42,98,Brass
330.5,0.14018691588785046,42,66,Brass
330.75,0.14018691588785046,38,110,Brass
330.75,0.14018691588785046,66,85,Brass
330.75,0.14018691588785046,62,85,Brass
330.75,0.14018691588785046,60,85,Brass
330.75,0.14018691588785046,57,85,Brass
331.0,0.14018691588785046,38,110,Brass
331.0,0.0,57,95,Brass
331.0,0.0,60,95,Brass
331.0,0.0,62,95,Brass
331.0,0.0,66,95,Brass
331.0,0.5607476635514018,76,115,Brass
331.0,0.14018691588785046,42,96,Brass
331.0,0.14018691588785046,40,96,Brass
331.5,0.14018691588785046,43,95,Brass
331.5,0.14018691588785046,57,95,Brass
331.5,0.14018691588785046,60,95,Brass
331.5,0.14018691588785046,62,95,Brass
331.5,0.14018691588785046,66,95,Brass
331.5,0.14018691588785046,36,80,Brass
331.5,0.14018691588785046,42,80,Brass
331.75,0.14018691588785046,45,90,Brass
331.75,0.14018691588785046,66,85,Brass
331.75,0.14018691588785046,62,85,Brass
331.75,0.14018691588785046,60,85,Brass
331.75,0.14018691588785046,57,85,Brass
332.0,0.14018691588785046,48,110,Brass
332.0,0.2803738317757009,71,120,Brass
332.0,0.14018691588785046,36,98,Brass
332.0,0.14018691588785046,42,98,Brass
332.25,0.14018691588785046,93,69,Brass
332.25,0.14018691588785046,90,69,Brass
332.25,0.14018691588785046,86,69,Brass
332.25,0.14018691588785046,84,69,Brass
332.25,0.14018691588785046,66,90,Brass
332.25,0.14018691588785046,62,90,Brass
332.25,0.14018691588785046,60,90,Brass
332.25,0.14018691588785046,57,90,Brass
332.5,0.2803738317757009,48,110,Brass
332.5,0.0,57,80,Brass
332.5,0.0,60,80,Brass
332.5,0.0,62,80,Brass
332.5,0.0,66,80,Brass
332.5,0.2803738317757009,69,115,Brass
332.5,0.14018691588785046,36,80,Brass
332.5,0.14018691588785046,42,80,Brass
332.75,0.14018691588785046,74,59,Brass
333.0,0.2803738317757009,45,105,Brass
333.0,0.2803738317757009,86,82,Brass
333.0,0.2803738317757009,84,82,Brass
333.0,0.2803738317757009,90,82,Brass
333.0,0.2803738317757009,93,82,Brass
333.0,0.14018691588785046,57,95,Brass
333.0,0.14018691588785046,60,95,Brass
333.0,0.14018691588785046,62,95,Brass
333.0,0.14018691588785046,66,95,Brass
333.0,0.5607476635514018,73,120,Brass
333.0,0.14018691588785046,42,96,Brass
333.0,0.14018691588785046,40,96,Brass
333.25,0.0,66,85,Brass
333.25,0.0,62,85,Brass
333.25,0.0,60,85,Brass
333.25,0.0,57,85,Brass
333.5,0.2803738317757009,50,110,Brass
333.5,0.14018691588785046,36,80,Brass
333.5,0.14018691588785046,42,80,Brass
334.0,0.42056074766355134,33,120,Brass
334.0,1.1214953271028036,79,65,Brass
334.0,1.1214953271028036,85,65,Brass
334.0,1.1214953271028036,88,65,Brass
334.0,1.1214953271028036,81,65,Brass
334.0,0.42056074766355134,57,105,Brass
334.0,0.42056074766355134,61,105,Brass
334.0,0.42056074766355134,64,105,Brass
334.0,0.42056074766355134,67,105,Brass
334.0,3.9252336448598126,69,120,Brass
334.0,0.14018691588785046,36,98,Brass
334.0,0.14018691588785046,42,98,Brass
334.5,0.14018691588785046,42,66,Brass
334.75,0.14018691588785046,33,110,Brass
334.75,0.14018691588785046,67,85,Brass
334.75,0.14018691588785046,64,85,Brass
334.75,0.14018691588785046,61,85,Brass
334.75,0.14018691588785046,57,85,Brass
335.0,0.14018691588785046,33,110,Brass
335.0,0.0,57,95,Brass
335.0,0.0,61,95,Brass
335.0,0.0,64,95,Brass
335.0,0.0,67,95,Brass
335.0,0.14018691588785046,42,96,Brass
335.0,0.14018691588785046,40,96,Brass
335.5,0.14018691588785046,38,95,Brass
335.5,0.14018691588785046,57,95,Brass
335.5,0.14018691588785046,61,95,Brass
335.5,0.14018691588785046,64,95,Brass
335.5,0.14018691588785046,67,95,Brass
335.5,0.14018691588785046,36,80,Brass
335.5,0.14018691588785046,42,80,Brass
335.75,0.14018691588785046,40,90,Brass
335.75,0.14018691588785046,67,85,Brass
335.75,0.14018691588785046,64,85,Brass
335.75,0.14018691588785046,61,85,Brass
335.75,0.14018691588785046,57,85,Brass
336.0,0.14018691588785046,43,110,Brass
336.0,0.14018691588785046,36,98,Brass
336.0,0.14018691588785046,42,98,Brass
336.25,0.0,79,69,Brass
336.25,0.0,85,69,Brass
336.25,0.0,88,69,Brass
336.25,0.0,81,69,Brass
336.25,0.14018691588785046,67,90,Brass
336.25,0.14018691588785046,64,90,Brass
336.25,0.14018691588785046,61,90,Brass
336.25,0.14018691588785046,57,90,Brass
336.5,0.2803738317757009,43,110,Brass
336.5,0.0,57,80,Brass
336.5,0.0,61,80,Brass
336.5,0.0,64,80,Brass
336.5,0.0,67,80,Brass
336.5,0.14018691588785046,36,80,Brass
336.5,0.14018691588785046,42,80,Brass
336.75,0.14018691588785046,69,59,Brass
337.0,0.2803738317757009,40,105,Brass
337.0,0.2803738317757009,85,82,Brass
337.0,0.2803738317757009,81,82,Brass
337.0,0.2803738317757009,88,82,Brass
337.0,0.2803738317757009,79,82,Brass
337.0,0.14018691588785046,57,95,Brass
337.0,0.14018691588785046,61,95,Brass
337.0,0.14018691588785046,64,95,Brass
337.0,0.14018691588785046,67,95,Brass
337.0,0.14018691588785046,42,96,Brass
337.0,0.14018691588785046,40,96,Brass
337.25,0.0,67,85,Brass
337.25,0.0,64,85,Brass
337.25,0.0,61,85,Brass
337.25,0.0,57,85,Brass
337.5,0.2803738317757009,45,110,Brass
337.5,0.14018691588785046,42,66,Brass
338.0,0.42056074766355134,33,120,Brass
338.0,1.308411214953271,88,56,Brass
338.0,1.308411214953271,79,56,Brass
338.0,1.308411214953271,85,56,Brass
338.0,1.261682242990654,81,62,Brass
338.0,0.42056074766355134,57,105,Brass
338.0,0.42056074766355134,61,105,Brass
338.0,0.42056074766355134,64,105,Brass
338.0,0.42056074766355134,67,105,Brass
338.0,0.14018691588785046,36,98,Brass
338.0,0.14018691588785046,42,98,Brass
338.5,0.14018691588785046,42,66,Brass
338.75,0.14018691588785046,33,110,Brass
338.75,0.14018691588785046,67,85,Brass
338.75,0.14018691588785046,64,85,Brass
338.75,0.14018691588785046,61,85,Brass
338.75,0.14018691588785046,57,85,Brass
339.0,0.14018691588785046,33,110,Brass
339.0,0.0,57,95,Brass
339.0,0.0,61,95,Brass
339.0,0.0,64,95,Brass
339.0,0.0,67,95,Brass
339.0,0.14018691588785046,42,96,Brass
339.0,0.14018691588785046,40,96,Brass
339.5,0.14018691588785046,38,95,Brass
339.5,0.14018691588785046,57,95,Brass
339.5,0.14018691588785046,61,95,Brass
339.5,0.14018691588785046,64,95,Brass
339.5,0.14018691588785046,67,95,Brass
339.5,0.14018691588785046,36,88,Brass
339.5,0.14018691588785046,42,88,Brass
339.75,0.14018691588785046,40,90,Brass
339.75,0.14018691588785046,67,85,Brass
339.75,0.14018691588785046,64,85,Brass
339.75,0.14018691588785046,61,85,Brass
339.75,0.14018691588785046,57,85,Brass
340.0,0.14018691588785046,43,110,Brass
340.0,0.14018691588785046,42,86,Brass
340.25,0.14018691588785046,67,90,Brass
340.25,0.14018691588785046,64,90,Brass
340.25,0.14018691588785046,61,90,Brass
340.25,0.14018691588785046,57,90,Brass
340.5,0.2803738317757009,43,110,Brass
340.5,0.2803738317757009,69,49,Brass
340.5,0.0,57,80,Brass
340.5,0.0,61,80,Brass
340.5,0.0,64,80,Brass
340.5,0.0,67,80,Brass
340.5,0.14018691588785046,36,88,Brass
340.5,0.14018691588785046,42,88,Brass
341.0,0.2803738317757009,40,105,Brass
341.0,0.18691588785046725,81,85,Brass
341.0,0.18691588785046725,88,85,Brass
341.0,0.18691588785046725,79,85,Brass
341.0,0.18691588785046725,85,85,Brass
341.0,0.14018691588785046,57,95,Brass
341.0,0.14018691588785046,61,95,Brass
341.0,0.14018691588785046,64,95,Brass
341.0,0.14018691588785046,67,95,Brass
341.0,0.14018691588785046,42,96,Brass
341.0,0.14018691588785046,40,96,Brass
341.25,0.0,67,85,Brass
341.25,0.0,64,85,Brass
341.25,0.0,61,85,Brass
341.25,0.0,57,85,Brass
341.25,0.14018691588785046,36,110,Brass
341.5,0.2803738317757009,45,110,Brass
341.5,0.2803738317757009,69,100,Brass
341.5,0.14018691588785046,81,70,Brass
341.5,0.14018691588785046,79,70,Brass
341.5,0.14018691588785046,88,70,Brass
341.5,0.14018691588785046,85,70,Brass
341.5,0.14018691588785046,42,66,Brass
342.0,0.14018691588785046,40,108,Brass
342.0,0.2803738317757009,74,100,Brass
342.0,1.308411214953271,86,82,Brass
342.0,1.4018691588785046,80,60,Brass
342.0,0.14018691588785046,59,105,Brass
342.0,0.14018691588785046,62,105,Brass
342.0,0.14018691588785046,64,105,Brass
342.0,0.14018691588785046,68,105,Brass
342.0,0.14018691588785046,40,94,Brass
342.0,0.14018691588785046,49,94,Brass
342.5,0.14018691588785046,40,108,Brass
342.5,0.2803738317757009,72,100,Brass
342.5,0.14018691588785046,68,100,Brass
342.5,0.14018691588785046,64,100,Brass
342.5,0.14018691588785046,62,100,Brass
342.5,0.14018691588785046,59,100,Brass
342.5,0.14018691588785046,36,100,Brass
343.0,0.14018691588785046,40,108,Brass
343.0,0.2803738317757009,74,100,Brass
343.0,0.14018691588785046,59,105,Brass
343.0,0.14018691588785046,62,105,Brass
343.0,0.14018691588785046,64,105,Brass
343.0,0.14018691588785046,68,105,Brass
343.0,0.2803738317757009,46,100,Brass
343.0,0.2803738317757009,40,100,Brass
343.5,0.14018691588785046,40,108,Brass
343.5,0.2803738317757009,72,100,Brass
343.5,0.14018691588785046,68,100,Brass
343.5,0.14018691588785046,64,100,Brass
343.5,0.14018691588785046,62,100,Brass
343.5,0.14018691588785046,59,100,Brass
343.5,0.14018691588785046,36,100,Brass
344.0,0.14018691588785046,40,108,Brass
344.0,0.2803738317757009,74,100,Brass
344.0,0.14018691588785046,59,105,Brass
344.0,0.14018691588785046,62,105,Brass
344.0,0.14018691588785046,64,105,Brass
344.0,0.14018691588785046,68,105,Brass
344.0,0.2803738317757009,46,101,Brass
344.0,0.2803738317757009,40,101,Brass
344.5,0.14018691588785046,40,108,Brass
344.5,0.2803738317757009,72,100,Brass
344.5,0.18691588785046725,71,51,Brass
344.5,0.14018691588785046,68,100,Brass
344.5,0.14018691588785046,64,100,Brass
344.5,0.14018691588785046,62,100,Brass
344.5,0.14018691588785046,59,100,Brass
344.5,0.14018691588785046,36,100,Brass
345.0,0.14018691588785046,40,108,Brass
345.0,0.2803738317757009,74,100,Brass
345.0,0.2803738317757009,86,86,Brass
345.0,0.2803738317757009,80,86,Brass
345.0,0.14018691588785046,58,105,Brass
345.0,0.14018691588785046,61,105,Brass
345.0,0.14018691588785046,64,105,Brass
345.0,0.14018691588785046,67,105,Brass
345.0,0.14018691588785046,46,103,Brass
345.0,0.14018691588785046,40,103,Brass
345.5,0.14018691588785046,40,108,Brass
345.5,0.2803738317757009,76,100,Brass
345.5,0.14018691588785046,67,100,Brass
345.5,0.14018691588785046,64,100,Brass
345.5,0.14018691588785046,61,100,Brass
345.5,0.14018691588785046,58,100,Brass
346.0,0.7009345794392523,38,108,Brass
346.0,0.2803738317757009,72,100,Brass
346.0,0.9813084112149532,93,58,Brass
346.0,0.9813084112149532,84,58,Brass
346.0,0.9813084112149532,86,58,Brass
346.0,0.9813084112149532,90,58,Brass
346.0,0.14018691588785046,57,105,Brass
346.0,0.14018691588785046,60,105,Brass
346.0,0.14018691588785046,62,105,Brass
346.0,0.14018691588785046,66,105,Brass
346.0,0.14018691588785046,42,118,Brass
346.0,0.14018691588785046,36,118,Brass
346.0,0.14018691588785046,40,118,Brass
347.5,0.2803738317757009,36,108,Brass
347.5,0.2803738317757009,69,100,Brass
347.75,0.14018691588785046,74,45,Brass
348.0,0.2803738317757009,38,108,Brass
348.0,0.14018691588785046,74,100,Brass
348.0,0.0,93,48,Brass
348.0,0.0,90,48,Brass
348.25,0.14018691588785046,74,100,Brass
348.25,0.14018691588785046,84,76,Brass
348.25,0.14018691588785046,93,76,Brass
348.25,0.14018691588785046,90,76,Brass
348.25,0.14018691588785046,86,76,Brass
348.5,0.2803738317757009,40,108,Brass
348.5,0.8411214953271027,72,100,Brass
348.75,0.14018691588785046,74,57,Brass
349.0,0.5607476635514018,36,108,Brass
349.0,0.14018691588785046,90,57,Brass
349.0,0.14018691588785046,84,57,Brass
349.0,0.0,93,46,Brass
349.0,0.0,84,46,Brass
349.0,0.14018691588785046,40,100,Brass
349.25,0.0,90,68,Brass
349.25,0.0,93,68,Brass
349.25,0.0,86,68,Brass
349.25,0.0,84,68,Brass
350.0,0.42056074766355134,33,120,Brass
350.0,1.6822429906542054,69,100,Brass
350.0,1.4018691588785046,81,64,Brass
350.0,1.4018691588785046,91,64,Brass
350.0,1.4018691588785046,88,64,Brass
350.0,1.4018691588785046,85,64,Brass
350.0,0.42056074766355134,57,105,Brass
350.0,0.42056074766355134,61,105,Brass
350.0,0.42056074766355134,64,105,Brass
350.0,0.42056074766355134,67,105,Brass
350.0,0.14018691588785046,36,82,Brass
350.0,0.14018691588785046,49,82,Brass
350.5,0.14018691588785046,42,86,Brass
350.75,0.14018691588785046,33,110,Brass
350.75,0.14018691588785046,67,85,Brass
350.75,0.14018691588785046,64,85,Brass
350.75,0.14018691588785046,61,85,Brass
350.75,0.14018691588785046,57,85,Brass
351.0,0.14018691588785046,33,110,Brass
351.0,0.0,57,95,Brass
351.0,0.0,61,95,Brass
351.0,0.0,64,95,Brass
351.0,0.0,67,95,Brass
351.0,1.6822429906542054,81,120,Brass
351.0,0.14018691588785046,42,93,Brass
351.0,0.14018691588785046,40,93,Brass
351.5,0.14018691588785046,38,95,Brass
351.5,0.14018691588785046,57,95,Brass
351.5,0.14018691588785046,61,95,Brass
351.5,0.14018691588785046,64,95,Brass
351.5,0.14018691588785046,67,95,Brass
351.5,0.14018691588785046,42,86,Brass
351.75,0.14018691588785046,40,90,Brass
351.75,0.14018691588785046,67,85,Brass
351.75,0.14018691588785046,64,85,Brass
351.75,0.14018691588785046,61,85,Brass
351.75,0.14018691588785046,57,85,Brass
352.0,0.14018691588785046,43,110,Brass
352.0,0.14018691588785046,36,93,Brass
352.0,0.14018691588785046,42,93,Brass
352.25,0.14018691588785046,67,90,Brass
352.25,0.14018691588785046,64,90,Brass
352.25,0.14018691588785046,61,90,Brass
352.25,0.14018691588785046,57,90,Brass
352.5,0.2803738317757009,43,110,Brass
352.5,0.2803738317757009,79,78,Brass
352.5,0.0,57,80,Brass
352.5,0.0,61,80,Brass
352.5,0.0,64,80,Brass
352.5,0.0,67,80,Brass
352.5,0.14018691588785046,42,86,Brass
353.0,0.2803738317757009,40,105,Brass
353.0,0.2803738317757009,85,84,Brass
353.0,0.2803738317757009,88,84,Brass
353.0,0.2803738317757009,91,84,Brass
353.0,0.2803738317757009,81,84,Brass
353.0,0.14018691588785046,57,95,Brass
353.0,0.14018691588785046,61,95,Brass
353.0,0.14018691588785046,64,95,Brass
353.0,0.14018691588785046,67,95,Brass
353.0,0.14018691588785046,42,93,Brass
353.0,0.14018691588785046,40,93,Brass
353.25,0.0,67,85,Brass
353.25,0.0,64,85,Brass
353.25,0.0,61,85,Brass
353.25,0.0,57,85,Brass
353.5,0.2803738317757009,45,110,Brass
353.5,0.14018691588785046,36,93,Brass
353.5,0.14018691588785046,42,93,Brass
354.0,0.42056074766355134,33,120,Brass
354.0,2.102803738317757,85,72,Brass
354.0,1.261682242990654,79,53,Brass
354.0,0.42056074766355134,57,105,Brass
354.0,0.42056074766355134,61,105,Brass
354.0,0.42056074766355134,64,105,Brass
354.0,0.42056074766355134,67,105,Brass
354.0,0.14018691588785046,42,93,Brass
354.0,0.14018691588785046,36,93,Brass
354.5,0.14018691588785046,42,86,Brass
354.75,0.14018691588785046,33,110,Brass
354.75,0.14018691588785046,67,85,Brass
354.75,0.14018691588785046,64,85,Brass
354.75,0.14018691588785046,61,85,Brass
354.75,0.14018691588785046,57,85,Brass
355.0,0.14018691588785046,33,110,Brass
355.0,0.0,57,95,Brass
355.0,0.0,61,95,Brass
355.0,0.0,64,95,Brass
355.0,0.0,67,95,Brass
355.0,0.42056074766355134,64,120,Brass
355.0,0.14018691588785046,42,93,Brass
355.0,0.14018691588785046,40,93,Brass
355.5,0.14018691588785046,38,95,Brass
355.5,0.14018691588785046,57,95,Brass
355.5,0.14018691588785046,61,95,Brass
355.5,0.14018691588785046,64,95,Brass
355.5,0.14018691588785046,67,95,Brass
355.5,0.14018691588785046,42,86,Brass
355.75,0.14018691588785046,40,90,Brass
355.75,0.14018691588785046,67,85,Brass
355.75,0.14018691588785046,64,85,Brass
355.75,0.14018691588785046,61,85,Brass
355.75,0.14018691588785046,57,85,Brass
355.75,0.14018691588785046,61,115,Brass
356.0,0.14018691588785046,43,110,Brass
356.0,0.2803738317757009,59,120,Brass
356.0,0.14018691588785046,42,93,Brass
356.0,0.14018691588785046,36,93,Brass
356.25,0.14018691588785046,67,90,Brass
356.25,0.14018691588785046,64,90,Brass
356.25,0.14018691588785046,61,90,Brass
356.25,0.14018691588785046,57,90,Brass
356.5,0.2803738317757009,43,110,Brass
356.5,0.18691588785046725,79,69,Brass
356.5,0.18691588785046725,73,69,Brass
356.5,0.0,57,80,Brass
356.5,0.0,61,80,Brass
356.5,0.0,64,80,Brass
356.5,0.0,67,80,Brass
356.5,0.2803738317757009,54,115,Brass
356.5,0.14018691588785046,42,86,Brass
357.0,0.2803738317757009,40,105,Brass
357.0,0.14018691588785046,79,57,Brass
357.0,0.14018691588785046,73,82,Brass
357.0,0.14018691588785046,57,95,Brass
357.0,0.14018691588785046,61,95,Brass
357.0,0.14018691588785046,64,95,Brass
357.0,0.14018691588785046,67,95,Brass
357.0,0.5607476635514018,57,115,Brass
357.0,0.14018691588785046,42,93,Brass
357.0,0.14018691588785046,40,93,Brass
357.25,0.0,67,85,Brass
357.25,0.0,64,85,Brass
357.25,0.0,61,85,Brass
357.25,0.0,57,85,Brass
357.5,0.2803738317757009,45,110,Brass
357.5,0.2803738317757009,69,100,Brass
357.5,0.14018691588785046,79,78,Brass
357.5,0.14018691588785046,73,78,Brass
357.5,0.14018691588785046,42,86,Brass
358.0,0.14018691588785046,40,108,Brass
358.0,0.2803738317757009,74,100,Brass
358.0,1.308411214953271,86,82,Brass
358.0,1.4018691588785046,80,60,Brass
358.0,0.14018691588785046,59,105,Brass
358.0,0.14018691588785046,62,105,Brass
358.0,0.14018691588785046,64,105,Brass
358.0,0.14018691588785046,68,105,Brass
358.0,0.2803738317757009,46,89,Brass
358.0,0.14018691588785046,40,117,Brass
358.5,0.14018691588785046,40,108,Brass
358.5,0.2803738317757009,72,100,Brass
358.5,0.14018691588785046,68,100,Brass
358.5,0.14018691588785046,64,100,Brass
358.5,0.14018691588785046,62,100,Brass
358.5,0.14018691588785046,59,100,Brass
358.5,0.14018691588785046,36,100,Brass
359.0,0.14018691588785046,40,108,Brass
359.0,0.2803738317757009,74,100,Brass
359.0,0.14018691588785046,59,105,Brass
359.0,0.14018691588785046,62,105,Brass
359.0,0.14018691588785046,64,105,Brass
359.0,0.14018691588785046,68,105,Brass
359.0,0.14018691588785046,46,92,Brass
359.0,0.2803738317757009,40,120,Brass
359.5,0.14018691588785046,40,108,Brass
359.5,0.2803738317757009,72,100,Brass
359.5,0.14018691588785046,68,100,Brass
359.5,0.14018691588785046,64,100,Brass
359.5,0.14018691588785046,62,100,Brass
359.5,0.14018691588785046,59,100,Brass
359.5,0.14018691588785046,36,100,Brass
360.0,0.14018691588785046,40,108,Brass
360.0,0.2803738317757009,74,100,Brass
360.0,0.14018691588785046,59,105,Brass
360.0,0.14018691588785046,62,105,Brass
360.0,0.14018691588785046,64,105,Brass
360.0,0.14018691588785046,68,105,Brass
360.0,0.14018691588785046,46,103,Brass
360.0,0.14018691588785046,40,103,Brass
360.5,0.14018691588785046,40,108,Brass
360.5,0.2803738317757009,72,100,Brass
360.5,0.18691588785046725,71,51,Brass
360.5,0.14018691588785046,68,100,Brass
360.5,0.14018691588785046,64,100,Brass
360.5,0.14018691588785046,62,100,Brass
360.5,0.14018691588785046,59,100,Brass
360.5,0.14018691588785046,36,100,Brass
361.0,0.14018691588785046,40,108,Brass
361.0,0.2803738317757009,74,100,Brass
361.0,0.2803738317757009,86,86,Brass
361.0,0.2803738317757009,80,86,Brass
361.0,0.14018691588785046,58,105,Brass
361.0,0.14018691588785046,61,105,Brass
361.0,0.14018691588785046,64,105,Brass
361.0,0.14018691588785046,67,105,Brass
361.0,0.14018691588785046,46,106,Brass
361.0,0.14018691588785046,40,106,Brass
361.5,0.14018691588785046,40,108,Brass
361.5,0.2803738317757009,76,100,Brass
361.5,0.14018691588785046,67,100,Brass
361.5,0.14018691588785046,64,100,Brass
361.5,0.14018691588785046,61,100,Brass
361.5,0.14018691588785046,58,100,Brass
361.5,0.14018691588785046,36,100,Brass
362.0,0.14018691588785046,38,108,Brass
362.0,0.2803738317757009,72,100,Brass
362.0,0.9813084112149532,93,58,Brass
362.0,0.9813084112149532,84,58,Brass
362.0,0.9813084112149532,86,58,Brass
362.0,0.9813084112149532,90,58,Brass
362.0,0.14018691588785046,57,105,Brass
362.0,0.14018691588785046,60,105,Brass
362.0,0.14018691588785046,62,105,Brass
362.0,0.14018691588785046,66,105,Brass
362.0,0.14018691588785046,36,119,Brass
362.0,0.14018691588785046,42,119,Brass
362.0,0.14018691588785046,40,119,Brass
363.5,0.2803738317757009,36,108,Brass
363.5,0.2803738317757009,69,100,Brass
363.75,0.14018691588785046,74,45,Brass
364.0,0.2803738317757009,38,108,Brass
364.0,0.14018691588785046,74,100,Brass
364.0,0.0,93,48,Brass
364.0,0.0,90,48,Brass
364.25,0.14018691588785046,74,100,Brass
364.25,0.14018691588785046,84,76,Brass
364.25,0.14018691588785046,93,76,Brass
364.25,0.14018691588785046,90,76,Brass
364.25,0.14018691588785046,86,76,Brass
364.5,0.2803738317757009,40,108,Brass
364.5,0.8411214953271027,72,100,Brass
364.75,0.14018691588785046,74,57,Brass
365.0,0.5607476635514018,36,108,Brass
365.0,0.14018691588785046,90,57,Brass
365.0,0.14018691588785046,84,57,Brass
365.0,0.0,93,46,Brass
365.0,0.0,84,46,Brass
365.0,0.14018691588785046,40,120,Brass
365.25,0.0,90,68,Brass
365.25,0.0,93,68,Brass
365.25,0.0,86,68,Brass
365.25,0.0,84,68,Brass
366.0,2.803738317757009,45,120,Brass
366.0,1.6822429906542054,69,100,Brass
366.0,2.803738317757009,57,105,Brass
366.0,2.803738317757009,61,105,Brass
366.0,2.803738317757009,64,105,Brass
366.0,2.803738317757009,67,105,Brass
366.0,0.14018691588785046,36,96,Brass
366.0,0.14018691588785046,49,96,Brass
366.5,0.2803738317757009,93,82,Brass
366.5,0.2803738317757009,69,120,Brass
367.0,0.18691588785046725,88,66,Brass
367.0,0.18691588785046725,85,66,Brass
367.0,0.18691588785046725,79,66,Brass
367.0,0.5607476635514018,67,120,Brass
367.25,0.14018691588785046,93,82,Brass
367.5,0.2803738317757009,79,74,Brass
367.5,0.18691588785046725,88,70,Brass
367.5,0.18691588785046725,85,70,Brass
368.0,0.18691588785046725,78,60,Brass
368.0,0.18691588785046725,87,60,Brass
368.0,0.18691588785046725,84,60,Brass
368.0,0.5607476635514018,66,120,Brass
368.25,0.14018691588785046,93,82,Brass
368.5,0.18691588785046725,87,68,Brass
368.5,0.18691588785046725,84,68,Brass
368.5,0.18691588785046725,78,68,Brass
369.0,0.18691588785046725,86,74,Brass
369.0,0.18691588785046725,77,74,Brass
369.0,0.18691588785046725,83,74,Brass
369.0,0.5607476635514018,65,120,Brass
369.25,0.18691588785046725,93,66,Brass
369.5,0.18691588785046725,86,80,Brass
369.5,0.18691588785046725,83,80,Brass
369.5,0.2803738317757009,77,76,Brass
370.0,0.18691588785046725,85,75,Brass
370.0,0.18691588785046725,81,75,Brass
370.0,0.14018691588785046,76,64,Brass
370.0,0.14018691588785046,64,120,Brass
370.0,0.14018691588785046,45,100,Brass
370.0,0.18691588785046725,41,100,Brass
370.25,0.2803738317757009,36,100,Brass
370.5,0.2803738317757009,64,70,Brass
370.5,0.2803738317757009,64,120,Brass
371.0,0.2803738317757009,34,120,Brass
371.0,0.18691588785046725,80,71,Brass
371.0,0.18691588785046725,84,71,Brass
371.0,0.18691588785046725,74,71,Brass
371.0,0.2803738317757009,70,63,Brass
371.0,0.14018691588785046,58,105,Brass
371.0,0.14018691588785046,62,105,Brass
371.0,0.14018691588785046,65,105,Brass
371.0,0.14018691588785046,68,105,Brass
371.0,0.2803738317757009,62,120,Brass
371.0,0.2803738317757009,52,100,Brass
371.0,0.2803738317757009,36,100,Brass
371.5,2.523364485981308,33,120,Brass
371.5,2.523364485981308,79,64,Brass
371.5,2.523364485981308,73,64,Brass
371.5,2.523364485981308,69,64,Brass
371.5,2.523364485981308,83,64,Brass
371.5,2.4299065420560746,57,100,Brass
371.5,2.4299065420560746,61,100,Brass
371.5,2.4299065420560746,64,100,Brass
371.5,2.4299065420560746,67,100,Brass
371.5,2.523364485981308,61,120,Brass
371.5,0.2803738317757009,49,82,Brass
371.5,0.2803738317757009,36,82,Brass
