Start,Duration,Pitch,Velocity,Instrument
1.0,0.2099958000839983,63,98,Piano
1.0,0.2099958000839983,67,98,Piano
2.5,0.5700171005130155,63,100,Piano
2.5,0.5700171005130155,67,100,Piano
4.0,0.4199916001679966,63,98,Piano
4.0,0.4199916001679966,67,98,Piano
5.0,0.2150075252633842,63,98,Piano
5.0,0.2150075252633842,67,98,Piano
6.5,0.6150061500615006,63,100,Piano
6.5,0.6150061500615006,67,100,Piano
8.0,0.4,63,98,Piano
8.0,0.4,67,98,Piano
9.0,0.19499512512187195,63,98,Piano
9.0,0.19499512512187195,67,98,Piano
10.5,0.6299874002519948,63,100,Piano
10.5,0.6299874002519948,67,100,Piano
12.0,0.4100041000410004,63,98,Piano
12.0,0.4100041000410004,67,98,Piano
13.0,0.44001173364623053,60,95,Piano
13.0,0.44001173364623053,62,95,Piano
13.0,0.44001173364623053,67,95,Piano
14.5,0.6150061500615006,59,95,Piano
14.5,0.6150061500615006,62,95,Piano
14.5,0.6150061500615006,67,95,Piano
16.0,0.4,59,95,Piano
16.0,0.4,62,95,Piano
16.0,0.4,67,95,Piano
17.0,0.22000586682311526,63,98,Piano
17.0,0.22000586682311526,67,98,Piano
18.5,0.6150061500615006,63,100,Piano
18.5,0.6150061500615006,67,100,Piano
20.0,0.4199916001679966,63,98,Piano
20.0,0.4199916001679966,67,98,Piano
21.0,0.19499512512187195,63,98,Piano
21.0,0.19499512512187195,67,98,Piano
22.5,0.6150061500615006,63,100,Piano
22.5,0.6150061500615006,67,100,Piano
24.0,0.450011250281257,63,98,Piano
24.0,0.450011250281257,67,98,Piano
25.0,0.2150075252633842,63,98,Piano
25.0,0.2150075252633842,67,98,Piano
26.5,0.5700171005130155,63,100,Piano
26.5,0.5700171005130155,67,100,Piano
28.0,0.44001173364623053,63,98,Piano
28.0,0.44001173364623053,67,98,Piano
29.0,0.14667057788207682,43,96,Piano
29.0,0.14667057788207682,60,96,Piano
29.0,0.14667057788207682,62,96,Piano
29.0,0.14667057788207682,67,96,Piano
29.5,0.14667057788207682,43,96,Piano
29.5,0.14667057788207682,60,96,Piano
29.5,0.14667057788207682,62,96,Piano
29.5,0.14667057788207682,67,96,Piano
30.5,1.075037626316921,37,95,Piano
30.5,1.075037626316921,56,95,Piano
30.5,1.075037626316921,59,95,Piano
30.5,1.075037626316921,61,95,Piano
30.5,1.075037626316921,67,95,Piano
33.0,0.22000586682311526,63,98,Piano
33.0,0.22000586682311526,67,98,Piano
34.5,0.6450225757901527,63,100,Piano
34.5,0.6450225757901527,67,100,Piano
36.0,0.4,63,98,Piano
36.0,0.4,67,98,Piano
37.0,0.2,63,98,Piano
37.0,0.2,67,98,Piano
38.5,0.6299874002519948,63,100,Piano
38.5,0.6299874002519948,67,100,Piano
40.0,0.4100041000410004,63,98,Piano
40.0,0.4100041000410004,67,98,Piano
41.0,0.22000586682311526,63,98,Piano
41.0,0.22000586682311526,67,98,Piano
42.5,0.5700171005130155,63,100,Piano
42.5,0.5700171005130155,67,100,Piano
44.0,0.3499970833576387,63,98,Piano
44.0,0.3499970833576387,67,98,Piano
45.0,0.2099958000839983,62,98,Piano
45.0,0.2099958000839983,67,98,Piano
46.5,0.6450225757901527,62,100,Piano
46.5,0.6450225757901527,67,100,Piano
48.0,0.4100041000410004,62,98,Piano
48.0,0.4100041000410004,67,98,Piano
49.0,0.2150075252633842,63,98,Piano
49.0,0.2150075252633842,67,98,Piano
50.5,0.5849853753656158,63,100,Piano
50.5,0.5849853753656158,67,100,Piano
52.0,0.4,63,98,Piano
52.0,0.4,67,98,Piano
53.0,0.2099958000839983,63,98,Piano
53.0,0.2099958000839983,67,98,Piano
54.5,0.6150061500615006,63,100,Piano
54.5,0.6150061500615006,67,100,Piano
56.0,0.4300150505267684,63,98,Piano
56.0,0.4300150505267684,67,98,Piano
57.0,0.2,63,98,Piano
57.0,0.2,67,98,Piano
58.5,0.3899902502437439,63,100,Piano
58.5,0.3899902502437439,67,100,Piano
59.5,0.4199916001679966,43,96,Piano
59.5,0.4199916001679966,58,96,Piano
59.5,0.4199916001679966,62,96,Piano
59.5,0.4199916001679966,65,96,Piano
60.5,0.4100041000410004,60,95,Piano
60.5,0.4100041000410004,63,95,Piano
60.5,0.4100041000410004,67,95,Piano
63.0,0.4100041000410004,60,95,Piano
63.0,0.4100041000410004,63,95,Piano
63.0,0.4100041000410004,67,95,Piano
64.0,0.4199916001679966,47,96,Piano
64.0,0.4199916001679966,59,96,Piano
64.0,0.4199916001679966,62,96,Piano
64.0,0.4199916001679966,66,96,Piano
65.0,0.1,56,95,Piano
65.0,0.1,61,95,Piano
65.0,0.1,65,95,Piano
65.5,0.1,56,95,Piano
65.5,0.1,61,95,Piano
65.5,0.1,65,95,Piano
66.5,0.1025010250102501,56,90,Piano
66.5,0.1025010250102501,61,90,Piano
66.5,0.1025010250102501,65,90,Piano
67.0,0.1075037626316921,55,95,Piano
67.0,0.1075037626316921,61,95,Piano
67.0,0.1075037626316921,65,95,Piano
67.5,0.1075037626316921,55,95,Piano
67.5,0.1075037626316921,61,95,Piano
67.5,0.1075037626316921,65,95,Piano
68.5,0.09749756256093597,55,90,Piano
68.5,0.09749756256093597,61,90,Piano
68.5,0.09749756256093597,65,90,Piano
69.0,0.09749756256093597,55,95,Piano
69.0,0.09749756256093597,60,95,Piano
69.0,0.09749756256093597,63,95,Piano
69.5,0.09749756256093597,55,95,Piano
69.5,0.09749756256093597,60,95,Piano
69.5,0.09749756256093597,63,95,Piano
70.5,0.092501233349778,55,90,Piano
70.5,0.092501233349778,60,90,Piano
70.5,0.092501233349778,63,90,Piano
71.0,0.09500285008550258,55,95,Piano
71.0,0.09500285008550258,60,95,Piano
71.0,0.09500285008550258,63,95,Piano
71.5,0.09500285008550258,55,95,Piano
71.5,0.09500285008550258,60,95,Piano
71.5,0.09500285008550258,63,95,Piano
72.5,0.1075037626316921,55,90,Piano
72.5,0.1075037626316921,60,90,Piano
72.5,0.1075037626316921,63,90,Piano
73.0,0.10499790004199915,56,95,Piano
73.0,0.10499790004199915,61,95,Piano
73.0,0.10499790004199915,65,95,Piano
73.5,0.10499790004199915,56,95,Piano
73.5,0.10499790004199915,61,95,Piano
73.5,0.10499790004199915,65,95,Piano
74.5,0.092501233349778,56,90,Piano
74.5,0.092501233349778,61,90,Piano
74.5,0.092501233349778,65,90,Piano
75.0,0.1,55,95,Piano
75.0,0.1,61,95,Piano
75.0,0.1,65,95,Piano
75.5,0.1,55,95,Piano
75.5,0.1,61,95,Piano
75.5,0.1,65,95,Piano
76.5,0.092501233349778,55,90,Piano
76.5,0.092501233349778,61,90,Piano
76.5,0.092501233349778,65,90,Piano
77.0,0.10499790004199915,55,95,Piano
77.0,0.10499790004199915,60,95,Piano
77.0,0.10499790004199915,63,95,Piano
77.5,0.10499790004199915,55,95,Piano
77.5,0.10499790004199915,60,95,Piano
77.5,0.10499790004199915,63,95,Piano
78.5,0.09749756256093597,55,90,Piano
78.5,0.09749756256093597,60,90,Piano
78.5,0.09749756256093597,63,90,Piano
79.0,0.1,55,95,Piano
79.0,0.1,60,95,Piano
79.0,0.1,63,95,Piano
79.5,0.1,55,95,Piano
79.5,0.1,60,95,Piano
79.5,0.1,63,95,Piano
80.5,0.1,55,90,Piano
80.5,0.1,60,90,Piano
80.5,0.1,63,90,Piano
93.0,0.6150061500615006,43,96,Piano
93.0,0.6150061500615006,60,96,Piano
93.0,0.6150061500615006,62,96,Piano
93.0,0.6150061500615006,67,96,Piano
94.5,0.1266704667806701,43,96,Piano
94.5,0.1266704667806701,60,96,Piano
94.5,0.1266704667806701,62,96,Piano
94.5,0.1266704667806701,67,96,Piano
95.0,0.6150061500615006,43,96,Piano
95.0,0.6150061500615006,60,96,Piano
95.0,0.6150061500615006,62,96,Piano
95.0,0.6150061500615006,67,96,Piano
96.5,0.16999575010624735,37,95,Piano
96.5,0.16999575010624735,56,95,Piano
96.5,0.16999575010624735,59,95,Piano
96.5,0.16999575010624735,61,95,Piano
96.5,0.16999575010624735,67,95,Piano
97.5,0.13666803334700012,37,95,Piano
97.5,0.13666803334700012,56,95,Piano
97.5,0.13666803334700012,59,95,Piano
97.5,0.13666803334700012,61,95,Piano
97.5,0.13666803334700012,67,95,Piano
98.5,0.13666803334700012,37,95,Piano
98.5,0.13666803334700012,56,95,Piano
98.5,0.13666803334700012,59,95,Piano
98.5,0.13666803334700012,61,95,Piano
98.5,0.13666803334700012,67,95,Piano
99.0,0.8200082000820008,37,95,Piano
99.0,0.8200082000820008,56,95,Piano
99.0,0.8200082000820008,59,95,Piano
99.0,0.8200082000820008,61,95,Piano
99.0,0.8200082000820008,67,95,Piano
101.0,0.2099958000839983,60,95,Piano
101.0,0.2099958000839983,72,95,Piano
101.5,0.2099958000839983,51,90,Piano
101.5,0.2099958000839983,63,90,Piano
102.0,0.2050020500205002,55,95,Piano
102.0,0.2050020500205002,67,95,Piano
102.5,0.2050020500205002,60,90,Piano
102.5,0.2050020500205002,72,90,Piano
103.0,0.2050020500205002,59,95,Piano
103.0,0.2050020500205002,71,95,Piano
103.5,0.2050020500205002,51,90,Piano
103.5,0.2050020500205002,63,90,Piano
104.0,0.2050020500205002,55,95,Piano
104.0,0.2050020500205002,67,95,Piano
104.5,0.2050020500205002,58,90,Piano
104.5,0.2050020500205002,70,90,Piano
105.0,0.2,57,95,Piano
105.0,0.2,69,95,Piano
105.5,0.2,48,90,Piano
105.5,0.2,60,90,Piano
106.0,0.2050020500205002,51,95,Piano
106.0,0.2050020500205002,63,95,Piano
106.5,0.2050020500205002,56,90,Piano
106.5,0.2050020500205002,68,90,Piano
107.0,0.2,55,95,Piano
107.0,0.2,67,95,Piano
107.5,0.2,48,90,Piano
107.5,0.2,60,90,Piano
108.0,0.19499512512187195,51,95,Piano
108.0,0.19499512512187195,63,95,Piano
108.5,0.19499512512187195,55,90,Piano
108.5,0.19499512512187195,67,90,Piano
109.0,0.2099958000839983,56,95,Piano
109.0,0.2099958000839983,68,95,Piano
109.5,0.2099958000839983,49,90,Piano
109.5,0.2099958000839983,61,90,Piano
110.0,0.2099958000839983,53,95,Piano
110.0,0.2099958000839983,65,95,Piano
110.5,0.2099958000839983,56,90,Piano
110.5,0.2099958000839983,68,90,Piano
111.0,0.19499512512187195,55,95,Piano
111.0,0.19499512512187195,67,95,Piano
111.5,0.19499512512187195,48,90,Piano
111.5,0.19499512512187195,60,90,Piano
112.0,0.2,51,95,Piano
112.0,0.2,63,95,Piano
112.5,0.2,55,90,Piano
112.5,0.2,67,90,Piano
113.0,0.2050020500205002,54,95,Piano
113.0,0.2050020500205002,66,95,Piano
113.5,0.2050020500205002,45,90,Piano
113.5,0.2050020500205002,57,90,Piano
114.0,0.19499512512187195,50,95,Piano
114.0,0.19499512512187195,62,95,Piano
114.5,0.19499512512187195,54,90,Piano
114.5,0.19499512512187195,66,90,Piano
115.0,0.8200082000820008,43,95,Piano
115.0,0.8200082000820008,67,95,Piano
117.0,0.2050020500205002,60,95,Piano
117.0,0.2050020500205002,72,95,Piano
117.5,0.2050020500205002,51,90,Piano
117.5,0.2050020500205002,63,90,Piano
118.0,0.19499512512187195,55,95,Piano
118.0,0.19499512512187195,67,95,Piano
118.5,0.19499512512187195,60,90,Piano
118.5,0.19499512512187195,72,90,Piano
119.0,0.2050020500205002,59,95,Piano
119.0,0.2050020500205002,71,95,Piano
119.5,0.2050020500205002,51,90,Piano
119.5,0.2050020500205002,63,90,Piano
120.0,0.2,55,95,Piano
120.0,0.2,67,95,Piano
120.5,0.2,58,90,Piano
120.5,0.2,70,90,Piano
121.0,0.19499512512187195,57,95,Piano
121.0,0.19499512512187195,69,95,Piano
121.5,0.19499512512187195,48,90,Piano
121.5,0.19499512512187195,60,90,Piano
122.0,0.2050020500205002,51,95,Piano
122.0,0.2050020500205002,63,95,Piano
122.5,0.2050020500205002,56,90,Piano
122.5,0.2050020500205002,68,90,Piano
123.0,0.2,55,95,Piano
123.0,0.2,67,95,Piano
123.5,0.2,48,90,Piano
123.5,0.2,60,90,Piano
124.0,0.2050020500205002,51,95,Piano
124.0,0.2050020500205002,63,95,Piano
124.5,0.2050020500205002,55,90,Piano
124.5,0.2050020500205002,67,90,Piano
125.0,0.19000570017100515,56,95,Piano
125.0,0.19000570017100515,68,95,Piano
125.5,0.19000570017100515,48,90,Piano
125.5,0.19000570017100515,60,90,Piano
126.0,0.19000570017100515,49,95,Piano
126.0,0.19000570017100515,61,95,Piano
126.5,0.19000570017100515,51,90,Piano
126.5,0.19000570017100515,63,90,Piano
127.0,0.19000570017100515,53,95,Piano
127.0,0.19000570017100515,65,95,Piano
127.5,0.19000570017100515,55,90,Piano
127.5,0.19000570017100515,67,90,Piano
128.0,0.2050020500205002,56,95,Piano
128.0,0.2050020500205002,68,95,Piano
128.5,0.2050020500205002,58,90,Piano
128.5,0.2050020500205002,70,90,Piano
129.0,0.17499854167881934,60,95,Piano
129.0,0.17499854167881934,72,95,Piano
129.5,0.17499854167881934,55,90,Piano
129.5,0.17499854167881934,67,90,Piano
130.0,0.19000570017100515,56,95,Piano
130.0,0.19000570017100515,68,95,Piano
130.5,0.19000570017100515,58,90,Piano
130.5,0.19000570017100515,70,90,Piano
131.0,0.19000570017100515,60,95,Piano
131.0,0.19000570017100515,72,95,Piano
131.5,0.19000570017100515,61,90,Piano
131.5,0.19000570017100515,73,90,Piano
132.0,0.19000570017100515,63,95,Piano
132.0,0.19000570017100515,75,95,Piano
132.5,0.19000570017100515,65,90,Piano
132.5,0.19000570017100515,77,90,Piano
133.0,0.2,67,105,Piano
133.0,0.2,79,105,Piano
134.0,0.4100041000410004,55,105,Piano
134.0,0.4100041000410004,67,105,Piano
135.0,0.4100041000410004,54,105,Piano
135.0,0.4100041000410004,66,105,Piano
136.0,0.4,53,105,Piano
136.0,0.4,65,105,Piano
137.0,0.2,63,98,Piano
137.0,0.2,67,98,Piano
138.5,0.6150061500615006,63,100,Piano
138.5,0.6150061500615006,67,100,Piano
140.0,0.4100041000410004,63,98,Piano
140.0,0.4100041000410004,67,98,Piano
141.0,0.2050020500205002,63,98,Piano
141.0,0.2050020500205002,67,98,Piano
142.5,0.6150061500615006,63,100,Piano
142.5,0.6150061500615006,67,100,Piano
144.0,0.4100041000410004,63,98,Piano
144.0,0.4100041000410004,67,98,Piano
145.0,0.2050020500205002,63,98,Piano
145.0,0.2050020500205002,67,98,Piano
146.5,0.6150061500615006,63,100,Piano
146.5,0.6150061500615006,67,100,Piano
148.0,0.4100041000410004,63,98,Piano
148.0,0.4100041000410004,67,98,Piano
149.0,0.4100041000410004,60,95,Piano
149.0,0.4100041000410004,62,95,Piano
149.0,0.4100041000410004,67,95,Piano
150.5,0.6150061500615006,59,95,Piano
150.5,0.6150061500615006,62,95,Piano
150.5,0.6150061500615006,67,95,Piano
152.0,0.4100041000410004,59,95,Piano
152.0,0.4100041000410004,62,95,Piano
152.0,0.4100041000410004,67,95,Piano
153.0,0.2050020500205002,63,98,Piano
153.0,0.2050020500205002,67,98,Piano
154.5,0.6000000000000001,63,100,Piano
154.5,0.6000000000000001,67,100,Piano
156.0,0.4,63,98,Piano
156.0,0.4,67,98,Piano
157.0,0.19499512512187195,63,98,Piano
157.0,0.19499512512187195,67,98,Piano
158.5,0.6000000000000001,63,100,Piano
158.5,0.6000000000000001,67,100,Piano
160.0,0.4,63,98,Piano
160.0,0.4,67,98,Piano
161.0,0.2050020500205002,63,98,Piano
161.0,0.2050020500205002,67,98,Piano
162.5,0.6000000000000001,63,100,Piano
162.5,0.6000000000000001,67,100,Piano
164.0,0.4100041000410004,63,98,Piano
164.0,0.4100041000410004,67,98,Piano
165.0,0.13333333333333333,43,96,Piano
165.0,0.13333333333333333,60,96,Piano
165.0,0.13333333333333333,62,96,Piano
165.0,0.13333333333333333,67,96,Piano
165.5,0.13333333333333333,43,96,Piano
165.5,0.13333333333333333,60,96,Piano
165.5,0.13333333333333333,62,96,Piano
165.5,0.13333333333333333,67,96,Piano
166.5,1.025010250102501,37,95,Piano
166.5,1.025010250102501,56,95,Piano
166.5,1.025010250102501,59,95,Piano
166.5,1.025010250102501,61,95,Piano
166.5,1.025010250102501,67,95,Piano
169.0,0.2099958000839983,63,98,Piano
169.0,0.2099958000839983,67,98,Piano
170.5,0.6299874002519948,63,100,Piano
170.5,0.6299874002519948,67,100,Piano
172.0,0.4100041000410004,63,98,Piano
172.0,0.4100041000410004,67,98,Piano
173.0,0.2050020500205002,63,98,Piano
173.0,0.2050020500205002,67,98,Piano
174.5,0.6150061500615006,63,100,Piano
174.5,0.6150061500615006,67,100,Piano
176.0,0.4199916001679966,63,98,Piano
176.0,0.4199916001679966,67,98,Piano
177.0,0.2099958000839983,63,98,Piano
177.0,0.2099958000839983,67,98,Piano
178.5,0.6150061500615006,63,100,Piano
178.5,0.6150061500615006,67,100,Piano
180.0,0.4100041000410004,63,98,Piano
180.0,0.4100041000410004,67,98,Piano
181.0,0.2050020500205002,62,98,Piano
181.0,0.2050020500205002,67,98,Piano
182.5,0.6150061500615006,62,100,Piano
182.5,0.6150061500615006,67,100,Piano
184.0,0.4100041000410004,62,98,Piano
184.0,0.4100041000410004,67,98,Piano
185.0,0.2050020500205002,63,98,Piano
185.0,0.2050020500205002,67,98,Piano
186.5,0.6150061500615006,63,100,Piano
186.5,0.6150061500615006,67,100,Piano
188.0,0.4,63,98,Piano
188.0,0.4,67,98,Piano
189.0,0.2,63,98,Piano
189.0,0.2,67,98,Piano
190.5,0.6150061500615006,63,100,Piano
190.5,0.6150061500615006,67,100,Piano
192.0,0.4100041000410004,63,98,Piano
192.0,0.4100041000410004,67,98,Piano
193.0,0.2,63,98,Piano
193.0,0.2,67,98,Piano
194.5,0.4100041000410004,63,100,Piano
194.5,0.4100041000410004,67,100,Piano
195.5,0.4,43,96,Piano
195.5,0.4,58,96,Piano
195.5,0.4,62,96,Piano
195.5,0.4,65,96,Piano
196.5,0.4,60,95,Piano
196.5,0.4,63,95,Piano
196.5,0.4,67,95,Piano
199.0,0.4,60,95,Piano
199.0,0.4,63,95,Piano
199.0,0.4,67,95,Piano
200.0,0.4,47,96,Piano
200.0,0.4,59,96,Piano
200.0,0.4,62,96,Piano
200.0,0.4,66,96,Piano
201.0,0.1075037626316921,56,95,Piano
201.0,0.1075037626316921,61,95,Piano
201.0,0.1075037626316921,65,95,Piano
201.5,0.1075037626316921,56,95,Piano
201.5,0.1075037626316921,61,95,Piano
201.5,0.1075037626316921,65,95,Piano
202.5,0.1025010250102501,56,90,Piano
202.5,0.1025010250102501,61,90,Piano
202.5,0.1025010250102501,65,90,Piano
203.0,0.10499790004199915,55,95,Piano
203.0,0.10499790004199915,61,95,Piano
203.0,0.10499790004199915,65,95,Piano
203.5,0.10499790004199915,55,95,Piano
203.5,0.10499790004199915,61,95,Piano
203.5,0.10499790004199915,65,95,Piano
204.5,0.09500285008550258,55,90,Piano
204.5,0.09500285008550258,61,90,Piano
204.5,0.09500285008550258,65,90,Piano
205.0,0.09500285008550258,55,95,Piano
205.0,0.09500285008550258,60,95,Piano
205.0,0.09500285008550258,63,95,Piano
205.5,0.09500285008550258,55,95,Piano
205.5,0.09500285008550258,60,95,Piano
205.5,0.09500285008550258,63,95,Piano
206.5,0.1,55,90,Piano
206.5,0.1,60,90,Piano
206.5,0.1,63,90,Piano
207.0,0.1,55,95,Piano
207.0,0.1,60,95,Piano
207.0,0.1,63,95,Piano
207.5,0.1,55,95,Piano
207.5,0.1,60,95,Piano
207.5,0.1,63,95,Piano
208.5,0.1,55,90,Piano
208.5,0.1,60,90,Piano
208.5,0.1,63,90,Piano
209.0,0.10499790004199915,56,95,Piano
209.0,0.10499790004199915,61,95,Piano
209.0,0.10499790004199915,65,95,Piano
209.5,0.10499790004199915,56,95,Piano
209.5,0.10499790004199915,61,95,Piano
209.5,0.10499790004199915,65,95,Piano
210.5,0.09749756256093597,56,90,Piano
210.5,0.09749756256093597,61,90,Piano
210.5,0.09749756256093597,65,90,Piano
211.0,0.10499790004199915,55,95,Piano
211.0,0.10499790004199915,61,95,Piano
211.0,0.10499790004199915,65,95,Piano
211.5,0.10499790004199915,55,95,Piano
211.5,0.10499790004199915,61,95,Piano
211.5,0.10499790004199915,65,95,Piano
212.5,0.1,55,90,Piano
212.5,0.1,61,90,Piano
212.5,0.1,65,90,Piano
213.0,0.092501233349778,55,95,Piano
213.0,0.092501233349778,60,95,Piano
213.0,0.092501233349778,63,95,Piano
213.5,0.092501233349778,55,95,Piano
213.5,0.092501233349778,60,95,Piano
213.5,0.092501233349778,63,95,Piano
214.5,0.092501233349778,55,90,Piano
214.5,0.092501233349778,60,90,Piano
214.5,0.092501233349778,63,90,Piano
215.0,0.09749756256093597,55,95,Piano
215.0,0.09749756256093597,60,95,Piano
215.0,0.09749756256093597,63,95,Piano
215.5,0.09749756256093597,55,95,Piano
215.5,0.09749756256093597,60,95,Piano
215.5,0.09749756256093597,63,95,Piano
216.5,0.11000293341155763,55,90,Piano
216.5,0.11000293341155763,60,90,Piano
216.5,0.11000293341155763,63,90,Piano
229.0,0.6150061500615006,43,96,Piano
229.0,0.6150061500615006,60,96,Piano
229.0,0.6150061500615006,62,96,Piano
229.0,0.6150061500615006,67,96,Piano
230.5,0.13666803334700012,43,96,Piano
230.5,0.13666803334700012,60,96,Piano
230.5,0.13666803334700012,62,96,Piano
230.5,0.13666803334700012,67,96,Piano
231.0,0.6299874002519948,43,96,Piano
231.0,0.6299874002519948,60,96,Piano
231.0,0.6299874002519948,62,96,Piano
231.0,0.6299874002519948,67,96,Piano
232.5,0.14333835017558946,37,95,Piano
232.5,0.14333835017558946,56,95,Piano
232.5,0.14333835017558946,59,95,Piano
232.5,0.14333835017558946,61,95,Piano
232.5,0.14333835017558946,67,95,Piano
233.5,0.14667057788207682,37,95,Piano
233.5,0.14667057788207682,56,95,Piano
233.5,0.14667057788207682,59,95,Piano
233.5,0.14667057788207682,61,95,Piano
233.5,0.14667057788207682,67,95,Piano
234.5,0.13666803334700012,37,95,Piano
234.5,0.13666803334700012,56,95,Piano
234.5,0.13666803334700012,59,95,Piano
234.5,0.13666803334700012,61,95,Piano
234.5,0.13666803334700012,67,95,Piano
235.0,0.8800234672924611,37,95,Piano
235.0,0.8800234672924611,56,95,Piano
235.0,0.8800234672924611,59,95,Piano
235.0,0.8800234672924611,61,95,Piano
235.0,0.8800234672924611,67,95,Piano
237.0,0.2050020500205002,60,95,Piano
237.0,0.2050020500205002,72,95,Piano
237.5,0.2050020500205002,51,90,Piano
237.5,0.2050020500205002,63,90,Piano
238.0,0.2099958000839983,55,95,Piano
238.0,0.2099958000839983,67,95,Piano
238.5,0.2099958000839983,60,90,Piano
238.5,0.2099958000839983,72,90,Piano
239.0,0.185002466699556,59,95,Piano
239.0,0.185002466699556,71,95,Piano
239.5,0.185002466699556,51,90,Piano
239.5,0.185002466699556,63,90,Piano
240.0,0.2050020500205002,55,95,Piano
240.0,0.2050020500205002,67,95,Piano
240.5,0.2050020500205002,58,90,Piano
240.5,0.2050020500205002,70,90,Piano
241.0,0.2,57,95,Piano
241.0,0.2,69,95,Piano
241.5,0.2,48,90,Piano
241.5,0.2,60,90,Piano
242.0,0.2,51,95,Piano
242.0,0.2,63,95,Piano
242.5,0.2,56,90,Piano
242.5,0.2,68,90,Piano
243.0,0.19000570017100515,55,95,Piano
243.0,0.19000570017100515,67,95,Piano
243.5,0.19000570017100515,48,90,Piano
243.5,0.19000570017100515,60,90,Piano
244.0,0.2099958000839983,51,95,Piano
244.0,0.2099958000839983,63,95,Piano
244.5,0.2099958000839983,55,90,Piano
244.5,0.2099958000839983,67,90,Piano
245.0,0.19499512512187195,56,95,Piano
245.0,0.19499512512187195,68,95,Piano
245.5,0.19499512512187195,49,90,Piano
245.5,0.19499512512187195,61,90,Piano
246.0,0.2099958000839983,53,95,Piano
246.0,0.2099958000839983,65,95,Piano
246.5,0.2099958000839983,56,90,Piano
246.5,0.2099958000839983,68,90,Piano
247.0,0.19499512512187195,55,95,Piano
247.0,0.19499512512187195,67,95,Piano
247.5,0.19499512512187195,48,90,Piano
247.5,0.19499512512187195,60,90,Piano
248.0,0.2,51,95,Piano
248.0,0.2,63,95,Piano
248.5,0.2,55,90,Piano
248.5,0.2,67,90,Piano
249.0,0.19499512512187195,54,95,Piano
249.0,0.19499512512187195,66,95,Piano
249.5,0.19499512512187195,45,90,Piano
249.5,0.19499512512187195,57,90,Piano
250.0,0.19000570017100515,50,95,Piano
250.0,0.19000570017100515,62,95,Piano
250.5,0.19000570017100515,54,90,Piano
250.5,0.19000570017100515,66,90,Piano
251.0,0.8399832003359932,43,95,Piano
251.0,0.8399832003359932,67,95,Piano
253.0,0.19499512512187195,60,95,Piano
253.0,0.19499512512187195,72,95,Piano
253.5,0.19499512512187195,51,90,Piano
253.5,0.19499512512187195,63,90,Piano
254.0,0.2,55,95,Piano
254.0,0.2,67,95,Piano
254.5,0.2,60,90,Piano
254.5,0.2,72,90,Piano
255.0,0.185002466699556,59,95,Piano
255.0,0.185002466699556,71,95,Piano
255.5,0.185002466699556,51,90,Piano
255.5,0.185002466699556,63,90,Piano
256.0,0.19000570017100515,55,95,Piano
256.0,0.19000570017100515,67,95,Piano
256.5,0.19000570017100515,58,90,Piano
256.5,0.19000570017100515,70,90,Piano
257.0,0.185002466699556,57,95,Piano
257.0,0.185002466699556,69,95,Piano
257.5,0.185002466699556,48,90,Piano
257.5,0.185002466699556,60,90,Piano
258.0,0.2050020500205002,51,95,Piano
258.0,0.2050020500205002,63,95,Piano
258.5,0.2050020500205002,56,90,Piano
258.5,0.2050020500205002,68,90,Piano
259.0,0.19000570017100515,55,95,Piano
259.0,0.19000570017100515,67,95,Piano
259.5,0.19000570017100515,48,90,Piano
259.5,0.19000570017100515,60,90,Piano
260.0,0.22000586682311526,51,95,Piano
260.0,0.22000586682311526,63,95,Piano
260.5,0.22000586682311526,55,90,Piano
260.5,0.22000586682311526,67,90,Piano
261.0,0.19000570017100515,56,95,Piano
261.0,0.19000570017100515,68,95,Piano
261.5,0.19000570017100515,48,90,Piano
261.5,0.19000570017100515,60,90,Piano
262.0,0.185002466699556,49,95,Piano
262.0,0.185002466699556,61,95,Piano
262.5,0.185002466699556,51,90,Piano
262.5,0.185002466699556,63,90,Piano
263.0,0.19000570017100515,53,95,Piano
263.0,0.19000570017100515,65,95,Piano
263.5,0.19000570017100515,55,90,Piano
263.5,0.19000570017100515,67,90,Piano
264.0,0.2,56,95,Piano
264.0,0.2,68,95,Piano
264.5,0.2,58,90,Piano
264.5,0.2,70,90,Piano
265.0,0.185002466699556,60,95,Piano
265.0,0.185002466699556,72,95,Piano
265.5,0.185002466699556,55,90,Piano
265.5,0.185002466699556,67,90,Piano
266.0,0.19000570017100515,56,95,Piano
266.0,0.19000570017100515,68,95,Piano
266.5,0.19000570017100515,58,90,Piano
266.5,0.19000570017100515,70,90,Piano
267.0,0.2,60,95,Piano
267.0,0.2,72,95,Piano
267.5,0.2,61,90,Piano
267.5,0.2,73,90,Piano
268.0,0.185002466699556,63,95,Piano
268.0,0.185002466699556,75,95,Piano
268.5,0.185002466699556,65,90,Piano
268.5,0.185002466699556,77,90,Piano
269.0,0.2150075252633842,67,105,Piano
269.0,0.2150075252633842,79,105,Piano
270.0,0.4100041000410004,55,105,Piano
270.0,0.4100041000410004,67,105,Piano
271.0,0.4,54,105,Piano
271.0,0.4,66,105,Piano
272.0,0.3899902502437439,53,105,Piano
272.0,0.3899902502437439,65,105,Piano
273.0,0.2099958000839983,60,95,Piano
273.0,0.2099958000839983,72,95,Piano
273.5,0.2099958000839983,51,90,Piano
273.5,0.2099958000839983,63,90,Piano
274.0,0.2099958000839983,55,95,Piano
274.0,0.2099958000839983,67,95,Piano
274.5,0.2099958000839983,60,90,Piano
274.5,0.2099958000839983,72,90,Piano
275.0,0.2,59,95,Piano
275.0,0.2,71,95,Piano
275.5,0.2,51,90,Piano
275.5,0.2,63,90,Piano
276.0,0.19499512512187195,55,95,Piano
276.0,0.19499512512187195,67,95,Piano
276.5,0.19499512512187195,58,90,Piano
276.5,0.19499512512187195,70,90,Piano
277.0,0.19499512512187195,57,95,Piano
277.0,0.19499512512187195,69,95,Piano
277.5,0.19499512512187195,48,90,Piano
277.5,0.19499512512187195,60,90,Piano
278.0,0.19000570017100515,51,95,Piano
278.0,0.19000570017100515,63,95,Piano
278.5,0.19000570017100515,56,90,Piano
278.5,0.19000570017100515,68,90,Piano
279.0,0.2,55,95,Piano
279.0,0.2,67,95,Piano
279.5,0.2,48,90,Piano
279.5,0.2,60,90,Piano
280.0,0.19000570017100515,51,95,Piano
280.0,0.19000570017100515,63,95,Piano
280.5,0.19000570017100515,55,90,Piano
280.5,0.19000570017100515,67,90,Piano
281.0,0.2099958000839983,56,95,Piano
281.0,0.2099958000839983,68,95,Piano
281.5,0.2099958000839983,49,90,Piano
281.5,0.2099958000839983,61,90,Piano
282.0,0.19000570017100515,53,95,Piano
282.0,0.19000570017100515,65,95,Piano
282.5,0.19000570017100515,56,90,Piano
282.5,0.19000570017100515,68,90,Piano
283.0,0.2,55,95,Piano
283.0,0.2,67,95,Piano
283.5,0.2,48,90,Piano
283.5,0.2,60,90,Piano
284.0,0.19499512512187195,51,95,Piano
284.0,0.19499512512187195,63,95,Piano
284.5,0.19499512512187195,55,90,Piano
284.5,0.19499512512187195,67,90,Piano
285.0,0.2,54,95,Piano
285.0,0.2,66,95,Piano
285.5,0.2,45,90,Piano
285.5,0.2,57,90,Piano
286.0,0.19000570017100515,50,95,Piano
286.0,0.19000570017100515,62,95,Piano
286.5,0.19000570017100515,54,90,Piano
286.5,0.19000570017100515,66,90,Piano
287.0,0.8200082000820008,43,95,Piano
287.0,0.8200082000820008,67,95,Piano
289.0,0.2,60,95,Piano
289.0,0.2,72,95,Piano
289.5,0.2,51,90,Piano
289.5,0.2,63,90,Piano
290.0,0.2,55,95,Piano
290.0,0.2,67,95,Piano
290.5,0.2,60,90,Piano
290.5,0.2,72,90,Piano
291.0,0.19499512512187195,59,95,Piano
291.0,0.19499512512187195,71,95,Piano
291.5,0.19499512512187195,51,90,Piano
291.5,0.19499512512187195,63,90,Piano
292.0,0.19499512512187195,55,95,Piano
292.0,0.19499512512187195,67,95,Piano
292.5,0.19499512512187195,58,90,Piano
292.5,0.19499512512187195,70,90,Piano
293.0,0.2,57,95,Piano
293.0,0.2,69,95,Piano
293.5,0.2,48,90,Piano
293.5,0.2,60,90,Piano
294.0,0.19499512512187195,51,95,Piano
294.0,0.19499512512187195,63,95,Piano
294.5,0.19499512512187195,56,90,Piano
294.5,0.19499512512187195,68,90,Piano
295.0,0.2050020500205002,55,95,Piano
295.0,0.2050020500205002,67,95,Piano
295.5,0.2050020500205002,48,90,Piano
295.5,0.2050020500205002,60,90,Piano
296.0,0.2,51,95,Piano
296.0,0.2,63,95,Piano
296.5,0.2,55,90,Piano
296.5,0.2,67,90,Piano
297.0,0.2,56,95,Piano
297.0,0.2,68,95,Piano
297.5,0.2,48,90,Piano
297.5,0.2,60,90,Piano
298.0,0.16499835001649985,49,95,Piano
298.0,0.16499835001649985,61,95,Piano
298.5,0.16499835001649985,51,90,Piano
298.5,0.16499835001649985,63,90,Piano
299.0,0.19000570017100515,53,95,Piano
299.0,0.19000570017100515,65,95,Piano
299.5,0.19000570017100515,55,90,Piano
299.5,0.19000570017100515,67,90,Piano
300.0,0.19499512512187195,56,95,Piano
300.0,0.19499512512187195,68,95,Piano
300.5,0.19499512512187195,58,90,Piano
300.5,0.19499512512187195,70,90,Piano
301.0,0.185002466699556,60,95,Piano
301.0,0.185002466699556,72,95,Piano
301.5,0.185002466699556,55,90,Piano
301.5,0.185002466699556,67,90,Piano
302.0,0.19499512512187195,56,95,Piano
302.0,0.19499512512187195,68,95,Piano
302.5,0.19499512512187195,58,90,Piano
302.5,0.19499512512187195,70,90,Piano
303.0,0.185002466699556,60,95,Piano
303.0,0.185002466699556,72,95,Piano
303.5,0.185002466699556,61,90,Piano
303.5,0.185002466699556,73,90,Piano
304.0,0.185002466699556,63,95,Piano
304.0,0.185002466699556,75,95,Piano
304.5,0.185002466699556,65,90,Piano
304.5,0.185002466699556,77,90,Piano
305.0,0.2099958000839983,67,105,Piano
305.0,0.2099958000839983,79,105,Piano
306.0,0.4,55,105,Piano
306.0,0.4,67,105,Piano
307.0,0.4,54,105,Piano
307.0,0.4,66,105,Piano
308.0,0.44001173364623053,53,105,Piano
308.0,0.44001173364623053,65,105,Piano
309.0,0.2,63,98,Piano
309.0,0.2,67,98,Piano
310.5,0.6000000000000001,63,100,Piano
310.5,0.6000000000000001,67,100,Piano
312.0,0.4100041000410004,63,98,Piano
312.0,0.4100041000410004,67,98,Piano
313.0,0.2,63,98,Piano
313.0,0.2,67,98,Piano
314.5,0.6150061500615006,63,100,Piano
314.5,0.6150061500615006,67,100,Piano
316.0,0.4199916001679966,63,98,Piano
316.0,0.4199916001679966,67,98,Piano
317.0,0.2050020500205002,63,98,Piano
317.0,0.2050020500205002,67,98,Piano
318.5,0.6150061500615006,63,100,Piano
318.5,0.6150061500615006,67,100,Piano
320.0,0.4100041000410004,63,98,Piano
320.0,0.4100041000410004,67,98,Piano
321.0,0.1025010250102501,37,105,Piano
321.0,0.1025010250102501,56,105,Piano
321.0,0.1025010250102501,59,105,Piano
321.0,0.1025010250102501,61,105,Piano
321.0,0.1025010250102501,67,105,Piano
321.5,0.1025010250102501,37,105,Piano
321.5,0.1025010250102501,56,105,Piano
321.5,0.1025010250102501,59,105,Piano
321.5,0.1025010250102501,61,105,Piano
321.5,0.1025010250102501,67,105,Piano
322.5,0.1025010250102501,37,105,Piano
322.5,0.1025010250102501,56,105,Piano
322.5,0.1025010250102501,59,105,Piano
322.5,0.1025010250102501,61,105,Piano
322.5,0.1025010250102501,67,105,Piano
323.5,0.1025010250102501,37,105,Piano
323.5,0.1025010250102501,56,105,Piano
323.5,0.1025010250102501,59,105,Piano
323.5,0.1025010250102501,61,105,Piano
323.5,0.1025010250102501,67,105,Piano
324.0,0.1,37,105,Piano
324.0,0.1,56,105,Piano
324.0,0.1,59,105,Piano
324.0,0.1,61,105,Piano
324.0,0.1,67,105,Piano
325.0,0.1,36,105,Piano
325.0,0.1,48,105,Piano
325.0,0.1,63,105,Piano
325.0,0.1,67,105,Piano
325.0,0.1,72,105,Piano
