Start,Duration,Pitch,Velocity,Instrument
1.0,1.8699532511687207,62,98,Piano
1.0,1.8699532511687207,69,98,Piano
1.0,1.8699532511687207,71,98,Piano
1.0,1.8699532511687207,67,98,Piano
1.0,0.254993625159371,76,75,Piano
1.0,0.254993625159371,71,75,Piano
1.0,2.039949001274968,62,52,Piano
1.0,2.039949001274968,55,52,Piano
1.5,0.254993625159371,73,70,Piano
1.5,0.254993625159371,78,70,Piano
2.0,0.27500229168576407,81,72,Piano
2.0,0.27500229168576407,76,72,Piano
2.5,0.27500229168576407,76,64,Piano
2.5,0.27500229168576407,71,64,Piano
3.0,0.5600149337315662,78,70,Piano
3.0,0.5600149337315662,73,70,Piano
4.0,0.27500229168576407,76,68,Piano
4.0,0.27500229168576407,71,68,Piano
4.5,0.27500229168576407,73,68,Piano
4.5,0.27500229168576407,78,68,Piano
5.0,2.1000560014933733,69,94,Piano
5.0,2.1000560014933733,71,94,Piano
5.0,2.1000560014933733,66,94,Piano
5.0,0.2800074668657831,81,70,Piano
5.0,0.2800074668657831,76,70,Piano
5.0,2.2400597349262648,61,54,Piano
5.0,2.2400597349262648,54,54,Piano
5.5,0.2800074668657831,71,58,Piano
5.5,0.2800074668657831,76,58,Piano
6.0,1.6500137501145844,73,68,Piano
6.0,1.6500137501145844,78,68,Piano
9.0,2.1000560014933733,69,97,Piano
9.0,2.1000560014933733,71,97,Piano
9.0,2.1000560014933733,62,97,Piano
9.0,2.1000560014933733,67,97,Piano
9.0,0.2800074668657831,76,75,Piano
9.0,0.2800074668657831,71,75,Piano
9.0,2.2400597349262648,62,52,Piano
9.0,2.2400597349262648,55,52,Piano
9.5,0.2800074668657831,73,70,Piano
9.5,0.2800074668657831,78,70,Piano
10.0,0.27500229168576407,81,72,Piano
10.0,0.27500229168576407,76,72,Piano
10.5,0.27500229168576407,76,64,Piano
10.5,0.27500229168576407,71,64,Piano
11.0,0.5600149337315662,78,70,Piano
11.0,0.5600149337315662,73,70,Piano
12.0,0.2800074668657831,76,68,Piano
12.0,0.2800074668657831,71,68,Piano
12.5,0.2800074668657831,73,68,Piano
12.5,0.2800074668657831,78,68,Piano
13.0,2.0625171876432304,71,95,Piano
13.0,2.0625171876432304,64,95,Piano
13.0,2.0625171876432304,73,95,Piano
13.0,2.0625171876432304,57,95,Piano
13.0,0.27500229168576407,81,70,Piano
13.0,0.27500229168576407,76,70,Piano
13.0,2.2000183334861125,64,54,Piano
13.0,2.2000183334861125,57,54,Piano
13.5,0.27500229168576407,71,58,Piano
13.5,0.27500229168576407,76,58,Piano
14.0,1.6800448011946987,73,68,Piano
14.0,1.6800448011946987,78,68,Piano
17.0,2.2000183334861125,59,56,Piano
17.0,2.2000183334861125,62,56,Piano
17.0,0.27500229168576407,76,75,Piano
17.0,0.27500229168576407,71,75,Piano
17.5,0.27500229168576407,73,70,Piano
17.5,0.27500229168576407,78,70,Piano
18.0,0.2800074668657831,81,72,Piano
18.0,0.2800074668657831,76,72,Piano
18.5,0.2800074668657831,76,64,Piano
18.5,0.2800074668657831,71,64,Piano
19.0,0.5500045833715281,78,70,Piano
19.0,0.5500045833715281,73,70,Piano
20.0,0.2800074668657831,76,68,Piano
20.0,0.2800074668657831,71,68,Piano
20.5,0.2800074668657831,73,68,Piano
20.5,0.2800074668657831,78,68,Piano
21.0,2.2400597349262648,54,61,Piano
21.0,2.2400597349262648,61,61,Piano
21.0,0.2800074668657831,81,70,Piano
21.0,0.2800074668657831,76,70,Piano
21.5,0.2800074668657831,71,58,Piano
21.5,0.2800074668657831,76,58,Piano
22.0,1.6500137501145844,73,68,Piano
22.0,1.6500137501145844,78,68,Piano
25.0,2.2400597349262648,52,62,Piano
25.0,2.2400597349262648,59,62,Piano
25.0,0.2800074668657831,76,75,Piano
25.0,0.2800074668657831,71,75,Piano
25.5,0.2800074668657831,73,70,Piano
25.5,0.2800074668657831,78,70,Piano
26.0,0.27500229168576407,81,72,Piano
26.0,0.27500229168576407,76,72,Piano
26.5,0.27500229168576407,76,64,Piano
26.5,0.27500229168576407,71,64,Piano
27.0,0.2800074668657831,78,70,Piano
27.0,0.2800074668657831,73,70,Piano
27.5,0.2800074668657831,81,65,Piano
27.5,0.2800074668657831,76,65,Piano
28.0,0.2800074668657831,76,68,Piano
28.0,0.2800074668657831,71,68,Piano
28.5,0.2800074668657831,73,67,Piano
28.5,0.2800074668657831,78,67,Piano
29.0,0.9625080209001742,62,114,Piano
29.0,0.9625080209001742,55,114,Piano
29.0,2.2000183334861125,57,55,Piano
29.0,2.2000183334861125,64,55,Piano
29.0,0.27500229168576407,81,70,Piano
29.0,0.27500229168576407,76,70,Piano
29.5,0.27500229168576407,71,58,Piano
29.5,0.27500229168576407,76,58,Piano
30.0,0.2800074668657831,73,68,Piano
30.0,0.2800074668657831,78,68,Piano
30.5,0.2800074668657831,74,64,Piano
30.5,0.2800074668657831,69,64,Piano
31.0,1.1000091667430563,55,115,Piano
31.0,1.1000091667430563,57,115,Piano
31.0,1.1000091667430563,64,115,Piano
31.0,1.1000091667430563,76,56,Piano
31.0,1.1000091667430563,71,56,Piano
33.0,2.2000183334861125,71,61,Piano
33.0,2.2000183334861125,78,61,Piano
33.0,2.2000183334861125,50,61,Piano
33.0,2.2000183334861125,57,61,Piano
37.0,2.2000183334861125,50,71,Piano
37.0,2.2000183334861125,57,71,Piano
59.5,0.7000186671644577,64,111,Piano
59.5,0.7000186671644577,61,111,Piano
59.5,0.7000186671644577,57,111,Piano
59.5,0.7000186671644577,42,111,Piano
63.5,0.7466865783087548,62,107,Piano
63.5,0.7466865783087548,54,107,Piano
63.5,0.7466865783087548,57,107,Piano
67.0,0.8400224005973493,67,108,Piano
67.0,0.8400224005973493,59,108,Piano
67.0,0.8400224005973493,64,108,Piano
69.0,0.5500045833715281,64,86,Piano
69.0,0.5500045833715281,62,86,Piano
69.0,2.2000183334861125,57,54,Piano
69.0,2.2000183334861125,64,54,Piano
69.0,0.27500229168576407,81,76,Piano
69.0,0.27500229168576407,76,76,Piano
69.5,0.27500229168576407,78,72,Piano
69.5,0.27500229168576407,83,72,Piano
70.0,0.2800074668657831,73,66,Piano
70.0,0.2800074668657831,78,66,Piano
70.5,0.5600149337315662,67,104,Piano
70.5,0.5600149337315662,64,104,Piano
70.5,0.2800074668657831,81,71,Piano
70.5,0.2800074668657831,76,71,Piano
71.0,0.27500229168576407,76,65,Piano
71.0,0.27500229168576407,71,65,Piano
71.5,0.27500229168576407,78,70,Piano
71.5,0.27500229168576407,73,70,Piano
72.0,0.2800074668657831,74,64,Piano
72.0,0.2800074668657831,69,64,Piano
72.5,0.2800074668657831,76,71,Piano
72.5,0.2800074668657831,71,71,Piano
73.0,2.2000183334861125,66,70,Piano
73.0,2.2000183334861125,71,70,Piano
89.5,0.27500229168576407,59,112,Piano
89.5,0.27500229168576407,50,112,Piano
89.5,0.27500229168576407,81,79,Piano
89.5,0.27500229168576407,76,79,Piano
90.0,0.2800074668657831,78,77,Piano
90.0,0.2800074668657831,83,77,Piano
90.5,1.1200298674631324,79,74,Piano
90.5,1.1200298674631324,74,74,Piano
91.5,0.5500045833715281,66,111,Piano
91.5,0.5500045833715281,61,111,Piano
91.5,0.5500045833715281,57,111,Piano
91.5,0.5500045833715281,54,111,Piano
91.5,0.5500045833715281,42,111,Piano
93.0,1.1000091667430563,40,92,Piano
93.0,1.1000091667430563,62,92,Piano
93.0,1.1000091667430563,64,92,Piano
93.0,1.1000091667430563,59,92,Piano
93.5,0.27500229168576407,76,69,Piano
93.5,0.27500229168576407,71,69,Piano
94.0,0.2800074668657831,78,70,Piano
94.0,0.2800074668657831,73,70,Piano
94.5,1.1200298674631324,74,60,Piano
94.5,1.1200298674631324,69,60,Piano
95.5,0.7000186671644577,54,94,Piano
95.5,0.7000186671644577,62,94,Piano
95.5,0.7000186671644577,38,94,Piano
95.5,0.7000186671644577,50,94,Piano
95.5,0.7000186671644577,57,94,Piano
99.0,0.7000186671644577,67,98,Piano
99.0,0.7000186671644577,59,98,Piano
99.0,0.7000186671644577,64,98,Piano
99.0,0.7000186671644577,48,98,Piano
101.0,0.7000186671644577,60,106,Piano
101.0,0.7000186671644577,57,106,Piano
101.0,0.5600149337315662,53,108,Piano
101.0,0.5600149337315662,41,108,Piano
107.0,0.9625080209001742,65,98,Piano
107.0,0.9625080209001742,55,98,Piano
107.0,0.9625080209001742,62,98,Piano
107.0,0.9625080209001742,58,98,Piano
109.0,0.8250068750572922,60,113,Piano
109.0,0.8250068750572922,57,113,Piano
113.0,0.7466865783087548,69,99,Piano
113.0,0.7466865783087548,65,99,Piano
113.0,0.7466865783087548,60,99,Piano
114.5,0.5500045833715281,65,98,Piano
114.5,0.5500045833715281,69,98,Piano
115.0,0.2800074668657831,84,86,Piano
115.0,0.2800074668657831,79,86,Piano
115.5,0.2800074668657831,81,78,Piano
115.5,0.2800074668657831,86,78,Piano
116.0,0.27500229168576407,81,81,Piano
116.0,0.27500229168576407,76,81,Piano
116.5,0.27500229168576407,84,86,Piano
116.5,0.27500229168576407,79,86,Piano
117.0,0.2800074668657831,79,83,Piano
117.0,0.2800074668657831,74,83,Piano
117.5,0.2800074668657831,76,86,Piano
117.5,0.2800074668657831,81,86,Piano
118.0,1.6500137501145844,77,75,Piano
118.0,1.6500137501145844,72,75,Piano
119.5,0.5600149337315662,72,109,Piano
119.5,0.5600149337315662,65,109,Piano
125.0,0.8250068750572922,67,103,Piano
125.0,0.8250068750572922,60,103,Piano
125.0,0.8250068750572922,64,103,Piano
127.0,0.27500229168576407,67,104,Piano
127.0,0.27500229168576407,64,104,Piano
128.0,0.2800074668657831,64,106,Piano
128.0,0.2800074668657831,72,106,Piano
128.0,0.2800074668657831,67,106,Piano
129.0,0.8250068750572922,67,102,Piano
129.0,0.8250068750572922,64,102,Piano
131.0,0.9333582228859437,66,101,Piano
131.0,0.9333582228859437,57,101,Piano
131.0,0.9333582228859437,60,101,Piano
137.0,0.7466865783087548,58,104,Piano
137.0,0.7466865783087548,62,104,Piano
139.0,0.9800261340302409,67,109,Piano
139.0,0.9800261340302409,58,109,Piano
139.0,0.9800261340302409,62,109,Piano
145.0,0.5500045833715281,65,110,Piano
145.0,0.5500045833715281,69,110,Piano
145.0,0.5500045833715281,72,110,Piano
145.0,0.5500045833715281,45,110,Piano
147.0,0.27500229168576407,84,86,Piano
147.0,0.27500229168576407,79,86,Piano
147.5,0.27500229168576407,81,78,Piano
147.5,0.27500229168576407,86,78,Piano
148.0,0.2800074668657831,81,81,Piano
148.0,0.2800074668657831,76,81,Piano
148.5,0.2800074668657831,84,86,Piano
148.5,0.2800074668657831,79,86,Piano
149.0,0.3733432891543774,58,93,Piano
149.0,0.3733432891543774,57,93,Piano
149.0,0.2800074668657831,79,83,Piano
149.0,0.2800074668657831,74,83,Piano
149.5,0.2800074668657831,76,86,Piano
149.5,0.2800074668657831,81,86,Piano
150.0,1.6500137501145844,77,75,Piano
150.0,1.6500137501145844,72,75,Piano
150.5,0.4125034375286461,62,98,Piano
150.5,0.4125034375286461,57,98,Piano
152.0,0.4125034375286461,58,90,Piano
152.0,0.4125034375286461,62,90,Piano
152.0,0.4125034375286461,57,90,Piano
155.5,0.14000373343289155,65,126,Piano
155.5,0.14000373343289155,74,126,Piano
156.5,0.27500229168576407,77,122,Piano
156.5,0.27500229168576407,69,122,Piano
157.0,0.7000186671644577,76,113,Piano
157.0,0.7000186671644577,67,113,Piano
157.0,0.7000186671644577,72,113,Piano
161.0,0.5500045833715281,72,106,Piano
161.0,0.5500045833715281,67,106,Piano
163.0,0.9625080209001742,66,99,Piano
163.0,0.9625080209001742,57,99,Piano
163.0,0.9625080209001742,60,99,Piano
165.0,0.5500045833715281,58,102,Piano
165.0,0.5500045833715281,62,102,Piano
168.75,0.9800261340302409,55,98,Piano
168.75,0.9800261340302409,58,98,Piano
169.0,0.8400224005973493,62,107,Piano
169.0,0.8400224005973493,65,107,Piano
171.0,0.9800261340302409,58,96,Piano
171.0,0.9800261340302409,65,96,Piano
171.0,0.9800261340302409,62,96,Piano
171.0,0.9800261340302409,55,96,Piano
173.0,0.7466865783087548,56,101,Piano
173.0,0.7466865783087548,53,101,Piano
175.0,0.7000186671644577,56,102,Piano
175.0,0.7000186671644577,60,102,Piano
175.0,0.7000186671644577,49,102,Piano
175.0,0.7466865783087548,53,110,Piano
175.0,0.7466865783087548,60,110,Piano
177.0,0.9333582228859437,60,94,Piano
177.0,0.9333582228859437,56,94,Piano
177.0,0.9333582228859437,55,94,Piano
177.0,0.9333582228859437,51,102,Piano
177.0,0.9333582228859437,55,102,Piano
179.0,0.6875057292144102,51,100,Piano
179.0,0.6875057292144102,56,100,Piano
179.0,0.8250068750572922,60,94,Piano
179.0,0.8250068750572922,55,94,Piano
181.0,0.8250068750572922,53,102,Piano
181.0,0.8250068750572922,56,102,Piano
183.0,0.6875057292144102,56,103,Piano
183.0,0.6875057292144102,60,103,Piano
183.0,0.6875057292144102,53,103,Piano
185.0,0.8250068750572922,60,88,Piano
185.0,0.8250068750572922,55,88,Piano
187.0,0.7000186671644577,51,97,Piano
187.0,0.7000186671644577,56,97,Piano
187.0,0.7000186671644577,55,97,Piano
189.0,0.5600149337315662,55,111,Piano
189.0,0.5600149337315662,58,111,Piano
189.0,0.7000186671644577,62,101,Piano
189.0,0.7000186671644577,43,101,Piano
191.0,0.7466865783087548,67,113,Piano
191.0,0.7466865783087548,64,113,Piano
191.0,0.7466865783087548,60,113,Piano
193.0,0.5600149337315662,45,106,Piano
193.0,0.5600149337315662,60,106,Piano
193.0,0.5600149337315662,57,106,Piano
193.0,0.7000186671644577,67,108,Piano
193.0,0.7000186671644577,64,108,Piano
195.0,0.8400224005973493,66,108,Piano
195.0,0.8400224005973493,57,108,Piano
195.0,0.8400224005973493,62,108,Piano
195.0,0.8400224005973493,60,108,Piano
195.0,0.7000186671644577,50,108,Piano
195.0,0.7000186671644577,38,108,Piano
197.0,0.7333394444953708,58,109,Piano
197.0,0.7333394444953708,65,109,Piano
197.0,0.7333394444953708,62,109,Piano
197.0,0.7333394444953708,55,109,Piano
199.0,0.6875057292144102,58,107,Piano
199.0,0.6875057292144102,65,107,Piano
199.0,0.6875057292144102,62,107,Piano
199.0,0.7333394444953708,55,109,Piano
199.0,0.7333394444953708,65,109,Piano
199.0,0.7333394444953708,62,109,Piano
201.0,0.5500045833715281,67,115,Piano
201.0,0.5500045833715281,64,115,Piano
201.0,0.5500045833715281,62,115,Piano
201.0,0.4125034375286461,57,108,Piano
201.0,0.4125034375286461,62,108,Piano
202.5,1.1200298674631324,67,104,Piano
202.5,1.1200298674631324,69,104,Piano
202.5,1.1200298674631324,61,104,Piano
202.5,1.1200298674631324,64,104,Piano
205.0,8.960238939705059,57,54,Piano
205.0,8.960238939705059,62,54,Piano
205.0,8.960238939705059,66,54,Piano
210.0,0.27500229168576407,78,78,Piano
210.0,0.27500229168576407,73,78,Piano
210.5,0.27500229168576407,76,72,Piano
210.5,0.27500229168576407,71,72,Piano
211.0,0.2800074668657831,78,72,Piano
211.0,0.2800074668657831,73,72,Piano
211.5,0.2800074668657831,76,70,Piano
211.5,0.2800074668657831,71,70,Piano
212.0,0.27500229168576407,78,76,Piano
212.0,0.27500229168576407,73,76,Piano
212.5,0.27500229168576407,64,104,Piano
212.5,0.27500229168576407,57,104,Piano
212.5,0.27500229168576407,81,74,Piano
212.5,0.27500229168576407,76,74,Piano
213.0,0.5600149337315662,83,72,Piano
213.0,0.5600149337315662,78,72,Piano
218.0,0.2800074668657831,78,70,Piano
218.0,0.2800074668657831,83,70,Piano
218.5,0.2800074668657831,76,62,Piano
218.5,0.2800074668657831,81,62,Piano
219.0,0.27500229168576407,78,68,Piano
219.0,0.27500229168576407,83,68,Piano
219.5,0.27500229168576407,81,64,Piano
219.5,0.27500229168576407,76,64,Piano
220.0,0.2800074668657831,83,69,Piano
220.0,0.2800074668657831,78,69,Piano
220.5,0.2800074668657831,81,62,Piano
220.5,0.2800074668657831,86,62,Piano
221.0,2.2000183334861125,83,67,Piano
221.0,2.2000183334861125,86,67,Piano
221.5,0.27500229168576407,59,112,Piano
221.5,0.27500229168576407,50,112,Piano
223.5,0.5500045833715281,66,111,Piano
223.5,0.5500045833715281,61,111,Piano
223.5,0.5500045833715281,57,111,Piano
223.5,0.4125034375286461,54,111,Piano
223.5,0.4125034375286461,42,111,Piano
223.5,0.8250068750572922,64,54,Piano
223.5,0.8250068750572922,69,54,Piano
223.5,0.8250068750572922,42,54,Piano
225.0,1.1200298674631324,40,92,Piano
225.0,1.1200298674631324,62,92,Piano
225.0,1.1200298674631324,64,92,Piano
225.0,1.1200298674631324,59,92,Piano
225.0,1.4000373343289154,40,54,Piano
225.0,1.4000373343289154,67,54,Piano
225.0,1.260033600896024,59,54,Piano
225.0,1.260033600896024,62,54,Piano
227.5,0.7000186671644577,54,94,Piano
227.5,0.7000186671644577,62,94,Piano
227.5,0.7000186671644577,38,94,Piano
227.5,0.7000186671644577,50,94,Piano
227.5,0.7000186671644577,57,94,Piano
227.5,0.8400224005973493,66,54,Piano
227.5,0.8400224005973493,62,54,Piano
227.5,0.8400224005973493,38,54,Piano
229.0,2.2400597349262648,67,54,Piano
229.0,2.2400597349262648,64,54,Piano
229.0,2.2400597349262648,36,54,Piano
231.0,0.7000186671644577,67,98,Piano
231.0,0.7000186671644577,59,98,Piano
231.0,0.7000186671644577,64,98,Piano
231.0,0.7000186671644577,48,98,Piano
233.0,0.6875057292144102,60,106,Piano
233.0,0.6875057292144102,57,106,Piano
233.0,0.5500045833715281,53,108,Piano
233.0,0.5500045833715281,41,108,Piano
233.0,0.8250068750572922,41,54,Piano
233.0,0.8250068750572922,60,54,Piano
233.0,2.2000183334861125,57,54,Piano
233.0,2.2000183334861125,64,54,Piano
234.5,1.4000373343289154,62,54,Piano
234.5,1.4000373343289154,46,54,Piano
237.0,2.2000183334861125,58,54,Piano
237.0,2.2000183334861125,62,54,Piano
237.0,2.2000183334861125,65,54,Piano
239.0,0.9625080209001742,55,96,Piano
239.0,0.9625080209001742,62,96,Piano
239.0,0.9625080209001742,58,96,Piano
241.0,0.8400224005973493,60,110,Piano
241.0,0.8400224005973493,69,110,Piano
245.0,0.7466865783087548,69,99,Piano
245.0,0.7466865783087548,65,99,Piano
245.0,0.7466865783087548,60,99,Piano
246.5,0.5500045833715281,65,98,Piano
246.5,0.5500045833715281,69,98,Piano
247.0,0.2800074668657831,84,86,Piano
247.0,0.2800074668657831,79,86,Piano
247.5,0.2800074668657831,81,78,Piano
247.5,0.2800074668657831,86,78,Piano
248.0,0.27500229168576407,81,81,Piano
248.0,0.27500229168576407,76,81,Piano
248.5,0.27500229168576407,84,86,Piano
248.5,0.27500229168576407,79,86,Piano
249.0,0.2800074668657831,79,83,Piano
249.0,0.2800074668657831,74,83,Piano
249.5,0.2800074668657831,76,86,Piano
249.5,0.2800074668657831,81,86,Piano
250.0,1.6500137501145844,77,75,Piano
250.0,1.6500137501145844,72,75,Piano
251.5,0.5600149337315662,72,109,Piano
251.5,0.5600149337315662,65,109,Piano
253.0,0.8250068750572922,69,112,Piano
253.0,0.8250068750572922,72,112,Piano
259.0,0.27500229168576407,67,104,Piano
259.0,0.27500229168576407,64,104,Piano
260.0,0.2800074668657831,64,106,Piano
260.0,0.2800074668657831,72,106,Piano
260.0,0.2800074668657831,67,106,Piano
261.0,0.8400224005973493,67,102,Piano
261.0,0.8400224005973493,64,102,Piano
263.0,0.9333582228859437,66,111,Piano
263.0,0.9333582228859437,69,111,Piano
263.0,0.9333582228859437,74,111,Piano
263.0,1.1200298674631324,66,54,Piano
263.0,1.1200298674631324,57,54,Piano
263.0,1.1200298674631324,50,54,Piano
265.0,0.3733432891543774,62,102,Piano
265.0,0.3733432891543774,43,102,Piano
265.0,2.2400597349262648,58,54,Piano
265.0,2.2400597349262648,62,54,Piano
269.0,0.7000186671644577,58,104,Piano
269.0,0.7000186671644577,62,104,Piano
269.0,2.2400597349262648,48,54,Piano
269.0,2.2400597349262648,62,54,Piano
271.0,0.9800261340302409,67,109,Piano
271.0,0.9800261340302409,58,109,Piano
271.0,0.9800261340302409,62,109,Piano
277.0,0.6875057292144102,65,110,Piano
277.0,0.6875057292144102,69,110,Piano
277.0,0.6875057292144102,72,110,Piano
277.0,0.6875057292144102,45,110,Piano
279.0,0.2800074668657831,84,86,Piano
279.0,0.2800074668657831,79,86,Piano
279.5,0.2800074668657831,81,78,Piano
279.5,0.2800074668657831,86,78,Piano
280.0,0.27500229168576407,81,81,Piano
280.0,0.27500229168576407,76,81,Piano
280.5,0.27500229168576407,84,86,Piano
280.5,0.27500229168576407,79,86,Piano
281.0,0.3733432891543774,58,93,Piano
281.0,0.3733432891543774,57,93,Piano
281.0,0.2800074668657831,79,83,Piano
281.0,0.2800074668657831,74,83,Piano
281.0,4.4801194698525295,46,54,Piano
281.0,4.4801194698525295,62,54,Piano
281.5,0.2800074668657831,76,86,Piano
281.5,0.2800074668657831,81,86,Piano
282.0,1.6500137501145844,77,75,Piano
282.0,1.6500137501145844,72,75,Piano
282.5,0.4125034375286461,62,98,Piano
282.5,0.4125034375286461,57,98,Piano
284.0,0.4125034375286461,58,90,Piano
284.0,0.4125034375286461,62,90,Piano
284.0,0.4125034375286461,57,90,Piano
287.5,0.14000373343289155,65,126,Piano
287.5,0.14000373343289155,74,126,Piano
288.5,0.2800074668657831,77,122,Piano
288.5,0.2800074668657831,69,122,Piano
289.0,0.6875057292144102,76,113,Piano
289.0,0.6875057292144102,67,113,Piano
289.0,0.6875057292144102,72,113,Piano
289.0,1.1000091667430563,48,54,Piano
289.0,1.1000091667430563,55,54,Piano
291.0,1.1000091667430563,46,54,Piano
291.0,1.1000091667430563,67,54,Piano
293.0,0.5500045833715281,72,106,Piano
293.0,0.5500045833715281,67,106,Piano
293.0,1.1000091667430563,67,54,Piano
293.0,1.1000091667430563,45,54,Piano
295.0,0.9625080209001742,66,99,Piano
295.0,0.9625080209001742,57,99,Piano
295.0,0.9625080209001742,60,99,Piano
295.0,1.1000091667430563,66,54,Piano
295.0,1.1000091667430563,50,54,Piano
297.0,0.5500045833715281,58,102,Piano
297.0,0.5500045833715281,62,102,Piano
300.75,0.9625080209001742,55,98,Piano
300.75,0.9625080209001742,58,98,Piano
301.0,0.8400224005973493,62,107,Piano
301.0,0.8400224005973493,65,107,Piano
303.0,0.9800261340302409,58,96,Piano
303.0,0.9800261340302409,65,96,Piano
303.0,0.9800261340302409,62,96,Piano
303.0,0.9800261340302409,55,96,Piano
305.0,2.0533880903490758,65,98,Piano
305.0,2.0533880903490758,69,98,Piano
305.0,2.0533880903490758,72,98,Piano
305.0,2.0533880903490758,62,98,Piano
305.0,0.2800074668657831,79,75,Piano
305.0,0.2800074668657831,74,75,Piano
305.0,2.2400597349262648,65,52,Piano
305.0,2.2400597349262648,58,52,Piano
305.0,0.0,36,36,Piano
305.0,0.0,44,36,Piano
305.5,0.2800074668657831,76,70,Piano
305.5,0.2800074668657831,81,70,Piano
306.0,0.27500229168576407,84,72,Piano
306.0,0.27500229168576407,79,72,Piano
306.5,0.27500229168576407,79,64,Piano
306.5,0.27500229168576407,74,64,Piano
307.0,0.5600149337315662,81,70,Piano
307.0,0.5600149337315662,76,70,Piano
308.0,0.2800074668657831,86,68,Piano
308.0,0.2800074668657831,81,68,Piano
308.5,0.2800074668657831,76,68,Piano
308.5,0.2800074668657831,81,68,Piano
309.0,2.0625171876432304,69,94,Piano
309.0,2.0625171876432304,72,94,Piano
309.0,2.0625171876432304,65,94,Piano
309.0,0.27500229168576407,84,70,Piano
309.0,0.27500229168576407,79,70,Piano
309.0,2.2000183334861125,64,54,Piano
309.0,2.2000183334861125,57,54,Piano
309.0,2.2000183334861125,60,54,Piano
309.0,2.2000183334861125,45,54,Piano
309.0,0.0,44,36,Piano
309.0,0.0,36,36,Piano
309.5,0.27500229168576407,74,58,Piano
309.5,0.27500229168576407,79,58,Piano
310.0,1.6800448011946987,76,68,Piano
310.0,1.6800448011946987,81,68,Piano
313.0,1.5125126042717023,69,97,Piano
313.0,1.5125126042717023,72,97,Piano
313.0,1.5125126042717023,65,97,Piano
313.0,1.5125126042717023,62,97,Piano
313.0,0.27500229168576407,79,75,Piano
313.0,0.27500229168576407,74,75,Piano
313.0,2.2000183334861125,65,52,Piano
313.0,2.2000183334861125,58,52,Piano
313.0,0.0,44,36,Piano
313.0,0.0,36,36,Piano
313.5,0.27500229168576407,76,70,Piano
313.5,0.27500229168576407,81,70,Piano
314.0,0.2800074668657831,84,72,Piano
314.0,0.2800074668657831,79,72,Piano
314.5,0.2800074668657831,79,64,Piano
314.5,0.2800074668657831,74,64,Piano
315.0,0.5600149337315662,81,70,Piano
315.0,0.5600149337315662,76,70,Piano
316.0,0.27500229168576407,79,68,Piano
316.0,0.27500229168576407,74,68,Piano
316.5,0.27500229168576407,76,68,Piano
316.5,0.27500229168576407,81,68,Piano
317.0,0.2800074668657831,84,70,Piano
317.0,0.2800074668657831,79,70,Piano
317.0,2.2400597349262648,64,54,Piano
317.0,2.2400597349262648,57,54,Piano
317.0,2.2400597349262648,48,54,Piano
317.0,2.2400597349262648,60,54,Piano
317.0,2.2400597349262648,64,54,Piano
317.0,0.0,44,36,Piano
317.0,0.0,36,36,Piano
317.5,0.2800074668657831,74,58,Piano
317.5,0.2800074668657831,79,58,Piano
318.0,1.6500137501145844,76,68,Piano
318.0,1.6500137501145844,81,68,Piano
321.0,0.2800074668657831,79,75,Piano
321.0,0.2800074668657831,74,75,Piano
321.0,2.2400597349262648,65,52,Piano
321.0,2.2400597349262648,58,52,Piano
321.0,2.2400597349262648,65,54,Piano
321.0,2.2400597349262648,50,54,Piano
321.0,2.2400597349262648,57,54,Piano
321.0,0.0,36,36,Piano
321.0,0.0,44,36,Piano
321.5,0.2800074668657831,76,70,Piano
321.5,0.2800074668657831,81,70,Piano
322.0,0.27500229168576407,84,72,Piano
322.0,0.27500229168576407,79,72,Piano
322.5,0.27500229168576407,79,64,Piano
322.5,0.27500229168576407,74,64,Piano
323.0,0.5600149337315662,81,70,Piano
323.0,0.5600149337315662,76,70,Piano
324.0,0.27500229168576407,79,68,Piano
324.0,0.27500229168576407,74,68,Piano
324.5,0.27500229168576407,76,68,Piano
324.5,0.27500229168576407,81,68,Piano
325.0,1.9600522680604817,67,92,Piano
325.0,1.9600522680604817,57,92,Piano
325.0,0.2800074668657831,84,70,Piano
325.0,0.2800074668657831,79,70,Piano
325.0,2.2400597349262648,64,54,Piano
325.0,2.2400597349262648,57,54,Piano
325.0,0.0,44,36,Piano
325.0,0.0,36,36,Piano
325.5,0.2800074668657831,74,58,Piano
325.5,0.2800074668657831,79,58,Piano
326.0,1.6800448011946987,76,68,Piano
326.0,1.6800448011946987,81,68,Piano
329.0,0.5500045833715281,62,98,Piano
329.0,0.5500045833715281,70,98,Piano
329.0,0.5500045833715281,67,107,Piano
329.0,0.5500045833715281,70,107,Piano
329.0,2.2000183334861125,55,56,Piano
329.0,2.2000183334861125,62,56,Piano
329.0,0.27500229168576407,79,72,Piano
329.0,0.27500229168576407,74,72,Piano
329.0,2.2000183334861125,43,54,Piano
329.0,2.2000183334861125,53,54,Piano
329.0,4.400036666972225,58,54,Piano
329.0,4.400036666972225,62,54,Piano
329.0,0.0,36,36,Piano
329.0,0.0,44,36,Piano
329.5,0.27500229168576407,81,70,Piano
329.5,0.27500229168576407,76,70,Piano
330.0,0.2800074668657831,79,71,Piano
330.0,0.2800074668657831,84,71,Piano
330.5,0.2800074668657831,79,67,Piano
330.5,0.2800074668657831,74,67,Piano
331.0,0.27500229168576407,81,72,Piano
331.0,0.27500229168576407,76,72,Piano
331.5,0.27500229168576407,79,66,Piano
331.5,0.27500229168576407,84,66,Piano
332.0,0.2800074668657831,76,70,Piano
332.0,0.2800074668657831,81,70,Piano
332.5,0.2800074668657831,69,64,Piano
332.5,0.2800074668657831,76,64,Piano
333.0,0.5500045833715281,58,94,Piano
333.0,0.5500045833715281,62,94,Piano
333.0,2.2000183334861125,48,58,Piano
333.0,2.2000183334861125,55,58,Piano
333.0,0.27500229168576407,84,72,Piano
333.0,0.27500229168576407,79,72,Piano
333.0,0.0,44,36,Piano
333.0,0.0,36,36,Piano
333.5,0.27500229168576407,74,70,Piano
333.5,0.27500229168576407,79,70,Piano
334.0,0.2800074668657831,81,72,Piano
334.0,0.2800074668657831,76,72,Piano
334.5,0.2800074668657831,72,62,Piano
334.5,0.2800074668657831,77,62,Piano
335.0,0.2800074668657831,79,68,Piano
335.0,0.2800074668657831,74,68,Piano
335.5,0.2800074668657831,69,60,Piano
335.5,0.2800074668657831,74,60,Piano
336.0,0.27500229168576407,72,62,Piano
336.0,0.27500229168576407,77,62,Piano
336.5,0.27500229168576407,72,62,Piano
336.5,0.27500229168576407,67,62,Piano
337.0,2.51994960100798,53,66,Piano
337.0,2.51994960100798,74,66,Piano
337.0,2.51994960100798,69,66,Piano
337.0,2.51994960100798,60,66,Piano
337.0,3.9374212515749685,41,54,Piano
337.0,3.9374212515749685,60,54,Piano
337.0,3.9374212515749685,57,54,Piano
337.0,0.0,44,36,Piano
337.0,0.0,36,36,Piano
341.0,4.251968503937007,72,89,Piano
341.0,4.251968503937007,29,89,Piano
341.0,4.251968503937007,41,89,Piano
341.0,4.251968503937007,53,61,Piano
341.0,4.251968503937007,60,61,Piano
