Start,Duration,Pitch,Velocity,Instrument
1.0,0.8599684678228465,48,104,Flute
1.0,0.8599684678228465,52,104,Flute
1.0,0.8599684678228465,55,104,Flute
1.0,0.8599684678228465,60,104,Flute
2.0,0.0,52,50,Flute
2.0,0.0,55,50,Flute
2.0,0.0,60,50,Flute
2.0,0.0,64,50,Flute
5.0,0.8599684678228465,48,104,Flute
5.0,0.8599684678228465,52,104,Flute
5.0,0.8599684678228465,59,104,Flute
5.0,0.8599684678228465,64,104,Flute
6.0,0.0,48,50,Flute
6.0,0.0,52,50,Flute
6.0,0.0,59,50,Flute
6.0,0.0,64,50,Flute
6.0,0.0,67,50,Flute
9.0,0.8599684678228465,48,104,Flute
9.0,0.8599684678228465,52,104,Flute
9.0,0.8599684678228465,55,104,Flute
9.0,0.8599684678228465,60,104,Flute
10.0,0.0,52,50,Flute
10.0,0.0,55,50,Flute
10.0,0.0,60,50,Flute
10.0,0.0,64,50,Flute
13.0,0.8499787505312367,48,104,Flute
13.0,0.8499787505312367,52,104,Flute
13.0,0.8499787505312367,59,104,Flute
13.0,0.8499787505312367,64,104,Flute
14.0,0.0,48,50,Flute
14.0,0.0,52,50,Flute
14.0,0.0,59,50,Flute
14.0,0.0,64,50,Flute
14.0,0.0,67,50,Flute
17.0,0.8499787505312367,48,104,Flute
17.0,0.8499787505312367,52,104,Flute
17.0,0.8499787505312367,55,104,Flute
17.0,0.8499787505312367,60,104,Flute
18.0,0.0,52,50,Flute
18.0,0.0,55,50,Flute
18.0,0.0,60,50,Flute
18.0,0.0,64,50,Flute
18.5,2.006593091586642,52,102,Flute
18.5,2.006593091586642,60,102,Flute
21.0,0.8599684678228465,48,103,Flute
21.0,0.8599684678228465,52,103,Flute
21.0,0.8599684678228465,59,103,Flute
21.0,0.8599684678228465,64,108,Flute
21.0,0.8599684678228465,67,108,Flute
22.0,0.0,48,50,Flute
22.0,0.0,52,50,Flute
22.0,0.0,59,50,Flute
22.0,0.0,64,50,Flute
22.0,0.0,67,50,Flute
22.5,1.1466246237637954,48,105,Flute
22.5,1.1466246237637954,52,105,Flute
22.5,1.1466246237637954,55,105,Flute
22.5,1.1466246237637954,60,105,Flute
22.5,1.1466246237637954,64,105,Flute
24.0,0.8499787505312367,47,105,Flute
24.0,0.8499787505312367,50,105,Flute
24.0,0.8499787505312367,55,105,Flute
24.0,0.8499787505312367,59,105,Flute
24.0,0.8499787505312367,67,105,Flute
25.0,1.719936935645693,45,100,Flute
25.0,1.719936935645693,64,100,Flute
27.0,1.6999575010624735,43,100,Flute
27.0,1.6999575010624735,64,100,Flute
29.0,1.719936935645693,41,95,Flute
29.0,1.719936935645693,53,95,Flute
31.0,0.42498937526561836,43,99,Flute
31.0,0.42498937526561836,50,99,Flute
31.0,0.42498937526561836,55,99,Flute
31.0,0.42498937526561836,60,99,Flute
31.0,0.42498937526561836,67,99,Flute
31.5,0.42498937526561836,67,75,Flute
31.5,0.42498937526561836,60,75,Flute
31.5,0.42498937526561836,55,75,Flute
31.5,0.42498937526561836,50,75,Flute
31.5,0.42498937526561836,43,75,Flute
32.0,0.42998423391142326,43,99,Flute
32.0,0.42998423391142326,50,99,Flute
32.0,0.42998423391142326,55,99,Flute
32.0,0.42998423391142326,59,99,Flute
32.0,0.42998423391142326,67,99,Flute
32.5,0.42998423391142326,67,75,Flute
32.5,0.42998423391142326,59,75,Flute
32.5,0.42998423391142326,55,75,Flute
32.5,0.42998423391142326,50,75,Flute
32.5,0.42998423391142326,43,75,Flute
33.0,0.8599684678228465,48,104,Flute
33.0,0.8599684678228465,52,104,Flute
33.0,0.8599684678228465,55,104,Flute
33.0,0.8599684678228465,60,104,Flute
34.0,0.0,52,50,Flute
34.0,0.0,55,50,Flute
34.0,0.0,60,50,Flute
34.0,0.0,64,50,Flute
34.5,1.9832837512395525,52,102,Flute
34.5,1.9832837512395525,60,102,Flute
37.0,0.8599684678228465,48,104,Flute
37.0,0.8599684678228465,52,104,Flute
37.0,0.8599684678228465,59,104,Flute
37.0,0.8599684678228465,64,104,Flute
38.0,0.0,48,50,Flute
38.0,0.0,52,50,Flute
38.0,0.0,59,50,Flute
38.0,0.0,64,50,Flute
38.0,0.0,67,50,Flute
38.5,1.1333050007083156,48,105,Flute
38.5,1.1333050007083156,52,105,Flute
38.5,1.1333050007083156,55,105,Flute
38.5,1.1333050007083156,60,105,Flute
38.5,1.1333050007083156,64,105,Flute
40.0,0.8599684678228465,47,105,Flute
40.0,0.8599684678228465,50,105,Flute
40.0,0.8599684678228465,55,105,Flute
40.0,0.8599684678228465,59,105,Flute
40.0,0.8599684678228465,67,105,Flute
41.0,1.719936935645693,45,100,Flute
41.0,1.719936935645693,64,100,Flute
43.0,1.719936935645693,43,100,Flute
43.0,1.719936935645693,64,100,Flute
45.0,1.719936935645693,41,95,Flute
45.0,1.719936935645693,53,95,Flute
47.0,0.42998423391142326,43,99,Flute
47.0,0.42998423391142326,50,99,Flute
47.0,0.42998423391142326,55,99,Flute
47.0,0.42998423391142326,60,99,Flute
47.0,0.42998423391142326,67,99,Flute
47.5,0.42998423391142326,67,75,Flute
47.5,0.42998423391142326,60,75,Flute
47.5,0.42998423391142326,55,75,Flute
47.5,0.42998423391142326,50,75,Flute
47.5,0.42998423391142326,43,75,Flute
48.0,0.42998423391142326,43,99,Flute
48.0,0.42998423391142326,50,99,Flute
48.0,0.42998423391142326,55,99,Flute
48.0,0.42998423391142326,59,99,Flute
48.0,0.42998423391142326,67,99,Flute
48.5,0.42998423391142326,67,75,Flute
48.5,0.42998423391142326,59,75,Flute
48.5,0.42998423391142326,55,75,Flute
48.5,0.42998423391142326,50,75,Flute
48.5,0.42998423391142326,43,75,Flute
49.0,0.42498937526561836,41,89,Flute
49.0,0.42498937526561836,53,89,Flute
49.0,0.42498937526561836,57,89,Flute
49.0,0.42498937526561836,60,89,Flute
49.0,0.42498937526561836,64,89,Flute
49.5,0.42498937526561836,64,75,Flute
49.5,0.42498937526561836,60,75,Flute
49.5,0.42498937526561836,57,75,Flute
49.5,0.42498937526561836,53,75,Flute
49.5,0.42498937526561836,48,75,Flute
50.0,0.42998423391142326,48,102,Flute
50.0,0.42998423391142326,53,102,Flute
50.0,0.42998423391142326,57,102,Flute
50.0,0.42998423391142326,60,102,Flute
50.0,0.42998423391142326,64,102,Flute
50.5,0.28665615594094884,64,75,Flute
50.5,0.28665615594094884,60,75,Flute
50.5,0.28665615594094884,57,75,Flute
50.5,0.28665615594094884,53,75,Flute
50.5,0.28665615594094884,48,75,Flute
51.0,0.42998423391142326,40,89,Flute
51.0,0.42998423391142326,52,89,Flute
51.0,0.42998423391142326,55,89,Flute
51.0,0.42998423391142326,60,89,Flute
51.0,0.42998423391142326,64,89,Flute
51.5,0.42998423391142326,64,75,Flute
51.5,0.42998423391142326,60,75,Flute
51.5,0.42998423391142326,55,75,Flute
51.5,0.42998423391142326,52,75,Flute
51.5,0.42998423391142326,48,75,Flute
52.0,0.42498937526561836,48,102,Flute
52.0,0.42498937526561836,52,102,Flute
52.0,0.42498937526561836,55,102,Flute
52.0,0.42498937526561836,60,102,Flute
52.0,0.42498937526561836,64,102,Flute
52.5,0.2833262501770789,64,75,Flute
52.5,0.2833262501770789,60,75,Flute
52.5,0.2833262501770789,55,75,Flute
52.5,0.2833262501770789,52,75,Flute
52.5,0.2833262501770789,48,75,Flute
53.0,0.42998423391142326,50,90,Flute
53.0,0.42998423391142326,57,90,Flute
53.0,0.42998423391142326,62,90,Flute
53.0,0.42998423391142326,65,90,Flute
53.5,0.42998423391142326,65,75,Flute
53.5,0.42998423391142326,62,75,Flute
53.5,0.42998423391142326,57,75,Flute
53.5,0.42998423391142326,50,75,Flute
54.0,0.42998423391142326,50,104,Flute
54.0,0.42998423391142326,57,104,Flute
54.0,0.42998423391142326,62,104,Flute
54.0,0.42998423391142326,65,104,Flute
54.5,0.28665615594094884,65,75,Flute
54.5,0.28665615594094884,62,75,Flute
54.5,0.28665615594094884,57,75,Flute
54.5,0.28665615594094884,50,75,Flute
55.0,0.42498937526561836,48,89,Flute
55.0,0.42498937526561836,52,89,Flute
55.0,0.42498937526561836,55,89,Flute
55.0,0.42498937526561836,60,89,Flute
55.0,0.42498937526561836,64,89,Flute
55.5,0.42498937526561836,64,75,Flute
55.5,0.42498937526561836,60,75,Flute
55.5,0.42498937526561836,55,75,Flute
55.5,0.42498937526561836,52,75,Flute
55.5,0.42498937526561836,48,75,Flute
56.0,0.42998423391142326,48,102,Flute
56.0,0.42998423391142326,52,102,Flute
56.0,0.42998423391142326,55,102,Flute
56.0,0.42998423391142326,60,102,Flute
56.0,0.42998423391142326,64,102,Flute
56.5,0.28665615594094884,64,75,Flute
56.5,0.28665615594094884,60,75,Flute
56.5,0.28665615594094884,55,75,Flute
56.5,0.28665615594094884,52,75,Flute
56.5,0.28665615594094884,48,75,Flute
57.0,0.42998423391142326,41,89,Flute
57.0,0.42998423391142326,53,89,Flute
57.0,0.42998423391142326,57,89,Flute
57.0,0.42998423391142326,60,89,Flute
57.0,0.42998423391142326,64,89,Flute
57.5,0.42998423391142326,64,75,Flute
57.5,0.42998423391142326,60,75,Flute
57.5,0.42998423391142326,57,75,Flute
57.5,0.42998423391142326,53,75,Flute
57.5,0.42998423391142326,48,75,Flute
58.0,0.42998423391142326,48,102,Flute
58.0,0.42998423391142326,53,102,Flute
58.0,0.42998423391142326,57,102,Flute
58.0,0.42998423391142326,60,102,Flute
58.0,0.42998423391142326,64,102,Flute
58.5,0.42998423391142326,64,75,Flute
58.5,0.42998423391142326,60,75,Flute
58.5,0.42998423391142326,57,75,Flute
58.5,0.42998423391142326,53,75,Flute
58.5,0.42998423391142326,48,75,Flute
59.0,0.42498937526561836,40,89,Flute
59.0,0.42498937526561836,52,89,Flute
59.0,0.42498937526561836,56,89,Flute
59.0,0.42498937526561836,59,89,Flute
59.0,0.42498937526561836,64,89,Flute
59.5,0.42498937526561836,64,75,Flute
59.5,0.42498937526561836,59,75,Flute
59.5,0.42498937526561836,56,75,Flute
59.5,0.42498937526561836,52,75,Flute
59.5,0.42498937526561836,47,75,Flute
60.0,0.42998423391142326,47,102,Flute
60.0,0.42998423391142326,52,102,Flute
60.0,0.42998423391142326,56,102,Flute
60.0,0.42998423391142326,59,102,Flute
60.0,0.42998423391142326,64,102,Flute
60.5,0.42998423391142326,64,75,Flute
60.5,0.42998423391142326,59,75,Flute
60.5,0.42998423391142326,56,75,Flute
60.5,0.42998423391142326,52,75,Flute
60.5,0.42998423391142326,47,75,Flute
61.0,0.8599684678228465,45,104,Flute
61.0,0.8599684678228465,52,104,Flute
61.0,0.8599684678228465,57,104,Flute
61.0,0.8599684678228465,60,104,Flute
62.0,0.0,45,50,Flute
62.0,0.0,52,50,Flute
62.0,0.0,57,50,Flute
62.0,0.0,60,50,Flute
62.0,0.0,64,50,Flute
62.5,0.8499787505312367,64,110,Flute
62.5,0.8499787505312367,45,110,Flute
62.5,1.274968125796855,60,102,Flute
62.5,1.274968125796855,57,102,Flute
62.5,1.274968125796855,52,102,Flute
64.0,0.42998423391142326,45,99,Flute
64.0,0.42998423391142326,52,99,Flute
64.0,0.42998423391142326,57,99,Flute
64.0,0.42998423391142326,60,99,Flute
64.0,0.42998423391142326,64,99,Flute
64.5,0.42998423391142326,64,85,Flute
64.5,0.42998423391142326,60,85,Flute
64.5,0.42998423391142326,57,85,Flute
64.5,0.42998423391142326,52,85,Flute
64.5,0.42998423391142326,45,85,Flute
65.0,0.42998423391142326,43,89,Flute
65.0,0.42998423391142326,50,89,Flute
65.0,0.42998423391142326,57,89,Flute
65.0,0.42998423391142326,62,89,Flute
65.0,0.42998423391142326,65,89,Flute
65.5,0.42998423391142326,65,75,Flute
65.5,0.42998423391142326,62,75,Flute
65.5,0.42998423391142326,57,75,Flute
65.5,0.42998423391142326,50,75,Flute
65.5,0.42998423391142326,43,75,Flute
66.0,0.42498937526561836,43,102,Flute
66.0,0.42498937526561836,50,102,Flute
66.0,0.42498937526561836,57,102,Flute
66.0,0.42498937526561836,62,102,Flute
66.0,0.42498937526561836,65,102,Flute
66.5,0.42498937526561836,65,75,Flute
66.5,0.42498937526561836,62,75,Flute
66.5,0.42498937526561836,57,75,Flute
66.5,0.42498937526561836,50,75,Flute
66.5,0.42498937526561836,43,75,Flute
67.0,0.42998423391142326,43,99,Flute
67.0,0.42998423391142326,50,99,Flute
67.0,0.42998423391142326,57,99,Flute
67.0,0.42998423391142326,62,99,Flute
67.0,0.42998423391142326,65,99,Flute
67.5,0.42998423391142326,65,85,Flute
67.5,0.42998423391142326,62,85,Flute
67.5,0.42998423391142326,57,85,Flute
67.5,0.42998423391142326,50,85,Flute
67.5,0.42998423391142326,43,85,Flute
68.0,0.8599684678228465,43,102,Flute
68.0,0.8599684678228465,50,102,Flute
68.0,0.8599684678228465,57,102,Flute
68.0,0.8599684678228465,62,102,Flute
68.0,0.8599684678228465,65,102,Flute
69.0,0.42498937526561836,48,89,Flute
69.0,0.42498937526561836,52,89,Flute
69.0,0.42498937526561836,55,89,Flute
69.0,0.42498937526561836,60,89,Flute
69.0,0.42498937526561836,64,89,Flute
69.5,0.42498937526561836,64,65,Flute
69.5,0.42498937526561836,60,65,Flute
69.5,0.42498937526561836,55,65,Flute
69.5,0.42498937526561836,52,65,Flute
69.5,0.42498937526561836,48,65,Flute
70.0,0.42998423391142326,48,102,Flute
70.0,0.42998423391142326,52,102,Flute
70.0,0.42998423391142326,55,102,Flute
70.0,0.42998423391142326,60,102,Flute
70.0,0.42998423391142326,64,102,Flute
70.5,0.42998423391142326,64,75,Flute
70.5,0.42998423391142326,60,75,Flute
70.5,0.42998423391142326,55,75,Flute
70.5,0.42998423391142326,52,75,Flute
70.5,0.42998423391142326,48,75,Flute
71.0,0.42998423391142326,48,89,Flute
71.0,0.42998423391142326,52,89,Flute
71.0,0.42998423391142326,55,89,Flute
71.0,0.42998423391142326,60,89,Flute
71.0,0.42998423391142326,64,89,Flute
71.5,0.42998423391142326,64,75,Flute
71.5,0.42998423391142326,60,75,Flute
71.5,0.42998423391142326,55,75,Flute
71.5,0.42998423391142326,52,75,Flute
71.5,0.42998423391142326,48,75,Flute
72.0,0.8599684678228465,48,102,Flute
72.0,0.8599684678228465,52,102,Flute
72.0,0.8599684678228465,55,102,Flute
72.0,0.8599684678228465,60,102,Flute
72.0,0.8599684678228465,64,102,Flute
73.0,0.42498937526561836,47,89,Flute
73.0,0.42498937526561836,50,89,Flute
73.0,0.42498937526561836,57,89,Flute
73.0,0.42498937526561836,59,89,Flute
73.0,0.42498937526561836,65,89,Flute
73.5,0.42498937526561836,65,75,Flute
73.5,0.42498937526561836,59,75,Flute
73.5,0.42498937526561836,57,75,Flute
73.5,0.42498937526561836,50,75,Flute
73.5,0.42498937526561836,47,75,Flute
74.0,0.42998423391142326,47,102,Flute
74.0,0.42998423391142326,50,102,Flute
74.0,0.42998423391142326,57,102,Flute
74.0,0.42998423391142326,59,102,Flute
74.0,0.42998423391142326,65,102,Flute
74.5,0.42998423391142326,65,75,Flute
74.5,0.42998423391142326,59,75,Flute
74.5,0.42998423391142326,57,75,Flute
74.5,0.42998423391142326,50,75,Flute
74.5,0.42998423391142326,47,75,Flute
75.0,0.42998423391142326,47,89,Flute
75.0,0.42998423391142326,50,89,Flute
75.0,0.42998423391142326,56,89,Flute
75.0,0.42998423391142326,59,89,Flute
75.0,0.42998423391142326,64,89,Flute
75.5,0.42998423391142326,64,75,Flute
75.5,0.42998423391142326,59,75,Flute
75.5,0.42998423391142326,56,75,Flute
75.5,0.42998423391142326,50,75,Flute
75.5,0.42998423391142326,47,75,Flute
76.0,0.42498937526561836,47,102,Flute
76.0,0.42498937526561836,50,102,Flute
76.0,0.42498937526561836,56,102,Flute
76.0,0.42498937526561836,59,102,Flute
76.0,0.42498937526561836,64,102,Flute
76.5,0.42498937526561836,64,75,Flute
76.5,0.42498937526561836,59,75,Flute
76.5,0.42498937526561836,56,75,Flute
76.5,0.42498937526561836,50,75,Flute
76.5,0.42498937526561836,47,75,Flute
77.0,0.42998423391142326,45,89,Flute
77.0,0.42998423391142326,52,89,Flute
77.0,0.42998423391142326,57,89,Flute
77.0,0.42998423391142326,60,89,Flute
77.0,0.42998423391142326,64,89,Flute
77.5,0.42998423391142326,64,75,Flute
77.5,0.42998423391142326,60,75,Flute
77.5,0.42998423391142326,57,75,Flute
77.5,0.42998423391142326,52,75,Flute
77.5,0.42998423391142326,45,75,Flute
78.0,0.42998423391142326,45,102,Flute
78.0,0.42998423391142326,52,102,Flute
78.0,0.42998423391142326,57,102,Flute
78.0,0.42998423391142326,60,102,Flute
78.0,0.42998423391142326,64,102,Flute
78.5,0.42998423391142326,64,75,Flute
78.5,0.42998423391142326,60,75,Flute
78.5,0.42998423391142326,57,75,Flute
78.5,0.42998423391142326,52,75,Flute
78.5,0.42998423391142326,45,75,Flute
79.0,0.42998423391142326,43,89,Flute
79.0,0.42998423391142326,52,89,Flute
79.0,0.42998423391142326,55,89,Flute
79.0,0.42998423391142326,60,89,Flute
79.0,0.42998423391142326,64,89,Flute
79.5,0.42998423391142326,64,75,Flute
79.5,0.42998423391142326,60,75,Flute
79.5,0.42998423391142326,55,75,Flute
79.5,0.42998423391142326,52,75,Flute
79.5,0.42998423391142326,43,75,Flute
80.0,0.42498937526561836,43,102,Flute
80.0,0.42498937526561836,52,102,Flute
80.0,0.42498937526561836,55,102,Flute
80.0,0.42498937526561836,60,102,Flute
80.0,0.42498937526561836,64,102,Flute
80.5,0.42498937526561836,64,75,Flute
80.5,0.42498937526561836,60,75,Flute
80.5,0.42498937526561836,55,75,Flute
80.5,0.42498937526561836,52,75,Flute
80.5,0.42498937526561836,43,75,Flute
81.0,0.42998423391142326,41,89,Flute
81.0,0.42998423391142326,53,89,Flute
81.0,0.42998423391142326,57,89,Flute
81.0,0.42998423391142326,60,89,Flute
81.0,0.42998423391142326,64,89,Flute
81.5,0.42998423391142326,64,75,Flute
81.5,0.42998423391142326,60,75,Flute
81.5,0.42998423391142326,57,75,Flute
81.5,0.42998423391142326,53,75,Flute
81.5,0.42998423391142326,48,75,Flute
82.0,0.42998423391142326,48,102,Flute
82.0,0.42998423391142326,53,102,Flute
82.0,0.42998423391142326,57,102,Flute
82.0,0.42998423391142326,60,102,Flute
82.0,0.42998423391142326,64,102,Flute
82.5,0.42998423391142326,64,75,Flute
82.5,0.42998423391142326,60,75,Flute
82.5,0.42998423391142326,57,75,Flute
82.5,0.42998423391142326,53,75,Flute
82.5,0.42998423391142326,48,75,Flute
83.0,0.42498937526561836,48,89,Flute
83.0,0.42498937526561836,50,89,Flute
83.0,0.42498937526561836,55,89,Flute
83.0,0.42498937526561836,60,89,Flute
83.0,0.42498937526561836,67,89,Flute
83.5,0.42498937526561836,67,65,Flute
83.5,0.42498937526561836,60,65,Flute
83.5,0.42498937526561836,55,65,Flute
83.5,0.42498937526561836,50,65,Flute
83.5,0.42498937526561836,48,65,Flute
84.0,0.8599684678228465,47,102,Flute
84.0,0.8599684678228465,50,102,Flute
84.0,0.8599684678228465,55,102,Flute
84.0,0.8599684678228465,59,102,Flute
84.0,0.8599684678228465,67,102,Flute
85.0,0.42998423391142326,48,89,Flute
85.0,0.42998423391142326,52,89,Flute
85.0,0.42998423391142326,55,89,Flute
85.0,0.42998423391142326,60,89,Flute
85.0,0.42998423391142326,64,89,Flute
85.5,0.42998423391142326,64,65,Flute
85.5,0.42998423391142326,60,65,Flute
85.5,0.42998423391142326,55,65,Flute
85.5,0.42998423391142326,52,65,Flute
85.5,0.42998423391142326,48,65,Flute
86.0,0.42998423391142326,48,102,Flute
86.0,0.42998423391142326,52,102,Flute
86.0,0.42998423391142326,55,102,Flute
86.0,0.42998423391142326,60,102,Flute
86.0,0.42998423391142326,64,102,Flute
86.5,0.42998423391142326,64,75,Flute
86.5,0.42998423391142326,60,75,Flute
86.5,0.42998423391142326,55,75,Flute
86.5,0.42998423391142326,52,75,Flute
86.5,0.42998423391142326,48,75,Flute
87.0,0.42498937526561836,48,89,Flute
87.0,0.42498937526561836,52,89,Flute
87.0,0.42498937526561836,55,89,Flute
87.0,0.42498937526561836,60,89,Flute
87.0,0.42498937526561836,64,89,Flute
87.5,0.42498937526561836,64,75,Flute
87.5,0.42498937526561836,60,75,Flute
87.5,0.42498937526561836,55,75,Flute
87.5,0.42498937526561836,52,75,Flute
87.5,0.42498937526561836,48,75,Flute
88.0,0.8599684678228465,48,102,Flute
88.0,0.8599684678228465,52,102,Flute
88.0,0.8599684678228465,55,102,Flute
88.0,0.8599684678228465,60,102,Flute
88.0,0.8599684678228465,64,102,Flute
89.0,0.42998423391142326,47,89,Flute
89.0,0.42998423391142326,50,89,Flute
89.0,0.42998423391142326,57,89,Flute
89.0,0.42998423391142326,59,89,Flute
89.0,0.42998423391142326,65,89,Flute
89.5,0.42998423391142326,65,75,Flute
89.5,0.42998423391142326,59,75,Flute
89.5,0.42998423391142326,57,75,Flute
89.5,0.42998423391142326,50,75,Flute
89.5,0.42998423391142326,47,75,Flute
90.0,0.42498937526561836,47,102,Flute
90.0,0.42498937526561836,50,102,Flute
90.0,0.42498937526561836,57,102,Flute
90.0,0.42498937526561836,59,102,Flute
90.0,0.42498937526561836,65,102,Flute
90.5,0.42498937526561836,65,75,Flute
90.5,0.42498937526561836,59,75,Flute
90.5,0.42498937526561836,57,75,Flute
90.5,0.42498937526561836,50,75,Flute
90.5,0.42498937526561836,47,75,Flute
91.0,0.42998423391142326,47,89,Flute
91.0,0.42998423391142326,50,89,Flute
91.0,0.42998423391142326,56,89,Flute
91.0,0.42998423391142326,59,89,Flute
91.0,0.42998423391142326,64,89,Flute
91.5,0.42998423391142326,64,75,Flute
91.5,0.42998423391142326,59,75,Flute
91.5,0.42998423391142326,56,75,Flute
91.5,0.42998423391142326,50,75,Flute
91.5,0.42998423391142326,47,75,Flute
92.0,0.42998423391142326,47,102,Flute
92.0,0.42998423391142326,50,102,Flute
92.0,0.42998423391142326,56,102,Flute
92.0,0.42998423391142326,59,102,Flute
92.0,0.42998423391142326,64,102,Flute
92.5,0.42998423391142326,64,75,Flute
92.5,0.42998423391142326,59,75,Flute
92.5,0.42998423391142326,56,75,Flute
92.5,0.42998423391142326,50,75,Flute
92.5,0.42998423391142326,47,75,Flute
93.0,0.42498937526561836,45,89,Flute
93.0,0.42498937526561836,52,89,Flute
93.0,0.42498937526561836,57,89,Flute
93.0,0.42498937526561836,60,89,Flute
93.0,0.42498937526561836,64,89,Flute
93.5,0.42498937526561836,64,75,Flute
93.5,0.42498937526561836,60,75,Flute
93.5,0.42498937526561836,57,75,Flute
93.5,0.42498937526561836,52,75,Flute
93.5,0.42498937526561836,45,75,Flute
94.0,0.0,45,40,Flute
94.0,0.0,52,40,Flute
94.0,0.0,57,40,Flute
94.0,0.0,60,40,Flute
94.0,0.0,64,40,Flute
94.5,0.8599684678228465,64,90,Flute
94.5,0.8599684678228465,60,90,Flute
94.5,0.8599684678228465,56,90,Flute
94.5,0.8599684678228465,52,90,Flute
94.5,0.8599684678228465,44,90,Flute
95.5,0.42998423391142326,64,75,Flute
95.5,0.42998423391142326,60,75,Flute
95.5,0.42998423391142326,56,75,Flute
95.5,0.42998423391142326,52,75,Flute
95.5,0.42998423391142326,44,75,Flute
96.0,0.42998423391142326,44,102,Flute
96.0,0.42998423391142326,52,102,Flute
96.0,0.42998423391142326,56,102,Flute
96.0,0.42998423391142326,60,102,Flute
96.0,0.42998423391142326,64,102,Flute
96.5,0.42998423391142326,64,75,Flute
96.5,0.42998423391142326,60,75,Flute
96.5,0.42998423391142326,56,75,Flute
96.5,0.42998423391142326,52,75,Flute
96.5,0.42998423391142326,44,75,Flute
97.0,0.8499787505312367,43,89,Flute
97.0,0.8499787505312367,52,89,Flute
97.0,0.8499787505312367,55,89,Flute
97.0,0.8499787505312367,60,89,Flute
97.0,0.8499787505312367,64,89,Flute
98.0,0.0,43,40,Flute
98.0,0.0,52,40,Flute
98.0,0.0,55,40,Flute
98.0,0.0,60,40,Flute
98.0,0.0,64,40,Flute
98.5,2.1499211695571163,64,96,Flute
98.5,2.1499211695571163,60,96,Flute
98.5,2.1499211695571163,57,96,Flute
98.5,2.1499211695571163,52,96,Flute
98.5,2.1499211695571163,42,96,Flute
101.0,1.6999575010624735,41,99,Flute
101.0,1.6999575010624735,45,99,Flute
101.0,1.6999575010624735,53,99,Flute
101.0,1.6999575010624735,57,99,Flute
101.0,1.4874628134296644,60,108,Flute
101.0,1.4874628134296644,64,108,Flute
103.0,1.719936935645693,41,99,Flute
103.0,1.719936935645693,47,99,Flute
103.0,1.719936935645693,50,99,Flute
103.0,1.719936935645693,55,99,Flute
103.0,1.5049448186899814,59,108,Flute
103.0,1.5049448186899814,67,108,Flute
105.0,1.719936935645693,40,99,Flute
105.0,1.719936935645693,47,99,Flute
105.0,1.719936935645693,50,99,Flute
105.0,1.719936935645693,55,99,Flute
105.0,1.5049448186899814,59,108,Flute
105.0,1.5049448186899814,64,108,Flute
107.0,1.719936935645693,43,99,Flute
107.0,1.719936935645693,46,99,Flute
107.0,1.719936935645693,51,99,Flute
107.0,1.719936935645693,55,99,Flute
107.0,1.5049448186899814,63,108,Flute
107.0,1.5049448186899814,67,108,Flute
109.0,1.719936935645693,41,99,Flute
109.0,1.719936935645693,45,99,Flute
109.0,1.719936935645693,50,99,Flute
109.0,1.719936935645693,57,99,Flute
109.0,1.5049448186899814,60,108,Flute
109.0,1.5049448186899814,65,108,Flute
111.0,1.6999575010624735,43,99,Flute
111.0,1.6999575010624735,48,99,Flute
111.0,1.6999575010624735,50,99,Flute
111.0,1.6999575010624735,55,99,Flute
111.0,1.4874628134296644,60,108,Flute
111.0,1.4874628134296644,67,108,Flute
113.0,2.5799054034685396,40,99,Flute
113.0,2.5799054034685396,48,99,Flute
113.0,2.5799054034685396,52,99,Flute
113.0,2.5799054034685396,55,99,Flute
113.0,2.364913286512828,60,108,Flute
113.0,2.364913286512828,64,108,Flute
116.0,0.8599684678228465,43,99,Flute
116.0,0.8599684678228465,45,99,Flute
116.0,0.8599684678228465,50,99,Flute
116.0,0.8599684678228465,57,99,Flute
116.0,0.6449763508671349,62,108,Flute
116.0,0.6449763508671349,65,108,Flute
117.0,0.8599684678228465,48,104,Flute
117.0,0.8599684678228465,52,104,Flute
117.0,0.8599684678228465,55,104,Flute
117.0,0.8599684678228465,60,104,Flute
118.0,0.0,52,50,Flute
118.0,0.0,55,50,Flute
118.0,0.0,60,50,Flute
118.0,0.0,64,50,Flute
118.5,1.9832837512395525,52,102,Flute
118.5,1.9832837512395525,60,102,Flute
121.0,0.8599684678228465,48,104,Flute
121.0,0.8599684678228465,52,104,Flute
121.0,0.8599684678228465,59,104,Flute
121.0,0.8599684678228465,64,104,Flute
122.0,0.0,48,50,Flute
122.0,0.0,52,50,Flute
122.0,0.0,59,50,Flute
122.0,0.0,64,50,Flute
122.0,0.0,67,50,Flute
122.5,1.1333050007083156,48,105,Flute
122.5,1.1333050007083156,52,105,Flute
122.5,1.1333050007083156,55,105,Flute
122.5,1.1333050007083156,60,105,Flute
122.5,1.1333050007083156,64,105,Flute
124.0,0.8599684678228465,47,105,Flute
124.0,0.8599684678228465,50,105,Flute
124.0,0.8599684678228465,55,105,Flute
124.0,0.8599684678228465,59,105,Flute
124.0,0.8599684678228465,67,105,Flute
125.0,1.6999575010624735,45,100,Flute
125.0,1.6999575010624735,64,100,Flute
127.0,1.719936935645693,43,100,Flute
127.0,1.719936935645693,64,100,Flute
129.0,1.6999575010624735,41,95,Flute
129.0,1.6999575010624735,53,95,Flute
131.0,0.42998423391142326,43,99,Flute
131.0,0.42998423391142326,50,99,Flute
131.0,0.42998423391142326,55,99,Flute
131.0,0.42998423391142326,60,99,Flute
131.0,0.42998423391142326,67,99,Flute
131.5,0.42998423391142326,67,75,Flute
131.5,0.42998423391142326,60,75,Flute
131.5,0.42998423391142326,55,75,Flute
131.5,0.42998423391142326,50,75,Flute
131.5,0.42998423391142326,43,75,Flute
132.0,0.42498937526561836,43,99,Flute
132.0,0.42498937526561836,50,99,Flute
132.0,0.42498937526561836,55,99,Flute
132.0,0.42498937526561836,59,99,Flute
132.0,0.42498937526561836,67,99,Flute
132.5,0.2833262501770789,67,75,Flute
132.5,0.2833262501770789,59,75,Flute
132.5,0.2833262501770789,55,75,Flute
132.5,0.2833262501770789,50,75,Flute
132.5,0.2833262501770789,43,75,Flute
133.0,0.8599684678228465,48,103,Flute
133.0,0.8599684678228465,52,103,Flute
133.0,0.8599684678228465,55,103,Flute
133.0,0.8599684678228465,60,108,Flute
133.0,0.8599684678228465,64,108,Flute
134.0,0.0,52,50,Flute
134.0,0.0,55,50,Flute
134.0,0.0,60,50,Flute
134.0,0.0,64,50,Flute
134.5,2.006593091586642,52,102,Flute
134.5,2.006593091586642,60,102,Flute
137.0,0.8599684678228465,48,104,Flute
137.0,0.8599684678228465,52,104,Flute
137.0,0.8599684678228465,59,104,Flute
137.0,0.8599684678228465,64,104,Flute
138.0,0.0,48,50,Flute
138.0,0.0,52,50,Flute
138.0,0.0,59,50,Flute
138.0,0.0,64,50,Flute
138.0,0.0,67,50,Flute
138.5,1.1466246237637954,48,105,Flute
138.5,1.1466246237637954,52,105,Flute
138.5,1.1466246237637954,55,105,Flute
138.5,1.1466246237637954,60,105,Flute
138.5,1.1466246237637954,64,105,Flute
140.0,0.8599684678228465,47,105,Flute
140.0,0.8599684678228465,50,105,Flute
140.0,0.8599684678228465,55,105,Flute
140.0,0.8599684678228465,59,105,Flute
140.0,0.8599684678228465,67,105,Flute
141.0,1.719936935645693,45,100,Flute
141.0,1.719936935645693,64,100,Flute
143.0,1.6999575010624735,43,100,Flute
143.0,1.6999575010624735,64,100,Flute
145.0,1.719936935645693,41,95,Flute
145.0,1.719936935645693,53,95,Flute
147.0,0.42998423391142326,43,99,Flute
147.0,0.42998423391142326,50,99,Flute
147.0,0.42998423391142326,55,99,Flute
147.0,0.42998423391142326,60,99,Flute
147.0,0.42998423391142326,67,99,Flute
147.5,0.42998423391142326,67,75,Flute
147.5,0.42998423391142326,60,75,Flute
147.5,0.42998423391142326,55,75,Flute
147.5,0.42998423391142326,50,75,Flute
147.5,0.42998423391142326,43,75,Flute
148.0,0.42998423391142326,43,99,Flute
148.0,0.42998423391142326,50,99,Flute
148.0,0.42998423391142326,55,99,Flute
148.0,0.42998423391142326,59,99,Flute
148.0,0.42998423391142326,67,99,Flute
148.5,0.42998423391142326,67,75,Flute
148.5,0.42998423391142326,59,75,Flute
148.5,0.42998423391142326,55,75,Flute
148.5,0.42998423391142326,50,75,Flute
148.5,0.42998423391142326,43,75,Flute
149.0,0.42998423391142326,41,89,Flute
149.0,0.42998423391142326,53,89,Flute
149.0,0.42998423391142326,57,89,Flute
149.0,0.42998423391142326,60,89,Flute
149.0,0.42998423391142326,64,89,Flute
149.5,0.42998423391142326,64,75,Flute
149.5,0.42998423391142326,60,75,Flute
149.5,0.42998423391142326,57,75,Flute
149.5,0.42998423391142326,53,75,Flute
149.5,0.42998423391142326,48,75,Flute
150.0,0.42498937526561836,48,102,Flute
150.0,0.42498937526561836,53,102,Flute
150.0,0.42498937526561836,57,102,Flute
150.0,0.42498937526561836,60,102,Flute
150.0,0.42498937526561836,64,102,Flute
150.5,0.2833262501770789,64,75,Flute
150.5,0.2833262501770789,60,75,Flute
150.5,0.2833262501770789,57,75,Flute
150.5,0.2833262501770789,53,75,Flute
150.5,0.2833262501770789,48,75,Flute
151.0,0.42998423391142326,40,89,Flute
151.0,0.42998423391142326,52,89,Flute
151.0,0.42998423391142326,55,89,Flute
151.0,0.42998423391142326,60,89,Flute
151.0,0.42998423391142326,64,89,Flute
151.5,0.42998423391142326,64,75,Flute
151.5,0.42998423391142326,60,75,Flute
151.5,0.42998423391142326,55,75,Flute
151.5,0.42998423391142326,52,75,Flute
151.5,0.42998423391142326,48,75,Flute
152.0,0.42998423391142326,48,102,Flute
152.0,0.42998423391142326,52,102,Flute
152.0,0.42998423391142326,55,102,Flute
152.0,0.42998423391142326,60,102,Flute
152.0,0.42998423391142326,64,102,Flute
152.5,0.42998423391142326,64,75,Flute
152.5,0.42998423391142326,60,75,Flute
152.5,0.42998423391142326,55,75,Flute
152.5,0.42998423391142326,52,75,Flute
152.5,0.42998423391142326,48,75,Flute
153.0,0.42498937526561836,50,90,Flute
153.0,0.42498937526561836,57,90,Flute
153.0,0.42498937526561836,62,90,Flute
153.0,0.42498937526561836,65,90,Flute
153.5,0.42498937526561836,65,75,Flute
153.5,0.42498937526561836,62,75,Flute
153.5,0.42498937526561836,57,75,Flute
153.5,0.42498937526561836,50,75,Flute
154.0,0.42998423391142326,50,104,Flute
154.0,0.42998423391142326,57,104,Flute
154.0,0.42998423391142326,62,104,Flute
154.0,0.42998423391142326,65,104,Flute
154.5,0.42998423391142326,65,75,Flute
154.5,0.42998423391142326,62,75,Flute
154.5,0.42998423391142326,57,75,Flute
154.5,0.42998423391142326,50,75,Flute
155.0,0.42998423391142326,48,89,Flute
155.0,0.42998423391142326,52,89,Flute
155.0,0.42998423391142326,55,89,Flute
155.0,0.42998423391142326,60,89,Flute
155.0,0.42998423391142326,64,89,Flute
155.5,0.42998423391142326,64,75,Flute
155.5,0.42998423391142326,60,75,Flute
155.5,0.42998423391142326,55,75,Flute
155.5,0.42998423391142326,52,75,Flute
155.5,0.42998423391142326,48,75,Flute
156.0,0.42998423391142326,48,102,Flute
156.0,0.42998423391142326,52,102,Flute
156.0,0.42998423391142326,55,102,Flute
156.0,0.42998423391142326,60,102,Flute
156.0,0.42998423391142326,64,102,Flute
156.5,0.28665615594094884,64,75,Flute
156.5,0.28665615594094884,60,75,Flute
156.5,0.28665615594094884,55,75,Flute
156.5,0.28665615594094884,52,75,Flute
156.5,0.28665615594094884,48,75,Flute
157.0,0.42498937526561836,41,89,Flute
157.0,0.42498937526561836,53,89,Flute
157.0,0.42498937526561836,57,89,Flute
157.0,0.42498937526561836,60,89,Flute
157.0,0.42498937526561836,64,89,Flute
157.5,0.42498937526561836,64,75,Flute
157.5,0.42498937526561836,60,75,Flute
157.5,0.42498937526561836,57,75,Flute
157.5,0.42498937526561836,53,75,Flute
157.5,0.42498937526561836,48,75,Flute
158.0,0.42998423391142326,48,102,Flute
158.0,0.42998423391142326,53,102,Flute
158.0,0.42998423391142326,57,102,Flute
158.0,0.42998423391142326,60,102,Flute
158.0,0.42998423391142326,64,102,Flute
158.5,0.42998423391142326,64,75,Flute
158.5,0.42998423391142326,60,75,Flute
158.5,0.42998423391142326,57,75,Flute
158.5,0.42998423391142326,53,75,Flute
158.5,0.42998423391142326,48,75,Flute
159.0,0.42998423391142326,40,89,Flute
159.0,0.42998423391142326,52,89,Flute
159.0,0.42998423391142326,56,89,Flute
159.0,0.42998423391142326,59,89,Flute
159.0,0.42998423391142326,64,89,Flute
159.5,0.42998423391142326,64,75,Flute
159.5,0.42998423391142326,59,75,Flute
159.5,0.42998423391142326,56,75,Flute
159.5,0.42998423391142326,52,75,Flute
159.5,0.42998423391142326,47,75,Flute
160.0,0.42498937526561836,47,102,Flute
160.0,0.42498937526561836,52,102,Flute
160.0,0.42498937526561836,56,102,Flute
160.0,0.42498937526561836,59,102,Flute
160.0,0.42498937526561836,64,102,Flute
160.5,0.42498937526561836,64,75,Flute
160.5,0.42498937526561836,59,75,Flute
160.5,0.42498937526561836,56,75,Flute
160.5,0.42498937526561836,52,75,Flute
160.5,0.42498937526561836,47,75,Flute
161.0,0.8599684678228465,45,104,Flute
161.0,0.8599684678228465,52,104,Flute
161.0,0.8599684678228465,57,104,Flute
161.0,0.8599684678228465,60,104,Flute
162.0,0.0,45,50,Flute
162.0,0.0,52,50,Flute
162.0,0.0,57,50,Flute
162.0,0.0,60,50,Flute
162.0,0.0,64,50,Flute
162.5,0.8599684678228465,64,110,Flute
162.5,0.8599684678228465,45,110,Flute
162.5,1.2899527017342698,60,102,Flute
162.5,1.2899527017342698,57,102,Flute
162.5,1.2899527017342698,52,102,Flute
164.0,0.42498937526561836,45,99,Flute
164.0,0.42498937526561836,52,99,Flute
164.0,0.42498937526561836,57,99,Flute
164.0,0.42498937526561836,60,99,Flute
164.0,0.42498937526561836,64,99,Flute
164.5,0.2833262501770789,64,85,Flute
164.5,0.2833262501770789,60,85,Flute
164.5,0.2833262501770789,57,85,Flute
164.5,0.2833262501770789,52,85,Flute
164.5,0.2833262501770789,45,85,Flute
165.0,0.42998423391142326,43,89,Flute
165.0,0.42998423391142326,50,89,Flute
165.0,0.42998423391142326,57,89,Flute
165.0,0.42998423391142326,62,89,Flute
165.0,0.42998423391142326,65,89,Flute
165.5,0.42998423391142326,65,75,Flute
165.5,0.42998423391142326,62,75,Flute
165.5,0.42998423391142326,57,75,Flute
165.5,0.42998423391142326,50,75,Flute
165.5,0.42998423391142326,43,75,Flute
166.0,0.42998423391142326,43,102,Flute
166.0,0.42998423391142326,50,102,Flute
166.0,0.42998423391142326,57,102,Flute
166.0,0.42998423391142326,62,102,Flute
166.0,0.42998423391142326,65,102,Flute
166.5,0.42998423391142326,65,75,Flute
166.5,0.42998423391142326,62,75,Flute
166.5,0.42998423391142326,57,75,Flute
166.5,0.42998423391142326,50,75,Flute
166.5,0.42998423391142326,43,75,Flute
167.0,0.42498937526561836,43,99,Flute
167.0,0.42498937526561836,50,99,Flute
167.0,0.42498937526561836,57,99,Flute
167.0,0.42498937526561836,62,99,Flute
167.0,0.42498937526561836,65,99,Flute
167.5,0.42498937526561836,65,85,Flute
167.5,0.42498937526561836,62,85,Flute
167.5,0.42498937526561836,57,85,Flute
167.5,0.42498937526561836,50,85,Flute
167.5,0.42498937526561836,43,85,Flute
168.0,0.42998423391142326,43,102,Flute
168.0,0.42998423391142326,50,102,Flute
168.0,0.42998423391142326,57,102,Flute
168.0,0.42998423391142326,62,102,Flute
168.0,0.42998423391142326,65,102,Flute
168.5,0.42998423391142326,65,75,Flute
168.5,0.42998423391142326,62,75,Flute
168.5,0.42998423391142326,57,75,Flute
168.5,0.42998423391142326,50,75,Flute
168.5,0.42998423391142326,43,75,Flute
169.0,3.439873871291386,43,100,Flute
169.0,3.439873871291386,50,100,Flute
169.0,3.439873871291386,57,100,Flute
169.0,3.439873871291386,62,100,Flute
173.0,0.42998423391142326,48,89,Flute
173.0,0.42998423391142326,52,89,Flute
173.0,0.42998423391142326,55,89,Flute
173.0,0.42998423391142326,60,89,Flute
173.0,0.42998423391142326,64,89,Flute
173.5,0.42998423391142326,64,65,Flute
173.5,0.42998423391142326,60,65,Flute
173.5,0.42998423391142326,55,65,Flute
173.5,0.42998423391142326,52,65,Flute
173.5,0.42998423391142326,48,65,Flute
174.0,0.42498937526561836,48,102,Flute
174.0,0.42498937526561836,52,102,Flute
174.0,0.42498937526561836,55,102,Flute
174.0,0.42498937526561836,60,102,Flute
174.0,0.42498937526561836,64,102,Flute
174.5,0.42498937526561836,64,75,Flute
174.5,0.42498937526561836,60,75,Flute
174.5,0.42498937526561836,55,75,Flute
174.5,0.42498937526561836,52,75,Flute
174.5,0.42498937526561836,48,75,Flute
175.0,0.42998423391142326,48,89,Flute
175.0,0.42998423391142326,52,89,Flute
175.0,0.42998423391142326,55,89,Flute
175.0,0.42998423391142326,60,89,Flute
175.0,0.42998423391142326,64,89,Flute
175.5,0.42998423391142326,64,75,Flute
175.5,0.42998423391142326,60,75,Flute
175.5,0.42998423391142326,55,75,Flute
175.5,0.42998423391142326,52,75,Flute
175.5,0.42998423391142326,48,75,Flute
176.0,0.8599684678228465,48,102,Flute
176.0,0.8599684678228465,52,102,Flute
176.0,0.8599684678228465,55,102,Flute
176.0,0.8599684678228465,60,102,Flute
176.0,0.8599684678228465,64,102,Flute
177.0,0.42998423391142326,47,89,Flute
177.0,0.42998423391142326,50,89,Flute
177.0,0.42998423391142326,57,89,Flute
177.0,0.42998423391142326,59,89,Flute
177.0,0.42998423391142326,65,89,Flute
177.5,0.42998423391142326,65,75,Flute
177.5,0.42998423391142326,59,75,Flute
177.5,0.42998423391142326,57,75,Flute
177.5,0.42998423391142326,50,75,Flute
177.5,0.42998423391142326,47,75,Flute
178.0,0.42498937526561836,47,102,Flute
178.0,0.42498937526561836,50,102,Flute
178.0,0.42498937526561836,57,102,Flute
178.0,0.42498937526561836,59,102,Flute
178.0,0.42498937526561836,65,102,Flute
178.5,0.42498937526561836,65,75,Flute
178.5,0.42498937526561836,59,75,Flute
178.5,0.42498937526561836,57,75,Flute
178.5,0.42498937526561836,50,75,Flute
178.5,0.42498937526561836,47,75,Flute
179.0,0.42998423391142326,47,89,Flute
179.0,0.42998423391142326,50,89,Flute
179.0,0.42998423391142326,56,89,Flute
179.0,0.42998423391142326,59,89,Flute
179.0,0.42998423391142326,64,89,Flute
179.5,0.42998423391142326,64,75,Flute
179.5,0.42998423391142326,59,75,Flute
179.5,0.42998423391142326,56,75,Flute
179.5,0.42998423391142326,50,75,Flute
179.5,0.42998423391142326,47,75,Flute
180.0,0.42998423391142326,47,102,Flute
180.0,0.42998423391142326,50,102,Flute
180.0,0.42998423391142326,56,102,Flute
180.0,0.42998423391142326,59,102,Flute
180.0,0.42998423391142326,64,102,Flute
180.5,0.42998423391142326,64,75,Flute
180.5,0.42998423391142326,59,75,Flute
180.5,0.42998423391142326,56,75,Flute
180.5,0.42998423391142326,50,75,Flute
180.5,0.42998423391142326,47,75,Flute
181.0,0.42498937526561836,45,89,Flute
181.0,0.42498937526561836,52,89,Flute
181.0,0.42498937526561836,57,89,Flute
181.0,0.42498937526561836,60,89,Flute
181.0,0.42498937526561836,64,89,Flute
181.5,0.42498937526561836,64,75,Flute
181.5,0.42498937526561836,60,75,Flute
181.5,0.42498937526561836,57,75,Flute
181.5,0.42498937526561836,52,75,Flute
181.5,0.42498937526561836,45,75,Flute
182.0,0.42998423391142326,45,102,Flute
182.0,0.42998423391142326,52,102,Flute
182.0,0.42998423391142326,57,102,Flute
182.0,0.42998423391142326,60,102,Flute
182.0,0.42998423391142326,64,102,Flute
182.5,0.42998423391142326,64,75,Flute
182.5,0.42998423391142326,60,75,Flute
182.5,0.42998423391142326,57,75,Flute
182.5,0.42998423391142326,52,75,Flute
182.5,0.42998423391142326,45,75,Flute
183.0,0.42998423391142326,43,89,Flute
183.0,0.42998423391142326,52,89,Flute
183.0,0.42998423391142326,55,89,Flute
183.0,0.42998423391142326,60,89,Flute
183.0,0.42998423391142326,64,89,Flute
183.5,0.42998423391142326,64,75,Flute
183.5,0.42998423391142326,60,75,Flute
183.5,0.42998423391142326,55,75,Flute
183.5,0.42998423391142326,52,75,Flute
183.5,0.42998423391142326,43,75,Flute
184.0,0.42498937526561836,43,102,Flute
184.0,0.42498937526561836,52,102,Flute
184.0,0.42498937526561836,55,102,Flute
184.0,0.42498937526561836,60,102,Flute
184.0,0.42498937526561836,64,102,Flute
184.5,0.42498937526561836,64,75,Flute
184.5,0.42498937526561836,60,75,Flute
184.5,0.42498937526561836,55,75,Flute
184.5,0.42498937526561836,52,75,Flute
184.5,0.42498937526561836,43,75,Flute
185.0,0.42998423391142326,41,89,Flute
185.0,0.42998423391142326,53,89,Flute
185.0,0.42998423391142326,57,89,Flute
185.0,0.42998423391142326,60,89,Flute
185.0,0.42998423391142326,64,89,Flute
185.5,0.42998423391142326,64,75,Flute
185.5,0.42998423391142326,60,75,Flute
185.5,0.42998423391142326,57,75,Flute
185.5,0.42998423391142326,53,75,Flute
185.5,0.42998423391142326,48,75,Flute
186.0,0.42998423391142326,48,102,Flute
186.0,0.42998423391142326,53,102,Flute
186.0,0.42998423391142326,57,102,Flute
186.0,0.42998423391142326,60,102,Flute
186.0,0.42998423391142326,64,102,Flute
186.5,0.42998423391142326,64,75,Flute
186.5,0.42998423391142326,60,75,Flute
186.5,0.42998423391142326,57,75,Flute
186.5,0.42998423391142326,53,75,Flute
186.5,0.42998423391142326,48,75,Flute
187.0,0.42998423391142326,48,89,Flute
187.0,0.42998423391142326,50,89,Flute
187.0,0.42998423391142326,55,89,Flute
187.0,0.42998423391142326,60,89,Flute
187.0,0.42998423391142326,67,89,Flute
187.5,0.42998423391142326,67,65,Flute
187.5,0.42998423391142326,60,65,Flute
187.5,0.42998423391142326,55,65,Flute
187.5,0.42998423391142326,50,65,Flute
187.5,0.42998423391142326,48,65,Flute
188.0,0.8499787505312367,47,102,Flute
188.0,0.8499787505312367,50,102,Flute
188.0,0.8499787505312367,55,102,Flute
188.0,0.8499787505312367,59,102,Flute
188.0,0.8499787505312367,67,102,Flute
189.0,0.42998423391142326,48,89,Flute
189.0,0.42998423391142326,52,89,Flute
189.0,0.42998423391142326,55,89,Flute
189.0,0.42998423391142326,60,89,Flute
189.0,0.42998423391142326,64,89,Flute
189.5,0.42998423391142326,64,65,Flute
189.5,0.42998423391142326,60,65,Flute
189.5,0.42998423391142326,55,65,Flute
189.5,0.42998423391142326,52,65,Flute
189.5,0.42998423391142326,48,65,Flute
190.0,0.42998423391142326,48,102,Flute
190.0,0.42998423391142326,52,102,Flute
190.0,0.42998423391142326,55,102,Flute
190.0,0.42998423391142326,60,102,Flute
190.0,0.42998423391142326,64,102,Flute
190.5,0.42998423391142326,64,75,Flute
190.5,0.42998423391142326,60,75,Flute
190.5,0.42998423391142326,55,75,Flute
190.5,0.42998423391142326,52,75,Flute
190.5,0.42998423391142326,48,75,Flute
191.0,0.42498937526561836,48,89,Flute
191.0,0.42498937526561836,52,89,Flute
191.0,0.42498937526561836,55,89,Flute
191.0,0.42498937526561836,60,89,Flute
191.0,0.42498937526561836,64,89,Flute
191.5,0.42498937526561836,64,75,Flute
191.5,0.42498937526561836,60,75,Flute
191.5,0.42498937526561836,55,75,Flute
191.5,0.42498937526561836,52,75,Flute
191.5,0.42498937526561836,48,75,Flute
192.0,0.8599684678228465,48,102,Flute
192.0,0.8599684678228465,52,102,Flute
192.0,0.8599684678228465,55,102,Flute
192.0,0.8599684678228465,60,102,Flute
192.0,0.8599684678228465,64,102,Flute
193.0,0.42998423391142326,47,89,Flute
193.0,0.42998423391142326,50,89,Flute
193.0,0.42998423391142326,57,89,Flute
193.0,0.42998423391142326,59,89,Flute
193.0,0.42998423391142326,65,89,Flute
193.5,0.42998423391142326,65,75,Flute
193.5,0.42998423391142326,59,75,Flute
193.5,0.42998423391142326,57,75,Flute
193.5,0.42998423391142326,50,75,Flute
193.5,0.42998423391142326,47,75,Flute
194.0,0.42998423391142326,47,102,Flute
194.0,0.42998423391142326,50,102,Flute
194.0,0.42998423391142326,57,102,Flute
194.0,0.42998423391142326,59,102,Flute
194.0,0.42998423391142326,65,102,Flute
194.5,0.42998423391142326,65,75,Flute
194.5,0.42998423391142326,59,75,Flute
194.5,0.42998423391142326,57,75,Flute
194.5,0.42998423391142326,50,75,Flute
194.5,0.42998423391142326,47,75,Flute
195.0,0.42498937526561836,47,89,Flute
195.0,0.42498937526561836,50,89,Flute
195.0,0.42498937526561836,56,89,Flute
195.0,0.42498937526561836,59,89,Flute
195.0,0.42498937526561836,64,89,Flute
195.5,0.42498937526561836,64,75,Flute
195.5,0.42498937526561836,59,75,Flute
195.5,0.42498937526561836,56,75,Flute
195.5,0.42498937526561836,50,75,Flute
195.5,0.42498937526561836,47,75,Flute
196.0,0.42998423391142326,47,102,Flute
196.0,0.42998423391142326,50,102,Flute
196.0,0.42998423391142326,56,102,Flute
196.0,0.42998423391142326,59,102,Flute
196.0,0.42998423391142326,64,102,Flute
196.5,0.42998423391142326,64,75,Flute
196.5,0.42998423391142326,59,75,Flute
196.5,0.42998423391142326,56,75,Flute
196.5,0.42998423391142326,50,75,Flute
196.5,0.42998423391142326,47,75,Flute
197.0,0.42998423391142326,45,89,Flute
197.0,0.42998423391142326,52,89,Flute
197.0,0.42998423391142326,57,89,Flute
197.0,0.42998423391142326,60,89,Flute
197.0,0.42998423391142326,64,89,Flute
197.5,0.42998423391142326,64,75,Flute
197.5,0.42998423391142326,60,75,Flute
197.5,0.42998423391142326,57,75,Flute
197.5,0.42998423391142326,52,75,Flute
197.5,0.42998423391142326,45,75,Flute
198.0,0.0,45,40,Flute
198.0,0.0,52,40,Flute
198.0,0.0,57,40,Flute
198.0,0.0,60,40,Flute
198.0,0.0,64,40,Flute
198.5,0.8499787505312367,64,90,Flute
198.5,0.8499787505312367,60,90,Flute
198.5,0.8499787505312367,56,90,Flute
198.5,0.8499787505312367,52,90,Flute
198.5,0.8499787505312367,44,90,Flute
199.5,0.42998423391142326,64,75,Flute
199.5,0.42998423391142326,60,75,Flute
199.5,0.42998423391142326,56,75,Flute
199.5,0.42998423391142326,52,75,Flute
199.5,0.42998423391142326,44,75,Flute
200.0,0.42998423391142326,44,102,Flute
200.0,0.42998423391142326,52,102,Flute
200.0,0.42998423391142326,56,102,Flute
200.0,0.42998423391142326,60,102,Flute
200.0,0.42998423391142326,64,102,Flute
200.5,0.42998423391142326,64,75,Flute
200.5,0.42998423391142326,60,75,Flute
200.5,0.42998423391142326,56,75,Flute
200.5,0.42998423391142326,52,75,Flute
200.5,0.42998423391142326,44,75,Flute
201.0,0.8599684678228465,43,89,Flute
201.0,0.8599684678228465,52,89,Flute
201.0,0.8599684678228465,55,89,Flute
201.0,0.8599684678228465,60,89,Flute
201.0,0.8599684678228465,64,89,Flute
202.0,0.0,43,40,Flute
202.0,0.0,52,40,Flute
202.0,0.0,55,40,Flute
202.0,0.0,60,40,Flute
202.0,0.0,64,40,Flute
202.5,2.124946876328092,64,96,Flute
202.5,2.124946876328092,60,96,Flute
202.5,2.124946876328092,57,96,Flute
202.5,2.124946876328092,52,96,Flute
202.5,2.124946876328092,42,96,Flute
205.0,0.42998423391142326,41,89,Flute
205.0,0.42998423391142326,53,89,Flute
205.0,0.42998423391142326,57,89,Flute
205.0,0.42998423391142326,60,89,Flute
205.0,0.42998423391142326,64,89,Flute
205.5,0.42998423391142326,64,75,Flute
205.5,0.42998423391142326,60,75,Flute
205.5,0.42998423391142326,57,75,Flute
205.5,0.42998423391142326,53,75,Flute
205.5,0.42998423391142326,48,75,Flute
206.0,0.42498937526561836,48,102,Flute
206.0,0.42498937526561836,53,102,Flute
206.0,0.42498937526561836,57,102,Flute
206.0,0.42498937526561836,60,102,Flute
206.0,0.42498937526561836,64,102,Flute
206.5,0.42498937526561836,64,75,Flute
206.5,0.42498937526561836,60,75,Flute
206.5,0.42498937526561836,57,75,Flute
206.5,0.42498937526561836,53,75,Flute
206.5,0.42498937526561836,48,75,Flute
207.0,0.42998423391142326,41,89,Flute
207.0,0.42998423391142326,53,89,Flute
207.0,0.42998423391142326,59,89,Flute
207.0,0.42998423391142326,62,89,Flute
207.0,0.42998423391142326,67,89,Flute
207.5,0.42998423391142326,67,75,Flute
207.5,0.42998423391142326,62,75,Flute
207.5,0.42998423391142326,59,75,Flute
207.5,0.42998423391142326,53,75,Flute
207.5,0.42998423391142326,50,75,Flute
208.0,0.42998423391142326,50,102,Flute
208.0,0.42998423391142326,53,102,Flute
208.0,0.42998423391142326,59,102,Flute
208.0,0.42998423391142326,62,102,Flute
208.0,0.42998423391142326,67,102,Flute
208.5,0.42998423391142326,67,75,Flute
208.5,0.42998423391142326,62,75,Flute
208.5,0.42998423391142326,59,75,Flute
208.5,0.42998423391142326,53,75,Flute
208.5,0.42998423391142326,50,75,Flute
209.0,0.42498937526561836,40,89,Flute
209.0,0.42498937526561836,50,89,Flute
209.0,0.42498937526561836,55,89,Flute
209.0,0.42498937526561836,59,89,Flute
209.0,0.42498937526561836,64,89,Flute
209.5,0.42498937526561836,64,75,Flute
209.5,0.42498937526561836,59,75,Flute
209.5,0.42498937526561836,55,75,Flute
209.5,0.42498937526561836,50,75,Flute
209.5,0.42498937526561836,47,75,Flute
210.0,0.42998423391142326,47,102,Flute
210.0,0.42998423391142326,50,102,Flute
210.0,0.42998423391142326,55,102,Flute
210.0,0.42998423391142326,59,102,Flute
210.0,0.42998423391142326,64,102,Flute
210.5,0.42998423391142326,64,75,Flute
210.5,0.42998423391142326,59,75,Flute
210.5,0.42998423391142326,55,75,Flute
210.5,0.42998423391142326,50,75,Flute
210.5,0.42998423391142326,47,75,Flute
211.0,0.42998423391142326,46,89,Flute
211.0,0.42998423391142326,51,89,Flute
211.0,0.42998423391142326,55,89,Flute
211.0,0.42998423391142326,63,89,Flute
211.0,0.42998423391142326,67,89,Flute
211.5,0.42998423391142326,67,75,Flute
211.5,0.42998423391142326,63,75,Flute
211.5,0.42998423391142326,55,75,Flute
211.5,0.42998423391142326,51,75,Flute
211.5,0.42998423391142326,46,75,Flute
212.0,0.42498937526561836,46,102,Flute
212.0,0.42498937526561836,51,102,Flute
212.0,0.42498937526561836,55,102,Flute
212.0,0.42498937526561836,63,102,Flute
212.0,0.42498937526561836,67,102,Flute
212.5,0.42498937526561836,67,75,Flute
212.5,0.42498937526561836,63,75,Flute
212.5,0.42498937526561836,55,75,Flute
212.5,0.42498937526561836,51,75,Flute
212.5,0.42498937526561836,46,75,Flute
213.0,0.42998423391142326,45,89,Flute
213.0,0.42998423391142326,50,89,Flute
213.0,0.42998423391142326,57,89,Flute
213.0,0.42998423391142326,60,89,Flute
213.0,0.42998423391142326,65,89,Flute
213.5,0.42998423391142326,65,75,Flute
213.5,0.42998423391142326,60,75,Flute
213.5,0.42998423391142326,57,75,Flute
213.5,0.42998423391142326,50,75,Flute
213.5,0.42998423391142326,45,75,Flute
214.0,0.42998423391142326,45,102,Flute
214.0,0.42998423391142326,50,102,Flute
214.0,0.42998423391142326,57,102,Flute
214.0,0.42998423391142326,60,102,Flute
214.0,0.42998423391142326,65,102,Flute
214.5,0.42998423391142326,65,75,Flute
214.5,0.42998423391142326,60,75,Flute
214.5,0.42998423391142326,57,75,Flute
214.5,0.42998423391142326,50,75,Flute
214.5,0.42998423391142326,45,75,Flute
215.0,0.42998423391142326,48,89,Flute
215.0,0.42998423391142326,50,89,Flute
215.0,0.42998423391142326,55,89,Flute
215.0,0.42998423391142326,60,89,Flute
215.0,0.42998423391142326,67,89,Flute
215.5,0.42998423391142326,67,75,Flute
215.5,0.42998423391142326,60,75,Flute
215.5,0.42998423391142326,55,75,Flute
215.5,0.42998423391142326,50,75,Flute
215.5,0.42998423391142326,48,75,Flute
216.0,0.42498937526561836,47,102,Flute
216.0,0.42498937526561836,50,102,Flute
216.0,0.42498937526561836,55,102,Flute
216.0,0.42498937526561836,59,102,Flute
216.0,0.42498937526561836,67,102,Flute
216.5,0.42498937526561836,67,75,Flute
216.5,0.42498937526561836,59,75,Flute
216.5,0.42498937526561836,55,75,Flute
216.5,0.42498937526561836,50,75,Flute
216.5,0.42498937526561836,47,75,Flute
217.0,0.8599684678228465,45,89,Flute
217.0,0.8599684678228465,52,89,Flute
217.0,0.8599684678228465,57,89,Flute
217.0,0.8599684678228465,60,89,Flute
217.0,0.8599684678228465,64,89,Flute
218.0,0.0,45,40,Flute
218.0,0.0,52,40,Flute
218.0,0.0,57,40,Flute
218.0,0.0,60,40,Flute
218.0,0.0,64,40,Flute
218.5,0.8599684678228465,64,90,Flute
218.5,0.8599684678228465,60,90,Flute
218.5,0.8599684678228465,56,90,Flute
218.5,0.8599684678228465,52,90,Flute
218.5,0.8599684678228465,44,90,Flute
219.5,0.42498937526561836,64,75,Flute
219.5,0.42498937526561836,60,75,Flute
219.5,0.42498937526561836,56,75,Flute
219.5,0.42498937526561836,52,75,Flute
219.5,0.42498937526561836,44,75,Flute
220.0,0.42998423391142326,44,102,Flute
220.0,0.42998423391142326,52,102,Flute
220.0,0.42998423391142326,56,102,Flute
220.0,0.42998423391142326,60,102,Flute
220.0,0.42998423391142326,64,102,Flute
220.5,0.42998423391142326,64,75,Flute
220.5,0.42998423391142326,60,75,Flute
220.5,0.42998423391142326,56,75,Flute
220.5,0.42998423391142326,52,75,Flute
220.5,0.42998423391142326,44,75,Flute
221.0,0.8599684678228465,43,89,Flute
221.0,0.8599684678228465,52,89,Flute
221.0,0.8599684678228465,55,89,Flute
221.0,0.8599684678228465,60,89,Flute
221.0,0.8599684678228465,64,89,Flute
222.0,0.0,43,40,Flute
222.0,0.0,52,40,Flute
222.0,0.0,55,40,Flute
222.0,0.0,60,40,Flute
222.0,0.0,64,40,Flute
222.5,2.006593091586642,64,96,Flute
222.5,2.006593091586642,60,96,Flute
222.5,2.006593091586642,57,96,Flute
222.5,2.006593091586642,52,96,Flute
222.5,2.006593091586642,42,96,Flute
225.0,1.719936935645693,41,99,Flute
225.0,1.719936935645693,45,99,Flute
225.0,1.719936935645693,53,99,Flute
225.0,1.719936935645693,57,99,Flute
225.0,1.5049448186899814,60,108,Flute
225.0,1.5049448186899814,64,108,Flute
227.0,1.719936935645693,41,99,Flute
227.0,1.719936935645693,47,99,Flute
227.0,1.719936935645693,50,99,Flute
227.0,1.719936935645693,55,99,Flute
227.0,1.5049448186899814,59,108,Flute
227.0,1.5049448186899814,67,108,Flute
229.0,1.719936935645693,40,99,Flute
229.0,1.719936935645693,47,99,Flute
229.0,1.719936935645693,50,99,Flute
229.0,1.719936935645693,55,99,Flute
229.0,1.5049448186899814,59,108,Flute
229.0,1.5049448186899814,64,108,Flute
231.0,1.719936935645693,43,99,Flute
231.0,1.719936935645693,46,99,Flute
231.0,1.719936935645693,51,99,Flute
231.0,1.719936935645693,55,99,Flute
231.0,1.5049448186899814,63,108,Flute
231.0,1.5049448186899814,67,108,Flute
233.0,1.6999575010624735,41,99,Flute
233.0,1.6999575010624735,45,99,Flute
233.0,1.6999575010624735,50,99,Flute
233.0,1.6999575010624735,57,99,Flute
233.0,1.4874628134296644,60,108,Flute
233.0,1.4874628134296644,65,108,Flute
235.0,1.719936935645693,43,99,Flute
235.0,1.719936935645693,48,99,Flute
235.0,1.719936935645693,50,99,Flute
235.0,1.719936935645693,55,99,Flute
235.0,1.5049448186899814,60,108,Flute
235.0,1.5049448186899814,67,108,Flute
239.0,0.8599684678228465,48,104,Flute
239.0,0.8599684678228465,52,104,Flute
239.0,0.8599684678228465,55,104,Flute
239.0,0.8599684678228465,60,104,Flute
240.0,0.0,52,50,Flute
240.0,0.0,55,50,Flute
240.0,0.0,60,50,Flute
240.0,0.0,64,50,Flute
243.0,0.8599684678228465,48,104,Flute
243.0,0.8599684678228465,52,104,Flute
243.0,0.8599684678228465,59,104,Flute
243.0,0.8599684678228465,64,104,Flute
244.0,0.0,48,50,Flute
244.0,0.0,52,50,Flute
244.0,0.0,59,50,Flute
244.0,0.0,64,50,Flute
244.0,0.0,67,50,Flute
247.0,0.8499787505312367,48,104,Flute
247.0,0.8499787505312367,52,104,Flute
247.0,0.8499787505312367,55,104,Flute
247.0,0.8499787505312367,60,104,Flute
248.0,0.0,52,50,Flute
248.0,0.0,55,50,Flute
248.0,0.0,60,50,Flute
248.0,0.0,64,50,Flute
251.0,1.0400416016640666,48,104,Flute
251.0,1.0400416016640666,52,104,Flute
251.0,1.0400416016640666,59,104,Flute
251.0,1.0400416016640666,64,104,Flute
252.0,0.0,48,50,Flute
252.0,0.0,52,50,Flute
252.0,0.0,59,50,Flute
252.0,0.0,64,50,Flute
252.0,0.0,67,50,Flute
258.0,4.930394431554524,48,103,Flute
258.0,4.930394431554524,52,103,Flute
258.0,4.930394431554524,59,103,Flute
258.0,4.930394431554524,64,108,Flute
258.0,4.930394431554524,67,108,Flute
