Start,Duration,Pitch,Velocity,Instrument
12.0,2.608695652173913,48,82,Piano
12.0,2.608695652173913,67,82,Piano
16.0,0.9782608695652174,76,112,Piano
16.0,0.9782608695652174,84,112,Piano
17.5,0.9782608695652174,74,108,Piano
17.5,0.9782608695652174,83,108,Piano
19.0,0.6521739130434783,71,102,Piano
19.0,0.6521739130434783,79,102,Piano
20.0,2.608695652173913,41,100,Piano
20.0,2.608695652173913,72,100,Piano
20.0,2.608695652173913,81,100,Piano
24.0,0.9782608695652174,60,95,Piano
24.0,0.9782608695652174,65,95,Piano
25.5,0.6521739130434783,60,100,Piano
25.5,0.6521739130434783,65,100,Piano
26.5,0.9782608695652174,59,100,Piano
26.5,0.9782608695652174,62,100,Piano
26.5,0.9782608695652174,67,100,Piano
28.0,2.608695652173913,48,85,Piano
28.0,2.608695652173913,67,85,Piano
28.0,2.608695652173913,72,85,Piano
32.0,0.9782608695652174,77,112,Piano
32.0,0.9782608695652174,86,112,Piano
33.5,0.9782608695652174,76,108,Piano
33.5,0.9782608695652174,84,108,Piano
35.0,0.6521739130434783,74,102,Piano
35.0,0.6521739130434783,83,102,Piano
36.0,2.608695652173913,41,92,Piano
36.0,2.608695652173913,72,92,Piano
40.0,1.3043478260869565,72,100,Piano
40.0,1.3043478260869565,77,100,Piano
40.0,1.3043478260869565,81,100,Piano
42.0,1.3043478260869565,59,102,Piano
42.0,1.3043478260869565,71,102,Piano
42.0,1.3043478260869565,74,102,Piano
42.0,1.3043478260869565,79,102,Piano
44.0,2.608695652173913,36,85,Piano
44.0,2.608695652173913,59,85,Piano
44.0,2.608695652173913,67,85,Piano
48.0,2.608695652173913,40,86,Piano
48.0,2.608695652173913,59,86,Piano
48.0,2.608695652173913,62,86,Piano
48.0,2.608695652173913,67,86,Piano
52.0,2.608695652173913,38,92,Piano
52.0,2.608695652173913,69,92,Piano
56.0,2.608695652173913,41,92,Piano
56.0,2.608695652173913,72,92,Piano
60.0,2.608695652173913,40,92,Piano
60.0,2.608695652173913,71,92,Piano
64.0,2.608695652173913,45,92,Piano
64.0,2.608695652173913,72,92,Piano
68.0,2.608695652173913,38,92,Piano
68.0,2.608695652173913,69,92,Piano
72.0,1.3043478260869565,65,90,Piano
72.0,1.3043478260869565,69,90,Piano
72.0,1.3043478260869565,72,90,Piano
74.0,1.3043478260869565,59,92,Piano
74.0,1.3043478260869565,62,92,Piano
74.0,1.3043478260869565,67,92,Piano
74.0,1.3043478260869565,71,92,Piano
76.0,2.608695652173913,36,85,Piano
76.0,2.608695652173913,59,85,Piano
76.0,2.608695652173913,67,85,Piano
80.0,2.608695652173913,40,86,Piano
80.0,2.608695652173913,59,86,Piano
80.0,2.608695652173913,62,86,Piano
80.0,2.608695652173913,67,86,Piano
84.0,2.608695652173913,38,92,Piano
84.0,2.608695652173913,69,92,Piano
88.0,2.608695652173913,41,92,Piano
88.0,2.608695652173913,72,92,Piano
92.0,2.608695652173913,40,92,Piano
92.0,2.608695652173913,71,92,Piano
96.0,2.608695652173913,45,92,Piano
96.0,2.608695652173913,72,92,Piano
100.0,2.608695652173913,38,92,Piano
100.0,2.608695652173913,69,92,Piano
104.0,1.3043478260869565,65,90,Piano
104.0,1.3043478260869565,69,90,Piano
104.0,1.3043478260869565,72,90,Piano
106.0,1.3043478260869565,59,100,Piano
106.0,1.3043478260869565,83,100,Piano
106.66666666666667,0.8695652173913043,57,107,Piano
106.66666666666667,0.8695652173913043,71,107,Piano
106.66666666666667,0.8695652173913043,79,107,Piano
107.33333333333333,0.43478260869565216,55,108,Piano
107.33333333333333,0.43478260869565216,67,108,Piano
107.33333333333333,0.43478260869565216,74,108,Piano
108.0,0.6521739130434783,62,90,Piano
108.0,0.6521739130434783,67,90,Piano
108.0,0.6521739130434783,71,90,Piano
109.0,0.6521739130434783,62,95,Piano
109.0,0.6521739130434783,67,95,Piano
109.0,0.6521739130434783,71,95,Piano
110.0,0.6521739130434783,62,90,Piano
110.0,0.6521739130434783,67,90,Piano
110.0,0.6521739130434783,71,90,Piano
111.0,0.6521739130434783,62,95,Piano
111.0,0.6521739130434783,67,95,Piano
111.0,0.6521739130434783,71,95,Piano
112.0,0.6521739130434783,61,90,Piano
112.0,0.6521739130434783,64,90,Piano
112.0,0.6521739130434783,69,90,Piano
113.0,0.6521739130434783,61,95,Piano
113.0,0.6521739130434783,64,95,Piano
113.0,0.6521739130434783,69,95,Piano
114.0,0.6521739130434783,61,90,Piano
114.0,0.6521739130434783,64,90,Piano
114.0,0.6521739130434783,69,90,Piano
115.0,0.6521739130434783,61,95,Piano
115.0,0.6521739130434783,64,95,Piano
115.0,0.6521739130434783,69,95,Piano
116.0,0.6521739130434783,64,90,Piano
116.0,0.6521739130434783,69,90,Piano
116.0,0.6521739130434783,72,90,Piano
117.0,0.6521739130434783,64,95,Piano
117.0,0.6521739130434783,69,95,Piano
117.0,0.6521739130434783,72,95,Piano
118.0,0.6521739130434783,62,90,Piano
118.0,0.6521739130434783,67,90,Piano
118.0,0.6521739130434783,71,90,Piano
119.0,0.6521739130434783,62,95,Piano
119.0,0.6521739130434783,67,95,Piano
119.0,0.6521739130434783,71,95,Piano
120.0,0.6521739130434783,60,90,Piano
120.0,0.6521739130434783,65,90,Piano
120.0,0.6521739130434783,69,90,Piano
121.0,0.6521739130434783,60,95,Piano
121.0,0.6521739130434783,65,95,Piano
121.0,0.6521739130434783,69,95,Piano
122.0,0.6521739130434783,60,90,Piano
122.0,0.6521739130434783,65,90,Piano
122.0,0.6521739130434783,69,90,Piano
123.0,0.6521739130434783,60,95,Piano
123.0,0.6521739130434783,65,95,Piano
123.0,0.6521739130434783,69,95,Piano
124.0,0.6521739130434783,62,90,Piano
124.0,0.6521739130434783,67,90,Piano
124.0,0.6521739130434783,71,90,Piano
125.0,0.6521739130434783,62,95,Piano
125.0,0.6521739130434783,67,95,Piano
125.0,0.6521739130434783,71,95,Piano
126.0,0.6521739130434783,62,90,Piano
126.0,0.6521739130434783,67,90,Piano
126.0,0.6521739130434783,71,90,Piano
127.0,0.6521739130434783,62,95,Piano
127.0,0.6521739130434783,67,95,Piano
127.0,0.6521739130434783,71,95,Piano
128.0,0.6521739130434783,67,90,Piano
128.0,0.6521739130434783,71,90,Piano
128.0,0.6521739130434783,74,90,Piano
129.0,0.6521739130434783,67,95,Piano
129.0,0.6521739130434783,71,95,Piano
129.0,0.6521739130434783,74,95,Piano
130.0,0.6521739130434783,64,95,Piano
130.0,0.6521739130434783,69,95,Piano
130.0,0.6521739130434783,73,95,Piano
131.0,0.6521739130434783,64,100,Piano
131.0,0.6521739130434783,69,100,Piano
131.0,0.6521739130434783,73,100,Piano
132.0,1.9565217391304348,38,92,Piano
132.0,1.9565217391304348,65,92,Piano
132.0,0.9782608695652174,50,97,Piano
132.0,0.9782608695652174,72,97,Piano
133.5,1.6304347826086958,62,107,Piano
133.5,1.6304347826086958,81,107,Piano
133.5,0.6521739130434783,72,105,Piano
133.5,0.6521739130434783,77,105,Piano
134.5,0.32608695652173914,69,100,Piano
134.5,0.32608695652173914,72,100,Piano
135.0,0.6521739130434783,38,96,Piano
135.0,0.6521739130434783,50,96,Piano
135.0,0.6521739130434783,72,96,Piano
135.0,0.32608695652173914,65,95,Piano
135.0,0.32608695652173914,69,95,Piano
135.5,0.32608695652173914,60,95,Piano
135.5,0.32608695652173914,65,95,Piano
135.5,0.32608695652173914,69,95,Piano
136.0,0.9782608695652174,52,97,Piano
136.0,0.9782608695652174,74,97,Piano
137.5,1.6304347826086958,64,107,Piano
137.5,1.6304347826086958,83,107,Piano
137.5,0.6521739130434783,74,105,Piano
137.5,0.6521739130434783,79,105,Piano
138.5,0.9782608695652174,74,110,Piano
138.5,0.9782608695652174,79,110,Piano
139.0,0.6521739130434783,40,90,Piano
139.0,0.6521739130434783,52,90,Piano
139.5,0.32608695652173914,62,95,Piano
139.5,0.32608695652173914,67,95,Piano
139.5,0.32608695652173914,71,95,Piano
140.0,1.9565217391304348,41,92,Piano
140.0,1.9565217391304348,69,92,Piano
140.0,0.9782608695652174,53,97,Piano
140.0,0.9782608695652174,77,97,Piano
141.5,0.6521739130434783,77,105,Piano
141.5,0.6521739130434783,81,105,Piano
142.5,0.32608695652173914,72,100,Piano
142.5,0.32608695652173914,77,100,Piano
143.0,0.6521739130434783,41,96,Piano
143.0,0.6521739130434783,53,96,Piano
143.0,0.6521739130434783,77,96,Piano
143.0,0.32608695652173914,69,95,Piano
143.0,0.32608695652173914,72,95,Piano
143.5,0.32608695652173914,65,95,Piano
143.5,0.32608695652173914,69,95,Piano
143.5,0.32608695652173914,72,95,Piano
144.0,1.9565217391304348,43,92,Piano
144.0,1.9565217391304348,72,92,Piano
144.0,0.9782608695652174,74,105,Piano
144.0,0.9782608695652174,79,105,Piano
145.5,0.9782608695652174,74,105,Piano
145.5,0.9782608695652174,79,105,Piano
147.0,0.6521739130434783,43,99,Piano
147.0,0.6521739130434783,72,99,Piano
147.0,0.6521739130434783,74,99,Piano
147.0,0.6521739130434783,79,99,Piano
148.0,1.3043478260869565,55,87,Piano
148.0,1.3043478260869565,67,87,Piano
148.0,0.6521739130434783,71,105,Piano
148.0,0.6521739130434783,74,105,Piano
149.0,0.6521739130434783,71,100,Piano
149.0,0.6521739130434783,74,100,Piano
149.0,0.6521739130434783,79,100,Piano
150.0,1.3043478260869565,67,90,Piano
150.0,1.3043478260869565,74,90,Piano
150.0,0.6521739130434783,79,110,Piano
150.0,0.6521739130434783,83,110,Piano
151.0,0.6521739130434783,79,110,Piano
151.0,0.6521739130434783,83,110,Piano
151.0,0.6521739130434783,86,110,Piano
151.5,0.32608695652173914,43,100,Piano
151.5,0.32608695652173914,55,100,Piano
152.0,0.6521739130434783,67,95,Piano
152.0,0.6521739130434783,72,95,Piano
152.0,0.6521739130434783,75,95,Piano
153.0,0.9782608695652174,67,100,Piano
153.0,0.9782608695652174,72,100,Piano
153.0,0.9782608695652174,75,100,Piano
154.5,0.6521739130434783,67,95,Piano
154.5,0.6521739130434783,72,95,Piano
154.5,0.6521739130434783,75,95,Piano
155.5,0.6521739130434783,67,100,Piano
155.5,0.6521739130434783,72,100,Piano
155.5,0.6521739130434783,75,100,Piano
156.5,0.32608695652173914,67,90,Piano
156.5,0.32608695652173914,72,90,Piano
156.5,0.32608695652173914,75,90,Piano
157.0,0.6521739130434783,67,95,Piano
157.0,0.6521739130434783,72,95,Piano
157.0,0.6521739130434783,75,95,Piano
158.0,0.6521739130434783,67,100,Piano
158.0,0.6521739130434783,72,100,Piano
158.0,0.6521739130434783,75,100,Piano
159.0,0.6521739130434783,67,90,Piano
159.0,0.6521739130434783,72,90,Piano
159.0,0.6521739130434783,75,90,Piano
160.0,0.6521739130434783,65,95,Piano
160.0,0.6521739130434783,70,95,Piano
160.0,0.6521739130434783,74,95,Piano
161.0,0.9782608695652174,65,100,Piano
161.0,0.9782608695652174,70,100,Piano
161.0,0.9782608695652174,74,100,Piano
162.5,0.6521739130434783,65,95,Piano
162.5,0.6521739130434783,70,95,Piano
162.5,0.6521739130434783,74,95,Piano
163.5,0.6521739130434783,64,100,Piano
163.5,0.6521739130434783,70,100,Piano
163.5,0.6521739130434783,74,100,Piano
164.5,0.32608695652173914,64,90,Piano
164.5,0.32608695652173914,70,90,Piano
164.5,0.32608695652173914,74,90,Piano
165.0,0.6521739130434783,64,95,Piano
165.0,0.6521739130434783,70,95,Piano
165.0,0.6521739130434783,74,95,Piano
166.0,0.6521739130434783,64,100,Piano
166.0,0.6521739130434783,70,100,Piano
166.0,0.6521739130434783,74,100,Piano
167.0,0.6521739130434783,64,90,Piano
167.0,0.6521739130434783,70,90,Piano
167.0,0.6521739130434783,74,90,Piano
168.0,0.6521739130434783,63,95,Piano
168.0,0.6521739130434783,68,95,Piano
168.0,0.6521739130434783,72,95,Piano
169.0,0.9782608695652174,63,100,Piano
169.0,0.9782608695652174,68,100,Piano
169.0,0.9782608695652174,72,100,Piano
170.5,0.6521739130434783,63,95,Piano
170.5,0.6521739130434783,68,95,Piano
170.5,0.6521739130434783,72,95,Piano
171.5,0.6521739130434783,63,100,Piano
171.5,0.6521739130434783,68,100,Piano
171.5,0.6521739130434783,72,100,Piano
172.5,0.32608695652173914,63,90,Piano
172.5,0.32608695652173914,68,90,Piano
172.5,0.32608695652173914,72,90,Piano
173.0,0.6521739130434783,63,95,Piano
173.0,0.6521739130434783,68,95,Piano
173.0,0.6521739130434783,72,95,Piano
174.0,0.6521739130434783,63,100,Piano
174.0,0.6521739130434783,68,100,Piano
174.0,0.6521739130434783,72,100,Piano
175.0,0.6521739130434783,63,90,Piano
175.0,0.6521739130434783,68,90,Piano
175.0,0.6521739130434783,72,90,Piano
176.0,0.6521739130434783,62,95,Piano
176.0,0.6521739130434783,67,95,Piano
176.0,0.6521739130434783,72,95,Piano
177.0,0.9782608695652174,62,100,Piano
177.0,0.9782608695652174,67,100,Piano
177.0,0.9782608695652174,72,100,Piano
178.5,0.6521739130434783,62,95,Piano
178.5,0.6521739130434783,67,95,Piano
178.5,0.6521739130434783,72,95,Piano
179.5,0.6521739130434783,62,100,Piano
179.5,0.6521739130434783,67,100,Piano
179.5,0.6521739130434783,71,100,Piano
180.5,0.32608695652173914,62,90,Piano
180.5,0.32608695652173914,67,90,Piano
180.5,0.32608695652173914,71,90,Piano
181.0,0.6521739130434783,62,95,Piano
181.0,0.6521739130434783,67,95,Piano
181.0,0.6521739130434783,71,95,Piano
182.0,1.3043478260869565,43,98,Piano
182.0,1.3043478260869565,67,98,Piano
182.0,1.3043478260869565,71,98,Piano
184.0,2.608695652173913,48,85,Piano
184.0,2.608695652173913,67,85,Piano
184.0,2.608695652173913,72,85,Piano
188.0,0.9782608695652174,77,112,Piano
188.0,0.9782608695652174,86,112,Piano
189.5,0.9782608695652174,76,108,Piano
189.5,0.9782608695652174,84,108,Piano
191.0,0.6521739130434783,74,102,Piano
191.0,0.6521739130434783,83,102,Piano
192.0,2.608695652173913,41,92,Piano
192.0,2.608695652173913,72,92,Piano
196.0,1.3043478260869565,72,100,Piano
196.0,1.3043478260869565,77,100,Piano
196.0,1.3043478260869565,81,100,Piano
198.0,1.3043478260869565,59,102,Piano
198.0,1.3043478260869565,71,102,Piano
198.0,1.3043478260869565,74,102,Piano
198.0,1.3043478260869565,79,102,Piano
200.0,2.608695652173913,36,78,Piano
200.0,2.608695652173913,59,78,Piano
204.0,2.608695652173913,40,86,Piano
204.0,2.608695652173913,59,86,Piano
204.0,2.608695652173913,62,86,Piano
204.0,2.608695652173913,67,86,Piano
205.0,1.9565217391304348,52,83,Piano
205.0,1.9565217391304348,77,83,Piano
205.0,1.9565217391304348,86,83,Piano
205.5,1.6304347826086958,76,82,Piano
205.5,1.6304347826086958,84,82,Piano
206.5,0.9782608695652174,71,72,Piano
206.5,0.9782608695652174,79,72,Piano
208.0,2.608695652173913,38,92,Piano
208.0,2.608695652173913,69,92,Piano
212.0,2.608695652173913,41,92,Piano
212.0,2.608695652173913,72,92,Piano
213.5,1.6304347826086958,56,82,Piano
213.5,1.6304347826086958,77,82,Piano
213.5,1.6304347826086958,86,82,Piano
214.5,0.9782608695652174,68,82,Piano
214.5,0.9782608695652174,79,82,Piano
214.5,0.9782608695652174,88,82,Piano
215.0,0.6521739130434783,53,83,Piano
215.0,0.6521739130434783,80,83,Piano
215.0,0.6521739130434783,89,83,Piano
216.0,2.608695652173913,40,87,Piano
216.0,2.608695652173913,79,87,Piano
216.0,2.608695652173913,88,87,Piano
217.5,1.6304347826086958,55,85,Piano
217.5,1.6304347826086958,71,85,Piano
220.0,2.608695652173913,45,92,Piano
220.0,2.608695652173913,72,92,Piano
221.5,1.6304347826086958,60,82,Piano
221.5,1.6304347826086958,76,82,Piano
221.5,1.6304347826086958,84,82,Piano
222.5,0.9782608695652174,67,82,Piano
222.5,0.9782608695652174,77,82,Piano
222.5,0.9782608695652174,86,82,Piano
223.0,0.6521739130434783,57,83,Piano
223.0,0.6521739130434783,79,83,Piano
223.0,0.6521739130434783,88,83,Piano
224.0,2.608695652173913,38,87,Piano
224.0,2.608695652173913,77,87,Piano
224.0,2.608695652173913,86,87,Piano
228.0,1.3043478260869565,65,85,Piano
228.0,1.3043478260869565,69,85,Piano
228.66666666666666,0.8695652173913043,55,100,Piano
228.66666666666666,0.8695652173913043,71,100,Piano
228.66666666666666,0.8695652173913043,79,100,Piano
229.33333333333334,0.43478260869565216,60,95,Piano
229.33333333333334,0.43478260869565216,72,95,Piano
229.33333333333334,0.43478260869565216,81,95,Piano
230.0,1.3043478260869565,59,97,Piano
230.0,1.3043478260869565,62,97,Piano
230.0,1.3043478260869565,67,97,Piano
230.0,1.3043478260869565,74,97,Piano
230.0,1.3043478260869565,83,97,Piano
230.66666666666666,0.8695652173913043,57,100,Piano
230.66666666666666,0.8695652173913043,76,100,Piano
230.66666666666666,0.8695652173913043,84,100,Piano
231.33333333333334,0.43478260869565216,55,95,Piano
231.33333333333334,0.43478260869565216,77,95,Piano
231.33333333333334,0.43478260869565216,86,95,Piano
232.0,0.8152173913043479,67,97,Piano
232.0,0.8152173913043479,72,97,Piano
232.0,0.8152173913043479,76,97,Piano
233.5,1.6304347826086958,66,97,Piano
233.5,1.6304347826086958,72,97,Piano
233.5,1.6304347826086958,76,97,Piano
236.0,0.8152173913043479,65,97,Piano
236.0,0.8152173913043479,70,97,Piano
236.0,0.8152173913043479,74,97,Piano
237.5,1.6304347826086958,70,97,Piano
237.5,1.6304347826086958,74,97,Piano
237.5,1.6304347826086958,77,97,Piano
240.0,2.608695652173913,41,92,Piano
240.0,2.608695652173913,72,92,Piano
240.0,2.608695652173913,76,92,Piano
244.0,2.608695652173913,41,92,Piano
244.0,2.608695652173913,72,92,Piano
245.5,1.6304347826086958,56,82,Piano
245.5,1.6304347826086958,77,82,Piano
245.5,1.6304347826086958,86,82,Piano
246.5,0.9782608695652174,68,82,Piano
246.5,0.9782608695652174,79,82,Piano
246.5,0.9782608695652174,88,82,Piano
247.0,0.6521739130434783,53,83,Piano
247.0,0.6521739130434783,80,83,Piano
247.0,0.6521739130434783,89,83,Piano
248.0,2.608695652173913,40,87,Piano
248.0,2.608695652173913,79,87,Piano
248.0,2.608695652173913,88,87,Piano
249.5,1.6304347826086958,55,85,Piano
249.5,1.6304347826086958,71,85,Piano
252.0,2.608695652173913,45,92,Piano
252.0,2.608695652173913,72,92,Piano
253.5,1.6304347826086958,60,82,Piano
253.5,1.6304347826086958,76,82,Piano
253.5,1.6304347826086958,84,82,Piano
254.5,0.9782608695652174,67,82,Piano
254.5,0.9782608695652174,77,82,Piano
254.5,0.9782608695652174,86,82,Piano
255.0,0.6521739130434783,57,83,Piano
255.0,0.6521739130434783,79,83,Piano
255.0,0.6521739130434783,88,83,Piano
256.0,2.608695652173913,38,90,Piano
256.0,2.608695652173913,89,90,Piano
258.5,0.9782608695652174,60,77,Piano
258.5,0.9782608695652174,77,77,Piano
258.5,0.9782608695652174,84,77,Piano
259.0,0.6521739130434783,65,90,Piano
259.0,0.6521739130434783,72,90,Piano
259.0,0.6521739130434783,81,90,Piano
261.0,0.6521739130434783,65,90,Piano
261.0,0.6521739130434783,69,90,Piano
261.0,0.6521739130434783,72,90,Piano
262.0,1.3043478260869565,59,100,Piano
262.0,1.3043478260869565,83,100,Piano
262.6666666666667,0.8695652173913043,57,107,Piano
262.6666666666667,0.8695652173913043,71,107,Piano
262.6666666666667,0.8695652173913043,79,107,Piano
263.3333333333333,0.43478260869565216,55,108,Piano
263.3333333333333,0.43478260869565216,67,108,Piano
263.3333333333333,0.43478260869565216,74,108,Piano
264.0,0.6521739130434783,62,90,Piano
264.0,0.6521739130434783,67,90,Piano
264.0,0.6521739130434783,71,90,Piano
265.0,0.6521739130434783,62,95,Piano
265.0,0.6521739130434783,67,95,Piano
265.0,0.6521739130434783,71,95,Piano
266.0,0.6521739130434783,62,90,Piano
266.0,0.6521739130434783,67,90,Piano
266.0,0.6521739130434783,71,90,Piano
267.0,0.6521739130434783,67,95,Piano
267.0,0.6521739130434783,71,95,Piano
267.0,0.6521739130434783,74,95,Piano
268.0,0.6521739130434783,64,90,Piano
268.0,0.6521739130434783,67,90,Piano
268.0,0.6521739130434783,72,90,Piano
269.0,0.6521739130434783,64,95,Piano
269.0,0.6521739130434783,67,95,Piano
269.0,0.6521739130434783,72,95,Piano
270.0,0.6521739130434783,64,90,Piano
270.0,0.6521739130434783,69,90,Piano
270.0,0.6521739130434783,73,90,Piano
271.0,0.6521739130434783,64,95,Piano
271.0,0.6521739130434783,69,95,Piano
271.0,0.6521739130434783,73,95,Piano
272.0,0.6521739130434783,64,90,Piano
272.0,0.6521739130434783,69,90,Piano
272.0,0.6521739130434783,72,90,Piano
273.0,0.6521739130434783,64,95,Piano
273.0,0.6521739130434783,69,95,Piano
273.0,0.6521739130434783,72,95,Piano
274.0,0.6521739130434783,62,90,Piano
274.0,0.6521739130434783,67,90,Piano
274.0,0.6521739130434783,71,90,Piano
275.0,0.6521739130434783,62,95,Piano
275.0,0.6521739130434783,67,95,Piano
275.0,0.6521739130434783,71,95,Piano
276.0,0.6521739130434783,60,90,Piano
276.0,0.6521739130434783,65,90,Piano
276.0,0.6521739130434783,69,90,Piano
277.0,0.6521739130434783,60,95,Piano
277.0,0.6521739130434783,65,95,Piano
277.0,0.6521739130434783,69,95,Piano
278.0,0.6521739130434783,60,90,Piano
278.0,0.6521739130434783,65,90,Piano
278.0,0.6521739130434783,69,90,Piano
279.0,0.6521739130434783,62,95,Piano
279.0,0.6521739130434783,67,95,Piano
279.0,0.6521739130434783,71,95,Piano
280.0,0.6521739130434783,62,90,Piano
280.0,0.6521739130434783,67,90,Piano
280.0,0.6521739130434783,71,90,Piano
281.0,0.6521739130434783,62,95,Piano
281.0,0.6521739130434783,67,95,Piano
281.0,0.6521739130434783,71,95,Piano
282.0,0.6521739130434783,62,90,Piano
282.0,0.6521739130434783,67,90,Piano
282.0,0.6521739130434783,71,90,Piano
283.0,0.6521739130434783,62,95,Piano
283.0,0.6521739130434783,67,95,Piano
283.0,0.6521739130434783,71,95,Piano
284.0,0.6521739130434783,67,90,Piano
284.0,0.6521739130434783,71,90,Piano
284.0,0.6521739130434783,74,90,Piano
285.0,0.6521739130434783,67,95,Piano
285.0,0.6521739130434783,71,95,Piano
285.0,0.6521739130434783,74,95,Piano
286.0,0.6521739130434783,64,95,Piano
286.0,0.6521739130434783,69,95,Piano
286.0,0.6521739130434783,73,95,Piano
287.0,0.6521739130434783,64,100,Piano
287.0,0.6521739130434783,69,100,Piano
287.0,0.6521739130434783,73,100,Piano
288.0,1.9565217391304348,38,92,Piano
288.0,1.9565217391304348,65,92,Piano
288.0,0.9782608695652174,50,97,Piano
288.0,0.9782608695652174,72,97,Piano
289.5,1.6304347826086958,62,107,Piano
289.5,1.6304347826086958,81,107,Piano
289.5,0.6521739130434783,72,105,Piano
289.5,0.6521739130434783,77,105,Piano
290.5,0.32608695652173914,69,100,Piano
290.5,0.32608695652173914,72,100,Piano
291.0,0.6521739130434783,38,96,Piano
291.0,0.6521739130434783,50,96,Piano
291.0,0.6521739130434783,72,96,Piano
291.0,0.32608695652173914,65,95,Piano
291.0,0.32608695652173914,69,95,Piano
291.5,0.32608695652173914,60,95,Piano
291.5,0.32608695652173914,65,95,Piano
291.5,0.32608695652173914,69,95,Piano
292.0,0.9782608695652174,52,97,Piano
292.0,0.9782608695652174,74,97,Piano
293.5,1.6304347826086958,64,107,Piano
293.5,1.6304347826086958,83,107,Piano
293.5,0.6521739130434783,74,105,Piano
293.5,0.6521739130434783,79,105,Piano
294.5,0.9782608695652174,74,110,Piano
294.5,0.9782608695652174,79,110,Piano
295.0,0.6521739130434783,40,90,Piano
295.0,0.6521739130434783,52,90,Piano
295.5,0.32608695652173914,62,95,Piano
295.5,0.32608695652173914,67,95,Piano
295.5,0.32608695652173914,71,95,Piano
296.0,1.9565217391304348,41,92,Piano
296.0,1.9565217391304348,69,92,Piano
296.0,0.9782608695652174,53,97,Piano
296.0,0.9782608695652174,77,97,Piano
297.5,0.6521739130434783,77,105,Piano
297.5,0.6521739130434783,81,105,Piano
298.5,0.32608695652173914,72,100,Piano
298.5,0.32608695652173914,77,100,Piano
299.0,0.6521739130434783,41,96,Piano
299.0,0.6521739130434783,53,96,Piano
299.0,0.6521739130434783,77,96,Piano
299.0,0.32608695652173914,69,95,Piano
299.0,0.32608695652173914,72,95,Piano
299.5,0.32608695652173914,65,95,Piano
299.5,0.32608695652173914,69,95,Piano
299.5,0.32608695652173914,72,95,Piano
300.0,1.9565217391304348,43,92,Piano
300.0,1.9565217391304348,72,92,Piano
300.0,0.9782608695652174,74,105,Piano
300.0,0.9782608695652174,79,105,Piano
301.5,0.9782608695652174,74,105,Piano
301.5,0.9782608695652174,79,105,Piano
303.0,0.6521739130434783,43,99,Piano
303.0,0.6521739130434783,72,99,Piano
303.0,0.6521739130434783,74,99,Piano
303.0,0.6521739130434783,79,99,Piano
304.0,1.3043478260869565,55,87,Piano
304.0,1.3043478260869565,67,87,Piano
304.0,0.6521739130434783,71,105,Piano
304.0,0.6521739130434783,74,105,Piano
305.0,0.6521739130434783,71,100,Piano
305.0,0.6521739130434783,74,100,Piano
305.0,0.6521739130434783,79,100,Piano
306.0,1.3043478260869565,67,90,Piano
306.0,1.3043478260869565,74,90,Piano
306.0,0.6521739130434783,79,110,Piano
306.0,0.6521739130434783,83,110,Piano
307.0,0.6521739130434783,79,110,Piano
307.0,0.6521739130434783,83,110,Piano
307.0,0.6521739130434783,86,110,Piano
307.5,0.32608695652173914,43,100,Piano
307.5,0.32608695652173914,55,100,Piano
308.0,0.6521739130434783,67,95,Piano
308.0,0.6521739130434783,72,95,Piano
308.0,0.6521739130434783,75,95,Piano
309.0,0.9782608695652174,67,100,Piano
309.0,0.9782608695652174,72,100,Piano
309.0,0.9782608695652174,75,100,Piano
310.5,0.6521739130434783,67,90,Piano
310.5,0.6521739130434783,72,90,Piano
310.5,0.6521739130434783,75,90,Piano
311.5,0.6521739130434783,67,100,Piano
311.5,0.6521739130434783,72,100,Piano
311.5,0.6521739130434783,75,100,Piano
314.5,0.9782608695652174,72,102,Piano
314.5,0.9782608695652174,79,102,Piano
315.0,0.6521739130434783,67,92,Piano
315.0,0.6521739130434783,75,92,Piano
316.0,0.6521739130434783,65,95,Piano
316.0,0.6521739130434783,70,95,Piano
316.0,0.6521739130434783,74,95,Piano
317.0,0.9782608695652174,65,100,Piano
317.0,0.9782608695652174,70,100,Piano
317.0,0.9782608695652174,74,100,Piano
318.5,0.6521739130434783,65,90,Piano
318.5,0.6521739130434783,70,90,Piano
318.5,0.6521739130434783,74,90,Piano
319.5,0.6521739130434783,64,100,Piano
319.5,0.6521739130434783,70,100,Piano
319.5,0.6521739130434783,74,100,Piano
320.5,0.32608695652173914,64,90,Piano
320.5,0.32608695652173914,70,90,Piano
320.5,0.32608695652173914,74,90,Piano
321.0,0.6521739130434783,64,100,Piano
321.0,0.6521739130434783,70,100,Piano
321.0,0.6521739130434783,74,100,Piano
322.0,0.6521739130434783,70,95,Piano
322.0,0.6521739130434783,74,95,Piano
322.0,0.6521739130434783,78,95,Piano
323.0,0.6521739130434783,74,100,Piano
323.0,0.6521739130434783,78,100,Piano
323.0,0.6521739130434783,82,100,Piano
324.0,0.6521739130434783,72,95,Piano
324.0,0.6521739130434783,75,95,Piano
324.0,0.6521739130434783,80,95,Piano
325.0,0.32608695652173914,68,100,Piano
325.0,0.32608695652173914,72,100,Piano
325.0,0.32608695652173914,75,100,Piano
325.5,0.6521739130434783,63,100,Piano
325.5,0.6521739130434783,68,100,Piano
325.5,0.6521739130434783,72,100,Piano
326.5,0.6521739130434783,63,90,Piano
326.5,0.6521739130434783,68,90,Piano
326.5,0.6521739130434783,72,90,Piano
327.5,0.6521739130434783,63,100,Piano
327.5,0.6521739130434783,68,100,Piano
327.5,0.6521739130434783,72,100,Piano
328.5,0.32608695652173914,63,90,Piano
328.5,0.32608695652173914,68,90,Piano
328.5,0.32608695652173914,72,90,Piano
329.0,0.6521739130434783,63,100,Piano
329.0,0.6521739130434783,68,100,Piano
329.0,0.6521739130434783,72,100,Piano
330.0,0.6521739130434783,46,92,Piano
330.0,0.6521739130434783,63,92,Piano
330.0,0.6521739130434783,68,92,Piano
330.0,0.6521739130434783,72,92,Piano
331.0,0.6521739130434783,44,96,Piano
331.0,0.6521739130434783,64,96,Piano
331.0,0.6521739130434783,69,96,Piano
331.0,0.6521739130434783,73,96,Piano
332.0,0.6521739130434783,65,95,Piano
332.0,0.6521739130434783,70,95,Piano
332.0,0.6521739130434783,74,95,Piano
333.0,0.9782608695652174,65,100,Piano
333.0,0.9782608695652174,70,100,Piano
333.0,0.9782608695652174,74,100,Piano
334.5,0.6521739130434783,65,90,Piano
334.5,0.6521739130434783,70,90,Piano
334.5,0.6521739130434783,74,90,Piano
335.5,0.6521739130434783,65,100,Piano
335.5,0.6521739130434783,70,100,Piano
335.5,0.6521739130434783,74,100,Piano
336.5,0.32608695652173914,65,90,Piano
336.5,0.32608695652173914,70,90,Piano
336.5,0.32608695652173914,74,90,Piano
337.0,0.6521739130434783,65,100,Piano
337.0,0.6521739130434783,70,100,Piano
337.0,0.6521739130434783,74,100,Piano
338.0,0.6521739130434783,48,99,Piano
338.0,0.6521739130434783,67,99,Piano
338.0,0.6521739130434783,72,99,Piano
338.0,0.6521739130434783,76,99,Piano
339.0,0.6521739130434783,46,99,Piano
339.0,0.6521739130434783,67,99,Piano
339.0,0.6521739130434783,72,99,Piano
339.0,0.6521739130434783,76,99,Piano
340.0,0.6521739130434783,67,95,Piano
340.0,0.6521739130434783,72,95,Piano
340.0,0.6521739130434783,75,95,Piano
341.0,0.9782608695652174,67,100,Piano
341.0,0.9782608695652174,72,100,Piano
341.0,0.9782608695652174,75,100,Piano
342.5,0.6521739130434783,67,90,Piano
342.5,0.6521739130434783,72,90,Piano
342.5,0.6521739130434783,75,90,Piano
343.5,0.6521739130434783,67,100,Piano
343.5,0.6521739130434783,72,100,Piano
343.5,0.6521739130434783,75,100,Piano
344.5,0.32608695652173914,67,90,Piano
344.5,0.32608695652173914,72,90,Piano
344.5,0.32608695652173914,75,90,Piano
345.0,0.6521739130434783,67,95,Piano
345.0,0.6521739130434783,72,95,Piano
345.0,0.6521739130434783,75,95,Piano
346.0,0.6521739130434783,67,100,Piano
346.0,0.6521739130434783,72,100,Piano
346.0,0.6521739130434783,75,100,Piano
347.0,0.6521739130434783,67,90,Piano
347.0,0.6521739130434783,72,90,Piano
347.0,0.6521739130434783,75,90,Piano
348.0,0.6521739130434783,65,95,Piano
348.0,0.6521739130434783,70,95,Piano
348.0,0.6521739130434783,74,95,Piano
349.0,0.9782608695652174,65,100,Piano
349.0,0.9782608695652174,70,100,Piano
349.0,0.9782608695652174,74,100,Piano
350.5,0.6521739130434783,70,90,Piano
350.5,0.6521739130434783,74,90,Piano
350.5,0.6521739130434783,77,90,Piano
351.5,0.6521739130434783,70,100,Piano
351.5,0.6521739130434783,73,100,Piano
351.5,0.6521739130434783,76,100,Piano
352.5,0.32608695652173914,70,90,Piano
352.5,0.32608695652173914,73,90,Piano
352.5,0.32608695652173914,76,90,Piano
353.0,0.6521739130434783,70,100,Piano
353.0,0.6521739130434783,73,100,Piano
353.0,0.6521739130434783,76,100,Piano
354.0,0.6521739130434783,64,95,Piano
354.0,0.6521739130434783,70,95,Piano
354.0,0.6521739130434783,73,95,Piano
355.0,0.6521739130434783,61,100,Piano
355.0,0.6521739130434783,64,100,Piano
355.0,0.6521739130434783,70,100,Piano
356.0,0.6521739130434783,63,95,Piano
356.0,0.6521739130434783,68,95,Piano
356.0,0.6521739130434783,72,95,Piano
357.0,0.6521739130434783,63,100,Piano
357.0,0.6521739130434783,68,100,Piano
357.0,0.6521739130434783,72,100,Piano
358.0,0.32608695652173914,41,102,Piano
358.0,0.32608695652173914,72,102,Piano
358.0,0.9782608695652174,63,95,Piano
358.0,0.9782608695652174,68,95,Piano
358.5,0.32608695652173914,43,102,Piano
358.5,0.32608695652173914,74,102,Piano
359.0,0.32608695652173914,44,102,Piano
359.0,0.32608695652173914,75,102,Piano
359.5,0.6521739130434783,63,100,Piano
359.5,0.6521739130434783,68,100,Piano
359.5,0.6521739130434783,72,100,Piano
360.5,0.32608695652173914,63,90,Piano
360.5,0.32608695652173914,68,90,Piano
360.5,0.32608695652173914,72,90,Piano
361.0,0.6521739130434783,63,100,Piano
361.0,0.6521739130434783,68,100,Piano
361.0,0.6521739130434783,72,100,Piano
362.0,0.6521739130434783,68,95,Piano
362.0,0.6521739130434783,72,95,Piano
362.0,0.6521739130434783,75,95,Piano
363.0,0.6521739130434783,68,100,Piano
363.0,0.6521739130434783,72,100,Piano
363.0,0.6521739130434783,75,100,Piano
364.0,0.6521739130434783,62,100,Piano
364.0,0.6521739130434783,67,100,Piano
364.0,0.6521739130434783,72,100,Piano
365.0,0.9782608695652174,62,100,Piano
365.0,0.9782608695652174,67,100,Piano
365.0,0.9782608695652174,72,100,Piano
366.5,0.6521739130434783,62,100,Piano
366.5,0.6521739130434783,67,100,Piano
366.5,0.6521739130434783,72,100,Piano
367.5,2.9347826086956523,43,102,Piano
367.5,2.9347826086956523,71,102,Piano
372.0,2.608695652173913,48,82,Piano
372.0,2.608695652173913,67,82,Piano
376.0,0.9782608695652174,76,112,Piano
376.0,0.9782608695652174,84,112,Piano
377.5,0.9782608695652174,74,108,Piano
377.5,0.9782608695652174,83,108,Piano
379.0,0.6521739130434783,71,102,Piano
379.0,0.6521739130434783,79,102,Piano
380.0,2.608695652173913,41,100,Piano
380.0,2.608695652173913,72,100,Piano
380.0,2.608695652173913,81,100,Piano
384.0,0.9782608695652174,60,95,Piano
384.0,0.9782608695652174,65,95,Piano
385.5,0.6521739130434783,60,100,Piano
385.5,0.6521739130434783,65,100,Piano
386.5,0.9782608695652174,59,100,Piano
386.5,0.9782608695652174,62,100,Piano
386.5,0.9782608695652174,67,100,Piano
388.0,2.608695652173913,48,85,Piano
388.0,2.608695652173913,67,85,Piano
388.0,2.608695652173913,72,85,Piano
392.0,0.9782608695652174,77,112,Piano
392.0,0.9782608695652174,86,112,Piano
393.5,0.9782608695652174,76,108,Piano
393.5,0.9782608695652174,84,108,Piano
395.0,0.6521739130434783,74,102,Piano
395.0,0.6521739130434783,83,102,Piano
396.0,2.608695652173913,41,92,Piano
396.0,2.608695652173913,72,92,Piano
400.0,1.3043478260869565,72,100,Piano
400.0,1.3043478260869565,77,100,Piano
400.0,1.3043478260869565,81,100,Piano
402.0,1.9565217391304348,59,102,Piano
402.0,1.9565217391304348,74,102,Piano
402.0,1.9565217391304348,79,102,Piano
402.0,1.9565217391304348,83,102,Piano
405.0,9.782608695652174,33,78,Piano
405.0,9.782608695652174,45,78,Piano
