Start,Duration,Pitch,Velocity,Instrument
7.0,0.0,36,92,StringInstrument
7.0,0.0,42,92,StringInstrument
7.75,0.0,36,92,StringInstrument
7.75,0.0,42,92,StringInstrument
9.0,1.6129032258064515,39,105,StringInstrument
9.0,1.6129032258064515,46,105,StringInstrument
9.0,0.0,36,92,StringInstrument
9.0,0.0,49,92,StringInstrument
11.0,0.0,44,87,StringInstrument
11.0,0.0,40,87,StringInstrument
11.0,0.0,40,87,StringInstrument
11.5,0.2150537634408602,39,105,StringInstrument
11.5,0.2150537634408602,46,105,StringInstrument
11.5,0.0,36,99,StringInstrument
11.5,0.0,46,99,StringInstrument
12.25,0.2150537634408602,39,105,StringInstrument
12.25,0.2150537634408602,46,105,StringInstrument
12.25,0.0,36,92,StringInstrument
12.25,0.0,46,92,StringInstrument
14.0,1.6129032258064515,38,105,StringInstrument
14.0,1.6129032258064515,45,105,StringInstrument
14.0,0.0,36,92,StringInstrument
14.0,0.0,57,92,StringInstrument
16.0,0.0,44,87,StringInstrument
16.0,0.0,40,87,StringInstrument
16.0,0.0,40,87,StringInstrument
16.5,0.2150537634408602,38,105,StringInstrument
16.5,0.2150537634408602,45,105,StringInstrument
16.5,0.0,36,99,StringInstrument
16.5,0.0,46,99,StringInstrument
17.25,0.2150537634408602,38,105,StringInstrument
17.25,0.2150537634408602,45,105,StringInstrument
17.25,0.0,36,92,StringInstrument
17.25,0.0,46,92,StringInstrument
19.0,1.6129032258064515,39,105,StringInstrument
19.0,1.6129032258064515,46,105,StringInstrument
19.0,0.0,36,92,StringInstrument
19.0,0.0,49,92,StringInstrument
21.0,0.0,44,87,StringInstrument
21.0,0.0,40,87,StringInstrument
21.0,0.0,40,87,StringInstrument
21.5,0.2150537634408602,39,105,StringInstrument
21.5,0.2150537634408602,46,105,StringInstrument
21.5,0.0,36,99,StringInstrument
21.5,0.0,46,99,StringInstrument
22.25,0.2150537634408602,39,105,StringInstrument
22.25,0.2150537634408602,46,105,StringInstrument
22.25,0.0,36,92,StringInstrument
22.25,0.0,46,92,StringInstrument
24.0,1.6129032258064515,38,105,StringInstrument
24.0,1.6129032258064515,45,105,StringInstrument
24.0,0.0,36,92,StringInstrument
24.0,0.0,57,92,StringInstrument
24.5,0.0,36,85,StringInstrument
24.5,0.0,44,85,StringInstrument
25.5,0.0,44,85,StringInstrument
25.5,0.0,36,85,StringInstrument
26.0,0.0,44,92,StringInstrument
26.0,0.0,40,92,StringInstrument
26.5,0.2150537634408602,38,105,StringInstrument
26.5,0.2150537634408602,45,105,StringInstrument
26.5,0.0,36,99,StringInstrument
26.5,0.0,46,99,StringInstrument
27.25,0.2150537634408602,38,105,StringInstrument
27.25,0.2150537634408602,45,105,StringInstrument
27.25,0.0,36,92,StringInstrument
27.25,0.0,46,92,StringInstrument
27.75,0.0,52,92,StringInstrument
27.75,0.0,36,92,StringInstrument
28.25,0.0,52,92,StringInstrument
28.25,0.0,36,92,StringInstrument
29.0,3.225806451612903,51,95,StringInstrument
29.0,3.225806451612903,63,95,StringInstrument
29.0,3.225806451612903,67,95,StringInstrument
29.0,3.225806451612903,70,95,StringInstrument
29.0,0.0,36,92,StringInstrument
29.0,0.0,57,92,StringInstrument
30.5,0.0,36,85,StringInstrument
30.5,0.0,42,85,StringInstrument
31.0,0.0,40,99,StringInstrument
31.0,0.0,42,99,StringInstrument
31.5,0.0,36,92,StringInstrument
31.5,0.0,42,92,StringInstrument
33.0,0.0,42,99,StringInstrument
33.0,0.0,40,99,StringInstrument
33.5,0.0,40,99,StringInstrument
33.5,0.0,46,99,StringInstrument
34.0,3.225806451612903,55,95,StringInstrument
34.0,3.225806451612903,67,95,StringInstrument
34.0,3.225806451612903,70,95,StringInstrument
34.0,3.225806451612903,74,95,StringInstrument
34.0,0.0,36,69,StringInstrument
34.0,0.0,49,69,StringInstrument
34.0,0.0,44,69,StringInstrument
35.5,0.0,36,85,StringInstrument
35.5,0.0,42,85,StringInstrument
36.0,0.0,40,99,StringInstrument
36.0,0.0,42,99,StringInstrument
36.5,0.0,36,92,StringInstrument
36.5,0.0,42,92,StringInstrument
38.0,0.0,42,99,StringInstrument
38.0,0.0,40,99,StringInstrument
38.5,0.0,40,99,StringInstrument
38.5,0.0,46,99,StringInstrument
39.0,3.225806451612903,51,95,StringInstrument
39.0,3.225806451612903,63,95,StringInstrument
39.0,3.225806451612903,67,95,StringInstrument
39.0,3.225806451612903,70,95,StringInstrument
39.0,0.0,36,69,StringInstrument
39.0,0.0,57,69,StringInstrument
39.0,0.0,44,69,StringInstrument
40.5,0.0,36,85,StringInstrument
40.5,0.0,42,85,StringInstrument
41.0,0.0,40,99,StringInstrument
41.0,0.0,42,99,StringInstrument
41.5,0.0,36,92,StringInstrument
41.5,0.0,42,92,StringInstrument
43.0,0.0,42,99,StringInstrument
43.0,0.0,40,99,StringInstrument
43.5,0.0,40,99,StringInstrument
43.5,0.0,46,99,StringInstrument
44.0,1.6129032258064515,55,95,StringInstrument
44.0,1.6129032258064515,67,95,StringInstrument
44.0,1.6129032258064515,70,95,StringInstrument
44.0,1.6129032258064515,74,95,StringInstrument
44.0,0.0,36,69,StringInstrument
44.0,0.0,49,69,StringInstrument
44.0,0.0,44,69,StringInstrument
45.5,0.0,36,85,StringInstrument
45.5,0.0,42,85,StringInstrument
46.0,0.0,40,92,StringInstrument
46.0,0.0,42,92,StringInstrument
46.0,0.0,40,92,StringInstrument
46.5,0.3225806451612903,55,95,StringInstrument
46.5,0.3225806451612903,67,95,StringInstrument
46.5,0.3225806451612903,70,95,StringInstrument
46.5,0.3225806451612903,74,95,StringInstrument
46.5,0.0,36,92,StringInstrument
46.5,0.0,57,92,StringInstrument
47.25,2.7419354838709675,50,98,StringInstrument
47.25,2.7419354838709675,62,98,StringInstrument
47.25,2.7419354838709675,66,98,StringInstrument
47.25,2.7419354838709675,69,98,StringInstrument
47.25,0.0,49,92,StringInstrument
47.25,0.0,36,92,StringInstrument
50.0,0.0,50,71,StringInstrument
50.0,0.0,50,71,StringInstrument
50.5,0.0,47,57,StringInstrument
50.5,0.0,47,57,StringInstrument
51.0,0.0,43,43,StringInstrument
51.0,0.0,43,43,StringInstrument
51.5,0.4301075268817204,60,97,StringInstrument
51.5,0.4301075268817204,63,97,StringInstrument
51.5,0.4301075268817204,67,97,StringInstrument
52.25,0.4301075268817204,60,115,StringInstrument
52.25,0.4301075268817204,63,115,StringInstrument
52.25,0.4301075268817204,48,115,StringInstrument
52.25,0.4301075268817204,67,115,StringInstrument
53.0,0.16129032258064516,62,82,StringInstrument
53.0,0.16129032258064516,65,82,StringInstrument
53.0,0.16129032258064516,69,82,StringInstrument
53.5,0.16129032258064516,62,107,StringInstrument
53.5,0.16129032258064516,69,107,StringInstrument
53.5,0.16129032258064516,65,107,StringInstrument
54.0,0.16129032258064516,62,97,StringInstrument
54.0,0.16129032258064516,65,97,StringInstrument
54.0,0.16129032258064516,69,97,StringInstrument
54.5,0.4301075268817204,60,97,StringInstrument
54.5,0.4301075268817204,63,97,StringInstrument
54.5,0.4301075268817204,67,97,StringInstrument
55.25,0.4301075268817204,60,115,StringInstrument
55.25,0.4301075268817204,63,115,StringInstrument
55.25,0.4301075268817204,48,115,StringInstrument
55.25,0.4301075268817204,67,115,StringInstrument
56.0,0.16129032258064516,62,82,StringInstrument
56.0,0.16129032258064516,65,82,StringInstrument
56.0,0.16129032258064516,69,82,StringInstrument
56.5,0.16129032258064516,62,95,StringInstrument
56.5,0.16129032258064516,65,95,StringInstrument
56.5,0.16129032258064516,50,95,StringInstrument
56.5,0.16129032258064516,70,95,StringInstrument
57.5,0.4301075268817204,60,97,StringInstrument
57.5,0.4301075268817204,63,97,StringInstrument
57.5,0.4301075268817204,67,97,StringInstrument
58.25,0.4301075268817204,60,115,StringInstrument
58.25,0.4301075268817204,63,115,StringInstrument
58.25,0.4301075268817204,48,115,StringInstrument
58.25,0.4301075268817204,67,115,StringInstrument
59.0,0.16129032258064516,62,82,StringInstrument
59.0,0.16129032258064516,65,82,StringInstrument
59.0,0.16129032258064516,69,82,StringInstrument
59.5,0.16129032258064516,62,107,StringInstrument
59.5,0.16129032258064516,69,107,StringInstrument
59.5,0.16129032258064516,65,107,StringInstrument
60.0,0.16129032258064516,62,97,StringInstrument
60.0,0.16129032258064516,65,97,StringInstrument
60.0,0.16129032258064516,69,97,StringInstrument
60.5,0.4301075268817204,62,97,StringInstrument
60.5,0.4301075268817204,65,97,StringInstrument
60.5,0.4301075268817204,69,97,StringInstrument
61.25,0.4301075268817204,58,115,StringInstrument
61.25,0.4301075268817204,62,115,StringInstrument
61.25,0.4301075268817204,55,115,StringInstrument
61.25,0.4301075268817204,67,115,StringInstrument
63.5,0.4301075268817204,60,97,StringInstrument
63.5,0.4301075268817204,63,97,StringInstrument
63.5,0.4301075268817204,67,97,StringInstrument
64.25,0.4301075268817204,60,115,StringInstrument
64.25,0.4301075268817204,63,115,StringInstrument
64.25,0.4301075268817204,48,115,StringInstrument
64.25,0.4301075268817204,67,115,StringInstrument
65.0,0.16129032258064516,62,82,StringInstrument
65.0,0.16129032258064516,65,82,StringInstrument
65.0,0.16129032258064516,69,82,StringInstrument
65.5,0.16129032258064516,62,107,StringInstrument
65.5,0.16129032258064516,69,107,StringInstrument
65.5,0.16129032258064516,65,107,StringInstrument
66.0,0.16129032258064516,62,97,StringInstrument
66.0,0.16129032258064516,65,97,StringInstrument
66.0,0.16129032258064516,69,97,StringInstrument
66.5,0.4301075268817204,60,97,StringInstrument
66.5,0.4301075268817204,63,97,StringInstrument
66.5,0.4301075268817204,67,97,StringInstrument
67.25,0.4301075268817204,60,115,StringInstrument
67.25,0.4301075268817204,63,115,StringInstrument
67.25,0.4301075268817204,48,115,StringInstrument
67.25,0.4301075268817204,67,115,StringInstrument
68.0,0.16129032258064516,62,82,StringInstrument
68.0,0.16129032258064516,65,82,StringInstrument
68.0,0.16129032258064516,69,82,StringInstrument
68.5,0.16129032258064516,62,92,StringInstrument
68.5,0.16129032258064516,65,92,StringInstrument
68.5,0.16129032258064516,50,92,StringInstrument
68.5,0.16129032258064516,70,92,StringInstrument
69.5,0.4301075268817204,60,97,StringInstrument
69.5,0.4301075268817204,63,97,StringInstrument
69.5,0.4301075268817204,67,97,StringInstrument
70.25,0.4301075268817204,60,115,StringInstrument
70.25,0.4301075268817204,63,115,StringInstrument
70.25,0.4301075268817204,48,115,StringInstrument
70.25,0.4301075268817204,67,115,StringInstrument
71.0,0.16129032258064516,62,82,StringInstrument
71.0,0.16129032258064516,65,82,StringInstrument
71.0,0.16129032258064516,69,82,StringInstrument
71.5,0.16129032258064516,62,107,StringInstrument
71.5,0.16129032258064516,69,107,StringInstrument
71.5,0.16129032258064516,65,107,StringInstrument
72.0,0.16129032258064516,62,97,StringInstrument
72.0,0.16129032258064516,65,97,StringInstrument
72.0,0.16129032258064516,69,97,StringInstrument
72.5,0.4301075268817204,62,97,StringInstrument
72.5,0.4301075268817204,65,97,StringInstrument
72.5,0.4301075268817204,69,97,StringInstrument
73.25,0.4301075268817204,62,115,StringInstrument
73.25,0.4301075268817204,65,115,StringInstrument
73.25,0.4301075268817204,55,115,StringInstrument
73.25,0.4301075268817204,69,115,StringInstrument
74.0,0.4301075268817204,62,95,StringInstrument
74.0,0.4301075268817204,65,95,StringInstrument
75.5,0.4301075268817204,60,103,StringInstrument
75.5,0.4301075268817204,63,103,StringInstrument
75.5,0.4301075268817204,67,103,StringInstrument
76.25,0.4301075268817204,60,108,StringInstrument
76.25,0.4301075268817204,63,108,StringInstrument
76.25,0.4301075268817204,48,108,StringInstrument
76.25,0.4301075268817204,67,108,StringInstrument
77.0,0.16129032258064516,62,92,StringInstrument
77.0,0.16129032258064516,65,92,StringInstrument
77.0,0.16129032258064516,69,92,StringInstrument
77.5,0.2150537634408602,62,105,StringInstrument
77.5,0.2150537634408602,69,105,StringInstrument
77.5,0.2150537634408602,50,105,StringInstrument
77.5,0.2150537634408602,65,105,StringInstrument
78.0,0.2150537634408602,62,97,StringInstrument
78.0,0.2150537634408602,65,97,StringInstrument
78.0,0.2150537634408602,69,97,StringInstrument
78.5,0.4301075268817204,58,103,StringInstrument
78.5,0.4301075268817204,62,103,StringInstrument
78.5,0.4301075268817204,65,103,StringInstrument
79.25,0.4301075268817204,58,108,StringInstrument
79.25,0.4301075268817204,62,108,StringInstrument
79.25,0.4301075268817204,46,108,StringInstrument
79.25,0.4301075268817204,65,108,StringInstrument
81.5,0.4301075268817204,60,107,StringInstrument
81.5,0.4301075268817204,63,107,StringInstrument
81.5,0.4301075268817204,67,107,StringInstrument
82.25,0.4301075268817204,60,108,StringInstrument
82.25,0.4301075268817204,63,108,StringInstrument
82.25,0.4301075268817204,48,108,StringInstrument
82.25,0.4301075268817204,67,108,StringInstrument
83.0,0.2150537634408602,62,94,StringInstrument
83.0,0.2150537634408602,65,94,StringInstrument
83.0,0.2150537634408602,50,94,StringInstrument
83.0,0.2150537634408602,69,94,StringInstrument
83.5,0.16129032258064516,62,107,StringInstrument
83.5,0.16129032258064516,69,107,StringInstrument
83.5,0.16129032258064516,65,107,StringInstrument
84.0,0.16129032258064516,62,97,StringInstrument
84.0,0.16129032258064516,69,97,StringInstrument
84.0,0.16129032258064516,65,97,StringInstrument
84.5,0.4301075268817204,55,98,StringInstrument
84.5,0.4301075268817204,58,98,StringInstrument
84.5,0.4301075268817204,43,98,StringInstrument
84.5,0.4301075268817204,62,98,StringInstrument
85.25,0.4301075268817204,55,102,StringInstrument
85.25,0.4301075268817204,58,102,StringInstrument
85.25,0.4301075268817204,38,102,StringInstrument
85.25,0.4301075268817204,62,102,StringInstrument
86.0,0.4301075268817204,67,104,StringInstrument
86.0,0.4301075268817204,70,104,StringInstrument
86.0,0.4301075268817204,62,104,StringInstrument
86.75,0.4301075268817204,67,111,StringInstrument
86.75,0.4301075268817204,70,111,StringInstrument
86.75,0.4301075268817204,74,111,StringInstrument
87.5,0.4301075268817204,60,107,StringInstrument
87.5,0.4301075268817204,63,107,StringInstrument
87.5,0.4301075268817204,67,107,StringInstrument
88.25,0.4301075268817204,60,108,StringInstrument
88.25,0.4301075268817204,63,108,StringInstrument
88.25,0.4301075268817204,48,108,StringInstrument
88.25,0.4301075268817204,67,108,StringInstrument
89.0,0.2150537634408602,62,96,StringInstrument
89.0,0.2150537634408602,65,96,StringInstrument
89.0,0.2150537634408602,50,96,StringInstrument
89.0,0.2150537634408602,69,96,StringInstrument
89.5,0.16129032258064516,62,107,StringInstrument
89.5,0.16129032258064516,69,107,StringInstrument
89.5,0.16129032258064516,65,107,StringInstrument
90.0,0.16129032258064516,62,97,StringInstrument
90.0,0.16129032258064516,69,97,StringInstrument
90.0,0.16129032258064516,65,97,StringInstrument
90.5,0.4301075268817204,58,97,StringInstrument
90.5,0.4301075268817204,62,97,StringInstrument
90.5,0.4301075268817204,65,97,StringInstrument
91.25,0.4301075268817204,58,115,StringInstrument
91.25,0.4301075268817204,62,115,StringInstrument
91.25,0.4301075268817204,46,115,StringInstrument
91.25,0.4301075268817204,65,115,StringInstrument
93.5,0.4301075268817204,60,97,StringInstrument
93.5,0.4301075268817204,63,97,StringInstrument
93.5,0.4301075268817204,67,97,StringInstrument
94.25,0.4301075268817204,60,115,StringInstrument
94.25,0.4301075268817204,63,115,StringInstrument
94.25,0.4301075268817204,48,115,StringInstrument
94.25,0.4301075268817204,67,115,StringInstrument
95.0,0.16129032258064516,62,85,StringInstrument
95.0,0.16129032258064516,65,85,StringInstrument
95.0,0.16129032258064516,69,85,StringInstrument
95.5,0.16129032258064516,62,107,StringInstrument
95.5,0.16129032258064516,69,107,StringInstrument
95.5,0.16129032258064516,65,107,StringInstrument
96.0,0.16129032258064516,62,97,StringInstrument
96.0,0.16129032258064516,69,97,StringInstrument
96.0,0.16129032258064516,65,97,StringInstrument
96.5,0.3225806451612903,60,100,StringInstrument
96.5,0.3225806451612903,63,100,StringInstrument
96.5,0.3225806451612903,36,100,StringInstrument
96.5,0.3225806451612903,67,100,StringInstrument
98.0,0.3225806451612903,60,108,StringInstrument
98.0,0.3225806451612903,65,108,StringInstrument
98.0,0.3225806451612903,38,108,StringInstrument
98.0,0.3225806451612903,69,108,StringInstrument
98.5,0.16129032258064516,60,106,StringInstrument
98.5,0.16129032258064516,65,106,StringInstrument
98.5,0.16129032258064516,45,106,StringInstrument
98.5,0.16129032258064516,70,106,StringInstrument
98.5,0.16129032258064516,60,100,StringInstrument
98.5,0.16129032258064516,63,100,StringInstrument
98.5,0.16129032258064516,69,100,StringInstrument
98.5,0.0,46,85,StringInstrument
98.5,0.0,36,85,StringInstrument
99.5,0.4301075268817204,60,98,StringInstrument
99.5,0.4301075268817204,63,98,StringInstrument
99.5,0.4301075268817204,48,98,StringInstrument
99.5,0.4301075268817204,67,98,StringInstrument
99.5,0.0,36,78,StringInstrument
99.5,0.0,49,78,StringInstrument
100.25,0.4301075268817204,60,115,StringInstrument
100.25,0.4301075268817204,63,115,StringInstrument
100.25,0.4301075268817204,48,115,StringInstrument
100.25,0.4301075268817204,67,115,StringInstrument
101.0,0.16129032258064516,62,82,StringInstrument
101.0,0.16129032258064516,65,82,StringInstrument
101.0,0.16129032258064516,69,82,StringInstrument
101.5,0.16129032258064516,62,107,StringInstrument
101.5,0.16129032258064516,69,107,StringInstrument
101.5,0.16129032258064516,65,107,StringInstrument
102.0,0.16129032258064516,62,97,StringInstrument
102.0,0.16129032258064516,65,97,StringInstrument
102.0,0.16129032258064516,69,97,StringInstrument
102.5,0.4301075268817204,60,98,StringInstrument
102.5,0.4301075268817204,63,98,StringInstrument
102.5,0.4301075268817204,48,98,StringInstrument
102.5,0.4301075268817204,67,98,StringInstrument
102.5,0.0,36,92,StringInstrument
102.5,0.0,42,92,StringInstrument
103.25,0.4301075268817204,60,115,StringInstrument
103.25,0.4301075268817204,63,115,StringInstrument
103.25,0.4301075268817204,48,115,StringInstrument
103.25,0.4301075268817204,67,115,StringInstrument
104.0,0.16129032258064516,62,82,StringInstrument
104.0,0.16129032258064516,65,82,StringInstrument
104.0,0.16129032258064516,69,82,StringInstrument
104.5,0.16129032258064516,62,95,StringInstrument
104.5,0.16129032258064516,65,95,StringInstrument
104.5,0.16129032258064516,50,95,StringInstrument
104.5,0.16129032258064516,70,95,StringInstrument
104.5,0.0,46,85,StringInstrument
104.5,0.0,36,85,StringInstrument
105.5,0.4301075268817204,60,98,StringInstrument
105.5,0.4301075268817204,63,98,StringInstrument
105.5,0.4301075268817204,48,98,StringInstrument
105.5,0.4301075268817204,67,98,StringInstrument
105.5,0.0,36,78,StringInstrument
105.5,0.0,57,78,StringInstrument
106.25,0.4301075268817204,60,115,StringInstrument
106.25,0.4301075268817204,63,115,StringInstrument
106.25,0.4301075268817204,48,115,StringInstrument
106.25,0.4301075268817204,67,115,StringInstrument
107.0,0.16129032258064516,62,82,StringInstrument
107.0,0.16129032258064516,65,82,StringInstrument
107.0,0.16129032258064516,69,82,StringInstrument
107.5,0.16129032258064516,62,107,StringInstrument
107.5,0.16129032258064516,69,107,StringInstrument
107.5,0.16129032258064516,65,107,StringInstrument
108.0,0.16129032258064516,62,97,StringInstrument
108.0,0.16129032258064516,65,97,StringInstrument
108.0,0.16129032258064516,69,97,StringInstrument
108.5,0.4301075268817204,62,97,StringInstrument
108.5,0.4301075268817204,65,97,StringInstrument
108.5,0.4301075268817204,69,97,StringInstrument
108.5,0.4301075268817204,77,105,StringInstrument
108.5,0.4301075268817204,65,105,StringInstrument
108.5,0.0,36,92,StringInstrument
108.5,0.0,42,92,StringInstrument
109.25,0.4301075268817204,58,115,StringInstrument
109.25,0.4301075268817204,62,115,StringInstrument
109.25,0.4301075268817204,50,115,StringInstrument
109.25,0.4301075268817204,67,115,StringInstrument
109.25,0.16129032258064516,75,95,StringInstrument
109.25,0.16129032258064516,63,95,StringInstrument
109.75,0.2150537634408602,74,95,StringInstrument
109.75,0.2150537634408602,62,95,StringInstrument
110.5,0.6451612903225806,74,105,StringInstrument
110.5,0.6451612903225806,62,105,StringInstrument
111.0,0.0,43,92,StringInstrument
111.0,0.0,47,92,StringInstrument
111.5,0.4301075268817204,60,98,StringInstrument
111.5,0.4301075268817204,63,98,StringInstrument
111.5,0.4301075268817204,48,98,StringInstrument
111.5,0.4301075268817204,67,98,StringInstrument
111.5,0.0,36,78,StringInstrument
111.5,0.0,49,78,StringInstrument
112.25,0.4301075268817204,60,115,StringInstrument
112.25,0.4301075268817204,63,115,StringInstrument
112.25,0.4301075268817204,48,115,StringInstrument
112.25,0.4301075268817204,67,115,StringInstrument
113.0,0.16129032258064516,62,82,StringInstrument
113.0,0.16129032258064516,65,82,StringInstrument
113.0,0.16129032258064516,69,82,StringInstrument
113.5,0.16129032258064516,62,107,StringInstrument
113.5,0.16129032258064516,69,107,StringInstrument
113.5,0.16129032258064516,65,107,StringInstrument
114.0,0.16129032258064516,62,97,StringInstrument
114.0,0.16129032258064516,65,97,StringInstrument
114.0,0.16129032258064516,69,97,StringInstrument
114.5,0.4301075268817204,60,98,StringInstrument
114.5,0.4301075268817204,63,98,StringInstrument
114.5,0.4301075268817204,48,98,StringInstrument
114.5,0.4301075268817204,67,98,StringInstrument
114.5,0.0,36,92,StringInstrument
114.5,0.0,42,92,StringInstrument
115.25,0.4301075268817204,60,115,StringInstrument
115.25,0.4301075268817204,63,115,StringInstrument
115.25,0.4301075268817204,48,115,StringInstrument
115.25,0.4301075268817204,67,115,StringInstrument
116.0,0.16129032258064516,62,82,StringInstrument
116.0,0.16129032258064516,65,82,StringInstrument
116.0,0.16129032258064516,69,82,StringInstrument
116.5,0.16129032258064516,62,95,StringInstrument
116.5,0.16129032258064516,65,95,StringInstrument
116.5,0.16129032258064516,50,95,StringInstrument
116.5,0.16129032258064516,70,95,StringInstrument
116.5,0.0,46,85,StringInstrument
116.5,0.0,36,85,StringInstrument
117.5,0.4301075268817204,60,98,StringInstrument
117.5,0.4301075268817204,63,98,StringInstrument
117.5,0.4301075268817204,48,98,StringInstrument
117.5,0.4301075268817204,67,98,StringInstrument
117.5,0.0,36,78,StringInstrument
117.5,0.0,57,78,StringInstrument
118.25,0.4301075268817204,60,115,StringInstrument
118.25,0.4301075268817204,63,115,StringInstrument
118.25,0.4301075268817204,48,115,StringInstrument
118.25,0.4301075268817204,67,115,StringInstrument
119.0,0.16129032258064516,62,82,StringInstrument
119.0,0.16129032258064516,65,82,StringInstrument
119.0,0.16129032258064516,69,82,StringInstrument
119.0,0.16129032258064516,77,105,StringInstrument
119.0,0.16129032258064516,65,105,StringInstrument
119.5,0.16129032258064516,62,107,StringInstrument
119.5,0.16129032258064516,69,107,StringInstrument
119.5,0.16129032258064516,65,107,StringInstrument
119.5,0.16129032258064516,75,95,StringInstrument
119.5,0.16129032258064516,63,95,StringInstrument
120.0,0.16129032258064516,62,97,StringInstrument
120.0,0.16129032258064516,65,97,StringInstrument
120.0,0.16129032258064516,69,97,StringInstrument
120.0,0.2150537634408602,74,95,StringInstrument
120.0,0.2150537634408602,62,95,StringInstrument
120.5,0.4301075268817204,62,98,StringInstrument
120.5,0.4301075268817204,65,98,StringInstrument
120.5,0.4301075268817204,43,98,StringInstrument
120.5,0.4301075268817204,69,98,StringInstrument
120.5,0.2150537634408602,74,95,StringInstrument
120.5,0.2150537634408602,62,95,StringInstrument
120.5,0.0,36,92,StringInstrument
120.5,0.0,42,92,StringInstrument
121.25,0.4301075268817204,62,115,StringInstrument
121.25,0.4301075268817204,65,115,StringInstrument
121.25,0.4301075268817204,50,115,StringInstrument
121.25,0.4301075268817204,69,115,StringInstrument
121.25,0.967741935483871,74,105,StringInstrument
121.25,0.967741935483871,62,105,StringInstrument
122.0,0.4301075268817204,62,95,StringInstrument
122.0,0.4301075268817204,65,95,StringInstrument
122.0,0.0,40,99,StringInstrument
122.0,0.0,42,99,StringInstrument
122.5,0.0,36,85,StringInstrument
122.5,0.0,42,85,StringInstrument
123.0,0.0,36,92,StringInstrument
123.0,0.0,42,92,StringInstrument
123.5,0.4301075268817204,60,103,StringInstrument
123.5,0.4301075268817204,63,103,StringInstrument
123.5,0.4301075268817204,67,103,StringInstrument
123.5,0.0,36,78,StringInstrument
123.5,0.0,49,78,StringInstrument
124.25,0.4301075268817204,60,107,StringInstrument
124.25,0.4301075268817204,63,107,StringInstrument
124.25,0.4301075268817204,67,107,StringInstrument
125.0,0.16129032258064516,62,92,StringInstrument
125.0,0.16129032258064516,65,92,StringInstrument
125.0,0.16129032258064516,69,92,StringInstrument
125.5,0.2150537634408602,62,107,StringInstrument
125.5,0.2150537634408602,69,107,StringInstrument
125.5,0.2150537634408602,65,107,StringInstrument
126.0,0.2150537634408602,62,97,StringInstrument
126.0,0.2150537634408602,65,97,StringInstrument
126.0,0.2150537634408602,69,97,StringInstrument
126.5,0.4301075268817204,58,103,StringInstrument
126.5,0.4301075268817204,62,103,StringInstrument
126.5,0.4301075268817204,65,103,StringInstrument
126.5,0.0,36,78,StringInstrument
126.5,0.0,57,78,StringInstrument
127.25,0.4301075268817204,58,107,StringInstrument
127.25,0.4301075268817204,62,107,StringInstrument
127.25,0.4301075268817204,65,107,StringInstrument
129.5,0.4301075268817204,60,107,StringInstrument
129.5,0.4301075268817204,63,107,StringInstrument
129.5,0.4301075268817204,67,107,StringInstrument
129.5,0.0,36,78,StringInstrument
129.5,0.0,49,78,StringInstrument
130.25,0.4301075268817204,60,107,StringInstrument
130.25,0.4301075268817204,63,107,StringInstrument
130.25,0.4301075268817204,67,107,StringInstrument
131.0,0.2150537634408602,62,92,StringInstrument
131.0,0.2150537634408602,65,92,StringInstrument
131.0,0.2150537634408602,69,92,StringInstrument
131.5,0.16129032258064516,62,107,StringInstrument
131.5,0.16129032258064516,69,107,StringInstrument
131.5,0.16129032258064516,65,107,StringInstrument
132.0,0.16129032258064516,62,97,StringInstrument
132.0,0.16129032258064516,69,97,StringInstrument
132.0,0.16129032258064516,65,97,StringInstrument
132.5,0.4301075268817204,55,97,StringInstrument
132.5,0.4301075268817204,58,97,StringInstrument
132.5,0.4301075268817204,62,97,StringInstrument
132.5,0.0,36,78,StringInstrument
132.5,0.0,57,78,StringInstrument
133.25,0.4301075268817204,55,107,StringInstrument
133.25,0.4301075268817204,58,107,StringInstrument
133.25,0.4301075268817204,62,107,StringInstrument
134.0,0.4301075268817204,67,104,StringInstrument
134.0,0.4301075268817204,70,104,StringInstrument
134.0,0.4301075268817204,62,104,StringInstrument
134.75,0.4301075268817204,67,111,StringInstrument
134.75,0.4301075268817204,70,111,StringInstrument
134.75,0.4301075268817204,74,111,StringInstrument
135.5,0.4301075268817204,60,107,StringInstrument
135.5,0.4301075268817204,63,107,StringInstrument
135.5,0.4301075268817204,67,107,StringInstrument
135.5,0.0,36,92,StringInstrument
135.5,0.0,46,92,StringInstrument
136.25,0.4301075268817204,60,107,StringInstrument
136.25,0.4301075268817204,63,107,StringInstrument
136.25,0.4301075268817204,67,107,StringInstrument
137.0,0.2150537634408602,62,92,StringInstrument
137.0,0.2150537634408602,65,92,StringInstrument
137.0,0.2150537634408602,69,92,StringInstrument
137.5,0.16129032258064516,62,107,StringInstrument
137.5,0.16129032258064516,69,107,StringInstrument
137.5,0.16129032258064516,65,107,StringInstrument
138.0,0.16129032258064516,62,97,StringInstrument
138.0,0.16129032258064516,69,97,StringInstrument
138.0,0.16129032258064516,65,97,StringInstrument
138.5,0.4301075268817204,58,97,StringInstrument
138.5,0.4301075268817204,62,97,StringInstrument
138.5,0.4301075268817204,65,97,StringInstrument
138.5,0.0,36,92,StringInstrument
138.5,0.0,42,92,StringInstrument
139.25,0.4301075268817204,58,117,StringInstrument
139.25,0.4301075268817204,62,117,StringInstrument
139.25,0.4301075268817204,65,117,StringInstrument
140.0,0.16129032258064516,65,105,StringInstrument
140.0,0.16129032258064516,46,105,StringInstrument
140.0,0.16129032258064516,60,100,StringInstrument
140.0,0.16129032258064516,72,100,StringInstrument
140.0,0.0,40,99,StringInstrument
140.0,0.0,46,99,StringInstrument
140.5,0.16129032258064516,62,105,StringInstrument
140.5,0.16129032258064516,48,105,StringInstrument
140.5,0.16129032258064516,58,100,StringInstrument
140.5,0.16129032258064516,70,100,StringInstrument
141.0,0.16129032258064516,60,100,StringInstrument
141.0,0.16129032258064516,72,100,StringInstrument
141.5,0.4301075268817204,60,98,StringInstrument
141.5,0.4301075268817204,63,98,StringInstrument
141.5,0.4301075268817204,48,98,StringInstrument
141.5,0.4301075268817204,67,98,StringInstrument
141.5,0.2150537634408602,72,95,StringInstrument
141.5,0.2150537634408602,60,95,StringInstrument
141.5,0.0,36,92,StringInstrument
141.5,0.0,57,92,StringInstrument
142.25,0.4301075268817204,60,115,StringInstrument
142.25,0.4301075268817204,63,115,StringInstrument
142.25,0.4301075268817204,48,115,StringInstrument
142.25,0.4301075268817204,67,115,StringInstrument
142.25,0.16129032258064516,72,105,StringInstrument
142.25,0.16129032258064516,60,105,StringInstrument
142.75,0.16129032258064516,70,95,StringInstrument
142.75,0.16129032258064516,58,95,StringInstrument
143.0,0.16129032258064516,62,85,StringInstrument
143.0,0.16129032258064516,65,85,StringInstrument
143.0,0.16129032258064516,69,85,StringInstrument
143.0,0.16129032258064516,72,105,StringInstrument
143.0,0.16129032258064516,60,105,StringInstrument
143.0,0.0,40,85,StringInstrument
143.0,0.0,42,85,StringInstrument
143.5,0.16129032258064516,62,107,StringInstrument
143.5,0.16129032258064516,69,107,StringInstrument
143.5,0.16129032258064516,65,107,StringInstrument
143.5,0.16129032258064516,70,95,StringInstrument
143.5,0.16129032258064516,58,95,StringInstrument
144.0,0.16129032258064516,62,97,StringInstrument
144.0,0.16129032258064516,69,97,StringInstrument
144.0,0.16129032258064516,65,97,StringInstrument
144.0,0.16129032258064516,69,105,StringInstrument
144.0,0.16129032258064516,57,105,StringInstrument
144.0,0.0,36,71,StringInstrument
144.0,0.0,42,71,StringInstrument
144.5,0.3225806451612903,60,97,StringInstrument
144.5,0.3225806451612903,63,97,StringInstrument
144.5,0.3225806451612903,67,97,StringInstrument
144.5,0.3225806451612903,70,95,StringInstrument
144.5,0.3225806451612903,58,95,StringInstrument
144.5,0.0,36,99,StringInstrument
144.5,0.0,42,99,StringInstrument
145.25,0.3225806451612903,72,95,StringInstrument
145.25,0.3225806451612903,60,95,StringInstrument
146.0,0.3225806451612903,60,108,StringInstrument
146.0,0.3225806451612903,65,108,StringInstrument
146.0,0.3225806451612903,53,108,StringInstrument
146.0,0.3225806451612903,69,108,StringInstrument
146.0,0.3225806451612903,74,95,StringInstrument
146.0,0.3225806451612903,62,95,StringInstrument
146.0,0.0,40,92,StringInstrument
146.0,0.0,46,92,StringInstrument
146.0,0.0,36,92,StringInstrument
146.5,0.16129032258064516,60,106,StringInstrument
146.5,0.16129032258064516,65,106,StringInstrument
146.5,0.16129032258064516,53,106,StringInstrument
146.5,0.16129032258064516,70,106,StringInstrument
146.5,0.16129032258064516,74,95,StringInstrument
146.5,0.16129032258064516,62,95,StringInstrument
146.5,0.0,40,92,StringInstrument
146.5,0.0,46,92,StringInstrument
146.5,0.0,36,92,StringInstrument
147.5,3.225806451612903,51,85,StringInstrument
147.5,3.225806451612903,63,85,StringInstrument
147.5,1.6129032258064515,67,100,StringInstrument
147.5,1.6129032258064515,70,100,StringInstrument
147.5,0.0,36,92,StringInstrument
147.5,0.0,57,92,StringInstrument
149.0,0.0,36,85,StringInstrument
149.0,0.0,42,85,StringInstrument
149.5,0.0,40,99,StringInstrument
149.5,0.0,42,99,StringInstrument
150.0,0.4838709677419355,67,110,StringInstrument
150.0,0.4838709677419355,70,110,StringInstrument
150.0,0.0,36,92,StringInstrument
150.0,0.0,42,92,StringInstrument
150.75,0.4838709677419355,69,110,StringInstrument
150.75,0.4838709677419355,72,110,StringInstrument
151.5,0.3225806451612903,70,110,StringInstrument
151.5,0.3225806451612903,74,110,StringInstrument
151.5,0.0,42,99,StringInstrument
151.5,0.0,40,99,StringInstrument
152.0,0.3225806451612903,72,110,StringInstrument
152.0,0.3225806451612903,75,110,StringInstrument
152.0,0.0,40,99,StringInstrument
152.0,0.0,42,99,StringInstrument
152.5,3.225806451612903,50,85,StringInstrument
152.5,3.225806451612903,62,85,StringInstrument
152.5,1.6129032258064515,67,100,StringInstrument
152.5,1.6129032258064515,70,100,StringInstrument
152.5,0.0,36,92,StringInstrument
152.5,0.0,49,92,StringInstrument
154.0,0.0,36,85,StringInstrument
154.0,0.0,42,85,StringInstrument
154.5,0.0,40,99,StringInstrument
154.5,0.0,42,99,StringInstrument
155.0,0.4838709677419355,67,110,StringInstrument
155.0,0.4838709677419355,70,110,StringInstrument
155.0,0.0,36,92,StringInstrument
155.0,0.0,42,92,StringInstrument
155.75,0.4838709677419355,69,110,StringInstrument
155.75,0.4838709677419355,72,110,StringInstrument
156.5,0.3225806451612903,70,110,StringInstrument
156.5,0.3225806451612903,74,110,StringInstrument
156.5,0.0,42,99,StringInstrument
156.5,0.0,40,99,StringInstrument
157.0,0.3225806451612903,72,110,StringInstrument
157.0,0.3225806451612903,75,110,StringInstrument
157.0,0.0,40,99,StringInstrument
157.0,0.0,42,99,StringInstrument
157.5,3.225806451612903,51,85,StringInstrument
157.5,3.225806451612903,63,85,StringInstrument
157.5,1.6129032258064515,67,100,StringInstrument
157.5,1.6129032258064515,70,100,StringInstrument
157.5,0.0,36,92,StringInstrument
157.5,0.0,57,92,StringInstrument
159.0,0.0,36,85,StringInstrument
159.0,0.0,42,85,StringInstrument
159.5,0.0,40,99,StringInstrument
159.5,0.0,42,99,StringInstrument
160.0,0.4838709677419355,67,110,StringInstrument
160.0,0.4838709677419355,70,110,StringInstrument
160.0,0.0,36,92,StringInstrument
160.0,0.0,42,92,StringInstrument
160.75,0.4838709677419355,69,110,StringInstrument
160.75,0.4838709677419355,72,110,StringInstrument
161.5,0.3225806451612903,70,110,StringInstrument
161.5,0.3225806451612903,74,110,StringInstrument
161.5,0.0,42,99,StringInstrument
161.5,0.0,40,99,StringInstrument
162.0,0.3225806451612903,72,110,StringInstrument
162.0,0.3225806451612903,75,110,StringInstrument
162.0,0.0,40,99,StringInstrument
162.0,0.0,42,99,StringInstrument
162.5,3.225806451612903,50,85,StringInstrument
162.5,3.225806451612903,62,85,StringInstrument
162.5,1.6129032258064515,67,100,StringInstrument
162.5,1.6129032258064515,70,100,StringInstrument
162.5,0.4301075268817204,63,104,StringInstrument
162.5,0.4301075268817204,69,104,StringInstrument
162.5,0.0,36,92,StringInstrument
162.5,0.0,49,92,StringInstrument
163.25,0.4301075268817204,62,107,StringInstrument
163.25,0.4301075268817204,67,107,StringInstrument
164.0,0.3225806451612903,62,110,StringInstrument
164.0,0.3225806451612903,67,110,StringInstrument
164.0,0.0,36,85,StringInstrument
164.0,0.0,42,85,StringInstrument
164.5,0.3225806451612903,60,105,StringInstrument
164.5,0.3225806451612903,65,105,StringInstrument
164.5,0.0,40,99,StringInstrument
164.5,0.0,42,99,StringInstrument
165.0,0.4838709677419355,67,110,StringInstrument
165.0,0.4838709677419355,70,110,StringInstrument
165.0,0.4301075268817204,60,105,StringInstrument
165.0,0.4301075268817204,65,105,StringInstrument
165.0,0.0,36,92,StringInstrument
165.0,0.0,42,92,StringInstrument
165.75,0.4838709677419355,69,110,StringInstrument
165.75,0.4838709677419355,72,110,StringInstrument
165.75,2.7419354838709675,62,110,StringInstrument
165.75,2.7419354838709675,67,110,StringInstrument
166.5,0.3225806451612903,70,110,StringInstrument
166.5,0.3225806451612903,74,110,StringInstrument
166.5,0.0,47,92,StringInstrument
166.5,0.0,50,92,StringInstrument
167.0,0.3225806451612903,72,110,StringInstrument
167.0,0.3225806451612903,75,110,StringInstrument
167.0,0.0,43,92,StringInstrument
167.0,0.0,47,92,StringInstrument
167.5,3.225806451612903,51,92,StringInstrument
167.5,3.225806451612903,63,92,StringInstrument
167.5,3.225806451612903,67,92,StringInstrument
167.5,3.225806451612903,70,92,StringInstrument
167.5,0.0,36,92,StringInstrument
167.5,0.0,57,92,StringInstrument
169.0,0.0,36,85,StringInstrument
169.0,0.0,42,85,StringInstrument
169.5,0.0,40,99,StringInstrument
169.5,0.0,42,99,StringInstrument
170.0,0.0,36,92,StringInstrument
170.0,0.0,42,92,StringInstrument
171.5,0.0,42,99,StringInstrument
171.5,0.0,40,99,StringInstrument
172.0,0.0,40,99,StringInstrument
172.0,0.0,42,99,StringInstrument
172.5,3.225806451612903,50,92,StringInstrument
172.5,3.225806451612903,74,92,StringInstrument
172.5,3.225806451612903,67,92,StringInstrument
172.5,3.225806451612903,70,92,StringInstrument
172.5,0.0,36,92,StringInstrument
172.5,0.0,49,92,StringInstrument
174.0,0.0,36,85,StringInstrument
174.0,0.0,42,85,StringInstrument
174.5,0.0,40,99,StringInstrument
174.5,0.0,42,99,StringInstrument
175.0,0.0,36,92,StringInstrument
175.0,0.0,42,92,StringInstrument
176.5,0.0,42,99,StringInstrument
176.5,0.0,40,99,StringInstrument
177.0,0.0,40,99,StringInstrument
177.0,0.0,42,99,StringInstrument
177.5,3.225806451612903,51,92,StringInstrument
177.5,3.225806451612903,63,92,StringInstrument
177.5,3.225806451612903,67,92,StringInstrument
177.5,3.225806451612903,70,92,StringInstrument
177.5,0.0,36,92,StringInstrument
177.5,0.0,57,92,StringInstrument
179.0,0.0,36,85,StringInstrument
179.0,0.0,42,85,StringInstrument
179.5,0.0,40,99,StringInstrument
179.5,0.0,42,99,StringInstrument
180.0,0.0,36,92,StringInstrument
180.0,0.0,42,92,StringInstrument
181.5,0.0,42,99,StringInstrument
181.5,0.0,40,99,StringInstrument
182.0,0.0,40,99,StringInstrument
182.0,0.0,42,99,StringInstrument
182.5,3.225806451612903,50,92,StringInstrument
182.5,3.225806451612903,74,92,StringInstrument
182.5,3.225806451612903,67,92,StringInstrument
182.5,3.225806451612903,70,92,StringInstrument
182.5,0.0,36,92,StringInstrument
182.5,0.0,49,92,StringInstrument
184.0,0.0,36,85,StringInstrument
184.0,0.0,42,85,StringInstrument
184.5,0.0,40,99,StringInstrument
184.5,0.0,42,99,StringInstrument
185.0,0.0,36,101,StringInstrument
185.0,0.0,50,101,StringInstrument
185.0,0.0,44,101,StringInstrument
185.5,0.0,40,92,StringInstrument
185.5,0.0,44,92,StringInstrument
186.0,0.0,47,85,StringInstrument
186.0,0.0,44,85,StringInstrument
186.5,0.0,50,92,StringInstrument
186.5,0.0,44,92,StringInstrument
187.0,0.0,47,85,StringInstrument
187.0,0.0,44,85,StringInstrument
187.5,0.3225806451612903,63,108,StringInstrument
187.5,0.3225806451612903,67,108,StringInstrument
187.5,0.3225806451612903,74,108,StringInstrument
187.5,0.3225806451612903,51,105,StringInstrument
187.5,0.3225806451612903,58,105,StringInstrument
187.5,0.0,36,92,StringInstrument
187.5,0.0,57,92,StringInstrument
188.0,0.0,51,105,StringInstrument
188.0,0.0,58,105,StringInstrument
188.25,0.3225806451612903,63,108,StringInstrument
188.25,0.3225806451612903,67,108,StringInstrument
188.25,0.3225806451612903,74,108,StringInstrument
188.25,0.4301075268817204,51,105,StringInstrument
188.25,0.4301075268817204,58,105,StringInstrument
189.0,0.4301075268817204,62,108,StringInstrument
189.0,0.4301075268817204,65,108,StringInstrument
189.0,0.4301075268817204,72,108,StringInstrument
189.0,0.4301075268817204,50,105,StringInstrument
189.0,0.4301075268817204,57,105,StringInstrument
189.0,0.0,36,85,StringInstrument
189.0,0.0,42,85,StringInstrument
189.5,0.0,40,99,StringInstrument
189.5,0.0,42,99,StringInstrument
190.0,0.3225806451612903,61,108,StringInstrument
190.0,0.3225806451612903,65,108,StringInstrument
190.0,0.3225806451612903,72,108,StringInstrument
190.0,0.3225806451612903,49,105,StringInstrument
190.0,0.3225806451612903,56,105,StringInstrument
190.0,0.0,36,92,StringInstrument
190.0,0.0,42,92,StringInstrument
190.5,0.0,49,105,StringInstrument
190.5,0.0,56,105,StringInstrument
190.75,0.3225806451612903,61,108,StringInstrument
190.75,0.3225806451612903,65,108,StringInstrument
190.75,0.3225806451612903,72,108,StringInstrument
190.75,0.4301075268817204,49,105,StringInstrument
190.75,0.4301075268817204,56,105,StringInstrument
191.5,0.4301075268817204,60,108,StringInstrument
191.5,0.4301075268817204,63,108,StringInstrument
191.5,0.4301075268817204,70,108,StringInstrument
191.5,0.4301075268817204,48,105,StringInstrument
191.5,0.4301075268817204,55,105,StringInstrument
192.5,0.3225806451612903,59,108,StringInstrument
192.5,0.3225806451612903,63,108,StringInstrument
192.5,0.3225806451612903,70,108,StringInstrument
192.5,0.3225806451612903,47,105,StringInstrument
192.5,0.3225806451612903,54,105,StringInstrument
192.5,0.0,36,99,StringInstrument
192.5,0.0,42,99,StringInstrument
193.0,0.0,47,105,StringInstrument
193.0,0.0,54,105,StringInstrument
193.25,0.3225806451612903,59,108,StringInstrument
193.25,0.3225806451612903,63,108,StringInstrument
193.25,0.3225806451612903,70,108,StringInstrument
193.25,0.4301075268817204,47,105,StringInstrument
193.25,0.4301075268817204,54,105,StringInstrument
194.0,0.4301075268817204,58,108,StringInstrument
194.0,0.4301075268817204,61,108,StringInstrument
194.0,0.4301075268817204,68,108,StringInstrument
194.0,0.4301075268817204,46,105,StringInstrument
194.0,0.4301075268817204,53,105,StringInstrument
194.0,0.0,36,85,StringInstrument
194.0,0.0,42,85,StringInstrument
194.5,0.0,40,99,StringInstrument
194.5,0.0,42,99,StringInstrument
195.0,0.3225806451612903,57,108,StringInstrument
195.0,0.3225806451612903,61,108,StringInstrument
195.0,0.3225806451612903,68,108,StringInstrument
195.0,0.3225806451612903,45,105,StringInstrument
195.0,0.3225806451612903,52,105,StringInstrument
195.0,0.0,36,92,StringInstrument
195.0,0.0,42,92,StringInstrument
195.5,0.0,45,105,StringInstrument
195.5,0.0,52,105,StringInstrument
195.75,0.3225806451612903,57,108,StringInstrument
195.75,0.3225806451612903,61,108,StringInstrument
195.75,0.3225806451612903,68,108,StringInstrument
195.75,0.4301075268817204,45,105,StringInstrument
195.75,0.4301075268817204,52,105,StringInstrument
196.5,0.4301075268817204,56,108,StringInstrument
196.5,0.4301075268817204,59,108,StringInstrument
196.5,0.4301075268817204,66,108,StringInstrument
196.5,0.4301075268817204,44,105,StringInstrument
196.5,0.4301075268817204,51,105,StringInstrument
197.5,0.3225806451612903,63,108,StringInstrument
197.5,0.3225806451612903,67,108,StringInstrument
197.5,0.3225806451612903,74,108,StringInstrument
197.5,0.3225806451612903,51,105,StringInstrument
197.5,0.3225806451612903,58,105,StringInstrument
197.5,0.0,36,99,StringInstrument
197.5,0.0,42,99,StringInstrument
198.0,0.0,51,105,StringInstrument
198.0,0.0,58,105,StringInstrument
198.25,0.3225806451612903,63,108,StringInstrument
198.25,0.3225806451612903,67,108,StringInstrument
198.25,0.3225806451612903,74,108,StringInstrument
198.25,0.4301075268817204,51,105,StringInstrument
198.25,0.4301075268817204,58,105,StringInstrument
199.0,0.4301075268817204,62,108,StringInstrument
199.0,0.4301075268817204,65,108,StringInstrument
199.0,0.4301075268817204,72,108,StringInstrument
199.0,0.4301075268817204,50,105,StringInstrument
199.0,0.4301075268817204,57,105,StringInstrument
199.0,0.0,36,85,StringInstrument
199.0,0.0,42,85,StringInstrument
199.5,0.0,40,99,StringInstrument
199.5,0.0,42,99,StringInstrument
200.0,0.3225806451612903,61,108,StringInstrument
200.0,0.3225806451612903,65,108,StringInstrument
200.0,0.3225806451612903,72,108,StringInstrument
200.0,0.3225806451612903,49,105,StringInstrument
200.0,0.3225806451612903,56,105,StringInstrument
200.0,0.0,36,92,StringInstrument
200.0,0.0,42,92,StringInstrument
200.5,0.0,49,105,StringInstrument
200.5,0.0,56,105,StringInstrument
200.75,0.3225806451612903,61,108,StringInstrument
200.75,0.3225806451612903,65,108,StringInstrument
200.75,0.3225806451612903,72,108,StringInstrument
200.75,0.4301075268817204,49,105,StringInstrument
200.75,0.4301075268817204,56,105,StringInstrument
201.5,0.4301075268817204,60,108,StringInstrument
201.5,0.4301075268817204,63,108,StringInstrument
201.5,0.4301075268817204,70,108,StringInstrument
201.5,0.4301075268817204,48,105,StringInstrument
201.5,0.4301075268817204,55,105,StringInstrument
202.5,0.3225806451612903,59,108,StringInstrument
202.5,0.3225806451612903,63,108,StringInstrument
202.5,0.3225806451612903,70,108,StringInstrument
202.5,0.3225806451612903,47,105,StringInstrument
202.5,0.3225806451612903,54,105,StringInstrument
202.5,0.0,36,99,StringInstrument
202.5,0.0,42,99,StringInstrument
203.0,0.0,47,105,StringInstrument
203.0,0.0,54,105,StringInstrument
203.25,0.3225806451612903,59,108,StringInstrument
203.25,0.3225806451612903,63,108,StringInstrument
203.25,0.3225806451612903,70,108,StringInstrument
203.25,0.4301075268817204,47,105,StringInstrument
203.25,0.4301075268817204,54,105,StringInstrument
204.0,0.4301075268817204,58,108,StringInstrument
204.0,0.4301075268817204,61,108,StringInstrument
204.0,0.4301075268817204,68,108,StringInstrument
204.0,0.4301075268817204,46,105,StringInstrument
204.0,0.4301075268817204,53,105,StringInstrument
204.0,0.0,36,85,StringInstrument
204.0,0.0,42,85,StringInstrument
204.5,0.0,40,99,StringInstrument
204.5,0.0,42,99,StringInstrument
205.0,0.3225806451612903,57,108,StringInstrument
205.0,0.3225806451612903,61,108,StringInstrument
205.0,0.3225806451612903,68,108,StringInstrument
205.0,0.3225806451612903,45,105,StringInstrument
205.0,0.3225806451612903,52,105,StringInstrument
205.0,0.0,36,92,StringInstrument
205.0,0.0,42,92,StringInstrument
205.5,0.0,45,105,StringInstrument
205.5,0.0,52,105,StringInstrument
205.75,0.3225806451612903,57,108,StringInstrument
205.75,0.3225806451612903,61,108,StringInstrument
205.75,0.3225806451612903,68,108,StringInstrument
205.75,0.4301075268817204,45,105,StringInstrument
205.75,0.4301075268817204,52,105,StringInstrument
206.5,0.4301075268817204,56,108,StringInstrument
206.5,0.4301075268817204,59,108,StringInstrument
206.5,0.4301075268817204,66,108,StringInstrument
206.5,0.4301075268817204,44,105,StringInstrument
206.5,0.4301075268817204,51,105,StringInstrument
207.5,0.3225806451612903,57,108,StringInstrument
207.5,0.3225806451612903,61,108,StringInstrument
207.5,0.3225806451612903,68,108,StringInstrument
207.5,0.3225806451612903,45,95,StringInstrument
207.5,0.3225806451612903,52,95,StringInstrument
207.5,0.0,36,92,StringInstrument
207.5,0.0,46,92,StringInstrument
207.5,0.3225806451612903,57,95,StringInstrument
207.5,0.3225806451612903,52,95,StringInstrument
208.0,0.0,45,95,StringInstrument
208.0,0.0,52,95,StringInstrument
208.0,0.0,57,95,StringInstrument
208.0,0.0,52,95,StringInstrument
208.25,0.3225806451612903,58,108,StringInstrument
208.25,0.3225806451612903,62,108,StringInstrument
208.25,0.3225806451612903,69,108,StringInstrument
208.25,0.3225806451612903,46,95,StringInstrument
208.25,0.3225806451612903,53,95,StringInstrument
208.25,0.0,36,92,StringInstrument
208.25,0.0,46,92,StringInstrument
208.25,0.3225806451612903,58,95,StringInstrument
208.25,0.3225806451612903,53,95,StringInstrument
208.75,0.0,46,95,StringInstrument
208.75,0.0,53,95,StringInstrument
208.75,0.0,58,95,StringInstrument
208.75,0.0,53,95,StringInstrument
209.0,0.3225806451612903,60,108,StringInstrument
209.0,0.3225806451612903,63,108,StringInstrument
209.0,0.3225806451612903,70,108,StringInstrument
209.0,0.3225806451612903,48,95,StringInstrument
209.0,0.3225806451612903,55,95,StringInstrument
209.0,0.0,36,92,StringInstrument
209.0,0.0,46,92,StringInstrument
209.0,0.3225806451612903,60,95,StringInstrument
209.0,0.3225806451612903,55,95,StringInstrument
209.5,0.0,48,95,StringInstrument
209.5,0.0,55,95,StringInstrument
209.5,0.0,60,95,StringInstrument
209.5,0.0,55,95,StringInstrument
209.75,0.3225806451612903,62,108,StringInstrument
209.75,0.3225806451612903,65,108,StringInstrument
209.75,0.3225806451612903,72,108,StringInstrument
209.75,0.3225806451612903,50,95,StringInstrument
209.75,0.3225806451612903,57,95,StringInstrument
209.75,0.0,36,92,StringInstrument
209.75,0.0,46,92,StringInstrument
209.75,0.3225806451612903,62,95,StringInstrument
209.75,0.3225806451612903,57,95,StringInstrument
210.25,0.0,50,95,StringInstrument
210.25,0.0,57,95,StringInstrument
210.25,0.0,62,95,StringInstrument
210.25,0.0,57,95,StringInstrument
210.5,0.3225806451612903,63,108,StringInstrument
210.5,0.3225806451612903,67,108,StringInstrument
210.5,0.3225806451612903,74,108,StringInstrument
210.5,0.3225806451612903,51,95,StringInstrument
210.5,0.3225806451612903,58,95,StringInstrument
210.5,0.0,36,92,StringInstrument
210.5,0.0,46,92,StringInstrument
210.5,0.3225806451612903,63,95,StringInstrument
210.5,0.3225806451612903,58,95,StringInstrument
211.0,0.0,51,95,StringInstrument
211.0,0.0,58,95,StringInstrument
211.0,0.0,63,95,StringInstrument
211.0,0.0,58,95,StringInstrument
211.25,0.3225806451612903,63,108,StringInstrument
211.25,0.3225806451612903,67,108,StringInstrument
211.25,0.3225806451612903,74,108,StringInstrument
211.25,0.3225806451612903,51,95,StringInstrument
211.25,0.3225806451612903,58,95,StringInstrument
211.25,0.0,36,92,StringInstrument
211.25,0.0,46,92,StringInstrument
211.25,0.3225806451612903,63,95,StringInstrument
211.25,0.3225806451612903,58,95,StringInstrument
211.75,0.0,51,95,StringInstrument
211.75,0.0,58,95,StringInstrument
211.75,0.0,63,95,StringInstrument
211.75,0.0,58,95,StringInstrument
212.0,0.2150537634408602,65,108,StringInstrument
212.0,0.2150537634408602,69,108,StringInstrument
212.0,0.2150537634408602,75,108,StringInstrument
212.0,0.2150537634408602,53,95,StringInstrument
212.0,0.2150537634408602,60,95,StringInstrument
212.0,0.0,36,97,StringInstrument
212.0,0.0,46,97,StringInstrument
212.0,0.0,40,97,StringInstrument
212.0,0.2150537634408602,65,95,StringInstrument
212.0,0.2150537634408602,60,95,StringInstrument
212.5,0.2150537634408602,65,108,StringInstrument
212.5,0.2150537634408602,69,108,StringInstrument
212.5,0.2150537634408602,75,108,StringInstrument
212.5,0.3225806451612903,53,95,StringInstrument
212.5,0.3225806451612903,60,95,StringInstrument
212.5,0.0,40,97,StringInstrument
212.5,0.0,36,97,StringInstrument
212.5,0.0,46,97,StringInstrument
212.5,0.3225806451612903,65,95,StringInstrument
212.5,0.3225806451612903,60,95,StringInstrument
215.5,0.6451612903225806,62,109,StringInstrument
215.5,0.6451612903225806,65,109,StringInstrument
215.5,0.6451612903225806,58,109,StringInstrument
215.5,0.6451612903225806,70,109,StringInstrument
215.5,0.6451612903225806,58,98,StringInstrument
215.5,0.6451612903225806,62,98,StringInstrument
215.5,0.6451612903225806,65,98,StringInstrument
215.5,0.6451612903225806,69,98,StringInstrument
215.5,0.0,49,87,StringInstrument
215.5,0.0,36,87,StringInstrument
215.5,0.0,40,87,StringInstrument
216.5,0.4301075268817204,63,95,StringInstrument
216.5,0.4301075268817204,67,95,StringInstrument
216.5,0.0,36,85,StringInstrument
216.5,0.0,49,85,StringInstrument
217.25,0.4301075268817204,63,115,StringInstrument
217.25,0.4301075268817204,67,115,StringInstrument
218.0,0.16129032258064516,65,95,StringInstrument
218.0,0.16129032258064516,69,95,StringInstrument
218.0,0.0,40,92,StringInstrument
218.0,0.0,42,92,StringInstrument
218.5,0.16129032258064516,69,105,StringInstrument
218.5,0.16129032258064516,65,105,StringInstrument
218.5,0.0,42,92,StringInstrument
218.5,0.0,36,92,StringInstrument
219.0,0.16129032258064516,58,97,StringInstrument
219.0,0.16129032258064516,62,97,StringInstrument
219.0,0.16129032258064516,65,97,StringInstrument
219.0,0.0,40,92,StringInstrument
219.0,0.0,42,92,StringInstrument
219.5,0.4301075268817204,58,95,StringInstrument
219.5,0.4301075268817204,62,95,StringInstrument
219.5,0.0,36,92,StringInstrument
219.5,0.0,42,92,StringInstrument
220.25,0.4301075268817204,58,115,StringInstrument
220.25,0.4301075268817204,62,115,StringInstrument
221.0,0.0,40,99,StringInstrument
221.0,0.0,46,99,StringInstrument
221.5,0.0,36,87,StringInstrument
221.5,0.0,42,87,StringInstrument
221.5,0.0,50,87,StringInstrument
222.5,0.4301075268817204,60,100,StringInstrument
222.5,0.4301075268817204,67,100,StringInstrument
222.5,0.0,36,85,StringInstrument
222.5,0.0,49,85,StringInstrument
223.25,0.4301075268817204,60,120,StringInstrument
223.25,0.4301075268817204,67,120,StringInstrument
224.0,0.16129032258064516,62,100,StringInstrument
224.0,0.16129032258064516,69,100,StringInstrument
224.0,0.0,40,92,StringInstrument
224.0,0.0,42,92,StringInstrument
224.5,0.16129032258064516,62,105,StringInstrument
224.5,0.16129032258064516,69,105,StringInstrument
224.5,0.0,42,92,StringInstrument
224.5,0.0,36,92,StringInstrument
225.0,0.16129032258064516,62,97,StringInstrument
225.0,0.16129032258064516,65,97,StringInstrument
225.0,0.16129032258064516,57,97,StringInstrument
225.0,0.0,40,92,StringInstrument
225.0,0.0,42,92,StringInstrument
225.5,0.4301075268817204,62,95,StringInstrument
225.5,0.4301075268817204,65,95,StringInstrument
225.5,0.0,36,92,StringInstrument
225.5,0.0,42,92,StringInstrument
226.25,0.4301075268817204,62,115,StringInstrument
226.25,0.4301075268817204,65,115,StringInstrument
227.0,0.16129032258064516,60,100,StringInstrument
227.0,0.16129032258064516,72,100,StringInstrument
227.0,0.0,40,99,StringInstrument
227.0,0.0,46,99,StringInstrument
227.5,0.16129032258064516,62,105,StringInstrument
227.5,0.16129032258064516,60,105,StringInstrument
227.5,0.16129032258064516,58,100,StringInstrument
227.5,0.16129032258064516,70,100,StringInstrument
227.5,0.0,42,92,StringInstrument
227.5,0.0,40,92,StringInstrument
228.0,0.16129032258064516,60,100,StringInstrument
228.0,0.16129032258064516,72,100,StringInstrument
228.5,0.4301075268817204,60,97,StringInstrument
228.5,0.4301075268817204,63,97,StringInstrument
228.5,0.4301075268817204,67,97,StringInstrument
228.5,0.2150537634408602,72,95,StringInstrument
228.5,0.2150537634408602,60,95,StringInstrument
228.5,0.0,36,92,StringInstrument
228.5,0.0,57,92,StringInstrument
229.25,0.4301075268817204,60,117,StringInstrument
229.25,0.4301075268817204,63,117,StringInstrument
229.25,0.4301075268817204,67,117,StringInstrument
229.25,0.16129032258064516,72,105,StringInstrument
229.25,0.16129032258064516,60,105,StringInstrument
229.75,0.16129032258064516,70,95,StringInstrument
229.75,0.16129032258064516,58,95,StringInstrument
230.0,0.16129032258064516,62,97,StringInstrument
230.0,0.16129032258064516,65,97,StringInstrument
230.0,0.16129032258064516,69,97,StringInstrument
230.0,0.16129032258064516,72,105,StringInstrument
230.0,0.16129032258064516,60,105,StringInstrument
230.0,0.0,42,85,StringInstrument
230.0,0.0,36,85,StringInstrument
230.5,0.16129032258064516,62,107,StringInstrument
230.5,0.16129032258064516,69,107,StringInstrument
230.5,0.16129032258064516,65,107,StringInstrument
230.5,0.16129032258064516,70,95,StringInstrument
230.5,0.16129032258064516,58,95,StringInstrument
230.5,0.0,42,99,StringInstrument
230.5,0.0,40,99,StringInstrument
231.0,0.16129032258064516,58,97,StringInstrument
231.0,0.16129032258064516,62,97,StringInstrument
231.0,0.16129032258064516,65,97,StringInstrument
231.0,0.16129032258064516,69,105,StringInstrument
231.0,0.16129032258064516,57,105,StringInstrument
231.0,0.0,42,78,StringInstrument
231.0,0.0,36,78,StringInstrument
231.5,0.3225806451612903,60,100,StringInstrument
231.5,0.3225806451612903,63,100,StringInstrument
231.5,0.3225806451612903,51,100,StringInstrument
231.5,0.3225806451612903,67,100,StringInstrument
231.5,0.3225806451612903,70,95,StringInstrument
231.5,0.3225806451612903,58,95,StringInstrument
231.5,0.0,36,99,StringInstrument
231.5,0.0,42,99,StringInstrument
232.25,0.3225806451612903,72,95,StringInstrument
232.25,0.3225806451612903,60,95,StringInstrument
233.0,0.3225806451612903,60,105,StringInstrument
233.0,0.3225806451612903,65,105,StringInstrument
233.0,0.3225806451612903,69,105,StringInstrument
233.0,0.3225806451612903,53,106,StringInstrument
233.0,0.3225806451612903,69,106,StringInstrument
233.0,0.3225806451612903,74,95,StringInstrument
233.0,0.3225806451612903,62,95,StringInstrument
233.0,0.0,36,92,StringInstrument
233.0,0.0,42,92,StringInstrument
233.5,0.16129032258064516,60,105,StringInstrument
233.5,0.16129032258064516,65,105,StringInstrument
233.5,0.16129032258064516,70,105,StringInstrument
233.5,0.16129032258064516,74,95,StringInstrument
233.5,0.16129032258064516,62,95,StringInstrument
233.5,0.0,40,99,StringInstrument
233.5,0.0,46,99,StringInstrument
234.5,3.225806451612903,51,85,StringInstrument
234.5,3.225806451612903,63,85,StringInstrument
234.5,1.6129032258064515,67,100,StringInstrument
234.5,1.6129032258064515,70,100,StringInstrument
234.5,0.0,36,92,StringInstrument
234.5,0.0,57,92,StringInstrument
236.0,0.0,36,92,StringInstrument
236.0,0.0,51,92,StringInstrument
236.5,0.0,40,99,StringInstrument
236.5,0.0,51,99,StringInstrument
237.0,0.4838709677419355,67,110,StringInstrument
237.0,0.4838709677419355,70,110,StringInstrument
237.0,0.0,36,99,StringInstrument
237.0,0.0,51,99,StringInstrument
237.75,0.4838709677419355,69,110,StringInstrument
237.75,0.4838709677419355,72,110,StringInstrument
238.5,0.3225806451612903,70,110,StringInstrument
238.5,0.3225806451612903,74,110,StringInstrument
238.5,0.0,40,99,StringInstrument
238.5,0.0,51,99,StringInstrument
239.0,0.3225806451612903,72,110,StringInstrument
239.0,0.3225806451612903,75,110,StringInstrument
239.0,0.0,40,99,StringInstrument
239.0,0.0,51,99,StringInstrument
239.5,3.225806451612903,50,85,StringInstrument
239.5,3.225806451612903,62,85,StringInstrument
239.5,1.6129032258064515,67,100,StringInstrument
239.5,1.6129032258064515,70,100,StringInstrument
239.5,0.0,36,92,StringInstrument
239.5,0.0,49,92,StringInstrument
241.0,0.0,36,92,StringInstrument
241.0,0.0,51,92,StringInstrument
241.5,0.0,40,99,StringInstrument
241.5,0.0,51,99,StringInstrument
242.0,0.4838709677419355,67,110,StringInstrument
242.0,0.4838709677419355,70,110,StringInstrument
242.0,0.0,36,99,StringInstrument
242.0,0.0,51,99,StringInstrument
242.75,0.4838709677419355,69,110,StringInstrument
242.75,0.4838709677419355,72,110,StringInstrument
243.5,0.3225806451612903,70,110,StringInstrument
243.5,0.3225806451612903,74,110,StringInstrument
243.5,0.0,40,99,StringInstrument
243.5,0.0,51,99,StringInstrument
244.0,0.3225806451612903,72,110,StringInstrument
244.0,0.3225806451612903,75,110,StringInstrument
244.0,0.0,40,99,StringInstrument
244.0,0.0,51,99,StringInstrument
244.5,3.225806451612903,51,85,StringInstrument
244.5,3.225806451612903,63,85,StringInstrument
244.5,1.6129032258064515,67,100,StringInstrument
244.5,1.6129032258064515,70,100,StringInstrument
244.5,0.0,36,92,StringInstrument
244.5,0.0,57,92,StringInstrument
246.0,0.0,36,92,StringInstrument
246.0,0.0,51,92,StringInstrument
246.5,0.0,40,99,StringInstrument
246.5,0.0,51,99,StringInstrument
247.0,0.4838709677419355,67,110,StringInstrument
247.0,0.4838709677419355,70,110,StringInstrument
247.0,0.0,36,99,StringInstrument
247.0,0.0,51,99,StringInstrument
247.75,0.4838709677419355,69,110,StringInstrument
247.75,0.4838709677419355,72,110,StringInstrument
248.5,0.3225806451612903,70,110,StringInstrument
248.5,0.3225806451612903,74,110,StringInstrument
248.5,0.0,40,99,StringInstrument
248.5,0.0,51,99,StringInstrument
249.0,0.3225806451612903,72,110,StringInstrument
249.0,0.3225806451612903,75,110,StringInstrument
249.0,0.0,40,99,StringInstrument
249.0,0.0,51,99,StringInstrument
249.5,3.225806451612903,50,85,StringInstrument
249.5,3.225806451612903,62,85,StringInstrument
249.5,1.6129032258064515,67,100,StringInstrument
249.5,1.6129032258064515,70,100,StringInstrument
249.5,0.4301075268817204,63,104,StringInstrument
249.5,0.4301075268817204,69,104,StringInstrument
249.5,0.0,36,92,StringInstrument
249.5,0.0,49,92,StringInstrument
250.25,0.4301075268817204,62,107,StringInstrument
250.25,0.4301075268817204,67,107,StringInstrument
251.0,0.3225806451612903,62,110,StringInstrument
251.0,0.3225806451612903,67,110,StringInstrument
251.0,0.0,36,92,StringInstrument
251.0,0.0,51,92,StringInstrument
251.5,0.3225806451612903,60,105,StringInstrument
251.5,0.3225806451612903,65,105,StringInstrument
251.5,0.0,40,99,StringInstrument
251.5,0.0,51,99,StringInstrument
252.0,0.4838709677419355,67,110,StringInstrument
252.0,0.4838709677419355,70,110,StringInstrument
252.0,0.4301075268817204,60,105,StringInstrument
252.0,0.4301075268817204,65,105,StringInstrument
252.0,0.0,36,99,StringInstrument
252.0,0.0,51,99,StringInstrument
252.75,0.4838709677419355,69,110,StringInstrument
252.75,0.4838709677419355,72,110,StringInstrument
252.75,1.129032258064516,62,110,StringInstrument
252.75,1.129032258064516,67,110,StringInstrument
253.5,0.3225806451612903,70,110,StringInstrument
253.5,0.3225806451612903,74,110,StringInstrument
254.0,0.3225806451612903,72,110,StringInstrument
254.0,0.3225806451612903,75,110,StringInstrument
254.5,3.225806451612903,51,85,StringInstrument
254.5,3.225806451612903,63,85,StringInstrument
254.5,1.6129032258064515,67,100,StringInstrument
254.5,1.6129032258064515,70,100,StringInstrument
254.5,0.0,36,92,StringInstrument
254.5,0.0,57,92,StringInstrument
256.0,0.0,36,92,StringInstrument
256.0,0.0,51,92,StringInstrument
256.5,0.0,40,99,StringInstrument
256.5,0.0,51,99,StringInstrument
257.0,0.4838709677419355,67,110,StringInstrument
257.0,0.4838709677419355,70,110,StringInstrument
257.0,0.0,36,99,StringInstrument
257.0,0.0,51,99,StringInstrument
257.75,0.4838709677419355,69,110,StringInstrument
257.75,0.4838709677419355,72,110,StringInstrument
258.5,0.3225806451612903,70,110,StringInstrument
258.5,0.3225806451612903,74,110,StringInstrument
258.5,0.0,40,99,StringInstrument
258.5,0.0,51,99,StringInstrument
259.0,0.3225806451612903,72,110,StringInstrument
259.0,0.3225806451612903,75,110,StringInstrument
259.0,0.0,40,99,StringInstrument
259.0,0.0,51,99,StringInstrument
259.5,3.225806451612903,50,85,StringInstrument
259.5,3.225806451612903,62,85,StringInstrument
259.5,1.6129032258064515,67,100,StringInstrument
259.5,1.6129032258064515,70,100,StringInstrument
259.5,0.0,36,92,StringInstrument
259.5,0.0,49,92,StringInstrument
261.0,0.0,36,92,StringInstrument
261.0,0.0,51,92,StringInstrument
261.5,0.0,40,99,StringInstrument
261.5,0.0,51,99,StringInstrument
262.0,0.4838709677419355,67,110,StringInstrument
262.0,0.4838709677419355,70,110,StringInstrument
262.0,0.0,36,99,StringInstrument
262.0,0.0,51,99,StringInstrument
262.75,0.4838709677419355,69,110,StringInstrument
262.75,0.4838709677419355,72,110,StringInstrument
263.5,0.3225806451612903,70,110,StringInstrument
263.5,0.3225806451612903,74,110,StringInstrument
263.5,0.0,40,99,StringInstrument
263.5,0.0,51,99,StringInstrument
264.0,0.3225806451612903,72,110,StringInstrument
264.0,0.3225806451612903,75,110,StringInstrument
264.0,0.0,40,99,StringInstrument
264.0,0.0,51,99,StringInstrument
264.5,3.225806451612903,51,85,StringInstrument
264.5,3.225806451612903,63,85,StringInstrument
264.5,1.6129032258064515,67,100,StringInstrument
264.5,1.6129032258064515,70,100,StringInstrument
264.5,0.0,36,92,StringInstrument
264.5,0.0,57,92,StringInstrument
266.0,0.0,36,92,StringInstrument
266.0,0.0,51,92,StringInstrument
266.5,0.0,40,99,StringInstrument
266.5,0.0,51,99,StringInstrument
267.0,0.4838709677419355,67,110,StringInstrument
267.0,0.4838709677419355,70,110,StringInstrument
267.0,0.0,36,99,StringInstrument
267.0,0.0,51,99,StringInstrument
267.75,0.4838709677419355,69,110,StringInstrument
267.75,0.4838709677419355,72,110,StringInstrument
268.5,0.3225806451612903,70,110,StringInstrument
268.5,0.3225806451612903,74,110,StringInstrument
268.5,0.0,40,99,StringInstrument
268.5,0.0,51,99,StringInstrument
269.0,0.3225806451612903,72,110,StringInstrument
269.0,0.3225806451612903,75,110,StringInstrument
269.0,0.0,40,99,StringInstrument
269.0,0.0,51,99,StringInstrument
269.5,3.225806451612903,50,85,StringInstrument
269.5,3.225806451612903,62,85,StringInstrument
269.5,1.6129032258064515,67,100,StringInstrument
269.5,1.6129032258064515,70,100,StringInstrument
269.5,0.4301075268817204,63,104,StringInstrument
269.5,0.4301075268817204,69,104,StringInstrument
269.5,0.0,36,92,StringInstrument
269.5,0.0,49,92,StringInstrument
270.25,0.4301075268817204,62,107,StringInstrument
270.25,0.4301075268817204,67,107,StringInstrument
271.0,0.3225806451612903,62,110,StringInstrument
271.0,0.3225806451612903,67,110,StringInstrument
271.0,0.0,36,92,StringInstrument
271.0,0.0,51,92,StringInstrument
271.5,0.3225806451612903,60,105,StringInstrument
271.5,0.3225806451612903,65,105,StringInstrument
271.5,0.0,40,99,StringInstrument
271.5,0.0,51,99,StringInstrument
272.0,0.4838709677419355,67,110,StringInstrument
272.0,0.4838709677419355,70,110,StringInstrument
272.0,0.4301075268817204,60,105,StringInstrument
272.0,0.4301075268817204,65,105,StringInstrument
272.0,0.0,50,85,StringInstrument
272.0,0.0,47,85,StringInstrument
272.75,0.4838709677419355,69,110,StringInstrument
272.75,0.4838709677419355,72,110,StringInstrument
272.75,2.7419354838709675,62,110,StringInstrument
272.75,2.7419354838709675,67,110,StringInstrument
273.0,0.0,47,85,StringInstrument
273.0,0.0,43,85,StringInstrument
273.5,0.3225806451612903,70,110,StringInstrument
273.5,0.3225806451612903,74,110,StringInstrument
274.0,0.3225806451612903,72,110,StringInstrument
274.0,0.3225806451612903,75,110,StringInstrument
274.5,0.4301075268817204,67,94,StringInstrument
274.5,0.4301075268817204,79,94,StringInstrument
274.5,3.225806451612903,51,85,StringInstrument
274.5,3.225806451612903,63,85,StringInstrument
274.5,1.6129032258064515,67,100,StringInstrument
274.5,1.6129032258064515,70,100,StringInstrument
274.5,0.0,36,92,StringInstrument
274.5,0.0,57,92,StringInstrument
275.25,0.4301075268817204,70,100,StringInstrument
275.25,0.4301075268817204,82,100,StringInstrument
276.0,0.3225806451612903,69,100,StringInstrument
276.0,0.3225806451612903,81,100,StringInstrument
276.0,0.0,36,92,StringInstrument
276.0,0.0,51,92,StringInstrument
276.5,0.3225806451612903,65,90,StringInstrument
276.5,0.3225806451612903,77,90,StringInstrument
276.5,0.0,40,99,StringInstrument
276.5,0.0,51,99,StringInstrument
277.0,1.5053763440860215,67,90,StringInstrument
277.0,1.5053763440860215,79,90,StringInstrument
277.0,0.4838709677419355,67,110,StringInstrument
277.0,0.4838709677419355,70,110,StringInstrument
277.0,0.0,36,99,StringInstrument
277.0,0.0,51,99,StringInstrument
277.75,0.4838709677419355,69,110,StringInstrument
277.75,0.4838709677419355,72,110,StringInstrument
278.5,0.3225806451612903,70,110,StringInstrument
278.5,0.3225806451612903,74,110,StringInstrument
278.5,0.0,40,99,StringInstrument
278.5,0.0,51,99,StringInstrument
279.0,0.3225806451612903,72,110,StringInstrument
279.0,0.3225806451612903,75,110,StringInstrument
279.0,0.0,40,99,StringInstrument
279.0,0.0,51,99,StringInstrument
279.5,0.4301075268817204,67,94,StringInstrument
279.5,0.4301075268817204,79,94,StringInstrument
279.5,3.225806451612903,50,85,StringInstrument
279.5,3.225806451612903,62,85,StringInstrument
279.5,1.6129032258064515,67,100,StringInstrument
279.5,1.6129032258064515,70,100,StringInstrument
279.5,0.4301075268817204,63,104,StringInstrument
279.5,0.4301075268817204,69,104,StringInstrument
279.5,0.0,36,92,StringInstrument
279.5,0.0,49,92,StringInstrument
280.25,0.4301075268817204,70,100,StringInstrument
280.25,0.4301075268817204,82,100,StringInstrument
280.25,0.4301075268817204,62,107,StringInstrument
280.25,0.4301075268817204,67,107,StringInstrument
281.0,0.3225806451612903,69,100,StringInstrument
281.0,0.3225806451612903,81,100,StringInstrument
281.0,0.3225806451612903,62,110,StringInstrument
281.0,0.3225806451612903,67,110,StringInstrument
281.0,0.0,36,92,StringInstrument
281.0,0.0,51,92,StringInstrument
281.5,0.3225806451612903,65,90,StringInstrument
281.5,0.3225806451612903,77,90,StringInstrument
281.5,0.3225806451612903,60,105,StringInstrument
281.5,0.3225806451612903,65,105,StringInstrument
281.5,0.0,40,99,StringInstrument
281.5,0.0,51,99,StringInstrument
282.0,0.4301075268817204,67,90,StringInstrument
282.0,0.4301075268817204,79,90,StringInstrument
282.0,0.4838709677419355,67,110,StringInstrument
282.0,0.4838709677419355,70,110,StringInstrument
282.0,0.4301075268817204,60,105,StringInstrument
282.0,0.4301075268817204,65,105,StringInstrument
282.0,0.0,36,99,StringInstrument
282.0,0.0,51,99,StringInstrument
282.75,1.075268817204301,74,100,StringInstrument
282.75,1.075268817204301,86,100,StringInstrument
282.75,0.4838709677419355,69,110,StringInstrument
282.75,0.4838709677419355,72,110,StringInstrument
282.75,2.7419354838709675,62,110,StringInstrument
282.75,2.7419354838709675,67,110,StringInstrument
283.5,0.3225806451612903,70,110,StringInstrument
283.5,0.3225806451612903,74,110,StringInstrument
283.5,0.0,40,99,StringInstrument
283.5,0.0,51,99,StringInstrument
284.0,0.3225806451612903,72,110,StringInstrument
284.0,0.3225806451612903,75,110,StringInstrument
284.0,0.0,40,99,StringInstrument
284.0,0.0,51,99,StringInstrument
284.5,0.4301075268817204,67,94,StringInstrument
284.5,0.4301075268817204,79,94,StringInstrument
284.5,3.225806451612903,51,85,StringInstrument
284.5,3.225806451612903,63,85,StringInstrument
284.5,1.6129032258064515,67,100,StringInstrument
284.5,1.6129032258064515,70,100,StringInstrument
284.5,0.0,36,92,StringInstrument
284.5,0.0,57,92,StringInstrument
285.25,0.4301075268817204,70,100,StringInstrument
285.25,0.4301075268817204,82,100,StringInstrument
286.0,0.3225806451612903,69,100,StringInstrument
286.0,0.3225806451612903,81,100,StringInstrument
286.0,0.0,36,92,StringInstrument
286.0,0.0,51,92,StringInstrument
286.5,0.3225806451612903,65,90,StringInstrument
286.5,0.3225806451612903,77,90,StringInstrument
286.5,0.0,40,99,StringInstrument
286.5,0.0,51,99,StringInstrument
287.0,1.5053763440860215,67,90,StringInstrument
287.0,1.5053763440860215,79,90,StringInstrument
287.0,0.4838709677419355,67,110,StringInstrument
287.0,0.4838709677419355,70,110,StringInstrument
287.0,0.0,36,99,StringInstrument
287.0,0.0,51,99,StringInstrument
287.75,0.4838709677419355,69,110,StringInstrument
287.75,0.4838709677419355,72,110,StringInstrument
288.5,0.3225806451612903,70,110,StringInstrument
288.5,0.3225806451612903,74,110,StringInstrument
288.5,0.0,40,99,StringInstrument
288.5,0.0,51,99,StringInstrument
289.0,0.3225806451612903,72,110,StringInstrument
289.0,0.3225806451612903,75,110,StringInstrument
289.0,0.0,40,99,StringInstrument
289.0,0.0,51,99,StringInstrument
289.5,0.4301075268817204,67,94,StringInstrument
289.5,0.4301075268817204,79,94,StringInstrument
289.5,3.225806451612903,50,85,StringInstrument
289.5,3.225806451612903,62,85,StringInstrument
289.5,1.6129032258064515,67,100,StringInstrument
289.5,1.6129032258064515,70,100,StringInstrument
289.5,0.4301075268817204,63,104,StringInstrument
289.5,0.4301075268817204,69,104,StringInstrument
289.5,0.0,36,92,StringInstrument
289.5,0.0,49,92,StringInstrument
290.25,0.4301075268817204,70,100,StringInstrument
290.25,0.4301075268817204,82,100,StringInstrument
290.25,0.4301075268817204,62,107,StringInstrument
290.25,0.4301075268817204,67,107,StringInstrument
291.0,0.3225806451612903,69,100,StringInstrument
291.0,0.3225806451612903,81,100,StringInstrument
291.0,0.3225806451612903,62,110,StringInstrument
291.0,0.3225806451612903,67,110,StringInstrument
291.0,0.0,36,92,StringInstrument
291.0,0.0,51,92,StringInstrument
291.5,0.3225806451612903,65,90,StringInstrument
291.5,0.3225806451612903,77,90,StringInstrument
291.5,0.3225806451612903,60,105,StringInstrument
291.5,0.3225806451612903,65,105,StringInstrument
291.5,0.0,40,99,StringInstrument
291.5,0.0,51,99,StringInstrument
292.0,0.4301075268817204,67,90,StringInstrument
292.0,0.4301075268817204,79,90,StringInstrument
292.0,0.4838709677419355,67,110,StringInstrument
292.0,0.4838709677419355,70,110,StringInstrument
292.0,0.4301075268817204,60,105,StringInstrument
292.0,0.4301075268817204,65,105,StringInstrument
292.0,0.0,40,99,StringInstrument
292.0,0.0,46,99,StringInstrument
292.75,1.075268817204301,74,100,StringInstrument
292.75,1.075268817204301,86,100,StringInstrument
292.75,0.4838709677419355,69,110,StringInstrument
292.75,0.4838709677419355,72,110,StringInstrument
292.75,1.129032258064516,62,110,StringInstrument
292.75,1.129032258064516,67,110,StringInstrument
293.0,0.0,40,99,StringInstrument
293.0,0.0,46,99,StringInstrument
293.5,0.3225806451612903,70,110,StringInstrument
293.5,0.3225806451612903,74,110,StringInstrument
294.0,0.3225806451612903,72,110,StringInstrument
294.0,0.3225806451612903,75,110,StringInstrument
294.0,0.0,40,92,StringInstrument
294.0,0.0,40,92,StringInstrument
294.5,0.4301075268817204,67,104,StringInstrument
294.5,0.4301075268817204,79,104,StringInstrument
294.5,1.6129032258064515,51,92,StringInstrument
294.5,1.6129032258064515,63,92,StringInstrument
294.5,1.6129032258064515,67,92,StringInstrument
294.5,1.6129032258064515,70,92,StringInstrument
294.5,1.6129032258064515,39,105,StringInstrument
294.5,1.6129032258064515,46,105,StringInstrument
294.5,0.0,36,92,StringInstrument
294.5,0.0,49,92,StringInstrument
295.25,0.4301075268817204,70,110,StringInstrument
295.25,0.4301075268817204,82,110,StringInstrument
295.25,0.0,36,99,StringInstrument
295.25,0.0,46,99,StringInstrument
295.75,0.0,36,99,StringInstrument
295.75,0.0,46,99,StringInstrument
296.0,0.3225806451612903,69,110,StringInstrument
296.0,0.3225806451612903,81,110,StringInstrument
296.5,0.3225806451612903,65,100,StringInstrument
296.5,0.3225806451612903,77,100,StringInstrument
297.0,1.5053763440860215,67,100,StringInstrument
297.0,1.5053763440860215,79,100,StringInstrument
297.0,0.2150537634408602,51,92,StringInstrument
297.0,0.2150537634408602,63,92,StringInstrument
297.0,0.2150537634408602,67,92,StringInstrument
297.0,0.2150537634408602,70,92,StringInstrument
297.0,0.2150537634408602,39,105,StringInstrument
297.0,0.2150537634408602,46,105,StringInstrument
297.25,0.0,36,99,StringInstrument
297.25,0.0,46,99,StringInstrument
297.75,0.2150537634408602,51,92,StringInstrument
297.75,0.2150537634408602,63,92,StringInstrument
297.75,0.2150537634408602,67,92,StringInstrument
297.75,0.2150537634408602,70,92,StringInstrument
297.75,0.2150537634408602,39,105,StringInstrument
297.75,0.2150537634408602,46,105,StringInstrument
298.0,0.0,36,99,StringInstrument
298.0,0.0,46,99,StringInstrument
299.0,0.0,47,92,StringInstrument
299.0,0.0,43,92,StringInstrument
299.5,0.4301075268817204,67,104,StringInstrument
299.5,0.4301075268817204,79,104,StringInstrument
299.5,1.6129032258064515,50,93,StringInstrument
299.5,1.6129032258064515,67,93,StringInstrument
299.5,1.6129032258064515,70,93,StringInstrument
299.5,1.6129032258064515,74,93,StringInstrument
299.5,1.6129032258064515,38,105,StringInstrument
299.5,1.6129032258064515,45,105,StringInstrument
299.5,0.0,36,92,StringInstrument
299.5,0.0,57,92,StringInstrument
300.25,0.4301075268817204,70,110,StringInstrument
300.25,0.4301075268817204,82,110,StringInstrument
301.0,0.3225806451612903,69,110,StringInstrument
301.0,0.3225806451612903,81,110,StringInstrument
301.5,0.3225806451612903,65,100,StringInstrument
301.5,0.3225806451612903,77,100,StringInstrument
301.5,0.0,40,92,StringInstrument
301.5,0.0,40,92,StringInstrument
302.0,0.4301075268817204,67,100,StringInstrument
302.0,0.4301075268817204,79,100,StringInstrument
302.0,0.2150537634408602,50,93,StringInstrument
302.0,0.2150537634408602,67,93,StringInstrument
302.0,0.2150537634408602,70,93,StringInstrument
302.0,0.2150537634408602,74,93,StringInstrument
302.0,0.2150537634408602,38,105,StringInstrument
302.0,0.2150537634408602,45,105,StringInstrument
302.0,0.0,36,99,StringInstrument
302.0,0.0,46,99,StringInstrument
302.75,1.075268817204301,74,110,StringInstrument
302.75,1.075268817204301,86,110,StringInstrument
302.75,0.2150537634408602,50,93,StringInstrument
302.75,0.2150537634408602,67,93,StringInstrument
302.75,0.2150537634408602,70,93,StringInstrument
302.75,0.2150537634408602,74,93,StringInstrument
302.75,0.2150537634408602,38,105,StringInstrument
302.75,0.2150537634408602,45,105,StringInstrument
302.75,0.0,36,92,StringInstrument
302.75,0.0,46,92,StringInstrument
304.5,0.4301075268817204,67,104,StringInstrument
304.5,0.4301075268817204,79,104,StringInstrument
304.5,1.6129032258064515,51,92,StringInstrument
304.5,1.6129032258064515,63,92,StringInstrument
304.5,1.6129032258064515,67,92,StringInstrument
304.5,1.6129032258064515,70,92,StringInstrument
304.5,1.6129032258064515,39,105,StringInstrument
304.5,1.6129032258064515,46,105,StringInstrument
304.5,0.0,36,92,StringInstrument
304.5,0.0,49,92,StringInstrument
305.0,0.0,40,99,StringInstrument
305.0,0.0,46,99,StringInstrument
305.25,0.4301075268817204,70,110,StringInstrument
305.25,0.4301075268817204,82,110,StringInstrument
305.5,0.0,36,92,StringInstrument
305.5,0.0,46,92,StringInstrument
306.0,0.3225806451612903,69,110,StringInstrument
306.0,0.3225806451612903,81,110,StringInstrument
306.0,0.0,40,99,StringInstrument
306.0,0.0,46,99,StringInstrument
306.5,0.3225806451612903,65,100,StringInstrument
306.5,0.3225806451612903,77,100,StringInstrument
306.5,0.0,36,92,StringInstrument
306.5,0.0,46,92,StringInstrument
307.0,1.5053763440860215,67,100,StringInstrument
307.0,1.5053763440860215,79,100,StringInstrument
307.0,0.2150537634408602,51,92,StringInstrument
307.0,0.2150537634408602,63,92,StringInstrument
307.0,0.2150537634408602,67,92,StringInstrument
307.0,0.2150537634408602,70,92,StringInstrument
307.0,0.2150537634408602,39,105,StringInstrument
307.0,0.2150537634408602,46,105,StringInstrument
307.25,0.0,36,99,StringInstrument
307.25,0.0,46,99,StringInstrument
307.75,0.2150537634408602,51,92,StringInstrument
307.75,0.2150537634408602,63,92,StringInstrument
307.75,0.2150537634408602,67,92,StringInstrument
307.75,0.2150537634408602,70,92,StringInstrument
307.75,0.2150537634408602,39,105,StringInstrument
307.75,0.2150537634408602,46,105,StringInstrument
308.0,0.0,46,99,StringInstrument
308.0,0.0,36,99,StringInstrument
308.25,0.0,42,92,StringInstrument
308.25,0.0,40,92,StringInstrument
309.5,0.4301075268817204,67,104,StringInstrument
309.5,0.4301075268817204,79,104,StringInstrument
309.5,1.6129032258064515,50,93,StringInstrument
309.5,1.6129032258064515,67,93,StringInstrument
309.5,1.6129032258064515,70,93,StringInstrument
309.5,1.6129032258064515,74,93,StringInstrument
309.5,1.6129032258064515,38,105,StringInstrument
309.5,1.6129032258064515,45,105,StringInstrument
309.5,0.0,36,92,StringInstrument
309.5,0.0,57,92,StringInstrument
310.0,0.0,36,92,StringInstrument
310.0,0.0,42,92,StringInstrument
310.25,0.4301075268817204,70,110,StringInstrument
310.25,0.4301075268817204,82,110,StringInstrument
311.0,0.3225806451612903,69,110,StringInstrument
311.0,0.3225806451612903,81,110,StringInstrument
311.0,0.0,36,92,StringInstrument
311.0,0.0,42,92,StringInstrument
311.5,0.3225806451612903,65,100,StringInstrument
311.5,0.3225806451612903,77,100,StringInstrument
311.5,0.0,40,92,StringInstrument
311.5,0.0,42,92,StringInstrument
312.0,0.4301075268817204,67,100,StringInstrument
312.0,0.4301075268817204,79,100,StringInstrument
312.0,0.2150537634408602,50,93,StringInstrument
312.0,0.2150537634408602,67,93,StringInstrument
312.0,0.2150537634408602,70,93,StringInstrument
312.0,0.2150537634408602,74,93,StringInstrument
312.0,0.2150537634408602,38,105,StringInstrument
312.0,0.2150537634408602,45,105,StringInstrument
312.0,0.0,36,99,StringInstrument
312.0,0.0,42,99,StringInstrument
312.75,1.075268817204301,74,110,StringInstrument
312.75,1.075268817204301,86,110,StringInstrument
312.75,0.2150537634408602,50,93,StringInstrument
312.75,0.2150537634408602,67,93,StringInstrument
312.75,0.2150537634408602,70,93,StringInstrument
312.75,0.2150537634408602,74,93,StringInstrument
312.75,0.2150537634408602,38,105,StringInstrument
312.75,0.2150537634408602,45,105,StringInstrument
313.5,0.0,42,87,StringInstrument
313.5,0.0,40,87,StringInstrument
313.5,0.0,40,87,StringInstrument
314.0,0.0,40,92,StringInstrument
314.0,0.0,49,92,StringInstrument
314.5,0.4301075268817204,67,104,StringInstrument
314.5,0.4301075268817204,79,104,StringInstrument
314.5,1.2903225806451613,51,95,StringInstrument
314.5,1.2903225806451613,63,95,StringInstrument
314.5,1.2903225806451613,67,95,StringInstrument
314.5,1.2903225806451613,70,95,StringInstrument
314.5,0.0,36,92,StringInstrument
314.5,0.0,57,92,StringInstrument
315.25,0.4301075268817204,70,110,StringInstrument
315.25,0.4301075268817204,82,110,StringInstrument
316.0,0.2150537634408602,69,110,StringInstrument
316.0,0.2150537634408602,81,110,StringInstrument
316.0,0.0,36,85,StringInstrument
316.0,0.0,42,85,StringInstrument
316.5,0.4301075268817204,67,104,StringInstrument
316.5,0.4301075268817204,79,104,StringInstrument
316.5,1.6129032258064515,50,97,StringInstrument
316.5,1.6129032258064515,65,97,StringInstrument
316.5,1.6129032258064515,69,97,StringInstrument
316.5,1.6129032258064515,72,97,StringInstrument
316.5,0.0,36,92,StringInstrument
316.5,0.0,49,92,StringInstrument
317.25,0.4301075268817204,70,110,StringInstrument
317.25,0.4301075268817204,82,110,StringInstrument
318.0,0.3225806451612903,69,110,StringInstrument
318.0,0.3225806451612903,81,110,StringInstrument
318.0,0.0,36,85,StringInstrument
318.0,0.0,42,85,StringInstrument
318.5,0.3225806451612903,65,100,StringInstrument
318.5,0.3225806451612903,77,100,StringInstrument
318.5,0.0,40,99,StringInstrument
318.5,0.0,46,99,StringInstrument
319.0,0.3225806451612903,67,104,StringInstrument
319.0,0.3225806451612903,79,104,StringInstrument
319.0,0.3225806451612903,55,95,StringInstrument
319.0,0.3225806451612903,67,95,StringInstrument
319.0,0.3225806451612903,70,95,StringInstrument
319.0,0.3225806451612903,74,95,StringInstrument
319.0,0.0,36,101,StringInstrument
319.0,0.0,46,101,StringInstrument
319.0,0.0,40,101,StringInstrument
