Start,Duration,Pitch,Velocity,Instrument
9.0,1.359927470534905,79,82,Piano
9.0,1.359927470534905,72,82,Piano
9.0,1.359927470534905,56,50,Piano
9.0,1.359927470534905,60,50,Piano
9.0,1.359927470534905,63,50,Piano
11.0,1.359927470534905,80,79,Piano
11.0,1.359927470534905,73,79,Piano
11.0,1.359927470534905,77,79,Piano
11.0,1.359927470534905,70,79,Piano
11.0,1.359927470534905,58,50,Piano
11.0,1.359927470534905,61,50,Piano
11.0,1.359927470534905,65,50,Piano
13.0,1.359927470534905,72,81,Piano
13.0,1.359927470534905,79,81,Piano
13.0,1.359927470534905,82,81,Piano
13.0,1.359927470534905,75,81,Piano
13.0,1.359927470534905,79,81,Piano
13.0,1.359927470534905,82,81,Piano
13.0,1.359927470534905,60,50,Piano
13.0,1.359927470534905,63,50,Piano
13.0,1.359927470534905,67,50,Piano
15.0,1.172529313232831,73,78,Piano
15.0,1.172529313232831,70,78,Piano
15.0,1.172529313232831,80,78,Piano
15.0,1.172529313232831,77,78,Piano
15.0,1.340033500837521,58,50,Piano
15.0,1.340033500837521,61,50,Piano
15.0,1.340033500837521,65,50,Piano
17.0,1.359927470534905,75,84,Piano
17.0,1.359927470534905,72,84,Piano
17.0,1.359927470534905,79,82,Piano
17.0,1.359927470534905,68,82,Piano
17.0,1.359927470534905,56,50,Piano
17.0,1.359927470534905,60,50,Piano
17.0,1.359927470534905,63,50,Piano
19.0,1.359927470534905,80,82,Piano
19.0,1.359927470534905,73,82,Piano
19.0,1.359927470534905,70,77,Piano
19.0,1.359927470534905,77,77,Piano
19.0,1.359927470534905,58,50,Piano
19.0,1.359927470534905,61,50,Piano
19.0,1.359927470534905,65,50,Piano
21.0,1.359927470534905,82,87,Piano
21.0,1.359927470534905,75,87,Piano
21.0,1.359927470534905,79,87,Piano
21.0,1.359927470534905,60,50,Piano
21.0,1.359927470534905,63,50,Piano
21.0,1.359927470534905,67,50,Piano
23.0,6.799637352674525,70,83,Piano
23.0,6.799637352674525,73,83,Piano
23.0,6.799637352674525,80,83,Piano
23.0,6.799637352674525,77,83,Piano
23.0,6.799637352674525,58,50,Piano
23.0,6.799637352674525,61,50,Piano
23.0,6.799637352674525,65,50,Piano
33.0,1.340033500837521,63,77,Piano
33.0,1.340033500837521,55,77,Piano
33.0,1.340033500837521,58,77,Piano
33.0,1.340033500837521,60,77,Piano
33.0,1.340033500837521,51,77,Piano
33.0,1.340033500837521,44,77,Piano
33.0,1.340033500837521,56,50,Piano
33.0,1.340033500837521,60,50,Piano
33.0,1.340033500837521,63,50,Piano
35.0,1.359927470534905,46,77,Piano
35.0,1.359927470534905,53,77,Piano
35.0,1.359927470534905,61,77,Piano
35.0,1.359927470534905,56,77,Piano
35.0,1.359927470534905,60,78,Piano
35.0,1.359927470534905,65,78,Piano
35.0,1.359927470534905,58,50,Piano
35.0,1.359927470534905,61,50,Piano
35.0,1.359927470534905,65,50,Piano
37.0,1.359927470534905,58,77,Piano
37.0,1.359927470534905,67,77,Piano
37.0,1.359927470534905,60,77,Piano
37.0,1.359927470534905,63,77,Piano
37.0,1.359927470534905,55,77,Piano
37.0,1.359927470534905,60,50,Piano
37.0,1.359927470534905,63,50,Piano
37.0,1.359927470534905,67,50,Piano
39.0,1.340033500837521,53,79,Piano
39.0,1.340033500837521,57,79,Piano
39.0,1.340033500837521,63,79,Piano
39.0,1.340033500837521,66,79,Piano
39.0,1.340033500837521,41,77,Piano
39.0,1.340033500837521,60,77,Piano
39.0,1.340033500837521,60,50,Piano
39.0,1.340033500837521,63,50,Piano
39.0,1.340033500837521,65,50,Piano
41.0,1.359927470534905,60,76,Piano
41.0,1.359927470534905,56,76,Piano
41.0,1.359927470534905,65,76,Piano
41.0,1.359927470534905,61,76,Piano
41.0,1.359927470534905,46,80,Piano
41.0,1.359927470534905,53,80,Piano
41.0,1.359927470534905,58,50,Piano
41.0,1.359927470534905,61,50,Piano
41.0,1.359927470534905,65,50,Piano
43.0,1.189936536718042,51,79,Piano
43.0,1.189936536718042,58,79,Piano
43.0,0.6799637352674525,63,85,Piano
43.0,0.6799637352674525,67,85,Piano
43.0,0.6799637352674525,63,50,Piano
43.0,0.6799637352674525,67,50,Piano
44.0,0.6899724011039559,49,86,Piano
44.0,0.6899724011039559,65,86,Piano
44.0,0.6899724011039559,58,50,Piano
44.0,0.6899724011039559,65,50,Piano
45.0,1.340033500837521,63,80,Piano
45.0,1.340033500837521,58,80,Piano
45.0,1.340033500837521,55,80,Piano
45.0,1.340033500837521,60,50,Piano
45.0,1.340033500837521,63,50,Piano
45.0,1.340033500837521,67,50,Piano
47.0,1.359927470534905,56,79,Piano
47.0,1.359927470534905,53,79,Piano
47.0,1.359927470534905,41,79,Piano
47.0,1.359927470534905,67,79,Piano
47.0,1.359927470534905,63,79,Piano
47.0,1.359927470534905,60,79,Piano
47.0,1.359927470534905,60,50,Piano
47.0,1.359927470534905,63,50,Piano
47.0,1.359927470534905,65,50,Piano
49.0,1.172529313232831,56,81,Piano
49.0,1.172529313232831,65,81,Piano
49.0,1.172529313232831,61,81,Piano
49.0,1.172529313232831,60,81,Piano
49.0,1.340033500837521,58,50,Piano
49.0,1.340033500837521,61,50,Piano
49.0,1.340033500837521,65,50,Piano
51.0,0.6799637352674525,61,82,Piano
51.0,0.6799637352674525,65,82,Piano
51.0,0.6799637352674525,43,82,Piano
51.0,0.6799637352674525,58,50,Piano
51.0,0.6799637352674525,61,50,Piano
51.0,0.6799637352674525,67,50,Piano
52.0,0.6799637352674525,60,82,Piano
52.0,0.6799637352674525,64,82,Piano
52.0,0.6799637352674525,58,50,Piano
52.0,0.6799637352674525,60,50,Piano
52.0,0.6799637352674525,64,50,Piano
53.0,1.359927470534905,56,82,Piano
53.0,1.359927470534905,67,82,Piano
53.0,1.359927470534905,63,82,Piano
53.0,1.359927470534905,60,82,Piano
53.0,1.359927470534905,53,82,Piano
53.0,1.359927470534905,41,82,Piano
53.0,2.71985494106981,60,50,Piano
53.0,2.71985494106981,63,50,Piano
53.0,2.71985494106981,65,50,Piano
55.0,1.189936536718042,56,81,Piano
55.0,1.189936536718042,65,81,Piano
55.0,1.189936536718042,60,81,Piano
55.0,1.189936536718042,51,81,Piano
55.0,1.189936536718042,39,81,Piano
57.0,1.340033500837521,56,79,Piano
57.0,1.340033500837521,65,79,Piano
57.0,1.340033500837521,58,79,Piano
57.0,2.680067001675042,38,82,Piano
57.0,2.680067001675042,50,82,Piano
57.0,1.340033500837521,58,50,Piano
57.0,1.340033500837521,61,50,Piano
57.0,1.340033500837521,65,50,Piano
59.0,0.6799637352674525,58,50,Piano
59.0,0.6799637352674525,67,50,Piano
60.0,0.6799637352674525,65,82,Piano
60.0,0.6799637352674525,56,82,Piano
60.0,0.6799637352674525,56,50,Piano
60.0,0.6799637352674525,65,50,Piano
61.0,1.359927470534905,56,80,Piano
61.0,1.359927470534905,65,80,Piano
61.0,1.359927470534905,61,80,Piano
61.0,2.71985494106981,39,82,Piano
61.0,2.71985494106981,51,82,Piano
61.0,1.359927470534905,61,50,Piano
61.0,1.359927470534905,65,50,Piano
61.0,1.359927470534905,68,50,Piano
63.0,0.6799637352674525,63,81,Piano
63.0,0.6799637352674525,55,81,Piano
63.0,0.6799637352674525,60,81,Piano
63.0,0.6799637352674525,60,50,Piano
63.0,0.6799637352674525,63,50,Piano
63.0,0.6799637352674525,67,50,Piano
64.0,0.6899724011039559,58,50,Piano
64.0,0.6899724011039559,61,50,Piano
64.0,0.6899724011039559,65,50,Piano
65.0,1.340033500837521,63,72,Piano
65.0,1.340033500837521,55,72,Piano
65.0,1.340033500837521,60,72,Piano
65.0,1.340033500837521,58,72,Piano
65.0,1.340033500837521,44,72,Piano
65.0,1.340033500837521,51,72,Piano
65.0,1.340033500837521,56,50,Piano
65.0,1.340033500837521,60,50,Piano
65.0,1.340033500837521,63,50,Piano
67.0,1.340033500837521,46,75,Piano
67.0,1.340033500837521,53,75,Piano
67.0,1.340033500837521,65,75,Piano
67.0,1.340033500837521,56,75,Piano
67.0,1.340033500837521,61,75,Piano
67.0,1.340033500837521,60,75,Piano
67.0,1.340033500837521,58,50,Piano
67.0,1.340033500837521,61,50,Piano
67.0,1.340033500837521,65,50,Piano
69.0,1.359927470534905,67,74,Piano
69.0,1.359927470534905,60,74,Piano
69.0,1.359927470534905,48,74,Piano
69.0,1.189936536718042,58,75,Piano
69.0,1.189936536718042,63,75,Piano
69.0,1.189936536718042,55,75,Piano
69.0,1.359927470534905,60,50,Piano
69.0,1.359927470534905,63,50,Piano
69.0,1.359927470534905,67,50,Piano
71.0,1.359927470534905,53,74,Piano
71.0,1.359927470534905,41,74,Piano
71.0,1.359927470534905,57,74,Piano
71.0,1.359927470534905,60,74,Piano
71.0,1.359927470534905,66,77,Piano
71.0,1.359927470534905,57,77,Piano
71.0,1.359927470534905,63,77,Piano
71.0,1.359927470534905,60,77,Piano
71.0,1.359927470534905,60,50,Piano
71.0,1.359927470534905,63,50,Piano
71.0,1.359927470534905,65,50,Piano
73.0,1.340033500837521,56,76,Piano
73.0,1.340033500837521,65,76,Piano
73.0,1.340033500837521,61,76,Piano
73.0,1.340033500837521,60,76,Piano
73.0,1.340033500837521,46,76,Piano
73.0,1.340033500837521,53,76,Piano
73.0,1.340033500837521,58,50,Piano
73.0,1.340033500837521,61,50,Piano
73.0,1.340033500837521,65,50,Piano
75.0,0.6799637352674525,51,81,Piano
75.0,0.6799637352674525,67,81,Piano
75.0,0.6799637352674525,63,81,Piano
75.0,0.6799637352674525,63,50,Piano
75.0,0.6799637352674525,67,50,Piano
76.0,0.6799637352674525,49,83,Piano
76.0,0.6799637352674525,65,83,Piano
76.0,0.6799637352674525,58,50,Piano
76.0,0.6799637352674525,65,50,Piano
77.0,1.359927470534905,58,79,Piano
77.0,1.359927470534905,63,79,Piano
77.0,1.359927470534905,48,79,Piano
77.0,1.359927470534905,55,70,Piano
77.0,1.359927470534905,48,70,Piano
77.0,1.359927470534905,60,50,Piano
77.0,1.359927470534905,63,50,Piano
77.0,1.359927470534905,67,50,Piano
79.0,1.340033500837521,53,72,Piano
79.0,1.340033500837521,56,72,Piano
79.0,1.340033500837521,41,75,Piano
79.0,1.340033500837521,56,75,Piano
79.0,1.340033500837521,67,75,Piano
79.0,1.340033500837521,63,75,Piano
79.0,1.340033500837521,60,75,Piano
79.0,1.340033500837521,60,50,Piano
79.0,1.340033500837521,63,50,Piano
79.0,1.340033500837521,65,50,Piano
81.0,1.359927470534905,65,75,Piano
81.0,1.359927470534905,56,75,Piano
81.0,1.359927470534905,61,75,Piano
81.0,1.359927470534905,60,75,Piano
81.0,1.359927470534905,46,75,Piano
81.0,1.359927470534905,58,50,Piano
81.0,1.359927470534905,61,50,Piano
81.0,1.359927470534905,65,50,Piano
83.0,1.359927470534905,39,77,Piano
83.0,1.359927470534905,65,77,Piano
83.0,1.359927470534905,61,77,Piano
83.0,1.359927470534905,55,78,Piano
83.0,1.359927470534905,65,78,Piano
83.0,1.359927470534905,60,78,Piano
83.0,1.359927470534905,58,50,Piano
83.0,1.359927470534905,63,50,Piano
83.0,1.359927470534905,67,50,Piano
85.0,1.359927470534905,63,74,Piano
85.0,1.359927470534905,55,74,Piano
85.0,1.359927470534905,60,74,Piano
85.0,1.359927470534905,58,74,Piano
85.0,1.359927470534905,56,50,Piano
85.0,1.359927470534905,60,50,Piano
85.0,1.359927470534905,63,50,Piano
87.0,1.359927470534905,41,74,Piano
87.0,1.359927470534905,60,74,Piano
87.0,1.359927470534905,56,78,Piano
87.0,1.359927470534905,63,78,Piano
87.0,1.359927470534905,60,50,Piano
87.0,1.359927470534905,63,50,Piano
87.0,1.359927470534905,65,50,Piano
89.0,1.340033500837521,65,78,Piano
89.0,1.340033500837521,56,78,Piano
89.0,1.340033500837521,60,78,Piano
89.0,1.340033500837521,46,78,Piano
89.0,1.340033500837521,61,72,Piano
89.0,1.340033500837521,60,72,Piano
89.0,1.340033500837521,58,50,Piano
89.0,1.340033500837521,61,50,Piano
89.0,1.340033500837521,65,50,Piano
91.0,1.340033500837521,49,75,Piano
91.0,1.340033500837521,64,75,Piano
91.0,1.340033500837521,56,75,Piano
91.0,1.340033500837521,61,50,Piano
91.0,1.340033500837521,64,50,Piano
91.0,1.340033500837521,68,50,Piano
93.0,2.71985494106981,63,78,Piano
93.0,2.71985494106981,60,78,Piano
93.0,2.71985494106981,44,78,Piano
93.0,2.5498640072529466,55,63,Piano
93.0,2.5498640072529466,60,63,Piano
93.0,2.5498640072529466,58,63,Piano
93.0,2.71985494106981,51,76,Piano
93.0,2.71985494106981,44,76,Piano
93.0,2.71985494106981,56,50,Piano
93.0,2.71985494106981,60,50,Piano
93.0,2.71985494106981,63,50,Piano
97.0,0.33998186763372623,56,73,Piano
97.0,0.33998186763372623,63,73,Piano
97.0,0.33998186763372623,60,73,Piano
97.0,0.0,36,84,Piano
97.0,0.0,42,84,Piano
97.0,2.71985494106981,58,50,Piano
97.0,2.71985494106981,61,50,Piano
97.0,2.71985494106981,65,50,Piano
98.0,0.33998186763372623,56,71,Piano
98.0,0.33998186763372623,60,71,Piano
98.0,0.33998186763372623,63,71,Piano
99.0,0.33998186763372623,56,66,Piano
99.0,0.33998186763372623,60,66,Piano
99.0,0.33998186763372623,63,71,Piano
99.0,0.33998186763372623,60,71,Piano
99.0,0.0,40,71,Piano
99.0,0.0,42,71,Piano
100.0,0.34498620055197793,60,73,Piano
100.0,0.34498620055197793,63,73,Piano
100.5,0.0,36,42,Piano
100.5,0.0,42,42,Piano
101.0,0.33500837520938026,58,82,Piano
101.0,0.33500837520938026,63,82,Piano
101.0,0.0,36,84,Piano
101.0,0.0,42,84,Piano
101.0,2.680067001675042,60,50,Piano
101.0,2.680067001675042,63,50,Piano
101.0,2.680067001675042,67,50,Piano
102.0,0.34498620055197793,63,82,Piano
102.0,0.34498620055197793,58,82,Piano
103.0,0.33998186763372623,63,82,Piano
103.0,0.33998186763372623,58,82,Piano
103.0,0.0,40,71,Piano
103.0,0.0,42,71,Piano
104.0,0.33998186763372623,63,83,Piano
104.0,0.33998186763372623,58,83,Piano
104.5,0.0,42,42,Piano
104.5,0.0,36,42,Piano
105.0,0.33998186763372623,63,78,Piano
105.0,0.33998186763372623,58,78,Piano
105.0,0.33998186763372623,61,78,Piano
105.0,0.0,36,84,Piano
105.0,0.0,42,84,Piano
105.0,2.71985494106981,58,50,Piano
105.0,2.71985494106981,61,50,Piano
105.0,2.71985494106981,65,50,Piano
106.0,0.34498620055197793,58,76,Piano
106.0,0.34498620055197793,61,76,Piano
106.0,0.34498620055197793,63,76,Piano
107.0,0.33500837520938026,63,81,Piano
107.0,0.33500837520938026,58,81,Piano
107.0,0.33500837520938026,61,81,Piano
107.0,0.0,40,71,Piano
107.0,0.0,42,71,Piano
108.0,0.34498620055197793,63,80,Piano
108.0,0.34498620055197793,61,80,Piano
108.5,0.0,42,42,Piano
108.5,0.0,36,42,Piano
109.0,0.33998186763372623,65,83,Piano
109.0,0.33998186763372623,61,83,Piano
109.0,0.0,36,84,Piano
109.0,0.0,42,84,Piano
109.0,1.359927470534905,58,50,Piano
109.0,1.359927470534905,61,50,Piano
109.0,1.359927470534905,65,50,Piano
110.0,0.33998186763372623,61,82,Piano
110.0,0.33998186763372623,65,82,Piano
111.0,0.6799637352674525,64,83,Piano
111.0,0.6799637352674525,48,83,Piano
111.0,0.0,40,71,Piano
111.0,0.0,42,71,Piano
111.0,1.359927470534905,58,50,Piano
111.0,1.359927470534905,60,50,Piano
111.0,1.359927470534905,64,50,Piano
112.0,0.34498620055197793,65,75,Piano
112.0,0.34498620055197793,50,75,Piano
112.5,0.34498620055197793,67,76,Piano
112.5,0.34498620055197793,52,76,Piano
113.0,0.0,36,73,Piano
113.0,0.0,49,73,Piano
113.0,0.0,44,73,Piano
113.0,2.71985494106981,60,50,Piano
113.0,2.71985494106981,65,50,Piano
113.0,2.71985494106981,68,50,Piano
114.0,0.6799637352674525,68,78,Piano
114.0,0.6799637352674525,65,78,Piano
114.0,0.6799637352674525,84,60,Piano
114.0,0.6799637352674525,77,60,Piano
115.0,0.0,36,63,Piano
115.0,0.0,42,63,Piano
116.0,0.6799637352674525,84,61,Piano
116.0,0.6799637352674525,77,61,Piano
117.0,0.0,36,63,Piano
117.0,0.0,42,63,Piano
117.0,1.359927470534905,61,50,Piano
117.0,1.359927470534905,65,50,Piano
117.0,1.359927470534905,68,50,Piano
118.0,0.6899724011039559,65,78,Piano
118.0,0.6899724011039559,60,78,Piano
118.0,0.6899724011039559,84,64,Piano
118.0,0.6899724011039559,77,64,Piano
119.0,0.6799637352674525,58,76,Piano
119.0,0.6799637352674525,48,76,Piano
119.0,0.6799637352674525,82,66,Piano
119.0,0.6799637352674525,75,66,Piano
119.0,0.0,36,63,Piano
119.0,0.0,42,63,Piano
119.0,0.6799637352674525,60,50,Piano
119.0,0.6799637352674525,63,50,Piano
120.0,0.6799637352674525,56,72,Piano
120.0,0.6799637352674525,53,72,Piano
120.0,0.6799637352674525,75,60,Piano
120.0,0.6799637352674525,68,60,Piano
120.0,0.6799637352674525,60,50,Piano
120.0,0.6799637352674525,65,50,Piano
121.0,2.71985494106981,56,75,Piano
121.0,2.71985494106981,65,75,Piano
121.0,2.71985494106981,58,75,Piano
121.0,2.71985494106981,61,75,Piano
121.0,2.71985494106981,42,70,Piano
121.0,2.71985494106981,58,70,Piano
121.0,2.71985494106981,49,70,Piano
121.0,2.71985494106981,61,70,Piano
121.0,1.359927470534905,80,67,Piano
121.0,1.359927470534905,73,67,Piano
121.0,0.0,36,77,Piano
121.0,0.0,49,77,Piano
121.0,2.71985494106981,58,50,Piano
121.0,2.71985494106981,61,50,Piano
121.0,2.71985494106981,66,50,Piano
123.0,0.6799637352674525,70,73,Piano
123.0,0.6799637352674525,77,73,Piano
123.0,0.0,36,77,Piano
123.0,0.0,57,77,Piano
124.0,0.6899724011039559,66,68,Piano
124.0,0.6899724011039559,73,68,Piano
125.0,2.680067001675042,39,82,Piano
125.0,2.680067001675042,51,82,Piano
125.0,2.0100502512562817,70,58,Piano
125.0,2.0100502512562817,63,58,Piano
125.0,0.0,36,77,Piano
125.0,0.0,49,77,Piano
125.0,2.680067001675042,61,50,Piano
125.0,2.680067001675042,65,50,Piano
125.0,2.680067001675042,68,50,Piano
126.0,0.6899724011039559,56,79,Piano
126.0,0.6899724011039559,61,79,Piano
126.0,0.6899724011039559,65,79,Piano
126.5,0.0,48,85,Piano
126.5,0.0,48,85,Piano
127.0,0.6799637352674525,63,75,Piano
127.0,0.6799637352674525,60,75,Piano
127.0,0.6799637352674525,55,75,Piano
128.0,0.6899724011039559,61,76,Piano
128.0,0.6899724011039559,53,76,Piano
129.0,0.33500837520938026,56,70,Piano
129.0,0.33500837520938026,63,70,Piano
129.0,0.33500837520938026,60,70,Piano
129.0,0.0,36,84,Piano
129.0,0.0,42,84,Piano
129.0,2.680067001675042,61,50,Piano
129.0,2.680067001675042,65,50,Piano
129.0,2.680067001675042,68,50,Piano
130.0,0.34498620055197793,56,71,Piano
130.0,0.34498620055197793,63,71,Piano
130.0,0.34498620055197793,60,71,Piano
131.0,0.33998186763372623,56,71,Piano
131.0,0.33998186763372623,63,71,Piano
131.0,0.33998186763372623,60,71,Piano
131.0,0.0,40,71,Piano
131.0,0.0,42,71,Piano
132.0,0.4533091568449683,56,73,Piano
132.0,0.4533091568449683,60,73,Piano
132.0,0.4533091568449683,63,73,Piano
132.5,0.0,36,42,Piano
132.5,0.0,42,42,Piano
133.0,0.4533091568449683,58,74,Piano
133.0,0.4533091568449683,60,74,Piano
133.0,0.4533091568449683,63,74,Piano
133.0,0.0,36,84,Piano
133.0,0.0,42,84,Piano
133.0,1.359927470534905,60,50,Piano
133.0,1.359927470534905,63,50,Piano
133.0,1.359927470534905,68,50,Piano
134.0,0.33998186763372623,58,76,Piano
134.0,0.33998186763372623,63,76,Piano
135.0,0.6899724011039559,60,82,Piano
135.0,0.6899724011039559,64,82,Piano
135.0,1.3799448022079117,58,74,Piano
135.0,1.3799448022079117,43,74,Piano
135.0,0.0,40,71,Piano
135.0,0.0,42,71,Piano
135.0,1.3799448022079117,60,50,Piano
135.0,1.3799448022079117,64,50,Piano
135.0,1.3799448022079117,67,50,Piano
136.0,0.33998186763372623,65,80,Piano
136.0,0.33998186763372623,62,80,Piano
136.5,0.33998186763372623,64,80,Piano
136.5,0.33998186763372623,67,80,Piano
136.5,0.0,36,42,Piano
136.5,0.0,42,42,Piano
137.0,0.0,36,73,Piano
137.0,0.0,49,73,Piano
137.0,0.0,44,73,Piano
137.0,1.359927470534905,60,50,Piano
137.0,1.359927470534905,65,50,Piano
137.0,1.359927470534905,68,50,Piano
138.0,0.5099728014505893,68,77,Piano
138.0,0.5099728014505893,65,77,Piano
139.0,0.0,36,63,Piano
139.0,0.0,42,63,Piano
139.0,1.359927470534905,60,50,Piano
139.0,1.359927470534905,63,50,Piano
139.0,1.359927470534905,67,50,Piano
140.0,0.6799637352674525,67,75,Piano
140.0,0.6799637352674525,60,75,Piano
141.0,0.0,36,63,Piano
141.0,0.0,42,63,Piano
141.0,2.71985494106981,61,50,Piano
141.0,2.71985494106981,65,50,Piano
141.0,2.71985494106981,68,50,Piano
143.0,1.0199456029011786,72,78,Piano
143.0,1.0199456029011786,65,78,Piano
145.0,0.0,36,77,Piano
145.0,0.0,57,77,Piano
145.0,2.71985494106981,60,50,Piano
145.0,2.71985494106981,63,50,Piano
145.0,2.71985494106981,67,50,Piano
149.0,0.893355667225014,67,77,Piano
149.0,0.893355667225014,63,77,Piano
149.0,0.893355667225014,41,77,Piano
149.0,0.893355667225014,56,88,Piano
149.0,0.893355667225014,51,88,Piano
149.0,0.893355667225014,60,88,Piano
149.0,0.893355667225014,41,88,Piano
149.0,0.0,36,77,Piano
149.0,0.0,57,77,Piano
149.0,2.680067001675042,60,50,Piano
149.0,2.680067001675042,63,50,Piano
149.0,2.680067001675042,65,50,Piano
149.0,0.893355667225014,56,84,Piano
149.0,0.893355667225014,51,84,Piano
149.0,0.893355667225014,60,84,Piano
149.0,0.893355667225014,41,84,Piano
150.5,1.6999093381686312,68,73,Piano
150.5,1.6999093381686312,60,73,Piano
150.5,1.6999093381686312,53,73,Piano
150.5,1.5865820489573892,63,71,Piano
150.5,1.5865820489573892,60,71,Piano
150.5,1.5865820489573892,53,71,Piano
150.5,1.5865820489573892,56,88,Piano
150.5,1.5865820489573892,60,88,Piano
150.5,1.5865820489573892,51,88,Piano
150.5,1.5865820489573892,41,88,Piano
150.5,0.0,36,70,Piano
150.5,0.0,49,70,Piano
150.5,1.5865820489573892,56,83,Piano
150.5,1.5865820489573892,60,83,Piano
150.5,1.5865820489573892,51,83,Piano
150.5,1.5865820489573892,41,83,Piano
152.0,0.0,45,71,Piano
152.0,0.0,48,71,Piano
153.0,1.0050251256281408,56,81,Piano
153.0,1.0050251256281408,65,81,Piano
153.0,1.0050251256281408,46,81,Piano
153.0,1.0050251256281408,61,81,Piano
153.0,0.893355667225014,56,91,Piano
153.0,0.893355667225014,61,91,Piano
153.0,0.893355667225014,46,91,Piano
153.0,0.893355667225014,53,91,Piano
153.0,0.0,36,77,Piano
153.0,0.0,57,77,Piano
153.0,2.680067001675042,58,50,Piano
153.0,2.680067001675042,61,50,Piano
153.0,2.680067001675042,65,50,Piano
153.0,0.893355667225014,56,86,Piano
153.0,0.893355667225014,61,86,Piano
153.0,0.893355667225014,46,86,Piano
153.0,0.893355667225014,53,86,Piano
154.5,1.5865820489573892,56,83,Piano
154.5,1.5865820489573892,65,83,Piano
154.5,1.5865820489573892,61,83,Piano
154.5,1.529918404351768,61,84,Piano
154.5,1.529918404351768,56,84,Piano
154.5,1.529918404351768,46,84,Piano
154.5,0.0,36,70,Piano
154.5,0.0,49,70,Piano
154.5,1.529918404351768,61,79,Piano
154.5,1.529918404351768,56,79,Piano
154.5,1.529918404351768,46,79,Piano
157.0,2.5498640072529466,37,80,Piano
157.0,2.5498640072529466,64,80,Piano
157.0,2.5498640072529466,56,75,Piano
157.0,2.5498640072529466,49,75,Piano
157.0,0.0,36,77,Piano
157.0,0.0,57,77,Piano
157.0,2.71985494106981,60,50,Piano
157.0,2.71985494106981,64,50,Piano
157.0,2.71985494106981,68,50,Piano
161.0,2.5498640072529466,53,75,Piano
161.0,2.5498640072529466,58,75,Piano
161.0,2.5498640072529466,63,75,Piano
161.0,2.5498640072529466,51,75,Piano
161.0,2.5498640072529466,44,75,Piano
161.0,2.5498640072529466,60,75,Piano
161.0,0.0,36,77,Piano
161.0,0.0,49,77,Piano
161.0,2.71985494106981,60,50,Piano
161.0,2.71985494106981,63,50,Piano
161.0,2.71985494106981,68,50,Piano
165.0,1.359927470534905,79,82,Piano
165.0,1.359927470534905,72,82,Piano
165.0,0.0,36,77,Piano
165.0,0.0,57,77,Piano
165.0,1.359927470534905,56,50,Piano
165.0,1.359927470534905,60,50,Piano
165.0,1.359927470534905,63,50,Piano
167.0,1.359927470534905,80,79,Piano
167.0,1.359927470534905,73,79,Piano
167.0,1.359927470534905,77,79,Piano
167.0,1.359927470534905,70,79,Piano
167.0,0.0,36,77,Piano
167.0,0.0,42,77,Piano
167.0,1.359927470534905,58,50,Piano
167.0,1.359927470534905,61,50,Piano
167.0,1.359927470534905,65,50,Piano
169.0,1.359927470534905,72,81,Piano
169.0,1.359927470534905,79,81,Piano
169.0,1.359927470534905,82,81,Piano
169.0,1.359927470534905,75,81,Piano
169.0,1.359927470534905,79,81,Piano
169.0,1.359927470534905,82,81,Piano
169.0,0.0,36,77,Piano
169.0,0.0,42,77,Piano
169.0,1.359927470534905,60,50,Piano
169.0,1.359927470534905,63,50,Piano
169.0,1.359927470534905,67,50,Piano
171.0,1.340033500837521,73,78,Piano
171.0,1.340033500837521,70,78,Piano
171.0,1.340033500837521,80,78,Piano
171.0,1.340033500837521,77,78,Piano
171.0,0.0,36,77,Piano
171.0,0.0,42,77,Piano
171.0,1.340033500837521,58,50,Piano
171.0,1.340033500837521,61,50,Piano
171.0,1.340033500837521,65,50,Piano
173.0,1.359927470534905,75,84,Piano
173.0,1.359927470534905,72,84,Piano
173.0,1.359927470534905,79,82,Piano
173.0,1.359927470534905,68,82,Piano
173.0,0.0,36,77,Piano
173.0,0.0,42,77,Piano
173.0,1.359927470534905,56,50,Piano
173.0,1.359927470534905,60,50,Piano
173.0,1.359927470534905,63,50,Piano
175.0,1.189936536718042,80,82,Piano
175.0,1.189936536718042,73,82,Piano
175.0,1.359927470534905,70,77,Piano
175.0,1.359927470534905,73,77,Piano
175.0,1.359927470534905,77,77,Piano
175.0,0.0,36,77,Piano
175.0,0.0,42,77,Piano
175.0,1.359927470534905,58,50,Piano
175.0,1.359927470534905,61,50,Piano
175.0,1.359927470534905,65,50,Piano
177.0,1.340033500837521,82,87,Piano
177.0,1.340033500837521,75,87,Piano
177.0,1.340033500837521,79,87,Piano
177.0,0.0,36,77,Piano
177.0,0.0,42,77,Piano
177.0,1.340033500837521,60,50,Piano
177.0,1.340033500837521,63,50,Piano
177.0,1.340033500837521,67,50,Piano
179.0,5.609700815956483,70,83,Piano
179.0,5.609700815956483,73,83,Piano
179.0,5.609700815956483,80,83,Piano
179.0,5.609700815956483,77,83,Piano
179.0,6.799637352674525,46,87,Piano
179.0,6.799637352674525,53,87,Piano
179.0,6.629646418857662,61,96,Piano
179.0,6.629646418857662,68,96,Piano
179.0,0.0,36,63,Piano
179.0,0.0,49,63,Piano
179.0,0.0,57,63,Piano
179.0,5.609700815956483,58,50,Piano
179.0,5.609700815956483,61,50,Piano
179.0,5.609700815956483,65,50,Piano
179.0,6.799637352674525,46,82,Piano
179.0,6.799637352674525,53,82,Piano
179.0,6.629646418857662,61,91,Piano
179.0,6.629646418857662,68,91,Piano
189.0,1.359927470534905,63,60,Piano
189.0,1.359927470534905,60,60,Piano
189.0,0.0,36,77,Piano
189.0,0.0,42,77,Piano
189.0,1.359927470534905,56,50,Piano
189.0,1.359927470534905,60,50,Piano
189.0,1.359927470534905,63,50,Piano
190.0,0.8499546690843156,63,73,Piano
190.0,0.8499546690843156,58,73,Piano
190.0,0.0,42,85,Piano
190.0,0.0,40,85,Piano
190.5,0.0,36,42,Piano
190.5,0.0,42,42,Piano
191.0,1.359927470534905,65,59,Piano
191.0,1.359927470534905,61,59,Piano
191.0,0.0,36,77,Piano
191.0,0.0,42,77,Piano
191.0,1.359927470534905,58,50,Piano
191.0,1.359927470534905,61,50,Piano
191.0,1.359927470534905,65,50,Piano
192.0,0.6799637352674525,65,61,Piano
192.0,0.6799637352674525,61,61,Piano
192.0,0.6799637352674525,60,61,Piano
192.0,0.0,42,85,Piano
192.0,0.0,40,85,Piano
193.0,1.359927470534905,63,59,Piano
193.0,1.359927470534905,67,59,Piano
193.0,0.0,36,77,Piano
193.0,0.0,42,77,Piano
193.0,1.359927470534905,60,50,Piano
193.0,1.359927470534905,63,50,Piano
193.0,1.359927470534905,67,50,Piano
194.0,0.8624655013799448,67,66,Piano
194.0,0.8624655013799448,63,66,Piano
194.0,0.8624655013799448,60,66,Piano
194.0,0.0,42,85,Piano
194.0,0.0,40,85,Piano
194.5,0.0,36,42,Piano
194.5,0.0,42,42,Piano
195.0,1.359927470534905,66,56,Piano
195.0,1.359927470534905,63,56,Piano
195.0,0.0,36,77,Piano
195.0,0.0,42,77,Piano
195.0,1.359927470534905,60,50,Piano
195.0,1.359927470534905,63,50,Piano
195.0,1.359927470534905,65,50,Piano
196.0,0.6799637352674525,63,67,Piano
196.0,0.6799637352674525,66,67,Piano
196.0,0.6799637352674525,60,67,Piano
196.0,0.0,40,85,Piano
196.0,0.0,42,85,Piano
197.0,1.359927470534905,65,58,Piano
197.0,1.359927470534905,61,58,Piano
197.0,0.0,36,77,Piano
197.0,0.0,42,77,Piano
197.0,1.359927470534905,58,50,Piano
197.0,1.359927470534905,61,50,Piano
197.0,1.359927470534905,65,50,Piano
198.0,0.6899724011039559,65,68,Piano
198.0,0.6899724011039559,61,68,Piano
198.0,0.6899724011039559,60,68,Piano
198.0,0.0,42,85,Piano
198.0,0.0,40,85,Piano
198.5,0.0,36,42,Piano
198.5,0.0,42,42,Piano
199.0,0.6799637352674525,67,75,Piano
199.0,0.6799637352674525,63,75,Piano
199.0,0.6799637352674525,51,75,Piano
199.0,1.359927470534905,67,61,Piano
199.0,1.359927470534905,63,61,Piano
199.0,0.0,36,77,Piano
199.0,0.0,42,77,Piano
199.0,1.359927470534905,58,50,Piano
199.0,1.359927470534905,63,50,Piano
199.0,1.359927470534905,67,50,Piano
200.0,0.6799637352674525,49,72,Piano
200.0,0.6799637352674525,65,72,Piano
200.0,0.0,40,85,Piano
200.0,0.0,42,85,Piano
201.0,1.359927470534905,63,62,Piano
201.0,1.359927470534905,58,62,Piano
201.0,0.0,36,77,Piano
201.0,0.0,42,77,Piano
201.0,1.359927470534905,60,50,Piano
201.0,1.359927470534905,63,50,Piano
201.0,1.359927470534905,67,50,Piano
202.0,0.6799637352674525,63,70,Piano
202.0,0.6799637352674525,58,70,Piano
202.0,0.0,42,85,Piano
202.0,0.0,40,85,Piano
202.5,0.0,36,42,Piano
202.5,0.0,42,42,Piano
203.0,1.359927470534905,63,62,Piano
203.0,1.359927470534905,56,62,Piano
203.0,0.0,36,77,Piano
203.0,0.0,42,77,Piano
203.0,1.359927470534905,60,50,Piano
203.0,1.359927470534905,63,50,Piano
203.0,1.359927470534905,65,50,Piano
204.0,0.6899724011039559,63,68,Piano
204.0,0.6899724011039559,67,68,Piano
204.0,0.6899724011039559,60,68,Piano
205.0,2.0100502512562817,65,66,Piano
205.0,2.0100502512562817,61,66,Piano
205.0,0.0,36,77,Piano
205.0,0.0,42,77,Piano
205.0,1.340033500837521,58,50,Piano
205.0,1.340033500837521,61,50,Piano
205.0,1.340033500837521,65,50,Piano
206.0,0.6899724011039559,65,73,Piano
206.0,0.6899724011039559,61,73,Piano
206.0,0.6899724011039559,60,73,Piano
206.0,0.0,42,85,Piano
206.0,0.0,40,85,Piano
206.5,0.0,42,42,Piano
206.5,0.0,36,42,Piano
207.0,0.6799637352674525,43,86,Piano
207.0,0.6799637352674525,49,86,Piano
207.0,0.6799637352674525,58,94,Piano
207.0,0.6799637352674525,64,94,Piano
207.0,0.0,36,77,Piano
207.0,0.0,42,77,Piano
207.0,0.6799637352674525,58,50,Piano
207.0,0.6799637352674525,61,50,Piano
207.0,0.6799637352674525,65,50,Piano
207.0,0.6799637352674525,43,81,Piano
207.0,0.6799637352674525,49,81,Piano
207.0,0.6799637352674525,58,88,Piano
207.0,0.6799637352674525,64,88,Piano
208.0,0.6799637352674525,64,70,Piano
208.0,0.6799637352674525,60,70,Piano
208.0,0.6799637352674525,48,76,Piano
208.0,0.6799637352674525,52,76,Piano
208.0,0.6799637352674525,58,84,Piano
208.0,0.6799637352674525,60,84,Piano
208.0,0.6799637352674525,60,61,Piano
208.0,0.6799637352674525,64,61,Piano
208.0,0.0,42,85,Piano
208.0,0.0,40,85,Piano
208.0,0.6799637352674525,60,50,Piano
208.0,0.6799637352674525,64,50,Piano
208.0,0.6799637352674525,67,50,Piano
208.0,0.6799637352674525,48,71,Piano
208.0,0.6799637352674525,52,71,Piano
208.0,0.6799637352674525,58,79,Piano
208.0,0.6799637352674525,60,79,Piano
209.0,1.189936536718042,53,78,Piano
209.0,1.189936536718042,41,78,Piano
209.0,1.359927470534905,63,60,Piano
209.0,1.359927470534905,60,60,Piano
209.0,0.0,36,77,Piano
209.0,0.0,42,77,Piano
209.0,2.71985494106981,60,50,Piano
209.0,2.71985494106981,63,50,Piano
209.0,2.71985494106981,65,50,Piano
210.0,0.0,42,85,Piano
210.0,0.0,40,85,Piano
210.5,0.0,36,42,Piano
210.5,0.0,42,42,Piano
211.0,1.340033500837521,56,56,Piano
211.0,1.340033500837521,60,56,Piano
211.0,0.0,36,77,Piano
211.0,0.0,42,77,Piano
212.0,0.6899724011039559,65,78,Piano
212.0,0.6899724011039559,60,78,Piano
212.0,0.0,42,85,Piano
212.0,0.0,40,85,Piano
213.0,2.71985494106981,50,75,Piano
213.0,2.71985494106981,38,75,Piano
213.0,0.6799637352674525,58,62,Piano
213.0,0.6799637352674525,62,62,Piano
213.0,0.0,36,77,Piano
213.0,0.0,42,77,Piano
213.0,2.71985494106981,58,50,Piano
213.0,2.71985494106981,62,50,Piano
213.0,2.71985494106981,65,50,Piano
214.0,0.6799637352674525,65,64,Piano
214.0,0.6799637352674525,62,64,Piano
214.0,0.0,42,85,Piano
214.0,0.0,40,85,Piano
214.5,0.0,36,42,Piano
214.5,0.0,42,42,Piano
215.0,0.6799637352674525,70,67,Piano
215.0,0.6799637352674525,67,67,Piano
215.0,0.0,36,77,Piano
215.0,0.0,42,77,Piano
216.0,0.5174793008279669,65,76,Piano
216.0,0.5174793008279669,56,76,Piano
216.0,0.6899724011039559,68,66,Piano
216.0,0.6899724011039559,65,66,Piano
216.0,0.0,42,85,Piano
216.0,0.0,40,85,Piano
217.0,2.680067001675042,39,79,Piano
217.0,2.680067001675042,51,79,Piano
217.0,1.340033500837521,68,69,Piano
217.0,1.340033500837521,65,69,Piano
217.0,0.0,36,77,Piano
217.0,0.0,42,77,Piano
217.0,2.680067001675042,61,50,Piano
217.0,2.680067001675042,65,50,Piano
217.0,2.680067001675042,68,50,Piano
218.0,0.0,42,85,Piano
218.0,0.0,40,85,Piano
218.5,0.0,36,42,Piano
218.5,0.0,42,42,Piano
219.0,0.5099728014505893,55,77,Piano
219.0,0.5099728014505893,63,77,Piano
219.0,0.5099728014505893,60,77,Piano
219.0,0.5099728014505893,55,81,Piano
219.0,0.5099728014505893,58,81,Piano
219.0,0.6799637352674525,63,64,Piano
219.0,0.6799637352674525,67,64,Piano
219.0,0.0,36,77,Piano
219.0,0.0,42,77,Piano
219.0,0.5099728014505893,55,76,Piano
219.0,0.5099728014505893,58,76,Piano
220.0,0.6899724011039559,53,71,Piano
220.0,0.6899724011039559,58,71,Piano
220.0,0.6899724011039559,61,71,Piano
220.0,0.6899724011039559,51,76,Piano
220.0,0.6899724011039559,58,76,Piano
220.0,0.6899724011039559,51,71,Piano
220.0,0.6899724011039559,58,71,Piano
221.0,1.340033500837521,63,58,Piano
221.0,1.340033500837521,60,58,Piano
221.0,0.0,36,63,Piano
221.0,0.0,42,63,Piano
221.0,1.340033500837521,56,50,Piano
221.0,1.340033500837521,60,50,Piano
221.0,1.340033500837521,63,50,Piano
222.0,0.8624655013799448,63,73,Piano
222.0,0.8624655013799448,58,73,Piano
222.0,0.0,42,85,Piano
222.0,0.0,40,85,Piano
222.5,0.0,36,42,Piano
222.5,0.0,42,42,Piano
223.0,1.359927470534905,65,56,Piano
223.0,1.359927470534905,61,56,Piano
223.0,0.0,36,77,Piano
223.0,0.0,42,77,Piano
223.0,1.359927470534905,58,50,Piano
223.0,1.359927470534905,61,50,Piano
223.0,1.359927470534905,65,50,Piano
224.0,0.6799637352674525,65,61,Piano
224.0,0.6799637352674525,61,61,Piano
224.0,0.6799637352674525,60,61,Piano
224.0,0.0,42,85,Piano
224.0,0.0,40,85,Piano
225.0,1.359927470534905,63,60,Piano
225.0,1.359927470534905,67,60,Piano
225.0,0.0,36,77,Piano
225.0,0.0,42,77,Piano
225.0,1.359927470534905,60,50,Piano
225.0,1.359927470534905,63,50,Piano
225.0,1.359927470534905,67,50,Piano
226.0,0.8499546690843156,67,66,Piano
226.0,0.8499546690843156,63,66,Piano
226.0,0.8499546690843156,60,66,Piano
226.0,0.0,42,85,Piano
226.0,0.0,40,85,Piano
226.5,0.0,36,42,Piano
226.5,0.0,42,42,Piano
227.0,1.359927470534905,63,60,Piano
227.0,1.359927470534905,66,60,Piano
227.0,0.0,36,77,Piano
227.0,0.0,42,77,Piano
227.0,1.359927470534905,60,50,Piano
227.0,1.359927470534905,63,50,Piano
227.0,1.359927470534905,65,50,Piano
228.0,0.6899724011039559,63,67,Piano
228.0,0.6899724011039559,66,67,Piano
228.0,0.6899724011039559,60,67,Piano
228.0,0.0,42,85,Piano
228.0,0.0,40,85,Piano
229.0,1.340033500837521,61,60,Piano
229.0,1.340033500837521,65,60,Piano
229.0,0.0,36,77,Piano
229.0,0.0,42,77,Piano
229.0,1.340033500837521,58,50,Piano
229.0,1.340033500837521,61,50,Piano
229.0,1.340033500837521,65,50,Piano
230.0,0.6899724011039559,65,68,Piano
230.0,0.6899724011039559,61,68,Piano
230.0,0.6899724011039559,60,68,Piano
230.0,0.0,42,85,Piano
230.0,0.0,40,85,Piano
230.5,0.0,36,42,Piano
230.5,0.0,42,42,Piano
231.0,1.359927470534905,58,76,Piano
231.0,1.359927470534905,63,76,Piano
231.0,0.6799637352674525,67,74,Piano
231.0,0.6799637352674525,51,74,Piano
231.0,1.359927470534905,67,64,Piano
231.0,1.359927470534905,63,64,Piano
231.0,0.0,36,77,Piano
231.0,0.0,42,77,Piano
231.0,1.359927470534905,58,50,Piano
231.0,1.359927470534905,63,50,Piano
231.0,1.359927470534905,67,50,Piano
232.0,0.6799637352674525,49,72,Piano
232.0,0.6799637352674525,65,72,Piano
232.0,0.0,42,85,Piano
232.0,0.0,40,85,Piano
233.0,1.359927470534905,63,63,Piano
233.0,1.359927470534905,58,63,Piano
233.0,0.0,36,77,Piano
233.0,0.0,42,77,Piano
233.0,1.359927470534905,60,50,Piano
233.0,1.359927470534905,63,50,Piano
233.0,1.359927470534905,67,50,Piano
234.0,0.6899724011039559,63,70,Piano
234.0,0.6899724011039559,58,70,Piano
234.0,0.0,42,85,Piano
234.0,0.0,40,85,Piano
234.5,0.0,36,42,Piano
234.5,0.0,42,42,Piano
235.0,1.359927470534905,56,59,Piano
235.0,1.359927470534905,63,59,Piano
235.0,0.0,36,77,Piano
235.0,0.0,42,77,Piano
235.0,1.359927470534905,60,50,Piano
235.0,1.359927470534905,63,50,Piano
235.0,1.359927470534905,65,50,Piano
236.0,0.6799637352674525,63,68,Piano
236.0,0.6799637352674525,67,68,Piano
236.0,0.6799637352674525,60,68,Piano
237.0,1.359927470534905,61,62,Piano
237.0,1.359927470534905,65,62,Piano
237.0,0.0,36,77,Piano
237.0,0.0,42,77,Piano
237.0,1.359927470534905,58,50,Piano
237.0,1.359927470534905,61,50,Piano
237.0,1.359927470534905,65,50,Piano
238.0,0.8499546690843156,65,66,Piano
238.0,0.8499546690843156,61,66,Piano
238.0,0.0,42,85,Piano
238.0,0.0,40,85,Piano
238.5,0.0,36,42,Piano
238.5,0.0,42,42,Piano
239.0,1.359927470534905,63,65,Piano
239.0,1.359927470534905,67,65,Piano
239.0,0.0,36,77,Piano
239.0,0.0,42,77,Piano
239.0,1.359927470534905,58,50,Piano
239.0,1.359927470534905,63,50,Piano
239.0,1.359927470534905,67,50,Piano
240.0,0.6899724011039559,63,65,Piano
240.0,0.6899724011039559,58,65,Piano
240.0,0.6899724011039559,61,65,Piano
240.0,0.0,40,85,Piano
240.0,0.0,42,85,Piano
241.0,1.359927470534905,63,66,Piano
241.0,1.359927470534905,60,66,Piano
241.0,0.0,36,77,Piano
241.0,0.0,42,77,Piano
241.0,1.359927470534905,60,50,Piano
241.0,1.359927470534905,63,50,Piano
241.0,1.359927470534905,68,50,Piano
242.0,0.6799637352674525,63,66,Piano
242.0,0.6799637352674525,58,66,Piano
242.0,0.0,42,85,Piano
242.0,0.0,40,85,Piano
242.5,0.0,42,42,Piano
242.5,0.0,36,42,Piano
243.0,1.359927470534905,63,68,Piano
243.0,1.359927470534905,68,68,Piano
243.0,0.0,36,77,Piano
243.0,0.0,42,77,Piano
243.0,1.359927470534905,60,50,Piano
243.0,1.359927470534905,63,50,Piano
243.0,1.359927470534905,65,50,Piano
244.0,0.6799637352674525,63,70,Piano
244.0,0.6799637352674525,60,70,Piano
244.0,0.0,42,85,Piano
244.0,0.0,40,85,Piano
245.0,1.359927470534905,61,67,Piano
245.0,1.359927470534905,65,67,Piano
245.0,0.0,36,77,Piano
245.0,0.0,42,77,Piano
245.0,1.359927470534905,58,50,Piano
245.0,1.359927470534905,61,50,Piano
245.0,1.359927470534905,65,50,Piano
246.0,0.6899724011039559,65,65,Piano
246.0,0.6899724011039559,61,65,Piano
246.0,0.0,42,85,Piano
246.0,0.0,40,85,Piano
246.5,0.0,42,42,Piano
246.5,0.0,36,42,Piano
247.0,1.340033500837521,56,66,Piano
247.0,1.340033500837521,64,66,Piano
247.0,1.340033500837521,49,66,Piano
247.0,1.340033500837521,58,60,Piano
247.0,1.340033500837521,64,60,Piano
247.0,0.0,36,77,Piano
247.0,0.0,42,77,Piano
247.0,1.340033500837521,56,50,Piano
247.0,1.340033500837521,60,50,Piano
247.0,1.340033500837521,64,50,Piano
248.0,0.0,42,85,Piano
248.0,0.0,40,85,Piano
249.0,2.71985494106981,63,60,Piano
249.0,2.71985494106981,60,60,Piano
249.0,0.0,36,77,Piano
249.0,0.0,42,77,Piano
249.0,2.71985494106981,56,50,Piano
249.0,2.71985494106981,60,50,Piano
249.0,2.71985494106981,63,50,Piano
251.0,0.0,36,70,Piano
251.0,0.0,57,70,Piano
253.0,0.33998186763372623,56,73,Piano
253.0,0.33998186763372623,63,73,Piano
253.0,0.33998186763372623,60,73,Piano
253.0,0.0,36,84,Piano
253.0,0.0,42,84,Piano
253.0,2.71985494106981,58,50,Piano
253.0,2.71985494106981,61,50,Piano
253.0,2.71985494106981,65,50,Piano
254.0,0.33998186763372623,56,71,Piano
254.0,0.33998186763372623,60,71,Piano
254.0,0.33998186763372623,63,71,Piano
255.0,0.33998186763372623,56,66,Piano
255.0,0.33998186763372623,60,66,Piano
255.0,0.33998186763372623,63,71,Piano
255.0,0.33998186763372623,60,71,Piano
255.0,0.0,40,71,Piano
255.0,0.0,42,71,Piano
256.0,0.33998186763372623,60,73,Piano
256.0,0.33998186763372623,63,73,Piano
256.5,0.0,36,42,Piano
256.5,0.0,42,42,Piano
257.0,0.33998186763372623,58,82,Piano
257.0,0.33998186763372623,63,82,Piano
257.0,0.0,36,84,Piano
257.0,0.0,42,84,Piano
257.0,2.71985494106981,60,50,Piano
257.0,2.71985494106981,63,50,Piano
257.0,2.71985494106981,67,50,Piano
258.0,0.33998186763372623,63,82,Piano
258.0,0.33998186763372623,58,82,Piano
259.0,0.34498620055197793,63,82,Piano
259.0,0.34498620055197793,58,82,Piano
259.0,0.0,40,71,Piano
259.0,0.0,42,71,Piano
260.0,0.33998186763372623,63,83,Piano
260.0,0.33998186763372623,58,83,Piano
261.0,0.33998186763372623,63,78,Piano
261.0,0.33998186763372623,58,78,Piano
261.0,0.33998186763372623,61,78,Piano
261.0,0.0,36,84,Piano
261.0,0.0,42,84,Piano
261.0,2.71985494106981,58,50,Piano
261.0,2.71985494106981,61,50,Piano
261.0,2.71985494106981,65,50,Piano
262.0,0.34498620055197793,58,76,Piano
262.0,0.34498620055197793,61,76,Piano
262.0,0.34498620055197793,63,76,Piano
263.0,0.33500837520938026,63,81,Piano
263.0,0.33500837520938026,58,81,Piano
263.0,0.33500837520938026,61,81,Piano
263.0,0.0,40,71,Piano
263.0,0.0,42,71,Piano
264.0,0.34498620055197793,63,80,Piano
264.0,0.34498620055197793,61,80,Piano
264.5,0.0,36,42,Piano
264.5,0.0,42,42,Piano
265.0,0.33998186763372623,65,83,Piano
265.0,0.33998186763372623,61,83,Piano
265.0,0.0,36,84,Piano
265.0,0.0,42,84,Piano
265.0,1.359927470534905,58,50,Piano
265.0,1.359927470534905,61,50,Piano
265.0,1.359927470534905,65,50,Piano
266.0,0.33998186763372623,61,82,Piano
266.0,0.33998186763372623,65,82,Piano
267.0,0.6799637352674525,64,83,Piano
267.0,0.6799637352674525,48,83,Piano
267.0,0.0,40,71,Piano
267.0,0.0,42,71,Piano
267.0,1.359927470534905,58,50,Piano
267.0,1.359927470534905,60,50,Piano
267.0,1.359927470534905,64,50,Piano
268.0,0.34498620055197793,65,75,Piano
268.0,0.34498620055197793,50,75,Piano
268.5,0.34498620055197793,67,76,Piano
268.5,0.34498620055197793,52,76,Piano
269.0,0.0,36,73,Piano
269.0,0.0,49,73,Piano
269.0,0.0,44,73,Piano
269.0,2.71985494106981,60,50,Piano
269.0,2.71985494106981,65,50,Piano
269.0,2.71985494106981,68,50,Piano
270.0,0.6799637352674525,68,78,Piano
270.0,0.6799637352674525,65,78,Piano
270.0,0.6799637352674525,84,60,Piano
270.0,0.6799637352674525,77,60,Piano
271.0,0.0,36,63,Piano
271.0,0.0,42,63,Piano
272.0,0.6799637352674525,84,61,Piano
272.0,0.6799637352674525,77,61,Piano
273.0,0.0,36,63,Piano
273.0,0.0,42,63,Piano
273.0,1.359927470534905,61,50,Piano
273.0,1.359927470534905,65,50,Piano
273.0,1.359927470534905,68,50,Piano
274.0,0.6899724011039559,65,78,Piano
274.0,0.6899724011039559,60,78,Piano
274.0,0.6899724011039559,84,64,Piano
274.0,0.6899724011039559,77,64,Piano
275.0,0.6799637352674525,58,76,Piano
275.0,0.6799637352674525,48,76,Piano
275.0,0.6799637352674525,82,66,Piano
275.0,0.6799637352674525,75,66,Piano
275.0,0.0,36,63,Piano
275.0,0.0,42,63,Piano
275.0,0.6799637352674525,60,50,Piano
275.0,0.6799637352674525,63,50,Piano
276.0,0.6799637352674525,56,72,Piano
276.0,0.6799637352674525,53,72,Piano
276.0,0.6799637352674525,75,60,Piano
276.0,0.6799637352674525,68,60,Piano
276.0,0.6799637352674525,60,50,Piano
276.0,0.6799637352674525,65,50,Piano
277.0,2.680067001675042,56,75,Piano
277.0,2.680067001675042,65,75,Piano
277.0,2.680067001675042,58,75,Piano
277.0,2.680067001675042,61,75,Piano
277.0,2.680067001675042,42,70,Piano
277.0,2.680067001675042,58,70,Piano
277.0,2.680067001675042,49,70,Piano
277.0,2.680067001675042,61,70,Piano
277.0,1.340033500837521,80,67,Piano
277.0,1.340033500837521,73,67,Piano
277.0,0.0,36,70,Piano
277.0,0.0,49,70,Piano
277.0,2.680067001675042,58,50,Piano
277.0,2.680067001675042,61,50,Piano
277.0,2.680067001675042,66,50,Piano
279.0,0.6799637352674525,70,73,Piano
279.0,0.6799637352674525,77,73,Piano
279.0,0.0,36,77,Piano
279.0,0.0,57,77,Piano
280.0,0.6899724011039559,66,68,Piano
280.0,0.6899724011039559,73,68,Piano
281.0,2.680067001675042,39,82,Piano
281.0,2.680067001675042,51,82,Piano
281.0,2.0100502512562817,70,58,Piano
281.0,2.0100502512562817,63,58,Piano
281.0,0.0,36,77,Piano
281.0,0.0,49,77,Piano
281.0,2.680067001675042,61,50,Piano
281.0,2.680067001675042,65,50,Piano
281.0,2.680067001675042,68,50,Piano
282.0,0.6899724011039559,56,79,Piano
282.0,0.6899724011039559,61,79,Piano
282.0,0.6899724011039559,65,79,Piano
283.0,0.6799637352674525,63,75,Piano
283.0,0.6799637352674525,60,75,Piano
283.0,0.6799637352674525,55,75,Piano
284.0,0.6799637352674525,61,76,Piano
284.0,0.6799637352674525,53,76,Piano
285.0,0.33998186763372623,56,70,Piano
285.0,0.33998186763372623,63,70,Piano
285.0,0.33998186763372623,60,70,Piano
285.0,0.0,36,77,Piano
285.0,0.0,42,77,Piano
285.0,2.71985494106981,61,50,Piano
285.0,2.71985494106981,65,50,Piano
285.0,2.71985494106981,68,50,Piano
286.0,0.33998186763372623,56,71,Piano
286.0,0.33998186763372623,63,71,Piano
286.0,0.33998186763372623,60,71,Piano
287.0,0.33998186763372623,56,71,Piano
287.0,0.33998186763372623,63,71,Piano
287.0,0.33998186763372623,60,71,Piano
287.0,0.0,40,71,Piano
287.0,0.0,42,71,Piano
288.0,0.45998160073597055,56,73,Piano
288.0,0.45998160073597055,60,73,Piano
288.0,0.45998160073597055,63,73,Piano
288.5,0.0,36,42,Piano
288.5,0.0,42,42,Piano
289.0,0.4533091568449683,58,74,Piano
289.0,0.4533091568449683,60,74,Piano
289.0,0.4533091568449683,63,74,Piano
289.0,0.0,36,91,Piano
289.0,0.0,42,91,Piano
289.0,1.359927470534905,60,50,Piano
289.0,1.359927470534905,63,50,Piano
289.0,1.359927470534905,68,50,Piano
290.0,0.33998186763372623,58,76,Piano
290.0,0.33998186763372623,63,76,Piano
291.0,0.6799637352674525,60,82,Piano
291.0,0.6799637352674525,64,82,Piano
291.0,1.359927470534905,58,74,Piano
291.0,1.359927470534905,43,74,Piano
291.0,0.0,40,71,Piano
291.0,0.0,42,71,Piano
291.0,1.359927470534905,60,50,Piano
291.0,1.359927470534905,64,50,Piano
291.0,1.359927470534905,67,50,Piano
292.0,0.34498620055197793,65,80,Piano
292.0,0.34498620055197793,62,80,Piano
292.5,0.34498620055197793,64,80,Piano
292.5,0.34498620055197793,67,80,Piano
293.0,0.0,36,73,Piano
293.0,0.0,49,73,Piano
293.0,0.0,44,73,Piano
293.0,1.359927470534905,60,50,Piano
293.0,1.359927470534905,65,50,Piano
293.0,1.359927470534905,68,50,Piano
294.0,0.5099728014505893,68,77,Piano
294.0,0.5099728014505893,65,77,Piano
295.0,0.0,36,63,Piano
295.0,0.0,42,63,Piano
295.0,1.359927470534905,60,50,Piano
295.0,1.359927470534905,63,50,Piano
295.0,1.359927470534905,67,50,Piano
296.0,0.6799637352674525,67,75,Piano
296.0,0.6799637352674525,60,75,Piano
297.0,0.0,36,63,Piano
297.0,0.0,42,63,Piano
297.0,2.71985494106981,61,50,Piano
297.0,2.71985494106981,65,50,Piano
297.0,2.71985494106981,68,50,Piano
299.0,1.0349586016559338,72,78,Piano
299.0,1.0349586016559338,65,78,Piano
301.0,0.0,36,77,Piano
301.0,0.0,57,77,Piano
301.0,2.71985494106981,60,50,Piano
301.0,2.71985494106981,63,50,Piano
301.0,2.71985494106981,67,50,Piano
305.0,0.893355667225014,67,77,Piano
305.0,0.893355667225014,63,77,Piano
305.0,0.893355667225014,41,77,Piano
305.0,0.0,36,77,Piano
305.0,0.0,57,77,Piano
305.0,2.680067001675042,60,50,Piano
305.0,2.680067001675042,63,50,Piano
305.0,2.680067001675042,65,50,Piano
306.5,1.6999093381686312,68,73,Piano
306.5,1.6999093381686312,60,73,Piano
306.5,1.6999093381686312,53,73,Piano
306.5,1.5865820489573892,63,71,Piano
306.5,1.5865820489573892,60,71,Piano
306.5,1.5865820489573892,53,71,Piano
306.5,0.0,36,70,Piano
306.5,0.0,49,70,Piano
308.0,0.0,45,71,Piano
308.0,0.0,48,71,Piano
309.0,1.0199456029011786,56,81,Piano
309.0,1.0199456029011786,65,81,Piano
309.0,1.0199456029011786,46,81,Piano
309.0,1.0199456029011786,61,81,Piano
309.0,0.0,36,77,Piano
309.0,0.0,57,77,Piano
309.0,2.71985494106981,58,50,Piano
309.0,2.71985494106981,61,50,Piano
309.0,2.71985494106981,65,50,Piano
310.0,0.6799637352674525,41,71,Piano
310.0,0.6799637352674525,41,71,Piano
310.5,1.5865820489573892,56,83,Piano
310.5,1.5865820489573892,65,83,Piano
310.5,1.5865820489573892,61,83,Piano
310.5,0.0,36,70,Piano
310.5,0.0,49,70,Piano
313.0,2.71985494106981,56,70,Piano
313.0,2.71985494106981,64,70,Piano
313.0,2.71985494106981,37,70,Piano
313.0,2.71985494106981,49,70,Piano
313.0,0.0,36,77,Piano
313.0,0.0,57,77,Piano
313.0,2.71985494106981,60,50,Piano
313.0,2.71985494106981,64,50,Piano
313.0,2.71985494106981,68,50,Piano
317.0,1.172529313232831,58,68,Piano
317.0,1.172529313232831,55,68,Piano
317.0,0.0,36,73,Piano
317.0,0.0,49,73,Piano
317.0,0.0,44,73,Piano
317.0,2.680067001675042,60,50,Piano
317.0,2.680067001675042,63,50,Piano
317.0,2.680067001675042,67,50,Piano
319.0,1.359927470534905,58,74,Piano
319.0,1.359927470534905,67,74,Piano
319.0,1.359927470534905,63,74,Piano
319.0,0.0,36,77,Piano
319.0,0.0,44,77,Piano
321.0,0.6700167504187605,58,76,Piano
321.0,0.6700167504187605,67,76,Piano
321.0,0.0,36,77,Piano
321.0,0.0,44,77,Piano
321.0,2.680067001675042,60,50,Piano
321.0,2.680067001675042,63,50,Piano
321.0,2.680067001675042,65,50,Piano
322.0,0.5099728014505893,68,71,Piano
322.0,0.5099728014505893,60,71,Piano
323.0,1.3799448022079117,56,65,Piano
323.0,1.3799448022079117,63,65,Piano
323.0,1.3799448022079117,60,65,Piano
323.0,0.0,36,73,Piano
323.0,0.0,49,73,Piano
323.0,0.0,44,73,Piano
325.0,2.71985494106981,56,76,Piano
325.0,2.71985494106981,46,76,Piano
325.0,2.5498640072529466,61,60,Piano
325.0,2.5498640072529466,60,60,Piano
325.0,0.9066183136899366,46,87,Piano
325.0,0.9066183136899366,53,87,Piano
325.0,0.9066183136899366,56,86,Piano
325.0,0.9066183136899366,61,86,Piano
325.0,0.0,36,77,Piano
325.0,0.0,57,77,Piano
325.0,2.71985494106981,58,50,Piano
325.0,2.71985494106981,61,50,Piano
325.0,2.71985494106981,65,50,Piano
325.0,0.9066183136899366,46,82,Piano
325.0,0.9066183136899366,53,82,Piano
325.0,0.9066183136899366,56,81,Piano
325.0,0.9066183136899366,61,81,Piano
326.0,0.6799637352674525,41,71,Piano
326.0,0.6799637352674525,41,71,Piano
326.5,1.529918404351768,46,94,Piano
326.5,1.529918404351768,53,94,Piano
326.5,0.0,36,77,Piano
326.5,0.0,49,77,Piano
326.5,1.529918404351768,46,89,Piano
326.5,1.529918404351768,53,89,Piano
329.0,2.680067001675042,56,69,Piano
329.0,2.680067001675042,64,69,Piano
329.0,0.0,36,84,Piano
329.0,0.0,49,84,Piano
329.0,2.680067001675042,61,50,Piano
329.0,2.680067001675042,64,50,Piano
329.0,2.680067001675042,68,50,Piano
333.0,1.340033500837521,76,68,Piano
333.0,1.340033500837521,65,68,Piano
333.0,1.340033500837521,72,68,Piano
333.0,1.340033500837521,57,50,Piano
333.0,1.340033500837521,60,50,Piano
333.0,1.340033500837521,65,50,Piano
335.0,1.359927470534905,70,69,Piano
335.0,1.359927470534905,74,69,Piano
335.0,1.359927470534905,67,66,Piano
335.0,1.359927470534905,74,66,Piano
335.0,1.359927470534905,58,50,Piano
335.0,1.359927470534905,62,50,Piano
335.0,1.359927470534905,67,50,Piano
337.0,1.359927470534905,72,67,Piano
337.0,1.359927470534905,69,67,Piano
337.0,1.359927470534905,76,67,Piano
337.0,1.359927470534905,60,50,Piano
337.0,1.359927470534905,64,50,Piano
337.0,1.359927470534905,67,50,Piano
339.0,1.359927470534905,77,70,Piano
339.0,1.359927470534905,70,70,Piano
339.0,1.359927470534905,74,70,Piano
339.0,1.359927470534905,58,50,Piano
339.0,1.359927470534905,62,50,Piano
339.0,1.359927470534905,67,50,Piano
341.0,1.359927470534905,72,64,Piano
341.0,1.359927470534905,65,64,Piano
341.0,1.359927470534905,76,64,Piano
341.0,1.359927470534905,57,50,Piano
341.0,1.359927470534905,60,50,Piano
341.0,1.359927470534905,65,50,Piano
343.0,1.359927470534905,67,69,Piano
343.0,1.359927470534905,74,69,Piano
343.0,1.359927470534905,70,69,Piano
343.0,1.359927470534905,77,67,Piano
343.0,1.359927470534905,70,67,Piano
343.0,1.359927470534905,58,50,Piano
343.0,1.359927470534905,62,50,Piano
343.0,1.359927470534905,67,50,Piano
345.0,1.359927470534905,79,66,Piano
345.0,1.359927470534905,72,66,Piano
345.0,1.359927470534905,76,64,Piano
345.0,1.359927470534905,69,64,Piano
345.0,1.359927470534905,72,64,Piano
345.0,1.359927470534905,60,50,Piano
345.0,1.359927470534905,64,50,Piano
345.0,1.359927470534905,67,50,Piano
347.0,1.359927470534905,67,64,Piano
347.0,1.359927470534905,74,64,Piano
347.0,1.359927470534905,77,66,Piano
347.0,1.359927470534905,70,66,Piano
347.0,1.359927470534905,58,50,Piano
347.0,1.359927470534905,62,50,Piano
347.0,1.359927470534905,67,50,Piano
349.0,1.359927470534905,72,64,Piano
349.0,1.359927470534905,65,64,Piano
349.0,1.359927470534905,76,64,Piano
349.0,1.359927470534905,57,50,Piano
349.0,1.359927470534905,60,50,Piano
349.0,1.359927470534905,65,50,Piano
351.0,1.359927470534905,67,69,Piano
351.0,1.359927470534905,74,69,Piano
351.0,1.359927470534905,70,69,Piano
351.0,1.189936536718042,77,67,Piano
351.0,1.189936536718042,70,67,Piano
351.0,1.359927470534905,58,50,Piano
351.0,1.359927470534905,62,50,Piano
351.0,1.359927470534905,67,50,Piano
353.0,1.359927470534905,79,66,Piano
353.0,1.359927470534905,72,66,Piano
353.0,1.359927470534905,76,64,Piano
353.0,1.359927470534905,69,64,Piano
353.0,1.359927470534905,72,64,Piano
353.0,1.359927470534905,60,50,Piano
353.0,1.359927470534905,64,50,Piano
353.0,1.359927470534905,67,50,Piano
355.0,1.359927470534905,67,64,Piano
355.0,1.359927470534905,74,64,Piano
355.0,1.359927470534905,77,66,Piano
355.0,1.359927470534905,70,66,Piano
355.0,1.359927470534905,58,50,Piano
355.0,1.359927470534905,62,50,Piano
355.0,1.359927470534905,67,50,Piano
357.0,1.359927470534905,72,64,Piano
357.0,1.359927470534905,65,64,Piano
357.0,1.359927470534905,76,64,Piano
357.0,1.359927470534905,57,50,Piano
357.0,1.359927470534905,60,50,Piano
357.0,1.359927470534905,65,50,Piano
359.0,1.359927470534905,67,69,Piano
359.0,1.359927470534905,74,69,Piano
359.0,1.359927470534905,70,69,Piano
359.0,1.359927470534905,77,67,Piano
359.0,1.359927470534905,70,67,Piano
359.0,1.359927470534905,58,50,Piano
359.0,1.359927470534905,62,50,Piano
359.0,1.359927470534905,67,50,Piano
361.0,1.359927470534905,79,66,Piano
361.0,1.359927470534905,72,66,Piano
361.0,1.359927470534905,76,64,Piano
361.0,1.359927470534905,69,64,Piano
361.0,1.359927470534905,72,64,Piano
361.0,1.359927470534905,60,50,Piano
361.0,1.359927470534905,64,50,Piano
361.0,1.359927470534905,67,50,Piano
363.0,1.359927470534905,67,64,Piano
363.0,1.359927470534905,74,64,Piano
363.0,1.359927470534905,77,66,Piano
363.0,1.359927470534905,70,66,Piano
363.0,1.359927470534905,58,50,Piano
363.0,1.359927470534905,62,50,Piano
363.0,1.359927470534905,67,50,Piano
365.0,1.359927470534905,72,64,Piano
365.0,1.359927470534905,65,64,Piano
365.0,1.359927470534905,76,64,Piano
365.0,1.359927470534905,57,50,Piano
365.0,1.359927470534905,60,50,Piano
365.0,1.359927470534905,65,50,Piano
367.0,1.359927470534905,67,69,Piano
367.0,1.359927470534905,74,69,Piano
367.0,1.359927470534905,70,69,Piano
367.0,1.359927470534905,77,67,Piano
367.0,1.359927470534905,70,67,Piano
367.0,1.359927470534905,58,50,Piano
367.0,1.359927470534905,62,50,Piano
367.0,1.359927470534905,67,50,Piano
369.0,1.359927470534905,79,66,Piano
369.0,1.359927470534905,72,66,Piano
369.0,1.359927470534905,76,64,Piano
369.0,1.359927470534905,69,64,Piano
369.0,1.359927470534905,72,64,Piano
369.0,1.359927470534905,60,50,Piano
369.0,1.359927470534905,64,50,Piano
369.0,1.359927470534905,67,50,Piano
371.0,1.359927470534905,67,64,Piano
371.0,1.359927470534905,74,64,Piano
371.0,1.359927470534905,77,66,Piano
371.0,1.359927470534905,70,66,Piano
371.0,1.359927470534905,58,50,Piano
371.0,1.359927470534905,62,50,Piano
371.0,1.359927470534905,67,50,Piano
