Start,Duration,Pitch,Velocity,Instrument
5.0,2.5674786043449638,83,101,Piano
5.0,2.5674786043449638,76,101,Piano
5.0,2.5674786043449638,86,101,Piano
13.0,2.7649769585253456,64,94,Piano
13.0,2.7649769585253456,74,94,Piano
13.0,2.7649769585253456,71,94,Piano
17.0,6.319947333772219,46,91,Piano
17.0,6.319947333772219,57,91,Piano
17.0,2.5674786043449638,72,95,Piano
17.0,2.5674786043449638,65,95,Piano
17.0,2.5674786043449638,64,92,Piano
17.0,2.5674786043449638,65,92,Piano
17.0,6.319947333772219,53,96,Piano
17.0,6.319947333772219,57,96,Piano
17.0,6.319947333772219,60,96,Piano
17.0,6.319947333772219,64,96,Piano
17.0,6.319947333772219,53,80,Piano
17.0,6.319947333772219,64,80,Piano
17.0,6.319947333772219,46,80,Piano
17.0,6.319947333772219,57,80,Piano
17.0,6.319947333772219,53,60,Piano
17.0,6.319947333772219,64,60,Piano
17.0,6.319947333772219,46,60,Piano
17.0,6.319947333772219,57,60,Piano
17.0,0.0,49,78,Piano
17.0,0.0,36,78,Piano
25.0,0.5924950625411455,88,100,Piano
25.0,0.5924950625411455,81,100,Piano
29.0,0.5924950625411455,84,103,Piano
29.0,0.5924950625411455,77,103,Piano
29.0,1.184990125082291,62,80,Piano
29.0,1.184990125082291,69,80,Piano
30.0,0.39499670836076367,77,84,Piano
30.0,0.39499670836076367,72,84,Piano
31.0,0.7899934167215273,71,89,Piano
31.0,0.7899934167215273,55,89,Piano
32.0,0.39499670836076367,72,90,Piano
32.0,0.39499670836076367,57,90,Piano
34.5,0.39499670836076367,74,90,Piano
34.5,0.39499670836076367,71,90,Piano
35.0,0.7899934167215273,76,86,Piano
35.0,0.7899934167215273,69,86,Piano
36.0,0.5924950625411455,72,91,Piano
36.0,0.5924950625411455,79,91,Piano
37.0,1.184990125082291,78,98,Piano
37.0,1.184990125082291,72,98,Piano
40.0,0.19749835418038184,71,87,Piano
40.0,0.19749835418038184,79,87,Piano
40.0,0.19749835418038184,76,87,Piano
40.5,0.19749835418038184,69,87,Piano
40.5,0.19749835418038184,74,87,Piano
40.5,0.19749835418038184,77,87,Piano
41.0,1.184990125082291,76,92,Piano
41.0,1.184990125082291,67,92,Piano
41.0,1.184990125082291,72,92,Piano
41.0,1.184990125082291,60,92,Piano
41.0,0.0,36,85,Piano
41.0,0.0,42,85,Piano
42.0,0.0,37,64,Piano
42.0,0.0,42,64,Piano
43.0,1.184990125082291,74,88,Piano
43.0,1.184990125082291,58,88,Piano
43.0,1.3824884792626728,64,87,Piano
43.0,1.3824884792626728,48,87,Piano
43.0,1.3824884792626728,69,87,Piano
43.0,0.0,36,78,Piano
43.0,0.0,42,78,Piano
44.0,0.7899934167215273,58,91,Piano
44.0,0.7899934167215273,60,91,Piano
44.0,0.7899934167215273,64,91,Piano
44.0,0.0,37,64,Piano
44.0,0.0,42,64,Piano
45.0,1.184990125082291,72,88,Piano
45.0,1.184990125082291,57,88,Piano
45.0,1.184990125082291,64,88,Piano
45.0,0.0,36,85,Piano
45.0,0.0,42,85,Piano
46.0,0.0,37,64,Piano
46.0,0.0,42,64,Piano
47.0,0.5266622778143515,62,87,Piano
47.0,0.5266622778143515,52,87,Piano
47.0,0.5266622778143515,59,87,Piano
47.0,0.0,36,78,Piano
47.0,0.0,42,78,Piano
48.0,0.39499670836076367,57,92,Piano
48.0,0.39499670836076367,66,92,Piano
48.0,0.39499670836076367,51,92,Piano
48.0,0.7899934167215273,57,88,Piano
48.0,0.7899934167215273,60,88,Piano
48.0,0.0,37,64,Piano
48.0,0.0,42,64,Piano
49.0,1.184990125082291,50,87,Piano
49.0,1.184990125082291,57,87,Piano
49.0,1.3824884792626728,65,92,Piano
49.0,1.3824884792626728,60,92,Piano
49.0,0.0,36,92,Piano
49.0,0.0,51,92,Piano
51.0,0.9874917709019092,56,88,Piano
51.0,0.9874917709019092,49,88,Piano
51.0,0.9874917709019092,60,88,Piano
51.0,0.0,36,71,Piano
51.0,0.0,49,71,Piano
52.0,0.7899934167215273,61,93,Piano
52.0,0.7899934167215273,65,93,Piano
53.0,2.9624753127057275,62,81,Piano
53.0,2.9624753127057275,55,81,Piano
53.0,2.9624753127057275,48,81,Piano
53.0,0.0,36,85,Piano
53.0,0.0,42,85,Piano
54.0,0.0,37,64,Piano
54.0,0.0,42,64,Piano
55.0,1.3824884792626728,55,88,Piano
55.0,1.3824884792626728,64,88,Piano
55.0,1.316655694535879,60,83,Piano
55.0,1.316655694535879,64,83,Piano
55.0,0.0,36,85,Piano
55.0,0.0,42,85,Piano
57.0,1.5799868334430547,65,96,Piano
57.0,1.5799868334430547,69,96,Piano
57.0,1.5799868334430547,62,96,Piano
57.0,0.0,36,78,Piano
57.0,0.0,45,78,Piano
58.0,0.5924950625411455,46,90,Piano
58.0,0.5924950625411455,53,90,Piano
58.0,0.5924950625411455,57,90,Piano
58.0,0.5924950625411455,62,90,Piano
58.0,0.0,42,71,Piano
58.0,0.0,37,71,Piano
59.0,1.3824884792626728,64,94,Piano
59.0,1.3824884792626728,57,94,Piano
59.0,1.3824884792626728,60,94,Piano
59.0,1.3824884792626728,67,94,Piano
59.0,0.0,36,78,Piano
59.0,0.0,45,78,Piano
60.0,0.7800312012480499,45,96,Piano
60.0,0.7800312012480499,52,96,Piano
60.0,0.7800312012480499,55,96,Piano
60.0,0.7800312012480499,60,96,Piano
60.0,0.0,42,71,Piano
60.0,0.0,37,71,Piano
61.0,1.3650546021840873,62,89,Piano
61.0,1.3650546021840873,65,89,Piano
61.0,1.5600624024960998,69,98,Piano
61.0,1.5600624024960998,58,98,Piano
61.0,0.0,36,78,Piano
61.0,0.0,45,78,Piano
62.0,0.5924950625411455,46,90,Piano
62.0,0.5924950625411455,53,90,Piano
62.0,0.5924950625411455,57,90,Piano
62.0,0.5924950625411455,62,90,Piano
62.0,0.0,42,71,Piano
62.0,0.0,37,71,Piano
63.0,1.3824884792626728,57,89,Piano
63.0,1.3824884792626728,60,89,Piano
63.0,1.3824884792626728,67,89,Piano
63.0,1.3824884792626728,64,89,Piano
63.0,0.0,36,78,Piano
63.0,0.0,45,78,Piano
64.0,0.7899934167215273,45,96,Piano
64.0,0.7899934167215273,52,96,Piano
64.0,0.7899934167215273,55,96,Piano
64.0,0.7899934167215273,60,96,Piano
64.0,0.0,42,71,Piano
64.0,0.0,37,71,Piano
65.0,1.3824884792626728,69,94,Piano
65.0,1.3824884792626728,62,94,Piano
65.0,1.3824884792626728,65,94,Piano
65.0,0.0,36,78,Piano
65.0,0.0,45,78,Piano
66.0,0.5924950625411455,46,90,Piano
66.0,0.5924950625411455,53,90,Piano
66.0,0.5924950625411455,57,90,Piano
66.0,0.5924950625411455,62,90,Piano
66.0,0.0,42,71,Piano
66.0,0.0,37,71,Piano
67.0,1.3824884792626728,67,86,Piano
67.0,1.3824884792626728,60,86,Piano
67.0,1.3824884792626728,64,86,Piano
67.0,1.3824884792626728,57,86,Piano
67.0,0.0,36,78,Piano
67.0,0.0,45,78,Piano
68.0,0.7899934167215273,45,96,Piano
68.0,0.7899934167215273,52,96,Piano
68.0,0.7899934167215273,55,96,Piano
68.0,0.7899934167215273,60,96,Piano
68.0,0.0,42,71,Piano
68.0,0.0,37,71,Piano
69.0,1.316655694535879,62,88,Piano
69.0,1.316655694535879,69,88,Piano
69.0,1.316655694535879,65,88,Piano
69.0,0.0,36,78,Piano
69.0,0.0,45,78,Piano
70.0,0.5924950625411455,46,90,Piano
70.0,0.5924950625411455,53,90,Piano
70.0,0.5924950625411455,57,90,Piano
70.0,0.5924950625411455,62,90,Piano
70.0,0.0,42,71,Piano
70.0,0.0,37,71,Piano
71.0,1.3824884792626728,67,84,Piano
71.0,1.3824884792626728,60,84,Piano
71.0,1.3824884792626728,64,84,Piano
71.0,1.3824884792626728,57,84,Piano
71.0,0.0,36,78,Piano
71.0,0.0,45,78,Piano
72.0,0.7899934167215273,45,96,Piano
72.0,0.7899934167215273,52,96,Piano
72.0,0.7899934167215273,55,96,Piano
72.0,0.7899934167215273,60,96,Piano
72.0,0.0,42,71,Piano
72.0,0.0,37,71,Piano
73.0,1.3824884792626728,62,90,Piano
73.0,1.3824884792626728,65,90,Piano
73.0,0.0,36,78,Piano
73.0,0.0,45,78,Piano
74.0,0.5924950625411455,46,90,Piano
74.0,0.5924950625411455,53,90,Piano
74.0,0.5924950625411455,57,90,Piano
74.0,0.5924950625411455,62,90,Piano
74.0,0.0,42,71,Piano
74.0,0.0,37,71,Piano
75.0,1.3824884792626728,67,87,Piano
75.0,1.3824884792626728,60,87,Piano
75.0,1.3824884792626728,57,87,Piano
75.0,1.3824884792626728,64,87,Piano
76.0,0.7899934167215273,45,96,Piano
76.0,0.7899934167215273,52,96,Piano
76.0,0.7899934167215273,55,96,Piano
76.0,0.7899934167215273,60,96,Piano
76.0,0.0,42,71,Piano
76.0,0.0,37,71,Piano
77.0,1.3824884792626728,62,91,Piano
77.0,1.3824884792626728,69,91,Piano
77.0,1.3824884792626728,65,91,Piano
77.0,0.0,36,78,Piano
77.0,0.0,45,78,Piano
78.0,0.5924950625411455,46,90,Piano
78.0,0.5924950625411455,53,90,Piano
78.0,0.5924950625411455,57,90,Piano
78.0,0.5924950625411455,62,90,Piano
78.0,0.0,42,71,Piano
78.0,0.0,37,71,Piano
79.0,1.316655694535879,57,84,Piano
79.0,1.316655694535879,67,84,Piano
79.0,1.316655694535879,60,84,Piano
79.0,1.316655694535879,64,84,Piano
79.0,0.0,36,78,Piano
79.0,0.0,45,78,Piano
80.0,0.7899934167215273,45,96,Piano
80.0,0.7899934167215273,52,96,Piano
80.0,0.7899934167215273,55,96,Piano
80.0,0.7899934167215273,60,96,Piano
80.0,0.0,42,71,Piano
80.0,0.0,37,71,Piano
81.0,1.3824884792626728,62,92,Piano
81.0,1.3824884792626728,69,92,Piano
81.0,1.3824884792626728,65,92,Piano
81.0,0.0,36,78,Piano
81.0,0.0,45,78,Piano
82.0,0.5924950625411455,46,90,Piano
82.0,0.5924950625411455,53,90,Piano
82.0,0.5924950625411455,57,90,Piano
82.0,0.5924950625411455,62,90,Piano
82.0,0.0,42,71,Piano
82.0,0.0,37,71,Piano
83.0,1.3824884792626728,60,86,Piano
83.0,1.3824884792626728,57,86,Piano
83.0,0.0,36,78,Piano
83.0,0.0,45,78,Piano
84.0,0.7899934167215273,45,96,Piano
84.0,0.7899934167215273,52,96,Piano
84.0,0.7899934167215273,55,96,Piano
84.0,0.7899934167215273,60,96,Piano
84.0,0.0,42,71,Piano
84.0,0.0,37,71,Piano
85.0,1.9749835418038184,62,94,Piano
85.0,1.9749835418038184,65,94,Piano
85.0,1.9749835418038184,60,94,Piano
85.0,2.106649111257406,57,94,Piano
85.0,2.106649111257406,65,94,Piano
85.0,2.106649111257406,60,94,Piano
85.0,2.1724818959842,50,92,Piano
85.0,2.1724818959842,57,92,Piano
85.0,2.1724818959842,60,92,Piano
85.0,2.1724818959842,65,92,Piano
85.0,0.0,36,92,Piano
85.0,0.0,51,92,Piano
88.0,0.7899934167215273,65,93,Piano
88.0,0.7899934167215273,63,93,Piano
88.0,0.7899934167215273,49,93,Piano
88.0,0.7899934167215273,60,93,Piano
88.0,0.7899934167215273,56,93,Piano
88.0,0.5924950625411455,49,89,Piano
88.0,0.5924950625411455,53,89,Piano
88.0,0.5924950625411455,56,89,Piano
88.0,0.5924950625411455,63,89,Piano
88.0,0.0,36,38,Piano
88.0,0.0,46,38,Piano
89.0,2.9624753127057275,64,88,Piano
89.0,2.9624753127057275,55,88,Piano
89.0,2.9624753127057275,62,88,Piano
89.0,2.9624753127057275,59,88,Piano
89.0,2.9624753127057275,48,88,Piano
89.0,0.0,36,72,Piano
89.0,0.0,42,72,Piano
89.0,0.0,49,72,Piano
93.0,1.3824884792626728,60,82,Piano
93.0,1.3824884792626728,53,82,Piano
93.0,0.0,36,85,Piano
93.0,0.0,42,85,Piano
94.0,0.0,42,64,Piano
94.0,0.0,38,64,Piano
94.5,0.0,36,57,Piano
94.5,0.0,42,57,Piano
95.0,1.316655694535879,52,88,Piano
95.0,1.316655694535879,59,88,Piano
95.0,0.0,36,85,Piano
95.0,0.0,42,85,Piano
96.0,0.7899934167215273,60,88,Piano
96.0,0.7899934167215273,64,88,Piano
96.0,0.0,42,64,Piano
96.0,0.0,38,64,Piano
96.5,0.0,36,57,Piano
96.5,0.0,42,57,Piano
97.0,0.0,36,85,Piano
97.0,0.0,42,85,Piano
98.0,0.0,42,64,Piano
98.0,0.0,38,64,Piano
98.5,0.0,36,57,Piano
98.5,0.0,42,57,Piano
99.0,0.0,36,85,Piano
99.0,0.0,42,85,Piano
99.5,0.39499670836076367,59,93,Piano
99.5,0.39499670836076367,67,93,Piano
100.0,0.39499670836076367,60,88,Piano
100.0,0.39499670836076367,45,88,Piano
100.0,0.0,42,64,Piano
100.0,0.0,38,64,Piano
100.5,0.26333113890717574,62,86,Piano
100.5,0.26333113890717574,47,86,Piano
101.0,0.0,36,85,Piano
101.0,0.0,42,85,Piano
102.0,0.0,42,64,Piano
102.0,0.0,38,64,Piano
102.5,0.39499670836076367,62,92,Piano
102.5,0.39499670836076367,59,92,Piano
102.5,0.0,36,57,Piano
102.5,0.0,42,57,Piano
103.0,0.0,36,85,Piano
103.0,0.0,42,85,Piano
104.0,0.7899934167215273,57,91,Piano
104.0,0.7899934167215273,60,91,Piano
104.0,0.7899934167215273,64,91,Piano
104.0,0.0,42,64,Piano
104.0,0.0,38,64,Piano
104.5,0.0,36,57,Piano
104.5,0.0,42,57,Piano
105.0,0.0,36,85,Piano
105.0,0.0,42,85,Piano
106.0,0.0,42,64,Piano
106.0,0.0,38,64,Piano
106.5,0.0,36,57,Piano
106.5,0.0,42,57,Piano
107.0,0.5924950625411455,69,95,Piano
107.0,0.5924950625411455,65,95,Piano
107.0,0.5924950625411455,60,95,Piano
107.0,0.0,36,85,Piano
107.0,0.0,42,85,Piano
108.0,0.19749835418038184,67,91,Piano
108.0,0.19749835418038184,59,91,Piano
108.0,0.19749835418038184,64,91,Piano
108.0,0.7899934167215273,60,93,Piano
108.0,0.7899934167215273,65,93,Piano
108.5,0.19749835418038184,57,87,Piano
108.5,0.19749835418038184,65,87,Piano
108.5,0.19749835418038184,62,87,Piano
109.0,2.3400936037441498,60,71,Piano
109.0,2.3400936037441498,64,71,Piano
109.0,0.0,36,71,Piano
109.0,0.0,49,71,Piano
110.0,0.0,42,64,Piano
110.0,0.0,38,64,Piano
110.5,0.0,36,57,Piano
110.5,0.0,42,57,Piano
111.0,0.0,36,85,Piano
111.0,0.0,42,85,Piano
112.0,0.7899934167215273,58,91,Piano
112.0,0.7899934167215273,60,91,Piano
112.0,0.7899934167215273,64,91,Piano
112.0,0.7899934167215273,67,75,Piano
112.0,0.7899934167215273,64,75,Piano
112.0,0.0,42,64,Piano
112.0,0.0,38,64,Piano
113.0,1.5799868334430547,69,77,Piano
113.0,1.5799868334430547,65,77,Piano
113.0,0.0,36,85,Piano
113.0,0.0,42,85,Piano
114.0,0.0,42,64,Piano
114.0,0.0,38,64,Piano
114.5,0.0,36,57,Piano
114.5,0.0,42,57,Piano
115.0,0.7899934167215273,67,72,Piano
115.0,0.7899934167215273,71,72,Piano
115.0,0.0,36,85,Piano
115.0,0.0,42,85,Piano
116.0,0.5924950625411455,66,88,Piano
116.0,0.5924950625411455,60,88,Piano
116.0,0.7899934167215273,57,88,Piano
116.0,0.7899934167215273,60,88,Piano
116.0,0.7899934167215273,72,74,Piano
116.0,0.7899934167215273,69,74,Piano
116.0,0.0,36,78,Piano
116.0,0.0,46,78,Piano
117.0,1.184990125082291,57,84,Piano
117.0,1.184990125082291,50,84,Piano
117.0,0.0,36,85,Piano
117.0,0.0,42,85,Piano
118.0,0.0,42,64,Piano
118.0,0.0,38,64,Piano
118.5,0.0,36,57,Piano
118.5,0.0,42,57,Piano
119.0,1.184990125082291,56,88,Piano
119.0,1.184990125082291,49,88,Piano
119.0,0.0,36,85,Piano
119.0,0.0,42,85,Piano
120.0,0.7899934167215273,61,93,Piano
120.0,0.7899934167215273,65,93,Piano
120.0,0.0,42,64,Piano
120.0,0.0,38,64,Piano
120.5,0.0,36,57,Piano
120.5,0.0,42,57,Piano
121.0,2.9624753127057275,55,81,Piano
121.0,2.9624753127057275,48,81,Piano
121.0,2.5674786043449638,67,60,Piano
121.0,2.5674786043449638,64,60,Piano
121.0,0.0,36,85,Piano
121.0,0.0,42,85,Piano
122.0,0.0,42,64,Piano
122.0,0.0,38,64,Piano
122.5,0.0,36,57,Piano
122.5,0.0,42,57,Piano
123.0,1.3824884792626728,72,72,Piano
123.0,1.3824884792626728,64,72,Piano
123.0,1.3824884792626728,55,88,Piano
123.0,1.3824884792626728,64,88,Piano
123.0,1.316655694535879,60,83,Piano
123.0,1.316655694535879,64,83,Piano
123.0,0.0,36,85,Piano
123.0,0.0,51,85,Piano
125.0,1.3824884792626728,62,95,Piano
125.0,1.3824884792626728,69,95,Piano
125.0,1.3824884792626728,65,95,Piano
125.0,0.0,36,78,Piano
125.0,0.0,45,78,Piano
126.0,0.5924950625411455,46,90,Piano
126.0,0.5924950625411455,53,90,Piano
126.0,0.5924950625411455,57,90,Piano
126.0,0.5924950625411455,62,90,Piano
126.0,0.0,42,71,Piano
126.0,0.0,37,71,Piano
127.0,1.3824884792626728,64,87,Piano
127.0,1.3824884792626728,67,87,Piano
127.0,1.3824884792626728,60,87,Piano
127.0,0.0,36,78,Piano
127.0,0.0,45,78,Piano
128.0,0.7899934167215273,45,96,Piano
128.0,0.7899934167215273,52,96,Piano
128.0,0.7899934167215273,55,96,Piano
128.0,0.7899934167215273,60,96,Piano
128.0,0.0,42,71,Piano
128.0,0.0,37,71,Piano
129.0,1.316655694535879,69,88,Piano
129.0,1.316655694535879,62,88,Piano
129.0,1.316655694535879,65,88,Piano
129.0,0.0,36,78,Piano
129.0,0.0,45,78,Piano
130.0,0.5924950625411455,46,90,Piano
130.0,0.5924950625411455,53,90,Piano
130.0,0.5924950625411455,57,90,Piano
130.0,0.5924950625411455,62,90,Piano
130.0,0.0,42,71,Piano
130.0,0.0,37,71,Piano
131.0,1.3824884792626728,67,85,Piano
131.0,1.3824884792626728,57,85,Piano
131.0,1.3824884792626728,60,85,Piano
131.0,0.0,36,78,Piano
131.0,0.0,45,78,Piano
132.0,0.7899934167215273,45,96,Piano
132.0,0.7899934167215273,52,96,Piano
132.0,0.7899934167215273,55,96,Piano
132.0,0.7899934167215273,60,96,Piano
132.0,0.0,42,71,Piano
132.0,0.0,37,71,Piano
133.0,1.3650546021840873,62,91,Piano
133.0,1.3650546021840873,69,91,Piano
133.0,1.3650546021840873,65,91,Piano
133.0,0.0,36,78,Piano
133.0,0.0,45,78,Piano
134.0,0.5924950625411455,46,90,Piano
134.0,0.5924950625411455,53,90,Piano
134.0,0.5924950625411455,57,90,Piano
134.0,0.5924950625411455,62,90,Piano
134.0,0.0,42,71,Piano
134.0,0.0,37,71,Piano
135.0,1.3824884792626728,67,86,Piano
135.0,1.3824884792626728,64,86,Piano
135.0,0.0,36,78,Piano
135.0,0.0,45,78,Piano
136.0,0.7899934167215273,45,96,Piano
136.0,0.7899934167215273,52,96,Piano
136.0,0.7899934167215273,55,96,Piano
136.0,0.7899934167215273,60,96,Piano
136.0,0.0,42,71,Piano
136.0,0.0,37,71,Piano
137.0,1.3824884792626728,62,91,Piano
137.0,1.3824884792626728,69,91,Piano
137.0,1.3824884792626728,65,91,Piano
137.0,0.0,36,78,Piano
137.0,0.0,45,78,Piano
138.0,0.5924950625411455,46,90,Piano
138.0,0.5924950625411455,53,90,Piano
138.0,0.5924950625411455,57,90,Piano
138.0,0.5924950625411455,62,90,Piano
138.0,0.0,42,71,Piano
138.0,0.0,37,71,Piano
139.0,1.3824884792626728,60,83,Piano
139.0,1.3824884792626728,67,83,Piano
139.0,1.3824884792626728,57,83,Piano
139.0,1.3824884792626728,64,83,Piano
139.0,0.0,36,78,Piano
139.0,0.0,45,78,Piano
140.0,0.7899934167215273,45,96,Piano
140.0,0.7899934167215273,52,96,Piano
140.0,0.7899934167215273,55,96,Piano
140.0,0.7899934167215273,60,96,Piano
140.0,0.0,42,71,Piano
140.0,0.0,37,71,Piano
141.0,1.316655694535879,69,96,Piano
141.0,1.316655694535879,62,96,Piano
141.0,1.316655694535879,65,96,Piano
141.0,0.0,36,78,Piano
141.0,0.0,45,78,Piano
142.0,0.5924950625411455,46,90,Piano
142.0,0.5924950625411455,53,90,Piano
142.0,0.5924950625411455,57,90,Piano
142.0,0.5924950625411455,62,90,Piano
142.0,0.0,42,71,Piano
142.0,0.0,37,71,Piano
143.0,1.5799868334430547,67,92,Piano
143.0,1.5799868334430547,60,92,Piano
143.0,1.5799868334430547,64,92,Piano
143.0,0.0,36,78,Piano
143.0,0.0,45,78,Piano
144.0,0.7899934167215273,45,96,Piano
144.0,0.7899934167215273,52,96,Piano
144.0,0.7899934167215273,55,96,Piano
144.0,0.7899934167215273,60,96,Piano
144.0,0.0,42,71,Piano
144.0,0.0,37,71,Piano
145.0,1.316655694535879,62,92,Piano
145.0,1.316655694535879,69,92,Piano
145.0,1.316655694535879,65,92,Piano
145.0,0.0,36,78,Piano
145.0,0.0,45,78,Piano
146.0,0.5924950625411455,46,90,Piano
146.0,0.5924950625411455,53,90,Piano
146.0,0.5924950625411455,57,90,Piano
146.0,0.5924950625411455,62,90,Piano
146.0,0.0,42,71,Piano
146.0,0.0,37,71,Piano
147.0,1.3824884792626728,67,86,Piano
147.0,1.3824884792626728,64,86,Piano
147.0,1.3824884792626728,60,86,Piano
147.0,1.3824884792626728,57,86,Piano
147.0,0.0,36,78,Piano
147.0,0.0,45,78,Piano
148.0,0.7899934167215273,45,96,Piano
148.0,0.7899934167215273,52,96,Piano
148.0,0.7899934167215273,55,96,Piano
148.0,0.7899934167215273,60,96,Piano
148.0,0.0,42,71,Piano
148.0,0.0,37,71,Piano
149.0,1.3000520020800832,69,93,Piano
149.0,1.3000520020800832,65,93,Piano
149.0,1.3000520020800832,64,93,Piano
149.0,1.5600624024960998,81,62,Piano
149.0,1.5600624024960998,88,62,Piano
149.0,0.0,36,78,Piano
149.0,0.0,45,78,Piano
150.0,0.7899934167215273,57,89,Piano
150.0,0.7899934167215273,60,89,Piano
150.0,0.7899934167215273,64,89,Piano
150.0,0.0,42,71,Piano
150.0,0.0,37,71,Piano
151.0,1.316655694535879,67,90,Piano
151.0,1.316655694535879,64,90,Piano
151.0,1.316655694535879,59,90,Piano
151.0,1.316655694535879,62,90,Piano
151.0,1.5799868334430547,79,66,Piano
151.0,1.5799868334430547,86,66,Piano
151.0,0.0,36,78,Piano
151.0,0.0,45,78,Piano
152.0,0.7899934167215273,52,96,Piano
152.0,0.7899934167215273,55,96,Piano
152.0,0.7899934167215273,59,96,Piano
152.0,0.7899934167215273,62,96,Piano
152.0,0.0,42,71,Piano
152.0,0.0,37,71,Piano
153.0,1.7774851876234365,62,88,Piano
153.0,1.7774851876234365,60,88,Piano
153.0,1.9749835418038184,50,91,Piano
153.0,1.9749835418038184,53,91,Piano
153.0,1.9749835418038184,57,91,Piano
153.0,1.9749835418038184,60,91,Piano
153.0,3.1599736668861094,77,66,Piano
153.0,3.1599736668861094,84,66,Piano
153.0,0.0,36,78,Piano
153.0,0.0,48,78,Piano
154.0,0.0,42,71,Piano
154.0,0.0,37,71,Piano
156.0,0.5924950625411455,56,93,Piano
156.0,0.5924950625411455,63,93,Piano
156.0,0.5924950625411455,65,93,Piano
156.0,0.5924950625411455,49,96,Piano
156.0,0.5924950625411455,56,96,Piano
156.0,0.5924950625411455,60,96,Piano
156.0,0.5924950625411455,53,93,Piano
156.0,0.5924950625411455,56,93,Piano
156.0,0.5924950625411455,60,93,Piano
156.0,0.0,42,85,Piano
156.0,0.0,36,85,Piano
157.0,3.1599736668861094,64,89,Piano
157.0,3.1599736668861094,62,89,Piano
157.0,2.9624753127057275,55,84,Piano
157.0,2.9624753127057275,59,84,Piano
157.0,6.056616194865043,48,90,Piano
157.0,6.056616194865043,52,90,Piano
157.0,6.056616194865043,55,90,Piano
157.0,6.056616194865043,60,90,Piano
157.0,6.319947333772219,83,62,Piano
157.0,6.319947333772219,76,62,Piano
157.0,0.0,49,71,Piano
157.0,0.0,36,71,Piano
162.0,0.7899934167215273,86,98,Piano
162.0,0.7899934167215273,79,98,Piano
163.0,0.5266622778143515,83,93,Piano
163.0,0.5266622778143515,76,93,Piano
164.0,0.39499670836076367,72,86,Piano
164.0,0.39499670836076367,79,86,Piano
165.0,1.053324555628703,76,96,Piano
165.0,1.053324555628703,69,96,Piano
165.0,1.184990125082291,64,87,Piano
165.0,1.184990125082291,69,87,Piano
165.0,1.3824884792626728,41,93,Piano
165.0,1.3824884792626728,64,93,Piano
165.0,0.0,36,85,Piano
165.0,0.0,42,85,Piano
166.5,0.0,36,57,Piano
166.5,0.0,42,57,Piano
167.0,1.053324555628703,74,94,Piano
167.0,1.053324555628703,67,94,Piano
167.0,1.184990125082291,62,88,Piano
167.0,1.184990125082291,67,88,Piano
167.0,1.3824884792626728,41,93,Piano
167.0,1.3824884792626728,67,93,Piano
167.0,0.0,36,85,Piano
167.0,0.0,42,85,Piano
168.0,0.0,42,50,Piano
168.0,0.0,38,50,Piano
169.0,1.053324555628703,74,96,Piano
169.0,1.053324555628703,62,96,Piano
169.0,0.0,36,85,Piano
169.0,0.0,42,85,Piano
170.5,0.0,36,57,Piano
170.5,0.0,42,57,Piano
171.0,1.184990125082291,61,96,Piano
171.0,1.184990125082291,73,96,Piano
171.0,1.184990125082291,67,96,Piano
171.0,1.3824884792626728,45,93,Piano
171.0,1.3824884792626728,65,93,Piano
171.0,0.0,36,85,Piano
171.0,0.0,42,85,Piano
172.0,0.0,42,50,Piano
172.0,0.0,38,50,Piano
173.0,1.184990125082291,72,89,Piano
173.0,1.184990125082291,60,89,Piano
173.0,1.184990125082291,65,89,Piano
173.0,0.0,36,85,Piano
173.0,0.0,42,85,Piano
174.5,0.0,36,57,Piano
174.5,0.0,42,57,Piano
175.0,1.184990125082291,74,93,Piano
175.0,1.184990125082291,62,93,Piano
175.0,1.184990125082291,67,93,Piano
175.0,1.3824884792626728,40,93,Piano
175.0,1.3824884792626728,67,93,Piano
175.0,0.0,36,85,Piano
175.0,0.0,42,85,Piano
176.0,0.0,42,50,Piano
176.0,0.0,38,50,Piano
177.0,1.184990125082291,76,98,Piano
177.0,1.184990125082291,69,98,Piano
177.0,0.0,36,85,Piano
177.0,0.0,42,85,Piano
178.5,0.0,36,57,Piano
178.5,0.0,42,57,Piano
179.0,1.5799868334430547,62,87,Piano
179.0,1.5799868334430547,68,87,Piano
179.0,0.0,36,85,Piano
179.0,0.0,42,85,Piano
180.0,0.0,42,50,Piano
180.0,0.0,38,50,Piano
181.0,1.3650546021840873,41,93,Piano
181.0,1.3650546021840873,64,93,Piano
181.0,1.5600624024960998,69,69,Piano
181.0,1.5600624024960998,65,69,Piano
181.0,0.0,36,85,Piano
181.0,0.0,42,85,Piano
182.5,0.0,36,57,Piano
182.5,0.0,42,57,Piano
183.0,1.3824884792626728,41,93,Piano
183.0,1.3824884792626728,67,93,Piano
183.0,1.5799868334430547,71,65,Piano
183.0,1.5799868334430547,67,65,Piano
183.0,0.0,36,85,Piano
183.0,0.0,42,85,Piano
184.0,0.0,42,50,Piano
184.0,0.0,38,50,Piano
185.0,3.1599736668861094,67,64,Piano
185.0,3.1599736668861094,64,64,Piano
185.0,0.0,36,85,Piano
185.0,0.0,42,85,Piano
186.5,0.0,36,57,Piano
186.5,0.0,42,57,Piano
187.0,1.3824884792626728,45,93,Piano
187.0,1.3824884792626728,65,93,Piano
187.0,0.0,36,85,Piano
187.0,0.0,42,85,Piano
188.0,0.39499670836076367,61,84,Piano
188.0,0.39499670836076367,67,84,Piano
188.0,0.39499670836076367,57,84,Piano
188.0,0.0,42,50,Piano
188.0,0.0,38,50,Piano
189.0,1.5799868334430547,69,70,Piano
189.0,1.5799868334430547,65,70,Piano
189.0,0.0,36,85,Piano
189.0,0.0,42,85,Piano
190.5,0.0,36,57,Piano
190.5,0.0,42,57,Piano
191.0,0.39499670836076367,40,88,Piano
191.0,0.39499670836076367,62,88,Piano
191.0,1.3824884792626728,40,93,Piano
191.0,1.3824884792626728,67,93,Piano
191.0,1.5799868334430547,71,67,Piano
191.0,1.5799868334430547,67,67,Piano
191.0,0.0,36,85,Piano
191.0,0.0,42,85,Piano
192.0,0.0,42,50,Piano
192.0,0.0,38,50,Piano
193.0,1.5600624024960998,72,72,Piano
193.0,1.5600624024960998,69,72,Piano
193.0,0.0,36,85,Piano
193.0,0.0,42,85,Piano
194.5,0.0,36,57,Piano
194.5,0.0,42,57,Piano
195.0,1.5799868334430547,40,90,Piano
195.0,1.5799868334430547,50,90,Piano
195.0,1.5799868334430547,56,90,Piano
195.0,1.5799868334430547,59,90,Piano
195.0,1.5799868334430547,71,65,Piano
195.0,1.5799868334430547,68,65,Piano
195.0,0.0,36,85,Piano
195.0,0.0,42,85,Piano
196.0,0.0,42,50,Piano
196.0,0.0,38,50,Piano
201.0,2.5674786043449638,83,96,Piano
201.0,2.5674786043449638,86,96,Piano
201.0,2.5674786043449638,76,96,Piano
209.0,2.7649769585253456,74,90,Piano
209.0,2.7649769585253456,71,90,Piano
213.0,2.633311389071758,72,92,Piano
213.0,2.633311389071758,65,92,Piano
213.0,2.5674786043449638,64,86,Piano
213.0,2.5674786043449638,65,86,Piano
213.0,5.924950625411455,46,80,Piano
213.0,5.924950625411455,57,80,Piano
213.0,6.319947333772219,53,90,Piano
213.0,6.319947333772219,57,90,Piano
213.0,6.319947333772219,60,90,Piano
213.0,6.319947333772219,64,90,Piano
213.0,6.319947333772219,53,80,Piano
213.0,6.319947333772219,64,80,Piano
213.0,6.319947333772219,46,80,Piano
213.0,6.319947333772219,57,80,Piano
213.0,6.319947333772219,53,60,Piano
213.0,6.319947333772219,64,60,Piano
213.0,6.319947333772219,46,60,Piano
213.0,6.319947333772219,57,60,Piano
213.0,0.0,49,78,Piano
213.0,0.0,36,78,Piano
222.0,0.7899934167215273,81,86,Piano
222.0,0.7899934167215273,76,86,Piano
223.0,1.316655694535879,64,78,Piano
223.0,1.316655694535879,71,78,Piano
225.0,0.9874917709019092,62,84,Piano
225.0,0.9874917709019092,69,84,Piano
227.0,0.7899934167215273,71,87,Piano
227.0,0.7899934167215273,55,87,Piano
228.0,0.39001560062402496,72,84,Piano
228.0,0.39001560062402496,57,84,Piano
228.5,0.26001040041601664,74,82,Piano
228.5,0.26001040041601664,59,82,Piano
230.5,0.39499670836076367,74,92,Piano
230.5,0.39499670836076367,71,92,Piano
231.0,0.7899934167215273,76,88,Piano
231.0,0.7899934167215273,69,88,Piano
233.0,1.184990125082291,78,94,Piano
233.0,1.184990125082291,72,94,Piano
235.0,0.39499670836076367,72,88,Piano
235.0,0.39499670836076367,77,88,Piano
236.0,0.19749835418038184,79,92,Piano
236.0,0.19749835418038184,71,92,Piano
236.0,0.26333113890717574,76,88,Piano
236.0,0.26333113890717574,71,88,Piano
236.5,0.26333113890717574,77,86,Piano
236.5,0.26333113890717574,74,86,Piano
236.5,0.26333113890717574,69,86,Piano
237.0,1.184990125082291,76,91,Piano
237.0,1.184990125082291,72,91,Piano
237.0,1.053324555628703,67,85,Piano
237.0,1.053324555628703,72,85,Piano
237.0,1.053324555628703,60,85,Piano
237.0,0.0,42,85,Piano
237.0,0.0,36,85,Piano
238.0,0.0,37,64,Piano
238.0,0.0,42,64,Piano
239.0,1.184990125082291,74,91,Piano
239.0,1.184990125082291,58,91,Piano
239.0,1.3824884792626728,64,84,Piano
239.0,1.3824884792626728,69,84,Piano
239.0,0.0,36,78,Piano
239.0,0.0,42,78,Piano
240.0,0.7899934167215273,58,91,Piano
240.0,0.7899934167215273,60,91,Piano
240.0,0.7899934167215273,64,91,Piano
240.0,0.0,37,64,Piano
240.0,0.0,42,64,Piano
241.0,1.184990125082291,72,88,Piano
241.0,1.184990125082291,53,88,Piano
241.0,1.053324555628703,64,84,Piano
241.0,1.053324555628703,67,84,Piano
241.0,1.053324555628703,57,84,Piano
241.0,1.053324555628703,53,84,Piano
241.0,0.0,42,85,Piano
241.0,0.0,36,85,Piano
242.0,0.0,37,64,Piano
242.0,0.0,42,64,Piano
243.0,0.5266622778143515,62,83,Piano
243.0,0.5266622778143515,52,83,Piano
243.0,0.5266622778143515,59,83,Piano
243.0,0.0,36,78,Piano
243.0,0.0,42,78,Piano
244.0,0.5924950625411455,66,86,Piano
244.0,0.5924950625411455,60,86,Piano
244.0,0.5924950625411455,51,86,Piano
244.0,0.7899934167215273,57,88,Piano
244.0,0.7899934167215273,60,88,Piano
244.0,0.0,37,64,Piano
244.0,0.0,42,64,Piano
245.0,1.184990125082291,57,86,Piano
245.0,1.184990125082291,50,86,Piano
245.0,0.0,36,85,Piano
245.0,0.0,42,85,Piano
246.0,0.0,37,57,Piano
246.0,0.0,42,57,Piano
247.0,4.420176807072283,65,86,Piano
247.0,4.420176807072283,60,86,Piano
247.0,4.420176807072283,56,86,Piano
247.0,4.420176807072283,49,86,Piano
247.0,4.6801872074882995,49,91,Piano
247.0,4.6801872074882995,56,91,Piano
247.0,4.6801872074882995,61,91,Piano
247.0,4.6801872074882995,65,91,Piano
247.0,0.0,49,71,Piano
247.0,0.0,36,71,Piano
253.0,1.184990125082291,70,79,Piano
253.0,1.184990125082291,61,79,Piano
253.0,1.184990125082291,54,79,Piano
255.0,1.184990125082291,68,74,Piano
255.0,1.184990125082291,60,74,Piano
256.0,0.7899934167215273,61,88,Piano
256.0,0.7899934167215273,65,88,Piano
257.0,0.9750390015600624,66,82,Piano
257.0,0.9750390015600624,58,82,Piano
259.5,0.39499670836076367,60,93,Piano
259.5,0.39499670836076367,68,93,Piano
260.0,0.39499670836076367,61,83,Piano
260.0,0.39499670836076367,46,83,Piano
260.0,0.39499670836076367,56,83,Piano
261.0,1.184990125082291,56,82,Piano
261.0,1.184990125082291,65,82,Piano
261.0,0.39499670836076367,63,85,Piano
261.0,0.39499670836076367,49,85,Piano
263.0,0.39499670836076367,61,90,Piano
263.0,0.39499670836076367,65,90,Piano
264.0,0.7899934167215273,58,91,Piano
264.0,0.7899934167215273,61,91,Piano
264.0,0.7899934167215273,65,91,Piano
267.0,0.39499670836076367,66,90,Piano
267.0,0.39499670836076367,58,90,Piano
267.0,0.39499670836076367,61,90,Piano
268.0,0.39499670836076367,56,83,Piano
268.0,0.39499670836076367,65,83,Piano
268.0,0.7899934167215273,61,93,Piano
268.0,0.7899934167215273,66,93,Piano
268.5,0.26333113890717574,54,77,Piano
268.5,0.26333113890717574,63,77,Piano
268.5,0.26333113890717574,58,77,Piano
269.0,0.26333113890717574,65,89,Piano
269.0,0.26333113890717574,61,89,Piano
270.0,0.39499670836076367,65,82,Piano
270.0,0.39499670836076367,61,82,Piano
271.0,0.39499670836076367,63,89,Piano
271.0,0.39499670836076367,59,89,Piano
272.0,0.7899934167215273,59,91,Piano
272.0,0.7899934167215273,61,91,Piano
272.0,0.7899934167215273,65,91,Piano
275.0,0.5266622778143515,68,80,Piano
275.0,0.5266622778143515,53,80,Piano
276.0,0.39499670836076367,67,86,Piano
276.0,0.39499670836076367,61,86,Piano
276.0,0.5266622778143515,58,75,Piano
276.0,0.5266622778143515,52,75,Piano
276.0,0.7899934167215273,58,88,Piano
276.0,0.7899934167215273,61,88,Piano
277.0,0.39001560062402496,66,92,Piano
277.0,0.39001560062402496,61,92,Piano
279.0,0.39499670836076367,66,82,Piano
279.0,0.39499670836076367,61,82,Piano
280.0,0.7899934167215273,62,93,Piano
280.0,0.7899934167215273,66,93,Piano
281.0,5.793285055957867,56,81,Piano
281.0,5.793285055957867,63,81,Piano
281.0,5.793285055957867,65,81,Piano
281.0,5.793285055957867,49,81,Piano
281.0,5.793285055957867,60,81,Piano
281.0,6.319947333772219,49,95,Piano
281.0,6.319947333772219,56,95,Piano
281.0,6.319947333772219,65,95,Piano
