Start,Duration,Pitch,Velocity,Instrument
1.0,1.019974500637484,64,100,Electric Bass
1.0,1.019974500637484,42,100,Electric Bass
1.0,1.019974500637484,69,100,Electric Bass
1.0,1.019974500637484,68,100,Electric Bass
1.0,0.0,69,82,Electric Bass
1.0,0.0,54,82,Electric Bass
1.0,0.0,36,114,Electric Bass
1.0,0.0,42,114,Electric Bass
1.25,0.0,54,79,Electric Bass
1.25,0.0,69,79,Electric Bass
1.5,0.0,52,88,Electric Bass
1.5,0.0,57,88,Electric Bass
1.5,0.0,56,88,Electric Bass
1.5,0.0,61,88,Electric Bass
1.5,0.1274968125796855,62,104,Electric Bass
1.5,0.1274968125796855,54,104,Electric Bass
2.0,0.1274968125796855,57,97,Electric Bass
2.0,0.1274968125796855,61,97,Electric Bass
2.0,0.0,52,102,Electric Bass
2.0,0.0,56,102,Electric Bass
2.0,0.0,54,85,Electric Bass
2.0,0.0,70,85,Electric Bass
2.0,0.0,46,120,Electric Bass
2.0,0.0,38,120,Electric Bass
2.5,0.1274968125796855,30,83,Electric Bass
2.5,0.1274968125796855,42,83,Electric Bass
2.5,0.0,64,69,Electric Bass
2.5,0.0,69,69,Electric Bass
2.75,0.0,54,77,Electric Bass
2.75,0.0,69,77,Electric Bass
2.75,0.0,38,73,Electric Bass
2.75,0.0,42,73,Electric Bass
3.0,0.1274968125796855,57,89,Electric Bass
3.0,0.1274968125796855,61,89,Electric Bass
3.0,0.0,52,97,Electric Bass
3.0,0.0,56,97,Electric Bass
3.0,0.0,66,64,Electric Bass
3.0,0.0,78,64,Electric Bass
3.0,0.0,54,72,Electric Bass
3.0,0.0,69,72,Electric Bass
3.25,0.0,54,88,Electric Bass
3.25,0.0,69,88,Electric Bass
3.25,0.0,42,98,Electric Bass
3.25,0.0,38,98,Electric Bass
3.5,0.0,30,72,Electric Bass
3.5,0.0,42,72,Electric Bass
3.5,0.0,69,105,Electric Bass
3.5,0.0,62,105,Electric Bass
3.5,0.0,54,105,Electric Bass
3.75,0.1274968125796855,57,94,Electric Bass
3.75,0.1274968125796855,61,94,Electric Bass
3.75,0.0,52,98,Electric Bass
3.75,0.0,56,98,Electric Bass
4.0,0.1274968125796855,70,85,Electric Bass
4.0,0.1274968125796855,63,85,Electric Bass
4.0,0.1274968125796855,54,85,Electric Bass
4.0,0.0,46,120,Electric Bass
4.0,0.0,38,120,Electric Bass
4.25,0.1274968125796855,30,68,Electric Bass
4.25,0.1274968125796855,42,68,Electric Bass
4.5,1.7849553761155972,66,100,Electric Bass
4.5,1.7849553761155972,70,100,Electric Bass
4.5,0.509987250318742,58,98,Electric Bass
4.5,0.509987250318742,54,98,Electric Bass
4.5,0.509987250318742,63,98,Electric Bass
4.5,0.509987250318742,59,98,Electric Bass
4.5,0.0,64,94,Electric Bass
4.5,0.0,69,94,Electric Bass
4.5,0.0,36,106,Electric Bass
4.5,0.0,42,106,Electric Bass
4.75,0.0,54,73,Electric Bass
4.75,0.0,69,73,Electric Bass
5.0,0.0,54,73,Electric Bass
5.0,0.0,69,73,Electric Bass
5.25,0.125,30,84,Electric Bass
5.25,0.125,42,84,Electric Bass
5.25,0.0,54,90,Electric Bass
5.25,0.0,69,90,Electric Bass
5.5,0.125,58,80,Electric Bass
5.5,0.125,63,80,Electric Bass
5.5,0.0,54,81,Electric Bass
5.5,0.0,59,81,Electric Bass
5.5,0.0,63,81,Electric Bass
5.5,0.125,62,106,Electric Bass
5.5,0.125,54,106,Electric Bass
5.5,0.125,69,106,Electric Bass
6.0,0.0,63,93,Electric Bass
6.0,0.0,58,93,Electric Bass
6.0,0.0,54,93,Electric Bass
6.0,0.0,59,93,Electric Bass
6.0,0.1274968125796855,63,100,Electric Bass
6.0,0.1274968125796855,70,100,Electric Bass
6.0,0.0,54,71,Electric Bass
6.0,0.0,70,71,Electric Bass
6.0,0.1274968125796855,46,113,Electric Bass
6.0,0.1274968125796855,38,113,Electric Bass
6.5,0.1274968125796855,30,82,Electric Bass
6.5,0.1274968125796855,42,82,Electric Bass
6.5,0.0,64,96,Electric Bass
6.5,0.0,69,96,Electric Bass
6.75,0.0,54,80,Electric Bass
6.75,0.0,69,80,Electric Bass
6.75,0.1274968125796855,42,78,Electric Bass
6.75,0.1274968125796855,38,78,Electric Bass
7.0,0.0,58,97,Electric Bass
7.0,0.0,54,97,Electric Bass
7.0,0.0,59,97,Electric Bass
7.0,0.0,54,84,Electric Bass
7.0,0.0,69,84,Electric Bass
7.25,0.1274968125796855,73,109,Electric Bass
7.25,0.1274968125796855,68,109,Electric Bass
7.25,0.0,54,84,Electric Bass
7.25,0.0,69,84,Electric Bass
7.25,0.0,42,98,Electric Bass
7.25,0.0,38,98,Electric Bass
7.5,0.0,42,69,Electric Bass
7.5,0.0,30,69,Electric Bass
7.5,0.1274968125796855,76,114,Electric Bass
7.5,0.1274968125796855,73,114,Electric Bass
7.5,0.1274968125796855,62,109,Electric Bass
7.5,0.1274968125796855,54,109,Electric Bass
7.5,0.1274968125796855,69,109,Electric Bass
7.5,0.0,36,111,Electric Bass
7.5,0.0,46,111,Electric Bass
7.75,0.0,58,100,Electric Bass
7.75,0.0,63,100,Electric Bass
7.75,0.0,54,100,Electric Bass
7.75,0.0,59,100,Electric Bass
8.0,0.1274968125796855,82,114,Electric Bass
8.0,0.1274968125796855,78,114,Electric Bass
8.0,0.1274968125796855,63,103,Electric Bass
8.0,0.1274968125796855,70,103,Electric Bass
8.0,0.0,54,74,Electric Bass
8.0,0.0,70,74,Electric Bass
8.0,0.0,46,113,Electric Bass
8.0,0.0,38,113,Electric Bass
8.25,0.0,30,72,Electric Bass
8.25,0.0,42,72,Electric Bass
8.25,0.0,83,111,Electric Bass
8.25,0.0,80,111,Electric Bass
8.25,0.0,63,88,Electric Bass
8.25,0.0,54,88,Electric Bass
8.5,0.1274968125796855,58,91,Electric Bass
8.5,0.1274968125796855,63,91,Electric Bass
8.5,0.1274968125796855,54,91,Electric Bass
8.5,0.1274968125796855,82,85,Electric Bass
8.5,0.1274968125796855,78,85,Electric Bass
8.5,0.0,64,70,Electric Bass
8.5,0.0,69,70,Electric Bass
8.75,0.1274968125796855,83,100,Electric Bass
8.75,0.1274968125796855,80,100,Electric Bass
8.75,0.0,54,82,Electric Bass
8.75,0.0,69,82,Electric Bass
9.0,0.0,69,82,Electric Bass
9.0,0.0,54,82,Electric Bass
9.0,0.0,36,114,Electric Bass
9.0,0.0,42,114,Electric Bass
9.25,0.0,54,79,Electric Bass
9.25,0.0,69,79,Electric Bass
9.5,0.1274968125796855,57,94,Electric Bass
9.5,0.1274968125796855,64,94,Electric Bass
9.5,0.0,61,97,Electric Bass
9.5,0.0,56,97,Electric Bass
9.5,0.1274968125796855,62,106,Electric Bass
9.5,0.1274968125796855,54,106,Electric Bass
10.0,0.16999575010624735,57,94,Electric Bass
10.0,0.16999575010624735,64,94,Electric Bass
10.0,0.16999575010624735,61,94,Electric Bass
10.0,0.1274968125796855,63,94,Electric Bass
10.0,0.1274968125796855,54,94,Electric Bass
10.0,0.1274968125796855,70,94,Electric Bass
10.0,0.0,46,120,Electric Bass
10.0,0.0,38,120,Electric Bass
10.5,0.0,64,90,Electric Bass
10.5,0.0,69,90,Electric Bass
10.75,0.0,54,77,Electric Bass
10.75,0.0,69,77,Electric Bass
10.75,0.0,38,73,Electric Bass
10.75,0.0,42,73,Electric Bass
11.0,0.125,57,94,Electric Bass
11.0,0.125,64,94,Electric Bass
11.0,0.0,61,97,Electric Bass
11.0,0.0,56,97,Electric Bass
11.0,0.0,54,72,Electric Bass
11.0,0.0,69,72,Electric Bass
11.25,0.0,54,88,Electric Bass
11.25,0.0,69,88,Electric Bass
11.25,0.0,42,98,Electric Bass
11.25,0.0,38,98,Electric Bass
11.5,0.0,30,81,Electric Bass
11.5,0.0,42,81,Electric Bass
11.5,0.125,62,116,Electric Bass
11.5,0.125,54,116,Electric Bass
11.5,0.0,69,95,Electric Bass
11.5,0.0,54,95,Electric Bass
11.75,0.0,57,96,Electric Bass
11.75,0.0,64,96,Electric Bass
11.75,0.0,61,96,Electric Bass
11.75,0.0,56,102,Electric Bass
11.75,0.0,61,102,Electric Bass
12.0,0.1274968125796855,63,102,Electric Bass
12.0,0.1274968125796855,70,102,Electric Bass
12.0,0.0,46,120,Electric Bass
12.0,0.0,38,120,Electric Bass
12.5,0.8924776880577986,75,97,Electric Bass
12.5,0.8924776880577986,78,97,Electric Bass
12.5,0.38249043773905655,58,94,Electric Bass
12.5,0.38249043773905655,63,94,Electric Bass
12.5,0.38249043773905655,59,94,Electric Bass
12.5,0.38249043773905655,66,94,Electric Bass
12.5,0.0,64,92,Electric Bass
12.5,0.0,69,92,Electric Bass
12.5,0.0,36,106,Electric Bass
12.5,0.0,42,106,Electric Bass
12.75,0.0,54,73,Electric Bass
12.75,0.0,69,73,Electric Bass
13.0,0.0,54,73,Electric Bass
13.0,0.0,69,73,Electric Bass
13.25,0.0,54,90,Electric Bass
13.25,0.0,69,90,Electric Bass
13.5,0.1274968125796855,58,91,Electric Bass
13.5,0.1274968125796855,66,91,Electric Bass
13.5,0.0,59,90,Electric Bass
13.5,0.0,63,90,Electric Bass
13.5,0.1274968125796855,54,107,Electric Bass
13.5,0.1274968125796855,62,107,Electric Bass
13.5,0.1274968125796855,69,107,Electric Bass
14.0,0.1274968125796855,58,99,Electric Bass
14.0,0.1274968125796855,63,99,Electric Bass
14.0,0.1274968125796855,59,99,Electric Bass
14.0,0.1274968125796855,66,100,Electric Bass
14.0,0.1274968125796855,63,100,Electric Bass
14.0,0.1274968125796855,63,106,Electric Bass
14.0,0.1274968125796855,70,106,Electric Bass
14.0,0.0,54,71,Electric Bass
14.0,0.0,70,71,Electric Bass
14.0,0.0,46,113,Electric Bass
14.0,0.0,38,113,Electric Bass
14.25,0.0,64,95,Electric Bass
14.25,0.0,54,95,Electric Bass
14.5,0.1274968125796855,30,81,Electric Bass
14.5,0.1274968125796855,42,81,Electric Bass
14.5,0.0,63,87,Electric Bass
14.5,0.0,69,87,Electric Bass
14.75,0.0,54,80,Electric Bass
14.75,0.0,69,80,Electric Bass
14.75,0.0,42,78,Electric Bass
14.75,0.0,38,78,Electric Bass
15.0,0.254993625159371,80,108,Electric Bass
15.0,0.254993625159371,71,108,Electric Bass
15.0,0.0,63,97,Electric Bass
15.0,0.0,59,97,Electric Bass
15.0,0.0,58,97,Electric Bass
15.0,0.0,66,97,Electric Bass
15.0,0.0,54,84,Electric Bass
15.0,0.0,69,84,Electric Bass
15.25,0.0,63,95,Electric Bass
15.25,0.0,54,95,Electric Bass
15.25,0.0,69,95,Electric Bass
15.25,0.0,42,98,Electric Bass
15.25,0.0,38,98,Electric Bass
15.5,0.0,30,86,Electric Bass
15.5,0.0,42,86,Electric Bass
15.5,0.1274968125796855,54,102,Electric Bass
15.5,0.1274968125796855,69,102,Electric Bass
15.5,0.0,36,111,Electric Bass
15.5,0.0,46,111,Electric Bass
15.75,0.254993625159371,71,108,Electric Bass
15.75,0.254993625159371,75,108,Electric Bass
15.75,0.0,58,97,Electric Bass
15.75,0.0,66,97,Electric Bass
15.75,0.0,59,97,Electric Bass
15.75,0.0,63,97,Electric Bass
16.0,0.1274968125796855,63,89,Electric Bass
16.0,0.1274968125796855,54,89,Electric Bass
16.0,0.1274968125796855,70,89,Electric Bass
16.0,0.0,46,113,Electric Bass
16.0,0.0,38,113,Electric Bass
16.25,0.0,30,89,Electric Bass
16.25,0.0,42,89,Electric Bass
16.5,0.254993625159371,58,108,Electric Bass
16.5,0.254993625159371,66,108,Electric Bass
16.5,0.254993625159371,59,108,Electric Bass
16.5,0.254993625159371,63,108,Electric Bass
16.5,0.0,64,98,Electric Bass
16.5,0.0,69,98,Electric Bass
16.75,0.0,54,82,Electric Bass
16.75,0.0,69,82,Electric Bass
17.0,1.1474713132171697,64,102,Electric Bass
17.0,1.1474713132171697,69,102,Electric Bass
17.0,1.1474713132171697,68,102,Electric Bass
17.0,0.0,66,68,Electric Bass
17.0,0.0,78,68,Electric Bass
17.0,0.0,69,82,Electric Bass
17.0,0.0,54,82,Electric Bass
17.0,0.0,36,114,Electric Bass
17.0,0.0,42,114,Electric Bass
17.25,0.0,54,79,Electric Bass
17.25,0.0,69,79,Electric Bass
17.5,0.0,52,88,Electric Bass
17.5,0.0,57,88,Electric Bass
17.5,0.0,56,88,Electric Bass
17.5,0.0,61,88,Electric Bass
17.5,0.1274968125796855,62,104,Electric Bass
17.5,0.1274968125796855,54,104,Electric Bass
18.0,0.125,57,97,Electric Bass
18.0,0.125,61,97,Electric Bass
18.0,0.0,52,102,Electric Bass
18.0,0.0,56,102,Electric Bass
18.0,0.0,54,85,Electric Bass
18.0,0.0,70,85,Electric Bass
18.0,0.0,46,120,Electric Bass
18.0,0.0,38,120,Electric Bass
18.5,0.125,30,83,Electric Bass
18.5,0.125,42,83,Electric Bass
18.5,0.0,64,69,Electric Bass
18.5,0.0,69,69,Electric Bass
18.75,0.0,54,77,Electric Bass
18.75,0.0,69,77,Electric Bass
18.75,0.0,38,73,Electric Bass
18.75,0.0,42,73,Electric Bass
19.0,0.1274968125796855,57,89,Electric Bass
19.0,0.1274968125796855,61,89,Electric Bass
19.0,0.0,52,97,Electric Bass
19.0,0.0,56,97,Electric Bass
19.0,0.0,54,72,Electric Bass
19.0,0.0,69,72,Electric Bass
19.25,0.0,54,88,Electric Bass
19.25,0.0,69,88,Electric Bass
19.25,0.1274968125796855,42,98,Electric Bass
19.25,0.1274968125796855,38,98,Electric Bass
19.5,0.0,30,72,Electric Bass
19.5,0.0,42,72,Electric Bass
19.5,0.0,69,105,Electric Bass
19.5,0.0,62,105,Electric Bass
19.5,0.0,54,105,Electric Bass
19.75,0.1274968125796855,57,94,Electric Bass
19.75,0.1274968125796855,61,94,Electric Bass
19.75,0.0,52,98,Electric Bass
19.75,0.0,56,98,Electric Bass
20.0,0.1274968125796855,70,85,Electric Bass
20.0,0.1274968125796855,63,85,Electric Bass
20.0,0.1274968125796855,54,85,Electric Bass
20.0,0.0,46,120,Electric Bass
20.0,0.0,38,120,Electric Bass
20.25,0.1274968125796855,30,68,Electric Bass
20.25,0.1274968125796855,42,68,Electric Bass
20.5,1.5299617509562262,66,100,Electric Bass
20.5,1.5299617509562262,70,100,Electric Bass
20.5,0.509987250318742,58,98,Electric Bass
20.5,0.509987250318742,54,98,Electric Bass
20.5,0.509987250318742,63,98,Electric Bass
20.5,0.509987250318742,59,98,Electric Bass
20.5,0.0,64,94,Electric Bass
20.5,0.0,69,94,Electric Bass
20.5,0.0,36,106,Electric Bass
20.5,0.0,42,106,Electric Bass
20.75,0.0,54,73,Electric Bass
20.75,0.0,69,73,Electric Bass
21.0,0.0,54,73,Electric Bass
21.0,0.0,69,73,Electric Bass
21.25,0.1274968125796855,30,84,Electric Bass
21.25,0.1274968125796855,42,84,Electric Bass
21.25,0.0,54,90,Electric Bass
21.25,0.0,69,90,Electric Bass
21.5,0.1274968125796855,58,80,Electric Bass
21.5,0.1274968125796855,63,80,Electric Bass
21.5,0.0,54,81,Electric Bass
21.5,0.0,59,81,Electric Bass
21.5,0.0,63,81,Electric Bass
21.5,0.1274968125796855,62,106,Electric Bass
21.5,0.1274968125796855,54,106,Electric Bass
21.5,0.1274968125796855,69,106,Electric Bass
22.0,0.0,63,93,Electric Bass
22.0,0.0,58,93,Electric Bass
22.0,0.0,54,93,Electric Bass
22.0,0.0,59,93,Electric Bass
22.0,0.1274968125796855,63,100,Electric Bass
22.0,0.1274968125796855,70,100,Electric Bass
22.0,0.0,54,71,Electric Bass
22.0,0.0,70,71,Electric Bass
22.0,0.0,46,113,Electric Bass
22.0,0.0,38,113,Electric Bass
22.5,0.1274968125796855,30,82,Electric Bass
22.5,0.1274968125796855,42,82,Electric Bass
22.5,0.0,64,96,Electric Bass
22.5,0.0,69,96,Electric Bass
22.75,0.0,54,80,Electric Bass
22.75,0.0,69,80,Electric Bass
22.75,0.0,42,78,Electric Bass
22.75,0.0,38,78,Electric Bass
23.0,0.0,58,97,Electric Bass
23.0,0.0,54,97,Electric Bass
23.0,0.0,59,97,Electric Bass
23.0,0.0,54,84,Electric Bass
23.0,0.0,69,84,Electric Bass
23.25,0.1274968125796855,73,109,Electric Bass
23.25,0.1274968125796855,68,109,Electric Bass
23.25,0.0,54,84,Electric Bass
23.25,0.0,69,84,Electric Bass
23.25,0.0,42,98,Electric Bass
23.25,0.0,38,98,Electric Bass
23.5,0.0,42,69,Electric Bass
23.5,0.0,30,69,Electric Bass
23.5,0.1274968125796855,76,114,Electric Bass
23.5,0.1274968125796855,73,114,Electric Bass
23.5,0.1274968125796855,62,109,Electric Bass
23.5,0.1274968125796855,54,109,Electric Bass
23.5,0.1274968125796855,69,109,Electric Bass
23.5,0.0,36,111,Electric Bass
23.5,0.0,46,111,Electric Bass
23.75,0.0,58,100,Electric Bass
23.75,0.0,63,100,Electric Bass
23.75,0.0,54,100,Electric Bass
23.75,0.0,59,100,Electric Bass
24.0,0.1274968125796855,82,114,Electric Bass
24.0,0.1274968125796855,78,114,Electric Bass
24.0,0.1274968125796855,63,103,Electric Bass
24.0,0.1274968125796855,70,103,Electric Bass
24.0,0.0,54,74,Electric Bass
24.0,0.0,70,74,Electric Bass
24.0,0.0,46,113,Electric Bass
24.0,0.0,38,113,Electric Bass
24.25,0.0,30,72,Electric Bass
24.25,0.0,42,72,Electric Bass
24.25,0.0,83,111,Electric Bass
24.25,0.0,80,111,Electric Bass
24.25,0.0,63,88,Electric Bass
24.25,0.0,54,88,Electric Bass
24.5,0.1274968125796855,58,91,Electric Bass
24.5,0.1274968125796855,63,91,Electric Bass
24.5,0.1274968125796855,54,91,Electric Bass
24.5,0.1274968125796855,82,85,Electric Bass
24.5,0.1274968125796855,78,85,Electric Bass
24.5,0.0,64,70,Electric Bass
24.5,0.0,69,70,Electric Bass
24.75,0.1274968125796855,83,100,Electric Bass
24.75,0.1274968125796855,80,100,Electric Bass
24.75,0.0,54,82,Electric Bass
24.75,0.0,69,82,Electric Bass
25.0,0.875,73,100,Electric Bass
25.0,0.875,69,100,Electric Bass
25.0,0.0,69,82,Electric Bass
25.0,0.0,54,82,Electric Bass
25.0,0.0,36,114,Electric Bass
25.0,0.0,42,114,Electric Bass
25.25,0.0,54,79,Electric Bass
25.25,0.0,69,79,Electric Bass
25.5,0.125,57,94,Electric Bass
25.5,0.125,64,94,Electric Bass
25.5,0.0,61,97,Electric Bass
25.5,0.0,56,97,Electric Bass
25.5,0.125,62,106,Electric Bass
25.5,0.125,54,106,Electric Bass
26.0,0.16999575010624735,57,94,Electric Bass
26.0,0.16999575010624735,64,94,Electric Bass
26.0,0.16999575010624735,61,94,Electric Bass
26.0,0.1274968125796855,63,94,Electric Bass
26.0,0.1274968125796855,54,94,Electric Bass
26.0,0.1274968125796855,70,94,Electric Bass
26.0,0.1274968125796855,46,120,Electric Bass
26.0,0.1274968125796855,38,120,Electric Bass
26.5,0.0,64,90,Electric Bass
26.5,0.0,69,90,Electric Bass
26.75,0.0,54,77,Electric Bass
26.75,0.0,69,77,Electric Bass
26.75,0.1274968125796855,38,73,Electric Bass
26.75,0.1274968125796855,42,73,Electric Bass
27.0,0.1274968125796855,57,94,Electric Bass
27.0,0.1274968125796855,64,94,Electric Bass
27.0,0.0,61,97,Electric Bass
27.0,0.0,56,97,Electric Bass
27.0,0.0,54,72,Electric Bass
27.0,0.0,69,72,Electric Bass
27.25,0.0,54,88,Electric Bass
27.25,0.0,69,88,Electric Bass
27.25,0.0,42,98,Electric Bass
27.25,0.0,38,98,Electric Bass
27.5,0.0,30,81,Electric Bass
27.5,0.0,42,81,Electric Bass
27.5,0.1274968125796855,62,116,Electric Bass
27.5,0.1274968125796855,54,116,Electric Bass
27.5,0.0,69,95,Electric Bass
27.5,0.0,54,95,Electric Bass
27.75,0.0,57,96,Electric Bass
27.75,0.0,64,96,Electric Bass
27.75,0.0,61,96,Electric Bass
27.75,0.0,56,102,Electric Bass
27.75,0.0,61,102,Electric Bass
28.0,0.1274968125796855,63,102,Electric Bass
28.0,0.1274968125796855,70,102,Electric Bass
28.0,0.0,46,120,Electric Bass
28.0,0.0,38,120,Electric Bass
28.5,1.9124521886952826,71,104,Electric Bass
28.5,1.9124521886952826,54,104,Electric Bass
28.5,1.9124521886952826,42,104,Electric Bass
28.5,0.38249043773905655,58,94,Electric Bass
28.5,0.38249043773905655,63,94,Electric Bass
28.5,0.38249043773905655,59,94,Electric Bass
28.5,0.38249043773905655,66,94,Electric Bass
28.5,0.0,64,92,Electric Bass
28.5,0.0,69,92,Electric Bass
28.5,0.0,36,106,Electric Bass
28.5,0.0,42,106,Electric Bass
28.75,0.0,54,73,Electric Bass
28.75,0.0,69,73,Electric Bass
29.0,0.0,54,73,Electric Bass
29.0,0.0,69,73,Electric Bass
29.25,0.0,54,90,Electric Bass
29.25,0.0,69,90,Electric Bass
29.5,0.1274968125796855,42,94,Electric Bass
29.5,0.1274968125796855,58,94,Electric Bass
29.5,0.0,59,90,Electric Bass
29.5,0.0,63,90,Electric Bass
29.5,0.1274968125796855,54,107,Electric Bass
29.5,0.1274968125796855,62,107,Electric Bass
29.5,0.1274968125796855,69,107,Electric Bass
30.0,0.1274968125796855,58,99,Electric Bass
30.0,0.1274968125796855,63,99,Electric Bass
30.0,0.1274968125796855,59,99,Electric Bass
30.0,0.1274968125796855,66,100,Electric Bass
30.0,0.1274968125796855,63,100,Electric Bass
30.0,0.1274968125796855,63,106,Electric Bass
30.0,0.1274968125796855,70,106,Electric Bass
30.0,0.0,54,71,Electric Bass
30.0,0.0,70,71,Electric Bass
30.0,0.0,46,113,Electric Bass
30.0,0.0,38,113,Electric Bass
30.25,0.0,64,95,Electric Bass
30.25,0.0,54,95,Electric Bass
30.5,0.1274968125796855,30,81,Electric Bass
30.5,0.1274968125796855,42,81,Electric Bass
30.5,0.0,63,87,Electric Bass
30.5,0.0,69,87,Electric Bass
30.75,0.0,54,80,Electric Bass
30.75,0.0,69,80,Electric Bass
30.75,0.0,42,78,Electric Bass
30.75,0.0,38,78,Electric Bass
31.0,0.0,63,97,Electric Bass
31.0,0.0,59,97,Electric Bass
31.0,0.0,58,97,Electric Bass
31.0,0.0,66,97,Electric Bass
31.0,0.0,54,84,Electric Bass
31.0,0.0,69,84,Electric Bass
31.25,0.0,63,95,Electric Bass
31.25,0.0,54,95,Electric Bass
31.25,0.0,69,95,Electric Bass
31.25,0.0,42,98,Electric Bass
31.25,0.0,38,98,Electric Bass
31.5,0.0,30,86,Electric Bass
31.5,0.0,42,86,Electric Bass
31.5,0.125,54,102,Electric Bass
31.5,0.125,69,102,Electric Bass
31.5,0.0,36,111,Electric Bass
31.5,0.0,46,111,Electric Bass
31.75,0.0,58,97,Electric Bass
31.75,0.0,66,97,Electric Bass
31.75,0.0,59,97,Electric Bass
31.75,0.0,63,97,Electric Bass
32.0,0.0,66,74,Electric Bass
32.0,0.0,78,74,Electric Bass
32.0,0.1274968125796855,63,89,Electric Bass
32.0,0.1274968125796855,54,89,Electric Bass
32.0,0.1274968125796855,70,89,Electric Bass
32.0,0.0,46,113,Electric Bass
32.0,0.0,38,113,Electric Bass
32.25,0.0,30,89,Electric Bass
32.25,0.0,42,89,Electric Bass
32.5,0.254993625159371,58,108,Electric Bass
32.5,0.254993625159371,66,108,Electric Bass
32.5,0.254993625159371,59,108,Electric Bass
32.5,0.254993625159371,63,108,Electric Bass
32.5,0.0,66,70,Electric Bass
32.5,0.0,78,70,Electric Bass
32.5,0.0,64,98,Electric Bass
32.5,0.0,69,98,Electric Bass
32.75,0.0,54,82,Electric Bass
32.75,0.0,69,82,Electric Bass
33.0,1.019974500637484,52,98,Electric Bass
33.0,1.019974500637484,30,98,Electric Bass
33.0,1.019974500637484,57,98,Electric Bass
33.0,1.019974500637484,56,98,Electric Bass
33.0,0.0,69,82,Electric Bass
33.0,0.0,54,82,Electric Bass
33.0,0.1274968125796855,36,114,Electric Bass
33.0,0.1274968125796855,42,114,Electric Bass
33.25,0.0,54,79,Electric Bass
33.25,0.0,69,79,Electric Bass
33.5,0.0,52,88,Electric Bass
33.5,0.0,57,88,Electric Bass
33.5,0.0,56,88,Electric Bass
33.5,0.0,61,88,Electric Bass
33.5,0.0,66,60,Electric Bass
33.5,0.0,78,60,Electric Bass
33.5,0.1274968125796855,62,104,Electric Bass
33.5,0.1274968125796855,54,104,Electric Bass
34.0,0.1274968125796855,57,97,Electric Bass
34.0,0.1274968125796855,61,97,Electric Bass
34.0,0.0,52,102,Electric Bass
34.0,0.0,56,102,Electric Bass
34.0,0.0,54,85,Electric Bass
34.0,0.0,70,85,Electric Bass
34.0,0.0,46,120,Electric Bass
34.0,0.0,38,120,Electric Bass
34.5,0.1274968125796855,30,83,Electric Bass
34.5,0.1274968125796855,42,83,Electric Bass
34.5,0.0,64,69,Electric Bass
34.5,0.0,69,69,Electric Bass
34.75,0.0,54,77,Electric Bass
34.75,0.0,69,77,Electric Bass
34.75,0.0,38,73,Electric Bass
34.75,0.0,42,73,Electric Bass
35.0,0.1274968125796855,57,89,Electric Bass
35.0,0.1274968125796855,61,89,Electric Bass
35.0,0.0,52,97,Electric Bass
35.0,0.0,56,97,Electric Bass
35.0,0.0,54,72,Electric Bass
35.0,0.0,69,72,Electric Bass
35.25,0.0,54,88,Electric Bass
35.25,0.0,69,88,Electric Bass
35.25,0.0,42,98,Electric Bass
35.25,0.0,38,98,Electric Bass
35.5,0.0,30,72,Electric Bass
35.5,0.0,42,72,Electric Bass
35.5,0.0,69,105,Electric Bass
35.5,0.0,62,105,Electric Bass
35.5,0.0,54,105,Electric Bass
35.75,0.1274968125796855,57,94,Electric Bass
35.75,0.1274968125796855,61,94,Electric Bass
35.75,0.0,52,98,Electric Bass
35.75,0.0,56,98,Electric Bass
36.0,0.1274968125796855,70,85,Electric Bass
36.0,0.1274968125796855,63,85,Electric Bass
36.0,0.1274968125796855,54,85,Electric Bass
36.0,0.0,46,120,Electric Bass
36.0,0.0,38,120,Electric Bass
36.25,0.1274968125796855,30,68,Electric Bass
36.25,0.1274968125796855,42,68,Electric Bass
36.5,1.7849553761155972,54,98,Electric Bass
36.5,1.7849553761155972,58,98,Electric Bass
36.5,0.509987250318742,58,98,Electric Bass
36.5,0.509987250318742,54,98,Electric Bass
36.5,0.509987250318742,63,98,Electric Bass
36.5,0.509987250318742,59,98,Electric Bass
36.5,0.0,64,94,Electric Bass
36.5,0.0,69,94,Electric Bass
36.5,0.0,36,106,Electric Bass
36.5,0.0,42,106,Electric Bass
36.75,0.0,54,73,Electric Bass
36.75,0.0,69,73,Electric Bass
37.0,0.0,54,73,Electric Bass
37.0,0.0,69,73,Electric Bass
37.25,0.1274968125796855,30,84,Electric Bass
37.25,0.1274968125796855,42,84,Electric Bass
37.25,0.0,54,90,Electric Bass
37.25,0.0,69,90,Electric Bass
37.5,0.1274968125796855,58,80,Electric Bass
37.5,0.1274968125796855,63,80,Electric Bass
37.5,0.0,54,81,Electric Bass
37.5,0.0,59,81,Electric Bass
37.5,0.0,63,81,Electric Bass
37.5,0.1274968125796855,62,106,Electric Bass
37.5,0.1274968125796855,54,106,Electric Bass
37.5,0.1274968125796855,69,106,Electric Bass
38.0,0.0,63,93,Electric Bass
38.0,0.0,58,93,Electric Bass
38.0,0.0,54,93,Electric Bass
38.0,0.0,59,93,Electric Bass
38.0,0.125,63,100,Electric Bass
38.0,0.125,70,100,Electric Bass
38.0,0.0,54,71,Electric Bass
38.0,0.0,70,71,Electric Bass
38.0,0.0,46,113,Electric Bass
38.0,0.0,38,113,Electric Bass
38.5,0.125,30,82,Electric Bass
38.5,0.125,42,82,Electric Bass
38.5,0.0,64,96,Electric Bass
38.5,0.0,69,96,Electric Bass
38.75,0.0,54,80,Electric Bass
38.75,0.0,69,80,Electric Bass
38.75,0.0,42,78,Electric Bass
38.75,0.0,38,78,Electric Bass
39.0,0.0,58,97,Electric Bass
39.0,0.0,54,97,Electric Bass
39.0,0.0,59,97,Electric Bass
39.0,0.0,54,84,Electric Bass
39.0,0.0,69,84,Electric Bass
39.25,0.0,54,84,Electric Bass
39.25,0.0,69,84,Electric Bass
39.25,0.1274968125796855,42,98,Electric Bass
39.25,0.1274968125796855,38,98,Electric Bass
39.5,0.0,42,69,Electric Bass
39.5,0.0,30,69,Electric Bass
39.5,0.1274968125796855,62,109,Electric Bass
39.5,0.1274968125796855,54,109,Electric Bass
39.5,0.1274968125796855,69,109,Electric Bass
39.5,0.1274968125796855,36,111,Electric Bass
39.5,0.1274968125796855,46,111,Electric Bass
39.75,0.0,58,100,Electric Bass
39.75,0.0,63,100,Electric Bass
39.75,0.0,54,100,Electric Bass
39.75,0.0,59,100,Electric Bass
40.0,0.1274968125796855,63,103,Electric Bass
40.0,0.1274968125796855,70,103,Electric Bass
40.0,0.0,54,74,Electric Bass
40.0,0.0,70,74,Electric Bass
40.0,0.0,46,113,Electric Bass
40.0,0.0,38,113,Electric Bass
40.25,0.0,30,72,Electric Bass
40.25,0.0,42,72,Electric Bass
40.25,0.0,63,88,Electric Bass
40.25,0.0,54,88,Electric Bass
40.5,0.1274968125796855,58,91,Electric Bass
40.5,0.1274968125796855,63,91,Electric Bass
40.5,0.1274968125796855,54,91,Electric Bass
40.5,0.0,64,70,Electric Bass
40.5,0.0,69,70,Electric Bass
40.75,0.0,54,82,Electric Bass
40.75,0.0,69,82,Electric Bass
41.0,0.0,69,82,Electric Bass
41.0,0.0,54,82,Electric Bass
41.0,0.0,36,114,Electric Bass
41.0,0.0,42,114,Electric Bass
41.25,0.0,54,79,Electric Bass
41.25,0.0,69,79,Electric Bass
41.5,0.1274968125796855,57,94,Electric Bass
41.5,0.1274968125796855,64,94,Electric Bass
41.5,0.0,61,97,Electric Bass
41.5,0.0,56,97,Electric Bass
41.5,0.1274968125796855,62,106,Electric Bass
41.5,0.1274968125796855,54,106,Electric Bass
42.0,0.16999575010624735,57,94,Electric Bass
42.0,0.16999575010624735,64,94,Electric Bass
42.0,0.16999575010624735,61,94,Electric Bass
42.0,0.1274968125796855,63,94,Electric Bass
42.0,0.1274968125796855,54,94,Electric Bass
42.0,0.1274968125796855,70,94,Electric Bass
42.0,0.0,46,120,Electric Bass
42.0,0.0,38,120,Electric Bass
42.5,0.0,64,90,Electric Bass
42.5,0.0,69,90,Electric Bass
42.75,0.0,54,77,Electric Bass
42.75,0.0,69,77,Electric Bass
42.75,0.0,38,73,Electric Bass
42.75,0.0,42,73,Electric Bass
43.0,0.1274968125796855,57,94,Electric Bass
43.0,0.1274968125796855,64,94,Electric Bass
43.0,0.0,61,97,Electric Bass
43.0,0.0,56,97,Electric Bass
43.0,0.0,54,72,Electric Bass
43.0,0.0,69,72,Electric Bass
43.25,0.0,54,88,Electric Bass
43.25,0.0,69,88,Electric Bass
43.25,0.0,42,98,Electric Bass
43.25,0.0,38,98,Electric Bass
43.5,0.0,30,81,Electric Bass
43.5,0.0,42,81,Electric Bass
43.5,0.1274968125796855,62,116,Electric Bass
43.5,0.1274968125796855,54,116,Electric Bass
43.5,0.0,69,95,Electric Bass
43.5,0.0,54,95,Electric Bass
43.75,0.0,57,96,Electric Bass
43.75,0.0,64,96,Electric Bass
43.75,0.0,61,96,Electric Bass
43.75,0.0,56,102,Electric Bass
43.75,0.0,61,102,Electric Bass
44.0,0.125,63,102,Electric Bass
44.0,0.125,70,102,Electric Bass
44.0,0.0,46,120,Electric Bass
44.0,0.0,38,120,Electric Bass
44.5,0.875,63,95,Electric Bass
44.5,0.875,66,95,Electric Bass
44.5,0.375,58,94,Electric Bass
44.5,0.375,63,94,Electric Bass
44.5,0.375,59,94,Electric Bass
44.5,0.375,66,94,Electric Bass
44.5,0.0,64,92,Electric Bass
44.5,0.0,69,92,Electric Bass
44.5,0.0,36,106,Electric Bass
44.5,0.0,42,106,Electric Bass
44.75,0.0,54,73,Electric Bass
44.75,0.0,69,73,Electric Bass
45.0,0.0,54,73,Electric Bass
45.0,0.0,69,73,Electric Bass
45.25,0.0,54,90,Electric Bass
45.25,0.0,69,90,Electric Bass
45.5,0.1274968125796855,42,94,Electric Bass
45.5,0.1274968125796855,58,94,Electric Bass
45.5,0.0,59,90,Electric Bass
45.5,0.0,63,90,Electric Bass
45.5,0.1274968125796855,54,107,Electric Bass
45.5,0.1274968125796855,62,107,Electric Bass
45.5,0.1274968125796855,69,107,Electric Bass
46.0,0.1274968125796855,58,99,Electric Bass
46.0,0.1274968125796855,63,99,Electric Bass
46.0,0.1274968125796855,59,99,Electric Bass
46.0,0.1274968125796855,66,100,Electric Bass
46.0,0.1274968125796855,63,100,Electric Bass
46.0,0.1274968125796855,63,106,Electric Bass
46.0,0.1274968125796855,70,106,Electric Bass
46.0,0.0,54,71,Electric Bass
46.0,0.0,70,71,Electric Bass
46.0,0.0,46,113,Electric Bass
46.0,0.0,38,113,Electric Bass
46.25,0.0,64,95,Electric Bass
46.25,0.0,54,95,Electric Bass
46.5,0.1274968125796855,30,81,Electric Bass
46.5,0.1274968125796855,42,81,Electric Bass
46.5,0.0,63,87,Electric Bass
46.5,0.0,69,87,Electric Bass
46.75,0.0,54,80,Electric Bass
46.75,0.0,69,80,Electric Bass
46.75,0.1274968125796855,42,78,Electric Bass
46.75,0.1274968125796855,38,78,Electric Bass
47.0,0.254993625159371,68,106,Electric Bass
47.0,0.254993625159371,59,106,Electric Bass
47.0,0.0,63,97,Electric Bass
47.0,0.0,59,97,Electric Bass
47.0,0.0,58,97,Electric Bass
47.0,0.0,66,97,Electric Bass
47.0,0.0,54,84,Electric Bass
47.0,0.0,69,84,Electric Bass
47.25,0.0,63,95,Electric Bass
47.25,0.0,54,95,Electric Bass
47.25,0.0,69,95,Electric Bass
47.25,0.0,42,98,Electric Bass
47.25,0.0,38,98,Electric Bass
47.5,0.0,30,86,Electric Bass
47.5,0.0,42,86,Electric Bass
47.5,0.1274968125796855,54,102,Electric Bass
47.5,0.1274968125796855,69,102,Electric Bass
47.5,0.0,36,111,Electric Bass
47.5,0.0,46,111,Electric Bass
47.75,0.254993625159371,59,108,Electric Bass
47.75,0.254993625159371,63,108,Electric Bass
47.75,0.0,58,97,Electric Bass
47.75,0.0,66,97,Electric Bass
47.75,0.0,59,97,Electric Bass
47.75,0.0,63,97,Electric Bass
48.0,0.1274968125796855,63,89,Electric Bass
48.0,0.1274968125796855,54,89,Electric Bass
48.0,0.1274968125796855,70,89,Electric Bass
48.0,0.0,46,113,Electric Bass
48.0,0.0,38,113,Electric Bass
48.25,0.0,30,89,Electric Bass
48.25,0.0,42,89,Electric Bass
48.5,0.254993625159371,58,108,Electric Bass
48.5,0.254993625159371,66,108,Electric Bass
48.5,0.254993625159371,59,108,Electric Bass
48.5,0.254993625159371,63,108,Electric Bass
48.5,0.0,64,98,Electric Bass
48.5,0.0,69,98,Electric Bass
48.75,0.0,54,82,Electric Bass
48.75,0.0,69,82,Electric Bass
49.0,1.1474713132171697,52,101,Electric Bass
49.0,1.1474713132171697,57,101,Electric Bass
49.0,1.1474713132171697,56,101,Electric Bass
49.0,0.0,69,82,Electric Bass
49.0,0.0,54,82,Electric Bass
49.0,0.0,36,114,Electric Bass
49.0,0.0,42,114,Electric Bass
49.25,0.0,54,79,Electric Bass
49.25,0.0,69,79,Electric Bass
49.5,0.0,52,88,Electric Bass
49.5,0.0,57,88,Electric Bass
49.5,0.0,56,88,Electric Bass
49.5,0.0,61,88,Electric Bass
49.5,0.1274968125796855,62,104,Electric Bass
49.5,0.1274968125796855,54,104,Electric Bass
50.0,0.1274968125796855,57,97,Electric Bass
50.0,0.1274968125796855,61,97,Electric Bass
50.0,0.0,52,102,Electric Bass
50.0,0.0,56,102,Electric Bass
50.0,0.0,54,85,Electric Bass
50.0,0.0,70,85,Electric Bass
50.0,0.0,46,120,Electric Bass
50.0,0.0,38,120,Electric Bass
50.5,0.1274968125796855,30,83,Electric Bass
50.5,0.1274968125796855,42,83,Electric Bass
50.5,0.0,64,69,Electric Bass
50.5,0.0,69,69,Electric Bass
50.75,0.0,54,77,Electric Bass
50.75,0.0,69,77,Electric Bass
50.75,0.0,38,73,Electric Bass
50.75,0.0,42,73,Electric Bass
51.0,0.125,57,89,Electric Bass
51.0,0.125,61,89,Electric Bass
51.0,0.0,52,97,Electric Bass
51.0,0.0,56,97,Electric Bass
51.0,0.0,54,72,Electric Bass
51.0,0.0,69,72,Electric Bass
51.25,0.0,54,88,Electric Bass
51.25,0.0,69,88,Electric Bass
51.25,0.0,42,98,Electric Bass
51.25,0.0,38,98,Electric Bass
51.5,0.0,30,72,Electric Bass
51.5,0.0,42,72,Electric Bass
51.5,0.0,69,105,Electric Bass
51.5,0.0,62,105,Electric Bass
51.5,0.0,54,105,Electric Bass
51.75,0.125,57,94,Electric Bass
51.75,0.125,61,94,Electric Bass
51.75,0.0,52,98,Electric Bass
51.75,0.0,56,98,Electric Bass
52.0,0.1274968125796855,70,85,Electric Bass
52.0,0.1274968125796855,63,85,Electric Bass
52.0,0.1274968125796855,54,85,Electric Bass
52.0,0.1274968125796855,46,120,Electric Bass
52.0,0.1274968125796855,38,120,Electric Bass
52.25,0.1274968125796855,30,68,Electric Bass
52.25,0.1274968125796855,42,68,Electric Bass
52.5,1.5299617509562262,54,99,Electric Bass
52.5,1.5299617509562262,58,99,Electric Bass
52.5,0.509987250318742,58,98,Electric Bass
52.5,0.509987250318742,54,98,Electric Bass
52.5,0.509987250318742,63,98,Electric Bass
52.5,0.509987250318742,59,98,Electric Bass
52.5,0.0,64,94,Electric Bass
52.5,0.0,69,94,Electric Bass
52.5,0.1274968125796855,36,106,Electric Bass
52.5,0.1274968125796855,42,106,Electric Bass
52.75,0.0,54,73,Electric Bass
52.75,0.0,69,73,Electric Bass
53.0,0.0,54,73,Electric Bass
53.0,0.0,69,73,Electric Bass
53.25,0.1274968125796855,30,84,Electric Bass
53.25,0.1274968125796855,42,84,Electric Bass
53.25,0.0,54,90,Electric Bass
53.25,0.0,69,90,Electric Bass
53.5,0.1274968125796855,58,80,Electric Bass
53.5,0.1274968125796855,63,80,Electric Bass
53.5,0.0,54,81,Electric Bass
53.5,0.0,59,81,Electric Bass
53.5,0.0,63,81,Electric Bass
53.5,0.1274968125796855,62,106,Electric Bass
53.5,0.1274968125796855,54,106,Electric Bass
53.5,0.1274968125796855,69,106,Electric Bass
54.0,0.0,63,93,Electric Bass
54.0,0.0,58,93,Electric Bass
54.0,0.0,54,93,Electric Bass
54.0,0.0,59,93,Electric Bass
54.0,0.1274968125796855,63,100,Electric Bass
54.0,0.1274968125796855,70,100,Electric Bass
54.0,0.0,54,71,Electric Bass
54.0,0.0,70,71,Electric Bass
54.0,0.0,46,113,Electric Bass
54.0,0.0,38,113,Electric Bass
54.5,0.1274968125796855,30,82,Electric Bass
54.5,0.1274968125796855,42,82,Electric Bass
54.5,0.0,64,96,Electric Bass
54.5,0.0,69,96,Electric Bass
54.75,0.0,54,80,Electric Bass
54.75,0.0,69,80,Electric Bass
54.75,0.0,42,78,Electric Bass
54.75,0.0,38,78,Electric Bass
55.0,0.0,58,97,Electric Bass
55.0,0.0,54,97,Electric Bass
55.0,0.0,59,97,Electric Bass
55.0,0.0,54,84,Electric Bass
55.0,0.0,69,84,Electric Bass
55.25,0.0,54,84,Electric Bass
55.25,0.0,69,84,Electric Bass
55.25,0.0,42,98,Electric Bass
55.25,0.0,38,98,Electric Bass
55.5,0.0,42,69,Electric Bass
55.5,0.0,30,69,Electric Bass
55.5,0.1274968125796855,62,109,Electric Bass
55.5,0.1274968125796855,54,109,Electric Bass
55.5,0.1274968125796855,69,109,Electric Bass
55.5,0.0,36,111,Electric Bass
55.5,0.0,46,111,Electric Bass
55.75,0.0,58,100,Electric Bass
55.75,0.0,63,100,Electric Bass
55.75,0.0,54,100,Electric Bass
55.75,0.0,59,100,Electric Bass
56.0,0.1274968125796855,63,103,Electric Bass
56.0,0.1274968125796855,70,103,Electric Bass
56.0,0.0,54,74,Electric Bass
56.0,0.0,70,74,Electric Bass
56.0,0.0,46,113,Electric Bass
56.0,0.0,38,113,Electric Bass
56.25,0.0,30,72,Electric Bass
56.25,0.0,42,72,Electric Bass
56.25,0.0,63,88,Electric Bass
56.25,0.0,54,88,Electric Bass
56.5,0.1274968125796855,58,91,Electric Bass
56.5,0.1274968125796855,63,91,Electric Bass
56.5,0.1274968125796855,54,91,Electric Bass
56.5,0.0,64,70,Electric Bass
56.5,0.0,69,70,Electric Bass
56.75,0.0,54,82,Electric Bass
56.75,0.0,69,82,Electric Bass
57.0,0.875,61,113,Electric Bass
57.0,0.875,57,113,Electric Bass
57.0,0.0,69,82,Electric Bass
57.0,0.0,54,82,Electric Bass
57.0,0.0,36,114,Electric Bass
57.0,0.0,42,114,Electric Bass
57.25,0.0,54,79,Electric Bass
57.25,0.0,69,79,Electric Bass
57.5,0.125,57,94,Electric Bass
57.5,0.125,64,94,Electric Bass
57.5,0.0,61,97,Electric Bass
57.5,0.0,56,97,Electric Bass
57.5,0.125,62,106,Electric Bass
57.5,0.125,54,106,Electric Bass
58.0,0.16999575010624735,57,94,Electric Bass
58.0,0.16999575010624735,64,94,Electric Bass
58.0,0.16999575010624735,61,94,Electric Bass
58.0,0.1274968125796855,63,94,Electric Bass
58.0,0.1274968125796855,54,94,Electric Bass
58.0,0.1274968125796855,70,94,Electric Bass
58.0,0.0,46,120,Electric Bass
58.0,0.0,38,120,Electric Bass
58.5,0.0,64,90,Electric Bass
58.5,0.0,69,90,Electric Bass
58.75,0.0,54,77,Electric Bass
58.75,0.0,69,77,Electric Bass
58.75,0.0,38,73,Electric Bass
58.75,0.0,42,73,Electric Bass
59.0,0.1274968125796855,57,94,Electric Bass
59.0,0.1274968125796855,64,94,Electric Bass
59.0,0.0,61,97,Electric Bass
59.0,0.0,56,97,Electric Bass
59.0,0.0,54,72,Electric Bass
59.0,0.0,69,72,Electric Bass
59.25,0.0,54,88,Electric Bass
59.25,0.0,69,88,Electric Bass
59.25,0.1274968125796855,42,98,Electric Bass
59.25,0.1274968125796855,38,98,Electric Bass
59.5,0.0,30,81,Electric Bass
59.5,0.0,42,81,Electric Bass
59.5,0.1274968125796855,62,116,Electric Bass
59.5,0.1274968125796855,54,116,Electric Bass
59.5,0.0,69,95,Electric Bass
59.5,0.0,54,95,Electric Bass
59.75,0.1274968125796855,57,96,Electric Bass
59.75,0.1274968125796855,64,96,Electric Bass
59.75,0.1274968125796855,61,96,Electric Bass
59.75,0.0,56,102,Electric Bass
59.75,0.0,61,102,Electric Bass
60.0,0.1274968125796855,63,102,Electric Bass
60.0,0.1274968125796855,70,102,Electric Bass
60.0,0.0,46,120,Electric Bass
60.0,0.0,38,120,Electric Bass
60.5,1.9124521886952826,59,118,Electric Bass
60.5,1.9124521886952826,42,118,Electric Bass
60.5,1.9124521886952826,30,118,Electric Bass
60.5,0.38249043773905655,58,94,Electric Bass
60.5,0.38249043773905655,63,94,Electric Bass
60.5,0.38249043773905655,59,94,Electric Bass
60.5,0.38249043773905655,66,94,Electric Bass
60.5,0.0,64,92,Electric Bass
60.5,0.0,69,92,Electric Bass
60.5,0.0,36,106,Electric Bass
60.5,0.0,42,106,Electric Bass
60.75,0.0,54,73,Electric Bass
60.75,0.0,69,73,Electric Bass
61.0,0.0,54,73,Electric Bass
61.0,0.0,69,73,Electric Bass
61.25,0.0,54,90,Electric Bass
61.25,0.0,69,90,Electric Bass
61.5,0.1274968125796855,42,94,Electric Bass
61.5,0.1274968125796855,58,94,Electric Bass
61.5,0.0,59,90,Electric Bass
61.5,0.0,63,90,Electric Bass
61.5,0.1274968125796855,54,107,Electric Bass
61.5,0.1274968125796855,62,107,Electric Bass
61.5,0.1274968125796855,69,107,Electric Bass
62.0,0.1274968125796855,58,99,Electric Bass
62.0,0.1274968125796855,63,99,Electric Bass
62.0,0.1274968125796855,59,99,Electric Bass
62.0,0.1274968125796855,66,100,Electric Bass
62.0,0.1274968125796855,63,100,Electric Bass
62.0,0.1274968125796855,63,106,Electric Bass
62.0,0.1274968125796855,70,106,Electric Bass
62.0,0.0,54,71,Electric Bass
62.0,0.0,70,71,Electric Bass
62.0,0.0,46,113,Electric Bass
62.0,0.0,38,113,Electric Bass
62.25,0.0,64,95,Electric Bass
62.25,0.0,54,95,Electric Bass
62.5,0.1274968125796855,30,81,Electric Bass
62.5,0.1274968125796855,42,81,Electric Bass
62.5,0.0,63,87,Electric Bass
62.5,0.0,69,87,Electric Bass
62.75,0.0,54,80,Electric Bass
62.75,0.0,69,80,Electric Bass
62.75,0.0,42,78,Electric Bass
62.75,0.0,38,78,Electric Bass
63.0,0.0,63,97,Electric Bass
63.0,0.0,59,97,Electric Bass
63.0,0.0,58,97,Electric Bass
63.0,0.0,66,97,Electric Bass
63.0,0.0,54,84,Electric Bass
63.0,0.0,69,84,Electric Bass
63.25,0.0,63,95,Electric Bass
63.25,0.0,54,95,Electric Bass
63.25,0.0,69,95,Electric Bass
63.25,0.0,42,98,Electric Bass
63.25,0.0,38,98,Electric Bass
63.5,0.0,30,86,Electric Bass
63.5,0.0,42,86,Electric Bass
63.5,0.1274968125796855,54,102,Electric Bass
63.5,0.1274968125796855,69,102,Electric Bass
63.5,0.0,36,111,Electric Bass
63.5,0.0,46,111,Electric Bass
63.75,0.0,58,97,Electric Bass
63.75,0.0,66,97,Electric Bass
63.75,0.0,59,97,Electric Bass
63.75,0.0,63,97,Electric Bass
64.0,0.125,63,89,Electric Bass
64.0,0.125,54,89,Electric Bass
64.0,0.125,70,89,Electric Bass
64.0,0.0,46,113,Electric Bass
64.0,0.0,38,113,Electric Bass
64.25,0.0,30,89,Electric Bass
64.25,0.0,42,89,Electric Bass
64.5,0.25,58,108,Electric Bass
64.5,0.25,66,108,Electric Bass
64.5,0.25,59,108,Electric Bass
64.5,0.25,63,108,Electric Bass
64.5,0.0,64,98,Electric Bass
64.5,0.0,69,98,Electric Bass
64.75,0.0,54,82,Electric Bass
64.75,0.0,69,82,Electric Bass
65.0,1.1474713132171697,52,101,Electric Bass
65.0,1.1474713132171697,57,101,Electric Bass
65.0,1.1474713132171697,56,101,Electric Bass
65.0,0.0,69,82,Electric Bass
65.0,0.0,54,82,Electric Bass
65.0,0.1274968125796855,36,114,Electric Bass
65.0,0.1274968125796855,42,114,Electric Bass
65.25,0.0,54,79,Electric Bass
65.25,0.0,69,79,Electric Bass
65.5,0.0,52,88,Electric Bass
65.5,0.0,57,88,Electric Bass
65.5,0.0,56,88,Electric Bass
65.5,0.0,61,88,Electric Bass
65.5,0.1274968125796855,62,104,Electric Bass
65.5,0.1274968125796855,54,104,Electric Bass
66.0,0.1274968125796855,57,97,Electric Bass
66.0,0.1274968125796855,61,97,Electric Bass
66.0,0.0,52,102,Electric Bass
66.0,0.0,56,102,Electric Bass
66.0,0.0,54,85,Electric Bass
66.0,0.0,70,85,Electric Bass
66.0,0.0,46,120,Electric Bass
66.0,0.0,38,120,Electric Bass
66.5,0.1274968125796855,30,83,Electric Bass
66.5,0.1274968125796855,42,83,Electric Bass
66.5,0.0,64,69,Electric Bass
66.5,0.0,69,69,Electric Bass
66.75,0.0,54,77,Electric Bass
66.75,0.0,69,77,Electric Bass
66.75,0.0,38,73,Electric Bass
66.75,0.0,42,73,Electric Bass
67.0,0.1274968125796855,57,89,Electric Bass
67.0,0.1274968125796855,61,89,Electric Bass
67.0,0.0,52,97,Electric Bass
67.0,0.0,56,97,Electric Bass
67.0,0.0,54,72,Electric Bass
67.0,0.0,69,72,Electric Bass
67.25,0.0,54,88,Electric Bass
67.25,0.0,69,88,Electric Bass
67.25,0.0,42,98,Electric Bass
67.25,0.0,38,98,Electric Bass
67.5,0.0,30,72,Electric Bass
67.5,0.0,42,72,Electric Bass
67.5,0.0,69,105,Electric Bass
67.5,0.0,62,105,Electric Bass
67.5,0.0,54,105,Electric Bass
67.75,0.1274968125796855,57,94,Electric Bass
67.75,0.1274968125796855,61,94,Electric Bass
67.75,0.0,52,98,Electric Bass
67.75,0.0,56,98,Electric Bass
68.0,0.1274968125796855,70,85,Electric Bass
68.0,0.1274968125796855,63,85,Electric Bass
68.0,0.1274968125796855,54,85,Electric Bass
68.0,0.0,46,120,Electric Bass
68.0,0.0,38,120,Electric Bass
68.25,0.1274968125796855,30,68,Electric Bass
68.25,0.1274968125796855,42,68,Electric Bass
68.5,1.5299617509562262,54,99,Electric Bass
68.5,1.5299617509562262,58,99,Electric Bass
68.5,0.509987250318742,58,98,Electric Bass
68.5,0.509987250318742,54,98,Electric Bass
68.5,0.509987250318742,63,98,Electric Bass
68.5,0.509987250318742,59,98,Electric Bass
68.5,0.0,64,94,Electric Bass
68.5,0.0,69,94,Electric Bass
68.5,0.0,36,106,Electric Bass
68.5,0.0,42,106,Electric Bass
68.75,0.0,54,73,Electric Bass
68.75,0.0,69,73,Electric Bass
69.0,0.0,54,73,Electric Bass
69.0,0.0,69,73,Electric Bass
69.25,0.1274968125796855,30,84,Electric Bass
69.25,0.1274968125796855,42,84,Electric Bass
69.25,0.0,54,90,Electric Bass
69.25,0.0,69,90,Electric Bass
69.5,0.1274968125796855,58,80,Electric Bass
69.5,0.1274968125796855,63,80,Electric Bass
69.5,0.0,54,81,Electric Bass
69.5,0.0,59,81,Electric Bass
69.5,0.0,63,81,Electric Bass
69.5,0.1274968125796855,62,106,Electric Bass
69.5,0.1274968125796855,54,106,Electric Bass
69.5,0.1274968125796855,69,106,Electric Bass
70.0,0.0,63,93,Electric Bass
70.0,0.0,58,93,Electric Bass
70.0,0.0,54,93,Electric Bass
70.0,0.0,59,93,Electric Bass
70.0,0.1274968125796855,63,100,Electric Bass
70.0,0.1274968125796855,70,100,Electric Bass
70.0,0.0,54,71,Electric Bass
70.0,0.0,70,71,Electric Bass
70.0,0.0,46,113,Electric Bass
70.0,0.0,38,113,Electric Bass
70.5,0.1274968125796855,30,82,Electric Bass
70.5,0.1274968125796855,42,82,Electric Bass
70.5,0.0,64,96,Electric Bass
70.5,0.0,69,96,Electric Bass
70.75,0.0,54,80,Electric Bass
70.75,0.0,69,80,Electric Bass
70.75,0.0,42,78,Electric Bass
70.75,0.0,38,78,Electric Bass
71.0,0.0,58,97,Electric Bass
71.0,0.0,54,97,Electric Bass
71.0,0.0,59,97,Electric Bass
71.0,0.0,54,84,Electric Bass
71.0,0.0,69,84,Electric Bass
71.25,0.0,54,84,Electric Bass
71.25,0.0,69,84,Electric Bass
71.25,0.0,42,98,Electric Bass
71.25,0.0,38,98,Electric Bass
71.5,0.0,42,69,Electric Bass
71.5,0.0,30,69,Electric Bass
71.5,0.125,62,109,Electric Bass
71.5,0.125,54,109,Electric Bass
71.5,0.125,69,109,Electric Bass
71.5,0.0,36,111,Electric Bass
71.5,0.0,46,111,Electric Bass
71.75,0.0,58,100,Electric Bass
71.75,0.0,63,100,Electric Bass
71.75,0.0,54,100,Electric Bass
71.75,0.0,59,100,Electric Bass
72.0,0.1274968125796855,63,103,Electric Bass
72.0,0.1274968125796855,70,103,Electric Bass
72.0,0.0,54,74,Electric Bass
72.0,0.0,70,74,Electric Bass
72.0,0.1274968125796855,46,113,Electric Bass
72.0,0.1274968125796855,38,113,Electric Bass
72.25,0.0,30,72,Electric Bass
72.25,0.0,42,72,Electric Bass
72.25,0.0,63,88,Electric Bass
72.25,0.0,54,88,Electric Bass
72.5,0.1274968125796855,58,91,Electric Bass
72.5,0.1274968125796855,63,91,Electric Bass
72.5,0.1274968125796855,54,91,Electric Bass
72.5,0.0,64,70,Electric Bass
72.5,0.0,69,70,Electric Bass
72.75,0.0,54,82,Electric Bass
72.75,0.0,69,82,Electric Bass
73.0,0.8924776880577986,61,113,Electric Bass
73.0,0.8924776880577986,57,113,Electric Bass
73.0,0.0,69,82,Electric Bass
73.0,0.0,54,82,Electric Bass
73.0,0.0,36,114,Electric Bass
73.0,0.0,42,114,Electric Bass
73.25,0.0,54,79,Electric Bass
73.25,0.0,69,79,Electric Bass
73.5,0.1274968125796855,57,94,Electric Bass
73.5,0.1274968125796855,64,94,Electric Bass
73.5,0.0,61,97,Electric Bass
73.5,0.0,56,97,Electric Bass
73.5,0.1274968125796855,62,106,Electric Bass
73.5,0.1274968125796855,54,106,Electric Bass
74.0,0.16999575010624735,57,94,Electric Bass
74.0,0.16999575010624735,64,94,Electric Bass
74.0,0.16999575010624735,61,94,Electric Bass
74.0,0.1274968125796855,63,94,Electric Bass
74.0,0.1274968125796855,54,94,Electric Bass
74.0,0.1274968125796855,70,94,Electric Bass
74.0,0.0,46,120,Electric Bass
74.0,0.0,38,120,Electric Bass
74.5,0.0,64,90,Electric Bass
74.5,0.0,69,90,Electric Bass
74.75,0.0,54,77,Electric Bass
74.75,0.0,69,77,Electric Bass
74.75,0.0,38,73,Electric Bass
74.75,0.0,42,73,Electric Bass
75.0,0.1274968125796855,57,94,Electric Bass
75.0,0.1274968125796855,64,94,Electric Bass
75.0,0.0,61,97,Electric Bass
75.0,0.0,56,97,Electric Bass
75.0,0.0,54,72,Electric Bass
75.0,0.0,69,72,Electric Bass
75.25,0.0,54,88,Electric Bass
75.25,0.0,69,88,Electric Bass
75.25,0.0,42,98,Electric Bass
75.25,0.0,38,98,Electric Bass
75.5,0.0,30,81,Electric Bass
75.5,0.0,42,81,Electric Bass
75.5,0.1274968125796855,62,116,Electric Bass
75.5,0.1274968125796855,54,116,Electric Bass
75.5,0.0,69,95,Electric Bass
75.5,0.0,54,95,Electric Bass
75.75,0.0,57,96,Electric Bass
75.75,0.0,64,96,Electric Bass
75.75,0.0,61,96,Electric Bass
75.75,0.0,56,102,Electric Bass
75.75,0.0,61,102,Electric Bass
76.0,0.125,63,102,Electric Bass
76.0,0.125,70,102,Electric Bass
76.0,0.0,46,120,Electric Bass
76.0,0.0,38,120,Electric Bass
76.5,1.875,59,118,Electric Bass
76.5,1.875,42,118,Electric Bass
76.5,1.875,30,118,Electric Bass
76.5,0.375,58,94,Electric Bass
76.5,0.375,63,94,Electric Bass
76.5,0.375,59,94,Electric Bass
76.5,0.375,66,94,Electric Bass
76.5,0.0,64,92,Electric Bass
76.5,0.0,69,92,Electric Bass
76.5,0.0,36,106,Electric Bass
76.5,0.0,42,106,Electric Bass
76.75,0.0,54,73,Electric Bass
76.75,0.0,69,73,Electric Bass
77.0,0.0,54,73,Electric Bass
77.0,0.0,69,73,Electric Bass
77.25,0.0,54,90,Electric Bass
77.25,0.0,69,90,Electric Bass
77.5,0.1274968125796855,42,94,Electric Bass
77.5,0.1274968125796855,58,94,Electric Bass
77.5,0.0,59,90,Electric Bass
77.5,0.0,63,90,Electric Bass
77.5,0.1274968125796855,54,107,Electric Bass
77.5,0.1274968125796855,62,107,Electric Bass
77.5,0.1274968125796855,69,107,Electric Bass
78.0,0.1274968125796855,58,99,Electric Bass
78.0,0.1274968125796855,63,99,Electric Bass
78.0,0.1274968125796855,59,99,Electric Bass
78.0,0.1274968125796855,66,100,Electric Bass
78.0,0.1274968125796855,63,100,Electric Bass
78.0,0.1274968125796855,63,106,Electric Bass
78.0,0.1274968125796855,70,106,Electric Bass
78.0,0.0,54,71,Electric Bass
78.0,0.0,70,71,Electric Bass
78.0,0.1274968125796855,46,113,Electric Bass
78.0,0.1274968125796855,38,113,Electric Bass
78.25,0.0,64,95,Electric Bass
78.25,0.0,54,95,Electric Bass
78.5,0.1274968125796855,30,81,Electric Bass
78.5,0.1274968125796855,42,81,Electric Bass
78.5,0.0,63,87,Electric Bass
78.5,0.0,69,87,Electric Bass
78.75,0.0,54,80,Electric Bass
78.75,0.0,69,80,Electric Bass
78.75,0.1274968125796855,42,78,Electric Bass
78.75,0.1274968125796855,38,78,Electric Bass
79.0,0.0,63,97,Electric Bass
79.0,0.0,59,97,Electric Bass
79.0,0.0,58,97,Electric Bass
79.0,0.0,66,97,Electric Bass
79.0,0.0,54,84,Electric Bass
79.0,0.0,69,84,Electric Bass
79.25,0.1274968125796855,73,109,Electric Bass
79.25,0.1274968125796855,68,109,Electric Bass
79.25,0.0,63,95,Electric Bass
79.25,0.0,54,95,Electric Bass
79.25,0.0,69,95,Electric Bass
79.25,0.0,42,98,Electric Bass
79.25,0.0,38,98,Electric Bass
79.5,0.0,30,86,Electric Bass
79.5,0.0,42,86,Electric Bass
79.5,0.1274968125796855,76,114,Electric Bass
79.5,0.1274968125796855,73,114,Electric Bass
79.5,0.1274968125796855,62,110,Electric Bass
79.5,0.1274968125796855,69,110,Electric Bass
79.5,0.1274968125796855,54,102,Electric Bass
79.5,0.1274968125796855,69,102,Electric Bass
79.5,0.0,36,111,Electric Bass
79.5,0.0,46,111,Electric Bass
79.75,0.0,58,97,Electric Bass
79.75,0.0,66,97,Electric Bass
79.75,0.0,59,97,Electric Bass
79.75,0.0,63,97,Electric Bass
80.0,0.1274968125796855,82,114,Electric Bass
80.0,0.1274968125796855,78,114,Electric Bass
80.0,0.1274968125796855,63,89,Electric Bass
80.0,0.1274968125796855,54,89,Electric Bass
80.0,0.1274968125796855,70,89,Electric Bass
80.0,0.0,46,113,Electric Bass
80.0,0.0,38,113,Electric Bass
80.25,0.0,30,89,Electric Bass
80.25,0.0,42,89,Electric Bass
80.25,0.0,83,111,Electric Bass
80.25,0.0,80,111,Electric Bass
80.5,0.254993625159371,58,108,Electric Bass
80.5,0.254993625159371,66,108,Electric Bass
80.5,0.254993625159371,59,108,Electric Bass
80.5,0.254993625159371,63,108,Electric Bass
80.5,0.1274968125796855,82,85,Electric Bass
80.5,0.1274968125796855,78,85,Electric Bass
80.5,0.0,64,98,Electric Bass
80.5,0.0,69,98,Electric Bass
80.75,0.1274968125796855,83,100,Electric Bass
80.75,0.1274968125796855,80,100,Electric Bass
80.75,0.0,54,82,Electric Bass
80.75,0.0,69,82,Electric Bass
81.0,1.1474713132171697,52,101,Electric Bass
81.0,1.1474713132171697,57,101,Electric Bass
81.0,1.1474713132171697,56,101,Electric Bass
81.0,0.3399915002124947,81,123,Electric Bass
81.0,0.3399915002124947,78,123,Electric Bass
81.0,0.0,69,82,Electric Bass
81.0,0.0,54,82,Electric Bass
81.0,0.0,36,114,Electric Bass
81.0,0.0,42,114,Electric Bass
81.25,0.0,54,79,Electric Bass
81.25,0.0,69,79,Electric Bass
81.5,0.0,52,88,Electric Bass
81.5,0.0,57,88,Electric Bass
81.5,0.0,56,88,Electric Bass
81.5,0.0,61,88,Electric Bass
81.5,0.1274968125796855,62,104,Electric Bass
81.5,0.1274968125796855,54,104,Electric Bass
82.0,0.1274968125796855,57,97,Electric Bass
82.0,0.1274968125796855,61,97,Electric Bass
82.0,0.0,52,102,Electric Bass
82.0,0.0,56,102,Electric Bass
82.0,0.0,54,85,Electric Bass
82.0,0.0,70,85,Electric Bass
82.0,0.0,46,120,Electric Bass
82.0,0.0,38,120,Electric Bass
82.5,0.1274968125796855,30,83,Electric Bass
82.5,0.1274968125796855,42,83,Electric Bass
82.5,0.0,64,69,Electric Bass
82.5,0.0,69,69,Electric Bass
82.75,0.0,54,77,Electric Bass
82.75,0.0,69,77,Electric Bass
82.75,0.0,38,73,Electric Bass
82.75,0.0,42,73,Electric Bass
83.0,0.125,57,89,Electric Bass
83.0,0.125,61,89,Electric Bass
83.0,0.0,52,97,Electric Bass
83.0,0.0,56,97,Electric Bass
83.0,0.0,54,72,Electric Bass
83.0,0.0,69,72,Electric Bass
83.25,0.0,54,88,Electric Bass
83.25,0.0,69,88,Electric Bass
83.25,0.0,42,98,Electric Bass
83.25,0.0,38,98,Electric Bass
83.5,0.0,30,72,Electric Bass
83.5,0.0,42,72,Electric Bass
83.5,0.0,69,105,Electric Bass
83.5,0.0,62,105,Electric Bass
83.5,0.0,54,105,Electric Bass
83.75,0.125,57,94,Electric Bass
83.75,0.125,61,94,Electric Bass
83.75,0.0,52,98,Electric Bass
83.75,0.0,56,98,Electric Bass
84.0,0.1274968125796855,70,85,Electric Bass
84.0,0.1274968125796855,63,85,Electric Bass
84.0,0.1274968125796855,54,85,Electric Bass
84.0,0.0,46,120,Electric Bass
84.0,0.0,38,120,Electric Bass
84.25,0.1274968125796855,30,68,Electric Bass
84.25,0.1274968125796855,42,68,Electric Bass
84.5,1.5299617509562262,54,99,Electric Bass
84.5,1.5299617509562262,58,99,Electric Bass
84.5,0.509987250318742,58,98,Electric Bass
84.5,0.509987250318742,54,98,Electric Bass
84.5,0.509987250318742,63,98,Electric Bass
84.5,0.509987250318742,59,98,Electric Bass
84.5,0.0,64,94,Electric Bass
84.5,0.0,69,94,Electric Bass
84.5,0.0,36,106,Electric Bass
84.5,0.0,42,106,Electric Bass
84.75,0.0,54,73,Electric Bass
84.75,0.0,69,73,Electric Bass
85.0,0.0,54,73,Electric Bass
85.0,0.0,69,73,Electric Bass
85.25,0.1274968125796855,30,84,Electric Bass
85.25,0.1274968125796855,42,84,Electric Bass
85.25,0.0,54,90,Electric Bass
85.25,0.0,69,90,Electric Bass
85.5,0.1274968125796855,58,80,Electric Bass
85.5,0.1274968125796855,63,80,Electric Bass
85.5,0.0,54,81,Electric Bass
85.5,0.0,59,81,Electric Bass
85.5,0.0,63,81,Electric Bass
85.5,0.1274968125796855,62,106,Electric Bass
85.5,0.1274968125796855,54,106,Electric Bass
85.5,0.1274968125796855,69,106,Electric Bass
86.0,0.0,63,93,Electric Bass
86.0,0.0,58,93,Electric Bass
86.0,0.0,54,93,Electric Bass
86.0,0.0,59,93,Electric Bass
86.0,0.1274968125796855,63,100,Electric Bass
86.0,0.1274968125796855,70,100,Electric Bass
86.0,0.0,54,71,Electric Bass
86.0,0.0,70,71,Electric Bass
86.0,0.0,46,113,Electric Bass
86.0,0.0,38,113,Electric Bass
86.5,0.1274968125796855,30,82,Electric Bass
86.5,0.1274968125796855,42,82,Electric Bass
86.5,0.0,64,96,Electric Bass
86.5,0.0,69,96,Electric Bass
86.75,0.0,54,80,Electric Bass
86.75,0.0,69,80,Electric Bass
86.75,0.0,42,78,Electric Bass
86.75,0.0,38,78,Electric Bass
87.0,0.0,58,97,Electric Bass
87.0,0.0,54,97,Electric Bass
87.0,0.0,59,97,Electric Bass
87.0,0.0,54,84,Electric Bass
87.0,0.0,69,84,Electric Bass
87.25,0.0,54,84,Electric Bass
87.25,0.0,69,84,Electric Bass
87.25,0.0,42,98,Electric Bass
87.25,0.0,38,98,Electric Bass
87.5,0.0,42,69,Electric Bass
87.5,0.0,30,69,Electric Bass
87.5,0.1274968125796855,62,109,Electric Bass
87.5,0.1274968125796855,54,109,Electric Bass
87.5,0.1274968125796855,69,109,Electric Bass
87.5,0.0,36,111,Electric Bass
87.5,0.0,46,111,Electric Bass
87.75,0.0,58,100,Electric Bass
87.75,0.0,63,100,Electric Bass
87.75,0.0,54,100,Electric Bass
87.75,0.0,59,100,Electric Bass
88.0,0.1274968125796855,63,103,Electric Bass
88.0,0.1274968125796855,70,103,Electric Bass
88.0,0.0,54,74,Electric Bass
88.0,0.0,70,74,Electric Bass
88.0,0.0,46,113,Electric Bass
88.0,0.0,38,113,Electric Bass
88.25,0.0,30,72,Electric Bass
88.25,0.0,42,72,Electric Bass
88.25,0.0,63,88,Electric Bass
88.25,0.0,54,88,Electric Bass
88.5,0.1274968125796855,58,91,Electric Bass
88.5,0.1274968125796855,63,91,Electric Bass
88.5,0.1274968125796855,54,91,Electric Bass
88.5,0.0,64,70,Electric Bass
88.5,0.0,69,70,Electric Bass
88.75,0.0,54,82,Electric Bass
88.75,0.0,69,82,Electric Bass
89.0,0.875,61,113,Electric Bass
89.0,0.875,57,113,Electric Bass
89.0,0.0,69,82,Electric Bass
89.0,0.0,54,82,Electric Bass
89.0,0.0,36,114,Electric Bass
89.0,0.0,42,114,Electric Bass
89.25,0.0,54,79,Electric Bass
89.25,0.0,69,79,Electric Bass
89.5,0.125,57,94,Electric Bass
89.5,0.125,64,94,Electric Bass
89.5,0.0,61,97,Electric Bass
89.5,0.0,56,97,Electric Bass
89.5,0.125,62,106,Electric Bass
89.5,0.125,54,106,Electric Bass
90.0,0.16999575010624735,57,94,Electric Bass
90.0,0.16999575010624735,64,94,Electric Bass
90.0,0.16999575010624735,61,94,Electric Bass
90.0,0.1274968125796855,63,94,Electric Bass
90.0,0.1274968125796855,54,94,Electric Bass
90.0,0.1274968125796855,70,94,Electric Bass
90.0,0.0,46,120,Electric Bass
90.0,0.0,38,120,Electric Bass
90.5,0.0,64,90,Electric Bass
90.5,0.0,69,90,Electric Bass
90.75,0.0,54,77,Electric Bass
90.75,0.0,69,77,Electric Bass
90.75,0.0,38,73,Electric Bass
90.75,0.0,42,73,Electric Bass
91.0,0.1274968125796855,57,94,Electric Bass
91.0,0.1274968125796855,64,94,Electric Bass
91.0,0.0,61,97,Electric Bass
91.0,0.0,56,97,Electric Bass
91.0,0.0,54,72,Electric Bass
91.0,0.0,69,72,Electric Bass
91.25,0.0,54,88,Electric Bass
91.25,0.0,69,88,Electric Bass
91.25,0.0,42,98,Electric Bass
91.25,0.0,38,98,Electric Bass
91.5,0.0,30,81,Electric Bass
91.5,0.0,42,81,Electric Bass
91.5,0.1274968125796855,62,116,Electric Bass
91.5,0.1274968125796855,54,116,Electric Bass
91.5,0.0,69,95,Electric Bass
91.5,0.0,54,95,Electric Bass
91.75,0.0,57,96,Electric Bass
91.75,0.0,64,96,Electric Bass
91.75,0.0,61,96,Electric Bass
91.75,0.0,56,102,Electric Bass
91.75,0.0,61,102,Electric Bass
92.0,0.1274968125796855,63,102,Electric Bass
92.0,0.1274968125796855,70,102,Electric Bass
92.0,0.1274968125796855,46,120,Electric Bass
92.0,0.1274968125796855,38,120,Electric Bass
92.5,1.9124521886952826,59,118,Electric Bass
92.5,1.9124521886952826,42,118,Electric Bass
92.5,1.9124521886952826,30,118,Electric Bass
92.5,0.38249043773905655,58,94,Electric Bass
92.5,0.38249043773905655,63,94,Electric Bass
92.5,0.38249043773905655,59,94,Electric Bass
92.5,0.38249043773905655,66,94,Electric Bass
92.5,0.0,64,92,Electric Bass
92.5,0.0,69,92,Electric Bass
92.5,0.1274968125796855,36,106,Electric Bass
92.5,0.1274968125796855,42,106,Electric Bass
92.75,0.0,54,73,Electric Bass
92.75,0.0,69,73,Electric Bass
93.0,0.0,54,73,Electric Bass
93.0,0.0,69,73,Electric Bass
93.25,0.0,54,90,Electric Bass
93.25,0.0,69,90,Electric Bass
93.5,0.1274968125796855,42,94,Electric Bass
93.5,0.1274968125796855,58,94,Electric Bass
93.5,0.0,59,90,Electric Bass
93.5,0.0,63,90,Electric Bass
93.5,0.1274968125796855,54,107,Electric Bass
93.5,0.1274968125796855,62,107,Electric Bass
93.5,0.1274968125796855,69,107,Electric Bass
94.0,0.1274968125796855,58,99,Electric Bass
94.0,0.1274968125796855,63,99,Electric Bass
94.0,0.1274968125796855,59,99,Electric Bass
94.0,0.1274968125796855,66,100,Electric Bass
94.0,0.1274968125796855,63,100,Electric Bass
94.0,0.1274968125796855,63,106,Electric Bass
94.0,0.1274968125796855,70,106,Electric Bass
94.0,0.0,54,71,Electric Bass
94.0,0.0,70,71,Electric Bass
94.0,0.0,46,113,Electric Bass
94.0,0.0,38,113,Electric Bass
94.25,0.0,64,95,Electric Bass
94.25,0.0,54,95,Electric Bass
94.5,0.1274968125796855,30,81,Electric Bass
94.5,0.1274968125796855,42,81,Electric Bass
94.5,0.0,63,87,Electric Bass
94.5,0.0,69,87,Electric Bass
94.75,0.0,54,80,Electric Bass
94.75,0.0,69,80,Electric Bass
94.75,0.0,42,78,Electric Bass
94.75,0.0,38,78,Electric Bass
95.0,0.0,63,97,Electric Bass
95.0,0.0,59,97,Electric Bass
95.0,0.0,58,97,Electric Bass
95.0,0.0,66,97,Electric Bass
95.0,0.0,54,84,Electric Bass
95.0,0.0,69,84,Electric Bass
95.25,0.0,63,95,Electric Bass
95.25,0.0,54,95,Electric Bass
95.25,0.0,69,95,Electric Bass
95.25,0.0,42,98,Electric Bass
95.25,0.0,38,98,Electric Bass
95.5,0.0,30,86,Electric Bass
95.5,0.0,42,86,Electric Bass
95.5,0.1274968125796855,54,102,Electric Bass
95.5,0.1274968125796855,69,102,Electric Bass
95.5,0.0,36,111,Electric Bass
95.5,0.0,46,111,Electric Bass
95.75,0.0,58,97,Electric Bass
95.75,0.0,66,97,Electric Bass
95.75,0.0,59,97,Electric Bass
95.75,0.0,63,97,Electric Bass
96.0,0.1274968125796855,63,89,Electric Bass
96.0,0.1274968125796855,54,89,Electric Bass
96.0,0.1274968125796855,70,89,Electric Bass
96.0,0.0,46,113,Electric Bass
96.0,0.0,38,113,Electric Bass
96.25,0.0,30,89,Electric Bass
96.25,0.0,42,89,Electric Bass
96.5,0.1274968125796855,58,108,Electric Bass
96.5,0.1274968125796855,66,108,Electric Bass
96.5,0.1274968125796855,59,108,Electric Bass
96.5,0.1274968125796855,63,108,Electric Bass
96.5,0.0,64,98,Electric Bass
96.5,0.0,69,98,Electric Bass
96.75,0.0,54,82,Electric Bass
96.75,0.0,69,82,Electric Bass
97.0,0.625,61,107,Electric Bass
97.0,0.625,50,107,Electric Bass
97.0,0.625,57,107,Electric Bass
97.0,0.625,54,108,Electric Bass
97.0,0.625,57,108,Electric Bass
97.0,0.0,69,82,Electric Bass
97.0,0.0,54,82,Electric Bass
97.0,0.0,36,114,Electric Bass
97.0,0.0,42,114,Electric Bass
97.25,0.0,54,79,Electric Bass
97.25,0.0,69,79,Electric Bass
97.5,0.125,57,87,Electric Bass
97.5,0.125,66,87,Electric Bass
97.5,0.125,62,87,Electric Bass
97.5,0.125,66,90,Electric Bass
97.5,0.125,78,90,Electric Bass
97.5,0.125,62,104,Electric Bass
97.5,0.125,54,104,Electric Bass
98.0,0.1274968125796855,57,96,Electric Bass
98.0,0.1274968125796855,62,96,Electric Bass
98.0,0.1274968125796855,66,96,Electric Bass
98.0,0.0,54,85,Electric Bass
98.0,0.0,70,85,Electric Bass
98.0,0.1274968125796855,46,120,Electric Bass
98.0,0.1274968125796855,38,120,Electric Bass
98.5,0.0,47,72,Electric Bass
98.5,0.0,35,72,Electric Bass
98.5,0.0,64,69,Electric Bass
98.5,0.0,69,69,Electric Bass
98.75,0.0,54,77,Electric Bass
98.75,0.0,69,77,Electric Bass
98.75,0.1274968125796855,38,73,Electric Bass
98.75,0.1274968125796855,42,73,Electric Bass
99.0,0.16999575010624735,57,86,Electric Bass
99.0,0.16999575010624735,62,86,Electric Bass
99.0,0.0,54,72,Electric Bass
99.0,0.0,69,72,Electric Bass
99.25,0.0,54,88,Electric Bass
99.25,0.0,69,88,Electric Bass
99.25,0.0,42,98,Electric Bass
99.25,0.0,38,98,Electric Bass
99.5,0.0,35,72,Electric Bass
99.5,0.0,47,72,Electric Bass
99.5,0.0,69,105,Electric Bass
99.5,0.0,62,105,Electric Bass
99.5,0.0,54,105,Electric Bass
99.75,0.1274968125796855,57,90,Electric Bass
99.75,0.1274968125796855,62,90,Electric Bass
99.75,0.0,66,90,Electric Bass
99.75,0.0,59,90,Electric Bass
100.0,0.1274968125796855,70,85,Electric Bass
100.0,0.1274968125796855,63,85,Electric Bass
100.0,0.1274968125796855,54,85,Electric Bass
100.0,0.0,46,120,Electric Bass
100.0,0.0,38,120,Electric Bass
100.25,0.0,47,79,Electric Bass
100.25,0.0,35,79,Electric Bass
100.5,0.254993625159371,57,90,Electric Bass
100.5,0.254993625159371,62,90,Electric Bass
100.5,0.254993625159371,66,90,Electric Bass
100.5,0.0,64,94,Electric Bass
100.5,0.0,69,94,Electric Bass
100.5,0.0,36,106,Electric Bass
100.5,0.0,42,106,Electric Bass
100.75,0.0,54,73,Electric Bass
100.75,0.0,69,73,Electric Bass
101.0,1.1474713132171697,57,100,Electric Bass
101.0,1.1474713132171697,68,100,Electric Bass
101.0,1.019974500637484,64,109,Electric Bass
101.0,1.019974500637484,61,109,Electric Bass
101.0,0.0,54,73,Electric Bass
101.0,0.0,69,73,Electric Bass
101.25,0.0,54,90,Electric Bass
101.25,0.0,69,90,Electric Bass
101.5,0.1274968125796855,57,84,Electric Bass
101.5,0.1274968125796855,61,84,Electric Bass
101.5,0.0,64,88,Electric Bass
101.5,0.0,56,88,Electric Bass
101.5,0.1274968125796855,62,106,Electric Bass
101.5,0.1274968125796855,54,106,Electric Bass
101.5,0.1274968125796855,69,106,Electric Bass
102.0,0.0,64,97,Electric Bass
102.0,0.0,56,97,Electric Bass
102.0,0.0,61,97,Electric Bass
102.0,0.1274968125796855,63,100,Electric Bass
102.0,0.1274968125796855,70,100,Electric Bass
102.0,0.0,54,71,Electric Bass
102.0,0.0,70,71,Electric Bass
102.0,0.0,46,113,Electric Bass
102.0,0.0,38,113,Electric Bass
102.25,0.1274968125796855,57,94,Electric Bass
102.25,0.1274968125796855,56,94,Electric Bass
102.25,0.1274968125796855,61,94,Electric Bass
102.5,0.0,64,96,Electric Bass
102.5,0.0,69,96,Electric Bass
102.75,0.1274968125796855,37,70,Electric Bass
102.75,0.1274968125796855,49,70,Electric Bass
102.75,0.0,54,80,Electric Bass
102.75,0.0,69,80,Electric Bass
102.75,0.0,42,78,Electric Bass
102.75,0.0,38,78,Electric Bass
103.0,0.125,57,106,Electric Bass
103.0,0.125,56,106,Electric Bass
103.0,0.0,64,98,Electric Bass
103.0,0.0,61,98,Electric Bass
103.0,0.0,54,84,Electric Bass
103.0,0.0,69,84,Electric Bass
103.25,0.0,54,84,Electric Bass
103.25,0.0,69,84,Electric Bass
103.25,0.0,42,98,Electric Bass
103.25,0.0,38,98,Electric Bass
103.5,0.0,49,86,Electric Bass
103.5,0.0,37,86,Electric Bass
103.5,0.125,62,109,Electric Bass
103.5,0.125,54,109,Electric Bass
103.5,0.125,69,109,Electric Bass
103.5,0.0,36,111,Electric Bass
103.5,0.0,46,111,Electric Bass
103.75,0.0,64,96,Electric Bass
103.75,0.0,57,96,Electric Bass
103.75,0.0,56,96,Electric Bass
103.75,0.0,61,96,Electric Bass
104.0,0.1274968125796855,63,103,Electric Bass
104.0,0.1274968125796855,70,103,Electric Bass
104.0,0.0,54,74,Electric Bass
104.0,0.0,70,74,Electric Bass
104.0,0.0,46,113,Electric Bass
104.0,0.0,38,113,Electric Bass
104.25,0.0,49,90,Electric Bass
104.25,0.0,37,90,Electric Bass
104.25,0.0,63,88,Electric Bass
104.25,0.0,54,88,Electric Bass
104.5,0.3399915002124947,64,94,Electric Bass
104.5,0.3399915002124947,57,94,Electric Bass
104.5,0.3399915002124947,61,94,Electric Bass
104.5,0.254993625159371,56,96,Electric Bass
104.5,0.254993625159371,57,96,Electric Bass
104.5,0.254993625159371,61,96,Electric Bass
104.5,0.0,64,70,Electric Bass
104.5,0.0,69,70,Electric Bass
104.75,0.0,54,82,Electric Bass
104.75,0.0,69,82,Electric Bass
105.0,0.509987250318742,53,106,Electric Bass
105.0,0.509987250318742,59,106,Electric Bass
105.0,0.0,69,82,Electric Bass
105.0,0.0,54,82,Electric Bass
105.0,0.1274968125796855,36,114,Electric Bass
105.0,0.1274968125796855,42,114,Electric Bass
105.25,0.0,54,79,Electric Bass
105.25,0.0,69,79,Electric Bass
105.5,0.254993625159371,53,91,Electric Bass
105.5,0.254993625159371,62,91,Electric Bass
105.5,0.254993625159371,59,91,Electric Bass
105.5,0.254993625159371,56,91,Electric Bass
105.5,0.1274968125796855,62,106,Electric Bass
105.5,0.1274968125796855,54,106,Electric Bass
106.0,0.1274968125796855,63,94,Electric Bass
106.0,0.1274968125796855,54,94,Electric Bass
106.0,0.1274968125796855,70,94,Electric Bass
106.0,0.0,46,120,Electric Bass
106.0,0.0,38,120,Electric Bass
106.25,0.254993625159371,59,89,Electric Bass
106.25,0.254993625159371,56,89,Electric Bass
106.25,0.254993625159371,53,89,Electric Bass
106.5,0.0,64,90,Electric Bass
106.5,0.0,69,90,Electric Bass
106.75,0.0,54,77,Electric Bass
106.75,0.0,69,77,Electric Bass
106.75,0.0,38,73,Electric Bass
106.75,0.0,42,73,Electric Bass
107.0,0.38249043773905655,62,101,Electric Bass
107.0,0.38249043773905655,65,101,Electric Bass
107.0,0.38249043773905655,56,101,Electric Bass
107.0,0.0,56,98,Electric Bass
107.0,0.0,59,98,Electric Bass
107.0,0.254993625159371,62,78,Electric Bass
107.0,0.254993625159371,65,78,Electric Bass
107.0,0.0,54,72,Electric Bass
107.0,0.0,69,72,Electric Bass
107.25,0.0,54,88,Electric Bass
107.25,0.0,69,88,Electric Bass
107.25,0.0,42,98,Electric Bass
107.25,0.0,38,98,Electric Bass
107.5,0.1274968125796855,62,116,Electric Bass
107.5,0.1274968125796855,54,116,Electric Bass
107.5,0.0,69,95,Electric Bass
107.5,0.0,54,95,Electric Bass
107.75,0.254993625159371,62,92,Electric Bass
107.75,0.254993625159371,65,92,Electric Bass
107.75,0.254993625159371,59,92,Electric Bass
107.75,0.254993625159371,56,92,Electric Bass
108.0,0.1274968125796855,63,102,Electric Bass
108.0,0.1274968125796855,70,102,Electric Bass
108.0,0.0,46,120,Electric Bass
108.0,0.0,38,120,Electric Bass
108.5,0.254993625159371,62,95,Electric Bass
108.5,0.254993625159371,59,95,Electric Bass
108.5,0.254993625159371,56,95,Electric Bass
108.5,0.0,64,92,Electric Bass
108.5,0.0,69,92,Electric Bass
108.5,0.0,36,106,Electric Bass
108.5,0.0,42,106,Electric Bass
108.75,0.0,54,73,Electric Bass
108.75,0.0,69,73,Electric Bass
109.0,1.3333333333333333,61,104,Electric Bass
109.0,1.3333333333333333,66,104,Electric Bass
109.0,0.0,54,73,Electric Bass
109.0,0.0,69,73,Electric Bass
109.25,0.0,54,90,Electric Bass
109.25,0.0,69,90,Electric Bass
109.5,0.125,57,88,Electric Bass
109.5,0.125,61,88,Electric Bass
109.5,0.125,54,107,Electric Bass
109.5,0.125,62,107,Electric Bass
109.5,0.125,69,107,Electric Bass
110.0,0.1274968125796855,57,84,Electric Bass
110.0,0.1274968125796855,61,84,Electric Bass
110.0,0.0,52,100,Electric Bass
110.0,0.0,56,100,Electric Bass
110.0,0.1274968125796855,63,106,Electric Bass
110.0,0.1274968125796855,70,106,Electric Bass
110.0,0.0,54,71,Electric Bass
110.0,0.0,70,71,Electric Bass
110.0,0.0,46,113,Electric Bass
110.0,0.0,38,113,Electric Bass
110.25,0.1274968125796855,61,96,Electric Bass
110.25,0.1274968125796855,56,96,Electric Bass
110.25,0.1274968125796855,52,96,Electric Bass
110.25,0.1274968125796855,57,96,Electric Bass
110.25,0.0,64,95,Electric Bass
110.25,0.0,54,95,Electric Bass
110.5,0.0,63,87,Electric Bass
110.5,0.0,69,87,Electric Bass
110.75,0.1274968125796855,30,72,Electric Bass
110.75,0.1274968125796855,42,72,Electric Bass
110.75,0.0,54,80,Electric Bass
110.75,0.0,69,80,Electric Bass
110.75,0.0,42,78,Electric Bass
110.75,0.0,38,78,Electric Bass
111.0,0.0,54,84,Electric Bass
111.0,0.0,69,84,Electric Bass
111.25,0.1274968125796855,63,95,Electric Bass
111.25,0.1274968125796855,54,95,Electric Bass
111.25,0.1274968125796855,69,95,Electric Bass
111.25,0.1274968125796855,42,98,Electric Bass
111.25,0.1274968125796855,38,98,Electric Bass
111.5,0.1274968125796855,30,81,Electric Bass
111.5,0.1274968125796855,42,81,Electric Bass
111.5,0.1274968125796855,54,102,Electric Bass
111.5,0.1274968125796855,69,102,Electric Bass
111.5,0.1274968125796855,36,111,Electric Bass
111.5,0.1274968125796855,46,111,Electric Bass
111.75,0.1274968125796855,57,100,Electric Bass
111.75,0.1274968125796855,61,100,Electric Bass
112.0,0.1274968125796855,63,89,Electric Bass
112.0,0.1274968125796855,54,89,Electric Bass
112.0,0.1274968125796855,70,89,Electric Bass
112.0,0.0,46,113,Electric Bass
112.0,0.0,38,113,Electric Bass
112.25,0.1274968125796855,42,96,Electric Bass
112.25,0.1274968125796855,30,96,Electric Bass
112.5,0.254993625159371,52,104,Electric Bass
112.5,0.254993625159371,57,104,Electric Bass
112.5,0.254993625159371,61,104,Electric Bass
112.5,0.254993625159371,56,104,Electric Bass
112.5,0.0,64,98,Electric Bass
112.5,0.0,69,98,Electric Bass
112.75,0.0,54,82,Electric Bass
112.75,0.0,69,82,Electric Bass
113.0,0.6374840628984275,57,113,Electric Bass
113.0,0.6374840628984275,50,113,Electric Bass
113.0,0.6374840628984275,54,113,Electric Bass
113.0,1.1474713132171697,69,92,Electric Bass
113.0,1.1474713132171697,62,92,Electric Bass
113.0,1.1474713132171697,66,92,Electric Bass
113.0,1.1474713132171697,59,92,Electric Bass
113.0,0.0,69,82,Electric Bass
113.0,0.0,54,82,Electric Bass
113.0,0.0,36,114,Electric Bass
113.0,0.0,42,114,Electric Bass
113.25,0.0,54,79,Electric Bass
113.25,0.0,69,79,Electric Bass
113.5,0.1274968125796855,66,90,Electric Bass
113.5,0.1274968125796855,78,90,Electric Bass
113.5,0.1274968125796855,62,104,Electric Bass
113.5,0.1274968125796855,54,104,Electric Bass
114.0,0.1274968125796855,60,116,Electric Bass
114.0,0.1274968125796855,72,116,Electric Bass
114.0,0.38249043773905655,61,123,Electric Bass
114.0,0.38249043773905655,73,123,Electric Bass
114.0,0.0,54,85,Electric Bass
114.0,0.0,70,85,Electric Bass
114.0,0.0,46,120,Electric Bass
114.0,0.0,38,120,Electric Bass
114.0,0.1274968125796855,72,116,Electric Bass
114.0,0.1274968125796855,84,116,Electric Bass
114.0,0.38249043773905655,73,123,Electric Bass
114.0,0.38249043773905655,85,123,Electric Bass
114.5,0.0,64,69,Electric Bass
114.5,0.0,69,69,Electric Bass
114.75,0.16999575010624735,59,127,Electric Bass
114.75,0.16999575010624735,71,127,Electric Bass
114.75,0.0,54,77,Electric Bass
114.75,0.0,69,77,Electric Bass
114.75,0.0,38,73,Electric Bass
114.75,0.0,42,73,Electric Bass
114.75,0.16999575010624735,71,127,Electric Bass
114.75,0.16999575010624735,83,127,Electric Bass
115.0,0.0,54,72,Electric Bass
115.0,0.0,69,72,Electric Bass
115.25,0.1274968125796855,57,110,Electric Bass
115.25,0.1274968125796855,69,110,Electric Bass
115.25,0.0,54,88,Electric Bass
115.25,0.0,69,88,Electric Bass
115.25,0.0,42,98,Electric Bass
115.25,0.0,38,98,Electric Bass
115.25,0.1274968125796855,69,110,Electric Bass
115.25,0.1274968125796855,81,110,Electric Bass
115.5,0.254993625159371,62,97,Electric Bass
115.5,0.254993625159371,66,97,Electric Bass
115.5,0.16999575010624735,59,90,Electric Bass
115.5,0.16999575010624735,69,90,Electric Bass
115.5,0.1274968125796855,59,123,Electric Bass
115.5,0.1274968125796855,71,123,Electric Bass
115.5,0.0,69,105,Electric Bass
115.5,0.0,62,105,Electric Bass
115.5,0.0,54,105,Electric Bass
115.5,0.1274968125796855,71,123,Electric Bass
115.5,0.1274968125796855,83,123,Electric Bass
116.0,0.125,70,85,Electric Bass
116.0,0.125,63,85,Electric Bass
116.0,0.125,54,85,Electric Bass
116.0,0.0,46,120,Electric Bass
116.0,0.0,38,120,Electric Bass
116.25,0.125,66,83,Electric Bass
116.25,0.125,62,83,Electric Bass
116.25,0.125,59,83,Electric Bass
116.25,0.125,69,83,Electric Bass
116.5,0.0,64,94,Electric Bass
116.5,0.0,69,94,Electric Bass
116.5,0.0,36,106,Electric Bass
116.5,0.0,42,106,Electric Bass
116.75,0.0,54,73,Electric Bass
116.75,0.0,69,73,Electric Bass
117.0,1.4024649383765406,64,102,Electric Bass
117.0,1.4024649383765406,61,102,Electric Bass
117.0,1.4024649383765406,68,102,Electric Bass
117.0,1.4024649383765406,57,102,Electric Bass
117.0,0.8924776880577986,64,92,Electric Bass
117.0,0.8924776880577986,61,92,Electric Bass
117.0,0.0,54,73,Electric Bass
117.0,0.0,69,73,Electric Bass
117.25,0.0,54,90,Electric Bass
117.25,0.0,69,90,Electric Bass
117.5,0.1274968125796855,66,90,Electric Bass
117.5,0.1274968125796855,78,90,Electric Bass
117.5,0.1274968125796855,62,106,Electric Bass
117.5,0.1274968125796855,54,106,Electric Bass
117.5,0.1274968125796855,69,106,Electric Bass
118.0,0.1274968125796855,60,118,Electric Bass
118.0,0.1274968125796855,72,118,Electric Bass
118.0,0.3399915002124947,61,116,Electric Bass
118.0,0.3399915002124947,73,116,Electric Bass
118.0,0.1274968125796855,63,100,Electric Bass
118.0,0.1274968125796855,70,100,Electric Bass
118.0,0.0,54,71,Electric Bass
118.0,0.0,70,71,Electric Bass
118.0,0.1274968125796855,46,113,Electric Bass
118.0,0.1274968125796855,38,113,Electric Bass
118.0,0.1274968125796855,72,118,Electric Bass
118.0,0.1274968125796855,84,118,Electric Bass
118.0,0.3399915002124947,73,116,Electric Bass
118.0,0.3399915002124947,85,116,Electric Bass
118.5,0.0,64,96,Electric Bass
118.5,0.0,69,96,Electric Bass
118.75,0.1274968125796855,59,125,Electric Bass
118.75,0.1274968125796855,71,125,Electric Bass
118.75,0.0,54,80,Electric Bass
118.75,0.0,69,80,Electric Bass
118.75,0.1274968125796855,42,78,Electric Bass
118.75,0.1274968125796855,38,78,Electric Bass
118.75,0.1274968125796855,71,125,Electric Bass
118.75,0.1274968125796855,83,125,Electric Bass
119.0,0.0,54,84,Electric Bass
119.0,0.0,69,84,Electric Bass
119.25,0.1274968125796855,57,107,Electric Bass
119.25,0.1274968125796855,69,107,Electric Bass
119.25,0.0,54,84,Electric Bass
119.25,0.0,69,84,Electric Bass
119.25,0.0,42,98,Electric Bass
119.25,0.0,38,98,Electric Bass
119.25,0.1274968125796855,69,107,Electric Bass
119.25,0.1274968125796855,81,107,Electric Bass
119.5,0.3399915002124947,64,96,Electric Bass
119.5,0.3399915002124947,61,96,Electric Bass
119.5,0.254993625159371,57,91,Electric Bass
119.5,0.254993625159371,68,91,Electric Bass
119.5,0.1274968125796855,57,121,Electric Bass
119.5,0.1274968125796855,69,121,Electric Bass
119.5,0.1274968125796855,62,109,Electric Bass
119.5,0.1274968125796855,54,109,Electric Bass
119.5,0.1274968125796855,69,109,Electric Bass
119.5,0.0,36,111,Electric Bass
119.5,0.0,46,111,Electric Bass
119.5,0.1274968125796855,69,121,Electric Bass
119.5,0.1274968125796855,81,121,Electric Bass
120.0,0.1274968125796855,63,103,Electric Bass
120.0,0.1274968125796855,70,103,Electric Bass
120.0,0.0,54,74,Electric Bass
120.0,0.0,70,74,Electric Bass
120.0,0.0,46,113,Electric Bass
120.0,0.0,38,113,Electric Bass
120.25,0.1274968125796855,57,86,Electric Bass
120.25,0.1274968125796855,68,86,Electric Bass
120.25,0.1274968125796855,61,86,Electric Bass
120.25,0.0,63,88,Electric Bass
120.25,0.0,54,88,Electric Bass
120.5,0.0,64,70,Electric Bass
120.5,0.0,69,70,Electric Bass
120.75,0.0,54,82,Electric Bass
120.75,0.0,69,82,Electric Bass
121.0,1.019974500637484,57,114,Electric Bass
121.0,1.019974500637484,62,114,Electric Bass
121.0,1.019974500637484,54,87,Electric Bass
121.0,1.019974500637484,64,87,Electric Bass
121.0,1.019974500637484,57,87,Electric Bass
121.0,0.7649808754781131,38,89,Electric Bass
121.0,0.7649808754781131,50,89,Electric Bass
121.0,0.0,69,82,Electric Bass
121.0,0.0,54,82,Electric Bass
121.0,0.0,36,114,Electric Bass
121.0,0.0,42,114,Electric Bass
121.25,0.0,54,79,Electric Bass
121.25,0.0,69,79,Electric Bass
121.5,0.1274968125796855,66,90,Electric Bass
121.5,0.1274968125796855,78,90,Electric Bass
121.5,0.1274968125796855,62,106,Electric Bass
121.5,0.1274968125796855,54,106,Electric Bass
122.0,0.0,59,125,Electric Bass
122.0,0.0,71,125,Electric Bass
122.0,0.3399915002124947,60,120,Electric Bass
122.0,0.3399915002124947,72,120,Electric Bass
122.0,0.1274968125796855,63,94,Electric Bass
122.0,0.1274968125796855,54,94,Electric Bass
122.0,0.1274968125796855,70,94,Electric Bass
122.0,0.0,46,120,Electric Bass
122.0,0.0,38,120,Electric Bass
122.0,0.0,71,125,Electric Bass
122.0,0.0,83,125,Electric Bass
122.0,0.3399915002124947,72,120,Electric Bass
122.0,0.3399915002124947,84,120,Electric Bass
122.5,0.0,64,90,Electric Bass
122.5,0.0,69,90,Electric Bass
122.75,0.1274968125796855,59,121,Electric Bass
122.75,0.1274968125796855,71,121,Electric Bass
122.75,0.0,54,77,Electric Bass
122.75,0.0,69,77,Electric Bass
122.75,0.0,38,73,Electric Bass
122.75,0.0,42,73,Electric Bass
122.75,0.1274968125796855,71,121,Electric Bass
122.75,0.1274968125796855,83,121,Electric Bass
123.0,0.0,54,72,Electric Bass
123.0,0.0,69,72,Electric Bass
123.25,0.125,57,107,Electric Bass
123.25,0.125,69,107,Electric Bass
123.25,0.0,54,88,Electric Bass
123.25,0.0,69,88,Electric Bass
123.25,0.0,42,98,Electric Bass
123.25,0.0,38,98,Electric Bass
123.25,0.125,69,107,Electric Bass
123.25,0.125,81,107,Electric Bass
123.5,0.25,57,89,Electric Bass
123.5,0.25,60,89,Electric Bass
123.5,0.16666666666666666,59,118,Electric Bass
123.5,0.16666666666666666,71,118,Electric Bass
123.5,0.125,62,116,Electric Bass
123.5,0.125,54,116,Electric Bass
123.5,0.0,69,95,Electric Bass
123.5,0.0,54,95,Electric Bass
123.5,0.16666666666666666,71,118,Electric Bass
123.5,0.16666666666666666,83,118,Electric Bass
124.0,0.1274968125796855,63,102,Electric Bass
124.0,0.1274968125796855,70,102,Electric Bass
124.0,0.1274968125796855,46,120,Electric Bass
124.0,0.1274968125796855,38,120,Electric Bass
124.25,0.16999575010624735,38,67,Electric Bass
124.25,0.16999575010624735,57,67,Electric Bass
124.25,0.1274968125796855,50,76,Electric Bass
124.25,0.1274968125796855,60,76,Electric Bass
124.25,0.1274968125796855,57,76,Electric Bass
124.25,0.1274968125796855,54,76,Electric Bass
124.5,0.0,64,92,Electric Bass
124.5,0.0,69,92,Electric Bass
124.5,0.1274968125796855,36,106,Electric Bass
124.5,0.1274968125796855,42,106,Electric Bass
124.75,0.0,54,73,Electric Bass
124.75,0.0,69,73,Electric Bass
125.0,0.8924776880577986,53,116,Electric Bass
125.0,0.8924776880577986,56,116,Electric Bass
125.0,0.254993625159371,37,91,Electric Bass
125.0,0.254993625159371,61,91,Electric Bass
125.0,0.254993625159371,53,91,Electric Bass
125.0,0.254993625159371,59,92,Electric Bass
125.0,0.254993625159371,49,92,Electric Bass
125.0,0.0,54,73,Electric Bass
125.0,0.0,69,73,Electric Bass
125.0,1.9124521886952826,68,88,Electric Bass
125.0,1.9124521886952826,71,88,Electric Bass
125.0,1.9124521886952826,65,88,Electric Bass
125.0,1.9124521886952826,59,88,Electric Bass
125.25,0.0,54,90,Electric Bass
125.25,0.0,69,90,Electric Bass
125.5,0.1274968125796855,68,90,Electric Bass
125.5,0.1274968125796855,80,90,Electric Bass
125.5,0.1274968125796855,54,107,Electric Bass
125.5,0.1274968125796855,62,107,Electric Bass
125.5,0.1274968125796855,69,107,Electric Bass
125.75,0.0,61,80,Electric Bass
125.75,0.0,59,80,Electric Bass
125.75,0.0,49,64,Electric Bass
125.75,0.0,53,64,Electric Bass
126.0,0.0,59,82,Electric Bass
126.0,0.0,61,82,Electric Bass
126.0,0.1274968125796855,63,106,Electric Bass
126.0,0.1274968125796855,70,106,Electric Bass
126.0,0.0,54,71,Electric Bass
126.0,0.0,70,71,Electric Bass
126.0,0.0,46,113,Electric Bass
126.0,0.0,38,113,Electric Bass
126.25,0.0,53,74,Electric Bass
126.25,0.0,49,74,Electric Bass
126.25,0.0,64,95,Electric Bass
126.25,0.0,54,95,Electric Bass
126.33333333333333,0.1274968125796855,37,88,Electric Bass
126.33333333333333,0.1274968125796855,53,88,Electric Bass
126.5,0.0,63,87,Electric Bass
126.5,0.0,69,87,Electric Bass
126.75,0.0,54,80,Electric Bass
126.75,0.0,69,80,Electric Bass
126.75,0.0,42,78,Electric Bass
126.75,0.0,38,78,Electric Bass
127.0,0.1274968125796855,73,103,Electric Bass
127.0,0.1274968125796855,68,103,Electric Bass
127.0,0.1274968125796855,37,103,Electric Bass
127.0,0.1274968125796855,61,127,Electric Bass
127.0,0.1274968125796855,73,127,Electric Bass
127.0,0.1274968125796855,68,127,Electric Bass
127.0,0.0,54,84,Electric Bass
127.0,0.0,69,84,Electric Bass
127.0,0.1274968125796855,73,127,Electric Bass
127.0,0.1274968125796855,85,127,Electric Bass
127.0,0.1274968125796855,80,127,Electric Bass
127.25,0.0,63,95,Electric Bass
127.25,0.0,54,95,Electric Bass
127.25,0.0,69,95,Electric Bass
127.25,0.0,42,98,Electric Bass
127.25,0.0,38,98,Electric Bass
127.5,0.1274968125796855,65,105,Electric Bass
127.5,0.1274968125796855,73,105,Electric Bass
127.5,0.1274968125796855,68,105,Electric Bass
127.5,0.1274968125796855,37,105,Electric Bass
127.5,0.1274968125796855,49,105,Electric Bass
127.5,0.1274968125796855,61,127,Electric Bass
127.5,0.1274968125796855,73,127,Electric Bass
127.5,0.1274968125796855,68,127,Electric Bass
127.5,0.1274968125796855,62,110,Electric Bass
127.5,0.1274968125796855,69,110,Electric Bass
127.5,0.1274968125796855,54,102,Electric Bass
127.5,0.1274968125796855,69,102,Electric Bass
127.5,0.0,36,111,Electric Bass
127.5,0.0,46,111,Electric Bass
127.5,0.1274968125796855,73,127,Electric Bass
127.5,0.1274968125796855,85,127,Electric Bass
127.5,0.1274968125796855,80,127,Electric Bass
128.0,0.0,65,99,Electric Bass
128.0,0.0,68,99,Electric Bass
128.0,0.0,73,99,Electric Bass
128.0,0.0,37,99,Electric Bass
128.0,0.0,49,99,Electric Bass
128.0,0.1274968125796855,61,127,Electric Bass
128.0,0.1274968125796855,73,127,Electric Bass
128.0,0.1274968125796855,68,127,Electric Bass
128.0,0.1274968125796855,63,89,Electric Bass
128.0,0.1274968125796855,54,89,Electric Bass
128.0,0.1274968125796855,70,89,Electric Bass
128.0,0.0,46,113,Electric Bass
128.0,0.0,38,113,Electric Bass
128.0,0.1274968125796855,73,127,Electric Bass
128.0,0.1274968125796855,85,127,Electric Bass
128.0,0.1274968125796855,80,127,Electric Bass
128.25,0.1274968125796855,73,94,Electric Bass
128.25,0.1274968125796855,65,94,Electric Bass
128.25,0.1274968125796855,49,94,Electric Bass
128.25,0.1274968125796855,37,94,Electric Bass
128.25,0.1274968125796855,68,97,Electric Bass
128.25,0.1274968125796855,49,97,Electric Bass
128.25,0.1274968125796855,37,97,Electric Bass
128.25,0.1274968125796855,61,127,Electric Bass
128.25,0.1274968125796855,73,127,Electric Bass
128.25,0.1274968125796855,68,127,Electric Bass
128.25,0.1274968125796855,73,127,Electric Bass
128.25,0.1274968125796855,85,127,Electric Bass
128.25,0.1274968125796855,80,127,Electric Bass
128.5,0.0,64,98,Electric Bass
128.5,0.0,69,98,Electric Bass
128.75,0.0,54,82,Electric Bass
128.75,0.0,69,82,Electric Bass
129.0,1.625,61,108,Electric Bass
129.0,1.625,57,108,Electric Bass
129.0,1.5,52,116,Electric Bass
129.0,1.5,56,116,Electric Bass
129.0,2.0,73,93,Electric Bass
129.0,2.0,69,93,Electric Bass
129.0,0.125,51,126,Electric Bass
129.0,0.125,64,126,Electric Bass
129.0,0.0,69,82,Electric Bass
129.0,0.0,54,82,Electric Bass
129.0,0.0,36,114,Electric Bass
129.0,0.0,42,114,Electric Bass
129.25,0.0,54,79,Electric Bass
129.25,0.0,69,79,Electric Bass
129.5,0.125,57,101,Electric Bass
129.5,0.125,66,101,Electric Bass
129.5,0.125,62,103,Electric Bass
129.5,0.125,54,103,Electric Bass
129.5,0.125,51,103,Electric Bass
130.0,0.1274968125796855,63,120,Electric Bass
130.0,0.1274968125796855,51,120,Electric Bass
130.0,0.0,54,85,Electric Bass
130.0,0.0,70,85,Electric Bass
130.0,0.0,46,120,Electric Bass
130.0,0.0,38,120,Electric Bass
130.25,0.0,66,100,Electric Bass
130.25,0.0,61,100,Electric Bass
130.5,0.0,64,69,Electric Bass
130.5,0.0,69,69,Electric Bass
130.75,0.0,54,77,Electric Bass
130.75,0.0,69,77,Electric Bass
130.75,0.0,38,73,Electric Bass
130.75,0.0,42,73,Electric Bass
131.0,0.0,66,96,Electric Bass
131.0,0.0,61,96,Electric Bass
131.0,0.0,66,64,Electric Bass
131.0,0.0,78,64,Electric Bass
131.0,0.0,54,72,Electric Bass
131.0,0.0,69,72,Electric Bass
131.25,0.0,54,88,Electric Bass
131.25,0.0,69,88,Electric Bass
131.25,0.1274968125796855,42,98,Electric Bass
131.25,0.1274968125796855,38,98,Electric Bass
131.5,0.1274968125796855,51,113,Electric Bass
131.5,0.1274968125796855,54,113,Electric Bass
131.5,0.0,69,105,Electric Bass
131.5,0.0,62,105,Electric Bass
131.5,0.0,54,105,Electric Bass
131.75,0.0,61,97,Electric Bass
131.75,0.0,66,97,Electric Bass
132.0,0.1274968125796855,70,85,Electric Bass
132.0,0.1274968125796855,63,85,Electric Bass
132.0,0.1274968125796855,54,85,Electric Bass
132.0,0.0,46,120,Electric Bass
132.0,0.0,38,120,Electric Bass
132.5,0.3399915002124947,57,106,Electric Bass
132.5,0.3399915002124947,61,106,Electric Bass
132.5,0.3399915002124947,66,106,Electric Bass
132.5,0.0,64,94,Electric Bass
132.5,0.0,69,94,Electric Bass
132.5,0.0,36,106,Electric Bass
132.5,0.0,42,106,Electric Bass
132.75,0.0,54,73,Electric Bass
132.75,0.0,69,73,Electric Bass
133.0,0.6799830004249894,63,109,Electric Bass
133.0,0.6799830004249894,60,109,Electric Bass
133.0,0.6799830004249894,54,109,Electric Bass
133.0,2.039949001274968,75,92,Electric Bass
133.0,2.039949001274968,72,92,Electric Bass
133.0,0.0,54,73,Electric Bass
133.0,0.0,69,73,Electric Bass
133.25,0.1274968125796855,63,127,Electric Bass
133.25,0.1274968125796855,72,127,Electric Bass
133.25,0.1274968125796855,75,127,Electric Bass
133.25,0.0,54,90,Electric Bass
133.25,0.0,69,90,Electric Bass
133.25,0.1274968125796855,75,127,Electric Bass
133.25,0.1274968125796855,84,127,Electric Bass
133.25,0.1274968125796855,87,127,Electric Bass
133.5,0.0,66,90,Electric Bass
133.5,0.0,63,90,Electric Bass
133.5,0.1274968125796855,62,106,Electric Bass
133.5,0.1274968125796855,54,106,Electric Bass
133.5,0.1274968125796855,69,106,Electric Bass
133.75,0.1274968125796855,63,127,Electric Bass
133.75,0.1274968125796855,72,127,Electric Bass
133.75,0.1274968125796855,75,127,Electric Bass
133.75,0.1274968125796855,75,127,Electric Bass
133.75,0.1274968125796855,84,127,Electric Bass
133.75,0.1274968125796855,87,127,Electric Bass
134.0,0.1274968125796855,63,127,Electric Bass
134.0,0.1274968125796855,72,127,Electric Bass
134.0,0.1274968125796855,75,127,Electric Bass
134.0,0.1274968125796855,63,100,Electric Bass
134.0,0.1274968125796855,70,100,Electric Bass
134.0,0.0,54,71,Electric Bass
134.0,0.0,70,71,Electric Bass
134.0,0.0,46,113,Electric Bass
134.0,0.0,38,113,Electric Bass
134.0,0.1274968125796855,75,127,Electric Bass
134.0,0.1274968125796855,84,127,Electric Bass
134.0,0.1274968125796855,87,127,Electric Bass
134.25,0.1274968125796855,60,98,Electric Bass
134.25,0.1274968125796855,63,98,Electric Bass
134.5,0.8499787505312367,54,102,Electric Bass
134.5,0.8499787505312367,63,102,Electric Bass
134.5,0.0,64,96,Electric Bass
134.5,0.0,69,96,Electric Bass
134.75,0.1274968125796855,63,125,Electric Bass
134.75,0.1274968125796855,72,125,Electric Bass
134.75,0.1274968125796855,75,125,Electric Bass
134.75,0.0,54,80,Electric Bass
134.75,0.0,69,80,Electric Bass
134.75,0.0,42,78,Electric Bass
134.75,0.0,38,78,Electric Bass
134.75,0.1274968125796855,75,125,Electric Bass
134.75,0.1274968125796855,84,125,Electric Bass
134.75,0.1274968125796855,87,125,Electric Bass
135.0,0.0,66,99,Electric Bass
135.0,0.0,63,99,Electric Bass
135.0,0.125,63,127,Electric Bass
135.0,0.125,72,127,Electric Bass
135.0,0.125,75,127,Electric Bass
135.0,0.0,54,84,Electric Bass
135.0,0.0,69,84,Electric Bass
135.0,0.125,75,127,Electric Bass
135.0,0.125,84,127,Electric Bass
135.0,0.125,87,127,Electric Bass
135.25,0.125,63,127,Electric Bass
135.25,0.125,72,127,Electric Bass
135.25,0.125,75,127,Electric Bass
135.25,0.0,54,84,Electric Bass
135.25,0.0,69,84,Electric Bass
135.25,0.0,42,98,Electric Bass
135.25,0.0,38,98,Electric Bass
135.25,0.125,75,127,Electric Bass
135.25,0.125,84,127,Electric Bass
135.25,0.125,87,127,Electric Bass
135.5,0.125,63,127,Electric Bass
135.5,0.125,72,127,Electric Bass
135.5,0.125,75,127,Electric Bass
135.5,0.125,62,109,Electric Bass
135.5,0.125,54,109,Electric Bass
135.5,0.125,69,109,Electric Bass
135.5,0.125,51,108,Electric Bass
135.5,0.125,54,108,Electric Bass
135.5,0.125,69,108,Electric Bass
135.5,0.0,36,111,Electric Bass
135.5,0.0,46,111,Electric Bass
135.5,0.125,75,127,Electric Bass
135.5,0.125,84,127,Electric Bass
135.5,0.125,87,127,Electric Bass
135.75,0.125,60,99,Electric Bass
135.75,0.125,63,99,Electric Bass
136.0,0.1274968125796855,63,103,Electric Bass
136.0,0.1274968125796855,70,103,Electric Bass
136.0,0.0,54,74,Electric Bass
136.0,0.0,70,74,Electric Bass
136.0,0.0,46,113,Electric Bass
136.0,0.0,38,113,Electric Bass
136.25,0.0,63,88,Electric Bass
136.25,0.0,54,88,Electric Bass
136.5,0.3399915002124947,60,110,Electric Bass
136.5,0.3399915002124947,63,110,Electric Bass
136.5,0.3399915002124947,66,110,Electric Bass
136.5,0.0,64,70,Electric Bass
136.5,0.0,69,70,Electric Bass
136.75,0.0,54,82,Electric Bass
136.75,0.0,69,82,Electric Bass
137.0,0.6374840628984275,55,110,Electric Bass
137.0,0.6374840628984275,62,110,Electric Bass
137.0,0.6374840628984275,59,110,Electric Bass
137.0,1.7849553761155972,30,99,Electric Bass
137.0,1.7849553761155972,42,99,Electric Bass
137.0,0.1274968125796855,64,112,Electric Bass
137.0,0.1274968125796855,51,112,Electric Bass
137.0,0.0,69,82,Electric Bass
137.0,0.0,54,82,Electric Bass
137.0,0.1274968125796855,36,114,Electric Bass
137.0,0.1274968125796855,42,114,Electric Bass
137.25,0.0,54,79,Electric Bass
137.25,0.0,69,79,Electric Bass
137.5,0.0,59,105,Electric Bass
137.5,0.0,66,105,Electric Bass
137.5,0.1274968125796855,62,106,Electric Bass
137.5,0.1274968125796855,54,106,Electric Bass
138.0,0.1274968125796855,63,94,Electric Bass
138.0,0.1274968125796855,54,94,Electric Bass
138.0,0.1274968125796855,70,94,Electric Bass
138.0,0.0,46,120,Electric Bass
138.0,0.0,38,120,Electric Bass
138.25,0.1274968125796855,59,98,Electric Bass
138.25,0.1274968125796855,62,98,Electric Bass
138.5,0.7649808754781131,55,101,Electric Bass
138.5,0.7649808754781131,62,101,Electric Bass
138.5,0.0,64,90,Electric Bass
138.5,0.0,69,90,Electric Bass
138.75,0.0,54,77,Electric Bass
138.75,0.0,69,77,Electric Bass
138.75,0.0,38,73,Electric Bass
138.75,0.0,42,73,Electric Bass
139.0,0.1274968125796855,59,100,Electric Bass
139.0,0.1274968125796855,62,100,Electric Bass
139.0,0.0,54,72,Electric Bass
139.0,0.0,69,72,Electric Bass
139.25,0.0,54,88,Electric Bass
139.25,0.0,69,88,Electric Bass
139.25,0.0,42,98,Electric Bass
139.25,0.0,38,98,Electric Bass
139.5,0.1274968125796855,62,117,Electric Bass
139.5,0.1274968125796855,51,117,Electric Bass
139.5,0.1274968125796855,54,117,Electric Bass
139.5,0.0,69,95,Electric Bass
139.5,0.0,54,95,Electric Bass
139.75,0.1274968125796855,59,99,Electric Bass
139.75,0.1274968125796855,62,99,Electric Bass
140.0,0.1274968125796855,63,102,Electric Bass
140.0,0.1274968125796855,70,102,Electric Bass
140.0,0.0,46,120,Electric Bass
140.0,0.0,38,120,Electric Bass
140.5,0.3399915002124947,59,106,Electric Bass
140.5,0.3399915002124947,62,106,Electric Bass
140.5,0.3399915002124947,66,106,Electric Bass
140.5,0.0,64,92,Electric Bass
140.5,0.0,69,92,Electric Bass
140.5,0.0,36,106,Electric Bass
140.5,0.0,42,106,Electric Bass
140.75,0.0,54,73,Electric Bass
140.75,0.0,69,73,Electric Bass
141.0,0.6374840628984275,61,105,Electric Bass
141.0,0.6374840628984275,56,105,Electric Bass
141.0,0.6374840628984275,52,105,Electric Bass
141.0,0.6374840628984275,30,105,Electric Bass
141.0,0.6374840628984275,42,105,Electric Bass
141.0,2.039949001274968,69,92,Electric Bass
141.0,2.039949001274968,73,92,Electric Bass
141.0,0.0,54,73,Electric Bass
141.0,0.0,69,73,Electric Bass
141.25,0.1274968125796855,66,127,Electric Bass
141.25,0.1274968125796855,69,127,Electric Bass
141.25,0.1274968125796855,73,127,Electric Bass
141.25,0.0,54,90,Electric Bass
141.25,0.0,69,90,Electric Bass
141.25,0.1274968125796855,78,127,Electric Bass
141.25,0.1274968125796855,81,127,Electric Bass
141.25,0.1274968125796855,85,127,Electric Bass
141.5,0.1274968125796855,61,100,Electric Bass
141.5,0.1274968125796855,66,100,Electric Bass
141.5,0.1274968125796855,57,100,Electric Bass
141.5,0.1274968125796855,54,106,Electric Bass
141.5,0.1274968125796855,62,106,Electric Bass
141.5,0.1274968125796855,51,106,Electric Bass
141.5,0.1274968125796855,69,106,Electric Bass
141.75,0.1274968125796855,66,127,Electric Bass
141.75,0.1274968125796855,69,127,Electric Bass
141.75,0.1274968125796855,73,127,Electric Bass
141.75,0.1274968125796855,78,127,Electric Bass
141.75,0.1274968125796855,81,127,Electric Bass
141.75,0.1274968125796855,85,127,Electric Bass
142.0,0.125,66,127,Electric Bass
142.0,0.125,69,127,Electric Bass
142.0,0.125,73,127,Electric Bass
142.0,0.125,63,106,Electric Bass
142.0,0.125,70,106,Electric Bass
142.0,0.0,54,71,Electric Bass
142.0,0.0,70,71,Electric Bass
142.0,0.0,46,113,Electric Bass
142.0,0.0,38,113,Electric Bass
142.0,0.125,78,127,Electric Bass
142.0,0.125,81,127,Electric Bass
142.0,0.125,85,127,Electric Bass
142.25,0.125,57,94,Electric Bass
142.25,0.125,66,94,Electric Bass
142.25,0.125,61,94,Electric Bass
142.25,0.0,64,95,Electric Bass
142.25,0.0,54,95,Electric Bass
142.5,0.5,57,108,Electric Bass
142.5,0.5,61,108,Electric Bass
142.5,1.0,30,103,Electric Bass
142.5,1.0,42,103,Electric Bass
142.5,0.0,63,87,Electric Bass
142.5,0.0,69,87,Electric Bass
142.75,0.125,66,125,Electric Bass
142.75,0.125,69,125,Electric Bass
142.75,0.125,73,125,Electric Bass
142.75,0.0,54,80,Electric Bass
142.75,0.0,69,80,Electric Bass
142.75,0.0,42,78,Electric Bass
142.75,0.0,38,78,Electric Bass
142.75,0.125,78,125,Electric Bass
142.75,0.125,81,125,Electric Bass
142.75,0.125,85,125,Electric Bass
143.0,0.0,61,105,Electric Bass
143.0,0.0,66,105,Electric Bass
143.0,0.1274968125796855,66,127,Electric Bass
143.0,0.1274968125796855,69,127,Electric Bass
143.0,0.1274968125796855,73,127,Electric Bass
143.0,0.0,54,84,Electric Bass
143.0,0.0,69,84,Electric Bass
143.0,0.1274968125796855,78,127,Electric Bass
143.0,0.1274968125796855,81,127,Electric Bass
143.0,0.1274968125796855,85,127,Electric Bass
143.25,0.1274968125796855,66,127,Electric Bass
143.25,0.1274968125796855,69,127,Electric Bass
143.25,0.1274968125796855,73,127,Electric Bass
143.25,0.0,63,95,Electric Bass
143.25,0.0,54,95,Electric Bass
143.25,0.0,69,95,Electric Bass
143.25,0.0,42,98,Electric Bass
143.25,0.0,38,98,Electric Bass
143.25,0.1274968125796855,78,127,Electric Bass
143.25,0.1274968125796855,81,127,Electric Bass
143.25,0.1274968125796855,85,127,Electric Bass
143.5,0.1274968125796855,66,127,Electric Bass
143.5,0.1274968125796855,69,127,Electric Bass
143.5,0.1274968125796855,73,127,Electric Bass
143.5,0.1274968125796855,62,122,Electric Bass
143.5,0.1274968125796855,51,122,Electric Bass
143.5,0.1274968125796855,54,102,Electric Bass
143.5,0.1274968125796855,69,102,Electric Bass
143.5,0.0,36,111,Electric Bass
143.5,0.0,46,111,Electric Bass
143.5,0.1274968125796855,78,127,Electric Bass
143.5,0.1274968125796855,81,127,Electric Bass
143.5,0.1274968125796855,85,127,Electric Bass
143.75,0.1274968125796855,57,100,Electric Bass
143.75,0.1274968125796855,66,100,Electric Bass
144.0,0.1274968125796855,63,89,Electric Bass
144.0,0.1274968125796855,54,89,Electric Bass
144.0,0.1274968125796855,70,89,Electric Bass
144.0,0.1274968125796855,46,113,Electric Bass
144.0,0.1274968125796855,38,113,Electric Bass
144.5,0.3399915002124947,57,110,Electric Bass
144.5,0.3399915002124947,66,110,Electric Bass
144.5,0.3399915002124947,61,110,Electric Bass
144.5,0.0,64,98,Electric Bass
144.5,0.0,69,98,Electric Bass
144.75,0.0,54,82,Electric Bass
144.75,0.0,69,82,Electric Bass
145.0,1.6574585635359116,61,108,Electric Bass
145.0,1.6574585635359116,57,108,Electric Bass
145.0,1.5299617509562262,52,116,Electric Bass
145.0,1.5299617509562262,56,116,Electric Bass
145.0,0.0,66,68,Electric Bass
145.0,0.0,78,68,Electric Bass
145.0,2.039949001274968,69,88,Electric Bass
145.0,2.039949001274968,73,88,Electric Bass
145.0,0.1274968125796855,51,126,Electric Bass
145.0,0.1274968125796855,64,126,Electric Bass
145.0,0.0,69,82,Electric Bass
145.0,0.0,54,82,Electric Bass
145.0,0.0,36,114,Electric Bass
145.0,0.0,42,114,Electric Bass
145.25,0.0,54,79,Electric Bass
145.25,0.0,69,79,Electric Bass
145.5,0.0,66,102,Electric Bass
145.5,0.0,61,102,Electric Bass
145.5,0.1274968125796855,62,103,Electric Bass
145.5,0.1274968125796855,54,103,Electric Bass
145.5,0.1274968125796855,51,103,Electric Bass
146.0,0.1274968125796855,63,120,Electric Bass
146.0,0.1274968125796855,51,120,Electric Bass
146.0,0.0,54,85,Electric Bass
146.0,0.0,70,85,Electric Bass
146.0,0.0,46,120,Electric Bass
146.0,0.0,38,120,Electric Bass
146.25,0.0,66,95,Electric Bass
146.25,0.0,61,95,Electric Bass
146.5,0.0,64,69,Electric Bass
146.5,0.0,69,69,Electric Bass
146.75,0.0,54,77,Electric Bass
146.75,0.0,69,77,Electric Bass
146.75,0.0,38,73,Electric Bass
146.75,0.0,42,73,Electric Bass
147.0,0.0,66,90,Electric Bass
147.0,0.0,61,90,Electric Bass
147.0,0.0,54,72,Electric Bass
147.0,0.0,69,72,Electric Bass
147.25,0.0,54,88,Electric Bass
147.25,0.0,69,88,Electric Bass
147.25,0.0,42,98,Electric Bass
147.25,0.0,38,98,Electric Bass
147.5,0.1274968125796855,51,113,Electric Bass
147.5,0.1274968125796855,54,113,Electric Bass
147.5,0.0,69,105,Electric Bass
147.5,0.0,62,105,Electric Bass
147.5,0.0,54,105,Electric Bass
147.75,0.1274968125796855,57,97,Electric Bass
147.75,0.1274968125796855,61,97,Electric Bass
147.75,0.1274968125796855,66,97,Electric Bass
148.0,0.125,70,85,Electric Bass
148.0,0.125,63,85,Electric Bass
148.0,0.125,54,85,Electric Bass
148.0,0.0,46,120,Electric Bass
148.0,0.0,38,120,Electric Bass
148.5,0.3333333333333333,57,106,Electric Bass
148.5,0.3333333333333333,61,106,Electric Bass
148.5,0.375,66,108,Electric Bass
148.5,0.375,61,108,Electric Bass
148.5,0.0,64,94,Electric Bass
148.5,0.0,69,94,Electric Bass
148.5,0.0,36,106,Electric Bass
148.5,0.0,42,106,Electric Bass
148.75,0.0,54,73,Electric Bass
148.75,0.0,69,73,Electric Bass
149.0,0.6799830004249894,63,109,Electric Bass
149.0,0.6799830004249894,60,109,Electric Bass
149.0,0.6799830004249894,54,109,Electric Bass
149.0,0.0,54,73,Electric Bass
149.0,0.0,69,73,Electric Bass
149.25,0.1274968125796855,63,127,Electric Bass
149.25,0.1274968125796855,72,127,Electric Bass
149.25,0.1274968125796855,75,127,Electric Bass
149.25,0.0,54,90,Electric Bass
149.25,0.0,69,90,Electric Bass
149.25,0.1274968125796855,75,127,Electric Bass
149.25,0.1274968125796855,84,127,Electric Bass
149.25,0.1274968125796855,87,127,Electric Bass
149.5,0.1274968125796855,60,104,Electric Bass
149.5,0.1274968125796855,63,104,Electric Bass
149.5,0.1274968125796855,62,106,Electric Bass
149.5,0.1274968125796855,54,106,Electric Bass
149.5,0.1274968125796855,69,106,Electric Bass
149.75,0.1274968125796855,63,127,Electric Bass
149.75,0.1274968125796855,72,127,Electric Bass
149.75,0.1274968125796855,75,127,Electric Bass
149.75,0.1274968125796855,75,127,Electric Bass
149.75,0.1274968125796855,84,127,Electric Bass
149.75,0.1274968125796855,87,127,Electric Bass
150.0,0.1274968125796855,63,127,Electric Bass
150.0,0.1274968125796855,72,127,Electric Bass
150.0,0.1274968125796855,75,127,Electric Bass
150.0,0.1274968125796855,63,100,Electric Bass
150.0,0.1274968125796855,70,100,Electric Bass
150.0,0.0,54,71,Electric Bass
150.0,0.0,70,71,Electric Bass
150.0,0.1274968125796855,46,113,Electric Bass
150.0,0.1274968125796855,38,113,Electric Bass
150.0,0.1274968125796855,75,127,Electric Bass
150.0,0.1274968125796855,84,127,Electric Bass
150.0,0.1274968125796855,87,127,Electric Bass
150.25,0.1274968125796855,60,100,Electric Bass
150.25,0.1274968125796855,63,100,Electric Bass
150.5,0.8499787505312367,54,102,Electric Bass
150.5,0.8499787505312367,63,102,Electric Bass
150.5,0.0,64,96,Electric Bass
150.5,0.0,69,96,Electric Bass
150.75,0.1274968125796855,63,125,Electric Bass
150.75,0.1274968125796855,72,125,Electric Bass
150.75,0.1274968125796855,75,125,Electric Bass
150.75,0.0,54,80,Electric Bass
150.75,0.0,69,80,Electric Bass
150.75,0.1274968125796855,42,78,Electric Bass
150.75,0.1274968125796855,38,78,Electric Bass
150.75,0.1274968125796855,75,125,Electric Bass
150.75,0.1274968125796855,84,125,Electric Bass
150.75,0.1274968125796855,87,125,Electric Bass
151.0,0.1274968125796855,60,97,Electric Bass
151.0,0.1274968125796855,66,97,Electric Bass
151.0,0.1274968125796855,63,97,Electric Bass
151.0,0.1274968125796855,63,127,Electric Bass
151.0,0.1274968125796855,72,127,Electric Bass
151.0,0.1274968125796855,75,127,Electric Bass
151.0,0.0,54,84,Electric Bass
151.0,0.0,69,84,Electric Bass
151.0,0.1274968125796855,75,127,Electric Bass
151.0,0.1274968125796855,84,127,Electric Bass
151.0,0.1274968125796855,87,127,Electric Bass
151.25,0.1274968125796855,63,127,Electric Bass
151.25,0.1274968125796855,72,127,Electric Bass
151.25,0.1274968125796855,75,127,Electric Bass
151.25,0.0,54,84,Electric Bass
151.25,0.0,69,84,Electric Bass
151.25,0.0,42,98,Electric Bass
151.25,0.0,38,98,Electric Bass
151.25,0.1274968125796855,75,127,Electric Bass
151.25,0.1274968125796855,84,127,Electric Bass
151.25,0.1274968125796855,87,127,Electric Bass
151.5,0.1274968125796855,63,127,Electric Bass
151.5,0.1274968125796855,72,127,Electric Bass
151.5,0.1274968125796855,75,127,Electric Bass
151.5,0.1274968125796855,62,109,Electric Bass
151.5,0.1274968125796855,54,109,Electric Bass
151.5,0.1274968125796855,69,109,Electric Bass
151.5,0.1274968125796855,51,108,Electric Bass
151.5,0.1274968125796855,54,108,Electric Bass
151.5,0.1274968125796855,69,108,Electric Bass
151.5,0.0,36,111,Electric Bass
151.5,0.0,46,111,Electric Bass
151.5,0.1274968125796855,75,127,Electric Bass
151.5,0.1274968125796855,84,127,Electric Bass
151.5,0.1274968125796855,87,127,Electric Bass
151.75,0.1274968125796855,60,103,Electric Bass
151.75,0.1274968125796855,63,103,Electric Bass
152.0,0.1274968125796855,63,103,Electric Bass
152.0,0.1274968125796855,70,103,Electric Bass
152.0,0.0,54,74,Electric Bass
152.0,0.0,70,74,Electric Bass
152.0,0.0,46,113,Electric Bass
152.0,0.0,38,113,Electric Bass
152.25,0.0,63,88,Electric Bass
152.25,0.0,54,88,Electric Bass
152.5,0.254993625159371,60,108,Electric Bass
152.5,0.254993625159371,63,108,Electric Bass
152.5,0.254993625159371,66,108,Electric Bass
152.5,0.0,64,70,Electric Bass
152.5,0.0,69,70,Electric Bass
152.75,0.0,54,82,Electric Bass
152.75,0.0,69,82,Electric Bass
153.0,0.6374840628984275,55,110,Electric Bass
153.0,0.6374840628984275,62,110,Electric Bass
153.0,0.6374840628984275,59,110,Electric Bass
153.0,1.7849553761155972,30,99,Electric Bass
153.0,1.7849553761155972,42,99,Electric Bass
153.0,2.039949001274968,67,92,Electric Bass
153.0,2.039949001274968,74,92,Electric Bass
153.0,0.1274968125796855,64,112,Electric Bass
153.0,0.1274968125796855,51,112,Electric Bass
153.0,0.0,69,82,Electric Bass
153.0,0.0,54,82,Electric Bass
153.0,0.0,36,114,Electric Bass
153.0,0.0,42,114,Electric Bass
153.25,0.0,54,79,Electric Bass
153.25,0.0,69,79,Electric Bass
153.5,0.1274968125796855,55,97,Electric Bass
153.5,0.1274968125796855,62,97,Electric Bass
153.5,0.1274968125796855,62,106,Electric Bass
153.5,0.1274968125796855,54,106,Electric Bass
154.0,0.1274968125796855,63,94,Electric Bass
154.0,0.1274968125796855,54,94,Electric Bass
154.0,0.1274968125796855,70,94,Electric Bass
154.0,0.0,46,120,Electric Bass
154.0,0.0,38,120,Electric Bass
154.25,0.1274968125796855,62,97,Electric Bass
154.25,0.1274968125796855,55,97,Electric Bass
154.5,0.7649808754781131,55,101,Electric Bass
154.5,0.7649808754781131,62,101,Electric Bass
154.5,0.0,64,90,Electric Bass
154.5,0.0,69,90,Electric Bass
154.75,0.0,54,77,Electric Bass
154.75,0.0,69,77,Electric Bass
154.75,0.0,38,73,Electric Bass
154.75,0.0,42,73,Electric Bass
155.0,0.125,55,96,Electric Bass
155.0,0.125,62,96,Electric Bass
155.0,0.0,54,72,Electric Bass
155.0,0.0,69,72,Electric Bass
155.25,0.0,54,88,Electric Bass
155.25,0.0,69,88,Electric Bass
155.25,0.0,42,98,Electric Bass
155.25,0.0,38,98,Electric Bass
155.5,0.125,62,117,Electric Bass
155.5,0.125,51,117,Electric Bass
155.5,0.125,54,117,Electric Bass
155.5,0.0,69,95,Electric Bass
155.5,0.0,54,95,Electric Bass
155.75,0.125,55,82,Electric Bass
155.75,0.125,62,82,Electric Bass
156.0,0.1274968125796855,63,102,Electric Bass
156.0,0.1274968125796855,70,102,Electric Bass
156.0,0.0,46,120,Electric Bass
156.0,0.0,38,120,Electric Bass
156.5,0.254993625159371,55,101,Electric Bass
156.5,0.254993625159371,59,101,Electric Bass
156.5,0.0,64,92,Electric Bass
156.5,0.0,69,92,Electric Bass
156.5,0.0,36,106,Electric Bass
156.5,0.0,42,106,Electric Bass
156.75,0.0,54,73,Electric Bass
156.75,0.0,69,73,Electric Bass
157.0,0.6374840628984275,61,105,Electric Bass
157.0,0.6374840628984275,56,105,Electric Bass
157.0,0.6374840628984275,52,105,Electric Bass
157.0,0.6374840628984275,30,105,Electric Bass
157.0,0.6374840628984275,42,105,Electric Bass
157.0,2.039949001274968,73,96,Electric Bass
157.0,2.039949001274968,66,96,Electric Bass
157.0,0.0,54,73,Electric Bass
157.0,0.0,69,73,Electric Bass
157.25,0.0,54,90,Electric Bass
157.25,0.0,69,90,Electric Bass
157.5,0.1274968125796855,61,104,Electric Bass
157.5,0.1274968125796855,57,104,Electric Bass
157.5,0.1274968125796855,66,104,Electric Bass
157.5,0.1274968125796855,54,107,Electric Bass
157.5,0.1274968125796855,62,107,Electric Bass
157.5,0.1274968125796855,69,107,Electric Bass
158.0,0.1274968125796855,52,127,Electric Bass
158.0,0.1274968125796855,64,127,Electric Bass
158.0,0.1274968125796855,63,106,Electric Bass
158.0,0.1274968125796855,70,106,Electric Bass
158.0,0.0,54,71,Electric Bass
158.0,0.0,70,71,Electric Bass
158.0,0.0,46,113,Electric Bass
158.0,0.0,38,113,Electric Bass
158.0,0.1274968125796855,64,127,Electric Bass
158.0,0.1274968125796855,76,127,Electric Bass
158.25,0.1274968125796855,57,99,Electric Bass
158.25,0.1274968125796855,66,99,Electric Bass
158.25,0.1274968125796855,54,127,Electric Bass
158.25,0.1274968125796855,66,127,Electric Bass
158.25,0.0,64,95,Electric Bass
158.25,0.0,54,95,Electric Bass
158.25,0.1274968125796855,66,127,Electric Bass
158.25,0.1274968125796855,78,127,Electric Bass
158.5,0.509987250318742,57,108,Electric Bass
158.5,0.509987250318742,61,108,Electric Bass
158.5,1.019974500637484,30,103,Electric Bass
158.5,1.019974500637484,42,103,Electric Bass
158.5,0.0,63,87,Electric Bass
158.5,0.0,69,87,Electric Bass
158.75,0.38249043773905655,57,127,Electric Bass
158.75,0.38249043773905655,69,127,Electric Bass
158.75,0.0,54,80,Electric Bass
158.75,0.0,69,80,Electric Bass
158.75,0.0,42,78,Electric Bass
158.75,0.0,38,78,Electric Bass
158.75,0.38249043773905655,69,127,Electric Bass
158.75,0.38249043773905655,81,127,Electric Bass
159.0,0.1274968125796855,57,104,Electric Bass
159.0,0.1274968125796855,66,104,Electric Bass
159.0,0.0,54,84,Electric Bass
159.0,0.0,69,84,Electric Bass
159.25,0.0,63,95,Electric Bass
159.25,0.0,54,95,Electric Bass
159.25,0.0,69,95,Electric Bass
159.25,0.0,42,98,Electric Bass
159.25,0.0,38,98,Electric Bass
159.5,0.1274968125796855,54,127,Electric Bass
159.5,0.1274968125796855,66,127,Electric Bass
159.5,0.1274968125796855,62,122,Electric Bass
159.5,0.1274968125796855,51,122,Electric Bass
159.5,0.1274968125796855,54,102,Electric Bass
159.5,0.1274968125796855,69,102,Electric Bass
159.5,0.0,36,111,Electric Bass
159.5,0.0,46,111,Electric Bass
159.5,0.1274968125796855,66,127,Electric Bass
159.5,0.1274968125796855,78,127,Electric Bass
160.0,0.1274968125796855,52,127,Electric Bass
160.0,0.1274968125796855,64,127,Electric Bass
160.0,0.0,66,74,Electric Bass
160.0,0.0,78,74,Electric Bass
160.0,0.1274968125796855,63,89,Electric Bass
160.0,0.1274968125796855,54,89,Electric Bass
160.0,0.1274968125796855,70,89,Electric Bass
160.0,0.0,46,113,Electric Bass
160.0,0.0,38,113,Electric Bass
160.0,0.1274968125796855,64,127,Electric Bass
160.0,0.1274968125796855,76,127,Electric Bass
160.25,0.1274968125796855,54,127,Electric Bass
160.25,0.1274968125796855,66,127,Electric Bass
160.25,0.1274968125796855,66,127,Electric Bass
160.25,0.1274968125796855,78,127,Electric Bass
160.5,0.0,66,70,Electric Bass
160.5,0.0,78,70,Electric Bass
160.5,0.0,64,98,Electric Bass
160.5,0.0,69,98,Electric Bass
160.75,0.0,54,82,Electric Bass
160.75,0.0,69,82,Electric Bass
161.0,0.0,69,82,Electric Bass
161.0,0.0,54,82,Electric Bass
161.0,0.0,36,114,Electric Bass
161.0,0.0,42,114,Electric Bass
161.25,0.0,54,79,Electric Bass
161.25,0.0,69,79,Electric Bass
161.5,0.125,62,104,Electric Bass
161.5,0.125,54,104,Electric Bass
162.0,0.0,54,85,Electric Bass
162.0,0.0,70,85,Electric Bass
162.0,0.0,46,120,Electric Bass
162.0,0.0,38,120,Electric Bass
162.5,0.0,64,69,Electric Bass
162.5,0.0,69,69,Electric Bass
162.75,0.0,54,77,Electric Bass
162.75,0.0,69,77,Electric Bass
162.75,0.0,38,73,Electric Bass
162.75,0.0,42,73,Electric Bass
163.0,0.0,54,72,Electric Bass
163.0,0.0,69,72,Electric Bass
163.25,0.0,54,88,Electric Bass
163.25,0.0,69,88,Electric Bass
163.25,0.0,42,98,Electric Bass
163.25,0.0,38,98,Electric Bass
163.5,0.0,69,105,Electric Bass
163.5,0.0,62,105,Electric Bass
163.5,0.0,54,105,Electric Bass
164.0,0.1274968125796855,70,85,Electric Bass
164.0,0.1274968125796855,63,85,Electric Bass
164.0,0.1274968125796855,54,85,Electric Bass
164.0,0.1274968125796855,46,120,Electric Bass
164.0,0.1274968125796855,38,120,Electric Bass
164.5,0.0,64,94,Electric Bass
164.5,0.0,69,94,Electric Bass
164.5,0.1274968125796855,36,106,Electric Bass
164.5,0.1274968125796855,42,106,Electric Bass
164.75,0.0,54,73,Electric Bass
164.75,0.0,69,73,Electric Bass
165.0,0.0,54,73,Electric Bass
165.0,0.0,69,73,Electric Bass
165.25,0.0,54,90,Electric Bass
165.25,0.0,69,90,Electric Bass
165.5,0.1274968125796855,62,106,Electric Bass
165.5,0.1274968125796855,54,106,Electric Bass
165.5,0.1274968125796855,69,106,Electric Bass
166.0,0.1274968125796855,63,100,Electric Bass
166.0,0.1274968125796855,70,100,Electric Bass
166.0,0.0,54,71,Electric Bass
166.0,0.0,70,71,Electric Bass
166.0,0.0,46,113,Electric Bass
166.0,0.0,38,113,Electric Bass
166.5,0.0,64,96,Electric Bass
166.5,0.0,69,96,Electric Bass
166.75,0.0,54,80,Electric Bass
166.75,0.0,69,80,Electric Bass
166.75,0.0,42,78,Electric Bass
166.75,0.0,38,78,Electric Bass
167.0,0.0,54,84,Electric Bass
167.0,0.0,69,84,Electric Bass
167.25,0.0,54,84,Electric Bass
167.25,0.0,69,84,Electric Bass
167.25,0.0,42,98,Electric Bass
167.25,0.0,38,98,Electric Bass
167.5,0.125,62,109,Electric Bass
167.5,0.125,54,109,Electric Bass
167.5,0.125,69,109,Electric Bass
167.5,0.0,36,111,Electric Bass
167.5,0.0,46,111,Electric Bass
168.0,0.1274968125796855,63,103,Electric Bass
168.0,0.1274968125796855,70,103,Electric Bass
168.0,0.0,54,74,Electric Bass
168.0,0.0,70,74,Electric Bass
168.0,0.0,46,113,Electric Bass
168.0,0.0,38,113,Electric Bass
168.25,0.0,63,88,Electric Bass
168.25,0.0,54,88,Electric Bass
168.5,0.0,64,70,Electric Bass
168.5,0.0,69,70,Electric Bass
168.75,0.0,54,82,Electric Bass
168.75,0.0,69,82,Electric Bass
169.0,0.0,69,82,Electric Bass
169.0,0.0,54,82,Electric Bass
169.0,0.0,36,114,Electric Bass
169.0,0.0,42,114,Electric Bass
169.25,0.0,54,79,Electric Bass
169.25,0.0,69,79,Electric Bass
169.5,0.1274968125796855,62,106,Electric Bass
169.5,0.1274968125796855,54,106,Electric Bass
170.0,0.1274968125796855,63,94,Electric Bass
170.0,0.1274968125796855,54,94,Electric Bass
170.0,0.1274968125796855,70,94,Electric Bass
170.0,0.1274968125796855,46,120,Electric Bass
170.0,0.1274968125796855,38,120,Electric Bass
170.5,0.0,64,90,Electric Bass
170.5,0.0,69,90,Electric Bass
170.75,0.0,54,77,Electric Bass
170.75,0.0,69,77,Electric Bass
170.75,0.1274968125796855,38,73,Electric Bass
170.75,0.1274968125796855,42,73,Electric Bass
171.0,0.0,54,72,Electric Bass
171.0,0.0,69,72,Electric Bass
171.25,0.0,54,88,Electric Bass
171.25,0.0,69,88,Electric Bass
171.25,0.0,42,98,Electric Bass
171.25,0.0,38,98,Electric Bass
171.5,0.1274968125796855,62,116,Electric Bass
171.5,0.1274968125796855,54,116,Electric Bass
171.5,0.0,69,95,Electric Bass
171.5,0.0,54,95,Electric Bass
172.0,0.1274968125796855,63,102,Electric Bass
172.0,0.1274968125796855,70,102,Electric Bass
172.0,0.0,46,120,Electric Bass
172.0,0.0,38,120,Electric Bass
172.5,0.0,64,92,Electric Bass
172.5,0.0,69,92,Electric Bass
172.5,0.0,36,106,Electric Bass
172.5,0.0,42,106,Electric Bass
172.75,0.0,54,73,Electric Bass
172.75,0.0,69,73,Electric Bass
173.0,0.0,54,73,Electric Bass
173.0,0.0,69,73,Electric Bass
173.25,0.0,54,90,Electric Bass
173.25,0.0,69,90,Electric Bass
173.5,0.1274968125796855,54,99,Electric Bass
173.5,0.1274968125796855,69,99,Electric Bass
174.0,0.1274968125796855,63,102,Electric Bass
174.0,0.1274968125796855,70,102,Electric Bass
174.0,0.0,54,71,Electric Bass
174.0,0.0,70,71,Electric Bass
174.0,0.0,46,113,Electric Bass
174.0,0.0,38,113,Electric Bass
174.5,0.0,64,97,Electric Bass
174.5,0.0,69,97,Electric Bass
174.75,0.0,54,80,Electric Bass
174.75,0.0,69,80,Electric Bass
174.75,0.0,42,78,Electric Bass
174.75,0.0,38,78,Electric Bass
175.0,0.0,54,84,Electric Bass
175.0,0.0,69,84,Electric Bass
175.25,0.0,63,87,Electric Bass
175.25,0.0,54,87,Electric Bass
175.25,0.0,69,87,Electric Bass
175.25,0.0,42,98,Electric Bass
175.25,0.0,38,98,Electric Bass
175.5,0.1274968125796855,63,106,Electric Bass
175.5,0.1274968125796855,54,106,Electric Bass
175.5,0.1274968125796855,69,106,Electric Bass
175.5,0.0,36,111,Electric Bass
175.5,0.0,46,111,Electric Bass
175.75,0.1274968125796855,63,78,Electric Bass
175.75,0.1274968125796855,54,78,Electric Bass
176.0,0.125,63,83,Electric Bass
176.0,0.125,54,83,Electric Bass
176.0,0.125,70,83,Electric Bass
176.0,0.0,46,113,Electric Bass
176.0,0.0,38,113,Electric Bass
176.25,0.125,63,96,Electric Bass
176.25,0.125,54,96,Electric Bass
176.5,0.125,63,119,Electric Bass
176.5,0.125,64,119,Electric Bass
176.5,0.125,54,119,Electric Bass
176.75,0.125,63,103,Electric Bass
176.75,0.125,64,103,Electric Bass
176.75,0.125,54,103,Electric Bass
176.75,0.125,69,103,Electric Bass
177.0,1.019974500637484,52,98,Electric Bass
177.0,1.019974500637484,30,98,Electric Bass
177.0,1.019974500637484,57,98,Electric Bass
177.0,1.019974500637484,56,98,Electric Bass
177.0,0.0,69,82,Electric Bass
177.0,0.0,54,82,Electric Bass
177.0,0.1274968125796855,36,114,Electric Bass
177.0,0.1274968125796855,42,114,Electric Bass
177.25,0.0,54,79,Electric Bass
177.25,0.0,69,79,Electric Bass
177.5,0.0,52,88,Electric Bass
177.5,0.0,57,88,Electric Bass
177.5,0.0,56,88,Electric Bass
177.5,0.0,61,88,Electric Bass
177.5,0.0,66,60,Electric Bass
177.5,0.0,78,60,Electric Bass
177.5,0.1274968125796855,62,104,Electric Bass
177.5,0.1274968125796855,54,104,Electric Bass
178.0,0.1274968125796855,57,97,Electric Bass
178.0,0.1274968125796855,61,97,Electric Bass
178.0,0.0,52,102,Electric Bass
178.0,0.0,56,102,Electric Bass
178.0,0.0,54,85,Electric Bass
178.0,0.0,70,85,Electric Bass
178.0,0.0,46,120,Electric Bass
178.0,0.0,38,120,Electric Bass
178.5,0.1274968125796855,30,83,Electric Bass
178.5,0.1274968125796855,42,83,Electric Bass
178.5,0.0,64,69,Electric Bass
178.5,0.0,69,69,Electric Bass
178.75,0.0,54,77,Electric Bass
178.75,0.0,69,77,Electric Bass
178.75,0.0,38,73,Electric Bass
178.75,0.0,42,73,Electric Bass
179.0,0.1274968125796855,57,89,Electric Bass
179.0,0.1274968125796855,61,89,Electric Bass
179.0,0.0,52,97,Electric Bass
179.0,0.0,56,97,Electric Bass
179.0,0.0,54,72,Electric Bass
179.0,0.0,69,72,Electric Bass
179.25,0.0,54,88,Electric Bass
179.25,0.0,69,88,Electric Bass
179.25,0.0,42,98,Electric Bass
179.25,0.0,38,98,Electric Bass
179.5,0.0,30,72,Electric Bass
179.5,0.0,42,72,Electric Bass
179.5,0.0,69,105,Electric Bass
179.5,0.0,62,105,Electric Bass
179.5,0.0,54,105,Electric Bass
179.75,0.1274968125796855,57,94,Electric Bass
179.75,0.1274968125796855,61,94,Electric Bass
179.75,0.0,52,98,Electric Bass
179.75,0.0,56,98,Electric Bass
180.0,0.125,70,85,Electric Bass
180.0,0.125,63,85,Electric Bass
180.0,0.125,54,85,Electric Bass
180.0,0.0,46,120,Electric Bass
180.0,0.0,38,120,Electric Bass
180.25,0.125,30,68,Electric Bass
180.25,0.125,42,68,Electric Bass
180.5,1.75,54,98,Electric Bass
180.5,1.75,58,98,Electric Bass
180.5,0.5,58,98,Electric Bass
180.5,0.5,54,98,Electric Bass
180.5,0.5,63,98,Electric Bass
180.5,0.5,59,98,Electric Bass
180.5,0.0,64,94,Electric Bass
180.5,0.0,69,94,Electric Bass
180.5,0.0,36,106,Electric Bass
180.5,0.0,42,106,Electric Bass
180.75,0.0,54,73,Electric Bass
180.75,0.0,69,73,Electric Bass
181.0,0.0,54,73,Electric Bass
181.0,0.0,69,73,Electric Bass
181.25,0.1274968125796855,30,84,Electric Bass
181.25,0.1274968125796855,42,84,Electric Bass
181.25,0.0,54,90,Electric Bass
181.25,0.0,69,90,Electric Bass
181.5,0.1274968125796855,58,80,Electric Bass
181.5,0.1274968125796855,63,80,Electric Bass
181.5,0.0,54,81,Electric Bass
181.5,0.0,59,81,Electric Bass
181.5,0.0,63,81,Electric Bass
181.5,0.1274968125796855,62,106,Electric Bass
181.5,0.1274968125796855,54,106,Electric Bass
181.5,0.1274968125796855,69,106,Electric Bass
182.0,0.0,63,93,Electric Bass
182.0,0.0,58,93,Electric Bass
182.0,0.0,54,93,Electric Bass
182.0,0.0,59,93,Electric Bass
182.0,0.1274968125796855,63,100,Electric Bass
182.0,0.1274968125796855,70,100,Electric Bass
182.0,0.0,54,71,Electric Bass
182.0,0.0,70,71,Electric Bass
182.0,0.0,46,113,Electric Bass
182.0,0.0,38,113,Electric Bass
182.5,0.1274968125796855,30,82,Electric Bass
182.5,0.1274968125796855,42,82,Electric Bass
182.5,0.0,64,96,Electric Bass
182.5,0.0,69,96,Electric Bass
182.75,0.0,54,80,Electric Bass
182.75,0.0,69,80,Electric Bass
182.75,0.0,42,78,Electric Bass
182.75,0.0,38,78,Electric Bass
183.0,0.0,58,97,Electric Bass
183.0,0.0,54,97,Electric Bass
183.0,0.0,59,97,Electric Bass
183.0,0.0,54,84,Electric Bass
183.0,0.0,69,84,Electric Bass
183.25,0.0,54,84,Electric Bass
183.25,0.0,69,84,Electric Bass
183.25,0.1274968125796855,42,98,Electric Bass
183.25,0.1274968125796855,38,98,Electric Bass
183.5,0.0,42,69,Electric Bass
183.5,0.0,30,69,Electric Bass
183.5,0.1274968125796855,62,109,Electric Bass
183.5,0.1274968125796855,54,109,Electric Bass
183.5,0.1274968125796855,69,109,Electric Bass
183.5,0.1274968125796855,36,111,Electric Bass
183.5,0.1274968125796855,46,111,Electric Bass
183.75,0.0,58,100,Electric Bass
183.75,0.0,63,100,Electric Bass
183.75,0.0,54,100,Electric Bass
183.75,0.0,59,100,Electric Bass
184.0,0.1274968125796855,63,103,Electric Bass
184.0,0.1274968125796855,70,103,Electric Bass
184.0,0.0,54,74,Electric Bass
184.0,0.0,70,74,Electric Bass
184.0,0.0,46,113,Electric Bass
184.0,0.0,38,113,Electric Bass
184.25,0.0,30,72,Electric Bass
184.25,0.0,42,72,Electric Bass
184.25,0.0,63,88,Electric Bass
184.25,0.0,54,88,Electric Bass
184.5,0.1274968125796855,58,91,Electric Bass
184.5,0.1274968125796855,63,91,Electric Bass
184.5,0.1274968125796855,54,91,Electric Bass
184.5,0.0,64,70,Electric Bass
184.5,0.0,69,70,Electric Bass
184.75,0.0,54,82,Electric Bass
184.75,0.0,69,82,Electric Bass
185.0,0.0,69,82,Electric Bass
185.0,0.0,54,82,Electric Bass
185.0,0.0,36,114,Electric Bass
185.0,0.0,42,114,Electric Bass
185.25,0.0,54,79,Electric Bass
185.25,0.0,69,79,Electric Bass
185.5,0.1274968125796855,57,94,Electric Bass
185.5,0.1274968125796855,64,94,Electric Bass
185.5,0.0,61,97,Electric Bass
185.5,0.0,56,97,Electric Bass
185.5,0.1274968125796855,62,106,Electric Bass
185.5,0.1274968125796855,54,106,Electric Bass
186.0,0.16999575010624735,57,94,Electric Bass
186.0,0.16999575010624735,64,94,Electric Bass
186.0,0.16999575010624735,61,94,Electric Bass
186.0,0.1274968125796855,63,94,Electric Bass
186.0,0.1274968125796855,54,94,Electric Bass
186.0,0.1274968125796855,70,94,Electric Bass
186.0,0.0,46,120,Electric Bass
186.0,0.0,38,120,Electric Bass
186.5,0.0,64,90,Electric Bass
186.5,0.0,69,90,Electric Bass
186.75,0.0,54,77,Electric Bass
186.75,0.0,69,77,Electric Bass
186.75,0.0,38,73,Electric Bass
186.75,0.0,42,73,Electric Bass
187.0,0.1274968125796855,57,94,Electric Bass
187.0,0.1274968125796855,64,94,Electric Bass
187.0,0.0,61,97,Electric Bass
187.0,0.0,56,97,Electric Bass
187.0,0.0,54,72,Electric Bass
187.0,0.0,69,72,Electric Bass
187.25,0.0,54,88,Electric Bass
187.25,0.0,69,88,Electric Bass
187.25,0.0,42,98,Electric Bass
187.25,0.0,38,98,Electric Bass
187.5,0.0,30,81,Electric Bass
187.5,0.0,42,81,Electric Bass
187.5,0.1274968125796855,62,116,Electric Bass
187.5,0.1274968125796855,54,116,Electric Bass
187.5,0.0,69,95,Electric Bass
187.5,0.0,54,95,Electric Bass
187.75,0.0,57,96,Electric Bass
187.75,0.0,64,96,Electric Bass
187.75,0.0,61,96,Electric Bass
187.75,0.0,56,102,Electric Bass
187.75,0.0,61,102,Electric Bass
188.0,0.125,63,102,Electric Bass
188.0,0.125,70,102,Electric Bass
188.0,0.0,46,120,Electric Bass
188.0,0.0,38,120,Electric Bass
188.5,0.875,63,95,Electric Bass
188.5,0.875,66,95,Electric Bass
188.5,0.375,58,94,Electric Bass
188.5,0.375,63,94,Electric Bass
188.5,0.375,59,94,Electric Bass
188.5,0.375,66,94,Electric Bass
188.5,0.0,64,92,Electric Bass
188.5,0.0,69,92,Electric Bass
188.5,0.0,36,106,Electric Bass
188.5,0.0,42,106,Electric Bass
188.75,0.0,54,73,Electric Bass
188.75,0.0,69,73,Electric Bass
189.0,0.0,54,73,Electric Bass
189.0,0.0,69,73,Electric Bass
189.25,0.0,54,90,Electric Bass
189.25,0.0,69,90,Electric Bass
189.5,0.1274968125796855,42,94,Electric Bass
189.5,0.1274968125796855,58,94,Electric Bass
189.5,0.0,59,90,Electric Bass
189.5,0.0,63,90,Electric Bass
189.5,0.1274968125796855,54,107,Electric Bass
189.5,0.1274968125796855,62,107,Electric Bass
189.5,0.1274968125796855,69,107,Electric Bass
190.0,0.1274968125796855,58,99,Electric Bass
190.0,0.1274968125796855,63,99,Electric Bass
190.0,0.1274968125796855,59,99,Electric Bass
190.0,0.1274968125796855,66,100,Electric Bass
190.0,0.1274968125796855,63,100,Electric Bass
190.0,0.1274968125796855,63,106,Electric Bass
190.0,0.1274968125796855,70,106,Electric Bass
190.0,0.0,54,71,Electric Bass
190.0,0.0,70,71,Electric Bass
190.0,0.1274968125796855,46,113,Electric Bass
190.0,0.1274968125796855,38,113,Electric Bass
190.25,0.0,64,95,Electric Bass
190.25,0.0,54,95,Electric Bass
190.5,0.1274968125796855,30,81,Electric Bass
190.5,0.1274968125796855,42,81,Electric Bass
190.5,0.0,63,87,Electric Bass
190.5,0.0,69,87,Electric Bass
190.75,0.0,54,80,Electric Bass
190.75,0.0,69,80,Electric Bass
190.75,0.1274968125796855,42,78,Electric Bass
190.75,0.1274968125796855,38,78,Electric Bass
191.0,0.254993625159371,68,106,Electric Bass
191.0,0.254993625159371,59,106,Electric Bass
191.0,0.0,63,97,Electric Bass
191.0,0.0,59,97,Electric Bass
191.0,0.0,58,97,Electric Bass
191.0,0.0,66,97,Electric Bass
191.0,0.0,54,84,Electric Bass
191.0,0.0,69,84,Electric Bass
191.25,0.0,63,95,Electric Bass
191.25,0.0,54,95,Electric Bass
191.25,0.0,69,95,Electric Bass
191.25,0.0,42,98,Electric Bass
191.25,0.0,38,98,Electric Bass
191.5,0.0,30,86,Electric Bass
191.5,0.0,42,86,Electric Bass
191.5,0.1274968125796855,54,102,Electric Bass
191.5,0.1274968125796855,69,102,Electric Bass
191.5,0.0,36,111,Electric Bass
191.5,0.0,46,111,Electric Bass
191.75,0.254993625159371,59,108,Electric Bass
191.75,0.254993625159371,63,108,Electric Bass
191.75,0.0,58,97,Electric Bass
191.75,0.0,66,97,Electric Bass
191.75,0.0,59,97,Electric Bass
191.75,0.0,63,97,Electric Bass
192.0,0.1274968125796855,63,89,Electric Bass
192.0,0.1274968125796855,54,89,Electric Bass
192.0,0.1274968125796855,70,89,Electric Bass
192.0,0.0,46,113,Electric Bass
192.0,0.0,38,113,Electric Bass
192.25,0.0,30,89,Electric Bass
192.25,0.0,42,89,Electric Bass
192.5,0.254993625159371,58,108,Electric Bass
192.5,0.254993625159371,66,108,Electric Bass
192.5,0.254993625159371,59,108,Electric Bass
192.5,0.254993625159371,63,108,Electric Bass
192.5,0.0,64,98,Electric Bass
192.5,0.0,69,98,Electric Bass
192.75,0.0,54,82,Electric Bass
192.75,0.0,69,82,Electric Bass
193.0,1.125,52,101,Electric Bass
193.0,1.125,57,101,Electric Bass
193.0,1.125,56,101,Electric Bass
193.0,0.0,69,82,Electric Bass
193.0,0.0,54,82,Electric Bass
193.0,0.0,36,114,Electric Bass
193.0,0.0,42,114,Electric Bass
193.25,0.0,54,79,Electric Bass
193.25,0.0,69,79,Electric Bass
193.5,0.0,52,88,Electric Bass
193.5,0.0,57,88,Electric Bass
193.5,0.0,56,88,Electric Bass
193.5,0.0,61,88,Electric Bass
193.5,0.125,62,104,Electric Bass
193.5,0.125,54,104,Electric Bass
194.0,0.1274968125796855,57,97,Electric Bass
194.0,0.1274968125796855,61,97,Electric Bass
194.0,0.0,52,102,Electric Bass
194.0,0.0,56,102,Electric Bass
194.0,0.0,54,85,Electric Bass
194.0,0.0,70,85,Electric Bass
194.0,0.0,46,120,Electric Bass
194.0,0.0,38,120,Electric Bass
194.5,0.1274968125796855,30,83,Electric Bass
194.5,0.1274968125796855,42,83,Electric Bass
194.5,0.0,64,69,Electric Bass
194.5,0.0,69,69,Electric Bass
194.75,0.0,54,77,Electric Bass
194.75,0.0,69,77,Electric Bass
194.75,0.0,38,73,Electric Bass
194.75,0.0,42,73,Electric Bass
195.0,0.1274968125796855,57,89,Electric Bass
195.0,0.1274968125796855,61,89,Electric Bass
195.0,0.0,52,97,Electric Bass
195.0,0.0,56,97,Electric Bass
195.0,0.0,54,72,Electric Bass
195.0,0.0,69,72,Electric Bass
195.25,0.0,54,88,Electric Bass
195.25,0.0,69,88,Electric Bass
195.25,0.0,42,98,Electric Bass
195.25,0.0,38,98,Electric Bass
195.5,0.0,30,72,Electric Bass
195.5,0.0,42,72,Electric Bass
195.5,0.0,69,105,Electric Bass
195.5,0.0,62,105,Electric Bass
195.5,0.0,54,105,Electric Bass
195.75,0.1274968125796855,57,94,Electric Bass
195.75,0.1274968125796855,61,94,Electric Bass
195.75,0.0,52,98,Electric Bass
195.75,0.0,56,98,Electric Bass
196.0,0.1274968125796855,70,85,Electric Bass
196.0,0.1274968125796855,63,85,Electric Bass
196.0,0.1274968125796855,54,85,Electric Bass
196.0,0.0,46,120,Electric Bass
196.0,0.0,38,120,Electric Bass
196.25,0.1274968125796855,30,68,Electric Bass
196.25,0.1274968125796855,42,68,Electric Bass
196.5,1.5299617509562262,54,99,Electric Bass
196.5,1.5299617509562262,58,99,Electric Bass
196.5,0.509987250318742,58,98,Electric Bass
196.5,0.509987250318742,54,98,Electric Bass
196.5,0.509987250318742,63,98,Electric Bass
196.5,0.509987250318742,59,98,Electric Bass
196.5,0.0,64,94,Electric Bass
196.5,0.0,69,94,Electric Bass
196.5,0.1274968125796855,36,106,Electric Bass
196.5,0.1274968125796855,42,106,Electric Bass
196.75,0.0,54,73,Electric Bass
196.75,0.0,69,73,Electric Bass
197.0,0.0,54,73,Electric Bass
197.0,0.0,69,73,Electric Bass
197.25,0.1274968125796855,30,84,Electric Bass
197.25,0.1274968125796855,42,84,Electric Bass
197.25,0.0,54,90,Electric Bass
197.25,0.0,69,90,Electric Bass
197.5,0.1274968125796855,58,80,Electric Bass
197.5,0.1274968125796855,63,80,Electric Bass
197.5,0.0,54,81,Electric Bass
197.5,0.0,59,81,Electric Bass
197.5,0.0,63,81,Electric Bass
197.5,0.1274968125796855,62,106,Electric Bass
197.5,0.1274968125796855,54,106,Electric Bass
197.5,0.1274968125796855,69,106,Electric Bass
198.0,0.0,63,93,Electric Bass
198.0,0.0,58,93,Electric Bass
198.0,0.0,54,93,Electric Bass
198.0,0.0,59,93,Electric Bass
198.0,0.1274968125796855,63,100,Electric Bass
198.0,0.1274968125796855,70,100,Electric Bass
198.0,0.0,54,71,Electric Bass
198.0,0.0,70,71,Electric Bass
198.0,0.0,46,113,Electric Bass
198.0,0.0,38,113,Electric Bass
198.5,0.1274968125796855,30,82,Electric Bass
198.5,0.1274968125796855,42,82,Electric Bass
198.5,0.0,64,96,Electric Bass
198.5,0.0,69,96,Electric Bass
198.75,0.0,54,80,Electric Bass
198.75,0.0,69,80,Electric Bass
198.75,0.0,42,78,Electric Bass
198.75,0.0,38,78,Electric Bass
199.0,0.0,58,97,Electric Bass
199.0,0.0,54,97,Electric Bass
199.0,0.0,59,97,Electric Bass
199.0,0.0,54,84,Electric Bass
199.0,0.0,69,84,Electric Bass
199.25,0.0,54,84,Electric Bass
199.25,0.0,69,84,Electric Bass
199.25,0.0,42,98,Electric Bass
199.25,0.0,38,98,Electric Bass
199.5,0.0,42,69,Electric Bass
199.5,0.0,30,69,Electric Bass
199.5,0.1274968125796855,62,109,Electric Bass
199.5,0.1274968125796855,54,109,Electric Bass
199.5,0.1274968125796855,69,109,Electric Bass
199.5,0.0,36,111,Electric Bass
199.5,0.0,46,111,Electric Bass
199.75,0.0,58,100,Electric Bass
199.75,0.0,63,100,Electric Bass
199.75,0.0,54,100,Electric Bass
199.75,0.0,59,100,Electric Bass
200.0,0.125,63,103,Electric Bass
200.0,0.125,70,103,Electric Bass
200.0,0.0,54,74,Electric Bass
200.0,0.0,70,74,Electric Bass
200.0,0.0,46,113,Electric Bass
200.0,0.0,38,113,Electric Bass
200.25,0.0,30,72,Electric Bass
200.25,0.0,42,72,Electric Bass
200.25,0.0,63,88,Electric Bass
200.25,0.0,54,88,Electric Bass
200.5,0.125,58,91,Electric Bass
200.5,0.125,63,91,Electric Bass
200.5,0.125,54,91,Electric Bass
200.5,0.0,64,70,Electric Bass
200.5,0.0,69,70,Electric Bass
200.75,0.0,54,82,Electric Bass
200.75,0.0,69,82,Electric Bass
201.0,0.8924776880577986,61,113,Electric Bass
201.0,0.8924776880577986,57,113,Electric Bass
201.0,0.0,69,82,Electric Bass
201.0,0.0,54,82,Electric Bass
201.0,0.0,36,114,Electric Bass
201.0,0.0,42,114,Electric Bass
201.25,0.0,54,79,Electric Bass
201.25,0.0,69,79,Electric Bass
201.5,0.1274968125796855,57,94,Electric Bass
201.5,0.1274968125796855,64,94,Electric Bass
201.5,0.0,61,97,Electric Bass
201.5,0.0,56,97,Electric Bass
201.5,0.1274968125796855,62,106,Electric Bass
201.5,0.1274968125796855,54,106,Electric Bass
202.0,0.16999575010624735,57,94,Electric Bass
202.0,0.16999575010624735,64,94,Electric Bass
202.0,0.16999575010624735,61,94,Electric Bass
202.0,0.1274968125796855,63,94,Electric Bass
202.0,0.1274968125796855,54,94,Electric Bass
202.0,0.1274968125796855,70,94,Electric Bass
202.0,0.0,46,120,Electric Bass
202.0,0.0,38,120,Electric Bass
202.5,0.0,64,90,Electric Bass
202.5,0.0,69,90,Electric Bass
202.75,0.0,54,77,Electric Bass
202.75,0.0,69,77,Electric Bass
202.75,0.0,38,73,Electric Bass
202.75,0.0,42,73,Electric Bass
203.0,0.1274968125796855,57,94,Electric Bass
203.0,0.1274968125796855,64,94,Electric Bass
203.0,0.0,61,97,Electric Bass
203.0,0.0,56,97,Electric Bass
203.0,0.0,54,72,Electric Bass
203.0,0.0,69,72,Electric Bass
203.25,0.0,54,88,Electric Bass
203.25,0.0,69,88,Electric Bass
203.25,0.1274968125796855,42,98,Electric Bass
203.25,0.1274968125796855,38,98,Electric Bass
203.5,0.0,30,81,Electric Bass
203.5,0.0,42,81,Electric Bass
203.5,0.1274968125796855,62,116,Electric Bass
203.5,0.1274968125796855,54,116,Electric Bass
203.5,0.0,69,95,Electric Bass
203.5,0.0,54,95,Electric Bass
203.75,0.1274968125796855,57,96,Electric Bass
203.75,0.1274968125796855,64,96,Electric Bass
203.75,0.1274968125796855,61,96,Electric Bass
203.75,0.0,56,102,Electric Bass
203.75,0.0,61,102,Electric Bass
204.0,0.1274968125796855,63,102,Electric Bass
204.0,0.1274968125796855,70,102,Electric Bass
204.0,0.0,46,120,Electric Bass
204.0,0.0,38,120,Electric Bass
204.5,1.9124521886952826,59,118,Electric Bass
204.5,1.9124521886952826,42,118,Electric Bass
204.5,1.9124521886952826,30,118,Electric Bass
204.5,0.38249043773905655,58,94,Electric Bass
204.5,0.38249043773905655,63,94,Electric Bass
204.5,0.38249043773905655,59,94,Electric Bass
204.5,0.38249043773905655,66,94,Electric Bass
204.5,0.0,64,92,Electric Bass
204.5,0.0,69,92,Electric Bass
204.5,0.0,36,106,Electric Bass
204.5,0.0,42,106,Electric Bass
204.75,0.0,54,73,Electric Bass
204.75,0.0,69,73,Electric Bass
205.0,0.0,54,73,Electric Bass
205.0,0.0,69,73,Electric Bass
205.25,0.0,54,90,Electric Bass
205.25,0.0,69,90,Electric Bass
205.5,0.1274968125796855,42,94,Electric Bass
205.5,0.1274968125796855,58,94,Electric Bass
205.5,0.0,59,90,Electric Bass
205.5,0.0,63,90,Electric Bass
205.5,0.1274968125796855,54,107,Electric Bass
205.5,0.1274968125796855,62,107,Electric Bass
205.5,0.1274968125796855,69,107,Electric Bass
206.0,0.1274968125796855,58,99,Electric Bass
206.0,0.1274968125796855,63,99,Electric Bass
206.0,0.1274968125796855,59,99,Electric Bass
206.0,0.1274968125796855,66,100,Electric Bass
206.0,0.1274968125796855,63,100,Electric Bass
206.0,0.1274968125796855,63,106,Electric Bass
206.0,0.1274968125796855,70,106,Electric Bass
206.0,0.0,54,71,Electric Bass
206.0,0.0,70,71,Electric Bass
206.0,0.0,46,113,Electric Bass
206.0,0.0,38,113,Electric Bass
206.25,0.0,64,95,Electric Bass
206.25,0.0,54,95,Electric Bass
206.5,0.1274968125796855,30,81,Electric Bass
206.5,0.1274968125796855,42,81,Electric Bass
206.5,0.0,63,87,Electric Bass
206.5,0.0,69,87,Electric Bass
206.75,0.0,54,80,Electric Bass
206.75,0.0,69,80,Electric Bass
206.75,0.0,42,78,Electric Bass
206.75,0.0,38,78,Electric Bass
207.0,0.0,63,97,Electric Bass
207.0,0.0,59,97,Electric Bass
207.0,0.0,58,97,Electric Bass
207.0,0.0,66,97,Electric Bass
207.0,0.0,54,84,Electric Bass
207.0,0.0,69,84,Electric Bass
207.25,0.0,63,95,Electric Bass
207.25,0.0,54,95,Electric Bass
207.25,0.0,69,95,Electric Bass
207.25,0.0,42,98,Electric Bass
207.25,0.0,38,98,Electric Bass
207.5,0.0,30,86,Electric Bass
207.5,0.0,42,86,Electric Bass
207.5,0.125,62,110,Electric Bass
207.5,0.125,69,110,Electric Bass
207.5,0.125,54,102,Electric Bass
207.5,0.125,69,102,Electric Bass
207.5,0.0,36,111,Electric Bass
207.5,0.0,46,111,Electric Bass
207.75,0.0,58,97,Electric Bass
207.75,0.0,66,97,Electric Bass
207.75,0.0,59,97,Electric Bass
207.75,0.0,63,97,Electric Bass
208.0,0.1274968125796855,63,89,Electric Bass
208.0,0.1274968125796855,54,89,Electric Bass
208.0,0.1274968125796855,70,89,Electric Bass
208.0,0.0,46,113,Electric Bass
208.0,0.0,38,113,Electric Bass
208.25,0.0,30,89,Electric Bass
208.25,0.0,42,89,Electric Bass
208.5,0.254993625159371,58,108,Electric Bass
208.5,0.254993625159371,66,108,Electric Bass
208.5,0.254993625159371,59,108,Electric Bass
208.5,0.254993625159371,63,108,Electric Bass
208.5,0.0,64,98,Electric Bass
208.5,0.0,69,98,Electric Bass
208.75,0.0,54,82,Electric Bass
208.75,0.0,69,82,Electric Bass
209.0,1.1474713132171697,52,101,Electric Bass
209.0,1.1474713132171697,57,101,Electric Bass
209.0,1.1474713132171697,56,101,Electric Bass
209.0,0.0,69,82,Electric Bass
209.0,0.0,54,82,Electric Bass
209.0,0.1274968125796855,36,114,Electric Bass
209.0,0.1274968125796855,42,114,Electric Bass
209.25,0.0,54,79,Electric Bass
209.25,0.0,69,79,Electric Bass
209.5,0.0,52,88,Electric Bass
209.5,0.0,57,88,Electric Bass
209.5,0.0,56,88,Electric Bass
209.5,0.0,61,88,Electric Bass
209.5,0.1274968125796855,62,104,Electric Bass
209.5,0.1274968125796855,54,104,Electric Bass
210.0,0.1274968125796855,57,97,Electric Bass
210.0,0.1274968125796855,61,97,Electric Bass
210.0,0.0,52,102,Electric Bass
210.0,0.0,56,102,Electric Bass
210.0,0.0,54,85,Electric Bass
210.0,0.0,70,85,Electric Bass
210.0,0.0,46,120,Electric Bass
210.0,0.0,38,120,Electric Bass
210.5,0.1274968125796855,30,83,Electric Bass
210.5,0.1274968125796855,42,83,Electric Bass
210.5,0.0,64,69,Electric Bass
210.5,0.0,69,69,Electric Bass
210.75,0.0,54,77,Electric Bass
210.75,0.0,69,77,Electric Bass
210.75,0.0,38,73,Electric Bass
210.75,0.0,42,73,Electric Bass
211.0,0.1274968125796855,57,89,Electric Bass
211.0,0.1274968125796855,61,89,Electric Bass
211.0,0.0,52,97,Electric Bass
211.0,0.0,56,97,Electric Bass
211.0,0.0,54,72,Electric Bass
211.0,0.0,69,72,Electric Bass
211.25,0.0,54,88,Electric Bass
211.25,0.0,69,88,Electric Bass
211.25,0.0,42,98,Electric Bass
211.25,0.0,38,98,Electric Bass
211.5,0.0,30,72,Electric Bass
211.5,0.0,42,72,Electric Bass
211.5,0.0,69,105,Electric Bass
211.5,0.0,62,105,Electric Bass
211.5,0.0,54,105,Electric Bass
211.75,0.1274968125796855,57,94,Electric Bass
211.75,0.1274968125796855,61,94,Electric Bass
211.75,0.0,52,98,Electric Bass
211.75,0.0,56,98,Electric Bass
212.0,0.1274968125796855,70,85,Electric Bass
212.0,0.1274968125796855,63,85,Electric Bass
212.0,0.1274968125796855,54,85,Electric Bass
212.0,0.0,46,120,Electric Bass
212.0,0.0,38,120,Electric Bass
212.25,0.1274968125796855,30,68,Electric Bass
212.25,0.1274968125796855,42,68,Electric Bass
212.5,1.5299617509562262,54,99,Electric Bass
212.5,1.5299617509562262,58,99,Electric Bass
212.5,0.509987250318742,58,98,Electric Bass
212.5,0.509987250318742,54,98,Electric Bass
212.5,0.509987250318742,63,98,Electric Bass
212.5,0.509987250318742,59,98,Electric Bass
212.5,0.0,64,94,Electric Bass
212.5,0.0,69,94,Electric Bass
212.5,0.0,36,106,Electric Bass
212.5,0.0,42,106,Electric Bass
212.75,0.0,54,73,Electric Bass
212.75,0.0,69,73,Electric Bass
213.0,0.0,54,73,Electric Bass
213.0,0.0,69,73,Electric Bass
213.25,0.125,30,84,Electric Bass
213.25,0.125,42,84,Electric Bass
213.25,0.0,54,90,Electric Bass
213.25,0.0,69,90,Electric Bass
213.5,0.125,58,80,Electric Bass
213.5,0.125,63,80,Electric Bass
213.5,0.0,54,81,Electric Bass
213.5,0.0,59,81,Electric Bass
213.5,0.0,63,81,Electric Bass
213.5,0.125,62,106,Electric Bass
213.5,0.125,54,106,Electric Bass
213.5,0.125,69,106,Electric Bass
214.0,0.0,63,93,Electric Bass
214.0,0.0,58,93,Electric Bass
214.0,0.0,54,93,Electric Bass
214.0,0.0,59,93,Electric Bass
214.0,0.1274968125796855,63,100,Electric Bass
214.0,0.1274968125796855,70,100,Electric Bass
214.0,0.0,54,71,Electric Bass
214.0,0.0,70,71,Electric Bass
214.0,0.0,46,113,Electric Bass
214.0,0.0,38,113,Electric Bass
214.5,0.1274968125796855,30,82,Electric Bass
214.5,0.1274968125796855,42,82,Electric Bass
214.5,0.0,64,96,Electric Bass
214.5,0.0,69,96,Electric Bass
214.75,0.0,54,80,Electric Bass
214.75,0.0,69,80,Electric Bass
214.75,0.0,42,78,Electric Bass
214.75,0.0,38,78,Electric Bass
215.0,0.0,58,97,Electric Bass
215.0,0.0,54,97,Electric Bass
215.0,0.0,59,97,Electric Bass
215.0,0.0,54,84,Electric Bass
215.0,0.0,69,84,Electric Bass
215.25,0.0,54,84,Electric Bass
215.25,0.0,69,84,Electric Bass
215.25,0.0,42,98,Electric Bass
215.25,0.0,38,98,Electric Bass
215.5,0.0,42,69,Electric Bass
215.5,0.0,30,69,Electric Bass
215.5,0.1274968125796855,62,109,Electric Bass
215.5,0.1274968125796855,54,109,Electric Bass
215.5,0.1274968125796855,69,109,Electric Bass
215.5,0.0,36,111,Electric Bass
215.5,0.0,46,111,Electric Bass
215.75,0.0,58,100,Electric Bass
215.75,0.0,63,100,Electric Bass
215.75,0.0,54,100,Electric Bass
215.75,0.0,59,100,Electric Bass
216.0,0.1274968125796855,63,103,Electric Bass
216.0,0.1274968125796855,70,103,Electric Bass
216.0,0.0,54,74,Electric Bass
216.0,0.0,70,74,Electric Bass
216.0,0.1274968125796855,46,113,Electric Bass
216.0,0.1274968125796855,38,113,Electric Bass
216.25,0.0,30,72,Electric Bass
216.25,0.0,42,72,Electric Bass
216.25,0.0,63,88,Electric Bass
216.25,0.0,54,88,Electric Bass
216.5,0.1274968125796855,58,91,Electric Bass
216.5,0.1274968125796855,63,91,Electric Bass
216.5,0.1274968125796855,54,91,Electric Bass
216.5,0.0,64,70,Electric Bass
216.5,0.0,69,70,Electric Bass
216.75,0.0,54,82,Electric Bass
216.75,0.0,69,82,Electric Bass
217.0,0.8924776880577986,61,113,Electric Bass
217.0,0.8924776880577986,57,113,Electric Bass
217.0,0.0,69,82,Electric Bass
217.0,0.0,54,82,Electric Bass
217.0,0.0,36,114,Electric Bass
217.0,0.0,42,114,Electric Bass
217.25,0.0,54,79,Electric Bass
217.25,0.0,69,79,Electric Bass
217.5,0.1274968125796855,57,94,Electric Bass
217.5,0.1274968125796855,64,94,Electric Bass
217.5,0.0,61,97,Electric Bass
217.5,0.0,56,97,Electric Bass
217.5,0.1274968125796855,62,106,Electric Bass
217.5,0.1274968125796855,54,106,Electric Bass
218.0,0.16999575010624735,57,94,Electric Bass
218.0,0.16999575010624735,64,94,Electric Bass
218.0,0.16999575010624735,61,94,Electric Bass
218.0,0.1274968125796855,63,94,Electric Bass
218.0,0.1274968125796855,54,94,Electric Bass
218.0,0.1274968125796855,70,94,Electric Bass
218.0,0.0,46,120,Electric Bass
218.0,0.0,38,120,Electric Bass
218.5,0.0,64,90,Electric Bass
218.5,0.0,69,90,Electric Bass
218.75,0.0,54,77,Electric Bass
218.75,0.0,69,77,Electric Bass
218.75,0.0,38,73,Electric Bass
218.75,0.0,42,73,Electric Bass
219.0,0.125,57,94,Electric Bass
219.0,0.125,64,94,Electric Bass
219.0,0.0,61,97,Electric Bass
219.0,0.0,56,97,Electric Bass
219.0,0.0,54,72,Electric Bass
219.0,0.0,69,72,Electric Bass
219.25,0.0,54,88,Electric Bass
219.25,0.0,69,88,Electric Bass
219.25,0.0,42,98,Electric Bass
219.25,0.0,38,98,Electric Bass
219.5,0.0,30,81,Electric Bass
219.5,0.0,42,81,Electric Bass
219.5,0.125,62,116,Electric Bass
219.5,0.125,54,116,Electric Bass
219.5,0.0,69,95,Electric Bass
219.5,0.0,54,95,Electric Bass
219.75,0.0,57,96,Electric Bass
219.75,0.0,64,96,Electric Bass
219.75,0.0,61,96,Electric Bass
219.75,0.0,56,102,Electric Bass
219.75,0.0,61,102,Electric Bass
220.0,0.1274968125796855,63,102,Electric Bass
220.0,0.1274968125796855,70,102,Electric Bass
220.0,0.0,46,120,Electric Bass
220.0,0.0,38,120,Electric Bass
220.5,1.9124521886952826,59,118,Electric Bass
220.5,1.9124521886952826,42,118,Electric Bass
220.5,1.9124521886952826,30,118,Electric Bass
220.5,0.38249043773905655,58,94,Electric Bass
220.5,0.38249043773905655,63,94,Electric Bass
220.5,0.38249043773905655,59,94,Electric Bass
220.5,0.38249043773905655,66,94,Electric Bass
220.5,0.0,64,92,Electric Bass
220.5,0.0,69,92,Electric Bass
220.5,0.0,36,106,Electric Bass
220.5,0.0,42,106,Electric Bass
220.75,0.0,54,73,Electric Bass
220.75,0.0,69,73,Electric Bass
221.0,0.0,54,73,Electric Bass
221.0,0.0,69,73,Electric Bass
221.25,0.0,54,90,Electric Bass
221.25,0.0,69,90,Electric Bass
221.5,0.1274968125796855,42,94,Electric Bass
221.5,0.1274968125796855,58,94,Electric Bass
221.5,0.0,59,90,Electric Bass
221.5,0.0,63,90,Electric Bass
221.5,0.1274968125796855,54,107,Electric Bass
221.5,0.1274968125796855,62,107,Electric Bass
221.5,0.1274968125796855,69,107,Electric Bass
222.0,0.1274968125796855,58,99,Electric Bass
222.0,0.1274968125796855,63,99,Electric Bass
222.0,0.1274968125796855,59,99,Electric Bass
222.0,0.1274968125796855,66,100,Electric Bass
222.0,0.1274968125796855,63,100,Electric Bass
222.0,0.1274968125796855,63,106,Electric Bass
222.0,0.1274968125796855,70,106,Electric Bass
222.0,0.0,54,71,Electric Bass
222.0,0.0,70,71,Electric Bass
222.0,0.0,46,113,Electric Bass
222.0,0.0,38,113,Electric Bass
222.25,0.0,64,95,Electric Bass
222.25,0.0,54,95,Electric Bass
222.5,0.1274968125796855,30,81,Electric Bass
222.5,0.1274968125796855,42,81,Electric Bass
222.5,0.0,63,87,Electric Bass
222.5,0.0,69,87,Electric Bass
222.75,0.0,54,80,Electric Bass
222.75,0.0,69,80,Electric Bass
222.75,0.0,42,78,Electric Bass
222.75,0.0,38,78,Electric Bass
223.0,0.0,63,97,Electric Bass
223.0,0.0,59,97,Electric Bass
223.0,0.0,58,97,Electric Bass
223.0,0.0,66,97,Electric Bass
223.0,0.0,54,84,Electric Bass
223.0,0.0,69,84,Electric Bass
223.25,0.1274968125796855,63,102,Electric Bass
223.25,0.1274968125796855,54,102,Electric Bass
223.25,0.1274968125796855,42,98,Electric Bass
223.25,0.1274968125796855,38,98,Electric Bass
223.5,0.0,30,86,Electric Bass
223.5,0.0,42,86,Electric Bass
223.5,0.1274968125796855,76,114,Electric Bass
223.5,0.1274968125796855,73,114,Electric Bass
223.5,0.1274968125796855,54,102,Electric Bass
223.5,0.1274968125796855,69,102,Electric Bass
223.5,0.1274968125796855,36,111,Electric Bass
223.5,0.1274968125796855,46,111,Electric Bass
223.75,0.0,58,97,Electric Bass
223.75,0.0,66,97,Electric Bass
223.75,0.0,59,97,Electric Bass
223.75,0.0,63,97,Electric Bass
224.0,0.1274968125796855,82,114,Electric Bass
224.0,0.1274968125796855,78,114,Electric Bass
224.0,0.1274968125796855,63,89,Electric Bass
224.0,0.1274968125796855,54,89,Electric Bass
224.0,0.1274968125796855,70,89,Electric Bass
224.0,0.0,46,113,Electric Bass
224.0,0.0,38,113,Electric Bass
224.25,0.0,30,89,Electric Bass
224.25,0.0,42,89,Electric Bass
224.25,0.0,83,111,Electric Bass
224.25,0.0,80,111,Electric Bass
224.5,0.254993625159371,58,108,Electric Bass
224.5,0.254993625159371,66,108,Electric Bass
224.5,0.254993625159371,59,108,Electric Bass
224.5,0.254993625159371,63,108,Electric Bass
224.5,0.1274968125796855,82,85,Electric Bass
224.5,0.1274968125796855,78,85,Electric Bass
224.5,0.0,64,98,Electric Bass
224.5,0.0,69,98,Electric Bass
224.75,0.1274968125796855,83,100,Electric Bass
224.75,0.1274968125796855,80,100,Electric Bass
224.75,0.0,54,82,Electric Bass
224.75,0.0,69,82,Electric Bass
225.0,1.1474713132171697,52,101,Electric Bass
225.0,1.1474713132171697,57,101,Electric Bass
225.0,1.1474713132171697,56,101,Electric Bass
225.0,0.3399915002124947,81,123,Electric Bass
225.0,0.3399915002124947,78,123,Electric Bass
225.0,0.0,69,82,Electric Bass
225.0,0.0,54,82,Electric Bass
225.0,0.0,36,114,Electric Bass
225.0,0.0,42,114,Electric Bass
225.25,0.0,54,79,Electric Bass
225.25,0.0,69,79,Electric Bass
225.5,0.0,52,88,Electric Bass
225.5,0.0,57,88,Electric Bass
225.5,0.0,56,88,Electric Bass
225.5,0.0,61,88,Electric Bass
225.5,0.1274968125796855,62,104,Electric Bass
225.5,0.1274968125796855,54,104,Electric Bass
226.0,0.125,57,97,Electric Bass
226.0,0.125,61,97,Electric Bass
226.0,0.0,52,102,Electric Bass
226.0,0.0,56,102,Electric Bass
226.0,0.0,54,85,Electric Bass
226.0,0.0,70,85,Electric Bass
226.0,0.0,46,120,Electric Bass
226.0,0.0,38,120,Electric Bass
226.5,0.125,30,83,Electric Bass
226.5,0.125,42,83,Electric Bass
226.5,0.0,64,69,Electric Bass
226.5,0.0,69,69,Electric Bass
226.75,0.0,54,77,Electric Bass
226.75,0.0,69,77,Electric Bass
226.75,0.0,38,73,Electric Bass
226.75,0.0,42,73,Electric Bass
227.0,0.1274968125796855,57,89,Electric Bass
227.0,0.1274968125796855,61,89,Electric Bass
227.0,0.0,52,97,Electric Bass
227.0,0.0,56,97,Electric Bass
227.0,0.0,54,72,Electric Bass
227.0,0.0,69,72,Electric Bass
227.25,0.0,54,88,Electric Bass
227.25,0.0,69,88,Electric Bass
227.25,0.0,42,98,Electric Bass
227.25,0.0,38,98,Electric Bass
227.5,0.0,30,72,Electric Bass
227.5,0.0,42,72,Electric Bass
227.5,0.0,69,105,Electric Bass
227.5,0.0,62,105,Electric Bass
227.5,0.0,54,105,Electric Bass
227.75,0.1274968125796855,57,94,Electric Bass
227.75,0.1274968125796855,61,94,Electric Bass
227.75,0.0,52,98,Electric Bass
227.75,0.0,56,98,Electric Bass
228.0,0.1274968125796855,70,85,Electric Bass
228.0,0.1274968125796855,63,85,Electric Bass
228.0,0.1274968125796855,54,85,Electric Bass
228.0,0.0,46,120,Electric Bass
228.0,0.0,38,120,Electric Bass
228.25,0.1274968125796855,30,68,Electric Bass
228.25,0.1274968125796855,42,68,Electric Bass
228.5,1.5299617509562262,54,99,Electric Bass
228.5,1.5299617509562262,58,99,Electric Bass
228.5,0.509987250318742,58,98,Electric Bass
228.5,0.509987250318742,54,98,Electric Bass
228.5,0.509987250318742,63,98,Electric Bass
228.5,0.509987250318742,59,98,Electric Bass
228.5,0.0,64,94,Electric Bass
228.5,0.0,69,94,Electric Bass
228.5,0.0,36,106,Electric Bass
228.5,0.0,42,106,Electric Bass
228.75,0.0,54,73,Electric Bass
228.75,0.0,69,73,Electric Bass
229.0,0.0,54,73,Electric Bass
229.0,0.0,69,73,Electric Bass
229.25,0.1274968125796855,30,84,Electric Bass
229.25,0.1274968125796855,42,84,Electric Bass
229.25,0.0,54,90,Electric Bass
229.25,0.0,69,90,Electric Bass
229.5,0.1274968125796855,58,80,Electric Bass
229.5,0.1274968125796855,63,80,Electric Bass
229.5,0.0,54,81,Electric Bass
229.5,0.0,59,81,Electric Bass
229.5,0.0,63,81,Electric Bass
229.5,0.1274968125796855,62,106,Electric Bass
229.5,0.1274968125796855,54,106,Electric Bass
229.5,0.1274968125796855,69,106,Electric Bass
230.0,0.0,63,93,Electric Bass
230.0,0.0,58,93,Electric Bass
230.0,0.0,54,93,Electric Bass
230.0,0.0,59,93,Electric Bass
230.0,0.1274968125796855,63,100,Electric Bass
230.0,0.1274968125796855,70,100,Electric Bass
230.0,0.0,54,71,Electric Bass
230.0,0.0,70,71,Electric Bass
230.0,0.0,46,113,Electric Bass
230.0,0.0,38,113,Electric Bass
230.5,0.1274968125796855,30,82,Electric Bass
230.5,0.1274968125796855,42,82,Electric Bass
230.5,0.0,64,96,Electric Bass
230.5,0.0,69,96,Electric Bass
230.75,0.0,54,80,Electric Bass
230.75,0.0,69,80,Electric Bass
230.75,0.0,42,78,Electric Bass
230.75,0.0,38,78,Electric Bass
231.0,0.0,58,97,Electric Bass
231.0,0.0,54,97,Electric Bass
231.0,0.0,59,97,Electric Bass
231.0,0.0,54,84,Electric Bass
231.0,0.0,69,84,Electric Bass
231.25,0.0,54,84,Electric Bass
231.25,0.0,69,84,Electric Bass
231.25,0.0,42,98,Electric Bass
231.25,0.0,38,98,Electric Bass
231.5,0.0,42,69,Electric Bass
231.5,0.0,30,69,Electric Bass
231.5,0.1274968125796855,62,109,Electric Bass
231.5,0.1274968125796855,54,109,Electric Bass
231.5,0.1274968125796855,69,109,Electric Bass
231.5,0.0,36,111,Electric Bass
231.5,0.0,46,111,Electric Bass
231.75,0.0,58,100,Electric Bass
231.75,0.0,63,100,Electric Bass
231.75,0.0,54,100,Electric Bass
231.75,0.0,59,100,Electric Bass
232.0,0.125,63,103,Electric Bass
232.0,0.125,70,103,Electric Bass
232.0,0.0,54,74,Electric Bass
232.0,0.0,70,74,Electric Bass
232.0,0.0,46,113,Electric Bass
232.0,0.0,38,113,Electric Bass
232.25,0.0,30,72,Electric Bass
232.25,0.0,42,72,Electric Bass
232.25,0.0,63,88,Electric Bass
232.25,0.0,54,88,Electric Bass
232.5,0.125,58,91,Electric Bass
232.5,0.125,63,91,Electric Bass
232.5,0.125,54,91,Electric Bass
232.5,0.0,64,70,Electric Bass
232.5,0.0,69,70,Electric Bass
232.75,0.0,54,82,Electric Bass
232.75,0.0,69,82,Electric Bass
233.0,0.8924776880577986,61,113,Electric Bass
233.0,0.8924776880577986,57,113,Electric Bass
233.0,0.0,69,82,Electric Bass
233.0,0.0,54,82,Electric Bass
233.0,0.0,36,114,Electric Bass
233.0,0.0,42,114,Electric Bass
233.25,0.0,54,79,Electric Bass
233.25,0.0,69,79,Electric Bass
233.5,0.1274968125796855,57,94,Electric Bass
233.5,0.1274968125796855,64,94,Electric Bass
233.5,0.0,61,97,Electric Bass
233.5,0.0,56,97,Electric Bass
233.5,0.1274968125796855,62,106,Electric Bass
233.5,0.1274968125796855,54,106,Electric Bass
234.0,0.16999575010624735,57,94,Electric Bass
234.0,0.16999575010624735,64,94,Electric Bass
234.0,0.16999575010624735,61,94,Electric Bass
234.0,0.1274968125796855,63,94,Electric Bass
234.0,0.1274968125796855,54,94,Electric Bass
234.0,0.1274968125796855,70,94,Electric Bass
234.0,0.0,46,120,Electric Bass
234.0,0.0,38,120,Electric Bass
234.5,0.0,64,90,Electric Bass
234.5,0.0,69,90,Electric Bass
234.75,0.0,54,77,Electric Bass
234.75,0.0,69,77,Electric Bass
234.75,0.0,38,73,Electric Bass
234.75,0.0,42,73,Electric Bass
235.0,0.1274968125796855,57,94,Electric Bass
235.0,0.1274968125796855,64,94,Electric Bass
235.0,0.0,61,97,Electric Bass
235.0,0.0,56,97,Electric Bass
235.0,0.0,54,72,Electric Bass
235.0,0.0,69,72,Electric Bass
235.25,0.0,54,88,Electric Bass
235.25,0.0,69,88,Electric Bass
235.25,0.0,42,98,Electric Bass
235.25,0.0,38,98,Electric Bass
235.5,0.0,30,81,Electric Bass
235.5,0.0,42,81,Electric Bass
235.5,0.1274968125796855,62,116,Electric Bass
235.5,0.1274968125796855,54,116,Electric Bass
235.5,0.0,69,95,Electric Bass
235.5,0.0,54,95,Electric Bass
235.75,0.0,57,96,Electric Bass
235.75,0.0,64,96,Electric Bass
235.75,0.0,61,96,Electric Bass
235.75,0.0,56,102,Electric Bass
235.75,0.0,61,102,Electric Bass
236.0,0.1274968125796855,63,102,Electric Bass
236.0,0.1274968125796855,70,102,Electric Bass
236.0,0.0,46,120,Electric Bass
236.0,0.0,38,120,Electric Bass
236.5,1.9124521886952826,59,118,Electric Bass
236.5,1.9124521886952826,42,118,Electric Bass
236.5,1.9124521886952826,30,118,Electric Bass
236.5,0.38249043773905655,58,94,Electric Bass
236.5,0.38249043773905655,63,94,Electric Bass
236.5,0.38249043773905655,59,94,Electric Bass
236.5,0.38249043773905655,66,94,Electric Bass
236.5,0.0,64,92,Electric Bass
236.5,0.0,69,92,Electric Bass
236.5,0.1274968125796855,36,106,Electric Bass
236.5,0.1274968125796855,42,106,Electric Bass
236.75,0.0,54,73,Electric Bass
236.75,0.0,69,73,Electric Bass
237.0,0.0,54,73,Electric Bass
237.0,0.0,69,73,Electric Bass
237.25,0.0,54,90,Electric Bass
237.25,0.0,69,90,Electric Bass
237.5,0.1274968125796855,42,94,Electric Bass
237.5,0.1274968125796855,58,94,Electric Bass
237.5,0.0,59,90,Electric Bass
237.5,0.0,63,90,Electric Bass
237.5,0.1274968125796855,54,107,Electric Bass
237.5,0.1274968125796855,62,107,Electric Bass
237.5,0.1274968125796855,69,107,Electric Bass
238.0,0.1274968125796855,58,99,Electric Bass
238.0,0.1274968125796855,63,99,Electric Bass
238.0,0.1274968125796855,59,99,Electric Bass
238.0,0.1274968125796855,66,100,Electric Bass
238.0,0.1274968125796855,63,100,Electric Bass
238.0,0.1274968125796855,63,106,Electric Bass
238.0,0.1274968125796855,70,106,Electric Bass
238.0,0.0,54,71,Electric Bass
238.0,0.0,70,71,Electric Bass
238.0,0.0,46,113,Electric Bass
238.0,0.0,38,113,Electric Bass
238.25,0.0,64,95,Electric Bass
238.25,0.0,54,95,Electric Bass
238.5,0.1274968125796855,30,81,Electric Bass
238.5,0.1274968125796855,42,81,Electric Bass
238.5,0.0,63,87,Electric Bass
238.5,0.0,69,87,Electric Bass
238.75,0.0,54,80,Electric Bass
238.75,0.0,69,80,Electric Bass
238.75,0.0,42,78,Electric Bass
238.75,0.0,38,78,Electric Bass
239.0,0.0,63,97,Electric Bass
239.0,0.0,59,97,Electric Bass
239.0,0.0,58,97,Electric Bass
239.0,0.0,66,97,Electric Bass
239.0,0.0,54,84,Electric Bass
239.0,0.0,69,84,Electric Bass
239.25,0.0,63,95,Electric Bass
239.25,0.0,54,95,Electric Bass
239.25,0.0,69,95,Electric Bass
239.25,0.0,42,98,Electric Bass
239.25,0.0,38,98,Electric Bass
239.5,0.0,30,86,Electric Bass
239.5,0.0,42,86,Electric Bass
239.5,0.1274968125796855,54,102,Electric Bass
239.5,0.1274968125796855,69,102,Electric Bass
239.5,0.0,36,111,Electric Bass
239.5,0.0,46,111,Electric Bass
239.75,0.0,58,97,Electric Bass
239.75,0.0,66,97,Electric Bass
239.75,0.0,59,97,Electric Bass
239.75,0.0,63,97,Electric Bass
240.0,0.125,63,89,Electric Bass
240.0,0.125,54,89,Electric Bass
240.0,0.125,70,89,Electric Bass
240.0,0.0,46,113,Electric Bass
240.0,0.0,38,113,Electric Bass
240.25,0.0,30,89,Electric Bass
240.25,0.0,42,89,Electric Bass
240.5,0.125,58,108,Electric Bass
240.5,0.125,66,108,Electric Bass
240.5,0.125,59,108,Electric Bass
240.5,0.125,63,108,Electric Bass
240.5,0.0,64,98,Electric Bass
240.5,0.0,69,98,Electric Bass
240.75,0.0,54,82,Electric Bass
240.75,0.0,69,82,Electric Bass
241.0,0.6374840628984275,61,107,Electric Bass
241.0,0.6374840628984275,50,107,Electric Bass
241.0,0.6374840628984275,57,107,Electric Bass
241.0,0.6374840628984275,54,108,Electric Bass
241.0,0.6374840628984275,57,108,Electric Bass
241.0,0.0,69,82,Electric Bass
241.0,0.0,54,82,Electric Bass
241.0,0.0,36,114,Electric Bass
241.0,0.0,42,114,Electric Bass
241.25,0.0,54,79,Electric Bass
241.25,0.0,69,79,Electric Bass
241.5,0.1274968125796855,57,87,Electric Bass
241.5,0.1274968125796855,66,87,Electric Bass
241.5,0.1274968125796855,62,87,Electric Bass
241.5,0.1274968125796855,66,90,Electric Bass
241.5,0.1274968125796855,78,90,Electric Bass
241.5,0.1274968125796855,62,104,Electric Bass
241.5,0.1274968125796855,54,104,Electric Bass
242.0,0.1274968125796855,57,96,Electric Bass
242.0,0.1274968125796855,62,96,Electric Bass
242.0,0.1274968125796855,66,96,Electric Bass
242.0,0.0,54,85,Electric Bass
242.0,0.0,70,85,Electric Bass
242.0,0.1274968125796855,46,120,Electric Bass
242.0,0.1274968125796855,38,120,Electric Bass
242.5,0.0,47,72,Electric Bass
242.5,0.0,35,72,Electric Bass
242.5,0.0,64,69,Electric Bass
242.5,0.0,69,69,Electric Bass
242.75,0.0,54,77,Electric Bass
242.75,0.0,69,77,Electric Bass
242.75,0.1274968125796855,38,73,Electric Bass
242.75,0.1274968125796855,42,73,Electric Bass
243.0,0.16999575010624735,57,86,Electric Bass
243.0,0.16999575010624735,62,86,Electric Bass
243.0,0.0,54,72,Electric Bass
243.0,0.0,69,72,Electric Bass
243.25,0.0,54,88,Electric Bass
243.25,0.0,69,88,Electric Bass
243.25,0.0,42,98,Electric Bass
243.25,0.0,38,98,Electric Bass
243.5,0.0,35,72,Electric Bass
243.5,0.0,47,72,Electric Bass
243.5,0.0,69,105,Electric Bass
243.5,0.0,62,105,Electric Bass
243.5,0.0,54,105,Electric Bass
243.75,0.1274968125796855,57,90,Electric Bass
243.75,0.1274968125796855,62,90,Electric Bass
243.75,0.0,66,90,Electric Bass
243.75,0.0,59,90,Electric Bass
244.0,0.1274968125796855,70,85,Electric Bass
244.0,0.1274968125796855,63,85,Electric Bass
244.0,0.1274968125796855,54,85,Electric Bass
244.0,0.0,46,120,Electric Bass
244.0,0.0,38,120,Electric Bass
244.25,0.0,47,79,Electric Bass
244.25,0.0,35,79,Electric Bass
244.5,0.254993625159371,57,90,Electric Bass
244.5,0.254993625159371,62,90,Electric Bass
244.5,0.254993625159371,66,90,Electric Bass
244.5,0.0,64,94,Electric Bass
244.5,0.0,69,94,Electric Bass
244.5,0.0,36,106,Electric Bass
244.5,0.0,42,106,Electric Bass
244.75,0.0,54,73,Electric Bass
244.75,0.0,69,73,Electric Bass
245.0,1.1474713132171697,57,100,Electric Bass
245.0,1.1474713132171697,68,100,Electric Bass
245.0,1.019974500637484,64,109,Electric Bass
245.0,1.019974500637484,61,109,Electric Bass
245.0,0.0,54,73,Electric Bass
245.0,0.0,69,73,Electric Bass
245.25,0.0,54,90,Electric Bass
245.25,0.0,69,90,Electric Bass
245.5,0.1274968125796855,57,84,Electric Bass
245.5,0.1274968125796855,61,84,Electric Bass
245.5,0.0,64,88,Electric Bass
245.5,0.0,56,88,Electric Bass
245.5,0.1274968125796855,62,106,Electric Bass
245.5,0.1274968125796855,54,106,Electric Bass
245.5,0.1274968125796855,69,106,Electric Bass
246.0,0.0,64,97,Electric Bass
246.0,0.0,56,97,Electric Bass
246.0,0.0,61,97,Electric Bass
246.0,0.125,63,100,Electric Bass
246.0,0.125,70,100,Electric Bass
246.0,0.0,54,71,Electric Bass
246.0,0.0,70,71,Electric Bass
246.0,0.0,46,113,Electric Bass
246.0,0.0,38,113,Electric Bass
246.25,0.125,57,94,Electric Bass
246.25,0.125,56,94,Electric Bass
246.25,0.125,61,94,Electric Bass
246.5,0.0,64,96,Electric Bass
246.5,0.0,69,96,Electric Bass
246.75,0.125,37,70,Electric Bass
246.75,0.125,49,70,Electric Bass
246.75,0.0,54,80,Electric Bass
246.75,0.0,69,80,Electric Bass
246.75,0.0,42,78,Electric Bass
246.75,0.0,38,78,Electric Bass
247.0,0.1274968125796855,57,106,Electric Bass
247.0,0.1274968125796855,56,106,Electric Bass
247.0,0.0,64,98,Electric Bass
247.0,0.0,61,98,Electric Bass
247.0,0.0,54,84,Electric Bass
247.0,0.0,69,84,Electric Bass
247.25,0.0,54,84,Electric Bass
247.25,0.0,69,84,Electric Bass
247.25,0.0,42,98,Electric Bass
247.25,0.0,38,98,Electric Bass
247.5,0.0,49,86,Electric Bass
247.5,0.0,37,86,Electric Bass
247.5,0.1274968125796855,62,109,Electric Bass
247.5,0.1274968125796855,54,109,Electric Bass
247.5,0.1274968125796855,69,109,Electric Bass
247.5,0.0,36,111,Electric Bass
247.5,0.0,46,111,Electric Bass
247.75,0.0,64,96,Electric Bass
247.75,0.0,57,96,Electric Bass
247.75,0.0,56,96,Electric Bass
247.75,0.0,61,96,Electric Bass
248.0,0.1274968125796855,63,103,Electric Bass
248.0,0.1274968125796855,70,103,Electric Bass
248.0,0.0,54,74,Electric Bass
248.0,0.0,70,74,Electric Bass
248.0,0.0,46,113,Electric Bass
248.0,0.0,38,113,Electric Bass
248.25,0.0,49,90,Electric Bass
248.25,0.0,37,90,Electric Bass
248.25,0.0,63,88,Electric Bass
248.25,0.0,54,88,Electric Bass
248.5,0.3399915002124947,64,94,Electric Bass
248.5,0.3399915002124947,57,94,Electric Bass
248.5,0.3399915002124947,61,94,Electric Bass
248.5,0.254993625159371,56,96,Electric Bass
248.5,0.254993625159371,57,96,Electric Bass
248.5,0.254993625159371,61,96,Electric Bass
248.5,0.0,64,70,Electric Bass
248.5,0.0,69,70,Electric Bass
248.75,0.0,54,82,Electric Bass
248.75,0.0,69,82,Electric Bass
249.0,0.509987250318742,53,106,Electric Bass
249.0,0.509987250318742,59,106,Electric Bass
249.0,0.0,69,82,Electric Bass
249.0,0.0,54,82,Electric Bass
249.0,0.1274968125796855,36,114,Electric Bass
249.0,0.1274968125796855,42,114,Electric Bass
249.25,0.0,54,79,Electric Bass
249.25,0.0,69,79,Electric Bass
249.5,0.254993625159371,53,91,Electric Bass
249.5,0.254993625159371,62,91,Electric Bass
249.5,0.254993625159371,59,91,Electric Bass
249.5,0.254993625159371,56,91,Electric Bass
249.5,0.1274968125796855,62,106,Electric Bass
249.5,0.1274968125796855,54,106,Electric Bass
250.0,0.1274968125796855,63,94,Electric Bass
250.0,0.1274968125796855,54,94,Electric Bass
250.0,0.1274968125796855,70,94,Electric Bass
250.0,0.0,46,120,Electric Bass
250.0,0.0,38,120,Electric Bass
250.25,0.254993625159371,59,89,Electric Bass
250.25,0.254993625159371,56,89,Electric Bass
250.25,0.254993625159371,53,89,Electric Bass
250.5,0.0,64,90,Electric Bass
250.5,0.0,69,90,Electric Bass
250.75,0.0,54,77,Electric Bass
250.75,0.0,69,77,Electric Bass
250.75,0.0,38,73,Electric Bass
250.75,0.0,42,73,Electric Bass
251.0,0.38249043773905655,62,101,Electric Bass
251.0,0.38249043773905655,65,101,Electric Bass
251.0,0.38249043773905655,56,101,Electric Bass
251.0,0.0,56,98,Electric Bass
251.0,0.0,59,98,Electric Bass
251.0,0.254993625159371,62,78,Electric Bass
251.0,0.254993625159371,65,78,Electric Bass
251.0,0.0,54,72,Electric Bass
251.0,0.0,69,72,Electric Bass
251.25,0.0,54,88,Electric Bass
251.25,0.0,69,88,Electric Bass
251.25,0.0,42,98,Electric Bass
251.25,0.0,38,98,Electric Bass
251.5,0.1274968125796855,62,116,Electric Bass
251.5,0.1274968125796855,54,116,Electric Bass
251.5,0.0,69,95,Electric Bass
251.5,0.0,54,95,Electric Bass
251.75,0.254993625159371,62,92,Electric Bass
251.75,0.254993625159371,65,92,Electric Bass
251.75,0.254993625159371,59,92,Electric Bass
251.75,0.254993625159371,56,92,Electric Bass
252.0,0.125,63,102,Electric Bass
252.0,0.125,70,102,Electric Bass
252.0,0.0,46,120,Electric Bass
252.0,0.0,38,120,Electric Bass
252.5,0.25,62,95,Electric Bass
252.5,0.25,59,95,Electric Bass
252.5,0.25,56,95,Electric Bass
252.5,0.0,64,92,Electric Bass
252.5,0.0,69,92,Electric Bass
252.5,0.0,36,106,Electric Bass
252.5,0.0,42,106,Electric Bass
252.75,0.0,54,73,Electric Bass
252.75,0.0,69,73,Electric Bass
253.0,1.3599660008499788,61,104,Electric Bass
253.0,1.3599660008499788,66,104,Electric Bass
253.0,0.0,54,73,Electric Bass
253.0,0.0,69,73,Electric Bass
253.25,0.0,54,90,Electric Bass
253.25,0.0,69,90,Electric Bass
253.5,0.1274968125796855,57,88,Electric Bass
253.5,0.1274968125796855,61,88,Electric Bass
253.5,0.1274968125796855,54,107,Electric Bass
253.5,0.1274968125796855,62,107,Electric Bass
253.5,0.1274968125796855,69,107,Electric Bass
254.0,0.1274968125796855,57,84,Electric Bass
254.0,0.1274968125796855,61,84,Electric Bass
254.0,0.0,52,100,Electric Bass
254.0,0.0,56,100,Electric Bass
254.0,0.1274968125796855,63,106,Electric Bass
254.0,0.1274968125796855,70,106,Electric Bass
254.0,0.0,54,71,Electric Bass
254.0,0.0,70,71,Electric Bass
254.0,0.0,46,113,Electric Bass
254.0,0.0,38,113,Electric Bass
254.25,0.1274968125796855,61,96,Electric Bass
254.25,0.1274968125796855,56,96,Electric Bass
254.25,0.1274968125796855,52,96,Electric Bass
254.25,0.1274968125796855,57,96,Electric Bass
254.25,0.0,64,95,Electric Bass
254.25,0.0,54,95,Electric Bass
254.5,0.0,63,87,Electric Bass
254.5,0.0,69,87,Electric Bass
254.75,0.1274968125796855,30,72,Electric Bass
254.75,0.1274968125796855,42,72,Electric Bass
254.75,0.0,54,80,Electric Bass
254.75,0.0,69,80,Electric Bass
254.75,0.0,42,78,Electric Bass
254.75,0.0,38,78,Electric Bass
255.0,0.0,54,84,Electric Bass
255.0,0.0,69,84,Electric Bass
255.25,0.1274968125796855,63,102,Electric Bass
255.25,0.1274968125796855,54,102,Electric Bass
255.25,0.1274968125796855,42,98,Electric Bass
255.25,0.1274968125796855,38,98,Electric Bass
255.5,0.1274968125796855,30,81,Electric Bass
255.5,0.1274968125796855,42,81,Electric Bass
255.5,0.1274968125796855,54,102,Electric Bass
255.5,0.1274968125796855,69,102,Electric Bass
255.5,0.1274968125796855,36,111,Electric Bass
255.5,0.1274968125796855,46,111,Electric Bass
255.75,0.1274968125796855,57,100,Electric Bass
255.75,0.1274968125796855,61,100,Electric Bass
256.0,0.1274968125796855,63,89,Electric Bass
256.0,0.1274968125796855,54,89,Electric Bass
256.0,0.1274968125796855,70,89,Electric Bass
256.0,0.0,46,113,Electric Bass
256.0,0.0,38,113,Electric Bass
256.25,0.1274968125796855,42,96,Electric Bass
256.25,0.1274968125796855,30,96,Electric Bass
256.5,0.254993625159371,52,104,Electric Bass
256.5,0.254993625159371,57,104,Electric Bass
256.5,0.254993625159371,61,104,Electric Bass
256.5,0.254993625159371,56,104,Electric Bass
256.5,0.0,64,98,Electric Bass
256.5,0.0,69,98,Electric Bass
256.75,0.0,54,82,Electric Bass
256.75,0.0,69,82,Electric Bass
257.0,0.6374840628984275,57,113,Electric Bass
257.0,0.6374840628984275,50,113,Electric Bass
257.0,0.6374840628984275,54,113,Electric Bass
257.0,1.1474713132171697,69,92,Electric Bass
257.0,1.1474713132171697,62,92,Electric Bass
257.0,1.1474713132171697,66,92,Electric Bass
257.0,1.1474713132171697,59,92,Electric Bass
257.0,0.0,69,82,Electric Bass
257.0,0.0,54,82,Electric Bass
257.0,0.0,36,114,Electric Bass
257.0,0.0,42,114,Electric Bass
257.25,0.0,54,79,Electric Bass
257.25,0.0,69,79,Electric Bass
257.5,0.1274968125796855,66,90,Electric Bass
257.5,0.1274968125796855,78,90,Electric Bass
257.5,0.1274968125796855,62,104,Electric Bass
257.5,0.1274968125796855,54,104,Electric Bass
258.0,0.125,60,116,Electric Bass
258.0,0.125,72,116,Electric Bass
258.0,0.375,61,123,Electric Bass
258.0,0.375,73,123,Electric Bass
258.0,0.0,54,85,Electric Bass
258.0,0.0,70,85,Electric Bass
258.0,0.0,46,120,Electric Bass
258.0,0.0,38,120,Electric Bass
258.0,0.125,72,116,Electric Bass
258.0,0.125,84,116,Electric Bass
258.0,0.375,73,123,Electric Bass
258.0,0.375,85,123,Electric Bass
258.5,0.0,64,69,Electric Bass
258.5,0.0,69,69,Electric Bass
258.75,0.16666666666666666,59,127,Electric Bass
258.75,0.16666666666666666,71,127,Electric Bass
258.75,0.0,54,77,Electric Bass
258.75,0.0,69,77,Electric Bass
258.75,0.0,38,73,Electric Bass
258.75,0.0,42,73,Electric Bass
258.75,0.16666666666666666,71,127,Electric Bass
258.75,0.16666666666666666,83,127,Electric Bass
259.0,0.0,54,72,Electric Bass
259.0,0.0,69,72,Electric Bass
259.25,0.1274968125796855,57,110,Electric Bass
259.25,0.1274968125796855,69,110,Electric Bass
259.25,0.0,54,88,Electric Bass
259.25,0.0,69,88,Electric Bass
259.25,0.0,42,98,Electric Bass
259.25,0.0,38,98,Electric Bass
259.25,0.1274968125796855,69,110,Electric Bass
259.25,0.1274968125796855,81,110,Electric Bass
259.5,0.254993625159371,62,97,Electric Bass
259.5,0.254993625159371,66,97,Electric Bass
259.5,0.16999575010624735,59,90,Electric Bass
259.5,0.16999575010624735,69,90,Electric Bass
259.5,0.1274968125796855,59,123,Electric Bass
259.5,0.1274968125796855,71,123,Electric Bass
259.5,0.0,69,105,Electric Bass
259.5,0.0,62,105,Electric Bass
259.5,0.0,54,105,Electric Bass
259.5,0.1274968125796855,71,123,Electric Bass
259.5,0.1274968125796855,83,123,Electric Bass
260.0,0.1274968125796855,70,85,Electric Bass
260.0,0.1274968125796855,63,85,Electric Bass
260.0,0.1274968125796855,54,85,Electric Bass
260.0,0.0,46,120,Electric Bass
260.0,0.0,38,120,Electric Bass
260.25,0.1274968125796855,66,83,Electric Bass
260.25,0.1274968125796855,62,83,Electric Bass
260.25,0.1274968125796855,59,83,Electric Bass
260.25,0.1274968125796855,69,83,Electric Bass
260.5,0.0,64,94,Electric Bass
260.5,0.0,69,94,Electric Bass
260.5,0.0,36,106,Electric Bass
260.5,0.0,42,106,Electric Bass
260.75,0.0,54,73,Electric Bass
260.75,0.0,69,73,Electric Bass
261.0,1.4024649383765406,64,102,Electric Bass
261.0,1.4024649383765406,61,102,Electric Bass
261.0,1.4024649383765406,68,102,Electric Bass
261.0,1.4024649383765406,57,102,Electric Bass
261.0,0.8924776880577986,64,92,Electric Bass
261.0,0.8924776880577986,61,92,Electric Bass
261.0,0.0,54,73,Electric Bass
261.0,0.0,69,73,Electric Bass
261.25,0.0,54,90,Electric Bass
261.25,0.0,69,90,Electric Bass
261.5,0.1274968125796855,66,90,Electric Bass
261.5,0.1274968125796855,78,90,Electric Bass
261.5,0.1274968125796855,62,106,Electric Bass
261.5,0.1274968125796855,54,106,Electric Bass
261.5,0.1274968125796855,69,106,Electric Bass
262.0,0.1274968125796855,60,118,Electric Bass
262.0,0.1274968125796855,72,118,Electric Bass
262.0,0.3399915002124947,61,116,Electric Bass
262.0,0.3399915002124947,73,116,Electric Bass
262.0,0.1274968125796855,63,100,Electric Bass
262.0,0.1274968125796855,70,100,Electric Bass
262.0,0.0,54,71,Electric Bass
262.0,0.0,70,71,Electric Bass
262.0,0.1274968125796855,46,113,Electric Bass
262.0,0.1274968125796855,38,113,Electric Bass
262.0,0.1274968125796855,72,118,Electric Bass
262.0,0.1274968125796855,84,118,Electric Bass
262.0,0.3399915002124947,73,116,Electric Bass
262.0,0.3399915002124947,85,116,Electric Bass
262.5,0.0,64,96,Electric Bass
262.5,0.0,69,96,Electric Bass
262.75,0.1274968125796855,59,125,Electric Bass
262.75,0.1274968125796855,71,125,Electric Bass
262.75,0.0,54,80,Electric Bass
262.75,0.0,69,80,Electric Bass
262.75,0.1274968125796855,42,78,Electric Bass
262.75,0.1274968125796855,38,78,Electric Bass
262.75,0.1274968125796855,71,125,Electric Bass
262.75,0.1274968125796855,83,125,Electric Bass
263.0,0.0,54,84,Electric Bass
263.0,0.0,69,84,Electric Bass
263.25,0.1274968125796855,57,107,Electric Bass
263.25,0.1274968125796855,69,107,Electric Bass
263.25,0.0,54,84,Electric Bass
263.25,0.0,69,84,Electric Bass
263.25,0.0,42,98,Electric Bass
263.25,0.0,38,98,Electric Bass
263.25,0.1274968125796855,69,107,Electric Bass
263.25,0.1274968125796855,81,107,Electric Bass
263.5,0.3399915002124947,64,96,Electric Bass
263.5,0.3399915002124947,61,96,Electric Bass
263.5,0.254993625159371,57,91,Electric Bass
263.5,0.254993625159371,68,91,Electric Bass
263.5,0.1274968125796855,57,121,Electric Bass
263.5,0.1274968125796855,69,121,Electric Bass
263.5,0.1274968125796855,62,109,Electric Bass
263.5,0.1274968125796855,54,109,Electric Bass
263.5,0.1274968125796855,69,109,Electric Bass
263.5,0.0,36,111,Electric Bass
263.5,0.0,46,111,Electric Bass
263.5,0.1274968125796855,69,121,Electric Bass
263.5,0.1274968125796855,81,121,Electric Bass
264.0,0.1274968125796855,63,103,Electric Bass
264.0,0.1274968125796855,70,103,Electric Bass
264.0,0.0,54,74,Electric Bass
264.0,0.0,70,74,Electric Bass
264.0,0.0,46,113,Electric Bass
264.0,0.0,38,113,Electric Bass
264.25,0.1274968125796855,57,86,Electric Bass
264.25,0.1274968125796855,68,86,Electric Bass
264.25,0.1274968125796855,61,86,Electric Bass
264.25,0.0,63,88,Electric Bass
264.25,0.0,54,88,Electric Bass
264.5,0.0,64,70,Electric Bass
264.5,0.0,69,70,Electric Bass
264.75,0.0,54,82,Electric Bass
264.75,0.0,69,82,Electric Bass
265.0,1.0,57,114,Electric Bass
265.0,1.0,62,114,Electric Bass
265.0,1.0,54,87,Electric Bass
265.0,1.0,64,87,Electric Bass
265.0,1.0,57,87,Electric Bass
265.0,0.75,38,89,Electric Bass
265.0,0.75,50,89,Electric Bass
265.0,0.0,69,82,Electric Bass
265.0,0.0,54,82,Electric Bass
265.0,0.0,36,114,Electric Bass
265.0,0.0,42,114,Electric Bass
265.25,0.0,54,79,Electric Bass
265.25,0.0,69,79,Electric Bass
265.5,0.125,66,90,Electric Bass
265.5,0.125,78,90,Electric Bass
265.5,0.125,62,106,Electric Bass
265.5,0.125,54,106,Electric Bass
266.0,0.0,59,125,Electric Bass
266.0,0.0,71,125,Electric Bass
266.0,0.3399915002124947,60,120,Electric Bass
266.0,0.3399915002124947,72,120,Electric Bass
266.0,0.1274968125796855,63,94,Electric Bass
266.0,0.1274968125796855,54,94,Electric Bass
266.0,0.1274968125796855,70,94,Electric Bass
266.0,0.0,46,120,Electric Bass
266.0,0.0,38,120,Electric Bass
266.0,0.0,71,125,Electric Bass
266.0,0.0,83,125,Electric Bass
266.0,0.3399915002124947,72,120,Electric Bass
266.0,0.3399915002124947,84,120,Electric Bass
266.5,0.0,64,90,Electric Bass
266.5,0.0,69,90,Electric Bass
266.75,0.1274968125796855,59,121,Electric Bass
266.75,0.1274968125796855,71,121,Electric Bass
266.75,0.0,54,77,Electric Bass
266.75,0.0,69,77,Electric Bass
266.75,0.0,38,73,Electric Bass
266.75,0.0,42,73,Electric Bass
266.75,0.1274968125796855,71,121,Electric Bass
266.75,0.1274968125796855,83,121,Electric Bass
267.0,0.0,54,72,Electric Bass
267.0,0.0,69,72,Electric Bass
267.25,0.1274968125796855,57,107,Electric Bass
267.25,0.1274968125796855,69,107,Electric Bass
267.25,0.0,54,88,Electric Bass
267.25,0.0,69,88,Electric Bass
267.25,0.0,42,98,Electric Bass
267.25,0.0,38,98,Electric Bass
267.25,0.1274968125796855,69,107,Electric Bass
267.25,0.1274968125796855,81,107,Electric Bass
267.5,0.254993625159371,57,89,Electric Bass
267.5,0.254993625159371,60,89,Electric Bass
267.5,0.16999575010624735,59,118,Electric Bass
267.5,0.16999575010624735,71,118,Electric Bass
267.5,0.1274968125796855,62,116,Electric Bass
267.5,0.1274968125796855,54,116,Electric Bass
267.5,0.0,69,95,Electric Bass
267.5,0.0,54,95,Electric Bass
267.5,0.16999575010624735,71,118,Electric Bass
267.5,0.16999575010624735,83,118,Electric Bass
268.0,0.1274968125796855,63,102,Electric Bass
268.0,0.1274968125796855,70,102,Electric Bass
268.0,0.1274968125796855,46,120,Electric Bass
268.0,0.1274968125796855,38,120,Electric Bass
268.25,0.16999575010624735,38,67,Electric Bass
268.25,0.16999575010624735,57,67,Electric Bass
268.25,0.1274968125796855,50,76,Electric Bass
268.25,0.1274968125796855,60,76,Electric Bass
268.25,0.1274968125796855,57,76,Electric Bass
268.25,0.1274968125796855,54,76,Electric Bass
268.5,0.0,64,92,Electric Bass
268.5,0.0,69,92,Electric Bass
268.5,0.1274968125796855,36,106,Electric Bass
268.5,0.1274968125796855,42,106,Electric Bass
268.75,0.0,54,73,Electric Bass
268.75,0.0,69,73,Electric Bass
269.0,0.8924776880577986,53,116,Electric Bass
269.0,0.8924776880577986,56,116,Electric Bass
269.0,0.254993625159371,37,91,Electric Bass
269.0,0.254993625159371,61,91,Electric Bass
269.0,0.254993625159371,53,91,Electric Bass
269.0,0.254993625159371,59,92,Electric Bass
269.0,0.254993625159371,49,92,Electric Bass
269.0,0.0,54,73,Electric Bass
269.0,0.0,69,73,Electric Bass
269.0,1.9124521886952826,68,88,Electric Bass
269.0,1.9124521886952826,71,88,Electric Bass
269.0,1.9124521886952826,65,88,Electric Bass
269.0,1.9124521886952826,59,88,Electric Bass
269.25,0.0,54,90,Electric Bass
269.25,0.0,69,90,Electric Bass
269.5,0.1274968125796855,68,90,Electric Bass
269.5,0.1274968125796855,80,90,Electric Bass
269.5,0.1274968125796855,54,107,Electric Bass
269.5,0.1274968125796855,62,107,Electric Bass
269.5,0.1274968125796855,69,107,Electric Bass
269.75,0.0,61,80,Electric Bass
269.75,0.0,59,80,Electric Bass
269.75,0.0,49,64,Electric Bass
269.75,0.0,53,64,Electric Bass
270.0,0.0,59,82,Electric Bass
270.0,0.0,61,82,Electric Bass
270.0,0.1274968125796855,63,106,Electric Bass
270.0,0.1274968125796855,70,106,Electric Bass
270.0,0.0,54,71,Electric Bass
270.0,0.0,70,71,Electric Bass
270.0,0.0,46,113,Electric Bass
270.0,0.0,38,113,Electric Bass
270.25,0.0,53,74,Electric Bass
270.25,0.0,49,74,Electric Bass
270.25,0.0,64,95,Electric Bass
270.25,0.0,54,95,Electric Bass
270.3333333333333,0.1274968125796855,37,88,Electric Bass
270.3333333333333,0.1274968125796855,53,88,Electric Bass
270.5,0.0,63,87,Electric Bass
270.5,0.0,69,87,Electric Bass
270.75,0.0,54,80,Electric Bass
270.75,0.0,69,80,Electric Bass
270.75,0.0,42,78,Electric Bass
270.75,0.0,38,78,Electric Bass
271.0,0.125,73,102,Electric Bass
271.0,0.125,68,102,Electric Bass
271.0,0.125,37,102,Electric Bass
271.0,0.125,49,102,Electric Bass
271.0,0.125,61,127,Electric Bass
271.0,0.125,73,127,Electric Bass
271.0,0.125,68,127,Electric Bass
271.0,0.0,54,84,Electric Bass
271.0,0.0,69,84,Electric Bass
271.0,0.125,73,127,Electric Bass
271.0,0.125,85,127,Electric Bass
271.0,0.125,80,127,Electric Bass
271.25,0.0,63,95,Electric Bass
271.25,0.0,54,95,Electric Bass
271.25,0.0,69,95,Electric Bass
271.25,0.0,42,98,Electric Bass
271.25,0.0,38,98,Electric Bass
271.5,0.125,65,105,Electric Bass
271.5,0.125,73,105,Electric Bass
271.5,0.125,68,105,Electric Bass
271.5,0.125,37,105,Electric Bass
271.5,0.125,49,105,Electric Bass
271.5,0.125,61,127,Electric Bass
271.5,0.125,73,127,Electric Bass
271.5,0.125,68,127,Electric Bass
271.5,0.125,54,102,Electric Bass
271.5,0.125,69,102,Electric Bass
271.5,0.0,36,111,Electric Bass
271.5,0.0,46,111,Electric Bass
271.5,0.125,73,127,Electric Bass
271.5,0.125,85,127,Electric Bass
271.5,0.125,80,127,Electric Bass
272.0,0.0,65,99,Electric Bass
272.0,0.0,68,99,Electric Bass
272.0,0.0,73,99,Electric Bass
272.0,0.0,37,99,Electric Bass
272.0,0.0,49,99,Electric Bass
272.0,0.1274968125796855,61,127,Electric Bass
272.0,0.1274968125796855,73,127,Electric Bass
272.0,0.1274968125796855,68,127,Electric Bass
272.0,0.1274968125796855,63,89,Electric Bass
272.0,0.1274968125796855,54,89,Electric Bass
272.0,0.1274968125796855,70,89,Electric Bass
272.0,0.0,46,113,Electric Bass
272.0,0.0,38,113,Electric Bass
272.0,0.1274968125796855,73,127,Electric Bass
272.0,0.1274968125796855,85,127,Electric Bass
272.0,0.1274968125796855,80,127,Electric Bass
272.25,0.1274968125796855,73,94,Electric Bass
272.25,0.1274968125796855,65,94,Electric Bass
272.25,0.1274968125796855,49,94,Electric Bass
272.25,0.1274968125796855,37,94,Electric Bass
272.25,0.1274968125796855,68,97,Electric Bass
272.25,0.1274968125796855,49,97,Electric Bass
272.25,0.1274968125796855,37,97,Electric Bass
272.25,0.1274968125796855,61,127,Electric Bass
272.25,0.1274968125796855,73,127,Electric Bass
272.25,0.1274968125796855,68,127,Electric Bass
272.25,0.1274968125796855,73,127,Electric Bass
272.25,0.1274968125796855,85,127,Electric Bass
272.25,0.1274968125796855,80,127,Electric Bass
272.5,0.0,64,98,Electric Bass
272.5,0.0,69,98,Electric Bass
272.75,0.0,54,82,Electric Bass
272.75,0.0,69,82,Electric Bass
273.0,1.6574585635359116,61,108,Electric Bass
273.0,1.6574585635359116,57,108,Electric Bass
273.0,1.5299617509562262,52,116,Electric Bass
273.0,1.5299617509562262,56,116,Electric Bass
273.0,2.039949001274968,73,93,Electric Bass
273.0,2.039949001274968,69,93,Electric Bass
273.0,0.1274968125796855,51,126,Electric Bass
273.0,0.1274968125796855,64,126,Electric Bass
273.0,0.0,69,82,Electric Bass
273.0,0.0,54,82,Electric Bass
273.0,0.0,36,114,Electric Bass
273.0,0.0,42,114,Electric Bass
273.25,0.0,54,79,Electric Bass
273.25,0.0,69,79,Electric Bass
273.5,0.1274968125796855,57,101,Electric Bass
273.5,0.1274968125796855,66,101,Electric Bass
273.5,0.1274968125796855,62,103,Electric Bass
273.5,0.1274968125796855,54,103,Electric Bass
273.5,0.1274968125796855,51,103,Electric Bass
274.0,0.1274968125796855,63,120,Electric Bass
274.0,0.1274968125796855,51,120,Electric Bass
274.0,0.0,54,85,Electric Bass
274.0,0.0,70,85,Electric Bass
274.0,0.0,46,120,Electric Bass
274.0,0.0,38,120,Electric Bass
274.25,0.0,66,100,Electric Bass
274.25,0.0,61,100,Electric Bass
274.5,0.0,64,69,Electric Bass
274.5,0.0,69,69,Electric Bass
274.75,0.0,54,77,Electric Bass
274.75,0.0,69,77,Electric Bass
274.75,0.0,38,73,Electric Bass
274.75,0.0,42,73,Electric Bass
275.0,0.0,66,96,Electric Bass
275.0,0.0,61,96,Electric Bass
275.0,0.0,66,64,Electric Bass
275.0,0.0,78,64,Electric Bass
275.0,0.0,54,72,Electric Bass
275.0,0.0,69,72,Electric Bass
275.25,0.0,54,88,Electric Bass
275.25,0.0,69,88,Electric Bass
275.25,0.1274968125796855,42,98,Electric Bass
275.25,0.1274968125796855,38,98,Electric Bass
275.5,0.1274968125796855,51,113,Electric Bass
275.5,0.1274968125796855,54,113,Electric Bass
275.5,0.0,69,105,Electric Bass
275.5,0.0,62,105,Electric Bass
275.5,0.0,54,105,Electric Bass
275.75,0.0,61,97,Electric Bass
275.75,0.0,66,97,Electric Bass
276.0,0.1274968125796855,70,85,Electric Bass
276.0,0.1274968125796855,63,85,Electric Bass
276.0,0.1274968125796855,54,85,Electric Bass
276.0,0.0,46,120,Electric Bass
276.0,0.0,38,120,Electric Bass
276.5,0.3399915002124947,57,106,Electric Bass
276.5,0.3399915002124947,61,106,Electric Bass
276.5,0.3399915002124947,66,106,Electric Bass
276.5,0.0,64,94,Electric Bass
276.5,0.0,69,94,Electric Bass
276.5,0.0,36,106,Electric Bass
276.5,0.0,42,106,Electric Bass
276.75,0.0,54,73,Electric Bass
276.75,0.0,69,73,Electric Bass
277.0,0.6799830004249894,63,109,Electric Bass
277.0,0.6799830004249894,60,109,Electric Bass
277.0,0.6799830004249894,54,109,Electric Bass
277.0,2.039949001274968,75,92,Electric Bass
277.0,2.039949001274968,72,92,Electric Bass
277.0,0.0,54,73,Electric Bass
277.0,0.0,69,73,Electric Bass
277.25,0.1274968125796855,63,127,Electric Bass
277.25,0.1274968125796855,72,127,Electric Bass
277.25,0.1274968125796855,75,127,Electric Bass
277.25,0.0,54,90,Electric Bass
277.25,0.0,69,90,Electric Bass
277.25,0.1274968125796855,75,127,Electric Bass
277.25,0.1274968125796855,84,127,Electric Bass
277.25,0.1274968125796855,87,127,Electric Bass
277.5,0.0,66,90,Electric Bass
277.5,0.0,63,90,Electric Bass
277.5,0.1274968125796855,62,106,Electric Bass
277.5,0.1274968125796855,54,106,Electric Bass
277.5,0.1274968125796855,69,106,Electric Bass
277.75,0.1274968125796855,63,127,Electric Bass
277.75,0.1274968125796855,72,127,Electric Bass
277.75,0.1274968125796855,75,127,Electric Bass
277.75,0.1274968125796855,75,127,Electric Bass
277.75,0.1274968125796855,84,127,Electric Bass
277.75,0.1274968125796855,87,127,Electric Bass
278.0,0.125,63,127,Electric Bass
278.0,0.125,72,127,Electric Bass
278.0,0.125,75,127,Electric Bass
278.0,0.125,63,100,Electric Bass
278.0,0.125,70,100,Electric Bass
278.0,0.0,54,71,Electric Bass
278.0,0.0,70,71,Electric Bass
278.0,0.0,46,113,Electric Bass
278.0,0.0,38,113,Electric Bass
278.0,0.125,75,127,Electric Bass
278.0,0.125,84,127,Electric Bass
278.0,0.125,87,127,Electric Bass
278.25,0.125,60,98,Electric Bass
278.25,0.125,63,98,Electric Bass
278.5,0.8333333333333334,54,102,Electric Bass
278.5,0.8333333333333334,63,102,Electric Bass
278.5,0.0,64,96,Electric Bass
278.5,0.0,69,96,Electric Bass
278.75,0.125,63,125,Electric Bass
278.75,0.125,72,125,Electric Bass
278.75,0.125,75,125,Electric Bass
278.75,0.0,54,80,Electric Bass
278.75,0.0,69,80,Electric Bass
278.75,0.0,42,78,Electric Bass
278.75,0.0,38,78,Electric Bass
278.75,0.125,75,125,Electric Bass
278.75,0.125,84,125,Electric Bass
278.75,0.125,87,125,Electric Bass
279.0,0.0,66,99,Electric Bass
279.0,0.0,63,99,Electric Bass
279.0,0.1274968125796855,63,127,Electric Bass
279.0,0.1274968125796855,72,127,Electric Bass
279.0,0.1274968125796855,75,127,Electric Bass
279.0,0.0,54,84,Electric Bass
279.0,0.0,69,84,Electric Bass
279.0,0.1274968125796855,75,127,Electric Bass
279.0,0.1274968125796855,84,127,Electric Bass
279.0,0.1274968125796855,87,127,Electric Bass
279.25,0.1274968125796855,63,127,Electric Bass
279.25,0.1274968125796855,72,127,Electric Bass
279.25,0.1274968125796855,75,127,Electric Bass
279.25,0.0,54,84,Electric Bass
279.25,0.0,69,84,Electric Bass
279.25,0.0,42,98,Electric Bass
279.25,0.0,38,98,Electric Bass
279.25,0.1274968125796855,75,127,Electric Bass
279.25,0.1274968125796855,84,127,Electric Bass
279.25,0.1274968125796855,87,127,Electric Bass
279.5,0.1274968125796855,63,127,Electric Bass
279.5,0.1274968125796855,72,127,Electric Bass
279.5,0.1274968125796855,75,127,Electric Bass
279.5,0.1274968125796855,62,109,Electric Bass
279.5,0.1274968125796855,54,109,Electric Bass
279.5,0.1274968125796855,69,109,Electric Bass
279.5,0.1274968125796855,51,108,Electric Bass
279.5,0.1274968125796855,54,108,Electric Bass
279.5,0.1274968125796855,69,108,Electric Bass
279.5,0.0,36,111,Electric Bass
279.5,0.0,46,111,Electric Bass
279.5,0.1274968125796855,75,127,Electric Bass
279.5,0.1274968125796855,84,127,Electric Bass
279.5,0.1274968125796855,87,127,Electric Bass
279.75,0.1274968125796855,60,99,Electric Bass
279.75,0.1274968125796855,63,99,Electric Bass
280.0,0.1274968125796855,63,103,Electric Bass
280.0,0.1274968125796855,70,103,Electric Bass
280.0,0.0,54,74,Electric Bass
280.0,0.0,70,74,Electric Bass
280.0,0.0,46,113,Electric Bass
280.0,0.0,38,113,Electric Bass
280.25,0.0,63,88,Electric Bass
280.25,0.0,54,88,Electric Bass
280.5,0.3399915002124947,60,110,Electric Bass
280.5,0.3399915002124947,63,110,Electric Bass
280.5,0.3399915002124947,66,110,Electric Bass
280.5,0.0,64,70,Electric Bass
280.5,0.0,69,70,Electric Bass
280.75,0.0,54,82,Electric Bass
280.75,0.0,69,82,Electric Bass
281.0,0.6374840628984275,55,110,Electric Bass
281.0,0.6374840628984275,62,110,Electric Bass
281.0,0.6374840628984275,59,110,Electric Bass
281.0,1.7849553761155972,30,99,Electric Bass
281.0,1.7849553761155972,42,99,Electric Bass
281.0,0.1274968125796855,64,112,Electric Bass
281.0,0.1274968125796855,51,112,Electric Bass
281.0,0.0,69,82,Electric Bass
281.0,0.0,54,82,Electric Bass
281.0,0.0,36,114,Electric Bass
281.0,0.0,42,114,Electric Bass
281.25,0.0,54,79,Electric Bass
281.25,0.0,69,79,Electric Bass
281.5,0.0,59,105,Electric Bass
281.5,0.0,66,105,Electric Bass
281.5,0.1274968125796855,62,106,Electric Bass
281.5,0.1274968125796855,54,106,Electric Bass
282.0,0.1274968125796855,63,94,Electric Bass
282.0,0.1274968125796855,54,94,Electric Bass
282.0,0.1274968125796855,70,94,Electric Bass
282.0,0.1274968125796855,46,120,Electric Bass
282.0,0.1274968125796855,38,120,Electric Bass
282.25,0.1274968125796855,59,98,Electric Bass
282.25,0.1274968125796855,62,98,Electric Bass
282.5,0.7649808754781131,55,101,Electric Bass
282.5,0.7649808754781131,62,101,Electric Bass
282.5,0.0,64,90,Electric Bass
282.5,0.0,69,90,Electric Bass
282.75,0.0,54,77,Electric Bass
282.75,0.0,69,77,Electric Bass
282.75,0.1274968125796855,38,73,Electric Bass
282.75,0.1274968125796855,42,73,Electric Bass
283.0,0.1274968125796855,59,100,Electric Bass
283.0,0.1274968125796855,62,100,Electric Bass
283.0,0.0,54,72,Electric Bass
283.0,0.0,69,72,Electric Bass
283.25,0.0,54,88,Electric Bass
283.25,0.0,69,88,Electric Bass
283.25,0.0,42,98,Electric Bass
283.25,0.0,38,98,Electric Bass
283.5,0.1274968125796855,62,117,Electric Bass
283.5,0.1274968125796855,51,117,Electric Bass
283.5,0.1274968125796855,54,117,Electric Bass
283.5,0.0,69,95,Electric Bass
283.5,0.0,54,95,Electric Bass
283.75,0.1274968125796855,59,99,Electric Bass
283.75,0.1274968125796855,62,99,Electric Bass
284.0,0.125,63,102,Electric Bass
284.0,0.125,70,102,Electric Bass
284.0,0.0,46,120,Electric Bass
284.0,0.0,38,120,Electric Bass
284.5,0.3333333333333333,59,106,Electric Bass
284.5,0.3333333333333333,62,106,Electric Bass
284.5,0.3333333333333333,66,106,Electric Bass
284.5,0.0,64,92,Electric Bass
284.5,0.0,69,92,Electric Bass
284.5,0.0,36,106,Electric Bass
284.5,0.0,42,106,Electric Bass
284.75,0.0,54,73,Electric Bass
284.75,0.0,69,73,Electric Bass
285.0,0.6374840628984275,61,105,Electric Bass
285.0,0.6374840628984275,56,105,Electric Bass
285.0,0.6374840628984275,52,105,Electric Bass
285.0,0.6374840628984275,30,105,Electric Bass
285.0,0.6374840628984275,42,105,Electric Bass
285.0,2.039949001274968,69,92,Electric Bass
285.0,2.039949001274968,73,92,Electric Bass
285.0,0.0,54,73,Electric Bass
285.0,0.0,69,73,Electric Bass
285.25,0.1274968125796855,66,127,Electric Bass
285.25,0.1274968125796855,69,127,Electric Bass
285.25,0.1274968125796855,73,127,Electric Bass
285.25,0.0,54,90,Electric Bass
285.25,0.0,69,90,Electric Bass
285.25,0.1274968125796855,78,127,Electric Bass
285.25,0.1274968125796855,81,127,Electric Bass
285.25,0.1274968125796855,85,127,Electric Bass
285.5,0.1274968125796855,61,100,Electric Bass
285.5,0.1274968125796855,66,100,Electric Bass
285.5,0.1274968125796855,57,100,Electric Bass
285.5,0.1274968125796855,54,106,Electric Bass
285.5,0.1274968125796855,62,106,Electric Bass
285.5,0.1274968125796855,51,106,Electric Bass
285.5,0.1274968125796855,69,106,Electric Bass
285.75,0.1274968125796855,66,127,Electric Bass
285.75,0.1274968125796855,69,127,Electric Bass
285.75,0.1274968125796855,73,127,Electric Bass
285.75,0.1274968125796855,78,127,Electric Bass
285.75,0.1274968125796855,81,127,Electric Bass
285.75,0.1274968125796855,85,127,Electric Bass
286.0,0.1274968125796855,66,127,Electric Bass
286.0,0.1274968125796855,69,127,Electric Bass
286.0,0.1274968125796855,73,127,Electric Bass
286.0,0.1274968125796855,63,106,Electric Bass
286.0,0.1274968125796855,70,106,Electric Bass
286.0,0.0,54,71,Electric Bass
286.0,0.0,70,71,Electric Bass
286.0,0.0,46,113,Electric Bass
286.0,0.0,38,113,Electric Bass
286.0,0.1274968125796855,78,127,Electric Bass
286.0,0.1274968125796855,81,127,Electric Bass
286.0,0.1274968125796855,85,127,Electric Bass
286.25,0.1274968125796855,57,94,Electric Bass
286.25,0.1274968125796855,66,94,Electric Bass
286.25,0.1274968125796855,61,94,Electric Bass
286.25,0.0,64,95,Electric Bass
286.25,0.0,54,95,Electric Bass
286.5,0.509987250318742,57,108,Electric Bass
286.5,0.509987250318742,61,108,Electric Bass
286.5,1.019974500637484,30,103,Electric Bass
286.5,1.019974500637484,42,103,Electric Bass
286.5,0.0,63,87,Electric Bass
286.5,0.0,69,87,Electric Bass
286.75,0.1274968125796855,66,125,Electric Bass
286.75,0.1274968125796855,69,125,Electric Bass
286.75,0.1274968125796855,73,125,Electric Bass
286.75,0.0,54,80,Electric Bass
286.75,0.0,69,80,Electric Bass
286.75,0.0,42,78,Electric Bass
286.75,0.0,38,78,Electric Bass
286.75,0.1274968125796855,78,125,Electric Bass
286.75,0.1274968125796855,81,125,Electric Bass
286.75,0.1274968125796855,85,125,Electric Bass
287.0,0.0,61,105,Electric Bass
287.0,0.0,66,105,Electric Bass
287.0,0.1274968125796855,66,127,Electric Bass
287.0,0.1274968125796855,69,127,Electric Bass
287.0,0.1274968125796855,73,127,Electric Bass
287.0,0.0,54,84,Electric Bass
287.0,0.0,69,84,Electric Bass
287.0,0.1274968125796855,78,127,Electric Bass
287.0,0.1274968125796855,81,127,Electric Bass
287.0,0.1274968125796855,85,127,Electric Bass
287.25,0.1274968125796855,66,127,Electric Bass
287.25,0.1274968125796855,69,127,Electric Bass
287.25,0.1274968125796855,73,127,Electric Bass
287.25,0.0,63,95,Electric Bass
287.25,0.0,54,95,Electric Bass
287.25,0.0,69,95,Electric Bass
287.25,0.0,42,98,Electric Bass
287.25,0.0,38,98,Electric Bass
287.25,0.1274968125796855,78,127,Electric Bass
287.25,0.1274968125796855,81,127,Electric Bass
287.25,0.1274968125796855,85,127,Electric Bass
287.5,0.1274968125796855,66,127,Electric Bass
287.5,0.1274968125796855,69,127,Electric Bass
287.5,0.1274968125796855,73,127,Electric Bass
287.5,0.1274968125796855,62,122,Electric Bass
287.5,0.1274968125796855,51,122,Electric Bass
287.5,0.1274968125796855,54,102,Electric Bass
287.5,0.1274968125796855,69,102,Electric Bass
287.5,0.0,36,111,Electric Bass
287.5,0.0,46,111,Electric Bass
287.5,0.1274968125796855,78,127,Electric Bass
287.5,0.1274968125796855,81,127,Electric Bass
287.5,0.1274968125796855,85,127,Electric Bass
287.75,0.1274968125796855,57,100,Electric Bass
287.75,0.1274968125796855,66,100,Electric Bass
288.0,0.1274968125796855,63,89,Electric Bass
288.0,0.1274968125796855,54,89,Electric Bass
288.0,0.1274968125796855,70,89,Electric Bass
288.0,0.1274968125796855,46,113,Electric Bass
288.0,0.1274968125796855,38,113,Electric Bass
288.5,0.3399915002124947,57,110,Electric Bass
288.5,0.3399915002124947,66,110,Electric Bass
288.5,0.3399915002124947,61,110,Electric Bass
288.5,0.0,64,98,Electric Bass
288.5,0.0,69,98,Electric Bass
288.75,0.0,54,82,Electric Bass
288.75,0.0,69,82,Electric Bass
289.0,1.6574585635359116,61,108,Electric Bass
289.0,1.6574585635359116,57,108,Electric Bass
289.0,1.5299617509562262,52,116,Electric Bass
289.0,1.5299617509562262,56,116,Electric Bass
289.0,0.0,66,68,Electric Bass
289.0,0.0,78,68,Electric Bass
289.0,2.039949001274968,69,88,Electric Bass
289.0,2.039949001274968,73,88,Electric Bass
289.0,0.1274968125796855,51,126,Electric Bass
289.0,0.1274968125796855,64,126,Electric Bass
289.0,0.0,69,82,Electric Bass
289.0,0.0,54,82,Electric Bass
289.0,0.0,36,114,Electric Bass
289.0,0.0,42,114,Electric Bass
289.25,0.0,54,79,Electric Bass
289.25,0.0,69,79,Electric Bass
289.5,0.0,66,102,Electric Bass
289.5,0.0,61,102,Electric Bass
289.5,0.1274968125796855,62,103,Electric Bass
289.5,0.1274968125796855,54,103,Electric Bass
289.5,0.1274968125796855,51,103,Electric Bass
290.0,0.1274968125796855,63,120,Electric Bass
290.0,0.1274968125796855,51,120,Electric Bass
290.0,0.0,54,85,Electric Bass
290.0,0.0,70,85,Electric Bass
290.0,0.0,46,120,Electric Bass
290.0,0.0,38,120,Electric Bass
290.25,0.0,66,95,Electric Bass
290.25,0.0,61,95,Electric Bass
290.5,0.0,64,69,Electric Bass
290.5,0.0,69,69,Electric Bass
290.75,0.0,54,77,Electric Bass
290.75,0.0,69,77,Electric Bass
290.75,0.0,38,73,Electric Bass
290.75,0.0,42,73,Electric Bass
291.0,0.0,66,90,Electric Bass
291.0,0.0,61,90,Electric Bass
291.0,0.0,54,72,Electric Bass
291.0,0.0,69,72,Electric Bass
291.25,0.0,54,88,Electric Bass
291.25,0.0,69,88,Electric Bass
291.25,0.0,42,98,Electric Bass
291.25,0.0,38,98,Electric Bass
291.5,0.125,51,113,Electric Bass
291.5,0.125,54,113,Electric Bass
291.5,0.0,69,105,Electric Bass
291.5,0.0,62,105,Electric Bass
291.5,0.0,54,105,Electric Bass
291.75,0.125,57,97,Electric Bass
291.75,0.125,61,97,Electric Bass
291.75,0.125,66,97,Electric Bass
292.0,0.1274968125796855,70,85,Electric Bass
292.0,0.1274968125796855,63,85,Electric Bass
292.0,0.1274968125796855,54,85,Electric Bass
292.0,0.0,46,120,Electric Bass
292.0,0.0,38,120,Electric Bass
292.5,0.3399915002124947,57,106,Electric Bass
292.5,0.3399915002124947,61,106,Electric Bass
292.5,0.38249043773905655,66,108,Electric Bass
292.5,0.38249043773905655,61,108,Electric Bass
292.5,0.0,64,94,Electric Bass
292.5,0.0,69,94,Electric Bass
292.5,0.0,36,106,Electric Bass
292.5,0.0,42,106,Electric Bass
292.75,0.0,54,73,Electric Bass
292.75,0.0,69,73,Electric Bass
293.0,0.6799830004249894,63,109,Electric Bass
293.0,0.6799830004249894,60,109,Electric Bass
293.0,0.6799830004249894,54,109,Electric Bass
293.0,0.0,54,73,Electric Bass
293.0,0.0,69,73,Electric Bass
293.25,0.1274968125796855,63,127,Electric Bass
293.25,0.1274968125796855,72,127,Electric Bass
293.25,0.1274968125796855,75,127,Electric Bass
293.25,0.0,54,90,Electric Bass
293.25,0.0,69,90,Electric Bass
293.25,0.1274968125796855,75,127,Electric Bass
293.25,0.1274968125796855,84,127,Electric Bass
293.25,0.1274968125796855,87,127,Electric Bass
293.5,0.1274968125796855,60,104,Electric Bass
293.5,0.1274968125796855,63,104,Electric Bass
293.5,0.1274968125796855,62,106,Electric Bass
293.5,0.1274968125796855,54,106,Electric Bass
293.5,0.1274968125796855,69,106,Electric Bass
293.75,0.1274968125796855,63,127,Electric Bass
293.75,0.1274968125796855,72,127,Electric Bass
293.75,0.1274968125796855,75,127,Electric Bass
293.75,0.1274968125796855,75,127,Electric Bass
293.75,0.1274968125796855,84,127,Electric Bass
293.75,0.1274968125796855,87,127,Electric Bass
294.0,0.1274968125796855,63,127,Electric Bass
294.0,0.1274968125796855,72,127,Electric Bass
294.0,0.1274968125796855,75,127,Electric Bass
294.0,0.1274968125796855,63,100,Electric Bass
294.0,0.1274968125796855,70,100,Electric Bass
294.0,0.0,54,71,Electric Bass
294.0,0.0,70,71,Electric Bass
294.0,0.0,46,113,Electric Bass
294.0,0.0,38,113,Electric Bass
294.0,0.1274968125796855,75,127,Electric Bass
294.0,0.1274968125796855,84,127,Electric Bass
294.0,0.1274968125796855,87,127,Electric Bass
294.25,0.1274968125796855,60,100,Electric Bass
294.25,0.1274968125796855,63,100,Electric Bass
294.5,0.8499787505312367,54,102,Electric Bass
294.5,0.8499787505312367,63,102,Electric Bass
294.5,0.0,64,96,Electric Bass
294.5,0.0,69,96,Electric Bass
294.75,0.1274968125796855,63,125,Electric Bass
294.75,0.1274968125796855,72,125,Electric Bass
294.75,0.1274968125796855,75,125,Electric Bass
294.75,0.0,54,80,Electric Bass
294.75,0.0,69,80,Electric Bass
294.75,0.0,42,78,Electric Bass
294.75,0.0,38,78,Electric Bass
294.75,0.1274968125796855,75,125,Electric Bass
294.75,0.1274968125796855,84,125,Electric Bass
294.75,0.1274968125796855,87,125,Electric Bass
295.0,0.1274968125796855,60,97,Electric Bass
295.0,0.1274968125796855,66,97,Electric Bass
295.0,0.1274968125796855,63,97,Electric Bass
295.0,0.1274968125796855,63,127,Electric Bass
295.0,0.1274968125796855,72,127,Electric Bass
295.0,0.1274968125796855,75,127,Electric Bass
295.0,0.0,54,84,Electric Bass
295.0,0.0,69,84,Electric Bass
295.0,0.1274968125796855,75,127,Electric Bass
295.0,0.1274968125796855,84,127,Electric Bass
295.0,0.1274968125796855,87,127,Electric Bass
295.25,0.1274968125796855,63,127,Electric Bass
295.25,0.1274968125796855,72,127,Electric Bass
295.25,0.1274968125796855,75,127,Electric Bass
295.25,0.0,54,84,Electric Bass
295.25,0.0,69,84,Electric Bass
295.25,0.1274968125796855,42,98,Electric Bass
295.25,0.1274968125796855,38,98,Electric Bass
295.25,0.1274968125796855,75,127,Electric Bass
295.25,0.1274968125796855,84,127,Electric Bass
295.25,0.1274968125796855,87,127,Electric Bass
295.5,0.1274968125796855,63,127,Electric Bass
295.5,0.1274968125796855,72,127,Electric Bass
295.5,0.1274968125796855,75,127,Electric Bass
295.5,0.1274968125796855,62,109,Electric Bass
295.5,0.1274968125796855,54,109,Electric Bass
295.5,0.1274968125796855,69,109,Electric Bass
295.5,0.1274968125796855,51,108,Electric Bass
295.5,0.1274968125796855,54,108,Electric Bass
295.5,0.1274968125796855,69,108,Electric Bass
295.5,0.1274968125796855,36,111,Electric Bass
295.5,0.1274968125796855,46,111,Electric Bass
295.5,0.1274968125796855,75,127,Electric Bass
295.5,0.1274968125796855,84,127,Electric Bass
295.5,0.1274968125796855,87,127,Electric Bass
295.75,0.1274968125796855,60,103,Electric Bass
295.75,0.1274968125796855,63,103,Electric Bass
296.0,0.1274968125796855,63,103,Electric Bass
296.0,0.1274968125796855,70,103,Electric Bass
296.0,0.0,54,74,Electric Bass
296.0,0.0,70,74,Electric Bass
296.0,0.0,46,113,Electric Bass
296.0,0.0,38,113,Electric Bass
296.25,0.0,63,88,Electric Bass
296.25,0.0,54,88,Electric Bass
296.5,0.254993625159371,60,108,Electric Bass
296.5,0.254993625159371,63,108,Electric Bass
296.5,0.254993625159371,66,108,Electric Bass
296.5,0.0,64,70,Electric Bass
296.5,0.0,69,70,Electric Bass
296.75,0.0,54,82,Electric Bass
296.75,0.0,69,82,Electric Bass
297.0,0.6374840628984275,55,110,Electric Bass
297.0,0.6374840628984275,62,110,Electric Bass
297.0,0.6374840628984275,59,110,Electric Bass
297.0,1.7849553761155972,30,99,Electric Bass
297.0,1.7849553761155972,42,99,Electric Bass
297.0,2.039949001274968,67,92,Electric Bass
297.0,2.039949001274968,74,92,Electric Bass
297.0,0.1274968125796855,64,112,Electric Bass
297.0,0.1274968125796855,51,112,Electric Bass
297.0,0.0,69,82,Electric Bass
297.0,0.0,54,82,Electric Bass
297.0,0.0,36,114,Electric Bass
297.0,0.0,42,114,Electric Bass
297.25,0.0,54,79,Electric Bass
297.25,0.0,69,79,Electric Bass
297.5,0.1274968125796855,55,97,Electric Bass
297.5,0.1274968125796855,62,97,Electric Bass
297.5,0.1274968125796855,62,106,Electric Bass
297.5,0.1274968125796855,54,106,Electric Bass
298.0,0.125,63,94,Electric Bass
298.0,0.125,54,94,Electric Bass
298.0,0.125,70,94,Electric Bass
298.0,0.0,46,120,Electric Bass
298.0,0.0,38,120,Electric Bass
298.25,0.125,62,97,Electric Bass
298.25,0.125,55,97,Electric Bass
298.5,0.75,55,101,Electric Bass
298.5,0.75,62,101,Electric Bass
298.5,0.0,64,90,Electric Bass
298.5,0.0,69,90,Electric Bass
298.75,0.0,54,77,Electric Bass
298.75,0.0,69,77,Electric Bass
298.75,0.0,38,73,Electric Bass
298.75,0.0,42,73,Electric Bass
299.0,0.1274968125796855,55,96,Electric Bass
299.0,0.1274968125796855,62,96,Electric Bass
299.0,0.0,54,72,Electric Bass
299.0,0.0,69,72,Electric Bass
299.25,0.0,54,88,Electric Bass
299.25,0.0,69,88,Electric Bass
299.25,0.0,42,98,Electric Bass
299.25,0.0,38,98,Electric Bass
299.5,0.1274968125796855,62,117,Electric Bass
299.5,0.1274968125796855,51,117,Electric Bass
299.5,0.1274968125796855,54,117,Electric Bass
299.5,0.0,69,95,Electric Bass
299.5,0.0,54,95,Electric Bass
299.75,0.1274968125796855,55,82,Electric Bass
299.75,0.1274968125796855,62,82,Electric Bass
300.0,0.1274968125796855,63,102,Electric Bass
300.0,0.1274968125796855,70,102,Electric Bass
300.0,0.0,46,120,Electric Bass
300.0,0.0,38,120,Electric Bass
300.5,0.254993625159371,55,101,Electric Bass
300.5,0.254993625159371,59,101,Electric Bass
300.5,0.0,64,92,Electric Bass
300.5,0.0,69,92,Electric Bass
300.5,0.0,36,106,Electric Bass
300.5,0.0,42,106,Electric Bass
300.75,0.0,54,73,Electric Bass
300.75,0.0,69,73,Electric Bass
301.0,0.6374840628984275,61,105,Electric Bass
301.0,0.6374840628984275,56,105,Electric Bass
301.0,0.6374840628984275,52,105,Electric Bass
301.0,0.6374840628984275,30,105,Electric Bass
301.0,0.6374840628984275,42,105,Electric Bass
301.0,2.039949001274968,73,92,Electric Bass
301.0,2.039949001274968,69,92,Electric Bass
301.0,0.0,54,73,Electric Bass
301.0,0.0,69,73,Electric Bass
301.25,0.0,54,90,Electric Bass
301.25,0.0,69,90,Electric Bass
301.5,0.0,66,102,Electric Bass
301.5,0.0,61,102,Electric Bass
301.5,0.1274968125796855,54,106,Electric Bass
301.5,0.1274968125796855,62,106,Electric Bass
301.5,0.1274968125796855,51,106,Electric Bass
301.5,0.1274968125796855,69,106,Electric Bass
302.0,0.1274968125796855,52,127,Electric Bass
302.0,0.1274968125796855,64,127,Electric Bass
302.0,0.1274968125796855,63,106,Electric Bass
302.0,0.1274968125796855,70,106,Electric Bass
302.0,0.0,54,71,Electric Bass
302.0,0.0,70,71,Electric Bass
302.0,0.0,46,113,Electric Bass
302.0,0.0,38,113,Electric Bass
302.0,0.1274968125796855,64,127,Electric Bass
302.0,0.1274968125796855,76,127,Electric Bass
302.25,0.0,66,95,Electric Bass
302.25,0.0,61,95,Electric Bass
302.25,0.1274968125796855,54,127,Electric Bass
302.25,0.1274968125796855,66,127,Electric Bass
302.25,0.0,64,95,Electric Bass
302.25,0.0,54,95,Electric Bass
302.25,0.1274968125796855,66,127,Electric Bass
302.25,0.1274968125796855,78,127,Electric Bass
302.5,0.509987250318742,57,108,Electric Bass
302.5,0.509987250318742,61,108,Electric Bass
302.5,1.019974500637484,30,103,Electric Bass
302.5,1.019974500637484,42,103,Electric Bass
302.5,0.0,63,87,Electric Bass
302.5,0.0,69,87,Electric Bass
302.75,0.38249043773905655,57,127,Electric Bass
302.75,0.38249043773905655,69,127,Electric Bass
302.75,0.0,54,80,Electric Bass
302.75,0.0,69,80,Electric Bass
302.75,0.0,42,78,Electric Bass
302.75,0.0,38,78,Electric Bass
302.75,0.38249043773905655,69,127,Electric Bass
302.75,0.38249043773905655,81,127,Electric Bass
303.0,0.0,66,90,Electric Bass
303.0,0.0,61,90,Electric Bass
303.0,0.0,54,84,Electric Bass
303.0,0.0,69,84,Electric Bass
303.25,0.0,63,95,Electric Bass
303.25,0.0,54,95,Electric Bass
303.25,0.0,69,95,Electric Bass
303.25,0.0,42,98,Electric Bass
303.25,0.0,38,98,Electric Bass
303.5,0.1274968125796855,54,127,Electric Bass
303.5,0.1274968125796855,66,127,Electric Bass
303.5,0.1274968125796855,62,122,Electric Bass
303.5,0.1274968125796855,51,122,Electric Bass
303.5,0.1274968125796855,54,102,Electric Bass
303.5,0.1274968125796855,69,102,Electric Bass
303.5,0.0,36,111,Electric Bass
303.5,0.0,46,111,Electric Bass
303.5,0.1274968125796855,66,127,Electric Bass
303.5,0.1274968125796855,78,127,Electric Bass
303.75,0.1274968125796855,57,97,Electric Bass
303.75,0.1274968125796855,61,97,Electric Bass
303.75,0.1274968125796855,66,97,Electric Bass
304.0,0.125,52,127,Electric Bass
304.0,0.125,64,127,Electric Bass
304.0,0.0,66,74,Electric Bass
304.0,0.0,78,74,Electric Bass
304.0,0.125,63,89,Electric Bass
304.0,0.125,54,89,Electric Bass
304.0,0.125,70,89,Electric Bass
304.0,0.0,46,113,Electric Bass
304.0,0.0,38,113,Electric Bass
304.0,0.125,64,127,Electric Bass
304.0,0.125,76,127,Electric Bass
304.25,0.125,54,127,Electric Bass
304.25,0.125,66,127,Electric Bass
304.25,0.125,66,127,Electric Bass
304.25,0.125,78,127,Electric Bass
304.5,0.25,57,107,Electric Bass
304.5,0.25,66,107,Electric Bass
304.5,0.25,61,107,Electric Bass
304.5,0.0,66,70,Electric Bass
304.5,0.0,78,70,Electric Bass
304.5,0.0,64,98,Electric Bass
304.5,0.0,69,98,Electric Bass
304.75,0.0,54,82,Electric Bass
304.75,0.0,69,82,Electric Bass
305.0,1.6574585635359116,61,108,Electric Bass
305.0,1.6574585635359116,57,108,Electric Bass
305.0,1.5299617509562262,52,116,Electric Bass
305.0,1.5299617509562262,56,116,Electric Bass
305.0,0.1274968125796855,51,126,Electric Bass
305.0,0.1274968125796855,64,126,Electric Bass
305.0,0.0,69,82,Electric Bass
305.0,0.0,54,82,Electric Bass
305.0,0.0,36,114,Electric Bass
305.0,0.0,42,114,Electric Bass
305.25,0.0,54,79,Electric Bass
305.25,0.0,69,79,Electric Bass
305.5,0.1274968125796855,57,101,Electric Bass
305.5,0.1274968125796855,66,101,Electric Bass
305.5,0.1274968125796855,62,103,Electric Bass
305.5,0.1274968125796855,54,103,Electric Bass
305.5,0.1274968125796855,51,103,Electric Bass
306.0,0.1274968125796855,63,120,Electric Bass
306.0,0.1274968125796855,51,120,Electric Bass
306.0,0.0,54,85,Electric Bass
306.0,0.0,70,85,Electric Bass
306.0,0.0,46,120,Electric Bass
306.0,0.0,38,120,Electric Bass
306.25,0.0,66,100,Electric Bass
306.25,0.0,61,100,Electric Bass
306.5,0.0,64,69,Electric Bass
306.5,0.0,69,69,Electric Bass
306.75,0.0,54,77,Electric Bass
306.75,0.0,69,77,Electric Bass
306.75,0.0,38,73,Electric Bass
306.75,0.0,42,73,Electric Bass
307.0,0.0,66,96,Electric Bass
307.0,0.0,61,96,Electric Bass
307.0,0.0,66,64,Electric Bass
307.0,0.0,78,64,Electric Bass
307.0,0.0,54,72,Electric Bass
307.0,0.0,69,72,Electric Bass
307.25,0.0,54,88,Electric Bass
307.25,0.0,69,88,Electric Bass
307.25,0.0,42,98,Electric Bass
307.25,0.0,38,98,Electric Bass
307.5,0.1274968125796855,51,113,Electric Bass
307.5,0.1274968125796855,54,113,Electric Bass
307.5,0.0,69,105,Electric Bass
307.5,0.0,62,105,Electric Bass
307.5,0.0,54,105,Electric Bass
307.75,0.0,61,97,Electric Bass
307.75,0.0,66,97,Electric Bass
308.0,0.1274968125796855,70,85,Electric Bass
308.0,0.1274968125796855,63,85,Electric Bass
308.0,0.1274968125796855,54,85,Electric Bass
308.0,0.1274968125796855,46,120,Electric Bass
308.0,0.1274968125796855,38,120,Electric Bass
308.5,0.3399915002124947,57,106,Electric Bass
308.5,0.3399915002124947,61,106,Electric Bass
308.5,0.3399915002124947,66,106,Electric Bass
308.5,0.0,64,94,Electric Bass
308.5,0.0,69,94,Electric Bass
308.5,0.1274968125796855,36,106,Electric Bass
308.5,0.1274968125796855,42,106,Electric Bass
308.75,0.0,54,73,Electric Bass
308.75,0.0,69,73,Electric Bass
309.0,0.6799830004249894,63,109,Electric Bass
309.0,0.6799830004249894,60,109,Electric Bass
309.0,0.6799830004249894,54,109,Electric Bass
309.0,2.039949001274968,75,92,Electric Bass
309.0,2.039949001274968,72,92,Electric Bass
309.0,0.0,54,73,Electric Bass
309.0,0.0,69,73,Electric Bass
309.25,0.1274968125796855,63,127,Electric Bass
309.25,0.1274968125796855,72,127,Electric Bass
309.25,0.1274968125796855,75,127,Electric Bass
309.25,0.0,54,90,Electric Bass
309.25,0.0,69,90,Electric Bass
309.25,0.1274968125796855,75,127,Electric Bass
309.25,0.1274968125796855,84,127,Electric Bass
309.25,0.1274968125796855,87,127,Electric Bass
309.5,0.0,66,90,Electric Bass
309.5,0.0,63,90,Electric Bass
309.5,0.1274968125796855,62,106,Electric Bass
309.5,0.1274968125796855,54,106,Electric Bass
309.5,0.1274968125796855,69,106,Electric Bass
309.75,0.1274968125796855,63,127,Electric Bass
309.75,0.1274968125796855,72,127,Electric Bass
309.75,0.1274968125796855,75,127,Electric Bass
309.75,0.1274968125796855,75,127,Electric Bass
309.75,0.1274968125796855,84,127,Electric Bass
309.75,0.1274968125796855,87,127,Electric Bass
310.0,0.1274968125796855,63,127,Electric Bass
310.0,0.1274968125796855,72,127,Electric Bass
310.0,0.1274968125796855,75,127,Electric Bass
310.0,0.1274968125796855,63,100,Electric Bass
310.0,0.1274968125796855,70,100,Electric Bass
310.0,0.0,54,71,Electric Bass
310.0,0.0,70,71,Electric Bass
310.0,0.0,46,113,Electric Bass
310.0,0.0,38,113,Electric Bass
310.0,0.1274968125796855,75,127,Electric Bass
310.0,0.1274968125796855,84,127,Electric Bass
310.0,0.1274968125796855,87,127,Electric Bass
310.25,0.1274968125796855,60,98,Electric Bass
310.25,0.1274968125796855,63,98,Electric Bass
310.5,0.8499787505312367,54,102,Electric Bass
310.5,0.8499787505312367,63,102,Electric Bass
310.5,0.0,64,96,Electric Bass
310.5,0.0,69,96,Electric Bass
310.75,0.1274968125796855,63,125,Electric Bass
310.75,0.1274968125796855,72,125,Electric Bass
310.75,0.1274968125796855,75,125,Electric Bass
310.75,0.0,54,80,Electric Bass
310.75,0.0,69,80,Electric Bass
310.75,0.0,42,78,Electric Bass
310.75,0.0,38,78,Electric Bass
310.75,0.1274968125796855,75,125,Electric Bass
310.75,0.1274968125796855,84,125,Electric Bass
310.75,0.1274968125796855,87,125,Electric Bass
311.0,0.0,66,99,Electric Bass
311.0,0.0,63,99,Electric Bass
311.0,0.125,63,127,Electric Bass
311.0,0.125,72,127,Electric Bass
311.0,0.125,75,127,Electric Bass
311.0,0.0,54,84,Electric Bass
311.0,0.0,69,84,Electric Bass
311.0,0.125,75,127,Electric Bass
311.0,0.125,84,127,Electric Bass
311.0,0.125,87,127,Electric Bass
311.25,0.125,63,127,Electric Bass
311.25,0.125,72,127,Electric Bass
311.25,0.125,75,127,Electric Bass
311.25,0.0,54,84,Electric Bass
311.25,0.0,69,84,Electric Bass
311.25,0.0,42,98,Electric Bass
311.25,0.0,38,98,Electric Bass
311.25,0.125,75,127,Electric Bass
311.25,0.125,84,127,Electric Bass
311.25,0.125,87,127,Electric Bass
311.5,0.125,63,127,Electric Bass
311.5,0.125,72,127,Electric Bass
311.5,0.125,75,127,Electric Bass
311.5,0.125,62,109,Electric Bass
311.5,0.125,54,109,Electric Bass
311.5,0.125,69,109,Electric Bass
311.5,0.125,51,108,Electric Bass
311.5,0.125,54,108,Electric Bass
311.5,0.125,69,108,Electric Bass
311.5,0.0,36,111,Electric Bass
311.5,0.0,46,111,Electric Bass
311.5,0.125,75,127,Electric Bass
311.5,0.125,84,127,Electric Bass
311.5,0.125,87,127,Electric Bass
311.75,0.125,60,99,Electric Bass
311.75,0.125,63,99,Electric Bass
312.0,0.1274968125796855,63,103,Electric Bass
312.0,0.1274968125796855,70,103,Electric Bass
312.0,0.0,54,74,Electric Bass
312.0,0.0,70,74,Electric Bass
312.0,0.0,46,113,Electric Bass
312.0,0.0,38,113,Electric Bass
312.25,0.0,63,88,Electric Bass
312.25,0.0,54,88,Electric Bass
312.5,0.3399915002124947,60,110,Electric Bass
312.5,0.3399915002124947,63,110,Electric Bass
312.5,0.3399915002124947,66,110,Electric Bass
312.5,0.0,64,70,Electric Bass
312.5,0.0,69,70,Electric Bass
312.75,0.0,54,82,Electric Bass
312.75,0.0,69,82,Electric Bass
313.0,0.6374840628984275,55,110,Electric Bass
313.0,0.6374840628984275,62,110,Electric Bass
313.0,0.6374840628984275,59,110,Electric Bass
313.0,1.7849553761155972,30,99,Electric Bass
313.0,1.7849553761155972,42,99,Electric Bass
313.0,0.1274968125796855,64,112,Electric Bass
313.0,0.1274968125796855,51,112,Electric Bass
313.0,0.0,69,82,Electric Bass
313.0,0.0,54,82,Electric Bass
313.0,0.0,36,114,Electric Bass
313.0,0.0,42,114,Electric Bass
313.25,0.0,54,79,Electric Bass
313.25,0.0,69,79,Electric Bass
313.5,0.0,59,105,Electric Bass
313.5,0.0,66,105,Electric Bass
313.5,0.1274968125796855,62,106,Electric Bass
313.5,0.1274968125796855,54,106,Electric Bass
314.0,0.1274968125796855,63,94,Electric Bass
314.0,0.1274968125796855,54,94,Electric Bass
314.0,0.1274968125796855,70,94,Electric Bass
314.0,0.1274968125796855,46,120,Electric Bass
314.0,0.1274968125796855,38,120,Electric Bass
314.25,0.1274968125796855,59,98,Electric Bass
314.25,0.1274968125796855,62,98,Electric Bass
314.5,0.7649808754781131,55,101,Electric Bass
314.5,0.7649808754781131,62,101,Electric Bass
314.5,0.0,64,90,Electric Bass
314.5,0.0,69,90,Electric Bass
314.75,0.0,54,77,Electric Bass
314.75,0.0,69,77,Electric Bass
314.75,0.1274968125796855,38,73,Electric Bass
314.75,0.1274968125796855,42,73,Electric Bass
315.0,0.1274968125796855,59,100,Electric Bass
315.0,0.1274968125796855,62,100,Electric Bass
315.0,0.0,54,72,Electric Bass
315.0,0.0,69,72,Electric Bass
315.25,0.0,54,88,Electric Bass
315.25,0.0,69,88,Electric Bass
315.25,0.0,42,98,Electric Bass
315.25,0.0,38,98,Electric Bass
315.5,0.1274968125796855,62,117,Electric Bass
315.5,0.1274968125796855,51,117,Electric Bass
315.5,0.1274968125796855,54,117,Electric Bass
315.5,0.0,69,95,Electric Bass
315.5,0.0,54,95,Electric Bass
315.75,0.1274968125796855,59,99,Electric Bass
315.75,0.1274968125796855,62,99,Electric Bass
316.0,0.1274968125796855,63,102,Electric Bass
316.0,0.1274968125796855,70,102,Electric Bass
316.0,0.0,46,120,Electric Bass
316.0,0.0,38,120,Electric Bass
316.5,0.3399915002124947,59,106,Electric Bass
316.5,0.3399915002124947,62,106,Electric Bass
316.5,0.3399915002124947,66,106,Electric Bass
316.5,0.0,64,92,Electric Bass
316.5,0.0,69,92,Electric Bass
316.5,0.0,36,106,Electric Bass
316.5,0.0,42,106,Electric Bass
316.75,0.0,54,73,Electric Bass
316.75,0.0,69,73,Electric Bass
317.0,0.625,61,105,Electric Bass
317.0,0.625,56,105,Electric Bass
317.0,0.625,52,105,Electric Bass
317.0,0.625,30,105,Electric Bass
317.0,0.625,42,105,Electric Bass
317.0,2.0,69,92,Electric Bass
317.0,2.0,73,92,Electric Bass
317.0,0.0,54,73,Electric Bass
317.0,0.0,69,73,Electric Bass
317.25,0.125,66,127,Electric Bass
317.25,0.125,69,127,Electric Bass
317.25,0.125,73,127,Electric Bass
317.25,0.0,54,90,Electric Bass
317.25,0.0,69,90,Electric Bass
317.25,0.125,78,127,Electric Bass
317.25,0.125,81,127,Electric Bass
317.25,0.125,85,127,Electric Bass
317.5,0.125,61,100,Electric Bass
317.5,0.125,66,100,Electric Bass
317.5,0.125,57,100,Electric Bass
317.5,0.125,54,106,Electric Bass
317.5,0.125,62,106,Electric Bass
317.5,0.125,51,106,Electric Bass
317.5,0.125,69,106,Electric Bass
317.75,0.125,66,127,Electric Bass
317.75,0.125,69,127,Electric Bass
317.75,0.125,73,127,Electric Bass
317.75,0.125,78,127,Electric Bass
317.75,0.125,81,127,Electric Bass
317.75,0.125,85,127,Electric Bass
318.0,0.1274968125796855,66,127,Electric Bass
318.0,0.1274968125796855,69,127,Electric Bass
318.0,0.1274968125796855,73,127,Electric Bass
318.0,0.1274968125796855,63,106,Electric Bass
318.0,0.1274968125796855,70,106,Electric Bass
318.0,0.0,54,71,Electric Bass
318.0,0.0,70,71,Electric Bass
318.0,0.0,46,113,Electric Bass
318.0,0.0,38,113,Electric Bass
318.0,0.1274968125796855,78,127,Electric Bass
318.0,0.1274968125796855,81,127,Electric Bass
318.0,0.1274968125796855,85,127,Electric Bass
318.25,0.1274968125796855,57,94,Electric Bass
318.25,0.1274968125796855,66,94,Electric Bass
318.25,0.1274968125796855,61,94,Electric Bass
318.25,0.0,64,95,Electric Bass
318.25,0.0,54,95,Electric Bass
318.5,0.509987250318742,57,108,Electric Bass
318.5,0.509987250318742,61,108,Electric Bass
318.5,1.019974500637484,30,103,Electric Bass
318.5,1.019974500637484,42,103,Electric Bass
318.5,0.0,63,87,Electric Bass
318.5,0.0,69,87,Electric Bass
318.75,0.1274968125796855,66,125,Electric Bass
318.75,0.1274968125796855,69,125,Electric Bass
318.75,0.1274968125796855,73,125,Electric Bass
318.75,0.0,54,80,Electric Bass
318.75,0.0,69,80,Electric Bass
318.75,0.0,42,78,Electric Bass
318.75,0.0,38,78,Electric Bass
318.75,0.1274968125796855,78,125,Electric Bass
318.75,0.1274968125796855,81,125,Electric Bass
318.75,0.1274968125796855,85,125,Electric Bass
319.0,0.0,61,105,Electric Bass
319.0,0.0,66,105,Electric Bass
319.0,0.1274968125796855,66,127,Electric Bass
319.0,0.1274968125796855,69,127,Electric Bass
319.0,0.1274968125796855,73,127,Electric Bass
319.0,0.0,54,84,Electric Bass
319.0,0.0,69,84,Electric Bass
319.0,0.1274968125796855,78,127,Electric Bass
319.0,0.1274968125796855,81,127,Electric Bass
319.0,0.1274968125796855,85,127,Electric Bass
319.25,0.1274968125796855,66,127,Electric Bass
319.25,0.1274968125796855,69,127,Electric Bass
319.25,0.1274968125796855,73,127,Electric Bass
319.25,0.0,63,95,Electric Bass
319.25,0.0,54,95,Electric Bass
319.25,0.0,69,95,Electric Bass
319.25,0.0,42,98,Electric Bass
319.25,0.0,38,98,Electric Bass
319.25,0.1274968125796855,78,127,Electric Bass
319.25,0.1274968125796855,81,127,Electric Bass
319.25,0.1274968125796855,85,127,Electric Bass
319.5,0.1274968125796855,66,127,Electric Bass
319.5,0.1274968125796855,69,127,Electric Bass
319.5,0.1274968125796855,73,127,Electric Bass
319.5,0.1274968125796855,62,122,Electric Bass
319.5,0.1274968125796855,51,122,Electric Bass
319.5,0.1274968125796855,54,102,Electric Bass
319.5,0.1274968125796855,69,102,Electric Bass
319.5,0.0,36,111,Electric Bass
319.5,0.0,46,111,Electric Bass
319.5,0.1274968125796855,78,127,Electric Bass
319.5,0.1274968125796855,81,127,Electric Bass
319.5,0.1274968125796855,85,127,Electric Bass
319.75,0.1274968125796855,57,100,Electric Bass
319.75,0.1274968125796855,66,100,Electric Bass
320.0,0.1274968125796855,63,89,Electric Bass
320.0,0.1274968125796855,54,89,Electric Bass
320.0,0.1274968125796855,70,89,Electric Bass
320.0,0.0,46,113,Electric Bass
320.0,0.0,38,113,Electric Bass
320.5,0.254993625159371,57,110,Electric Bass
320.5,0.254993625159371,66,110,Electric Bass
320.5,0.254993625159371,61,110,Electric Bass
320.5,0.0,64,98,Electric Bass
320.5,0.0,69,98,Electric Bass
320.75,0.0,54,82,Electric Bass
320.75,0.0,69,82,Electric Bass
321.0,1.6574585635359116,61,108,Electric Bass
321.0,1.6574585635359116,57,108,Electric Bass
321.0,1.5299617509562262,52,116,Electric Bass
321.0,1.5299617509562262,56,116,Electric Bass
321.0,0.0,66,68,Electric Bass
321.0,0.0,78,68,Electric Bass
321.0,2.039949001274968,69,88,Electric Bass
321.0,2.039949001274968,73,88,Electric Bass
321.0,0.16999575010624735,51,126,Electric Bass
321.0,0.16999575010624735,64,126,Electric Bass
321.0,0.0,69,82,Electric Bass
321.0,0.0,54,82,Electric Bass
321.0,0.1274968125796855,36,114,Electric Bass
321.0,0.1274968125796855,42,114,Electric Bass
321.25,0.0,54,79,Electric Bass
321.25,0.0,69,79,Electric Bass
321.5,0.0,66,102,Electric Bass
321.5,0.0,61,102,Electric Bass
321.5,0.1274968125796855,62,103,Electric Bass
321.5,0.1274968125796855,54,103,Electric Bass
321.5,0.1274968125796855,51,103,Electric Bass
322.0,0.1274968125796855,63,120,Electric Bass
322.0,0.1274968125796855,51,120,Electric Bass
322.0,0.0,54,85,Electric Bass
322.0,0.0,70,85,Electric Bass
322.0,0.0,46,120,Electric Bass
322.0,0.0,38,120,Electric Bass
322.25,0.0,66,95,Electric Bass
322.25,0.0,61,95,Electric Bass
322.5,0.0,64,69,Electric Bass
322.5,0.0,69,69,Electric Bass
322.75,0.0,54,77,Electric Bass
322.75,0.0,69,77,Electric Bass
322.75,0.0,38,73,Electric Bass
322.75,0.0,42,73,Electric Bass
323.0,0.0,66,90,Electric Bass
323.0,0.0,61,90,Electric Bass
323.0,0.0,54,72,Electric Bass
323.0,0.0,69,72,Electric Bass
323.25,0.0,54,88,Electric Bass
323.25,0.0,69,88,Electric Bass
323.25,0.0,42,98,Electric Bass
323.25,0.0,38,98,Electric Bass
323.5,0.125,51,113,Electric Bass
323.5,0.125,54,113,Electric Bass
323.5,0.0,69,105,Electric Bass
323.5,0.0,62,105,Electric Bass
323.5,0.0,54,105,Electric Bass
323.75,0.125,57,97,Electric Bass
323.75,0.125,61,97,Electric Bass
323.75,0.125,66,97,Electric Bass
324.0,0.1274968125796855,70,85,Electric Bass
324.0,0.1274968125796855,63,85,Electric Bass
324.0,0.1274968125796855,54,85,Electric Bass
324.0,0.0,46,120,Electric Bass
324.0,0.0,38,120,Electric Bass
324.5,0.3399915002124947,57,106,Electric Bass
324.5,0.3399915002124947,61,106,Electric Bass
324.5,0.38249043773905655,66,108,Electric Bass
324.5,0.38249043773905655,61,108,Electric Bass
324.5,0.0,64,94,Electric Bass
324.5,0.0,69,94,Electric Bass
324.5,0.0,36,106,Electric Bass
324.5,0.0,42,106,Electric Bass
324.75,0.0,54,73,Electric Bass
324.75,0.0,69,73,Electric Bass
325.0,0.6799830004249894,63,109,Electric Bass
325.0,0.6799830004249894,60,109,Electric Bass
325.0,0.6799830004249894,54,109,Electric Bass
325.0,0.0,54,73,Electric Bass
325.0,0.0,69,73,Electric Bass
325.25,0.1274968125796855,63,127,Electric Bass
325.25,0.1274968125796855,72,127,Electric Bass
325.25,0.1274968125796855,75,127,Electric Bass
325.25,0.0,54,90,Electric Bass
325.25,0.0,69,90,Electric Bass
325.25,0.1274968125796855,75,127,Electric Bass
325.25,0.1274968125796855,84,127,Electric Bass
325.25,0.1274968125796855,87,127,Electric Bass
325.5,0.1274968125796855,60,104,Electric Bass
325.5,0.1274968125796855,63,104,Electric Bass
325.5,0.1274968125796855,62,106,Electric Bass
325.5,0.1274968125796855,54,106,Electric Bass
325.5,0.1274968125796855,69,106,Electric Bass
325.75,0.1274968125796855,63,127,Electric Bass
325.75,0.1274968125796855,72,127,Electric Bass
325.75,0.1274968125796855,75,127,Electric Bass
325.75,0.1274968125796855,75,127,Electric Bass
325.75,0.1274968125796855,84,127,Electric Bass
325.75,0.1274968125796855,87,127,Electric Bass
326.0,0.1274968125796855,63,127,Electric Bass
326.0,0.1274968125796855,72,127,Electric Bass
326.0,0.1274968125796855,75,127,Electric Bass
326.0,0.1274968125796855,63,100,Electric Bass
326.0,0.1274968125796855,70,100,Electric Bass
326.0,0.0,54,71,Electric Bass
326.0,0.0,70,71,Electric Bass
326.0,0.0,46,113,Electric Bass
326.0,0.0,38,113,Electric Bass
326.0,0.1274968125796855,75,127,Electric Bass
326.0,0.1274968125796855,84,127,Electric Bass
326.0,0.1274968125796855,87,127,Electric Bass
326.25,0.1274968125796855,60,100,Electric Bass
326.25,0.1274968125796855,63,100,Electric Bass
326.5,0.8499787505312367,54,102,Electric Bass
326.5,0.8499787505312367,63,102,Electric Bass
326.5,0.0,64,96,Electric Bass
326.5,0.0,69,96,Electric Bass
326.75,0.1274968125796855,63,125,Electric Bass
326.75,0.1274968125796855,72,125,Electric Bass
326.75,0.1274968125796855,75,125,Electric Bass
326.75,0.0,54,80,Electric Bass
326.75,0.0,69,80,Electric Bass
326.75,0.0,42,78,Electric Bass
326.75,0.0,38,78,Electric Bass
326.75,0.1274968125796855,75,125,Electric Bass
326.75,0.1274968125796855,84,125,Electric Bass
326.75,0.1274968125796855,87,125,Electric Bass
327.0,0.1274968125796855,60,97,Electric Bass
327.0,0.1274968125796855,66,97,Electric Bass
327.0,0.1274968125796855,63,97,Electric Bass
327.0,0.1274968125796855,63,127,Electric Bass
327.0,0.1274968125796855,72,127,Electric Bass
327.0,0.1274968125796855,75,127,Electric Bass
327.0,0.0,54,84,Electric Bass
327.0,0.0,69,84,Electric Bass
327.0,0.1274968125796855,75,127,Electric Bass
327.0,0.1274968125796855,84,127,Electric Bass
327.0,0.1274968125796855,87,127,Electric Bass
327.25,0.1274968125796855,63,127,Electric Bass
327.25,0.1274968125796855,72,127,Electric Bass
327.25,0.1274968125796855,75,127,Electric Bass
327.25,0.0,54,84,Electric Bass
327.25,0.0,69,84,Electric Bass
327.25,0.1274968125796855,42,98,Electric Bass
327.25,0.1274968125796855,38,98,Electric Bass
327.25,0.1274968125796855,75,127,Electric Bass
327.25,0.1274968125796855,84,127,Electric Bass
327.25,0.1274968125796855,87,127,Electric Bass
327.5,0.1274968125796855,63,127,Electric Bass
327.5,0.1274968125796855,72,127,Electric Bass
327.5,0.1274968125796855,75,127,Electric Bass
327.5,0.1274968125796855,62,109,Electric Bass
327.5,0.1274968125796855,54,109,Electric Bass
327.5,0.1274968125796855,69,109,Electric Bass
327.5,0.1274968125796855,51,108,Electric Bass
327.5,0.1274968125796855,54,108,Electric Bass
327.5,0.1274968125796855,69,108,Electric Bass
327.5,0.1274968125796855,36,111,Electric Bass
327.5,0.1274968125796855,46,111,Electric Bass
327.5,0.1274968125796855,75,127,Electric Bass
327.5,0.1274968125796855,84,127,Electric Bass
327.5,0.1274968125796855,87,127,Electric Bass
327.75,0.1274968125796855,60,103,Electric Bass
327.75,0.1274968125796855,63,103,Electric Bass
328.0,0.1274968125796855,63,103,Electric Bass
328.0,0.1274968125796855,70,103,Electric Bass
328.0,0.0,54,74,Electric Bass
328.0,0.0,70,74,Electric Bass
328.0,0.0,46,113,Electric Bass
328.0,0.0,38,113,Electric Bass
328.25,0.0,63,88,Electric Bass
328.25,0.0,54,88,Electric Bass
328.5,0.254993625159371,60,108,Electric Bass
328.5,0.254993625159371,63,108,Electric Bass
328.5,0.254993625159371,66,108,Electric Bass
328.5,0.0,64,70,Electric Bass
328.5,0.0,69,70,Electric Bass
328.75,0.0,54,82,Electric Bass
328.75,0.0,69,82,Electric Bass
329.0,0.6374840628984275,55,110,Electric Bass
329.0,0.6374840628984275,62,110,Electric Bass
329.0,0.6374840628984275,59,110,Electric Bass
329.0,1.7849553761155972,30,99,Electric Bass
329.0,1.7849553761155972,42,99,Electric Bass
329.0,2.039949001274968,67,92,Electric Bass
329.0,2.039949001274968,74,92,Electric Bass
329.0,0.1274968125796855,64,112,Electric Bass
329.0,0.1274968125796855,51,112,Electric Bass
329.0,0.0,69,82,Electric Bass
329.0,0.0,54,82,Electric Bass
329.0,0.0,36,114,Electric Bass
329.0,0.0,42,114,Electric Bass
329.25,0.0,54,79,Electric Bass
329.25,0.0,69,79,Electric Bass
329.5,0.1274968125796855,55,97,Electric Bass
329.5,0.1274968125796855,62,97,Electric Bass
329.5,0.1274968125796855,62,106,Electric Bass
329.5,0.1274968125796855,54,106,Electric Bass
330.0,0.125,63,94,Electric Bass
330.0,0.125,54,94,Electric Bass
330.0,0.125,70,94,Electric Bass
330.0,0.0,46,120,Electric Bass
330.0,0.0,38,120,Electric Bass
330.25,0.125,62,97,Electric Bass
330.25,0.125,55,97,Electric Bass
330.5,0.75,55,101,Electric Bass
330.5,0.75,62,101,Electric Bass
330.5,0.0,64,90,Electric Bass
330.5,0.0,69,90,Electric Bass
330.75,0.0,54,77,Electric Bass
330.75,0.0,69,77,Electric Bass
330.75,0.0,38,73,Electric Bass
330.75,0.0,42,73,Electric Bass
331.0,0.1274968125796855,55,96,Electric Bass
331.0,0.1274968125796855,62,96,Electric Bass
331.0,0.0,54,72,Electric Bass
331.0,0.0,69,72,Electric Bass
331.25,0.0,54,88,Electric Bass
331.25,0.0,69,88,Electric Bass
331.25,0.0,42,98,Electric Bass
331.25,0.0,38,98,Electric Bass
331.5,0.1274968125796855,62,117,Electric Bass
331.5,0.1274968125796855,51,117,Electric Bass
331.5,0.1274968125796855,54,117,Electric Bass
331.5,0.0,69,95,Electric Bass
331.5,0.0,54,95,Electric Bass
331.75,0.1274968125796855,55,82,Electric Bass
331.75,0.1274968125796855,62,82,Electric Bass
332.0,0.1274968125796855,63,102,Electric Bass
332.0,0.1274968125796855,70,102,Electric Bass
332.0,0.0,46,120,Electric Bass
332.0,0.0,38,120,Electric Bass
332.5,0.254993625159371,55,101,Electric Bass
332.5,0.254993625159371,59,101,Electric Bass
332.5,0.0,64,92,Electric Bass
332.5,0.0,69,92,Electric Bass
332.5,0.0,36,106,Electric Bass
332.5,0.0,42,106,Electric Bass
332.75,0.0,54,73,Electric Bass
332.75,0.0,69,73,Electric Bass
333.0,0.6374840628984275,61,105,Electric Bass
333.0,0.6374840628984275,56,105,Electric Bass
333.0,0.6374840628984275,52,105,Electric Bass
333.0,0.6374840628984275,30,105,Electric Bass
333.0,0.6374840628984275,42,105,Electric Bass
333.0,2.039949001274968,73,96,Electric Bass
333.0,2.039949001274968,66,96,Electric Bass
333.0,0.0,54,73,Electric Bass
333.0,0.0,69,73,Electric Bass
333.25,0.0,54,90,Electric Bass
333.25,0.0,69,90,Electric Bass
333.5,0.0,66,102,Electric Bass
333.5,0.0,61,102,Electric Bass
333.5,0.1274968125796855,54,106,Electric Bass
333.5,0.1274968125796855,62,106,Electric Bass
333.5,0.1274968125796855,51,106,Electric Bass
333.5,0.1274968125796855,69,106,Electric Bass
334.0,0.1274968125796855,52,127,Electric Bass
334.0,0.1274968125796855,64,127,Electric Bass
334.0,0.1274968125796855,63,106,Electric Bass
334.0,0.1274968125796855,70,106,Electric Bass
334.0,0.0,54,71,Electric Bass
334.0,0.0,70,71,Electric Bass
334.0,0.1274968125796855,46,113,Electric Bass
334.0,0.1274968125796855,38,113,Electric Bass
334.0,0.1274968125796855,64,127,Electric Bass
334.0,0.1274968125796855,76,127,Electric Bass
334.25,0.0,66,95,Electric Bass
334.25,0.0,61,95,Electric Bass
334.25,0.1274968125796855,54,127,Electric Bass
334.25,0.1274968125796855,66,127,Electric Bass
334.25,0.0,64,95,Electric Bass
334.25,0.0,54,95,Electric Bass
334.25,0.1274968125796855,66,127,Electric Bass
334.25,0.1274968125796855,78,127,Electric Bass
334.5,0.509987250318742,57,108,Electric Bass
334.5,0.509987250318742,61,108,Electric Bass
334.5,1.019974500637484,30,103,Electric Bass
334.5,1.019974500637484,42,103,Electric Bass
334.5,0.0,63,87,Electric Bass
334.5,0.0,69,87,Electric Bass
334.75,0.38249043773905655,57,127,Electric Bass
334.75,0.38249043773905655,69,127,Electric Bass
334.75,0.0,54,80,Electric Bass
334.75,0.0,69,80,Electric Bass
334.75,0.1274968125796855,42,78,Electric Bass
334.75,0.1274968125796855,38,78,Electric Bass
334.75,0.38249043773905655,69,127,Electric Bass
334.75,0.38249043773905655,81,127,Electric Bass
335.0,0.0,66,90,Electric Bass
335.0,0.0,61,90,Electric Bass
335.0,0.0,54,84,Electric Bass
335.0,0.0,69,84,Electric Bass
335.25,0.0,63,95,Electric Bass
335.25,0.0,54,95,Electric Bass
335.25,0.0,69,95,Electric Bass
335.25,0.0,42,98,Electric Bass
335.25,0.0,38,98,Electric Bass
335.5,0.1274968125796855,54,127,Electric Bass
335.5,0.1274968125796855,66,127,Electric Bass
335.5,0.1274968125796855,62,122,Electric Bass
335.5,0.1274968125796855,51,122,Electric Bass
335.5,0.1274968125796855,54,102,Electric Bass
335.5,0.1274968125796855,69,102,Electric Bass
335.5,0.0,36,111,Electric Bass
335.5,0.0,46,111,Electric Bass
335.5,0.1274968125796855,66,127,Electric Bass
335.5,0.1274968125796855,78,127,Electric Bass
335.75,0.1274968125796855,57,97,Electric Bass
335.75,0.1274968125796855,61,97,Electric Bass
335.75,0.1274968125796855,66,97,Electric Bass
336.0,0.125,52,127,Electric Bass
336.0,0.125,64,127,Electric Bass
336.0,0.0,66,74,Electric Bass
336.0,0.0,78,74,Electric Bass
336.0,0.125,63,89,Electric Bass
336.0,0.125,54,89,Electric Bass
336.0,0.125,70,89,Electric Bass
336.0,0.0,46,113,Electric Bass
336.0,0.0,38,113,Electric Bass
336.0,0.125,64,127,Electric Bass
336.0,0.125,76,127,Electric Bass
336.25,0.125,54,127,Electric Bass
336.25,0.125,66,127,Electric Bass
336.25,0.125,66,127,Electric Bass
336.25,0.125,78,127,Electric Bass
336.5,0.25,57,107,Electric Bass
336.5,0.25,66,107,Electric Bass
336.5,0.25,61,107,Electric Bass
336.5,0.0,66,70,Electric Bass
336.5,0.0,78,70,Electric Bass
336.5,0.0,64,98,Electric Bass
336.5,0.0,69,98,Electric Bass
336.75,0.0,54,82,Electric Bass
336.75,0.0,69,82,Electric Bass
337.0,0.0,69,82,Electric Bass
337.0,0.0,54,82,Electric Bass
337.0,0.0,36,114,Electric Bass
337.0,0.0,42,114,Electric Bass
337.25,0.0,54,79,Electric Bass
337.25,0.0,69,79,Electric Bass
337.5,0.1274968125796855,62,104,Electric Bass
337.5,0.1274968125796855,54,104,Electric Bass
338.0,0.0,54,85,Electric Bass
338.0,0.0,70,85,Electric Bass
338.0,0.0,46,120,Electric Bass
338.0,0.0,38,120,Electric Bass
338.5,0.0,64,69,Electric Bass
338.5,0.0,69,69,Electric Bass
338.75,0.0,54,77,Electric Bass
338.75,0.0,69,77,Electric Bass
338.75,0.0,38,73,Electric Bass
338.75,0.0,42,73,Electric Bass
339.0,0.0,66,64,Electric Bass
339.0,0.0,78,64,Electric Bass
339.0,0.0,54,72,Electric Bass
339.0,0.0,69,72,Electric Bass
339.25,0.0,54,88,Electric Bass
339.25,0.0,69,88,Electric Bass
339.25,0.0,42,98,Electric Bass
339.25,0.0,38,98,Electric Bass
339.5,0.0,69,105,Electric Bass
339.5,0.0,62,105,Electric Bass
339.5,0.0,54,105,Electric Bass
340.0,0.1274968125796855,70,85,Electric Bass
340.0,0.1274968125796855,63,85,Electric Bass
340.0,0.1274968125796855,54,85,Electric Bass
340.0,0.0,46,120,Electric Bass
340.0,0.0,38,120,Electric Bass
340.5,0.0,64,94,Electric Bass
340.5,0.0,69,94,Electric Bass
340.5,0.0,36,106,Electric Bass
340.5,0.0,42,106,Electric Bass
340.75,0.0,54,73,Electric Bass
340.75,0.0,69,73,Electric Bass
341.0,0.0,54,73,Electric Bass
341.0,0.0,69,73,Electric Bass
341.25,0.0,54,90,Electric Bass
341.25,0.0,69,90,Electric Bass
341.5,0.1274968125796855,62,106,Electric Bass
341.5,0.1274968125796855,54,106,Electric Bass
341.5,0.1274968125796855,69,106,Electric Bass
342.0,0.1274968125796855,63,100,Electric Bass
342.0,0.1274968125796855,70,100,Electric Bass
342.0,0.0,54,71,Electric Bass
342.0,0.0,70,71,Electric Bass
342.0,0.0,46,113,Electric Bass
342.0,0.0,38,113,Electric Bass
342.5,0.0,64,96,Electric Bass
342.5,0.0,69,96,Electric Bass
342.75,0.0,54,80,Electric Bass
342.75,0.0,69,80,Electric Bass
342.75,0.0,42,78,Electric Bass
342.75,0.0,38,78,Electric Bass
343.0,0.0,54,84,Electric Bass
343.0,0.0,69,84,Electric Bass
343.25,0.0,54,84,Electric Bass
343.25,0.0,69,84,Electric Bass
343.25,0.0,42,98,Electric Bass
343.25,0.0,38,98,Electric Bass
343.5,0.125,62,109,Electric Bass
343.5,0.125,54,109,Electric Bass
343.5,0.125,69,109,Electric Bass
343.5,0.0,36,111,Electric Bass
343.5,0.0,46,111,Electric Bass
344.0,0.1274968125796855,63,103,Electric Bass
344.0,0.1274968125796855,70,103,Electric Bass
344.0,0.0,54,74,Electric Bass
344.0,0.0,70,74,Electric Bass
344.0,0.0,46,113,Electric Bass
344.0,0.0,38,113,Electric Bass
344.25,0.0,63,88,Electric Bass
344.25,0.0,54,88,Electric Bass
344.5,0.0,64,70,Electric Bass
344.5,0.0,69,70,Electric Bass
344.75,0.0,54,82,Electric Bass
344.75,0.0,69,82,Electric Bass
345.0,0.0,69,82,Electric Bass
345.0,0.0,54,82,Electric Bass
345.0,0.0,36,114,Electric Bass
345.0,0.0,42,114,Electric Bass
345.25,0.0,54,79,Electric Bass
345.25,0.0,69,79,Electric Bass
345.5,0.1274968125796855,62,106,Electric Bass
345.5,0.1274968125796855,54,106,Electric Bass
346.0,0.1274968125796855,63,94,Electric Bass
346.0,0.1274968125796855,54,94,Electric Bass
346.0,0.1274968125796855,70,94,Electric Bass
346.0,0.0,46,120,Electric Bass
346.0,0.0,38,120,Electric Bass
346.5,0.0,64,90,Electric Bass
346.5,0.0,69,90,Electric Bass
346.75,0.0,54,77,Electric Bass
346.75,0.0,69,77,Electric Bass
346.75,0.0,38,73,Electric Bass
346.75,0.0,42,73,Electric Bass
347.0,0.0,54,72,Electric Bass
347.0,0.0,69,72,Electric Bass
347.25,0.0,54,88,Electric Bass
347.25,0.0,69,88,Electric Bass
347.25,0.1274968125796855,42,98,Electric Bass
347.25,0.1274968125796855,38,98,Electric Bass
347.5,0.1274968125796855,62,116,Electric Bass
347.5,0.1274968125796855,54,116,Electric Bass
347.5,0.0,69,95,Electric Bass
347.5,0.0,54,95,Electric Bass
348.0,0.1274968125796855,63,102,Electric Bass
348.0,0.1274968125796855,70,102,Electric Bass
348.0,0.0,46,120,Electric Bass
348.0,0.0,38,120,Electric Bass
348.5,0.0,64,92,Electric Bass
348.5,0.0,69,92,Electric Bass
348.5,0.0,36,106,Electric Bass
348.5,0.0,42,106,Electric Bass
348.75,0.0,54,73,Electric Bass
348.75,0.0,69,73,Electric Bass
349.0,0.0,54,73,Electric Bass
349.0,0.0,69,73,Electric Bass
349.25,0.0,54,90,Electric Bass
349.25,0.0,69,90,Electric Bass
349.5,0.125,54,107,Electric Bass
349.5,0.125,62,107,Electric Bass
349.5,0.125,69,107,Electric Bass
350.0,0.1274968125796855,63,106,Electric Bass
350.0,0.1274968125796855,70,106,Electric Bass
350.0,0.0,54,71,Electric Bass
350.0,0.0,70,71,Electric Bass
350.0,0.0,46,113,Electric Bass
350.0,0.0,38,113,Electric Bass
350.25,0.0,64,95,Electric Bass
350.25,0.0,54,95,Electric Bass
350.5,0.0,63,87,Electric Bass
350.5,0.0,69,87,Electric Bass
350.75,0.0,54,80,Electric Bass
350.75,0.0,69,80,Electric Bass
350.75,0.0,42,78,Electric Bass
350.75,0.0,38,78,Electric Bass
351.0,0.0,54,84,Electric Bass
351.0,0.0,69,84,Electric Bass
351.25,0.0,63,95,Electric Bass
351.25,0.0,54,95,Electric Bass
351.25,0.0,69,95,Electric Bass
351.25,0.0,42,98,Electric Bass
351.25,0.0,38,98,Electric Bass
351.5,0.1274968125796855,54,102,Electric Bass
351.5,0.1274968125796855,69,102,Electric Bass
351.5,0.0,36,111,Electric Bass
351.5,0.0,46,111,Electric Bass
352.0,0.1274968125796855,63,89,Electric Bass
352.0,0.1274968125796855,54,89,Electric Bass
352.0,0.1274968125796855,70,89,Electric Bass
352.0,0.0,46,113,Electric Bass
352.0,0.0,38,113,Electric Bass
352.5,0.0,64,98,Electric Bass
352.5,0.0,69,98,Electric Bass
352.75,0.0,54,82,Electric Bass
352.75,0.0,69,82,Electric Bass
353.0,0.0,66,68,Electric Bass
353.0,0.0,78,68,Electric Bass
353.0,0.0,69,82,Electric Bass
353.0,0.0,54,82,Electric Bass
353.0,0.0,36,114,Electric Bass
353.0,0.0,42,114,Electric Bass
353.25,0.0,54,79,Electric Bass
353.25,0.0,69,79,Electric Bass
353.5,0.1274968125796855,62,104,Electric Bass
353.5,0.1274968125796855,54,104,Electric Bass
354.0,0.0,54,85,Electric Bass
354.0,0.0,70,85,Electric Bass
354.0,0.1274968125796855,46,120,Electric Bass
354.0,0.1274968125796855,38,120,Electric Bass
354.5,0.0,64,69,Electric Bass
354.5,0.0,69,69,Electric Bass
354.75,0.0,54,77,Electric Bass
354.75,0.0,69,77,Electric Bass
354.75,0.1274968125796855,38,73,Electric Bass
354.75,0.1274968125796855,42,73,Electric Bass
355.0,0.0,54,72,Electric Bass
355.0,0.0,69,72,Electric Bass
355.25,0.0,54,88,Electric Bass
355.25,0.0,69,88,Electric Bass
355.25,0.0,42,98,Electric Bass
355.25,0.0,38,98,Electric Bass
355.5,0.0,69,105,Electric Bass
355.5,0.0,62,105,Electric Bass
355.5,0.0,54,105,Electric Bass
356.0,0.125,70,85,Electric Bass
356.0,0.125,63,85,Electric Bass
356.0,0.125,54,85,Electric Bass
356.0,0.0,46,120,Electric Bass
356.0,0.0,38,120,Electric Bass
356.5,0.0,64,94,Electric Bass
356.5,0.0,69,94,Electric Bass
356.5,0.0,36,106,Electric Bass
356.5,0.0,42,106,Electric Bass
356.75,0.0,54,73,Electric Bass
356.75,0.0,69,73,Electric Bass
357.0,0.0,54,73,Electric Bass
357.0,0.0,69,73,Electric Bass
357.25,0.0,54,90,Electric Bass
357.25,0.0,69,90,Electric Bass
357.5,0.1274968125796855,62,106,Electric Bass
357.5,0.1274968125796855,54,106,Electric Bass
357.5,0.1274968125796855,69,106,Electric Bass
358.0,0.1274968125796855,63,100,Electric Bass
358.0,0.1274968125796855,70,100,Electric Bass
358.0,0.0,54,71,Electric Bass
358.0,0.0,70,71,Electric Bass
358.0,0.0,46,113,Electric Bass
358.0,0.0,38,113,Electric Bass
358.5,0.0,64,96,Electric Bass
358.5,0.0,69,96,Electric Bass
358.75,0.0,54,80,Electric Bass
358.75,0.0,69,80,Electric Bass
358.75,0.0,42,78,Electric Bass
358.75,0.0,38,78,Electric Bass
359.0,0.0,54,84,Electric Bass
359.0,0.0,69,84,Electric Bass
359.25,0.0,54,84,Electric Bass
359.25,0.0,69,84,Electric Bass
359.25,0.0,42,98,Electric Bass
359.25,0.0,38,98,Electric Bass
359.5,0.1274968125796855,62,109,Electric Bass
359.5,0.1274968125796855,54,109,Electric Bass
359.5,0.1274968125796855,69,109,Electric Bass
359.5,0.0,36,111,Electric Bass
359.5,0.0,46,111,Electric Bass
360.0,0.1274968125796855,63,103,Electric Bass
360.0,0.1274968125796855,70,103,Electric Bass
360.0,0.0,54,74,Electric Bass
360.0,0.0,70,74,Electric Bass
360.0,0.1274968125796855,46,113,Electric Bass
360.0,0.1274968125796855,38,113,Electric Bass
360.25,0.0,63,88,Electric Bass
360.25,0.0,54,88,Electric Bass
360.5,0.0,64,70,Electric Bass
360.5,0.0,69,70,Electric Bass
360.75,0.0,54,82,Electric Bass
360.75,0.0,69,82,Electric Bass
361.0,2.039949001274968,67,66,Electric Bass
361.0,2.039949001274968,59,66,Electric Bass
361.0,0.0,69,82,Electric Bass
361.0,0.0,54,82,Electric Bass
361.0,0.0,36,114,Electric Bass
361.0,0.0,42,114,Electric Bass
361.25,0.0,54,79,Electric Bass
361.25,0.0,69,79,Electric Bass
361.5,0.1274968125796855,62,106,Electric Bass
361.5,0.1274968125796855,54,106,Electric Bass
362.0,0.125,63,94,Electric Bass
362.0,0.125,54,94,Electric Bass
362.0,0.125,70,94,Electric Bass
362.0,0.0,46,120,Electric Bass
362.0,0.0,38,120,Electric Bass
362.5,0.0,64,90,Electric Bass
362.5,0.0,69,90,Electric Bass
362.75,0.0,54,77,Electric Bass
362.75,0.0,69,77,Electric Bass
362.75,0.0,38,73,Electric Bass
362.75,0.0,42,73,Electric Bass
363.0,0.0,54,72,Electric Bass
363.0,0.0,69,72,Electric Bass
363.25,0.0,54,88,Electric Bass
363.25,0.0,69,88,Electric Bass
363.25,0.0,42,98,Electric Bass
363.25,0.0,38,98,Electric Bass
363.5,0.1274968125796855,62,116,Electric Bass
363.5,0.1274968125796855,54,116,Electric Bass
363.5,0.0,69,95,Electric Bass
363.5,0.0,54,95,Electric Bass
364.0,0.1274968125796855,63,102,Electric Bass
364.0,0.1274968125796855,70,102,Electric Bass
364.0,0.0,46,120,Electric Bass
364.0,0.0,38,120,Electric Bass
364.5,0.0,64,92,Electric Bass
364.5,0.0,69,92,Electric Bass
364.5,0.0,36,106,Electric Bass
364.5,0.0,42,106,Electric Bass
364.75,0.0,54,73,Electric Bass
364.75,0.0,69,73,Electric Bass
369.0,1.625,61,108,Electric Bass
369.0,1.625,57,108,Electric Bass
369.0,1.5,52,116,Electric Bass
369.0,1.5,56,116,Electric Bass
369.0,2.0,73,93,Electric Bass
369.0,2.0,69,93,Electric Bass
369.0,0.125,51,126,Electric Bass
369.0,0.125,64,126,Electric Bass
369.0,0.0,69,82,Electric Bass
369.0,0.0,54,82,Electric Bass
369.0,0.0,36,114,Electric Bass
369.0,0.0,42,114,Electric Bass
369.25,0.0,54,79,Electric Bass
369.25,0.0,69,79,Electric Bass
369.5,0.125,57,101,Electric Bass
369.5,0.125,66,101,Electric Bass
369.5,0.125,62,103,Electric Bass
369.5,0.125,54,103,Electric Bass
369.5,0.125,51,103,Electric Bass
370.0,0.1274968125796855,63,120,Electric Bass
370.0,0.1274968125796855,51,120,Electric Bass
370.0,0.0,54,85,Electric Bass
370.0,0.0,70,85,Electric Bass
370.0,0.0,46,120,Electric Bass
370.0,0.0,38,120,Electric Bass
370.25,0.0,66,100,Electric Bass
370.25,0.0,61,100,Electric Bass
370.5,0.0,64,69,Electric Bass
370.5,0.0,69,69,Electric Bass
370.75,0.0,54,77,Electric Bass
370.75,0.0,69,77,Electric Bass
370.75,0.0,38,73,Electric Bass
370.75,0.0,42,73,Electric Bass
371.0,0.0,66,96,Electric Bass
371.0,0.0,61,96,Electric Bass
371.0,0.0,66,64,Electric Bass
371.0,0.0,78,64,Electric Bass
371.0,0.0,54,72,Electric Bass
371.0,0.0,69,72,Electric Bass
371.25,0.0,54,88,Electric Bass
371.25,0.0,69,88,Electric Bass
371.25,0.0,42,98,Electric Bass
371.25,0.0,38,98,Electric Bass
371.5,0.1274968125796855,51,113,Electric Bass
371.5,0.1274968125796855,54,113,Electric Bass
371.5,0.0,69,105,Electric Bass
371.5,0.0,62,105,Electric Bass
371.5,0.0,54,105,Electric Bass
371.75,0.0,61,97,Electric Bass
371.75,0.0,66,97,Electric Bass
372.0,0.1274968125796855,70,85,Electric Bass
372.0,0.1274968125796855,63,85,Electric Bass
372.0,0.1274968125796855,54,85,Electric Bass
372.0,0.0,46,120,Electric Bass
372.0,0.0,38,120,Electric Bass
372.5,0.3399915002124947,57,106,Electric Bass
372.5,0.3399915002124947,61,106,Electric Bass
372.5,0.3399915002124947,66,106,Electric Bass
372.5,0.0,64,94,Electric Bass
372.5,0.0,69,94,Electric Bass
372.5,0.0,36,106,Electric Bass
372.5,0.0,42,106,Electric Bass
372.75,0.0,54,73,Electric Bass
372.75,0.0,69,73,Electric Bass
373.0,0.6799830004249894,63,109,Electric Bass
373.0,0.6799830004249894,60,109,Electric Bass
373.0,0.6799830004249894,54,109,Electric Bass
373.0,2.039949001274968,75,92,Electric Bass
373.0,2.039949001274968,72,92,Electric Bass
373.0,0.0,54,73,Electric Bass
373.0,0.0,69,73,Electric Bass
373.25,0.1274968125796855,63,127,Electric Bass
373.25,0.1274968125796855,72,127,Electric Bass
373.25,0.1274968125796855,75,127,Electric Bass
373.25,0.0,54,90,Electric Bass
373.25,0.0,69,90,Electric Bass
373.25,0.1274968125796855,75,127,Electric Bass
373.25,0.1274968125796855,84,127,Electric Bass
373.25,0.1274968125796855,87,127,Electric Bass
373.5,0.0,66,90,Electric Bass
373.5,0.0,63,90,Electric Bass
373.5,0.1274968125796855,62,106,Electric Bass
373.5,0.1274968125796855,54,106,Electric Bass
373.5,0.1274968125796855,69,106,Electric Bass
373.75,0.1274968125796855,63,127,Electric Bass
373.75,0.1274968125796855,72,127,Electric Bass
373.75,0.1274968125796855,75,127,Electric Bass
373.75,0.1274968125796855,75,127,Electric Bass
373.75,0.1274968125796855,84,127,Electric Bass
373.75,0.1274968125796855,87,127,Electric Bass
374.0,0.1274968125796855,63,127,Electric Bass
374.0,0.1274968125796855,72,127,Electric Bass
374.0,0.1274968125796855,75,127,Electric Bass
374.0,0.1274968125796855,63,100,Electric Bass
374.0,0.1274968125796855,70,100,Electric Bass
374.0,0.0,54,71,Electric Bass
374.0,0.0,70,71,Electric Bass
374.0,0.0,46,113,Electric Bass
374.0,0.0,38,113,Electric Bass
374.0,0.1274968125796855,75,127,Electric Bass
374.0,0.1274968125796855,84,127,Electric Bass
374.0,0.1274968125796855,87,127,Electric Bass
374.25,0.1274968125796855,60,98,Electric Bass
374.25,0.1274968125796855,63,98,Electric Bass
374.5,0.8499787505312367,54,102,Electric Bass
374.5,0.8499787505312367,63,102,Electric Bass
374.5,0.0,64,96,Electric Bass
374.5,0.0,69,96,Electric Bass
374.75,0.1274968125796855,63,125,Electric Bass
374.75,0.1274968125796855,72,125,Electric Bass
374.75,0.1274968125796855,75,125,Electric Bass
374.75,0.0,54,80,Electric Bass
374.75,0.0,69,80,Electric Bass
374.75,0.0,42,78,Electric Bass
374.75,0.0,38,78,Electric Bass
374.75,0.1274968125796855,75,125,Electric Bass
374.75,0.1274968125796855,84,125,Electric Bass
374.75,0.1274968125796855,87,125,Electric Bass
375.0,0.0,66,99,Electric Bass
375.0,0.0,63,99,Electric Bass
375.0,0.1274968125796855,63,127,Electric Bass
375.0,0.1274968125796855,72,127,Electric Bass
375.0,0.1274968125796855,75,127,Electric Bass
375.0,0.0,54,84,Electric Bass
375.0,0.0,69,84,Electric Bass
375.0,0.1274968125796855,75,127,Electric Bass
375.0,0.1274968125796855,84,127,Electric Bass
375.0,0.1274968125796855,87,127,Electric Bass
375.25,0.1274968125796855,63,127,Electric Bass
375.25,0.1274968125796855,72,127,Electric Bass
375.25,0.1274968125796855,75,127,Electric Bass
375.25,0.0,54,84,Electric Bass
375.25,0.0,69,84,Electric Bass
375.25,0.0,42,98,Electric Bass
375.25,0.0,38,98,Electric Bass
375.25,0.1274968125796855,75,127,Electric Bass
375.25,0.1274968125796855,84,127,Electric Bass
375.25,0.1274968125796855,87,127,Electric Bass
375.5,0.1274968125796855,63,127,Electric Bass
375.5,0.1274968125796855,72,127,Electric Bass
375.5,0.1274968125796855,75,127,Electric Bass
375.5,0.1274968125796855,62,109,Electric Bass
375.5,0.1274968125796855,54,109,Electric Bass
375.5,0.1274968125796855,69,109,Electric Bass
375.5,0.1274968125796855,51,108,Electric Bass
375.5,0.1274968125796855,54,108,Electric Bass
375.5,0.1274968125796855,69,108,Electric Bass
375.5,0.0,36,111,Electric Bass
375.5,0.0,46,111,Electric Bass
375.5,0.1274968125796855,75,127,Electric Bass
375.5,0.1274968125796855,84,127,Electric Bass
375.5,0.1274968125796855,87,127,Electric Bass
375.75,0.1274968125796855,60,99,Electric Bass
375.75,0.1274968125796855,63,99,Electric Bass
376.0,0.125,63,103,Electric Bass
376.0,0.125,70,103,Electric Bass
376.0,0.0,54,74,Electric Bass
376.0,0.0,70,74,Electric Bass
376.0,0.0,46,113,Electric Bass
376.0,0.0,38,113,Electric Bass
376.25,0.0,63,88,Electric Bass
376.25,0.0,54,88,Electric Bass
376.5,0.3333333333333333,60,110,Electric Bass
376.5,0.3333333333333333,63,110,Electric Bass
376.5,0.3333333333333333,66,110,Electric Bass
376.5,0.0,64,70,Electric Bass
376.5,0.0,69,70,Electric Bass
376.75,0.0,54,82,Electric Bass
376.75,0.0,69,82,Electric Bass
377.0,0.6374840628984275,55,110,Electric Bass
377.0,0.6374840628984275,62,110,Electric Bass
377.0,0.6374840628984275,59,110,Electric Bass
377.0,1.7849553761155972,30,99,Electric Bass
377.0,1.7849553761155972,42,99,Electric Bass
377.0,0.1274968125796855,64,112,Electric Bass
377.0,0.1274968125796855,51,112,Electric Bass
377.0,0.0,69,82,Electric Bass
377.0,0.0,54,82,Electric Bass
377.0,0.0,36,114,Electric Bass
377.0,0.0,42,114,Electric Bass
377.25,0.0,54,79,Electric Bass
377.25,0.0,69,79,Electric Bass
377.5,0.0,59,105,Electric Bass
377.5,0.0,66,105,Electric Bass
377.5,0.1274968125796855,62,106,Electric Bass
377.5,0.1274968125796855,54,106,Electric Bass
378.0,0.1274968125796855,63,94,Electric Bass
378.0,0.1274968125796855,54,94,Electric Bass
378.0,0.1274968125796855,70,94,Electric Bass
378.0,0.0,46,120,Electric Bass
378.0,0.0,38,120,Electric Bass
378.25,0.1274968125796855,59,98,Electric Bass
378.25,0.1274968125796855,62,98,Electric Bass
378.5,0.7649808754781131,55,101,Electric Bass
378.5,0.7649808754781131,62,101,Electric Bass
378.5,0.0,64,90,Electric Bass
378.5,0.0,69,90,Electric Bass
378.75,0.0,54,77,Electric Bass
378.75,0.0,69,77,Electric Bass
378.75,0.0,38,73,Electric Bass
378.75,0.0,42,73,Electric Bass
379.0,0.1274968125796855,59,100,Electric Bass
379.0,0.1274968125796855,62,100,Electric Bass
379.0,0.0,54,72,Electric Bass
379.0,0.0,69,72,Electric Bass
379.25,0.0,54,88,Electric Bass
379.25,0.0,69,88,Electric Bass
379.25,0.0,42,98,Electric Bass
379.25,0.0,38,98,Electric Bass
379.5,0.1274968125796855,62,117,Electric Bass
379.5,0.1274968125796855,51,117,Electric Bass
379.5,0.1274968125796855,54,117,Electric Bass
379.5,0.0,69,95,Electric Bass
379.5,0.0,54,95,Electric Bass
379.75,0.1274968125796855,59,99,Electric Bass
379.75,0.1274968125796855,62,99,Electric Bass
380.0,0.1274968125796855,63,102,Electric Bass
380.0,0.1274968125796855,70,102,Electric Bass
380.0,0.1274968125796855,46,120,Electric Bass
380.0,0.1274968125796855,38,120,Electric Bass
380.5,0.3399915002124947,59,106,Electric Bass
380.5,0.3399915002124947,62,106,Electric Bass
380.5,0.3399915002124947,66,106,Electric Bass
380.5,0.0,64,92,Electric Bass
380.5,0.0,69,92,Electric Bass
380.5,0.1274968125796855,36,106,Electric Bass
380.5,0.1274968125796855,42,106,Electric Bass
380.75,0.0,54,73,Electric Bass
380.75,0.0,69,73,Electric Bass
381.0,0.6374840628984275,61,105,Electric Bass
381.0,0.6374840628984275,56,105,Electric Bass
381.0,0.6374840628984275,52,105,Electric Bass
381.0,0.6374840628984275,30,105,Electric Bass
381.0,0.6374840628984275,42,105,Electric Bass
381.0,2.039949001274968,69,92,Electric Bass
381.0,2.039949001274968,73,92,Electric Bass
381.0,0.0,54,73,Electric Bass
381.0,0.0,69,73,Electric Bass
381.25,0.1274968125796855,66,127,Electric Bass
381.25,0.1274968125796855,69,127,Electric Bass
381.25,0.1274968125796855,73,127,Electric Bass
381.25,0.0,54,90,Electric Bass
381.25,0.0,69,90,Electric Bass
381.25,0.1274968125796855,78,127,Electric Bass
381.25,0.1274968125796855,81,127,Electric Bass
381.25,0.1274968125796855,85,127,Electric Bass
381.5,0.1274968125796855,61,100,Electric Bass
381.5,0.1274968125796855,66,100,Electric Bass
381.5,0.1274968125796855,57,100,Electric Bass
381.5,0.1274968125796855,54,106,Electric Bass
381.5,0.1274968125796855,62,106,Electric Bass
381.5,0.1274968125796855,51,106,Electric Bass
381.5,0.1274968125796855,69,106,Electric Bass
381.75,0.1274968125796855,66,127,Electric Bass
381.75,0.1274968125796855,69,127,Electric Bass
381.75,0.1274968125796855,73,127,Electric Bass
381.75,0.1274968125796855,78,127,Electric Bass
381.75,0.1274968125796855,81,127,Electric Bass
381.75,0.1274968125796855,85,127,Electric Bass
382.0,0.125,66,127,Electric Bass
382.0,0.125,69,127,Electric Bass
382.0,0.125,73,127,Electric Bass
382.0,0.125,63,106,Electric Bass
382.0,0.125,70,106,Electric Bass
382.0,0.0,54,71,Electric Bass
382.0,0.0,70,71,Electric Bass
382.0,0.0,46,113,Electric Bass
382.0,0.0,38,113,Electric Bass
382.0,0.125,78,127,Electric Bass
382.0,0.125,81,127,Electric Bass
382.0,0.125,85,127,Electric Bass
382.25,0.125,57,94,Electric Bass
382.25,0.125,66,94,Electric Bass
382.25,0.125,61,94,Electric Bass
382.25,0.0,64,95,Electric Bass
382.25,0.0,54,95,Electric Bass
382.5,0.5,57,108,Electric Bass
382.5,0.5,61,108,Electric Bass
382.5,1.0,30,103,Electric Bass
382.5,1.0,42,103,Electric Bass
382.5,0.0,63,87,Electric Bass
382.5,0.0,69,87,Electric Bass
382.75,0.125,66,125,Electric Bass
382.75,0.125,69,125,Electric Bass
382.75,0.125,73,125,Electric Bass
382.75,0.0,54,80,Electric Bass
382.75,0.0,69,80,Electric Bass
382.75,0.0,42,78,Electric Bass
382.75,0.0,38,78,Electric Bass
382.75,0.125,78,125,Electric Bass
382.75,0.125,81,125,Electric Bass
382.75,0.125,85,125,Electric Bass
383.0,0.0,61,105,Electric Bass
383.0,0.0,66,105,Electric Bass
383.0,0.1274968125796855,66,127,Electric Bass
383.0,0.1274968125796855,69,127,Electric Bass
383.0,0.1274968125796855,73,127,Electric Bass
383.0,0.0,54,84,Electric Bass
383.0,0.0,69,84,Electric Bass
383.0,0.1274968125796855,78,127,Electric Bass
383.0,0.1274968125796855,81,127,Electric Bass
383.0,0.1274968125796855,85,127,Electric Bass
383.25,0.1274968125796855,66,127,Electric Bass
383.25,0.1274968125796855,69,127,Electric Bass
383.25,0.1274968125796855,73,127,Electric Bass
383.25,0.0,63,95,Electric Bass
383.25,0.0,54,95,Electric Bass
383.25,0.0,69,95,Electric Bass
383.25,0.0,42,98,Electric Bass
383.25,0.0,38,98,Electric Bass
383.25,0.1274968125796855,78,127,Electric Bass
383.25,0.1274968125796855,81,127,Electric Bass
383.25,0.1274968125796855,85,127,Electric Bass
383.5,0.1274968125796855,66,127,Electric Bass
383.5,0.1274968125796855,69,127,Electric Bass
383.5,0.1274968125796855,73,127,Electric Bass
383.5,0.1274968125796855,62,122,Electric Bass
383.5,0.1274968125796855,51,122,Electric Bass
383.5,0.1274968125796855,54,102,Electric Bass
383.5,0.1274968125796855,69,102,Electric Bass
383.5,0.0,36,111,Electric Bass
383.5,0.0,46,111,Electric Bass
383.5,0.1274968125796855,78,127,Electric Bass
383.5,0.1274968125796855,81,127,Electric Bass
383.5,0.1274968125796855,85,127,Electric Bass
383.75,0.1274968125796855,57,100,Electric Bass
383.75,0.1274968125796855,66,100,Electric Bass
384.0,0.1274968125796855,63,89,Electric Bass
384.0,0.1274968125796855,54,89,Electric Bass
384.0,0.1274968125796855,70,89,Electric Bass
384.0,0.0,46,113,Electric Bass
384.0,0.0,38,113,Electric Bass
384.5,0.254993625159371,57,110,Electric Bass
384.5,0.254993625159371,66,110,Electric Bass
384.5,0.254993625159371,61,110,Electric Bass
384.5,0.0,64,98,Electric Bass
384.5,0.0,69,98,Electric Bass
384.75,0.0,54,82,Electric Bass
384.75,0.0,69,82,Electric Bass
385.0,1.6574585635359116,61,108,Electric Bass
385.0,1.6574585635359116,57,108,Electric Bass
385.0,1.5299617509562262,52,116,Electric Bass
385.0,1.5299617509562262,56,116,Electric Bass
385.0,0.0,66,68,Electric Bass
385.0,0.0,78,68,Electric Bass
385.0,2.039949001274968,69,88,Electric Bass
385.0,2.039949001274968,73,88,Electric Bass
385.0,0.1274968125796855,51,126,Electric Bass
385.0,0.1274968125796855,64,126,Electric Bass
385.0,0.0,69,82,Electric Bass
385.0,0.0,54,82,Electric Bass
385.0,0.0,36,114,Electric Bass
385.0,0.0,42,114,Electric Bass
385.25,0.0,54,79,Electric Bass
385.25,0.0,69,79,Electric Bass
385.5,0.0,66,102,Electric Bass
385.5,0.0,61,102,Electric Bass
385.5,0.1274968125796855,62,103,Electric Bass
385.5,0.1274968125796855,54,103,Electric Bass
385.5,0.1274968125796855,51,103,Electric Bass
386.0,0.1274968125796855,63,120,Electric Bass
386.0,0.1274968125796855,51,120,Electric Bass
386.0,0.0,54,85,Electric Bass
386.0,0.0,70,85,Electric Bass
386.0,0.1274968125796855,46,120,Electric Bass
386.0,0.1274968125796855,38,120,Electric Bass
386.25,0.0,66,95,Electric Bass
386.25,0.0,61,95,Electric Bass
386.5,0.0,64,69,Electric Bass
386.5,0.0,69,69,Electric Bass
386.75,0.0,54,77,Electric Bass
386.75,0.0,69,77,Electric Bass
386.75,0.1274968125796855,38,73,Electric Bass
386.75,0.1274968125796855,42,73,Electric Bass
387.0,0.0,66,90,Electric Bass
387.0,0.0,61,90,Electric Bass
387.0,0.0,54,72,Electric Bass
387.0,0.0,69,72,Electric Bass
387.25,0.0,54,88,Electric Bass
387.25,0.0,69,88,Electric Bass
387.25,0.0,42,98,Electric Bass
387.25,0.0,38,98,Electric Bass
387.5,0.1274968125796855,51,113,Electric Bass
387.5,0.1274968125796855,54,113,Electric Bass
387.5,0.0,69,105,Electric Bass
387.5,0.0,62,105,Electric Bass
387.5,0.0,54,105,Electric Bass
387.75,0.1274968125796855,57,97,Electric Bass
387.75,0.1274968125796855,61,97,Electric Bass
387.75,0.1274968125796855,66,97,Electric Bass
388.0,0.125,70,85,Electric Bass
388.0,0.125,63,85,Electric Bass
388.0,0.125,54,85,Electric Bass
388.0,0.0,46,120,Electric Bass
388.0,0.0,38,120,Electric Bass
388.5,0.3333333333333333,57,106,Electric Bass
388.5,0.3333333333333333,61,106,Electric Bass
388.5,0.375,66,108,Electric Bass
388.5,0.375,61,108,Electric Bass
388.5,0.0,64,94,Electric Bass
388.5,0.0,69,94,Electric Bass
388.5,0.0,36,106,Electric Bass
388.5,0.0,42,106,Electric Bass
388.75,0.0,54,73,Electric Bass
388.75,0.0,69,73,Electric Bass
389.0,0.6799830004249894,63,109,Electric Bass
389.0,0.6799830004249894,60,109,Electric Bass
389.0,0.6799830004249894,54,109,Electric Bass
389.0,0.0,54,73,Electric Bass
389.0,0.0,69,73,Electric Bass
389.25,0.1274968125796855,63,127,Electric Bass
389.25,0.1274968125796855,72,127,Electric Bass
389.25,0.1274968125796855,75,127,Electric Bass
389.25,0.0,54,90,Electric Bass
389.25,0.0,69,90,Electric Bass
389.25,0.1274968125796855,75,127,Electric Bass
389.25,0.1274968125796855,84,127,Electric Bass
389.25,0.1274968125796855,87,127,Electric Bass
389.5,0.1274968125796855,60,104,Electric Bass
389.5,0.1274968125796855,63,104,Electric Bass
389.5,0.1274968125796855,62,106,Electric Bass
389.5,0.1274968125796855,54,106,Electric Bass
389.5,0.1274968125796855,69,106,Electric Bass
389.75,0.1274968125796855,63,127,Electric Bass
389.75,0.1274968125796855,72,127,Electric Bass
389.75,0.1274968125796855,75,127,Electric Bass
389.75,0.1274968125796855,75,127,Electric Bass
389.75,0.1274968125796855,84,127,Electric Bass
389.75,0.1274968125796855,87,127,Electric Bass
390.0,0.1274968125796855,63,127,Electric Bass
390.0,0.1274968125796855,72,127,Electric Bass
390.0,0.1274968125796855,75,127,Electric Bass
390.0,0.1274968125796855,63,100,Electric Bass
390.0,0.1274968125796855,70,100,Electric Bass
390.0,0.0,54,71,Electric Bass
390.0,0.0,70,71,Electric Bass
390.0,0.0,46,113,Electric Bass
390.0,0.0,38,113,Electric Bass
390.0,0.1274968125796855,75,127,Electric Bass
390.0,0.1274968125796855,84,127,Electric Bass
390.0,0.1274968125796855,87,127,Electric Bass
390.25,0.1274968125796855,60,100,Electric Bass
390.25,0.1274968125796855,63,100,Electric Bass
390.5,0.8499787505312367,54,102,Electric Bass
390.5,0.8499787505312367,63,102,Electric Bass
390.5,0.0,64,96,Electric Bass
390.5,0.0,69,96,Electric Bass
390.75,0.1274968125796855,63,125,Electric Bass
390.75,0.1274968125796855,72,125,Electric Bass
390.75,0.1274968125796855,75,125,Electric Bass
390.75,0.0,54,80,Electric Bass
390.75,0.0,69,80,Electric Bass
390.75,0.0,42,78,Electric Bass
390.75,0.0,38,78,Electric Bass
390.75,0.1274968125796855,75,125,Electric Bass
390.75,0.1274968125796855,84,125,Electric Bass
390.75,0.1274968125796855,87,125,Electric Bass
391.0,0.1274968125796855,60,97,Electric Bass
391.0,0.1274968125796855,66,97,Electric Bass
391.0,0.1274968125796855,63,97,Electric Bass
391.0,0.1274968125796855,63,127,Electric Bass
391.0,0.1274968125796855,72,127,Electric Bass
391.0,0.1274968125796855,75,127,Electric Bass
391.0,0.0,54,84,Electric Bass
391.0,0.0,69,84,Electric Bass
391.0,0.1274968125796855,75,127,Electric Bass
391.0,0.1274968125796855,84,127,Electric Bass
391.0,0.1274968125796855,87,127,Electric Bass
391.25,0.1274968125796855,63,127,Electric Bass
391.25,0.1274968125796855,72,127,Electric Bass
391.25,0.1274968125796855,75,127,Electric Bass
391.25,0.0,54,84,Electric Bass
391.25,0.0,69,84,Electric Bass
391.25,0.0,42,98,Electric Bass
391.25,0.0,38,98,Electric Bass
391.25,0.1274968125796855,75,127,Electric Bass
391.25,0.1274968125796855,84,127,Electric Bass
391.25,0.1274968125796855,87,127,Electric Bass
391.5,0.1274968125796855,63,127,Electric Bass
391.5,0.1274968125796855,72,127,Electric Bass
391.5,0.1274968125796855,75,127,Electric Bass
391.5,0.1274968125796855,62,109,Electric Bass
391.5,0.1274968125796855,54,109,Electric Bass
391.5,0.1274968125796855,69,109,Electric Bass
391.5,0.1274968125796855,51,108,Electric Bass
391.5,0.1274968125796855,54,108,Electric Bass
391.5,0.1274968125796855,69,108,Electric Bass
391.5,0.0,36,111,Electric Bass
391.5,0.0,46,111,Electric Bass
391.5,0.1274968125796855,75,127,Electric Bass
391.5,0.1274968125796855,84,127,Electric Bass
391.5,0.1274968125796855,87,127,Electric Bass
391.75,0.1274968125796855,60,103,Electric Bass
391.75,0.1274968125796855,63,103,Electric Bass
392.0,0.1274968125796855,63,103,Electric Bass
392.0,0.1274968125796855,70,103,Electric Bass
392.0,0.0,54,74,Electric Bass
392.0,0.0,70,74,Electric Bass
392.0,0.0,46,113,Electric Bass
392.0,0.0,38,113,Electric Bass
392.25,0.0,63,88,Electric Bass
392.25,0.0,54,88,Electric Bass
392.5,0.254993625159371,60,108,Electric Bass
392.5,0.254993625159371,63,108,Electric Bass
392.5,0.254993625159371,66,108,Electric Bass
392.5,0.0,64,70,Electric Bass
392.5,0.0,69,70,Electric Bass
392.75,0.0,54,82,Electric Bass
392.75,0.0,69,82,Electric Bass
393.0,0.6374840628984275,55,110,Electric Bass
393.0,0.6374840628984275,62,110,Electric Bass
393.0,0.6374840628984275,59,110,Electric Bass
393.0,1.7849553761155972,30,99,Electric Bass
393.0,1.7849553761155972,42,99,Electric Bass
393.0,2.039949001274968,67,92,Electric Bass
393.0,2.039949001274968,74,92,Electric Bass
393.0,0.1274968125796855,64,112,Electric Bass
393.0,0.1274968125796855,51,112,Electric Bass
393.0,0.0,69,82,Electric Bass
393.0,0.0,54,82,Electric Bass
393.0,0.1274968125796855,36,114,Electric Bass
393.0,0.1274968125796855,42,114,Electric Bass
393.25,0.0,54,79,Electric Bass
393.25,0.0,69,79,Electric Bass
393.5,0.1274968125796855,55,97,Electric Bass
393.5,0.1274968125796855,62,97,Electric Bass
393.5,0.1274968125796855,62,106,Electric Bass
393.5,0.1274968125796855,54,106,Electric Bass
394.0,0.1274968125796855,63,94,Electric Bass
394.0,0.1274968125796855,54,94,Electric Bass
394.0,0.1274968125796855,70,94,Electric Bass
394.0,0.0,46,120,Electric Bass
394.0,0.0,38,120,Electric Bass
394.25,0.1274968125796855,62,97,Electric Bass
394.25,0.1274968125796855,55,97,Electric Bass
394.5,0.7649808754781131,55,101,Electric Bass
394.5,0.7649808754781131,62,101,Electric Bass
394.5,0.0,64,90,Electric Bass
394.5,0.0,69,90,Electric Bass
394.75,0.0,54,77,Electric Bass
394.75,0.0,69,77,Electric Bass
394.75,0.0,38,73,Electric Bass
394.75,0.0,42,73,Electric Bass
395.0,0.125,55,96,Electric Bass
395.0,0.125,62,96,Electric Bass
395.0,0.0,54,72,Electric Bass
395.0,0.0,69,72,Electric Bass
395.25,0.0,54,88,Electric Bass
395.25,0.0,69,88,Electric Bass
395.25,0.0,42,98,Electric Bass
395.25,0.0,38,98,Electric Bass
395.5,0.125,62,117,Electric Bass
395.5,0.125,51,117,Electric Bass
395.5,0.125,54,117,Electric Bass
395.5,0.0,69,95,Electric Bass
395.5,0.0,54,95,Electric Bass
395.75,0.125,55,82,Electric Bass
395.75,0.125,62,82,Electric Bass
396.0,0.1274968125796855,63,102,Electric Bass
396.0,0.1274968125796855,70,102,Electric Bass
396.0,0.0,46,120,Electric Bass
396.0,0.0,38,120,Electric Bass
396.5,0.254993625159371,62,101,Electric Bass
396.5,0.254993625159371,55,101,Electric Bass
396.5,0.254993625159371,59,101,Electric Bass
396.5,0.0,64,92,Electric Bass
396.5,0.0,69,92,Electric Bass
396.5,0.0,36,106,Electric Bass
396.5,0.0,42,106,Electric Bass
396.75,0.0,54,73,Electric Bass
396.75,0.0,69,73,Electric Bass
397.0,0.509987250318742,57,97,Electric Bass
397.0,0.509987250318742,54,97,Electric Bass
397.0,0.509987250318742,61,102,Electric Bass
397.0,0.509987250318742,54,102,Electric Bass
397.0,0.509987250318742,50,102,Electric Bass
397.0,0.509987250318742,35,102,Electric Bass
397.0,0.7649808754781131,73,101,Electric Bass
397.0,0.7649808754781131,47,101,Electric Bass
397.0,0.7649808754781131,69,101,Electric Bass
397.0,0.7649808754781131,66,101,Electric Bass
397.0,2.039949001274968,73,85,Electric Bass
397.0,2.039949001274968,69,85,Electric Bass
397.0,2.039949001274968,66,85,Electric Bass
397.0,0.0,54,73,Electric Bass
397.0,0.0,69,73,Electric Bass
397.25,0.0,54,90,Electric Bass
397.25,0.0,69,90,Electric Bass
397.5,0.1274968125796855,54,107,Electric Bass
397.5,0.1274968125796855,62,107,Electric Bass
397.5,0.1274968125796855,69,107,Electric Bass
398.0,0.1274968125796855,60,116,Electric Bass
398.0,0.1274968125796855,72,116,Electric Bass
398.0,0.38249043773905655,61,123,Electric Bass
398.0,0.38249043773905655,73,123,Electric Bass
398.0,0.1274968125796855,63,106,Electric Bass
398.0,0.1274968125796855,70,106,Electric Bass
398.0,0.0,54,71,Electric Bass
398.0,0.0,70,71,Electric Bass
398.0,0.0,46,113,Electric Bass
398.0,0.0,38,113,Electric Bass
398.0,0.1274968125796855,72,116,Electric Bass
398.0,0.1274968125796855,84,116,Electric Bass
398.0,0.38249043773905655,73,123,Electric Bass
398.0,0.38249043773905655,85,123,Electric Bass
398.25,0.0,64,95,Electric Bass
398.25,0.0,54,95,Electric Bass
398.5,0.6799830004249894,61,98,Electric Bass
398.5,0.6799830004249894,57,98,Electric Bass
398.5,0.6374840628984275,35,102,Electric Bass
398.5,0.6374840628984275,54,102,Electric Bass
398.5,0.0,63,87,Electric Bass
398.5,0.0,69,87,Electric Bass
398.75,0.16999575010624735,59,127,Electric Bass
398.75,0.16999575010624735,71,127,Electric Bass
398.75,0.0,54,80,Electric Bass
398.75,0.0,69,80,Electric Bass
398.75,0.0,42,78,Electric Bass
398.75,0.0,38,78,Electric Bass
398.75,0.16999575010624735,71,127,Electric Bass
398.75,0.16999575010624735,83,127,Electric Bass
399.0,0.0,54,84,Electric Bass
399.0,0.0,69,84,Electric Bass
399.25,0.1274968125796855,57,110,Electric Bass
399.25,0.1274968125796855,69,110,Electric Bass
399.25,0.0,63,95,Electric Bass
399.25,0.0,54,95,Electric Bass
399.25,0.0,69,95,Electric Bass
399.25,0.0,42,98,Electric Bass
399.25,0.0,38,98,Electric Bass
399.25,0.1274968125796855,69,110,Electric Bass
399.25,0.1274968125796855,81,110,Electric Bass
399.5,0.254993625159371,47,100,Electric Bass
399.5,0.254993625159371,73,100,Electric Bass
399.5,0.254993625159371,62,100,Electric Bass
399.5,0.254993625159371,66,100,Electric Bass
399.5,0.1274968125796855,59,123,Electric Bass
399.5,0.1274968125796855,71,123,Electric Bass
399.5,0.1274968125796855,54,102,Electric Bass
399.5,0.1274968125796855,69,102,Electric Bass
399.5,0.0,36,111,Electric Bass
399.5,0.0,46,111,Electric Bass
399.5,0.1274968125796855,71,123,Electric Bass
399.5,0.1274968125796855,83,123,Electric Bass
400.0,0.0,66,74,Electric Bass
400.0,0.0,78,74,Electric Bass
400.0,0.1274968125796855,63,89,Electric Bass
400.0,0.1274968125796855,54,89,Electric Bass
400.0,0.1274968125796855,70,89,Electric Bass
400.0,0.1274968125796855,46,113,Electric Bass
400.0,0.1274968125796855,38,113,Electric Bass
400.25,0.16999575010624735,69,95,Electric Bass
400.25,0.16999575010624735,62,95,Electric Bass
400.25,0.16999575010624735,47,95,Electric Bass
400.25,0.16999575010624735,73,95,Electric Bass
400.25,0.16999575010624735,66,95,Electric Bass
400.5,0.0,66,70,Electric Bass
400.5,0.0,78,70,Electric Bass
400.5,0.0,64,98,Electric Bass
400.5,0.0,69,98,Electric Bass
400.75,0.0,54,82,Electric Bass
400.75,0.0,69,82,Electric Bass
401.0,0.625,63,99,Electric Bass
401.0,0.625,52,99,Electric Bass
401.0,0.625,37,99,Electric Bass
401.0,0.5,59,102,Electric Bass
401.0,0.5,56,102,Electric Bass
401.0,0.5,37,102,Electric Bass
401.0,1.0,71,104,Electric Bass
401.0,1.0,68,104,Electric Bass
401.0,1.0,61,104,Electric Bass
401.0,1.0,49,104,Electric Bass
401.0,1.875,71,86,Electric Bass
401.0,1.875,68,86,Electric Bass
401.0,1.875,64,86,Electric Bass
401.0,0.0,69,82,Electric Bass
401.0,0.0,54,82,Electric Bass
401.0,0.0,36,114,Electric Bass
401.0,0.0,42,114,Electric Bass
401.25,0.0,54,79,Electric Bass
401.25,0.0,69,79,Electric Bass
401.5,0.125,62,104,Electric Bass
401.5,0.125,54,104,Electric Bass
402.0,0.1274968125796855,60,118,Electric Bass
402.0,0.1274968125796855,72,118,Electric Bass
402.0,0.3399915002124947,61,116,Electric Bass
402.0,0.3399915002124947,73,116,Electric Bass
402.0,0.0,54,85,Electric Bass
402.0,0.0,70,85,Electric Bass
402.0,0.0,46,120,Electric Bass
402.0,0.0,38,120,Electric Bass
402.0,0.1274968125796855,72,118,Electric Bass
402.0,0.1274968125796855,84,118,Electric Bass
402.0,0.3399915002124947,73,116,Electric Bass
402.0,0.3399915002124947,85,116,Electric Bass
402.5,0.6374840628984275,59,99,Electric Bass
402.5,0.6374840628984275,56,99,Electric Bass
402.5,0.6374840628984275,63,99,Electric Bass
402.5,0.0,64,69,Electric Bass
402.5,0.0,69,69,Electric Bass
402.75,0.1274968125796855,59,125,Electric Bass
402.75,0.1274968125796855,71,125,Electric Bass
402.75,0.0,54,77,Electric Bass
402.75,0.0,69,77,Electric Bass
402.75,0.0,38,73,Electric Bass
402.75,0.0,42,73,Electric Bass
402.75,0.1274968125796855,71,125,Electric Bass
402.75,0.1274968125796855,83,125,Electric Bass
403.0,0.0,66,64,Electric Bass
403.0,0.0,78,64,Electric Bass
403.0,0.0,54,72,Electric Bass
403.0,0.0,69,72,Electric Bass
403.25,0.1274968125796855,57,107,Electric Bass
403.25,0.1274968125796855,69,107,Electric Bass
403.25,0.0,54,88,Electric Bass
403.25,0.0,69,88,Electric Bass
403.25,0.0,42,98,Electric Bass
403.25,0.0,38,98,Electric Bass
403.25,0.1274968125796855,69,107,Electric Bass
403.25,0.1274968125796855,81,107,Electric Bass
403.5,0.254993625159371,68,100,Electric Bass
403.5,0.254993625159371,64,100,Electric Bass
403.5,0.254993625159371,61,100,Electric Bass
403.5,0.254993625159371,49,92,Electric Bass
403.5,0.254993625159371,71,92,Electric Bass
403.5,0.1274968125796855,57,121,Electric Bass
403.5,0.1274968125796855,69,121,Electric Bass
403.5,0.0,69,105,Electric Bass
403.5,0.0,62,105,Electric Bass
403.5,0.0,54,105,Electric Bass
403.5,0.1274968125796855,69,121,Electric Bass
403.5,0.1274968125796855,81,121,Electric Bass
404.0,0.1274968125796855,70,85,Electric Bass
404.0,0.1274968125796855,63,85,Electric Bass
404.0,0.1274968125796855,54,85,Electric Bass
404.0,0.0,46,120,Electric Bass
404.0,0.0,38,120,Electric Bass
404.5,0.1274968125796855,64,92,Electric Bass
404.5,0.1274968125796855,68,92,Electric Bass
404.5,0.1274968125796855,71,92,Electric Bass
404.5,0.0,64,94,Electric Bass
404.5,0.0,69,94,Electric Bass
404.5,0.0,36,106,Electric Bass
404.5,0.0,42,106,Electric Bass
404.75,2.1674458138546537,73,89,Electric Bass
404.75,2.1674458138546537,69,89,Electric Bass
404.75,0.0,54,73,Electric Bass
404.75,0.0,69,73,Electric Bass
405.0,0.509987250318742,38,100,Electric Bass
405.0,0.509987250318742,50,100,Electric Bass
405.0,0.509987250318742,61,100,Electric Bass
405.0,0.509987250318742,57,102,Electric Bass
405.0,0.509987250318742,54,102,Electric Bass
405.0,1.019974500637484,69,96,Electric Bass
405.0,1.019974500637484,50,96,Electric Bass
405.0,1.019974500637484,62,96,Electric Bass
405.0,1.019974500637484,66,96,Electric Bass
405.0,0.0,54,73,Electric Bass
405.0,0.0,69,73,Electric Bass
405.25,0.0,54,90,Electric Bass
405.25,0.0,69,90,Electric Bass
405.5,0.1274968125796855,62,106,Electric Bass
405.5,0.1274968125796855,54,106,Electric Bass
405.5,0.1274968125796855,69,106,Electric Bass
406.0,0.0,60,125,Electric Bass
406.0,0.0,72,125,Electric Bass
406.0,0.3399915002124947,61,120,Electric Bass
406.0,0.3399915002124947,73,120,Electric Bass
406.0,0.1274968125796855,63,100,Electric Bass
406.0,0.1274968125796855,70,100,Electric Bass
406.0,0.0,54,71,Electric Bass
406.0,0.0,70,71,Electric Bass
406.0,0.1274968125796855,46,113,Electric Bass
406.0,0.1274968125796855,38,113,Electric Bass
406.0,0.0,72,125,Electric Bass
406.0,0.0,84,125,Electric Bass
406.0,0.3399915002124947,73,120,Electric Bass
406.0,0.3399915002124947,85,120,Electric Bass
406.5,0.509987250318742,38,97,Electric Bass
406.5,0.509987250318742,57,97,Electric Bass
406.5,0.509987250318742,61,97,Electric Bass
406.5,0.0,64,96,Electric Bass
406.5,0.0,69,96,Electric Bass
406.75,0.1274968125796855,59,121,Electric Bass
406.75,0.1274968125796855,71,121,Electric Bass
406.75,0.0,54,80,Electric Bass
406.75,0.0,69,80,Electric Bass
406.75,0.1274968125796855,42,78,Electric Bass
406.75,0.1274968125796855,38,78,Electric Bass
406.75,0.1274968125796855,71,121,Electric Bass
406.75,0.1274968125796855,83,121,Electric Bass
407.0,0.0,54,84,Electric Bass
407.0,0.0,69,84,Electric Bass
407.25,0.1274968125796855,57,107,Electric Bass
407.25,0.1274968125796855,69,107,Electric Bass
407.25,0.0,54,84,Electric Bass
407.25,0.0,69,84,Electric Bass
407.25,0.0,42,98,Electric Bass
407.25,0.0,38,98,Electric Bass
407.25,0.1274968125796855,69,107,Electric Bass
407.25,0.1274968125796855,81,107,Electric Bass
407.5,0.254993625159371,69,93,Electric Bass
407.5,0.254993625159371,62,93,Electric Bass
407.5,0.254993625159371,66,93,Electric Bass
407.5,0.16999575010624735,73,94,Electric Bass
407.5,0.16999575010624735,50,94,Electric Bass
407.5,0.16999575010624735,59,118,Electric Bass
407.5,0.16999575010624735,71,118,Electric Bass
407.5,0.1274968125796855,62,109,Electric Bass
407.5,0.1274968125796855,54,109,Electric Bass
407.5,0.1274968125796855,69,109,Electric Bass
407.5,0.0,36,111,Electric Bass
407.5,0.0,46,111,Electric Bass
407.5,0.16999575010624735,71,118,Electric Bass
407.5,0.16999575010624735,83,118,Electric Bass
408.0,0.125,63,103,Electric Bass
408.0,0.125,70,103,Electric Bass
408.0,0.0,54,74,Electric Bass
408.0,0.0,70,74,Electric Bass
408.0,0.0,46,113,Electric Bass
408.0,0.0,38,113,Electric Bass
408.25,0.125,50,88,Electric Bass
408.25,0.125,69,88,Electric Bass
408.25,0.125,62,88,Electric Bass
408.25,0.125,73,88,Electric Bass
408.25,0.125,66,88,Electric Bass
408.25,0.0,63,88,Electric Bass
408.25,0.0,54,88,Electric Bass
408.5,0.0,64,70,Electric Bass
408.5,0.0,69,70,Electric Bass
408.75,0.0,54,82,Electric Bass
408.75,0.0,69,82,Electric Bass
409.0,0.509987250318742,63,104,Electric Bass
409.0,0.509987250318742,56,104,Electric Bass
409.0,0.509987250318742,59,104,Electric Bass
409.0,1.019974500637484,68,98,Electric Bass
409.0,1.019974500637484,64,98,Electric Bass
409.0,1.019974500637484,75,90,Electric Bass
409.0,1.019974500637484,71,90,Electric Bass
409.0,2.039949001274968,71,85,Electric Bass
409.0,2.039949001274968,68,85,Electric Bass
409.0,2.039949001274968,75,83,Electric Bass
409.0,2.039949001274968,68,83,Electric Bass
409.0,0.0,69,82,Electric Bass
409.0,0.0,54,82,Electric Bass
409.0,0.0,36,114,Electric Bass
409.0,0.0,42,114,Electric Bass
409.25,0.0,54,79,Electric Bass
409.25,0.0,69,79,Electric Bass
409.5,0.1274968125796855,62,106,Electric Bass
409.5,0.1274968125796855,54,106,Electric Bass
410.0,0.16999575010624735,68,118,Electric Bass
410.0,0.16999575010624735,56,118,Electric Bass
410.0,0.1274968125796855,63,94,Electric Bass
410.0,0.1274968125796855,54,94,Electric Bass
410.0,0.1274968125796855,70,94,Electric Bass
410.0,0.0,46,120,Electric Bass
410.0,0.0,38,120,Electric Bass
410.0,0.16999575010624735,80,118,Electric Bass
410.0,0.16999575010624735,68,118,Electric Bass
410.25,0.1274968125796855,69,97,Electric Bass
410.25,0.1274968125796855,57,97,Electric Bass
410.25,0.1274968125796855,81,97,Electric Bass
410.25,0.1274968125796855,69,97,Electric Bass
410.5,0.8499787505312367,37,102,Electric Bass
410.5,0.8499787505312367,52,102,Electric Bass
410.5,0.6799830004249894,56,103,Electric Bass
410.5,0.6799830004249894,63,103,Electric Bass
410.5,0.6799830004249894,59,103,Electric Bass
410.5,0.0,64,90,Electric Bass
410.5,0.0,69,90,Electric Bass
410.75,0.1274968125796855,71,115,Electric Bass
410.75,0.1274968125796855,59,115,Electric Bass
410.75,0.0,54,77,Electric Bass
410.75,0.0,69,77,Electric Bass
410.75,0.0,38,73,Electric Bass
410.75,0.0,42,73,Electric Bass
410.75,0.1274968125796855,83,115,Electric Bass
410.75,0.1274968125796855,71,115,Electric Bass
411.0,0.0,54,72,Electric Bass
411.0,0.0,69,72,Electric Bass
411.25,0.3399915002124947,68,125,Electric Bass
411.25,0.3399915002124947,56,125,Electric Bass
411.25,0.0,54,88,Electric Bass
411.25,0.0,69,88,Electric Bass
411.25,0.0,42,98,Electric Bass
411.25,0.0,38,98,Electric Bass
411.25,0.3399915002124947,80,125,Electric Bass
411.25,0.3399915002124947,68,125,Electric Bass
411.5,0.16999575010624735,49,88,Electric Bass
411.5,0.16999575010624735,75,88,Electric Bass
411.5,0.254993625159371,68,93,Electric Bass
411.5,0.254993625159371,71,93,Electric Bass
411.5,0.1274968125796855,62,116,Electric Bass
411.5,0.1274968125796855,54,116,Electric Bass
411.5,0.0,69,95,Electric Bass
411.5,0.0,54,95,Electric Bass
412.0,0.16999575010624735,64,115,Electric Bass
412.0,0.16999575010624735,52,115,Electric Bass
412.0,0.1274968125796855,63,102,Electric Bass
412.0,0.1274968125796855,70,102,Electric Bass
412.0,0.0,46,120,Electric Bass
412.0,0.0,38,120,Electric Bass
412.0,0.16999575010624735,76,115,Electric Bass
412.0,0.16999575010624735,64,115,Electric Bass
412.25,0.1274968125796855,49,81,Electric Bass
412.25,0.1274968125796855,75,81,Electric Bass
412.25,0.1274968125796855,71,89,Electric Bass
412.25,0.1274968125796855,68,89,Electric Bass
412.25,0.1274968125796855,64,89,Electric Bass
412.25,0.1274968125796855,75,89,Electric Bass
412.25,0.0,61,111,Electric Bass
412.25,0.0,49,111,Electric Bass
412.25,0.0,73,111,Electric Bass
412.25,0.0,61,111,Electric Bass
412.5,0.254993625159371,64,113,Electric Bass
412.5,0.254993625159371,52,113,Electric Bass
412.5,0.0,64,92,Electric Bass
412.5,0.0,69,92,Electric Bass
412.5,0.0,36,106,Electric Bass
412.5,0.0,42,106,Electric Bass
412.5,0.254993625159371,76,113,Electric Bass
412.5,0.254993625159371,64,113,Electric Bass
412.75,0.0,54,73,Electric Bass
412.75,0.0,69,73,Electric Bass
413.0,0.509987250318742,61,97,Electric Bass
413.0,0.509987250318742,57,97,Electric Bass
413.0,0.8924776880577986,66,75,Electric Bass
413.0,0.8924776880577986,62,75,Electric Bass
413.0,0.8924776880577986,69,75,Electric Bass
413.0,2.039949001274968,73,84,Electric Bass
413.0,2.039949001274968,69,84,Electric Bass
413.0,0.0,54,73,Electric Bass
413.0,0.0,69,73,Electric Bass
413.25,0.0,54,90,Electric Bass
413.25,0.0,69,90,Electric Bass
413.5,0.1274968125796855,54,107,Electric Bass
413.5,0.1274968125796855,62,107,Electric Bass
413.5,0.1274968125796855,69,107,Electric Bass
414.0,0.125,60,116,Electric Bass
414.0,0.125,72,116,Electric Bass
414.0,0.375,61,123,Electric Bass
414.0,0.375,73,123,Electric Bass
414.0,0.125,63,106,Electric Bass
414.0,0.125,70,106,Electric Bass
414.0,0.0,54,71,Electric Bass
414.0,0.0,70,71,Electric Bass
414.0,0.0,46,113,Electric Bass
414.0,0.0,38,113,Electric Bass
414.0,0.125,72,116,Electric Bass
414.0,0.125,84,116,Electric Bass
414.0,0.375,73,123,Electric Bass
414.0,0.375,85,123,Electric Bass
414.25,0.0,64,95,Electric Bass
414.25,0.0,54,95,Electric Bass
414.5,0.625,50,101,Electric Bass
414.5,0.625,57,101,Electric Bass
414.5,0.625,61,101,Electric Bass
414.5,0.0,63,87,Electric Bass
414.5,0.0,69,87,Electric Bass
414.75,0.16666666666666666,59,127,Electric Bass
414.75,0.16666666666666666,71,127,Electric Bass
414.75,0.0,54,80,Electric Bass
414.75,0.0,69,80,Electric Bass
414.75,0.0,42,78,Electric Bass
414.75,0.0,38,78,Electric Bass
414.75,0.16666666666666666,71,127,Electric Bass
414.75,0.16666666666666666,83,127,Electric Bass
415.0,0.0,54,84,Electric Bass
415.0,0.0,69,84,Electric Bass
415.25,0.1274968125796855,57,110,Electric Bass
415.25,0.1274968125796855,69,110,Electric Bass
415.25,0.0,63,95,Electric Bass
415.25,0.0,54,95,Electric Bass
415.25,0.0,69,95,Electric Bass
415.25,0.0,42,98,Electric Bass
415.25,0.0,38,98,Electric Bass
415.25,0.1274968125796855,69,110,Electric Bass
415.25,0.1274968125796855,81,110,Electric Bass
415.5,0.3399915002124947,69,94,Electric Bass
415.5,0.3399915002124947,62,94,Electric Bass
415.5,0.3399915002124947,66,94,Electric Bass
415.5,0.254993625159371,47,98,Electric Bass
415.5,0.254993625159371,73,98,Electric Bass
415.5,0.1274968125796855,59,123,Electric Bass
415.5,0.1274968125796855,71,123,Electric Bass
415.5,0.1274968125796855,54,102,Electric Bass
415.5,0.1274968125796855,69,102,Electric Bass
415.5,0.0,36,111,Electric Bass
415.5,0.0,46,111,Electric Bass
415.5,0.1274968125796855,71,123,Electric Bass
415.5,0.1274968125796855,83,123,Electric Bass
416.0,0.1274968125796855,63,89,Electric Bass
416.0,0.1274968125796855,54,89,Electric Bass
416.0,0.1274968125796855,70,89,Electric Bass
416.0,0.0,46,113,Electric Bass
416.0,0.0,38,113,Electric Bass
416.25,0.1274968125796855,47,91,Electric Bass
416.25,0.1274968125796855,66,91,Electric Bass
416.25,0.1274968125796855,69,91,Electric Bass
416.25,0.1274968125796855,73,91,Electric Bass
416.25,0.1274968125796855,62,91,Electric Bass
416.5,0.0,64,98,Electric Bass
416.5,0.0,69,98,Electric Bass
416.75,0.0,54,82,Electric Bass
416.75,0.0,69,82,Electric Bass
417.0,0.509987250318742,63,102,Electric Bass
417.0,0.509987250318742,52,102,Electric Bass
417.0,0.509987250318742,37,102,Electric Bass
417.0,0.509987250318742,56,108,Electric Bass
417.0,0.509987250318742,59,108,Electric Bass
417.0,1.019974500637484,68,92,Electric Bass
417.0,1.019974500637484,71,92,Electric Bass
417.0,1.019974500637484,49,92,Electric Bass
417.0,0.0,66,68,Electric Bass
417.0,0.0,78,68,Electric Bass
417.0,2.039949001274968,71,88,Electric Bass
417.0,2.039949001274968,64,88,Electric Bass
417.0,2.039949001274968,68,88,Electric Bass
417.0,0.0,69,82,Electric Bass
417.0,0.0,54,82,Electric Bass
417.0,0.0,36,114,Electric Bass
417.0,0.0,42,114,Electric Bass
417.25,0.0,54,79,Electric Bass
417.25,0.0,69,79,Electric Bass
417.5,0.1274968125796855,62,104,Electric Bass
417.5,0.1274968125796855,54,104,Electric Bass
418.0,0.1274968125796855,60,118,Electric Bass
418.0,0.1274968125796855,72,118,Electric Bass
418.0,0.3399915002124947,61,116,Electric Bass
418.0,0.3399915002124947,73,116,Electric Bass
418.0,0.0,54,85,Electric Bass
418.0,0.0,70,85,Electric Bass
418.0,0.0,46,120,Electric Bass
418.0,0.0,38,120,Electric Bass
418.0,0.1274968125796855,72,118,Electric Bass
418.0,0.1274968125796855,84,118,Electric Bass
418.0,0.3399915002124947,73,116,Electric Bass
418.0,0.3399915002124947,85,116,Electric Bass
418.5,0.509987250318742,56,108,Electric Bass
418.5,0.509987250318742,52,108,Electric Bass
418.5,0.0,64,69,Electric Bass
418.5,0.0,69,69,Electric Bass
418.75,0.1274968125796855,59,125,Electric Bass
418.75,0.1274968125796855,71,125,Electric Bass
418.75,0.0,54,77,Electric Bass
418.75,0.0,69,77,Electric Bass
418.75,0.0,38,73,Electric Bass
418.75,0.0,42,73,Electric Bass
418.75,0.1274968125796855,71,125,Electric Bass
418.75,0.1274968125796855,83,125,Electric Bass
419.0,0.0,54,72,Electric Bass
419.0,0.0,69,72,Electric Bass
419.25,0.1274968125796855,57,107,Electric Bass
419.25,0.1274968125796855,69,107,Electric Bass
419.25,0.0,54,88,Electric Bass
419.25,0.0,69,88,Electric Bass
419.25,0.1274968125796855,42,98,Electric Bass
419.25,0.1274968125796855,38,98,Electric Bass
419.25,0.1274968125796855,69,107,Electric Bass
419.25,0.1274968125796855,81,107,Electric Bass
419.5,0.254993625159371,68,99,Electric Bass
419.5,0.254993625159371,64,99,Electric Bass
419.5,0.254993625159371,61,99,Electric Bass
419.5,0.16999575010624735,71,90,Electric Bass
419.5,0.16999575010624735,49,90,Electric Bass
419.5,0.1274968125796855,57,121,Electric Bass
419.5,0.1274968125796855,69,121,Electric Bass
419.5,0.0,69,105,Electric Bass
419.5,0.0,62,105,Electric Bass
419.5,0.0,54,105,Electric Bass
419.5,0.1274968125796855,69,121,Electric Bass
419.5,0.1274968125796855,81,121,Electric Bass
420.0,0.1274968125796855,70,85,Electric Bass
420.0,0.1274968125796855,63,85,Electric Bass
420.0,0.1274968125796855,54,85,Electric Bass
420.0,0.0,46,120,Electric Bass
420.0,0.0,38,120,Electric Bass
420.25,0.1274968125796855,68,90,Electric Bass
420.25,0.1274968125796855,64,90,Electric Bass
420.25,0.1274968125796855,61,90,Electric Bass
420.25,0.1274968125796855,71,90,Electric Bass
420.5,0.0,64,94,Electric Bass
420.5,0.0,69,94,Electric Bass
420.5,0.0,36,106,Electric Bass
420.5,0.0,42,106,Electric Bass
420.75,2.039949001274968,73,85,Electric Bass
420.75,2.039949001274968,69,85,Electric Bass
420.75,0.0,54,73,Electric Bass
420.75,0.0,69,73,Electric Bass
421.0,0.5,57,97,Electric Bass
421.0,0.5,62,97,Electric Bass
421.0,0.5,54,103,Electric Bass
421.0,0.5,38,103,Electric Bass
421.0,0.5,62,103,Electric Bass
421.0,1.0,69,93,Electric Bass
421.0,1.0,66,93,Electric Bass
421.0,1.0,73,93,Electric Bass
421.0,1.0,50,93,Electric Bass
421.0,1.0,62,93,Electric Bass
421.0,0.0,54,73,Electric Bass
421.0,0.0,69,73,Electric Bass
421.25,0.0,54,90,Electric Bass
421.25,0.0,69,90,Electric Bass
421.5,0.125,62,106,Electric Bass
421.5,0.125,54,106,Electric Bass
421.5,0.125,69,106,Electric Bass
422.0,0.0,60,125,Electric Bass
422.0,0.0,72,125,Electric Bass
422.0,0.3399915002124947,61,120,Electric Bass
422.0,0.3399915002124947,73,120,Electric Bass
422.0,0.1274968125796855,63,100,Electric Bass
422.0,0.1274968125796855,70,100,Electric Bass
422.0,0.0,54,71,Electric Bass
422.0,0.0,70,71,Electric Bass
422.0,0.0,46,113,Electric Bass
422.0,0.0,38,113,Electric Bass
422.0,0.0,72,125,Electric Bass
422.0,0.0,84,125,Electric Bass
422.0,0.3399915002124947,73,120,Electric Bass
422.0,0.3399915002124947,85,120,Electric Bass
422.5,0.3399915002124947,61,103,Electric Bass
422.5,0.3399915002124947,57,103,Electric Bass
422.5,0.3399915002124947,62,103,Electric Bass
422.5,0.0,64,96,Electric Bass
422.5,0.0,69,96,Electric Bass
422.75,0.1274968125796855,59,121,Electric Bass
422.75,0.1274968125796855,71,121,Electric Bass
422.75,0.0,54,80,Electric Bass
422.75,0.0,69,80,Electric Bass
422.75,0.0,42,78,Electric Bass
422.75,0.0,38,78,Electric Bass
422.75,0.1274968125796855,71,121,Electric Bass
422.75,0.1274968125796855,83,121,Electric Bass
423.0,0.0,54,84,Electric Bass
423.0,0.0,69,84,Electric Bass
423.25,0.1274968125796855,57,107,Electric Bass
423.25,0.1274968125796855,69,107,Electric Bass
423.25,0.0,54,84,Electric Bass
423.25,0.0,69,84,Electric Bass
423.25,0.0,42,98,Electric Bass
423.25,0.0,38,98,Electric Bass
423.25,0.1274968125796855,69,107,Electric Bass
423.25,0.1274968125796855,81,107,Electric Bass
423.5,0.254993625159371,69,95,Electric Bass
423.5,0.254993625159371,62,95,Electric Bass
423.5,0.254993625159371,66,95,Electric Bass
423.5,0.16999575010624735,73,97,Electric Bass
423.5,0.16999575010624735,50,97,Electric Bass
423.5,0.16999575010624735,59,118,Electric Bass
423.5,0.16999575010624735,71,118,Electric Bass
423.5,0.1274968125796855,62,109,Electric Bass
423.5,0.1274968125796855,54,109,Electric Bass
423.5,0.1274968125796855,69,109,Electric Bass
423.5,0.0,36,111,Electric Bass
423.5,0.0,46,111,Electric Bass
423.5,0.16999575010624735,71,118,Electric Bass
423.5,0.16999575010624735,83,118,Electric Bass
424.0,0.1274968125796855,63,103,Electric Bass
424.0,0.1274968125796855,70,103,Electric Bass
424.0,0.0,54,74,Electric Bass
424.0,0.0,70,74,Electric Bass
424.0,0.0,46,113,Electric Bass
424.0,0.0,38,113,Electric Bass
424.25,0.1274968125796855,50,88,Electric Bass
424.25,0.1274968125796855,73,88,Electric Bass
424.25,0.16999575010624735,69,83,Electric Bass
424.25,0.16999575010624735,62,83,Electric Bass
424.25,0.16999575010624735,66,83,Electric Bass
424.25,0.0,63,88,Electric Bass
424.25,0.0,54,88,Electric Bass
424.5,0.0,64,70,Electric Bass
424.5,0.0,69,70,Electric Bass
424.75,0.0,54,82,Electric Bass
424.75,0.0,69,82,Electric Bass
425.0,0.3399915002124947,50,107,Electric Bass
425.0,0.3399915002124947,61,107,Electric Bass
425.0,0.3399915002124947,38,107,Electric Bass
425.0,0.3399915002124947,56,107,Electric Bass
425.0,0.3399915002124947,54,107,Electric Bass
425.0,0.254993625159371,69,88,Electric Bass
425.0,0.254993625159371,62,88,Electric Bass
425.0,0.16999575010624735,50,94,Electric Bass
425.0,0.16999575010624735,73,94,Electric Bass
425.0,0.38249043773905655,73,119,Electric Bass
425.0,0.38249043773905655,69,119,Electric Bass
425.0,0.3399915002124947,69,82,Electric Bass
425.0,0.3399915002124947,66,82,Electric Bass
425.0,0.3399915002124947,73,82,Electric Bass
425.0,0.0,69,82,Electric Bass
425.0,0.0,54,82,Electric Bass
425.0,0.0,36,114,Electric Bass
425.0,0.0,42,114,Electric Bass
425.0,0.38249043773905655,85,119,Electric Bass
425.0,0.38249043773905655,81,119,Electric Bass
425.25,0.0,54,79,Electric Bass
425.25,0.0,69,79,Electric Bass
425.5,0.1274968125796855,62,106,Electric Bass
425.5,0.1274968125796855,54,106,Electric Bass
425.75,0.254993625159371,38,108,Electric Bass
425.75,0.254993625159371,50,108,Electric Bass
425.75,0.254993625159371,61,108,Electric Bass
425.75,0.254993625159371,56,108,Electric Bass
425.75,0.254993625159371,54,108,Electric Bass
425.75,0.1274968125796855,50,86,Electric Bass
425.75,0.1274968125796855,69,86,Electric Bass
425.75,0.1274968125796855,62,86,Electric Bass
425.75,0.1274968125796855,66,86,Electric Bass
425.75,0.1274968125796855,73,88,Electric Bass
425.75,0.1274968125796855,62,88,Electric Bass
425.75,0.1274968125796855,66,88,Electric Bass
425.75,0.38249043773905655,76,103,Electric Bass
425.75,0.38249043773905655,73,103,Electric Bass
425.75,0.3399915002124947,69,87,Electric Bass
425.75,0.3399915002124947,73,87,Electric Bass
425.75,0.38249043773905655,88,103,Electric Bass
425.75,0.38249043773905655,85,103,Electric Bass
426.0,0.1274968125796855,63,94,Electric Bass
426.0,0.1274968125796855,54,94,Electric Bass
426.0,0.1274968125796855,70,94,Electric Bass
426.0,0.1274968125796855,46,120,Electric Bass
426.0,0.1274968125796855,38,120,Electric Bass
426.5,5.269868253293668,38,98,Electric Bass
426.5,5.269868253293668,50,98,Electric Bass
426.5,5.269868253293668,61,109,Electric Bass
426.5,5.269868253293668,54,109,Electric Bass
426.5,5.269868253293668,56,109,Electric Bass
426.5,1.5299617509562262,73,104,Electric Bass
426.5,1.5299617509562262,62,104,Electric Bass
426.5,1.5299617509562262,68,104,Electric Bass
426.5,1.5299617509562262,66,104,Electric Bass
426.5,1.5299617509562262,50,104,Electric Bass
426.5,5.354866128346791,68,96,Electric Bass
426.5,5.354866128346791,66,96,Electric Bass
426.5,7.39481512962176,73,87,Electric Bass
426.5,7.39481512962176,66,87,Electric Bass
426.5,7.39481512962176,68,87,Electric Bass
426.5,0.0,64,90,Electric Bass
426.5,0.0,69,90,Electric Bass
426.5,5.354866128346791,80,96,Electric Bass
426.5,5.354866128346791,78,96,Electric Bass
426.75,0.1274968125796855,54,90,Electric Bass
426.75,0.1274968125796855,69,90,Electric Bass
426.75,0.1274968125796855,38,73,Electric Bass
426.75,0.1274968125796855,42,73,Electric Bass
