Start,Duration,Pitch,Velocity,Instrument
8.0,2.565451914221813,83,101,Piano
8.0,2.565451914221813,76,101,Piano
8.0,2.565451914221813,86,101,Piano
16.0,2.762794369161952,64,94,Piano
16.0,2.762794369161952,74,94,Piano
16.0,2.762794369161952,71,94,Piano
20.0,6.117616103144322,46,91,Piano
20.0,6.117616103144322,57,91,Piano
20.0,2.565451914221813,72,95,Piano
20.0,2.565451914221813,65,95,Piano
20.0,2.565451914221813,64,92,Piano
20.0,2.565451914221813,65,92,Piano
20.0,6.314958558084462,53,96,Piano
20.0,6.314958558084462,57,96,Piano
20.0,6.314958558084462,60,96,Piano
20.0,6.314958558084462,64,96,Piano
20.0,6.314958558084462,53,80,Piano
20.0,6.314958558084462,64,80,Piano
20.0,6.314958558084462,46,80,Piano
20.0,6.314958558084462,57,80,Piano
20.0,6.314958558084462,53,60,Piano
20.0,6.314958558084462,64,60,Piano
20.0,6.314958558084462,46,60,Piano
20.0,6.314958558084462,57,60,Piano
20.0,0.0,49,78,Piano
20.0,0.0,36,78,Piano
28.0,0.5920273648204183,88,100,Piano
28.0,0.5920273648204183,81,100,Piano
32.0,0.5920273648204183,84,103,Piano
32.0,0.5920273648204183,77,103,Piano
32.0,1.1840547296408366,62,80,Piano
32.0,1.1840547296408366,69,80,Piano
33.0,0.3946849098802789,77,84,Piano
33.0,0.3946849098802789,72,84,Piano
34.0,0.7893698197605578,71,89,Piano
34.0,0.7893698197605578,55,89,Piano
35.0,0.3946849098802789,72,90,Piano
35.0,0.3946849098802789,57,90,Piano
37.5,0.3946849098802789,74,90,Piano
37.5,0.3946849098802789,71,90,Piano
38.0,0.7893698197605578,76,86,Piano
38.0,0.7893698197605578,69,86,Piano
39.0,0.5920273648204183,72,91,Piano
39.0,0.5920273648204183,79,91,Piano
40.0,1.1840547296408366,78,98,Piano
40.0,1.1840547296408366,72,98,Piano
43.0,0.19734245494013944,71,87,Piano
43.0,0.19734245494013944,79,87,Piano
43.0,0.19734245494013944,76,87,Piano
43.5,0.19734245494013944,69,87,Piano
43.5,0.19734245494013944,74,87,Piano
43.5,0.19734245494013944,77,87,Piano
44.0,1.1840547296408366,76,92,Piano
44.0,1.1840547296408366,67,92,Piano
44.0,1.1840547296408366,72,92,Piano
44.0,1.1840547296408366,60,92,Piano
44.0,0.0,36,85,Piano
44.0,0.0,42,85,Piano
45.0,0.0,37,64,Piano
45.0,0.0,42,64,Piano
46.0,1.1840547296408366,74,88,Piano
46.0,1.1840547296408366,58,88,Piano
46.0,1.381397184580976,64,87,Piano
46.0,1.381397184580976,48,87,Piano
46.0,1.381397184580976,69,87,Piano
46.0,0.0,36,78,Piano
46.0,0.0,42,78,Piano
47.0,0.7893698197605578,58,91,Piano
47.0,0.7893698197605578,60,91,Piano
47.0,0.7893698197605578,64,91,Piano
47.0,0.0,37,64,Piano
47.0,0.0,42,64,Piano
48.0,1.1840547296408366,72,88,Piano
48.0,1.1840547296408366,57,88,Piano
48.0,1.1840547296408366,64,88,Piano
48.0,0.0,36,85,Piano
48.0,0.0,42,85,Piano
49.0,0.0,37,64,Piano
49.0,0.0,42,64,Piano
50.0,0.5262465465070385,62,87,Piano
50.0,0.5262465465070385,52,87,Piano
50.0,0.5262465465070385,59,87,Piano
50.0,0.0,36,78,Piano
50.0,0.0,42,78,Piano
51.0,0.3946849098802789,57,92,Piano
51.0,0.3946849098802789,66,92,Piano
51.0,0.3946849098802789,51,92,Piano
51.0,0.7893698197605578,57,88,Piano
51.0,0.7893698197605578,60,88,Piano
51.0,0.0,37,64,Piano
51.0,0.0,42,64,Piano
52.0,1.1840547296408366,50,87,Piano
52.0,1.1840547296408366,57,87,Piano
52.0,1.381397184580976,65,92,Piano
52.0,1.381397184580976,60,92,Piano
52.0,0.0,36,92,Piano
52.0,0.0,51,92,Piano
54.0,0.9867122747006972,56,88,Piano
54.0,0.9867122747006972,49,88,Piano
54.0,0.9867122747006972,60,88,Piano
54.0,0.0,36,71,Piano
54.0,0.0,49,71,Piano
55.0,0.7893698197605578,61,93,Piano
55.0,0.7893698197605578,65,93,Piano
56.0,2.960136824102092,62,81,Piano
56.0,2.960136824102092,55,81,Piano
56.0,2.960136824102092,48,81,Piano
56.0,0.0,36,85,Piano
56.0,0.0,42,85,Piano
57.0,0.0,37,64,Piano
57.0,0.0,42,64,Piano
58.0,1.381397184580976,55,88,Piano
58.0,1.381397184580976,64,88,Piano
58.0,1.3156163662675964,60,83,Piano
58.0,1.3156163662675964,64,83,Piano
58.0,0.0,36,85,Piano
58.0,0.0,42,85,Piano
60.0,1.5787396395211155,65,96,Piano
60.0,1.5787396395211155,69,96,Piano
60.0,1.5787396395211155,62,96,Piano
60.0,0.0,36,78,Piano
60.0,0.0,45,78,Piano
61.0,0.5920273648204183,46,90,Piano
61.0,0.5920273648204183,53,90,Piano
61.0,0.5920273648204183,57,90,Piano
61.0,0.5920273648204183,62,90,Piano
61.0,0.0,42,71,Piano
61.0,0.0,37,71,Piano
62.0,1.381397184580976,64,94,Piano
62.0,1.381397184580976,57,94,Piano
62.0,1.381397184580976,60,94,Piano
62.0,1.381397184580976,67,94,Piano
62.0,0.0,36,78,Piano
62.0,0.0,45,78,Piano
63.0,0.7893698197605578,45,96,Piano
63.0,0.7893698197605578,52,96,Piano
63.0,0.7893698197605578,55,96,Piano
63.0,0.7893698197605578,60,96,Piano
63.0,0.0,42,71,Piano
63.0,0.0,37,71,Piano
64.0,1.381397184580976,62,89,Piano
64.0,1.381397184580976,65,89,Piano
64.0,1.5787396395211155,69,98,Piano
64.0,1.5787396395211155,58,98,Piano
64.0,0.0,36,78,Piano
64.0,0.0,45,78,Piano
65.0,0.5920273648204183,46,90,Piano
65.0,0.5920273648204183,53,90,Piano
65.0,0.5920273648204183,57,90,Piano
65.0,0.5920273648204183,62,90,Piano
65.0,0.0,42,71,Piano
65.0,0.0,37,71,Piano
66.0,1.381397184580976,57,89,Piano
66.0,1.381397184580976,60,89,Piano
66.0,1.381397184580976,67,89,Piano
66.0,1.381397184580976,64,89,Piano
66.0,0.0,36,78,Piano
66.0,0.0,45,78,Piano
67.0,0.7893698197605578,45,96,Piano
67.0,0.7893698197605578,52,96,Piano
67.0,0.7893698197605578,55,96,Piano
67.0,0.7893698197605578,60,96,Piano
67.0,0.0,42,71,Piano
67.0,0.0,37,71,Piano
68.0,1.381397184580976,69,94,Piano
68.0,1.381397184580976,62,94,Piano
68.0,1.381397184580976,65,94,Piano
68.0,0.0,36,78,Piano
68.0,0.0,45,78,Piano
69.0,0.5920273648204183,46,90,Piano
69.0,0.5920273648204183,53,90,Piano
69.0,0.5920273648204183,57,90,Piano
69.0,0.5920273648204183,62,90,Piano
69.0,0.0,42,71,Piano
69.0,0.0,37,71,Piano
70.0,1.381397184580976,67,86,Piano
70.0,1.381397184580976,60,86,Piano
70.0,1.381397184580976,64,86,Piano
70.0,1.381397184580976,57,86,Piano
70.0,0.0,36,78,Piano
70.0,0.0,45,78,Piano
71.0,0.7893698197605578,45,96,Piano
71.0,0.7893698197605578,52,96,Piano
71.0,0.7893698197605578,55,96,Piano
71.0,0.7893698197605578,60,96,Piano
71.0,0.0,42,71,Piano
71.0,0.0,37,71,Piano
72.0,1.3156163662675964,62,88,Piano
72.0,1.3156163662675964,69,88,Piano
72.0,1.3156163662675964,65,88,Piano
72.0,0.0,36,78,Piano
72.0,0.0,45,78,Piano
73.0,0.5920273648204183,46,90,Piano
73.0,0.5920273648204183,53,90,Piano
73.0,0.5920273648204183,57,90,Piano
73.0,0.5920273648204183,62,90,Piano
73.0,0.0,42,71,Piano
73.0,0.0,37,71,Piano
74.0,1.381397184580976,67,84,Piano
74.0,1.381397184580976,60,84,Piano
74.0,1.381397184580976,64,84,Piano
74.0,1.381397184580976,57,84,Piano
74.0,0.0,36,78,Piano
74.0,0.0,45,78,Piano
75.0,0.7893698197605578,45,96,Piano
75.0,0.7893698197605578,52,96,Piano
75.0,0.7893698197605578,55,96,Piano
75.0,0.7893698197605578,60,96,Piano
75.0,0.0,42,71,Piano
75.0,0.0,37,71,Piano
76.0,1.3156163662675964,62,90,Piano
76.0,1.3156163662675964,65,90,Piano
76.0,0.0,36,78,Piano
76.0,0.0,45,78,Piano
77.0,0.5920273648204183,46,90,Piano
77.0,0.5920273648204183,53,90,Piano
77.0,0.5920273648204183,57,90,Piano
77.0,0.5920273648204183,62,90,Piano
77.0,0.0,42,71,Piano
77.0,0.0,37,71,Piano
78.0,1.381397184580976,67,87,Piano
78.0,1.381397184580976,60,87,Piano
78.0,1.381397184580976,57,87,Piano
78.0,1.381397184580976,64,87,Piano
79.0,0.7893698197605578,45,96,Piano
79.0,0.7893698197605578,52,96,Piano
79.0,0.7893698197605578,55,96,Piano
79.0,0.7893698197605578,60,96,Piano
79.0,0.0,42,71,Piano
79.0,0.0,37,71,Piano
80.0,1.381397184580976,62,91,Piano
80.0,1.381397184580976,69,91,Piano
80.0,1.381397184580976,65,91,Piano
80.0,0.0,36,78,Piano
80.0,0.0,45,78,Piano
81.0,0.5920273648204183,46,90,Piano
81.0,0.5920273648204183,53,90,Piano
81.0,0.5920273648204183,57,90,Piano
81.0,0.5920273648204183,62,90,Piano
81.0,0.0,42,71,Piano
81.0,0.0,37,71,Piano
82.0,1.3156163662675964,57,84,Piano
82.0,1.3156163662675964,67,84,Piano
82.0,1.3156163662675964,60,84,Piano
82.0,1.3156163662675964,64,84,Piano
82.0,0.0,36,78,Piano
82.0,0.0,45,78,Piano
83.0,0.7893698197605578,45,96,Piano
83.0,0.7893698197605578,52,96,Piano
83.0,0.7893698197605578,55,96,Piano
83.0,0.7893698197605578,60,96,Piano
83.0,0.0,42,71,Piano
83.0,0.0,37,71,Piano
84.0,1.381397184580976,62,92,Piano
84.0,1.381397184580976,69,92,Piano
84.0,1.381397184580976,65,92,Piano
84.0,0.0,36,78,Piano
84.0,0.0,45,78,Piano
85.0,0.5920273648204183,46,90,Piano
85.0,0.5920273648204183,53,90,Piano
85.0,0.5920273648204183,57,90,Piano
85.0,0.5920273648204183,62,90,Piano
85.0,0.0,42,71,Piano
85.0,0.0,37,71,Piano
86.0,1.381397184580976,60,86,Piano
86.0,1.381397184580976,57,86,Piano
86.0,0.0,36,78,Piano
86.0,0.0,45,78,Piano
87.0,0.7893698197605578,45,96,Piano
87.0,0.7893698197605578,52,96,Piano
87.0,0.7893698197605578,55,96,Piano
87.0,0.7893698197605578,60,96,Piano
87.0,0.0,42,71,Piano
87.0,0.0,37,71,Piano
88.0,1.9734245494013944,62,94,Piano
88.0,1.9734245494013944,65,94,Piano
88.0,1.9734245494013944,60,94,Piano
88.0,2.104986186028154,57,94,Piano
88.0,2.104986186028154,65,94,Piano
88.0,2.104986186028154,60,94,Piano
88.0,2.170767004341534,50,92,Piano
88.0,2.170767004341534,57,92,Piano
88.0,2.170767004341534,60,92,Piano
88.0,2.170767004341534,65,92,Piano
88.0,0.0,36,92,Piano
88.0,0.0,51,92,Piano
91.0,0.7893698197605578,65,93,Piano
91.0,0.7893698197605578,63,93,Piano
91.0,0.7893698197605578,49,93,Piano
91.0,0.7893698197605578,60,93,Piano
91.0,0.7893698197605578,56,93,Piano
91.0,0.5920273648204183,49,89,Piano
91.0,0.5920273648204183,53,89,Piano
91.0,0.5920273648204183,56,89,Piano
91.0,0.5920273648204183,63,89,Piano
91.0,0.0,36,38,Piano
91.0,0.0,46,38,Piano
92.0,2.8943560057887114,64,88,Piano
92.0,2.8943560057887114,55,88,Piano
92.0,2.8943560057887114,62,88,Piano
92.0,2.8943560057887114,59,88,Piano
92.0,2.8943560057887114,48,88,Piano
92.0,0.0,36,72,Piano
92.0,0.0,42,72,Piano
92.0,0.0,49,72,Piano
96.0,1.381397184580976,60,82,Piano
96.0,1.381397184580976,53,82,Piano
96.0,0.0,36,85,Piano
96.0,0.0,42,85,Piano
97.0,0.0,42,64,Piano
97.0,0.0,38,64,Piano
97.5,0.0,36,57,Piano
97.5,0.0,42,57,Piano
98.0,1.3156163662675964,52,88,Piano
98.0,1.3156163662675964,59,88,Piano
98.0,0.0,36,85,Piano
98.0,0.0,42,85,Piano
99.0,0.7893698197605578,60,88,Piano
99.0,0.7893698197605578,64,88,Piano
99.0,0.0,42,64,Piano
99.0,0.0,38,64,Piano
99.5,0.0,36,57,Piano
99.5,0.0,42,57,Piano
100.0,0.0,36,85,Piano
100.0,0.0,42,85,Piano
101.0,0.0,42,64,Piano
101.0,0.0,38,64,Piano
101.5,0.0,36,57,Piano
101.5,0.0,42,57,Piano
102.0,0.0,36,85,Piano
102.0,0.0,42,85,Piano
102.5,0.3946849098802789,59,93,Piano
102.5,0.3946849098802789,67,93,Piano
103.0,0.3946849098802789,60,88,Piano
103.0,0.3946849098802789,45,88,Piano
103.0,0.0,42,64,Piano
103.0,0.0,38,64,Piano
103.5,0.26312327325351925,62,86,Piano
103.5,0.26312327325351925,47,86,Piano
104.0,0.0,36,85,Piano
104.0,0.0,42,85,Piano
105.0,0.0,42,64,Piano
105.0,0.0,38,64,Piano
105.5,0.3946849098802789,62,92,Piano
105.5,0.3946849098802789,59,92,Piano
105.5,0.0,36,57,Piano
105.5,0.0,42,57,Piano
106.0,0.0,36,85,Piano
106.0,0.0,42,85,Piano
107.0,0.7893698197605578,57,91,Piano
107.0,0.7893698197605578,60,91,Piano
107.0,0.7893698197605578,64,91,Piano
107.0,0.0,42,64,Piano
107.0,0.0,38,64,Piano
107.5,0.0,36,57,Piano
107.5,0.0,42,57,Piano
108.0,0.0,36,85,Piano
108.0,0.0,42,85,Piano
109.0,0.0,42,64,Piano
109.0,0.0,38,64,Piano
109.5,0.0,36,57,Piano
109.5,0.0,42,57,Piano
110.0,0.5920273648204183,69,95,Piano
110.0,0.5920273648204183,65,95,Piano
110.0,0.5920273648204183,60,95,Piano
110.0,0.0,36,85,Piano
110.0,0.0,42,85,Piano
111.0,0.19734245494013944,67,91,Piano
111.0,0.19734245494013944,59,91,Piano
111.0,0.19734245494013944,64,91,Piano
111.0,0.7893698197605578,60,93,Piano
111.0,0.7893698197605578,65,93,Piano
111.5,0.19734245494013944,57,87,Piano
111.5,0.19734245494013944,65,87,Piano
111.5,0.19734245494013944,62,87,Piano
112.0,2.368109459281673,60,71,Piano
112.0,2.368109459281673,64,71,Piano
112.0,0.0,36,71,Piano
112.0,0.0,49,71,Piano
113.0,0.0,42,64,Piano
113.0,0.0,38,64,Piano
113.5,0.0,36,57,Piano
113.5,0.0,42,57,Piano
114.0,0.0,36,85,Piano
114.0,0.0,42,85,Piano
115.0,0.7893698197605578,58,91,Piano
115.0,0.7893698197605578,60,91,Piano
115.0,0.7893698197605578,64,91,Piano
115.0,0.7893698197605578,67,75,Piano
115.0,0.7893698197605578,64,75,Piano
115.0,0.0,42,64,Piano
115.0,0.0,38,64,Piano
116.0,1.5787396395211155,69,77,Piano
116.0,1.5787396395211155,65,77,Piano
116.0,0.0,36,85,Piano
116.0,0.0,42,85,Piano
117.0,0.0,42,64,Piano
117.0,0.0,38,64,Piano
117.5,0.0,36,57,Piano
117.5,0.0,42,57,Piano
118.0,0.7893698197605578,67,72,Piano
118.0,0.7893698197605578,71,72,Piano
118.0,0.0,36,85,Piano
118.0,0.0,42,85,Piano
119.0,0.5920273648204183,66,88,Piano
119.0,0.5920273648204183,60,88,Piano
119.0,0.7893698197605578,57,88,Piano
119.0,0.7893698197605578,60,88,Piano
119.0,0.7893698197605578,72,74,Piano
119.0,0.7893698197605578,69,74,Piano
119.0,0.0,36,78,Piano
119.0,0.0,46,78,Piano
120.0,1.1840547296408366,57,84,Piano
120.0,1.1840547296408366,50,84,Piano
120.0,0.0,36,85,Piano
120.0,0.0,42,85,Piano
121.0,0.0,42,64,Piano
121.0,0.0,38,64,Piano
121.5,0.0,36,57,Piano
121.5,0.0,42,57,Piano
122.0,1.1840547296408366,56,88,Piano
122.0,1.1840547296408366,49,88,Piano
122.0,0.0,36,85,Piano
122.0,0.0,42,85,Piano
123.0,0.7893698197605578,61,93,Piano
123.0,0.7893698197605578,65,93,Piano
123.0,0.0,42,64,Piano
123.0,0.0,38,64,Piano
123.5,0.0,36,57,Piano
123.5,0.0,42,57,Piano
124.0,2.960136824102092,55,81,Piano
124.0,2.960136824102092,48,81,Piano
124.0,2.565451914221813,67,60,Piano
124.0,2.565451914221813,64,60,Piano
124.0,0.0,36,85,Piano
124.0,0.0,42,85,Piano
125.0,0.0,42,64,Piano
125.0,0.0,38,64,Piano
125.5,0.0,36,57,Piano
125.5,0.0,42,57,Piano
126.0,1.381397184580976,72,72,Piano
126.0,1.381397184580976,64,72,Piano
126.0,1.381397184580976,55,88,Piano
126.0,1.381397184580976,64,88,Piano
126.0,1.3156163662675964,60,83,Piano
126.0,1.3156163662675964,64,83,Piano
126.0,0.0,36,85,Piano
126.0,0.0,51,85,Piano
128.0,1.3156163662675964,62,95,Piano
128.0,1.3156163662675964,69,95,Piano
128.0,1.3156163662675964,65,95,Piano
128.0,0.0,36,78,Piano
128.0,0.0,45,78,Piano
129.0,0.5920273648204183,46,90,Piano
129.0,0.5920273648204183,53,90,Piano
129.0,0.5920273648204183,57,90,Piano
129.0,0.5920273648204183,62,90,Piano
129.0,0.0,42,71,Piano
129.0,0.0,37,71,Piano
130.0,1.381397184580976,64,87,Piano
130.0,1.381397184580976,67,87,Piano
130.0,1.381397184580976,60,87,Piano
130.0,0.0,36,78,Piano
130.0,0.0,45,78,Piano
131.0,0.7893698197605578,45,96,Piano
131.0,0.7893698197605578,52,96,Piano
131.0,0.7893698197605578,55,96,Piano
131.0,0.7893698197605578,60,96,Piano
131.0,0.0,42,71,Piano
131.0,0.0,37,71,Piano
132.0,1.3156163662675964,69,88,Piano
132.0,1.3156163662675964,62,88,Piano
132.0,1.3156163662675964,65,88,Piano
132.0,0.0,36,78,Piano
132.0,0.0,45,78,Piano
133.0,0.5920273648204183,46,90,Piano
133.0,0.5920273648204183,53,90,Piano
133.0,0.5920273648204183,57,90,Piano
133.0,0.5920273648204183,62,90,Piano
133.0,0.0,42,71,Piano
133.0,0.0,37,71,Piano
134.0,1.381397184580976,67,85,Piano
134.0,1.381397184580976,57,85,Piano
134.0,1.381397184580976,60,85,Piano
134.0,0.0,36,78,Piano
134.0,0.0,45,78,Piano
135.0,0.7893698197605578,45,96,Piano
135.0,0.7893698197605578,52,96,Piano
135.0,0.7893698197605578,55,96,Piano
135.0,0.7893698197605578,60,96,Piano
135.0,0.0,42,71,Piano
135.0,0.0,37,71,Piano
136.0,1.381397184580976,62,91,Piano
136.0,1.381397184580976,69,91,Piano
136.0,1.381397184580976,65,91,Piano
136.0,0.0,36,78,Piano
136.0,0.0,45,78,Piano
137.0,0.5920273648204183,46,90,Piano
137.0,0.5920273648204183,53,90,Piano
137.0,0.5920273648204183,57,90,Piano
137.0,0.5920273648204183,62,90,Piano
137.0,0.0,42,71,Piano
137.0,0.0,37,71,Piano
138.0,1.381397184580976,67,86,Piano
138.0,1.381397184580976,64,86,Piano
138.0,0.0,36,78,Piano
138.0,0.0,45,78,Piano
139.0,0.7893698197605578,45,96,Piano
139.0,0.7893698197605578,52,96,Piano
139.0,0.7893698197605578,55,96,Piano
139.0,0.7893698197605578,60,96,Piano
139.0,0.0,42,71,Piano
139.0,0.0,37,71,Piano
140.0,1.381397184580976,62,91,Piano
140.0,1.381397184580976,69,91,Piano
140.0,1.381397184580976,65,91,Piano
140.0,0.0,36,78,Piano
140.0,0.0,45,78,Piano
141.0,0.5920273648204183,46,90,Piano
141.0,0.5920273648204183,53,90,Piano
141.0,0.5920273648204183,57,90,Piano
141.0,0.5920273648204183,62,90,Piano
141.0,0.0,42,71,Piano
141.0,0.0,37,71,Piano
142.0,1.381397184580976,60,83,Piano
142.0,1.381397184580976,67,83,Piano
142.0,1.381397184580976,57,83,Piano
142.0,1.381397184580976,64,83,Piano
142.0,0.0,36,78,Piano
142.0,0.0,45,78,Piano
143.0,0.7893698197605578,45,96,Piano
143.0,0.7893698197605578,52,96,Piano
143.0,0.7893698197605578,55,96,Piano
143.0,0.7893698197605578,60,96,Piano
143.0,0.0,42,71,Piano
143.0,0.0,37,71,Piano
144.0,1.3156163662675964,69,96,Piano
144.0,1.3156163662675964,62,96,Piano
144.0,1.3156163662675964,65,96,Piano
144.0,0.0,36,78,Piano
144.0,0.0,45,78,Piano
145.0,0.5920273648204183,46,90,Piano
145.0,0.5920273648204183,53,90,Piano
145.0,0.5920273648204183,57,90,Piano
145.0,0.5920273648204183,62,90,Piano
145.0,0.0,42,71,Piano
145.0,0.0,37,71,Piano
146.0,1.5787396395211155,67,92,Piano
146.0,1.5787396395211155,60,92,Piano
146.0,1.5787396395211155,64,92,Piano
146.0,0.0,36,78,Piano
146.0,0.0,45,78,Piano
147.0,0.7893698197605578,45,96,Piano
147.0,0.7893698197605578,52,96,Piano
147.0,0.7893698197605578,55,96,Piano
147.0,0.7893698197605578,60,96,Piano
147.0,0.0,42,71,Piano
147.0,0.0,37,71,Piano
148.0,1.3156163662675964,62,92,Piano
148.0,1.3156163662675964,69,92,Piano
148.0,1.3156163662675964,65,92,Piano
148.0,0.0,36,78,Piano
148.0,0.0,45,78,Piano
149.0,0.5920273648204183,46,90,Piano
149.0,0.5920273648204183,53,90,Piano
149.0,0.5920273648204183,57,90,Piano
149.0,0.5920273648204183,62,90,Piano
149.0,0.0,42,71,Piano
149.0,0.0,37,71,Piano
150.0,1.381397184580976,67,86,Piano
150.0,1.381397184580976,64,86,Piano
150.0,1.381397184580976,60,86,Piano
150.0,1.381397184580976,57,86,Piano
150.0,0.0,36,78,Piano
150.0,0.0,45,78,Piano
151.0,0.7893698197605578,45,96,Piano
151.0,0.7893698197605578,52,96,Piano
151.0,0.7893698197605578,55,96,Piano
151.0,0.7893698197605578,60,96,Piano
151.0,0.0,42,71,Piano
151.0,0.0,37,71,Piano
152.0,1.3156163662675964,69,93,Piano
152.0,1.3156163662675964,65,93,Piano
152.0,1.3156163662675964,64,93,Piano
152.0,1.5787396395211155,81,62,Piano
152.0,1.5787396395211155,88,62,Piano
152.0,0.0,36,78,Piano
152.0,0.0,45,78,Piano
153.0,0.7893698197605578,57,89,Piano
153.0,0.7893698197605578,60,89,Piano
153.0,0.7893698197605578,64,89,Piano
153.0,0.0,42,71,Piano
153.0,0.0,37,71,Piano
154.0,1.3156163662675964,67,90,Piano
154.0,1.3156163662675964,64,90,Piano
154.0,1.3156163662675964,59,90,Piano
154.0,1.3156163662675964,62,90,Piano
154.0,1.5787396395211155,79,66,Piano
154.0,1.5787396395211155,86,66,Piano
154.0,0.0,36,78,Piano
154.0,0.0,45,78,Piano
155.0,0.7893698197605578,52,96,Piano
155.0,0.7893698197605578,55,96,Piano
155.0,0.7893698197605578,59,96,Piano
155.0,0.7893698197605578,62,96,Piano
155.0,0.0,42,71,Piano
155.0,0.0,37,71,Piano
156.0,1.776082094461255,62,88,Piano
156.0,1.776082094461255,60,88,Piano
156.0,1.9734245494013944,50,91,Piano
156.0,1.9734245494013944,53,91,Piano
156.0,1.9734245494013944,57,91,Piano
156.0,1.9734245494013944,60,91,Piano
156.0,3.157479279042231,77,66,Piano
156.0,3.157479279042231,84,66,Piano
156.0,0.0,36,78,Piano
156.0,0.0,48,78,Piano
157.0,0.0,42,71,Piano
157.0,0.0,37,71,Piano
159.0,0.5920273648204183,56,93,Piano
159.0,0.5920273648204183,63,93,Piano
159.0,0.5920273648204183,65,93,Piano
159.0,0.5920273648204183,49,96,Piano
159.0,0.5920273648204183,56,96,Piano
159.0,0.5920273648204183,60,96,Piano
159.0,0.5920273648204183,53,93,Piano
159.0,0.5920273648204183,56,93,Piano
159.0,0.5920273648204183,60,93,Piano
159.0,0.0,42,85,Piano
159.0,0.0,36,85,Piano
160.0,3.157479279042231,64,89,Piano
160.0,3.157479279042231,62,89,Piano
160.0,2.960136824102092,55,84,Piano
160.0,2.960136824102092,59,84,Piano
160.0,6.051835284830943,48,90,Piano
160.0,6.051835284830943,52,90,Piano
160.0,6.051835284830943,55,90,Piano
160.0,6.051835284830943,60,90,Piano
160.0,6.314958558084462,83,62,Piano
160.0,6.314958558084462,76,62,Piano
160.0,0.0,49,71,Piano
160.0,0.0,36,71,Piano
165.0,0.7893698197605578,86,98,Piano
165.0,0.7893698197605578,79,98,Piano
166.0,0.5262465465070385,83,93,Piano
166.0,0.5262465465070385,76,93,Piano
167.0,0.3946849098802789,72,86,Piano
167.0,0.3946849098802789,79,86,Piano
168.0,1.052493093014077,76,96,Piano
168.0,1.052493093014077,69,96,Piano
168.0,1.1840547296408366,64,87,Piano
168.0,1.1840547296408366,69,87,Piano
168.0,1.381397184580976,41,93,Piano
168.0,1.381397184580976,64,93,Piano
168.0,0.0,36,85,Piano
168.0,0.0,42,85,Piano
169.5,0.0,36,57,Piano
169.5,0.0,42,57,Piano
170.0,1.052493093014077,74,94,Piano
170.0,1.052493093014077,67,94,Piano
170.0,1.1840547296408366,62,88,Piano
170.0,1.1840547296408366,67,88,Piano
170.0,1.381397184580976,41,93,Piano
170.0,1.381397184580976,67,93,Piano
170.0,0.0,36,85,Piano
170.0,0.0,42,85,Piano
171.0,0.0,42,50,Piano
171.0,0.0,38,50,Piano
172.0,1.052493093014077,74,96,Piano
172.0,1.052493093014077,62,96,Piano
172.0,0.0,36,85,Piano
172.0,0.0,42,85,Piano
173.5,0.0,36,57,Piano
173.5,0.0,42,57,Piano
174.0,1.1840547296408366,61,96,Piano
174.0,1.1840547296408366,73,96,Piano
174.0,1.1840547296408366,67,96,Piano
174.0,1.381397184580976,45,93,Piano
174.0,1.381397184580976,65,93,Piano
174.0,0.0,36,85,Piano
174.0,0.0,42,85,Piano
175.0,0.0,42,50,Piano
175.0,0.0,38,50,Piano
176.0,1.1840547296408366,72,89,Piano
176.0,1.1840547296408366,60,89,Piano
176.0,1.1840547296408366,65,89,Piano
176.0,0.0,36,85,Piano
176.0,0.0,42,85,Piano
177.5,0.0,36,57,Piano
177.5,0.0,42,57,Piano
178.0,1.1840547296408366,74,93,Piano
178.0,1.1840547296408366,62,93,Piano
178.0,1.1840547296408366,67,93,Piano
178.0,1.381397184580976,40,93,Piano
178.0,1.381397184580976,67,93,Piano
178.0,0.0,36,85,Piano
178.0,0.0,42,85,Piano
179.0,0.0,42,50,Piano
179.0,0.0,38,50,Piano
180.0,1.1840547296408366,76,98,Piano
180.0,1.1840547296408366,69,98,Piano
180.0,0.0,36,85,Piano
180.0,0.0,42,85,Piano
181.5,0.0,36,57,Piano
181.5,0.0,42,57,Piano
182.0,1.5787396395211155,62,87,Piano
182.0,1.5787396395211155,68,87,Piano
182.0,0.0,36,85,Piano
182.0,0.0,42,85,Piano
183.0,0.0,42,50,Piano
183.0,0.0,38,50,Piano
184.0,1.381397184580976,41,93,Piano
184.0,1.381397184580976,64,93,Piano
184.0,1.5787396395211155,69,69,Piano
184.0,1.5787396395211155,65,69,Piano
184.0,0.0,36,85,Piano
184.0,0.0,42,85,Piano
185.5,0.0,36,57,Piano
185.5,0.0,42,57,Piano
186.0,1.381397184580976,41,93,Piano
186.0,1.381397184580976,67,93,Piano
186.0,1.5787396395211155,71,65,Piano
186.0,1.5787396395211155,67,65,Piano
186.0,0.0,36,85,Piano
186.0,0.0,42,85,Piano
187.0,0.0,42,50,Piano
187.0,0.0,38,50,Piano
188.0,3.157479279042231,67,64,Piano
188.0,3.157479279042231,64,64,Piano
188.0,0.0,36,85,Piano
188.0,0.0,42,85,Piano
189.5,0.0,36,57,Piano
189.5,0.0,42,57,Piano
190.0,1.381397184580976,45,93,Piano
190.0,1.381397184580976,65,93,Piano
190.0,0.0,36,85,Piano
190.0,0.0,42,85,Piano
191.0,0.3946849098802789,61,84,Piano
191.0,0.3946849098802789,67,84,Piano
191.0,0.3946849098802789,57,84,Piano
191.0,0.0,42,50,Piano
191.0,0.0,38,50,Piano
192.0,1.5787396395211155,69,70,Piano
192.0,1.5787396395211155,65,70,Piano
192.0,0.0,36,85,Piano
192.0,0.0,42,85,Piano
193.5,0.0,36,57,Piano
193.5,0.0,42,57,Piano
194.0,0.3946849098802789,40,88,Piano
194.0,0.3946849098802789,62,88,Piano
194.0,1.381397184580976,40,93,Piano
194.0,1.381397184580976,67,93,Piano
194.0,1.5787396395211155,71,67,Piano
194.0,1.5787396395211155,67,67,Piano
194.0,0.0,36,85,Piano
194.0,0.0,42,85,Piano
195.0,0.0,42,50,Piano
195.0,0.0,38,50,Piano
196.0,1.5787396395211155,72,72,Piano
196.0,1.5787396395211155,69,72,Piano
196.0,0.0,36,85,Piano
196.0,0.0,42,85,Piano
197.5,0.0,36,57,Piano
197.5,0.0,42,57,Piano
198.0,1.381397184580976,40,91,Piano
198.0,1.381397184580976,50,91,Piano
198.0,1.381397184580976,56,91,Piano
198.0,1.381397184580976,59,91,Piano
198.0,1.381397184580976,64,91,Piano
198.0,1.5787396395211155,71,65,Piano
198.0,1.5787396395211155,68,65,Piano
198.0,0.0,36,85,Piano
198.0,0.0,42,85,Piano
199.0,0.0,42,50,Piano
199.0,0.0,38,50,Piano
204.0,2.565451914221813,83,96,Piano
204.0,2.565451914221813,86,96,Piano
204.0,2.565451914221813,76,96,Piano
212.0,2.762794369161952,74,90,Piano
212.0,2.762794369161952,71,90,Piano
216.0,2.6312327325351927,72,92,Piano
216.0,2.6312327325351927,65,92,Piano
216.0,2.565451914221813,64,86,Piano
216.0,2.565451914221813,65,86,Piano
216.0,5.920273648204184,46,80,Piano
216.0,5.920273648204184,57,80,Piano
216.0,6.314958558084462,53,90,Piano
216.0,6.314958558084462,57,90,Piano
216.0,6.314958558084462,60,90,Piano
216.0,6.314958558084462,64,90,Piano
216.0,6.314958558084462,53,80,Piano
216.0,6.314958558084462,64,80,Piano
216.0,6.314958558084462,46,80,Piano
216.0,6.314958558084462,57,80,Piano
216.0,6.314958558084462,53,60,Piano
216.0,6.314958558084462,64,60,Piano
216.0,6.314958558084462,46,60,Piano
216.0,6.314958558084462,57,60,Piano
216.0,0.0,49,78,Piano
216.0,0.0,36,78,Piano
225.0,0.7893698197605578,81,86,Piano
225.0,0.7893698197605578,76,86,Piano
226.0,1.3156163662675964,64,78,Piano
226.0,1.3156163662675964,71,78,Piano
228.0,0.9867122747006972,62,84,Piano
228.0,0.9867122747006972,69,84,Piano
230.0,0.7893698197605578,71,87,Piano
230.0,0.7893698197605578,55,87,Piano
231.0,0.3946849098802789,72,84,Piano
231.0,0.3946849098802789,57,84,Piano
231.5,0.26312327325351925,74,82,Piano
231.5,0.26312327325351925,59,82,Piano
233.5,0.3946849098802789,74,92,Piano
233.5,0.3946849098802789,71,92,Piano
234.0,0.7893698197605578,76,88,Piano
234.0,0.7893698197605578,69,88,Piano
236.0,1.1840547296408366,78,94,Piano
236.0,1.1840547296408366,72,94,Piano
238.0,0.3946849098802789,72,88,Piano
238.0,0.3946849098802789,77,88,Piano
239.0,0.19734245494013944,79,92,Piano
239.0,0.19734245494013944,71,92,Piano
239.0,0.26312327325351925,76,88,Piano
239.0,0.26312327325351925,71,88,Piano
239.5,0.26312327325351925,77,86,Piano
239.5,0.26312327325351925,74,86,Piano
239.5,0.26312327325351925,69,86,Piano
240.0,1.1840547296408366,76,91,Piano
240.0,1.1840547296408366,72,91,Piano
240.0,1.052493093014077,67,85,Piano
240.0,1.052493093014077,72,85,Piano
240.0,1.052493093014077,60,85,Piano
240.0,0.0,42,85,Piano
240.0,0.0,36,85,Piano
241.0,0.0,37,64,Piano
241.0,0.0,42,64,Piano
242.0,1.1840547296408366,74,91,Piano
242.0,1.1840547296408366,58,91,Piano
242.0,1.381397184580976,64,84,Piano
242.0,1.381397184580976,69,84,Piano
242.0,0.0,36,78,Piano
242.0,0.0,42,78,Piano
243.0,0.7893698197605578,58,91,Piano
243.0,0.7893698197605578,60,91,Piano
243.0,0.7893698197605578,64,91,Piano
243.0,0.0,37,64,Piano
243.0,0.0,42,64,Piano
244.0,1.1840547296408366,72,88,Piano
244.0,1.1840547296408366,53,88,Piano
244.0,1.052493093014077,64,84,Piano
244.0,1.052493093014077,67,84,Piano
244.0,1.052493093014077,57,84,Piano
244.0,1.052493093014077,53,84,Piano
244.0,0.0,42,85,Piano
244.0,0.0,36,85,Piano
245.0,0.0,37,64,Piano
245.0,0.0,42,64,Piano
246.0,0.5262465465070385,62,83,Piano
246.0,0.5262465465070385,52,83,Piano
246.0,0.5262465465070385,59,83,Piano
246.0,0.0,36,78,Piano
246.0,0.0,42,78,Piano
247.0,0.5920273648204183,66,86,Piano
247.0,0.5920273648204183,60,86,Piano
247.0,0.5920273648204183,51,86,Piano
247.0,0.7893698197605578,57,88,Piano
247.0,0.7893698197605578,60,88,Piano
247.0,0.0,37,64,Piano
247.0,0.0,42,64,Piano
248.0,1.1840547296408366,57,86,Piano
248.0,1.1840547296408366,50,86,Piano
248.0,0.0,36,85,Piano
248.0,0.0,42,85,Piano
249.0,0.0,37,57,Piano
249.0,0.0,42,57,Piano
250.0,4.473095645309828,65,86,Piano
250.0,4.473095645309828,60,86,Piano
250.0,4.473095645309828,56,86,Piano
250.0,4.473095645309828,49,86,Piano
250.0,4.736218918563346,49,91,Piano
250.0,4.736218918563346,56,91,Piano
250.0,4.736218918563346,61,91,Piano
250.0,4.736218918563346,65,91,Piano
250.0,0.0,49,71,Piano
250.0,0.0,36,71,Piano
256.0,1.1840547296408366,70,79,Piano
256.0,1.1840547296408366,61,79,Piano
256.0,1.1840547296408366,54,79,Piano
258.0,1.1840547296408366,68,74,Piano
258.0,1.1840547296408366,60,74,Piano
259.0,0.7893698197605578,61,88,Piano
259.0,0.7893698197605578,65,88,Piano
260.0,0.9867122747006972,66,82,Piano
260.0,0.9867122747006972,58,82,Piano
262.5,0.3946849098802789,60,93,Piano
262.5,0.3946849098802789,68,93,Piano
263.0,0.3946849098802789,61,83,Piano
263.0,0.3946849098802789,46,83,Piano
263.0,0.3946849098802789,56,83,Piano
264.0,1.1840547296408366,56,82,Piano
264.0,1.1840547296408366,65,82,Piano
264.0,0.3946849098802789,63,85,Piano
264.0,0.3946849098802789,49,85,Piano
266.0,0.3946849098802789,61,90,Piano
266.0,0.3946849098802789,65,90,Piano
267.0,0.7893698197605578,58,91,Piano
267.0,0.7893698197605578,61,91,Piano
267.0,0.7893698197605578,65,91,Piano
270.0,0.3946849098802789,66,90,Piano
270.0,0.3946849098802789,58,90,Piano
270.0,0.3946849098802789,61,90,Piano
271.0,0.3946849098802789,56,83,Piano
271.0,0.3946849098802789,65,83,Piano
271.0,0.7893698197605578,61,93,Piano
271.0,0.7893698197605578,66,93,Piano
271.5,0.26312327325351925,54,77,Piano
271.5,0.26312327325351925,63,77,Piano
271.5,0.26312327325351925,58,77,Piano
272.0,0.26312327325351925,65,89,Piano
272.0,0.26312327325351925,61,89,Piano
273.0,0.3946849098802789,65,82,Piano
273.0,0.3946849098802789,61,82,Piano
274.0,0.3946849098802789,63,89,Piano
274.0,0.3946849098802789,59,89,Piano
275.0,0.7893698197605578,59,91,Piano
275.0,0.7893698197605578,61,91,Piano
275.0,0.7893698197605578,65,91,Piano
278.0,0.5262465465070385,68,80,Piano
278.0,0.5262465465070385,53,80,Piano
279.0,0.3946849098802789,67,86,Piano
279.0,0.3946849098802789,61,86,Piano
279.0,0.5262465465070385,58,75,Piano
279.0,0.5262465465070385,52,75,Piano
279.0,0.7893698197605578,58,88,Piano
279.0,0.7893698197605578,61,88,Piano
280.0,0.3946849098802789,66,92,Piano
280.0,0.3946849098802789,61,92,Piano
282.0,0.4074426184978949,66,82,Piano
282.0,0.4074426184978949,61,82,Piano
283.0,0.8281573498964803,62,93,Piano
283.0,0.8281573498964803,66,93,Piano
284.0,5.788712011577423,56,81,Piano
284.0,5.788712011577423,63,81,Piano
284.0,5.788712011577423,65,81,Piano
284.0,5.788712011577423,49,81,Piano
284.0,5.788712011577423,60,81,Piano
284.0,6.314958558084462,49,95,Piano
284.0,6.314958558084462,56,95,Piano
284.0,6.314958558084462,65,95,Piano
