Start,Duration,Pitch,Velocity,Instrument
2.5,0.75,77,114,Piano
2.5,0.75,72,114,Piano
7.0,0.625,72,115,Piano
7.0,0.625,76,115,Piano
8.5,0.6666666666666666,74,116,Piano
8.5,0.6666666666666666,71,116,Piano
8.5,0.6666666666666666,67,116,Piano
10.5,0.125,71,114,Piano
10.5,0.125,62,114,Piano
13.0,0.3333333333333333,65,116,Piano
13.0,0.3333333333333333,69,116,Piano
13.0,0.5,53,107,Piano
13.0,0.5,41,107,Piano
14.5,0.5,64,116,Piano
14.5,0.5,67,116,Piano
14.5,0.6666666666666666,52,110,Piano
14.5,0.6666666666666666,40,110,Piano
16.5,0.125,62,108,Piano
16.5,0.125,65,108,Piano
16.5,0.125,38,108,Piano
16.5,0.125,60,99,Piano
16.5,0.125,50,99,Piano
18.0,1.0,65,108,Piano
18.0,1.0,69,108,Piano
21.0,0.5,60,112,Piano
21.0,0.5,55,112,Piano
21.0,0.5,64,112,Piano
21.0,0.5,55,112,Piano
22.5,0.5,65,108,Piano
22.5,0.5,60,108,Piano
22.5,0.625,57,106,Piano
22.5,0.625,60,106,Piano
33.0,0.75,64,108,Piano
33.0,0.75,60,108,Piano
38.0,0.125,55,100,Piano
38.0,0.125,59,100,Piano
38.0,0.125,64,100,Piano
38.5,0.3333333333333333,64,112,Piano
38.5,0.3333333333333333,59,112,Piano
41.0,1.0,64,112,Piano
41.0,1.0,60,112,Piano
45.0,0.75,67,104,Piano
45.0,0.75,59,104,Piano
45.0,0.75,62,104,Piano
45.0,0.75,40,104,Piano
47.0,0.6666666666666666,67,111,Piano
47.0,0.6666666666666666,59,111,Piano
49.0,1.125,60,109,Piano
49.0,1.125,57,109,Piano
49.0,1.125,64,109,Piano
51.5,0.625,67,117,Piano
51.5,0.625,60,117,Piano
51.5,0.625,57,117,Piano
53.0,0.8333333333333334,57,114,Piano
53.0,0.8333333333333334,65,114,Piano
55.0,0.875,60,97,Piano
55.0,0.875,67,97,Piano
55.0,0.8333333333333334,55,103,Piano
55.0,0.8333333333333334,64,103,Piano
57.0,0.625,57,112,Piano
57.0,0.625,60,112,Piano
57.0,0.625,65,112,Piano
59.0,0.75,57,106,Piano
59.0,0.75,31,106,Piano
61.0,0.75,62,117,Piano
61.0,0.75,59,117,Piano
62.5,1.0,64,108,Piano
62.5,1.0,60,108,Piano
65.0,0.75,57,111,Piano
65.0,0.75,65,111,Piano
65.0,0.75,60,111,Piano
67.0,0.6666666666666666,65,112,Piano
67.0,0.6666666666666666,60,112,Piano
69.0,1.0,67,120,Piano
69.0,1.0,59,120,Piano
69.0,1.125,64,106,Piano
69.0,1.125,62,106,Piano
71.5,0.3333333333333333,62,108,Piano
71.5,0.3333333333333333,64,108,Piano
71.5,0.3333333333333333,59,114,Piano
71.5,0.3333333333333333,64,114,Piano
73.0,0.75,60,110,Piano
73.0,0.75,64,110,Piano
76.0,0.125,45,108,Piano
76.0,0.125,33,108,Piano
76.5,0.125,44,111,Piano
76.5,0.125,32,111,Piano
77.0,0.5,55,112,Piano
77.0,0.5,58,112,Piano
78.5,0.375,58,106,Piano
78.5,0.375,55,106,Piano
78.5,0.375,62,106,Piano
80.0,0.3333333333333333,55,98,Piano
80.0,0.3333333333333333,58,98,Piano
83.0,0.6666666666666666,64,113,Piano
83.0,0.6666666666666666,55,113,Piano
83.0,0.6666666666666666,58,113,Piano
89.0,0.625,60,110,Piano
89.0,0.625,65,110,Piano
89.0,0.75,69,112,Piano
89.0,0.75,38,112,Piano
91.0,0.3333333333333333,62,112,Piano
91.0,0.3333333333333333,65,112,Piano
95.0,0.3333333333333333,53,108,Piano
95.0,0.3333333333333333,57,108,Piano
96.0,0.25,59,107,Piano
96.0,0.25,56,107,Piano
96.0,0.25,62,107,Piano
97.0,0.5,67,110,Piano
97.0,0.5,64,110,Piano
97.0,0.5,60,110,Piano
98.5,0.3333333333333333,60,88,Piano
98.5,0.3333333333333333,64,88,Piano
101.0,0.5,59,92,Piano
101.0,0.5,65,92,Piano
103.0,0.375,56,108,Piano
103.0,0.375,52,108,Piano
104.0,0.125,65,112,Piano
104.0,0.125,59,112,Piano
105.0,0.5,64,108,Piano
105.0,0.5,60,108,Piano
105.0,1.25,45,102,Piano
105.0,1.25,33,102,Piano
106.5,0.3333333333333333,64,109,Piano
106.5,0.3333333333333333,55,109,Piano
106.5,0.3333333333333333,60,109,Piano
107.5,0.125,55,103,Piano
107.5,0.125,64,103,Piano
107.5,0.125,60,103,Piano
108.5,0.0,63,97,Piano
108.5,0.0,56,97,Piano
108.5,0.0,59,97,Piano
108.5,0.0,32,97,Piano
108.5,0.0,44,97,Piano
109.0,0.5,62,104,Piano
109.0,0.5,58,104,Piano
109.0,0.5,55,104,Piano
111.0,0.5,60,116,Piano
111.0,0.5,64,116,Piano
113.0,0.25,67,106,Piano
113.0,0.25,64,106,Piano
113.0,0.25,60,106,Piano
116.0,0.125,57,97,Piano
116.0,0.125,60,97,Piano
116.0,0.125,65,97,Piano
117.0,0.375,67,102,Piano
117.0,0.375,64,102,Piano
117.0,0.375,60,102,Piano
121.0,0.8333333333333334,60,112,Piano
121.0,0.8333333333333334,53,112,Piano
121.0,0.8333333333333334,57,112,Piano
123.0,0.6666666666666666,53,109,Piano
123.0,0.6666666666666666,60,109,Piano
123.0,0.6666666666666666,57,109,Piano
125.0,0.75,50,103,Piano
125.0,0.75,43,103,Piano
125.0,0.5,31,114,Piano
125.0,0.5,53,114,Piano
125.0,0.5,57,114,Piano
127.0,0.3333333333333333,62,108,Piano
127.0,0.3333333333333333,55,108,Piano
127.0,0.3333333333333333,43,108,Piano
127.0,0.3333333333333333,59,108,Piano
127.0,0.3333333333333333,31,108,Piano
128.0,0.3333333333333333,64,108,Piano
128.0,0.3333333333333333,44,108,Piano
128.0,0.3333333333333333,32,108,Piano
129.0,0.5,52,104,Piano
129.0,0.5,60,104,Piano
129.0,1.125,45,104,Piano
129.0,1.125,33,104,Piano
130.5,0.5,64,110,Piano
130.5,0.5,57,110,Piano
130.5,0.5,60,110,Piano
130.5,0.5,57,110,Piano
132.5,0.25,32,100,Piano
132.5,0.25,44,100,Piano
133.0,0.3333333333333333,58,116,Piano
133.0,0.3333333333333333,62,116,Piano
133.0,0.3333333333333333,55,116,Piano
135.0,0.375,58,108,Piano
135.0,0.375,62,108,Piano
139.0,0.375,65,107,Piano
139.0,0.375,69,107,Piano
139.0,0.375,72,107,Piano
141.0,1.5,46,108,Piano
141.0,1.5,62,108,Piano
141.0,1.5,67,108,Piano
145.0,0.5,67,113,Piano
145.0,0.5,59,113,Piano
145.0,0.5,62,113,Piano
148.5,0.875,65,107,Piano
148.5,0.875,60,107,Piano
148.5,0.875,62,107,Piano
151.0,0.6666666666666666,60,101,Piano
151.0,0.6666666666666666,57,101,Piano
151.0,0.6666666666666666,43,101,Piano
151.0,0.625,53,98,Piano
151.0,0.625,57,98,Piano
151.0,0.625,43,98,Piano
153.0,1.75,48,104,Piano
153.0,1.75,36,104,Piano
157.0,1.5,48,100,Piano
157.0,1.5,36,100,Piano
157.0,1.5,67,100,Piano
159.5,0.0,48,96,Piano
159.5,0.0,50,96,Piano
160.0,0.0,59,94,Piano
160.0,0.0,60,94,Piano
160.0,0.0,62,93,Piano
160.0,0.0,64,93,Piano
160.25,0.0,65,94,Piano
160.25,0.0,67,94,Piano
160.33333333333334,0.0,69,96,Piano
160.33333333333334,0.0,71,96,Piano
160.33333333333334,0.0,72,94,Piano
160.33333333333334,0.0,74,94,Piano
160.66666666666666,0.125,79,92,Piano
160.66666666666666,0.125,81,92,Piano
160.66666666666666,0.125,83,84,Piano
160.66666666666666,0.125,84,84,Piano
161.0,0.3333333333333333,65,116,Piano
161.0,0.3333333333333333,69,116,Piano
161.0,0.5,53,107,Piano
161.0,0.5,41,107,Piano
161.0,0.6666666666666666,81,90,Piano
161.0,0.6666666666666666,84,90,Piano
162.5,0.5,64,116,Piano
162.5,0.5,67,116,Piano
162.5,0.6666666666666666,52,110,Piano
162.5,0.6666666666666666,40,110,Piano
164.5,0.125,62,107,Piano
164.5,0.125,65,107,Piano
164.5,0.125,38,107,Piano
164.5,0.125,50,107,Piano
164.5,0.0,60,99,Piano
164.5,0.0,50,99,Piano
164.5,0.125,84,94,Piano
164.5,0.125,89,94,Piano
164.5,0.125,50,94,Piano
164.5,0.125,81,94,Piano
166.0,1.0,65,108,Piano
166.0,1.0,69,108,Piano
166.0,1.5,55,94,Piano
166.0,1.5,84,94,Piano
166.0,1.5,77,94,Piano
166.0,1.5,81,94,Piano
169.0,0.5,55,111,Piano
169.0,0.5,60,111,Piano
169.0,0.5,64,111,Piano
169.0,4.0,48,89,Piano
169.0,4.0,60,89,Piano
169.0,4.0,84,89,Piano
170.5,0.5,65,108,Piano
170.5,0.5,60,108,Piano
170.5,0.625,57,106,Piano
170.5,0.625,60,106,Piano
170.5,1.1666666666666667,81,87,Piano
170.5,1.1666666666666667,77,87,Piano
173.0,2.0,79,80,Piano
173.0,2.0,76,80,Piano
177.0,0.75,74,72,Piano
177.0,0.75,71,72,Piano
181.0,0.75,64,108,Piano
181.0,0.75,60,108,Piano
181.0,2.0,69,79,Piano
181.0,2.0,77,79,Piano
185.0,2.0,79,84,Piano
185.0,2.0,74,84,Piano
186.5,0.0,59,96,Piano
186.5,0.0,62,96,Piano
187.5,0.5,48,105,Piano
187.5,0.5,59,105,Piano
189.0,1.0,64,112,Piano
189.0,1.0,60,112,Piano
189.0,1.875,76,73,Piano
189.0,1.875,72,73,Piano
189.0,1.875,67,73,Piano
193.0,0.75,55,112,Piano
193.0,0.75,59,112,Piano
193.0,0.75,62,112,Piano
193.0,0.75,40,112,Piano
193.0,2.0,74,76,Piano
193.0,2.0,71,76,Piano
195.0,0.6666666666666666,55,111,Piano
195.0,0.6666666666666666,59,111,Piano
197.0,0.875,60,109,Piano
197.0,0.875,57,109,Piano
197.0,0.875,64,109,Piano
197.0,1.875,67,81,Piano
197.0,1.875,72,81,Piano
197.0,1.875,76,81,Piano
199.0,0.625,67,110,Piano
199.0,0.625,60,110,Piano
201.0,0.875,79,76,Piano
201.0,0.875,72,76,Piano
203.0,0.875,60,102,Piano
203.0,0.875,67,102,Piano
203.0,0.875,79,75,Piano
203.0,0.875,72,75,Piano
203.0,0.875,76,75,Piano
205.0,0.625,57,112,Piano
205.0,0.625,60,112,Piano
205.0,0.625,65,112,Piano
205.0,0.375,72,83,Piano
205.0,0.375,69,83,Piano
205.0,0.375,65,83,Piano
207.0,0.75,57,96,Piano
207.0,0.75,31,96,Piano
207.0,0.875,72,81,Piano
207.0,0.875,67,81,Piano
207.0,0.875,69,81,Piano
209.0,0.75,62,117,Piano
209.0,0.75,59,117,Piano
209.0,0.75,74,72,Piano
209.0,0.75,71,72,Piano
210.5,1.0,64,108,Piano
210.5,1.0,60,108,Piano
210.5,1.25,76,76,Piano
210.5,1.25,72,76,Piano
213.0,0.6666666666666666,65,108,Piano
213.0,0.6666666666666666,60,108,Piano
213.0,0.6666666666666666,72,67,Piano
213.0,0.6666666666666666,65,67,Piano
213.0,0.6666666666666666,69,67,Piano
214.5,0.375,69,120,Piano
214.5,0.375,65,120,Piano
214.5,1.1666666666666667,72,69,Piano
214.5,1.1666666666666667,65,69,Piano
214.5,1.1666666666666667,69,69,Piano
215.5,0.625,69,116,Piano
215.5,0.625,72,116,Piano
215.5,0.625,65,116,Piano
217.0,1.0,67,120,Piano
217.0,1.0,71,120,Piano
217.0,1.125,64,106,Piano
217.0,1.125,62,106,Piano
217.0,2.0,74,74,Piano
217.0,2.0,71,74,Piano
219.5,0.3333333333333333,74,108,Piano
219.5,0.3333333333333333,64,108,Piano
219.5,0.3333333333333333,71,114,Piano
219.5,0.3333333333333333,64,114,Piano
221.0,0.75,72,110,Piano
221.0,0.75,64,110,Piano
221.0,1.5,67,80,Piano
221.0,1.5,76,80,Piano
223.0,0.625,60,102,Piano
223.0,0.625,55,102,Piano
223.0,0.625,64,102,Piano
223.0,0.625,57,99,Piano
223.0,0.625,64,99,Piano
223.5,0.125,45,104,Piano
223.5,0.125,33,104,Piano
224.5,0.125,44,96,Piano
224.5,0.125,32,96,Piano
224.5,0.125,71,74,Piano
224.5,0.125,75,74,Piano
224.5,0.125,68,74,Piano
225.0,0.5,55,112,Piano
225.0,0.5,58,112,Piano
225.0,0.5,62,104,Piano
225.0,0.5,43,104,Piano
225.0,1.875,74,82,Piano
225.0,1.875,67,82,Piano
225.0,1.8333333333333333,70,80,Piano
225.0,1.8333333333333333,67,80,Piano
227.0,0.625,58,102,Piano
227.0,0.625,55,102,Piano
229.0,0.875,67,85,Piano
229.0,0.875,70,85,Piano
231.0,0.6666666666666666,64,113,Piano
231.0,0.6666666666666666,55,113,Piano
231.0,0.6666666666666666,58,113,Piano
231.0,0.875,70,82,Piano
231.0,0.875,76,82,Piano
231.0,0.875,67,82,Piano
235.0,0.875,72,82,Piano
235.0,0.875,76,82,Piano
237.0,0.75,69,112,Piano
237.0,0.75,38,112,Piano
237.0,1.0,77,90,Piano
237.0,1.0,81,90,Piano
237.0,1.0,74,90,Piano
239.0,0.3333333333333333,62,112,Piano
239.0,0.3333333333333333,65,112,Piano
241.0,0.5,72,107,Piano
241.0,0.5,31,107,Piano
243.0,0.3333333333333333,53,118,Piano
243.0,0.3333333333333333,57,118,Piano
244.0,0.25,59,107,Piano
244.0,0.25,56,107,Piano
244.0,0.25,62,107,Piano
245.0,0.5,64,110,Piano
245.0,0.5,60,110,Piano
246.5,0.3333333333333333,60,114,Piano
246.5,0.3333333333333333,64,114,Piano
249.0,0.5,59,92,Piano
249.0,0.5,64,92,Piano
249.0,0.5,57,92,Piano
251.0,1.0,88,80,Piano
251.0,1.0,83,80,Piano
251.0,1.0,80,80,Piano
253.0,0.5,64,109,Piano
253.0,0.5,57,109,Piano
253.0,0.5,60,109,Piano
253.0,1.25,45,102,Piano
253.0,1.25,33,102,Piano
253.0,1.8333333333333333,79,78,Piano
253.0,1.8333333333333333,84,78,Piano
254.5,0.3333333333333333,64,109,Piano
254.5,0.3333333333333333,69,109,Piano
254.5,0.3333333333333333,60,109,Piano
255.5,0.16666666666666666,69,107,Piano
255.5,0.16666666666666666,64,107,Piano
255.5,0.16666666666666666,60,107,Piano
256.5,0.0,63,109,Piano
256.5,0.0,68,109,Piano
256.5,0.0,44,109,Piano
256.5,0.125,32,108,Piano
256.5,0.125,44,108,Piano
257.0,0.625,62,112,Piano
257.0,0.625,67,112,Piano
257.0,0.875,67,66,Piano
257.0,0.875,70,66,Piano
259.0,0.5,60,116,Piano
259.0,0.5,64,116,Piano
259.0,0.875,70,78,Piano
259.0,0.875,67,78,Piano
261.0,0.25,64,110,Piano
261.0,0.25,67,110,Piano
261.0,0.25,60,110,Piano
261.0,2.0,72,82,Piano
261.0,2.0,65,82,Piano
261.0,2.0,69,82,Piano
264.0,0.125,57,108,Piano
264.0,0.125,53,108,Piano
265.0,0.375,64,105,Piano
265.0,0.375,60,105,Piano
265.0,0.25,67,113,Piano
265.0,0.25,40,113,Piano
265.0,1.875,67,74,Piano
265.0,1.875,72,74,Piano
268.0,0.25,60,106,Piano
268.0,0.25,64,106,Piano
268.0,0.25,67,106,Piano
269.0,0.8333333333333334,60,105,Piano
269.0,0.8333333333333334,65,105,Piano
269.0,0.8333333333333334,69,105,Piano
269.0,1.8333333333333333,69,76,Piano
269.0,1.8333333333333333,77,76,Piano
271.0,0.6666666666666666,65,112,Piano
271.0,0.6666666666666666,72,112,Piano
271.0,0.6666666666666666,69,112,Piano
273.0,0.75,72,103,Piano
273.0,0.75,43,103,Piano
273.0,0.5,31,114,Piano
273.0,0.5,65,114,Piano
273.0,0.5,69,114,Piano
275.0,0.25,74,108,Piano
275.0,0.25,67,108,Piano
275.0,0.25,43,108,Piano
275.0,0.25,71,108,Piano
275.0,0.25,31,108,Piano
275.0,0.5,74,77,Piano
275.0,0.5,67,77,Piano
275.0,0.5,71,77,Piano
276.0,0.3333333333333333,76,108,Piano
276.0,0.3333333333333333,44,108,Piano
276.0,0.3333333333333333,32,108,Piano
276.0,0.5,71,76,Piano
276.0,0.5,74,76,Piano
276.0,0.5,68,76,Piano
277.0,0.5,64,114,Piano
277.0,0.5,72,114,Piano
277.0,0.625,45,107,Piano
277.0,0.625,33,107,Piano
277.0,2.0,72,70,Piano
277.0,2.0,69,70,Piano
278.5,0.5,64,100,Piano
278.5,0.5,67,100,Piano
278.5,0.5,60,106,Piano
278.5,0.5,67,106,Piano
280.0,0.25,69,112,Piano
280.0,0.25,64,112,Piano
280.5,0.125,68,103,Piano
280.5,0.125,63,103,Piano
281.0,0.3333333333333333,58,116,Piano
281.0,0.3333333333333333,62,116,Piano
281.0,0.3333333333333333,67,116,Piano
281.0,0.875,67,85,Piano
281.0,0.875,74,85,Piano
281.0,0.875,70,85,Piano
283.0,0.75,58,115,Piano
283.0,0.75,62,115,Piano
283.0,0.75,67,115,Piano
283.0,0.875,74,86,Piano
283.0,0.875,67,86,Piano
285.0,1.0,57,118,Piano
285.0,1.0,41,118,Piano
285.0,1.0,60,118,Piano
285.0,0.75,69,86,Piano
285.0,0.75,76,86,Piano
285.0,0.75,65,86,Piano
287.5,0.16666666666666666,69,115,Piano
287.5,0.16666666666666666,60,115,Piano
287.5,0.16666666666666666,64,115,Piano
287.5,0.125,76,89,Piano
287.5,0.125,72,89,Piano
287.5,0.125,81,89,Piano
288.3333333333333,0.125,68,106,Piano
288.3333333333333,0.125,59,106,Piano
288.3333333333333,0.125,63,106,Piano
288.3333333333333,0.125,35,106,Piano
288.5,0.25,80,87,Piano
288.5,0.25,75,87,Piano
288.5,0.25,71,87,Piano
289.0,1.6666666666666667,58,112,Piano
289.0,1.6666666666666667,34,112,Piano
289.0,1.6666666666666667,62,112,Piano
289.0,1.875,70,74,Piano
289.0,1.875,74,74,Piano
293.0,0.5,67,116,Piano
293.0,0.5,59,116,Piano
293.0,0.5,62,116,Piano
294.5,0.875,73,82,Piano
294.5,0.875,77,82,Piano
294.5,0.875,69,82,Piano
296.5,0.875,65,114,Piano
296.5,0.875,60,114,Piano
296.5,0.875,62,114,Piano
296.5,2.125,69,82,Piano
296.5,2.125,77,82,Piano
296.5,2.125,72,82,Piano
299.0,0.625,53,108,Piano
299.0,0.625,57,108,Piano
299.0,0.625,43,108,Piano
301.0,0.125,53,102,Piano
301.0,0.125,57,102,Piano
301.0,1.75,48,104,Piano
301.0,1.75,36,104,Piano
305.0,1.5,48,104,Piano
305.0,1.5,36,104,Piano
305.0,1.5,67,104,Piano
305.0,1.875,72,65,Piano
305.0,1.875,67,65,Piano
305.0,1.875,64,65,Piano
309.0,1.0,72,118,Piano
309.0,1.0,79,118,Piano
309.0,1.0,76,118,Piano
311.0,1.0,72,108,Piano
311.0,1.0,76,108,Piano
313.0,0.875,69,117,Piano
313.0,0.875,72,117,Piano
313.0,0.875,79,117,Piano
313.0,1.875,84,56,Piano
313.0,1.875,81,56,Piano
315.0,0.8333333333333334,45,104,Piano
315.0,0.8333333333333334,69,104,Piano
315.0,0.8333333333333334,72,104,Piano
315.0,0.8333333333333334,77,104,Piano
317.0,0.8333333333333334,79,124,Piano
317.0,0.8333333333333334,68,124,Piano
317.0,1.8333333333333333,77,70,Piano
317.0,1.8333333333333333,84,70,Piano
319.0,0.8333333333333334,79,120,Piano
319.0,0.8333333333333334,68,120,Piano
321.0,0.875,67,118,Piano
321.0,0.875,72,118,Piano
321.0,0.875,79,118,Piano
321.0,0.875,76,118,Piano
321.0,2.0,84,73,Piano
321.0,2.0,88,73,Piano
321.0,2.0,79,73,Piano
323.0,0.625,72,115,Piano
323.0,0.625,79,115,Piano
323.0,0.625,76,115,Piano
325.0,2.0,86,75,Piano
325.0,2.0,81,75,Piano
325.0,2.0,78,75,Piano
329.0,0.875,60,114,Piano
329.0,0.875,53,114,Piano
329.0,0.875,74,80,Piano
329.0,0.875,84,80,Piano
329.0,0.875,77,80,Piano
331.0,1.1666666666666667,52,111,Piano
331.0,1.1666666666666667,62,111,Piano
331.0,1.125,56,110,Piano
331.0,1.125,59,110,Piano
331.0,3.0,74,76,Piano
331.0,3.0,83,76,Piano
331.0,3.0,80,76,Piano
337.0,0.75,64,96,Piano
337.0,0.75,60,96,Piano
340.0,0.25,64,113,Piano
340.0,0.25,60,113,Piano
341.0,1.125,62,103,Piano
341.0,1.125,64,103,Piano
341.0,1.875,76,83,Piano
341.0,1.875,80,83,Piano
344.0,0.5,64,107,Piano
344.0,0.5,62,107,Piano
344.0,0.5,59,107,Piano
345.0,0.875,64,109,Piano
345.0,0.875,57,109,Piano
345.0,0.875,55,109,Piano
345.0,0.875,60,110,Piano
345.0,0.875,55,110,Piano
345.0,1.375,84,84,Piano
345.0,1.375,76,84,Piano
345.0,1.375,79,84,Piano
347.0,2.75,57,103,Piano
347.0,2.75,60,103,Piano
347.0,2.75,64,103,Piano
348.25,0.0,62,90,Piano
348.25,0.0,64,90,Piano
348.3333333333333,0.0,65,98,Piano
348.3333333333333,0.0,67,98,Piano
348.5,0.0,69,100,Piano
348.5,0.0,71,100,Piano
348.5,0.0,72,102,Piano
348.5,0.0,74,102,Piano
349.0,2.0,81,91,Piano
349.0,2.0,74,91,Piano
349.0,2.0,78,91,Piano
353.0,0.625,65,116,Piano
353.0,0.625,60,116,Piano
353.0,0.375,38,122,Piano
353.0,0.375,26,122,Piano
353.0,0.5,81,96,Piano
353.0,0.5,84,96,Piano
353.0,0.5,89,96,Piano
354.0,0.16666666666666666,40,114,Piano
354.0,0.16666666666666666,55,114,Piano
354.0,0.16666666666666666,28,114,Piano
354.0,0.16666666666666666,88,96,Piano
354.0,0.16666666666666666,79,96,Piano
354.0,0.16666666666666666,83,96,Piano
354.5,0.375,41,109,Piano
354.5,0.375,53,109,Piano
354.5,0.375,29,109,Piano
354.5,0.5,57,110,Piano
354.5,0.5,60,110,Piano
354.5,0.125,86,92,Piano
354.5,0.125,77,92,Piano
354.5,0.125,81,92,Piano
355.5,0.625,41,111,Piano
355.5,0.625,29,111,Piano
355.5,0.75,53,107,Piano
355.5,0.75,57,107,Piano
355.5,0.75,60,107,Piano
355.5,0.6666666666666666,77,89,Piano
355.5,0.6666666666666666,84,89,Piano
355.5,0.6666666666666666,81,89,Piano
356.5,0.125,42,106,Piano
356.5,0.125,30,106,Piano
357.0,0.8333333333333334,53,112,Piano
357.0,0.8333333333333334,43,112,Piano
357.0,0.875,57,111,Piano
357.0,0.875,43,111,Piano
357.0,2.875,84,82,Piano
357.0,2.875,81,82,Piano
357.0,2.875,77,82,Piano
363.0,0.5,67,116,Piano
363.0,0.5,57,116,Piano
364.0,0.375,62,107,Piano
364.0,0.375,56,107,Piano
364.0,0.375,65,107,Piano
364.0,0.5,77,83,Piano
364.0,0.5,80,83,Piano
364.0,0.5,86,83,Piano
365.0,0.5,64,110,Piano
365.0,0.5,60,110,Piano
365.0,2.0,84,70,Piano
365.0,2.0,79,70,Piano
367.5,0.3333333333333333,60,114,Piano
367.5,0.3333333333333333,64,114,Piano
369.0,0.5,57,102,Piano
369.0,0.5,59,102,Piano
369.0,0.5,62,107,Piano
369.0,0.5,47,107,Piano
369.0,1.0,83,79,Piano
369.0,1.0,81,79,Piano
371.0,1.0,88,80,Piano
371.0,1.0,83,80,Piano
371.0,1.0,80,80,Piano
373.0,0.5,64,109,Piano
373.0,0.5,57,109,Piano
373.0,0.5,60,109,Piano
373.0,1.25,45,102,Piano
373.0,1.25,33,102,Piano
373.0,0.5,88,81,Piano
373.0,0.5,79,81,Piano
373.0,0.5,84,81,Piano
374.3333333333333,0.0,52,90,Piano
374.3333333333333,0.0,53,90,Piano
374.5,0.3333333333333333,64,109,Piano
374.5,0.3333333333333333,57,109,Piano
374.5,0.3333333333333333,60,109,Piano
374.5,0.0,55,94,Piano
374.5,0.0,57,94,Piano
374.5,0.0,59,94,Piano
374.5,0.0,60,94,Piano
374.6666666666667,0.0,62,91,Piano
374.6666666666667,0.0,64,91,Piano
374.75,0.125,69,80,Piano
374.75,0.125,71,80,Piano
375.0,0.125,72,82,Piano
375.0,0.125,74,82,Piano
375.5,0.16666666666666666,57,107,Piano
375.5,0.16666666666666666,64,107,Piano
375.5,0.16666666666666666,60,107,Piano
375.5,0.5,72,93,Piano
375.5,0.5,67,93,Piano
375.5,0.5,76,93,Piano
376.5,0.0,63,110,Piano
376.5,0.0,59,110,Piano
376.5,0.0,56,110,Piano
376.5,0.0,44,110,Piano
376.5,0.125,32,108,Piano
376.5,0.125,44,108,Piano
376.5,0.25,75,89,Piano
376.5,0.25,66,89,Piano
376.5,0.25,71,89,Piano
377.0,0.625,62,112,Piano
377.0,0.625,55,112,Piano
377.0,0.875,65,76,Piano
377.0,0.875,70,76,Piano
379.0,0.5,60,116,Piano
379.0,0.5,64,116,Piano
379.0,0.875,70,78,Piano
379.0,0.875,67,78,Piano
381.0,0.25,64,110,Piano
381.0,0.25,67,110,Piano
381.0,0.25,60,110,Piano
381.0,2.0,72,84,Piano
381.0,2.0,77,84,Piano
381.0,2.0,69,84,Piano
384.0,0.125,69,104,Piano
384.0,0.125,65,104,Piano
385.0,0.375,64,105,Piano
385.0,0.375,60,105,Piano
385.0,0.25,67,113,Piano
385.0,0.25,40,113,Piano
385.0,1.875,79,78,Piano
385.0,1.875,72,78,Piano
386.5,0.875,60,124,Piano
386.5,0.875,72,124,Piano
389.0,0.8333333333333334,72,105,Piano
389.0,0.8333333333333334,65,105,Piano
389.0,0.8333333333333334,69,105,Piano
389.0,1.8333333333333333,81,76,Piano
389.0,1.8333333333333333,77,76,Piano
391.0,0.16666666666666666,65,112,Piano
391.0,0.16666666666666666,69,112,Piano
391.5,0.6666666666666666,65,116,Piano
391.5,0.6666666666666666,72,116,Piano
393.0,0.75,72,113,Piano
393.0,0.75,43,113,Piano
393.0,0.5,31,114,Piano
393.0,0.5,65,114,Piano
393.0,0.5,69,114,Piano
393.0,0.875,77,82,Piano
393.0,0.875,84,82,Piano
395.0,0.25,74,108,Piano
395.0,0.25,67,108,Piano
395.0,0.25,43,108,Piano
395.0,0.25,71,108,Piano
395.0,0.25,31,108,Piano
395.0,0.5,86,77,Piano
395.0,0.5,79,77,Piano
395.0,0.5,83,77,Piano
396.0,0.3333333333333333,76,108,Piano
396.0,0.3333333333333333,44,108,Piano
396.0,0.3333333333333333,32,108,Piano
396.0,0.5,80,76,Piano
396.0,0.5,83,76,Piano
396.0,0.5,86,76,Piano
397.0,0.5,64,114,Piano
397.0,0.5,72,114,Piano
397.0,0.625,45,107,Piano
397.0,0.625,33,107,Piano
397.0,2.0,81,70,Piano
397.0,2.0,84,70,Piano
398.5,0.5,64,100,Piano
398.5,0.5,67,100,Piano
398.5,0.5,60,106,Piano
398.5,0.5,67,106,Piano
400.0,0.25,69,92,Piano
400.0,0.25,64,92,Piano
400.5,0.125,44,103,Piano
400.5,0.125,32,103,Piano
401.0,0.3333333333333333,58,116,Piano
401.0,0.3333333333333333,62,116,Piano
401.0,0.3333333333333333,67,116,Piano
401.0,0.875,79,85,Piano
401.0,0.875,89,85,Piano
401.0,0.875,82,85,Piano
403.0,0.75,58,115,Piano
403.0,0.75,62,115,Piano
403.0,0.75,67,115,Piano
403.0,0.875,91,86,Piano
403.0,0.875,82,86,Piano
405.0,0.6666666666666666,29,93,Piano
405.0,0.6666666666666666,41,93,Piano
405.0,1.625,91,86,Piano
405.0,1.625,81,86,Piano
405.0,1.625,84,86,Piano
409.0,1.5,34,100,Piano
409.0,1.5,70,100,Piano
409.0,1.5,79,100,Piano
409.0,1.5,74,100,Piano
409.0,1.875,68,79,Piano
409.0,1.875,72,79,Piano
409.0,1.875,74,79,Piano
413.0,0.5,67,116,Piano
413.0,0.5,59,116,Piano
413.0,0.5,62,116,Piano
414.5,0.875,73,82,Piano
414.5,0.875,77,82,Piano
414.5,0.875,69,82,Piano
416.5,0.875,65,114,Piano
416.5,0.875,60,114,Piano
416.5,0.875,62,114,Piano
416.5,2.125,69,82,Piano
416.5,2.125,77,82,Piano
416.5,2.125,72,82,Piano
419.0,0.625,53,108,Piano
419.0,0.625,57,108,Piano
419.0,0.625,43,108,Piano
421.0,0.5,71,102,Piano
421.0,0.5,74,102,Piano
421.0,0.5,79,125,Piano
421.0,0.5,52,125,Piano
422.5,0.5,69,109,Piano
422.5,0.5,73,109,Piano
422.5,0.5,77,109,Piano
422.5,0.75,57,112,Piano
422.5,0.75,45,112,Piano
424.3333333333333,0.8333333333333334,69,100,Piano
424.3333333333333,0.8333333333333334,72,100,Piano
427.0,0.75,43,91,Piano
427.0,0.75,65,91,Piano
427.0,0.75,69,91,Piano
428.25,0.0,48,83,Piano
428.25,0.0,50,83,Piano
428.3333333333333,0.0,52,86,Piano
428.3333333333333,0.0,53,86,Piano
428.5,0.0,55,86,Piano
428.5,0.0,57,86,Piano
428.6666666666667,0.0,59,85,Piano
428.6666666666667,0.0,60,85,Piano
428.75,0.0,62,90,Piano
428.75,0.0,64,90,Piano
428.75,0.0,65,86,Piano
428.75,0.0,67,86,Piano
429.0,0.5,67,104,Piano
429.0,0.5,59,104,Piano
429.0,0.5,62,104,Piano
430.5,0.875,73,82,Piano
430.5,0.875,77,82,Piano
430.5,0.875,69,82,Piano
432.5,1.125,57,98,Piano
432.5,1.125,65,98,Piano
432.5,1.125,60,98,Piano
432.5,1.125,38,86,Piano
432.5,1.125,62,86,Piano
432.5,1.1666666666666667,69,82,Piano
432.5,1.1666666666666667,77,82,Piano
432.5,1.1666666666666667,72,82,Piano
435.0,0.625,53,96,Piano
435.0,0.625,57,96,Piano
435.0,0.625,43,96,Piano
435.0,0.875,72,84,Piano
435.0,0.875,65,84,Piano
437.0,0.375,53,90,Piano
437.0,0.375,57,90,Piano
441.0,0.5799903334944417,69,101,Piano
441.0,0.5799903334944417,74,101,Piano
441.0,0.5799903334944417,77,101,Piano
446.5,6.12,36,88,Piano
446.5,6.12,48,88,Piano
446.5,0.72,76,92,Piano
446.5,0.72,79,92,Piano
446.5,0.72,84,111,Piano
446.5,0.72,88,111,Piano
446.5,6.12,72,79,Piano
446.5,6.12,67,79,Piano
446.5,6.12,76,79,Piano
