Start,Duration,Pitch,Velocity,Instrument
4.0,0.20833333333333334,63,98,Piano
4.0,0.20833333333333334,67,98,Piano
5.5,0.625,63,100,Piano
5.5,0.625,67,100,Piano
7.0,0.4166666666666667,63,98,Piano
7.0,0.4166666666666667,67,98,Piano
8.0,0.20833333333333334,63,98,Piano
8.0,0.20833333333333334,67,98,Piano
9.5,0.625,63,100,Piano
9.5,0.625,67,100,Piano
11.0,0.4166666666666667,63,98,Piano
11.0,0.4166666666666667,67,98,Piano
12.0,0.20833333333333334,63,98,Piano
12.0,0.20833333333333334,67,98,Piano
13.5,0.625,63,100,Piano
13.5,0.625,67,100,Piano
15.0,0.4166666666666667,63,98,Piano
15.0,0.4166666666666667,67,98,Piano
16.0,0.4166666666666667,60,95,Piano
16.0,0.4166666666666667,62,95,Piano
16.0,0.4166666666666667,67,95,Piano
17.5,0.625,59,95,Piano
17.5,0.625,62,95,Piano
17.5,0.625,67,95,Piano
19.0,0.4166666666666667,59,95,Piano
19.0,0.4166666666666667,62,95,Piano
19.0,0.4166666666666667,67,95,Piano
20.0,0.20833333333333334,63,98,Piano
20.0,0.20833333333333334,67,98,Piano
21.5,0.625,63,100,Piano
21.5,0.625,67,100,Piano
23.0,0.4166666666666667,63,98,Piano
23.0,0.4166666666666667,67,98,Piano
24.0,0.20833333333333334,63,98,Piano
24.0,0.20833333333333334,67,98,Piano
25.5,0.625,63,100,Piano
25.5,0.625,67,100,Piano
27.0,0.4166666666666667,63,98,Piano
27.0,0.4166666666666667,67,98,Piano
28.0,0.20833333333333334,63,98,Piano
28.0,0.20833333333333334,67,98,Piano
29.5,0.625,63,100,Piano
29.5,0.625,67,100,Piano
31.0,0.4166666666666667,63,98,Piano
31.0,0.4166666666666667,67,98,Piano
32.0,0.1388888888888889,43,96,Piano
32.0,0.1388888888888889,60,96,Piano
32.0,0.1388888888888889,62,96,Piano
32.0,0.1388888888888889,67,96,Piano
32.5,0.1388888888888889,43,96,Piano
32.5,0.1388888888888889,60,96,Piano
32.5,0.1388888888888889,62,96,Piano
32.5,0.1388888888888889,67,96,Piano
33.5,1.0416666666666667,37,95,Piano
33.5,1.0416666666666667,56,95,Piano
33.5,1.0416666666666667,59,95,Piano
33.5,1.0416666666666667,61,95,Piano
33.5,1.0416666666666667,67,95,Piano
36.0,0.20833333333333334,63,98,Piano
36.0,0.20833333333333334,67,98,Piano
37.5,0.625,63,100,Piano
37.5,0.625,67,100,Piano
39.0,0.4166666666666667,63,98,Piano
39.0,0.4166666666666667,67,98,Piano
40.0,0.20833333333333334,63,98,Piano
40.0,0.20833333333333334,67,98,Piano
41.5,0.625,63,100,Piano
41.5,0.625,67,100,Piano
43.0,0.4166666666666667,63,98,Piano
43.0,0.4166666666666667,67,98,Piano
44.0,0.20833333333333334,63,98,Piano
44.0,0.20833333333333334,67,98,Piano
45.5,0.625,63,100,Piano
45.5,0.625,67,100,Piano
47.0,0.4166666666666667,63,98,Piano
47.0,0.4166666666666667,67,98,Piano
48.0,0.20833333333333334,62,98,Piano
48.0,0.20833333333333334,67,98,Piano
49.5,0.625,62,100,Piano
49.5,0.625,67,100,Piano
51.0,0.4166666666666667,62,98,Piano
51.0,0.4166666666666667,67,98,Piano
52.0,0.20833333333333334,63,98,Piano
52.0,0.20833333333333334,67,98,Piano
53.5,0.625,63,100,Piano
53.5,0.625,67,100,Piano
55.0,0.4166666666666667,63,98,Piano
55.0,0.4166666666666667,67,98,Piano
56.0,0.20833333333333334,63,98,Piano
56.0,0.20833333333333334,67,98,Piano
57.5,0.625,63,100,Piano
57.5,0.625,67,100,Piano
59.0,0.4166666666666667,63,98,Piano
59.0,0.4166666666666667,67,98,Piano
60.0,0.20833333333333334,63,98,Piano
60.0,0.20833333333333334,67,98,Piano
61.5,0.4166666666666667,63,100,Piano
61.5,0.4166666666666667,67,100,Piano
62.5,0.4166666666666667,43,96,Piano
62.5,0.4166666666666667,58,96,Piano
62.5,0.4166666666666667,62,96,Piano
62.5,0.4166666666666667,65,96,Piano
63.5,0.4166666666666667,60,95,Piano
63.5,0.4166666666666667,63,95,Piano
63.5,0.4166666666666667,67,95,Piano
66.0,0.4166666666666667,60,95,Piano
66.0,0.4166666666666667,63,95,Piano
66.0,0.4166666666666667,67,95,Piano
67.0,0.4166666666666667,47,96,Piano
67.0,0.4166666666666667,59,96,Piano
67.0,0.4166666666666667,62,96,Piano
67.0,0.4166666666666667,66,96,Piano
68.0,0.10416666666666667,56,95,Piano
68.0,0.10416666666666667,61,95,Piano
68.0,0.10416666666666667,65,95,Piano
68.5,0.10416666666666667,56,95,Piano
68.5,0.10416666666666667,61,95,Piano
68.5,0.10416666666666667,65,95,Piano
69.5,0.10416666666666667,56,90,Piano
69.5,0.10416666666666667,61,90,Piano
69.5,0.10416666666666667,65,90,Piano
70.0,0.10416666666666667,55,95,Piano
70.0,0.10416666666666667,61,95,Piano
70.0,0.10416666666666667,65,95,Piano
70.5,0.10416666666666667,55,95,Piano
70.5,0.10416666666666667,61,95,Piano
70.5,0.10416666666666667,65,95,Piano
71.5,0.10416666666666667,55,90,Piano
71.5,0.10416666666666667,61,90,Piano
71.5,0.10416666666666667,65,90,Piano
72.0,0.10416666666666667,55,95,Piano
72.0,0.10416666666666667,60,95,Piano
72.0,0.10416666666666667,63,95,Piano
72.5,0.10416666666666667,55,95,Piano
72.5,0.10416666666666667,60,95,Piano
72.5,0.10416666666666667,63,95,Piano
73.5,0.10416666666666667,55,90,Piano
73.5,0.10416666666666667,60,90,Piano
73.5,0.10416666666666667,63,90,Piano
74.0,0.10416666666666667,55,95,Piano
74.0,0.10416666666666667,60,95,Piano
74.0,0.10416666666666667,63,95,Piano
74.5,0.10416666666666667,55,95,Piano
74.5,0.10416666666666667,60,95,Piano
74.5,0.10416666666666667,63,95,Piano
75.5,0.10416666666666667,55,90,Piano
75.5,0.10416666666666667,60,90,Piano
75.5,0.10416666666666667,63,90,Piano
76.0,0.10416666666666667,56,95,Piano
76.0,0.10416666666666667,61,95,Piano
76.0,0.10416666666666667,65,95,Piano
76.5,0.10416666666666667,56,95,Piano
76.5,0.10416666666666667,61,95,Piano
76.5,0.10416666666666667,65,95,Piano
77.5,0.10416666666666667,56,90,Piano
77.5,0.10416666666666667,61,90,Piano
77.5,0.10416666666666667,65,90,Piano
78.0,0.10416666666666667,55,95,Piano
78.0,0.10416666666666667,61,95,Piano
78.0,0.10416666666666667,65,95,Piano
78.5,0.10416666666666667,55,95,Piano
78.5,0.10416666666666667,61,95,Piano
78.5,0.10416666666666667,65,95,Piano
79.5,0.10416666666666667,55,90,Piano
79.5,0.10416666666666667,61,90,Piano
79.5,0.10416666666666667,65,90,Piano
80.0,0.10416666666666667,55,95,Piano
80.0,0.10416666666666667,60,95,Piano
80.0,0.10416666666666667,63,95,Piano
80.5,0.10416666666666667,55,95,Piano
80.5,0.10416666666666667,60,95,Piano
80.5,0.10416666666666667,63,95,Piano
81.5,0.10416666666666667,55,90,Piano
81.5,0.10416666666666667,60,90,Piano
81.5,0.10416666666666667,63,90,Piano
82.0,0.10416666666666667,55,95,Piano
82.0,0.10416666666666667,60,95,Piano
82.0,0.10416666666666667,63,95,Piano
82.5,0.10416666666666667,55,95,Piano
82.5,0.10416666666666667,60,95,Piano
82.5,0.10416666666666667,63,95,Piano
83.5,0.10416666666666667,55,90,Piano
83.5,0.10416666666666667,60,90,Piano
83.5,0.10416666666666667,63,90,Piano
96.0,0.625,43,96,Piano
96.0,0.625,60,96,Piano
96.0,0.625,62,96,Piano
96.0,0.625,67,96,Piano
97.5,0.1388888888888889,43,96,Piano
97.5,0.1388888888888889,60,96,Piano
97.5,0.1388888888888889,62,96,Piano
97.5,0.1388888888888889,67,96,Piano
98.0,0.625,43,96,Piano
98.0,0.625,60,96,Piano
98.0,0.625,62,96,Piano
98.0,0.625,67,96,Piano
99.5,0.1388888888888889,37,95,Piano
99.5,0.1388888888888889,56,95,Piano
99.5,0.1388888888888889,59,95,Piano
99.5,0.1388888888888889,61,95,Piano
99.5,0.1388888888888889,67,95,Piano
100.5,0.1388888888888889,37,95,Piano
100.5,0.1388888888888889,56,95,Piano
100.5,0.1388888888888889,59,95,Piano
100.5,0.1388888888888889,61,95,Piano
100.5,0.1388888888888889,67,95,Piano
101.5,0.1388888888888889,37,95,Piano
101.5,0.1388888888888889,56,95,Piano
101.5,0.1388888888888889,59,95,Piano
101.5,0.1388888888888889,61,95,Piano
101.5,0.1388888888888889,67,95,Piano
102.0,0.8333333333333334,37,95,Piano
102.0,0.8333333333333334,56,95,Piano
102.0,0.8333333333333334,59,95,Piano
102.0,0.8333333333333334,61,95,Piano
102.0,0.8333333333333334,67,95,Piano
104.0,0.20833333333333334,60,95,Piano
104.0,0.20833333333333334,72,95,Piano
104.5,0.20833333333333334,51,90,Piano
104.5,0.20833333333333334,63,90,Piano
105.0,0.20833333333333334,55,95,Piano
105.0,0.20833333333333334,67,95,Piano
105.5,0.20833333333333334,60,90,Piano
105.5,0.20833333333333334,72,90,Piano
106.0,0.20833333333333334,59,95,Piano
106.0,0.20833333333333334,71,95,Piano
106.5,0.20833333333333334,51,90,Piano
106.5,0.20833333333333334,63,90,Piano
107.0,0.20833333333333334,55,95,Piano
107.0,0.20833333333333334,67,95,Piano
107.5,0.20833333333333334,58,90,Piano
107.5,0.20833333333333334,70,90,Piano
108.0,0.20833333333333334,57,95,Piano
108.0,0.20833333333333334,69,95,Piano
108.5,0.20833333333333334,48,90,Piano
108.5,0.20833333333333334,60,90,Piano
109.0,0.20833333333333334,51,95,Piano
109.0,0.20833333333333334,63,95,Piano
109.5,0.20833333333333334,56,90,Piano
109.5,0.20833333333333334,68,90,Piano
110.0,0.20833333333333334,55,95,Piano
110.0,0.20833333333333334,67,95,Piano
110.5,0.20833333333333334,48,90,Piano
110.5,0.20833333333333334,60,90,Piano
111.0,0.20833333333333334,51,95,Piano
111.0,0.20833333333333334,63,95,Piano
111.5,0.20833333333333334,55,90,Piano
111.5,0.20833333333333334,67,90,Piano
112.0,0.20833333333333334,56,95,Piano
112.0,0.20833333333333334,68,95,Piano
112.5,0.20833333333333334,49,90,Piano
112.5,0.20833333333333334,61,90,Piano
113.0,0.20833333333333334,53,95,Piano
113.0,0.20833333333333334,65,95,Piano
113.5,0.20833333333333334,56,90,Piano
113.5,0.20833333333333334,68,90,Piano
114.0,0.20833333333333334,55,95,Piano
114.0,0.20833333333333334,67,95,Piano
114.5,0.20833333333333334,48,90,Piano
114.5,0.20833333333333334,60,90,Piano
115.0,0.20833333333333334,51,95,Piano
115.0,0.20833333333333334,63,95,Piano
115.5,0.20833333333333334,55,90,Piano
115.5,0.20833333333333334,67,90,Piano
116.0,0.20833333333333334,54,95,Piano
116.0,0.20833333333333334,66,95,Piano
116.5,0.20833333333333334,45,90,Piano
116.5,0.20833333333333334,57,90,Piano
117.0,0.20833333333333334,50,95,Piano
117.0,0.20833333333333334,62,95,Piano
117.5,0.20833333333333334,54,90,Piano
117.5,0.20833333333333334,66,90,Piano
118.0,0.8333333333333334,43,95,Piano
118.0,0.8333333333333334,67,95,Piano
120.0,0.20833333333333334,60,95,Piano
120.0,0.20833333333333334,72,95,Piano
120.5,0.20833333333333334,51,90,Piano
120.5,0.20833333333333334,63,90,Piano
121.0,0.20833333333333334,55,95,Piano
121.0,0.20833333333333334,67,95,Piano
121.5,0.20833333333333334,60,90,Piano
121.5,0.20833333333333334,72,90,Piano
122.0,0.20833333333333334,59,95,Piano
122.0,0.20833333333333334,71,95,Piano
122.5,0.20833333333333334,51,90,Piano
122.5,0.20833333333333334,63,90,Piano
123.0,0.20833333333333334,55,95,Piano
123.0,0.20833333333333334,67,95,Piano
123.5,0.20833333333333334,58,90,Piano
123.5,0.20833333333333334,70,90,Piano
124.0,0.20833333333333334,57,95,Piano
124.0,0.20833333333333334,69,95,Piano
124.5,0.20833333333333334,48,90,Piano
124.5,0.20833333333333334,60,90,Piano
125.0,0.20833333333333334,51,95,Piano
125.0,0.20833333333333334,63,95,Piano
125.5,0.20833333333333334,56,90,Piano
125.5,0.20833333333333334,68,90,Piano
126.0,0.20833333333333334,55,95,Piano
126.0,0.20833333333333334,67,95,Piano
126.5,0.20833333333333334,48,90,Piano
126.5,0.20833333333333334,60,90,Piano
127.0,0.20833333333333334,51,95,Piano
127.0,0.20833333333333334,63,95,Piano
127.5,0.20833333333333334,55,90,Piano
127.5,0.20833333333333334,67,90,Piano
128.0,0.20833333333333334,56,95,Piano
128.0,0.20833333333333334,68,95,Piano
128.5,0.20833333333333334,48,90,Piano
128.5,0.20833333333333334,60,90,Piano
129.0,0.20833333333333334,49,95,Piano
129.0,0.20833333333333334,61,95,Piano
129.5,0.20833333333333334,51,90,Piano
129.5,0.20833333333333334,63,90,Piano
130.0,0.20833333333333334,53,95,Piano
130.0,0.20833333333333334,65,95,Piano
130.5,0.20833333333333334,55,90,Piano
130.5,0.20833333333333334,67,90,Piano
131.0,0.20833333333333334,56,95,Piano
131.0,0.20833333333333334,68,95,Piano
131.5,0.20833333333333334,58,90,Piano
131.5,0.20833333333333334,70,90,Piano
132.0,0.20833333333333334,60,95,Piano
132.0,0.20833333333333334,72,95,Piano
132.5,0.20833333333333334,55,90,Piano
132.5,0.20833333333333334,67,90,Piano
133.0,0.20833333333333334,56,95,Piano
133.0,0.20833333333333334,68,95,Piano
133.5,0.20833333333333334,58,90,Piano
133.5,0.20833333333333334,70,90,Piano
134.0,0.20833333333333334,60,95,Piano
134.0,0.20833333333333334,72,95,Piano
134.5,0.20833333333333334,61,90,Piano
134.5,0.20833333333333334,73,90,Piano
135.0,0.20833333333333334,63,95,Piano
135.0,0.20833333333333334,75,95,Piano
135.5,0.20833333333333334,65,90,Piano
135.5,0.20833333333333334,77,90,Piano
136.0,0.20833333333333334,67,105,Piano
136.0,0.20833333333333334,79,105,Piano
137.0,0.4166666666666667,55,105,Piano
137.0,0.4166666666666667,67,105,Piano
138.0,0.4166666666666667,54,105,Piano
138.0,0.4166666666666667,66,105,Piano
139.0,0.4166666666666667,53,105,Piano
139.0,0.4166666666666667,65,105,Piano
140.0,0.20833333333333334,63,98,Piano
140.0,0.20833333333333334,67,98,Piano
141.5,0.625,63,100,Piano
141.5,0.625,67,100,Piano
143.0,0.4166666666666667,63,98,Piano
143.0,0.4166666666666667,67,98,Piano
144.0,0.20833333333333334,63,98,Piano
144.0,0.20833333333333334,67,98,Piano
145.5,0.625,63,100,Piano
145.5,0.625,67,100,Piano
147.0,0.4166666666666667,63,98,Piano
147.0,0.4166666666666667,67,98,Piano
148.0,0.20833333333333334,63,98,Piano
148.0,0.20833333333333334,67,98,Piano
149.5,0.625,63,100,Piano
149.5,0.625,67,100,Piano
151.0,0.4166666666666667,63,98,Piano
151.0,0.4166666666666667,67,98,Piano
152.0,0.4166666666666667,60,95,Piano
152.0,0.4166666666666667,62,95,Piano
152.0,0.4166666666666667,67,95,Piano
153.5,0.625,59,95,Piano
153.5,0.625,62,95,Piano
153.5,0.625,67,95,Piano
155.0,0.4166666666666667,59,95,Piano
155.0,0.4166666666666667,62,95,Piano
155.0,0.4166666666666667,67,95,Piano
156.0,0.20833333333333334,63,98,Piano
156.0,0.20833333333333334,67,98,Piano
157.5,0.625,63,100,Piano
157.5,0.625,67,100,Piano
159.0,0.4166666666666667,63,98,Piano
159.0,0.4166666666666667,67,98,Piano
160.0,0.20833333333333334,63,98,Piano
160.0,0.20833333333333334,67,98,Piano
161.5,0.625,63,100,Piano
161.5,0.625,67,100,Piano
163.0,0.4166666666666667,63,98,Piano
163.0,0.4166666666666667,67,98,Piano
164.0,0.20833333333333334,63,98,Piano
164.0,0.20833333333333334,67,98,Piano
165.5,0.625,63,100,Piano
165.5,0.625,67,100,Piano
167.0,0.4166666666666667,63,98,Piano
167.0,0.4166666666666667,67,98,Piano
168.0,0.1388888888888889,43,96,Piano
168.0,0.1388888888888889,60,96,Piano
168.0,0.1388888888888889,62,96,Piano
168.0,0.1388888888888889,67,96,Piano
168.5,0.1388888888888889,43,96,Piano
168.5,0.1388888888888889,60,96,Piano
168.5,0.1388888888888889,62,96,Piano
168.5,0.1388888888888889,67,96,Piano
169.5,1.0416666666666667,37,95,Piano
169.5,1.0416666666666667,56,95,Piano
169.5,1.0416666666666667,59,95,Piano
169.5,1.0416666666666667,61,95,Piano
169.5,1.0416666666666667,67,95,Piano
172.0,0.20833333333333334,63,98,Piano
172.0,0.20833333333333334,67,98,Piano
173.5,0.625,63,100,Piano
173.5,0.625,67,100,Piano
175.0,0.4166666666666667,63,98,Piano
175.0,0.4166666666666667,67,98,Piano
176.0,0.20833333333333334,63,98,Piano
176.0,0.20833333333333334,67,98,Piano
177.5,0.625,63,100,Piano
177.5,0.625,67,100,Piano
179.0,0.4166666666666667,63,98,Piano
179.0,0.4166666666666667,67,98,Piano
180.0,0.20833333333333334,63,98,Piano
180.0,0.20833333333333334,67,98,Piano
181.5,0.625,63,100,Piano
181.5,0.625,67,100,Piano
183.0,0.4166666666666667,63,98,Piano
183.0,0.4166666666666667,67,98,Piano
184.0,0.20833333333333334,62,98,Piano
184.0,0.20833333333333334,67,98,Piano
185.5,0.625,62,100,Piano
185.5,0.625,67,100,Piano
187.0,0.4166666666666667,62,98,Piano
187.0,0.4166666666666667,67,98,Piano
188.0,0.20833333333333334,63,98,Piano
188.0,0.20833333333333334,67,98,Piano
189.5,0.625,63,100,Piano
189.5,0.625,67,100,Piano
191.0,0.4166666666666667,63,98,Piano
191.0,0.4166666666666667,67,98,Piano
192.0,0.20833333333333334,63,98,Piano
192.0,0.20833333333333334,67,98,Piano
193.5,0.625,63,100,Piano
193.5,0.625,67,100,Piano
195.0,0.4166666666666667,63,98,Piano
195.0,0.4166666666666667,67,98,Piano
196.0,0.20833333333333334,63,98,Piano
196.0,0.20833333333333334,67,98,Piano
197.5,0.4166666666666667,63,100,Piano
197.5,0.4166666666666667,67,100,Piano
198.5,0.4166666666666667,43,96,Piano
198.5,0.4166666666666667,58,96,Piano
198.5,0.4166666666666667,62,96,Piano
198.5,0.4166666666666667,65,96,Piano
199.5,0.4166666666666667,60,95,Piano
199.5,0.4166666666666667,63,95,Piano
199.5,0.4166666666666667,67,95,Piano
202.0,0.4166666666666667,60,95,Piano
202.0,0.4166666666666667,63,95,Piano
202.0,0.4166666666666667,67,95,Piano
203.0,0.4166666666666667,47,96,Piano
203.0,0.4166666666666667,59,96,Piano
203.0,0.4166666666666667,62,96,Piano
203.0,0.4166666666666667,66,96,Piano
204.0,0.10416666666666667,56,95,Piano
204.0,0.10416666666666667,61,95,Piano
204.0,0.10416666666666667,65,95,Piano
204.5,0.10416666666666667,56,95,Piano
204.5,0.10416666666666667,61,95,Piano
204.5,0.10416666666666667,65,95,Piano
205.5,0.10416666666666667,56,90,Piano
205.5,0.10416666666666667,61,90,Piano
205.5,0.10416666666666667,65,90,Piano
206.0,0.10416666666666667,55,95,Piano
206.0,0.10416666666666667,61,95,Piano
206.0,0.10416666666666667,65,95,Piano
206.5,0.10416666666666667,55,95,Piano
206.5,0.10416666666666667,61,95,Piano
206.5,0.10416666666666667,65,95,Piano
207.5,0.10416666666666667,55,90,Piano
207.5,0.10416666666666667,61,90,Piano
207.5,0.10416666666666667,65,90,Piano
208.0,0.10416666666666667,55,95,Piano
208.0,0.10416666666666667,60,95,Piano
208.0,0.10416666666666667,63,95,Piano
208.5,0.10416666666666667,55,95,Piano
208.5,0.10416666666666667,60,95,Piano
208.5,0.10416666666666667,63,95,Piano
209.5,0.10416666666666667,55,90,Piano
209.5,0.10416666666666667,60,90,Piano
209.5,0.10416666666666667,63,90,Piano
210.0,0.10416666666666667,55,95,Piano
210.0,0.10416666666666667,60,95,Piano
210.0,0.10416666666666667,63,95,Piano
210.5,0.10416666666666667,55,95,Piano
210.5,0.10416666666666667,60,95,Piano
210.5,0.10416666666666667,63,95,Piano
211.5,0.10416666666666667,55,90,Piano
211.5,0.10416666666666667,60,90,Piano
211.5,0.10416666666666667,63,90,Piano
212.0,0.10416666666666667,56,95,Piano
212.0,0.10416666666666667,61,95,Piano
212.0,0.10416666666666667,65,95,Piano
212.5,0.10416666666666667,56,95,Piano
212.5,0.10416666666666667,61,95,Piano
212.5,0.10416666666666667,65,95,Piano
213.5,0.10416666666666667,56,90,Piano
213.5,0.10416666666666667,61,90,Piano
213.5,0.10416666666666667,65,90,Piano
214.0,0.10416666666666667,55,95,Piano
214.0,0.10416666666666667,61,95,Piano
214.0,0.10416666666666667,65,95,Piano
214.5,0.10416666666666667,55,95,Piano
214.5,0.10416666666666667,61,95,Piano
214.5,0.10416666666666667,65,95,Piano
215.5,0.10416666666666667,55,90,Piano
215.5,0.10416666666666667,61,90,Piano
215.5,0.10416666666666667,65,90,Piano
216.0,0.10416666666666667,55,95,Piano
216.0,0.10416666666666667,60,95,Piano
216.0,0.10416666666666667,63,95,Piano
216.5,0.10416666666666667,55,95,Piano
216.5,0.10416666666666667,60,95,Piano
216.5,0.10416666666666667,63,95,Piano
217.5,0.10416666666666667,55,90,Piano
217.5,0.10416666666666667,60,90,Piano
217.5,0.10416666666666667,63,90,Piano
218.0,0.10416666666666667,55,95,Piano
218.0,0.10416666666666667,60,95,Piano
218.0,0.10416666666666667,63,95,Piano
218.5,0.10416666666666667,55,95,Piano
218.5,0.10416666666666667,60,95,Piano
218.5,0.10416666666666667,63,95,Piano
219.5,0.10416666666666667,55,90,Piano
219.5,0.10416666666666667,60,90,Piano
219.5,0.10416666666666667,63,90,Piano
232.0,0.625,43,96,Piano
232.0,0.625,60,96,Piano
232.0,0.625,62,96,Piano
232.0,0.625,67,96,Piano
233.5,0.1388888888888889,43,96,Piano
233.5,0.1388888888888889,60,96,Piano
233.5,0.1388888888888889,62,96,Piano
233.5,0.1388888888888889,67,96,Piano
234.0,0.625,43,96,Piano
234.0,0.625,60,96,Piano
234.0,0.625,62,96,Piano
234.0,0.625,67,96,Piano
235.5,0.1388888888888889,37,95,Piano
235.5,0.1388888888888889,56,95,Piano
235.5,0.1388888888888889,59,95,Piano
235.5,0.1388888888888889,61,95,Piano
235.5,0.1388888888888889,67,95,Piano
236.5,0.1388888888888889,37,95,Piano
236.5,0.1388888888888889,56,95,Piano
236.5,0.1388888888888889,59,95,Piano
236.5,0.1388888888888889,61,95,Piano
236.5,0.1388888888888889,67,95,Piano
237.5,0.1388888888888889,37,95,Piano
237.5,0.1388888888888889,56,95,Piano
237.5,0.1388888888888889,59,95,Piano
237.5,0.1388888888888889,61,95,Piano
237.5,0.1388888888888889,67,95,Piano
238.0,0.8333333333333334,37,95,Piano
238.0,0.8333333333333334,56,95,Piano
238.0,0.8333333333333334,59,95,Piano
238.0,0.8333333333333334,61,95,Piano
238.0,0.8333333333333334,67,95,Piano
240.0,0.20833333333333334,60,95,Piano
240.0,0.20833333333333334,72,95,Piano
240.5,0.20833333333333334,51,90,Piano
240.5,0.20833333333333334,63,90,Piano
241.0,0.20833333333333334,55,95,Piano
241.0,0.20833333333333334,67,95,Piano
241.5,0.20833333333333334,60,90,Piano
241.5,0.20833333333333334,72,90,Piano
242.0,0.20833333333333334,59,95,Piano
242.0,0.20833333333333334,71,95,Piano
242.5,0.20833333333333334,51,90,Piano
242.5,0.20833333333333334,63,90,Piano
243.0,0.20833333333333334,55,95,Piano
243.0,0.20833333333333334,67,95,Piano
243.5,0.20833333333333334,58,90,Piano
243.5,0.20833333333333334,70,90,Piano
244.0,0.20833333333333334,57,95,Piano
244.0,0.20833333333333334,69,95,Piano
244.5,0.20833333333333334,48,90,Piano
244.5,0.20833333333333334,60,90,Piano
245.0,0.20833333333333334,51,95,Piano
245.0,0.20833333333333334,63,95,Piano
245.5,0.20833333333333334,56,90,Piano
245.5,0.20833333333333334,68,90,Piano
246.0,0.20833333333333334,55,95,Piano
246.0,0.20833333333333334,67,95,Piano
246.5,0.20833333333333334,48,90,Piano
246.5,0.20833333333333334,60,90,Piano
247.0,0.20833333333333334,51,95,Piano
247.0,0.20833333333333334,63,95,Piano
247.5,0.20833333333333334,55,90,Piano
247.5,0.20833333333333334,67,90,Piano
248.0,0.20833333333333334,56,95,Piano
248.0,0.20833333333333334,68,95,Piano
248.5,0.20833333333333334,49,90,Piano
248.5,0.20833333333333334,61,90,Piano
249.0,0.20833333333333334,53,95,Piano
249.0,0.20833333333333334,65,95,Piano
249.5,0.20833333333333334,56,90,Piano
249.5,0.20833333333333334,68,90,Piano
250.0,0.20833333333333334,55,95,Piano
250.0,0.20833333333333334,67,95,Piano
250.5,0.20833333333333334,48,90,Piano
250.5,0.20833333333333334,60,90,Piano
251.0,0.20833333333333334,51,95,Piano
251.0,0.20833333333333334,63,95,Piano
251.5,0.20833333333333334,55,90,Piano
251.5,0.20833333333333334,67,90,Piano
252.0,0.20833333333333334,54,95,Piano
252.0,0.20833333333333334,66,95,Piano
252.5,0.20833333333333334,45,90,Piano
252.5,0.20833333333333334,57,90,Piano
253.0,0.20833333333333334,50,95,Piano
253.0,0.20833333333333334,62,95,Piano
253.5,0.20833333333333334,54,90,Piano
253.5,0.20833333333333334,66,90,Piano
254.0,0.8333333333333334,43,95,Piano
254.0,0.8333333333333334,67,95,Piano
256.0,0.20833333333333334,60,95,Piano
256.0,0.20833333333333334,72,95,Piano
256.5,0.20833333333333334,51,90,Piano
256.5,0.20833333333333334,63,90,Piano
257.0,0.20833333333333334,55,95,Piano
257.0,0.20833333333333334,67,95,Piano
257.5,0.20833333333333334,60,90,Piano
257.5,0.20833333333333334,72,90,Piano
258.0,0.20833333333333334,59,95,Piano
258.0,0.20833333333333334,71,95,Piano
258.5,0.20833333333333334,51,90,Piano
258.5,0.20833333333333334,63,90,Piano
259.0,0.20833333333333334,55,95,Piano
259.0,0.20833333333333334,67,95,Piano
259.5,0.20833333333333334,58,90,Piano
259.5,0.20833333333333334,70,90,Piano
260.0,0.20833333333333334,57,95,Piano
260.0,0.20833333333333334,69,95,Piano
260.5,0.20833333333333334,48,90,Piano
260.5,0.20833333333333334,60,90,Piano
261.0,0.20833333333333334,51,95,Piano
261.0,0.20833333333333334,63,95,Piano
261.5,0.20833333333333334,56,90,Piano
261.5,0.20833333333333334,68,90,Piano
262.0,0.20833333333333334,55,95,Piano
262.0,0.20833333333333334,67,95,Piano
262.5,0.20833333333333334,48,90,Piano
262.5,0.20833333333333334,60,90,Piano
263.0,0.20833333333333334,51,95,Piano
263.0,0.20833333333333334,63,95,Piano
263.5,0.20833333333333334,55,90,Piano
263.5,0.20833333333333334,67,90,Piano
264.0,0.20833333333333334,56,95,Piano
264.0,0.20833333333333334,68,95,Piano
264.5,0.20833333333333334,48,90,Piano
264.5,0.20833333333333334,60,90,Piano
265.0,0.20833333333333334,49,95,Piano
265.0,0.20833333333333334,61,95,Piano
265.5,0.20833333333333334,51,90,Piano
265.5,0.20833333333333334,63,90,Piano
266.0,0.20833333333333334,53,95,Piano
266.0,0.20833333333333334,65,95,Piano
266.5,0.20833333333333334,55,90,Piano
266.5,0.20833333333333334,67,90,Piano
267.0,0.20833333333333334,56,95,Piano
267.0,0.20833333333333334,68,95,Piano
267.5,0.20833333333333334,58,90,Piano
267.5,0.20833333333333334,70,90,Piano
268.0,0.20833333333333334,60,95,Piano
268.0,0.20833333333333334,72,95,Piano
268.5,0.20833333333333334,55,90,Piano
268.5,0.20833333333333334,67,90,Piano
269.0,0.20833333333333334,56,95,Piano
269.0,0.20833333333333334,68,95,Piano
269.5,0.20833333333333334,58,90,Piano
269.5,0.20833333333333334,70,90,Piano
270.0,0.20833333333333334,60,95,Piano
270.0,0.20833333333333334,72,95,Piano
270.5,0.20833333333333334,61,90,Piano
270.5,0.20833333333333334,73,90,Piano
271.0,0.20833333333333334,63,95,Piano
271.0,0.20833333333333334,75,95,Piano
271.5,0.20833333333333334,65,90,Piano
271.5,0.20833333333333334,77,90,Piano
272.0,0.20833333333333334,67,105,Piano
272.0,0.20833333333333334,79,105,Piano
273.0,0.4166666666666667,55,105,Piano
273.0,0.4166666666666667,67,105,Piano
274.0,0.4166666666666667,54,105,Piano
274.0,0.4166666666666667,66,105,Piano
275.0,0.4166666666666667,53,105,Piano
275.0,0.4166666666666667,65,105,Piano
276.0,0.20833333333333334,60,95,Piano
276.0,0.20833333333333334,72,95,Piano
276.5,0.20833333333333334,51,90,Piano
276.5,0.20833333333333334,63,90,Piano
277.0,0.20833333333333334,55,95,Piano
277.0,0.20833333333333334,67,95,Piano
277.5,0.20833333333333334,60,90,Piano
277.5,0.20833333333333334,72,90,Piano
278.0,0.20833333333333334,59,95,Piano
278.0,0.20833333333333334,71,95,Piano
278.5,0.20833333333333334,51,90,Piano
278.5,0.20833333333333334,63,90,Piano
279.0,0.20833333333333334,55,95,Piano
279.0,0.20833333333333334,67,95,Piano
279.5,0.20833333333333334,58,90,Piano
279.5,0.20833333333333334,70,90,Piano
280.0,0.20833333333333334,57,95,Piano
280.0,0.20833333333333334,69,95,Piano
280.5,0.20833333333333334,48,90,Piano
280.5,0.20833333333333334,60,90,Piano
281.0,0.20833333333333334,51,95,Piano
281.0,0.20833333333333334,63,95,Piano
281.5,0.20833333333333334,56,90,Piano
281.5,0.20833333333333334,68,90,Piano
282.0,0.20833333333333334,55,95,Piano
282.0,0.20833333333333334,67,95,Piano
282.5,0.20833333333333334,48,90,Piano
282.5,0.20833333333333334,60,90,Piano
283.0,0.20833333333333334,51,95,Piano
283.0,0.20833333333333334,63,95,Piano
283.5,0.20833333333333334,55,90,Piano
283.5,0.20833333333333334,67,90,Piano
284.0,0.20833333333333334,56,95,Piano
284.0,0.20833333333333334,68,95,Piano
284.5,0.20833333333333334,49,90,Piano
284.5,0.20833333333333334,61,90,Piano
285.0,0.20833333333333334,53,95,Piano
285.0,0.20833333333333334,65,95,Piano
285.5,0.20833333333333334,56,90,Piano
285.5,0.20833333333333334,68,90,Piano
286.0,0.20833333333333334,55,95,Piano
286.0,0.20833333333333334,67,95,Piano
286.5,0.20833333333333334,48,90,Piano
286.5,0.20833333333333334,60,90,Piano
287.0,0.20833333333333334,51,95,Piano
287.0,0.20833333333333334,63,95,Piano
287.5,0.20833333333333334,55,90,Piano
287.5,0.20833333333333334,67,90,Piano
288.0,0.20833333333333334,54,95,Piano
288.0,0.20833333333333334,66,95,Piano
288.5,0.20833333333333334,45,90,Piano
288.5,0.20833333333333334,57,90,Piano
289.0,0.20833333333333334,50,95,Piano
289.0,0.20833333333333334,62,95,Piano
289.5,0.20833333333333334,54,90,Piano
289.5,0.20833333333333334,66,90,Piano
290.0,0.8333333333333334,43,95,Piano
290.0,0.8333333333333334,67,95,Piano
292.0,0.20833333333333334,60,95,Piano
292.0,0.20833333333333334,72,95,Piano
292.5,0.20833333333333334,51,90,Piano
292.5,0.20833333333333334,63,90,Piano
293.0,0.20833333333333334,55,95,Piano
293.0,0.20833333333333334,67,95,Piano
293.5,0.20833333333333334,60,90,Piano
293.5,0.20833333333333334,72,90,Piano
294.0,0.20833333333333334,59,95,Piano
294.0,0.20833333333333334,71,95,Piano
294.5,0.20833333333333334,51,90,Piano
294.5,0.20833333333333334,63,90,Piano
295.0,0.20833333333333334,55,95,Piano
295.0,0.20833333333333334,67,95,Piano
295.5,0.20833333333333334,58,90,Piano
295.5,0.20833333333333334,70,90,Piano
296.0,0.20833333333333334,57,95,Piano
296.0,0.20833333333333334,69,95,Piano
296.5,0.20833333333333334,48,90,Piano
296.5,0.20833333333333334,60,90,Piano
297.0,0.20833333333333334,51,95,Piano
297.0,0.20833333333333334,63,95,Piano
297.5,0.20833333333333334,56,90,Piano
297.5,0.20833333333333334,68,90,Piano
298.0,0.20833333333333334,55,95,Piano
298.0,0.20833333333333334,67,95,Piano
298.5,0.20833333333333334,48,90,Piano
298.5,0.20833333333333334,60,90,Piano
299.0,0.20833333333333334,51,95,Piano
299.0,0.20833333333333334,63,95,Piano
299.5,0.20833333333333334,55,90,Piano
299.5,0.20833333333333334,67,90,Piano
300.0,0.20833333333333334,56,95,Piano
300.0,0.20833333333333334,68,95,Piano
300.5,0.20833333333333334,48,90,Piano
300.5,0.20833333333333334,60,90,Piano
301.0,0.20833333333333334,49,95,Piano
301.0,0.20833333333333334,61,95,Piano
301.5,0.20833333333333334,51,90,Piano
301.5,0.20833333333333334,63,90,Piano
302.0,0.20833333333333334,53,95,Piano
302.0,0.20833333333333334,65,95,Piano
302.5,0.20833333333333334,55,90,Piano
302.5,0.20833333333333334,67,90,Piano
303.0,0.20833333333333334,56,95,Piano
303.0,0.20833333333333334,68,95,Piano
303.5,0.20833333333333334,58,90,Piano
303.5,0.20833333333333334,70,90,Piano
304.0,0.20833333333333334,60,95,Piano
304.0,0.20833333333333334,72,95,Piano
304.5,0.20833333333333334,55,90,Piano
304.5,0.20833333333333334,67,90,Piano
305.0,0.20833333333333334,56,95,Piano
305.0,0.20833333333333334,68,95,Piano
305.5,0.20833333333333334,58,90,Piano
305.5,0.20833333333333334,70,90,Piano
306.0,0.20833333333333334,60,95,Piano
306.0,0.20833333333333334,72,95,Piano
306.5,0.20833333333333334,61,90,Piano
306.5,0.20833333333333334,73,90,Piano
307.0,0.20833333333333334,63,95,Piano
307.0,0.20833333333333334,75,95,Piano
307.5,0.20833333333333334,65,90,Piano
307.5,0.20833333333333334,77,90,Piano
308.0,0.20833333333333334,67,105,Piano
308.0,0.20833333333333334,79,105,Piano
309.0,0.4166666666666667,55,105,Piano
309.0,0.4166666666666667,67,105,Piano
310.0,0.4166666666666667,54,105,Piano
310.0,0.4166666666666667,66,105,Piano
311.0,0.4166666666666667,53,105,Piano
311.0,0.4166666666666667,65,105,Piano
312.0,0.20833333333333334,63,98,Piano
312.0,0.20833333333333334,67,98,Piano
313.5,0.625,63,100,Piano
313.5,0.625,67,100,Piano
315.0,0.4166666666666667,63,98,Piano
315.0,0.4166666666666667,67,98,Piano
316.0,0.20833333333333334,63,98,Piano
316.0,0.20833333333333334,67,98,Piano
317.5,0.625,63,100,Piano
317.5,0.625,67,100,Piano
319.0,0.4166666666666667,63,98,Piano
319.0,0.4166666666666667,67,98,Piano
320.0,0.20833333333333334,63,98,Piano
320.0,0.20833333333333334,67,98,Piano
321.5,0.625,63,100,Piano
321.5,0.625,67,100,Piano
323.0,0.4166666666666667,63,98,Piano
323.0,0.4166666666666667,67,98,Piano
324.0,0.10416666666666667,37,105,Piano
324.0,0.10416666666666667,56,105,Piano
324.0,0.10416666666666667,59,105,Piano
324.0,0.10416666666666667,61,105,Piano
324.0,0.10416666666666667,67,105,Piano
324.5,0.10416666666666667,37,105,Piano
324.5,0.10416666666666667,56,105,Piano
324.5,0.10416666666666667,59,105,Piano
324.5,0.10416666666666667,61,105,Piano
324.5,0.10416666666666667,67,105,Piano
325.5,0.10416666666666667,37,105,Piano
325.5,0.10416666666666667,56,105,Piano
325.5,0.10416666666666667,59,105,Piano
325.5,0.10416666666666667,61,105,Piano
325.5,0.10416666666666667,67,105,Piano
326.5,0.10416666666666667,37,105,Piano
326.5,0.10416666666666667,56,105,Piano
326.5,0.10416666666666667,59,105,Piano
326.5,0.10416666666666667,61,105,Piano
326.5,0.10416666666666667,67,105,Piano
327.0,0.10416666666666667,37,105,Piano
327.0,0.10416666666666667,56,105,Piano
327.0,0.10416666666666667,59,105,Piano
327.0,0.10416666666666667,61,105,Piano
327.0,0.10416666666666667,67,105,Piano
328.0,0.10416666666666667,36,105,Piano
328.0,0.10416666666666667,48,105,Piano
328.0,0.10416666666666667,63,105,Piano
328.0,0.10416666666666667,67,105,Piano
328.0,0.10416666666666667,72,105,Piano
