Start,Duration,Pitch,Velocity,Instrument
12.0,1.7305473657223431,62,86,Piano
12.0,1.7305473657223431,66,86,Piano
35.75,1.9228304063581592,57,56,Piano
35.75,1.9228304063581592,59,56,Piano
40.0,2.5637738751442125,57,58,Piano
40.0,2.5637738751442125,62,58,Piano
44.0,2.499679528265607,62,59,Piano
44.0,2.499679528265607,64,59,Piano
48.0,2.5637738751442125,64,74,Piano
48.0,2.5637738751442125,66,74,Piano
48.0,2.499679528265607,50,59,Piano
48.0,2.499679528265607,69,59,Piano
52.0,2.5637738751442125,62,60,Piano
52.0,2.5637738751442125,64,60,Piano
52.0,2.499679528265607,50,58,Piano
52.0,2.499679528265607,67,58,Piano
56.0,2.5637738751442125,64,70,Piano
56.0,2.5637738751442125,66,70,Piano
60.0,2.307396487629791,62,56,Piano
60.0,2.307396487629791,64,56,Piano
60.0,2.5637738751442125,50,76,Piano
60.0,2.5637738751442125,67,76,Piano
64.0,1.1536982438148955,61,74,Piano
64.0,1.1536982438148955,64,74,Piano
64.0,1.1536982438148955,42,74,Piano
66.0,0.9614152031790796,35,56,Piano
66.0,0.9614152031790796,63,56,Piano
66.0,0.9614152031790796,47,56,Piano
66.0,1.1536982438148955,57,64,Piano
66.0,1.1536982438148955,61,64,Piano
68.0,1.1536982438148955,64,74,Piano
68.0,1.1536982438148955,61,74,Piano
70.0,1.1536982438148955,57,65,Piano
70.0,1.1536982438148955,61,65,Piano
70.0,1.1536982438148955,63,65,Piano
72.0,0.7691321625432637,59,67,Piano
72.0,0.7691321625432637,62,67,Piano
76.0,1.0255095500576847,33,57,Piano
76.0,1.0255095500576847,62,57,Piano
76.0,1.0255095500576847,66,57,Piano
76.0,1.0255095500576847,55,57,Piano
77.75,0.9614152031790796,55,52,Piano
77.75,0.9614152031790796,58,52,Piano
78.0,0.7691321625432637,45,38,Piano
78.0,0.7691321625432637,64,38,Piano
78.0,0.7691321625432637,62,64,Piano
78.0,0.7691321625432637,64,64,Piano
80.0,1.9228304063581592,62,62,Piano
80.0,1.9228304063581592,64,62,Piano
83.0,0.5127547750288424,64,64,Piano
83.0,0.5127547750288424,66,64,Piano
83.0,0.5127547750288424,62,64,Piano
83.0,0.38456608127163183,57,54,Piano
83.0,0.38456608127163183,66,54,Piano
84.0,2.691962568901423,62,72,Piano
84.0,2.691962568901423,67,72,Piano
84.0,2.691962568901423,59,60,Piano
84.0,2.691962568901423,64,60,Piano
88.0,2.0510191001153695,61,78,Piano
88.0,2.0510191001153695,64,78,Piano
88.0,1.9228304063581592,66,74,Piano
88.0,1.9228304063581592,69,74,Piano
91.75,2.691962568901423,59,68,Piano
91.75,2.691962568901423,62,68,Piano
92.0,2.691962568901423,64,76,Piano
92.0,2.691962568901423,67,76,Piano
96.0,2.691962568901423,64,92,Piano
96.0,2.691962568901423,66,92,Piano
104.0,1.1536982438148955,64,82,Piano
104.0,1.1536982438148955,42,82,Piano
106.0,0.5127547750288424,63,92,Piano
106.0,0.5127547750288424,57,92,Piano
106.0,0.5127547750288424,61,92,Piano
106.0,0.5127547750288424,66,92,Piano
107.0,0.38456608127163183,63,92,Piano
107.0,0.38456608127163183,57,92,Piano
107.0,0.38456608127163183,61,92,Piano
107.0,0.38456608127163183,65,92,Piano
108.0,0.9614152031790796,61,92,Piano
108.0,0.9614152031790796,64,92,Piano
110.0,1.1536982438148955,47,77,Piano
110.0,1.1536982438148955,63,77,Piano
110.0,1.1536982438148955,61,77,Piano
110.0,1.1536982438148955,66,77,Piano
116.0,2.307396487629791,64,68,Piano
116.0,2.307396487629791,66,68,Piano
119.0,0.38456608127163183,26,118,Piano
119.0,0.38456608127163183,38,118,Piano
120.0,0.5127547750288424,55,85,Piano
120.0,0.5127547750288424,57,85,Piano
120.0,0.5127547750288424,62,85,Piano
120.0,0.5127547750288424,59,85,Piano
121.0,0.5127547750288424,57,89,Piano
121.0,0.5127547750288424,62,89,Piano
121.0,0.5127547750288424,59,89,Piano
121.0,0.5127547750288424,55,89,Piano
122.0,0.5127547750288424,57,86,Piano
122.0,0.5127547750288424,62,86,Piano
122.0,0.5127547750288424,59,86,Piano
122.0,0.5127547750288424,55,86,Piano
123.0,0.38456608127163183,62,93,Piano
123.0,0.38456608127163183,55,93,Piano
123.0,0.38456608127163183,57,93,Piano
123.0,0.38456608127163183,59,93,Piano
124.0,0.5127547750288424,60,98,Piano
124.0,0.5127547750288424,57,98,Piano
124.0,0.5127547750288424,53,98,Piano
125.0,0.5768491219074477,60,96,Piano
125.0,0.5768491219074477,57,96,Piano
125.0,0.5768491219074477,53,96,Piano
126.0,0.2563773875144212,60,104,Piano
126.0,0.2563773875144212,57,104,Piano
126.0,0.2563773875144212,53,104,Piano
127.0,0.38456608127163183,67,110,Piano
127.0,0.38456608127163183,60,110,Piano
127.0,0.38456608127163183,57,110,Piano
127.0,0.38456608127163183,31,110,Piano
128.0,0.5127547750288424,65,107,Piano
128.0,0.5127547750288424,55,107,Piano
128.0,0.5127547750288424,60,107,Piano
129.0,0.38456608127163183,64,109,Piano
129.0,0.38456608127163183,55,109,Piano
129.0,0.38456608127163183,60,109,Piano
130.0,0.5768491219074477,62,106,Piano
130.0,0.5768491219074477,57,106,Piano
130.0,0.5768491219074477,66,106,Piano
131.0,0.5127547750288424,62,117,Piano
131.0,0.5127547750288424,57,117,Piano
131.0,0.5127547750288424,66,117,Piano
132.0,0.5127547750288424,57,99,Piano
132.0,0.5127547750288424,66,99,Piano
132.0,0.5127547750288424,62,99,Piano
132.0,0.5127547750288424,61,99,Piano
133.0,0.38456608127163183,61,102,Piano
133.0,0.38456608127163183,57,102,Piano
133.0,0.38456608127163183,66,102,Piano
133.0,0.38456608127163183,62,102,Piano
134.0,0.5127547750288424,59,101,Piano
134.0,0.5127547750288424,62,101,Piano
134.0,0.5127547750288424,64,101,Piano
135.0,0.38456608127163183,59,107,Piano
135.0,0.38456608127163183,62,107,Piano
135.0,0.38456608127163183,64,107,Piano
136.0,0.5127547750288424,60,89,Piano
136.0,0.5127547750288424,64,89,Piano
136.0,0.5127547750288424,59,89,Piano
136.0,0.5127547750288424,55,89,Piano
137.0,0.5127547750288424,64,88,Piano
137.0,0.5127547750288424,60,88,Piano
137.0,0.5127547750288424,55,88,Piano
137.0,0.5127547750288424,59,88,Piano
138.0,0.5127547750288424,64,99,Piano
138.0,0.5127547750288424,59,99,Piano
138.0,0.5127547750288424,60,99,Piano
139.0,0.19228304063581592,55,120,Piano
139.0,0.19228304063581592,64,120,Piano
139.5,0.19228304063581592,66,120,Piano
139.5,0.19228304063581592,57,120,Piano
140.0,0.5127547750288424,57,90,Piano
140.0,0.5127547750288424,67,90,Piano
140.0,0.5127547750288424,60,90,Piano
140.0,0.5127547750288424,62,90,Piano
141.0,0.5127547750288424,60,91,Piano
141.0,0.5127547750288424,57,91,Piano
141.0,0.5127547750288424,62,91,Piano
141.0,0.5127547750288424,67,91,Piano
142.0,0.38456608127163183,57,95,Piano
142.0,0.38456608127163183,67,95,Piano
142.0,0.38456608127163183,62,95,Piano
142.0,0.38456608127163183,60,95,Piano
143.0,0.38456608127163183,65,109,Piano
143.0,0.38456608127163183,60,109,Piano
143.0,0.38456608127163183,57,109,Piano
144.0,0.7691321625432637,64,102,Piano
144.0,0.7691321625432637,60,102,Piano
144.0,0.7691321625432637,57,102,Piano
144.0,0.7691321625432637,38,105,Piano
144.0,0.7691321625432637,57,105,Piano
145.5,0.5768491219074477,64,105,Piano
145.5,0.5768491219074477,59,105,Piano
145.5,0.5768491219074477,53,105,Piano
146.5,0.38456608127163183,53,104,Piano
146.5,0.38456608127163183,59,104,Piano
146.5,0.38456608127163183,64,104,Piano
147.33333333333334,0.19228304063581592,53,105,Piano
147.33333333333334,0.19228304063581592,63,105,Piano
147.33333333333334,0.19228304063581592,59,105,Piano
148.0,0.5127547750288424,55,106,Piano
148.0,0.5127547750288424,60,106,Piano
148.0,0.5127547750288424,62,106,Piano
150.0,0.5768491219074477,64,92,Piano
150.0,0.5768491219074477,55,92,Piano
150.0,0.5768491219074477,59,92,Piano
150.0,0.5768491219074477,60,92,Piano
151.0,0.38456608127163183,60,101,Piano
151.0,0.38456608127163183,64,101,Piano
151.0,0.38456608127163183,55,101,Piano
151.0,0.38456608127163183,59,101,Piano
152.0,0.38456608127163183,55,102,Piano
152.0,0.38456608127163183,60,102,Piano
152.0,0.38456608127163183,64,102,Piano
153.0,0.38456608127163183,66,117,Piano
153.0,0.38456608127163183,62,117,Piano
154.0,0.38456608127163183,64,110,Piano
154.0,0.38456608127163183,67,110,Piano
154.0,0.38456608127163183,60,110,Piano
155.0,0.2563773875144212,60,106,Piano
155.0,0.2563773875144212,69,106,Piano
155.0,0.2563773875144212,66,106,Piano
155.0,0.2563773875144212,64,106,Piano
156.0,0.5127547750288424,62,104,Piano
156.0,0.5127547750288424,71,104,Piano
156.0,0.5127547750288424,67,104,Piano
158.0,0.5127547750288424,60,90,Piano
158.0,0.5127547750288424,65,90,Piano
158.0,0.5127547750288424,69,90,Piano
160.0,0.5127547750288424,59,92,Piano
160.0,0.5127547750288424,62,92,Piano
162.0,1.1536982438148955,60,86,Piano
162.0,1.1536982438148955,57,86,Piano
162.0,1.1536982438148955,65,86,Piano
162.0,0.19228304063581592,70,80,Piano
162.0,0.19228304063581592,53,80,Piano
164.0,0.9614152031790796,64,66,Piano
164.0,0.9614152031790796,60,66,Piano
168.0,1.1536982438148955,35,69,Piano
168.0,1.1536982438148955,67,69,Piano
168.0,1.1536982438148955,62,69,Piano
170.0,1.1536982438148955,34,68,Piano
170.0,1.1536982438148955,46,68,Piano
172.0,1.5382643250865273,62,82,Piano
172.0,1.5382643250865273,66,82,Piano
175.75,1.5382643250865273,55,64,Piano
175.75,1.5382643250865273,58,64,Piano
176.0,1.3459812844507115,62,82,Piano
176.0,1.3459812844507115,64,82,Piano
180.0,0.38456608127163183,57,68,Piano
180.0,0.38456608127163183,62,68,Piano
180.0,0.38456608127163183,66,68,Piano
180.0,0.38456608127163183,64,68,Piano
181.0,0.5127547750288424,57,77,Piano
181.0,0.5127547750288424,62,77,Piano
181.0,0.5127547750288424,66,77,Piano
181.0,0.5127547750288424,64,77,Piano
182.0,0.38456608127163183,57,77,Piano
182.0,0.38456608127163183,62,77,Piano
182.0,0.38456608127163183,66,77,Piano
182.0,0.38456608127163183,64,77,Piano
183.0,0.38456608127163183,57,80,Piano
183.0,0.38456608127163183,62,80,Piano
183.0,0.38456608127163183,66,80,Piano
183.0,0.38456608127163183,64,80,Piano
184.0,0.5127547750288424,64,76,Piano
184.0,0.5127547750288424,67,76,Piano
184.0,0.5127547750288424,62,76,Piano
184.0,0.5127547750288424,59,76,Piano
185.0,0.38456608127163183,62,80,Piano
185.0,0.38456608127163183,59,80,Piano
185.0,0.38456608127163183,64,80,Piano
185.0,0.38456608127163183,67,80,Piano
186.0,0.38456608127163183,64,73,Piano
186.0,0.38456608127163183,62,73,Piano
186.0,0.38456608127163183,67,73,Piano
186.0,0.38456608127163183,59,73,Piano
187.0,0.38456608127163183,62,77,Piano
187.0,0.38456608127163183,67,77,Piano
187.0,0.38456608127163183,59,77,Piano
187.0,0.38456608127163183,64,77,Piano
188.0,0.5127547750288424,64,84,Piano
188.0,0.5127547750288424,69,84,Piano
188.0,0.5127547750288424,61,84,Piano
188.0,0.5127547750288424,66,84,Piano
189.0,0.38456608127163183,61,82,Piano
189.0,0.38456608127163183,64,82,Piano
189.0,0.38456608127163183,69,82,Piano
189.0,0.38456608127163183,66,82,Piano
190.0,0.38456608127163183,61,71,Piano
190.0,0.38456608127163183,64,71,Piano
190.0,0.38456608127163183,66,71,Piano
190.0,0.38456608127163183,69,71,Piano
191.0,0.38456608127163183,61,75,Piano
191.0,0.38456608127163183,64,75,Piano
191.0,0.38456608127163183,66,75,Piano
192.0,0.5127547750288424,67,76,Piano
192.0,0.5127547750288424,59,76,Piano
192.0,0.5127547750288424,62,76,Piano
192.0,0.5127547750288424,64,76,Piano
193.0,0.38456608127163183,62,65,Piano
193.0,0.38456608127163183,64,65,Piano
193.0,0.38456608127163183,67,65,Piano
193.0,0.38456608127163183,59,65,Piano
194.0,0.5127547750288424,59,66,Piano
194.0,0.5127547750288424,67,66,Piano
194.0,0.5127547750288424,62,66,Piano
194.0,0.5127547750288424,64,66,Piano
195.0,0.2563773875144212,67,70,Piano
195.0,0.2563773875144212,62,70,Piano
196.0,0.38456608127163183,62,70,Piano
196.0,0.38456608127163183,64,70,Piano
196.0,0.38456608127163183,57,70,Piano
196.0,0.38456608127163183,66,70,Piano
197.0,0.38456608127163183,64,74,Piano
197.0,0.38456608127163183,57,74,Piano
197.0,0.38456608127163183,66,74,Piano
197.0,0.38456608127163183,62,74,Piano
198.0,0.5127547750288424,62,69,Piano
198.0,0.5127547750288424,64,69,Piano
198.0,0.5127547750288424,57,69,Piano
198.0,0.5127547750288424,66,69,Piano
199.0,0.38456608127163183,62,82,Piano
199.0,0.38456608127163183,57,82,Piano
199.0,0.38456608127163183,66,82,Piano
199.0,0.38456608127163183,64,82,Piano
200.0,0.5127547750288424,62,79,Piano
200.0,0.5127547750288424,64,79,Piano
200.0,0.5127547750288424,67,79,Piano
200.0,0.5127547750288424,59,79,Piano
201.0,0.5127547750288424,67,79,Piano
201.0,0.5127547750288424,62,79,Piano
201.0,0.5127547750288424,59,79,Piano
201.0,0.5127547750288424,64,79,Piano
202.0,0.38456608127163183,59,80,Piano
202.0,0.38456608127163183,64,80,Piano
202.0,0.38456608127163183,67,80,Piano
202.0,0.38456608127163183,62,80,Piano
203.0,0.38456608127163183,67,89,Piano
203.0,0.38456608127163183,59,89,Piano
203.0,0.38456608127163183,62,89,Piano
203.0,0.38456608127163183,64,89,Piano
203.5,0.19228304063581592,40,112,Piano
203.5,0.19228304063581592,28,112,Piano
204.0,0.5127547750288424,57,97,Piano
204.0,0.5127547750288424,61,97,Piano
204.0,0.5127547750288424,68,97,Piano
204.0,0.5127547750288424,64,97,Piano
205.0,0.38456608127163183,57,106,Piano
205.0,0.38456608127163183,61,106,Piano
205.0,0.38456608127163183,68,106,Piano
206.0,0.38456608127163183,63,100,Piano
206.0,0.38456608127163183,57,100,Piano
206.0,0.38456608127163183,68,100,Piano
206.0,0.38456608127163183,61,100,Piano
207.0,0.38456608127163183,67,96,Piano
207.0,0.38456608127163183,63,96,Piano
207.0,0.38456608127163183,61,96,Piano
207.0,0.38456608127163183,57,96,Piano
208.0,0.5768491219074477,64,85,Piano
208.0,0.5768491219074477,61,85,Piano
208.0,0.5768491219074477,57,85,Piano
208.0,0.5768491219074477,66,85,Piano
209.0,0.38456608127163183,61,82,Piano
209.0,0.38456608127163183,66,82,Piano
209.0,0.38456608127163183,64,76,Piano
209.0,0.38456608127163183,57,76,Piano
210.0,0.38456608127163183,63,92,Piano
210.0,0.38456608127163183,66,92,Piano
210.0,0.38456608127163183,57,92,Piano
210.0,0.38456608127163183,61,92,Piano
211.0,0.2563773875144212,65,89,Piano
211.0,0.2563773875144212,57,89,Piano
211.0,0.2563773875144212,61,89,Piano
212.0,0.5127547750288424,60,60,Piano
212.0,0.5127547750288424,66,60,Piano
212.0,0.5127547750288424,71,60,Piano
212.0,0.5127547750288424,64,60,Piano
213.0,0.38456608127163183,66,74,Piano
213.0,0.38456608127163183,71,74,Piano
213.0,0.38456608127163183,60,74,Piano
213.0,0.38456608127163183,64,74,Piano
214.0,0.38456608127163183,66,56,Piano
214.0,0.38456608127163183,71,56,Piano
214.0,0.38456608127163183,64,56,Piano
214.0,0.38456608127163183,60,56,Piano
215.0,0.38456608127163183,71,68,Piano
215.0,0.38456608127163183,66,68,Piano
215.0,0.38456608127163183,60,68,Piano
215.0,0.38456608127163183,64,68,Piano
215.75,0.5127547750288424,60,70,Piano
215.75,0.5127547750288424,64,70,Piano
217.0,0.5127547750288424,66,46,Piano
217.0,0.5127547750288424,64,46,Piano
217.0,0.5127547750288424,60,46,Piano
218.0,0.0,38,60,Piano
218.0,0.0,66,60,Piano
218.0,0.0,26,60,Piano
218.0,0.0,71,60,Piano
218.0,0.0,64,60,Piano
218.0,0.0,60,60,Piano
218.5,0.19228304063581592,66,80,Piano
218.5,0.19228304063581592,38,80,Piano
218.5,0.19228304063581592,71,80,Piano
218.5,0.19228304063581592,26,80,Piano
218.5,0.19228304063581592,64,80,Piano
218.5,0.19228304063581592,60,80,Piano
219.0,0.19228304063581592,26,100,Piano
219.0,0.19228304063581592,38,100,Piano
219.0,0.19228304063581592,66,100,Piano
219.0,0.19228304063581592,71,100,Piano
219.0,0.19228304063581592,60,100,Piano
219.0,0.19228304063581592,64,100,Piano
219.5,0.0,26,106,Piano
219.5,0.0,71,106,Piano
219.5,0.0,38,106,Piano
219.5,0.0,66,106,Piano
219.5,0.0,64,106,Piano
219.5,0.0,60,106,Piano
220.0,0.5127547750288424,57,104,Piano
220.0,0.5127547750288424,55,104,Piano
220.0,0.5127547750288424,62,104,Piano
220.0,0.5127547750288424,59,104,Piano
220.0,0.38456608127163183,50,92,Piano
220.0,0.38456608127163183,57,92,Piano
220.0,0.38456608127163183,59,92,Piano
220.0,0.38456608127163183,67,92,Piano
220.5,0.38456608127163183,67,82,Piano
220.5,0.38456608127163183,59,82,Piano
220.5,0.38456608127163183,57,82,Piano
220.5,0.38456608127163183,50,82,Piano
221.0,0.5127547750288424,62,102,Piano
221.0,0.5127547750288424,57,102,Piano
221.0,0.5127547750288424,55,102,Piano
221.0,0.5127547750288424,59,102,Piano
221.0,0.38456608127163183,50,102,Piano
221.0,0.38456608127163183,57,102,Piano
221.0,0.38456608127163183,59,102,Piano
221.0,0.38456608127163183,67,102,Piano
221.5,0.38456608127163183,67,82,Piano
221.5,0.38456608127163183,59,82,Piano
221.5,0.38456608127163183,57,82,Piano
221.5,0.38456608127163183,50,82,Piano
222.0,0.5127547750288424,62,109,Piano
222.0,0.5127547750288424,57,109,Piano
222.0,0.5127547750288424,59,109,Piano
222.0,0.38456608127163183,55,103,Piano
222.0,0.38456608127163183,59,103,Piano
222.0,0.38456608127163183,50,92,Piano
222.0,0.38456608127163183,57,92,Piano
222.0,0.38456608127163183,59,92,Piano
222.0,0.38456608127163183,67,92,Piano
222.5,0.38456608127163183,67,82,Piano
222.5,0.38456608127163183,59,82,Piano
222.5,0.38456608127163183,57,82,Piano
222.5,0.38456608127163183,50,82,Piano
223.0,0.38456608127163183,62,115,Piano
223.0,0.38456608127163183,55,115,Piano
223.0,0.38456608127163183,57,115,Piano
223.0,0.38456608127163183,59,115,Piano
223.0,0.19228304063581592,50,92,Piano
223.0,0.19228304063581592,57,92,Piano
223.0,0.19228304063581592,59,92,Piano
223.0,0.19228304063581592,67,92,Piano
223.25,0.19228304063581592,67,88,Piano
223.25,0.19228304063581592,59,88,Piano
223.25,0.19228304063581592,57,88,Piano
223.25,0.19228304063581592,50,88,Piano
223.5,0.38456608127163183,50,82,Piano
223.5,0.38456608127163183,57,82,Piano
223.5,0.38456608127163183,59,82,Piano
223.5,0.38456608127163183,67,82,Piano
224.0,0.38456608127163183,65,110,Piano
224.0,0.38456608127163183,60,110,Piano
224.0,0.2563773875144212,57,109,Piano
224.0,0.2563773875144212,53,109,Piano
224.0,0.2563773875144212,60,109,Piano
224.0,0.38456608127163183,53,92,Piano
224.0,0.38456608127163183,57,92,Piano
224.0,0.38456608127163183,60,92,Piano
224.0,0.38456608127163183,65,92,Piano
224.5,0.38456608127163183,65,82,Piano
224.5,0.38456608127163183,60,82,Piano
224.5,0.38456608127163183,57,82,Piano
224.5,0.38456608127163183,53,82,Piano
225.0,0.5768491219074477,65,106,Piano
225.0,0.5768491219074477,60,106,Piano
225.0,0.38456608127163183,53,102,Piano
225.0,0.38456608127163183,57,102,Piano
225.0,0.38456608127163183,60,102,Piano
225.0,0.38456608127163183,65,102,Piano
225.5,0.38456608127163183,65,82,Piano
225.5,0.38456608127163183,60,82,Piano
225.5,0.38456608127163183,57,82,Piano
225.5,0.38456608127163183,53,82,Piano
226.0,0.38456608127163183,60,120,Piano
226.0,0.38456608127163183,65,120,Piano
226.0,0.38456608127163183,57,118,Piano
226.0,0.38456608127163183,65,118,Piano
226.0,0.38456608127163183,53,92,Piano
226.0,0.38456608127163183,57,92,Piano
226.0,0.38456608127163183,60,92,Piano
226.0,0.38456608127163183,65,92,Piano
226.5,0.38456608127163183,65,82,Piano
226.5,0.38456608127163183,60,82,Piano
226.5,0.38456608127163183,57,82,Piano
226.5,0.38456608127163183,53,82,Piano
227.0,0.38456608127163183,67,120,Piano
227.0,0.38456608127163183,60,120,Piano
227.0,0.38456608127163183,57,120,Piano
227.0,0.38456608127163183,31,120,Piano
227.0,0.19228304063581592,53,92,Piano
227.0,0.19228304063581592,57,92,Piano
227.0,0.19228304063581592,60,92,Piano
227.0,0.19228304063581592,65,92,Piano
227.25,0.19228304063581592,65,88,Piano
227.25,0.19228304063581592,60,88,Piano
227.25,0.19228304063581592,57,88,Piano
227.25,0.19228304063581592,53,88,Piano
227.5,0.38456608127163183,53,82,Piano
227.5,0.38456608127163183,57,82,Piano
227.5,0.38456608127163183,60,82,Piano
227.5,0.38456608127163183,65,82,Piano
228.0,0.5127547750288424,65,117,Piano
228.0,0.5127547750288424,55,117,Piano
228.0,0.5127547750288424,60,117,Piano
228.0,0.38456608127163183,53,92,Piano
228.0,0.38456608127163183,55,92,Piano
228.0,0.38456608127163183,60,92,Piano
228.0,0.38456608127163183,67,92,Piano
228.5,0.38456608127163183,67,82,Piano
228.5,0.38456608127163183,60,82,Piano
228.5,0.38456608127163183,55,82,Piano
228.5,0.38456608127163183,53,82,Piano
229.0,0.38456608127163183,52,102,Piano
229.0,0.38456608127163183,55,102,Piano
229.0,0.38456608127163183,60,102,Piano
229.0,0.38456608127163183,67,102,Piano
229.5,0.38456608127163183,67,82,Piano
229.5,0.38456608127163183,60,82,Piano
229.5,0.38456608127163183,55,82,Piano
229.5,0.38456608127163183,52,82,Piano
230.0,0.38456608127163183,50,92,Piano
230.0,0.38456608127163183,57,92,Piano
230.0,0.38456608127163183,62,92,Piano
230.0,0.38456608127163183,66,92,Piano
230.5,0.38456608127163183,66,82,Piano
230.5,0.38456608127163183,62,82,Piano
230.5,0.38456608127163183,57,82,Piano
230.5,0.38456608127163183,50,82,Piano
231.0,0.2563773875144212,57,123,Piano
231.0,0.2563773875144212,62,123,Piano
231.0,0.2563773875144212,67,123,Piano
231.0,0.19228304063581592,50,92,Piano
231.0,0.19228304063581592,57,92,Piano
231.0,0.19228304063581592,62,92,Piano
231.0,0.19228304063581592,66,92,Piano
231.25,0.19228304063581592,66,88,Piano
231.25,0.19228304063581592,62,88,Piano
231.25,0.19228304063581592,57,88,Piano
231.25,0.19228304063581592,50,88,Piano
231.5,0.38456608127163183,50,82,Piano
231.5,0.38456608127163183,57,82,Piano
231.5,0.38456608127163183,62,82,Piano
231.5,0.38456608127163183,66,82,Piano
232.0,0.5127547750288424,66,116,Piano
232.0,0.5127547750288424,62,116,Piano
232.0,0.38456608127163183,50,92,Piano
232.0,0.38456608127163183,57,92,Piano
232.0,0.38456608127163183,59,92,Piano
232.0,0.38456608127163183,66,92,Piano
232.5,0.38456608127163183,66,82,Piano
232.5,0.38456608127163183,59,82,Piano
232.5,0.38456608127163183,57,82,Piano
232.5,0.38456608127163183,50,82,Piano
233.0,0.5127547750288424,62,117,Piano
233.0,0.5127547750288424,57,117,Piano
233.0,0.5127547750288424,66,117,Piano
233.0,0.38456608127163183,50,102,Piano
233.0,0.38456608127163183,57,102,Piano
233.0,0.38456608127163183,59,102,Piano
233.0,0.38456608127163183,66,102,Piano
233.5,0.38456608127163183,66,82,Piano
233.5,0.38456608127163183,59,82,Piano
233.5,0.38456608127163183,57,82,Piano
233.5,0.38456608127163183,50,82,Piano
234.0,0.5768491219074477,59,112,Piano
234.0,0.5768491219074477,64,112,Piano
234.0,0.38456608127163183,50,92,Piano
234.0,0.38456608127163183,56,92,Piano
234.0,0.38456608127163183,59,92,Piano
234.0,0.38456608127163183,64,92,Piano
234.5,0.38456608127163183,64,82,Piano
234.5,0.38456608127163183,59,82,Piano
234.5,0.38456608127163183,56,82,Piano
234.5,0.38456608127163183,50,82,Piano
235.0,0.2563773875144212,59,119,Piano
235.0,0.2563773875144212,62,119,Piano
235.0,0.2563773875144212,64,119,Piano
235.0,0.19228304063581592,50,92,Piano
235.0,0.19228304063581592,56,92,Piano
235.0,0.19228304063581592,59,92,Piano
235.0,0.19228304063581592,64,92,Piano
235.25,0.19228304063581592,64,88,Piano
235.25,0.19228304063581592,59,88,Piano
235.25,0.19228304063581592,56,88,Piano
235.25,0.19228304063581592,50,88,Piano
235.5,0.38456608127163183,50,82,Piano
235.5,0.38456608127163183,56,82,Piano
235.5,0.38456608127163183,59,82,Piano
235.5,0.38456608127163183,64,82,Piano
236.0,0.5127547750288424,64,92,Piano
236.0,0.5127547750288424,55,92,Piano
236.0,0.5127547750288424,59,92,Piano
236.0,0.5127547750288424,60,92,Piano
236.0,0.38456608127163183,52,92,Piano
236.0,0.38456608127163183,57,92,Piano
236.0,0.38456608127163183,60,92,Piano
236.0,0.38456608127163183,64,92,Piano
236.5,0.38456608127163183,64,82,Piano
236.5,0.38456608127163183,60,82,Piano
236.5,0.38456608127163183,57,82,Piano
236.5,0.38456608127163183,52,82,Piano
237.0,0.5127547750288424,64,105,Piano
237.0,0.5127547750288424,60,105,Piano
237.0,0.5127547750288424,59,105,Piano
237.0,0.5127547750288424,55,105,Piano
237.0,0.38456608127163183,52,102,Piano
237.0,0.38456608127163183,57,102,Piano
237.0,0.38456608127163183,60,102,Piano
237.0,0.38456608127163183,64,102,Piano
237.5,0.38456608127163183,64,82,Piano
237.5,0.38456608127163183,60,82,Piano
237.5,0.38456608127163183,57,82,Piano
237.5,0.38456608127163183,52,82,Piano
238.0,0.5768491219074477,64,106,Piano
238.0,0.5768491219074477,55,106,Piano
238.0,0.5768491219074477,59,106,Piano
238.0,0.5768491219074477,60,106,Piano
238.0,0.38456608127163183,52,92,Piano
238.0,0.38456608127163183,57,92,Piano
238.0,0.38456608127163183,60,92,Piano
238.0,0.38456608127163183,64,92,Piano
238.5,0.38456608127163183,64,82,Piano
238.5,0.38456608127163183,60,82,Piano
238.5,0.38456608127163183,57,82,Piano
238.5,0.38456608127163183,52,82,Piano
239.0,0.2563773875144212,64,115,Piano
239.0,0.2563773875144212,59,115,Piano
239.0,0.2563773875144212,55,115,Piano
239.0,0.2563773875144212,60,115,Piano
239.0,0.19228304063581592,52,92,Piano
239.0,0.19228304063581592,57,92,Piano
239.0,0.19228304063581592,60,92,Piano
239.0,0.19228304063581592,64,92,Piano
239.25,0.19228304063581592,64,88,Piano
239.25,0.19228304063581592,60,88,Piano
239.25,0.19228304063581592,57,88,Piano
239.25,0.19228304063581592,52,88,Piano
239.5,0.19228304063581592,31,118,Piano
239.5,0.19228304063581592,43,118,Piano
239.5,0.38456608127163183,52,82,Piano
239.5,0.38456608127163183,57,82,Piano
239.5,0.38456608127163183,60,82,Piano
239.5,0.38456608127163183,64,82,Piano
240.0,0.5768491219074477,67,100,Piano
240.0,0.5768491219074477,62,100,Piano
240.0,0.5768491219074477,60,100,Piano
240.0,0.5768491219074477,57,100,Piano
240.0,0.38456608127163183,50,92,Piano
240.0,0.38456608127163183,57,92,Piano
240.0,0.38456608127163183,60,92,Piano
240.0,0.38456608127163183,67,92,Piano
240.5,0.38456608127163183,67,82,Piano
240.5,0.38456608127163183,60,82,Piano
240.5,0.38456608127163183,57,82,Piano
240.5,0.38456608127163183,50,82,Piano
241.0,0.5127547750288424,67,105,Piano
241.0,0.5127547750288424,60,105,Piano
241.0,0.5127547750288424,62,105,Piano
241.0,0.5127547750288424,57,105,Piano
241.0,0.38456608127163183,50,102,Piano
241.0,0.38456608127163183,57,102,Piano
241.0,0.38456608127163183,60,102,Piano
241.0,0.38456608127163183,67,102,Piano
241.5,0.38456608127163183,67,82,Piano
241.5,0.38456608127163183,60,82,Piano
241.5,0.38456608127163183,57,82,Piano
241.5,0.38456608127163183,50,82,Piano
242.0,0.38456608127163183,67,116,Piano
242.0,0.38456608127163183,62,116,Piano
242.0,0.38456608127163183,57,116,Piano
242.0,0.38456608127163183,60,116,Piano
242.0,0.38456608127163183,50,92,Piano
242.0,0.38456608127163183,57,92,Piano
242.0,0.38456608127163183,60,92,Piano
242.0,0.38456608127163183,67,92,Piano
242.5,0.38456608127163183,67,82,Piano
242.5,0.38456608127163183,60,82,Piano
242.5,0.38456608127163183,57,82,Piano
242.5,0.38456608127163183,50,82,Piano
243.0,0.2563773875144212,65,126,Piano
243.0,0.2563773875144212,60,126,Piano
243.0,0.2563773875144212,57,126,Piano
243.0,0.19228304063581592,50,92,Piano
243.0,0.19228304063581592,57,92,Piano
243.0,0.19228304063581592,60,92,Piano
243.0,0.19228304063581592,67,92,Piano
243.25,0.19228304063581592,67,88,Piano
243.25,0.19228304063581592,60,88,Piano
243.25,0.19228304063581592,57,88,Piano
243.25,0.19228304063581592,50,88,Piano
243.5,0.38456608127163183,50,82,Piano
243.5,0.38456608127163183,57,82,Piano
243.5,0.38456608127163183,60,82,Piano
243.5,0.38456608127163183,67,82,Piano
244.0,0.7691321625432637,64,107,Piano
244.0,0.7691321625432637,60,107,Piano
244.0,0.7691321625432637,57,109,Piano
244.0,0.7691321625432637,38,109,Piano
244.0,0.7691321625432637,60,109,Piano
244.0,0.7691321625432637,50,92,Piano
244.0,0.7691321625432637,57,92,Piano
244.0,0.7691321625432637,60,92,Piano
244.0,0.7691321625432637,65,92,Piano
245.0,0.19228304063581592,50,82,Piano
245.0,0.19228304063581592,57,82,Piano
245.0,0.19228304063581592,60,82,Piano
245.0,0.19228304063581592,65,82,Piano
245.5,0.2563773875144212,64,123,Piano
245.5,0.2563773875144212,59,123,Piano
245.5,0.2563773875144212,53,123,Piano
245.5,0.7691321625432637,65,92,Piano
245.5,0.7691321625432637,60,92,Piano
245.5,0.7691321625432637,55,92,Piano
245.5,0.7691321625432637,50,92,Piano
246.5,0.38456608127163183,64,116,Piano
246.5,0.38456608127163183,69,116,Piano
246.5,0.38456608127163183,59,116,Piano
246.5,0.38456608127163183,65,82,Piano
246.5,0.38456608127163183,60,82,Piano
246.5,0.38456608127163183,55,82,Piano
246.5,0.38456608127163183,50,82,Piano
247.0,0.19228304063581592,50,92,Piano
247.0,0.19228304063581592,55,92,Piano
247.0,0.19228304063581592,60,92,Piano
247.0,0.19228304063581592,65,92,Piano
247.25,0.19228304063581592,65,88,Piano
247.25,0.19228304063581592,60,88,Piano
247.25,0.19228304063581592,55,88,Piano
247.25,0.19228304063581592,50,88,Piano
247.33333333333334,0.2563773875144212,68,116,Piano
247.33333333333334,0.2563773875144212,63,116,Piano
247.33333333333334,0.2563773875144212,59,116,Piano
247.5,0.38456608127163183,50,82,Piano
247.5,0.38456608127163183,55,82,Piano
247.5,0.38456608127163183,60,82,Piano
247.5,0.38456608127163183,65,82,Piano
248.0,0.5127547750288424,60,112,Piano
248.0,0.5127547750288424,67,112,Piano
248.0,0.5127547750288424,62,112,Piano
248.0,0.38456608127163183,50,92,Piano
248.0,0.38456608127163183,55,92,Piano
248.0,0.38456608127163183,60,92,Piano
248.0,0.38456608127163183,67,92,Piano
248.5,0.38456608127163183,67,82,Piano
248.5,0.38456608127163183,60,82,Piano
248.5,0.38456608127163183,55,82,Piano
248.5,0.38456608127163183,50,82,Piano
249.0,0.5127547750288424,60,119,Piano
249.0,0.5127547750288424,67,119,Piano
249.0,0.5127547750288424,62,119,Piano
249.0,0.38456608127163183,50,102,Piano
249.0,0.38456608127163183,55,102,Piano
249.0,0.38456608127163183,60,102,Piano
249.0,0.38456608127163183,67,102,Piano
249.5,0.19228304063581592,45,112,Piano
249.5,0.19228304063581592,33,112,Piano
249.5,0.38456608127163183,67,82,Piano
249.5,0.38456608127163183,60,82,Piano
249.5,0.38456608127163183,55,82,Piano
249.5,0.38456608127163183,50,82,Piano
250.0,0.5768491219074477,60,108,Piano
250.0,0.5768491219074477,67,108,Piano
250.0,0.5768491219074477,64,108,Piano
250.0,0.5768491219074477,59,108,Piano
250.0,0.38456608127163183,50,92,Piano
250.0,0.38456608127163183,55,92,Piano
250.0,0.38456608127163183,60,92,Piano
250.0,0.38456608127163183,64,92,Piano
250.5,0.38456608127163183,64,82,Piano
250.5,0.38456608127163183,60,82,Piano
250.5,0.38456608127163183,55,82,Piano
250.5,0.38456608127163183,50,82,Piano
251.0,0.38456608127163183,67,115,Piano
251.0,0.38456608127163183,60,115,Piano
251.0,0.38456608127163183,64,115,Piano
251.0,0.19228304063581592,50,92,Piano
251.0,0.19228304063581592,55,92,Piano
251.0,0.19228304063581592,60,92,Piano
251.0,0.19228304063581592,64,92,Piano
251.25,0.19228304063581592,64,88,Piano
251.25,0.19228304063581592,60,88,Piano
251.25,0.19228304063581592,55,88,Piano
251.25,0.19228304063581592,50,88,Piano
251.5,0.38456608127163183,50,82,Piano
251.5,0.38456608127163183,55,82,Piano
251.5,0.38456608127163183,60,82,Piano
251.5,0.38456608127163183,64,82,Piano
252.0,0.38456608127163183,64,105,Piano
252.0,0.38456608127163183,60,105,Piano
252.0,0.38456608127163183,55,105,Piano
252.0,0.38456608127163183,52,92,Piano
252.0,0.38456608127163183,55,92,Piano
252.0,0.38456608127163183,60,92,Piano
252.0,0.38456608127163183,64,92,Piano
252.5,0.38456608127163183,64,82,Piano
252.5,0.38456608127163183,60,82,Piano
252.5,0.38456608127163183,55,82,Piano
252.5,0.38456608127163183,52,82,Piano
253.0,0.38456608127163183,62,124,Piano
253.0,0.38456608127163183,66,124,Piano
253.0,0.38456608127163183,50,102,Piano
253.0,0.38456608127163183,57,102,Piano
253.0,0.38456608127163183,62,102,Piano
253.0,0.38456608127163183,66,102,Piano
253.5,0.38456608127163183,66,82,Piano
253.5,0.38456608127163183,62,82,Piano
253.5,0.38456608127163183,57,82,Piano
253.5,0.38456608127163183,50,82,Piano
254.0,0.38456608127163183,67,127,Piano
254.0,0.38456608127163183,64,127,Piano
254.0,0.38456608127163183,60,127,Piano
254.0,0.38456608127163183,52,92,Piano
254.0,0.38456608127163183,55,92,Piano
254.0,0.38456608127163183,60,92,Piano
254.0,0.38456608127163183,64,92,Piano
254.5,0.38456608127163183,64,82,Piano
254.5,0.38456608127163183,60,82,Piano
254.5,0.38456608127163183,55,82,Piano
254.5,0.38456608127163183,52,82,Piano
255.0,0.38456608127163183,66,122,Piano
255.0,0.38456608127163183,69,122,Piano
255.0,0.38456608127163183,62,122,Piano
255.0,0.38456608127163183,50,102,Piano
255.0,0.38456608127163183,57,102,Piano
255.0,0.38456608127163183,62,102,Piano
255.0,0.38456608127163183,66,102,Piano
255.5,0.38456608127163183,66,82,Piano
255.5,0.38456608127163183,62,82,Piano
255.5,0.38456608127163183,57,82,Piano
255.5,0.38456608127163183,50,82,Piano
256.0,0.5127547750288424,71,117,Piano
256.0,0.5127547750288424,67,117,Piano
256.0,0.5127547750288424,62,117,Piano
256.0,0.38456608127163183,50,92,Piano
256.0,0.38456608127163183,55,92,Piano
256.0,0.38456608127163183,59,92,Piano
256.0,0.38456608127163183,67,92,Piano
256.5,0.38456608127163183,67,82,Piano
256.5,0.38456608127163183,59,82,Piano
256.5,0.38456608127163183,55,82,Piano
256.5,0.38456608127163183,50,82,Piano
257.0,0.38456608127163183,50,102,Piano
257.0,0.38456608127163183,55,102,Piano
257.0,0.38456608127163183,59,102,Piano
257.0,0.38456608127163183,67,102,Piano
257.5,0.38456608127163183,67,82,Piano
257.5,0.38456608127163183,59,82,Piano
257.5,0.38456608127163183,55,82,Piano
257.5,0.38456608127163183,50,82,Piano
258.0,0.5768491219074477,65,106,Piano
258.0,0.5768491219074477,69,106,Piano
258.0,0.5768491219074477,60,106,Piano
258.0,0.38456608127163183,53,92,Piano
258.0,0.38456608127163183,57,92,Piano
258.0,0.38456608127163183,60,92,Piano
258.0,0.38456608127163183,65,92,Piano
258.5,0.38456608127163183,65,82,Piano
258.5,0.38456608127163183,60,82,Piano
258.5,0.38456608127163183,57,82,Piano
258.5,0.38456608127163183,53,82,Piano
259.0,0.19228304063581592,53,92,Piano
259.0,0.19228304063581592,57,92,Piano
259.0,0.19228304063581592,60,92,Piano
259.0,0.19228304063581592,65,92,Piano
259.25,0.19228304063581592,65,88,Piano
259.25,0.19228304063581592,60,88,Piano
259.25,0.19228304063581592,57,88,Piano
259.25,0.19228304063581592,53,88,Piano
259.5,0.38456608127163183,53,82,Piano
259.5,0.38456608127163183,57,82,Piano
259.5,0.38456608127163183,60,82,Piano
259.5,0.38456608127163183,65,82,Piano
260.0,0.5127547750288424,59,113,Piano
260.0,0.5127547750288424,62,113,Piano
260.0,0.5127547750288424,67,113,Piano
260.0,0.38456608127163183,50,92,Piano
260.0,0.38456608127163183,55,92,Piano
260.0,0.38456608127163183,59,92,Piano
260.0,0.38456608127163183,67,92,Piano
260.5,0.38456608127163183,67,82,Piano
260.5,0.38456608127163183,59,82,Piano
260.5,0.38456608127163183,55,82,Piano
260.5,0.38456608127163183,50,82,Piano
261.0,0.38456608127163183,50,102,Piano
261.0,0.38456608127163183,55,102,Piano
261.0,0.38456608127163183,59,102,Piano
261.0,0.38456608127163183,67,102,Piano
261.5,0.38456608127163183,67,82,Piano
261.5,0.38456608127163183,59,82,Piano
261.5,0.38456608127163183,55,82,Piano
261.5,0.38456608127163183,50,82,Piano
262.0,0.38456608127163183,60,112,Piano
262.0,0.38456608127163183,65,112,Piano
262.0,0.38456608127163183,57,112,Piano
262.0,0.38456608127163183,53,92,Piano
262.0,0.38456608127163183,57,92,Piano
262.0,0.38456608127163183,60,92,Piano
262.0,0.38456608127163183,65,92,Piano
262.5,0.38456608127163183,65,82,Piano
262.5,0.38456608127163183,60,82,Piano
262.5,0.38456608127163183,57,82,Piano
262.5,0.38456608127163183,53,82,Piano
262.75,0.0,60,66,Piano
262.75,0.0,57,66,Piano
263.0,0.0,60,110,Piano
263.0,0.0,57,110,Piano
263.0,0.19228304063581592,53,92,Piano
263.0,0.19228304063581592,57,92,Piano
263.0,0.19228304063581592,60,92,Piano
263.0,0.19228304063581592,65,92,Piano
263.0,0.19228304063581592,80,91,Piano
263.0,0.19228304063581592,53,91,Piano
263.25,0.19228304063581592,65,88,Piano
263.25,0.19228304063581592,60,88,Piano
263.25,0.19228304063581592,57,88,Piano
263.25,0.19228304063581592,53,88,Piano
263.5,0.38456608127163183,53,82,Piano
263.5,0.38456608127163183,57,82,Piano
263.5,0.38456608127163183,60,82,Piano
263.5,0.38456608127163183,65,82,Piano
264.0,0.5768491219074477,60,104,Piano
264.0,0.5768491219074477,55,104,Piano
264.0,0.5768491219074477,64,104,Piano
264.0,0.38456608127163183,52,92,Piano
264.0,0.38456608127163183,55,92,Piano
264.0,0.38456608127163183,60,92,Piano
264.0,0.38456608127163183,64,92,Piano
264.0,0.19228304063581592,70,98,Piano
264.0,0.19228304063581592,80,98,Piano
264.25,0.19228304063581592,70,54,Piano
264.25,0.19228304063581592,80,54,Piano
264.5,0.38456608127163183,64,82,Piano
264.5,0.38456608127163183,60,82,Piano
264.5,0.38456608127163183,55,82,Piano
264.5,0.38456608127163183,52,82,Piano
264.5,0.19228304063581592,70,76,Piano
264.5,0.19228304063581592,81,76,Piano
265.0,0.38456608127163183,52,102,Piano
265.0,0.38456608127163183,55,102,Piano
265.0,0.38456608127163183,60,102,Piano
265.0,0.38456608127163183,64,102,Piano
265.0,0.19228304063581592,70,100,Piano
265.0,0.19228304063581592,80,100,Piano
265.25,0.19228304063581592,70,58,Piano
265.25,0.19228304063581592,80,58,Piano
265.5,0.38456608127163183,64,82,Piano
265.5,0.38456608127163183,60,82,Piano
265.5,0.38456608127163183,55,82,Piano
265.5,0.38456608127163183,52,82,Piano
265.5,0.19228304063581592,70,77,Piano
265.5,0.19228304063581592,81,77,Piano
266.0,0.38456608127163183,50,92,Piano
266.0,0.38456608127163183,57,92,Piano
266.0,0.38456608127163183,62,92,Piano
266.0,0.38456608127163183,66,92,Piano
266.0,0.19228304063581592,70,97,Piano
266.0,0.19228304063581592,80,97,Piano
266.25,0.19228304063581592,70,56,Piano
266.25,0.19228304063581592,80,56,Piano
266.5,0.38456608127163183,66,82,Piano
266.5,0.38456608127163183,62,82,Piano
266.5,0.38456608127163183,57,82,Piano
266.5,0.38456608127163183,50,82,Piano
266.5,0.19228304063581592,70,74,Piano
266.5,0.19228304063581592,81,74,Piano
267.0,0.19228304063581592,50,92,Piano
267.0,0.19228304063581592,57,92,Piano
267.0,0.19228304063581592,62,92,Piano
267.0,0.19228304063581592,66,92,Piano
267.0,0.19228304063581592,70,96,Piano
267.0,0.19228304063581592,80,96,Piano
267.25,0.19228304063581592,66,88,Piano
267.25,0.19228304063581592,62,88,Piano
267.25,0.19228304063581592,57,88,Piano
267.25,0.19228304063581592,50,88,Piano
267.25,0.19228304063581592,70,60,Piano
267.25,0.19228304063581592,80,60,Piano
267.5,0.38456608127163183,50,82,Piano
267.5,0.38456608127163183,57,82,Piano
267.5,0.38456608127163183,62,82,Piano
267.5,0.38456608127163183,66,82,Piano
267.5,0.19228304063581592,70,80,Piano
267.5,0.19228304063581592,81,80,Piano
268.0,0.38456608127163183,61,108,Piano
268.0,0.38456608127163183,62,108,Piano
268.0,0.38456608127163183,50,92,Piano
268.0,0.38456608127163183,57,92,Piano
268.0,0.38456608127163183,59,92,Piano
268.0,0.38456608127163183,66,92,Piano
268.0,0.19228304063581592,70,98,Piano
268.0,0.19228304063581592,80,98,Piano
268.25,0.19228304063581592,70,54,Piano
268.25,0.19228304063581592,80,54,Piano
268.5,0.38456608127163183,66,82,Piano
268.5,0.38456608127163183,59,82,Piano
268.5,0.38456608127163183,57,82,Piano
268.5,0.38456608127163183,50,82,Piano
268.5,0.19228304063581592,70,76,Piano
268.5,0.19228304063581592,81,76,Piano
269.0,0.38456608127163183,50,102,Piano
269.0,0.38456608127163183,57,102,Piano
269.0,0.38456608127163183,59,102,Piano
269.0,0.38456608127163183,66,102,Piano
269.0,0.19228304063581592,70,100,Piano
269.0,0.19228304063581592,80,100,Piano
269.25,0.19228304063581592,70,58,Piano
269.25,0.19228304063581592,80,58,Piano
269.5,0.38456608127163183,66,82,Piano
269.5,0.38456608127163183,59,82,Piano
269.5,0.38456608127163183,57,82,Piano
269.5,0.38456608127163183,50,82,Piano
269.5,0.19228304063581592,70,77,Piano
269.5,0.19228304063581592,81,77,Piano
270.0,0.38456608127163183,62,103,Piano
270.0,0.38456608127163183,59,103,Piano
270.0,0.38456608127163183,50,92,Piano
270.0,0.38456608127163183,55,92,Piano
270.0,0.38456608127163183,59,92,Piano
270.0,0.38456608127163183,64,92,Piano
270.0,0.19228304063581592,70,97,Piano
270.0,0.19228304063581592,80,97,Piano
270.25,0.19228304063581592,70,56,Piano
270.25,0.19228304063581592,80,56,Piano
270.5,0.38456608127163183,64,82,Piano
270.5,0.38456608127163183,59,82,Piano
270.5,0.38456608127163183,55,82,Piano
270.5,0.38456608127163183,50,82,Piano
270.5,0.19228304063581592,70,74,Piano
270.5,0.19228304063581592,81,74,Piano
270.75,0.2563773875144212,62,112,Piano
270.75,0.2563773875144212,57,112,Piano
271.0,0.19228304063581592,50,92,Piano
271.0,0.19228304063581592,55,92,Piano
271.0,0.19228304063581592,59,92,Piano
271.0,0.19228304063581592,64,92,Piano
271.0,0.19228304063581592,70,96,Piano
271.0,0.19228304063581592,80,96,Piano
271.25,0.19228304063581592,64,88,Piano
271.25,0.19228304063581592,59,88,Piano
271.25,0.19228304063581592,55,88,Piano
271.25,0.19228304063581592,50,88,Piano
271.25,0.19228304063581592,70,60,Piano
271.25,0.19228304063581592,80,60,Piano
271.3333333333333,0.38456608127163183,62,103,Piano
271.3333333333333,0.38456608127163183,59,103,Piano
271.5,0.38456608127163183,50,82,Piano
271.5,0.38456608127163183,55,82,Piano
271.5,0.38456608127163183,59,82,Piano
271.5,0.38456608127163183,64,82,Piano
271.5,0.19228304063581592,70,80,Piano
271.5,0.19228304063581592,81,80,Piano
272.0,0.38456608127163183,64,108,Piano
272.0,0.38456608127163183,60,108,Piano
272.0,0.38456608127163183,52,92,Piano
272.0,0.38456608127163183,57,92,Piano
272.0,0.38456608127163183,60,92,Piano
272.0,0.38456608127163183,64,92,Piano
272.0,0.19228304063581592,70,98,Piano
272.0,0.19228304063581592,80,98,Piano
272.25,0.19228304063581592,70,54,Piano
272.25,0.19228304063581592,80,54,Piano
272.5,0.38456608127163183,64,82,Piano
272.5,0.38456608127163183,60,82,Piano
272.5,0.38456608127163183,57,82,Piano
272.5,0.38456608127163183,52,82,Piano
272.5,0.19228304063581592,70,76,Piano
272.5,0.19228304063581592,81,76,Piano
273.0,0.38456608127163183,52,102,Piano
273.0,0.38456608127163183,57,102,Piano
273.0,0.38456608127163183,60,102,Piano
273.0,0.38456608127163183,64,102,Piano
273.0,0.19228304063581592,70,100,Piano
273.0,0.19228304063581592,80,100,Piano
273.25,0.19228304063581592,70,58,Piano
273.25,0.19228304063581592,80,58,Piano
273.5,0.38456608127163183,64,82,Piano
273.5,0.38456608127163183,60,82,Piano
273.5,0.38456608127163183,57,82,Piano
273.5,0.38456608127163183,52,82,Piano
273.5,0.19228304063581592,70,77,Piano
273.5,0.19228304063581592,81,77,Piano
274.0,0.2563773875144212,60,110,Piano
274.0,0.2563773875144212,64,110,Piano
274.0,0.2563773875144212,67,110,Piano
274.0,0.38456608127163183,50,92,Piano
274.0,0.38456608127163183,55,92,Piano
274.0,0.38456608127163183,60,92,Piano
274.0,0.38456608127163183,64,92,Piano
274.0,0.19228304063581592,70,97,Piano
274.0,0.19228304063581592,80,97,Piano
274.25,0.19228304063581592,70,56,Piano
274.25,0.19228304063581592,80,56,Piano
274.5,0.0,64,58,Piano
274.5,0.0,60,58,Piano
274.5,0.0,55,58,Piano
274.5,0.38456608127163183,64,82,Piano
274.5,0.38456608127163183,60,82,Piano
274.5,0.38456608127163183,55,82,Piano
274.5,0.38456608127163183,50,82,Piano
274.5,0.19228304063581592,70,74,Piano
274.5,0.19228304063581592,81,74,Piano
274.75,0.2563773875144212,60,113,Piano
274.75,0.2563773875144212,55,113,Piano
274.75,0.2563773875144212,64,113,Piano
275.0,0.19228304063581592,50,92,Piano
275.0,0.19228304063581592,55,92,Piano
275.0,0.19228304063581592,60,92,Piano
275.0,0.19228304063581592,64,92,Piano
275.0,0.19228304063581592,70,96,Piano
275.0,0.19228304063581592,80,96,Piano
275.25,0.38456608127163183,60,105,Piano
275.25,0.38456608127163183,64,105,Piano
275.25,0.19228304063581592,64,88,Piano
275.25,0.19228304063581592,60,88,Piano
275.25,0.19228304063581592,55,88,Piano
275.25,0.19228304063581592,50,88,Piano
275.25,0.19228304063581592,70,60,Piano
275.25,0.19228304063581592,80,60,Piano
275.5,0.38456608127163183,50,82,Piano
275.5,0.38456608127163183,55,82,Piano
275.5,0.38456608127163183,60,82,Piano
275.5,0.38456608127163183,64,82,Piano
275.5,0.19228304063581592,70,80,Piano
275.5,0.19228304063581592,81,80,Piano
276.0,0.38456608127163183,59,110,Piano
276.0,0.38456608127163183,62,110,Piano
276.0,0.38456608127163183,50,92,Piano
276.0,0.38456608127163183,55,92,Piano
276.0,0.38456608127163183,59,92,Piano
276.0,0.38456608127163183,67,92,Piano
276.0,0.19228304063581592,70,98,Piano
276.0,0.19228304063581592,80,98,Piano
276.25,0.19228304063581592,70,54,Piano
276.25,0.19228304063581592,80,54,Piano
276.5,0.38456608127163183,67,82,Piano
276.5,0.38456608127163183,59,82,Piano
276.5,0.38456608127163183,55,82,Piano
276.5,0.38456608127163183,50,82,Piano
276.5,0.19228304063581592,70,76,Piano
276.5,0.19228304063581592,81,76,Piano
276.75,0.0,57,110,Piano
276.75,0.0,62,110,Piano
277.0,0.38456608127163183,50,102,Piano
277.0,0.38456608127163183,55,102,Piano
277.0,0.38456608127163183,59,102,Piano
277.0,0.38456608127163183,67,102,Piano
277.0,0.19228304063581592,70,100,Piano
277.0,0.19228304063581592,80,100,Piano
277.25,0.19228304063581592,70,58,Piano
277.25,0.19228304063581592,80,58,Piano
277.5,0.38456608127163183,67,82,Piano
277.5,0.38456608127163183,59,82,Piano
277.5,0.38456608127163183,55,82,Piano
277.5,0.38456608127163183,50,82,Piano
277.5,0.19228304063581592,70,77,Piano
277.5,0.19228304063581592,81,77,Piano
278.0,0.38456608127163183,53,92,Piano
278.0,0.38456608127163183,57,92,Piano
278.0,0.38456608127163183,60,92,Piano
278.0,0.38456608127163183,65,92,Piano
278.0,0.19228304063581592,70,97,Piano
278.0,0.19228304063581592,80,97,Piano
278.25,0.19228304063581592,70,56,Piano
278.25,0.19228304063581592,80,56,Piano
278.5,0.38456608127163183,65,82,Piano
278.5,0.38456608127163183,60,82,Piano
278.5,0.38456608127163183,57,82,Piano
278.5,0.38456608127163183,53,82,Piano
278.5,0.19228304063581592,70,74,Piano
278.5,0.19228304063581592,81,74,Piano
279.0,0.38456608127163183,67,120,Piano
279.0,0.38456608127163183,62,120,Piano
279.0,0.19228304063581592,50,92,Piano
279.0,0.19228304063581592,55,92,Piano
279.0,0.19228304063581592,59,92,Piano
279.0,0.19228304063581592,67,92,Piano
279.0,0.19228304063581592,70,92,Piano
279.0,0.19228304063581592,80,92,Piano
279.0,0.19228304063581592,53,92,Piano
279.25,0.19228304063581592,67,88,Piano
279.25,0.19228304063581592,59,88,Piano
279.25,0.19228304063581592,55,88,Piano
279.25,0.19228304063581592,50,88,Piano
279.25,0.19228304063581592,70,60,Piano
279.25,0.19228304063581592,80,60,Piano
279.5,0.38456608127163183,50,82,Piano
279.5,0.38456608127163183,55,82,Piano
279.5,0.38456608127163183,59,82,Piano
279.5,0.38456608127163183,67,82,Piano
279.5,0.19228304063581592,70,80,Piano
279.5,0.19228304063581592,81,80,Piano
280.0,0.38456608127163183,50,92,Piano
280.0,0.38456608127163183,59,92,Piano
280.0,0.38456608127163183,62,92,Piano
280.0,0.38456608127163183,67,92,Piano
280.0,0.19228304063581592,70,98,Piano
280.0,0.19228304063581592,80,98,Piano
280.25,0.19228304063581592,70,54,Piano
280.25,0.19228304063581592,80,54,Piano
280.5,0.38456608127163183,67,82,Piano
280.5,0.38456608127163183,62,82,Piano
280.5,0.38456608127163183,59,82,Piano
280.5,0.38456608127163183,50,82,Piano
280.5,0.19228304063581592,70,76,Piano
280.5,0.19228304063581592,81,76,Piano
281.0,0.38456608127163183,50,102,Piano
281.0,0.38456608127163183,59,102,Piano
281.0,0.38456608127163183,62,102,Piano
281.0,0.38456608127163183,67,102,Piano
281.0,0.19228304063581592,70,100,Piano
281.0,0.19228304063581592,80,100,Piano
281.25,0.19228304063581592,70,58,Piano
281.25,0.19228304063581592,80,58,Piano
281.5,0.38456608127163183,67,82,Piano
281.5,0.38456608127163183,62,82,Piano
281.5,0.38456608127163183,59,82,Piano
281.5,0.38456608127163183,50,82,Piano
281.5,0.19228304063581592,70,77,Piano
281.5,0.19228304063581592,81,77,Piano
282.0,0.38456608127163183,29,126,Piano
282.0,0.38456608127163183,41,126,Piano
282.0,0.38456608127163183,53,92,Piano
282.0,0.38456608127163183,57,92,Piano
282.0,0.38456608127163183,60,92,Piano
282.0,0.38456608127163183,65,92,Piano
282.0,0.19228304063581592,70,97,Piano
282.0,0.19228304063581592,80,97,Piano
282.25,0.19228304063581592,70,56,Piano
282.25,0.19228304063581592,80,56,Piano
282.5,0.38456608127163183,65,82,Piano
282.5,0.38456608127163183,60,82,Piano
282.5,0.38456608127163183,57,82,Piano
282.5,0.38456608127163183,53,82,Piano
282.5,0.19228304063581592,70,74,Piano
282.5,0.19228304063581592,81,74,Piano
283.0,0.38456608127163183,33,117,Piano
283.0,0.38456608127163183,45,117,Piano
283.0,0.38456608127163183,72,117,Piano
283.0,0.19228304063581592,53,92,Piano
283.0,0.19228304063581592,57,92,Piano
283.0,0.19228304063581592,60,92,Piano
283.0,0.19228304063581592,65,92,Piano
283.0,0.19228304063581592,70,96,Piano
283.0,0.19228304063581592,80,96,Piano
283.25,0.19228304063581592,65,88,Piano
283.25,0.19228304063581592,60,88,Piano
283.25,0.19228304063581592,57,88,Piano
283.25,0.19228304063581592,53,88,Piano
283.25,0.19228304063581592,70,60,Piano
283.25,0.19228304063581592,80,60,Piano
283.5,0.38456608127163183,53,82,Piano
283.5,0.38456608127163183,57,82,Piano
283.5,0.38456608127163183,60,82,Piano
283.5,0.38456608127163183,65,82,Piano
283.5,0.19228304063581592,70,80,Piano
283.5,0.19228304063581592,81,80,Piano
284.0,0.38456608127163183,53,92,Piano
284.0,0.38456608127163183,58,92,Piano
284.0,0.38456608127163183,62,92,Piano
284.0,0.38456608127163183,65,92,Piano
284.0,0.19228304063581592,70,98,Piano
284.0,0.19228304063581592,80,98,Piano
284.25,0.19228304063581592,70,54,Piano
284.25,0.19228304063581592,80,54,Piano
284.5,0.38456608127163183,65,82,Piano
284.5,0.38456608127163183,62,82,Piano
284.5,0.38456608127163183,58,82,Piano
284.5,0.38456608127163183,53,82,Piano
284.5,0.19228304063581592,70,76,Piano
284.5,0.19228304063581592,81,76,Piano
285.0,0.38456608127163183,53,102,Piano
285.0,0.38456608127163183,58,102,Piano
285.0,0.38456608127163183,62,102,Piano
285.0,0.38456608127163183,65,102,Piano
285.0,0.19228304063581592,70,100,Piano
285.0,0.19228304063581592,80,100,Piano
285.25,0.19228304063581592,70,58,Piano
285.25,0.19228304063581592,80,58,Piano
285.5,0.38456608127163183,65,82,Piano
285.5,0.38456608127163183,62,82,Piano
285.5,0.38456608127163183,58,82,Piano
285.5,0.38456608127163183,53,82,Piano
285.5,0.19228304063581592,70,77,Piano
285.5,0.19228304063581592,81,77,Piano
286.0,0.38456608127163183,50,92,Piano
286.0,0.38456608127163183,58,92,Piano
286.0,0.38456608127163183,62,92,Piano
286.0,0.38456608127163183,67,92,Piano
286.0,0.19228304063581592,70,97,Piano
286.0,0.19228304063581592,80,97,Piano
286.25,0.19228304063581592,70,56,Piano
286.25,0.19228304063581592,80,56,Piano
286.5,0.38456608127163183,67,82,Piano
286.5,0.38456608127163183,62,82,Piano
286.5,0.38456608127163183,58,82,Piano
286.5,0.38456608127163183,50,82,Piano
286.5,0.19228304063581592,70,74,Piano
286.5,0.19228304063581592,81,74,Piano
287.0,0.19228304063581592,50,92,Piano
287.0,0.19228304063581592,58,92,Piano
287.0,0.19228304063581592,62,92,Piano
287.0,0.19228304063581592,67,92,Piano
287.0,0.19228304063581592,70,96,Piano
287.0,0.19228304063581592,80,96,Piano
287.25,0.19228304063581592,67,88,Piano
287.25,0.19228304063581592,62,88,Piano
287.25,0.19228304063581592,58,88,Piano
287.25,0.19228304063581592,50,88,Piano
287.25,0.19228304063581592,70,60,Piano
287.25,0.19228304063581592,80,60,Piano
287.5,0.38456608127163183,50,82,Piano
287.5,0.38456608127163183,58,82,Piano
287.5,0.38456608127163183,62,82,Piano
287.5,0.38456608127163183,67,82,Piano
287.5,0.19228304063581592,70,80,Piano
287.5,0.19228304063581592,81,80,Piano
288.0,0.38456608127163183,50,92,Piano
288.0,0.38456608127163183,57,92,Piano
288.0,0.38456608127163183,62,92,Piano
288.0,0.38456608127163183,66,92,Piano
288.0,0.19228304063581592,70,98,Piano
288.0,0.19228304063581592,80,98,Piano
288.25,0.19228304063581592,70,54,Piano
288.25,0.19228304063581592,80,54,Piano
288.5,0.38456608127163183,66,82,Piano
288.5,0.38456608127163183,62,82,Piano
288.5,0.38456608127163183,57,82,Piano
288.5,0.38456608127163183,50,82,Piano
288.5,0.19228304063581592,70,76,Piano
288.5,0.19228304063581592,81,76,Piano
289.0,0.38456608127163183,26,122,Piano
289.0,0.38456608127163183,38,122,Piano
289.0,0.38456608127163183,50,102,Piano
289.0,0.38456608127163183,57,102,Piano
289.0,0.38456608127163183,62,102,Piano
289.0,0.38456608127163183,66,102,Piano
289.0,0.19228304063581592,70,100,Piano
289.0,0.19228304063581592,80,100,Piano
289.25,0.19228304063581592,70,58,Piano
289.25,0.19228304063581592,80,58,Piano
289.5,0.38456608127163183,66,82,Piano
289.5,0.38456608127163183,62,82,Piano
289.5,0.38456608127163183,57,82,Piano
289.5,0.38456608127163183,50,82,Piano
289.5,0.19228304063581592,70,77,Piano
289.5,0.19228304063581592,81,77,Piano
290.0,0.38456608127163183,50,92,Piano
290.0,0.38456608127163183,58,92,Piano
290.0,0.38456608127163183,62,92,Piano
290.0,0.38456608127163183,67,92,Piano
290.0,0.19228304063581592,70,97,Piano
290.0,0.19228304063581592,80,97,Piano
290.25,0.19228304063581592,70,56,Piano
290.25,0.19228304063581592,80,56,Piano
290.5,0.38456608127163183,67,82,Piano
290.5,0.38456608127163183,62,82,Piano
290.5,0.38456608127163183,58,82,Piano
290.5,0.38456608127163183,50,82,Piano
290.5,0.19228304063581592,70,74,Piano
290.5,0.19228304063581592,81,74,Piano
291.0,0.19228304063581592,69,110,Piano
291.0,0.19228304063581592,67,110,Piano
291.0,0.5127547750288424,29,122,Piano
291.0,0.5127547750288424,41,122,Piano
291.0,0.19228304063581592,50,92,Piano
291.0,0.19228304063581592,58,92,Piano
291.0,0.19228304063581592,62,92,Piano
291.0,0.19228304063581592,67,92,Piano
291.0,0.19228304063581592,70,96,Piano
291.0,0.19228304063581592,80,96,Piano
291.25,0.19228304063581592,67,88,Piano
291.25,0.19228304063581592,62,88,Piano
291.25,0.19228304063581592,58,88,Piano
291.25,0.19228304063581592,50,88,Piano
291.25,0.19228304063581592,70,60,Piano
291.25,0.19228304063581592,80,60,Piano
291.5,0.38456608127163183,50,82,Piano
291.5,0.38456608127163183,58,82,Piano
291.5,0.38456608127163183,62,82,Piano
291.5,0.38456608127163183,67,82,Piano
291.5,0.19228304063581592,70,80,Piano
291.5,0.19228304063581592,81,80,Piano
292.0,0.38456608127163183,51,92,Piano
292.0,0.38456608127163183,58,92,Piano
292.0,0.38456608127163183,63,92,Piano
292.0,0.38456608127163183,67,92,Piano
292.0,0.19228304063581592,70,98,Piano
292.0,0.19228304063581592,80,98,Piano
292.25,0.19228304063581592,70,54,Piano
292.25,0.19228304063581592,80,54,Piano
292.5,0.38456608127163183,67,82,Piano
292.5,0.38456608127163183,63,82,Piano
292.5,0.38456608127163183,58,82,Piano
292.5,0.38456608127163183,51,82,Piano
292.5,0.19228304063581592,70,76,Piano
292.5,0.19228304063581592,81,76,Piano
292.75,0.2563773875144212,63,116,Piano
292.75,0.2563773875144212,58,116,Piano
293.0,0.38456608127163183,51,102,Piano
293.0,0.38456608127163183,58,102,Piano
293.0,0.38456608127163183,63,102,Piano
293.0,0.38456608127163183,67,102,Piano
293.0,0.19228304063581592,70,100,Piano
293.0,0.19228304063581592,80,100,Piano
293.25,0.19228304063581592,70,58,Piano
293.25,0.19228304063581592,80,58,Piano
293.5,0.0,58,86,Piano
293.5,0.0,63,86,Piano
293.5,0.0,53,86,Piano
293.5,0.38456608127163183,67,82,Piano
293.5,0.38456608127163183,63,82,Piano
293.5,0.38456608127163183,58,82,Piano
293.5,0.38456608127163183,51,82,Piano
293.5,0.19228304063581592,70,77,Piano
293.5,0.19228304063581592,81,77,Piano
293.75,0.38456608127163183,63,109,Piano
293.75,0.38456608127163183,58,109,Piano
294.0,0.38456608127163183,51,92,Piano
294.0,0.38456608127163183,58,92,Piano
294.0,0.38456608127163183,63,92,Piano
294.0,0.38456608127163183,67,92,Piano
294.0,0.19228304063581592,70,97,Piano
294.0,0.19228304063581592,80,97,Piano
294.25,0.19228304063581592,70,56,Piano
294.25,0.19228304063581592,80,56,Piano
294.5,0.38456608127163183,67,82,Piano
294.5,0.38456608127163183,63,82,Piano
294.5,0.38456608127163183,58,82,Piano
294.5,0.38456608127163183,51,82,Piano
294.5,0.19228304063581592,70,74,Piano
294.5,0.19228304063581592,81,74,Piano
294.75,0.2563773875144212,58,109,Piano
294.75,0.2563773875144212,63,109,Piano
294.75,0.2563773875144212,53,109,Piano
295.0,0.19228304063581592,51,92,Piano
295.0,0.19228304063581592,58,92,Piano
295.0,0.19228304063581592,63,92,Piano
295.0,0.19228304063581592,67,92,Piano
295.0,0.19228304063581592,70,96,Piano
295.0,0.19228304063581592,80,96,Piano
295.25,0.19228304063581592,53,125,Piano
295.25,0.19228304063581592,58,125,Piano
295.25,0.19228304063581592,67,88,Piano
295.25,0.19228304063581592,63,88,Piano
295.25,0.19228304063581592,58,88,Piano
295.25,0.19228304063581592,51,88,Piano
295.25,0.19228304063581592,70,60,Piano
295.25,0.19228304063581592,80,60,Piano
295.5,0.38456608127163183,51,82,Piano
295.5,0.38456608127163183,58,82,Piano
295.5,0.38456608127163183,63,82,Piano
295.5,0.38456608127163183,67,82,Piano
295.5,0.19228304063581592,70,80,Piano
295.5,0.19228304063581592,81,80,Piano
296.0,0.38456608127163183,50,92,Piano
296.0,0.38456608127163183,57,92,Piano
296.0,0.38456608127163183,62,92,Piano
296.0,0.38456608127163183,67,92,Piano
296.0,0.19228304063581592,70,98,Piano
296.0,0.19228304063581592,80,98,Piano
296.25,0.19228304063581592,70,54,Piano
296.25,0.19228304063581592,80,54,Piano
296.5,0.38456608127163183,67,82,Piano
296.5,0.38456608127163183,62,82,Piano
296.5,0.38456608127163183,57,82,Piano
296.5,0.38456608127163183,50,82,Piano
296.5,0.19228304063581592,70,76,Piano
296.5,0.19228304063581592,81,76,Piano
297.0,0.38456608127163183,50,102,Piano
297.0,0.38456608127163183,57,102,Piano
297.0,0.38456608127163183,62,102,Piano
297.0,0.38456608127163183,67,102,Piano
297.0,0.19228304063581592,70,100,Piano
297.0,0.19228304063581592,80,100,Piano
297.25,0.19228304063581592,70,58,Piano
297.25,0.19228304063581592,80,58,Piano
297.5,0.38456608127163183,67,82,Piano
297.5,0.38456608127163183,62,82,Piano
297.5,0.38456608127163183,57,82,Piano
297.5,0.38456608127163183,50,82,Piano
297.5,0.19228304063581592,70,77,Piano
297.5,0.19228304063581592,81,77,Piano
298.0,0.2563773875144212,62,109,Piano
298.0,0.2563773875144212,57,109,Piano
298.0,0.2563773875144212,66,109,Piano
298.0,0.38456608127163183,50,92,Piano
298.0,0.38456608127163183,57,92,Piano
298.0,0.38456608127163183,62,92,Piano
298.0,0.38456608127163183,66,92,Piano
298.0,0.19228304063581592,70,97,Piano
298.0,0.19228304063581592,80,97,Piano
298.25,0.19228304063581592,70,56,Piano
298.25,0.19228304063581592,80,56,Piano
298.5,0.19228304063581592,67,119,Piano
298.5,0.19228304063581592,57,119,Piano
298.5,0.19228304063581592,62,119,Piano
298.5,0.38456608127163183,66,82,Piano
298.5,0.38456608127163183,62,82,Piano
298.5,0.38456608127163183,57,82,Piano
298.5,0.38456608127163183,50,82,Piano
298.5,0.19228304063581592,70,74,Piano
298.5,0.19228304063581592,81,74,Piano
299.0,0.2563773875144212,69,125,Piano
299.0,0.2563773875144212,57,125,Piano
299.0,0.2563773875144212,62,125,Piano
299.0,0.19228304063581592,50,92,Piano
299.0,0.19228304063581592,57,92,Piano
299.0,0.19228304063581592,62,92,Piano
299.0,0.19228304063581592,66,92,Piano
299.0,0.19228304063581592,70,96,Piano
299.0,0.19228304063581592,80,96,Piano
299.25,0.19228304063581592,66,88,Piano
299.25,0.19228304063581592,62,88,Piano
299.25,0.19228304063581592,57,88,Piano
299.25,0.19228304063581592,50,88,Piano
299.25,0.19228304063581592,70,60,Piano
299.25,0.19228304063581592,80,60,Piano
299.5,0.2563773875144212,62,117,Piano
299.5,0.2563773875144212,66,117,Piano
299.5,0.19228304063581592,57,119,Piano
299.5,0.19228304063581592,66,119,Piano
299.5,0.38456608127163183,50,82,Piano
299.5,0.38456608127163183,57,82,Piano
299.5,0.38456608127163183,62,82,Piano
299.5,0.38456608127163183,66,82,Piano
299.5,0.19228304063581592,70,80,Piano
299.5,0.19228304063581592,81,80,Piano
300.0,0.2563773875144212,62,118,Piano
300.0,0.2563773875144212,67,118,Piano
300.0,0.2563773875144212,59,118,Piano
300.0,0.38456608127163183,50,92,Piano
300.0,0.38456608127163183,57,92,Piano
300.0,0.38456608127163183,59,92,Piano
300.0,0.38456608127163183,67,92,Piano
300.0,2.691962568901423,83,75,Piano
300.0,2.691962568901423,95,75,Piano
300.0,0.19228304063581592,70,98,Piano
300.0,0.19228304063581592,80,98,Piano
300.25,0.19228304063581592,70,54,Piano
300.25,0.19228304063581592,80,54,Piano
300.5,0.38456608127163183,67,82,Piano
300.5,0.38456608127163183,59,82,Piano
300.5,0.38456608127163183,57,82,Piano
300.5,0.38456608127163183,50,82,Piano
300.5,0.19228304063581592,70,76,Piano
300.5,0.19228304063581592,81,76,Piano
300.75,0.0,62,81,Piano
300.75,0.0,57,81,Piano
301.0,0.19228304063581592,57,127,Piano
301.0,0.19228304063581592,62,127,Piano
301.0,0.38456608127163183,50,102,Piano
301.0,0.38456608127163183,57,102,Piano
301.0,0.38456608127163183,59,102,Piano
301.0,0.38456608127163183,67,102,Piano
301.0,0.19228304063581592,70,100,Piano
301.0,0.19228304063581592,80,100,Piano
301.25,0.19228304063581592,70,58,Piano
301.25,0.19228304063581592,80,58,Piano
301.5,0.38456608127163183,67,82,Piano
301.5,0.38456608127163183,59,82,Piano
301.5,0.38456608127163183,57,82,Piano
301.5,0.38456608127163183,50,82,Piano
301.5,0.19228304063581592,70,77,Piano
301.5,0.19228304063581592,81,77,Piano
301.75,0.2563773875144212,62,127,Piano
301.75,0.2563773875144212,67,127,Piano
302.0,0.38456608127163183,50,92,Piano
302.0,0.38456608127163183,57,92,Piano
302.0,0.38456608127163183,59,92,Piano
302.0,0.38456608127163183,67,92,Piano
302.0,0.19228304063581592,70,97,Piano
302.0,0.19228304063581592,80,97,Piano
302.25,0.19228304063581592,70,56,Piano
302.25,0.19228304063581592,80,56,Piano
302.5,0.38456608127163183,67,82,Piano
302.5,0.38456608127163183,59,82,Piano
302.5,0.38456608127163183,57,82,Piano
302.5,0.38456608127163183,50,82,Piano
302.5,0.19228304063581592,70,74,Piano
302.5,0.19228304063581592,81,74,Piano
303.0,0.19228304063581592,50,92,Piano
303.0,0.19228304063581592,57,92,Piano
303.0,0.19228304063581592,59,92,Piano
303.0,0.19228304063581592,67,92,Piano
303.0,0.19228304063581592,70,88,Piano
303.0,0.19228304063581592,80,88,Piano
303.0,0.19228304063581592,53,88,Piano
303.25,0.19228304063581592,67,88,Piano
303.25,0.19228304063581592,59,88,Piano
303.25,0.19228304063581592,57,88,Piano
303.25,0.19228304063581592,50,88,Piano
303.25,0.19228304063581592,70,60,Piano
303.25,0.19228304063581592,80,60,Piano
303.5,0.38456608127163183,50,82,Piano
303.5,0.38456608127163183,57,82,Piano
303.5,0.38456608127163183,59,82,Piano
303.5,0.38456608127163183,67,82,Piano
303.5,0.38456608127163183,84,75,Piano
303.5,0.38456608127163183,96,75,Piano
303.5,0.19228304063581592,70,80,Piano
303.5,0.19228304063581592,81,80,Piano
304.0,0.38456608127163183,53,92,Piano
304.0,0.38456608127163183,57,92,Piano
304.0,0.38456608127163183,60,92,Piano
304.0,0.38456608127163183,65,92,Piano
304.0,1.5382643250865273,86,81,Piano
304.0,1.5382643250865273,98,81,Piano
304.0,0.19228304063581592,70,98,Piano
304.0,0.19228304063581592,80,98,Piano
304.25,0.19228304063581592,70,54,Piano
304.25,0.19228304063581592,80,54,Piano
304.5,0.38456608127163183,65,82,Piano
304.5,0.38456608127163183,60,82,Piano
304.5,0.38456608127163183,57,82,Piano
304.5,0.38456608127163183,53,82,Piano
304.5,0.19228304063581592,70,76,Piano
304.5,0.19228304063581592,81,76,Piano
305.0,0.38456608127163183,53,102,Piano
305.0,0.38456608127163183,57,102,Piano
305.0,0.38456608127163183,60,102,Piano
305.0,0.38456608127163183,65,102,Piano
305.0,0.19228304063581592,70,100,Piano
305.0,0.19228304063581592,80,100,Piano
305.25,0.19228304063581592,70,58,Piano
305.25,0.19228304063581592,80,58,Piano
305.5,0.38456608127163183,65,82,Piano
305.5,0.38456608127163183,60,82,Piano
305.5,0.38456608127163183,57,82,Piano
305.5,0.38456608127163183,53,82,Piano
305.5,0.19228304063581592,70,77,Piano
305.5,0.19228304063581592,81,77,Piano
306.0,0.38456608127163183,53,92,Piano
306.0,0.38456608127163183,57,92,Piano
306.0,0.38456608127163183,60,92,Piano
306.0,0.38456608127163183,65,92,Piano
306.0,0.7691321625432637,79,83,Piano
306.0,0.7691321625432637,91,83,Piano
306.0,0.19228304063581592,70,97,Piano
306.0,0.19228304063581592,80,97,Piano
306.25,0.19228304063581592,70,56,Piano
306.25,0.19228304063581592,80,56,Piano
306.5,0.38456608127163183,65,82,Piano
306.5,0.38456608127163183,60,82,Piano
306.5,0.38456608127163183,57,82,Piano
306.5,0.38456608127163183,53,82,Piano
306.5,0.19228304063581592,70,74,Piano
306.5,0.19228304063581592,81,74,Piano
307.0,0.19228304063581592,53,92,Piano
307.0,0.19228304063581592,57,92,Piano
307.0,0.19228304063581592,60,92,Piano
307.0,0.19228304063581592,65,92,Piano
307.0,0.19228304063581592,70,86,Piano
307.0,0.19228304063581592,80,86,Piano
307.0,0.19228304063581592,53,86,Piano
307.25,0.19228304063581592,65,88,Piano
307.25,0.19228304063581592,60,88,Piano
307.25,0.19228304063581592,57,88,Piano
307.25,0.19228304063581592,53,88,Piano
307.25,0.19228304063581592,70,60,Piano
307.25,0.19228304063581592,80,60,Piano
307.5,0.38456608127163183,53,82,Piano
307.5,0.38456608127163183,57,82,Piano
307.5,0.38456608127163183,60,82,Piano
307.5,0.38456608127163183,65,82,Piano
307.5,0.19228304063581592,70,80,Piano
307.5,0.19228304063581592,81,80,Piano
308.0,0.38456608127163183,53,92,Piano
308.0,0.38456608127163183,55,92,Piano
308.0,0.38456608127163183,60,92,Piano
308.0,0.38456608127163183,67,92,Piano
308.0,0.19228304063581592,70,98,Piano
308.0,0.19228304063581592,80,98,Piano
308.25,0.19228304063581592,70,54,Piano
308.25,0.19228304063581592,80,54,Piano
308.5,0.38456608127163183,67,82,Piano
308.5,0.38456608127163183,60,82,Piano
308.5,0.38456608127163183,55,82,Piano
308.5,0.38456608127163183,53,82,Piano
308.5,0.19228304063581592,70,76,Piano
308.5,0.19228304063581592,81,76,Piano
309.0,0.38456608127163183,52,102,Piano
309.0,0.38456608127163183,55,102,Piano
309.0,0.38456608127163183,60,102,Piano
309.0,0.38456608127163183,67,102,Piano
309.0,0.19228304063581592,70,100,Piano
309.0,0.19228304063581592,80,100,Piano
309.25,0.19228304063581592,70,58,Piano
309.25,0.19228304063581592,80,58,Piano
309.5,0.38456608127163183,67,82,Piano
309.5,0.38456608127163183,60,82,Piano
309.5,0.38456608127163183,55,82,Piano
309.5,0.38456608127163183,52,82,Piano
309.5,0.19228304063581592,70,77,Piano
309.5,0.19228304063581592,81,77,Piano
310.0,0.38456608127163183,50,92,Piano
310.0,0.38456608127163183,57,92,Piano
310.0,0.38456608127163183,62,92,Piano
310.0,0.38456608127163183,66,92,Piano
310.0,0.7691321625432637,93,77,Piano
310.0,0.7691321625432637,105,77,Piano
310.0,0.19228304063581592,70,97,Piano
310.0,0.19228304063581592,80,97,Piano
310.25,0.19228304063581592,70,56,Piano
310.25,0.19228304063581592,80,56,Piano
310.5,0.38456608127163183,66,82,Piano
310.5,0.38456608127163183,62,82,Piano
310.5,0.38456608127163183,57,82,Piano
310.5,0.38456608127163183,50,82,Piano
310.5,0.19228304063581592,70,74,Piano
310.5,0.19228304063581592,81,74,Piano
311.0,0.2563773875144212,69,117,Piano
311.0,0.2563773875144212,62,117,Piano
311.0,0.2563773875144212,57,117,Piano
311.0,0.19228304063581592,50,92,Piano
311.0,0.19228304063581592,57,92,Piano
311.0,0.19228304063581592,62,92,Piano
311.0,0.19228304063581592,66,92,Piano
311.0,0.5768491219074477,90,77,Piano
311.0,0.5768491219074477,102,77,Piano
311.0,0.19228304063581592,70,83,Piano
311.0,0.19228304063581592,80,83,Piano
311.0,0.19228304063581592,53,83,Piano
311.25,0.19228304063581592,66,88,Piano
311.25,0.19228304063581592,62,88,Piano
311.25,0.19228304063581592,57,88,Piano
311.25,0.19228304063581592,50,88,Piano
311.25,0.19228304063581592,70,60,Piano
311.25,0.19228304063581592,80,60,Piano
311.5,0.38456608127163183,50,82,Piano
311.5,0.38456608127163183,57,82,Piano
311.5,0.38456608127163183,62,82,Piano
311.5,0.38456608127163183,66,82,Piano
311.5,0.19228304063581592,70,80,Piano
311.5,0.19228304063581592,81,80,Piano
311.75,0.0,57,103,Piano
311.75,0.0,48,103,Piano
311.75,0.0,91,63,Piano
311.75,0.0,103,63,Piano
311.75,0.0,90,73,Piano
311.75,0.0,102,73,Piano
312.0,0.38456608127163183,62,121,Piano
312.0,0.38456608127163183,66,121,Piano
312.0,0.38456608127163183,50,92,Piano
312.0,0.38456608127163183,57,92,Piano
312.0,0.38456608127163183,59,92,Piano
312.0,0.38456608127163183,66,92,Piano
312.0,0.0,88,55,Piano
312.0,0.0,100,55,Piano
312.0,1.5382643250865273,86,67,Piano
312.0,1.5382643250865273,98,67,Piano
312.0,0.19228304063581592,70,98,Piano
312.0,0.19228304063581592,80,98,Piano
312.25,0.19228304063581592,70,54,Piano
312.25,0.19228304063581592,80,54,Piano
312.5,0.38456608127163183,66,82,Piano
312.5,0.38456608127163183,59,82,Piano
312.5,0.38456608127163183,57,82,Piano
312.5,0.38456608127163183,50,82,Piano
312.5,0.19228304063581592,70,76,Piano
312.5,0.19228304063581592,81,76,Piano
312.75,0.2563773875144212,61,113,Piano
312.75,0.2563773875144212,57,113,Piano
312.75,0.2563773875144212,62,113,Piano
313.0,0.38456608127163183,50,102,Piano
313.0,0.38456608127163183,57,102,Piano
313.0,0.38456608127163183,59,102,Piano
313.0,0.38456608127163183,66,102,Piano
313.0,0.19228304063581592,70,100,Piano
313.0,0.19228304063581592,80,100,Piano
313.25,0.38456608127163183,62,120,Piano
313.25,0.38456608127163183,66,120,Piano
313.25,0.38456608127163183,61,120,Piano
313.25,0.19228304063581592,70,58,Piano
313.25,0.19228304063581592,80,58,Piano
313.5,0.38456608127163183,66,82,Piano
313.5,0.38456608127163183,59,82,Piano
313.5,0.38456608127163183,57,82,Piano
313.5,0.38456608127163183,50,82,Piano
313.5,0.19228304063581592,70,77,Piano
313.5,0.19228304063581592,81,77,Piano
314.0,0.2563773875144212,64,122,Piano
314.0,0.2563773875144212,62,122,Piano
314.0,0.38456608127163183,50,92,Piano
314.0,0.38456608127163183,56,92,Piano
314.0,0.38456608127163183,59,92,Piano
314.0,0.38456608127163183,64,92,Piano
314.0,0.38456608127163183,80,81,Piano
314.0,0.38456608127163183,92,81,Piano
314.0,0.19228304063581592,70,97,Piano
314.0,0.19228304063581592,80,97,Piano
314.25,0.19228304063581592,70,56,Piano
314.25,0.19228304063581592,80,56,Piano
314.5,0.38456608127163183,64,82,Piano
314.5,0.38456608127163183,59,82,Piano
314.5,0.38456608127163183,56,82,Piano
314.5,0.38456608127163183,50,82,Piano
314.5,0.38456608127163183,81,65,Piano
314.5,0.38456608127163183,93,65,Piano
314.5,0.19228304063581592,70,74,Piano
314.5,0.19228304063581592,81,74,Piano
315.0,0.0,64,103,Piano
315.0,0.0,59,103,Piano
315.0,0.0,62,103,Piano
315.0,0.19228304063581592,50,92,Piano
315.0,0.19228304063581592,56,92,Piano
315.0,0.19228304063581592,59,92,Piano
315.0,0.19228304063581592,64,92,Piano
315.0,0.38456608127163183,83,77,Piano
315.0,0.38456608127163183,95,77,Piano
315.0,0.19228304063581592,70,82,Piano
315.0,0.19228304063581592,80,82,Piano
315.0,0.19228304063581592,53,82,Piano
315.25,0.38456608127163183,62,111,Piano
315.25,0.38456608127163183,71,111,Piano
315.25,0.38456608127163183,64,111,Piano
315.25,0.19228304063581592,64,88,Piano
315.25,0.19228304063581592,59,88,Piano
315.25,0.19228304063581592,56,88,Piano
315.25,0.19228304063581592,50,88,Piano
315.25,0.19228304063581592,70,60,Piano
315.25,0.19228304063581592,80,60,Piano
315.5,0.38456608127163183,50,82,Piano
315.5,0.38456608127163183,56,82,Piano
315.5,0.38456608127163183,59,82,Piano
315.5,0.38456608127163183,64,82,Piano
315.5,0.7691321625432637,86,69,Piano
315.5,0.7691321625432637,98,69,Piano
315.5,0.19228304063581592,70,80,Piano
315.5,0.19228304063581592,81,80,Piano
316.0,0.38456608127163183,67,116,Piano
316.0,0.38456608127163183,64,116,Piano
316.0,0.38456608127163183,52,92,Piano
316.0,0.38456608127163183,57,92,Piano
316.0,0.38456608127163183,60,92,Piano
316.0,0.38456608127163183,64,92,Piano
316.0,0.19228304063581592,70,98,Piano
316.0,0.19228304063581592,80,98,Piano
316.25,0.19228304063581592,70,54,Piano
316.25,0.19228304063581592,80,54,Piano
316.5,0.38456608127163183,64,82,Piano
316.5,0.38456608127163183,60,82,Piano
316.5,0.38456608127163183,57,82,Piano
316.5,0.38456608127163183,52,82,Piano
316.5,0.7691321625432637,84,67,Piano
316.5,0.7691321625432637,96,67,Piano
316.5,0.19228304063581592,70,76,Piano
316.5,0.19228304063581592,81,76,Piano
316.75,0.0,60,105,Piano
316.75,0.0,64,105,Piano
316.75,0.0,67,105,Piano
317.0,0.2563773875144212,60,120,Piano
317.0,0.2563773875144212,67,120,Piano
317.0,0.38456608127163183,52,102,Piano
317.0,0.38456608127163183,57,102,Piano
317.0,0.38456608127163183,60,102,Piano
317.0,0.38456608127163183,64,102,Piano
317.0,0.19228304063581592,70,100,Piano
317.0,0.19228304063581592,80,100,Piano
317.25,0.19228304063581592,70,58,Piano
317.25,0.19228304063581592,80,58,Piano
317.5,0.38456608127163183,64,82,Piano
317.5,0.38456608127163183,60,82,Piano
317.5,0.38456608127163183,57,82,Piano
317.5,0.38456608127163183,52,82,Piano
317.5,0.38456608127163183,83,67,Piano
317.5,0.38456608127163183,95,67,Piano
317.5,0.19228304063581592,70,77,Piano
317.5,0.19228304063581592,81,77,Piano
318.0,0.38456608127163183,52,92,Piano
318.0,0.38456608127163183,57,92,Piano
318.0,0.38456608127163183,60,92,Piano
318.0,0.38456608127163183,64,92,Piano
318.0,0.38456608127163183,84,67,Piano
318.0,0.38456608127163183,96,67,Piano
318.0,0.19228304063581592,70,97,Piano
318.0,0.19228304063581592,80,97,Piano
318.25,0.19228304063581592,70,56,Piano
318.25,0.19228304063581592,80,56,Piano
318.5,0.38456608127163183,64,82,Piano
318.5,0.38456608127163183,60,82,Piano
318.5,0.38456608127163183,57,82,Piano
318.5,0.38456608127163183,52,82,Piano
318.5,0.38456608127163183,83,73,Piano
318.5,0.38456608127163183,95,73,Piano
318.5,0.19228304063581592,70,74,Piano
318.5,0.19228304063581592,81,74,Piano
319.0,0.19228304063581592,52,92,Piano
319.0,0.19228304063581592,57,92,Piano
319.0,0.19228304063581592,60,92,Piano
319.0,0.19228304063581592,64,92,Piano
319.0,0.38456608127163183,81,71,Piano
319.0,0.38456608127163183,93,71,Piano
319.0,0.19228304063581592,70,88,Piano
319.0,0.19228304063581592,80,88,Piano
319.0,0.19228304063581592,53,88,Piano
319.25,0.19228304063581592,64,88,Piano
319.25,0.19228304063581592,60,88,Piano
319.25,0.19228304063581592,57,88,Piano
319.25,0.19228304063581592,52,88,Piano
319.25,0.19228304063581592,70,60,Piano
319.25,0.19228304063581592,80,60,Piano
319.5,0.38456608127163183,52,82,Piano
319.5,0.38456608127163183,57,82,Piano
319.5,0.38456608127163183,60,82,Piano
319.5,0.38456608127163183,64,82,Piano
319.5,0.38456608127163183,79,75,Piano
319.5,0.38456608127163183,91,75,Piano
319.5,0.19228304063581592,70,80,Piano
319.5,0.19228304063581592,81,80,Piano
320.0,0.38456608127163183,50,92,Piano
320.0,0.38456608127163183,57,92,Piano
320.0,0.38456608127163183,60,92,Piano
320.0,0.38456608127163183,67,92,Piano
320.0,0.19228304063581592,81,75,Piano
320.0,0.19228304063581592,93,75,Piano
320.0,0.19228304063581592,70,98,Piano
320.0,0.19228304063581592,80,98,Piano
320.25,0.19228304063581592,83,63,Piano
320.25,0.19228304063581592,95,63,Piano
320.25,0.19228304063581592,70,54,Piano
320.25,0.19228304063581592,80,54,Piano
320.5,0.38456608127163183,67,82,Piano
320.5,0.38456608127163183,60,82,Piano
320.5,0.38456608127163183,57,82,Piano
320.5,0.38456608127163183,50,82,Piano
320.5,2.5637738751442125,84,71,Piano
320.5,2.5637738751442125,96,71,Piano
320.5,0.19228304063581592,70,76,Piano
320.5,0.19228304063581592,81,76,Piano
320.75,0.0,60,72,Piano
320.75,0.0,57,72,Piano
320.75,0.0,62,72,Piano
321.0,0.38456608127163183,62,101,Piano
321.0,0.38456608127163183,60,101,Piano
321.0,0.38456608127163183,50,102,Piano
321.0,0.38456608127163183,57,102,Piano
321.0,0.38456608127163183,60,102,Piano
321.0,0.38456608127163183,67,102,Piano
321.0,0.19228304063581592,70,100,Piano
321.0,0.19228304063581592,80,100,Piano
321.25,0.19228304063581592,70,58,Piano
321.25,0.19228304063581592,80,58,Piano
321.5,0.38456608127163183,67,82,Piano
321.5,0.38456608127163183,60,82,Piano
321.5,0.38456608127163183,57,82,Piano
321.5,0.38456608127163183,50,82,Piano
321.5,0.19228304063581592,70,77,Piano
321.5,0.19228304063581592,81,77,Piano
322.0,0.38456608127163183,50,92,Piano
322.0,0.38456608127163183,57,92,Piano
322.0,0.38456608127163183,60,92,Piano
322.0,0.38456608127163183,67,92,Piano
322.0,0.19228304063581592,70,97,Piano
322.0,0.19228304063581592,80,97,Piano
322.25,0.19228304063581592,70,56,Piano
322.25,0.19228304063581592,80,56,Piano
322.5,0.38456608127163183,67,82,Piano
322.5,0.38456608127163183,60,82,Piano
322.5,0.38456608127163183,57,82,Piano
322.5,0.38456608127163183,50,82,Piano
322.5,0.19228304063581592,70,74,Piano
322.5,0.19228304063581592,81,74,Piano
323.0,0.19228304063581592,50,92,Piano
323.0,0.19228304063581592,57,92,Piano
323.0,0.19228304063581592,60,92,Piano
323.0,0.19228304063581592,67,92,Piano
323.0,0.19228304063581592,70,87,Piano
323.0,0.19228304063581592,80,87,Piano
323.0,0.19228304063581592,53,87,Piano
323.25,0.19228304063581592,67,88,Piano
323.25,0.19228304063581592,60,88,Piano
323.25,0.19228304063581592,57,88,Piano
323.25,0.19228304063581592,50,88,Piano
323.25,0.19228304063581592,70,60,Piano
323.25,0.19228304063581592,80,60,Piano
323.5,0.38456608127163183,50,82,Piano
323.5,0.38456608127163183,57,82,Piano
323.5,0.38456608127163183,60,82,Piano
323.5,0.38456608127163183,67,82,Piano
323.5,0.19228304063581592,70,80,Piano
323.5,0.19228304063581592,81,80,Piano
324.0,0.7691321625432637,50,92,Piano
324.0,0.7691321625432637,57,92,Piano
324.0,0.7691321625432637,60,92,Piano
324.0,0.7691321625432637,65,92,Piano
324.0,0.38456608127163183,81,91,Piano
324.0,0.38456608127163183,93,91,Piano
324.0,0.19228304063581592,70,98,Piano
324.0,0.19228304063581592,80,98,Piano
324.25,0.19228304063581592,70,54,Piano
324.25,0.19228304063581592,80,54,Piano
324.5,0.38456608127163183,83,89,Piano
324.5,0.38456608127163183,95,89,Piano
324.5,0.19228304063581592,70,76,Piano
324.5,0.19228304063581592,81,76,Piano
325.0,0.19228304063581592,50,82,Piano
325.0,0.19228304063581592,57,82,Piano
325.0,0.19228304063581592,60,82,Piano
325.0,0.19228304063581592,65,82,Piano
325.0,0.0,84,89,Piano
325.0,0.0,96,89,Piano
325.0,0.19228304063581592,70,100,Piano
325.0,0.19228304063581592,80,100,Piano
325.5,0.7691321625432637,65,92,Piano
325.5,0.7691321625432637,60,92,Piano
325.5,0.7691321625432637,55,92,Piano
325.5,0.7691321625432637,50,92,Piano
325.5,1.5382643250865273,83,89,Piano
325.5,1.5382643250865273,95,89,Piano
325.5,0.19228304063581592,70,77,Piano
325.5,0.19228304063581592,81,77,Piano
326.0,0.19228304063581592,70,97,Piano
326.0,0.19228304063581592,80,97,Piano
326.25,0.19228304063581592,70,56,Piano
326.25,0.19228304063581592,80,56,Piano
326.5,0.38456608127163183,65,82,Piano
326.5,0.38456608127163183,60,82,Piano
326.5,0.38456608127163183,55,82,Piano
326.5,0.38456608127163183,50,82,Piano
326.5,0.19228304063581592,70,74,Piano
326.5,0.19228304063581592,81,74,Piano
327.0,0.19228304063581592,64,122,Piano
327.0,0.19228304063581592,53,122,Piano
327.0,0.19228304063581592,50,92,Piano
327.0,0.19228304063581592,55,92,Piano
327.0,0.19228304063581592,60,92,Piano
327.0,0.19228304063581592,65,92,Piano
327.0,0.19228304063581592,70,89,Piano
327.0,0.19228304063581592,80,89,Piano
327.0,0.19228304063581592,53,89,Piano
327.25,0.19228304063581592,65,88,Piano
327.25,0.19228304063581592,60,88,Piano
327.25,0.19228304063581592,55,88,Piano
327.25,0.19228304063581592,50,88,Piano
327.25,0.19228304063581592,70,60,Piano
327.25,0.19228304063581592,80,60,Piano
327.5,0.19228304063581592,59,119,Piano
327.5,0.19228304063581592,53,119,Piano
327.5,0.19228304063581592,63,119,Piano
327.5,0.38456608127163183,50,82,Piano
327.5,0.38456608127163183,55,82,Piano
327.5,0.38456608127163183,60,82,Piano
327.5,0.38456608127163183,65,82,Piano
327.5,0.19228304063581592,81,75,Piano
327.5,0.19228304063581592,93,75,Piano
327.5,0.19228304063581592,70,80,Piano
327.5,0.19228304063581592,81,80,Piano
327.75,0.19228304063581592,83,67,Piano
327.75,0.19228304063581592,95,67,Piano
328.0,0.38456608127163183,60,118,Piano
328.0,0.38456608127163183,62,118,Piano
328.0,0.38456608127163183,50,92,Piano
328.0,0.38456608127163183,55,92,Piano
328.0,0.38456608127163183,60,92,Piano
328.0,0.38456608127163183,67,92,Piano
328.0,1.1536982438148955,84,85,Piano
328.0,1.1536982438148955,96,85,Piano
328.0,0.19228304063581592,70,98,Piano
328.0,0.19228304063581592,80,98,Piano
328.25,0.19228304063581592,70,54,Piano
328.25,0.19228304063581592,80,54,Piano
328.5,0.38456608127163183,67,82,Piano
328.5,0.38456608127163183,60,82,Piano
328.5,0.38456608127163183,55,82,Piano
328.5,0.38456608127163183,50,82,Piano
328.5,0.19228304063581592,70,76,Piano
328.5,0.19228304063581592,81,76,Piano
329.0,0.38456608127163183,50,102,Piano
329.0,0.38456608127163183,55,102,Piano
329.0,0.38456608127163183,60,102,Piano
329.0,0.38456608127163183,67,102,Piano
329.0,0.19228304063581592,70,100,Piano
329.0,0.19228304063581592,80,100,Piano
329.25,0.19228304063581592,70,58,Piano
329.25,0.19228304063581592,80,58,Piano
329.5,0.38456608127163183,67,82,Piano
329.5,0.38456608127163183,60,82,Piano
329.5,0.38456608127163183,55,82,Piano
329.5,0.38456608127163183,50,82,Piano
329.5,0.19228304063581592,81,69,Piano
329.5,0.19228304063581592,93,69,Piano
329.5,0.19228304063581592,70,77,Piano
329.5,0.19228304063581592,81,77,Piano
329.75,0.19228304063581592,83,63,Piano
329.75,0.19228304063581592,95,63,Piano
330.0,0.38456608127163183,50,92,Piano
330.0,0.38456608127163183,55,92,Piano
330.0,0.38456608127163183,60,92,Piano
330.0,0.38456608127163183,64,92,Piano
330.0,1.1536982438148955,84,77,Piano
330.0,1.1536982438148955,96,77,Piano
330.0,0.19228304063581592,70,97,Piano
330.0,0.19228304063581592,80,97,Piano
330.25,0.19228304063581592,70,56,Piano
330.25,0.19228304063581592,80,56,Piano
330.5,0.38456608127163183,64,82,Piano
330.5,0.38456608127163183,60,82,Piano
330.5,0.38456608127163183,55,82,Piano
330.5,0.38456608127163183,50,82,Piano
330.5,0.19228304063581592,70,74,Piano
330.5,0.19228304063581592,81,74,Piano
331.0,0.5127547750288424,67,118,Piano
331.0,0.5127547750288424,64,118,Piano
331.0,0.19228304063581592,50,92,Piano
331.0,0.19228304063581592,55,92,Piano
331.0,0.19228304063581592,60,92,Piano
331.0,0.19228304063581592,64,92,Piano
331.0,0.19228304063581592,70,89,Piano
331.0,0.19228304063581592,80,89,Piano
331.0,0.19228304063581592,53,89,Piano
331.25,0.19228304063581592,64,88,Piano
331.25,0.19228304063581592,60,88,Piano
331.25,0.19228304063581592,55,88,Piano
331.25,0.19228304063581592,50,88,Piano
331.25,0.19228304063581592,70,60,Piano
331.25,0.19228304063581592,80,60,Piano
331.5,0.38456608127163183,50,82,Piano
331.5,0.38456608127163183,55,82,Piano
331.5,0.38456608127163183,60,82,Piano
331.5,0.38456608127163183,64,82,Piano
331.5,0.19228304063581592,81,67,Piano
331.5,0.19228304063581592,93,67,Piano
331.5,0.19228304063581592,70,80,Piano
331.5,0.19228304063581592,81,80,Piano
331.75,0.19228304063581592,83,69,Piano
331.75,0.19228304063581592,95,69,Piano
332.0,0.38456608127163183,52,92,Piano
332.0,0.38456608127163183,55,92,Piano
332.0,0.38456608127163183,60,92,Piano
332.0,0.38456608127163183,64,92,Piano
332.0,0.7691321625432637,84,69,Piano
332.0,0.7691321625432637,96,69,Piano
332.0,0.19228304063581592,70,98,Piano
332.0,0.19228304063581592,80,98,Piano
332.25,0.19228304063581592,70,54,Piano
332.25,0.19228304063581592,80,54,Piano
332.5,0.38456608127163183,64,82,Piano
332.5,0.38456608127163183,60,82,Piano
332.5,0.38456608127163183,55,82,Piano
332.5,0.38456608127163183,52,82,Piano
332.5,0.19228304063581592,70,76,Piano
332.5,0.19228304063581592,81,76,Piano
333.0,0.38456608127163183,50,102,Piano
333.0,0.38456608127163183,57,102,Piano
333.0,0.38456608127163183,62,102,Piano
333.0,0.38456608127163183,66,102,Piano
333.0,0.7691321625432637,86,67,Piano
333.0,0.7691321625432637,98,67,Piano
333.0,0.19228304063581592,70,100,Piano
333.0,0.19228304063581592,80,100,Piano
333.25,0.19228304063581592,70,58,Piano
333.25,0.19228304063581592,80,58,Piano
333.5,0.38456608127163183,66,82,Piano
333.5,0.38456608127163183,62,82,Piano
333.5,0.38456608127163183,57,82,Piano
333.5,0.38456608127163183,50,82,Piano
333.5,0.19228304063581592,70,77,Piano
333.5,0.19228304063581592,81,77,Piano
334.0,0.38456608127163183,52,92,Piano
334.0,0.38456608127163183,55,92,Piano
334.0,0.38456608127163183,60,92,Piano
334.0,0.38456608127163183,64,92,Piano
334.0,0.7691321625432637,88,60,Piano
334.0,0.7691321625432637,100,60,Piano
334.0,0.19228304063581592,70,97,Piano
334.0,0.19228304063581592,80,97,Piano
334.25,0.19228304063581592,70,56,Piano
334.25,0.19228304063581592,80,56,Piano
334.5,0.38456608127163183,64,82,Piano
334.5,0.38456608127163183,60,82,Piano
334.5,0.38456608127163183,55,82,Piano
334.5,0.38456608127163183,52,82,Piano
334.5,0.19228304063581592,70,74,Piano
334.5,0.19228304063581592,81,74,Piano
335.0,0.38456608127163183,50,102,Piano
335.0,0.38456608127163183,57,102,Piano
335.0,0.38456608127163183,62,102,Piano
335.0,0.38456608127163183,66,102,Piano
335.0,0.7691321625432637,90,62,Piano
335.0,0.7691321625432637,102,62,Piano
335.0,0.19228304063581592,70,87,Piano
335.0,0.19228304063581592,80,87,Piano
335.0,0.19228304063581592,53,87,Piano
335.25,0.19228304063581592,70,60,Piano
335.25,0.19228304063581592,80,60,Piano
335.5,0.38456608127163183,66,82,Piano
335.5,0.38456608127163183,62,82,Piano
335.5,0.38456608127163183,57,82,Piano
335.5,0.38456608127163183,50,82,Piano
335.5,0.19228304063581592,70,80,Piano
335.5,0.19228304063581592,81,80,Piano
336.0,0.38456608127163183,71,122,Piano
336.0,0.38456608127163183,67,122,Piano
336.0,0.38456608127163183,50,92,Piano
336.0,0.38456608127163183,55,92,Piano
336.0,0.38456608127163183,59,92,Piano
336.0,0.38456608127163183,67,92,Piano
336.0,6.153057300346109,91,67,Piano
336.0,6.153057300346109,103,67,Piano
336.0,0.19228304063581592,70,98,Piano
336.0,0.19228304063581592,80,98,Piano
336.25,0.19228304063581592,70,54,Piano
336.25,0.19228304063581592,80,54,Piano
336.5,0.38456608127163183,67,82,Piano
336.5,0.38456608127163183,59,82,Piano
336.5,0.38456608127163183,55,82,Piano
336.5,0.38456608127163183,50,82,Piano
336.5,0.19228304063581592,70,76,Piano
336.5,0.19228304063581592,81,76,Piano
337.0,0.38456608127163183,50,102,Piano
337.0,0.38456608127163183,55,102,Piano
337.0,0.38456608127163183,59,102,Piano
337.0,0.38456608127163183,67,102,Piano
337.0,0.19228304063581592,70,100,Piano
337.0,0.19228304063581592,80,100,Piano
337.25,0.19228304063581592,70,58,Piano
337.25,0.19228304063581592,80,58,Piano
337.5,0.38456608127163183,67,82,Piano
337.5,0.38456608127163183,59,82,Piano
337.5,0.38456608127163183,55,82,Piano
337.5,0.38456608127163183,50,82,Piano
337.5,0.19228304063581592,70,77,Piano
337.5,0.19228304063581592,81,77,Piano
338.0,0.38456608127163183,53,92,Piano
338.0,0.38456608127163183,57,92,Piano
338.0,0.38456608127163183,60,92,Piano
338.0,0.38456608127163183,65,92,Piano
338.0,0.19228304063581592,70,97,Piano
338.0,0.19228304063581592,80,97,Piano
338.25,0.19228304063581592,70,56,Piano
338.25,0.19228304063581592,80,56,Piano
338.5,0.38456608127163183,65,82,Piano
338.5,0.38456608127163183,60,82,Piano
338.5,0.38456608127163183,57,82,Piano
338.5,0.38456608127163183,53,82,Piano
338.5,0.19228304063581592,70,74,Piano
338.5,0.19228304063581592,81,74,Piano
339.0,0.19228304063581592,53,92,Piano
339.0,0.19228304063581592,57,92,Piano
339.0,0.19228304063581592,60,92,Piano
339.0,0.19228304063581592,65,92,Piano
339.0,0.19228304063581592,70,96,Piano
339.0,0.19228304063581592,80,96,Piano
339.25,0.19228304063581592,65,88,Piano
339.25,0.19228304063581592,60,88,Piano
339.25,0.19228304063581592,57,88,Piano
339.25,0.19228304063581592,53,88,Piano
339.25,0.19228304063581592,70,60,Piano
339.25,0.19228304063581592,80,60,Piano
339.5,0.38456608127163183,53,82,Piano
339.5,0.38456608127163183,57,82,Piano
339.5,0.38456608127163183,60,82,Piano
339.5,0.38456608127163183,65,82,Piano
339.5,0.19228304063581592,70,80,Piano
339.5,0.19228304063581592,81,80,Piano
340.0,0.38456608127163183,67,81,Piano
340.0,0.38456608127163183,62,81,Piano
340.0,0.38456608127163183,50,92,Piano
340.0,0.38456608127163183,55,92,Piano
340.0,0.38456608127163183,59,92,Piano
340.0,0.38456608127163183,67,92,Piano
340.0,0.19228304063581592,70,94,Piano
340.0,0.19228304063581592,80,94,Piano
340.25,0.19228304063581592,70,52,Piano
340.25,0.19228304063581592,80,52,Piano
340.5,0.38456608127163183,67,82,Piano
340.5,0.38456608127163183,59,82,Piano
340.5,0.38456608127163183,55,82,Piano
340.5,0.38456608127163183,50,82,Piano
340.5,0.19228304063581592,70,78,Piano
340.5,0.19228304063581592,81,78,Piano
341.0,0.38456608127163183,50,102,Piano
341.0,0.38456608127163183,55,102,Piano
341.0,0.38456608127163183,59,102,Piano
341.0,0.38456608127163183,67,102,Piano
341.0,0.19228304063581592,70,96,Piano
341.0,0.19228304063581592,80,96,Piano
341.25,0.19228304063581592,70,52,Piano
341.25,0.19228304063581592,80,52,Piano
341.5,0.38456608127163183,67,82,Piano
341.5,0.38456608127163183,59,82,Piano
341.5,0.38456608127163183,55,82,Piano
341.5,0.38456608127163183,50,82,Piano
341.5,0.19228304063581592,70,69,Piano
341.5,0.19228304063581592,81,69,Piano
342.0,1.5382643250865273,53,92,Piano
342.0,1.5382643250865273,57,92,Piano
342.0,1.5382643250865273,60,92,Piano
342.0,1.5382643250865273,65,92,Piano
348.0,1.7305473657223431,66,77,Piano
348.0,1.7305473657223431,57,77,Piano
348.0,1.7305473657223431,62,77,Piano
352.0,1.5382643250865273,62,61,Piano
352.0,1.5382643250865273,59,61,Piano
352.0,1.5382643250865273,55,61,Piano
354.5,0.38456608127163183,57,66,Piano
354.5,0.38456608127163183,62,66,Piano
355.3333333333333,0.38456608127163183,62,82,Piano
355.3333333333333,0.38456608127163183,57,82,Piano
356.0,0.5768491219074477,62,90,Piano
356.0,0.5768491219074477,57,90,Piano
358.0,0.5127547750288424,62,87,Piano
358.0,0.5127547750288424,54,87,Piano
359.0,0.38456608127163183,62,88,Piano
359.0,0.38456608127163183,55,88,Piano
360.0,2.5637738751442125,33,55,Piano
360.0,2.5637738751442125,45,55,Piano
364.0,1.0255095500576847,59,70,Piano
364.0,1.0255095500576847,66,70,Piano
364.0,1.0255095500576847,62,70,Piano
364.0,2.5637738751442125,32,62,Piano
364.0,2.5637738751442125,44,62,Piano
368.0,0.9614152031790796,62,59,Piano
368.0,0.9614152031790796,55,59,Piano
368.0,1.0255095500576847,59,60,Piano
368.0,1.0255095500576847,55,60,Piano
372.0,2.884245609537239,59,58,Piano
372.0,2.884245609537239,52,58,Piano
372.0,2.884245609537239,61,58,Piano
372.0,2.884245609537239,57,58,Piano
376.6666666666667,16.53634149468017,50,82,Piano
376.6666666666667,16.53634149468017,57,82,Piano
376.75,16.53634149468017,62,85,Piano
376.75,16.53634149468017,66,85,Piano
