Start,Duration,Pitch,Velocity,Instrument
1.0,2.186688533552002,60,62,Piano
1.0,2.186688533552002,62,62,Piano
5.0,2.050020500205002,62,86,Piano
5.0,2.050020500205002,66,86,Piano
28.75,2.4600246002460024,57,56,Piano
28.75,2.4600246002460024,59,56,Piano
33.0,2.870028700287003,57,58,Piano
33.0,2.870028700287003,62,58,Piano
37.0,2.870028700287003,62,59,Piano
37.0,2.870028700287003,64,59,Piano
41.0,2.870028700287003,64,74,Piano
41.0,2.870028700287003,66,74,Piano
45.0,2.870028700287003,59,51,Piano
45.0,2.870028700287003,62,51,Piano
45.0,2.733360666940003,50,58,Piano
45.0,2.733360666940003,67,58,Piano
49.0,3.0432978281920042,66,72,Piano
49.0,3.0432978281920042,50,72,Piano
53.25,2.4899709503389125,62,56,Piano
53.25,2.4899709503389125,64,56,Piano
53.5,2.697468529533822,50,76,Piano
53.5,2.697468529533822,67,76,Piano
57.0,1.4524830543643656,61,74,Piano
57.0,1.4524830543643656,64,74,Piano
57.0,1.4524830543643656,42,74,Piano
59.333333333333336,0.8299903167796375,35,56,Piano
59.333333333333336,0.8299903167796375,63,56,Piano
59.333333333333336,0.8299903167796375,47,56,Piano
59.333333333333336,1.0374878959745468,57,64,Piano
59.333333333333336,1.0374878959745468,61,64,Piano
61.0,1.4350143501435015,64,74,Piano
61.0,1.4350143501435015,61,74,Piano
63.333333333333336,1.025010250102501,57,65,Piano
63.333333333333336,1.025010250102501,61,65,Piano
63.333333333333336,1.025010250102501,63,65,Piano
63.333333333333336,1.025010250102501,66,68,Piano
63.333333333333336,1.025010250102501,63,68,Piano
65.0,1.093344266776001,59,67,Piano
65.0,1.093344266776001,62,67,Piano
69.0,1.4350143501435015,33,57,Piano
69.0,1.4350143501435015,62,57,Piano
69.0,1.4350143501435015,66,57,Piano
69.0,1.4350143501435015,55,57,Piano
71.25,0.8200082000820008,55,52,Piano
71.25,0.8200082000820008,58,52,Piano
71.33333333333333,0.8200082000820008,45,48,Piano
71.33333333333333,0.8200082000820008,62,48,Piano
71.33333333333333,0.8200082000820008,64,48,Piano
76.33333333333333,0.4100041000410004,64,64,Piano
76.33333333333333,0.4100041000410004,66,64,Piano
76.33333333333333,0.4100041000410004,62,64,Piano
76.33333333333333,0.27333606669400023,57,59,Piano
76.33333333333333,0.27333606669400023,66,59,Piano
76.33333333333333,0.27333606669400023,62,59,Piano
77.0,2.870028700287003,62,66,Piano
77.0,2.870028700287003,67,66,Piano
77.0,2.870028700287003,59,66,Piano
77.0,2.870028700287003,64,66,Piano
81.0,2.4600246002460024,64,72,Piano
81.0,2.4600246002460024,66,72,Piano
85.0,3.0432978281920042,59,68,Piano
85.0,3.0432978281920042,62,68,Piano
89.25,2.870028700287003,64,92,Piano
89.25,2.870028700287003,66,92,Piano
93.0,2.733360666940003,62,82,Piano
93.0,2.733360666940003,64,82,Piano
97.0,1.4524830543643656,64,82,Piano
97.0,1.4524830543643656,42,82,Piano
99.33333333333333,0.5533268778530916,63,92,Piano
99.33333333333333,0.5533268778530916,57,92,Piano
99.33333333333333,0.5533268778530916,61,92,Piano
99.33333333333333,0.5533268778530916,66,92,Piano
100.25,0.41499515838981876,63,92,Piano
100.25,0.41499515838981876,57,92,Piano
100.25,0.41499515838981876,61,92,Piano
100.25,0.41499515838981876,65,92,Piano
101.0,1.2300123001230012,61,92,Piano
101.0,1.2300123001230012,64,92,Piano
103.33333333333333,1.093344266776001,47,77,Piano
103.33333333333333,1.093344266776001,63,77,Piano
103.33333333333333,1.093344266776001,61,77,Piano
103.33333333333333,1.093344266776001,66,77,Piano
108.75,2.733360666940003,60,62,Piano
108.75,2.733360666940003,64,62,Piano
112.33333333333333,0.2766634389265458,26,118,Piano
112.33333333333333,0.2766634389265458,38,118,Piano
113.25,0.8200082000820008,55,85,Piano
113.25,0.8200082000820008,57,85,Piano
113.25,0.8200082000820008,62,85,Piano
113.25,0.8200082000820008,59,85,Piano
114.33333333333333,0.5466721333880005,57,89,Piano
114.33333333333333,0.5466721333880005,62,89,Piano
114.33333333333333,0.5466721333880005,59,89,Piano
114.33333333333333,0.5466721333880005,55,89,Piano
115.33333333333333,0.5466721333880005,57,86,Piano
115.33333333333333,0.5466721333880005,62,86,Piano
115.33333333333333,0.5466721333880005,59,86,Piano
115.33333333333333,0.5466721333880005,55,86,Piano
116.25,0.27333606669400023,62,93,Piano
116.25,0.27333606669400023,55,93,Piano
116.25,0.27333606669400023,57,93,Piano
116.25,0.27333606669400023,59,93,Piano
117.0,0.8200082000820008,60,98,Piano
117.0,0.8200082000820008,57,98,Piano
117.0,0.8200082000820008,53,98,Piano
118.33333333333333,0.6150061500615006,60,96,Piano
118.33333333333333,0.6150061500615006,57,96,Piano
118.33333333333333,0.6150061500615006,53,96,Piano
119.33333333333333,0.27333606669400023,60,104,Piano
119.33333333333333,0.27333606669400023,57,104,Piano
119.33333333333333,0.27333606669400023,53,104,Piano
120.25,0.27333606669400023,67,110,Piano
120.25,0.27333606669400023,60,110,Piano
120.25,0.27333606669400023,57,110,Piano
120.25,0.27333606669400023,31,110,Piano
121.0,0.8200082000820008,65,107,Piano
121.0,0.8200082000820008,55,107,Piano
121.0,0.8200082000820008,60,107,Piano
122.33333333333333,0.4100041000410004,64,109,Piano
122.33333333333333,0.4100041000410004,55,109,Piano
122.33333333333333,0.4100041000410004,60,109,Piano
123.33333333333333,0.6150061500615006,62,106,Piano
123.33333333333333,0.6150061500615006,57,106,Piano
123.33333333333333,0.6150061500615006,66,106,Piano
124.25,0.4100041000410004,62,117,Piano
124.25,0.4100041000410004,57,117,Piano
124.25,0.4100041000410004,66,117,Piano
125.0,0.8200082000820008,57,99,Piano
125.0,0.8200082000820008,66,99,Piano
125.0,0.8200082000820008,62,99,Piano
125.0,0.8200082000820008,61,99,Piano
126.33333333333333,0.4100041000410004,61,102,Piano
126.33333333333333,0.4100041000410004,57,102,Piano
126.33333333333333,0.4100041000410004,66,102,Piano
126.33333333333333,0.4100041000410004,62,102,Piano
127.33333333333333,0.5466721333880005,59,101,Piano
127.33333333333333,0.5466721333880005,62,101,Piano
127.33333333333333,0.5466721333880005,64,101,Piano
128.33333333333334,0.27333606669400023,59,107,Piano
128.33333333333334,0.27333606669400023,62,107,Piano
128.33333333333334,0.27333606669400023,64,107,Piano
129.25,0.8200082000820008,60,89,Piano
129.25,0.8200082000820008,64,89,Piano
129.25,0.8200082000820008,59,89,Piano
129.25,0.8200082000820008,55,89,Piano
130.33333333333334,0.5466721333880005,64,88,Piano
130.33333333333334,0.5466721333880005,60,88,Piano
130.33333333333334,0.5466721333880005,55,88,Piano
130.33333333333334,0.5466721333880005,59,88,Piano
131.33333333333334,0.5466721333880005,64,99,Piano
131.33333333333334,0.5466721333880005,59,99,Piano
131.33333333333334,0.5466721333880005,60,99,Piano
132.33333333333334,0.2050020500205002,55,120,Piano
132.33333333333334,0.2050020500205002,64,120,Piano
132.66666666666666,0.2050020500205002,66,120,Piano
132.66666666666666,0.2050020500205002,57,120,Piano
133.0,0.8200082000820008,57,90,Piano
133.0,0.8200082000820008,67,90,Piano
133.0,0.8200082000820008,60,90,Piano
133.0,0.8200082000820008,62,90,Piano
134.33333333333334,0.5466721333880005,60,91,Piano
134.33333333333334,0.5466721333880005,57,91,Piano
134.33333333333334,0.5466721333880005,62,91,Piano
134.33333333333334,0.5466721333880005,67,91,Piano
135.33333333333334,0.4100041000410004,57,95,Piano
135.33333333333334,0.4100041000410004,67,95,Piano
135.33333333333334,0.4100041000410004,62,95,Piano
135.33333333333334,0.4100041000410004,60,95,Piano
136.25,0.27333606669400023,65,109,Piano
136.25,0.27333606669400023,60,109,Piano
136.25,0.27333606669400023,57,109,Piano
137.0,1.2300123001230012,64,102,Piano
137.0,1.2300123001230012,60,102,Piano
137.0,1.2300123001230012,57,102,Piano
137.0,1.093344266776001,38,105,Piano
137.0,1.093344266776001,57,105,Piano
139.0,0.6224927375847281,64,105,Piano
139.0,0.6224927375847281,59,105,Piano
139.0,0.6224927375847281,53,105,Piano
140.0,0.27333606669400023,53,104,Piano
140.0,0.27333606669400023,59,104,Piano
140.0,0.27333606669400023,64,104,Piano
140.5,0.2050020500205002,53,105,Piano
140.5,0.2050020500205002,63,105,Piano
140.5,0.2050020500205002,59,105,Piano
141.0,0.8200082000820008,55,106,Piano
141.0,0.8200082000820008,60,106,Piano
141.0,0.8200082000820008,62,106,Piano
143.33333333333334,0.5466721333880005,64,92,Piano
143.33333333333334,0.5466721333880005,55,92,Piano
143.33333333333334,0.5466721333880005,59,92,Piano
143.33333333333334,0.5466721333880005,60,92,Piano
144.33333333333334,0.2766634389265458,60,101,Piano
144.33333333333334,0.2766634389265458,64,101,Piano
144.33333333333334,0.2766634389265458,55,101,Piano
144.33333333333334,0.2766634389265458,59,101,Piano
145.0,0.5466721333880005,55,102,Piano
145.0,0.5466721333880005,60,102,Piano
145.0,0.5466721333880005,64,102,Piano
146.5,0.4100041000410004,66,117,Piano
146.5,0.4100041000410004,62,117,Piano
147.5,0.41499515838981876,64,110,Piano
147.5,0.41499515838981876,67,110,Piano
147.5,0.41499515838981876,60,110,Piano
148.33333333333334,0.27333606669400023,60,106,Piano
148.33333333333334,0.27333606669400023,69,106,Piano
148.33333333333334,0.27333606669400023,66,106,Piano
148.33333333333334,0.27333606669400023,64,106,Piano
149.25,0.8200082000820008,62,104,Piano
149.25,0.8200082000820008,71,104,Piano
149.25,0.8200082000820008,67,104,Piano
151.33333333333334,0.5466721333880005,60,90,Piano
151.33333333333334,0.5466721333880005,65,90,Piano
151.33333333333334,0.5466721333880005,69,90,Piano
153.0,0.8200082000820008,59,92,Piano
153.0,0.8200082000820008,62,92,Piano
155.33333333333334,1.025010250102501,60,86,Piano
155.33333333333334,1.025010250102501,57,86,Piano
155.33333333333334,1.025010250102501,65,86,Piano
157.0,1.3666803334700015,64,66,Piano
157.0,1.3666803334700015,60,66,Piano
159.33333333333334,0.8200082000820008,62,64,Piano
159.33333333333334,0.8200082000820008,66,64,Piano
161.0,1.4524830543643656,35,69,Piano
161.0,1.4524830543643656,67,69,Piano
161.0,1.4524830543643656,62,69,Piano
163.33333333333334,1.1066537557061833,34,68,Piano
163.33333333333334,1.1066537557061833,46,68,Piano
165.0,2.050020500205002,62,82,Piano
165.0,2.050020500205002,66,82,Piano
168.75,1.8450184501845017,55,64,Piano
168.75,1.8450184501845017,58,64,Piano
169.0,1.8450184501845017,62,82,Piano
169.0,1.8450184501845017,64,82,Piano
173.0,0.8200082000820008,57,68,Piano
173.0,0.8200082000820008,62,68,Piano
173.0,0.8200082000820008,66,68,Piano
173.0,0.8200082000820008,64,68,Piano
174.33333333333334,0.5533268778530916,57,77,Piano
174.33333333333334,0.5533268778530916,62,77,Piano
174.33333333333334,0.5533268778530916,66,77,Piano
174.33333333333334,0.5533268778530916,64,77,Piano
175.33333333333334,0.41499515838981876,57,77,Piano
175.33333333333334,0.41499515838981876,62,77,Piano
175.33333333333334,0.41499515838981876,66,77,Piano
175.33333333333334,0.41499515838981876,64,77,Piano
176.33333333333334,0.2766634389265458,57,80,Piano
176.33333333333334,0.2766634389265458,62,80,Piano
176.33333333333334,0.2766634389265458,66,80,Piano
176.33333333333334,0.2766634389265458,64,80,Piano
177.0,0.8299903167796375,64,76,Piano
177.0,0.8299903167796375,67,76,Piano
177.0,0.8299903167796375,62,76,Piano
177.0,0.8299903167796375,59,76,Piano
178.33333333333334,0.4100041000410004,62,80,Piano
178.33333333333334,0.4100041000410004,59,80,Piano
178.33333333333334,0.4100041000410004,64,80,Piano
178.33333333333334,0.4100041000410004,67,80,Piano
179.5,0.4100041000410004,64,73,Piano
179.5,0.4100041000410004,62,73,Piano
179.5,0.4100041000410004,67,73,Piano
179.5,0.4100041000410004,59,73,Piano
180.33333333333334,0.27333606669400023,62,77,Piano
180.33333333333334,0.27333606669400023,67,77,Piano
180.33333333333334,0.27333606669400023,59,77,Piano
180.33333333333334,0.27333606669400023,64,77,Piano
181.0,0.8200082000820008,64,84,Piano
181.0,0.8200082000820008,69,84,Piano
181.0,0.8200082000820008,61,84,Piano
181.0,0.8200082000820008,66,84,Piano
182.5,0.4100041000410004,61,82,Piano
182.5,0.4100041000410004,64,82,Piano
182.5,0.4100041000410004,69,82,Piano
182.5,0.4100041000410004,66,82,Piano
183.5,0.4100041000410004,61,71,Piano
183.5,0.4100041000410004,64,71,Piano
183.5,0.4100041000410004,66,71,Piano
183.5,0.4100041000410004,69,71,Piano
184.33333333333334,0.27333606669400023,61,75,Piano
184.33333333333334,0.27333606669400023,64,75,Piano
184.33333333333334,0.27333606669400023,66,75,Piano
184.33333333333334,0.27333606669400023,69,75,Piano
185.0,0.8200082000820008,67,76,Piano
185.0,0.8200082000820008,59,76,Piano
185.0,0.8200082000820008,62,76,Piano
185.0,0.8200082000820008,64,76,Piano
186.33333333333334,0.4100041000410004,62,65,Piano
186.33333333333334,0.4100041000410004,64,65,Piano
186.33333333333334,0.4100041000410004,67,65,Piano
186.33333333333334,0.4100041000410004,59,65,Piano
187.33333333333334,0.5466721333880005,59,66,Piano
187.33333333333334,0.5466721333880005,67,66,Piano
187.33333333333334,0.5466721333880005,62,66,Piano
187.33333333333334,0.5466721333880005,64,66,Piano
188.25,0.20749757919490938,67,70,Piano
188.25,0.20749757919490938,62,70,Piano
189.0,0.6150061500615006,62,70,Piano
189.0,0.6150061500615006,64,70,Piano
189.0,0.6150061500615006,57,70,Piano
189.0,0.6150061500615006,66,70,Piano
190.33333333333334,0.4100041000410004,64,74,Piano
190.33333333333334,0.4100041000410004,57,74,Piano
190.33333333333334,0.4100041000410004,66,74,Piano
190.33333333333334,0.4100041000410004,62,74,Piano
191.33333333333334,0.5466721333880005,62,69,Piano
191.33333333333334,0.5466721333880005,64,69,Piano
191.33333333333334,0.5466721333880005,57,69,Piano
191.33333333333334,0.5466721333880005,66,69,Piano
192.33333333333334,0.27333606669400023,62,82,Piano
192.33333333333334,0.27333606669400023,57,82,Piano
192.33333333333334,0.27333606669400023,66,82,Piano
192.33333333333334,0.27333606669400023,64,82,Piano
193.0,0.8200082000820008,62,79,Piano
193.0,0.8200082000820008,64,79,Piano
193.0,0.8200082000820008,67,79,Piano
193.0,0.8200082000820008,59,79,Piano
194.5,0.5533268778530916,67,79,Piano
194.5,0.5533268778530916,62,79,Piano
194.5,0.5533268778530916,59,79,Piano
194.5,0.5533268778530916,64,79,Piano
195.5,0.41499515838981876,59,80,Piano
195.5,0.41499515838981876,64,80,Piano
195.5,0.41499515838981876,67,80,Piano
195.5,0.41499515838981876,62,80,Piano
196.33333333333334,0.2766634389265458,67,89,Piano
196.33333333333334,0.2766634389265458,59,89,Piano
196.33333333333334,0.2766634389265458,62,89,Piano
196.33333333333334,0.2766634389265458,64,89,Piano
196.66666666666666,0.20749757919490938,40,112,Piano
196.66666666666666,0.20749757919490938,28,112,Piano
197.25,0.8200082000820008,57,97,Piano
197.25,0.8200082000820008,61,97,Piano
197.25,0.8200082000820008,68,97,Piano
197.25,0.8200082000820008,64,97,Piano
198.33333333333334,0.4100041000410004,57,106,Piano
198.33333333333334,0.4100041000410004,61,106,Piano
198.33333333333334,0.4100041000410004,68,106,Piano
199.33333333333334,0.4100041000410004,63,100,Piano
199.33333333333334,0.4100041000410004,57,100,Piano
199.33333333333334,0.4100041000410004,68,100,Piano
199.33333333333334,0.4100041000410004,61,100,Piano
200.33333333333334,0.4100041000410004,67,96,Piano
200.33333333333334,0.4100041000410004,63,96,Piano
200.33333333333334,0.4100041000410004,61,96,Piano
200.33333333333334,0.4100041000410004,57,96,Piano
201.33333333333334,0.6150061500615006,64,85,Piano
201.33333333333334,0.6150061500615006,61,85,Piano
201.33333333333334,0.6150061500615006,57,85,Piano
201.33333333333334,0.6150061500615006,66,85,Piano
202.5,0.4100041000410004,61,82,Piano
202.5,0.4100041000410004,66,82,Piano
202.5,0.4100041000410004,64,76,Piano
202.5,0.4100041000410004,57,76,Piano
203.33333333333334,0.4100041000410004,63,91,Piano
203.33333333333334,0.4100041000410004,57,91,Piano
203.33333333333334,0.4100041000410004,61,91,Piano
203.33333333333334,0.4100041000410004,66,89,Piano
203.33333333333334,0.4100041000410004,57,89,Piano
204.33333333333334,0.27333606669400023,65,89,Piano
204.33333333333334,0.27333606669400023,57,89,Piano
204.33333333333334,0.27333606669400023,61,89,Piano
205.33333333333334,0.5466721333880005,60,60,Piano
205.33333333333334,0.5466721333880005,66,60,Piano
205.33333333333334,0.5466721333880005,71,60,Piano
205.33333333333334,0.5466721333880005,64,60,Piano
206.33333333333334,0.4100041000410004,66,74,Piano
206.33333333333334,0.4100041000410004,71,74,Piano
206.33333333333334,0.4100041000410004,60,74,Piano
206.33333333333334,0.4100041000410004,64,74,Piano
207.33333333333334,0.4100041000410004,66,56,Piano
207.33333333333334,0.4100041000410004,71,56,Piano
207.33333333333334,0.4100041000410004,64,56,Piano
207.33333333333334,0.4100041000410004,60,56,Piano
208.33333333333334,0.4100041000410004,71,68,Piano
208.33333333333334,0.4100041000410004,66,68,Piano
208.33333333333334,0.4100041000410004,60,68,Piano
208.33333333333334,0.4100041000410004,64,68,Piano
209.25,0.5466721333880005,60,70,Piano
209.25,0.5466721333880005,64,70,Piano
210.33333333333334,0.5466721333880005,66,46,Piano
210.33333333333334,0.5466721333880005,64,46,Piano
210.33333333333334,0.5466721333880005,60,46,Piano
211.33333333333334,0.0,38,60,Piano
211.33333333333334,0.0,66,60,Piano
211.33333333333334,0.0,26,60,Piano
211.33333333333334,0.0,71,60,Piano
211.33333333333334,0.0,64,60,Piano
211.33333333333334,0.0,60,60,Piano
212.0,0.20749757919490938,66,80,Piano
212.0,0.20749757919490938,38,80,Piano
212.0,0.20749757919490938,71,80,Piano
212.0,0.20749757919490938,26,80,Piano
212.0,0.20749757919490938,64,80,Piano
212.0,0.20749757919490938,60,80,Piano
212.33333333333334,0.20749757919490938,26,100,Piano
212.33333333333334,0.20749757919490938,38,100,Piano
212.33333333333334,0.20749757919490938,66,100,Piano
212.33333333333334,0.20749757919490938,71,100,Piano
212.33333333333334,0.20749757919490938,60,100,Piano
212.33333333333334,0.20749757919490938,64,100,Piano
213.0,0.0,26,106,Piano
213.0,0.0,71,106,Piano
213.0,0.0,38,106,Piano
213.0,0.0,66,106,Piano
213.0,0.0,64,106,Piano
213.0,0.0,60,106,Piano
213.33333333333334,0.5466721333880005,57,104,Piano
213.33333333333334,0.5466721333880005,55,104,Piano
213.33333333333334,0.5466721333880005,62,104,Piano
213.33333333333334,0.5466721333880005,59,104,Piano
213.33333333333334,0.4100041000410004,50,92,Piano
213.33333333333334,0.4100041000410004,57,92,Piano
213.33333333333334,0.4100041000410004,59,92,Piano
213.33333333333334,0.4100041000410004,67,92,Piano
213.75,0.4100041000410004,67,82,Piano
213.75,0.4100041000410004,59,82,Piano
213.75,0.4100041000410004,57,82,Piano
213.75,0.4100041000410004,50,82,Piano
214.33333333333334,0.5466721333880005,62,102,Piano
214.33333333333334,0.5466721333880005,57,102,Piano
214.33333333333334,0.5466721333880005,55,102,Piano
214.33333333333334,0.5466721333880005,59,102,Piano
214.33333333333334,0.4100041000410004,50,102,Piano
214.33333333333334,0.4100041000410004,57,102,Piano
214.33333333333334,0.4100041000410004,59,102,Piano
214.33333333333334,0.4100041000410004,67,102,Piano
214.75,0.4100041000410004,67,82,Piano
214.75,0.4100041000410004,59,82,Piano
214.75,0.4100041000410004,57,82,Piano
214.75,0.4100041000410004,50,82,Piano
215.33333333333334,0.5466721333880005,62,109,Piano
215.33333333333334,0.5466721333880005,57,109,Piano
215.33333333333334,0.5466721333880005,59,109,Piano
215.33333333333334,0.4100041000410004,55,103,Piano
215.33333333333334,0.4100041000410004,59,103,Piano
215.33333333333334,0.4100041000410004,50,92,Piano
215.33333333333334,0.4100041000410004,57,92,Piano
215.33333333333334,0.4100041000410004,59,92,Piano
215.33333333333334,0.4100041000410004,67,92,Piano
215.75,0.4100041000410004,67,82,Piano
215.75,0.4100041000410004,59,82,Piano
215.75,0.4100041000410004,57,82,Piano
215.75,0.4100041000410004,50,82,Piano
216.33333333333334,0.4100041000410004,62,115,Piano
216.33333333333334,0.4100041000410004,57,115,Piano
216.33333333333334,0.4100041000410004,59,115,Piano
216.33333333333334,0.27333606669400023,55,114,Piano
216.33333333333334,0.27333606669400023,57,114,Piano
216.33333333333334,0.2050020500205002,50,92,Piano
216.33333333333334,0.2050020500205002,57,92,Piano
216.33333333333334,0.2050020500205002,59,92,Piano
216.33333333333334,0.2050020500205002,67,92,Piano
216.5,0.2050020500205002,67,88,Piano
216.5,0.2050020500205002,59,88,Piano
216.5,0.2050020500205002,57,88,Piano
216.5,0.2050020500205002,50,88,Piano
216.75,0.4100041000410004,50,82,Piano
216.75,0.4100041000410004,57,82,Piano
216.75,0.4100041000410004,59,82,Piano
216.75,0.4100041000410004,67,82,Piano
217.33333333333334,0.4100041000410004,65,110,Piano
217.33333333333334,0.4100041000410004,60,110,Piano
217.33333333333334,0.27333606669400023,57,109,Piano
217.33333333333334,0.27333606669400023,53,109,Piano
217.33333333333334,0.27333606669400023,60,109,Piano
217.33333333333334,0.4100041000410004,53,92,Piano
217.33333333333334,0.4100041000410004,57,92,Piano
217.33333333333334,0.4100041000410004,60,92,Piano
217.33333333333334,0.4100041000410004,65,92,Piano
217.75,0.4100041000410004,65,82,Piano
217.75,0.4100041000410004,60,82,Piano
217.75,0.4100041000410004,57,82,Piano
217.75,0.4100041000410004,53,82,Piano
218.33333333333334,0.6150061500615006,65,106,Piano
218.33333333333334,0.6150061500615006,60,106,Piano
218.33333333333334,0.4100041000410004,53,102,Piano
218.33333333333334,0.4100041000410004,57,102,Piano
218.33333333333334,0.4100041000410004,60,102,Piano
218.33333333333334,0.4100041000410004,65,102,Piano
218.75,0.4100041000410004,65,82,Piano
218.75,0.4100041000410004,60,82,Piano
218.75,0.4100041000410004,57,82,Piano
218.75,0.4100041000410004,53,82,Piano
219.33333333333334,0.4100041000410004,60,120,Piano
219.33333333333334,0.4100041000410004,65,120,Piano
219.33333333333334,0.4100041000410004,57,118,Piano
219.33333333333334,0.4100041000410004,65,118,Piano
219.33333333333334,0.4100041000410004,53,92,Piano
219.33333333333334,0.4100041000410004,57,92,Piano
219.33333333333334,0.4100041000410004,60,92,Piano
219.33333333333334,0.4100041000410004,65,92,Piano
219.75,0.4100041000410004,65,82,Piano
219.75,0.4100041000410004,60,82,Piano
219.75,0.4100041000410004,57,82,Piano
219.75,0.4100041000410004,53,82,Piano
220.33333333333334,0.4100041000410004,67,120,Piano
220.33333333333334,0.4100041000410004,60,120,Piano
220.33333333333334,0.4100041000410004,57,120,Piano
220.33333333333334,0.4100041000410004,31,120,Piano
220.33333333333334,0.2050020500205002,53,92,Piano
220.33333333333334,0.2050020500205002,57,92,Piano
220.33333333333334,0.2050020500205002,60,92,Piano
220.33333333333334,0.2050020500205002,65,92,Piano
220.5,0.2050020500205002,65,88,Piano
220.5,0.2050020500205002,60,88,Piano
220.5,0.2050020500205002,57,88,Piano
220.5,0.2050020500205002,53,88,Piano
220.75,0.4100041000410004,53,82,Piano
220.75,0.4100041000410004,57,82,Piano
220.75,0.4100041000410004,60,82,Piano
220.75,0.4100041000410004,65,82,Piano
221.33333333333334,0.5466721333880005,65,117,Piano
221.33333333333334,0.5466721333880005,55,117,Piano
221.33333333333334,0.5466721333880005,60,117,Piano
221.33333333333334,0.4100041000410004,53,92,Piano
221.33333333333334,0.4100041000410004,55,92,Piano
221.33333333333334,0.4100041000410004,60,92,Piano
221.33333333333334,0.4100041000410004,67,92,Piano
221.75,0.4100041000410004,67,82,Piano
221.75,0.4100041000410004,60,82,Piano
221.75,0.4100041000410004,55,82,Piano
221.75,0.4100041000410004,53,82,Piano
222.33333333333334,0.4100041000410004,52,102,Piano
222.33333333333334,0.4100041000410004,55,102,Piano
222.33333333333334,0.4100041000410004,60,102,Piano
222.33333333333334,0.4100041000410004,67,102,Piano
222.75,0.4100041000410004,67,82,Piano
222.75,0.4100041000410004,60,82,Piano
222.75,0.4100041000410004,55,82,Piano
222.75,0.4100041000410004,52,82,Piano
223.33333333333334,0.4100041000410004,50,92,Piano
223.33333333333334,0.4100041000410004,57,92,Piano
223.33333333333334,0.4100041000410004,62,92,Piano
223.33333333333334,0.4100041000410004,66,92,Piano
223.75,0.4100041000410004,66,82,Piano
223.75,0.4100041000410004,62,82,Piano
223.75,0.4100041000410004,57,82,Piano
223.75,0.4100041000410004,50,82,Piano
224.33333333333334,0.27333606669400023,57,123,Piano
224.33333333333334,0.27333606669400023,62,123,Piano
224.33333333333334,0.27333606669400023,67,123,Piano
224.33333333333334,0.2050020500205002,50,92,Piano
224.33333333333334,0.2050020500205002,57,92,Piano
224.33333333333334,0.2050020500205002,62,92,Piano
224.33333333333334,0.2050020500205002,66,92,Piano
224.66666666666666,0.2050020500205002,66,88,Piano
224.66666666666666,0.2050020500205002,62,88,Piano
224.66666666666666,0.2050020500205002,57,88,Piano
224.66666666666666,0.2050020500205002,50,88,Piano
224.75,0.4100041000410004,50,82,Piano
224.75,0.4100041000410004,57,82,Piano
224.75,0.4100041000410004,62,82,Piano
224.75,0.4100041000410004,66,82,Piano
225.33333333333334,0.6150061500615006,66,116,Piano
225.33333333333334,0.6150061500615006,62,116,Piano
225.33333333333334,0.4100041000410004,50,92,Piano
225.33333333333334,0.4100041000410004,57,92,Piano
225.33333333333334,0.4100041000410004,59,92,Piano
225.33333333333334,0.4100041000410004,66,92,Piano
225.75,0.4100041000410004,66,82,Piano
225.75,0.4100041000410004,59,82,Piano
225.75,0.4100041000410004,57,82,Piano
225.75,0.4100041000410004,50,82,Piano
226.33333333333334,0.5466721333880005,62,118,Piano
226.33333333333334,0.5466721333880005,66,118,Piano
226.33333333333334,0.4100041000410004,57,120,Piano
226.33333333333334,0.4100041000410004,66,120,Piano
226.33333333333334,0.4100041000410004,50,102,Piano
226.33333333333334,0.4100041000410004,57,102,Piano
226.33333333333334,0.4100041000410004,59,102,Piano
226.33333333333334,0.4100041000410004,66,102,Piano
226.75,0.4100041000410004,66,82,Piano
226.75,0.4100041000410004,59,82,Piano
226.75,0.4100041000410004,57,82,Piano
226.75,0.4100041000410004,50,82,Piano
227.33333333333334,0.6150061500615006,59,112,Piano
227.33333333333334,0.6150061500615006,64,112,Piano
227.33333333333334,0.4100041000410004,50,92,Piano
227.33333333333334,0.4100041000410004,56,92,Piano
227.33333333333334,0.4100041000410004,59,92,Piano
227.33333333333334,0.4100041000410004,64,92,Piano
227.75,0.4100041000410004,64,82,Piano
227.75,0.4100041000410004,59,82,Piano
227.75,0.4100041000410004,56,82,Piano
227.75,0.4100041000410004,50,82,Piano
228.33333333333334,0.2766634389265458,59,119,Piano
228.33333333333334,0.2766634389265458,62,119,Piano
228.33333333333334,0.2766634389265458,64,119,Piano
228.33333333333334,0.20749757919490938,50,92,Piano
228.33333333333334,0.20749757919490938,56,92,Piano
228.33333333333334,0.20749757919490938,59,92,Piano
228.33333333333334,0.20749757919490938,64,92,Piano
228.66666666666666,0.20749757919490938,64,88,Piano
228.66666666666666,0.20749757919490938,59,88,Piano
228.66666666666666,0.20749757919490938,56,88,Piano
228.66666666666666,0.20749757919490938,50,88,Piano
228.75,0.41499515838981876,50,82,Piano
228.75,0.41499515838981876,56,82,Piano
228.75,0.41499515838981876,59,82,Piano
228.75,0.41499515838981876,64,82,Piano
229.33333333333334,0.5466721333880005,64,92,Piano
229.33333333333334,0.5466721333880005,55,92,Piano
229.33333333333334,0.5466721333880005,59,92,Piano
229.33333333333334,0.5466721333880005,60,92,Piano
229.33333333333334,0.4100041000410004,52,92,Piano
229.33333333333334,0.4100041000410004,57,92,Piano
229.33333333333334,0.4100041000410004,60,92,Piano
229.33333333333334,0.4100041000410004,64,92,Piano
229.75,0.4100041000410004,64,82,Piano
229.75,0.4100041000410004,60,82,Piano
229.75,0.4100041000410004,57,82,Piano
229.75,0.4100041000410004,52,82,Piano
230.33333333333334,0.41499515838981876,52,102,Piano
230.33333333333334,0.41499515838981876,57,102,Piano
230.33333333333334,0.41499515838981876,60,102,Piano
230.33333333333334,0.41499515838981876,64,102,Piano
230.5,0.5533268778530916,64,105,Piano
230.5,0.5533268778530916,60,105,Piano
230.5,0.5533268778530916,59,105,Piano
230.5,0.5533268778530916,55,105,Piano
230.75,0.41499515838981876,64,82,Piano
230.75,0.41499515838981876,60,82,Piano
230.75,0.41499515838981876,57,82,Piano
230.75,0.41499515838981876,52,82,Piano
231.33333333333334,0.41499515838981876,52,92,Piano
231.33333333333334,0.41499515838981876,57,92,Piano
231.33333333333334,0.41499515838981876,60,92,Piano
231.33333333333334,0.41499515838981876,64,92,Piano
231.5,0.6224927375847281,64,106,Piano
231.5,0.6224927375847281,55,106,Piano
231.5,0.6224927375847281,59,106,Piano
231.5,0.6224927375847281,60,106,Piano
231.75,0.41499515838981876,64,82,Piano
231.75,0.41499515838981876,60,82,Piano
231.75,0.41499515838981876,57,82,Piano
231.75,0.41499515838981876,52,82,Piano
232.33333333333334,0.20749757919490938,52,92,Piano
232.33333333333334,0.20749757919490938,57,92,Piano
232.33333333333334,0.20749757919490938,60,92,Piano
232.33333333333334,0.20749757919490938,64,92,Piano
232.5,0.2766634389265458,64,115,Piano
232.5,0.2766634389265458,59,115,Piano
232.5,0.2766634389265458,55,115,Piano
232.5,0.2766634389265458,60,115,Piano
232.66666666666666,0.20749757919490938,64,88,Piano
232.66666666666666,0.20749757919490938,60,88,Piano
232.66666666666666,0.20749757919490938,57,88,Piano
232.66666666666666,0.20749757919490938,52,88,Piano
232.75,0.41499515838981876,52,82,Piano
232.75,0.41499515838981876,57,82,Piano
232.75,0.41499515838981876,60,82,Piano
232.75,0.41499515838981876,64,82,Piano
233.0,0.2050020500205002,31,118,Piano
233.0,0.2050020500205002,43,118,Piano
233.33333333333334,0.6150061500615006,67,100,Piano
233.33333333333334,0.6150061500615006,62,100,Piano
233.33333333333334,0.6150061500615006,60,100,Piano
233.33333333333334,0.6150061500615006,57,100,Piano
233.33333333333334,0.4100041000410004,50,92,Piano
233.33333333333334,0.4100041000410004,57,92,Piano
233.33333333333334,0.4100041000410004,60,92,Piano
233.33333333333334,0.4100041000410004,67,92,Piano
233.75,0.4100041000410004,67,82,Piano
233.75,0.4100041000410004,60,82,Piano
233.75,0.4100041000410004,57,82,Piano
233.75,0.4100041000410004,50,82,Piano
234.33333333333334,0.5466721333880005,67,105,Piano
234.33333333333334,0.5466721333880005,60,105,Piano
234.33333333333334,0.5466721333880005,62,105,Piano
234.33333333333334,0.5466721333880005,57,105,Piano
234.33333333333334,0.4100041000410004,50,102,Piano
234.33333333333334,0.4100041000410004,57,102,Piano
234.33333333333334,0.4100041000410004,60,102,Piano
234.33333333333334,0.4100041000410004,67,102,Piano
234.75,0.4100041000410004,67,82,Piano
234.75,0.4100041000410004,60,82,Piano
234.75,0.4100041000410004,57,82,Piano
234.75,0.4100041000410004,50,82,Piano
235.33333333333334,0.4100041000410004,67,116,Piano
235.33333333333334,0.4100041000410004,62,116,Piano
235.33333333333334,0.4100041000410004,57,116,Piano
235.33333333333334,0.4100041000410004,60,116,Piano
235.33333333333334,0.4100041000410004,50,92,Piano
235.33333333333334,0.4100041000410004,57,92,Piano
235.33333333333334,0.4100041000410004,60,92,Piano
235.33333333333334,0.4100041000410004,67,92,Piano
235.75,0.4100041000410004,67,82,Piano
235.75,0.4100041000410004,60,82,Piano
235.75,0.4100041000410004,57,82,Piano
235.75,0.4100041000410004,50,82,Piano
236.33333333333334,0.27333606669400023,65,126,Piano
236.33333333333334,0.27333606669400023,60,126,Piano
236.33333333333334,0.27333606669400023,57,126,Piano
236.33333333333334,0.2050020500205002,50,92,Piano
236.33333333333334,0.2050020500205002,57,92,Piano
236.33333333333334,0.2050020500205002,60,92,Piano
236.33333333333334,0.2050020500205002,67,92,Piano
236.5,0.2050020500205002,67,88,Piano
236.5,0.2050020500205002,60,88,Piano
236.5,0.2050020500205002,57,88,Piano
236.5,0.2050020500205002,50,88,Piano
236.75,0.4100041000410004,50,82,Piano
236.75,0.4100041000410004,57,82,Piano
236.75,0.4100041000410004,60,82,Piano
236.75,0.4100041000410004,67,82,Piano
237.33333333333334,0.8200082000820008,64,107,Piano
237.33333333333334,0.8200082000820008,60,107,Piano
237.33333333333334,0.8200082000820008,57,109,Piano
237.33333333333334,0.8200082000820008,38,109,Piano
237.33333333333334,0.8200082000820008,60,109,Piano
237.33333333333334,0.8200082000820008,50,92,Piano
237.33333333333334,0.8200082000820008,57,92,Piano
237.33333333333334,0.8200082000820008,60,92,Piano
237.33333333333334,0.8200082000820008,65,92,Piano
238.33333333333334,0.2050020500205002,50,82,Piano
238.33333333333334,0.2050020500205002,57,82,Piano
238.33333333333334,0.2050020500205002,60,82,Piano
238.33333333333334,0.2050020500205002,65,82,Piano
238.75,0.8200082000820008,65,92,Piano
238.75,0.8200082000820008,60,92,Piano
238.75,0.8200082000820008,55,92,Piano
238.75,0.8200082000820008,50,92,Piano
239.0,0.27333606669400023,64,123,Piano
239.0,0.27333606669400023,59,123,Piano
239.0,0.27333606669400023,53,123,Piano
239.75,0.4100041000410004,65,82,Piano
239.75,0.4100041000410004,60,82,Piano
239.75,0.4100041000410004,55,82,Piano
239.75,0.4100041000410004,50,82,Piano
240.0,0.4100041000410004,64,116,Piano
240.0,0.4100041000410004,69,116,Piano
240.0,0.4100041000410004,59,116,Piano
240.33333333333334,0.2050020500205002,50,92,Piano
240.33333333333334,0.2050020500205002,55,92,Piano
240.33333333333334,0.2050020500205002,60,92,Piano
240.33333333333334,0.2050020500205002,65,92,Piano
240.66666666666666,0.27333606669400023,68,116,Piano
240.66666666666666,0.27333606669400023,63,116,Piano
240.66666666666666,0.27333606669400023,59,116,Piano
240.66666666666666,0.2050020500205002,65,88,Piano
240.66666666666666,0.2050020500205002,60,88,Piano
240.66666666666666,0.2050020500205002,55,88,Piano
240.66666666666666,0.2050020500205002,50,88,Piano
240.75,0.4100041000410004,50,82,Piano
240.75,0.4100041000410004,55,82,Piano
240.75,0.4100041000410004,60,82,Piano
240.75,0.4100041000410004,65,82,Piano
241.33333333333334,0.5466721333880005,60,112,Piano
241.33333333333334,0.5466721333880005,67,112,Piano
241.33333333333334,0.5466721333880005,62,112,Piano
241.33333333333334,0.4100041000410004,50,92,Piano
241.33333333333334,0.4100041000410004,55,92,Piano
241.33333333333334,0.4100041000410004,60,92,Piano
241.33333333333334,0.4100041000410004,67,92,Piano
241.75,0.4100041000410004,67,82,Piano
241.75,0.4100041000410004,60,82,Piano
241.75,0.4100041000410004,55,82,Piano
241.75,0.4100041000410004,50,82,Piano
242.33333333333334,0.4100041000410004,50,102,Piano
242.33333333333334,0.4100041000410004,55,102,Piano
242.33333333333334,0.4100041000410004,60,102,Piano
242.33333333333334,0.4100041000410004,67,102,Piano
242.5,0.5466721333880005,60,119,Piano
242.5,0.5466721333880005,67,119,Piano
242.5,0.5466721333880005,62,119,Piano
242.75,0.4100041000410004,67,82,Piano
242.75,0.4100041000410004,60,82,Piano
242.75,0.4100041000410004,55,82,Piano
242.75,0.4100041000410004,50,82,Piano
243.0,0.20749757919490938,45,112,Piano
243.0,0.20749757919490938,33,112,Piano
243.33333333333334,0.6224927375847281,60,108,Piano
243.33333333333334,0.6224927375847281,67,108,Piano
243.33333333333334,0.6224927375847281,64,108,Piano
243.33333333333334,0.6224927375847281,59,108,Piano
243.33333333333334,0.41499515838981876,50,92,Piano
243.33333333333334,0.41499515838981876,55,92,Piano
243.33333333333334,0.41499515838981876,60,92,Piano
243.33333333333334,0.41499515838981876,64,92,Piano
243.75,0.41499515838981876,64,82,Piano
243.75,0.41499515838981876,60,82,Piano
243.75,0.41499515838981876,55,82,Piano
243.75,0.41499515838981876,50,82,Piano
244.33333333333334,0.41499515838981876,67,115,Piano
244.33333333333334,0.41499515838981876,60,115,Piano
244.33333333333334,0.41499515838981876,64,115,Piano
244.33333333333334,0.20749757919490938,50,92,Piano
244.33333333333334,0.20749757919490938,55,92,Piano
244.33333333333334,0.20749757919490938,60,92,Piano
244.33333333333334,0.20749757919490938,64,92,Piano
244.5,0.20749757919490938,64,88,Piano
244.5,0.20749757919490938,60,88,Piano
244.5,0.20749757919490938,55,88,Piano
244.5,0.20749757919490938,50,88,Piano
244.75,0.41499515838981876,50,82,Piano
244.75,0.41499515838981876,55,82,Piano
244.75,0.41499515838981876,60,82,Piano
244.75,0.41499515838981876,64,82,Piano
245.33333333333334,0.4100041000410004,64,105,Piano
245.33333333333334,0.4100041000410004,60,105,Piano
245.33333333333334,0.4100041000410004,55,105,Piano
245.33333333333334,0.4100041000410004,52,92,Piano
245.33333333333334,0.4100041000410004,55,92,Piano
245.33333333333334,0.4100041000410004,60,92,Piano
245.33333333333334,0.4100041000410004,64,92,Piano
245.75,0.4100041000410004,64,82,Piano
245.75,0.4100041000410004,60,82,Piano
245.75,0.4100041000410004,55,82,Piano
245.75,0.4100041000410004,52,82,Piano
246.33333333333334,0.4100041000410004,62,124,Piano
246.33333333333334,0.4100041000410004,66,124,Piano
246.33333333333334,0.4100041000410004,50,102,Piano
246.33333333333334,0.4100041000410004,57,102,Piano
246.33333333333334,0.4100041000410004,62,102,Piano
246.33333333333334,0.4100041000410004,66,102,Piano
246.75,0.4100041000410004,66,82,Piano
246.75,0.4100041000410004,62,82,Piano
246.75,0.4100041000410004,57,82,Piano
246.75,0.4100041000410004,50,82,Piano
247.33333333333334,0.4100041000410004,67,127,Piano
247.33333333333334,0.4100041000410004,64,127,Piano
247.33333333333334,0.4100041000410004,60,127,Piano
247.33333333333334,0.4100041000410004,52,92,Piano
247.33333333333334,0.4100041000410004,55,92,Piano
247.33333333333334,0.4100041000410004,60,92,Piano
247.33333333333334,0.4100041000410004,64,92,Piano
247.75,0.4100041000410004,64,82,Piano
247.75,0.4100041000410004,60,82,Piano
247.75,0.4100041000410004,55,82,Piano
247.75,0.4100041000410004,52,82,Piano
248.33333333333334,0.4100041000410004,66,122,Piano
248.33333333333334,0.4100041000410004,69,122,Piano
248.33333333333334,0.4100041000410004,62,122,Piano
248.33333333333334,0.4100041000410004,50,102,Piano
248.33333333333334,0.4100041000410004,57,102,Piano
248.33333333333334,0.4100041000410004,62,102,Piano
248.33333333333334,0.4100041000410004,66,102,Piano
248.75,0.4100041000410004,66,82,Piano
248.75,0.4100041000410004,62,82,Piano
248.75,0.4100041000410004,57,82,Piano
248.75,0.4100041000410004,50,82,Piano
249.33333333333334,0.5466721333880005,71,117,Piano
249.33333333333334,0.5466721333880005,67,117,Piano
249.33333333333334,0.5466721333880005,62,117,Piano
249.33333333333334,0.4100041000410004,50,92,Piano
249.33333333333334,0.4100041000410004,55,92,Piano
249.33333333333334,0.4100041000410004,59,92,Piano
249.33333333333334,0.4100041000410004,67,92,Piano
249.75,0.4100041000410004,67,82,Piano
249.75,0.4100041000410004,59,82,Piano
249.75,0.4100041000410004,55,82,Piano
249.75,0.4100041000410004,50,82,Piano
250.33333333333334,0.4100041000410004,50,102,Piano
250.33333333333334,0.4100041000410004,55,102,Piano
250.33333333333334,0.4100041000410004,59,102,Piano
250.33333333333334,0.4100041000410004,67,102,Piano
250.75,0.4100041000410004,67,82,Piano
250.75,0.4100041000410004,59,82,Piano
250.75,0.4100041000410004,55,82,Piano
250.75,0.4100041000410004,50,82,Piano
251.33333333333334,0.6150061500615006,65,110,Piano
251.33333333333334,0.6150061500615006,60,110,Piano
251.33333333333334,0.4100041000410004,53,92,Piano
251.33333333333334,0.4100041000410004,57,92,Piano
251.33333333333334,0.4100041000410004,60,92,Piano
251.33333333333334,0.4100041000410004,65,92,Piano
251.75,0.4100041000410004,65,82,Piano
251.75,0.4100041000410004,60,82,Piano
251.75,0.4100041000410004,57,82,Piano
251.75,0.4100041000410004,53,82,Piano
252.33333333333334,0.20749757919490938,53,92,Piano
252.33333333333334,0.20749757919490938,57,92,Piano
252.33333333333334,0.20749757919490938,60,92,Piano
252.33333333333334,0.20749757919490938,65,92,Piano
252.66666666666666,0.20749757919490938,65,88,Piano
252.66666666666666,0.20749757919490938,60,88,Piano
252.66666666666666,0.20749757919490938,57,88,Piano
252.66666666666666,0.20749757919490938,53,88,Piano
252.75,0.41499515838981876,53,82,Piano
252.75,0.41499515838981876,57,82,Piano
252.75,0.41499515838981876,60,82,Piano
252.75,0.41499515838981876,65,82,Piano
253.33333333333334,0.5466721333880005,59,113,Piano
253.33333333333334,0.5466721333880005,62,113,Piano
253.33333333333334,0.5466721333880005,67,113,Piano
253.33333333333334,0.4100041000410004,50,92,Piano
253.33333333333334,0.4100041000410004,55,92,Piano
253.33333333333334,0.4100041000410004,59,92,Piano
253.33333333333334,0.4100041000410004,67,92,Piano
253.75,0.4100041000410004,67,82,Piano
253.75,0.4100041000410004,59,82,Piano
253.75,0.4100041000410004,55,82,Piano
253.75,0.4100041000410004,50,82,Piano
254.33333333333334,0.4100041000410004,50,102,Piano
254.33333333333334,0.4100041000410004,55,102,Piano
254.33333333333334,0.4100041000410004,59,102,Piano
254.33333333333334,0.4100041000410004,67,102,Piano
254.75,0.4100041000410004,67,82,Piano
254.75,0.4100041000410004,59,82,Piano
254.75,0.4100041000410004,55,82,Piano
254.75,0.4100041000410004,50,82,Piano
255.33333333333334,0.4100041000410004,53,92,Piano
255.33333333333334,0.4100041000410004,57,92,Piano
255.33333333333334,0.4100041000410004,60,92,Piano
255.33333333333334,0.4100041000410004,65,92,Piano
255.5,0.4100041000410004,60,112,Piano
255.5,0.4100041000410004,65,112,Piano
255.5,0.4100041000410004,57,112,Piano
255.75,0.4100041000410004,65,82,Piano
255.75,0.4100041000410004,60,82,Piano
255.75,0.4100041000410004,57,82,Piano
255.75,0.4100041000410004,53,82,Piano
256.25,0.0,60,66,Piano
256.25,0.0,57,66,Piano
256.3333333333333,0.2050020500205002,53,92,Piano
256.3333333333333,0.2050020500205002,57,92,Piano
256.3333333333333,0.2050020500205002,60,92,Piano
256.3333333333333,0.2050020500205002,65,92,Piano
256.5,0.0,60,110,Piano
256.5,0.0,57,110,Piano
256.5,0.2050020500205002,80,91,Piano
256.5,0.2050020500205002,53,91,Piano
256.6666666666667,0.2050020500205002,65,88,Piano
256.6666666666667,0.2050020500205002,60,88,Piano
256.6666666666667,0.2050020500205002,57,88,Piano
256.6666666666667,0.2050020500205002,53,88,Piano
256.75,0.4100041000410004,53,82,Piano
256.75,0.4100041000410004,57,82,Piano
256.75,0.4100041000410004,60,82,Piano
256.75,0.4100041000410004,65,82,Piano
257.3333333333333,0.4100041000410004,52,92,Piano
257.3333333333333,0.4100041000410004,55,92,Piano
257.3333333333333,0.4100041000410004,60,92,Piano
257.3333333333333,0.4100041000410004,64,92,Piano
257.3333333333333,0.2050020500205002,70,98,Piano
257.3333333333333,0.2050020500205002,80,98,Piano
257.5,0.6150061500615006,60,104,Piano
257.5,0.6150061500615006,55,104,Piano
257.5,0.6150061500615006,64,104,Piano
257.6666666666667,0.2050020500205002,70,54,Piano
257.6666666666667,0.2050020500205002,80,54,Piano
257.75,0.4100041000410004,64,82,Piano
257.75,0.4100041000410004,60,82,Piano
257.75,0.4100041000410004,55,82,Piano
257.75,0.4100041000410004,52,82,Piano
257.75,0.2050020500205002,70,76,Piano
257.75,0.2050020500205002,81,76,Piano
258.3333333333333,0.4100041000410004,52,102,Piano
258.3333333333333,0.4100041000410004,55,102,Piano
258.3333333333333,0.4100041000410004,60,102,Piano
258.3333333333333,0.4100041000410004,64,102,Piano
258.3333333333333,0.2050020500205002,70,100,Piano
258.3333333333333,0.2050020500205002,80,100,Piano
258.6666666666667,0.2050020500205002,70,58,Piano
258.6666666666667,0.2050020500205002,80,58,Piano
258.75,0.4100041000410004,64,82,Piano
258.75,0.4100041000410004,60,82,Piano
258.75,0.4100041000410004,55,82,Piano
258.75,0.4100041000410004,52,82,Piano
258.75,0.2050020500205002,70,77,Piano
258.75,0.2050020500205002,81,77,Piano
259.3333333333333,0.4100041000410004,50,92,Piano
259.3333333333333,0.4100041000410004,57,92,Piano
259.3333333333333,0.4100041000410004,62,92,Piano
259.3333333333333,0.4100041000410004,66,92,Piano
259.3333333333333,0.2050020500205002,70,97,Piano
259.3333333333333,0.2050020500205002,80,97,Piano
259.6666666666667,0.2050020500205002,70,56,Piano
259.6666666666667,0.2050020500205002,80,56,Piano
259.75,0.4100041000410004,66,82,Piano
259.75,0.4100041000410004,62,82,Piano
259.75,0.4100041000410004,57,82,Piano
259.75,0.4100041000410004,50,82,Piano
259.75,0.2050020500205002,70,74,Piano
259.75,0.2050020500205002,81,74,Piano
260.3333333333333,0.20749757919490938,50,92,Piano
260.3333333333333,0.20749757919490938,57,92,Piano
260.3333333333333,0.20749757919490938,62,92,Piano
260.3333333333333,0.20749757919490938,66,92,Piano
260.3333333333333,0.20749757919490938,70,96,Piano
260.3333333333333,0.20749757919490938,80,96,Piano
260.6666666666667,0.20749757919490938,66,88,Piano
260.6666666666667,0.20749757919490938,62,88,Piano
260.6666666666667,0.20749757919490938,57,88,Piano
260.6666666666667,0.20749757919490938,50,88,Piano
260.6666666666667,0.20749757919490938,70,60,Piano
260.6666666666667,0.20749757919490938,80,60,Piano
260.75,0.41499515838981876,50,82,Piano
260.75,0.41499515838981876,57,82,Piano
260.75,0.41499515838981876,62,82,Piano
260.75,0.41499515838981876,66,82,Piano
260.75,0.20749757919490938,70,80,Piano
260.75,0.20749757919490938,81,80,Piano
261.3333333333333,0.4100041000410004,61,108,Piano
261.3333333333333,0.4100041000410004,62,108,Piano
261.3333333333333,0.4100041000410004,50,92,Piano
261.3333333333333,0.4100041000410004,57,92,Piano
261.3333333333333,0.4100041000410004,59,92,Piano
261.3333333333333,0.4100041000410004,66,92,Piano
261.3333333333333,0.2050020500205002,70,98,Piano
261.3333333333333,0.2050020500205002,80,98,Piano
261.6666666666667,0.2050020500205002,70,54,Piano
261.6666666666667,0.2050020500205002,80,54,Piano
261.75,0.4100041000410004,66,82,Piano
261.75,0.4100041000410004,59,82,Piano
261.75,0.4100041000410004,57,82,Piano
261.75,0.4100041000410004,50,82,Piano
261.75,0.2050020500205002,70,76,Piano
261.75,0.2050020500205002,81,76,Piano
262.3333333333333,0.41499515838981876,50,102,Piano
262.3333333333333,0.41499515838981876,57,102,Piano
262.3333333333333,0.41499515838981876,59,102,Piano
262.3333333333333,0.41499515838981876,66,102,Piano
262.3333333333333,0.20749757919490938,70,100,Piano
262.3333333333333,0.20749757919490938,80,100,Piano
262.6666666666667,0.20749757919490938,70,58,Piano
262.6666666666667,0.20749757919490938,80,58,Piano
262.75,0.41499515838981876,66,82,Piano
262.75,0.41499515838981876,59,82,Piano
262.75,0.41499515838981876,57,82,Piano
262.75,0.41499515838981876,50,82,Piano
262.75,0.20749757919490938,70,77,Piano
262.75,0.20749757919490938,81,77,Piano
263.3333333333333,0.41499515838981876,62,103,Piano
263.3333333333333,0.41499515838981876,59,103,Piano
263.3333333333333,0.41499515838981876,50,92,Piano
263.3333333333333,0.41499515838981876,55,92,Piano
263.3333333333333,0.41499515838981876,59,92,Piano
263.3333333333333,0.41499515838981876,64,92,Piano
263.75,0.41499515838981876,64,82,Piano
263.75,0.41499515838981876,59,82,Piano
263.75,0.41499515838981876,55,82,Piano
263.75,0.41499515838981876,50,82,Piano
264.25,0.2766634389265458,62,112,Piano
264.25,0.2766634389265458,57,112,Piano
264.3333333333333,0.20749757919490938,50,92,Piano
264.3333333333333,0.20749757919490938,55,92,Piano
264.3333333333333,0.20749757919490938,59,92,Piano
264.3333333333333,0.20749757919490938,64,92,Piano
264.3333333333333,0.20749757919490938,70,96,Piano
264.3333333333333,0.20749757919490938,80,96,Piano
264.6666666666667,0.41499515838981876,62,103,Piano
264.6666666666667,0.41499515838981876,59,103,Piano
264.6666666666667,0.20749757919490938,64,88,Piano
264.6666666666667,0.20749757919490938,59,88,Piano
264.6666666666667,0.20749757919490938,55,88,Piano
264.6666666666667,0.20749757919490938,50,88,Piano
264.6666666666667,0.20749757919490938,70,60,Piano
264.6666666666667,0.20749757919490938,80,60,Piano
264.75,0.41499515838981876,50,82,Piano
264.75,0.41499515838981876,55,82,Piano
264.75,0.41499515838981876,59,82,Piano
264.75,0.41499515838981876,64,82,Piano
264.75,0.20749757919490938,70,80,Piano
264.75,0.20749757919490938,81,80,Piano
265.3333333333333,0.4100041000410004,52,92,Piano
265.3333333333333,0.4100041000410004,57,92,Piano
265.3333333333333,0.4100041000410004,60,92,Piano
265.3333333333333,0.4100041000410004,64,92,Piano
265.3333333333333,0.2050020500205002,70,98,Piano
265.3333333333333,0.2050020500205002,80,98,Piano
265.5,0.4100041000410004,64,108,Piano
265.5,0.4100041000410004,60,108,Piano
265.6666666666667,0.2050020500205002,70,54,Piano
265.6666666666667,0.2050020500205002,80,54,Piano
265.75,0.4100041000410004,64,82,Piano
265.75,0.4100041000410004,60,82,Piano
265.75,0.4100041000410004,57,82,Piano
265.75,0.4100041000410004,52,82,Piano
265.75,0.2050020500205002,70,76,Piano
265.75,0.2050020500205002,81,76,Piano
266.3333333333333,0.4100041000410004,52,102,Piano
266.3333333333333,0.4100041000410004,57,102,Piano
266.3333333333333,0.4100041000410004,60,102,Piano
266.3333333333333,0.4100041000410004,64,102,Piano
266.3333333333333,0.2050020500205002,70,100,Piano
266.3333333333333,0.2050020500205002,80,100,Piano
266.6666666666667,0.2050020500205002,70,58,Piano
266.6666666666667,0.2050020500205002,80,58,Piano
266.75,0.4100041000410004,64,82,Piano
266.75,0.4100041000410004,60,82,Piano
266.75,0.4100041000410004,57,82,Piano
266.75,0.4100041000410004,52,82,Piano
266.75,0.2050020500205002,70,77,Piano
266.75,0.2050020500205002,81,77,Piano
267.3333333333333,0.4100041000410004,50,92,Piano
267.3333333333333,0.4100041000410004,55,92,Piano
267.3333333333333,0.4100041000410004,60,92,Piano
267.3333333333333,0.4100041000410004,64,92,Piano
267.3333333333333,0.2050020500205002,70,97,Piano
267.3333333333333,0.2050020500205002,80,97,Piano
267.5,0.27333606669400023,60,110,Piano
267.5,0.27333606669400023,64,110,Piano
267.5,0.27333606669400023,67,110,Piano
267.6666666666667,0.2050020500205002,70,56,Piano
267.6666666666667,0.2050020500205002,80,56,Piano
267.75,0.4100041000410004,64,82,Piano
267.75,0.4100041000410004,60,82,Piano
267.75,0.4100041000410004,55,82,Piano
267.75,0.4100041000410004,50,82,Piano
267.75,0.2050020500205002,70,74,Piano
267.75,0.2050020500205002,81,74,Piano
268.0,0.0,64,58,Piano
268.0,0.0,60,58,Piano
268.0,0.0,55,58,Piano
268.25,0.27333606669400023,60,113,Piano
268.25,0.27333606669400023,55,113,Piano
268.25,0.27333606669400023,64,113,Piano
268.3333333333333,0.2050020500205002,50,92,Piano
268.3333333333333,0.2050020500205002,55,92,Piano
268.3333333333333,0.2050020500205002,60,92,Piano
268.3333333333333,0.2050020500205002,64,92,Piano
268.3333333333333,0.2050020500205002,70,96,Piano
268.3333333333333,0.2050020500205002,80,96,Piano
268.6666666666667,0.4100041000410004,60,105,Piano
268.6666666666667,0.4100041000410004,64,105,Piano
268.6666666666667,0.2050020500205002,64,88,Piano
268.6666666666667,0.2050020500205002,60,88,Piano
268.6666666666667,0.2050020500205002,55,88,Piano
268.6666666666667,0.2050020500205002,50,88,Piano
268.6666666666667,0.2050020500205002,70,60,Piano
268.6666666666667,0.2050020500205002,80,60,Piano
268.75,0.4100041000410004,50,82,Piano
268.75,0.4100041000410004,55,82,Piano
268.75,0.4100041000410004,60,82,Piano
268.75,0.4100041000410004,64,82,Piano
268.75,0.2050020500205002,70,80,Piano
268.75,0.2050020500205002,81,80,Piano
269.3333333333333,0.4100041000410004,50,92,Piano
269.3333333333333,0.4100041000410004,55,92,Piano
269.3333333333333,0.4100041000410004,59,92,Piano
269.3333333333333,0.4100041000410004,67,92,Piano
269.3333333333333,0.2050020500205002,70,98,Piano
269.3333333333333,0.2050020500205002,80,98,Piano
269.5,0.4100041000410004,59,110,Piano
269.5,0.4100041000410004,62,110,Piano
269.6666666666667,0.2050020500205002,70,54,Piano
269.6666666666667,0.2050020500205002,80,54,Piano
269.75,0.4100041000410004,67,82,Piano
269.75,0.4100041000410004,59,82,Piano
269.75,0.4100041000410004,55,82,Piano
269.75,0.4100041000410004,50,82,Piano
269.75,0.2050020500205002,70,76,Piano
269.75,0.2050020500205002,81,76,Piano
270.25,0.0,57,110,Piano
270.25,0.0,62,110,Piano
270.3333333333333,0.41499515838981876,50,102,Piano
270.3333333333333,0.41499515838981876,55,102,Piano
270.3333333333333,0.41499515838981876,59,102,Piano
270.3333333333333,0.41499515838981876,67,102,Piano
270.3333333333333,0.20749757919490938,70,100,Piano
270.3333333333333,0.20749757919490938,80,100,Piano
270.6666666666667,0.20749757919490938,70,58,Piano
270.6666666666667,0.20749757919490938,80,58,Piano
270.75,0.41499515838981876,67,82,Piano
270.75,0.41499515838981876,59,82,Piano
270.75,0.41499515838981876,55,82,Piano
270.75,0.41499515838981876,50,82,Piano
270.75,0.20749757919490938,70,77,Piano
270.75,0.20749757919490938,81,77,Piano
271.3333333333333,0.4100041000410004,53,92,Piano
271.3333333333333,0.4100041000410004,57,92,Piano
271.3333333333333,0.4100041000410004,60,92,Piano
271.3333333333333,0.4100041000410004,65,92,Piano
271.3333333333333,0.2050020500205002,70,97,Piano
271.3333333333333,0.2050020500205002,80,97,Piano
271.6666666666667,0.2050020500205002,70,56,Piano
271.6666666666667,0.2050020500205002,80,56,Piano
271.75,0.4100041000410004,65,82,Piano
271.75,0.4100041000410004,60,82,Piano
271.75,0.4100041000410004,57,82,Piano
271.75,0.4100041000410004,53,82,Piano
271.75,0.2050020500205002,70,74,Piano
271.75,0.2050020500205002,81,74,Piano
272.3333333333333,0.20749757919490938,50,92,Piano
272.3333333333333,0.20749757919490938,55,92,Piano
272.3333333333333,0.20749757919490938,59,92,Piano
272.3333333333333,0.20749757919490938,67,92,Piano
272.3333333333333,0.20749757919490938,70,92,Piano
272.3333333333333,0.20749757919490938,80,92,Piano
272.3333333333333,0.20749757919490938,53,92,Piano
272.5,0.41499515838981876,67,120,Piano
272.5,0.41499515838981876,62,120,Piano
272.6666666666667,0.20749757919490938,67,88,Piano
272.6666666666667,0.20749757919490938,59,88,Piano
272.6666666666667,0.20749757919490938,55,88,Piano
272.6666666666667,0.20749757919490938,50,88,Piano
272.6666666666667,0.20749757919490938,70,60,Piano
272.6666666666667,0.20749757919490938,80,60,Piano
272.75,0.41499515838981876,50,82,Piano
272.75,0.41499515838981876,55,82,Piano
272.75,0.41499515838981876,59,82,Piano
272.75,0.41499515838981876,67,82,Piano
272.75,0.20749757919490938,70,80,Piano
272.75,0.20749757919490938,81,80,Piano
273.3333333333333,0.4100041000410004,50,92,Piano
273.3333333333333,0.4100041000410004,59,92,Piano
273.3333333333333,0.4100041000410004,62,92,Piano
273.3333333333333,0.4100041000410004,67,92,Piano
273.3333333333333,0.2050020500205002,70,98,Piano
273.3333333333333,0.2050020500205002,80,98,Piano
273.6666666666667,0.2050020500205002,70,54,Piano
273.6666666666667,0.2050020500205002,80,54,Piano
273.75,0.4100041000410004,67,82,Piano
273.75,0.4100041000410004,62,82,Piano
273.75,0.4100041000410004,59,82,Piano
273.75,0.4100041000410004,50,82,Piano
273.75,0.2050020500205002,70,76,Piano
273.75,0.2050020500205002,81,76,Piano
274.3333333333333,0.4100041000410004,50,102,Piano
274.3333333333333,0.4100041000410004,59,102,Piano
274.3333333333333,0.4100041000410004,62,102,Piano
274.3333333333333,0.4100041000410004,67,102,Piano
274.3333333333333,0.2050020500205002,70,100,Piano
274.3333333333333,0.2050020500205002,80,100,Piano
274.6666666666667,0.2050020500205002,70,58,Piano
274.6666666666667,0.2050020500205002,80,58,Piano
274.75,0.4100041000410004,67,82,Piano
274.75,0.4100041000410004,62,82,Piano
274.75,0.4100041000410004,59,82,Piano
274.75,0.4100041000410004,50,82,Piano
274.75,0.2050020500205002,70,77,Piano
274.75,0.2050020500205002,81,77,Piano
275.3333333333333,0.4100041000410004,53,92,Piano
275.3333333333333,0.4100041000410004,57,92,Piano
275.3333333333333,0.4100041000410004,60,92,Piano
275.3333333333333,0.4100041000410004,65,92,Piano
275.75,0.4100041000410004,65,82,Piano
275.75,0.4100041000410004,60,82,Piano
275.75,0.4100041000410004,57,82,Piano
275.75,0.4100041000410004,53,82,Piano
276.3333333333333,0.4100041000410004,33,117,Piano
276.3333333333333,0.4100041000410004,45,117,Piano
276.3333333333333,0.4100041000410004,72,117,Piano
276.3333333333333,0.2050020500205002,53,92,Piano
276.3333333333333,0.2050020500205002,57,92,Piano
276.3333333333333,0.2050020500205002,60,92,Piano
276.3333333333333,0.2050020500205002,65,92,Piano
276.3333333333333,0.2050020500205002,70,96,Piano
276.3333333333333,0.2050020500205002,80,96,Piano
276.6666666666667,0.2050020500205002,65,88,Piano
276.6666666666667,0.2050020500205002,60,88,Piano
276.6666666666667,0.2050020500205002,57,88,Piano
276.6666666666667,0.2050020500205002,53,88,Piano
276.6666666666667,0.2050020500205002,70,60,Piano
276.6666666666667,0.2050020500205002,80,60,Piano
276.75,0.4100041000410004,53,82,Piano
276.75,0.4100041000410004,57,82,Piano
276.75,0.4100041000410004,60,82,Piano
276.75,0.4100041000410004,65,82,Piano
276.75,0.2050020500205002,70,80,Piano
276.75,0.2050020500205002,81,80,Piano
277.3333333333333,0.4100041000410004,53,92,Piano
277.3333333333333,0.4100041000410004,58,92,Piano
277.3333333333333,0.4100041000410004,62,92,Piano
277.3333333333333,0.4100041000410004,65,92,Piano
277.3333333333333,0.2050020500205002,70,98,Piano
277.3333333333333,0.2050020500205002,80,98,Piano
277.6666666666667,0.2050020500205002,70,54,Piano
277.6666666666667,0.2050020500205002,80,54,Piano
277.75,0.4100041000410004,65,82,Piano
277.75,0.4100041000410004,62,82,Piano
277.75,0.4100041000410004,58,82,Piano
277.75,0.4100041000410004,53,82,Piano
277.75,0.2050020500205002,70,76,Piano
277.75,0.2050020500205002,81,76,Piano
278.3333333333333,0.4100041000410004,53,102,Piano
278.3333333333333,0.4100041000410004,58,102,Piano
278.3333333333333,0.4100041000410004,62,102,Piano
278.3333333333333,0.4100041000410004,65,102,Piano
278.3333333333333,0.2050020500205002,70,100,Piano
278.3333333333333,0.2050020500205002,80,100,Piano
278.6666666666667,0.2050020500205002,70,58,Piano
278.6666666666667,0.2050020500205002,80,58,Piano
278.75,0.4100041000410004,65,82,Piano
278.75,0.4100041000410004,62,82,Piano
278.75,0.4100041000410004,58,82,Piano
278.75,0.4100041000410004,53,82,Piano
278.75,0.2050020500205002,70,77,Piano
278.75,0.2050020500205002,81,77,Piano
279.3333333333333,0.4100041000410004,50,92,Piano
279.3333333333333,0.4100041000410004,58,92,Piano
279.3333333333333,0.4100041000410004,62,92,Piano
279.3333333333333,0.4100041000410004,67,92,Piano
279.3333333333333,0.2050020500205002,70,97,Piano
279.3333333333333,0.2050020500205002,80,97,Piano
279.6666666666667,0.2050020500205002,70,56,Piano
279.6666666666667,0.2050020500205002,80,56,Piano
279.75,0.4100041000410004,67,82,Piano
279.75,0.4100041000410004,62,82,Piano
279.75,0.4100041000410004,58,82,Piano
279.75,0.4100041000410004,50,82,Piano
279.75,0.2050020500205002,70,74,Piano
279.75,0.2050020500205002,81,74,Piano
280.3333333333333,0.2050020500205002,50,92,Piano
280.3333333333333,0.2050020500205002,58,92,Piano
280.3333333333333,0.2050020500205002,62,92,Piano
280.3333333333333,0.2050020500205002,67,92,Piano
280.3333333333333,0.2050020500205002,70,96,Piano
280.3333333333333,0.2050020500205002,80,96,Piano
280.6666666666667,0.2050020500205002,67,88,Piano
280.6666666666667,0.2050020500205002,62,88,Piano
280.6666666666667,0.2050020500205002,58,88,Piano
280.6666666666667,0.2050020500205002,50,88,Piano
280.6666666666667,0.2050020500205002,70,60,Piano
280.6666666666667,0.2050020500205002,80,60,Piano
280.75,0.4100041000410004,50,82,Piano
280.75,0.4100041000410004,58,82,Piano
280.75,0.4100041000410004,62,82,Piano
280.75,0.4100041000410004,67,82,Piano
280.75,0.2050020500205002,70,80,Piano
280.75,0.2050020500205002,81,80,Piano
281.3333333333333,0.4100041000410004,50,92,Piano
281.3333333333333,0.4100041000410004,57,92,Piano
281.3333333333333,0.4100041000410004,62,92,Piano
281.3333333333333,0.4100041000410004,66,92,Piano
281.3333333333333,0.2050020500205002,70,98,Piano
281.3333333333333,0.2050020500205002,80,98,Piano
281.6666666666667,0.2050020500205002,70,54,Piano
281.6666666666667,0.2050020500205002,80,54,Piano
281.75,0.4100041000410004,66,82,Piano
281.75,0.4100041000410004,62,82,Piano
281.75,0.4100041000410004,57,82,Piano
281.75,0.4100041000410004,50,82,Piano
281.75,0.2050020500205002,70,76,Piano
281.75,0.2050020500205002,81,76,Piano
282.3333333333333,0.4100041000410004,50,102,Piano
282.3333333333333,0.4100041000410004,57,102,Piano
282.3333333333333,0.4100041000410004,62,102,Piano
282.3333333333333,0.4100041000410004,66,102,Piano
282.3333333333333,0.2050020500205002,70,100,Piano
282.3333333333333,0.2050020500205002,80,100,Piano
282.5,0.4100041000410004,26,122,Piano
282.5,0.4100041000410004,38,122,Piano
282.6666666666667,0.2050020500205002,70,58,Piano
282.6666666666667,0.2050020500205002,80,58,Piano
282.75,0.4100041000410004,66,82,Piano
282.75,0.4100041000410004,62,82,Piano
282.75,0.4100041000410004,57,82,Piano
282.75,0.4100041000410004,50,82,Piano
282.75,0.2050020500205002,70,77,Piano
282.75,0.2050020500205002,81,77,Piano
283.3333333333333,0.4100041000410004,50,92,Piano
283.3333333333333,0.4100041000410004,58,92,Piano
283.3333333333333,0.4100041000410004,62,92,Piano
283.3333333333333,0.4100041000410004,67,92,Piano
283.3333333333333,0.2050020500205002,70,97,Piano
283.3333333333333,0.2050020500205002,80,97,Piano
283.6666666666667,0.2050020500205002,70,56,Piano
283.6666666666667,0.2050020500205002,80,56,Piano
283.75,0.4100041000410004,67,82,Piano
283.75,0.4100041000410004,62,82,Piano
283.75,0.4100041000410004,58,82,Piano
283.75,0.4100041000410004,50,82,Piano
283.75,0.2050020500205002,70,74,Piano
283.75,0.2050020500205002,81,74,Piano
284.3333333333333,0.2050020500205002,69,110,Piano
284.3333333333333,0.2050020500205002,67,110,Piano
284.3333333333333,0.5466721333880005,29,122,Piano
284.3333333333333,0.5466721333880005,41,122,Piano
284.3333333333333,0.2050020500205002,50,92,Piano
284.3333333333333,0.2050020500205002,58,92,Piano
284.3333333333333,0.2050020500205002,62,92,Piano
284.3333333333333,0.2050020500205002,67,92,Piano
284.3333333333333,0.2050020500205002,70,96,Piano
284.3333333333333,0.2050020500205002,80,96,Piano
284.6666666666667,0.2050020500205002,67,88,Piano
284.6666666666667,0.2050020500205002,62,88,Piano
284.6666666666667,0.2050020500205002,58,88,Piano
284.6666666666667,0.2050020500205002,50,88,Piano
284.6666666666667,0.2050020500205002,70,60,Piano
284.6666666666667,0.2050020500205002,80,60,Piano
284.75,0.4100041000410004,50,82,Piano
284.75,0.4100041000410004,58,82,Piano
284.75,0.4100041000410004,62,82,Piano
284.75,0.4100041000410004,67,82,Piano
284.75,0.2050020500205002,70,80,Piano
284.75,0.2050020500205002,81,80,Piano
285.3333333333333,0.4100041000410004,51,92,Piano
285.3333333333333,0.4100041000410004,58,92,Piano
285.3333333333333,0.4100041000410004,63,92,Piano
285.3333333333333,0.4100041000410004,67,92,Piano
285.3333333333333,0.2050020500205002,70,98,Piano
285.3333333333333,0.2050020500205002,80,98,Piano
285.6666666666667,0.2050020500205002,70,54,Piano
285.6666666666667,0.2050020500205002,80,54,Piano
285.75,0.4100041000410004,67,82,Piano
285.75,0.4100041000410004,63,82,Piano
285.75,0.4100041000410004,58,82,Piano
285.75,0.4100041000410004,51,82,Piano
285.75,0.2050020500205002,70,76,Piano
285.75,0.2050020500205002,81,76,Piano
286.25,0.27333606669400023,63,116,Piano
286.25,0.27333606669400023,58,116,Piano
286.3333333333333,0.4100041000410004,51,102,Piano
286.3333333333333,0.4100041000410004,58,102,Piano
286.3333333333333,0.4100041000410004,63,102,Piano
286.3333333333333,0.4100041000410004,67,102,Piano
286.3333333333333,0.2050020500205002,70,100,Piano
286.3333333333333,0.2050020500205002,80,100,Piano
286.6666666666667,0.2050020500205002,70,58,Piano
286.6666666666667,0.2050020500205002,80,58,Piano
286.75,0.4100041000410004,67,82,Piano
286.75,0.4100041000410004,63,82,Piano
286.75,0.4100041000410004,58,82,Piano
286.75,0.4100041000410004,51,82,Piano
286.75,0.2050020500205002,70,77,Piano
286.75,0.2050020500205002,81,77,Piano
287.0,0.0,58,86,Piano
287.0,0.0,63,86,Piano
287.0,0.0,53,86,Piano
287.3333333333333,0.4100041000410004,51,92,Piano
287.3333333333333,0.4100041000410004,58,92,Piano
287.3333333333333,0.4100041000410004,63,92,Piano
287.3333333333333,0.4100041000410004,67,92,Piano
287.75,0.4100041000410004,67,82,Piano
287.75,0.4100041000410004,63,82,Piano
287.75,0.4100041000410004,58,82,Piano
287.75,0.4100041000410004,51,82,Piano
288.25,0.27333606669400023,58,109,Piano
288.25,0.27333606669400023,63,109,Piano
288.25,0.27333606669400023,53,109,Piano
288.3333333333333,0.2050020500205002,51,92,Piano
288.3333333333333,0.2050020500205002,58,92,Piano
288.3333333333333,0.2050020500205002,63,92,Piano
288.3333333333333,0.2050020500205002,67,92,Piano
288.3333333333333,0.2050020500205002,70,96,Piano
288.3333333333333,0.2050020500205002,80,96,Piano
288.6666666666667,0.2050020500205002,53,125,Piano
288.6666666666667,0.2050020500205002,58,125,Piano
288.6666666666667,0.2050020500205002,67,88,Piano
288.6666666666667,0.2050020500205002,63,88,Piano
288.6666666666667,0.2050020500205002,58,88,Piano
288.6666666666667,0.2050020500205002,51,88,Piano
288.6666666666667,0.2050020500205002,70,60,Piano
288.6666666666667,0.2050020500205002,80,60,Piano
288.75,0.4100041000410004,51,82,Piano
288.75,0.4100041000410004,58,82,Piano
288.75,0.4100041000410004,63,82,Piano
288.75,0.4100041000410004,67,82,Piano
288.75,0.2050020500205002,70,80,Piano
288.75,0.2050020500205002,81,80,Piano
289.3333333333333,0.4100041000410004,50,92,Piano
289.3333333333333,0.4100041000410004,57,92,Piano
289.3333333333333,0.4100041000410004,62,92,Piano
289.3333333333333,0.4100041000410004,67,92,Piano
289.3333333333333,0.2050020500205002,70,98,Piano
289.3333333333333,0.2050020500205002,80,98,Piano
289.6666666666667,0.2050020500205002,70,54,Piano
289.6666666666667,0.2050020500205002,80,54,Piano
289.75,0.4100041000410004,67,82,Piano
289.75,0.4100041000410004,62,82,Piano
289.75,0.4100041000410004,57,82,Piano
289.75,0.4100041000410004,50,82,Piano
289.75,0.2050020500205002,70,76,Piano
289.75,0.2050020500205002,81,76,Piano
290.3333333333333,0.41499515838981876,50,102,Piano
290.3333333333333,0.41499515838981876,57,102,Piano
290.3333333333333,0.41499515838981876,62,102,Piano
290.3333333333333,0.41499515838981876,67,102,Piano
290.3333333333333,0.20749757919490938,70,100,Piano
290.3333333333333,0.20749757919490938,80,100,Piano
290.6666666666667,0.20749757919490938,70,58,Piano
290.6666666666667,0.20749757919490938,80,58,Piano
290.75,0.41499515838981876,67,82,Piano
290.75,0.41499515838981876,62,82,Piano
290.75,0.41499515838981876,57,82,Piano
290.75,0.41499515838981876,50,82,Piano
290.75,0.20749757919490938,70,77,Piano
290.75,0.20749757919490938,81,77,Piano
291.3333333333333,0.41499515838981876,50,92,Piano
291.3333333333333,0.41499515838981876,57,92,Piano
291.3333333333333,0.41499515838981876,62,92,Piano
291.3333333333333,0.41499515838981876,66,92,Piano
291.3333333333333,0.20749757919490938,70,97,Piano
291.3333333333333,0.20749757919490938,80,97,Piano
291.5,0.2766634389265458,62,109,Piano
291.5,0.2766634389265458,57,109,Piano
291.5,0.2766634389265458,66,109,Piano
291.6666666666667,0.20749757919490938,70,56,Piano
291.6666666666667,0.20749757919490938,80,56,Piano
291.75,0.41499515838981876,66,82,Piano
291.75,0.41499515838981876,62,82,Piano
291.75,0.41499515838981876,57,82,Piano
291.75,0.41499515838981876,50,82,Piano
291.75,0.20749757919490938,70,74,Piano
291.75,0.20749757919490938,81,74,Piano
292.0,0.2050020500205002,67,119,Piano
292.0,0.2050020500205002,57,119,Piano
292.0,0.2050020500205002,62,119,Piano
292.3333333333333,0.2050020500205002,50,92,Piano
292.3333333333333,0.2050020500205002,57,92,Piano
292.3333333333333,0.2050020500205002,62,92,Piano
292.3333333333333,0.2050020500205002,66,92,Piano
292.3333333333333,0.2050020500205002,70,96,Piano
292.3333333333333,0.2050020500205002,80,96,Piano
292.5,0.27333606669400023,69,125,Piano
292.5,0.27333606669400023,57,125,Piano
292.5,0.27333606669400023,62,125,Piano
292.6666666666667,0.2050020500205002,66,88,Piano
292.6666666666667,0.2050020500205002,62,88,Piano
292.6666666666667,0.2050020500205002,57,88,Piano
292.6666666666667,0.2050020500205002,50,88,Piano
292.6666666666667,0.2050020500205002,70,60,Piano
292.6666666666667,0.2050020500205002,80,60,Piano
292.75,0.4100041000410004,50,82,Piano
292.75,0.4100041000410004,57,82,Piano
292.75,0.4100041000410004,62,82,Piano
292.75,0.4100041000410004,66,82,Piano
292.75,0.2050020500205002,70,80,Piano
292.75,0.2050020500205002,81,80,Piano
293.0,0.27333606669400023,62,117,Piano
293.0,0.27333606669400023,66,117,Piano
293.0,0.2050020500205002,57,119,Piano
293.0,0.2050020500205002,66,119,Piano
293.3333333333333,0.27333606669400023,62,118,Piano
293.3333333333333,0.27333606669400023,67,118,Piano
293.3333333333333,0.27333606669400023,59,118,Piano
293.3333333333333,0.4100041000410004,50,92,Piano
293.3333333333333,0.4100041000410004,57,92,Piano
293.3333333333333,0.4100041000410004,59,92,Piano
293.3333333333333,0.4100041000410004,67,92,Piano
293.3333333333333,0.2050020500205002,70,98,Piano
293.3333333333333,0.2050020500205002,80,98,Piano
293.5,2.870028700287003,83,75,Piano
293.5,2.870028700287003,95,75,Piano
293.6666666666667,0.2050020500205002,70,54,Piano
293.6666666666667,0.2050020500205002,80,54,Piano
293.75,0.4100041000410004,67,82,Piano
293.75,0.4100041000410004,59,82,Piano
293.75,0.4100041000410004,57,82,Piano
293.75,0.4100041000410004,50,82,Piano
293.75,0.2050020500205002,70,76,Piano
293.75,0.2050020500205002,81,76,Piano
294.25,0.0,62,81,Piano
294.25,0.0,57,81,Piano
294.3333333333333,0.4100041000410004,50,102,Piano
294.3333333333333,0.4100041000410004,57,102,Piano
294.3333333333333,0.4100041000410004,59,102,Piano
294.3333333333333,0.4100041000410004,67,102,Piano
294.3333333333333,0.2050020500205002,70,100,Piano
294.3333333333333,0.2050020500205002,80,100,Piano
294.5,0.2050020500205002,57,127,Piano
294.5,0.2050020500205002,62,127,Piano
294.6666666666667,0.2050020500205002,70,58,Piano
294.6666666666667,0.2050020500205002,80,58,Piano
294.75,0.4100041000410004,67,82,Piano
294.75,0.4100041000410004,59,82,Piano
294.75,0.4100041000410004,57,82,Piano
294.75,0.4100041000410004,50,82,Piano
294.75,0.2050020500205002,70,77,Piano
294.75,0.2050020500205002,81,77,Piano
295.25,0.27333606669400023,62,127,Piano
295.25,0.27333606669400023,67,127,Piano
295.3333333333333,0.4100041000410004,50,92,Piano
295.3333333333333,0.4100041000410004,57,92,Piano
295.3333333333333,0.4100041000410004,59,92,Piano
295.3333333333333,0.4100041000410004,67,92,Piano
295.3333333333333,0.2050020500205002,70,97,Piano
295.3333333333333,0.2050020500205002,80,97,Piano
295.6666666666667,0.2050020500205002,70,56,Piano
295.6666666666667,0.2050020500205002,80,56,Piano
295.75,0.4100041000410004,67,82,Piano
295.75,0.4100041000410004,59,82,Piano
295.75,0.4100041000410004,57,82,Piano
295.75,0.4100041000410004,50,82,Piano
295.75,0.2050020500205002,70,74,Piano
295.75,0.2050020500205002,81,74,Piano
296.3333333333333,0.2050020500205002,50,92,Piano
296.3333333333333,0.2050020500205002,57,92,Piano
296.3333333333333,0.2050020500205002,59,92,Piano
296.3333333333333,0.2050020500205002,67,92,Piano
296.3333333333333,0.2050020500205002,70,88,Piano
296.3333333333333,0.2050020500205002,80,88,Piano
296.3333333333333,0.2050020500205002,53,88,Piano
296.6666666666667,0.2050020500205002,67,88,Piano
296.6666666666667,0.2050020500205002,59,88,Piano
296.6666666666667,0.2050020500205002,57,88,Piano
296.6666666666667,0.2050020500205002,50,88,Piano
296.6666666666667,0.2050020500205002,70,60,Piano
296.6666666666667,0.2050020500205002,80,60,Piano
296.75,0.4100041000410004,50,82,Piano
296.75,0.4100041000410004,57,82,Piano
296.75,0.4100041000410004,59,82,Piano
296.75,0.4100041000410004,67,82,Piano
296.75,0.4100041000410004,84,75,Piano
296.75,0.4100041000410004,96,75,Piano
296.75,0.2050020500205002,70,80,Piano
296.75,0.2050020500205002,81,80,Piano
297.3333333333333,0.4100041000410004,53,92,Piano
297.3333333333333,0.4100041000410004,57,92,Piano
297.3333333333333,0.4100041000410004,60,92,Piano
297.3333333333333,0.4100041000410004,65,92,Piano
297.3333333333333,1.6400164001640016,86,81,Piano
297.3333333333333,1.6400164001640016,98,81,Piano
297.3333333333333,0.2050020500205002,70,98,Piano
297.3333333333333,0.2050020500205002,80,98,Piano
297.6666666666667,0.2050020500205002,70,54,Piano
297.6666666666667,0.2050020500205002,80,54,Piano
297.75,0.4100041000410004,65,82,Piano
297.75,0.4100041000410004,60,82,Piano
297.75,0.4100041000410004,57,82,Piano
297.75,0.4100041000410004,53,82,Piano
297.75,0.2050020500205002,70,76,Piano
297.75,0.2050020500205002,81,76,Piano
298.3333333333333,0.4100041000410004,53,102,Piano
298.3333333333333,0.4100041000410004,57,102,Piano
298.3333333333333,0.4100041000410004,60,102,Piano
298.3333333333333,0.4100041000410004,65,102,Piano
298.3333333333333,0.2050020500205002,70,100,Piano
298.3333333333333,0.2050020500205002,80,100,Piano
298.6666666666667,0.2050020500205002,70,58,Piano
298.6666666666667,0.2050020500205002,80,58,Piano
298.75,0.4100041000410004,65,82,Piano
298.75,0.4100041000410004,60,82,Piano
298.75,0.4100041000410004,57,82,Piano
298.75,0.4100041000410004,53,82,Piano
298.75,0.2050020500205002,70,77,Piano
298.75,0.2050020500205002,81,77,Piano
299.25,0.8200082000820008,79,83,Piano
299.25,0.8200082000820008,91,83,Piano
299.3333333333333,0.4100041000410004,53,92,Piano
299.3333333333333,0.4100041000410004,57,92,Piano
299.3333333333333,0.4100041000410004,60,92,Piano
299.3333333333333,0.4100041000410004,65,92,Piano
299.75,0.4100041000410004,65,82,Piano
299.75,0.4100041000410004,60,82,Piano
299.75,0.4100041000410004,57,82,Piano
299.75,0.4100041000410004,53,82,Piano
300.3333333333333,0.2050020500205002,53,92,Piano
300.3333333333333,0.2050020500205002,57,92,Piano
300.3333333333333,0.2050020500205002,60,92,Piano
300.3333333333333,0.2050020500205002,65,92,Piano
300.3333333333333,0.2050020500205002,70,86,Piano
300.3333333333333,0.2050020500205002,80,86,Piano
300.3333333333333,0.2050020500205002,53,86,Piano
300.6666666666667,0.2050020500205002,65,88,Piano
300.6666666666667,0.2050020500205002,60,88,Piano
300.6666666666667,0.2050020500205002,57,88,Piano
300.6666666666667,0.2050020500205002,53,88,Piano
300.6666666666667,0.2050020500205002,70,60,Piano
300.6666666666667,0.2050020500205002,80,60,Piano
300.75,0.4100041000410004,53,82,Piano
300.75,0.4100041000410004,57,82,Piano
300.75,0.4100041000410004,60,82,Piano
300.75,0.4100041000410004,65,82,Piano
300.75,0.2050020500205002,70,80,Piano
300.75,0.2050020500205002,81,80,Piano
301.3333333333333,0.4100041000410004,53,92,Piano
301.3333333333333,0.4100041000410004,55,92,Piano
301.3333333333333,0.4100041000410004,60,92,Piano
301.3333333333333,0.4100041000410004,67,92,Piano
301.3333333333333,0.2050020500205002,70,98,Piano
301.3333333333333,0.2050020500205002,80,98,Piano
301.6666666666667,0.2050020500205002,70,54,Piano
301.6666666666667,0.2050020500205002,80,54,Piano
301.75,0.4100041000410004,67,82,Piano
301.75,0.4100041000410004,60,82,Piano
301.75,0.4100041000410004,55,82,Piano
301.75,0.4100041000410004,53,82,Piano
301.75,0.2050020500205002,70,76,Piano
301.75,0.2050020500205002,81,76,Piano
302.3333333333333,0.41499515838981876,52,102,Piano
302.3333333333333,0.41499515838981876,55,102,Piano
302.3333333333333,0.41499515838981876,60,102,Piano
302.3333333333333,0.41499515838981876,67,102,Piano
302.3333333333333,0.20749757919490938,70,100,Piano
302.3333333333333,0.20749757919490938,80,100,Piano
302.6666666666667,0.20749757919490938,70,58,Piano
302.6666666666667,0.20749757919490938,80,58,Piano
302.75,0.41499515838981876,67,82,Piano
302.75,0.41499515838981876,60,82,Piano
302.75,0.41499515838981876,55,82,Piano
302.75,0.41499515838981876,52,82,Piano
302.75,0.20749757919490938,70,77,Piano
302.75,0.20749757919490938,81,77,Piano
303.3333333333333,0.41499515838981876,50,92,Piano
303.3333333333333,0.41499515838981876,57,92,Piano
303.3333333333333,0.41499515838981876,62,92,Piano
303.3333333333333,0.41499515838981876,66,92,Piano
303.3333333333333,0.8299903167796375,93,77,Piano
303.3333333333333,0.8299903167796375,105,77,Piano
303.3333333333333,0.20749757919490938,70,97,Piano
303.3333333333333,0.20749757919490938,80,97,Piano
303.6666666666667,0.20749757919490938,70,56,Piano
303.6666666666667,0.20749757919490938,80,56,Piano
303.75,0.41499515838981876,66,82,Piano
303.75,0.41499515838981876,62,82,Piano
303.75,0.41499515838981876,57,82,Piano
303.75,0.41499515838981876,50,82,Piano
303.75,0.20749757919490938,70,74,Piano
303.75,0.20749757919490938,81,74,Piano
304.3333333333333,0.27333606669400023,69,117,Piano
304.3333333333333,0.27333606669400023,62,117,Piano
304.3333333333333,0.27333606669400023,57,117,Piano
304.3333333333333,0.2050020500205002,50,92,Piano
304.3333333333333,0.2050020500205002,57,92,Piano
304.3333333333333,0.2050020500205002,62,92,Piano
304.3333333333333,0.2050020500205002,66,92,Piano
304.3333333333333,0.6150061500615006,90,77,Piano
304.3333333333333,0.6150061500615006,102,77,Piano
304.3333333333333,0.2050020500205002,70,83,Piano
304.3333333333333,0.2050020500205002,80,83,Piano
304.3333333333333,0.2050020500205002,53,83,Piano
304.6666666666667,0.2050020500205002,66,88,Piano
304.6666666666667,0.2050020500205002,62,88,Piano
304.6666666666667,0.2050020500205002,57,88,Piano
304.6666666666667,0.2050020500205002,50,88,Piano
304.6666666666667,0.2050020500205002,70,60,Piano
304.6666666666667,0.2050020500205002,80,60,Piano
304.75,0.4100041000410004,50,82,Piano
304.75,0.4100041000410004,57,82,Piano
304.75,0.4100041000410004,62,82,Piano
304.75,0.4100041000410004,66,82,Piano
304.75,0.2050020500205002,70,80,Piano
304.75,0.2050020500205002,81,80,Piano
305.25,0.0,57,103,Piano
305.25,0.0,48,103,Piano
305.25,0.0,91,63,Piano
305.25,0.0,103,63,Piano
305.25,0.0,90,73,Piano
305.25,0.0,102,73,Piano
305.25,0.0,88,55,Piano
305.25,0.0,100,55,Piano
305.3333333333333,0.4100041000410004,62,121,Piano
305.3333333333333,0.4100041000410004,66,121,Piano
305.3333333333333,0.4100041000410004,50,92,Piano
305.3333333333333,0.4100041000410004,57,92,Piano
305.3333333333333,0.4100041000410004,59,92,Piano
305.3333333333333,0.4100041000410004,66,92,Piano
305.3333333333333,1.6400164001640016,86,67,Piano
305.3333333333333,1.6400164001640016,98,67,Piano
305.3333333333333,0.2050020500205002,70,98,Piano
305.3333333333333,0.2050020500205002,80,98,Piano
305.6666666666667,0.2050020500205002,70,54,Piano
305.6666666666667,0.2050020500205002,80,54,Piano
305.75,0.4100041000410004,66,82,Piano
305.75,0.4100041000410004,59,82,Piano
305.75,0.4100041000410004,57,82,Piano
305.75,0.4100041000410004,50,82,Piano
305.75,0.2050020500205002,70,76,Piano
305.75,0.2050020500205002,81,76,Piano
306.25,0.27333606669400023,61,113,Piano
306.25,0.27333606669400023,57,113,Piano
306.25,0.27333606669400023,62,113,Piano
306.3333333333333,0.4100041000410004,50,102,Piano
306.3333333333333,0.4100041000410004,57,102,Piano
306.3333333333333,0.4100041000410004,59,102,Piano
306.3333333333333,0.4100041000410004,66,102,Piano
306.3333333333333,0.2050020500205002,70,100,Piano
306.3333333333333,0.2050020500205002,80,100,Piano
306.6666666666667,0.4100041000410004,62,120,Piano
306.6666666666667,0.4100041000410004,66,120,Piano
306.6666666666667,0.4100041000410004,61,120,Piano
306.6666666666667,0.2050020500205002,70,58,Piano
306.6666666666667,0.2050020500205002,80,58,Piano
306.75,0.4100041000410004,66,82,Piano
306.75,0.4100041000410004,59,82,Piano
306.75,0.4100041000410004,57,82,Piano
306.75,0.4100041000410004,50,82,Piano
306.75,0.2050020500205002,70,77,Piano
306.75,0.2050020500205002,81,77,Piano
307.25,0.4100041000410004,80,81,Piano
307.25,0.4100041000410004,92,81,Piano
307.3333333333333,0.27333606669400023,64,122,Piano
307.3333333333333,0.27333606669400023,62,122,Piano
307.3333333333333,0.4100041000410004,50,92,Piano
307.3333333333333,0.4100041000410004,56,92,Piano
307.3333333333333,0.4100041000410004,59,92,Piano
307.3333333333333,0.4100041000410004,64,92,Piano
307.3333333333333,0.2050020500205002,70,97,Piano
307.3333333333333,0.2050020500205002,80,97,Piano
307.6666666666667,0.2050020500205002,70,56,Piano
307.6666666666667,0.2050020500205002,80,56,Piano
307.75,0.4100041000410004,64,82,Piano
307.75,0.4100041000410004,59,82,Piano
307.75,0.4100041000410004,56,82,Piano
307.75,0.4100041000410004,50,82,Piano
307.75,0.4100041000410004,81,65,Piano
307.75,0.4100041000410004,93,65,Piano
307.75,0.2050020500205002,70,74,Piano
307.75,0.2050020500205002,81,74,Piano
308.25,0.4100041000410004,83,77,Piano
308.25,0.4100041000410004,95,77,Piano
308.3333333333333,0.0,64,103,Piano
308.3333333333333,0.0,59,103,Piano
308.3333333333333,0.0,62,103,Piano
308.3333333333333,0.2050020500205002,50,92,Piano
308.3333333333333,0.2050020500205002,56,92,Piano
308.3333333333333,0.2050020500205002,59,92,Piano
308.3333333333333,0.2050020500205002,64,92,Piano
308.3333333333333,0.2050020500205002,70,82,Piano
308.3333333333333,0.2050020500205002,80,82,Piano
308.3333333333333,0.2050020500205002,53,82,Piano
308.6666666666667,0.4100041000410004,62,111,Piano
308.6666666666667,0.4100041000410004,71,111,Piano
308.6666666666667,0.4100041000410004,64,111,Piano
308.6666666666667,0.2050020500205002,64,88,Piano
308.6666666666667,0.2050020500205002,59,88,Piano
308.6666666666667,0.2050020500205002,56,88,Piano
308.6666666666667,0.2050020500205002,50,88,Piano
308.6666666666667,0.2050020500205002,70,60,Piano
308.6666666666667,0.2050020500205002,80,60,Piano
308.75,0.4100041000410004,50,82,Piano
308.75,0.4100041000410004,56,82,Piano
308.75,0.4100041000410004,59,82,Piano
308.75,0.4100041000410004,64,82,Piano
308.75,0.8200082000820008,86,69,Piano
308.75,0.8200082000820008,98,69,Piano
308.75,0.2050020500205002,70,80,Piano
308.75,0.2050020500205002,81,80,Piano
309.3333333333333,0.4100041000410004,67,116,Piano
309.3333333333333,0.4100041000410004,64,116,Piano
309.3333333333333,0.4100041000410004,52,92,Piano
309.3333333333333,0.4100041000410004,57,92,Piano
309.3333333333333,0.4100041000410004,60,92,Piano
309.3333333333333,0.4100041000410004,64,92,Piano
309.3333333333333,0.2050020500205002,70,98,Piano
309.3333333333333,0.2050020500205002,80,98,Piano
309.6666666666667,0.2050020500205002,70,54,Piano
309.6666666666667,0.2050020500205002,80,54,Piano
309.75,0.4100041000410004,64,82,Piano
309.75,0.4100041000410004,60,82,Piano
309.75,0.4100041000410004,57,82,Piano
309.75,0.4100041000410004,52,82,Piano
309.75,0.8200082000820008,84,67,Piano
309.75,0.8200082000820008,96,67,Piano
309.75,0.2050020500205002,70,76,Piano
309.75,0.2050020500205002,81,76,Piano
310.0,0.0,60,105,Piano
310.0,0.0,64,105,Piano
310.0,0.0,67,105,Piano
310.3333333333333,0.27333606669400023,60,120,Piano
310.3333333333333,0.27333606669400023,67,120,Piano
310.3333333333333,0.4100041000410004,52,102,Piano
310.3333333333333,0.4100041000410004,57,102,Piano
310.3333333333333,0.4100041000410004,60,102,Piano
310.3333333333333,0.4100041000410004,64,102,Piano
310.3333333333333,0.2050020500205002,70,100,Piano
310.3333333333333,0.2050020500205002,80,100,Piano
310.6666666666667,0.2050020500205002,70,58,Piano
310.6666666666667,0.2050020500205002,80,58,Piano
310.75,0.4100041000410004,64,82,Piano
310.75,0.4100041000410004,60,82,Piano
310.75,0.4100041000410004,57,82,Piano
310.75,0.4100041000410004,52,82,Piano
310.75,0.4100041000410004,83,67,Piano
310.75,0.4100041000410004,95,67,Piano
310.75,0.2050020500205002,70,77,Piano
310.75,0.2050020500205002,81,77,Piano
311.3333333333333,0.4100041000410004,52,92,Piano
311.3333333333333,0.4100041000410004,57,92,Piano
311.3333333333333,0.4100041000410004,60,92,Piano
311.3333333333333,0.4100041000410004,64,92,Piano
311.3333333333333,0.4100041000410004,84,67,Piano
311.3333333333333,0.4100041000410004,96,67,Piano
311.75,0.4100041000410004,64,82,Piano
311.75,0.4100041000410004,60,82,Piano
311.75,0.4100041000410004,57,82,Piano
311.75,0.4100041000410004,52,82,Piano
311.75,0.4100041000410004,83,73,Piano
311.75,0.4100041000410004,95,73,Piano
312.3333333333333,0.2050020500205002,52,92,Piano
312.3333333333333,0.2050020500205002,57,92,Piano
312.3333333333333,0.2050020500205002,60,92,Piano
312.3333333333333,0.2050020500205002,64,92,Piano
312.3333333333333,0.4100041000410004,81,71,Piano
312.3333333333333,0.4100041000410004,93,71,Piano
312.3333333333333,0.2050020500205002,70,88,Piano
312.3333333333333,0.2050020500205002,80,88,Piano
312.3333333333333,0.2050020500205002,53,88,Piano
312.6666666666667,0.2050020500205002,64,88,Piano
312.6666666666667,0.2050020500205002,60,88,Piano
312.6666666666667,0.2050020500205002,57,88,Piano
312.6666666666667,0.2050020500205002,52,88,Piano
312.6666666666667,0.2050020500205002,70,60,Piano
312.6666666666667,0.2050020500205002,80,60,Piano
312.75,0.4100041000410004,52,82,Piano
312.75,0.4100041000410004,57,82,Piano
312.75,0.4100041000410004,60,82,Piano
312.75,0.4100041000410004,64,82,Piano
312.75,0.4100041000410004,79,75,Piano
312.75,0.4100041000410004,91,75,Piano
312.75,0.2050020500205002,70,80,Piano
312.75,0.2050020500205002,81,80,Piano
313.3333333333333,0.4100041000410004,50,92,Piano
313.3333333333333,0.4100041000410004,57,92,Piano
313.3333333333333,0.4100041000410004,60,92,Piano
313.3333333333333,0.4100041000410004,67,92,Piano
313.3333333333333,0.2050020500205002,81,75,Piano
313.3333333333333,0.2050020500205002,93,75,Piano
313.3333333333333,0.2050020500205002,70,98,Piano
313.3333333333333,0.2050020500205002,80,98,Piano
313.6666666666667,0.2050020500205002,83,63,Piano
313.6666666666667,0.2050020500205002,95,63,Piano
313.6666666666667,0.2050020500205002,70,54,Piano
313.6666666666667,0.2050020500205002,80,54,Piano
313.75,0.4100041000410004,67,82,Piano
313.75,0.4100041000410004,60,82,Piano
313.75,0.4100041000410004,57,82,Piano
313.75,0.4100041000410004,50,82,Piano
313.75,2.733360666940003,84,71,Piano
313.75,2.733360666940003,96,71,Piano
313.75,0.2050020500205002,70,76,Piano
313.75,0.2050020500205002,81,76,Piano
314.25,0.0,60,72,Piano
314.25,0.0,57,72,Piano
314.25,0.0,62,72,Piano
314.3333333333333,0.41499515838981876,50,102,Piano
314.3333333333333,0.41499515838981876,57,102,Piano
314.3333333333333,0.41499515838981876,60,102,Piano
314.3333333333333,0.41499515838981876,67,102,Piano
314.3333333333333,0.20749757919490938,70,100,Piano
314.3333333333333,0.20749757919490938,80,100,Piano
314.5,0.41499515838981876,62,101,Piano
314.5,0.41499515838981876,60,101,Piano
314.6666666666667,0.20749757919490938,70,58,Piano
314.6666666666667,0.20749757919490938,80,58,Piano
314.75,0.41499515838981876,67,82,Piano
314.75,0.41499515838981876,60,82,Piano
314.75,0.41499515838981876,57,82,Piano
314.75,0.41499515838981876,50,82,Piano
314.75,0.20749757919490938,70,77,Piano
314.75,0.20749757919490938,81,77,Piano
315.3333333333333,0.41499515838981876,50,92,Piano
315.3333333333333,0.41499515838981876,57,92,Piano
315.3333333333333,0.41499515838981876,60,92,Piano
315.3333333333333,0.41499515838981876,67,92,Piano
315.3333333333333,0.20749757919490938,70,97,Piano
315.3333333333333,0.20749757919490938,80,97,Piano
315.6666666666667,0.20749757919490938,70,56,Piano
315.6666666666667,0.20749757919490938,80,56,Piano
315.75,0.41499515838981876,67,82,Piano
315.75,0.41499515838981876,60,82,Piano
315.75,0.41499515838981876,57,82,Piano
315.75,0.41499515838981876,50,82,Piano
315.75,0.20749757919490938,70,74,Piano
315.75,0.20749757919490938,81,74,Piano
316.3333333333333,0.2050020500205002,50,92,Piano
316.3333333333333,0.2050020500205002,57,92,Piano
316.3333333333333,0.2050020500205002,60,92,Piano
316.3333333333333,0.2050020500205002,67,92,Piano
316.3333333333333,0.2050020500205002,70,87,Piano
316.3333333333333,0.2050020500205002,80,87,Piano
316.3333333333333,0.2050020500205002,53,87,Piano
316.6666666666667,0.2050020500205002,67,88,Piano
316.6666666666667,0.2050020500205002,60,88,Piano
316.6666666666667,0.2050020500205002,57,88,Piano
316.6666666666667,0.2050020500205002,50,88,Piano
316.6666666666667,0.2050020500205002,70,60,Piano
316.6666666666667,0.2050020500205002,80,60,Piano
316.75,0.4100041000410004,50,82,Piano
316.75,0.4100041000410004,57,82,Piano
316.75,0.4100041000410004,60,82,Piano
316.75,0.4100041000410004,67,82,Piano
316.75,0.2050020500205002,70,80,Piano
316.75,0.2050020500205002,81,80,Piano
317.3333333333333,0.8200082000820008,50,92,Piano
317.3333333333333,0.8200082000820008,57,92,Piano
317.3333333333333,0.8200082000820008,60,92,Piano
317.3333333333333,0.8200082000820008,65,92,Piano
317.3333333333333,0.4100041000410004,81,91,Piano
317.3333333333333,0.4100041000410004,93,91,Piano
317.3333333333333,0.2050020500205002,70,98,Piano
317.3333333333333,0.2050020500205002,80,98,Piano
317.6666666666667,0.2050020500205002,70,54,Piano
317.6666666666667,0.2050020500205002,80,54,Piano
317.75,0.4100041000410004,83,89,Piano
317.75,0.4100041000410004,95,89,Piano
317.75,0.2050020500205002,70,76,Piano
317.75,0.2050020500205002,81,76,Piano
318.3333333333333,0.2050020500205002,50,82,Piano
318.3333333333333,0.2050020500205002,57,82,Piano
318.3333333333333,0.2050020500205002,60,82,Piano
318.3333333333333,0.2050020500205002,65,82,Piano
318.3333333333333,0.0,84,89,Piano
318.3333333333333,0.0,96,89,Piano
318.3333333333333,0.2050020500205002,70,100,Piano
318.3333333333333,0.2050020500205002,80,100,Piano
318.75,0.8200082000820008,65,92,Piano
318.75,0.8200082000820008,60,92,Piano
318.75,0.8200082000820008,55,92,Piano
318.75,0.8200082000820008,50,92,Piano
318.75,1.6400164001640016,83,89,Piano
318.75,1.6400164001640016,95,89,Piano
318.75,0.2050020500205002,70,77,Piano
318.75,0.2050020500205002,81,77,Piano
319.3333333333333,0.2050020500205002,70,97,Piano
319.3333333333333,0.2050020500205002,80,97,Piano
319.6666666666667,0.2050020500205002,70,56,Piano
319.6666666666667,0.2050020500205002,80,56,Piano
319.75,0.4100041000410004,65,82,Piano
319.75,0.4100041000410004,60,82,Piano
319.75,0.4100041000410004,55,82,Piano
319.75,0.4100041000410004,50,82,Piano
319.75,0.2050020500205002,70,74,Piano
319.75,0.2050020500205002,81,74,Piano
320.3333333333333,0.2050020500205002,64,122,Piano
320.3333333333333,0.2050020500205002,53,122,Piano
320.3333333333333,0.2050020500205002,50,92,Piano
320.3333333333333,0.2050020500205002,55,92,Piano
320.3333333333333,0.2050020500205002,60,92,Piano
320.3333333333333,0.2050020500205002,65,92,Piano
320.3333333333333,0.2050020500205002,70,89,Piano
320.3333333333333,0.2050020500205002,80,89,Piano
320.3333333333333,0.2050020500205002,53,89,Piano
320.6666666666667,0.2050020500205002,65,88,Piano
320.6666666666667,0.2050020500205002,60,88,Piano
320.6666666666667,0.2050020500205002,55,88,Piano
320.6666666666667,0.2050020500205002,50,88,Piano
320.6666666666667,0.2050020500205002,70,60,Piano
320.6666666666667,0.2050020500205002,80,60,Piano
320.75,0.4100041000410004,50,82,Piano
320.75,0.4100041000410004,55,82,Piano
320.75,0.4100041000410004,60,82,Piano
320.75,0.4100041000410004,65,82,Piano
320.75,0.2050020500205002,70,80,Piano
320.75,0.2050020500205002,81,80,Piano
321.0,0.20749757919490938,59,119,Piano
321.0,0.20749757919490938,53,119,Piano
321.0,0.20749757919490938,63,119,Piano
321.0,0.20749757919490938,81,75,Piano
321.0,0.20749757919490938,93,75,Piano
321.0,0.20749757919490938,83,67,Piano
321.0,0.20749757919490938,95,67,Piano
321.3333333333333,0.41499515838981876,60,118,Piano
321.3333333333333,0.41499515838981876,62,118,Piano
321.3333333333333,0.41499515838981876,50,92,Piano
321.3333333333333,0.41499515838981876,55,92,Piano
321.3333333333333,0.41499515838981876,60,92,Piano
321.3333333333333,0.41499515838981876,67,92,Piano
321.3333333333333,1.2449854751694562,84,85,Piano
321.3333333333333,1.2449854751694562,96,85,Piano
321.3333333333333,0.20749757919490938,70,98,Piano
321.3333333333333,0.20749757919490938,80,98,Piano
321.6666666666667,0.20749757919490938,70,54,Piano
321.6666666666667,0.20749757919490938,80,54,Piano
321.75,0.41499515838981876,67,82,Piano
321.75,0.41499515838981876,60,82,Piano
321.75,0.41499515838981876,55,82,Piano
321.75,0.41499515838981876,50,82,Piano
321.75,0.20749757919490938,70,76,Piano
321.75,0.20749757919490938,81,76,Piano
322.3333333333333,0.41499515838981876,50,102,Piano
322.3333333333333,0.41499515838981876,55,102,Piano
322.3333333333333,0.41499515838981876,60,102,Piano
322.3333333333333,0.41499515838981876,67,102,Piano
322.3333333333333,0.20749757919490938,70,100,Piano
322.3333333333333,0.20749757919490938,80,100,Piano
322.6666666666667,0.20749757919490938,70,58,Piano
322.6666666666667,0.20749757919490938,80,58,Piano
322.75,0.41499515838981876,67,82,Piano
322.75,0.41499515838981876,60,82,Piano
322.75,0.41499515838981876,55,82,Piano
322.75,0.41499515838981876,50,82,Piano
322.75,0.20749757919490938,81,69,Piano
322.75,0.20749757919490938,93,69,Piano
322.75,0.20749757919490938,70,77,Piano
322.75,0.20749757919490938,81,77,Piano
323.0,0.20749757919490938,83,63,Piano
323.0,0.20749757919490938,95,63,Piano
323.3333333333333,0.41499515838981876,50,92,Piano
323.3333333333333,0.41499515838981876,55,92,Piano
323.3333333333333,0.41499515838981876,60,92,Piano
323.3333333333333,0.41499515838981876,64,92,Piano
323.3333333333333,1.2449854751694562,84,77,Piano
323.3333333333333,1.2449854751694562,96,77,Piano
323.75,0.41499515838981876,64,82,Piano
323.75,0.41499515838981876,60,82,Piano
323.75,0.41499515838981876,55,82,Piano
323.75,0.41499515838981876,50,82,Piano
324.3333333333333,0.2050020500205002,50,92,Piano
324.3333333333333,0.2050020500205002,55,92,Piano
324.3333333333333,0.2050020500205002,60,92,Piano
324.3333333333333,0.2050020500205002,64,92,Piano
324.3333333333333,0.2050020500205002,70,89,Piano
324.3333333333333,0.2050020500205002,80,89,Piano
324.3333333333333,0.2050020500205002,53,89,Piano
324.5,0.5466721333880005,67,118,Piano
324.5,0.5466721333880005,64,118,Piano
324.6666666666667,0.2050020500205002,64,88,Piano
324.6666666666667,0.2050020500205002,60,88,Piano
324.6666666666667,0.2050020500205002,55,88,Piano
324.6666666666667,0.2050020500205002,50,88,Piano
324.6666666666667,0.2050020500205002,70,60,Piano
324.6666666666667,0.2050020500205002,80,60,Piano
324.75,0.4100041000410004,50,82,Piano
324.75,0.4100041000410004,55,82,Piano
324.75,0.4100041000410004,60,82,Piano
324.75,0.4100041000410004,64,82,Piano
324.75,0.2050020500205002,70,80,Piano
324.75,0.2050020500205002,81,80,Piano
325.0,0.2050020500205002,81,67,Piano
325.0,0.2050020500205002,93,67,Piano
325.25,0.2050020500205002,83,69,Piano
325.25,0.2050020500205002,95,69,Piano
325.3333333333333,0.4100041000410004,52,92,Piano
325.3333333333333,0.4100041000410004,55,92,Piano
325.3333333333333,0.4100041000410004,60,92,Piano
325.3333333333333,0.4100041000410004,64,92,Piano
325.3333333333333,0.8200082000820008,84,69,Piano
325.3333333333333,0.8200082000820008,96,69,Piano
325.3333333333333,0.2050020500205002,70,98,Piano
325.3333333333333,0.2050020500205002,80,98,Piano
325.6666666666667,0.2050020500205002,70,54,Piano
325.6666666666667,0.2050020500205002,80,54,Piano
325.75,0.4100041000410004,64,82,Piano
325.75,0.4100041000410004,60,82,Piano
325.75,0.4100041000410004,55,82,Piano
325.75,0.4100041000410004,52,82,Piano
325.75,0.2050020500205002,70,76,Piano
325.75,0.2050020500205002,81,76,Piano
326.3333333333333,0.4100041000410004,50,102,Piano
326.3333333333333,0.4100041000410004,57,102,Piano
326.3333333333333,0.4100041000410004,62,102,Piano
326.3333333333333,0.4100041000410004,66,102,Piano
326.3333333333333,0.8200082000820008,86,67,Piano
326.3333333333333,0.8200082000820008,98,67,Piano
326.3333333333333,0.2050020500205002,70,100,Piano
326.3333333333333,0.2050020500205002,80,100,Piano
326.6666666666667,0.2050020500205002,70,58,Piano
326.6666666666667,0.2050020500205002,80,58,Piano
326.75,0.4100041000410004,66,82,Piano
326.75,0.4100041000410004,62,82,Piano
326.75,0.4100041000410004,57,82,Piano
326.75,0.4100041000410004,50,82,Piano
326.75,0.2050020500205002,70,77,Piano
326.75,0.2050020500205002,81,77,Piano
327.3333333333333,0.4100041000410004,52,92,Piano
327.3333333333333,0.4100041000410004,55,92,Piano
327.3333333333333,0.4100041000410004,60,92,Piano
327.3333333333333,0.4100041000410004,64,92,Piano
327.3333333333333,0.8200082000820008,88,60,Piano
327.3333333333333,0.8200082000820008,100,60,Piano
327.3333333333333,0.2050020500205002,70,97,Piano
327.3333333333333,0.2050020500205002,80,97,Piano
327.6666666666667,0.2050020500205002,70,56,Piano
327.6666666666667,0.2050020500205002,80,56,Piano
327.75,0.4100041000410004,64,82,Piano
327.75,0.4100041000410004,60,82,Piano
327.75,0.4100041000410004,55,82,Piano
327.75,0.4100041000410004,52,82,Piano
327.75,0.2050020500205002,70,74,Piano
327.75,0.2050020500205002,81,74,Piano
328.3333333333333,0.4100041000410004,50,102,Piano
328.3333333333333,0.4100041000410004,57,102,Piano
328.3333333333333,0.4100041000410004,62,102,Piano
328.3333333333333,0.4100041000410004,66,102,Piano
328.3333333333333,0.8200082000820008,90,62,Piano
328.3333333333333,0.8200082000820008,102,62,Piano
328.3333333333333,0.2050020500205002,70,87,Piano
328.3333333333333,0.2050020500205002,80,87,Piano
328.3333333333333,0.2050020500205002,53,87,Piano
328.6666666666667,0.2050020500205002,70,60,Piano
328.6666666666667,0.2050020500205002,80,60,Piano
328.75,0.4100041000410004,66,82,Piano
328.75,0.4100041000410004,62,82,Piano
328.75,0.4100041000410004,57,82,Piano
328.75,0.4100041000410004,50,82,Piano
328.75,0.2050020500205002,70,80,Piano
328.75,0.2050020500205002,81,80,Piano
329.3333333333333,0.4100041000410004,71,122,Piano
329.3333333333333,0.4100041000410004,67,122,Piano
329.3333333333333,0.4100041000410004,50,92,Piano
329.3333333333333,0.4100041000410004,55,92,Piano
329.3333333333333,0.4100041000410004,59,92,Piano
329.3333333333333,0.4100041000410004,67,92,Piano
329.3333333333333,6.5600656006560065,91,67,Piano
329.3333333333333,6.5600656006560065,103,67,Piano
329.3333333333333,0.2050020500205002,70,98,Piano
329.3333333333333,0.2050020500205002,80,98,Piano
329.6666666666667,0.2050020500205002,70,54,Piano
329.6666666666667,0.2050020500205002,80,54,Piano
329.75,0.4100041000410004,67,82,Piano
329.75,0.4100041000410004,59,82,Piano
329.75,0.4100041000410004,55,82,Piano
329.75,0.4100041000410004,50,82,Piano
329.75,0.2050020500205002,70,76,Piano
329.75,0.2050020500205002,81,76,Piano
330.3333333333333,0.4100041000410004,50,102,Piano
330.3333333333333,0.4100041000410004,55,102,Piano
330.3333333333333,0.4100041000410004,59,102,Piano
330.3333333333333,0.4100041000410004,67,102,Piano
330.3333333333333,0.2050020500205002,70,100,Piano
330.3333333333333,0.2050020500205002,80,100,Piano
330.6666666666667,0.2050020500205002,70,58,Piano
330.6666666666667,0.2050020500205002,80,58,Piano
330.75,0.4100041000410004,67,82,Piano
330.75,0.4100041000410004,59,82,Piano
330.75,0.4100041000410004,55,82,Piano
330.75,0.4100041000410004,50,82,Piano
330.75,0.2050020500205002,70,77,Piano
330.75,0.2050020500205002,81,77,Piano
331.3333333333333,0.4100041000410004,53,92,Piano
331.3333333333333,0.4100041000410004,57,92,Piano
331.3333333333333,0.4100041000410004,60,92,Piano
331.3333333333333,0.4100041000410004,65,92,Piano
331.3333333333333,0.2050020500205002,70,97,Piano
331.3333333333333,0.2050020500205002,80,97,Piano
331.6666666666667,0.2050020500205002,70,56,Piano
331.6666666666667,0.2050020500205002,80,56,Piano
331.75,0.4100041000410004,65,82,Piano
331.75,0.4100041000410004,60,82,Piano
331.75,0.4100041000410004,57,82,Piano
331.75,0.4100041000410004,53,82,Piano
331.75,0.2050020500205002,70,74,Piano
331.75,0.2050020500205002,81,74,Piano
332.3333333333333,0.2050020500205002,53,92,Piano
332.3333333333333,0.2050020500205002,57,92,Piano
332.3333333333333,0.2050020500205002,60,92,Piano
332.3333333333333,0.2050020500205002,65,92,Piano
332.3333333333333,0.2050020500205002,70,96,Piano
332.3333333333333,0.2050020500205002,80,96,Piano
332.6666666666667,0.2050020500205002,65,88,Piano
332.6666666666667,0.2050020500205002,60,88,Piano
332.6666666666667,0.2050020500205002,57,88,Piano
332.6666666666667,0.2050020500205002,53,88,Piano
332.6666666666667,0.2050020500205002,70,60,Piano
332.6666666666667,0.2050020500205002,80,60,Piano
332.75,0.4100041000410004,53,82,Piano
332.75,0.4100041000410004,57,82,Piano
332.75,0.4100041000410004,60,82,Piano
332.75,0.4100041000410004,65,82,Piano
332.75,0.2050020500205002,70,80,Piano
332.75,0.2050020500205002,81,80,Piano
333.3333333333333,0.41499515838981876,67,81,Piano
333.3333333333333,0.41499515838981876,62,81,Piano
333.3333333333333,0.41499515838981876,50,92,Piano
333.3333333333333,0.41499515838981876,55,92,Piano
333.3333333333333,0.41499515838981876,59,92,Piano
333.3333333333333,0.41499515838981876,67,92,Piano
333.3333333333333,0.20749757919490938,70,94,Piano
333.3333333333333,0.20749757919490938,80,94,Piano
333.6666666666667,0.20749757919490938,70,52,Piano
333.6666666666667,0.20749757919490938,80,52,Piano
333.75,0.41499515838981876,67,82,Piano
333.75,0.41499515838981876,59,82,Piano
333.75,0.41499515838981876,55,82,Piano
333.75,0.41499515838981876,50,82,Piano
333.75,0.20749757919490938,70,78,Piano
333.75,0.20749757919490938,81,78,Piano
334.3333333333333,0.41499515838981876,50,102,Piano
334.3333333333333,0.41499515838981876,55,102,Piano
334.3333333333333,0.41499515838981876,59,102,Piano
334.3333333333333,0.41499515838981876,67,102,Piano
334.3333333333333,0.20749757919490938,70,96,Piano
334.3333333333333,0.20749757919490938,80,96,Piano
334.6666666666667,0.20749757919490938,70,52,Piano
334.6666666666667,0.20749757919490938,80,52,Piano
334.75,0.41499515838981876,67,82,Piano
334.75,0.41499515838981876,59,82,Piano
334.75,0.41499515838981876,55,82,Piano
334.75,0.41499515838981876,50,82,Piano
334.75,0.20749757919490938,70,69,Piano
334.75,0.20749757919490938,81,69,Piano
335.3333333333333,1.6400164001640016,53,92,Piano
335.3333333333333,1.6400164001640016,57,92,Piano
335.3333333333333,1.6400164001640016,60,92,Piano
335.3333333333333,1.6400164001640016,65,92,Piano
341.3333333333333,1.8450184501845017,66,77,Piano
341.3333333333333,1.8450184501845017,57,77,Piano
341.3333333333333,1.8450184501845017,62,77,Piano
345.3333333333333,1.659980633559275,62,60,Piano
345.3333333333333,1.659980633559275,55,60,Piano
347.75,0.41499515838981876,57,66,Piano
347.75,0.41499515838981876,62,66,Piano
348.6666666666667,0.41499515838981876,62,82,Piano
348.6666666666667,0.41499515838981876,57,82,Piano
349.3333333333333,0.6150061500615006,62,90,Piano
349.3333333333333,0.6150061500615006,57,90,Piano
351.3333333333333,0.5466721333880005,62,87,Piano
351.3333333333333,0.5466721333880005,54,87,Piano
352.3333333333333,0.4100041000410004,62,88,Piano
352.3333333333333,0.4100041000410004,55,88,Piano
353.3333333333333,2.870028700287003,33,55,Piano
353.3333333333333,2.870028700287003,45,55,Piano
357.3333333333333,1.1066537557061833,59,70,Piano
357.3333333333333,1.1066537557061833,66,70,Piano
357.3333333333333,1.1066537557061833,62,70,Piano
357.5,2.9049661087287313,32,62,Piano
357.5,2.9049661087287313,44,62,Piano
361.3333333333333,1.025010250102501,62,59,Piano
361.3333333333333,1.025010250102501,55,59,Piano
361.3333333333333,1.093344266776001,59,60,Piano
361.3333333333333,1.093344266776001,55,60,Piano
365.5,3.075030750307503,59,58,Piano
365.5,3.075030750307503,52,58,Piano
365.5,3.075030750307503,61,58,Piano
365.5,3.075030750307503,57,58,Piano
370.0,16.81016810168102,50,82,Piano
370.0,16.81016810168102,57,82,Piano
370.25,16.673500068334015,62,85,Piano
370.25,16.673500068334015,66,85,Piano
