Start,Duration,Pitch,Velocity,Instrument
12.0,1.3636363636363635,79,82,Piano
12.0,1.3636363636363635,72,82,Piano
12.0,1.3636363636363635,56,50,Piano
12.0,1.3636363636363635,60,50,Piano
12.0,1.3636363636363635,63,50,Piano
14.0,1.3636363636363635,80,79,Piano
14.0,1.3636363636363635,73,79,Piano
14.0,1.3636363636363635,77,79,Piano
14.0,1.3636363636363635,70,79,Piano
14.0,1.3636363636363635,58,50,Piano
14.0,1.3636363636363635,61,50,Piano
14.0,1.3636363636363635,65,50,Piano
16.0,1.3636363636363635,72,81,Piano
16.0,1.3636363636363635,79,81,Piano
16.0,1.3636363636363635,82,81,Piano
16.0,1.3636363636363635,75,81,Piano
16.0,1.3636363636363635,79,81,Piano
16.0,1.3636363636363635,82,81,Piano
16.0,1.3636363636363635,60,50,Piano
16.0,1.3636363636363635,63,50,Piano
16.0,1.3636363636363635,67,50,Piano
18.0,1.1931818181818181,73,78,Piano
18.0,1.1931818181818181,70,78,Piano
18.0,1.1931818181818181,80,78,Piano
18.0,1.1931818181818181,77,78,Piano
18.0,1.3636363636363635,58,50,Piano
18.0,1.3636363636363635,61,50,Piano
18.0,1.3636363636363635,65,50,Piano
20.0,1.3636363636363635,75,84,Piano
20.0,1.3636363636363635,72,84,Piano
20.0,1.3636363636363635,79,82,Piano
20.0,1.3636363636363635,68,82,Piano
20.0,1.3636363636363635,56,50,Piano
20.0,1.3636363636363635,60,50,Piano
20.0,1.3636363636363635,63,50,Piano
22.0,1.1931818181818181,80,82,Piano
22.0,1.1931818181818181,73,82,Piano
22.0,1.3636363636363635,70,77,Piano
22.0,1.3636363636363635,73,77,Piano
22.0,1.3636363636363635,77,77,Piano
22.0,1.3636363636363635,58,50,Piano
22.0,1.3636363636363635,61,50,Piano
22.0,1.3636363636363635,65,50,Piano
24.0,1.3636363636363635,82,87,Piano
24.0,1.3636363636363635,75,87,Piano
24.0,1.3636363636363635,79,87,Piano
24.0,1.3636363636363635,60,50,Piano
24.0,1.3636363636363635,63,50,Piano
24.0,1.3636363636363635,67,50,Piano
26.0,6.8181818181818175,70,83,Piano
26.0,6.8181818181818175,73,83,Piano
26.0,6.8181818181818175,80,83,Piano
26.0,6.8181818181818175,77,83,Piano
26.0,6.8181818181818175,58,50,Piano
26.0,6.8181818181818175,61,50,Piano
26.0,6.8181818181818175,65,50,Piano
36.0,1.3636363636363635,63,77,Piano
36.0,1.3636363636363635,55,77,Piano
36.0,1.3636363636363635,58,77,Piano
36.0,1.3636363636363635,60,77,Piano
36.0,1.3636363636363635,51,77,Piano
36.0,1.3636363636363635,44,77,Piano
36.0,1.3636363636363635,56,50,Piano
36.0,1.3636363636363635,60,50,Piano
36.0,1.3636363636363635,63,50,Piano
38.0,1.3636363636363635,46,77,Piano
38.0,1.3636363636363635,53,77,Piano
38.0,1.3636363636363635,61,77,Piano
38.0,1.3636363636363635,56,77,Piano
38.0,1.3636363636363635,60,78,Piano
38.0,1.3636363636363635,65,78,Piano
38.0,1.3636363636363635,58,50,Piano
38.0,1.3636363636363635,61,50,Piano
38.0,1.3636363636363635,65,50,Piano
40.0,1.3636363636363635,58,77,Piano
40.0,1.3636363636363635,67,77,Piano
40.0,1.3636363636363635,60,77,Piano
40.0,1.3636363636363635,63,77,Piano
40.0,1.3636363636363635,55,77,Piano
40.0,1.3636363636363635,60,50,Piano
40.0,1.3636363636363635,63,50,Piano
40.0,1.3636363636363635,67,50,Piano
42.0,1.3636363636363635,53,79,Piano
42.0,1.3636363636363635,57,79,Piano
42.0,1.3636363636363635,63,79,Piano
42.0,1.3636363636363635,66,79,Piano
42.0,1.3636363636363635,41,77,Piano
42.0,1.3636363636363635,60,77,Piano
42.0,1.3636363636363635,60,50,Piano
42.0,1.3636363636363635,63,50,Piano
42.0,1.3636363636363635,65,50,Piano
44.0,1.3636363636363635,60,76,Piano
44.0,1.3636363636363635,56,76,Piano
44.0,1.3636363636363635,65,76,Piano
44.0,1.3636363636363635,61,76,Piano
44.0,1.3636363636363635,46,80,Piano
44.0,1.3636363636363635,53,80,Piano
44.0,1.3636363636363635,58,50,Piano
44.0,1.3636363636363635,61,50,Piano
44.0,1.3636363636363635,65,50,Piano
46.0,1.1931818181818181,51,79,Piano
46.0,1.1931818181818181,58,79,Piano
46.0,0.6818181818181818,63,85,Piano
46.0,0.6818181818181818,67,85,Piano
46.0,0.6818181818181818,63,50,Piano
46.0,0.6818181818181818,67,50,Piano
47.0,0.6818181818181818,49,86,Piano
47.0,0.6818181818181818,65,86,Piano
47.0,0.6818181818181818,58,50,Piano
47.0,0.6818181818181818,65,50,Piano
48.0,1.1931818181818181,63,80,Piano
48.0,1.1931818181818181,58,80,Piano
48.0,1.1931818181818181,55,80,Piano
48.0,1.1931818181818181,48,80,Piano
48.0,1.3636363636363635,60,50,Piano
48.0,1.3636363636363635,63,50,Piano
48.0,1.3636363636363635,67,50,Piano
50.0,1.3636363636363635,56,79,Piano
50.0,1.3636363636363635,53,79,Piano
50.0,1.3636363636363635,41,79,Piano
50.0,1.3636363636363635,67,79,Piano
50.0,1.3636363636363635,63,79,Piano
50.0,1.3636363636363635,60,79,Piano
50.0,1.3636363636363635,60,50,Piano
50.0,1.3636363636363635,63,50,Piano
50.0,1.3636363636363635,65,50,Piano
52.0,1.1931818181818181,56,81,Piano
52.0,1.1931818181818181,65,81,Piano
52.0,1.1931818181818181,61,81,Piano
52.0,1.1931818181818181,60,81,Piano
52.0,1.3636363636363635,58,50,Piano
52.0,1.3636363636363635,61,50,Piano
52.0,1.3636363636363635,65,50,Piano
54.0,0.6818181818181818,61,82,Piano
54.0,0.6818181818181818,65,82,Piano
54.0,0.6818181818181818,43,82,Piano
54.0,0.6818181818181818,58,50,Piano
54.0,0.6818181818181818,61,50,Piano
54.0,0.6818181818181818,67,50,Piano
55.0,0.6818181818181818,60,82,Piano
55.0,0.6818181818181818,64,82,Piano
55.0,0.6818181818181818,58,50,Piano
55.0,0.6818181818181818,60,50,Piano
55.0,0.6818181818181818,64,50,Piano
56.0,1.3636363636363635,56,82,Piano
56.0,1.3636363636363635,67,82,Piano
56.0,1.3636363636363635,63,82,Piano
56.0,1.3636363636363635,60,82,Piano
56.0,1.3636363636363635,53,82,Piano
56.0,1.3636363636363635,41,82,Piano
56.0,2.727272727272727,60,50,Piano
56.0,2.727272727272727,63,50,Piano
56.0,2.727272727272727,65,50,Piano
58.0,1.1931818181818181,56,81,Piano
58.0,1.1931818181818181,65,81,Piano
58.0,1.1931818181818181,60,81,Piano
58.0,1.1931818181818181,51,81,Piano
58.0,1.1931818181818181,39,81,Piano
60.0,1.3636363636363635,56,79,Piano
60.0,1.3636363636363635,65,79,Piano
60.0,1.3636363636363635,58,79,Piano
60.0,2.727272727272727,38,82,Piano
60.0,2.727272727272727,50,82,Piano
60.0,1.3636363636363635,58,50,Piano
60.0,1.3636363636363635,61,50,Piano
60.0,1.3636363636363635,65,50,Piano
62.0,0.6818181818181818,58,50,Piano
62.0,0.6818181818181818,67,50,Piano
63.0,0.6818181818181818,65,82,Piano
63.0,0.6818181818181818,56,82,Piano
63.0,0.6818181818181818,56,50,Piano
63.0,0.6818181818181818,65,50,Piano
64.0,1.3636363636363635,56,80,Piano
64.0,1.3636363636363635,65,80,Piano
64.0,1.3636363636363635,61,80,Piano
64.0,2.727272727272727,39,82,Piano
64.0,2.727272727272727,51,82,Piano
64.0,1.3636363636363635,61,50,Piano
64.0,1.3636363636363635,65,50,Piano
64.0,1.3636363636363635,68,50,Piano
66.0,0.6818181818181818,63,81,Piano
66.0,0.6818181818181818,55,81,Piano
66.0,0.6818181818181818,60,81,Piano
66.0,0.6818181818181818,60,50,Piano
66.0,0.6818181818181818,63,50,Piano
66.0,0.6818181818181818,67,50,Piano
67.0,0.6818181818181818,58,50,Piano
67.0,0.6818181818181818,61,50,Piano
67.0,0.6818181818181818,65,50,Piano
68.0,1.3636363636363635,63,72,Piano
68.0,1.3636363636363635,55,72,Piano
68.0,1.3636363636363635,60,72,Piano
68.0,1.3636363636363635,58,72,Piano
68.0,1.3636363636363635,44,72,Piano
68.0,1.3636363636363635,51,72,Piano
68.0,1.3636363636363635,56,50,Piano
68.0,1.3636363636363635,60,50,Piano
68.0,1.3636363636363635,63,50,Piano
70.0,1.3636363636363635,46,75,Piano
70.0,1.3636363636363635,53,75,Piano
70.0,1.3636363636363635,65,75,Piano
70.0,1.3636363636363635,56,75,Piano
70.0,1.3636363636363635,61,75,Piano
70.0,1.3636363636363635,60,75,Piano
70.0,1.3636363636363635,58,50,Piano
70.0,1.3636363636363635,61,50,Piano
70.0,1.3636363636363635,65,50,Piano
72.0,1.3636363636363635,67,74,Piano
72.0,1.3636363636363635,60,74,Piano
72.0,1.3636363636363635,48,74,Piano
72.0,1.1931818181818181,58,75,Piano
72.0,1.1931818181818181,63,75,Piano
72.0,1.1931818181818181,55,75,Piano
72.0,1.3636363636363635,60,50,Piano
72.0,1.3636363636363635,63,50,Piano
72.0,1.3636363636363635,67,50,Piano
74.0,1.3636363636363635,53,74,Piano
74.0,1.3636363636363635,41,74,Piano
74.0,1.3636363636363635,57,74,Piano
74.0,1.3636363636363635,60,74,Piano
74.0,1.3636363636363635,66,77,Piano
74.0,1.3636363636363635,57,77,Piano
74.0,1.3636363636363635,63,77,Piano
74.0,1.3636363636363635,60,77,Piano
74.0,1.3636363636363635,60,50,Piano
74.0,1.3636363636363635,63,50,Piano
74.0,1.3636363636363635,65,50,Piano
76.0,1.3636363636363635,56,76,Piano
76.0,1.3636363636363635,65,76,Piano
76.0,1.3636363636363635,61,76,Piano
76.0,1.3636363636363635,60,76,Piano
76.0,1.3636363636363635,46,76,Piano
76.0,1.3636363636363635,53,76,Piano
76.0,1.3636363636363635,58,50,Piano
76.0,1.3636363636363635,61,50,Piano
76.0,1.3636363636363635,65,50,Piano
78.0,0.6818181818181818,51,81,Piano
78.0,0.6818181818181818,67,81,Piano
78.0,0.6818181818181818,63,81,Piano
78.0,0.6818181818181818,63,50,Piano
78.0,0.6818181818181818,67,50,Piano
79.0,0.6818181818181818,49,83,Piano
79.0,0.6818181818181818,65,83,Piano
79.0,0.6818181818181818,58,50,Piano
79.0,0.6818181818181818,65,50,Piano
80.0,1.3636363636363635,58,79,Piano
80.0,1.3636363636363635,63,79,Piano
80.0,1.3636363636363635,48,79,Piano
80.0,1.3636363636363635,55,70,Piano
80.0,1.3636363636363635,48,70,Piano
80.0,1.3636363636363635,60,50,Piano
80.0,1.3636363636363635,63,50,Piano
80.0,1.3636363636363635,67,50,Piano
82.0,1.1931818181818181,53,72,Piano
82.0,1.1931818181818181,56,72,Piano
82.0,1.3636363636363635,41,75,Piano
82.0,1.3636363636363635,56,75,Piano
82.0,1.3636363636363635,67,75,Piano
82.0,1.3636363636363635,63,75,Piano
82.0,1.3636363636363635,60,75,Piano
82.0,1.3636363636363635,60,50,Piano
82.0,1.3636363636363635,63,50,Piano
82.0,1.3636363636363635,65,50,Piano
84.0,1.3636363636363635,65,75,Piano
84.0,1.3636363636363635,56,75,Piano
84.0,1.3636363636363635,61,75,Piano
84.0,1.3636363636363635,60,75,Piano
84.0,1.3636363636363635,46,75,Piano
84.0,1.3636363636363635,58,50,Piano
84.0,1.3636363636363635,61,50,Piano
84.0,1.3636363636363635,65,50,Piano
86.0,1.3636363636363635,39,77,Piano
86.0,1.3636363636363635,65,77,Piano
86.0,1.3636363636363635,61,77,Piano
86.0,1.3636363636363635,55,78,Piano
86.0,1.3636363636363635,65,78,Piano
86.0,1.3636363636363635,60,78,Piano
86.0,1.3636363636363635,58,50,Piano
86.0,1.3636363636363635,63,50,Piano
86.0,1.3636363636363635,67,50,Piano
88.0,1.3636363636363635,63,74,Piano
88.0,1.3636363636363635,55,74,Piano
88.0,1.3636363636363635,60,74,Piano
88.0,1.3636363636363635,58,74,Piano
88.0,1.3636363636363635,56,50,Piano
88.0,1.3636363636363635,60,50,Piano
88.0,1.3636363636363635,63,50,Piano
90.0,1.3636363636363635,41,74,Piano
90.0,1.3636363636363635,60,74,Piano
90.0,1.3636363636363635,56,78,Piano
90.0,1.3636363636363635,63,78,Piano
90.0,1.3636363636363635,60,50,Piano
90.0,1.3636363636363635,63,50,Piano
90.0,1.3636363636363635,65,50,Piano
92.0,1.3636363636363635,65,78,Piano
92.0,1.3636363636363635,56,78,Piano
92.0,1.3636363636363635,60,78,Piano
92.0,1.3636363636363635,46,78,Piano
92.0,1.1931818181818181,61,72,Piano
92.0,1.1931818181818181,60,72,Piano
92.0,1.3636363636363635,58,50,Piano
92.0,1.3636363636363635,61,50,Piano
92.0,1.3636363636363635,65,50,Piano
94.0,1.3636363636363635,49,75,Piano
94.0,1.3636363636363635,64,75,Piano
94.0,1.3636363636363635,56,75,Piano
94.0,1.3636363636363635,61,50,Piano
94.0,1.3636363636363635,64,50,Piano
94.0,1.3636363636363635,68,50,Piano
96.0,2.727272727272727,63,78,Piano
96.0,2.727272727272727,60,78,Piano
96.0,2.727272727272727,44,78,Piano
96.0,2.5568181818181817,55,63,Piano
96.0,2.5568181818181817,60,63,Piano
96.0,2.5568181818181817,58,63,Piano
96.0,2.727272727272727,51,76,Piano
96.0,2.727272727272727,44,76,Piano
96.0,2.727272727272727,56,50,Piano
96.0,2.727272727272727,60,50,Piano
96.0,2.727272727272727,63,50,Piano
100.0,0.3409090909090909,56,73,Piano
100.0,0.3409090909090909,63,73,Piano
100.0,0.3409090909090909,60,73,Piano
100.0,0.0,36,84,Piano
100.0,0.0,42,84,Piano
100.0,2.727272727272727,58,50,Piano
100.0,2.727272727272727,61,50,Piano
100.0,2.727272727272727,65,50,Piano
101.0,0.3409090909090909,56,71,Piano
101.0,0.3409090909090909,60,71,Piano
101.0,0.3409090909090909,63,71,Piano
102.0,0.3409090909090909,56,66,Piano
102.0,0.3409090909090909,60,66,Piano
102.0,0.3409090909090909,63,71,Piano
102.0,0.3409090909090909,60,71,Piano
102.0,0.0,40,71,Piano
102.0,0.0,42,71,Piano
103.0,0.3409090909090909,60,73,Piano
103.0,0.3409090909090909,63,73,Piano
103.5,0.0,36,42,Piano
103.5,0.0,42,42,Piano
104.0,0.3409090909090909,58,82,Piano
104.0,0.3409090909090909,63,82,Piano
104.0,0.0,36,84,Piano
104.0,0.0,42,84,Piano
104.0,2.727272727272727,60,50,Piano
104.0,2.727272727272727,63,50,Piano
104.0,2.727272727272727,67,50,Piano
105.0,0.3409090909090909,63,82,Piano
105.0,0.3409090909090909,58,82,Piano
106.0,0.3409090909090909,63,82,Piano
106.0,0.3409090909090909,58,82,Piano
106.0,0.0,40,71,Piano
106.0,0.0,42,71,Piano
107.0,0.3409090909090909,63,83,Piano
107.0,0.3409090909090909,58,83,Piano
107.5,0.0,42,42,Piano
107.5,0.0,36,42,Piano
108.0,0.3409090909090909,63,78,Piano
108.0,0.3409090909090909,58,78,Piano
108.0,0.3409090909090909,61,78,Piano
108.0,0.0,36,84,Piano
108.0,0.0,42,84,Piano
108.0,2.727272727272727,58,50,Piano
108.0,2.727272727272727,61,50,Piano
108.0,2.727272727272727,65,50,Piano
109.0,0.3409090909090909,58,76,Piano
109.0,0.3409090909090909,61,76,Piano
109.0,0.3409090909090909,63,76,Piano
110.0,0.3409090909090909,63,81,Piano
110.0,0.3409090909090909,58,81,Piano
110.0,0.3409090909090909,61,81,Piano
110.0,0.0,40,71,Piano
110.0,0.0,42,71,Piano
111.0,0.3409090909090909,63,80,Piano
111.0,0.3409090909090909,61,80,Piano
111.5,0.0,42,42,Piano
111.5,0.0,36,42,Piano
112.0,0.3409090909090909,65,83,Piano
112.0,0.3409090909090909,61,83,Piano
112.0,0.0,36,84,Piano
112.0,0.0,42,84,Piano
112.0,1.3636363636363635,58,50,Piano
112.0,1.3636363636363635,61,50,Piano
112.0,1.3636363636363635,65,50,Piano
113.0,0.3409090909090909,61,82,Piano
113.0,0.3409090909090909,65,82,Piano
114.0,0.6818181818181818,64,83,Piano
114.0,0.6818181818181818,48,83,Piano
114.0,0.0,40,71,Piano
114.0,0.0,42,71,Piano
114.0,1.3636363636363635,58,50,Piano
114.0,1.3636363636363635,60,50,Piano
114.0,1.3636363636363635,64,50,Piano
115.0,0.3409090909090909,65,75,Piano
115.0,0.3409090909090909,50,75,Piano
115.5,0.3409090909090909,67,76,Piano
115.5,0.3409090909090909,52,76,Piano
116.0,0.0,36,73,Piano
116.0,0.0,49,73,Piano
116.0,0.0,44,73,Piano
116.0,2.727272727272727,60,50,Piano
116.0,2.727272727272727,65,50,Piano
116.0,2.727272727272727,68,50,Piano
117.0,0.6818181818181818,68,78,Piano
117.0,0.6818181818181818,65,78,Piano
117.0,0.6818181818181818,84,60,Piano
117.0,0.6818181818181818,77,60,Piano
118.0,0.0,36,63,Piano
118.0,0.0,42,63,Piano
119.0,0.6818181818181818,84,61,Piano
119.0,0.6818181818181818,77,61,Piano
120.0,0.0,36,63,Piano
120.0,0.0,42,63,Piano
120.0,1.3636363636363635,61,50,Piano
120.0,1.3636363636363635,65,50,Piano
120.0,1.3636363636363635,68,50,Piano
121.0,0.6818181818181818,65,78,Piano
121.0,0.6818181818181818,60,78,Piano
121.0,0.6818181818181818,84,64,Piano
121.0,0.6818181818181818,77,64,Piano
122.0,0.6818181818181818,58,76,Piano
122.0,0.6818181818181818,48,76,Piano
122.0,0.6818181818181818,82,66,Piano
122.0,0.6818181818181818,75,66,Piano
122.0,0.0,36,63,Piano
122.0,0.0,42,63,Piano
122.0,0.6818181818181818,60,50,Piano
122.0,0.6818181818181818,63,50,Piano
123.0,0.6818181818181818,56,72,Piano
123.0,0.6818181818181818,53,72,Piano
123.0,0.6818181818181818,75,60,Piano
123.0,0.6818181818181818,68,60,Piano
123.0,0.6818181818181818,60,50,Piano
123.0,0.6818181818181818,65,50,Piano
124.0,2.727272727272727,56,75,Piano
124.0,2.727272727272727,65,75,Piano
124.0,2.727272727272727,58,75,Piano
124.0,2.727272727272727,61,75,Piano
124.0,2.727272727272727,42,70,Piano
124.0,2.727272727272727,58,70,Piano
124.0,2.727272727272727,49,70,Piano
124.0,2.727272727272727,61,70,Piano
124.0,1.3636363636363635,80,67,Piano
124.0,1.3636363636363635,73,67,Piano
124.0,0.0,36,77,Piano
124.0,0.0,49,77,Piano
124.0,2.727272727272727,58,50,Piano
124.0,2.727272727272727,61,50,Piano
124.0,2.727272727272727,66,50,Piano
126.0,0.6818181818181818,70,73,Piano
126.0,0.6818181818181818,77,73,Piano
126.0,0.0,36,77,Piano
126.0,0.0,57,77,Piano
127.0,0.6818181818181818,66,68,Piano
127.0,0.6818181818181818,73,68,Piano
128.0,2.727272727272727,39,82,Piano
128.0,2.727272727272727,51,82,Piano
128.0,2.0454545454545454,70,58,Piano
128.0,2.0454545454545454,63,58,Piano
128.0,0.0,36,77,Piano
128.0,0.0,49,77,Piano
128.0,2.727272727272727,61,50,Piano
128.0,2.727272727272727,65,50,Piano
128.0,2.727272727272727,68,50,Piano
129.0,0.6818181818181818,56,79,Piano
129.0,0.6818181818181818,61,79,Piano
129.0,0.6818181818181818,65,79,Piano
129.5,0.0,48,85,Piano
129.5,0.0,48,85,Piano
130.0,0.6818181818181818,63,75,Piano
130.0,0.6818181818181818,60,75,Piano
130.0,0.6818181818181818,55,75,Piano
131.0,0.6818181818181818,61,76,Piano
131.0,0.6818181818181818,53,76,Piano
132.0,0.3409090909090909,56,70,Piano
132.0,0.3409090909090909,63,70,Piano
132.0,0.3409090909090909,60,70,Piano
132.0,0.0,36,84,Piano
132.0,0.0,42,84,Piano
132.0,2.727272727272727,61,50,Piano
132.0,2.727272727272727,65,50,Piano
132.0,2.727272727272727,68,50,Piano
133.0,0.3409090909090909,56,71,Piano
133.0,0.3409090909090909,63,71,Piano
133.0,0.3409090909090909,60,71,Piano
134.0,0.3409090909090909,56,71,Piano
134.0,0.3409090909090909,63,71,Piano
134.0,0.3409090909090909,60,71,Piano
134.0,0.0,40,71,Piano
134.0,0.0,42,71,Piano
135.0,0.3409090909090909,56,73,Piano
135.0,0.3409090909090909,60,73,Piano
135.0,0.3409090909090909,63,73,Piano
135.5,0.0,36,42,Piano
135.5,0.0,42,42,Piano
136.0,0.4545454545454545,58,74,Piano
136.0,0.4545454545454545,60,74,Piano
136.0,0.4545454545454545,63,74,Piano
136.0,0.0,36,84,Piano
136.0,0.0,42,84,Piano
136.0,1.3636363636363635,60,50,Piano
136.0,1.3636363636363635,63,50,Piano
136.0,1.3636363636363635,68,50,Piano
137.0,0.3409090909090909,58,76,Piano
137.0,0.3409090909090909,63,76,Piano
138.0,0.6818181818181818,60,82,Piano
138.0,0.6818181818181818,64,82,Piano
138.0,1.3636363636363635,58,74,Piano
138.0,1.3636363636363635,43,74,Piano
138.0,0.0,40,71,Piano
138.0,0.0,42,71,Piano
138.0,1.3636363636363635,60,50,Piano
138.0,1.3636363636363635,64,50,Piano
138.0,1.3636363636363635,67,50,Piano
139.0,0.3409090909090909,65,80,Piano
139.0,0.3409090909090909,62,80,Piano
139.5,0.3409090909090909,64,80,Piano
139.5,0.3409090909090909,67,80,Piano
139.5,0.0,36,42,Piano
139.5,0.0,42,42,Piano
140.0,0.0,36,73,Piano
140.0,0.0,49,73,Piano
140.0,0.0,44,73,Piano
140.0,1.3636363636363635,60,50,Piano
140.0,1.3636363636363635,65,50,Piano
140.0,1.3636363636363635,68,50,Piano
141.0,0.5113636363636364,68,77,Piano
141.0,0.5113636363636364,65,77,Piano
142.0,0.0,36,63,Piano
142.0,0.0,42,63,Piano
142.0,1.3636363636363635,60,50,Piano
142.0,1.3636363636363635,63,50,Piano
142.0,1.3636363636363635,67,50,Piano
143.0,0.6818181818181818,67,75,Piano
143.0,0.6818181818181818,60,75,Piano
144.0,0.0,36,63,Piano
144.0,0.0,42,63,Piano
144.0,2.727272727272727,61,50,Piano
144.0,2.727272727272727,65,50,Piano
144.0,2.727272727272727,68,50,Piano
146.0,1.0227272727272727,72,78,Piano
146.0,1.0227272727272727,65,78,Piano
148.0,2.5568181818181817,55,84,Piano
148.0,2.5568181818181817,58,84,Piano
148.0,0.0,36,77,Piano
148.0,0.0,57,77,Piano
148.0,2.727272727272727,60,50,Piano
148.0,2.727272727272727,63,50,Piano
148.0,2.727272727272727,67,50,Piano
148.0,2.5568181818181817,55,78,Piano
148.0,2.5568181818181817,58,78,Piano
152.0,0.909090909090909,67,77,Piano
152.0,0.909090909090909,63,77,Piano
152.0,0.909090909090909,41,77,Piano
152.0,0.8522727272727272,56,88,Piano
152.0,0.8522727272727272,51,88,Piano
152.0,0.8522727272727272,60,88,Piano
152.0,0.8522727272727272,41,88,Piano
152.0,0.0,36,77,Piano
152.0,0.0,57,77,Piano
152.0,2.727272727272727,60,50,Piano
152.0,2.727272727272727,63,50,Piano
152.0,2.727272727272727,65,50,Piano
152.0,0.8522727272727272,56,84,Piano
152.0,0.8522727272727272,51,84,Piano
152.0,0.8522727272727272,60,84,Piano
152.0,0.8522727272727272,41,84,Piano
153.5,1.7045454545454544,68,73,Piano
153.5,1.7045454545454544,60,73,Piano
153.5,1.7045454545454544,53,73,Piano
153.5,1.5909090909090908,63,71,Piano
153.5,1.5909090909090908,60,71,Piano
153.5,1.5909090909090908,53,71,Piano
153.5,1.534090909090909,56,88,Piano
153.5,1.534090909090909,60,88,Piano
153.5,1.534090909090909,51,88,Piano
153.5,1.534090909090909,41,88,Piano
153.5,0.0,36,70,Piano
153.5,0.0,49,70,Piano
153.5,1.534090909090909,56,83,Piano
153.5,1.534090909090909,60,83,Piano
153.5,1.534090909090909,51,83,Piano
153.5,1.534090909090909,41,83,Piano
155.0,0.0,45,71,Piano
155.0,0.0,48,71,Piano
156.0,1.0227272727272727,56,81,Piano
156.0,1.0227272727272727,65,81,Piano
156.0,1.0227272727272727,46,81,Piano
156.0,1.0227272727272727,61,81,Piano
156.0,0.909090909090909,56,91,Piano
156.0,0.909090909090909,61,91,Piano
156.0,0.909090909090909,46,91,Piano
156.0,0.909090909090909,53,91,Piano
156.0,0.0,36,77,Piano
156.0,0.0,57,77,Piano
156.0,2.727272727272727,58,50,Piano
156.0,2.727272727272727,61,50,Piano
156.0,2.727272727272727,65,50,Piano
156.0,0.909090909090909,56,86,Piano
156.0,0.909090909090909,61,86,Piano
156.0,0.909090909090909,46,86,Piano
156.0,0.909090909090909,53,86,Piano
157.5,1.5909090909090908,56,83,Piano
157.5,1.5909090909090908,65,83,Piano
157.5,1.5909090909090908,61,83,Piano
157.5,1.534090909090909,61,84,Piano
157.5,1.534090909090909,56,84,Piano
157.5,1.534090909090909,46,84,Piano
157.5,0.0,36,70,Piano
157.5,0.0,49,70,Piano
157.5,1.534090909090909,61,79,Piano
157.5,1.534090909090909,56,79,Piano
157.5,1.534090909090909,46,79,Piano
160.0,2.5568181818181817,37,80,Piano
160.0,2.5568181818181817,64,80,Piano
160.0,2.5568181818181817,56,75,Piano
160.0,2.5568181818181817,49,75,Piano
160.0,0.0,36,77,Piano
160.0,0.0,57,77,Piano
160.0,2.727272727272727,60,50,Piano
160.0,2.727272727272727,64,50,Piano
160.0,2.727272727272727,68,50,Piano
164.0,2.5568181818181817,53,75,Piano
164.0,2.5568181818181817,58,75,Piano
164.0,2.5568181818181817,63,75,Piano
164.0,2.5568181818181817,51,75,Piano
164.0,2.5568181818181817,44,75,Piano
164.0,2.5568181818181817,60,75,Piano
164.0,0.0,36,77,Piano
164.0,0.0,49,77,Piano
164.0,2.727272727272727,60,50,Piano
164.0,2.727272727272727,63,50,Piano
164.0,2.727272727272727,68,50,Piano
168.0,1.3636363636363635,79,82,Piano
168.0,1.3636363636363635,72,82,Piano
168.0,0.0,36,77,Piano
168.0,0.0,57,77,Piano
168.0,1.3636363636363635,56,50,Piano
168.0,1.3636363636363635,60,50,Piano
168.0,1.3636363636363635,63,50,Piano
170.0,1.3636363636363635,80,79,Piano
170.0,1.3636363636363635,73,79,Piano
170.0,1.3636363636363635,77,79,Piano
170.0,1.3636363636363635,70,79,Piano
170.0,0.0,36,77,Piano
170.0,0.0,42,77,Piano
170.0,1.3636363636363635,58,50,Piano
170.0,1.3636363636363635,61,50,Piano
170.0,1.3636363636363635,65,50,Piano
172.0,1.3636363636363635,72,81,Piano
172.0,1.3636363636363635,79,81,Piano
172.0,1.3636363636363635,82,81,Piano
172.0,1.3636363636363635,75,81,Piano
172.0,1.3636363636363635,79,81,Piano
172.0,1.3636363636363635,82,81,Piano
172.0,0.0,36,77,Piano
172.0,0.0,42,77,Piano
172.0,1.3636363636363635,60,50,Piano
172.0,1.3636363636363635,63,50,Piano
172.0,1.3636363636363635,67,50,Piano
174.0,1.1931818181818181,73,78,Piano
174.0,1.1931818181818181,70,78,Piano
174.0,1.1931818181818181,80,78,Piano
174.0,1.1931818181818181,77,78,Piano
174.0,0.0,36,77,Piano
174.0,0.0,42,77,Piano
174.0,1.3636363636363635,58,50,Piano
174.0,1.3636363636363635,61,50,Piano
174.0,1.3636363636363635,65,50,Piano
176.0,1.3636363636363635,75,84,Piano
176.0,1.3636363636363635,72,84,Piano
176.0,1.3636363636363635,79,82,Piano
176.0,1.3636363636363635,68,82,Piano
176.0,0.0,36,77,Piano
176.0,0.0,42,77,Piano
176.0,1.3636363636363635,56,50,Piano
176.0,1.3636363636363635,60,50,Piano
176.0,1.3636363636363635,63,50,Piano
178.0,1.1931818181818181,80,82,Piano
178.0,1.1931818181818181,73,82,Piano
178.0,1.3636363636363635,70,77,Piano
178.0,1.3636363636363635,73,77,Piano
178.0,1.3636363636363635,77,77,Piano
178.0,0.0,36,77,Piano
178.0,0.0,42,77,Piano
178.0,1.3636363636363635,58,50,Piano
178.0,1.3636363636363635,61,50,Piano
178.0,1.3636363636363635,65,50,Piano
180.0,1.3636363636363635,82,87,Piano
180.0,1.3636363636363635,75,87,Piano
180.0,1.3636363636363635,79,87,Piano
180.0,0.0,36,77,Piano
180.0,0.0,42,77,Piano
180.0,1.3636363636363635,60,50,Piano
180.0,1.3636363636363635,63,50,Piano
180.0,1.3636363636363635,67,50,Piano
182.0,5.625,70,83,Piano
182.0,5.625,73,83,Piano
182.0,5.625,80,83,Piano
182.0,5.625,77,83,Piano
182.0,6.8181818181818175,46,87,Piano
182.0,6.8181818181818175,53,87,Piano
182.0,6.6477272727272725,61,96,Piano
182.0,6.6477272727272725,68,96,Piano
182.0,0.0,36,63,Piano
182.0,0.0,49,63,Piano
182.0,0.0,57,63,Piano
182.0,5.625,58,50,Piano
182.0,5.625,61,50,Piano
182.0,5.625,65,50,Piano
182.0,6.8181818181818175,46,82,Piano
182.0,6.8181818181818175,53,82,Piano
182.0,6.6477272727272725,61,91,Piano
182.0,6.6477272727272725,68,91,Piano
192.0,1.3636363636363635,63,60,Piano
192.0,1.3636363636363635,60,60,Piano
192.0,0.0,36,77,Piano
192.0,0.0,42,77,Piano
192.0,1.3636363636363635,56,50,Piano
192.0,1.3636363636363635,60,50,Piano
192.0,1.3636363636363635,63,50,Piano
193.0,0.8522727272727272,63,73,Piano
193.0,0.8522727272727272,58,73,Piano
193.0,0.0,42,85,Piano
193.0,0.0,40,85,Piano
193.5,0.0,36,42,Piano
193.5,0.0,42,42,Piano
194.0,1.3636363636363635,65,59,Piano
194.0,1.3636363636363635,61,59,Piano
194.0,0.0,36,77,Piano
194.0,0.0,42,77,Piano
194.0,1.3636363636363635,58,50,Piano
194.0,1.3636363636363635,61,50,Piano
194.0,1.3636363636363635,65,50,Piano
195.0,0.6818181818181818,65,61,Piano
195.0,0.6818181818181818,61,61,Piano
195.0,0.6818181818181818,60,61,Piano
195.0,0.0,42,85,Piano
195.0,0.0,40,85,Piano
196.0,1.3636363636363635,63,59,Piano
196.0,1.3636363636363635,67,59,Piano
196.0,0.0,36,77,Piano
196.0,0.0,42,77,Piano
196.0,1.3636363636363635,60,50,Piano
196.0,1.3636363636363635,63,50,Piano
196.0,1.3636363636363635,67,50,Piano
197.0,0.8522727272727272,67,66,Piano
197.0,0.8522727272727272,63,66,Piano
197.0,0.8522727272727272,60,66,Piano
197.0,0.0,42,85,Piano
197.0,0.0,40,85,Piano
197.5,0.0,36,42,Piano
197.5,0.0,42,42,Piano
198.0,1.3636363636363635,66,56,Piano
198.0,1.3636363636363635,63,56,Piano
198.0,0.0,36,77,Piano
198.0,0.0,42,77,Piano
198.0,1.3636363636363635,60,50,Piano
198.0,1.3636363636363635,63,50,Piano
198.0,1.3636363636363635,65,50,Piano
199.0,0.6818181818181818,63,67,Piano
199.0,0.6818181818181818,66,67,Piano
199.0,0.6818181818181818,60,67,Piano
199.0,0.0,40,85,Piano
199.0,0.0,42,85,Piano
200.0,1.3636363636363635,65,58,Piano
200.0,1.3636363636363635,61,58,Piano
200.0,0.0,36,77,Piano
200.0,0.0,42,77,Piano
200.0,1.3636363636363635,58,50,Piano
200.0,1.3636363636363635,61,50,Piano
200.0,1.3636363636363635,65,50,Piano
201.0,0.6818181818181818,65,68,Piano
201.0,0.6818181818181818,61,68,Piano
201.0,0.6818181818181818,60,68,Piano
201.0,0.0,42,85,Piano
201.0,0.0,40,85,Piano
201.5,0.0,36,42,Piano
201.5,0.0,42,42,Piano
202.0,0.6818181818181818,67,75,Piano
202.0,0.6818181818181818,63,75,Piano
202.0,0.6818181818181818,51,75,Piano
202.0,1.3636363636363635,67,61,Piano
202.0,1.3636363636363635,63,61,Piano
202.0,0.0,36,77,Piano
202.0,0.0,42,77,Piano
202.0,1.3636363636363635,58,50,Piano
202.0,1.3636363636363635,63,50,Piano
202.0,1.3636363636363635,67,50,Piano
203.0,0.6818181818181818,49,72,Piano
203.0,0.6818181818181818,65,72,Piano
203.0,0.0,40,85,Piano
203.0,0.0,42,85,Piano
204.0,1.3636363636363635,63,62,Piano
204.0,1.3636363636363635,58,62,Piano
204.0,0.0,36,77,Piano
204.0,0.0,42,77,Piano
204.0,1.3636363636363635,60,50,Piano
204.0,1.3636363636363635,63,50,Piano
204.0,1.3636363636363635,67,50,Piano
205.0,0.6818181818181818,63,70,Piano
205.0,0.6818181818181818,58,70,Piano
205.0,0.0,42,85,Piano
205.0,0.0,40,85,Piano
205.5,0.0,36,42,Piano
205.5,0.0,42,42,Piano
206.0,1.3636363636363635,63,62,Piano
206.0,1.3636363636363635,56,62,Piano
206.0,0.0,36,77,Piano
206.0,0.0,42,77,Piano
206.0,1.3636363636363635,60,50,Piano
206.0,1.3636363636363635,63,50,Piano
206.0,1.3636363636363635,65,50,Piano
207.0,0.6818181818181818,63,68,Piano
207.0,0.6818181818181818,67,68,Piano
207.0,0.6818181818181818,60,68,Piano
208.0,2.0454545454545454,65,66,Piano
208.0,2.0454545454545454,61,66,Piano
208.0,0.0,36,77,Piano
208.0,0.0,42,77,Piano
208.0,1.3636363636363635,58,50,Piano
208.0,1.3636363636363635,61,50,Piano
208.0,1.3636363636363635,65,50,Piano
209.0,0.6818181818181818,65,73,Piano
209.0,0.6818181818181818,61,73,Piano
209.0,0.6818181818181818,60,73,Piano
209.0,0.0,42,85,Piano
209.0,0.0,40,85,Piano
209.5,0.0,42,42,Piano
209.5,0.0,36,42,Piano
210.0,0.5113636363636364,43,86,Piano
210.0,0.5113636363636364,49,86,Piano
210.0,0.5113636363636364,58,94,Piano
210.0,0.5113636363636364,64,94,Piano
210.0,0.0,36,77,Piano
210.0,0.0,42,77,Piano
210.0,0.6818181818181818,58,50,Piano
210.0,0.6818181818181818,61,50,Piano
210.0,0.6818181818181818,65,50,Piano
210.0,0.5113636363636364,43,81,Piano
210.0,0.5113636363636364,49,81,Piano
210.0,0.5113636363636364,58,88,Piano
210.0,0.5113636363636364,64,88,Piano
211.0,0.6818181818181818,64,70,Piano
211.0,0.6818181818181818,60,70,Piano
211.0,0.6818181818181818,48,76,Piano
211.0,0.6818181818181818,52,76,Piano
211.0,0.6818181818181818,58,84,Piano
211.0,0.6818181818181818,60,84,Piano
211.0,0.6818181818181818,60,61,Piano
211.0,0.6818181818181818,64,61,Piano
211.0,0.0,42,85,Piano
211.0,0.0,40,85,Piano
211.0,0.6818181818181818,60,50,Piano
211.0,0.6818181818181818,64,50,Piano
211.0,0.6818181818181818,67,50,Piano
211.0,0.6818181818181818,48,71,Piano
211.0,0.6818181818181818,52,71,Piano
211.0,0.6818181818181818,58,79,Piano
211.0,0.6818181818181818,60,79,Piano
212.0,1.1931818181818181,53,78,Piano
212.0,1.1931818181818181,41,78,Piano
212.0,1.3636363636363635,63,60,Piano
212.0,1.3636363636363635,60,60,Piano
212.0,0.0,36,77,Piano
212.0,0.0,42,77,Piano
212.0,2.727272727272727,60,50,Piano
212.0,2.727272727272727,63,50,Piano
212.0,2.727272727272727,65,50,Piano
213.0,0.0,42,85,Piano
213.0,0.0,40,85,Piano
213.5,0.0,36,42,Piano
213.5,0.0,42,42,Piano
214.0,1.3636363636363635,56,56,Piano
214.0,1.3636363636363635,60,56,Piano
214.0,0.0,36,77,Piano
214.0,0.0,42,77,Piano
215.0,0.6818181818181818,65,78,Piano
215.0,0.6818181818181818,60,78,Piano
215.0,0.0,42,85,Piano
215.0,0.0,40,85,Piano
216.0,2.727272727272727,50,75,Piano
216.0,2.727272727272727,38,75,Piano
216.0,0.6818181818181818,58,62,Piano
216.0,0.6818181818181818,62,62,Piano
216.0,0.0,36,77,Piano
216.0,0.0,42,77,Piano
216.0,2.727272727272727,58,50,Piano
216.0,2.727272727272727,62,50,Piano
216.0,2.727272727272727,65,50,Piano
217.0,0.6818181818181818,65,64,Piano
217.0,0.6818181818181818,62,64,Piano
217.0,0.0,42,85,Piano
217.0,0.0,40,85,Piano
217.5,0.0,36,42,Piano
217.5,0.0,42,42,Piano
218.0,0.6818181818181818,70,67,Piano
218.0,0.6818181818181818,67,67,Piano
218.0,0.0,36,77,Piano
218.0,0.0,42,77,Piano
219.0,0.5113636363636364,65,76,Piano
219.0,0.5113636363636364,56,76,Piano
219.0,0.6818181818181818,68,66,Piano
219.0,0.6818181818181818,65,66,Piano
219.0,0.0,42,85,Piano
219.0,0.0,40,85,Piano
220.0,2.727272727272727,39,79,Piano
220.0,2.727272727272727,51,79,Piano
220.0,1.3636363636363635,68,69,Piano
220.0,1.3636363636363635,65,69,Piano
220.0,0.0,36,77,Piano
220.0,0.0,42,77,Piano
220.0,2.727272727272727,61,50,Piano
220.0,2.727272727272727,65,50,Piano
220.0,2.727272727272727,68,50,Piano
221.0,0.0,42,85,Piano
221.0,0.0,40,85,Piano
221.5,0.0,36,42,Piano
221.5,0.0,42,42,Piano
222.0,0.5113636363636364,55,77,Piano
222.0,0.5113636363636364,63,77,Piano
222.0,0.5113636363636364,60,77,Piano
222.0,0.5113636363636364,55,81,Piano
222.0,0.5113636363636364,58,81,Piano
222.0,0.6818181818181818,63,64,Piano
222.0,0.6818181818181818,67,64,Piano
222.0,0.0,36,77,Piano
222.0,0.0,42,77,Piano
222.0,0.5113636363636364,55,76,Piano
222.0,0.5113636363636364,58,76,Piano
223.0,0.6818181818181818,53,71,Piano
223.0,0.6818181818181818,58,71,Piano
223.0,0.6818181818181818,61,71,Piano
223.0,0.6818181818181818,51,76,Piano
223.0,0.6818181818181818,58,76,Piano
223.0,0.6818181818181818,51,71,Piano
223.0,0.6818181818181818,58,71,Piano
224.0,1.3636363636363635,63,58,Piano
224.0,1.3636363636363635,60,58,Piano
224.0,0.0,36,63,Piano
224.0,0.0,42,63,Piano
224.0,1.3636363636363635,56,50,Piano
224.0,1.3636363636363635,60,50,Piano
224.0,1.3636363636363635,63,50,Piano
225.0,0.8522727272727272,63,73,Piano
225.0,0.8522727272727272,58,73,Piano
225.0,0.0,42,85,Piano
225.0,0.0,40,85,Piano
225.5,0.0,36,42,Piano
225.5,0.0,42,42,Piano
226.0,1.3636363636363635,65,56,Piano
226.0,1.3636363636363635,61,56,Piano
226.0,0.0,36,77,Piano
226.0,0.0,42,77,Piano
226.0,1.3636363636363635,58,50,Piano
226.0,1.3636363636363635,61,50,Piano
226.0,1.3636363636363635,65,50,Piano
227.0,0.6818181818181818,65,61,Piano
227.0,0.6818181818181818,61,61,Piano
227.0,0.6818181818181818,60,61,Piano
227.0,0.0,42,85,Piano
227.0,0.0,40,85,Piano
228.0,1.3636363636363635,63,60,Piano
228.0,1.3636363636363635,67,60,Piano
228.0,0.0,36,77,Piano
228.0,0.0,42,77,Piano
228.0,1.3636363636363635,60,50,Piano
228.0,1.3636363636363635,63,50,Piano
228.0,1.3636363636363635,67,50,Piano
229.0,0.8522727272727272,67,66,Piano
229.0,0.8522727272727272,63,66,Piano
229.0,0.8522727272727272,60,66,Piano
229.0,0.0,42,85,Piano
229.0,0.0,40,85,Piano
229.5,0.0,36,42,Piano
229.5,0.0,42,42,Piano
230.0,1.3636363636363635,63,60,Piano
230.0,1.3636363636363635,66,60,Piano
230.0,0.0,36,77,Piano
230.0,0.0,42,77,Piano
230.0,1.3636363636363635,60,50,Piano
230.0,1.3636363636363635,63,50,Piano
230.0,1.3636363636363635,65,50,Piano
231.0,0.6818181818181818,63,67,Piano
231.0,0.6818181818181818,66,67,Piano
231.0,0.6818181818181818,60,67,Piano
231.0,0.0,42,85,Piano
231.0,0.0,40,85,Piano
232.0,1.3636363636363635,61,60,Piano
232.0,1.3636363636363635,65,60,Piano
232.0,0.0,36,77,Piano
232.0,0.0,42,77,Piano
232.0,1.3636363636363635,58,50,Piano
232.0,1.3636363636363635,61,50,Piano
232.0,1.3636363636363635,65,50,Piano
233.0,0.6818181818181818,65,68,Piano
233.0,0.6818181818181818,61,68,Piano
233.0,0.6818181818181818,60,68,Piano
233.0,0.0,42,85,Piano
233.0,0.0,40,85,Piano
233.5,0.0,36,42,Piano
233.5,0.0,42,42,Piano
234.0,1.3636363636363635,58,76,Piano
234.0,1.3636363636363635,63,76,Piano
234.0,0.6818181818181818,67,74,Piano
234.0,0.6818181818181818,51,74,Piano
234.0,1.3636363636363635,67,64,Piano
234.0,1.3636363636363635,63,64,Piano
234.0,0.0,36,77,Piano
234.0,0.0,42,77,Piano
234.0,1.3636363636363635,58,50,Piano
234.0,1.3636363636363635,63,50,Piano
234.0,1.3636363636363635,67,50,Piano
235.0,0.6818181818181818,49,72,Piano
235.0,0.6818181818181818,65,72,Piano
235.0,0.0,42,85,Piano
235.0,0.0,40,85,Piano
236.0,1.3636363636363635,63,63,Piano
236.0,1.3636363636363635,58,63,Piano
236.0,0.0,36,77,Piano
236.0,0.0,42,77,Piano
236.0,1.3636363636363635,60,50,Piano
236.0,1.3636363636363635,63,50,Piano
236.0,1.3636363636363635,67,50,Piano
237.0,0.6818181818181818,63,70,Piano
237.0,0.6818181818181818,58,70,Piano
237.0,0.0,42,85,Piano
237.0,0.0,40,85,Piano
237.5,0.0,36,42,Piano
237.5,0.0,42,42,Piano
238.0,1.3636363636363635,56,59,Piano
238.0,1.3636363636363635,63,59,Piano
238.0,0.0,36,77,Piano
238.0,0.0,42,77,Piano
238.0,1.3636363636363635,60,50,Piano
238.0,1.3636363636363635,63,50,Piano
238.0,1.3636363636363635,65,50,Piano
239.0,0.6818181818181818,63,68,Piano
239.0,0.6818181818181818,67,68,Piano
239.0,0.6818181818181818,60,68,Piano
240.0,1.3636363636363635,61,62,Piano
240.0,1.3636363636363635,65,62,Piano
240.0,0.0,36,77,Piano
240.0,0.0,42,77,Piano
240.0,1.3636363636363635,58,50,Piano
240.0,1.3636363636363635,61,50,Piano
240.0,1.3636363636363635,65,50,Piano
241.0,0.8522727272727272,65,66,Piano
241.0,0.8522727272727272,61,66,Piano
241.0,0.0,42,85,Piano
241.0,0.0,40,85,Piano
241.5,0.0,36,42,Piano
241.5,0.0,42,42,Piano
242.0,1.3636363636363635,63,65,Piano
242.0,1.3636363636363635,67,65,Piano
242.0,0.0,36,77,Piano
242.0,0.0,42,77,Piano
242.0,1.3636363636363635,58,50,Piano
242.0,1.3636363636363635,63,50,Piano
242.0,1.3636363636363635,67,50,Piano
243.0,0.6818181818181818,63,65,Piano
243.0,0.6818181818181818,58,65,Piano
243.0,0.6818181818181818,61,65,Piano
243.0,0.0,40,85,Piano
243.0,0.0,42,85,Piano
244.0,1.3636363636363635,63,66,Piano
244.0,1.3636363636363635,60,66,Piano
244.0,0.0,36,77,Piano
244.0,0.0,42,77,Piano
244.0,1.3636363636363635,60,50,Piano
244.0,1.3636363636363635,63,50,Piano
244.0,1.3636363636363635,68,50,Piano
245.0,0.6818181818181818,63,66,Piano
245.0,0.6818181818181818,58,66,Piano
245.0,0.0,42,85,Piano
245.0,0.0,40,85,Piano
245.5,0.0,42,42,Piano
245.5,0.0,36,42,Piano
246.0,1.3636363636363635,63,68,Piano
246.0,1.3636363636363635,68,68,Piano
246.0,0.0,36,77,Piano
246.0,0.0,42,77,Piano
246.0,1.3636363636363635,60,50,Piano
246.0,1.3636363636363635,63,50,Piano
246.0,1.3636363636363635,65,50,Piano
247.0,0.6818181818181818,63,70,Piano
247.0,0.6818181818181818,60,70,Piano
247.0,0.0,42,85,Piano
247.0,0.0,40,85,Piano
248.0,1.3636363636363635,61,67,Piano
248.0,1.3636363636363635,65,67,Piano
248.0,0.0,36,77,Piano
248.0,0.0,42,77,Piano
248.0,1.3636363636363635,58,50,Piano
248.0,1.3636363636363635,61,50,Piano
248.0,1.3636363636363635,65,50,Piano
249.0,0.6818181818181818,65,65,Piano
249.0,0.6818181818181818,61,65,Piano
249.0,0.0,42,85,Piano
249.0,0.0,40,85,Piano
249.5,0.0,42,42,Piano
249.5,0.0,36,42,Piano
250.0,1.3636363636363635,56,66,Piano
250.0,1.3636363636363635,64,66,Piano
250.0,1.3636363636363635,49,66,Piano
250.0,1.3636363636363635,58,60,Piano
250.0,1.3636363636363635,64,60,Piano
250.0,0.0,36,77,Piano
250.0,0.0,42,77,Piano
250.0,1.3636363636363635,56,50,Piano
250.0,1.3636363636363635,60,50,Piano
250.0,1.3636363636363635,64,50,Piano
251.0,0.0,42,85,Piano
251.0,0.0,40,85,Piano
252.0,2.727272727272727,63,60,Piano
252.0,2.727272727272727,60,60,Piano
252.0,0.0,36,77,Piano
252.0,0.0,42,77,Piano
252.0,2.727272727272727,56,50,Piano
252.0,2.727272727272727,60,50,Piano
252.0,2.727272727272727,63,50,Piano
254.0,0.0,36,70,Piano
254.0,0.0,57,70,Piano
256.0,0.3409090909090909,56,73,Piano
256.0,0.3409090909090909,63,73,Piano
256.0,0.3409090909090909,60,73,Piano
256.0,0.0,36,84,Piano
256.0,0.0,42,84,Piano
256.0,2.727272727272727,58,50,Piano
256.0,2.727272727272727,61,50,Piano
256.0,2.727272727272727,65,50,Piano
257.0,0.3409090909090909,56,71,Piano
257.0,0.3409090909090909,60,71,Piano
257.0,0.3409090909090909,63,71,Piano
258.0,0.3409090909090909,56,66,Piano
258.0,0.3409090909090909,60,66,Piano
258.0,0.3409090909090909,63,71,Piano
258.0,0.3409090909090909,60,71,Piano
258.0,0.0,40,71,Piano
258.0,0.0,42,71,Piano
259.0,0.3409090909090909,60,73,Piano
259.0,0.3409090909090909,63,73,Piano
259.5,0.0,36,42,Piano
259.5,0.0,42,42,Piano
260.0,0.3409090909090909,58,82,Piano
260.0,0.3409090909090909,63,82,Piano
260.0,0.0,36,84,Piano
260.0,0.0,42,84,Piano
260.0,2.727272727272727,60,50,Piano
260.0,2.727272727272727,63,50,Piano
260.0,2.727272727272727,67,50,Piano
261.0,0.3409090909090909,63,82,Piano
261.0,0.3409090909090909,58,82,Piano
262.0,0.3409090909090909,63,82,Piano
262.0,0.3409090909090909,58,82,Piano
262.0,0.0,40,71,Piano
262.0,0.0,42,71,Piano
263.0,0.3409090909090909,63,83,Piano
263.0,0.3409090909090909,58,83,Piano
264.0,0.3409090909090909,63,78,Piano
264.0,0.3409090909090909,58,78,Piano
264.0,0.3409090909090909,61,78,Piano
264.0,0.0,36,84,Piano
264.0,0.0,42,84,Piano
264.0,2.727272727272727,58,50,Piano
264.0,2.727272727272727,61,50,Piano
264.0,2.727272727272727,65,50,Piano
265.0,0.3409090909090909,58,76,Piano
265.0,0.3409090909090909,61,76,Piano
265.0,0.3409090909090909,63,76,Piano
266.0,0.3409090909090909,63,81,Piano
266.0,0.3409090909090909,58,81,Piano
266.0,0.3409090909090909,61,81,Piano
266.0,0.0,40,71,Piano
266.0,0.0,42,71,Piano
267.0,0.3409090909090909,63,80,Piano
267.0,0.3409090909090909,61,80,Piano
267.5,0.0,36,42,Piano
267.5,0.0,42,42,Piano
268.0,0.3409090909090909,65,83,Piano
268.0,0.3409090909090909,61,83,Piano
268.0,0.0,36,84,Piano
268.0,0.0,42,84,Piano
268.0,1.3636363636363635,58,50,Piano
268.0,1.3636363636363635,61,50,Piano
268.0,1.3636363636363635,65,50,Piano
269.0,0.3409090909090909,61,82,Piano
269.0,0.3409090909090909,65,82,Piano
270.0,0.6818181818181818,64,83,Piano
270.0,0.6818181818181818,48,83,Piano
270.0,0.0,40,71,Piano
270.0,0.0,42,71,Piano
270.0,1.3636363636363635,58,50,Piano
270.0,1.3636363636363635,60,50,Piano
270.0,1.3636363636363635,64,50,Piano
271.0,0.3409090909090909,65,75,Piano
271.0,0.3409090909090909,50,75,Piano
271.5,0.3409090909090909,67,76,Piano
271.5,0.3409090909090909,52,76,Piano
272.0,0.0,36,73,Piano
272.0,0.0,49,73,Piano
272.0,0.0,44,73,Piano
272.0,2.727272727272727,60,50,Piano
272.0,2.727272727272727,65,50,Piano
272.0,2.727272727272727,68,50,Piano
273.0,0.6818181818181818,68,78,Piano
273.0,0.6818181818181818,65,78,Piano
273.0,0.6818181818181818,84,60,Piano
273.0,0.6818181818181818,77,60,Piano
274.0,0.0,36,63,Piano
274.0,0.0,42,63,Piano
275.0,0.6818181818181818,84,61,Piano
275.0,0.6818181818181818,77,61,Piano
276.0,0.0,36,63,Piano
276.0,0.0,42,63,Piano
276.0,1.3636363636363635,61,50,Piano
276.0,1.3636363636363635,65,50,Piano
276.0,1.3636363636363635,68,50,Piano
277.0,0.6818181818181818,65,78,Piano
277.0,0.6818181818181818,60,78,Piano
277.0,0.6818181818181818,84,64,Piano
277.0,0.6818181818181818,77,64,Piano
278.0,0.6818181818181818,58,76,Piano
278.0,0.6818181818181818,48,76,Piano
278.0,0.6818181818181818,82,66,Piano
278.0,0.6818181818181818,75,66,Piano
278.0,0.0,36,63,Piano
278.0,0.0,42,63,Piano
278.0,0.6818181818181818,60,50,Piano
278.0,0.6818181818181818,63,50,Piano
279.0,0.6818181818181818,56,72,Piano
279.0,0.6818181818181818,53,72,Piano
279.0,0.6818181818181818,75,60,Piano
279.0,0.6818181818181818,68,60,Piano
279.0,0.6818181818181818,60,50,Piano
279.0,0.6818181818181818,65,50,Piano
280.0,2.727272727272727,56,75,Piano
280.0,2.727272727272727,65,75,Piano
280.0,2.727272727272727,58,75,Piano
280.0,2.727272727272727,61,75,Piano
280.0,2.727272727272727,42,70,Piano
280.0,2.727272727272727,58,70,Piano
280.0,2.727272727272727,49,70,Piano
280.0,2.727272727272727,61,70,Piano
280.0,1.3636363636363635,80,67,Piano
280.0,1.3636363636363635,73,67,Piano
280.0,0.0,36,70,Piano
280.0,0.0,49,70,Piano
280.0,2.727272727272727,58,50,Piano
280.0,2.727272727272727,61,50,Piano
280.0,2.727272727272727,66,50,Piano
282.0,0.6818181818181818,70,73,Piano
282.0,0.6818181818181818,77,73,Piano
282.0,0.0,36,77,Piano
282.0,0.0,57,77,Piano
283.0,0.6818181818181818,66,68,Piano
283.0,0.6818181818181818,73,68,Piano
284.0,2.727272727272727,39,82,Piano
284.0,2.727272727272727,51,82,Piano
284.0,2.0454545454545454,70,58,Piano
284.0,2.0454545454545454,63,58,Piano
284.0,0.0,36,77,Piano
284.0,0.0,49,77,Piano
284.0,2.727272727272727,61,50,Piano
284.0,2.727272727272727,65,50,Piano
284.0,2.727272727272727,68,50,Piano
285.0,0.6818181818181818,56,79,Piano
285.0,0.6818181818181818,61,79,Piano
285.0,0.6818181818181818,65,79,Piano
286.0,0.6818181818181818,63,75,Piano
286.0,0.6818181818181818,60,75,Piano
286.0,0.6818181818181818,55,75,Piano
287.0,0.6818181818181818,61,76,Piano
287.0,0.6818181818181818,53,76,Piano
288.0,0.3409090909090909,56,70,Piano
288.0,0.3409090909090909,63,70,Piano
288.0,0.3409090909090909,60,70,Piano
288.0,0.0,36,77,Piano
288.0,0.0,42,77,Piano
288.0,2.727272727272727,61,50,Piano
288.0,2.727272727272727,65,50,Piano
288.0,2.727272727272727,68,50,Piano
289.0,0.3409090909090909,56,71,Piano
289.0,0.3409090909090909,63,71,Piano
289.0,0.3409090909090909,60,71,Piano
290.0,0.3409090909090909,56,71,Piano
290.0,0.3409090909090909,63,71,Piano
290.0,0.3409090909090909,60,71,Piano
290.0,0.0,40,71,Piano
290.0,0.0,42,71,Piano
291.0,0.3409090909090909,56,73,Piano
291.0,0.3409090909090909,60,73,Piano
291.0,0.3409090909090909,63,73,Piano
291.5,0.0,36,42,Piano
291.5,0.0,42,42,Piano
292.0,0.4545454545454545,58,74,Piano
292.0,0.4545454545454545,60,74,Piano
292.0,0.4545454545454545,63,74,Piano
292.0,0.0,36,91,Piano
292.0,0.0,42,91,Piano
292.0,1.3636363636363635,60,50,Piano
292.0,1.3636363636363635,63,50,Piano
292.0,1.3636363636363635,68,50,Piano
293.0,0.3409090909090909,58,76,Piano
293.0,0.3409090909090909,63,76,Piano
294.0,0.6818181818181818,60,82,Piano
294.0,0.6818181818181818,64,82,Piano
294.0,1.3636363636363635,58,74,Piano
294.0,1.3636363636363635,43,74,Piano
294.0,0.0,40,71,Piano
294.0,0.0,42,71,Piano
294.0,1.3636363636363635,60,50,Piano
294.0,1.3636363636363635,64,50,Piano
294.0,1.3636363636363635,67,50,Piano
295.0,0.3409090909090909,65,80,Piano
295.0,0.3409090909090909,62,80,Piano
295.5,0.3409090909090909,64,80,Piano
295.5,0.3409090909090909,67,80,Piano
296.0,0.0,36,73,Piano
296.0,0.0,49,73,Piano
296.0,0.0,44,73,Piano
296.0,1.3636363636363635,60,50,Piano
296.0,1.3636363636363635,65,50,Piano
296.0,1.3636363636363635,68,50,Piano
297.0,0.5113636363636364,68,77,Piano
297.0,0.5113636363636364,65,77,Piano
298.0,0.0,36,63,Piano
298.0,0.0,42,63,Piano
298.0,1.3636363636363635,60,50,Piano
298.0,1.3636363636363635,63,50,Piano
298.0,1.3636363636363635,67,50,Piano
299.0,0.6818181818181818,67,75,Piano
299.0,0.6818181818181818,60,75,Piano
300.0,0.0,36,63,Piano
300.0,0.0,42,63,Piano
300.0,2.727272727272727,61,50,Piano
300.0,2.727272727272727,65,50,Piano
300.0,2.727272727272727,68,50,Piano
302.0,1.0227272727272727,72,78,Piano
302.0,1.0227272727272727,65,78,Piano
304.0,0.0,36,77,Piano
304.0,0.0,57,77,Piano
304.0,2.727272727272727,60,50,Piano
304.0,2.727272727272727,63,50,Piano
304.0,2.727272727272727,67,50,Piano
308.0,0.909090909090909,67,77,Piano
308.0,0.909090909090909,63,77,Piano
308.0,0.909090909090909,41,77,Piano
308.0,0.0,36,77,Piano
308.0,0.0,57,77,Piano
308.0,2.727272727272727,60,50,Piano
308.0,2.727272727272727,63,50,Piano
308.0,2.727272727272727,65,50,Piano
309.5,1.7045454545454544,68,73,Piano
309.5,1.7045454545454544,60,73,Piano
309.5,1.7045454545454544,53,73,Piano
309.5,1.5909090909090908,63,71,Piano
309.5,1.5909090909090908,60,71,Piano
309.5,1.5909090909090908,53,71,Piano
309.5,0.0,36,70,Piano
309.5,0.0,49,70,Piano
311.0,0.0,45,71,Piano
311.0,0.0,48,71,Piano
312.0,1.0227272727272727,56,81,Piano
312.0,1.0227272727272727,65,81,Piano
312.0,1.0227272727272727,46,81,Piano
312.0,1.0227272727272727,61,81,Piano
312.0,0.0,36,77,Piano
312.0,0.0,57,77,Piano
312.0,2.727272727272727,58,50,Piano
312.0,2.727272727272727,61,50,Piano
312.0,2.727272727272727,65,50,Piano
313.0,0.6818181818181818,41,71,Piano
313.0,0.6818181818181818,41,71,Piano
313.5,1.5909090909090908,56,83,Piano
313.5,1.5909090909090908,65,83,Piano
313.5,1.5909090909090908,61,83,Piano
313.5,0.0,36,70,Piano
313.5,0.0,49,70,Piano
316.0,2.727272727272727,56,70,Piano
316.0,2.727272727272727,64,70,Piano
316.0,2.727272727272727,37,70,Piano
316.0,2.727272727272727,49,70,Piano
316.0,0.0,36,77,Piano
316.0,0.0,57,77,Piano
316.0,2.727272727272727,60,50,Piano
316.0,2.727272727272727,64,50,Piano
316.0,2.727272727272727,68,50,Piano
320.0,1.1931818181818181,58,68,Piano
320.0,1.1931818181818181,55,68,Piano
320.0,0.0,36,73,Piano
320.0,0.0,49,73,Piano
320.0,0.0,44,73,Piano
320.0,2.727272727272727,60,50,Piano
320.0,2.727272727272727,63,50,Piano
320.0,2.727272727272727,67,50,Piano
322.0,1.3636363636363635,58,74,Piano
322.0,1.3636363636363635,67,74,Piano
322.0,1.3636363636363635,63,74,Piano
322.0,0.0,36,77,Piano
322.0,0.0,44,77,Piano
324.0,0.6818181818181818,58,76,Piano
324.0,0.6818181818181818,67,76,Piano
324.0,0.0,36,77,Piano
324.0,0.0,44,77,Piano
324.0,2.727272727272727,60,50,Piano
324.0,2.727272727272727,63,50,Piano
324.0,2.727272727272727,65,50,Piano
325.0,0.5113636363636364,68,71,Piano
325.0,0.5113636363636364,60,71,Piano
326.0,1.3636363636363635,56,65,Piano
326.0,1.3636363636363635,63,65,Piano
326.0,1.3636363636363635,60,65,Piano
326.0,0.0,36,73,Piano
326.0,0.0,49,73,Piano
326.0,0.0,44,73,Piano
328.0,2.727272727272727,56,76,Piano
328.0,2.727272727272727,46,76,Piano
328.0,2.5568181818181817,61,60,Piano
328.0,2.5568181818181817,60,60,Piano
328.0,0.909090909090909,46,87,Piano
328.0,0.909090909090909,53,87,Piano
328.0,0.909090909090909,56,86,Piano
328.0,0.909090909090909,61,86,Piano
328.0,0.0,36,77,Piano
328.0,0.0,57,77,Piano
328.0,2.727272727272727,58,50,Piano
328.0,2.727272727272727,61,50,Piano
328.0,2.727272727272727,65,50,Piano
328.0,0.909090909090909,46,82,Piano
328.0,0.909090909090909,53,82,Piano
328.0,0.909090909090909,56,81,Piano
328.0,0.909090909090909,61,81,Piano
329.0,0.6818181818181818,41,71,Piano
329.0,0.6818181818181818,41,71,Piano
329.5,1.534090909090909,46,94,Piano
329.5,1.534090909090909,53,94,Piano
329.5,0.0,36,77,Piano
329.5,0.0,49,77,Piano
329.5,1.534090909090909,46,89,Piano
329.5,1.534090909090909,53,89,Piano
332.0,2.727272727272727,56,69,Piano
332.0,2.727272727272727,64,69,Piano
332.0,0.0,36,84,Piano
332.0,0.0,49,84,Piano
332.0,2.727272727272727,61,50,Piano
332.0,2.727272727272727,64,50,Piano
332.0,2.727272727272727,68,50,Piano
336.0,1.3636363636363635,76,68,Piano
336.0,1.3636363636363635,65,68,Piano
336.0,1.3636363636363635,72,68,Piano
336.0,1.3636363636363635,57,50,Piano
336.0,1.3636363636363635,60,50,Piano
336.0,1.3636363636363635,65,50,Piano
338.0,1.3636363636363635,70,69,Piano
338.0,1.3636363636363635,74,69,Piano
338.0,1.3636363636363635,67,66,Piano
338.0,1.3636363636363635,74,66,Piano
338.0,1.3636363636363635,58,50,Piano
338.0,1.3636363636363635,62,50,Piano
338.0,1.3636363636363635,67,50,Piano
340.0,1.3636363636363635,72,67,Piano
340.0,1.3636363636363635,69,67,Piano
340.0,1.3636363636363635,76,67,Piano
340.0,1.3636363636363635,60,50,Piano
340.0,1.3636363636363635,64,50,Piano
340.0,1.3636363636363635,67,50,Piano
342.0,1.3636363636363635,77,70,Piano
342.0,1.3636363636363635,70,70,Piano
342.0,1.3636363636363635,74,70,Piano
342.0,1.3636363636363635,58,50,Piano
342.0,1.3636363636363635,62,50,Piano
342.0,1.3636363636363635,67,50,Piano
344.0,1.3636363636363635,72,64,Piano
344.0,1.3636363636363635,65,64,Piano
344.0,1.3636363636363635,76,64,Piano
344.0,1.3636363636363635,57,50,Piano
344.0,1.3636363636363635,60,50,Piano
344.0,1.3636363636363635,65,50,Piano
346.0,1.3636363636363635,67,69,Piano
346.0,1.3636363636363635,74,69,Piano
346.0,1.3636363636363635,70,69,Piano
346.0,1.1931818181818181,77,67,Piano
346.0,1.1931818181818181,70,67,Piano
346.0,1.3636363636363635,58,50,Piano
346.0,1.3636363636363635,62,50,Piano
346.0,1.3636363636363635,67,50,Piano
348.0,1.3636363636363635,79,66,Piano
348.0,1.3636363636363635,72,66,Piano
348.0,1.3636363636363635,76,64,Piano
348.0,1.3636363636363635,69,64,Piano
348.0,1.3636363636363635,72,64,Piano
348.0,1.3636363636363635,60,50,Piano
348.0,1.3636363636363635,64,50,Piano
348.0,1.3636363636363635,67,50,Piano
350.0,1.3636363636363635,67,64,Piano
350.0,1.3636363636363635,74,64,Piano
350.0,1.1931818181818181,77,66,Piano
350.0,1.1931818181818181,70,66,Piano
350.0,1.3636363636363635,58,50,Piano
350.0,1.3636363636363635,62,50,Piano
350.0,1.3636363636363635,67,50,Piano
352.0,1.3636363636363635,72,64,Piano
352.0,1.3636363636363635,65,64,Piano
352.0,1.3636363636363635,76,64,Piano
352.0,1.3636363636363635,57,50,Piano
352.0,1.3636363636363635,60,50,Piano
352.0,1.3636363636363635,65,50,Piano
354.0,1.3636363636363635,67,69,Piano
354.0,1.3636363636363635,74,69,Piano
354.0,1.3636363636363635,70,69,Piano
354.0,1.1931818181818181,77,67,Piano
354.0,1.1931818181818181,70,67,Piano
354.0,1.3636363636363635,58,50,Piano
354.0,1.3636363636363635,62,50,Piano
354.0,1.3636363636363635,67,50,Piano
356.0,1.3636363636363635,79,66,Piano
356.0,1.3636363636363635,72,66,Piano
356.0,1.3636363636363635,76,64,Piano
356.0,1.3636363636363635,69,64,Piano
356.0,1.3636363636363635,72,64,Piano
356.0,1.3636363636363635,60,50,Piano
356.0,1.3636363636363635,64,50,Piano
356.0,1.3636363636363635,67,50,Piano
358.0,1.3636363636363635,67,64,Piano
358.0,1.3636363636363635,74,64,Piano
358.0,1.1931818181818181,77,66,Piano
358.0,1.1931818181818181,70,66,Piano
358.0,1.3636363636363635,58,50,Piano
358.0,1.3636363636363635,62,50,Piano
358.0,1.3636363636363635,67,50,Piano
360.0,1.3636363636363635,72,64,Piano
360.0,1.3636363636363635,65,64,Piano
360.0,1.3636363636363635,76,64,Piano
360.0,1.3636363636363635,57,50,Piano
360.0,1.3636363636363635,60,50,Piano
360.0,1.3636363636363635,65,50,Piano
362.0,1.3636363636363635,67,69,Piano
362.0,1.3636363636363635,74,69,Piano
362.0,1.3636363636363635,70,69,Piano
362.0,1.1931818181818181,77,67,Piano
362.0,1.1931818181818181,70,67,Piano
362.0,1.3636363636363635,58,50,Piano
362.0,1.3636363636363635,62,50,Piano
362.0,1.3636363636363635,67,50,Piano
364.0,1.3636363636363635,79,66,Piano
364.0,1.3636363636363635,72,66,Piano
364.0,1.3636363636363635,76,64,Piano
364.0,1.3636363636363635,69,64,Piano
364.0,1.3636363636363635,72,64,Piano
364.0,1.3636363636363635,60,50,Piano
364.0,1.3636363636363635,64,50,Piano
364.0,1.3636363636363635,67,50,Piano
366.0,1.3636363636363635,67,64,Piano
366.0,1.3636363636363635,74,64,Piano
366.0,1.1931818181818181,77,66,Piano
366.0,1.1931818181818181,70,66,Piano
366.0,1.3636363636363635,58,50,Piano
366.0,1.3636363636363635,62,50,Piano
366.0,1.3636363636363635,67,50,Piano
368.0,1.3636363636363635,72,64,Piano
368.0,1.3636363636363635,65,64,Piano
368.0,1.3636363636363635,76,64,Piano
368.0,1.3636363636363635,57,50,Piano
368.0,1.3636363636363635,60,50,Piano
368.0,1.3636363636363635,65,50,Piano
370.0,1.3636363636363635,67,69,Piano
370.0,1.3636363636363635,74,69,Piano
370.0,1.3636363636363635,70,69,Piano
370.0,1.1931818181818181,77,67,Piano
370.0,1.1931818181818181,70,67,Piano
370.0,1.3636363636363635,58,50,Piano
370.0,1.3636363636363635,62,50,Piano
370.0,1.3636363636363635,67,50,Piano
372.0,1.3636363636363635,79,66,Piano
372.0,1.3636363636363635,72,66,Piano
372.0,1.3636363636363635,76,64,Piano
372.0,1.3636363636363635,69,64,Piano
372.0,1.3636363636363635,72,64,Piano
372.0,1.3636363636363635,60,50,Piano
372.0,1.3636363636363635,64,50,Piano
372.0,1.3636363636363635,67,50,Piano
374.0,1.3636363636363635,67,64,Piano
374.0,1.3636363636363635,74,64,Piano
374.0,1.1931818181818181,77,66,Piano
374.0,1.1931818181818181,70,66,Piano
374.0,1.3636363636363635,58,50,Piano
374.0,1.3636363636363635,62,50,Piano
374.0,1.3636363636363635,67,50,Piano
