Start,Duration,Pitch,Velocity,Instrument
4.0,2.036848439959263,62,98,Piano
4.0,2.036848439959263,69,98,Piano
4.0,2.036848439959263,71,98,Piano
4.0,2.036848439959263,67,98,Piano
4.0,0.27775205999444497,76,75,Piano
4.0,0.27775205999444497,71,75,Piano
4.0,2.2220164799555597,62,52,Piano
4.0,2.2220164799555597,55,52,Piano
4.5,0.27775205999444497,73,70,Piano
4.5,0.27775205999444497,78,70,Piano
5.0,0.27775205999444497,81,72,Piano
5.0,0.27775205999444497,76,72,Piano
5.5,0.27775205999444497,76,64,Piano
5.5,0.27775205999444497,71,64,Piano
6.0,0.5555041199888899,78,70,Piano
6.0,0.5555041199888899,73,70,Piano
7.0,0.27775205999444497,76,68,Piano
7.0,0.27775205999444497,71,68,Piano
7.5,0.27775205999444497,73,68,Piano
7.5,0.27775205999444497,78,68,Piano
8.0,2.0831404499583375,69,94,Piano
8.0,2.0831404499583375,71,94,Piano
8.0,2.0831404499583375,66,94,Piano
8.0,0.27775205999444497,81,70,Piano
8.0,0.27775205999444497,76,70,Piano
8.0,2.2220164799555597,61,54,Piano
8.0,2.2220164799555597,54,54,Piano
8.5,0.27775205999444497,71,58,Piano
8.5,0.27775205999444497,76,58,Piano
9.0,1.6665123599666698,73,68,Piano
9.0,1.6665123599666698,78,68,Piano
12.0,2.0831404499583375,69,97,Piano
12.0,2.0831404499583375,71,97,Piano
12.0,2.0831404499583375,62,97,Piano
12.0,2.0831404499583375,67,97,Piano
12.0,0.27775205999444497,76,75,Piano
12.0,0.27775205999444497,71,75,Piano
12.0,2.2220164799555597,62,52,Piano
12.0,2.2220164799555597,55,52,Piano
12.5,0.27775205999444497,73,70,Piano
12.5,0.27775205999444497,78,70,Piano
13.0,0.27775205999444497,81,72,Piano
13.0,0.27775205999444497,76,72,Piano
13.5,0.27775205999444497,76,64,Piano
13.5,0.27775205999444497,71,64,Piano
14.0,0.5555041199888899,78,70,Piano
14.0,0.5555041199888899,73,70,Piano
15.0,0.27775205999444497,76,68,Piano
15.0,0.27775205999444497,71,68,Piano
15.5,0.27775205999444497,73,68,Piano
15.5,0.27775205999444497,78,68,Piano
16.0,2.0831404499583375,71,95,Piano
16.0,2.0831404499583375,64,95,Piano
16.0,2.0831404499583375,73,95,Piano
16.0,2.0831404499583375,57,95,Piano
16.0,0.27775205999444497,81,70,Piano
16.0,0.27775205999444497,76,70,Piano
16.0,2.2220164799555597,64,54,Piano
16.0,2.2220164799555597,57,54,Piano
16.5,0.27775205999444497,71,58,Piano
16.5,0.27775205999444497,76,58,Piano
17.0,1.6665123599666698,73,68,Piano
17.0,1.6665123599666698,78,68,Piano
20.0,2.2220164799555597,59,56,Piano
20.0,2.2220164799555597,62,56,Piano
20.0,0.27775205999444497,76,75,Piano
20.0,0.27775205999444497,71,75,Piano
20.5,0.27775205999444497,73,70,Piano
20.5,0.27775205999444497,78,70,Piano
21.0,0.27775205999444497,81,72,Piano
21.0,0.27775205999444497,76,72,Piano
21.5,0.27775205999444497,76,64,Piano
21.5,0.27775205999444497,71,64,Piano
22.0,0.5555041199888899,78,70,Piano
22.0,0.5555041199888899,73,70,Piano
23.0,0.27775205999444497,76,68,Piano
23.0,0.27775205999444497,71,68,Piano
23.5,0.27775205999444497,73,68,Piano
23.5,0.27775205999444497,78,68,Piano
24.0,2.2220164799555597,54,61,Piano
24.0,2.2220164799555597,61,61,Piano
24.0,0.27775205999444497,81,70,Piano
24.0,0.27775205999444497,76,70,Piano
24.5,0.27775205999444497,71,58,Piano
24.5,0.27775205999444497,76,58,Piano
25.0,1.6665123599666698,73,68,Piano
25.0,1.6665123599666698,78,68,Piano
28.0,2.2220164799555597,52,62,Piano
28.0,2.2220164799555597,59,62,Piano
28.0,0.27775205999444497,76,75,Piano
28.0,0.27775205999444497,71,75,Piano
28.5,0.27775205999444497,73,70,Piano
28.5,0.27775205999444497,78,70,Piano
29.0,0.27775205999444497,81,72,Piano
29.0,0.27775205999444497,76,72,Piano
29.5,0.27775205999444497,76,64,Piano
29.5,0.27775205999444497,71,64,Piano
30.0,0.27775205999444497,78,70,Piano
30.0,0.27775205999444497,73,70,Piano
30.5,0.27775205999444497,81,65,Piano
30.5,0.27775205999444497,76,65,Piano
31.0,0.27775205999444497,76,68,Piano
31.0,0.27775205999444497,71,68,Piano
31.5,0.27775205999444497,73,67,Piano
31.5,0.27775205999444497,78,67,Piano
32.0,0.9721322099805574,62,114,Piano
32.0,0.9721322099805574,55,114,Piano
32.0,2.2220164799555597,57,55,Piano
32.0,2.2220164799555597,64,55,Piano
32.0,0.27775205999444497,81,70,Piano
32.0,0.27775205999444497,76,70,Piano
32.5,0.27775205999444497,71,58,Piano
32.5,0.27775205999444497,76,58,Piano
33.0,0.27775205999444497,73,68,Piano
33.0,0.27775205999444497,78,68,Piano
33.5,0.27775205999444497,74,64,Piano
33.5,0.27775205999444497,69,64,Piano
34.0,1.1110082399777799,55,115,Piano
34.0,1.1110082399777799,57,115,Piano
34.0,1.1110082399777799,64,115,Piano
34.0,1.1110082399777799,76,56,Piano
34.0,1.1110082399777799,71,56,Piano
36.0,2.2220164799555597,71,61,Piano
36.0,2.2220164799555597,78,61,Piano
36.0,2.2220164799555597,50,61,Piano
36.0,2.2220164799555597,57,61,Piano
40.0,2.2220164799555597,50,71,Piano
40.0,2.2220164799555597,57,71,Piano
62.5,0.6943801499861124,64,111,Piano
62.5,0.6943801499861124,61,111,Piano
62.5,0.6943801499861124,57,111,Piano
62.5,0.6943801499861124,42,111,Piano
66.5,0.6943801499861124,62,107,Piano
66.5,0.6943801499861124,54,107,Piano
66.5,0.6943801499861124,57,107,Piano
70.0,0.8332561799833349,67,108,Piano
70.0,0.8332561799833349,59,108,Piano
70.0,0.8332561799833349,64,108,Piano
72.0,0.5555041199888899,64,86,Piano
72.0,0.5555041199888899,62,86,Piano
72.0,2.2220164799555597,57,54,Piano
72.0,2.2220164799555597,64,54,Piano
72.0,0.27775205999444497,81,76,Piano
72.0,0.27775205999444497,76,76,Piano
72.5,0.27775205999444497,78,72,Piano
72.5,0.27775205999444497,83,72,Piano
73.0,0.27775205999444497,73,66,Piano
73.0,0.27775205999444497,78,66,Piano
73.5,0.5555041199888899,67,104,Piano
73.5,0.5555041199888899,64,104,Piano
73.5,0.5555041199888899,61,103,Piano
73.5,0.5555041199888899,64,103,Piano
73.5,0.27775205999444497,81,71,Piano
73.5,0.27775205999444497,76,71,Piano
74.0,0.27775205999444497,76,65,Piano
74.0,0.27775205999444497,71,65,Piano
74.5,0.27775205999444497,78,70,Piano
74.5,0.27775205999444497,73,70,Piano
75.0,0.27775205999444497,74,64,Piano
75.0,0.27775205999444497,69,64,Piano
75.5,0.27775205999444497,76,71,Piano
75.5,0.27775205999444497,71,71,Piano
76.0,2.2220164799555597,66,70,Piano
76.0,2.2220164799555597,71,70,Piano
92.5,0.27775205999444497,59,112,Piano
92.5,0.27775205999444497,50,112,Piano
92.5,0.27775205999444497,81,79,Piano
92.5,0.27775205999444497,76,79,Piano
93.0,0.27775205999444497,78,77,Piano
93.0,0.27775205999444497,83,77,Piano
93.5,1.1110082399777799,79,74,Piano
93.5,1.1110082399777799,74,74,Piano
94.5,0.5555041199888899,66,111,Piano
94.5,0.5555041199888899,61,111,Piano
94.5,0.5555041199888899,57,111,Piano
94.5,0.41662808999166745,54,111,Piano
94.5,0.41662808999166745,42,111,Piano
96.0,1.1110082399777799,40,92,Piano
96.0,1.1110082399777799,62,92,Piano
96.0,1.1110082399777799,64,92,Piano
96.0,1.1110082399777799,59,92,Piano
96.5,0.27775205999444497,76,69,Piano
96.5,0.27775205999444497,71,69,Piano
97.0,0.27775205999444497,78,70,Piano
97.0,0.27775205999444497,73,70,Piano
97.5,1.1110082399777799,74,60,Piano
97.5,1.1110082399777799,69,60,Piano
98.5,0.6943801499861124,54,94,Piano
98.5,0.6943801499861124,62,94,Piano
98.5,0.6943801499861124,38,94,Piano
98.5,0.6943801499861124,50,94,Piano
98.5,0.6943801499861124,57,94,Piano
102.0,0.6943801499861124,67,98,Piano
102.0,0.6943801499861124,59,98,Piano
102.0,0.6943801499861124,64,98,Piano
102.0,0.6943801499861124,48,98,Piano
104.0,0.6943801499861124,60,106,Piano
104.0,0.6943801499861124,57,106,Piano
104.0,0.5555041199888899,53,108,Piano
104.0,0.5555041199888899,41,108,Piano
110.0,0.9721322099805574,65,98,Piano
110.0,0.9721322099805574,55,98,Piano
110.0,0.9721322099805574,62,98,Piano
110.0,0.9721322099805574,58,98,Piano
112.0,0.8332561799833349,60,113,Piano
112.0,0.8332561799833349,57,113,Piano
116.0,0.7406721599851865,69,99,Piano
116.0,0.7406721599851865,65,99,Piano
116.0,0.7406721599851865,60,99,Piano
117.5,0.5555041199888899,65,98,Piano
117.5,0.5555041199888899,69,98,Piano
118.0,0.27775205999444497,84,86,Piano
118.0,0.27775205999444497,79,86,Piano
118.5,0.27775205999444497,81,78,Piano
118.5,0.27775205999444497,86,78,Piano
119.0,0.27775205999444497,81,81,Piano
119.0,0.27775205999444497,76,81,Piano
119.5,0.27775205999444497,84,86,Piano
119.5,0.27775205999444497,79,86,Piano
120.0,0.27775205999444497,79,83,Piano
120.0,0.27775205999444497,74,83,Piano
120.5,0.27775205999444497,76,86,Piano
120.5,0.27775205999444497,81,86,Piano
121.0,1.6665123599666698,77,75,Piano
121.0,1.6665123599666698,72,75,Piano
122.5,0.5555041199888899,72,109,Piano
122.5,0.5555041199888899,65,109,Piano
128.0,0.8332561799833349,67,103,Piano
128.0,0.8332561799833349,60,103,Piano
128.0,0.8332561799833349,64,103,Piano
130.0,0.27775205999444497,67,104,Piano
130.0,0.27775205999444497,64,104,Piano
131.0,0.27775205999444497,64,106,Piano
131.0,0.27775205999444497,72,106,Piano
131.0,0.27775205999444497,67,106,Piano
132.0,0.8332561799833349,67,102,Piano
132.0,0.8332561799833349,64,102,Piano
134.0,0.9258401999814833,66,101,Piano
134.0,0.9258401999814833,57,101,Piano
134.0,0.9258401999814833,60,101,Piano
140.0,0.6943801499861124,58,104,Piano
140.0,0.6943801499861124,62,104,Piano
142.0,0.9721322099805574,67,109,Piano
142.0,0.9721322099805574,58,109,Piano
142.0,0.9721322099805574,62,109,Piano
148.0,0.5555041199888899,65,110,Piano
148.0,0.5555041199888899,69,110,Piano
148.0,0.5555041199888899,72,110,Piano
148.0,0.5555041199888899,45,110,Piano
150.0,0.27775205999444497,84,86,Piano
150.0,0.27775205999444497,79,86,Piano
150.5,0.27775205999444497,81,78,Piano
150.5,0.27775205999444497,86,78,Piano
151.0,0.27775205999444497,81,81,Piano
151.0,0.27775205999444497,76,81,Piano
151.5,0.27775205999444497,84,86,Piano
151.5,0.27775205999444497,79,86,Piano
152.0,0.37033607999259327,58,93,Piano
152.0,0.37033607999259327,57,93,Piano
152.0,0.27775205999444497,79,83,Piano
152.0,0.27775205999444497,74,83,Piano
152.5,0.27775205999444497,76,86,Piano
152.5,0.27775205999444497,81,86,Piano
153.0,1.6665123599666698,77,75,Piano
153.0,1.6665123599666698,72,75,Piano
153.5,0.41662808999166745,62,98,Piano
153.5,0.41662808999166745,57,98,Piano
155.0,0.41662808999166745,58,90,Piano
155.0,0.41662808999166745,62,90,Piano
155.0,0.41662808999166745,57,90,Piano
158.5,0.13887602999722248,65,126,Piano
158.5,0.13887602999722248,74,126,Piano
159.5,0.27775205999444497,77,122,Piano
159.5,0.27775205999444497,69,122,Piano
160.0,0.6943801499861124,76,113,Piano
160.0,0.6943801499861124,67,113,Piano
160.0,0.6943801499861124,72,113,Piano
164.0,0.5555041199888899,72,106,Piano
164.0,0.5555041199888899,67,106,Piano
166.0,0.9721322099805574,66,99,Piano
166.0,0.9721322099805574,57,99,Piano
166.0,0.9721322099805574,60,99,Piano
168.0,0.5555041199888899,58,102,Piano
168.0,0.5555041199888899,62,102,Piano
171.75,0.9721322099805574,55,98,Piano
171.75,0.9721322099805574,58,98,Piano
172.0,0.8332561799833349,62,107,Piano
172.0,0.8332561799833349,65,107,Piano
174.0,0.9721322099805574,58,96,Piano
174.0,0.9721322099805574,65,96,Piano
174.0,0.9721322099805574,62,96,Piano
174.0,0.9721322099805574,55,96,Piano
176.0,0.7406721599851865,56,101,Piano
176.0,0.7406721599851865,53,101,Piano
178.0,0.6943801499861124,56,102,Piano
178.0,0.6943801499861124,60,102,Piano
178.0,0.6943801499861124,49,102,Piano
178.0,0.7406721599851865,53,110,Piano
178.0,0.7406721599851865,60,110,Piano
180.0,0.9258401999814833,60,94,Piano
180.0,0.9258401999814833,56,94,Piano
180.0,0.9258401999814833,55,94,Piano
180.0,0.9258401999814833,51,102,Piano
180.0,0.9258401999814833,55,102,Piano
182.0,0.6943801499861124,51,100,Piano
182.0,0.6943801499861124,56,100,Piano
182.0,0.8332561799833349,60,94,Piano
182.0,0.8332561799833349,55,94,Piano
184.0,0.8332561799833349,60,106,Piano
184.0,0.8332561799833349,53,106,Piano
186.0,0.6943801499861124,56,103,Piano
186.0,0.6943801499861124,60,103,Piano
186.0,0.6943801499861124,53,103,Piano
188.0,0.8332561799833349,60,88,Piano
188.0,0.8332561799833349,55,88,Piano
190.0,0.6943801499861124,51,98,Piano
190.0,0.6943801499861124,60,98,Piano
190.0,0.6943801499861124,56,98,Piano
190.0,0.6943801499861124,55,98,Piano
192.0,0.5555041199888899,55,111,Piano
192.0,0.5555041199888899,58,111,Piano
192.0,0.6943801499861124,62,101,Piano
192.0,0.6943801499861124,43,101,Piano
194.0,0.7406721599851865,67,113,Piano
194.0,0.7406721599851865,64,113,Piano
194.0,0.7406721599851865,60,113,Piano
196.0,0.5555041199888899,45,106,Piano
196.0,0.5555041199888899,60,106,Piano
196.0,0.5555041199888899,57,106,Piano
196.0,0.6943801499861124,67,108,Piano
196.0,0.6943801499861124,64,108,Piano
198.0,0.8332561799833349,66,108,Piano
198.0,0.8332561799833349,57,108,Piano
198.0,0.8332561799833349,62,108,Piano
198.0,0.8332561799833349,60,108,Piano
198.0,0.6943801499861124,50,108,Piano
198.0,0.6943801499861124,38,108,Piano
200.0,0.7406721599851865,58,109,Piano
200.0,0.7406721599851865,65,109,Piano
200.0,0.7406721599851865,62,109,Piano
200.0,0.7406721599851865,55,109,Piano
202.0,0.6943801499861124,58,107,Piano
202.0,0.6943801499861124,65,107,Piano
202.0,0.6943801499861124,62,107,Piano
202.0,0.7406721599851865,55,109,Piano
202.0,0.7406721599851865,65,109,Piano
202.0,0.7406721599851865,62,109,Piano
204.0,0.5555041199888899,67,115,Piano
204.0,0.5555041199888899,64,115,Piano
204.0,0.5555041199888899,62,115,Piano
204.0,0.41662808999166745,57,108,Piano
204.0,0.41662808999166745,62,108,Piano
205.5,1.1110082399777799,67,104,Piano
205.5,1.1110082399777799,69,104,Piano
205.5,1.1110082399777799,61,104,Piano
205.5,1.1110082399777799,64,104,Piano
208.0,8.888065919822239,57,54,Piano
208.0,8.888065919822239,62,54,Piano
208.0,8.888065919822239,66,54,Piano
213.0,0.27775205999444497,78,78,Piano
213.0,0.27775205999444497,73,78,Piano
213.5,0.27775205999444497,76,72,Piano
213.5,0.27775205999444497,71,72,Piano
214.0,0.27775205999444497,78,72,Piano
214.0,0.27775205999444497,73,72,Piano
214.5,0.27775205999444497,76,70,Piano
214.5,0.27775205999444497,71,70,Piano
215.0,0.27775205999444497,78,76,Piano
215.0,0.27775205999444497,73,76,Piano
215.5,0.27775205999444497,64,104,Piano
215.5,0.27775205999444497,57,104,Piano
215.5,0.27775205999444497,81,74,Piano
215.5,0.27775205999444497,76,74,Piano
216.0,0.5555041199888899,83,72,Piano
216.0,0.5555041199888899,78,72,Piano
221.0,0.27775205999444497,78,70,Piano
221.0,0.27775205999444497,83,70,Piano
221.5,0.27775205999444497,76,62,Piano
221.5,0.27775205999444497,81,62,Piano
222.0,0.27775205999444497,78,68,Piano
222.0,0.27775205999444497,83,68,Piano
222.5,0.27775205999444497,81,64,Piano
222.5,0.27775205999444497,76,64,Piano
223.0,0.27775205999444497,83,69,Piano
223.0,0.27775205999444497,78,69,Piano
223.5,0.27775205999444497,81,62,Piano
223.5,0.27775205999444497,86,62,Piano
224.0,2.2220164799555597,83,67,Piano
224.0,2.2220164799555597,86,67,Piano
224.5,0.27775205999444497,59,112,Piano
224.5,0.27775205999444497,50,112,Piano
226.5,0.5555041199888899,66,111,Piano
226.5,0.5555041199888899,61,111,Piano
226.5,0.5555041199888899,57,111,Piano
226.5,0.41662808999166745,54,111,Piano
226.5,0.41662808999166745,42,111,Piano
226.5,0.8332561799833349,64,54,Piano
226.5,0.8332561799833349,69,54,Piano
226.5,0.8332561799833349,42,54,Piano
228.0,1.1110082399777799,40,92,Piano
228.0,1.1110082399777799,62,92,Piano
228.0,1.1110082399777799,64,92,Piano
228.0,1.1110082399777799,59,92,Piano
228.0,1.3887602999722248,40,54,Piano
228.0,1.3887602999722248,67,54,Piano
228.0,1.2498842699750023,59,54,Piano
228.0,1.2498842699750023,62,54,Piano
230.5,0.6943801499861124,54,94,Piano
230.5,0.6943801499861124,62,94,Piano
230.5,0.6943801499861124,38,94,Piano
230.5,0.6943801499861124,50,94,Piano
230.5,0.6943801499861124,57,94,Piano
230.5,0.8332561799833349,66,54,Piano
230.5,0.8332561799833349,62,54,Piano
230.5,0.8332561799833349,38,54,Piano
232.0,2.2220164799555597,67,54,Piano
232.0,2.2220164799555597,64,54,Piano
232.0,2.2220164799555597,36,54,Piano
234.0,0.6943801499861124,67,98,Piano
234.0,0.6943801499861124,59,98,Piano
234.0,0.6943801499861124,64,98,Piano
234.0,0.6943801499861124,48,98,Piano
236.0,0.6943801499861124,60,106,Piano
236.0,0.6943801499861124,57,106,Piano
236.0,0.5555041199888899,53,108,Piano
236.0,0.5555041199888899,41,108,Piano
236.0,0.8332561799833349,41,54,Piano
236.0,0.8332561799833349,60,54,Piano
236.0,2.2220164799555597,57,54,Piano
236.0,2.2220164799555597,64,54,Piano
237.5,1.3887602999722248,62,54,Piano
237.5,1.3887602999722248,46,54,Piano
240.0,2.2220164799555597,58,54,Piano
240.0,2.2220164799555597,62,54,Piano
240.0,2.2220164799555597,65,54,Piano
242.0,0.9721322099805574,55,96,Piano
242.0,0.9721322099805574,62,96,Piano
242.0,0.9721322099805574,58,96,Piano
244.0,0.8332561799833349,60,110,Piano
244.0,0.8332561799833349,69,110,Piano
248.0,0.7406721599851865,69,99,Piano
248.0,0.7406721599851865,65,99,Piano
248.0,0.7406721599851865,60,99,Piano
249.5,0.5555041199888899,65,98,Piano
249.5,0.5555041199888899,69,98,Piano
250.0,0.27775205999444497,84,86,Piano
250.0,0.27775205999444497,79,86,Piano
250.5,0.27775205999444497,81,78,Piano
250.5,0.27775205999444497,86,78,Piano
251.0,0.27775205999444497,81,81,Piano
251.0,0.27775205999444497,76,81,Piano
251.5,0.27775205999444497,84,86,Piano
251.5,0.27775205999444497,79,86,Piano
252.0,0.27775205999444497,79,83,Piano
252.0,0.27775205999444497,74,83,Piano
252.5,0.27775205999444497,76,86,Piano
252.5,0.27775205999444497,81,86,Piano
253.0,1.6665123599666698,77,75,Piano
253.0,1.6665123599666698,72,75,Piano
254.5,0.5555041199888899,72,109,Piano
254.5,0.5555041199888899,65,109,Piano
256.0,0.8332561799833349,69,112,Piano
256.0,0.8332561799833349,72,112,Piano
262.0,0.27775205999444497,67,104,Piano
262.0,0.27775205999444497,64,104,Piano
263.0,0.27775205999444497,64,106,Piano
263.0,0.27775205999444497,72,106,Piano
263.0,0.27775205999444497,67,106,Piano
264.0,0.8332561799833349,67,102,Piano
264.0,0.8332561799833349,64,102,Piano
266.0,0.9258401999814833,66,111,Piano
266.0,0.9258401999814833,69,111,Piano
266.0,0.9258401999814833,74,111,Piano
266.0,1.1110082399777799,66,54,Piano
266.0,1.1110082399777799,57,54,Piano
266.0,1.1110082399777799,50,54,Piano
268.0,0.37033607999259327,62,102,Piano
268.0,0.37033607999259327,43,102,Piano
268.0,2.2220164799555597,58,54,Piano
268.0,2.2220164799555597,62,54,Piano
272.0,0.6943801499861124,58,104,Piano
272.0,0.6943801499861124,62,104,Piano
272.0,2.2220164799555597,48,54,Piano
272.0,2.2220164799555597,62,54,Piano
274.0,0.9721322099805574,67,109,Piano
274.0,0.9721322099805574,58,109,Piano
274.0,0.9721322099805574,62,109,Piano
280.0,0.5555041199888899,65,110,Piano
280.0,0.5555041199888899,69,110,Piano
280.0,0.5555041199888899,72,110,Piano
280.0,0.5555041199888899,45,110,Piano
282.0,0.27775205999444497,84,86,Piano
282.0,0.27775205999444497,79,86,Piano
282.5,0.27775205999444497,81,78,Piano
282.5,0.27775205999444497,86,78,Piano
283.0,0.27775205999444497,81,81,Piano
283.0,0.27775205999444497,76,81,Piano
283.5,0.27775205999444497,84,86,Piano
283.5,0.27775205999444497,79,86,Piano
284.0,0.37033607999259327,58,93,Piano
284.0,0.37033607999259327,57,93,Piano
284.0,0.27775205999444497,79,83,Piano
284.0,0.27775205999444497,74,83,Piano
284.0,4.4440329599111195,46,54,Piano
284.0,4.4440329599111195,62,54,Piano
284.5,0.27775205999444497,76,86,Piano
284.5,0.27775205999444497,81,86,Piano
285.0,1.6665123599666698,77,75,Piano
285.0,1.6665123599666698,72,75,Piano
285.5,0.41662808999166745,62,98,Piano
285.5,0.41662808999166745,57,98,Piano
287.0,0.41662808999166745,58,90,Piano
287.0,0.41662808999166745,62,90,Piano
287.0,0.41662808999166745,57,90,Piano
290.5,0.13887602999722248,65,126,Piano
290.5,0.13887602999722248,74,126,Piano
291.5,0.27775205999444497,77,122,Piano
291.5,0.27775205999444497,69,122,Piano
292.0,0.6943801499861124,76,113,Piano
292.0,0.6943801499861124,67,113,Piano
292.0,0.6943801499861124,72,113,Piano
292.0,1.1110082399777799,48,54,Piano
292.0,1.1110082399777799,55,54,Piano
294.0,1.1110082399777799,46,54,Piano
294.0,1.1110082399777799,67,54,Piano
296.0,0.5555041199888899,72,106,Piano
296.0,0.5555041199888899,67,106,Piano
296.0,1.1110082399777799,67,54,Piano
296.0,1.1110082399777799,45,54,Piano
298.0,0.9721322099805574,66,99,Piano
298.0,0.9721322099805574,57,99,Piano
298.0,0.9721322099805574,60,99,Piano
298.0,1.1110082399777799,66,54,Piano
298.0,1.1110082399777799,50,54,Piano
300.0,0.5555041199888899,58,102,Piano
300.0,0.5555041199888899,62,102,Piano
303.75,0.9721322099805574,55,98,Piano
303.75,0.9721322099805574,58,98,Piano
304.0,0.8332561799833349,62,107,Piano
304.0,0.8332561799833349,65,107,Piano
306.0,0.9721322099805574,58,96,Piano
306.0,0.9721322099805574,65,96,Piano
306.0,0.9721322099805574,62,96,Piano
306.0,0.9721322099805574,55,96,Piano
308.0,2.036848439959263,65,98,Piano
308.0,2.036848439959263,69,98,Piano
308.0,2.036848439959263,72,98,Piano
308.0,2.036848439959263,62,98,Piano
308.0,0.27775205999444497,79,75,Piano
308.0,0.27775205999444497,74,75,Piano
308.0,2.2220164799555597,65,52,Piano
308.0,2.2220164799555597,58,52,Piano
308.0,0.0,36,36,Piano
308.0,0.0,44,36,Piano
308.5,0.27775205999444497,76,70,Piano
308.5,0.27775205999444497,81,70,Piano
309.0,0.27775205999444497,84,72,Piano
309.0,0.27775205999444497,79,72,Piano
309.5,0.27775205999444497,79,64,Piano
309.5,0.27775205999444497,74,64,Piano
310.0,0.5555041199888899,81,70,Piano
310.0,0.5555041199888899,76,70,Piano
311.0,0.27775205999444497,86,68,Piano
311.0,0.27775205999444497,81,68,Piano
311.5,0.27775205999444497,76,68,Piano
311.5,0.27775205999444497,81,68,Piano
312.0,2.0831404499583375,69,94,Piano
312.0,2.0831404499583375,72,94,Piano
312.0,2.0831404499583375,65,94,Piano
312.0,0.27775205999444497,84,70,Piano
312.0,0.27775205999444497,79,70,Piano
312.0,2.2220164799555597,64,54,Piano
312.0,2.2220164799555597,57,54,Piano
312.0,2.2220164799555597,60,54,Piano
312.0,2.2220164799555597,45,54,Piano
312.0,0.0,44,36,Piano
312.0,0.0,36,36,Piano
312.5,0.27775205999444497,74,58,Piano
312.5,0.27775205999444497,79,58,Piano
313.0,1.6665123599666698,76,68,Piano
313.0,1.6665123599666698,81,68,Piano
316.0,1.5276363299694473,69,97,Piano
316.0,1.5276363299694473,72,97,Piano
316.0,1.5276363299694473,65,97,Piano
316.0,1.5276363299694473,62,97,Piano
316.0,0.27775205999444497,79,75,Piano
316.0,0.27775205999444497,74,75,Piano
316.0,2.2220164799555597,65,52,Piano
316.0,2.2220164799555597,58,52,Piano
316.0,0.0,44,36,Piano
316.0,0.0,36,36,Piano
316.5,0.27775205999444497,76,70,Piano
316.5,0.27775205999444497,81,70,Piano
317.0,0.27775205999444497,84,72,Piano
317.0,0.27775205999444497,79,72,Piano
317.5,0.27775205999444497,79,64,Piano
317.5,0.27775205999444497,74,64,Piano
318.0,0.5555041199888899,81,70,Piano
318.0,0.5555041199888899,76,70,Piano
319.0,0.27775205999444497,79,68,Piano
319.0,0.27775205999444497,74,68,Piano
319.5,0.27775205999444497,76,68,Piano
319.5,0.27775205999444497,81,68,Piano
320.0,0.27775205999444497,84,70,Piano
320.0,0.27775205999444497,79,70,Piano
320.0,2.2220164799555597,64,54,Piano
320.0,2.2220164799555597,57,54,Piano
320.0,2.2220164799555597,48,54,Piano
320.0,2.2220164799555597,60,54,Piano
320.0,2.2220164799555597,64,54,Piano
320.0,0.0,44,36,Piano
320.0,0.0,36,36,Piano
320.5,0.27775205999444497,74,58,Piano
320.5,0.27775205999444497,79,58,Piano
321.0,1.6665123599666698,76,68,Piano
321.0,1.6665123599666698,81,68,Piano
324.0,0.27775205999444497,79,75,Piano
324.0,0.27775205999444497,74,75,Piano
324.0,2.2220164799555597,65,52,Piano
324.0,2.2220164799555597,58,52,Piano
324.0,2.2220164799555597,65,54,Piano
324.0,2.2220164799555597,50,54,Piano
324.0,2.2220164799555597,57,54,Piano
324.0,0.0,36,36,Piano
324.0,0.0,44,36,Piano
324.5,0.27775205999444497,76,70,Piano
324.5,0.27775205999444497,81,70,Piano
325.0,0.27775205999444497,84,72,Piano
325.0,0.27775205999444497,79,72,Piano
325.5,0.27775205999444497,79,64,Piano
325.5,0.27775205999444497,74,64,Piano
326.0,0.5555041199888899,81,70,Piano
326.0,0.5555041199888899,76,70,Piano
327.0,0.27775205999444497,79,68,Piano
327.0,0.27775205999444497,74,68,Piano
327.5,0.27775205999444497,76,68,Piano
327.5,0.27775205999444497,81,68,Piano
328.0,1.9442644199611148,67,92,Piano
328.0,1.9442644199611148,57,92,Piano
328.0,0.27775205999444497,84,70,Piano
328.0,0.27775205999444497,79,70,Piano
328.0,2.2220164799555597,64,54,Piano
328.0,2.2220164799555597,57,54,Piano
328.0,0.0,44,36,Piano
328.0,0.0,36,36,Piano
328.5,0.27775205999444497,74,58,Piano
328.5,0.27775205999444497,79,58,Piano
329.0,1.6665123599666698,76,68,Piano
329.0,1.6665123599666698,81,68,Piano
332.0,0.5555041199888899,62,98,Piano
332.0,0.5555041199888899,70,98,Piano
332.0,0.5555041199888899,67,107,Piano
332.0,0.5555041199888899,70,107,Piano
332.0,2.2220164799555597,55,56,Piano
332.0,2.2220164799555597,62,56,Piano
332.0,0.27775205999444497,79,72,Piano
332.0,0.27775205999444497,74,72,Piano
332.0,2.2220164799555597,43,54,Piano
332.0,2.2220164799555597,53,54,Piano
332.0,4.4440329599111195,58,54,Piano
332.0,4.4440329599111195,62,54,Piano
332.0,0.0,36,36,Piano
332.0,0.0,44,36,Piano
332.5,0.27775205999444497,81,70,Piano
332.5,0.27775205999444497,76,70,Piano
333.0,0.27775205999444497,79,71,Piano
333.0,0.27775205999444497,84,71,Piano
333.5,0.27775205999444497,79,67,Piano
333.5,0.27775205999444497,74,67,Piano
334.0,0.27775205999444497,81,72,Piano
334.0,0.27775205999444497,76,72,Piano
334.5,0.27775205999444497,79,66,Piano
334.5,0.27775205999444497,84,66,Piano
335.0,0.27775205999444497,76,70,Piano
335.0,0.27775205999444497,81,70,Piano
335.5,0.27775205999444497,69,64,Piano
335.5,0.27775205999444497,76,64,Piano
336.0,0.5555041199888899,58,94,Piano
336.0,0.5555041199888899,62,94,Piano
336.0,2.2220164799555597,48,58,Piano
336.0,2.2220164799555597,55,58,Piano
336.0,0.27775205999444497,84,72,Piano
336.0,0.27775205999444497,79,72,Piano
336.0,0.0,44,36,Piano
336.0,0.0,36,36,Piano
336.5,0.27775205999444497,74,70,Piano
336.5,0.27775205999444497,79,70,Piano
337.0,0.27775205999444497,81,72,Piano
337.0,0.27775205999444497,76,72,Piano
337.5,0.27775205999444497,72,62,Piano
337.5,0.27775205999444497,77,62,Piano
338.0,0.27775205999444497,79,68,Piano
338.0,0.27775205999444497,74,68,Piano
338.5,0.2867246487623053,69,60,Piano
338.5,0.2867246487623053,74,60,Piano
339.0,0.29626703535453286,72,62,Piano
339.0,0.29626703535453286,77,62,Piano
339.5,0.30649775234981613,72,62,Piano
339.5,0.30649775234981613,67,62,Piano
340.0,2.451982018798529,53,66,Piano
340.0,2.451982018798529,74,66,Piano
340.0,2.451982018798529,69,66,Piano
340.0,2.451982018798529,60,66,Piano
340.0,7.355946056395587,41,54,Piano
340.0,7.355946056395587,60,54,Piano
340.0,7.355946056395587,57,54,Piano
340.0,0.0,44,36,Piano
340.0,0.0,36,36,Piano
344.0,11.851851851851851,72,89,Piano
344.0,11.851851851851851,29,89,Piano
344.0,11.851851851851851,41,89,Piano
344.0,11.851851851851851,53,61,Piano
344.0,11.851851851851851,60,61,Piano
